<svg xmlns="http://www.w3.org/2000/svg" width="18.998" height="19.005" viewBox="0 0 18.998 19.005"><path d="M17578.5,11778h-4.453a.369.369,0,0,1-.289-.109.375.375,0,0,1-.111-.29v-11.267l-1.977,1.845a.371.371,0,0,1-.275.12.39.39,0,0,1-.279-.12.37.37,0,0,1-.117-.271.39.39,0,0,1,.119-.281l9.107-8.511a.377.377,0,0,1,.273-.12.382.382,0,0,1,.277.12l9.1,8.511a.389.389,0,0,1,.119.28.379.379,0,0,1-.119.272.349.349,0,0,1-.273.119.418.418,0,0,1-.283-.119l-1.977-1.846v11.266a.386.386,0,0,1-.107.288.377.377,0,0,1-.287.111h-4.453v-5h-4v4.207h0v.79Z" transform="translate(-17570.998 -11758.996)" fill="#58595b"/></svg>