<svg xmlns="http://www.w3.org/2000/svg" xmlns:xlink="http://www.w3.org/1999/xlink" width="593" height="102" viewBox="0 0 593 102"><defs><clipPath id="b"><rect width="593" height="102"/></clipPath></defs><g id="a" clip-path="url(#b)"><path d="M37.84,16.8l.83-5.406H33.482V7.888A2.7,2.7,0,0,1,36.53,4.968h2.358V.365A28.757,28.757,0,0,0,34.7,0c-4.272,0-7.064,2.589-7.064,7.276V11.4H22.89V16.8h4.748V29.871h5.844V16.8Z" transform="translate(86.077 14.923)" fill="none" stroke="#58595b" stroke-width="2"/><g transform="translate(315.59 14.923)"><path d="M20.284,0H9.22A9.221,9.221,0,0,0,0,9.22V20.284A9.221,9.221,0,0,0,9.22,29.5H20.284a9.22,9.22,0,0,0,9.22-9.22V9.22A9.221,9.221,0,0,0,20.284,0Z" fill="none" stroke="#58595b" stroke-width="2"/><g transform="translate(7.376 7.376)"><path d="M16.646,9.27a7.376,7.376,0,1,0,7.376,7.376A7.376,7.376,0,0,0,16.646,9.27Z" transform="translate(-9.27 -9.27)" fill="none" stroke="#58595b" stroke-width="2"/></g><g transform="translate(21.698 5.84)"><ellipse cx="0.983" cy="0.983" rx="0.983" ry="0.983" fill="none" stroke="#58595b" stroke-width="2"/></g></g><g transform="translate(195.351 15.857)"><g transform="translate(0 0)"><path d="M99.5,103.659a14.974,14.974,0,0,1-4.153,1.138,7.162,7.162,0,0,0,3.171-3.984,14.417,14.417,0,0,1-4.571,1.745,7.209,7.209,0,0,0-12.47,4.929,7.441,7.441,0,0,0,.168,1.644,20.4,20.4,0,0,1-14.859-7.54A7.21,7.21,0,0,0,69,111.226a7.126,7.126,0,0,1-3.257-.888v.08a7.242,7.242,0,0,0,5.776,7.083,7.192,7.192,0,0,1-1.891.237,6.336,6.336,0,0,1-1.364-.123A7.277,7.277,0,0,0,75,122.636a14.487,14.487,0,0,1-8.939,3.074,13.7,13.7,0,0,1-1.725-.1A20.3,20.3,0,0,0,75.4,128.847c13.266,0,20.518-10.989,20.518-20.514,0-.319-.011-.626-.026-.932A14.381,14.381,0,0,0,99.5,103.659Z" transform="translate(-64.34 -100.277)" fill="none" stroke="#58595b" stroke-width="2"/></g></g><g transform="translate(423.183 15.794)"><g transform="translate(0 0)"><path d="M277.326,248.2c-1.029-1.831-2.146-2.168-4.42-2.3-2.271-.154-7.983-.218-12.932-.218s-10.673.063-12.942.215c-2.269.13-3.388.465-4.427,2.3-1.06,1.829-1.6,4.977-1.6,10.52v.019c0,5.52.545,8.693,1.6,10.5,1.039,1.83,2.156,2.162,4.425,2.317,2.271.133,7.986.211,12.945.211s10.661-.078,12.934-.21c2.274-.153,3.39-.486,4.42-2.315,1.07-1.81,1.61-4.983,1.61-10.5v-.019C278.938,253.178,278.4,250.029,277.326,248.2Zm-22.1,17.641V251.615l11.856,7.114Z" transform="translate(-241 -245.688)" fill="none" stroke="#58595b" stroke-width="2"/></g></g><path d="M37.84,16.8l.83-5.406H33.482V7.888A2.7,2.7,0,0,1,36.53,4.968h2.358V.365A28.757,28.757,0,0,0,34.7,0c-4.272,0-7.064,2.589-7.064,7.276V11.4H22.89V16.8h4.748V29.871h5.844V16.8Z" transform="translate(122.077 14.923)" fill="#b7202e" stroke="#b7202e" stroke-width="1"/><g transform="translate(359.59 15.923)"><path d="M20.284,0H9.22A9.221,9.221,0,0,0,0,9.22V20.284A9.221,9.221,0,0,0,9.22,29.5H20.284a9.22,9.22,0,0,0,9.22-9.22V9.22A9.221,9.221,0,0,0,20.284,0Z" fill="none" stroke="#b7202e" stroke-width="2"/><g transform="translate(7.376 7.376)"><path d="M16.646,9.27a7.376,7.376,0,1,0,7.376,7.376A7.376,7.376,0,0,0,16.646,9.27Z" transform="translate(-9.27 -9.27)" fill="none" stroke="#b7202e" stroke-width="2"/></g><g transform="translate(21.698 5.84)"><ellipse cx="0.983" cy="0.983" rx="0.983" ry="0.983" fill="none" stroke="#b7202e" stroke-width="2"/></g></g><g transform="translate(246.351 15.857)"><g transform="translate(0 0)"><path d="M99.5,103.659a14.974,14.974,0,0,1-4.153,1.138,7.162,7.162,0,0,0,3.171-3.984,14.417,14.417,0,0,1-4.571,1.745,7.209,7.209,0,0,0-12.47,4.929,7.441,7.441,0,0,0,.168,1.644,20.4,20.4,0,0,1-14.859-7.54A7.21,7.21,0,0,0,69,111.226a7.126,7.126,0,0,1-3.257-.888v.08a7.242,7.242,0,0,0,5.776,7.083,7.192,7.192,0,0,1-1.891.237,6.336,6.336,0,0,1-1.364-.123A7.277,7.277,0,0,0,75,122.636a14.487,14.487,0,0,1-8.939,3.074,13.7,13.7,0,0,1-1.725-.1A20.3,20.3,0,0,0,75.4,128.847c13.266,0,20.518-10.989,20.518-20.514,0-.319-.011-.626-.026-.932A14.381,14.381,0,0,0,99.5,103.659Z" transform="translate(-64.34 -100.277)" fill="#b7202e" stroke="#b7202e" stroke-width="2"/></g></g><g transform="translate(288 -463)"><g transform="translate(188.183 479.794)"><g transform="translate(0 0)"><path d="M277.326,248.2c-1.029-1.831-2.146-2.168-4.42-2.3-2.271-.154-7.983-.218-12.932-.218s-10.673.063-12.942.215c-2.269.13-3.388.465-4.427,2.3-1.06,1.829-1.6,4.977-1.6,10.52v.019c0,5.52.545,8.693,1.6,10.5,1.039,1.83,2.156,2.162,4.425,2.317,2.271.133,7.986.211,12.945.211s10.661-.078,12.934-.21c2.274-.153,3.39-.486,4.42-2.315,1.07-1.81,1.61-4.983,1.61-10.5v-.019C278.938,253.178,278.4,250.029,277.326,248.2Zm-22.1,17.641h0V251.615l11.856,7.114Z" transform="translate(-241 -245.688)" fill="#b7202e" stroke="#b61f2d" stroke-width="2"/></g></g><path d="M-96.656,6449.341l-14.872-9.085v17.85Z" transform="translate(312.928 -5956.421)" fill="#fff"/></g><g transform="translate(573 24.758)"><path d="M8.442.064l4.147,4.149a.225.225,0,0,1,0,.319L8.442,8.682a.232.232,0,0,1-.318,0,.226.226,0,0,1,0-.319L11.887,4.6H.225a.226.226,0,0,1,0-.451H11.887L8.124.383a.226.226,0,0,1,0-.319A.231.231,0,0,1,8.442.064Z" transform="translate(0 0)" fill="#069" stroke="#069" stroke-width="1"/></g><path d="M8.442.064l4.147,4.149a.225.225,0,0,1,0,.319L8.442,8.682a.232.232,0,0,1-.318,0,.226.226,0,0,1,0-.319L11.887,4.6H.225a.226.226,0,0,1,0-.451H11.887L8.124.383a.226.226,0,0,1,0-.319A.231.231,0,0,1,8.442.064Z" transform="translate(549 24.758)" fill="#046" stroke="#046" stroke-width="1"/><path d="M8,0l8,13.647H0Z" transform="translate(38.647 67.2) rotate(90)" fill="#58595b"/><path d="M8,0l8,13.647H0Z" transform="translate(71.647 67.2) rotate(90)" fill="#b7202e"/><path d="M17578.5,11778h-4.453a.377.377,0,0,1-.4-.4v-11.266l-1.977,1.845a.379.379,0,0,1-.275.119.387.387,0,0,1-.277-.119.381.381,0,0,1-.119-.271.39.39,0,0,1,.119-.28l9.107-8.511a.375.375,0,0,1,.273-.119.391.391,0,0,1,.279.119l9.1,8.511a.39.39,0,0,1,.119.28.381.381,0,0,1-.119.271.356.356,0,0,1-.273.119.428.428,0,0,1-.283-.119l-1.977-1.845v11.266a.374.374,0,0,1-.393.4h-4.455v-5h-4v4.207h0v.79Z" transform="translate(-17549 -11738)" fill="#58595b"/><path d="M17578.5,11778h-4.453a.377.377,0,0,1-.4-.4v-11.266l-1.977,1.845a.379.379,0,0,1-.275.119.387.387,0,0,1-.277-.119.381.381,0,0,1-.119-.271.39.39,0,0,1,.119-.28l9.107-8.511a.375.375,0,0,1,.273-.119.391.391,0,0,1,.279.119l9.1,8.511a.39.39,0,0,1,.119.28.381.381,0,0,1-.119.271.356.356,0,0,1-.273.119.428.428,0,0,1-.283-.119l-1.977-1.845v11.266a.374.374,0,0,1-.393.4h-4.455v-5h-4v4.207h0v.79Z" transform="translate(-17511 -11738)" fill="#b7202e"/><g transform="translate(108.508 60.688)"><path d="M3.115,4.267A4.076,4.076,0,0,0-1,8.331a4.073,4.073,0,0,0,1.219,2.9A3.874,3.874,0,0,0,3.064,12.4h.1a3.851,3.851,0,0,0,2.743-1.168,4.073,4.073,0,0,0,1.219-2.9A3.8,3.8,0,0,0,5.96,5.486,3.845,3.845,0,0,0,3.115,4.267ZM5.2,10.516a2.8,2.8,0,0,1-2.134.864A3.083,3.083,0,0,1,.93,10.516,2.954,2.954,0,0,1,.016,8.331a3.036,3.036,0,0,1,3.1-3.048A2.964,2.964,0,0,1,5.2,6.147a3.037,3.037,0,0,1,.914,2.184A2.954,2.954,0,0,1,5.2,10.516Z" transform="translate(1 -4.267)" fill="#58595b" stroke="#58595b" stroke-width="0.7"/><path d="M13.121,157.867H9.006a1.486,1.486,0,0,0-1.473,1.524v17.78A1.563,1.563,0,0,0,9.057,178.7h4.064a1.554,1.554,0,0,0,1.524-1.473V159.391A1.563,1.563,0,0,0,13.121,157.867Zm.508,19.355a.5.5,0,0,1-.508.457H9.057a.546.546,0,0,1-.508-.508v-17.78a.5.5,0,0,1,.457-.508h4.115a.546.546,0,0,1,.508.508Z" transform="translate(-7.025 -148.723)" fill="#58595b" stroke="#58595b" stroke-width="0.7"/><path d="M182.072,149.333h-1.067a6.863,6.863,0,0,0-5.08,2.235v-.711a1.093,1.093,0,0,0-1.016-1.016h-5.08a1.044,1.044,0,0,0-1.016.965v18.949a1,1,0,0,0,1.016.914h5.588a1,1,0,0,0,1.016-.914V158.782a2.868,2.868,0,0,1,2.794-3,3,3,0,0,1,2.134.864,2.668,2.668,0,0,1,.711,2.083v10.922a1.093,1.093,0,0,0,1.016,1.016h5.08a1.093,1.093,0,0,0,1.016-1.016V156.547A7.06,7.06,0,0,0,182.072,149.333Zm6.1,20.27-.051.051h-4.979l-.051-10.922a3.741,3.741,0,0,0-.965-2.794,4,4,0,0,0-2.845-1.168,3.917,3.917,0,0,0-3.81,4.013v10.871H169.88v-18.8h5.029l.051.051v3.2l1.372-1.372.051-.051a5.8,5.8,0,0,1,4.674-2.337h1.067a6.062,6.062,0,0,1,6.045,6.2Z" transform="translate(-158.704 -140.697)" fill="#58595b" stroke="#58595b" stroke-width="0.7"/></g><g transform="translate(205 63.852)"><path d="M33.615,64H3.056A3.059,3.059,0,0,0,0,67.056V88.448A3.059,3.059,0,0,0,3.056,91.5H33.615a3.059,3.059,0,0,0,3.056-3.056V67.056A3.059,3.059,0,0,0,33.615,64ZM3.056,65.528H33.615a1.454,1.454,0,0,1,.317.064c-2.646,2.421-11.418,10.447-14.488,13.213a1.533,1.533,0,0,1-2.218,0C14.157,76.039,5.383,68.013,2.738,65.592A1.461,1.461,0,0,1,3.056,65.528ZM1.528,88.447V67.056a1.476,1.476,0,0,1,.086-.422C3.638,68.487,9.76,74.087,13.729,77.7c-3.956,3.4-10.079,9.2-12.12,11.15A1.472,1.472,0,0,1,1.528,88.447Zm32.087,1.528H3.056a1.461,1.461,0,0,1-.345-.07c2.109-2.011,8.271-7.849,12.158-11.174.507.46.969.879,1.334,1.207a3.052,3.052,0,0,0,4.264,0c.365-.329.828-.748,1.335-1.208,3.887,3.325,10.048,9.163,12.158,11.174A1.459,1.459,0,0,1,33.615,89.975Zm1.528-1.528a1.475,1.475,0,0,1-.081.4C33.021,86.9,26.9,81.094,22.943,77.7c3.969-3.609,10.09-9.209,12.115-11.063a1.476,1.476,0,0,1,.086.422Z" transform="translate(0 -64)" fill="#58595b" stroke="#58595b" stroke-width="0.1"/></g><path d="M-17996.039-21701.832l12.582,10.971-.869,1.365-11.713,11.275-1.461-1.441.559-21.252Z" transform="translate(18254 21768)" fill="#b7202e"/><path d="M-17975.477-21691.207l12.771-11.551.508,1.26v23.039h-1.705v-1.119l-11.088-9.68Z" transform="translate(18254 21768)" fill="#b7202e"/><path d="M-17983.887-21689.6l-9.379,8.428-2.773,2.553v.822l10.193.7,22.8-.7-1.271-1.605-10.738-10.2-1.229-.52-1.639,1.326-1.9.6-1.711-1.4-1.639-.52Z" transform="translate(18254 21768)" fill="#b7202e"/><path d="M-17995.082-21702.758h31.281l-14.855,14.006-1.264.582-2.67-1.646-12.951-12.1-.541-.844Z" transform="translate(18254 21768)" fill="#b7202e"/><path d="M33.615,64H3.056A3.059,3.059,0,0,0,0,67.056V88.448A3.059,3.059,0,0,0,3.056,91.5H33.615a3.059,3.059,0,0,0,3.056-3.056V67.056A3.059,3.059,0,0,0,33.615,64ZM3.056,65.528H33.615a1.454,1.454,0,0,1,.317.064c-2.646,2.421-11.418,10.447-14.488,13.213a1.533,1.533,0,0,1-2.218,0C14.157,76.039,5.383,68.013,2.738,65.592A1.461,1.461,0,0,1,3.056,65.528ZM1.528,88.447V67.056a1.476,1.476,0,0,1,.086-.422C3.638,68.487,9.76,74.087,13.729,77.7c-3.956,3.4-10.079,9.2-12.12,11.15A1.472,1.472,0,0,1,1.528,88.447Zm32.087,1.528H3.056a1.461,1.461,0,0,1-.345-.07c2.109-2.011,8.271-7.849,12.158-11.174.507.46.969.879,1.334,1.207a3.052,3.052,0,0,0,4.264,0c.365-.329.828-.748,1.335-1.208,3.887,3.325,10.048,9.163,12.158,11.174A1.459,1.459,0,0,1,33.615,89.975Zm1.528-1.528a1.475,1.475,0,0,1-.081.4C33.021,86.9,26.9,81.094,22.943,77.7c3.969-3.609,10.09-9.209,12.115-11.063a1.476,1.476,0,0,1,.086.422Z" transform="translate(256 -0.148)" fill="#fff"/><path d="M-18099.5-21697.455h-4.2l-.6.318-.168.791v17.4l.168.807.8.293h4.436l.455-.521.291-1.734-.291-12.658.291-4.375-.967-.318Z" transform="translate(18254 21768)" fill="#b7202e"/><path d="M-18081.256-21678.846v-7.459l-1.242-4.893-1.227-1.107h-2.254l-1.117.412-1.037.7v12.891l-1.527.547h-4.18l-1.047-.547v-18.381l1.047-.936h5v2.469l1.74-1.533,2.705-.936,3.135-.535,2.145.535,1.908.936.582,1.533.986,2.258.424,3.906-.424,7.539v3.691h-5.205Z" transform="translate(18254 21768)" fill="#b7202e" stroke="#707070" stroke-width="0.3"/><g transform="translate(148.508 60.688)"><path d="M3.115,4.267A4.076,4.076,0,0,0-1,8.331a4.073,4.073,0,0,0,1.219,2.9A3.874,3.874,0,0,0,3.064,12.4h.1a3.851,3.851,0,0,0,2.743-1.168,4.073,4.073,0,0,0,1.219-2.9A3.8,3.8,0,0,0,5.96,5.486,3.845,3.845,0,0,0,3.115,4.267ZM5.2,10.516a2.8,2.8,0,0,1-2.134.864A3.083,3.083,0,0,1,.93,10.516,2.954,2.954,0,0,1,.016,8.331a3.036,3.036,0,0,1,3.1-3.048A2.964,2.964,0,0,1,5.2,6.147a3.037,3.037,0,0,1,.914,2.184A2.954,2.954,0,0,1,5.2,10.516Z" transform="translate(1 -4.267)" fill="#b7202e"/><path d="M13.121,157.867H9.006a1.486,1.486,0,0,0-1.473,1.524v17.78A1.563,1.563,0,0,0,9.057,178.7h4.064a1.554,1.554,0,0,0,1.524-1.473V159.391A1.563,1.563,0,0,0,13.121,157.867Zm.508,19.355a.5.5,0,0,1-.508.457H9.057a.546.546,0,0,1-.508-.508v-17.78a.5.5,0,0,1,.457-.508h4.115a.546.546,0,0,1,.508.508Z" transform="translate(-7.025 -148.723)" fill="#b7202e"/><path d="M182.072,149.333h-1.067a6.863,6.863,0,0,0-5.08,2.235v-.711a1.093,1.093,0,0,0-1.016-1.016h-5.08a1.044,1.044,0,0,0-1.016.965v18.949a1,1,0,0,0,1.016.914h5.588a1,1,0,0,0,1.016-.914V158.782a2.868,2.868,0,0,1,2.794-3,3,3,0,0,1,2.134.864,2.668,2.668,0,0,1,.711,2.083v10.922a1.093,1.093,0,0,0,1.016,1.016h5.08a1.093,1.093,0,0,0,1.016-1.016V156.547A7.06,7.06,0,0,0,182.072,149.333Zm6.1,20.27-.051.051h-4.979l-.051-10.922a3.741,3.741,0,0,0-.965-2.794,4,4,0,0,0-2.845-1.168,3.917,3.917,0,0,0-3.81,4.013v10.871H169.88v-18.8h5.029l.051.051v3.2l1.372-1.372.051-.051a5.8,5.8,0,0,1,4.674-2.337h1.067a6.062,6.062,0,0,1,6.045,6.2Z" transform="translate(-158.704 -140.697)" fill="#b7202e"/></g><circle cx="3.5" cy="3.5" r="3.5" transform="translate(149 61)" fill="#b7202e"/></g></svg>