<?xml version="1.0" encoding="utf-8"?>
<!-- Generator: Adobe Illustrator 24.2.0, SVG Export Plug-In . SVG Version: 6.00 Build 0)  -->
<svg version="1.1" id="Layer_1" xmlns="http://www.w3.org/2000/svg" xmlns:xlink="http://www.w3.org/1999/xlink" x="0px" y="0px"
	 viewBox="0 0 22.2 35.8" style="enable-background:new 0 0 22.2 35.8;" xml:space="preserve">
<style type="text/css">
	.st0{opacity:0.4;fill:none;stroke:#C8C9C9;stroke-width:2;enable-background:new    ;}
	.st1{opacity:0.12;fill:#C8C9C9;enable-background:new    ;}
</style>
<g id="prefix__Group_7527" transform="translate(-97.903 -1138.049)">
	<g id="prefix__Group_7520" transform="translate(12608.903 15762)">
		<g id="prefix__Group_7499" transform="translate(-12511 -14623)">
			<g id="prefix__Group_7496">
				<g id="prefix__Group_7302" transform="translate(0 22.309)">
					<path id="prefix__Rectangle_4688" d="M0,0h22.1v6.9H0V0z"/>
					<path id="prefix__Polygon_8" d="M11,12.6L0,6.9h22.1L11,12.6z"/>
				</g>
				<path id="prefix__Line_907" class="st0" d="M0,0h22.1"/>
				<path id="prefix__Rectangle_4687" class="st1" d="M0.1,0h22.1v22.3H0.1V0z"/>
			</g>
		</g>
	</g>
</g>
<path d="M13.7,7.8c0.9,0.7,1.4,1.9,1.4,3.8c0,1.8-0.4,3.1-1.3,3.8c-0.9,0.7-2,1.1-3.4,1.1H7.7V6.8H10C11.5,6.8,12.7,7.1,13.7,7.8z
	 M9.5,8.2v6.9h0.9c0.8,0,1.5-0.3,1.9-0.8s0.7-1.4,0.7-2.7c0-0.9-0.1-1.6-0.4-2.1c-0.2-0.5-0.6-0.8-0.9-1c-0.4-0.2-0.9-0.3-1.4-0.3
	H9.5z"/>
</svg>
