<?xml version="1.0" encoding="utf-8"?>
<!-- Generator: Adobe Illustrator 24.2.0, SVG Export Plug-In . SVG Version: 6.00 Build 0)  -->
<svg version="1.1" id="Layer_1" xmlns="http://www.w3.org/2000/svg" xmlns:xlink="http://www.w3.org/1999/xlink" x="0px" y="0px"
	 viewBox="0 0 301.4 287.2" style="enable-background:new 0 0 301.4 287.2;" xml:space="preserve">
<style type="text/css">
	.st0{fill:#4CAF50;}
	.st1{opacity:0.4;fill:none;stroke:#4CAF50;stroke-width:5;enable-background:new    ;}
	.st2{opacity:0.12;fill:#4CAF50;enable-background:new    ;}
</style>
<g transform="translate(-845.833 -625.768)">
	<g transform="translate(935.833 628)">
		<g transform="translate(0 0)">
			<g transform="translate(0 122.711)">
				<rect x="0" y="0" class="st0" width="121.4" height="37.7"/>
				<g transform="matrix(1, 0, 0, 1, -90, -124.94)">
					<path class="st0" d="M150.7,194.2L90,162.6h121.4L150.7,194.2z"/>
				</g>
			</g>
			<line class="st1" x1="0.3" y1="0.3" x2="121.6" y2="0.3"/>
			<path class="st2" d="M0.2,0h121.4v122.7H0.2V0z"/>
		</g>
	</g>
</g>
<g>
	<path class="st0" d="M169.5,36.1v55.6H159l-0.6-4.6c-2.3,3.3-5.9,5.9-11.3,5.9c-10.1,0-15.1-8.4-15.1-21.3
		c0-12.3,6.5-21.1,16.3-21.1c3.9,0,7.1,1.4,9.5,3.7V34.9L169.5,36.1z M157.6,79.9V62.7c-1.8-2.1-3.6-3.4-6.2-3.4
		c-4.2,0-7.2,3.6-7.2,12.5c0,9.9,2.7,12.5,6.5,12.5C153.6,84.4,155.7,82.9,157.6,79.9z"/>
</g>
</svg>
