<svg xmlns="http://www.w3.org/2000/svg" xmlns:xlink="http://www.w3.org/1999/xlink" width="301.359" height="287.182" viewBox="0 0 301.359 287.182"><defs><filter id="a" x="0" y="75.638" width="301.359" height="211.543" filterUnits="userSpaceOnUse"><feOffset dy="3" input="SourceAlpha"/><feGaussianBlur stdDeviation="30" result="b"/><feFlood flood-opacity="0.302"/><feComposite operator="in" in2="b"/><feComposite in="SourceGraphic"/></filter></defs><g transform="translate(-845.833 -625.768)"><g transform="translate(935.833 628)"><g transform="translate(0 0)"><g transform="translate(0 122.711)"><rect width="121.359" height="37.744" transform="translate(0.001)" fill="#4caf50"/><g transform="matrix(1, 0, 0, 1, -90, -124.94)" filter="url(#a)"><path d="M60.68,0l60.68,31.543H0Z" transform="translate(211.36 194.18) rotate(180)" fill="#4caf50"/></g></g><line x2="121.359" transform="translate(0.27 0.269)" fill="none" stroke="#4caf50" stroke-width="5" opacity="0.4"/><path d="M0,0H121.359V122.714H0Z" transform="translate(0.167)" fill="#4caf50" opacity="0.12"/><path d="M54.216,0H42.624L41.76-19.512Q41.4-26.5,41.4-31.968q0-4.176.216-7.92l-7.7,34.632H22.752L14.544-39.888q.432,6.264.432,11.808,0,4.176-.216,8.712L13.9,0H2.376L6.12-49.9h14.9l7.488,33.84L35.5-49.9H50.472Z" transform="translate(32.791 85.896)" fill="#4caf50"/></g></g></g></svg>