<svg xmlns="http://www.w3.org/2000/svg" width="19.308" height="19.308" viewBox="0 0 19.308 19.308"><g transform="translate(0.5 0.5)"><g transform="translate(0 0)"><path d="M35.955-16.016a1.434,1.434,0,0,1-1.49,1.384,1.434,1.434,0,0,1-1.49-1.384,1.434,1.434,0,0,1,1.49-1.384A1.434,1.434,0,0,1,35.955-16.016Z" transform="translate(-20.201 19.848)" fill="#517fa4"/><path d="M37.012-1.392H28.5a4.953,4.953,0,0,1-4.9-4.9V-14.8a4.953,4.953,0,0,1,4.9-4.9h8.516a4.953,4.953,0,0,1,4.9,4.9v8.515a4.953,4.953,0,0,1-4.9,4.9Z" transform="translate(-23.6 19.7)" fill="none" stroke="#517fa4" stroke-miterlimit="10" stroke-width="1"/></g><g transform="translate(4.402 5.241)" fill="none" stroke="#517fa4" stroke-width="1"><circle cx="4.24" cy="4.24" r="4.24" stroke="none"/><circle cx="4.24" cy="4.24" r="3.74" fill="none"/></g></g></svg>