<svg xmlns="http://www.w3.org/2000/svg" width="21.36" height="15.27" viewBox="0 0 21.36 15.27"><g transform="translate(-570 -408.852)"><g transform="translate(-3098 3207)"><path d="M-17996.629-21701.83l7.514,6.016-.52.748-6.994,6.184-.871-.791.332-11.654Z" transform="translate(21665.799 18905.064)" fill="#b7202e"/><path d="M-17975.477-21696.408l7.627-6.35.3.693v12.666h-1.018v-.617l-6.619-5.322Z" transform="translate(21656.389 18905.439)" fill="#b7202e"/><path d="M-17988.98-21689.809l-5.447,5.031-1.611,1.525v.49l5.922.418,13.244-.418-.74-.959-6.236-6.092-.715-.309-.949.791-1.105.359-.992-.838-.955-.309Z" transform="translate(21665.209 18899.197)" fill="#b7202e"/><path d="M-17995.5-21702.758h18.158l-8.625,8.363-.732.348-1.549-.984-7.52-7.225-.312-.5Z" transform="translate(21665.229 18905.441)" fill="#b7202e"/><path d="M19.58,64H1.78A1.742,1.742,0,0,0,0,65.7V77.575A1.742,1.742,0,0,0,1.78,79.27h17.8a1.742,1.742,0,0,0,1.78-1.7V65.7A1.742,1.742,0,0,0,19.58,64Zm-17.8.848h17.8a.884.884,0,0,1,.185.036c-1.541,1.344-6.651,5.8-8.439,7.337a.923.923,0,0,1-1.292,0c-1.788-1.536-6.9-5.993-8.439-7.337a.889.889,0,0,1,.185-.036ZM.89,77.575V65.7a.786.786,0,0,1,.05-.234C2.119,66.492,5.685,69.6,8,71.607,5.693,73.5,2.126,76.716.937,77.8a.784.784,0,0,1-.047-.224Zm18.69.848H1.78a.886.886,0,0,1-.2-.039c1.228-1.117,4.818-4.358,7.082-6.2.3.255.564.488.777.67a1.841,1.841,0,0,0,2.484,0l.778-.671c2.264,1.846,5.853,5.088,7.082,6.2a.886.886,0,0,1-.2.039Zm.89-.848a.786.786,0,0,1-.047.222c-1.189-1.081-4.754-4.305-7.059-6.19,2.312-2,5.877-5.114,7.057-6.143a.786.786,0,0,1,.05.234Z" transform="translate(3668 -2862.148)" fill="#fff"/></g></g></svg>