<svg xmlns="http://www.w3.org/2000/svg" width="21.485" height="16.683" viewBox="0 0 21.485 16.683"><path d="M40.713-17.959a4.655,4.655,0,0,1-2.176.635,2.99,2.99,0,0,0,1.632-1.995,13.9,13.9,0,0,1-2.448,1A3.39,3.39,0,0,0,34.91-19.5,3.83,3.83,0,0,0,31.1-15.692v.816a10.31,10.31,0,0,1-7.889-4.08,3.72,3.72,0,0,0-.635,1.995A3.994,3.994,0,0,0,24.211-13.7,6.443,6.443,0,0,1,22.4-14.06a4.1,4.1,0,0,0,2.992,3.808c-.363,0-.635.181-1,.181h-.816A3.483,3.483,0,0,0,27.2-7.441,7.679,7.679,0,0,1,22.4-5.809h-1A11.317,11.317,0,0,0,27.294-4,10.821,10.821,0,0,0,38.174-14.876v-.363a20.35,20.35,0,0,0,2.539-2.72Z" transform="translate(-19.623 20.178)" fill="#00aced" stroke="#00aced" stroke-width="1"/></svg>