<svg xmlns="http://www.w3.org/2000/svg" width="170.2" height="170.199" viewBox="0 0 170.2 170.199"><g transform="translate(-97 -2608)"><g transform="translate(68.6 2607.6)"><circle cx="76" cy="76" r="76" transform="translate(37.5 9.5)" fill="#f5f9ef"/><circle cx="84.1" cy="84.1" r="84.1" transform="translate(29.4 1.4)" fill="none" opacity="0.64" stroke-linecap="round" stroke-miterlimit="10" stroke-width="2" stroke-dasharray="6 6" stroke="#00862f"/><path d="M77.191,76.958H76a1,1,0,0,0,0,2h4.218c.54,2.15,2.311,10.341.036,17.478H76a1,1,0,0,0,0,2h1.178c.542,2.158,2.325,10.407.008,17.564H76a1,1,0,0,0,0,2h72.6a1,1,0,0,0,.859-.487c4.413-7.393,1.949-15.767.66-19.077h1.521a1,1,0,0,0,.858-.487c5.529-9.261.263-19.988.035-20.44a1,1,0,0,0-.893-.551h-1.383m-.072,1.624H151.6a1,1,0,0,0,.858-.487c5.527-9.26.264-20.067.037-20.523a1,1,0,0,0-.9-.554H79a1,1,0,0,0,0,2h1.177c.537,2.144,2.294,10.289.064,17.394H76a1,1,0,0,0,0,2h1.177m48.479.546H138.7V110.2l-6.064-3.116a1,1,0,0,0-.914,0l-6.065,3.116Zm26.847-6.333a15.307,15.307,0,0,1-1.483,3.957h-1.869a1,1,0,0,0-.551-.17H82.333a31.282,31.282,0,0,0,.944-10.505h3.461a1,1,0,1,0,0-2H83.1a42.278,42.278,0,0,0-.852-4.889h68.712a24.853,24.853,0,0,1,1.876,11.607M83.281,85.338h7.767a1,1,0,0,0,0-2H83.074a41.786,41.786,0,0,0-.789-4.38h41.376V96.436H82.349A31.649,31.649,0,0,0,83.281,85.338ZM148.024,116H79.285a31.155,31.155,0,0,0,.992-10.675h3.46a1,1,0,0,0,0-2H80.1a42.1,42.1,0,0,0-.851-4.889h44.416v13.4a1,1,0,0,0,1.457.89l7.065-3.629,7.064,3.629a1,1,0,0,0,.457.11,1,1,0,0,0,1-1v-13.4h7.253C148.885,100.629,151.9,108.907,148.024,116Zm3.039-19.564H140.7V78.958H151C151.927,81.136,154.939,89.349,151.063,96.436Z" fill="#040506"/></g></g></svg>