<svg xmlns="http://www.w3.org/2000/svg" width="170.2" height="170.199" viewBox="0 0 170.2 170.199"><g transform="translate(-6472 -19185)"><g transform="translate(4628.6 19181.6)"><circle cx="76" cy="76" r="76" transform="translate(1852.5 12.5)" fill="#ecf5f6"/><circle cx="84.1" cy="84.1" r="84.1" transform="translate(1844.4 4.4)" fill="none" opacity="0.64" stroke-linecap="round" stroke-miterlimit="10" stroke-width="2" stroke-dasharray="6 6" stroke="#1b7590"/><path d="M1952.643,81.006h0Z" fill="none" stroke="#100f0f" stroke-miterlimit="10" stroke-width="1.5"/><path d="M1952.643,88.906h0Z" fill="none" stroke="#100f0f" stroke-miterlimit="10" stroke-width="1.5"/><path d="M1952.643,96.806h0Z" fill="none" stroke="#100f0f" stroke-miterlimit="10" stroke-width="1.5"/><circle cx="7" cy="7" r="7" transform="translate(1909.143 61.706)" fill="none" stroke="#100f0f" stroke-miterlimit="10" stroke-width="1.5"/><path d="M1957.843,53.106h-12.3v-12.4a.713.713,0,0,0-.3-.6.878.878,0,0,0-.7-.1l-43.6,13.1h-.4l-.1.1v.7h0v74.8a.789.789,0,0,0,.8.8h44a.1.1,0,0,0,.1-.1h0a.1.1,0,0,0,.1-.1h0l13-14.4h0v-61.1C1958.643,53.406,1958.343,53.106,1957.843,53.106Zm-13.8,0h-37.5l37.5-11.3Zm-42.1,1.5h55.1v58.9h-12.2a.789.789,0,0,0-.8.8v13.6h-42.1Zm54.2,60.5-10.5,11.6v-11.6Z" fill="#100f0f"/></g></g></svg>