<svg xmlns="http://www.w3.org/2000/svg" width="170.2" height="170.199" viewBox="0 0 170.2 170.199"><g transform="translate(-6081 -19182)"><g transform="translate(4628.6 19181.6)"><circle cx="76" cy="76" r="76" transform="translate(1461.5 9.5)" fill="#f5f9ef"/><circle cx="84.1" cy="84.1" r="84.1" transform="translate(1453.4 1.4)" fill="none" opacity="0.64" stroke-linecap="round" stroke-miterlimit="10" stroke-width="2" stroke-dasharray="6 6" stroke="#00862f"/><path d="M1571.3,42.9h-60.6a.684.684,0,0,0-.7.7V123a.684.684,0,0,0,.7.7h60.6a.684.684,0,0,0,.7-.7V43.6A.684.684,0,0,0,1571.3,42.9Zm-.6,79.5h-59.3V44.2h59.3v78.2Z" fill="#100f0d"/><path d="M1571.3,125.1h-59.2a.7.7,0,0,0,0,1.4h59.3a.683.683,0,0,0,.7-.7A.849.849,0,0,0,1571.3,125.1Z" fill="#100f0d"/><path d="M1571.3,127.8h-64.6a.7.7,0,0,0,0,1.4h64.7a.683.683,0,0,0,.7-.7A.849.849,0,0,0,1571.3,127.8Z" fill="#100f0d"/><path d="M1506.7,48.3a.684.684,0,0,0-.7.7v79.5a.7.7,0,0,0,1.4,0V49A.842.842,0,0,0,1506.7,48.3Z" fill="#100f0d"/><path d="M1511.1,122.5a.633.633,0,0,0-.9.1l-4,5.4a.633.633,0,0,0,.1.9.6.6,0,0,0,.4.1.55.55,0,0,0,.5-.3l4-5.4C1511.5,123.1,1511.4,122.7,1511.1,122.5Z" fill="#100f0d"/><path d="M1511.1,43a.633.633,0,0,0-.9.1l-4,5.4a.633.633,0,0,0,.1.9.6.6,0,0,0,.4.1.55.55,0,0,0,.5-.3l4-5.4C1511.5,43.7,1511.4,43.3,1511.1,43Z" fill="#100f0d"/><path d="M1559.2,98.1h-32.3a.7.7,0,1,0,0,1.4h32.3a.7.7,0,1,0,0-1.4Z" fill="#100f0d"/><path d="M1559.2,102.2h-32.3a.7.7,0,1,0,0,1.4h32.3a.7.7,0,1,0,0-1.4Z" fill="#100f0d"/><path d="M1552.5,106.2h-18.9a.7.7,0,0,0,0,1.4h18.9a.683.683,0,0,0,.7-.7A.842.842,0,0,0,1552.5,106.2Z" fill="#100f0d"/><path d="M1514.8,45.6a.684.684,0,0,0-.7.7V119a.7.7,0,0,0,1.4,0V46.3A.842.842,0,0,0,1514.8,45.6Z" fill="#100f0d"/><path d="M1543,60.4a15.5,15.5,0,1,0,15.5,15.5A15.513,15.513,0,0,0,1543,60.4Zm0,29.6a14.1,14.1,0,1,1,14.1-14.1A14.084,14.084,0,0,1,1543,90Z" fill="#100f0d"/><path d="M1541.4,78a.651.651,0,0,0-.9.2l-4.7,6.7a.651.651,0,0,0,.2.9c0,.2.2.2.3.2a.864.864,0,0,0,.6-.3l4.7-6.7A.8.8,0,0,0,1541.4,78Z" fill="#100f0d"/><path d="M1542.5,79.6l-.9-1.3a.652.652,0,1,0-1.1.7l.9,1.3a.784.784,0,0,0,1,.2A.633.633,0,0,0,1542.5,79.6Z" fill="#100f0d"/><path d="M1551.5,71.3a.651.651,0,0,0-.9.2L1541.2,85a.651.651,0,0,0,.2.9.6.6,0,0,0,.4.1.864.864,0,0,0,.6-.3l9.4-13.5A.806.806,0,0,0,1551.5,71.3Z" fill="#100f0d"/><path d="M1556.4,78.2l-4.7-6.7a.652.652,0,0,0-1.1.7l4.7,6.7a.784.784,0,0,0,1,.2A.745.745,0,0,0,1556.4,78.2Z" fill="#100f0d"/><path d="M1537.7,67.1a3.4,3.4,0,1,0,3.4,3.4A3.578,3.578,0,0,0,1537.7,67.1Zm0,5.4a2,2,0,1,1,2-2A2.006,2.006,0,0,1,1537.7,72.5Z" fill="#100f0d"/></g></g></svg>