<svg xmlns="http://www.w3.org/2000/svg" width="170.2" height="170.199" viewBox="0 0 170.2 170.199"><g transform="translate(-487 -2608)"><g transform="translate(68.6 2607.6)"><circle cx="76" cy="76" r="76" transform="translate(427.5 9.5)" fill="#ecf5f6"/><circle cx="84.1" cy="84.1" r="84.1" transform="translate(419.4 1.4)" fill="none" opacity="0.64" stroke-linecap="round" stroke-miterlimit="10" stroke-width="2" stroke-dasharray="6 6" stroke="#1b7590"/><rect width="76.471" height="38.236" transform="translate(466.264 47.264)" stroke-width="1" stroke="#100f0c" stroke-linecap="round" stroke-linejoin="round" fill="none"/><rect width="76.471" height="38.236" transform="translate(466.264 85.5)" stroke-width="1" stroke="#100f0c" stroke-linecap="round" stroke-linejoin="round" fill="none"/><path d="M483.515,82.365l-9.388,2.081-6.171-29.184,9.388-2.081Z" fill="none" stroke="#100f0c" stroke-linecap="round" stroke-linejoin="round" stroke-width="1"/><path d="M493.751,82.365l-9.386,2.081-6.171-29.184,9.386-2.081Z" fill="none" stroke="#100f0c" stroke-linecap="round" stroke-linejoin="round" stroke-width="1"/><path d="M503.988,82.365,494.6,84.446l-6.171-29.184,9.386-2.081Z" fill="none" stroke="#100f0c" stroke-linecap="round" stroke-linejoin="round" stroke-width="1"/><path d="M514.223,82.365l-9.388,2.081-6.171-29.184,9.388-2.081Z" fill="none" stroke="#100f0c" stroke-linecap="round" stroke-linejoin="round" stroke-width="1"/><path d="M524.459,82.365l-9.388,2.081L509.522,58.2l9.389-2.081Z" fill="none" stroke="#100f0c" stroke-linecap="round" stroke-linejoin="round" stroke-width="1"/><path d="M516.679,120.745l9.391,2.081,6.168-29.185-9.386-2.08Z" fill="none" stroke="#100f0c" stroke-linecap="round" stroke-linejoin="round" stroke-width="1"/><path d="M506.445,120.745l9.386,2.081L522,93.641l-9.386-2.08Z" fill="none" stroke="#100f0c" stroke-linecap="round" stroke-linejoin="round" stroke-width="1"/><path d="M496.208,120.745l9.388,2.081,6.169-29.185-9.384-2.08Z" fill="none" stroke="#100f0c" stroke-linecap="round" stroke-linejoin="round" stroke-width="1"/><path d="M485.972,120.745l9.388,2.081,5.547-26.245L491.522,94.5Z" fill="none" stroke="#100f0c" stroke-linecap="round" stroke-linejoin="round" stroke-width="1"/><path d="M526.916,120.745l9.388,2.081,6.171-29.185-9.388-2.08Z" fill="none" stroke="#100f0c" stroke-linecap="round" stroke-linejoin="round" stroke-width="1"/></g></g></svg>