<?xml version="1.0" encoding="utf-8"?>
<!-- Generator: Adobe Illustrator 22.1.0, SVG Export Plug-In . SVG Version: 6.00 Build 0)  -->
<svg version="1.1" id="Layer_1" xmlns="http://www.w3.org/2000/svg" xmlns:xlink="http://www.w3.org/1999/xlink" x="0px" y="0px"
	 viewBox="0 0 170.2 170.2" style="enable-background:new 0 0 170.2 170.2;" xml:space="preserve">
<style type="text/css">
	.st0{fill:#F5F9EF;}
	.st1{opacity:0.64;enable-background:new    ;}
	.st2{fill:#00862F;}
	.st3{fill:#100F0D;}
</style>
<g>
	<g>
		<circle class="st0" cx="85.1" cy="85.1" r="76"/>
	</g>
	<g class="st1">
		<path class="st2" d="M85.4,170.2h-0.3c-1.9,0-3.8-0.1-5.7-0.2c-0.6,0-1-0.5-0.9-1.1c0-0.6,0.5-1,1.1-0.9c1.9,0.1,3.7,0.2,5.6,0.2
			h0.3c0.6,0,1,0.4,1,1S86,170.2,85.4,170.2z M91.4,170c-0.5,0-1-0.4-1-0.9c0-0.6,0.4-1,0.9-1.1c2-0.1,3.9-0.4,5.9-0.6
			c0.5-0.1,1.1,0.3,1.1,0.8c0.1,0.5-0.3,1.1-0.8,1.1C95.5,169.6,93.5,169.8,91.4,170C91.5,170,91.4,170,91.4,170z M73.5,169.4
			c0,0-0.1,0-0.1,0c-2-0.3-4-0.6-6-1c-0.5-0.1-0.9-0.6-0.8-1.2c0.1-0.5,0.6-0.9,1.2-0.8c1.9,0.4,3.9,0.8,5.8,1
			c0.5,0.1,0.9,0.6,0.9,1.1C74.4,169,74,169.4,73.5,169.4z M103.3,168.2c-0.5,0-0.9-0.3-1-0.8c-0.1-0.5,0.2-1.1,0.8-1.2
			c1.9-0.4,3.8-0.9,5.7-1.5c0.5-0.2,1.1,0.1,1.2,0.7c0.2,0.5-0.1,1.1-0.7,1.2c-1.9,0.6-3.9,1.1-5.9,1.5
			C103.4,168.2,103.3,168.2,103.3,168.2z M61.7,166.9c-0.1,0-0.2,0-0.3,0c-1.9-0.6-3.9-1.2-5.8-1.9c-0.5-0.2-0.8-0.8-0.6-1.3
			c0.2-0.5,0.8-0.8,1.3-0.6c1.9,0.7,3.7,1.3,5.6,1.8c0.5,0.2,0.8,0.7,0.7,1.2C62.6,166.6,62.2,166.9,61.7,166.9z M114.8,164.8
			c-0.4,0-0.8-0.2-0.9-0.6c-0.2-0.5,0.1-1.1,0.6-1.3c1.8-0.7,3.7-1.5,5.5-2.3c0.5-0.2,1.1,0,1.3,0.5c0.2,0.5,0,1.1-0.5,1.3
			c-1.8,0.8-3.7,1.6-5.6,2.3C115,164.8,114.9,164.8,114.8,164.8z M50.5,162.8c-0.1,0-0.3,0-0.4-0.1c-1.8-0.8-3.7-1.7-5.4-2.7
			c-0.5-0.3-0.7-0.9-0.4-1.4c0.3-0.5,0.9-0.7,1.4-0.4c1.7,0.9,3.5,1.8,5.3,2.6c0.5,0.2,0.7,0.8,0.5,1.3
			C51.2,162.5,50.9,162.8,50.5,162.8z M125.6,159.8c-0.4,0-0.7-0.2-0.9-0.5c-0.3-0.5-0.1-1.1,0.4-1.4c1.7-0.9,3.4-2,5.1-3
			c0.5-0.3,1.1-0.2,1.4,0.3c0.3,0.5,0.2,1.1-0.3,1.4c-1.7,1.1-3.4,2.1-5.2,3.1C126,159.8,125.8,159.8,125.6,159.8z M39.9,157.1
			c-0.2,0-0.4-0.1-0.5-0.2c-1.7-1.1-3.4-2.2-5-3.4c-0.4-0.3-0.5-1-0.2-1.4c0.3-0.4,1-0.5,1.4-0.2c1.6,1.2,3.2,2.3,4.9,3.4
			c0.5,0.3,0.6,0.9,0.3,1.4C40.6,156.9,40.3,157.1,39.9,157.1z M135.7,153.3c-0.3,0-0.6-0.1-0.8-0.4c-0.3-0.4-0.2-1.1,0.2-1.4
			c1.6-1.2,3.1-2.4,4.6-3.7c0.4-0.4,1-0.3,1.4,0.1c0.4,0.4,0.3,1-0.1,1.4c-1.5,1.3-3.1,2.6-4.7,3.8
			C136.1,153.2,135.9,153.3,135.7,153.3z M30.3,149.9c-0.2,0-0.5-0.1-0.7-0.2c-1.5-1.3-3-2.7-4.5-4.1c-0.4-0.4-0.4-1,0-1.4
			c0.4-0.4,1-0.4,1.4,0c1.4,1.4,2.9,2.7,4.4,4c0.4,0.4,0.5,1,0.1,1.4C30.9,149.8,30.6,149.9,30.3,149.9z M144.7,145.4
			c-0.3,0-0.5-0.1-0.7-0.3c-0.4-0.4-0.4-1,0-1.4c1.4-1.4,2.7-2.9,4-4.3c0.4-0.4,1-0.5,1.4-0.1c0.4,0.4,0.5,1,0.1,1.4
			c-1.3,1.5-2.7,3-4.1,4.5C145.2,145.3,145,145.4,144.7,145.4z M21.8,141.5c-0.3,0-0.6-0.1-0.8-0.3c-1.3-1.5-2.6-3.1-3.8-4.7
			c-0.3-0.4-0.2-1.1,0.2-1.4c0.4-0.3,1.1-0.2,1.4,0.2c1.2,1.6,2.4,3.1,3.7,4.6c0.4,0.4,0.3,1-0.1,1.4
			C22.3,141.4,22,141.5,21.8,141.5z M152.6,136.3c-0.2,0-0.4-0.1-0.6-0.2c-0.4-0.3-0.5-1-0.2-1.4c1.2-1.6,2.3-3.2,3.4-4.9
			c0.3-0.5,0.9-0.6,1.4-0.3c0.5,0.3,0.6,0.9,0.3,1.4c-1.1,1.7-2.2,3.4-3.5,5C153.2,136.2,152.9,136.3,152.6,136.3z M14.6,131.9
			c-0.3,0-0.6-0.2-0.8-0.5c-1.1-1.7-2.2-3.4-3.1-5.2c-0.3-0.5-0.1-1.1,0.4-1.4c0.5-0.3,1.1-0.1,1.4,0.4c1,1.7,2,3.4,3.1,5.1
			c0.3,0.5,0.2,1.1-0.3,1.4C14.9,131.9,14.8,131.9,14.6,131.9z M159,126.2c-0.2,0-0.3,0-0.5-0.1c-0.5-0.3-0.7-0.9-0.4-1.4
			c0.9-1.7,1.8-3.5,2.6-5.3c0.2-0.5,0.8-0.7,1.3-0.5c0.5,0.2,0.7,0.8,0.5,1.3c-0.8,1.8-1.7,3.7-2.7,5.4
			C159.7,126,159.4,126.2,159,126.2z M8.8,121.4c-0.4,0-0.7-0.2-0.9-0.6c-0.8-1.8-1.6-3.7-2.4-5.6c-0.2-0.5,0.1-1.1,0.6-1.3
			c0.5-0.2,1.1,0.1,1.3,0.6c0.7,1.8,1.5,3.7,2.3,5.5c0.2,0.5,0,1.1-0.5,1.3C9,121.4,8.9,121.4,8.8,121.4z M164,115.3
			c-0.1,0-0.2,0-0.3-0.1c-0.5-0.2-0.8-0.8-0.6-1.3c0.7-1.8,1.3-3.7,1.9-5.6c0.2-0.5,0.7-0.8,1.2-0.7c0.5,0.2,0.8,0.7,0.7,1.2
			c-0.6,1.9-1.2,3.9-1.9,5.8C164.8,115.1,164.4,115.3,164,115.3z M4.5,110.2c-0.4,0-0.8-0.3-1-0.7c-0.6-1.9-1.1-3.9-1.5-5.9
			c-0.1-0.5,0.2-1.1,0.8-1.2c0.5-0.1,1.1,0.2,1.2,0.8c0.4,1.9,0.9,3.9,1.5,5.7c0.2,0.5-0.1,1.1-0.7,1.2
			C4.7,110.2,4.6,110.2,4.5,110.2z M167.3,103.8c-0.1,0-0.1,0-0.2,0c-0.5-0.1-0.9-0.6-0.8-1.2c0.4-1.9,0.8-3.9,1-5.8
			c0.1-0.5,0.6-0.9,1.1-0.9c0.5,0.1,0.9,0.6,0.9,1.1c-0.3,2-0.6,4-1.1,6C168.2,103.5,167.8,103.8,167.3,103.8z M1.9,98.5
			c-0.5,0-0.9-0.4-1-0.9c-0.3-2-0.5-4-0.7-6c0-0.6,0.4-1,0.9-1.1c0.6,0,1,0.4,1.1,0.9c0.1,2,0.4,3.9,0.7,5.9
			c0.1,0.5-0.3,1.1-0.8,1.1C2,98.5,2,98.5,1.9,98.5z M169,91.9C169,91.9,169,91.9,169,91.9c-0.6,0-1-0.5-1-1.1
			c0.1-1.9,0.2-3.8,0.2-5.8l0-0.2c0-0.6,0.4-1,1-1s1,0.4,1,1l0,0.2c0,1.9-0.1,3.9-0.2,5.9C170,91.5,169.5,91.9,169,91.9z M1,86.6
			c-0.5,0-1-0.4-1-1l0-0.5c0-1.9,0.1-3.7,0.2-5.6c0-0.6,0.5-1,1.1-0.9c0.6,0,1,0.5,0.9,1.1C2.1,81.5,2,83.3,2,85.1l0,0.5
			C2,86.1,1.6,86.6,1,86.6C1,86.6,1,86.6,1,86.6z M169,79.9c-0.5,0-1-0.4-1-0.9c-0.1-2-0.4-3.9-0.6-5.9c-0.1-0.5,0.3-1.1,0.8-1.1
			c0.5-0.1,1.1,0.3,1.1,0.8c0.3,2,0.5,4,0.7,6C170,79.4,169.6,79.9,169,79.9C169,79.9,169,79.9,169,79.9z M1.8,74.6c0,0-0.1,0-0.1,0
			c-0.5-0.1-0.9-0.6-0.9-1.1c0.3-2,0.6-4,1-6C1.9,67,2.5,66.6,3,66.7c0.5,0.1,0.9,0.6,0.8,1.2c-0.4,1.9-0.7,3.9-1,5.8
			C2.7,74.3,2.3,74.6,1.8,74.6z M167.3,68.1c-0.5,0-0.9-0.3-1-0.8c-0.4-1.9-0.9-3.9-1.5-5.7c-0.2-0.5,0.1-1.1,0.7-1.2
			c0.5-0.2,1.1,0.1,1.2,0.7c0.6,1.9,1.1,3.9,1.5,5.9c0.1,0.5-0.2,1.1-0.8,1.2C167.4,68.1,167.3,68.1,167.3,68.1z M4.2,62.9
			c-0.1,0-0.2,0-0.3,0c-0.5-0.2-0.8-0.7-0.7-1.2c0.6-1.9,1.2-3.9,1.9-5.8c0.2-0.5,0.8-0.8,1.3-0.6C7,55.4,7.2,56,7,56.5
			c-0.7,1.8-1.3,3.7-1.8,5.6C5.1,62.6,4.7,62.9,4.2,62.9z M163.9,56.6c-0.4,0-0.8-0.2-0.9-0.6c-0.7-1.8-1.5-3.7-2.3-5.5
			c-0.2-0.5,0-1.1,0.5-1.3c0.5-0.2,1.1,0,1.3,0.5c0.8,1.8,1.6,3.7,2.3,5.6c0.2,0.5-0.1,1.1-0.6,1.3C164.1,56.6,164,56.6,163.9,56.6z
			 M8.4,51.6c-0.1,0-0.3,0-0.4-0.1c-0.5-0.2-0.7-0.8-0.5-1.3c0.8-1.8,1.7-3.7,2.7-5.4c0.3-0.5,0.9-0.7,1.4-0.4s0.7,0.9,0.4,1.4
			c-0.9,1.7-1.8,3.5-2.6,5.3C9.1,51.4,8.7,51.6,8.4,51.6z M158.9,45.7c-0.4,0-0.7-0.2-0.9-0.5c-0.9-1.7-2-3.4-3-5.1
			c-0.3-0.5-0.2-1.1,0.3-1.4c0.5-0.3,1.1-0.2,1.4,0.3c1.1,1.7,2.1,3.4,3.1,5.2c0.3,0.5,0.1,1.1-0.4,1.4
			C159.2,45.7,159,45.7,158.9,45.7z M14.1,41.1c-0.2,0-0.4-0.1-0.5-0.2c-0.5-0.3-0.6-0.9-0.3-1.4c1.1-1.7,2.2-3.4,3.4-5
			c0.3-0.4,1-0.5,1.4-0.2c0.4,0.3,0.5,1,0.2,1.4c-1.2,1.6-2.3,3.2-3.4,4.9C14.7,40.9,14.4,41.1,14.1,41.1z M152.4,35.6
			c-0.3,0-0.6-0.1-0.8-0.4c-1.2-1.6-2.4-3.1-3.7-4.6c-0.4-0.4-0.3-1,0.1-1.4c0.4-0.4,1-0.3,1.4,0.1c1.3,1.5,2.6,3.1,3.8,4.7
			c0.3,0.4,0.2,1.1-0.2,1.4C152.8,35.6,152.6,35.6,152.4,35.6z M21.2,31.4c-0.2,0-0.5-0.1-0.6-0.2c-0.4-0.4-0.5-1-0.1-1.4
			c1.3-1.5,2.7-3,4.1-4.5c0.4-0.4,1-0.4,1.4,0c0.4,0.4,0.4,1,0,1.4c-1.4,1.4-2.7,2.9-4,4.4C21.8,31.3,21.5,31.4,21.2,31.4z
			 M144.5,26.6c-0.3,0-0.5-0.1-0.7-0.3c-1.4-1.4-2.9-2.7-4.3-4c-0.4-0.4-0.5-1-0.1-1.4c0.4-0.4,1-0.5,1.4-0.1c1.5,1.3,3,2.7,4.4,4.1
			c0.4,0.4,0.4,1,0,1.4C145,26.5,144.8,26.6,144.5,26.6z M29.6,22.9c-0.3,0-0.6-0.1-0.8-0.3c-0.4-0.4-0.3-1,0.1-1.4
			c1.5-1.3,3.1-2.6,4.7-3.8c0.4-0.3,1.1-0.2,1.4,0.2c0.3,0.4,0.2,1.1-0.2,1.4c-1.6,1.2-3.1,2.5-4.6,3.8
			C30.1,22.8,29.8,22.9,29.6,22.9z M135.5,18.7c-0.2,0-0.4-0.1-0.6-0.2c-1.6-1.2-3.2-2.3-4.9-3.4c-0.5-0.3-0.6-0.9-0.3-1.4
			c0.3-0.5,0.9-0.6,1.4-0.3c1.7,1.1,3.4,2.3,5,3.5c0.4,0.3,0.5,1,0.2,1.4C136.1,18.6,135.8,18.7,135.5,18.7z M39.2,15.7
			c-0.3,0-0.6-0.2-0.8-0.5c-0.3-0.5-0.2-1.1,0.3-1.4c1.7-1.1,3.4-2.2,5.2-3.1c0.5-0.3,1.1-0.1,1.4,0.4c0.3,0.5,0.1,1.1-0.4,1.4
			c-1.7,1-3.4,2-5.1,3.1C39.5,15.6,39.3,15.7,39.2,15.7z M125.4,12.3c-0.2,0-0.3,0-0.5-0.1c-1.7-0.9-3.5-1.8-5.3-2.7
			c-0.5-0.2-0.7-0.8-0.5-1.3c0.2-0.5,0.8-0.7,1.3-0.5c1.8,0.8,3.7,1.8,5.4,2.7c0.5,0.3,0.7,0.9,0.4,1.4
			C126.1,12.1,125.7,12.3,125.4,12.3z M49.6,9.8c-0.4,0-0.7-0.2-0.9-0.6c-0.2-0.5,0-1.1,0.5-1.3c1.8-0.9,3.7-1.6,5.6-2.4
			c0.5-0.2,1.1,0.1,1.3,0.6c0.2,0.5-0.1,1.1-0.6,1.3c-1.8,0.7-3.7,1.5-5.5,2.3C49.9,9.8,49.8,9.8,49.6,9.8z M114.5,7.3
			c-0.1,0-0.2,0-0.3-0.1c-1.8-0.7-3.7-1.3-5.6-1.9c-0.5-0.2-0.8-0.7-0.7-1.2c0.2-0.5,0.7-0.8,1.2-0.7c1.9,0.6,3.9,1.2,5.8,1.9
			c0.5,0.2,0.8,0.8,0.6,1.3C115.2,7,114.9,7.3,114.5,7.3z M60.8,5.6c-0.4,0-0.8-0.3-1-0.7c-0.2-0.5,0.1-1.1,0.7-1.2
			c1.9-0.6,3.9-1.1,5.9-1.5c0.5-0.1,1.1,0.2,1.2,0.8c0.1,0.5-0.2,1.1-0.8,1.2c-1.9,0.4-3.8,0.9-5.7,1.5C61,5.5,60.9,5.6,60.8,5.6z
			 M103,3.9c-0.1,0-0.1,0-0.2,0c-1.9-0.4-3.9-0.8-5.8-1c-0.5-0.1-0.9-0.6-0.8-1.1c0.1-0.5,0.6-0.9,1.1-0.8c2,0.3,4,0.6,6,1.1
			c0.5,0.1,0.9,0.6,0.8,1.2C103.8,3.6,103.4,3.9,103,3.9z M72.5,2.9c-0.5,0-0.9-0.4-1-0.9c-0.1-0.5,0.3-1.1,0.8-1.1
			c2-0.3,4-0.5,6-0.7c0.6-0.1,1,0.4,1.1,0.9c0,0.6-0.4,1-0.9,1.1c-2,0.2-3.9,0.4-5.9,0.7C72.6,2.9,72.6,2.9,72.5,2.9z M91.1,2.2
			C91.1,2.2,91,2.2,91.1,2.2c-2-0.1-4-0.2-6-0.2l-0.6,0c0,0,0,0,0,0c-0.5,0-1-0.4-1-1c0-0.6,0.4-1,1-1l0.7,0c2,0,4.1,0.1,6.1,0.2
			c0.6,0,1,0.5,0.9,1.1C92.1,1.8,91.6,2.2,91.1,2.2z"/>
	</g>
	<g>
		<g>
			<path class="st3" d="M119.4,42.2H50.8c-0.4,0-0.8,0.3-0.8,0.7c0,0,0,0,0,0v84.3c0,0.4,0.3,0.7,0.8,0.7c0,0,0,0,0,0h68.6
				c0.4,0,0.8-0.3,0.8-0.7c0,0,0,0,0,0V42.9C120.2,42.5,119.9,42.2,119.4,42.2C119.4,42.2,119.4,42.2,119.4,42.2z M118.7,126.6H51.6
				v-83h67.1C118.7,43.6,118.7,126.6,118.7,126.6z"/>
		</g>
		<g>
			<path class="st3" d="M115.3,55.1H81.6c-0.4,0-0.7,0.4-0.7,0.8c0,0.4,0.3,0.8,0.7,0.8h33.8c0.4,0,0.7-0.4,0.7-0.8
				C116.1,55.5,115.7,55.1,115.3,55.1z"/>
		</g>
		<g>
			<path class="st3" d="M115.3,59.8H81.6c-0.4,0-0.7,0.4-0.7,0.8c0,0.4,0.3,0.8,0.7,0.8h33.8c0.4,0,0.7-0.4,0.7-0.8
				C116.1,60.1,115.7,59.8,115.3,59.8z"/>
		</g>
		<g>
			<path class="st3" d="M101.5,64.3H81.8c-0.4,0-0.7,0.4-0.7,0.8s0.3,0.8,0.7,0.8l0,0h19.8c0.4,0,0.7-0.3,0.7-0.8c0,0,0,0,0,0
				C102.2,64.7,101.9,64.4,101.5,64.3z"/>
		</g>
		<g>
			<path class="st3" d="M82.6,80.2H57.2c-0.3,0-0.5,0.4-0.5,0.8c0,0.4,0.2,0.8,0.5,0.8h25.4c0.3,0,0.5-0.4,0.5-0.8
				C83.1,80.6,82.9,80.2,82.6,80.2z"/>
		</g>
		<g>
			<path class="st3" d="M82.6,84.9H57.2c-0.3,0-0.5,0.4-0.5,0.8c0,0.4,0.2,0.8,0.5,0.8h25.4c0.3,0,0.5-0.4,0.5-0.8
				C83.1,85.2,82.9,84.9,82.6,84.9z"/>
		</g>
		<g>
			<path class="st3" d="M82,89.4H57.7c-0.5,0-0.9,0.4-0.9,0.8c0,0.4,0.4,0.8,0.9,0.8l0,0H82c0.5,0,0.9-0.3,0.9-0.8c0,0,0,0,0,0
				C82.9,89.8,82.5,89.5,82,89.4z"/>
		</g>
		<g>
			<g>
				<path class="st3" d="M66.8,49.8c-6.1,0-11.1,4.9-11.1,11.1s4.9,11.1,11.1,11.1c6.1,0,11.1-4.9,11.1-11.1
					C77.8,54.8,72.9,49.8,66.8,49.8z M66.8,70.9c-5.6,0-10.1-4.5-10.1-10.1c0-5.6,4.5-10.1,10.1-10.1c5.6,0,10.1,4.5,10.1,10.1
					c0,0,0,0,0,0C76.8,66.4,72.3,70.9,66.8,70.9C66.8,70.9,66.8,70.9,66.8,70.9z"/>
			</g>
			<g>
				<path class="st3" d="M65.6,62.4c-0.2-0.1-0.5-0.1-0.6,0.1c0,0,0,0,0,0l-3.4,4.8c-0.1,0.2-0.1,0.5,0.1,0.6c0,0,0,0,0,0
					c0,0.1,0.1,0.1,0.2,0.1c0.2,0,0.3-0.1,0.4-0.2l3.4-4.8C65.9,62.8,65.8,62.5,65.6,62.4z"/>
			</g>
			<g>
				<path class="st3" d="M66.4,63.5l-0.6-0.9c-0.1-0.2-0.4-0.3-0.6-0.2c-0.2,0.1-0.3,0.4-0.2,0.6c0,0,0,0,0,0l0.6,0.9
					c0.2,0.2,0.5,0.3,0.7,0.1C66.5,64,66.6,63.7,66.4,63.5C66.4,63.5,66.4,63.5,66.4,63.5z"/>
			</g>
			<g>
				<path class="st3" d="M72.8,57.6c-0.2-0.1-0.5-0.1-0.6,0.1c0,0,0,0,0,0l-6.7,9.6c-0.1,0.2-0.1,0.5,0.1,0.6c0,0,0,0,0,0
					c0.1,0.1,0.2,0.1,0.3,0.1c0.2,0,0.3-0.1,0.4-0.2l6.7-9.6C73.1,58,73,57.7,72.8,57.6z"/>
			</g>
			<g>
				<path class="st3" d="M76.3,62.5L73,57.7c-0.1-0.2-0.4-0.3-0.6-0.1c-0.2,0.1-0.3,0.4-0.1,0.6l3.4,4.8c0.2,0.2,0.5,0.3,0.7,0.1
					C76.4,63,76.4,62.7,76.3,62.5z"/>
			</g>
			<g>
				<path class="st3" d="M63,54.6c-1.3,0-2.4,1.1-2.4,2.4c0,1.3,1.1,2.4,2.4,2.4c1.3,0,2.4-1.1,2.4-2.4C65.3,55.7,64.3,54.7,63,54.6
					z M63,58.4c-0.8,0-1.4-0.6-1.4-1.4c0-0.8,0.6-1.4,1.4-1.4s1.4,0.6,1.4,1.4C64.4,57.8,63.8,58.4,63,58.4z"/>
			</g>
		</g>
		<g>
			<path class="st3" d="M112.6,80.5H87.2c-0.3,0-0.6,0.4-0.6,0.8c0,0.4,0.2,0.8,0.6,0.8h25.4c0.3,0,0.6-0.4,0.6-0.8
				C113.1,80.9,112.9,80.5,112.6,80.5z"/>
		</g>
		<g>
			<path class="st3" d="M112.6,85.2H87.2c-0.3,0-0.6,0.4-0.6,0.8s0.2,0.8,0.6,0.8h25.4c0.3,0,0.6-0.4,0.6-0.8S112.9,85.2,112.6,85.2
				z"/>
		</g>
		<g>
			<path class="st3" d="M112,89.7H87.7c-0.5,0-0.9,0.4-0.9,0.8c0,0.4,0.4,0.8,0.9,0.8l0,0H112c0.5,0,0.9-0.3,0.9-0.8c0,0,0,0,0,0
				C112.8,90.1,112.5,89.7,112,89.7z"/>
		</g>
		<g>
			<path class="st3" d="M82.6,98.3H57.2c-0.3,0-0.5,0.4-0.5,0.8s0.2,0.8,0.5,0.8h25.4c0.3,0,0.5-0.4,0.5-0.8S82.9,98.3,82.6,98.3z"
				/>
		</g>
		<g>
			<path class="st3" d="M82.6,103H57.2c-0.3,0-0.5,0.4-0.5,0.8c0,0.4,0.2,0.8,0.5,0.8h25.4c0.3,0,0.5-0.4,0.5-0.8
				C83.1,103.3,82.9,103,82.6,103z"/>
		</g>
		<g>
			<path class="st3" d="M82,107.5H57.7c-0.5,0-0.9,0.4-0.9,0.8s0.4,0.8,0.9,0.8l0,0H82c0.5,0,0.9-0.3,0.9-0.8c0,0,0,0,0,0
				C82.9,107.9,82.5,107.6,82,107.5z"/>
		</g>
		<g>
			<path class="st3" d="M112.6,98.6H87.2c-0.3,0-0.6,0.4-0.6,0.8c0,0.4,0.2,0.8,0.6,0.8h25.4c0.3,0,0.6-0.4,0.6-0.8
				C113.1,99,112.9,98.6,112.6,98.6z"/>
		</g>
		<g>
			<path class="st3" d="M112.6,103.3H87.2c-0.3,0-0.6,0.4-0.6,0.8c0,0.4,0.2,0.8,0.6,0.8h25.4c0.3,0,0.6-0.4,0.6-0.8
				C113.1,103.6,112.9,103.3,112.6,103.3z"/>
		</g>
		<g>
			<path class="st3" d="M112,107.8H87.7c-0.5,0-0.9,0.4-0.9,0.8c0,0.4,0.4,0.8,0.9,0.8l0,0H112c0.5,0,0.9-0.3,0.9-0.8c0,0,0,0,0,0
				C112.8,108.2,112.5,107.9,112,107.8z"/>
		</g>
		<g>
			<path class="st3" d="M82.6,111.9H57.2c-0.3,0-0.5,0.4-0.5,0.8s0.2,0.8,0.5,0.8h25.4c0.3,0,0.5-0.4,0.5-0.8S82.9,111.9,82.6,111.9
				z"/>
		</g>
		<g>
			<path class="st3" d="M82.6,116.6H57.2c-0.3,0-0.5,0.4-0.5,0.8c0,0.4,0.2,0.8,0.5,0.8h25.4c0.3,0,0.5-0.4,0.5-0.8
				C83.1,116.9,82.9,116.6,82.6,116.6z"/>
		</g>
		<g>
			<path class="st3" d="M112.6,112.2H87.2c-0.3,0-0.6,0.4-0.6,0.8c0,0.4,0.2,0.8,0.6,0.8h25.4c0.3,0,0.6-0.4,0.6-0.8
				C113.1,112.6,112.9,112.2,112.6,112.2z"/>
		</g>
		<g>
			<path class="st3" d="M112.6,116.9H87.2c-0.3,0-0.6,0.4-0.6,0.8c0,0.4,0.2,0.8,0.6,0.8h25.4c0.3,0,0.6-0.4,0.6-0.8
				C113.1,117.2,112.9,116.9,112.6,116.9z"/>
		</g>
	</g>
</g>
</svg>
