<svg xmlns="http://www.w3.org/2000/svg" width="170.2" height="170.199" viewBox="0 0 170.2 170.199"><g transform="translate(-7570 -19183)"><g transform="translate(4628.6 19181.6)"><circle cx="76" cy="76" r="76" transform="translate(2950.5 10.5)" fill="#ecf5f6"/><circle cx="84.1" cy="84.1" r="84.1" transform="translate(2942.4 2.4)" fill="none" opacity="0.64" stroke-linecap="round" stroke-miterlimit="10" stroke-width="2" stroke-dasharray="6 6" stroke="#1b7590"/><path d="M3039.577,120.44h-47.264a2.316,2.316,0,0,1-2.313-2.313V57.218a2.316,2.316,0,0,1,2.313-2.313h12.279a.764.764,0,0,1,0,1.528h-12.279a.786.786,0,0,0-.785.785v60.909a.786.786,0,0,0,.785.785h47.264a.786.786,0,0,0,.785-.785V57.218a.786.786,0,0,0-.785-.785H3027.3a.764.764,0,1,1,0-1.528h12.279a2.315,2.315,0,0,1,2.313,2.313v60.909A2.315,2.315,0,0,1,3039.577,120.44Z" fill="#100f0f"/><path d="M3029.469,59.208h-27.048a.764.764,0,0,1-.6-1.235l5.222-6.695a.76.76,0,0,1,.6-.294h3.754v-.867a4.548,4.548,0,1,1,9.1,0v.867h3.755a.763.763,0,0,1,.6.294l5.222,6.695a.765.765,0,0,1-.6,1.235Zm-25.484-1.528h23.92l-4.03-5.168h-4.146a.764.764,0,0,1-.764-.764V50.117a3.02,3.02,0,0,0-6.04,0v1.631a.764.764,0,0,1-.764.764h-4.145Z" fill="#100f0f"/><path d="M3008.815,77.689h-12.224a.764.764,0,0,1-.764-.764V64.7a.764.764,0,0,1,.764-.764h12.224a.764.764,0,0,1,.764.764V76.925A.764.764,0,0,1,3008.815,77.689Zm-11.46-1.528h10.7v-10.7h-10.7Z" fill="#100f0f"/><path d="M3008.815,96.025h-12.224a.764.764,0,0,1-.764-.764V83.037a.764.764,0,0,1,.764-.764h12.224a.764.764,0,0,1,.764.764V95.261A.764.764,0,0,1,3008.815,96.025Zm-11.46-1.528h10.7V83.8h-10.7Z" fill="#100f0f"/><path d="M3008.815,114.36h-12.224a.763.763,0,0,1-.764-.764V101.373a.763.763,0,0,1,.764-.764h12.224a.763.763,0,0,1,.764.764V113.6A.763.763,0,0,1,3008.815,114.36Zm-11.46-1.527h10.7v-10.7h-10.7Z" fill="#100f0f"/><path d="M3034.791,71.577h-18.846a.764.764,0,1,1,0-1.528h18.846a.764.764,0,0,1,0,1.528Z" fill="#100f0f"/><path d="M3034.791,89.913h-18.846a.764.764,0,1,1,0-1.528h18.846a.764.764,0,0,1,0,1.528Z" fill="#100f0f"/><path d="M3034.791,108.249h-18.846a.764.764,0,1,1,0-1.528h18.846a.764.764,0,0,1,0,1.528Z" fill="#100f0f"/><path d="M3000.713,74.187a.762.762,0,0,1-.54-.224l-1.242-1.242a.764.764,0,0,1,1.081-1.08l.7.7,4.68-4.68a.764.764,0,0,1,1.081,1.081l-5.221,5.22A.761.761,0,0,1,3000.713,74.187Z" fill="#100f0f"/><path d="M3059.015,120.44a.767.767,0,0,1-.615-.309l-5.171-6.98a.763.763,0,0,1-.15-.454l-.086-40.329a2.313,2.313,0,0,1,2.314-2.319h7.242a2.317,2.317,0,0,1,2.314,2.309l.087,40.336a.772.772,0,0,1-.15.457l-5.171,6.98A.766.766,0,0,1,3059.015,120.44Zm-4.408-8,4.408,5.95,4.406-5.948-.086-40.084a.787.787,0,0,0-.786-.784h-7.242a.785.785,0,0,0-.786.787Z" fill="#100f0f"/><path d="M3064.186,113.46h-10.343a.764.764,0,0,1,0-1.528h10.343a.764.764,0,0,1,0,1.528Z" fill="#100f0f"/><path d="M3064.114,79.9h-10.357a.764.764,0,1,1,0-1.528h10.357a.764.764,0,0,1,0,1.528Z" fill="#100f0f"/></g></g></svg>