<svg xmlns="http://www.w3.org/2000/svg" width="802.259" height="236.606" viewBox="0 0 802.259 236.606"><g transform="translate(-0.086)"><g transform="translate(0.086)"><line x2="541.601" transform="translate(260.625 174.918)" fill="none" stroke="#58595b" stroke-miterlimit="10" stroke-width="0.75"/><path d="M93.036,65.558,83.122,38.894l-2.592-.356V35.33H91.513v3.207l-2.721.454,6.285,18.4.551,1.976h.13l.583-1.944,6.382-18.467-3.143-.421V35.33h10.659v3.207l-2.624.356L98.09,65.558Z" transform="translate(180.095 79.133)" fill="#b7202e"/><path d="M90.42,65.558V62.35l3.3-.616V39.185l-3.3-.648V35.33h11.825v3.207l-3.272.648V61.735l3.272.616v3.207Z" transform="translate(202.247 79.133)" fill="#b7202e"/><path d="M94.92,65.583v-3.24l3.24-.648V39.243l-3.24-.68v-3.24h12.668a12.82,12.82,0,0,1,11.858,7.16,16.75,16.75,0,0,1,1.685,7.678v.583a16.977,16.977,0,0,1-1.652,7.614,12.959,12.959,0,0,1-4.7,5.281,12.635,12.635,0,0,1-7.03,1.911Zm8.553-4.017h3.985a7.29,7.29,0,0,0,4.536-1.426,8.748,8.748,0,0,0,2.883-3.855,14.256,14.256,0,0,0,1-5.508v-.616a14.093,14.093,0,0,0-1-5.54,8.651,8.651,0,0,0-2.883-3.823,7.257,7.257,0,0,0-4.536-1.393h-3.985Z" transform="translate(212.326 79.108)" fill="#b7202e"/><path d="M111.973,65.558V62.35l3.272-.616v-6.8l-9.1-15.972-2.721-.421V35.33h11.372v3.207l-2.883.389,5.6,10.594.454.907.065-.032.454-.842,6.058-10.627-3.434-.389V35.33h11.145v3.207l-2.819.421L120.461,54.51v7.225l3.3.616v3.207Z" transform="translate(231.365 79.133)" fill="#b7202e"/><path d="M111.34,65.6v-3.24l2.2-.324L123.554,35.31h5.087l9.719,26.729,2.2.324V65.6h-9.719v-3.24l2.138-.421-1.587-4.73H120.152l-1.652,4.73,2.171.421V65.6ZM121.8,53.259h8.521l-3.888-11.21-.259-.81h0l-.292.875Z" transform="translate(249.104 79.088)" fill="#b7202e"/><path d="M132.076,65.558l-9.914-26.664-2.592-.356V35.33h10.983v3.207l-2.721.454,6.285,18.4.551,1.976h.13l.583-1.944,6.382-18.467-3.143-.421V35.33h10.659v3.207l-2.624.356L137.13,65.558Z" transform="translate(267.538 79.133)" fill="#b7202e"/><path d="M129.46,65.558V62.35l3.3-.616V39.185l-3.3-.648V35.33h11.825v3.207l-3.272.648V61.735l3.272.616v3.207Z" transform="translate(289.69 79.133)" fill="#b7202e"/><path d="M133.96,65.558V62.35l3.3-.616V39.185l-3.3-.648V35.33h11.858v3.207l-3.3.648v9.428h13.218V39.185l-3.3-.648V35.33h11.825v3.207l-3.3.648V61.735l3.3.616v3.207H152.427V62.35l3.3-.616V52.663H142.513v9.072l3.3.616v3.207Z" transform="translate(299.769 79.133)" fill="#b7202e"/><path d="M143.72,65.6v-3.24l2.2-.324L155.934,35.31h5.087L170.9,62.039l2.2.324V65.6h-9.719v-3.24l2.171-.421-1.62-4.73H152.694l-1.587,4.795,2.171.421v3.24Zm10.432-12.344h8.553l-3.92-11.21-.292-.81h0l-.292.875Z" transform="translate(321.629 79.088)" fill="#b7202e"/><path d="M153.55,65.672v-3.24l3.24-.616V39.138l-3.24-.616v-3.24h13.964a15,15,0,0,1,5.832,1.037,8.262,8.262,0,0,1,3.661,3.013,8.489,8.489,0,0,1,1.264,4.7,8.586,8.586,0,0,1-1.231,4.633,8.2,8.2,0,0,1-3.531,3.078,12.667,12.667,0,0,1-5.281,1.134h-6.156v8.748l3.24.616v3.24Zm8.521-16.653h5.216a6.48,6.48,0,0,0,4.374-1.2,4.244,4.244,0,0,0,1.393-3.467,4.665,4.665,0,0,0-1.361-3.531,5.67,5.67,0,0,0-4.179-1.328h-5.443Zm11.145,16.653-5.767-13.9,4.892-.81,4.892,10.983,2.365.486v3.24Z" transform="translate(343.647 79.018)" fill="#b7202e"/><path d="M180.454,66.034A14.061,14.061,0,0,1,174.46,64.8a9.525,9.525,0,0,1-4.082-3.564A10.432,10.432,0,0,1,168.92,55.6V39.208l-3.24-.648V35.32h11.793v3.24l-3.24.648V55.6a7.387,7.387,0,0,0,.778,3.531,4.924,4.924,0,0,0,2.2,2.106,7.387,7.387,0,0,0,3.24.713,7.517,7.517,0,0,0,3.4-.713,4.86,4.86,0,0,0,2.236-2.106,6.933,6.933,0,0,0,.81-3.531V39.208l-3.24-.648V35.32h11.825v3.24l-3.24.648V55.6a10.464,10.464,0,0,1-1.458,5.67,9.266,9.266,0,0,1-4.082,3.531,14.709,14.709,0,0,1-6.156,1.231" transform="translate(370.816 79.111)" fill="#b7202e"/><path d="M175.63,65.558V62.35l3.3-.616V39.185l-3.3-.648V35.33h8.586l13.866,22.063.13-.032V39.185l-3.791-.648V35.33h11.825v3.207l-3.3.648V65.558h-4.957l-14.223-22-.13.032V61.735l3.823.616v3.207Z" transform="translate(393.102 79.133)" fill="#b7202e"/><path d="M185.87,65.558V62.35l3.3-.616V39.185l-3.3-.648V35.33H197.7v3.207l-3.272.648V61.735l3.272.616v3.207Z" transform="translate(416.038 79.133)" fill="#b7202e"/><path d="M202.723,65.558l-9.914-26.664-2.559-.356V35.33h10.983v3.207l-2.721.454,6.285,18.4.551,1.976h.13l.583-1.944,6.383-18.467-3.143-.421V35.33h10.659v3.207l-2.624.356L207.81,65.558Z" transform="translate(425.848 79.133)" fill="#b7202e"/><path d="M200.14,65.558V62.35l3.3-.616V39.185l-3.3-.648V35.33h23.035v7.776h-4.082l-.356-3.758H208.693V47.9h10.594v4.05H208.693v9.622H219.32l.324-3.823h4.05v7.808Z" transform="translate(448 79.133)" fill="#b7202e"/><path d="M208.52,65.672v-3.24l3.24-.616V39.138l-3.24-.616v-3.24h13.964a15,15,0,0,1,5.832,1.037,8.262,8.262,0,0,1,3.661,3.013,8.488,8.488,0,0,1,1.264,4.7,8.229,8.229,0,0,1-4.763,7.711,12.667,12.667,0,0,1-5.281,1.134h-6.156v8.748l3.24.616v3.24Zm8.521-16.653h5.216a6.48,6.48,0,0,0,4.374-1.2,4.245,4.245,0,0,0,1.393-3.467,4.666,4.666,0,0,0-1.361-3.531,5.67,5.67,0,0,0-4.179-1.328h-5.443Zm11.145,16.653-5.767-13.9,4.892-.81L232.2,61.946l2.365.486v3.24Z" transform="translate(466.77 79.018)" fill="#b7202e"/><path d="M228.648,66.309a20.509,20.509,0,0,1-5.767-.778,17.4,17.4,0,0,1-5.151-2.559V56.006h4.115l.648,4.536a9.718,9.718,0,0,0,2.721,1.264,13.251,13.251,0,0,0,3.5.454,8,8,0,0,0,3.24-.518,4.244,4.244,0,0,0,1.911-1.49,3.758,3.758,0,0,0,.68-2.268,3.986,3.986,0,0,0-.583-2.138,5.022,5.022,0,0,0-1.944-1.652,15.905,15.905,0,0,0-3.661-1.361,24.718,24.718,0,0,1-5.637-2.171,9.233,9.233,0,0,1-3.434-2.981,7.291,7.291,0,0,1-1.166-4.115,7.386,7.386,0,0,1,1.328-4.309,9.007,9.007,0,0,1,3.661-2.948,13.413,13.413,0,0,1,5.216-1.1,16.879,16.879,0,0,1,5.961.875,14.124,14.124,0,0,1,4.374,2.4v6.48H234.8l-.778-4.212a7.355,7.355,0,0,0-2.2-1.037,10.562,10.562,0,0,0-3.24-.421,6.9,6.9,0,0,0-2.786.518,4.536,4.536,0,0,0-1.879,1.458,3.726,3.726,0,0,0-.68,2.235,3.4,3.4,0,0,0,.583,2.009,5.152,5.152,0,0,0,2.009,1.555,25.919,25.919,0,0,0,3.823,1.393,17.755,17.755,0,0,1,7.484,3.629,7.581,7.581,0,0,1,2.527,5.864,7.322,7.322,0,0,1-1.361,4.406,9.267,9.267,0,0,1-3.823,2.916,15.033,15.033,0,0,1-5.767,1.037" transform="translate(487.399 78.835)" fill="#b7202e"/><path d="M225.36,65.558V62.35l3.3-.616V39.185l-3.3-.648V35.33h11.825v3.207l-3.272.648V61.735l3.272.616v3.207Z" transform="translate(504.489 79.133)" fill="#b7202e"/><path d="M237.03,65.558V62.35l3.3-.616V39.347h-6.091L233.79,43.2h-3.92V35.33h26.178V43.2H252.1l-.454-3.855h-6.091V61.735l3.3.616v3.207Z" transform="translate(514.59 79.133)" fill="#b7202e"/><path d="M247.353,65.558V62.35l3.272-.616v-6.8l-9.1-15.972-2.721-.421V35.33h11.372v3.207l-2.883.389,5.6,10.594.454.907.065-.032.454-.842,6.058-10.627-3.434-.389V35.33h11.177v3.207l-2.851.421L255.841,54.51v7.225l3.3.616v3.207Z" transform="translate(534.592 79.133)" fill="#b7202e"/><path d="M110.678,88.95A56.956,56.956,0,0,1,94.9,86.811a48.274,48.274,0,0,1-14.32-7.063V60.472H91.66l1.847,12.473a24.849,24.849,0,0,0,7.516,3.5,32.885,32.885,0,0,0,9.719,1.328,22.192,22.192,0,0,0,8.586-1.458,11.046,11.046,0,0,0,5.54-16.3,14,14,0,0,0-5.346-4.633,46.751,46.751,0,0,0-10.108-3.758,71.891,71.891,0,0,1-15.681-5.994,26.145,26.145,0,0,1-9.493-8.294A20.249,20.249,0,0,1,81,25.968a19.893,19.893,0,0,1,3.661-11.89A24.363,24.363,0,0,1,94.9,5.913a36.351,36.351,0,0,1,15-3.24A48.014,48.014,0,0,1,126.391,5.1a39.169,39.169,0,0,1,12.085,6.48V29.6H127.3l-2.073-11.728a20.735,20.735,0,0,0-6.123-2.851,29.871,29.871,0,0,0-8.877-1.2,19.147,19.147,0,0,0-7.711,1.458,12.182,12.182,0,0,0-5.216,4.05,10.335,10.335,0,0,0-1.911,6.22,9.2,9.2,0,0,0,1.685,5.54,14.547,14.547,0,0,0,5.573,4.277,65.412,65.412,0,0,0,10.659,4.05,48.857,48.857,0,0,1,20.67,10.011,21.026,21.026,0,0,1,7,16.2A20.151,20.151,0,0,1,137.212,77.8a24.137,24.137,0,0,1-10.594,8.067,40.822,40.822,0,0,1-15.94,2.883" transform="translate(180.207 5.945)" fill="#b7202e"/><path d="M138.289,88.938a35.411,35.411,0,0,1-15.065-3.24,33.435,33.435,0,0,1-11.534-8.812A40.5,40.5,0,0,1,104.3,63.408,53.812,53.812,0,0,1,101.712,46.4V45.232A53.619,53.619,0,0,1,104.3,28.256a40.5,40.5,0,0,1,7.387-13.478A33.24,33.24,0,0,1,123.224,5.9a35.314,35.314,0,0,1,15-3.24A36.416,36.416,0,0,1,153.581,5.9a32.754,32.754,0,0,1,11.566,8.877,40.3,40.3,0,0,1,7.29,13.478,54.558,54.558,0,0,1,2.527,16.977V46.5A54.755,54.755,0,0,1,172.437,63.5a40.3,40.3,0,0,1-7.29,13.478,32.948,32.948,0,0,1-11.566,8.812,36.222,36.222,0,0,1-15.292,3.24m0-11.5a19.439,19.439,0,0,0,12.506-3.888,22.905,22.905,0,0,0,7.29-10.853,49.149,49.149,0,0,0,2.4-16.2V45.2a49.116,49.116,0,0,0-2.4-16.037,23.457,23.457,0,0,0-7.354-10.821,19.439,19.439,0,0,0-12.441-4.017,18.823,18.823,0,0,0-12.117,3.92,23.748,23.748,0,0,0-7.387,10.821A48.208,48.208,0,0,0,116.323,45.1V46.5a49.019,49.019,0,0,0,2.462,16.2A23.262,23.262,0,0,0,126.2,73.581a18.953,18.953,0,0,0,12.149,3.888" transform="translate(227.533 5.957)" fill="#b7202e"/><path d="M126.74,86.787V77.942l9.072-1.717V13.7L126.74,11.98V3.07h29.839l24.558,60.552h.324L205.273,3.07h30.2v8.91L226.332,13.7V76.225l9.136,1.717v8.845H202.746V77.942l9.622-1.717v-19.5l.1-36.642-.292-.032L186.256,84.908H175.726l-26.7-64.537-.292.065.745,35.314V76.225l9.979,1.717v8.845Z" transform="translate(283.597 6.876)" fill="#b7202e"/><path d="M161.47,86.787V77.942l6.123-.875,27.7-74h14.093l27.377,74,6.091.875v8.845H216.223V77.942l5.994-1.1-4.439-13.154H186.611l-4.536,13.154,6.026,1.1v8.845ZM190.4,52.575h23.651L203.167,21.6l-.745-2.268h-.356l-.778,2.365Z" transform="translate(361.386 6.876)" fill="#b7202e"/><path d="M188.7,86.787V77.942l9.169-1.717V13.7L188.7,11.98V3.07h32.722v8.91L212.351,13.7V76.225l9.072,1.717v8.845Z" transform="translate(422.377 6.876)" fill="#b7202e"/><path d="M224.313,86.787V77.942l9.1-1.717V57.369L208.211,13.113,200.63,11.98V3.07h31.523v8.91l-8,1.037,15.519,29.32,1.264,2.527.227-.1,1.231-2.365,16.782-29.385-9.493-1.037V3.07h30.876v8.91l-7.873,1.134L247.834,56.2V76.225L257,77.942v8.845Z" transform="translate(449.098 6.876)" fill="#b7202e"/><path d="M222.59,86.787V77.942l6.091-.875,27.636-74h14.061l27.377,74,6.091.875v8.845h-26.6V77.942l5.961-1.1L279,63.687H247.8L243.26,76.841l6.058,1.1v8.845Zm28.932-34.213H275.14L264.286,21.6l-.745-2.268h-.356l-.81,2.365Z" transform="translate(498.284 6.876)" fill="#b7202e"/><path d="M10.6,20.872a18.867,18.867,0,0,1-5.258-.7A15.665,15.665,0,0,1,.615,17.835V11.475h3.7l.607,4.119A8.252,8.252,0,0,0,7.4,16.753a11.2,11.2,0,0,0,3.2.437,7.321,7.321,0,0,0,2.838-.484,3.929,3.929,0,0,0,1.756-1.357,3.532,3.532,0,0,0,.607-2.069,3.624,3.624,0,0,0-.532-1.955A4.613,4.613,0,0,0,13.5,9.8a15.652,15.652,0,0,0-3.341-1.243A23.677,23.677,0,0,1,4.991,6.578,8.6,8.6,0,0,1,1.859,3.844,6.661,6.661,0,0,1,.805.085a6.645,6.645,0,0,1,1.205-3.93,8.168,8.168,0,0,1,3.351-2.7,11.934,11.934,0,0,1,4.955-1.006,15.7,15.7,0,0,1,5.439.8,13.031,13.031,0,0,1,4,2.183V1.376H16.125L15.441-2.5a7.257,7.257,0,0,0-2.022-.94,9.86,9.86,0,0,0-2.933-.389,6.378,6.378,0,0,0-2.544.475A4.062,4.062,0,0,0,6.215-2.012,3.413,3.413,0,0,0,5.589.047,3.075,3.075,0,0,0,6.139,1.87,4.8,4.8,0,0,0,7.981,3.284a22.436,22.436,0,0,0,3.493,1.281,16.236,16.236,0,0,1,6.815,3.3A6.942,6.942,0,0,1,20.6,13.241a6.666,6.666,0,0,1-1.243,4.015,8.047,8.047,0,0,1-3.493,2.667A13.477,13.477,0,0,1,10.6,20.872Zm29.234-7.688L37.329,10.3,50.693-3.9l.057-.076L48.3-4.224V-7.166H58.609v2.942l-2.6.513Zm-7.024,7.29V17.55l3.018-.569V-3.654l-3.018-.569V-7.166H43.537v2.942l-2.923.569V16.98l2.923.569v2.923Zm16.1,0V17.55l2.449-.247v-.019L44.068,7.223l3-3.36,9.89,13.212,2.639.475v2.923Zm33.2.4a18.867,18.867,0,0,1-5.258-.7,15.665,15.665,0,0,1-4.727-2.335V11.475h3.7l.607,4.119a8.252,8.252,0,0,0,2.477,1.158,11.2,11.2,0,0,0,3.2.437,7.321,7.321,0,0,0,2.838-.484A3.929,3.929,0,0,0,86.7,15.348a3.532,3.532,0,0,0,.607-2.069,3.624,3.624,0,0,0-.532-1.955A4.613,4.613,0,0,0,85.015,9.8a15.652,15.652,0,0,0-3.341-1.243A23.677,23.677,0,0,1,76.5,6.578a8.6,8.6,0,0,1-3.132-2.734A6.661,6.661,0,0,1,72.315.085a6.645,6.645,0,0,1,1.205-3.93,8.168,8.168,0,0,1,3.351-2.7,11.934,11.934,0,0,1,4.955-1.006,15.7,15.7,0,0,1,5.439.8,13.031,13.031,0,0,1,4,2.183V1.376H87.635L86.951-2.5a7.257,7.257,0,0,0-2.022-.94A9.86,9.86,0,0,0,82-3.825a6.378,6.378,0,0,0-2.544.475,4.062,4.062,0,0,0-1.727,1.338A3.413,3.413,0,0,0,77.1.047,3.075,3.075,0,0,0,77.65,1.87a4.8,4.8,0,0,0,1.841,1.414,22.436,22.436,0,0,0,3.493,1.281,16.236,16.236,0,0,1,6.815,3.3,6.942,6.942,0,0,1,2.316,5.372,6.666,6.666,0,0,1-1.243,4.015,8.047,8.047,0,0,1-3.493,2.667A13.477,13.477,0,0,1,82.111,20.872Zm22.229,0a9.4,9.4,0,0,1-5.088-1.329,8.7,8.7,0,0,1-3.265-3.692,12.383,12.383,0,0,1-1.139-5.439v-.4A12.275,12.275,0,0,1,95.988,4.6,8.84,8.84,0,0,1,99.253.9,9.232,9.232,0,0,1,104.3-.446,9.354,9.354,0,0,1,109.39.892a8.777,8.777,0,0,1,3.265,3.692,12.321,12.321,0,0,1,1.139,5.429v.4a12.383,12.383,0,0,1-1.139,5.439,8.723,8.723,0,0,1-3.256,3.692A9.32,9.32,0,0,1,104.34,20.872Zm0-3.683a3.963,3.963,0,0,0,2.629-.864,5.165,5.165,0,0,0,1.547-2.392,11.066,11.066,0,0,0,.513-3.521v-.4a10.911,10.911,0,0,0-.513-3.493,5.2,5.2,0,0,0-1.557-2.392,4,4,0,0,0-2.658-.873,3.944,3.944,0,0,0-2.62.873,5.133,5.133,0,0,0-1.547,2.392,11.1,11.1,0,0,0-.5,3.493v.4a11.259,11.259,0,0,0,.5,3.521,5.036,5.036,0,0,0,1.557,2.392A4.039,4.039,0,0,0,104.34,17.189Zm11.978,3.284V17.55l2.866-.569V3.445l-3.018-.569V-.067h7.4l.228,2.7A7.07,7.07,0,0,1,126.313.361a7.318,7.318,0,0,1,3.5-.807,6.339,6.339,0,0,1,3.445.9,5.573,5.573,0,0,1,2.174,2.724,7.264,7.264,0,0,1,2.5-2.658,6.71,6.71,0,0,1,3.635-.968,6.027,6.027,0,0,1,4.869,2.107q1.775,2.107,1.775,6.378V16.98l2.866.569v2.923H140.731V17.55l2.7-.569V8.02a5.779,5.779,0,0,0-.873-3.645,3.151,3.151,0,0,0-2.563-1.044A3.527,3.527,0,0,0,137.4,4.338,4.8,4.8,0,0,0,136.08,6.9V16.98l2.6.569v2.923h-9.966V17.55l2.6-.569V8.02a5.712,5.712,0,0,0-.892-3.6,5.766,5.766,0,0,0-2.582-1.092,8.594,8.594,0,0,0-2.363.569,4.131,4.131,0,0,0-1.528,1.614V16.98l2.677.569v2.923Zm43.776.4a6.919,6.919,0,0,1-4.879-1.614,5.749,5.749,0,0,1-1.746-4.442,5.624,5.624,0,0,1,1.063-3.4,6.921,6.921,0,0,1,3.113-2.287,13.324,13.324,0,0,1,4.974-.826h3.132V6.578a3.5,3.5,0,0,0-.978-2.6,3.866,3.866,0,0,0-2.838-.968,6.279,6.279,0,0,0-1.879.256A4.948,4.948,0,0,0,158.595,4l-.437,2.772h-3.512L154.608,1.7A13.553,13.553,0,0,1,157.987.133a13.887,13.887,0,0,1,4.138-.579,9.482,9.482,0,0,1,6.16,1.832,6.38,6.38,0,0,1,2.25,5.249V15.69q0,.418.009.816t.047.778l2.088.266v2.923h-6.246q-.19-.664-.351-1.291a9.7,9.7,0,0,1-.237-1.253,8.491,8.491,0,0,1-2.477,2.117A6.507,6.507,0,0,1,160.094,20.872Zm1.082-3.7a5.6,5.6,0,0,0,2.7-.674,4.791,4.791,0,0,0,1.879-1.7V11.361h-3.189a4.653,4.653,0,0,0-3.237,1,3.06,3.06,0,0,0-1.092,2.325,2.283,2.283,0,0,0,.759,1.841A3.281,3.281,0,0,0,161.176,17.17Zm13.706,3.3V17.55l2.848-.569V3.445l-3.018-.569V-.067h7.8V16.98l2.829.569v2.923ZM177.54-4.718V-9.141h4.974v4.423Zm15.13,33.487a9.393,9.393,0,0,1-1.357-.114,9.6,9.6,0,0,1-1.338-.285l.532-3.588q.342.057.826.095t.769.038a2.864,2.864,0,0,0,2.012-.75,5.409,5.409,0,0,0,1.329-2.079l.626-1.652L189.044,3.218l-2.392-.342V-.067H196.6V2.876l-2.525.38,3.569,9.568.626,1.784h.114L202.6,3.237l-2.525-.361V-.067h9.435V2.876l-2.221.323-7.954,20.369a12.292,12.292,0,0,1-1.414,2.629,6.192,6.192,0,0,1-2.126,1.879A6.489,6.489,0,0,1,192.67,28.769Zm24.982-7.9a6.919,6.919,0,0,1-4.879-1.614,5.749,5.749,0,0,1-1.746-4.442,5.624,5.624,0,0,1,1.063-3.4A6.921,6.921,0,0,1,215.2,9.131a13.324,13.324,0,0,1,4.974-.826h3.132V6.578a3.5,3.5,0,0,0-.978-2.6,3.866,3.866,0,0,0-2.838-.968,6.279,6.279,0,0,0-1.879.256A4.948,4.948,0,0,0,216.152,4l-.437,2.772H212.2L212.166,1.7A13.553,13.553,0,0,1,215.545.133a13.887,13.887,0,0,1,4.138-.579,9.482,9.482,0,0,1,6.16,1.832,6.38,6.38,0,0,1,2.25,5.249V15.69q0,.418.009.816t.047.778l2.088.266v2.923h-6.246q-.19-.664-.351-1.291a9.7,9.7,0,0,1-.237-1.253,8.491,8.491,0,0,1-2.477,2.117A6.507,6.507,0,0,1,217.652,20.872Zm1.082-3.7a5.6,5.6,0,0,0,2.7-.674,4.791,4.791,0,0,0,1.879-1.7V11.361H220.12a4.653,4.653,0,0,0-3.237,1,3.06,3.06,0,0,0-1.092,2.325,2.283,2.283,0,0,0,.759,1.841A3.281,3.281,0,0,0,218.734,17.17Zm36.3,3.7a13.318,13.318,0,0,1-6.976-1.737,11.351,11.351,0,0,1-4.423-4.86A16.331,16.331,0,0,1,242.1,7.014v-.7a16.188,16.188,0,0,1,1.519-7.166,11.8,11.8,0,0,1,4.347-4.917,12.354,12.354,0,0,1,6.758-1.794,15.486,15.486,0,0,1,5.107.816,12.7,12.7,0,0,1,4.1,2.3V1.927h-3.645l-.494-4.271a7,7,0,0,0-1.386-.778,8.084,8.084,0,0,0-1.661-.494,10.567,10.567,0,0,0-1.965-.171,7.2,7.2,0,0,0-4.262,1.253A7.81,7.81,0,0,0,247.816.977a13.848,13.848,0,0,0-.93,5.3v.74a13.526,13.526,0,0,0,.987,5.42,7.721,7.721,0,0,0,2.838,3.483,7.9,7.9,0,0,0,4.433,1.215,10.566,10.566,0,0,0,2.477-.294,9.749,9.749,0,0,0,2.155-.769l.513-3.873H263.9v6.34a13.964,13.964,0,0,1-3.9,1.69A18.356,18.356,0,0,1,255.03,20.872Zm21.546,0a9.4,9.4,0,0,1-5.088-1.329,8.7,8.7,0,0,1-3.265-3.692,12.382,12.382,0,0,1-1.139-5.439v-.4a12.275,12.275,0,0,1,1.139-5.41A8.84,8.84,0,0,1,271.489.9a9.232,9.232,0,0,1,5.05-1.348A9.354,9.354,0,0,1,281.626.892a8.776,8.776,0,0,1,3.265,3.692,12.321,12.321,0,0,1,1.139,5.429v.4a12.382,12.382,0,0,1-1.139,5.439,8.723,8.723,0,0,1-3.256,3.692A9.32,9.32,0,0,1,276.576,20.872Zm0-3.683a3.963,3.963,0,0,0,2.629-.864,5.165,5.165,0,0,0,1.547-2.392,11.066,11.066,0,0,0,.513-3.521v-.4a10.911,10.911,0,0,0-.513-3.493A5.2,5.2,0,0,0,279.2,4.129a4,4,0,0,0-2.658-.873,3.944,3.944,0,0,0-2.62.873,5.133,5.133,0,0,0-1.547,2.392,11.1,11.1,0,0,0-.5,3.493v.4a11.259,11.259,0,0,0,.5,3.521,5.036,5.036,0,0,0,1.557,2.392A4.039,4.039,0,0,0,276.576,17.189Zm11.466,3.284V17.55l2.866-.569V-5.629L287.871-6.2V-9.141h7.8V16.98l2.866.569v2.923Zm12.4,0V17.55l2.866-.569V-5.629L300.267-6.2V-9.141h7.8V16.98l2.866.569v2.923Zm21.907.4a9.6,9.6,0,0,1-5.059-1.3,8.858,8.858,0,0,1-3.341-3.6,11.3,11.3,0,0,1-1.186-5.258v-.8a11.829,11.829,0,0,1,1.167-5.344A9.176,9.176,0,0,1,317.144.892a8.352,8.352,0,0,1,4.67-1.338,9.037,9.037,0,0,1,4.679,1.12,7.123,7.123,0,0,1,2.857,3.18,11.546,11.546,0,0,1,.968,4.945v2.734h-12.6l-.038.095a7.4,7.4,0,0,0,.674,2.866,4.726,4.726,0,0,0,1.708,1.974,4.86,4.86,0,0,0,2.705.721,9.565,9.565,0,0,0,3.037-.456,9.337,9.337,0,0,0,2.525-1.291l1.5,3a10.408,10.408,0,0,1-3.094,1.727A12.5,12.5,0,0,1,322.345,20.872Zm-4.556-12.7h7.954V7.679a6.31,6.31,0,0,0-.408-2.363,3.333,3.333,0,0,0-1.272-1.585,3.907,3.907,0,0,0-2.193-.569,3.325,3.325,0,0,0-2.031.645,4.523,4.523,0,0,0-1.4,1.756,8.585,8.585,0,0,0-.712,2.515Zm24.6,20.6a15.768,15.768,0,0,1-3.37-.408,13.456,13.456,0,0,1-3.256-1.13l.987-3.493a14.436,14.436,0,0,0,2.677.892,12.19,12.19,0,0,0,2.772.342,4.252,4.252,0,0,0,3.445-1.3A5.556,5.556,0,0,0,346.739,20V18.385a6.387,6.387,0,0,1-2.259,1.851,6.784,6.784,0,0,1-3,.636,7.407,7.407,0,0,1-4.319-1.253,7.89,7.89,0,0,1-2.772-3.512,13.323,13.323,0,0,1-.959-5.239v-.4a15.679,15.679,0,0,1,.959-5.733A8.6,8.6,0,0,1,337.143.921a6.858,6.858,0,0,1,4.281-1.367,6.625,6.625,0,0,1,3.265.769,6.866,6.866,0,0,1,2.354,2.193L347.4-.067h4.119V20.018a9.476,9.476,0,0,1-1.082,4.641,7.4,7.4,0,0,1-3.132,3.037A10.483,10.483,0,0,1,342.391,28.769Zm.38-11.675a4.229,4.229,0,0,0,3.967-2.3V5.647a4.789,4.789,0,0,0-1.614-1.7,4.315,4.315,0,0,0-2.335-.617,3.758,3.758,0,0,0-2.591.9,5.306,5.306,0,0,0-1.5,2.506,12.949,12.949,0,0,0-.484,3.73v.4a8.272,8.272,0,0,0,1.092,4.537A3.822,3.822,0,0,0,342.771,17.094ZM350.877,3.54,348.865-.067h5.126V2.876Zm14.351,17.332a9.6,9.6,0,0,1-5.059-1.3,8.858,8.858,0,0,1-3.341-3.6,11.294,11.294,0,0,1-1.186-5.258v-.8a11.829,11.829,0,0,1,1.167-5.344A9.176,9.176,0,0,1,360.027.892,8.352,8.352,0,0,1,364.7-.446a9.037,9.037,0,0,1,4.679,1.12,7.122,7.122,0,0,1,2.857,3.18A11.546,11.546,0,0,1,373.2,8.8v2.734H360.6l-.038.095a7.4,7.4,0,0,0,.674,2.866,4.726,4.726,0,0,0,1.708,1.974,4.86,4.86,0,0,0,2.705.721,9.565,9.565,0,0,0,3.037-.456,9.337,9.337,0,0,0,2.525-1.291l1.5,3a10.408,10.408,0,0,1-3.094,1.727A12.5,12.5,0,0,1,365.228,20.872Zm-4.556-12.7h7.954V7.679a6.31,6.31,0,0,0-.408-2.363,3.333,3.333,0,0,0-1.272-1.585,3.907,3.907,0,0,0-2.193-.569,3.325,3.325,0,0,0-2.031.645,4.523,4.523,0,0,0-1.4,1.756,8.585,8.585,0,0,0-.712,2.515Z" transform="translate(260.966 207.837)" fill="#58595b"/><path d="M44.357,13.559l-.518.162c-2.3.292-2.3.292-3.24-1.782-.551-1.231-.551-1.2-1.944-1.1s-2.235.194-3.24.227a1.231,1.231,0,0,0-1.361,1.1,21.931,21.931,0,0,1-.648,2.268l-2.786.227.324-1.231L34.6,1.216C34.9.211,34.9.179,35.933.179c2.3,0,1.685-.518,2.754,1.588,1.685,3.434,3.24,6.9,4.989,10.367l.68,1.426M36.711,3.613h-.292c-.486,1.652-.972,3.24-1.49,5.184l4.05-.259c-.81-1.814-1.49-3.24-2.268-4.957" transform="translate(68.305 0.275)" fill="#b7202e"/><path d="M37.005,6.651A5.219,5.219,0,1,1,47.438,6.3,5.119,5.119,0,0,1,42.319,11.8a4.892,4.892,0,0,1-5.313-5.151m7.873-.292h0a4.76,4.76,0,0,0,0-.68,2.495,2.495,0,0,0-4.892-.518,4.439,4.439,0,0,0,0,2.754,2.462,2.462,0,0,0,2.235,1.847,2.4,2.4,0,0,0,2.462-1.588,10.238,10.238,0,0,0,.421-1.782" transform="translate(82.59 2.809)" fill="#b7202e"/><path d="M43.24,11.99l-2.43-.551c.745-3.24,1.49-6.48,2.268-9.719l2.2.454V3.5l1.069-.486a3.953,3.953,0,0,1,4.05.421,2.4,2.4,0,0,1,1.134,2.138,8.845,8.845,0,0,1-.162,1.62c-.421,1.879-.842,3.758-1.3,5.637a3.6,3.6,0,0,1-.259.778l-2.4-.551,1-4.5a15.1,15.1,0,0,0,.389-2.041c0-1.134-.227-1.717-1.1-2.009a2.041,2.041,0,0,0-2.43.778,4.6,4.6,0,0,0-.551,1.3c-.389,1.555-.745,3.24-1.134,4.73l-.259.81" transform="translate(91.129 3.852)" fill="#b7202e"/><path d="M35.5,0h2.462c.162,2.333,0,4.633,0,6.9v7.03H35.4c0-4.633.227-9.2.194-13.931" transform="translate(79.012)" fill="#b7202e"/><path d="M176.989,81.421a84.041,84.041,0,0,1-167.5.421,42.181,42.181,0,0,0,81.287,7l-1.62-1A29.936,29.936,0,0,1,78.174,76.5a20.962,20.962,0,0,1-2.689-9.719,19.439,19.439,0,0,1,2.851-10.853,40.367,40.367,0,0,1,3.693-5.054,51.643,51.643,0,0,0,7.1-10.011,24.428,24.428,0,0,0,2.689-9.719,30.357,30.357,0,0,0-.745-7.257c-.324-1.652-.551-3.24-.842-4.925V17.92a6.22,6.22,0,0,1,.94.486,54.2,54.2,0,0,1,18.111,20.605A38.165,38.165,0,0,1,107.754,75.3a35.12,35.12,0,0,1-7.905,8.618L96.8,86.41c-.324.292-.583.616-.907.907a1.328,1.328,0,0,0-.324,1.652,42.241,42.241,0,0,0,78.4,2.883,46.037,46.037,0,0,0,3.078-10.27" transform="translate(20.978 40.138)" fill="#b7202e"/><path d="M20.64,57.807c-.259-.94-.518-1.847-.81-2.754l.486-.356a5.022,5.022,0,0,0,3.24-5.67,11.469,11.469,0,0,0-1.069-4.115,4.374,4.374,0,0,0-2.3-2.2A3.24,3.24,0,0,0,15.91,44.88a30.907,30.907,0,0,0-.454,4.244,33.878,33.878,0,0,1-.259,5.119,11.89,11.89,0,0,1-.421,2.138A6.674,6.674,0,0,1,4.57,60.043,8.715,8.715,0,0,1,1.33,55.9a14.417,14.417,0,0,1-.972-8.65,8.1,8.1,0,0,1,5.508-6.253h.551c.292.94.551,1.847.842,2.754a3.044,3.044,0,0,1-.551.356,5.7,5.7,0,0,0-3.661,5.054,9.72,9.72,0,0,0,1.976,7.419A3.855,3.855,0,0,0,8.264,58.1a3.24,3.24,0,0,0,2.981-2.073,10.27,10.27,0,0,0,.648-2.786,35.179,35.179,0,0,1,.259-5.119,20.7,20.7,0,0,1,.616-3.985,5.767,5.767,0,0,1,5.475-4.7A6.48,6.48,0,0,1,24.3,42.45,12.668,12.668,0,0,1,26.277,47.6a11.7,11.7,0,0,1,0,4.5,7.1,7.1,0,0,1-5.572,5.7" transform="translate(-0.086 88.277)" fill="#b7202e"/><path d="M20.29,52.7l-1.75,1.458v.259a6.771,6.771,0,0,1,5.572,2.592,5.249,5.249,0,0,1,.778,6.123h1.3a6.48,6.48,0,0,1,5.378,3.24,4.86,4.86,0,0,1-.583,6.188,9.72,9.72,0,0,1-1.2,1.1c-3.24,2.559-6.48,5.087-9.719,7.614l-.616.389L17.633,79.4l.94-.778,7.873-6.156a15.809,15.809,0,0,0,1.912-1.685,2.819,2.819,0,0,0,.518-3.531,4.309,4.309,0,0,0-5.67-2.106A9.717,9.717,0,0,0,21.2,66.308l-7.452,6.123-1.069.778-1.782-2.3.94-.81c2.721-2.106,5.443-4.212,8.132-6.48a11.437,11.437,0,0,0,1.912-1.847,2.786,2.786,0,0,0,0-3.434,4.341,4.341,0,0,0-5.411-1.62A15.486,15.486,0,0,0,13.615,58.5c-2.2,1.652-4.406,3.4-6.48,5.119l-1.069.81L4.22,62.1,18.832,50.66c.583.713,1.069,1.328,1.685,2.041" transform="translate(9.174 113.47)" fill="#b7202e"/><path d="M33.4,14.15l1.75,2.235L33.208,18.07l9.719,12.344a3.661,3.661,0,0,1-.842.227H40.725a2.268,2.268,0,0,1-2.43-1.1c-2.171-2.883-4.406-5.7-6.48-8.521l-1.134-.875a13.867,13.867,0,0,0-3.661,3.24L38,34.755c-1.328.194-2.4.421-3.5.551a1.516,1.516,0,0,1-.842-.486c-1.264-1.264-2.462-2.559-3.726-3.855-.259-.259-.518-.518-.94-.875l-3.24,3.6,2.592,2.4a1.3,1.3,0,0,1-1.264.648H22.906a1.458,1.458,0,0,1-1.588-.94,1.717,1.717,0,0,1,.421-1.911c1.49-1.62,2.948-3.24,4.406-4.925.259-.259.518-.583.842-.972l-2.3-2.365c-2.754,2.365-4.86,5.216-7.419,7.808L15.13,31.515,20.7,25.3l.875.583h0l-.389-1.134A85.6,85.6,0,0,1,33.467,14.15" transform="translate(33.61 31.694)" fill="#b7202e"/><path d="M47.307,24.319a22.735,22.735,0,0,0,.259,2.462l-2.527.259a5.022,5.022,0,0,0-1,.227,1.231,1.231,0,0,0-.972,1.393,1.3,1.3,0,0,0,1.134,1.3,11.891,11.891,0,0,0,2.4,0,7.451,7.451,0,0,0,1.361-.389v1.3a31.621,31.621,0,0,0,2.592-7.03L41.7,21.079l.778-2.721h.842L48.8,19.913l4.471,1.264c-.421-.518-.68-.972-1.037-1.328a18.532,18.532,0,0,0-5.9-4.212,1.426,1.426,0,0,1-1.069-1.555,12.263,12.263,0,0,0-.194-2.527,27.345,27.345,0,0,1,3.24,1.588A27.7,27.7,0,0,1,51.1,15.669a3.24,3.24,0,0,0,0-.713c-.324-1-.68-1.976-1.037-2.981a2.3,2.3,0,0,0-1.328-1.62.972.972,0,0,1-.454-.616A14.65,14.65,0,0,0,48.02,6.5a25.237,25.237,0,0,1,3.24,1.555A3.24,3.24,0,0,1,52.3,9.675c.551,1.717,1.069,3.467,1.49,5.249s.81,3.855,1.1,5.8a1.513,1.513,0,0,0,1.393,1.685,2.949,2.949,0,0,1,.648.324l-.907,2.657-2.43-.778c-1.037,2.43-1.814,4.925-2.754,7.354s-1.75,4.86-2.721,7.516c-.778-1.069-1.426-1.911-2.009-2.819a1.458,1.458,0,0,1,0-.972c.292-.972.68-1.944,1.069-3.24H45.72a4.568,4.568,0,0,1-4.7-4.082,3.24,3.24,0,0,1,1.555-3.24,6.933,6.933,0,0,1,4.73-.81" transform="translate(91.533 14.559)" fill="#b7202e"/><path d="M33.124,12.761a1.7,1.7,0,0,0-.194-.972c-.194-.324,0-1.134,0-1.814l3.661-.324,2.883-.194a2.106,2.106,0,0,1,1.75.324c.194.162.616,0,.907,0h6.48a6.188,6.188,0,0,1,0,2.883h-2.43V26.919a1.75,1.75,0,0,0,.81,1.62,4.017,4.017,0,0,1,1.3,4.7,3.6,3.6,0,0,1-3.661,2.624A5.8,5.8,0,0,1,40.608,34.6a12.959,12.959,0,0,1-1.685-1.588,36.708,36.708,0,0,1-3.5-4.957,1.652,1.652,0,0,1,2.138.778,13.834,13.834,0,0,0,3.24,3.693,4.471,4.471,0,0,0,4.309,1.037,1.911,1.911,0,0,0,1.523-1.814,1.523,1.523,0,0,0-2.138-1.62,7.42,7.42,0,0,0-1.328.907,6.967,6.967,0,0,0-.778.842L40.9,29.705a3.791,3.791,0,0,1,3.791-1.976c0-.583-.518-.713-.842-.907a1.49,1.49,0,0,1-.745-1.458c0-1.847,0-3.693,0-5.572V18.4a45.82,45.82,0,0,0-5.249.454,1.523,1.523,0,0,0-1.231,1.814,5.831,5.831,0,0,0,.551,1.652,13.607,13.607,0,0,0,2.657,4.05l.907.778-1.134.842a5.671,5.671,0,0,1-.648-.518c-1.1-1.3-2.268-2.559-3.24-3.92a7.614,7.614,0,0,1-1.523-4.763,2.819,2.819,0,0,1,.842-2.235A2.2,2.2,0,0,1,36.2,15.9c2.073-.227,4.147-.356,6.48-.551a14.628,14.628,0,0,0,.259,1.879,11.664,11.664,0,0,0,0-4.406H41.159a2.851,2.851,0,0,0-2.235-.259l-4.86.324h-.94" transform="translate(73.285 21.03)" fill="#b7202e"/><path d="M53.779,71.484l-2.948-8.812L53.65,61.7,62.008,86l-2.559.875c-.292-.648-.518-1.231-.81-1.944-.194.356-.324.551-.421.778a6.739,6.739,0,0,1-6.642,3.758,8.132,8.132,0,0,1-6.253-3.888,13.348,13.348,0,0,1-2.268-8.488,7.063,7.063,0,0,1,9.914-6.059,1.539,1.539,0,0,1,.81.324m-7.808,6.771a12.959,12.959,0,0,0,2.365,6.48,5.087,5.087,0,0,0,3.791,2.2,4.7,4.7,0,0,0,5.054-5.054,12.214,12.214,0,0,0-2.689-7.192,4.892,4.892,0,0,0-5.41-1.62,5.022,5.022,0,0,0-3.24,5.151" transform="translate(96.076 138.197)" fill="#b7202e"/><path d="M58.842,63.22c.227,1.2.421,2.268.648,3.24l-2.786.583c0-.227-.292-.421-.518-.745a2.073,2.073,0,0,0-.194.356L52.3,77.151c-1.49,4.179-2.948,8.326-4.406,12.506-.389,1.069-.389,1.069-1.555,1.1H44.1L33.28,65.747l3.531-.162L45.689,88a2.754,2.754,0,0,0,.356-.68q3.5-10.691,7.03-21.383c.292-.94.324-.94,1.3-1h1.523a2.034,2.034,0,0,1,.194-1.037l2.754-.486" transform="translate(74.263 141.602)" fill="#b7202e"/><path d="M74.845,70.873l-.875.778-1.49,1.2-1.814-1.2c-.454.356-.389.907-.518,1.361a9.719,9.719,0,0,1-4.827,5.961,5.41,5.41,0,0,1-3.24.745,5.216,5.216,0,0,1-4.309-6.933,8.682,8.682,0,0,1,1.911-3.013l3.888-4.147c.292-.356.518-.745.875-1.264-.518-.551-.972-1.1-1.523-1.588a2.5,2.5,0,0,0-2.495-.551,7.354,7.354,0,0,0-4.439,3.4,3.24,3.24,0,0,0-.194,2.365,5.039,5.039,0,0,0,.421,1.393L53.754,70.84a5.6,5.6,0,0,1-.583-5.216,11.858,11.858,0,0,1,7.452-6.48A4.017,4.017,0,0,1,64.9,60.279a18.759,18.759,0,0,1,1.847,2.073c1.037,1.231,2.009,2.527,3.078,3.791a16.62,16.62,0,0,0,5.022,4.827m-8.877-4.73c-.81,1.037-1.458,1.944-2.171,2.786s-1.523,1.75-2.3,2.624a6.09,6.09,0,0,0-.518.745,2.819,2.819,0,0,0,0,3.24,2.916,2.916,0,0,0,3.24.94,6.48,6.48,0,0,0,4.017-5.508,7.678,7.678,0,0,0-2.462-4.957" transform="translate(117.938 132.005)" fill="#b7202e"/><path d="M28.67,69.346,26.078,68.18a5.832,5.832,0,0,1,5.346-3.661,12.96,12.96,0,0,1,7.516,2.009,4.374,4.374,0,0,1,2.106,5.281c-.616,2.527-1.393,5.054-2.073,7.614a34.6,34.6,0,0,0-.842,3.726,14.481,14.481,0,0,0,0,2.4l-1.782-.486c-1.264-.356-1.328-.421-1.231-1.782v-.713a1.337,1.337,0,0,0-1.328.292,9.719,9.719,0,0,1-7.938-.551,5.184,5.184,0,0,1,2.365-9.719,26.273,26.273,0,0,1,3.791,0l4.5.454c1,0,1.069,0,1.361-1a3.24,3.24,0,0,0-1.847-4.212,13.609,13.609,0,0,0-3.24-.972,3.434,3.434,0,0,0-3.24,1.3L28.7,69.216M36.867,75.5a2.562,2.562,0,0,0-.551,0l-5.184-.421a14.025,14.025,0,0,0-2.333,0,2.592,2.592,0,0,0-2.495,2.041A2.657,2.657,0,0,0,27.374,80.2a6.479,6.479,0,0,0,2.3.972,5.443,5.443,0,0,0,5.9-1.912A9.72,9.72,0,0,0,37,75.6" transform="translate(51.626 144.483)" fill="#b7202e"/><path d="M21.54,80.176l-2.3-2.041L20.115,76H18.689A9.363,9.363,0,0,1,11.5,71.655a5.087,5.087,0,0,1,3.013-7.776,5.67,5.67,0,0,1,4.05.486c.94.486,1.814,1.069,2.721,1.588s2.689,1.685,4.05,2.462,1,.454,1.652-.324a3.24,3.24,0,0,0,0-4.7,12.959,12.959,0,0,0-2.235-2.009,3.564,3.564,0,0,0-4.05-.227l-.907.486c-.616-.713-1.2-1.426-1.879-2.171A5.7,5.7,0,0,1,23.16,58.08a12.247,12.247,0,0,1,7.322,5.67A4.341,4.341,0,0,1,30,69.063c-1.523,1.879-3.24,3.726-4.73,5.573l-.389.421a15.616,15.616,0,0,0-3.24,5.281m3.24-9.719-.518-.356L19.694,67.67a12.508,12.508,0,0,0-1.847-.972,2.754,2.754,0,0,0-3.726,1.555A2.981,2.981,0,0,0,14.64,71.3a6.48,6.48,0,0,0,3.24,2.3,5.022,5.022,0,0,0,5.378-1.1c.583-.583,1.1-1.2,1.75-1.879" transform="translate(23.539 129.733)" fill="#b7202e"/><path d="M68.982,55.511c-.389.842-.81,1.685-1.231,2.559a5.994,5.994,0,0,1-3.467-5.7,13.218,13.218,0,0,1,2.009-6.577,4.6,4.6,0,0,1,5.832-2.268c2.2.648,4.406,1.393,6.48,2.073a16.847,16.847,0,0,0,6.771,1.328c-.292.875-.551,1.652-.778,2.43a.745.745,0,0,1-.81.518H82.135a5.074,5.074,0,0,0,.389,1.458,9.428,9.428,0,0,1-.616,7.419,5.022,5.022,0,0,1-5.67,2.819,5.119,5.119,0,0,1-4.147-5.054,29.927,29.927,0,0,1,.324-3.791c.227-1.62.486-3.24.68-4.827,0-.972,0-1.037-.875-1.328a3.24,3.24,0,0,0-4.406,1.814,13.379,13.379,0,0,0-1.037,3.4A3.24,3.24,0,0,0,67.848,54.6l1.134,1.037m6.48-7.84a37.864,37.864,0,0,1-.454,4.341c-.162,1.426-.356,2.041-.421,3.078a2.851,2.851,0,0,0,2.171,3.24A2.916,2.916,0,0,0,80,56.937a6.8,6.8,0,0,0,.713-5.022A5.735,5.735,0,0,0,75.364,47.9" transform="translate(143.694 96.761)" fill="#b7202e"/><path d="M83.26,66.2c-.454.907-.907,1.652-1.393,2.592-7.452-4.082-15-8.229-22.517-12.311l1.49-2.624,8,4.439a2.3,2.3,0,0,0-.194-1.264,7.646,7.646,0,0,1,3.24-7.678,4.6,4.6,0,0,1,3.985-.583,12.117,12.117,0,0,1,2.592,1.069l10.043,5.54.583.389L87.7,58.327l-1.1-.551L77.655,52.69a9.04,9.04,0,0,0-1.911-.842,3.434,3.434,0,0,0-3.758,1.166,4.795,4.795,0,0,0,.745,7.1,53.071,53.071,0,0,0,5.572,3.24l4.374,2.43.648.421" transform="translate(132.655 108.751)" fill="#b7202e"/><path d="M63.138,37.187l-1.264.616c-.842.389-1.458,0-1.49-.94a1.587,1.587,0,0,1,0-.68c.356-1.2.713-2.365,1.134-3.531a1.879,1.879,0,0,1,.583-.842c.81-.745,1.328-.648,1.912.259l.486.68,3.92-2.171a31.136,31.136,0,0,0-2.43-4.115l-13.38,8.359V32.1a1.523,1.523,0,0,1,.907-1.588c3.24-1.944,6.48-3.953,9.525-5.961l1.166-.778L63.17,21.863l2.4-1.523a147.35,147.35,0,0,1,8.391,14.126L71.5,35.826,70.1,33.3l-4.082,2.138c.713,1.3,1.361,2.495,2.073,3.855L65.308,40.88c-.745-1.264-1.426-2.462-2.171-3.791" transform="translate(117.528 45.558)" fill="#b7202e"/><path d="M23.39,20.506,27.7,17.979l4.309-2.43a3.531,3.531,0,0,0-.583-.486c-1.2-.518-2.4-1.1-3.629-1.523a4.05,4.05,0,0,0-3.693.324,1.523,1.523,0,0,1-2.073-.227,20.119,20.119,0,0,0-1.879-1.458,7.257,7.257,0,0,1,5.994-1.2,32.819,32.819,0,0,1,6.966,3.24,1.328,1.328,0,0,0,1.879,0l1.426,2.527L33.854,18.27l2.721,4.989-2.3,1.264-1.49.842a2.171,2.171,0,0,0-.81,3.24,3.013,3.013,0,0,0,4.471.551,1.328,1.328,0,0,0-.227-.356,1.782,1.782,0,0,1-.356-2.3,2.235,2.235,0,0,1,2.3-1.231,1.523,1.523,0,0,1,.842.356,3.5,3.5,0,0,1,1.231,3.531,1.782,1.782,0,0,0,0,.421,7,7,0,0,1,2.819,1.847l-1.717,1L39.1,30.938a1.1,1.1,0,0,0-1.1,0,6.48,6.48,0,0,1-8.326-2.43,7.711,7.711,0,0,1-.875-2.365,2.527,2.527,0,0,1,1.523-2.948l2.009-1.134.259-.324L31.327,19.4l-6.48,3.564c-.486-.842-.907-1.652-1.393-2.527" transform="translate(44.854 24.139)" fill="#b7202e"/><path d="M10.034,64.659A7.1,7.1,0,0,1,5.4,62.91a9.3,9.3,0,0,1-3.24-6.48,7.549,7.549,0,0,1,2.851-6.9,13.478,13.478,0,0,1,7.354-3.24,7.257,7.257,0,0,1,4.892,1.134,9.363,9.363,0,0,1,3.953,9.266,7.646,7.646,0,0,1-2.041,4.082,13.866,13.866,0,0,1-9.2,3.888m3.013-15.227a11.015,11.015,0,0,0-6.966,3.24,4.989,4.989,0,0,0-1,5.767,4.892,4.892,0,0,0,4.957,3.24,10.27,10.27,0,0,0,7.257-3.24A4.989,4.989,0,0,0,18.3,52.607a5.216,5.216,0,0,0-5.249-3.24" transform="translate(4.429 103.552)" fill="#b7202e"/><path d="M16,32.565l-1.231,1.814-2.4-1.458A87.475,87.475,0,0,1,21.118,19.67l2.268,1.62-1.458,2.171,12.765,9.3a16.879,16.879,0,0,1-3.24,1.166,2.508,2.508,0,0,1-1.1-.486l-9.007-6.48-1.2-.81a19.828,19.828,0,0,0-2.495,3.629l13.478,8.1a12.959,12.959,0,0,1-3.24,1.555,2.417,2.417,0,0,1-1.037-.389l-9.4-5.67L16,32.565" transform="translate(27.428 44.057)" fill="#b7202e"/><path d="M47.5,69.143l2.819-1.49L62.079,78.247a3.01,3.01,0,0,0,0-.454c-.616-3.855-1.2-7.743-1.782-11.6a17.307,17.307,0,0,0-.421-2.851.875.875,0,0,1,.518-1.037l2.041-1.037c.259,1.847.518,3.564.745,5.281.68,5.151,1.361,10.27,2.009,15.422a30.03,30.03,0,0,1,.13,4.5,4.6,4.6,0,0,1-3.24,4.536c-.842.227-.94.194-1.426-.518s-.648-.94-1.037-1.523l1.2-.486a3.24,3.24,0,0,0,2.138-3.467h0a4.827,4.827,0,0,0-1.879-3.985c-4.277-3.6-8.424-7.322-12.6-11.015a8.584,8.584,0,0,1-.81-.778" transform="translate(106.114 137.234)" fill="#b7202e"/><path d="M27.219,61.8l2.851,1.523c-.778,5.184-1.523,10.335-2.3,15.584l11.7-10.594,2.527,1.328a4.148,4.148,0,0,1-.518.68q-8.262,7.29-16.555,14.547a11.437,11.437,0,0,1-2.883,1.911,4.471,4.471,0,0,1-4.957-.875.94.94,0,0,1-.356-1.2l.778-1.911,1.2.81a3.24,3.24,0,0,0,4.082-.292,5.151,5.151,0,0,0,2.2-3.823c.518-5.184,1.264-10.367,1.911-15.551l.324-2.138" transform="translate(36.976 138.421)" fill="#b7202e"/><path d="M55.954,15.54l1.782-1.49,1,.745,4.5,3.5c.356.292.68.551.356,1.069l.68-.389,7.128,6.642L69.5,27.722a97.2,97.2,0,0,0-9.719-8.2c-3.24,4.082-6.48,8.2-9.719,12.473-.421-1.264-.81-2.268-1.069-3.24a1.49,1.49,0,0,1,.324-.94c.583-.81,1.2-1.588,1.911-2.495l-.81-.162A4.7,4.7,0,0,1,47.789,18a3.564,3.564,0,0,1,3.985-1.426c2.106.486,2.333.778,2.171,2.883a1.412,1.412,0,0,1-.162.745,5.217,5.217,0,0,0-1.231-.454,12.959,12.959,0,0,0-2.495-.421,2.041,2.041,0,0,0-1.231.486.94.94,0,0,0,0,1.652,3.855,3.855,0,0,0,2.365.81h2.43l3.693-4.73-1.264-1c-.292-.259-.583-.518-.259-.94Z" transform="translate(104.949 31.47)" fill="#b7202e"/><path d="M31.39,12.51c.324.616.551,1.069.745,1.49H32.3a6.893,6.893,0,0,0-.356-1.62A41.179,41.179,0,0,1,39.62,10.21l.713,2.559-2.43.81c1.426,5.022,2.819,9.979,4.277,15.065a13.9,13.9,0,0,1-3.24-.972c-.194,0-.356-.486-.421-.745-.292-.842-.518-1.685-.81-2.657a12.051,12.051,0,0,1-1,.713,4.633,4.633,0,0,1-7-2.754,4.277,4.277,0,0,1,3.078-4.795,1.1,1.1,0,0,1,.648,0l1.717,1.458c-.648.421-1.2.745-1.717,1.134A3.855,3.855,0,0,0,31.909,22a1.393,1.393,0,0,0,.292,1.523c.454.389.94.227,1.426,0A5.281,5.281,0,0,0,35.8,21.485c.227-.389.486-.745.81-1.264-.518-1.847-1.1-3.855-1.717-5.994-2.948,1.037-5.67,2.333-8.618,3.24-.356-.842-.713-1.685-1.1-2.657l6.318-2.559" transform="translate(56.098 22.869)" fill="#b7202e"/><path d="M51.164,29.365A1.133,1.133,0,0,1,49.9,28.2a22.355,22.355,0,0,1,.421-6.48,5.572,5.572,0,0,1,2.559-3.467,3.045,3.045,0,0,1,4.892,2.527v.778c2.495,0,3.24.551,2.981,3.013l1.1-.389c.292.356.616.68.907,1.069.81,1.069,2.819.421,3.24-.778a1.3,1.3,0,0,0-.324-1.3l-1.717-2.138,2.171-1.814c1.782,1.976,3.24,4.082,5.119,6.188l-2.2,1.847-1.426-1.588-.616.713a5.443,5.443,0,0,1-3.24,2.073,3.985,3.985,0,0,1-2.657-.486,1.361,1.361,0,0,0,0,1.911,4.925,4.925,0,0,0,2.527,1.75,9.494,9.494,0,0,1,1.652.421,32.394,32.394,0,0,1-2.721,2.2,1.037,1.037,0,0,1-.745,0A4.665,4.665,0,0,1,58.778,28.1a25.333,25.333,0,0,1,1.328-2.786c-.81-1.361-1.749-1.49-2.851-.356L55.246,27.1c-.389-.842-.68-1.555-1.069-2.365l1.555-1.685c.421-.454.875-.842.486-1.523a1.911,1.911,0,0,0-1.976-.907A2.916,2.916,0,0,0,52.4,22.27a11.955,11.955,0,0,0-1,4.374,10.991,10.991,0,0,1-.259,2.883" transform="translate(111.327 39.481)" fill="#b7202e"/><path d="M56.21,66.511l2.106-2.3L72.636,70.4a17.4,17.4,0,0,0-1.328-2.819c-.454-.94-.94-1.847-1.426-2.786l-1.393-2.721c-.454-.94-.94-1.847-1.426-2.786s-.94-1.847-1.426-2.851C66.351,55.69,67,55.01,67.711,54.2l.972,1.879,7.322,14.9c.518,1.037.518,1.037-.259,1.879-1.361,1.426-.94,1.328-2.689.616L57.279,67l-1.069-.486" transform="translate(125.622 121.398)" fill="#b7202e"/><path d="M10.78,29.781c.454,1.037.778,1.944,1.231,2.786a2.106,2.106,0,0,0,.907.648c.972.454,1.976.842,3.24,1.3-.356.842-.648,1.62-1,2.495-4.5-1.814-8.78-3.5-13.154-5.281l1-2.462,5.475,2.2.194-.227-.486-1.1L5.6,24.5a1.652,1.652,0,0,1,0-1.555c.356-.745.648-1.555,1.037-2.495l.68,1.361c.68,1.49,1.328,2.981,1.976,4.471.454,1,.486,1,1.588.778L18.2,25.472h1.555c-.454,1.1-.778,2.009-1.166,2.851a1.264,1.264,0,0,1-.875.454l-5.994.81-.875.194" transform="translate(4.202 45.804)" fill="#b7202e"/><path d="M24.846,16.852l2.43-.648a.778.778,0,0,1,.518,0,1.62,1.62,0,0,0,1.652,0c1.652-.551,2.041-1.361,1.458-3.013a4.113,4.113,0,0,0-.518-1.328,4.7,4.7,0,0,0-.486.745,3.726,3.726,0,0,1-5.67,1.2,6.253,6.253,0,0,1-2.4-5.734,3.823,3.823,0,0,1,5.184-3.24l.745.227a2.872,2.872,0,0,0-.194-1.231l2.009-.778a4.212,4.212,0,0,1,.356.616c1.037,2.657,2.106,5.346,3.078,8.035a13.348,13.348,0,0,1,.616,2.786,2.5,2.5,0,0,1-.972,2.268,8,8,0,0,1-5.313,1.976,2.462,2.462,0,0,1-2.495-2.009M24.3,8.558a5.475,5.475,0,0,0,1.1,2.948,2.138,2.138,0,0,0,2.43.875,2.268,2.268,0,0,0,1.588-2.3,4.6,4.6,0,0,0-1.264-3.24,2.171,2.171,0,0,0-2.43-.324,2.235,2.235,0,0,0-1.328,2.171" transform="translate(48.517 6.831)" fill="#b7202e"/><path d="M9.412,20.878l1.814-1.717,5.8,3.045.194-.162c-1-1.944-2.268-3.726-3.24-5.7l1.685-1.782,5.929,3.24a13.283,13.283,0,0,0-1.588-3.24c-.518-1-1.069-1.944-1.652-2.981l1.555-1.62a64.375,64.375,0,0,1,5.054,9.525L23.149,21.1l-5.508-3.013-.194.194c1,1.847,2.171,3.6,3.24,5.508l-1.717,1.847L9.25,20.878" transform="translate(20.44 22.309)" fill="#b7202e"/><path d="M23.441,3.642l6.8,12.279L28.3,17.088c-.259-.356-.518-.648-.81-1,0,.227-.227.356-.292.551a3.888,3.888,0,0,1-6.48,1.685,7.29,7.29,0,0,1-2.527-4.568,3.985,3.985,0,0,1,4.6-4.536h.745l-2.3-4.341,2.2-1.264m-.162,7.03a2.268,2.268,0,0,0-2.495,2.365,5.184,5.184,0,0,0,1.685,3.24,2.171,2.171,0,0,0,3.693-2.073,5.54,5.54,0,0,0-1.588-2.819,7.355,7.355,0,0,0-1.3-.745" transform="translate(40.365 8.086)" fill="#b7202e"/><path d="M56.634,18.414c-.389.389-.68.616-1,.907l-1.75-1.393c2.819-3.693,5.7-7.322,8.618-11.048l1.037.745.94.81-2.948,3.888h.94a3.953,3.953,0,0,1,3.693,4.957A7.1,7.1,0,0,1,62.5,21.848a3.823,3.823,0,0,1-5.7-2.883l-.162-.68m1.426-.583A2.073,2.073,0,0,0,61.3,19.58a5.248,5.248,0,0,0,2.365-3.24,1.944,1.944,0,0,0-.616-2.106,2.041,2.041,0,0,0-2.138-.486,4.86,4.86,0,0,0-2.851,3.888" transform="translate(120.404 15.41)" fill="#b7202e"/><path d="M84.191,48.853a19.548,19.548,0,0,1-.486,2.916L65.4,48.529c.194-.907.324-1.685.486-2.559l2.527.292c-.713-.875-1.361-1.523-1.847-2.268a3.24,3.24,0,0,1-.292-2.689,5.508,5.508,0,0,1,1.458-2.495l2.462,1.426-.486.907a3.24,3.24,0,0,0,1.555,4.763,14.742,14.742,0,0,0,3.5,1.134c2.754.551,5.573,1,8.326,1.49a8.358,8.358,0,0,1,1.1.259" transform="translate(146.206 86.928)" fill="#b7202e"/><path d="M26.879,32.152v1.814c-.648.227-1.3.486-2.009.68a2.009,2.009,0,0,0-1.523,1.393,4.05,4.05,0,0,1-.907,1.328,1.49,1.49,0,0,1-1.685.421A1.814,1.814,0,0,1,19.524,36.4a2.689,2.689,0,0,1,1.588-2.948,1.426,1.426,0,0,0,.81-1.62.863.863,0,0,0-1.393-.778c-.713.421-1.49,1.1-2.235,1.652s-1.231,1.069-1.911,1.49a3.823,3.823,0,0,1-1.62.616,1.75,1.75,0,0,1-2.138-2.041v-.324L15.539,24.7a10.044,10.044,0,0,1,2.689.875c-.778,2.106-1.555,4.115-2.3,6.156h.194a6.156,6.156,0,0,1,.778-.81,18.889,18.889,0,0,1,2.592-1.976,2.495,2.495,0,0,1,3.661,1.069,16.717,16.717,0,0,1,.972,2.495l1.166-.194,1.588-.162" transform="translate(27.92 55.324)" fill="#b7202e"/><path d="M54.55,37.127c.292-1.3.518-2.3.713-3.24s.583-.616.94-.778l8.618-3.467,3.24-1.328c-.227-.68-.421-1.328-.648-2.106L70,25.14c1.037,2.495,1.976,4.86,3.013,7.419l-2.657,1.1c-.356-.81-.68-1.523-1.037-2.4l-7.257,2.948-7.452,2.981" transform="translate(121.904 56.309)" fill="#b7202e"/><path d="M63.691,25.547c.194-.389.356-.68.518-1.037l-.875-.389a4.244,4.244,0,0,1-2.3-2.495,2.786,2.786,0,0,1,.842-3.24,2.754,2.754,0,0,1,3.531,0c.616.454,1.134,1.037,1.717,1.555l1.361,1.264a1.457,1.457,0,0,0,.389.194c.94-.583,1.134-.907.94-1.62a2.527,2.527,0,0,0-2.527-1.911,8.908,8.908,0,0,1-.454-.972,3.947,3.947,0,0,0-.356-1.037,3.24,3.24,0,0,1,3.24.583,7.905,7.905,0,0,1,2.268,3.434,2.462,2.462,0,0,1-.907,3.078c-.972.713-1.976,1.328-2.981,2.009a9.914,9.914,0,0,0-3.24,2.689l-1.3-1.976m3.661-3.4A25.66,25.66,0,0,0,64.987,20.3a1.2,1.2,0,0,0-1.911.972,2.041,2.041,0,0,0,.454,1.361c.907,1.166,2.3,1,3.693-.356" transform="translate(135.96 35.07)" fill="#b7202e"/><path d="M12.863,14.54a5.573,5.573,0,0,1,5.443,5.41,5.508,5.508,0,0,1-5.249,5.281A5.67,5.67,0,0,1,7.55,19.886a5.443,5.443,0,0,1,5.313-5.346m-.616,2.43a2.43,2.43,0,0,0-2.365,3.24,4.309,4.309,0,0,0,3.6,2.559,2.4,2.4,0,0,0,2.268-3.24,4.309,4.309,0,0,0-3.5-2.559" transform="translate(16.633 32.567)" fill="#b7202e"/><path d="M23.2,12.772l2.171-.972a3.791,3.791,0,0,1-.68,3.6,5.443,5.443,0,0,1-3.24,2.106,4.115,4.115,0,0,1-3.823-.842,6.868,6.868,0,0,1-2.495-4.05A4.115,4.115,0,0,1,16.82,8.2a4.341,4.341,0,0,1,4.763-.616,6.771,6.771,0,0,1,3.11,2.657C22.911,11.638,21,12.772,19.25,14.133a2.3,2.3,0,0,0,2.786,1.2c1-.324,1.328-1,1.3-2.559M21.453,10.5c-1.069-1.393-2.268-1.652-3.24-.81a2.009,2.009,0,0,0,0,3.24l3.24-2.268" transform="translate(33.346 15.997)" fill="#b7202e"/><path d="M28.543,8.81c.454,1.426,1.2,2.073,2.235,2.106s1.588-.486,2.106-1.976l2.4-.194a3.953,3.953,0,0,1-1.717,3.24,6.123,6.123,0,0,1-3.24,1,3.888,3.888,0,0,1-3.143-1.426,6.48,6.48,0,0,1-1.523-5.929A4.212,4.212,0,0,1,29.19,2.4,4.277,4.277,0,0,1,33.856,4.21a5.67,5.67,0,0,1,1.1,2.851l-6.48,1.782m3.6-2.592c-.583-1.75-1.685-2.365-2.948-1.814a1.976,1.976,0,0,0-.875,2.851l3.823-1.037" transform="translate(56.776 5.056)" fill="#b7202e"/><path d="M70.278,30.1l-2.657-5.929a2.074,2.074,0,0,0-1.75,2.171c0,1.166.583,1.652,2.3,2.073.194.68.421,1.393.616,2.171a3.4,3.4,0,0,1-3.24-.94,5.411,5.411,0,0,1-1.717-3.693,4.892,4.892,0,0,1,.486-2.235,6.642,6.642,0,0,1,6.544-2.948,4.7,4.7,0,0,1,2.2,7.614A6.48,6.48,0,0,1,70.343,30.1m.259-3.013c1.458-.583,2.009-1.717,1.49-2.851s-1.75-1.458-3.24-.745c.551,1.2,1.1,2.4,1.685,3.6" transform="translate(142.689 46.359)" fill="#b7202e"/><path d="M65.228,19.843l-4.6-4.73a2.138,2.138,0,0,0-.94,2.657c.389,1,1.069,1.3,2.883,1.2l.81,1.166a5.542,5.542,0,0,1,.421.745,3.434,3.434,0,0,1-3.855,0A7.679,7.679,0,0,1,58.036,19.1a3.985,3.985,0,0,1-.324-4.6,6.771,6.771,0,0,1,3.24-3.24,4.665,4.665,0,0,1,5.864,6.48,7.775,7.775,0,0,1-1.847,2.2m-.713-2.948c1.231-1.2,1.3-2.43.324-3.24a2.041,2.041,0,0,0-3.078.454c.875.94,1.782,1.879,2.754,2.851" transform="translate(127.685 24.478)" fill="#b7202e"/><path d="M53.762,10.281,47.509,8.3a2.138,2.138,0,0,0,.389,2.754c.875.778,1.685.713,3.078-.292l2.073,1.069a3.564,3.564,0,0,1-3.5,1.717,8.2,8.2,0,0,1-2.624-.778,3.953,3.953,0,0,1-2.3-3.855,7.193,7.193,0,0,1,1.523-4.309,4.374,4.374,0,0,1,4.989-1.49,4.244,4.244,0,0,1,3.24,4.212,6.123,6.123,0,0,1-.551,2.948M51.818,8.045a2.073,2.073,0,0,0-.356-2.559,1.782,1.782,0,0,0-2.138-.421,1.75,1.75,0,0,0-1.231,1.782l3.726,1.2" transform="translate(99.657 6.404)" fill="#b7202e"/><path d="M17.052,24.059l-3.6-2.073c-.68-.389-1.393-.81-2.106-1.166a1.982,1.982,0,0,0-2.4.389,2.106,2.106,0,0,0,0,2.754A7.062,7.062,0,0,0,10.508,25c1.166.713,2.333,1.361,3.531,2.041l.907.616-1.231,2.171L5,24.772,6.069,22.8l1.231.454V22.018a3.953,3.953,0,0,1,.454-2.333,2.981,2.981,0,0,1,4.374-1.458c2.138,1.1,4.179,2.333,6.48,3.6l-1.3,2.235" transform="translate(10.921 39.798)" fill="#b7202e"/><path d="M74.251,32.166,73.117,30.19a2.559,2.559,0,0,0,0-3.24c-.227-.389-.518-.745-1.037-.551s-.551.454-.551.94v1.847a16.908,16.908,0,0,1,0,2.559,2.721,2.721,0,0,1-3.726,2.43,3.6,3.6,0,0,1-1.814-1.393,7.1,7.1,0,0,1-.94-4.665A3.564,3.564,0,0,1,66.7,25.33c.421.745.778,1.426,1.166,2.171a2.527,2.527,0,0,0-.421,3.4,3.24,3.24,0,0,0,.486.648.875.875,0,0,0,1.523-.616,6.839,6.839,0,0,0,0-1.134V26.788a2.592,2.592,0,0,1,1.75-2.592,2.721,2.721,0,0,1,3.24.778A7.03,7.03,0,0,1,76.1,29.7a2.819,2.819,0,0,1-1.458,2.462" transform="translate(145.26 53.657)" fill="#b7202e"/><path d="M17.837,78.036,15.31,76.384,25.418,60.8l2.527,1.652L17.837,78.036" transform="translate(34.014 136.181)" fill="#b7202e"/><path d="M76.944,63.721l-1.75,2.462L60,55.557l1.717-2.527L76.944,63.721" transform="translate(134.111 118.778)" fill="#b7202e"/><path d="M47.182,83.61l-2.948.518L40.67,65.953l2.981-.583c1.2,6.123,2.333,12.085,3.531,18.24" transform="translate(90.816 146.417)" fill="#b7202e"/><path d="M56.071,3.67l2.365,1.3L52.8,15.2l6.156,3.5-1.037,1.944L49.3,15.884,56.071,3.67" transform="translate(110.145 8.22)" fill="#b7202e"/><path d="M66.035,27.052l-1.523,1.166a17.756,17.756,0,0,1-1.264-1.555,2.268,2.268,0,0,1,.81-3.531c1.2-.778,2.462-1.458,3.693-2.2.389-.227.81-.454,1.231-.745a4.724,4.724,0,0,0-.356-1.166l1.523-.907.778.875a.842.842,0,0,0,.454-.162,1.944,1.944,0,0,1,2.721,0c.292.227.616.389,1.1.713l-2.948,1.75.778,1.62c-.518.324-1,.648-1.588.972l-1.1-1.523-4.6,2.721a.745.745,0,0,0-.227,1.2l.518.713" transform="translate(140.194 40.563)" fill="#b7202e"/><path d="M12.46,9.67l1.976-1.62,9.007,10.724L21.5,20.459,12.46,9.67" transform="translate(27.63 18.031)" fill="#b7202e"/><path d="M44.17,17.08c.583-1.134,1.069-2.138,1.588-3.24.227-.421.616-.421,1-.324a3.92,3.92,0,0,1,2.754,2.106,6.48,6.48,0,0,1-2.171,8.1,1.814,1.814,0,0,1-2.365,0,1.3,1.3,0,0,1,.324-2.3,7.225,7.225,0,0,0,1.652-.842,3.726,3.726,0,0,0,1-1.231,1.426,1.426,0,0,0-.907-2.106,7.808,7.808,0,0,0-1.944-.259,3.92,3.92,0,0,0-.94,0" transform="translate(98.655 30.156)" fill="#b7202e"/><path d="M60.75,21.616,59.13,19.64,67,13.16l1.426,1.717-.745.972a2.732,2.732,0,0,1,2.495.842,2.365,2.365,0,0,1,.616,1.652l-1.944.745c-.162-.292-.259-.551-.389-.778a1.587,1.587,0,0,0-2.333-.778,13.768,13.768,0,0,0-2.041,1.328c-1.1.842-2.171,1.717-3.24,2.657" transform="translate(132.163 29.476)" fill="#b7202e"/><path d="M10.927,34.261l3.693-9.881,2.721,1.037c-1.264,3.24-2.527,6.48-3.791,9.881L10.83,34.261" transform="translate(23.979 54.607)" fill="#b7202e"/><path d="M57.876,6.7l2.171,1.328L54.7,16.646,52.53,15.286,57.876,6.7" transform="translate(117.38 15.007)" fill="#b7202e"/><path d="M55.638,27.462a4.341,4.341,0,0,1,2.4,2.462,2.3,2.3,0,0,1,0,2.009A9.981,9.981,0,0,1,56.9,33.812a35.079,35.079,0,0,1-2.851,3.24c-.486.518-.518.518-1.49,0,0-.259.292-.518.454-.745.875-1.231,1.782-2.462,2.624-3.693s.551-1.1-.194-1.814l-1.685-1.588.875-1,.972-1.037" transform="translate(117.447 60.856)" fill="#b7202e"/><path d="M51.873,17.582l-6.123-3.24c.454-.875.842-1.652,1.3-2.592L53.2,14.99l-1.328,2.624" transform="translate(102.194 26.318)" fill="#b7202e"/><path d="M54.028,18.452h0c-.259.356-.583.227-.907,0l-5.281-3.24,1.523-2.462,5.767,3.6L54.06,18.452" transform="translate(106.875 28.558)" fill="#b7202e"/><path d="M61.041,56.219,58.19,54.242l1.717-2.462,2.851,1.976-1.717,2.462" transform="translate(130.057 115.978)" fill="#b7202e"/><path d="M21.041,59.112l2.43,1.588a15.712,15.712,0,0,1-1.814,2.948L19,61.9l1.911-2.948" transform="translate(42.279 132.038)" fill="#b7202e"/><path d="M54.45,7.679,55.681,5.67,57.819,7l-1.2,2.009L54.45,7.679" transform="translate(121.68 12.7)" fill="#b7202e"/></g></g></svg>