<?xml version="1.0" encoding="utf-8"?>
<!-- Generator: Adobe Illustrator 22.1.0, SVG Export Plug-In . SVG Version: 6.00 Build 0)  -->
<svg version="1.1" id="Layer_1" xmlns="http://www.w3.org/2000/svg" xmlns:xlink="http://www.w3.org/1999/xlink" x="0px" y="0px"
	 viewBox="0 0 150 150" style="enable-background:new 0 0 150 150;" xml:space="preserve">
<style type="text/css">
	.st0{fill:#142543;}
	.st1{fill:url(#SVGID_1_);}
	.st2{fill:#1E3558;}
	.st3{fill:#010101;}
	.st4{fill:#FFFFFF;}
	.st5{fill:none;stroke:#690F27;stroke-width:2;stroke-miterlimit:10;}
	.st6{fill:#691127;}
	.st7{fill:#690F26;}
	.st8{fill:#F6951E;}
	.st9{fill:none;stroke:#691027;stroke-width:2;stroke-miterlimit:10;}
	.st10{fill:#690A27;}
	.st11{fill:#691128;}
	.st12{fill:#691228;}
	.st13{fill:none;}
	.st14{fill:none;stroke:#691128;stroke-width:2;stroke-miterlimit:10;}
	.st15{fill:#690D28;}
	.st16{fill:#691029;}
	.st17{fill:#6A112A;}
	.st18{fill:none;stroke:#691228;stroke-width:2;stroke-linecap:round;stroke-linejoin:round;}
	.st19{fill:none;stroke:#142443;stroke-width:2;stroke-miterlimit:10;}
	.st20{fill:#152443;}
	.st21{fill:none;stroke:#690F27;stroke-miterlimit:10;}
	.st22{fill:#691127;stroke:#691027;stroke-width:0.5;stroke-miterlimit:10;}
	.st23{fill:#691028;stroke:#690F27;stroke-width:0.25;stroke-miterlimit:10;}
	.st24{fill:#690F27;}
	.st25{fill:#FFFFFF;stroke:#FFFFFF;stroke-width:0.9;stroke-miterlimit:10;}
	.st26{fill:none;stroke:#FFFFFF;stroke-width:0.9;stroke-miterlimit:10;}
	.st27{fill:#691027;stroke:#691027;stroke-width:0.6;stroke-miterlimit:10;}
	.st28{fill:#6A102A;}
	.st29{fill:#691027;}
	.st30{fill:#6A1329;}
	.st31{fill:none;stroke:#142443;stroke-miterlimit:10;}
	.st32{fill:#152543;}
	.st33{fill:#010101;stroke:#010101;stroke-width:0.4;stroke-miterlimit:10;}
	.st34{fill:#8B173B;}
	.st35{fill:#AA5826;}
	.st36{fill:#C33C36;}
	.st37{fill:#C85927;}
	.st38{fill:#313B4E;}
	.st39{fill:none;stroke:#000000;stroke-width:1.2;stroke-miterlimit:10;}
	.st40{fill:none;stroke:#FFFFFF;stroke-miterlimit:10;}
	.st41{fill:#FFFFFF;stroke:#FFFFFF;stroke-width:0.1;stroke-miterlimit:10;}
	.st42{fill:#FFFFFF;stroke:#FFFFFF;stroke-width:0.3;stroke-miterlimit:10;}
	.st43{fill:#D1D3D4;}
	.st44{fill:#3B599A;}
	.st45{fill:#5FA9DD;}
	.st46{fill:#FFFFFF;stroke:#FFFFFF;stroke-miterlimit:10;}
	.st47{fill:#152443;stroke:#FFFFFF;stroke-miterlimit:10;}
	.st48{fill:none;stroke:#000000;stroke-miterlimit:10;}
	.st49{fill:none;stroke:#142543;stroke-miterlimit:10;}
	.st50{fill:#152543;stroke:#142543;stroke-width:0.5;stroke-miterlimit:10;}
	.st51{fill:#122543;}
	.st52{fill:none;stroke:#132543;stroke-width:0.5;stroke-miterlimit:10;}
	.st53{fill:#4B4B4B;}
	.st54{fill:#10A24A;}
	.st55{fill:#0FA24A;}
	.st56{fill:#142543;stroke:#132543;stroke-width:0.25;stroke-miterlimit:10;}
	.st57{fill:#D73D36;}
	.st58{fill:#690E26;}
	.st59{fill:#D73D36;stroke:#D63E35;stroke-width:0.75;stroke-miterlimit:10;}
	.st60{fill:none;stroke:#D63D35;stroke-miterlimit:10;}
	.st61{fill:none;stroke:#010101;stroke-width:3;stroke-linejoin:round;stroke-miterlimit:10;}
	.st62{fill:none;stroke:#122443;}
	.st63{fill:#152443;stroke:#000000;stroke-width:0.15;stroke-miterlimit:10;}
	.st64{fill:url(#SVGID_2_);}
	.st65{fill:url(#SVGID_3_);stroke:url(#SVGID_4_);stroke-width:0.25;stroke-miterlimit:10;}
	.st66{fill:#8F2E51;}
</style>
<circle class="st0" cx="75" cy="75" r="67.5"/>
<g>
	<path class="st4" d="M110.4,32.2c-0.2,0-0.5,0-0.7,0c-0.1,0-0.1,0-0.2,0H52.7c-5.8,0-10.6,4.7-10.7,10.5v53.8h-3
		c-0.1,0-0.2,0-0.2,0c-5.9,0.5-10.2,5.7-9.7,11.5c0.4,5.2,4.5,9.2,9.7,9.7c0.1,0,0.2,0,0.2,0h52.4c5.9,0,10.6-4.8,10.7-10.7V53.5
		h8.3c5.9,0,10.7-4.8,10.7-10.7C121,37,116.2,32.2,110.4,32.2L110.4,32.2z M39.6,115.6c-4.6,0-8.3-3.7-8.3-8.3
		c0-4.6,3.7-8.3,8.3-8.3h45.1c-4.6,3.6-5.4,10.3-1.8,14.9c0.5,0.7,1.1,1.3,1.8,1.8H39.6z M99.6,107.2c0,4.6-3.7,8.3-8.3,8.3
		s-8.3-3.7-8.3-8.3c0-4.6,3.7-8.3,8.3-8.3c0.6,0,1.2-0.5,1.2-1.2s-0.5-1.2-1.2-1.2h-47V42.8c0-4.6,3.7-8.3,8.3-8.3h51.1
		c-2.5,2-4,5-4.1,8.2L99.6,107.2L99.6,107.2z M110.3,51.2H102v-8.4c0-4.6,3.7-8.3,8.3-8.3s8.3,3.7,8.3,8.3S115,51.2,110.3,51.2
		L110.3,51.2z"/>
	<rect x="60.6" y="83.3" class="st4" width="20.8" height="2.3"/>
</g>
</svg>
