<svg xmlns="http://www.w3.org/2000/svg" width="332.832" height="290.15" viewBox="0 0 332.832 290.15"><defs><style>.a{fill:#ffcb05;}.b{fill:#f58220;}.c{fill:#b7202e;}.d{fill:#707070;}</style></defs><g transform="translate(-864.439 -748)"><g transform="translate(-435.211 463.648)"><path class="a" d="M1581.8,401.552h19.011v7.2l-2.4,2.2h-13.6l-3.011-2.2Z"/><circle class="a" cx="12.5" cy="12.5" r="12.5" transform="translate(1582.211 434.352)"/><path class="a" d="M1557.811,513.552l20-19.6,2.8-7.4,11.4-6.4,4.4,5.2-6.4,11.4-6.6,2.2-21.4,20.2Z"/><path class="a" d="M1430.011,535.752h-8.8l-8.8,10.4v7l22.8,5.8Z"/><circle class="a" cx="5" cy="5" r="5" transform="translate(1341.211 421.352)"/><circle class="a" cx="5" cy="5" r="5" transform="translate(1340.211 439.352)"/><path class="a" d="M1550.211,324.181l-15.08,15.08h15.08Z"/><g transform="translate(1299.65 301.226)"><g transform="translate(0 6.05)"><rect class="b" width="14.959" height="2.859"/></g><g transform="translate(6.05 0)"><rect class="b" width="2.859" height="14.959"/></g></g><g transform="translate(1344.209 312.71)"><path class="b" d="M1463.2,398.918a7.684,7.684,0,1,1,7.685-7.685A7.693,7.693,0,0,1,1463.2,398.918Zm0-12.51a4.826,4.826,0,1,0,4.826,4.826A4.831,4.831,0,0,0,1463.2,386.408Z" transform="translate(-1455.518 -383.549)"/></g><g transform="translate(1461.475 354.614)"><path class="c" d="M1879.852,617.609l-14.14-22.733V530.128h28.28v64.748Zm-11.281-23.55,11.281,18.137,11.281-18.137V532.987h-22.562Z" transform="translate(-1865.712 -530.128)"/></g><g transform="translate(1461.894 411.746)"><path class="c" d="M1869.2,738.19l-2.021-2.022,6.2-6.2h15.047l6.2,6.2-2.021,2.022-5.36-5.36h-12.678Z" transform="translate(-1867.177 -729.971)"/></g><g transform="translate(1474.186 356.044)"><rect class="c" width="2.859" height="57.131" transform="translate(0)"/></g><g transform="translate(1461.475 346.345)"><path class="c" d="M1893.991,512.331h-28.28V501.2h28.28Zm-25.421-2.859h22.562v-5.41h-22.562Z" transform="translate(-1865.712 -501.203)"/></g><g transform="translate(1461.475 338.076)"><path class="c" d="M1893.991,483.406h-28.28V472.278h28.28Zm-25.421-2.859h22.562v-5.41h-22.562Z" transform="translate(-1865.712 -472.278)"/></g><g transform="translate(1451.458 284.352)"><path class="c" d="M1868.969,340.935h-28.28v-2.214a26.854,26.854,0,0,0-5.352-15.94,23.951,23.951,0,0,1-4.658-14.841,24.238,24.238,0,0,1,22.847-23.553,24.159,24.159,0,0,1,20.574,38.69,26.089,26.089,0,0,0-5.132,15.69Zm-25.428-2.859h22.577a28.909,28.909,0,0,1,5.7-16.725,21.3,21.3,0,0,0-18.145-34.11,21.366,21.366,0,0,0-20.139,20.764,21.111,21.111,0,0,0,4.106,13.085A29.748,29.748,0,0,1,1843.541,338.076Z" transform="translate(-1830.672 -284.352)"/></g><g transform="translate(1464.246 292.085)"><path class="c" d="M1903.2,327.826h-2.859a13.565,13.565,0,0,0-22.955-9.79l-1.979-2.063a16.424,16.424,0,0,1,27.793,11.852Z" transform="translate(-1875.403 -311.402)"/></g><g transform="translate(1483.847 315.042)"><path class="c" d="M1945.7,398.224l-1.736-2.271a13.55,13.55,0,0,0,3.66-4.25l2.5,1.379A16.385,16.385,0,0,1,1945.7,398.224Z" transform="translate(-1943.968 -391.703)"/></g><g transform="translate(1466.941 425.26)"><path class="c" d="M1893.5,794.08l-8.675-13.947,1.212-.756a14.122,14.122,0,0,1,14.926,0l1.212.755Zm-4.69-12.955,4.69,7.542,4.69-7.541a11.272,11.272,0,0,0-9.381,0Z" transform="translate(-1884.829 -777.245)"/></g><g transform="translate(1457.033 421.517)"><path class="d" d="M1868.755,792.029a18.586,18.586,0,0,1-16.093-27.878l2.474,1.432a15.723,15.723,0,1,0,27.238,0l2.474-1.432a18.586,18.586,0,0,1-16.093,27.878Z" transform="translate(-1850.173 -764.151)"/></g><g transform="translate(1435.427 397.291)"><path class="d" d="M1822,753.12h-14.437v-9.58a31.072,31.072,0,0,1-9.322-3.86l-6.773,6.773-10.209-10.208,6.773-6.773a31.077,31.077,0,0,1-3.86-9.322H1774.6V705.713h9.579a31.078,31.078,0,0,1,3.86-9.322l-6.773-6.773,10.209-10.208L1799.06,687l-2.021,2.021-5.568-5.568-6.165,6.166,6.4,6.4-.657.977a28.286,28.286,0,0,0-4.315,10.422l-.226,1.155h-9.052v8.719h9.052l.226,1.155a28.291,28.291,0,0,0,4.315,10.422l.657.977-6.4,6.4,6.165,6.165,6.4-6.4.977.657a28.285,28.285,0,0,0,10.422,4.315l1.155.226v9.052h8.719v-9.052l1.155-.226a28.293,28.293,0,0,0,10.422-4.315l.976-.657,6.4,6.4,6.165-6.165-6.4-6.4.657-.977a28.3,28.3,0,0,0,4.315-10.422l.226-1.155h9.052v-8.719h-9.052l-.226-1.155a28.293,28.293,0,0,0-4.315-10.422l-.657-.977,6.4-6.4-6.165-6.166-5.568,5.568L1830.508,687l7.589-7.589,10.208,10.208-6.773,6.773a31.078,31.078,0,0,1,3.86,9.322h9.579V720.15h-9.579a31.077,31.077,0,0,1-3.86,9.322l6.773,6.773L1838.1,746.453l-6.773-6.773a31.079,31.079,0,0,1-9.322,3.86Z" transform="translate(-1774.596 -679.41)"/></g><g transform="translate(1385.543 348.595)"><path class="d" d="M1699.179,685.649h-18.01V671.523a76.371,76.371,0,0,1-11.3-2.2l-5.325,13.076-16.681-6.793,5.327-13.08a76.846,76.846,0,0,1-10.346-6.879l-9.993,9.993L1620.115,652.9l9.993-9.993a76.85,76.85,0,0,1-6.433-9.546l-13.014,5.482-6.992-16.6,13.009-5.48a76.344,76.344,0,0,1-2.451-12.183H1600.1v-18.01h14.126a76.388,76.388,0,0,1,2.2-11.3l-13.076-5.324,6.792-16.681,13.08,5.326a76.833,76.833,0,0,1,6.88-10.346l-9.993-9.993,12.735-12.735,9.993,9.993a76.842,76.842,0,0,1,9.546-6.433l-5.482-13.014,16.6-6.992,5.977,14.188-2.634,1.11-4.867-11.554-11.329,4.772,5.37,12.748-1.132.619a73.93,73.93,0,0,0-11.246,7.579l-1,.818-9.792-9.792-8.692,8.692,9.792,9.792-.818,1a73.862,73.862,0,0,0-8,12.024l-.606,1.14-12.813-5.217-4.636,11.385,12.809,5.216-.363,1.239a73.514,73.514,0,0,0-2.6,13.311l-.129,1.287h-13.843v12.293H1616.8l.129,1.287a73.5,73.5,0,0,0,2.848,14.157l.379,1.235-12.744,5.368,4.772,11.329,12.747-5.37.62,1.132a73.946,73.946,0,0,0,7.579,11.247l.818,1-9.792,9.792,8.692,8.692,9.792-9.792,1,.818a73.869,73.869,0,0,0,12.024,8l1.139.606-5.218,12.813,11.385,4.636,5.216-12.809,1.239.363a73.528,73.528,0,0,0,13.312,2.6l1.287.129V682.79h12.293V668.948l1.287-.129a73.516,73.516,0,0,0,13.311-2.6l1.239-.363,5.216,12.809,11.385-4.636-5.218-12.813,1.139-.606a73.833,73.833,0,0,0,12.024-8l1-.818,9.791,9.792,8.692-8.692-9.791-9.792.817-1a73.882,73.882,0,0,0,7.579-11.247l.62-1.132,12.747,5.37,4.772-11.329L1760.19,618.4l.378-1.235a73.484,73.484,0,0,0,2.848-14.157l.129-1.287h13.843V589.43h-13.843l-.129-1.287a73.55,73.55,0,0,0-2.6-13.311l-.363-1.239,12.809-5.216-4.636-11.385-12.813,5.217-.606-1.14a73.912,73.912,0,0,0-8-12.024l-.817-1,9.791-9.792-8.692-8.692-9.791,9.792-1-.818a73.892,73.892,0,0,0-11.247-7.579l-1.132-.619,5.37-12.748-11.328-4.772-4.867,11.554-2.634-1.11,5.977-14.188,16.6,6.992-5.482,13.014a76.872,76.872,0,0,1,9.546,6.433l9.993-9.993,12.735,12.735-9.993,9.993a76.885,76.885,0,0,1,6.879,10.346l13.08-5.326,6.792,16.681-13.075,5.324a76.436,76.436,0,0,1,2.2,11.3h14.126v18.01h-14.126a76.371,76.371,0,0,1-2.451,12.183l13.008,5.48-6.992,16.6-13.014-5.482a76.869,76.869,0,0,1-6.433,9.546l9.993,9.993L1747.5,665.636l-9.993-9.993a76.827,76.827,0,0,1-10.347,6.879l5.327,13.08-16.681,6.793-5.324-13.076a76.38,76.38,0,0,1-11.3,2.2Z" transform="translate(-1600.102 -509.073)"/></g><g transform="translate(1415.702 378.58)"><path class="d" d="M1765.51,730.391a59.921,59.921,0,0,1-19.915-116.433l.95,2.7a57.055,57.055,0,1,0,37.929,0l.95-2.7a59.921,59.921,0,0,1-19.915,116.433Z" transform="translate(-1705.596 -613.958)"/></g><g transform="translate(1572.814 358.741)"><g transform="translate(12.492 51.055)"><path class="c" d="M2304.951,730.915a6.089,6.089,0,0,1-6.083-6.083V723.15h12.166v1.683A6.09,6.09,0,0,1,2304.951,730.915Zm-3-4.907a3.224,3.224,0,0,0,6,0Z" transform="translate(-2298.869 -723.15)"/></g><g transform="translate(7.557 40.529)"><path class="c" d="M2298.374,699.715h-11.5a5.274,5.274,0,0,1-5.268-5.267V686.33h22.036v8.118A5.274,5.274,0,0,1,2298.374,699.715Zm-13.91-10.526v5.259a2.411,2.411,0,0,0,2.409,2.409h11.5a2.412,2.412,0,0,0,2.409-2.409v-5.259Z" transform="translate(-2281.605 -686.33)"/></g><g transform="translate(0)"><path class="c" d="M2284.765,587.949h-22.037v-2.021a19.908,19.908,0,0,0-3.969-11.817,18.415,18.415,0,0,1-3.582-11.412,18.637,18.637,0,0,1,17.568-18.111,18.576,18.576,0,0,1,15.82,29.75,19.326,19.326,0,0,0-3.8,11.624Zm-19.193-2.859h16.351a22.13,22.13,0,0,1,4.364-12.478,15.717,15.717,0,0,0-13.39-25.169,15.766,15.766,0,0,0-14.86,15.322,15.577,15.577,0,0,0,3.03,9.655A22.823,22.823,0,0,1,2265.572,585.09Z" transform="translate(-2255.172 -544.561)"/></g><g transform="translate(9.755 5.834)"><path class="c" d="M2310.855,577.709H2308a9.882,9.882,0,0,0-16.723-7.132l-1.979-2.063a12.741,12.741,0,0,1,21.561,9.195Z" transform="translate(-2289.294 -564.968)"/></g><g transform="translate(24.571 23.333)"><path class="c" d="M2342.859,631.549l-1.737-2.271a10.006,10.006,0,0,0,2.666-3.1l2.5,1.379A12.717,12.717,0,0,1,2342.859,631.549Z" transform="translate(-2341.122 -626.181)"/></g><g transform="translate(8.986 45.792)"><rect class="c" width="4.935" height="2.859"/></g><g transform="translate(23.228 45.792)"><rect class="c" width="4.935" height="2.859"/></g></g><g transform="translate(1370.043 494.044)"><g transform="translate(40.659 40.66)"><path class="c" d="M1690.966,1179.48h-2.859v-8.761l10.64-10.64,8.764,0v2.859l-7.58,0-8.966,8.966Z" transform="translate(-1688.107 -1160.076)"/></g><g transform="translate(0)"><path class="c" d="M1613.062,1085.03l-26.075-6.078-41.105-41.106v-9.353l10.64-10.64,9.356,0,.419.419,40.687,40.687Zm-24.631-8.677,20.8,4.849-4.85-20.8-39.69-39.691-6.988,0-8.966,8.966v6.984Z" transform="translate(-1545.882 -1017.849)"/></g><g transform="translate(51.182 51.185)"><path class="c" d="M1740.911,1212.888l-16-3.729.323-1.391a14.123,14.123,0,0,1,10.554-10.554l1.391-.323Zm-12.477-5.844,8.649,2.016-2.015-8.65a11.27,11.27,0,0,0-6.634,6.634Z" transform="translate(-1724.915 -1196.892)"/></g><g transform="translate(1.883 8.761)"><rect class="c" width="2.858" height="57.501" transform="translate(0 2.021) rotate(-45)"/></g><g transform="translate(8.76 1.884)"><rect class="c" width="2.858" height="57.501" transform="matrix(0.707, -0.707, 0.707, 0.707, 0, 2.021)"/></g></g><g transform="translate(1467.255 395.762)"><rect class="c" width="2.859" height="17.413" transform="translate(0)"/></g><g transform="translate(1467.479 356.044)"><rect class="c" width="2.859" height="9.96" transform="translate(0)"/></g><g transform="translate(1481.118 395.762)"><rect class="c" width="2.859" height="17.413" transform="translate(0)"/></g><g transform="translate(1480.893 356.044)"><rect class="c" width="2.859" height="9.96" transform="translate(0)"/></g><g transform="translate(1448.43 415.565)"><path class="d" d="M1847.265,812.294a50.919,50.919,0,0,1-27.185-7.831l1.524-2.419a48.224,48.224,0,0,0,70.816-57.712l2.677-1a51.064,51.064,0,0,1-47.832,68.964Z" transform="translate(-1820.08 -743.33)"/></g><g transform="translate(1424.556 433.468)"><path class="d" d="M1740.967,826.722a50.684,50.684,0,0,1-4.4-20.766h2.859a47.842,47.842,0,0,0,4.152,19.6Z" transform="translate(-1736.567 -805.956)"/></g><g transform="translate(1358.935 312.403)"><g transform="translate(0 0)"><path class="c" d="M1527.025,451.544l-20-20,49.075-49.074,20,20Zm-15.954-20,15.954,15.954,45.031-45.032L1556.1,386.516Z" transform="translate(-1507.028 -382.473)"/></g><g transform="translate(42.202 6.873)"><rect class="c" width="2.859" height="10.209" transform="translate(0 2.021) rotate(-44.999)"/></g><g transform="translate(35.502 13.572)"><rect class="c" width="2.859" height="10.209" transform="translate(0 2.021) rotate(-45.001)"/></g><g transform="translate(28.803 20.271)"><rect class="c" width="2.859" height="10.209" transform="matrix(0.707, -0.707, 0.707, 0.707, 0, 2.021)"/></g><g transform="translate(22.104 26.971)"><rect class="c" width="2.859" height="10.209" transform="translate(0 2.021) rotate(-45)"/></g><g transform="translate(15.405 33.67)"><rect class="c" width="2.859" height="10.209" transform="matrix(0.707, -0.707, 0.707, 0.707, 0, 2.021)"/></g><g transform="translate(8.705 40.369)"><rect class="c" width="2.859" height="10.209" transform="translate(0 2.021) rotate(-45)"/></g></g><g transform="translate(1511.872 478.326)"><g transform="translate(29.927 28.303)"><path class="c" d="M2166.68,1090.093l-20-20,8.226-8.226,20,20Zm-15.954-20,15.954,15.953,4.182-4.183-15.953-15.953Z" transform="translate(-2146.683 -1061.871)"/></g><g transform="translate(0 41.469)"><path class="c" d="M2058.028,1152.9a9.549,9.549,0,0,1-6.772-2.8l-6.451-6.452a9.577,9.577,0,0,1,0-13.545l22.181-22.181,20,20L2064.8,1150.1A9.549,9.549,0,0,1,2058.028,1152.9Zm8.958-40.935-20.16,20.16a6.719,6.719,0,0,0,0,9.5l6.451,6.452a6.728,6.728,0,0,0,9.5,0l20.16-20.16Z" transform="translate(-2041.999 -1107.925)"/></g><g transform="translate(24.04 35.581)"><path class="c" d="M2143.937,1114.162l-17.848-17.848,2.021-2.021a3.494,3.494,0,0,0,4.94-4.941l2.021-2.021,17.847,17.848-2.021,2.021a3.494,3.494,0,1,0-4.941,4.941Zm-12.073-16.116,10.342,10.341a6.353,6.353,0,0,1,4.943-4.937L2136.8,1093.1a6.353,6.353,0,0,1-4.937,4.944Z" transform="translate(-2126.089 -1087.331)"/></g><g transform="translate(42.774 0)"><path class="c" d="M2198.33,1006.546l-6.71-6.709,18.789-18.789a18.463,18.463,0,0,0,5.133-9.918l.115-.671,13.549-7.59,6.09,6.091-7.59,13.549-.672.115a18.332,18.332,0,0,0-9.917,5.132Zm-2.667-6.709,2.667,2.666,16.767-16.767a21.163,21.163,0,0,1,10.776-5.8l5.873-10.484-3.03-3.03-10.484,5.874a21.318,21.318,0,0,1-5.8,10.775Z" transform="translate(-2191.62 -962.869)"/></g><g transform="translate(6.03 51.467)"><rect class="c" width="38.088" height="2.858" transform="matrix(0.707, -0.707, 0.707, 0.707, 0, 26.932)"/></g></g><g transform="translate(1520.564 308.483)"><g transform="translate(12.644 12.644)"><path class="c" d="M2135.234,431.594h-18.6l18.6-18.6Zm-11.7-2.859h8.842v-8.842Z" transform="translate(-2116.631 -412.991)"/></g><g transform="translate(0 0)"><path class="c" d="M2107.433,407.514h-31.309a3.72,3.72,0,0,1-2.63-6.351l31.309-31.309a3.72,3.72,0,0,1,6.351,2.63v31.309A3.724,3.724,0,0,1,2107.433,407.514Zm-.018-35.9a.816.816,0,0,0-.591.257l-31.309,31.309a.862.862,0,0,0,.609,1.471h31.309a.862.862,0,0,0,.861-.861V372.485a.833.833,0,0,0-.532-.8A.928.928,0,0,0,2107.415,371.618Z" transform="translate(-2072.402 -368.763)"/></g></g><g transform="translate(1320.384 399.209)"><g transform="translate(8.602)"><path class="c" d="M1428.19,753.085l-.983-.157a52.424,52.424,0,0,0-16.49,0l-.984.157-.488-.868a54.688,54.688,0,0,1,8.7-65.06l1.02-1.037,1.02,1.037a54.69,54.69,0,0,1,8.7,65.06Zm-9.228-62.858a51.835,51.835,0,0,0-7.7,59.728,55.236,55.236,0,0,1,15.4,0,51.835,51.835,0,0,0-7.7-59.728Z" transform="translate(-1402.265 -686.119)"/></g><g transform="translate(27.81 28.172)"><path class="c" d="M1471.964,822.037l-2.508-1.371a51.994,51.994,0,0,0,5.237-35.42l2.8-.583a54.857,54.857,0,0,1-5.528,37.374Z" transform="translate(-1469.456 -784.663)"/></g><g transform="translate(26.846 11.382)"><path class="c" d="M1469.174,733.448a51.8,51.8,0,0,0-3.091-6.051l2.455-1.465a54.691,54.691,0,0,1,3.262,6.386Z" transform="translate(-1466.083 -725.932)"/></g><g transform="translate(19.305 21.755)"><path class="c" d="M1445.7,774.2a5.994,5.994,0,1,1,5.994-5.993A6,6,0,0,1,1445.7,774.2Zm0-9.128a3.135,3.135,0,1,0,3.135,3.135A3.139,3.139,0,0,0,1445.7,765.075Z" transform="translate(-1439.703 -762.216)"/></g><g transform="translate(19.305 39.197)"><path class="c" d="M1445.7,835.217a5.994,5.994,0,1,1,5.994-5.994A6,6,0,0,1,1445.7,835.217Zm0-9.128a3.135,3.135,0,1,0,3.135,3.135A3.138,3.138,0,0,0,1445.7,826.089Z" transform="translate(-1439.703 -823.23)"/></g><g transform="translate(0 46.398)"><path class="c" d="M1383.047,883.826l-10.871-24.692,9.562-10.717,2.133,1.9-8.338,9.344,7.568,17.189,4.6-10.033,2.6,1.192Z" transform="translate(-1372.176 -848.417)"/></g><g transform="translate(32.47 46.398)"><path class="c" d="M1493.009,883.826l-7.255-15.813,2.6-1.192,4.6,10.032,7.568-17.189-8.338-9.344,2.133-1.9,9.562,10.717Z" transform="translate(-1485.754 -848.417)"/></g></g><g transform="translate(1578.858 431.61)"><path class="c" d="M2300.143,834.241l-6.56-6.56a14.273,14.273,0,1,1,6.56-3.356Zm-5.7-9.74,2.839,2.839v-4.347l.523-.429a11.413,11.413,0,1,0-4.165,2.16Z" transform="translate(-2276.312 -799.456)"/></g><g transform="translate(1547.412 358.582)"><g transform="translate(0 5.992)"><rect class="b" width="14.844" height="2.859"/></g><g transform="translate(5.993 0)"><rect class="b" width="2.859" height="14.844"/></g></g><g transform="translate(1333.696 368.142)"><g transform="translate(0 5.992)"><rect class="b" width="14.844" height="2.859"/></g><g transform="translate(5.993)"><rect class="b" width="2.859" height="14.844"/></g></g><g transform="translate(1477.294 559.659)"><g transform="translate(0 5.993)"><rect class="b" width="14.844" height="2.859"/></g><g transform="translate(5.992 0)"><rect class="b" width="2.859" height="14.844"/></g></g><g transform="translate(1617.638 464.607)"><g transform="translate(0 5.992)"><rect class="b" width="14.844" height="2.859"/></g><g transform="translate(5.993)"><rect class="b" width="2.859" height="14.844"/></g></g><g transform="translate(1517.824 293.59)"><g transform="translate(0 5.992)"><rect class="b" width="14.844" height="2.859"/></g><g transform="translate(5.992)"><rect class="b" width="2.859" height="14.844"/></g></g><g transform="translate(1363.836 390.08)"><path class="b" d="M1531.806,669.458a7.636,7.636,0,1,1,7.636-7.636A7.645,7.645,0,0,1,1531.806,669.458Zm0-12.414a4.777,4.777,0,1,0,4.778,4.778A4.783,4.783,0,0,0,1531.806,657.045Z" transform="translate(-1524.17 -654.186)"/></g><g transform="translate(1455.269 536.633)"><path class="b" d="M1851.637,1182.1a7.636,7.636,0,1,1,7.636-7.636A7.645,7.645,0,0,1,1851.637,1182.1Zm0-12.414a4.778,4.778,0,1,0,4.777,4.777A4.783,4.783,0,0,0,1851.637,1169.685Z" transform="translate(-1844.001 -1166.826)"/></g><g transform="translate(1611.217 414.757)"><path class="b" d="M2397.139,755.777a7.636,7.636,0,1,1,7.636-7.636A7.645,7.645,0,0,1,2397.139,755.777Zm0-12.414a4.778,4.778,0,1,0,4.778,4.777A4.783,4.783,0,0,0,2397.139,743.364Z" transform="translate(-2389.503 -740.505)"/></g><g transform="translate(1574.164 336.004)"><path class="b" d="M2267.53,480.3a7.636,7.636,0,1,1,7.636-7.636A7.645,7.645,0,0,1,2267.53,480.3Zm0-12.414a4.777,4.777,0,1,0,4.778,4.777A4.783,4.783,0,0,0,2267.53,467.888Z" transform="translate(-2259.894 -465.029)"/></g><g transform="translate(1421.487 292.893)"><path class="b" d="M1733.469,329.5a7.636,7.636,0,1,1,7.636-7.636A7.645,7.645,0,0,1,1733.469,329.5Zm0-12.414a4.778,4.778,0,1,0,4.777,4.777A4.783,4.783,0,0,0,1733.469,317.088Z" transform="translate(-1725.833 -314.229)"/></g></g></g></svg>