<svg xmlns="http://www.w3.org/2000/svg" width="56.714" height="66" viewBox="0 0 56.714 66"><g transform="translate(-756.5 -712.26)"><g transform="translate(757 712.76)"><g transform="translate(0 0)"><g transform="translate(0 0)"><g transform="translate(18.571 47.976)"><path d="M218.439,373.022a.769.769,0,0,1-.449-.144L196.324,357.4a.774.774,0,1,1,.9-1.259l21.667,15.476a.774.774,0,0,1-.45,1.4Z" transform="translate(-195.999 -355.997)" fill="#b6202e" stroke="#b6202e" stroke-width="1"/></g><g transform="translate(12.381)"><path d="M184.631,111H156.774a.774.774,0,0,1-.774-.774V80.18a.774.774,0,0,1,.984-.745,16.254,16.254,0,0,0,11.47-30.289.774.774,0,0,1,.026-1.407A20.936,20.936,0,0,1,176.893,46h1.548a20.8,20.8,0,0,1,20.893,20.893V79.274a.774.774,0,0,1-.774.774H194.69V93.2a.774.774,0,0,1-.774.774H185.4v16.25A.774.774,0,0,1,184.631,111Zm-27.083-1.548h26.31V93.2a.774.774,0,0,1,.774-.774h8.512V79.274a.774.774,0,0,1,.774-.774h3.869V66.893A19.367,19.367,0,0,0,178.44,47.548h-1.548a19.475,19.475,0,0,0-6.262,1.02,17.8,17.8,0,0,1-13.083,32.606Z" transform="translate(-156 -46)" fill="#b6202e" stroke="#b6202e" stroke-width="1"/></g><path d="M93.8,81.6a17.8,17.8,0,0,1,0-35.6,17.634,17.634,0,0,1,7.709,1.752A17.8,17.8,0,0,1,93.8,81.6Zm0-34.048a16.238,16.238,0,1,0,7.038,1.6A16.1,16.1,0,0,0,93.8,47.548Z" transform="translate(-76 -46)" fill="#b6202e" stroke="#b6202e" stroke-width="1"/><g transform="translate(21.667 17.024)"><path d="M216.774,169.029a.774.774,0,0,1-.29-1.491,11.564,11.564,0,0,0,7.254-10.764.774.774,0,0,1,1.548,0,13.1,13.1,0,0,1-8.222,12.2A.771.771,0,0,1,216.774,169.029Z" transform="translate(-215.999 -156)" fill="#b6202e" stroke="#b6202e" stroke-width="1"/></g><g transform="translate(4.643 17.024)"><path d="M115.778,169.463a.778.778,0,0,1-.211-.029A13.2,13.2,0,0,1,106,156.774a.774.774,0,0,1,1.548,0,11.649,11.649,0,0,0,8.441,11.17.774.774,0,0,1-.21,1.519Z" transform="translate(-106 -156)" fill="#b6202e" stroke="#b6202e" stroke-width="1"/></g><g transform="translate(18.571 40.238)"><path d="M210.7,316.832a.77.77,0,0,1-.429-.13l-13.929-9.286a.774.774,0,0,1,.858-1.288l13.929,9.286a.774.774,0,0,1-.43,1.418Z" transform="translate(-195.999 -305.999)" fill="#b6202e" stroke="#b6202e" stroke-width="1"/></g><g transform="translate(7.738 12.381)"><path d="M136.483,136.391a5.216,5.216,0,0,1-1.593-.251.774.774,0,1,1,.472-1.474,3.655,3.655,0,0,0,2.333-6.926l-10.934-.194a.774.774,0,1,1,.028-1.547l11.054.2a.771.771,0,0,1,.222.037,5.2,5.2,0,0,1-1.582,10.159Z" transform="translate(-126.001 -125.999)" fill="#b6202e" stroke="#b6202e" stroke-width="1"/></g><g transform="translate(17.024 10.833)"><path d="M186.773,123.737a.774.774,0,0,1-.385-1.446l10.833-6.19a.774.774,0,0,1,.768,1.344l-10.833,6.19A.768.768,0,0,1,186.773,123.737Z" transform="translate(-185.998 -115.998)" fill="#b6202e" stroke="#b6202e" stroke-width="1"/></g></g></g></g></g></svg>