<svg xmlns="http://www.w3.org/2000/svg" width="82.727" height="65" viewBox="0 0 82.727 65">
    <g>
        <g>
            <path d="M24.166 3.175v8.951H.529v35.8h82.727v-35.8H59.62V3.175zm2.954 2.984h29.546v38.788h-2.955V24.061H30.075v20.886H27.12zM3.484 15.11h20.682v29.837H3.484zm56.136 0H80.3v29.837H59.62zM33.029 27.045h7.386v17.9h-7.386zm10.341 0h7.386v17.9H43.37z" transform="translate(-.529 -1.323) translate(.529 1.323) translate(-.529 17.069)"/>
            <path d="M3.95 294.619v5.781H1.058v-5.784z" transform="translate(-.529 -1.323) translate(.529 1.323) translate(4.726 -241.186)"/>
            <path d="M3.95 293.825v5.784H1.058v-5.784z" transform="translate(-.529 -1.323) translate(.529 1.323) translate(4.726 -249.412)"/>
            <path d="M3.95 293.031v5.784H1.058v-5.784z" transform="translate(-.529 -1.323) translate(.529 1.323) translate(4.726 -257.501)"/>
            <path d="M1.587 294.619v5.781h2.892v-5.784z" transform="translate(-.529 -1.323) translate(.529 1.323) translate(9.981 -241.186)"/>
            <path d="M1.587 293.825v5.784h2.892v-5.784z" transform="translate(-.529 -1.323) translate(.529 1.323) translate(9.981 -249.412)"/>
            <path d="M1.587 293.031v5.784h2.892v-5.784z" transform="translate(-.529 -1.323) translate(.529 1.323) translate(9.981 -257.501)"/>
            <path d="M2.117 294.619v5.781h2.892v-5.784z" transform="translate(-.529 -1.323) translate(.529 1.323) translate(15.625 -241.186)"/>
            <path d="M2.117 293.825v5.784h2.892v-5.784z" transform="translate(-.529 -1.323) translate(.529 1.323) translate(15.625 -249.412)"/>
            <path d="M2.117 293.031v5.784h2.892v-5.784z" transform="translate(-.529 -1.323) translate(.529 1.323) translate(15.625 -257.501)"/>
            <path d="M7.144 294.619v5.781h2.892v-5.784z" transform="translate(-.529 -1.323) translate(.529 1.323) translate(66.909 -241.186)"/>
            <path d="M7.144 293.825v5.784h2.892v-5.784z" transform="translate(-.529 -1.323) translate(.529 1.323) translate(66.909 -249.412)"/>
            <path d="M7.144 293.031v5.784h2.892v-5.784z" transform="translate(-.529 -1.323) translate(.529 1.323) translate(66.909 -257.501)"/>
            <path d="M9.507 294.619v5.781H6.615v-5.784z" transform="translate(-.529 -1.323) translate(.529 1.323) translate(61.654 -241.186)"/>
            <path d="M9.507 293.825v5.784H6.615v-5.784z" transform="translate(-.529 -1.323) translate(.529 1.323) translate(61.654 -249.412)"/>
            <path d="M9.507 293.031v5.784H6.615v-5.784z" transform="translate(-.529 -1.323) translate(.529 1.323) translate(61.654 -257.501)"/>
            <path d="M8.977 294.619v5.781H6.085v-5.784z" transform="translate(-.529 -1.323) translate(.529 1.323) translate(56.01 -241.186)"/>
            <path d="M8.977 293.825v5.784H6.085v-5.784z" transform="translate(-.529 -1.323) translate(.529 1.323) translate(56.01 -249.412)"/>
            <path d="M8.977 293.031v5.784H6.085v-5.784z" transform="translate(-.529 -1.323) translate(.529 1.323) translate(56.01 -257.501)"/>
            <path d="M2.91 297.558H5.8v-6.3l-2.892-.868z" transform="translate(-.529 -1.323) translate(.529 1.323) translate(23.702 -284.544)"/>
            <path d="M17.37 1.323L2.91 5.661 17.37 10l14.46-4.339zm0 3.022l4.394 1.316-4.394 1.316-4.394-1.316z" transform="translate(-.529 -1.323) translate(.529 1.323) translate(23.993 -1.323)"/>
            <path d="M6.332 291.418v6.009H17.9v-6.009l2.892-.868v9.769H3.44v-9.769z" transform="translate(-.529 -1.323) translate(.529 1.323) translate(29.249 -282.967)"/>
        </g>
    </g>
</svg>
