<svg xmlns="http://www.w3.org/2000/svg" width="65.345" height="65" viewBox="0 0 65.345 65">
    <g>
        <path d="M2.011 52.459a14.561 14.561 0 0 0 .138 1.73c.012.088.026.173.04.261a14.208 14.208 0 0 0 .355 1.65c.006.02.009.04.015.062a14.178 14.178 0 0 0 1.418 3.291c.038.065.078.129.119.195a14.377 14.377 0 0 0 .894 1.3c.043.056.083.114.127.17A14.182 14.182 0 0 0 6.275 62.4c.063.062.132.117.2.178.344.325.7.631 1.078.922.128.1.259.2.39.292.323.233.655.449 1 .654.017.011.03.026.047.037l.147.085c.062.04.123.08.188.116l.011.007h.008l.039.019a14.247 14.247 0 0 0 1.647.768l.157.058a14.015 14.015 0 0 0 1.4.451c.112.03.224.059.337.087q.639.153 1.3.247c.125.018.248.043.374.057a13.179 13.179 0 0 0 3.33 0c.042 0 .084-.014.127-.019a14.3 14.3 0 0 0 1.606-.3l.045-.008c.008 0 .014-.007.021-.008a14.281 14.281 0 0 0 9.891-8.932c0-.011.012-.019.015-.03l.026-.083c.116-.328.222-.66.315-1 .026-.095.05-.19.074-.285.075-.3.145-.6.2-.9.034-.185.058-.371.085-.558.032-.229.07-.455.091-.687.042-.44.066-.879.066-1.32 0-.464-.025-.926-.07-1.386-.025-.254-.07-.5-.108-.751-.03-.195-.051-.39-.089-.584-.065-.337-.152-.666-.241-.995-.027-.1-.047-.2-.077-.3-.106-.358-.23-.707-.363-1.053-.024-.061-.039-.123-.063-.184a.179.179 0 0 0-.012-.02 14.308 14.308 0 0 0-7.79-7.889c-.008 0-.014-.009-.021-.012-.056-.023-.115-.037-.171-.058q-.639-.255-1.307-.446c-.1-.027-.2-.05-.293-.076q-.653-.173-1.329-.284l-.207-.032a14.137 14.137 0 0 0-1.513-.142h-.047c-.182-.006-.358-.026-.54-.026a14.14 14.14 0 0 0-5.891 1.291l-.021.009a14.046 14.046 0 0 0-1.368.723c-.032.019-.066.033-.1.052-.011.006-.017.018-.027.024A14.239 14.239 0 0 0 2 52.242c0 .059.008.116.009.176v.006l.002.035zm9.126-10.915c.269-.129.541-.249.819-.357l.114-.042a11.95 11.95 0 0 1 3.646-.745c.107 0 .214-.014.32-.017.209 0 .418 0 .627.011.177.006.354.013.528.027s.364.034.546.057.389.055.582.089c.169.03.337.059.5.1.053.012.1.028.158.04l-3.229 3.229h-3.52l-1.175-2.35zm14.415 12.522l2.388-3.754c.021.129.043.259.059.389.02.15.043.3.056.447.033.361.056.724.056 1.093a11.454 11.454 0 0 1-.119 1.584c-.012.087-.026.173-.04.26a11.971 11.971 0 0 1-.351 1.557l-3.8.76 1.7-2.262s0-.009.006-.013zM18.426 63.9a11.988 11.988 0 0 1-1.444.177c-.131.008-.262.017-.394.02-.368.012-.732 0-1.094-.02-.132-.008-.266-.007-.4-.02a11.544 11.544 0 0 1-1.4-.223c-.078-.017-.153-.04-.23-.059a12.122 12.122 0 0 1-1.271-.385l-.081-.03 3.467-2.889 3.831-.771zm1.886-6.8l-4.326.865-.605-3.028-.2-1.009 3.508-2.628 4.122 2.472zm-6.443-5.156l-3.242-2.432 1.6-3.206h3.28l1.6 3.206zm-4.912-.714l3.836 2.877.96 4.8L9.8 62.2l-.075-.045a11.808 11.808 0 0 1-1.986-1.645c-.057-.058-.109-.121-.164-.18-.243-.261-.476-.531-.694-.812-.051-.065-.1-.133-.15-.2-.221-.3-.43-.6-.621-.92-.03-.047-.058-.095-.087-.144a11.863 11.863 0 0 1-1.6-5.038v-.038zm12.1 11.851l.914-3.89 4.46-.891a11.929 11.929 0 0 1-5.375 4.78zm5.973-15.759l-2.858 4.5-4.649-2.789-1.837-3.673 3.762-3.762a11.926 11.926 0 0 1 5.581 5.723zm-18-4.482l1.141 2.281-1.918 3.828-3.746 1.6a11.859 11.859 0 0 1 4.52-7.709z" transform="translate(-1.682 -2) translate(.059 .516)"/>
        <path d="M4.1 27.327l26.677 18.237c-.078.2-.138.4-.2.6 0 .015-.01.029-.014.043a7.985 7.985 0 0 0-.25 1.058c-.009.049-.021.1-.028.146a8.031 8.031 0 0 0-.091 1.154v.02a8.805 8.805 0 0 0 2.153 5.6c-.046.047-.087.1-.131.144-.021.023-.044.041-.065.064-.005.007-.008.015-.013.021a7.506 7.506 0 0 0-.038 10.033c.005.007.007.015.013.022.025.028.053.051.078.079q.2.219.419.423c.047.043.094.087.142.129.15.133.306.259.466.379l.135.1c.171.123.349.238.53.347.038.023.076.048.115.069.2.113.4.216.6.311.027.012.053.027.08.039.22.1.445.185.676.262l.049.018a7.252 7.252 0 0 0 .719.195l.04.011c.234.05.472.088.713.115.024 0 .048.009.072.011a7.682 7.682 0 0 0 .794.042 7.491 7.491 0 0 0 3.719-.988l.012-.007q.322-.184.624-.4l.08-.06q.265-.193.512-.407c.039-.034.076-.069.114-.1.152-.138.3-.279.437-.428.017-.018.038-.035.055-.054s.008-.015.013-.022a7.514 7.514 0 0 0 1.937-4.263 26.328 26.328 0 0 0 7.173-.029l4.9 3.056a4.334 4.334 0 1 0 4.288-4.963h-.739l-.692-.491a17.021 17.021 0 0 0 2.845-1.863 1.054 1.054 0 0 0 .147-.085 11.3 11.3 0 0 0 3.02-3.761l.015-.034a8.7 8.7 0 0 0 .405-1.016l.064-.2a8.242 8.242 0 0 0 .215-.9c.016-.087.036-.171.049-.258a8.136 8.136 0 0 0 .088-1.139 8 8 0 0 0-.089-1.14c-.013-.087-.034-.172-.049-.258a8 8 0 0 0-.214-.9l-.064-.2a8.517 8.517 0 0 0-.405-1.016l-.015-.034a11.3 11.3 0 0 0-3.02-3.761 1.062 1.062 0 0 0-.141-.079 19.969 19.969 0 0 0-7.6-3.669c.073-.028.143-.061.215-.09l.246-.1a18.4 18.4 0 0 0 6.927-5.2l.008-.009c.372-.452.73-.917 1.062-1.407a.717.717 0 0 0 .031-.065 18.313 18.313 0 0 0 3.113-10.232c0-.452-.028-.927-.073-1.426-.026-.334-.062-.663-.105-.991v-.038a.057.057 0 0 1 0-.013A18.439 18.439 0 0 0 54.747 3.075c-.011 0-.02-.012-.03-.016-.027-.01-.055-.015-.082-.025-.41-.142-.824-.268-1.246-.381-.131-.036-.262-.068-.393-.1-.367-.09-.737-.173-1.111-.242-.247-.046-.494-.078-.741-.114-.282-.039-.561-.083-.846-.109C49.735 2.033 49.173 2 48.61 2s-1.1.034-1.651.083c-.183.016-.365.039-.547.061-.365.044-.727.1-1.087.167-.2.037-.4.068-.6.111-.46.1-.916.217-1.365.352-.275.082-.543.18-.812.274-.208.074-.415.147-.62.227-.29.114-.579.232-.861.361-.156.07-.309.148-.463.223a17.687 17.687 0 0 0-1.636.9c-.113.069-.229.134-.34.207-.271.175-.532.361-.793.55q-.231.167-.456.341c-.246.19-.49.381-.726.583-.153.131-.3.271-.447.407q-.572.523-1.1 1.091c-.155.168-.312.334-.461.507-.188.219-.368.444-.546.673-.138.177-.271.355-.4.537-.173.24-.347.48-.509.728-.1.149-.186.307-.279.459q-.476.777-.873 1.6c-.053.111-.114.217-.166.329 0 .008 0 .017-.005.025a18.265 18.265 0 0 0-1.673 7.622c0 .421.036.834.063 1.249v.033c.04.574.107 1.139.2 1.7l.014.093q.14.822.35 1.617l.03.116q.213.787.493 1.542l.044.121q.283.751.628 1.469l.056.118q.351.717.759 1.4l.063.1c.18.294.355.589.55.872.009.014.013.03.023.044.268.386.553.755.845 1.117l.226.271c.324.385.659.758 1.011 1.113l.054.056c.37.369.758.716 1.157 1.052.092.077.183.154.276.23.393.319.8.623 1.212.907.086.059.175.112.262.169q.531.349 1.087.661c.124.069.245.142.37.209q.626.333 1.278.616c.155.068.312.131.469.195l.09.037a22.22 22.22 0 0 0-4.932 1.888L10.739 18.4A5.568 5.568 0 1 0 4.1 27.327zm36.72 36.528c-.1.072-.211.129-.317.192-.154.093-.311.18-.473.258a5.332 5.332 0 0 1-.524.208c-.078.027-.158.05-.237.074a5.618 5.618 0 0 1-3.168-.037c-.035-.011-.07-.021-.1-.033a5.328 5.328 0 0 1-.615-.255c-.115-.056-.226-.118-.337-.183a5.021 5.021 0 0 1-.428-.266c-.027-.019-.05-.043-.077-.064a5.489 5.489 0 0 1 6.345.054c-.029.016-.047.037-.069.052zm-3.145-3.288A7.547 7.547 0 0 0 33.1 62.13a5.216 5.216 0 0 1 .021-5.4 7.471 7.471 0 0 0 9.235 0c.026.044.055.088.08.134.063.114.131.223.186.342a5.451 5.451 0 0 1 .222.606c.039.12.082.239.113.363a5.3 5.3 0 0 1 .105.66 4.654 4.654 0 0 1-.722 3.362 7.537 7.537 0 0 0-4.665-1.63zm-3.064-5.476a5.514 5.514 0 0 1 .69-.411l.091-.05a5.306 5.306 0 0 1 .522-.21c.084-.031.17-.06.257-.087a5.636 5.636 0 0 1 3.209.015l.064.02a5.275 5.275 0 0 1 .614.248c.068.032.134.068.2.1.052.028.105.055.156.084.126.07.249.144.368.225.042.029.081.065.122.1a5.5 5.5 0 0 1-6.335 0c.016-.011.031-.025.042-.034zm1.034-2.891l-.025.009c-.195.057-.385.125-.572.2-.052.02-.105.036-.156.057-.068.028-.135.059-.2.088-.208.093-.413.193-.611.3a6.707 6.707 0 0 1-1.715-4.285 5.8 5.8 0 0 1 .077-.91c.013-.079.03-.155.047-.232a6.169 6.169 0 0 1 .161-.634c.033-.1.065-.209.1-.31.061-.165.135-.326.209-.488.04-.084.075-.173.117-.256.011-.017.029-.028.039-.047a7.794 7.794 0 0 1 .659-1.027.419.419 0 0 0 .027-.06c.1-.136.211-.265.321-.392s.229-.248.354-.377l.009-.009c.073-.076.153-.142.228-.217a7.545 7.545 0 0 1 1.983 4.948 7.057 7.057 0 0 1-1.052 3.642zm9.519 5.9c-.038-.21-.087-.415-.142-.619l-.013-.05q-.08-.284-.181-.559l-.036-.1c-.066-.174-.139-.345-.217-.512l-.053-.111c-.08-.164-.164-.324-.255-.481l-.062-.1c-.1-.158-.193-.313-.3-.463-.015-.021-.031-.04-.046-.062a7.57 7.57 0 0 0-.512-.634c-.005-.007-.008-.015-.013-.021-.021-.023-.044-.042-.065-.064-.139-.15-.282-.291-.432-.429l-.123-.112c-.158-.14-.323-.271-.493-.4-.03-.023-.061-.048-.091-.069l-.075-.054c-.121-.086-.248-.164-.375-.242-.069-.043-.139-.087-.21-.128-.118-.067-.239-.13-.362-.192-.087-.043-.172-.086-.261-.126l-.05-.024c-.1-.043-.2-.083-.3-.123s-.2-.077-.308-.113-.225-.077-.34-.109-.24-.064-.362-.093c-.1-.025-.208-.051-.314-.071-.146-.028-.295-.048-.444-.068-.064-.009-.127-.023-.191-.029h-.007l-.063-.005c-.1-.01-.2-.012-.3-.017a8.882 8.882 0 0 0 .689-3.357 9.635 9.635 0 0 0-2.487-6.329c.081-.055.153-.108.238-.166.224-.149.449-.3.688-.438a1.12 1.12 0 0 0 .156-.119 22.911 22.911 0 0 1 11.158-2.678 21.949 21.949 0 0 1 12.272 3.379 9.308 9.308 0 0 0 0 12.742 16.449 16.449 0 0 1-3.082 1.662 1.191 1.191 0 0 0-.159.042 22.515 22.515 0 0 1-5.149 1.379l-.018.005a26.434 26.434 0 0 1-3.863.29 25.96 25.96 0 0 1-3.447-.232zm1.7-21.535c-.177-.02-.349-.05-.523-.075-.4-.057-.8-.127-1.193-.212-.174-.038-.347-.08-.519-.125l-.107-.028c-.356-.093-.708-.2-1.057-.319-.133-.044-.266-.087-.4-.135-.087-.031-.174-.062-.26-.1-.389-.15-.769-.316-1.144-.5l-.047-.021c-.109-.052-.219-.1-.327-.157-.182-.093-.356-.2-.534-.3-.251-.14-.5-.278-.746-.431-.273-.172-.537-.357-.8-.545-.173-.124-.343-.249-.512-.38-.276-.215-.549-.433-.811-.665-.118-.1-.231-.217-.346-.325-.264-.248-.529-.5-.776-.76l-.014-.015q-.483-.518-.92-1.077l-.017-.019c-.069-.089-.129-.186-.2-.277a11.678 11.678 0 0 1 .6-1.136c.767-1.287 1.723-2.887 3.454-3.543 2.315-.88 4.755.5 7.576 2.1 1.152.652 2.343 1.326 3.6 1.883a23.351 23.351 0 0 0 9.8 1.9c-.117.129-.231.261-.352.387s-.273.276-.412.412c-.248.239-.5.471-.765.694-.148.126-.3.247-.454.367-.264.209-.533.414-.81.607-.175.121-.355.233-.535.347-.268.171-.536.34-.815.5-.217.12-.44.228-.662.338-.255.127-.508.258-.77.372s-.554.218-.833.321c-.226.084-.45.175-.681.25-.336.107-.679.191-1.023.275-.19.048-.375.106-.567.146-.4.085-.809.141-1.219.2-.145.02-.287.051-.434.066a16.587 16.587 0 0 1-1.7.089 16.151 16.151 0 0 1-1.748-.11zm17.583 9.858c.058.149.105.306.153.461s.088.316.121.477c.024.112.05.222.067.337a5.29 5.29 0 0 1 0 1.772c-.017.115-.043.225-.067.337-.034.16-.075.318-.121.477s-.094.312-.153.461c-.014.037-.032.071-.047.108a8.4 8.4 0 0 1-1.869 2.7 7.17 7.17 0 0 1 0-9.94 8.374 8.374 0 0 1 1.869 2.7c.011.038.03.073.044.109zM57.9 58.884l2 1.417a1.081 1.081 0 0 0 .626.2h1.084a2.167 2.167 0 1 1-2.167 2.167 1.085 1.085 0 0 0-.51-.92l-3.4-2.119c.046-.012.087-.029.131-.041.648-.174 1.274-.374 1.882-.593.115-.041.24-.069.354-.111zm4.446-29.823a22.211 22.211 0 0 1-10.631-1.635c-1.161-.515-2.3-1.161-3.411-1.787-3.018-1.707-6.139-3.476-9.411-2.235-2.437.923-3.706 3.05-4.547 4.458-.028.047-.051.1-.079.145a16.1 16.1 0 0 1-1.786-5.761 47.192 47.192 0 0 1 32.3-3.279l.012.156c.036.429.067.858.067 1.295a16.128 16.128 0 0 1-2.515 8.643zM64.4 16.655A49.174 49.174 0 0 0 32.387 19.9a16.124 16.124 0 0 1 1.113-5.407 13.816 13.816 0 0 0 2.963.338 11.243 11.243 0 0 0 3.119-.429 13.631 13.631 0 0 0 5.073-3.014c.892-.723 1.9-1.542 3.244-2.47a41.108 41.108 0 0 1 6.512-3.665A16.294 16.294 0 0 1 64.4 16.655zm-29.388-5.109c.142-.218.295-.427.447-.636.109-.151.22-.3.334-.446.156-.2.313-.4.478-.593.131-.153.269-.3.405-.446q.427-.465.888-.893c.128-.119.256-.237.388-.353.2-.175.405-.348.615-.513.116-.091.236-.177.354-.265q.587-.437 1.209-.821c.124-.076.245-.153.371-.225.241-.14.485-.273.732-.4.139-.07.28-.135.42-.2q.595-.283 1.211-.518c.194-.074.387-.148.584-.215.219-.074.441-.143.664-.207.286-.082.574-.156.867-.223.2-.045.4-.091.6-.129q.572-.109 1.156-.177c.142-.016.285-.031.428-.043.479-.042.96-.074 1.448-.074s.98.03 1.463.074c.239.023.478.056.716.09.139.018.276.041.414.063a43.07 43.07 0 0 0-4.544 2.741c-1.407.974-2.453 1.821-3.375 2.567a11.656 11.656 0 0 1-4.308 2.615 9.755 9.755 0 0 1-4.532.159q.26-.462.547-.9l.02-.032zm-30.53 9.212a3.366 3.366 0 0 1 2.3-1.392 3.322 3.322 0 0 1 .473-.032 3.367 3.367 0 0 1 2.121.751l25.532 20.521c-.222.158-.436.321-.642.488l-.023.017-.117.1c-.023.016-.051.023-.073.041a13.144 13.144 0 0 0-1.429 1.4c-.021.023-.044.045-.065.069a2.061 2.061 0 0 0-.559.7c-.058.078-.121.155-.177.234L5.327 25.54a3.4 3.4 0 0 1-.845-4.782z" transform="translate(-1.682 -2)"/>
        <path d="M49.915 43.98v2.141h2.374V44.41c.635.136 1.313.292 2.082.488l.584-2.3c-.991-.252-1.868-.452-2.667-.614V39h-2.375v2.587c-.847-.108-1.618-.164-2.374-.191V39h-2.373v2.4c-.874.028-1.657.088-2.374.171V39h-2.373v2.956c-.8.167-1.545.355-2.3.548l-.363.093.584 2.3.36-.097c.582-.148 1.143-.291 1.716-.421v1.738h2.374v-2.158c.713-.091 1.488-.159 2.374-.19v2.352h2.376v-2.35a23.374 23.374 0 0 1 2.375.209z" transform="translate(-1.682 -2) translate(1.825 2.658)"/>
    </g>
</svg>
