<svg xmlns="http://www.w3.org/2000/svg" width="70.856" height="65" viewBox="0 0 70.856 65">
    <g>
        <g>
            <g>
                <path d="M7.075 11.929l4.871 1.439.111 2.989c-.886 3.654 1.55 8.3 5.2 8.3 3.211 0 6.2-3.986 5.2-8.3l.111-3.1 4.761-1.439a1.063 1.063 0 0 0 .775-1 .968.968 0 0 0-.664-1l-9.847-4.31a1.213 1.213 0 0 0-.886 0L6.964 9.937a1.064 1.064 0 0 0-.664 1 .97.97 0 0 0 .775.992zm10.186.554a10.237 10.237 0 0 1 3.211.443L20.36 14.7a14.632 14.632 0 0 0-6.2 0l-.111-1.771a10.237 10.237 0 0 1 3.212-.446zm0 10.186c-1.661 0-3.764-2.546-3.1-5.757a11.781 11.781 0 0 1 6.2 0c.774 2.878-1.218 5.756-3.1 5.756zM17.15 7.833l6.75 2.989-1.993.554c-1.107-.886-3.321-1.107-4.761-1.107-1.329 0-3.654.221-4.761 1.107l-2.1-.664z" transform="translate(-1 -1.8) translate(1 1.8) translate(5.868 4.013) translate(-6.3 -5.425)"/>
            </g>
            <g>
                <path d="M70.749 1.8H2.107A1.079 1.079 0 0 0 1 2.84v39.1a1.076 1.076 0 0 0 1.107 1.04h5.868v8.424a1.076 1.076 0 0 0 1.107 1.04h2.879l-.554 13.316a1.076 1.076 0 0 0 1.107 1.04h4.539a1.177 1.177 0 0 0 1.107-.832l1.661-13.728L21.7 65.864a1.065 1.065 0 0 0 1.107.832h4.543a1.156 1.156 0 0 0 1.107-1.04l-.665-22.776h42.957a1.079 1.079 0 0 0 1.107-1.04V2.736a1 1 0 0 0-1.107-.936zM23.7 64.72l-2.661-19.656c-.111-1.144-2.214-1.144-2.436 0L15.946 64.72H13.4l.554-13.312.553-13.308a1.133 1.133 0 0 0-1-1.04 1.069 1.069 0 0 0-1.107.936l-.443 12.376h-1.879V31.024a4.757 4.757 0 0 1 3.986-4.472L15.5 30.5a1.054 1.054 0 0 0 1 .728h2.214a1.054 1.054 0 0 0 1-.728l1.439-3.952h7.857a.875.875 0 0 0 .554-.208L41.3 19.376l.664.832.664.832-10.407 7.384h-1.772a4.949 4.949 0 0 0-5.093 4.888l.886 31.2H23.7zM69.752 40.9h-42.07l-.221-7.488a2.794 2.794 0 0 1 2.879-2.808h2.214a1.644 1.644 0 0 0 .664-.208l11.514-8.216a.947.947 0 0 0 .221-1.352L44.4 20l10.628-6.656a.976.976 0 0 0 .332-1.352 1.121 1.121 0 0 0-1.439-.312l-10.85 6.656-.664-.832a1.26 1.26 0 0 0-1.439-.312l-12.289 7.28h-8.3a1.054 1.054 0 0 0-1 .728l-1.439 3.952h-.554l-1.44-3.952a1.054 1.054 0 0 0-1-.728 6.7 6.7 0 0 0-6.86 6.448v9.88H3.1V3.776h66.542V40.9z" transform="translate(-1 -1.8) translate(1 1.8) translate(-1 -1.8)"/>
            </g>
            <g>
                <path d="M51.8 34.921h-3.211V18.757a1.107 1.107 0 1 0-2.214 0v16.164h-3.211v-7.528a1.107 1.107 0 1 0-2.214 0v7.528h-3.211v-4.207a1.107 1.107 0 1 0-2.214 0v4.1h-1.218a1.107 1.107 0 0 0 0 2.214h26.46a1.107 1.107 0 0 0 0-2.214h-1.66v-20.7a1.107 1.107 0 1 0-2.214 0v20.807h-2.879v-10.3a1.107 1.107 0 0 0-2.214 0z" transform="translate(-1 -1.8) translate(1 1.8) translate(35.649 11.248) translate(-33.2 -13)"/>
            </g>
        </g>
    </g>
</svg>
