<svg xmlns="http://www.w3.org/2000/svg" width="70.856" height="65" viewBox="0 0 70.856 65"><g transform="translate(-1 -1.8)"><g transform="translate(1 1.8)"><g transform="translate(5.868 4.013)"><path d="M7.075,11.929l4.871,1.439.111,2.989c-.886,3.654,1.55,8.3,5.2,8.3,3.211,0,6.2-3.986,5.2-8.3l.111-3.1,4.761-1.439a1.063,1.063,0,0,0,.775-1,.968.968,0,0,0-.664-1L17.593,5.508a1.213,1.213,0,0,0-.886,0L6.964,9.937a1.064,1.064,0,0,0-.664,1A.97.97,0,0,0,7.075,11.929Zm10.186.554a10.237,10.237,0,0,1,3.211.443L20.36,14.7a14.632,14.632,0,0,0-6.2,0l-.111-1.771A10.237,10.237,0,0,1,17.261,12.483Zm0,10.186c-1.661,0-3.764-2.546-3.1-5.757a11.781,11.781,0,0,1,6.2,0C21.135,19.79,19.143,22.668,17.261,22.668ZM17.15,7.833,23.9,10.822l-1.993.554h0c-1.107-.886-3.321-1.107-4.761-1.107-1.329,0-3.654.221-4.761,1.107l-2.1-.664Z" transform="translate(-6.3 -5.425)" fill="#b7202e"/></g><path d="M70.749,1.8H2.107A1.079,1.079,0,0,0,1,2.84v39.1a1.076,1.076,0,0,0,1.107,1.04H7.975v8.424a1.076,1.076,0,0,0,1.107,1.04h2.879L11.407,65.76a1.076,1.076,0,0,0,1.107,1.04h4.539a1.177,1.177,0,0,0,1.107-.832L19.821,52.24,21.7,65.864a1.065,1.065,0,0,0,1.107.832H27.35a1.156,1.156,0,0,0,1.107-1.04L27.792,42.88H70.749a1.079,1.079,0,0,0,1.107-1.04V2.736A1,1,0,0,0,70.749,1.8ZM23.7,64.72,21.039,45.064c-.111-1.144-2.214-1.144-2.436,0L15.946,64.72H13.4l.554-13.312h0L14.507,38.1h0a1.133,1.133,0,0,0-1-1.04,1.069,1.069,0,0,0-1.107.936l-.443,12.376H10.078V31.024a4.757,4.757,0,0,1,3.986-4.472L15.5,30.5a1.054,1.054,0,0,0,1,.728h2.214a1.054,1.054,0,0,0,1-.728l1.439-3.952H29.01a.875.875,0,0,0,.554-.208L41.3,19.376l.664.832h0l.664.832L32.221,28.424H30.449a4.949,4.949,0,0,0-5.093,4.888l.886,31.2H23.7ZM69.752,40.9H27.682l-.221-7.488a2.794,2.794,0,0,1,2.879-2.808h2.214a1.644,1.644,0,0,0,.664-.208l11.514-8.216a.947.947,0,0,0,.221-1.352L44.4,20l10.628-6.656a.976.976,0,0,0,.332-1.352,1.121,1.121,0,0,0-1.439-.312l-10.85,6.656-.664-.832a1.26,1.26,0,0,0-1.439-.312l-12.289,7.28h-8.3a1.054,1.054,0,0,0-1,.728l-1.439,3.952h-.554L15.946,25.2a1.054,1.054,0,0,0-1-.728A6.7,6.7,0,0,0,8.086,30.92V40.8H3.1V3.776H69.642V40.9Z" transform="translate(-1 -1.8)" fill="#b7202e"/><g transform="translate(35.649 11.248)"><path d="M51.8,34.921H48.589V18.757a1.107,1.107,0,1,0-2.214,0V34.921H43.164V27.393a1.107,1.107,0,1,0-2.214,0v7.528H37.739V30.714a1.107,1.107,0,1,0-2.214,0v4.1H34.307a1.107,1.107,0,0,0,0,2.214h26.46a1.107,1.107,0,0,0,0-2.214H59.107v-20.7a1.107,1.107,0,1,0-2.214,0V34.921H54.014v-10.3a1.107,1.107,0,0,0-2.214,0Z" transform="translate(-33.2 -13)" fill="#b7202e"/></g></g></g></svg>