<svg xmlns="http://www.w3.org/2000/svg" width="65.005" height="65" viewBox="0 0 65.005 65"><g transform="translate(-784 -3461)"><g transform="translate(784 3461)"><path d="M3.01,62.25H15.135a1.01,1.01,0,0,0,1.01-1.01V53.156a7.073,7.073,0,0,0-3.818-6.272,5.052,5.052,0,1,0-6.509,0A7.073,7.073,0,0,0,2,53.156v8.083a1.01,1.01,0,0,0,1.01,1.01Zm3.031-19.2a3.031,3.031,0,1,1,3.031,3.031A3.031,3.031,0,0,1,6.042,43.052Zm-2.021,10.1a5.052,5.052,0,0,1,10.1,0v7.073H4.021Z" transform="translate(-2 2.75)" fill="#b7202e"/><path d="M18,55.114v6.062a1.01,1.01,0,0,0,1.01,1.01h8.083a1.01,1.01,0,0,0,1.01-1.01V55.114a5.052,5.052,0,0,0-2.23-4.188,4.042,4.042,0,1,0-5.644,0A5.052,5.052,0,0,0,18,55.114Zm3.031-7.073a2.021,2.021,0,1,1,2.021,2.021A2.021,2.021,0,0,1,21.031,48.042Zm-1.01,7.073a3.031,3.031,0,0,1,6.062,0v5.052H20.021Z" transform="translate(-0.433 2.813)" fill="#b7202e"/><path d="M30,53.156v8.083a1.01,1.01,0,0,0,1.01,1.01H43.135a1.01,1.01,0,0,0,1.01-1.01V53.156a7.073,7.073,0,0,0-3.818-6.272,5.052,5.052,0,1,0-6.509,0A7.073,7.073,0,0,0,30,53.156Zm4.042-10.1a3.031,3.031,0,1,1,3.031,3.031A3.031,3.031,0,0,1,34.042,43.052ZM37.073,48.1a5.058,5.058,0,0,1,5.052,5.052v7.073h-10.1V53.156A5.058,5.058,0,0,1,37.073,48.1Z" transform="translate(0.955 2.75)" fill="#b7202e"/><path d="M46,55.114v6.062a1.01,1.01,0,0,0,1.01,1.01h8.083a1.01,1.01,0,0,0,1.01-1.01V55.114a5.052,5.052,0,0,0-2.23-4.188,4.042,4.042,0,1,0-5.644,0A5.052,5.052,0,0,0,46,55.114Zm3.031-7.073a2.021,2.021,0,1,1,2.021,2.021A2.021,2.021,0,0,1,49.031,48.042Zm-1.01,7.073a3.031,3.031,0,1,1,6.062,0v5.052H48.021Z" transform="translate(2.834 2.813)" fill="#b7202e"/><path d="M63.115,17.206a5.774,5.774,0,0,0-.232-8.435,6.841,6.841,0,0,0-9.047-.048,5.775,5.775,0,0,0-.334,8.432h-6V3.01A1.049,1.049,0,0,0,46.417,2H3.083A1.049,1.049,0,0,0,2,3.01V29.28a1.049,1.049,0,0,0,1.083,1.01H18.792v1.536l-5.01,3.738a.969.969,0,0,0-.344,1.123,1.081,1.081,0,0,0,1.021.676H35.042a1.081,1.081,0,0,0,1.023-.676.969.969,0,0,0-.346-1.124l-5.01-3.737V30.291H46.417A1.049,1.049,0,0,0,47.5,29.28v-4.8l5.236.96L49.511,36.078a.956.956,0,0,0,.178.884,1.112,1.112,0,0,0,.864.4H65.917A1.049,1.049,0,0,0,67,36.353V21.761A4.5,4.5,0,0,0,63.115,17.206ZM54,13.114a4.344,4.344,0,0,1,8.667,0,4.344,4.344,0,0,1-8.667,0ZM28.948,33.1l3.005,2.242H17.545L20.55,33.1a.987.987,0,0,0,.408-.789V30.291h7.583v2.021A.986.986,0,0,0,28.948,33.1ZM45.333,28.27H4.167V4.021H45.333V17.156h-3.25a1.1,1.1,0,0,0-.962.546l-2.167,3.9a.95.95,0,0,0-.013.906,1.076,1.076,0,0,0,.771.551l5.62,1.031Zm19.5,7.073H51.986l3.155-10.407a.952.952,0,0,0-.119-.8,1.086,1.086,0,0,0-.715-.463L41.542,21.332l1.2-2.155H62.646a2.4,2.4,0,0,1,2.187,2.585Z" transform="translate(-2 -2)" fill="#b7202e"/><path d="M7.557,14.931a1.01,1.01,0,0,0,1.487,1.047l2.008-1.11,2.008,1.111a1.023,1.023,0,0,0,.49.126,1.01,1.01,0,0,0,1-1.173l-.4-2.425L15.817,10.8a1.01,1.01,0,0,0-.571-1.7l-2.259-.345-1.02-2.173a1.01,1.01,0,0,0-1.829,0L9.117,8.754,6.858,9.1a1.01,1.01,0,0,0-.571,1.7L7.952,12.51Zm2.4-4.261a1.01,1.01,0,0,0,.762-.57l.334-.707.334.712a1.01,1.01,0,0,0,.762.57L13,10.8l-.648.664a1.01,1.01,0,0,0-.274.868l.141.871-.676-.374a1.01,1.01,0,0,0-.978,0l-.676.374.141-.871a1.01,1.01,0,0,0-.274-.868L9.107,10.8Z" transform="translate(-1.958 -1.958)" fill="#b7202e"/><rect width="12" height="2" transform="translate(17.44 9)" fill="#b7202e"/><rect width="15" height="2" transform="translate(20.823 13.971)" fill="#b7202e"/><rect width="13.135" height="2.021" transform="translate(4.547 18.459)" fill="#b7202e"/><rect width="22" height="2" transform="translate(7 22.568)" fill="#b7202e"/></g></g></svg>