<svg xmlns="http://www.w3.org/2000/svg" width="65.005" height="65" viewBox="0 0 65.005 65">
    <g>
        <g>
            <path d="M3.01 62.25h12.125a1.01 1.01 0 0 0 1.01-1.01v-8.084a7.073 7.073 0 0 0-3.818-6.272 5.052 5.052 0 1 0-6.509 0A7.073 7.073 0 0 0 2 53.156v8.083a1.01 1.01 0 0 0 1.01 1.01zm3.031-19.2a3.031 3.031 0 1 1 3.031 3.031 3.031 3.031 0 0 1-3.03-3.029zM4.02 53.15a5.052 5.052 0 0 1 10.1 0v7.073H4.021z" transform="translate(-784 -3461) translate(784 3461) translate(-2 2.75)"/>
            <path d="M18 55.114v6.062a1.01 1.01 0 0 0 1.01 1.01h8.083a1.01 1.01 0 0 0 1.01-1.01v-6.062a5.052 5.052 0 0 0-2.23-4.188 4.042 4.042 0 1 0-5.644 0A5.052 5.052 0 0 0 18 55.114zm3.031-7.073a2.021 2.021 0 1 1 2.021 2.021 2.021 2.021 0 0 1-2.021-2.02zm-1.01 7.073a3.031 3.031 0 0 1 6.062 0v5.052h-6.062z" transform="translate(-784 -3461) translate(784 3461) translate(-.433 2.813)"/>
            <path d="M30 53.156v8.083a1.01 1.01 0 0 0 1.01 1.01h12.125a1.01 1.01 0 0 0 1.01-1.01v-8.083a7.073 7.073 0 0 0-3.818-6.272 5.052 5.052 0 1 0-6.509 0A7.073 7.073 0 0 0 30 53.156zm4.042-10.1a3.031 3.031 0 1 1 3.031 3.031 3.031 3.031 0 0 1-3.031-3.035zm3.031 5.044a5.058 5.058 0 0 1 5.052 5.052v7.073h-10.1v-7.069a5.058 5.058 0 0 1 5.048-5.056z" transform="translate(-784 -3461) translate(784 3461) translate(.955 2.75)"/>
            <path d="M46 55.114v6.062a1.01 1.01 0 0 0 1.01 1.01h8.083a1.01 1.01 0 0 0 1.01-1.01v-6.062a5.052 5.052 0 0 0-2.23-4.188 4.042 4.042 0 1 0-5.644 0A5.052 5.052 0 0 0 46 55.114zm3.031-7.073a2.021 2.021 0 1 1 2.021 2.021 2.021 2.021 0 0 1-2.021-2.02zm-1.01 7.073a3.031 3.031 0 1 1 6.062 0v5.052h-6.062z" transform="translate(-784 -3461) translate(784 3461) translate(2.834 2.813)"/>
            <path d="M63.115 17.206a5.774 5.774 0 0 0-.232-8.435 6.841 6.841 0 0 0-9.047-.048 5.775 5.775 0 0 0-.334 8.432h-6V3.01A1.049 1.049 0 0 0 46.417 2H3.083A1.049 1.049 0 0 0 2 3.01v26.27a1.049 1.049 0 0 0 1.083 1.01h15.709v1.536l-5.01 3.738a.969.969 0 0 0-.344 1.123 1.081 1.081 0 0 0 1.021.676h20.583a1.081 1.081 0 0 0 1.023-.676.969.969 0 0 0-.346-1.124l-5.01-3.737v-1.535h15.708A1.049 1.049 0 0 0 47.5 29.28v-4.8l5.236.96-3.225 10.638a.956.956 0 0 0 .178.884 1.112 1.112 0 0 0 .864.4h15.364A1.049 1.049 0 0 0 67 36.353V21.761a4.5 4.5 0 0 0-3.885-4.555zM54 13.114a4.344 4.344 0 0 1 8.667 0 4.344 4.344 0 0 1-8.667 0zM28.948 33.1l3.005 2.242H17.545L20.55 33.1a.987.987 0 0 0 .408-.789v-2.02h7.583v2.021a.986.986 0 0 0 .407.788zm16.385-4.83H4.167V4.021h41.166v13.135h-3.25a1.1 1.1 0 0 0-.962.546l-2.167 3.9a.95.95 0 0 0-.013.906 1.076 1.076 0 0 0 .771.551l5.62 1.031zm19.5 7.073H51.986l3.155-10.407a.952.952 0 0 0-.119-.8 1.086 1.086 0 0 0-.715-.463l-12.765-2.341 1.2-2.155h19.904a2.4 2.4 0 0 1 2.187 2.585z" transform="translate(-784 -3461) translate(784 3461) translate(-2 -2)"/>
            <path d="M7.557 14.931a1.01 1.01 0 0 0 1.487 1.047l2.008-1.11 2.008 1.111a1.023 1.023 0 0 0 .49.126 1.01 1.01 0 0 0 1-1.173l-.4-2.425 1.667-1.707a1.01 1.01 0 0 0-.571-1.7l-2.259-.345-1.02-2.173a1.01 1.01 0 0 0-1.829 0L9.117 8.754 6.858 9.1a1.01 1.01 0 0 0-.571 1.7l1.665 1.71zm2.4-4.261a1.01 1.01 0 0 0 .762-.57l.334-.707.334.712a1.01 1.01 0 0 0 .762.57L13 10.8l-.648.664a1.01 1.01 0 0 0-.274.868l.141.871-.676-.374a1.01 1.01 0 0 0-.978 0l-.676.374.141-.871a1.01 1.01 0 0 0-.274-.868l-.649-.664z" transform="translate(-784 -3461) translate(784 3461) translate(-1.958 -1.958)"/>
            <path d="M0 0H12V2H0z" transform="translate(-784 -3461) translate(784 3461) translate(17.44 9)"/>
            <path d="M0 0H15V2H0z" transform="translate(-784 -3461) translate(784 3461) translate(20.823 13.971)"/>
            <path d="M0 0H13.135V2.021H0z" transform="translate(-784 -3461) translate(784 3461) translate(4.547 18.459)"/>
            <path d="M0 0H22V2H0z" transform="translate(-784 -3461) translate(784 3461) translate(7 22.568)"/>
        </g>
    </g>
</svg>
