<svg xmlns="http://www.w3.org/2000/svg" width="56.714" height="66" viewBox="0 0 56.714 66">
    <defs>
        <style>
            .cls-1{stroke:#000}
        </style>
    </defs>
    <g id="noun_activity_2369570" transform="translate(-756.5 -712.26)">
        <g id="Group_13193" transform="translate(757 712.76)">
            <g id="Group_13192">
                <g id="Group_13191">
                    <g id="Group_13183" transform="translate(18.571 47.976)">
                        <path id="Path_19084" d="M218.439 373.022a.769.769 0 0 1-.449-.144L196.324 357.4a.774.774 0 1 1 .9-1.259l21.667 15.476a.774.774 0 0 1-.45 1.4z" class="cls-1" transform="translate(-195.999 -355.997)"/>
                    </g>
                    <g id="Group_13184" transform="translate(12.381)">
                        <path id="Path_19085" d="M184.631 111h-27.857a.774.774 0 0 1-.774-.774V80.18a.774.774 0 0 1 .984-.745 16.254 16.254 0 0 0 11.47-30.289.774.774 0 0 1 .026-1.407A20.936 20.936 0 0 1 176.893 46h1.548a20.8 20.8 0 0 1 20.893 20.893v12.381a.774.774 0 0 1-.774.774h-3.87V93.2a.774.774 0 0 1-.774.774H185.4v16.25a.774.774 0 0 1-.769.776zm-27.083-1.548h26.31V93.2a.774.774 0 0 1 .774-.774h8.512V79.274a.774.774 0 0 1 .774-.774h3.869V66.893a19.367 19.367 0 0 0-19.347-19.345h-1.548a19.475 19.475 0 0 0-6.262 1.02 17.8 17.8 0 0 1-13.083 32.606z" class="cls-1" transform="translate(-156 -46)"/>
                    </g>
                    <g id="Group_13185">
                        <path id="Path_19086" d="M93.8 81.6a17.8 17.8 0 0 1 0-35.6 17.634 17.634 0 0 1 7.709 1.752A17.8 17.8 0 0 1 93.8 81.6zm0-34.048a16.238 16.238 0 1 0 7.038 1.6 16.1 16.1 0 0 0-7.038-1.604z" class="cls-1" transform="translate(-76 -46)"/>
                    </g>
                    <g id="Group_13186" transform="translate(21.667 17.024)">
                        <path id="Path_19087" d="M216.774 169.029a.774.774 0 0 1-.29-1.491 11.564 11.564 0 0 0 7.254-10.764.774.774 0 0 1 1.548 0 13.1 13.1 0 0 1-8.222 12.2.771.771 0 0 1-.29.055z" class="cls-1" transform="translate(-215.999 -156)"/>
                    </g>
                    <g id="Group_13187" transform="translate(4.643 17.024)">
                        <path id="Path_19088" d="M115.778 169.463a.778.778 0 0 1-.211-.029 13.2 13.2 0 0 1-9.567-12.66.774.774 0 0 1 1.548 0 11.649 11.649 0 0 0 8.441 11.17.774.774 0 0 1-.21 1.519z" class="cls-1" transform="translate(-106 -156)"/>
                    </g>
                    <g id="Group_13188" transform="translate(18.571 40.238)">
                        <path id="Path_19089" d="M210.7 316.832a.77.77 0 0 1-.429-.13l-13.929-9.286a.774.774 0 0 1 .858-1.288l13.929 9.286a.774.774 0 0 1-.43 1.418z" class="cls-1" transform="translate(-195.999 -305.999)"/>
                    </g>
                    <g id="Group_13189" transform="translate(7.738 12.381)">
                        <path id="Path_19090" d="M136.483 136.391a5.216 5.216 0 0 1-1.593-.251.774.774 0 1 1 .472-1.474 3.655 3.655 0 0 0 2.333-6.926l-10.934-.194a.774.774 0 1 1 .028-1.547l11.054.2a.771.771 0 0 1 .222.037 5.2 5.2 0 0 1-1.582 10.159z" class="cls-1" transform="translate(-126.001 -125.999)"/>
                    </g>
                    <g id="Group_13190" transform="translate(17.024 10.833)">
                        <path id="Path_19091" d="M186.773 123.737a.774.774 0 0 1-.385-1.446l10.833-6.19a.774.774 0 0 1 .768 1.344l-10.833 6.19a.768.768 0 0 1-.383.102z" class="cls-1" transform="translate(-185.998 -115.998)"/>
                    </g>
                </g>
            </g>
        </g>
    </g>
</svg>
