<svg xmlns="http://www.w3.org/2000/svg" width="82.727" height="65" viewBox="0 0 82.727 65"><g transform="translate(-0.529 -1.323)"><g transform="translate(0.529 1.323)"><path d="M24.166,3.175v8.951H.529v35.8H83.256v-35.8H59.62V3.175ZM27.12,6.159H56.666V44.947H53.711V24.061H30.075V44.947H27.12ZM3.484,15.11H24.166V44.947H3.484Zm56.136,0H80.3V44.947H59.62ZM33.029,27.045h7.386v17.9H33.029Zm10.341,0h7.386v17.9H43.37Z" transform="translate(-0.529 17.069)" fill="#b7202e"/><path d="M3.95,294.619V300.4H1.058v-5.784Z" transform="translate(4.726 -241.186)" fill="#b7202e"/><path d="M3.95,293.825v5.784H1.058v-5.784Z" transform="translate(4.726 -249.412)" fill="#b7202e"/><path d="M3.95,293.031v5.784H1.058v-5.784Z" transform="translate(4.726 -257.501)" fill="#b7202e"/><path d="M1.587,294.619V300.4H4.479v-5.784Z" transform="translate(9.981 -241.186)" fill="#b7202e"/><path d="M1.587,293.825v5.784H4.479v-5.784Z" transform="translate(9.981 -249.412)" fill="#b7202e"/><path d="M1.587,293.031v5.784H4.479v-5.784Z" transform="translate(9.981 -257.501)" fill="#b7202e"/><path d="M2.117,294.619V300.4H5.009v-5.784Z" transform="translate(15.625 -241.186)" fill="#b7202e"/><path d="M2.117,293.825v5.784H5.009v-5.784Z" transform="translate(15.625 -249.412)" fill="#b7202e"/><path d="M2.117,293.031v5.784H5.009v-5.784Z" transform="translate(15.625 -257.501)" fill="#b7202e"/><path d="M7.144,294.619V300.4h2.892v-5.784Z" transform="translate(66.909 -241.186)" fill="#b7202e"/><path d="M7.144,293.825v5.784h2.892v-5.784Z" transform="translate(66.909 -249.412)" fill="#b7202e"/><path d="M7.144,293.031v5.784h2.892v-5.784Z" transform="translate(66.909 -257.501)" fill="#b7202e"/><path d="M9.507,294.619V300.4H6.615v-5.784Z" transform="translate(61.654 -241.186)" fill="#b7202e"/><path d="M9.507,293.825v5.784H6.615v-5.784Z" transform="translate(61.654 -249.412)" fill="#b7202e"/><path d="M9.507,293.031v5.784H6.615v-5.784Z" transform="translate(61.654 -257.501)" fill="#b7202e"/><path d="M8.977,294.619V300.4H6.085v-5.784Z" transform="translate(56.01 -241.186)" fill="#b7202e"/><path d="M8.977,293.825v5.784H6.085v-5.784Z" transform="translate(56.01 -249.412)" fill="#b7202e"/><path d="M8.977,293.031v5.784H6.085v-5.784Z" transform="translate(56.01 -257.501)" fill="#b7202e"/><path d="M2.91,297.558H5.8v-6.3l-2.892-.868Z" transform="translate(23.702 -284.544)" fill="#b7202e"/><path d="M17.37,1.323,2.91,5.661,17.37,10,31.83,5.661Zm0,3.022,4.394,1.316L17.37,6.977,12.976,5.661Z" transform="translate(23.993 -1.323)" fill="#b7202e"/><path d="M6.332,291.418v6.009H17.9v-6.009l2.892-.868v9.769H3.44V290.55Z" transform="translate(29.249 -282.967)" fill="#b7202e"/></g></g></svg>