<svg xmlns="http://www.w3.org/2000/svg" width="120" height="52.588" viewBox="0 0 120 52.588">
    <path fill="#b7202e" fill-rule="evenodd" d="M345.242 508.026c.009.226.017.455.019.683s0 .457-.007.685c0 .027-.023.05-.025.076-.013.152-.008.3-.023.457 0 .019-.019.032-.025.05-.019.076-.034.152-.049.228-.009.059-.011.12-.023.179s-.034.135-.049.2c-.011.051-.013.1-.025.154 0 .017-.021.03-.025.05-.021.093-.026.186-.047.28s-.047.169-.074.253c-.006.019-.019.034-.025.051-.021.067-.028.137-.049.2-.011.036-.038.065-.049.1s-.011.086-.025.127c0 .011-.021.015-.025.027a.256.256 0 0 0-.024.076 1.425 1.425 0 0 1-.025.152c-.008.021-.038.03-.051.049s-.03.07-.049.1c-.006.009-.019.015-.025.025-.028.057-.045.122-.074.179-.006.01-.021.015-.025.025a.605.605 0 0 0-.025.076c-.015.034-.038.067-.051.1s-.011.069-.025.1c-.028.07-.068.135-.1.2a.507.507 0 0 0-.011.051.783.783 0 0 1-.062.128c-.021.029-.053.048-.076.076a.428.428 0 0 0-.025.051c-.008.01-.019.015-.025.025s-.013.036-.025.051-.04.03-.051.051c-.021.04-.028.086-.049.126a.327.327 0 0 1-.038.051l-.036.051c-.013.017-.04.031-.051.051s-.013.051-.025.076a.962.962 0 0 1-.049.1c-.006.011-.019.015-.025.027-.028.05-.047.1-.076.152-.006.011-.017.015-.025.025s-.013.036-.025.051-.053.05-.076.076-.013.036-.025.051a.121.121 0 0 1-.038.038c-.013.011-.034.015-.049.027a.122.122 0 0 0-.038.038c-.013.023-.009.053-.025.076a.559.559 0 0 1-.087.089l-.025.013a.5.5 0 0 0-.038.051c-.019.019-.045.03-.062.049a.339.339 0 0 0-.062.078.509.509 0 0 0-.025.076l-.013.011a.349.349 0 0 0-.062.04c-.017.017-.023.044-.038.063l-.025.013a.494.494 0 0 0-.038.051.587.587 0 0 0-.049.049c-.011.015-.013.036-.025.051s-.053.049-.076.076-.021.047-.038.065-.045.021-.062.038-.013.036-.025.051a.33.33 0 0 1-.062.063c-.015.011-.036.015-.051.026s-.045.055-.074.076-.072.027-.1.051c-.064.053-.113.124-.176.179-.013.013-.036.015-.049.027a.4.4 0 0 0-.064.063l-.011.027c-.015.013-.036.023-.051.038a1.91 1.91 0 0 1-.149.152c-.021.017-.051.015-.076.027l-.011.013c-.009.015-.015.034-.024.05a.255.255 0 0 1-.038.04c-.015.01-.036.013-.051.025a.242.242 0 0 0-.038.038c-.015.025-.019.053-.036.076a.144.144 0 0 1-.051.038c-.025.015-.049.027-.074.04a.685.685 0 0 0-.076.038c-.011.006-.015.019-.025.025s-.036.015-.051.027-.015.019-.025.025c-.025.013-.055.01-.076.027-.047.036-.077.091-.125.128-.021.015-.053.011-.076.027s-.043.059-.076.076a1.389 1.389 0 0 1-.149.051c-.011.006-.017.019-.027.027a.4.4 0 0 0-.049.025c-.036.031-.064.07-.1.1l-.025.013c-.019.015-.032.036-.051.049s-.051.025-.076.04c-.009.006-.013.019-.025.025-.04.021-.087.027-.125.051s-.045.059-.075.078c-.07.042-.153.063-.225.1-.021.011-.032.036-.051.051a.173.173 0 0 1-.049.025c-.032.011-.068.013-.1.027-.011 0-.015.019-.027.025-.032.021-.068.03-.1.051s-.045.057-.074.078-.053.011-.076.025-.028.04-.051.051c-.079.042-.168.065-.249.1-.011.006-.015.021-.026.027-.047.029-.1.048-.149.076-.011.008-.015.021-.025.027-.042.017-.087.019-.126.038-.013.008-.013.029-.025.038s-.034.015-.051.027-.013.019-.025.025c-.04.021-.085.032-.125.051-.011.006-.015.021-.025.027-.032.013-.068.013-.1.027a.226.226 0 0 0-.074.038c-.015.011-.008.044-.025.051-.047.017-.1 0-.151.013-.072.023-.132.074-.2.1s-.119.029-.176.051c-.095.038-.183.091-.278.129-.03.013-.068.013-.1.027a1.242 1.242 0 0 0-.149.076c-.011.006-.013.023-.025.027-.042.013-.087.01-.127.027a2.976 2.976 0 0 0-.276.128c-.009.006-.013.023-.025.026-.049.013-.1.013-.151.027a.133.133 0 0 0-.049.025c-.011.008-.015.021-.026.027-.106.038-.219.063-.325.1-.077.028-.147.078-.227.1s-.185.032-.276.053c-.019 0-.032.019-.051.027-.057.019-.117.032-.176.051-.017.006-.03.021-.049.027-.093.021-.185.031-.276.051-.019.006-.034.021-.051.027-.042.011-.085.011-.127.027-.009 0-.015.017-.025.025a.151.151 0 0 1-.049.026c-.093.021-.185.031-.276.052-.026.006-.051.021-.076.027-.059.011-.119.011-.178.027-.009 0-.013.023-.025.025-.117.021-.3.027-.452.055-.038.008-.064.042-.1.051-.1.025-.2.03-.3.053-.068.015-.132.049-.2.065-.017 0-.034-.013-.051-.013a1.188 1.188 0 0 0-.2.029c-.1.021-.2.048-.3.078-.017.006-.032.023-.049.025-.185.025-.4.044-.554.055-.009 0-.017-.013-.026-.013s-.03.025-.049.027-.025-.015-.038-.011-.025.019-.038.025a.421.421 0 0 1-.113.04c-.023 0-.04-.023-.062-.027s-.034.013-.051.013-.025-.013-.038-.011a1.672 1.672 0 0 0-.213.04.555.555 0 0 1-.076.025c-.251.025-.584.04-.754.057-.019 0-.032.021-.049.025a.954.954 0 0 1-.2.04c-.026 0-.049-.026-.076-.025a.282.282 0 0 0-.1.04c-.011.006-.013.025-.025.025-.076 0-.975.04-1.409.049-.217 0-.437 0-.654-.008-.017 0-.034-.015-.051-.013s-.049.027-.076.027-.032-.023-.051-.025-.015.01-.024.013a.456.456 0 0 1-.087.013 2.507 2.507 0 0 1-.316-.036c-.028-.006-.049-.03-.076-.038-.009 0-.017.013-.025.013-.119.009-.236.015-.353.015a2.416 2.416 0 0 1-.351-.01c-.038-.006-.064-.046-.1-.05-.162-.019-.565-.03-.729-.046-.019 0-.032-.021-.051-.025a.919.919 0 0 0-.189-.036c-.038 0-.076.017-.113.013a3.663 3.663 0 0 1-.378-.074c-.019 0-.032-.021-.051-.025-.066-.013-.134-.01-.2-.023-.019 0-.034-.021-.051-.025-.049-.013-.1-.013-.151-.025-.019 0-.032-.021-.051-.025-.159-.03-.319-.044-.478-.072-.019 0-.032-.021-.051-.025-.059-.013-.119-.011-.176-.025-.019 0-.032-.019-.051-.025-.1-.028-.2-.044-.3-.074-.011 0-.013-.021-.026-.025-.04-.013-.083-.013-.125-.025-.019 0-.032-.019-.051-.025-.076-.021-.151-.029-.227-.049-.019 0-.032-.019-.051-.025a.764.764 0 0 0-.087-.025c-.013 0-.026.006-.038 0-.07-.029-.132-.074-.2-.1-.049-.017-.1-.012-.151-.025-.011 0-.015-.021-.026-.025-.057-.021-.119-.03-.176-.049-.019-.006-.032-.019-.051-.025-.042-.011-.085-.013-.127-.025a.16.16 0 0 1-.051-.025c-.009-.006-.013-.019-.025-.025-.066-.036-.132-.07-.2-.1s-.138-.042-.2-.074c-.021-.009-.028-.042-.051-.049-.047-.017-.1-.006-.151-.025-.021-.008-.03-.036-.049-.049s-.036-.015-.051-.025-.032-.036-.051-.051a.159.159 0 0 0-.051-.025c-.066-.019-.136-.027-.2-.049-.009 0-.015-.017-.025-.025s-.034-.013-.051-.025-.013-.019-.025-.025-.051-.013-.076-.025-.015-.021-.025-.025c-.025-.013-.053-.013-.077-.027-.009 0-.013-.019-.025-.025-.1-.053-.206-.093-.3-.148-.021-.011-.03-.04-.051-.051s-.07-.01-.1-.025-.03-.036-.049-.049-.053-.021-.077-.038-.028-.038-.049-.05-.07-.021-.1-.038c-.009-.006-.015-.019-.025-.025s-.036-.013-.051-.025-.03-.036-.051-.051c-.057-.04-.119-.072-.176-.112-.021-.013-.03-.038-.051-.049-.04-.023-.089-.027-.127-.049s-.028-.049-.051-.063a1.224 1.224 0 0 0-.127-.051c-.009 0-.015-.017-.025-.025s-.038-.011-.051-.025c-.028-.027-.045-.065-.076-.088s-.072-.017-.1-.038-.06-.074-.1-.1c-.023-.013-.055 0-.076-.011s0-.027 0-.038a.083.083 0 0 0-.025-.038c-.023-.017-.053-.021-.076-.038s-.03-.038-.051-.05-.053-.011-.076-.025a.337.337 0 0 1-.064-.063c-.006-.008 0-.021-.011-.025-.032-.017-.07-.021-.1-.038a.1.1 0 0 1-.038-.038c-.015-.023-.019-.055-.038-.074s-.079-.048-.113-.076c-.008-.006-.006-.019-.013-.025-.023-.017-.053-.023-.076-.038a.261.261 0 0 1-.051-.038.492.492 0 0 1-.038-.05c-.019-.019-.045-.032-.064-.051s-.047-.061-.076-.087c-.013-.011-.036-.011-.051-.025a1.5 1.5 0 0 1-.164-.164.466.466 0 0 1-.038-.076c-.013-.019-.04-.028-.051-.049a.909.909 0 0 1-.038-.1c-.008-.011-.021-.015-.026-.025-.021-.042-.03-.088-.051-.127-.006-.01-.021-.013-.026-.025-.019-.04-.03-.086-.051-.125-.006-.012-.021-.015-.025-.027-.013-.032-.015-.067-.026-.1s-.038-.082-.051-.126a.941.941 0 0 1-.04-.19c0-.027.03-.049.025-.076a1.011 1.011 0 0 0-.064-.139.357.357 0 0 1-.013-.089.778.778 0 0 0 .011-.114c0-.03-.038-.055-.038-.088 0-.048.034-.091.038-.139.015-.194.008-.39.021-.584a1.016 1.016 0 0 1 .025-.1 1.846 1.846 0 0 1 .023-.228 2.043 2.043 0 0 1 .1-.28c0-.011.023-.013.025-.025.013-.049.013-.1.025-.152a1.06 1.06 0 0 1 .049-.154c0-.01.019-.015.024-.025a.159.159 0 0 0 .025-.051c.019-.057.028-.12.049-.177.006-.011.019-.015.026-.025.019-.034.028-.07.049-.1s.038-.03.049-.051c.03-.057.047-.12.074-.177.006-.011.019-.015.027-.027a.993.993 0 0 0 .049-.1c.009-.025.013-.051.025-.076a.516.516 0 0 1 .049-.1c.013-.019.038-.031.049-.051.03-.047.045-.1.076-.152.011-.021.036-.032.049-.051s.015-.034.025-.05.019-.017.026-.027c.019-.032.03-.069.049-.1.006-.011.019-.015.025-.027s.013-.034.025-.051.036-.032.051-.049l.011-.027a.62.62 0 0 0 .051-.049c.015-.025.021-.053.036-.078s.038-.03.051-.049.009-.055.025-.078a.278.278 0 0 1 .062-.063c.019-.015.047-.019.062-.038s.011-.053.025-.076.036-.032.049-.051.013-.036.025-.051.036-.032.051-.051l.011-.025c.015-.015.036-.025.051-.038a.792.792 0 0 0 .111-.116c.017-.021.009-.055.025-.076.043-.057.1-.1.151-.152.015-.019.019-.047.036-.065s.055-.021.076-.038.03-.048.051-.065a.825.825 0 0 1 .074-.038c.011-.006.015-.019.026-.025s.051-.025.074-.038a.134.134 0 0 0 .051-.04c.015-.023.006-.057.025-.076s.034 0 .051 0a.2.2 0 0 0 .074-.027c.019-.011.025-.034.038-.049a.772.772 0 0 1 .087-.089c.015-.013.036-.015.051-.027s.047-.053.076-.076c.013-.011.034-.015.049-.027s.015-.019.025-.025c.042-.025.087-.038.127-.065s.062-.063.1-.089c.023-.017.051-.021.074-.038s.013-.029.026-.038c.03-.023.068-.03.1-.051s.03-.036.049-.051.036-.013.051-.027c.036-.03.059-.076.1-.1s.07-.013.1-.027c.009-.006.013-.021.025-.027s.051-.013.076-.025c.009-.006.013-.021.025-.025.053-.027.112-.038.163-.067a.464.464 0 0 0 .089-.063c.017-.015.028-.04.049-.051.04-.023.085-.032.125-.051.068-.032.132-.076.2-.1.04-.017.083-.013.125-.027a2.006 2.006 0 0 0 .2-.078c.036-.013.066-.036.1-.051a.493.493 0 0 1 .076-.027c.059-.011.119-.01.176-.025a.425.425 0 0 0 .1-.053c.011-.006.015-.021.026-.025.091-.023.185-.03.276-.053.019 0 .032-.021.049-.025a3.276 3.276 0 0 1 .4-.08 3.792 3.792 0 0 1 .416-.015 3.017 3.017 0 0 1 .416.009 1.915 1.915 0 0 1 .3.074c.017 0 .032.019.051.025.049.011.1.01.151.023.011 0 .013.021.025.025a.913.913 0 0 0 .1.025c.019.008.034.019.051.027.059.017.119.027.178.048.009.006.015.019.025.027s.036.013.051.025.047.055.076.074a1.006 1.006 0 0 0 .1.051c.011.006.017.017.026.025s.036.013.051.025.03.038.049.049.055.009.077.025a.922.922 0 0 1 .113.114l.013.025c.013.015.034.023.049.038.083.078.164.156.242.238.013.015.013.036.025.051s.038.032.051.049.015.036.026.051.019.015.025.025a.165.165 0 0 1 .026.051c.011.032.015.069.025.1l.013.011c.017.013.04.021.051.038a.625.625 0 0 1 .064.127c.013.04.011.086.026.126 0 .011.017.015.025.025a.335.335 0 0 1 .027.051c.009.032.013.068.025.1s.04.065.051.1.013.086.026.127.044.063.051.1c.019.074.015.152.027.226.009.057.032.109.04.166 0 .021-.011.042-.011.063s.015.059.013.089c0 .048-.023.091-.025.139 0 .027.013.049.013.076a1.084 1.084 0 0 1-.025.152c-.006.027-.021.049-.025.076s.015.025.013.038a.267.267 0 0 1-.038.09c-.006.009-.021.013-.025.025-.013.032-.013.069-.025.1a.51.51 0 0 1-.049.1c-.006.01-.019.015-.025.025-.036.076-.062.156-.1.23a.117.117 0 0 1-.036.038c-.025.015-.053.021-.076.038-.008.006-.006.019-.013.025-.03.036-.072.065-.1.1s-.032.091-.06.128c-.019.021-.053.023-.076.038a.252.252 0 0 0-.062.065c-.026.04-.038.087-.062.127-.013.021-.038.03-.049.051-.027.038-.036.088-.062.126s-.053.05-.076.078a.153.153 0 0 0-.025.049c-.011.034-.013.069-.025.1s-.036.084-.049.127a.337.337 0 0 0-.011.088.364.364 0 0 0 .013.089c0 .01.013.015.013.025s-.011.015-.013.025a.62.62 0 0 0-.011.1.3.3 0 0 0 .013.1 1.06 1.06 0 0 0 .051.1.333.333 0 0 0 .025.076c.028.038.074.061.1.1a.455.455 0 0 1 .026.076.164.164 0 0 0 .038.063c.028.023.07.029.1.049s.032.038.051.049c.04.025.087.036.127.063.013.008.011.032.026.038.081.032.168.044.251.074.011 0 .015.019.025.025a.384.384 0 0 0 .1.049c.066.017.134.012.2.025a1.478 1.478 0 0 1 .2.049c.019 0 .032.021.051.025.059.011.119.009.176.023.011 0 .015.023.026.027.057.013.117.013.176.023.034.006.066.021.1.025.108.011.217.009.327.023.019 0 .032.023.051.025a1.681 1.681 0 0 0 .276.036c.047 0 .091-.027.138-.027.074 0 .142.032.215.036.038 0 .074-.013.113-.013a.718.718 0 0 1 .111.011 1.357 1.357 0 0 0 .164.038c.034 0 .066-.025.1-.027a.185.185 0 0 1 .064.011 1.056 1.056 0 0 0 .1.038c.009 0 .017-.01.025-.013a.632.632 0 0 1 .151-.038c.034 0 .066.025.1.023.019 0 .03-.025.049-.025s.032.023.051.025.015-.011.025-.013c.059-.011.117-.015.176-.027.01 0 .017-.013.026-.013s.03.027.049.027c.034 0 .066-.025.1-.027a.549.549 0 0 1 .125.011c.009 0 .017.013.025.013s.017-.011.026-.013c.083-.019.166-.042.251-.053.142-.017.285-.013.427-.029.026 0 .049-.023.076-.027.1-.013.2-.013.3-.027.062-.008.125-.032.187-.04.023 0 .042.015.064.013.076-.011.149-.042.225-.053.009 0 .017.013.027.013s.015-.011.025-.013c.059-.011.117-.015.176-.027.027-.006.049-.021.076-.027a1.4 1.4 0 0 1 .176-.027c.013 0 .025.013.038.013a1.618 1.618 0 0 0 .214-.04c.068-.017.132-.053.2-.065.019 0 .032.027.051.025s.03-.03.051-.038a.3.3 0 0 1 .1-.027c.117-.013.236-.01.351-.029a1.225 1.225 0 0 0 .163-.051.119.119 0 0 1 .026 0 .24.24 0 0 1 .049-.013c.019 0 .034.011.051.011l.013-.011a.135.135 0 0 1 .038-.027 2.462 2.462 0 0 1 .238-.065c.108-.023.219-.03.327-.053.019 0 .032-.021.049-.027.049-.012.1-.013.151-.025.019-.006.032-.021.051-.027.049-.013.1-.015.149-.027a1.688 1.688 0 0 0 .176-.051c.011 0 .015-.021.026-.027a1.7 1.7 0 0 1 .2-.078c.083-.023.168-.032.251-.051a.367.367 0 0 0 .076-.027 1 1 0 0 1 .1-.051c.1-.032.2-.047.3-.078.043-.013.083-.036.127-.051.074-.029.151-.049.225-.078a.16.16 0 0 0 .051-.027c.01-.006.013-.021.025-.025.042-.013.085-.013.127-.027.01 0 .013-.021.025-.025.032-.013.068-.013.1-.027.011 0 .013-.021.024-.025.081-.03.168-.049.251-.078a.339.339 0 0 0 .051-.027c.009-.006.013-.021.025-.025.049-.021.1-.03.149-.051s.1-.055.151-.078.1-.031.151-.051a1.373 1.373 0 0 0 .149-.078c.011-.006.015-.019.026-.025.04-.021.083-.034.125-.051s.066-.038.1-.051.051-.015.076-.027c.009-.006.013-.021.025-.027.032-.013.068-.011.1-.025.011-.006.015-.019.025-.027a.415.415 0 0 0 .051-.025c.026-.023.047-.053.076-.076a.126.126 0 0 1 .049-.027c.032-.011.068-.013.1-.027.011 0 .015-.019.026-.025s.053-.011.074-.027.032-.036.051-.051.034-.015.049-.025.015-.021.026-.027.053-.011.074-.025.03-.038.051-.051c.064-.04.138-.061.2-.1.03-.019.047-.053.076-.076s.034-.015.049-.027.015-.019.025-.025.036-.015.051-.027.03-.036.049-.051.036-.013.051-.025c.036-.03.06-.076.1-.1.062-.042.138-.059.2-.1s.076-.093.125-.128c.021-.015.055 0 .076-.013s0-.027 0-.038a.093.093 0 0 1 .025-.038l.025-.013c.068-.065.132-.137.2-.2l.025-.013a.5.5 0 0 0 .038-.051.388.388 0 0 1 .062-.063c.015-.011.036-.015.051-.027s.03-.036.049-.051.036-.013.049-.025a.733.733 0 0 0 .127-.116c.023-.029.028-.07.049-.1.008-.013.03-.013.038-.025s.011-.053.025-.078a.583.583 0 0 1 .062-.076c.013-.015.023-.034.038-.051.03-.034.07-.065.1-.1.013-.015.015-.036.025-.051s.019-.015.026-.027.011-.036.025-.049c.045-.055.1-.1.149-.154.013-.013.013-.034.025-.05s.036-.034.051-.051l.011-.027c.019-.019.047-.029.062-.051s.011-.053.025-.076.057-.046.076-.076c.03-.048.047-.1.074-.152.006-.011.019-.015.026-.027s.013-.034.025-.05.036-.032.049-.051a.131.131 0 0 0 .025-.051c.011-.049.013-.1.025-.152a.352.352 0 0 1 .025-.076c.015-.034.036-.067.049-.1s.011-.07.025-.1c0-.009.023-.013.025-.025.015-.084.011-.169.025-.253 0-.019.021-.032.025-.051a1.807 1.807 0 0 0 .034-.318 2.4 2.4 0 0 0-.04-.367c0-.017-.023-.03-.027-.049-.015-.1-.015-.2-.026-.3a.715.715 0 0 0-.026-.126c0-.011-.021-.015-.025-.027-.04-.082-.066-.169-.1-.251a1.4 1.4 0 0 0-.076-.152c-.006-.011-.021-.013-.026-.025-.021-.057-.03-.12-.051-.177a.386.386 0 0 0-.051-.1c-.021-.03-.06-.044-.076-.076a.717.717 0 0 1-.026-.126c0-.013-.019-.017-.026-.027s-.011-.036-.025-.049c-.027-.029-.064-.046-.089-.076s-.021-.053-.038-.076-.057-.046-.077-.074-.028-.07-.049-.1-.038-.032-.053-.051-.013-.034-.025-.049-.019-.015-.025-.027-.021-.053-.04-.074-.045-.03-.062-.051-.023-.044-.038-.063-.038-.021-.051-.038a.252.252 0 0 1-.04-.074c-.008-.025 0-.055-.013-.076s-.025 0-.036 0a.093.093 0 0 1-.04-.025c-.021-.027-.026-.065-.049-.089s-.055-.019-.077-.036a.174.174 0 0 1-.038-.051c-.011-.025-.009-.055-.026-.076a.943.943 0 0 0-.138-.15c-.034-.03-.083-.042-.115-.076s-.028-.07-.051-.1a.906.906 0 0 0-.113-.112l-.025-.013c-.015-.013-.025-.034-.04-.049-.115-.12-.24-.23-.353-.352-.017-.017-.021-.046-.04-.063s-.034-.015-.049-.025a.26.26 0 0 1-.04-.038.346.346 0 0 0-.038-.063c-.034-.034-.079-.055-.113-.09-.013-.013-.013-.036-.026-.049a.8.8 0 0 0-.062-.051.5.5 0 0 1-.038-.05.665.665 0 0 0-.064-.063l-.025-.013a.472.472 0 0 1-.038-.049c-.049-.051-.106-.1-.153-.15-.011-.015-.015-.036-.025-.051a.128.128 0 0 0-.04-.038c-.023-.011-.051-.013-.076-.025-.009-.006-.015-.017-.025-.025s-.036-.013-.051-.025a.386.386 0 0 1-.062-.063c-.011-.015-.015-.036-.026-.051a.172.172 0 0 0-.038-.036c-.015-.011-.036-.015-.051-.025s-.032-.036-.051-.051l-.025-.011c-.015-.015-.025-.036-.038-.051a.739.739 0 0 0-.115-.114c-.021-.015-.051-.011-.074-.023a.151.151 0 0 1-.04-.038.355.355 0 0 0-.038-.063c-.013-.015-.036-.013-.051-.027a1.236 1.236 0 0 1-.113-.112c-.015-.015-.023-.036-.038-.051s-.036-.013-.051-.025c-.036-.027-.064-.061-.1-.088a.7.7 0 0 1-.076-.038c-.013-.011-.011-.036-.025-.049a.392.392 0 0 0-.076-.063.569.569 0 0 1-.077-.038c-.028-.025-.047-.061-.076-.087-.013-.013-.034-.015-.051-.025s-.015-.019-.025-.025a1.081 1.081 0 0 1-.113-.063c-.019-.015-.021-.046-.038-.063s-.036-.013-.051-.025-.047-.055-.076-.076c-.045-.032-.1-.051-.14-.088-.019-.017-.019-.048-.038-.063a.87.87 0 0 0-.1-.051c-.009-.006-.015-.017-.025-.025s-.036-.011-.051-.025c-.045-.038-.079-.089-.127-.126s-.081-.032-.113-.063-.019-.055-.038-.076-.053-.021-.078-.036a.356.356 0 0 1-.038-.038c-.015-.019-.019-.048-.038-.063s-.053-.011-.076-.025-.047-.053-.076-.076-.036-.013-.051-.025-.015-.019-.025-.025-.036-.013-.051-.025-.032-.038-.051-.051-.051-.023-.076-.036c-.009-.008-.015-.019-.025-.027a1.2 1.2 0 0 1-.14-.074c-.015-.011-.013-.036-.025-.051a.335.335 0 0 0-.064-.063c-.023-.013-.055-.009-.076-.025-.04-.027-.064-.07-.1-.1s-.07-.03-.1-.051a.435.435 0 0 1-.051-.05l-.026-.013c-.017-.015-.028-.038-.049-.049s-.07-.023-.1-.038l-.013-.011a.2.2 0 0 0-.038-.051c-.03-.021-.07-.029-.1-.049s-.032-.036-.051-.049-.053-.021-.076-.038-.047-.055-.076-.076-.055-.01-.076-.025c-.04-.027-.064-.072-.1-.1-.021-.015-.051-.013-.075-.025l-.013-.012c-.009-.017-.015-.036-.025-.051a.178.178 0 0 0-.038-.038c-.049-.028-.1-.046-.153-.074-.01-.006-.015-.019-.025-.025s-.036-.013-.051-.025-.032-.036-.051-.051-.036-.011-.051-.025c-.053-.046-.095-.107-.151-.15-.021-.017-.051-.015-.076-.025a.993.993 0 0 1-.127-.063c-.021-.013-.03-.038-.051-.049a.921.921 0 0 0-.1-.038c-.011-.006-.015-.019-.026-.025-.032-.019-.07-.029-.1-.049s-.03-.038-.051-.051-.051-.013-.075-.025a.244.244 0 0 1-.051-.036c-.019-.019-.026-.051-.051-.065s-.068-.012-.1-.025c-.011 0-.015-.017-.025-.025a.422.422 0 0 1-.051-.025c-.011-.006-.015-.019-.026-.025s-.034-.013-.049-.025-.03-.04-.051-.051a.614.614 0 0 0-.1-.023l-.011-.013c-.015-.021-.019-.05-.04-.063a.712.712 0 0 0-.125-.049.965.965 0 0 1-.14-.089c-.017-.011-.019-.04-.038-.049-.04-.021-.087-.017-.127-.036-.021-.011-.032-.036-.051-.051s-.034-.013-.049-.025-.015-.019-.027-.025a.428.428 0 0 0-.051-.025c-.01-.008-.015-.019-.025-.025-.032-.021-.068-.032-.1-.051-.011-.006-.015-.019-.026-.025a1.258 1.258 0 0 0-.151-.074c-.025-.011-.053-.011-.076-.025s-.047-.057-.076-.076-.053-.011-.076-.025-.03-.038-.051-.049c-.04-.023-.087-.03-.127-.049-.011-.006-.015-.021-.026-.027-.04-.023-.085-.036-.125-.061-.021-.013-.03-.04-.051-.051-.064-.034-.136-.055-.2-.088-.011-.006-.015-.019-.026-.025-.049-.029-.1-.048-.151-.074-.009-.006-.013-.021-.025-.027-.032-.011-.068-.013-.1-.023a.176.176 0 0 1-.049-.027c-.011-.006-.015-.019-.026-.025a1.52 1.52 0 0 1-.2-.074c-.049-.03-.076-.093-.127-.126a.826.826 0 0 0-.151-.05.69.69 0 0 1-.1-.049c-.011-.008-.015-.019-.027-.025a.178.178 0 0 0-.049-.027c-.034-.009-.07-.011-.1-.023-.011-.006-.015-.021-.025-.027-.025-.011-.051-.013-.076-.025s-.015-.017-.026-.025-.034-.015-.049-.025-.017-.019-.026-.025a.706.706 0 0 0-.1-.049c-.025-.011-.053-.013-.076-.025s-.017-.019-.026-.027-.034-.013-.051-.025-.013-.021-.025-.025c-.032-.013-.068-.011-.1-.025-.011 0-.015-.019-.026-.025-.049-.029-.1-.046-.151-.074-.021-.013-.03-.04-.051-.051s-.07-.019-.1-.036-.047-.048-.076-.063c-.1-.055-.2-.1-.3-.15-.009-.006-.015-.019-.025-.025-.059-.029-.121-.044-.178-.076-.021-.011-.032-.036-.051-.049a.17.17 0 0 0-.049-.025c-.034-.012-.07-.013-.1-.025a.447.447 0 0 1-.1-.049c-.03-.021-.045-.057-.078-.076-.072-.044-.153-.068-.227-.112-.013-.008-.011-.03-.025-.038s-.055-.01-.076-.025c-.055-.036-.1-.086-.153-.126-.015-.011-.034-.015-.049-.025s-.017-.019-.026-.025a1.538 1.538 0 0 1-.14-.088c-.017-.015-.021-.046-.038-.063s-.036-.013-.049-.027c-.038-.029-.064-.07-.1-.1s-.081-.036-.113-.063-.021-.046-.04-.063-.036-.013-.049-.025c-.045-.04-.079-.091-.127-.126-.023-.017-.053-.015-.076-.025l-.013-.013a.424.424 0 0 0-.026-.051.176.176 0 0 0-.038-.038.7.7 0 0 1-.076-.036c-.017-.013-.025-.036-.038-.051a.779.779 0 0 0-.089-.087c-.023-.017-.051-.023-.076-.038s-.017-.017-.026-.025-.034-.023-.049-.038a1.086 1.086 0 0 1-.115-.112c-.011-.013-.013-.036-.025-.051s-.057-.046-.078-.074a.994.994 0 0 0-.051-.1c-.036-.048-.087-.082-.127-.126-.015-.019-.021-.046-.038-.063s-.045-.021-.064-.038-.013-.036-.024-.051a.357.357 0 0 0-.038-.038c-.021-.013-.047-.017-.064-.036s-.03-.07-.051-.1a.119.119 0 0 0-.038-.038.411.411 0 0 0-.051-.025.248.248 0 0 1-.038-.038c-.008-.011-.006-.027-.011-.038a.74.74 0 0 0-.064-.088c-.023-.029-.057-.046-.076-.076s-.026-.088-.051-.126c-.015-.023-.045-.032-.064-.051a.088.088 0 0 1-.025-.038c-.017-.036-.025-.076-.04-.112l-.013-.013-.025-.013a.475.475 0 0 1-.038-.049c-.015-.019-.038-.03-.051-.049s-.032-.07-.051-.1a.568.568 0 0 0-.064-.088c-.006-.008-.019 0-.025-.011-.017-.032-.023-.071-.038-.1-.006-.009-.019-.015-.026-.025-.019-.032-.032-.068-.051-.1-.006-.01-.019-.015-.025-.025a.166.166 0 0 1-.026-.051c-.011-.04-.011-.086-.026-.126 0-.011-.017-.015-.025-.025s-.015-.036-.026-.051-.017-.015-.025-.025-.015-.034-.026-.051-.019-.013-.025-.025a.582.582 0 0 0-.026-.076c-.011-.019-.038-.03-.049-.049a1.036 1.036 0 0 1-.078-.152c-.011-.025-.015-.051-.026-.076a.566.566 0 0 0-.051-.1c-.006-.009-.021-.013-.025-.025-.013-.032-.015-.069-.026-.1-.006-.017-.019-.032-.025-.051s-.015-.069-.026-.1-.038-.065-.051-.1-.015-.068-.026-.1a.319.319 0 0 0-.025-.051c-.008-.009-.023-.013-.026-.025-.017-.053-.019-.112-.038-.164-.011-.025-.04-.04-.051-.063a.76.76 0 0 1-.064-.152c-.015-.049-.013-.1-.026-.152s-.038-.084-.051-.125c-.028-.084-.057-.168-.077-.253-.015-.057-.013-.12-.026-.177 0-.011-.023-.013-.027-.025-.03-.1-.045-.206-.077-.3 0-.011-.023-.013-.025-.025-.021-.112-.032-.287-.055-.43 0-.027-.021-.049-.025-.076-.013-.067-.013-.137-.026-.2-.006-.017-.021-.032-.027-.049a.467.467 0 0 1-.026-.1c-.023-.219-.03-.44-.055-.658 0-.027-.025-.049-.026-.076-.013-.192-.051-.95-.059-1.14 0-.017.015-.034.013-.051s-.028-.057-.026-.087a.915.915 0 0 1 .036-.19.409.409 0 0 1 .025-.051.328.328 0 0 0 .025-.1c0-.139-.015-.278-.015-.417s0-.28.009-.419c0-.034.021-.067.025-.1.011-.128.006-.255.021-.381.006-.036.036-.067.038-.1s-.026-.049-.026-.076a.746.746 0 0 1 .038-.152 1.145 1.145 0 0 0 .049-.126c.006-.034-.013-.069-.013-.1a.455.455 0 0 1 .011-.1c.006-.027.021-.05.025-.076.013-.084.009-.169.023-.253a.259.259 0 0 1 .026-.051c.017-.059.028-.12.047-.179.006-.017.021-.032.025-.049.021-.067.03-.137.049-.2a.259.259 0 0 1 .025-.051c.008-.01.019-.015.026-.025s.013-.036.025-.051.021-.013.025-.025c.021-.076.028-.154.049-.228a1.092 1.092 0 0 1 .049-.152.632.632 0 0 1 .049-.1c.006-.009.021-.015.025-.025.013-.032.011-.07.025-.1 0-.011.021-.013.025-.025a.911.911 0 0 0 .025-.1c.015-.042.036-.084.049-.126.021-.069.03-.137.049-.2a.22.22 0 0 1 .025-.051c.008-.009.021-.015.026-.025.011-.025.011-.053.023-.076s.021-.015.026-.027c.021-.047.028-.1.049-.152 0-.011.019-.015.025-.025.019-.042.03-.088.049-.127.006-.012.019-.015.025-.027a.171.171 0 0 0 .025-.049c.011-.034.013-.068.025-.1.023-.059.047-.12.076-.177 0-.012.019-.015.024-.027.019-.04.028-.086.049-.126.006-.011.019-.015.025-.027.036-.074.07-.15.1-.228a.842.842 0 0 1 .023-.1c.011-.023.038-.032.051-.051a1.142 1.142 0 0 0 .074-.154c.013-.032.011-.068.025-.1a1.4 1.4 0 0 1 .074-.152c.008-.011.019-.015.026-.025a.316.316 0 0 0 .025-.051c.009-.034.013-.069.025-.1.006-.017.019-.032.025-.05a.628.628 0 0 1 .025-.1c.01-.021.036-.03.049-.051a.17.17 0 0 0 .025-.049c.011-.034.015-.068.025-.1a.237.237 0 0 1 .025-.049c.008-.011.019-.015.025-.027s.015-.036.027-.051.04-.029.049-.049.011-.07.025-.1c0-.01.019-.015.025-.025.019-.032.028-.07.049-.1s.04-.029.051-.049.009-.07.025-.1.036-.032.049-.051.013-.034.025-.049.038-.032.051-.051a.635.635 0 0 0 .049-.1c.009-.025.013-.051.025-.076.006-.009.021-.013.025-.025.028-.067.045-.137.074-.2.006-.011.019-.015.025-.027s.015-.034.026-.049.019-.015.025-.027a1.819 1.819 0 0 1 .074-.177c.025-.04.07-.065.1-.1a.142.142 0 0 0 .025-.051c.011-.04.011-.086.025-.126 0-.011.019-.015.025-.027s.009-.053.025-.076.059-.044.076-.076 0-.09.025-.127.081-.08.112-.127a.95.95 0 0 0 .036-.1c.006-.011.019-.015.026-.027a.547.547 0 0 1 .025-.049c.013-.019.036-.032.049-.051s.028-.07.049-.1.057-.046.075-.076a.5.5 0 0 0 .025-.076c.006-.011.021-.015.025-.025.011-.025.013-.053.025-.076s.019-.017.026-.027.013-.036.025-.051.055-.046.074-.076c.036-.051.053-.114.087-.166.011-.017.04-.019.051-.038.019-.04.021-.086.036-.127l.013-.011a.5.5 0 0 0 .062-.04c.013-.013.015-.034.025-.05s.019-.015.025-.027.013-.036.025-.051a1.281 1.281 0 0 0 .1-.1c.025-.038.025-.089.051-.127s.07-.065.1-.1.038-.078.062-.114l.025-.013a.343.343 0 0 0 .062-.076 1.13 1.13 0 0 0 .076-.152c.009-.025.013-.051.025-.076l.011-.013c.021-.013.047-.019.062-.038s.021-.053.038-.076.028-.015.038-.027.021-.044.038-.063.036-.023.049-.038.021-.053.038-.076c.025-.038.061-.067.087-.1s.023-.051.038-.076a.479.479 0 0 1 .062-.089c.017-.017.045-.021.062-.038s.013-.036.025-.051a.142.142 0 0 1 .038-.038c.015-.011.034-.015.049-.027a.12.12 0 0 0 .038-.038c.013-.023.009-.055.025-.076.036-.048.085-.084.125-.128a.5.5 0 0 0 .038-.051c.013-.017.023-.034.038-.051s.053-.048.074-.076c.034-.044.053-.1.087-.139.017-.019.047-.021.064-.04s.013-.034.025-.049.036-.032.049-.051.013-.036.025-.051.036-.032.051-.051.013-.034.025-.049a.155.155 0 0 1 .038-.04.547.547 0 0 0 .049-.025.178.178 0 0 0 .038-.038c.011-.015.013-.036.025-.051a.146.146 0 0 1 .038-.038c.023-.015.055-.019.076-.038s.021-.053.036-.078a.183.183 0 0 1 .038-.038.512.512 0 0 1 .076-.025l.013-.013a.9.9 0 0 1 .087-.141c.019-.021.051-.021.076-.038.008-.006.006-.019.011-.025.04-.046.087-.082.125-.128.013-.015.013-.036.025-.051a.409.409 0 0 1 .062-.065c.015-.011.036-.013.051-.025.036-.03.064-.072.1-.1.017-.015.045-.019.062-.038s.017-.057.036-.076.053-.023.075-.038.015-.019.026-.027.036-.013.049-.025c.036-.03.062-.074.1-.1.021-.015.051-.013.076-.027a.363.363 0 0 0 .087-.063c.017-.019.019-.048.038-.065s.07-.038.1-.065.028-.048.049-.063c.038-.029.087-.038.127-.065.008-.006.006-.017.011-.025a.817.817 0 0 1 .113-.116c.021-.015.053-.009.074-.025.064-.046.115-.107.176-.154.015-.011.036-.013.051-.025s.03-.038.049-.051.034-.015.051-.027.015-.017.025-.025.034-.015.049-.027.03-.038.051-.049c.047-.03.1-.05.149-.078.011-.006.015-.019.027-.025a.712.712 0 0 1 .1-.053.592.592 0 0 0 .076-.025c.019-.013.03-.038.049-.051s.07-.029.1-.051.026-.049.049-.065c.038-.025.089-.027.127-.051.023-.015.026-.048.049-.063a.915.915 0 0 1 .127-.051c.009-.006.013-.019.025-.027s.034-.015.049-.025.015-.019.027-.027.034-.015.049-.025.015-.021.025-.027c.032-.013.068-.013.1-.025a1 1 0 0 1 .125-.051c.017-.006.034.015.049.011s-.006-.019 0-.025a.731.731 0 0 1 .076-.04c.011-.006.015-.019.025-.025s.036-.015.051-.027.013-.021.025-.025c.042-.013.085-.013.127-.027.011 0 .015-.019.025-.025s.034-.015.049-.027.015-.019.026-.025a.152.152 0 0 1 .049-.027c.055-.013.11-.012.164-.027.013 0 .023-.019.038-.025s.051-.015.074-.027.015-.019.025-.025c.034-.021.07-.032.1-.051.01-.008.013-.021.025-.027.057-.021.119-.03.176-.051.036-.013.066-.036.1-.051a.359.359 0 0 1 .076-.027c.049-.011.1-.015.151-.027.066-.015.134-.03.2-.051.043-.013.083-.038.125-.051s.068-.015.1-.027c.017-.006.03-.021.049-.027.108-.021.219-.027.327-.051.036-.009.064-.04.1-.051a.457.457 0 0 1 .1-.027c.083-.013.168-.013.251-.029.051-.008.1-.032.151-.038.034 0 .068.013.1.012a.407.407 0 0 0 .1-.027c.017-.006.03-.021.049-.025.076-.015.151-.015.227-.027a.659.659 0 0 1 .1-.027c.138-.011.276-.015.416-.015s.276 0 .416.008c.013 0 .025.015.038.013s.04-.027.062-.027.049.027.076.025.074-.025.113-.025.057.021.087.025.034-.013.051-.013.015.013.025.011c.03 0 .059-.023.089-.025a.18.18 0 0 1 .062.011 1.035 1.035 0 0 0 .127.049c.1.017.2.01.3.023.019 0 .032.021.051.025.1.021.2.029.3.05a2.373 2.373 0 0 1 .276.074c.011 0 .015.021.026.025.032.013.068.013.1.025s.034.019.051.025a.96.96 0 0 1 .1.025.2.2 0 0 1 .051.038c.017.011.03.03.051.036.074.027.155.03.227.063.025.009.028.049.051.063.055.032.121.044.176.074.021.012.034.036.051.049l.026.013c.019.019.026.049.049.063a.611.611 0 0 0 .1.025.182.182 0 0 1 .051.025c.026.023.049.051.076.076l.025.011a.331.331 0 0 1 .051.051c.013.015.024.034.038.05.045.048.091.1.14.139.015.011.036.013.051.025a.9.9 0 0 1 .113.112c.013.015.015.036.027.051s.036.03.051.049c.025.036.036.082.062.114s.049.017.064.038a1.209 1.209 0 0 1 .051.126c.011.021.036.032.051.051s.013.034.025.05.038.03.051.051c.03.047.049.1.078.15.006.011.019.015.025.025a.822.822 0 0 1 .051.128c.011.032.013.069.026.1a1.15 1.15 0 0 0 .078.152c.006.01.017.013.025.025a.182.182 0 0 1 .026.049c.011.051.011.1.025.152 0 .011.021.015.026.025.011.025.015.051.026.076a1 1 0 0 1 .051.1c.026.133.03.272.053.405a1.223 1.223 0 0 0 .051.2c0 .013.025.013.027.027.009.1.019.411.028.506 0 .011.025.013.025.025.008.091.015.322.017.481s0 .322-.009.481c0 .013-.013.025-.011.038s.021.042.025.063-.009.017-.011.027c-.011.091-.011.186-.023.278-.006.036-.023.069-.025.1-.013.177-.008.356-.021.533 0 .019-.023.032-.025.049-.013.076-.013.154-.025.228s-.028.171-.049.255c0 .017-.019.032-.025.049-.026.1-.053.2-.072.306s-.028.2-.049.3c0 .017-.019.032-.025.05-.026.084-.051.169-.074.255-.017.067-.03.135-.049.2a1.18 1.18 0 0 1-.06.19c-.009.019-.043.019-.051.038s.006.059 0 .088a1.618 1.618 0 0 1-.036.192c0 .011-.019.015-.026.025s-.013.034-.025.051-.021.013-.025.025c-.021.057-.03.12-.049.179-.006.017-.019.032-.025.049-.026.076-.047.154-.074.228-.006.019-.019.034-.025.051-.019.059-.027.12-.049.177-.028.072-.072.135-.1.206-.013.03-.011.068-.025.1 0 .011-.017.015-.025.025-.019.034-.03.07-.049.1-.006.01-.019.015-.025.025a.211.211 0 0 0-.025.051c-.011.032-.011.068-.025.1-.006.011-.021.015-.025.027-.03.067-.047.137-.076.2 0 .009-.019.015-.025.025-.011.025-.013.051-.025.076s-.019.015-.025.027-.013.051-.025.076c-.006.01-.019.015-.025.025s-.015.036-.025.051-.021.013-.026.025c-.011.032-.013.069-.023.1a.244.244 0 0 1-.025.049 1.034 1.034 0 0 0-.089.116c-.019.034-.017.08-.036.114s-.053.048-.076.076a.433.433 0 0 0-.025.051c-.008.01-.019.013-.025.025-.025.049-.034.1-.062.152s-.062.065-.087.1-.03.069-.049.1c-.008.012-.019.015-.025.027-.021.032-.032.068-.051.1-.006.011-.019.015-.025.027s-.009.053-.025.076-.055.048-.076.076a.567.567 0 0 0-.049.1.348.348 0 0 1-.025.074c-.026.04-.074.063-.1.1a.928.928 0 0 0-.049.128l-.013.013-.025.011c-.013.015-.023.036-.038.051-.03.036-.07.065-.1.1-.013.015-.015.034-.026.051s-.017.015-.025.025 0 .027-.011.038-.036.042-.051.065a.828.828 0 0 1-.049.087c-.006.008-.019.008-.025.013a.4.4 0 0 0-.062.076c-.013.025-.008.057-.025.076-.076.093-.174.166-.25.257-.025.029-.028.07-.051.1a.253.253 0 0 1-.062.065c-.019.015-.045.021-.062.038s-.013.036-.025.051-.053.048-.074.076-.015.034-.026.051-.019.013-.025.025-.013.051-.025.076l-.011.013c-.025.011-.053.011-.076.025a.11.11 0 0 0-.038.04c-.011.015-.013.036-.025.05a.4.4 0 0 1-.062.065c-.019.015-.045.021-.062.038s-.013.036-.026.051a.642.642 0 0 1-.087.089l-.025.013c-.015.013-.023.034-.038.049a.5.5 0 0 1-.062.065c-.019.015-.045.021-.062.038s-.013.036-.025.051a.179.179 0 0 1-.038.038c-.015.011-.036.013-.049.027-.03.025-.045.063-.075.087s-.053.023-.076.04a.761.761 0 0 0-.074.063.526.526 0 0 0-.051.04c-.051.047-.1.1-.149.152-.015.013-.036.015-.051.027s-.028.04-.049.049a.637.637 0 0 1-.1.027l-.013.013c-.01.015-.013.036-.025.051s-.021.032-.038.038c-.081.025-.17.029-.251.051-.036.011-.064.042-.1.051-.066.017-.136.011-.2.028-.028.006-.049.032-.076.038s-.034-.013-.051-.011c-.089 0-.176.013-.264.013s-.176 0-.264-.01c-.027 0-.049-.021-.076-.025-.049-.011-.1-.011-.151-.025a.714.714 0 0 1-.125-.049c-.011-.006-.015-.021-.026-.025s-.051-.013-.076-.025-.015-.021-.025-.027c-.025-.012-.053-.013-.077-.025a.864.864 0 0 1-.151-.074c-.057-.044-.1-.1-.151-.15l-.027-.013a1.3 1.3 0 0 1-.126-.164 1.148 1.148 0 0 1-.038-.114c-.006-.009-.021-.013-.026-.025a.974.974 0 0 1-.076-.177 1.619 1.619 0 0 1-.053-.253c0-.009.013-.015.013-.025a.512.512 0 0 1-.013-.051c0-.013.015-.025.011-.038-.006-.03-.032-.057-.038-.087a3.437 3.437 0 0 1-.042-.367.386.386 0 0 1 .013-.114c.011-.053.042-.1.049-.152.017-.152.009-.3.021-.457s.028-.318.047-.432c0-.011.019-.015.025-.025s.015-.036.025-.051.021-.015.026-.025c.019-.05.028-.1.049-.152 0-.011.019-.015.025-.027.019-.032.03-.068.049-.1.006-.011.019-.017.025-.027a.129.129 0 0 0 .025-.051c.011-.04.013-.084.025-.126a.161.161 0 0 1 .025-.051c.023-.029.06-.044.076-.076a1.746 1.746 0 0 0 .049-.179c0-.01.019-.015.025-.025a.477.477 0 0 1 .038-.076c.017-.021.049-.027.062-.051a.907.907 0 0 0 .025-.127c0-.011.019-.015.025-.025.015-.032.019-.07.036-.1s.04-.029.051-.051c.019-.038.021-.086.036-.126.006-.011.019-.015.025-.027.028-.048.047-.1.076-.152.006-.01.021-.013.025-.025.013-.032.009-.07.025-.1s.038-.03.049-.049.032-.07.051-.1c.006-.01.021-.013.025-.025.013-.049.01-.1.025-.152a.366.366 0 0 1 .049-.1c.013-.019.04-.028.049-.051.025-.048.028-.1.049-.152.006-.011.019-.015.025-.025.019-.032.032-.07.051-.1.006-.009.019-.015.024-.025.015-.032.023-.069.036-.1s.04-.086.062-.126c.006-.011.019-.015.025-.027a.721.721 0 0 0 .051-.1.493.493 0 0 1 .011-.051.815.815 0 0 0 .049-.089c.026-.078.036-.162.062-.242 0-.012.021-.013.025-.025a1.171 1.171 0 0 0 .049-.177c.013-.068.009-.137.023-.2 0-.011.019-.015.026-.025a.143.143 0 0 0 .025-.051 2.5 2.5 0 0 0 .009-.291c0-.1-.006-.2-.015-.291a.83.83 0 0 0-.026-.152 1.021 1.021 0 0 0-.051-.152c0-.011-.021-.015-.025-.025a.865.865 0 0 0-.026-.1c-.019-.032-.053-.049-.076-.076l-.013-.025a.22.22 0 0 0-.051-.051.706.706 0 0 0-.127-.063c-.057-.021-.119-.03-.176-.05-.019-.006-.032-.021-.051-.025-.066-.011-.134-.011-.2-.023-.009 0-.017-.013-.027-.013s-.015.012-.025.013c-.076.011-.153.013-.227.027a1.428 1.428 0 0 0-.2.053c-.011 0-.013.023-.026.025-.106.025-.217.034-.325.053a.482.482 0 0 0-.1.027c-.009 0-.015.019-.025.025s-.034.015-.049.027-.015.019-.026.025-.051.023-.074.04l-.013.025c-.015.019-.036.032-.049.051s-.023.044-.038.063l-.025.013a.534.534 0 0 0-.038.051.492.492 0 0 1-.062.063c-.019.015-.045.021-.062.038s-.013.036-.025.051a.784.784 0 0 1-.089.089l-.025.013c-.015.015-.023.034-.038.051a.323.323 0 0 1-.062.063c-.023.017-.053.023-.076.04a.236.236 0 0 0-.036.05c-.011.017-.015.036-.025.051a.176.176 0 0 1-.038.038c-.015.011-.036.015-.051.027a.646.646 0 0 0-.049.051l-.024.011a.658.658 0 0 0-.051.051.5.5 0 0 1-.038.051c-.015.019-.034.032-.049.051s-.021.046-.038.063c-.042.044-.1.072-.138.116-.013.013-.013.034-.025.049s-.019.017-.025.027a.958.958 0 0 1-.062.114c-.011.015-.034.015-.049.027a.121.121 0 0 0-.038.038c-.015.019-.019.048-.038.063s-.053.021-.076.04a.157.157 0 0 0-.036.049c-.011.017-.013.036-.027.051-.028.038-.068.067-.1.1-.017.019-.021.046-.038.063s-.045.021-.062.038-.013.036-.025.051-.036.032-.051.051l-.011.025c-.028.029-.062.048-.089.078-.007.009-.006.026-.011.038a.922.922 0 0 1-.062.09c-.036.044-.079.082-.113.128-.015.023-.019.053-.036.076s-.043.032-.062.051a.344.344 0 0 0-.062.076.5.5 0 0 0-.025.076l-.013.013c-.025.013-.051.023-.076.038a.076.076 0 0 0-.025.025c-.023.042-.038.088-.062.127-.006.011-.017.015-.025.027s-.013.034-.025.049-.036.032-.051.051c-.023.036-.034.08-.06.114-.013.015-.036.015-.051.027a.145.145 0 0 0-.038.038c-.017.032-.017.07-.036.1s-.036.025-.051.04a.4.4 0 0 0-.062.063c-.021.032-.026.072-.049.1s-.072.063-.1.1-.028.07-.049.1-.036.032-.049.051-.015.034-.026.049-.019.015-.025.027-.011.053-.025.076-.034.032-.049.051l-.013.025c-.019.019-.049.029-.062.051s-.006.072-.025.1c-.032.051-.091.08-.125.128-.021.03-.017.072-.036.1s-.049.029-.062.051a1.285 1.285 0 0 0-.051.127c-.006.009-.019.015-.025.025-.015.025-.021.053-.038.076s-.036.032-.049.051a.36.36 0 0 0-.038.076c-.011.032-.011.069-.025.1 0 .011-.017.015-.025.027s-.013.036-.025.051a.98.98 0 0 0-.076.076c-.013.023-.013.051-.025.076a.7.7 0 0 1-.049.1c-.006.011-.019.015-.025.027-.036.074-.062.154-.1.228-.006.011-.021.015-.026.027s-.009.051-.025.074-.04.03-.049.051a.9.9 0 0 0-.025.1.241.241 0 0 1-.024.049c-.008.011-.021.015-.025.027-.034.078-.053.164-.087.242-.011.027-.036.048-.049.076-.032.07-.062.143-.087.215-.013.042-.009.088-.025.128s-.051.1-.074.152c-.011.025-.013.053-.025.076s-.021.015-.025.027c-.013.042-.009.086-.025.128-.026.07-.077.129-.1.2-.026.089-.026.186-.047.278 0 .019-.019.032-.025.051-.019.067-.03.137-.049.2-.006.017-.019.032-.025.049a.665.665 0 0 0-.025.1c-.009.059-.011.118-.025.177s-.038.118-.049.179-.008.152-.023.228c0 .012-.023.013-.025.025-.015.1-.011.2-.023.3-.008.065-.034.126-.038.19 0 .027.026.049.026.076s-.025.04-.025.063.023.032.025.051-.011.015-.011.025q-.011.114-.011.228c0 .076.006.152.015.228 0 .01.013.015.013.025s-.023.042-.025.063.011.027.011.038c.013.135.013.272.028.405.013.11.032.221.053.329.013.068.04.135.053.2.023.126.028.253.053.379 0 .011.019.015.025.027.021.03.03.069.051.1s.042.03.051.051.011.07.027.1.038.03.051.051.03.069.051.1c.006.01.019.013.025.025s.015.034.027.049.019.015.025.025.015.036.026.051.038.03.051.051c.034.055.051.122.089.175.023.032.062.048.089.076.011.013.013.036.025.051s.036.03.051.049l.013.025c.019.019.049.029.062.051s.013.069.027.1a.12.12 0 0 0 .038.038c.015.01.036.013.051.025a.137.137 0 0 1 .038.036c.015.025.023.053.038.076l.026.013a.552.552 0 0 1 .089.088c.015.023.009.055.025.076a.472.472 0 0 0 .089.074c.017.015.036.025.051.038a.991.991 0 0 1 .089.09c.011.013.013.036.026.049a.927.927 0 0 0 .113.114c.019.015.045.019.062.036s.023.046.04.063.034.015.049.027a.178.178 0 0 1 .04.036c.009.015.011.038.025.051a2.861 2.861 0 0 0 .215.213c.013.013.036.013.051.025s.032.046.051.063a.514.514 0 0 0 .051.038c.021.021.043.04.062.063l.013.025c.026.029.062.048.089.076.011.013.013.036.025.051a.291.291 0 0 0 .064.063c.023.013.053.01.076.025a.28.28 0 0 1 .062.063l.013.025a.759.759 0 0 0 .076.063c.045.032.1.055.14.088.008.006.006.021.013.025.023.013.055.009.076.025s0 .027 0 .038a.1.1 0 0 0 .026.051.12.12 0 0 0 .049.025c.034.012.068.013.1.025l.011.012a.432.432 0 0 0 .026.051c.023.029.053.049.076.076l.013.025c.015.015.034.023.051.038s.03.038.051.049c.047.03.1.044.151.076.021.013.032.044.051.063a.605.605 0 0 0 .076.063c.015.01.034.013.051.025s.015.019.025.025c.032.019.068.03.1.049.009.006.015.019.025.025s.036.013.051.025.032.036.049.051a.521.521 0 0 1 .064.038c.017.017.017.05.038.063s.068.011.1.025c.01 0 .015.019.025.025.025.015.053.021.076.038a.61.61 0 0 1 .051.049 1.929 1.929 0 0 0 .178.15c.03.021.07.019.1.038s.032.036.051.049.036.015.051.025.015.019.025.025.036.013.051.027.047.053.076.074.036.013.051.025.028.042.051.051c.04.015.087.008.127.025.021.008.03.036.049.049s.036.015.051.025.015.021.025.025c.025.013.053.013.076.025s.017.019.026.027a.546.546 0 0 1 .076.036c.021.017.028.049.051.063a.939.939 0 0 0 .127.05c.009.006.015.021.025.027.025.011.053.01.076.025s.03.038.051.049.051.013.076.025.015.019.025.025.036.015.051.025.015.023.026.027a.87.87 0 0 1 .1.025c.021.01.03.038.051.05s.053.011.076.025c.045.029.079.074.126.1.03.017.068.011.1.025.011 0 .015.019.026.025.032.019.07.029.1.049s.045.059.076.076.07.011.1.025c.011 0 .015.019.024.025.032.019.07.03.1.05.009.006.015.021.025.025.025.011.053.013.076.025s.015.021.026.027c.047.023.1.036.151.061.025.013.04.038.062.051s.078.021.113.036c.011.006.015.021.026.025.04.021.085.03.127.051.009 0 .013.019.025.025.04.017.085.019.127.036.011.006.015.019.025.025.042.025.085.04.127.063.009.006.015.021.025.025.042.021.087.03.127.051.011 0 .015.019.026.025.1.046.206.072.3.124.032.017.049.053.076.076s.036.013.051.025.015.021.025.025c.034.013.068.013.1.025l.011.013c.015.019.019.048.04.063.038.025.085.029.125.049a.813.813 0 0 1 .14.088c.017.013.021.04.038.049.04.025.087.029.127.051s.047.046.076.061.087.03.127.051c.011.006.015.017.026.025s.034.013.049.025.032.038.051.049a.64.64 0 0 0 .1.051.726.726 0 0 1 .076.025.4.4 0 0 1 .087.063c.008.006.006.019.013.025.032.017.07.019.1.036s.032.036.051.051.036.013.049.025.047.055.077.076.068.029.1.049.049.046.076.063a1.215 1.215 0 0 1 .14.074c.021.019.017.059.038.076a.717.717 0 0 0 .127.063c.009.006.015.019.025.025a.411.411 0 0 1 .051.025c.019.015.032.036.051.051s.036.013.051.025.049.051.076.074l.025.013c.019.019.028.048.051.063.038.025.089.025.127.049s.047.053.076.076c.011.008.026 0 .038.011.066.047.125.1.191.15.023.017.051.023.076.038.009.006.015.019.025.025s.036.013.051.025.032.038.051.051.053.019.076.036.03.046.051.065.036.011.051.025c.053.046.095.107.151.15a1.01 1.01 0 0 0 .1.05c.011.006.017.019.026.025s.036.015.051.027a.17.17 0 0 1 .038.036c.015.021.019.049.038.063s.055.008.076.027c.1.084.18.192.28.276.021.017.053.011.076.025a.147.147 0 0 1 .038.038c.015.019.019.046.038.063s.053.021.076.036c.008.006.008.019.013.027a2.861 2.861 0 0 0 .215.213c.034.029.079.038.113.063.008.006.006.019.013.025s.036.023.051.038.032.044.051.063.062.048.089.076c.011.013.013.034.025.049a.183.183 0 0 0 .038.038c.015.011.038.013.051.025.045.042.079.1.127.139s.079.046.113.074l.013.027c.019.019.045.029.064.049s.023.044.038.063l.025.013c.021.023.028.055.051.074s.081.046.113.076c.015.013.015.036.026.051a.956.956 0 0 0 .089.088c.008.006.021 0 .025.011.013.025.009.055.026.076s.027 0 .038 0a.117.117 0 0 1 .051.025c.013.013.013.036.025.051.047.053.106.1.153.15.011.013.013.034.025.05s.036.032.051.051.013.036.026.051c.072.078.155.146.227.224.013.015.015.036.026.051a.644.644 0 0 0 .089.088c.008.008.021.006.025.013.027.04.04.086.064.126.013.021.036.032.051.051s.013.034.026.049.053.048.076.076.013.036.025.049c.023.029.057.046.076.076s.011.055.026.076c.036.048.093.076.127.126a1.225 1.225 0 0 1 .051.126c.013.021.038.032.051.051s.015.034.026.049.019.015.025.025.015.036.026.051.036.03.051.049.013.036.025.051.038.03.051.049.028.07.051.1.074.063.1.1c.015.023.011.053.025.076s.036.032.051.049.015.036.026.051.038.03.051.049c.021.04.03.088.051.127.006.01.019.015.025.025.019.032.032.068.051.1.006.011.021.015.026.025.019.042.03.088.051.128.006.009.019.015.025.025.019.032.032.069.051.1.006.01.021.015.026.025.011.025.013.051.025.076a.61.61 0 0 0 .064.114c.013.017.042.019.051.038.028.053.038.12.064.177 0 .009.017.013.025.025s.015.034.026.049.019.015.025.027c.021.04.028.086.051.126.013.021.04.03.051.049a1.053 1.053 0 0 1 .077.177c.013.042.009.088.025.127.036.088.093.165.128.253.023.055.03.118.053.175a.614.614 0 0 0 .049.1c.008.011.023.015.026.027.023.065.03.135.051.2a.52.52 0 0 0 .053.1c.006.01.019.015.025.025a.907.907 0 0 1 .051.152c.015.067.008.137.027.2.026.089.081.166.1.253.038.15.047.3.077.457.006.017.019.032.027.049a2.038 2.038 0 0 1 .077.228c.015.067.013.135.026.2a1.509 1.509 0 0 0 .051.2c0 .012.021.013.026.025a.257.257 0 0 1 .025.076c.023.133.034.27.055.4 0 .009.013.017.011.027s-.025.032-.025.049a1.119 1.119 0 0 0 .04.127c.036.185.068.369.093.558 0 .025-.013.05-.013.074-.001.152.016.287.022.422zm54.07-17.678c.164-.807-1.682-.891-1.674-.089.004.641 1.534.793 1.674.089zm3.713.186c.251 1.218-.686 1.981-1.54 2.533-2.5 1.6-4.669.761-6.441-1.343-.671-.814-.584-3.745.255-4.6a3.9 3.9 0 0 1 1.162-.91 4.581 4.581 0 0 1 3.839.084 4.956 4.956 0 0 1 2.5 3.416c.049.238.17.56.225.82zm-49.573 6.542c-.026 0-.051-.013-.076-.013a.314.314 0 0 0-.076.013c-.011.006-.015.021-.025.027-.025.011-.053.013-.076.025s-.015.021-.025.027c-.049.029-.1.048-.151.076a.155.155 0 0 0-.038.04c-.011.015-.013.034-.025.049s-.036.032-.049.051a.165.165 0 0 0-.026.051.821.821 0 0 0-.036.19.5.5 0 0 0 .04.164c0 .012.019.015.025.027s.015.034.026.049a.354.354 0 0 0 .089.088.838.838 0 0 0 .24.112c.028.008.057-.025.087-.025s.049.021.076.025a.05.05 0 0 0 .026-.013c.017-.015.028-.038.049-.051.468-.288.802-.919-.056-.911zm-.038 5.043c-.03-.023-.043-.067-.076-.088s-.087-.027-.127-.049-.047-.046-.076-.063a.29.29 0 0 0-.076-.025c-.051-.011-.1-.011-.151-.025-.011 0-.015-.021-.026-.025-.032-.013-.068-.012-.1-.025-.011 0-.015-.019-.026-.025a.17.17 0 0 0-.049-.025c-.034-.011-.07-.011-.1-.025-.009 0-.013-.023-.025-.025-.066-.015-.136-.01-.2-.025-.011 0-.013-.021-.024-.025-.117-.046-.238-.078-.353-.124-.011 0-.015-.019-.026-.025a3.548 3.548 0 0 1-1.712-1.9 5.4 5.4 0 0 1 .193-4.31c.278-.668 1.045-1.037 1.5-1.583a1.288 1.288 0 0 0 .1-.1 1.017 1.017 0 0 0 .049-.126c.006-.011.019-.015.025-.027s.023-.051.038-.076c.006-.009.017-.015.025-.025s.034-.03.038-.051a.8.8 0 0 0 .011-.166.476.476 0 0 0-.013-.164.247.247 0 0 0-.089-.088c-.015-.013-.036-.015-.051-.027s-.028-.044-.051-.049c-.665-.181-2.233-.084-2.675.592a5.45 5.45 0 0 0-.816 1.931 30.08 30.08 0 0 0-.312 6.9c.011 1.505 1.238 7.476 3.773 6.5.011 0 .015-.021.026-.025a1.311 1.311 0 0 0 .149-.04c.025-.011.028-.048.051-.063a1 1 0 0 1 .125-.051c.011-.006.015-.021.025-.027.04-.021.085-.031.127-.051.009-.006.013-.019.025-.025.032-.021.068-.032.1-.051.009-.008.015-.019.025-.027a.636.636 0 0 0 .1-.051c.055-.046.1-.1.151-.152l.025-.013c.026-.029.045-.063.074-.09s.036-.013.051-.027.03-.044.049-.063.047-.029.062-.051c.032-.048.042-.107.076-.152a.8.8 0 0 1 .111-.116c.008-.006.021 0 .025-.011.017-.025.021-.055.038-.076.028-.038.074-.063.1-.1 1.005-1.564 1.604-4.089-.113-5.37zm53.186 16.609a8.806 8.806 0 0 1 .047-3.549c.7-4.4 1.485-8.965 2.075-13.423.24-1.827-1.315.716-1.6.9-1.5.984-2.211.936-3.6-1.265-.471-.744-1.287-1.155-1.712-.063-.576 1.395-1.918 2.934-3.5 1.547-.586-.5-1.636-2.42-2.666-1.448-1.974 1.9-3.629 5.313-7.24 2.729-.476-.339-.865-1.128-1.349-.508a16.6 16.6 0 0 1-1.511 1.38c-1.109 1.134-4.183 2.891-5.7 2.236-.775-.333-1.179-1.273-2.065-.377a2.483 2.483 0 0 1-1.406.658c-3.582.794-5.338-8.925-6.715-1.1a3.642 3.642 0 0 1-1.651 2.66c-.85.337-1.744-1.284-1.991-1.948-.208-.571-1.043-5.147-2.112-3.05-.937 1.92-.378 4.106-1.136 6.042a1.592 1.592 0 0 1-2.764.478 6.721 6.721 0 0 1-.89-4.352c.049-1.191-.3-3.7-1.7-4.055-.79-.186-.1 1.673-.085 2.1.172 3.694-.739 6.479-3.835 8.418-.021.011-.03.038-.051.049-.047.029-.1.04-.149.065-.011.006-.015.021-.025.027-.042.023-.083.046-.127.065s-.068.013-.1.025a.176.176 0 0 0-.049.027c-.011.006-.015.019-.026.025a1.114 1.114 0 0 1-.2.1c-.072.027-.151.03-.225.053-.011 0-.015.019-.026.025a.488.488 0 0 1-.1.051c-.049.021-.1.03-.151.053-.009 0-.013.019-.025.025s-.051.013-.076.027c-.009 0-.013.019-.025.025a.707.707 0 0 1-.125.051c-2.847.881-4.835-2.921-5.513-5.164a36.538 36.538 0 0 1-1.277-5.9 30.125 30.125 0 0 1-.11-7.7c.3-2.495 1.648-5.846 4.342-6.458 4.837-1.1 6.843 3.642 7.265 7.256.24 2.044 1.139 1.911 2.552 2.959a3.563 3.563 0 0 1 1.281 1.321c.493 1.338 1.132-.978 1.323-1.328a5.174 5.174 0 0 1 .784-1.172c2.63-2.689 3.764 2.536 4.9 2.053 1.228-.533 1.149-1.821 2.12-2.525 3.522-2.613 3.624 5.286 6.339 6.361 1.266.529 1.493-2.573 1.7-3.294.973-3.362 2.706-7.986 6.282-9.21 1.982-.681 5.067.08 6.244 1.914.839 1.305 1.2 2.746-.212 3.614-2.093 1.313-2.477-.807-4.111-1.031a2.026 2.026 0 0 0-1.406.289c-1.347.79-4.009 5.321-2.981 6.751.686.953 1.553.287 2.3-.183 1.022-.63 1.532-1.793 2.256-2.717.539-.691 1.755-2.04 2.7-2.048 2.207-.017.567 3.848 2.218 3.834l4.177-4.961c1.547-.892 1.974-.331 2.649 1.031a2.627 2.627 0 0 0 .812.868c2.126 1.321 1.585-4.578 4.48-3.227 1.236.55 2.386 3.364 3.008 3.334.408-.017 2.1-4.087 2.505-4.708 1-1.545 2.141-1.541 2.721.384.784 2.533.548 5.412.438 8.03-.231 5.5-.516 11.84 1.037 17.252.387 1.288 1.933 3.037 1.268 4.6-.535 1.252-2.758.477-3.586-.061-1.779-1.204-3.428-2.588-3.919-4.867zm30.895-27.181c.382 1.277-.652 3.132-1.517 4.017-.138.143-.234.344-.372.485-.758.778-1.512 1.579-2.324 2.285a28.125 28.125 0 0 1-3.252 2.51c-1.695 1.033-4.531 1.891-5.853-.223-.321-.514-1.364-1.281-1.916-.592a11.338 11.338 0 0 1-2.815 2.188 3.946 3.946 0 0 1-4.28-.12c-2.783-2.215-2.938-8.253-.8-10.98a19.158 19.158 0 0 1 2.182-2.666c.23-.2.425-.43.65-.637 1.61-1.5 4.478-3.543 6.7-2.283 2.367 1.29 1.238 4.032-1.022 4.6-.176.044-.327.063-.5.1a7.516 7.516 0 0 0-4.746 2.913c-.729 1.033-1.746 2.94-.561 4 1.451 1.3 2.859-1.077 3.318-2.192.576-1.423 2.292-4.335 4.193-2.845 1.092.837.552 1.827.965 2.881.193.485.484 1.115 1.005 1.3 2.792.976 3.773-3.136 4.958-4.816 1.05-1.494 2.4-2.674 4.327-1.971 1.142.399 1.319.95 1.659 2.046z" transform="translate(-317.576 -471.749)"/>
</svg>
