<svg xmlns="http://www.w3.org/2000/svg" width="80.831" height="65" viewBox="0 0 80.831 65"><g transform="translate(-7.353 -15.7)"><path d="M8.027,30.543l8.372,3.3V49.994a1.092,1.092,0,0,0,.7,1.019L33.2,57.049a1.083,1.083,0,0,0,.379.072,1.191,1.191,0,0,0,.4-.072l17.448-6.712a1.1,1.1,0,0,0,.722-1.019V33.583l7.7-3.04a1.092,1.092,0,0,0,0-2.039L34.3,19.113a1.092,1.092,0,0,0-.758,0L8.054,28.5a1.092,1.092,0,0,0,0,2.039ZM49.932,48.586,33.585,54.9l-15-5.666V34.711l14.94,5.945a1.191,1.191,0,0,0,.4.072,1.281,1.281,0,0,0,.406-.072l15.607-6.162ZM33.919,21.3l22.428,8.264-22.428,8.85-22.428-8.85Z" transform="translate(0 -0.327)" fill="#b7202e"/><path d="M50.619,21.305a6.876,6.876,0,0,1,5.792-3.3H79.217a7.171,7.171,0,0,1,6.956,7.359V64.344a7.354,7.354,0,0,1-5.359,7.149,1.15,1.15,0,0,0-.843,1.259,1.114,1.114,0,0,0,1.1,1.019,1.136,1.136,0,0,0,.253,0,9.545,9.545,0,0,0,7.037-9.4V25.366A9.418,9.418,0,0,0,79.217,15.7H56.41A9.022,9.022,0,0,0,48.8,20.028a1.193,1.193,0,0,0,.356,1.5,1.052,1.052,0,0,0,1.448-.222Z" transform="translate(-0.173 0)" fill="#b7202e"/><path d="M48.212,58a1.092,1.092,0,0,0-1.092,1.092v6.793a9.148,9.148,0,0,0,9.139,9.13H64.73a1.092,1.092,0,0,0,0-2.183H56.259A6.965,6.965,0,0,1,49.3,65.876V59.083A1.092,1.092,0,0,0,48.212,58Z" transform="translate(-1.508 -1.027)" fill="#b7202e"/><path d="M82.41,67.028a1.687,1.687,0,0,0-.153-1.8l-1.922-2.49,1.8-2.589a1.651,1.651,0,0,0,0-1.8,1.687,1.687,0,0,0-1.624-.8l-3.1.433L76,55.147a1.678,1.678,0,0,0-3.067.09l-1.182,2.9L68.634,57.9A1.678,1.678,0,0,0,67.181,60.6l1.958,2.436-1.8,2.58a1.678,1.678,0,0,0,1.615,2.616l3.1-.433L73.4,70.628a1.687,1.687,0,0,0,1.516.956h.054a1.669,1.669,0,0,0,1.5-1.047l1.182-2.9,3.121.244A1.669,1.669,0,0,0,82.41,67.028Zm-4.926-1.579A1.7,1.7,0,0,0,75.8,66.5l-.9,2.183-.992-2.12A1.678,1.678,0,0,0,72.4,65.6h-.235l-2.328.325,1.326-1.94a1.669,1.669,0,0,0-.054-1.976l-1.416-1.849,2.346.18a1.687,1.687,0,0,0,1.687-1.037l.9-2.183,1.019,2.129a1.678,1.678,0,0,0,1.741.9l2.228-.3L78.287,61.8a1.669,1.669,0,0,0,.054,1.976l1.452,1.858ZM80.515,66.541Z" transform="translate(-1.949 -1.338)" fill="#b7202e"/><path d="M70.272,70.72a1.092,1.092,0,0,0-1.092,1.092V81.88a1.092,1.092,0,0,0,1.723.884l4.06-2.9,4.069,2.9a1.083,1.083,0,0,0,.632.207,1.11,1.11,0,0,0,1.083-1.092V71.812a1.092,1.092,0,0,0-2.183,0v7.939L75.6,77.631a1.1,1.1,0,0,0-1.272,0l-2.968,2.12V71.812A1.092,1.092,0,0,0,70.272,70.72Z" transform="translate(-2.18 -2.271)" fill="#b7202e"/><path d="M62.79,32.8a1.092,1.092,0,0,0-1.083,1.083v2.941H60.1a1.092,1.092,0,0,0,0,2.183h5.413a1.092,1.092,0,0,0,0-2.183H63.882V33.883A1.092,1.092,0,0,0,62.79,32.8Z" transform="translate(-2.454 -0.811)" fill="#b7202e"/><path d="M59.251,51.474a1.065,1.065,0,0,0,.848.415h6.044a1.089,1.089,0,0,0,1.065-1.416L64.5,41.758A1.1,1.1,0,0,0,63.455,41H62.11a1.1,1.1,0,0,0-1.065.848L59,50.554a1.092,1.092,0,0,0,.253.92Zm3.609-7.686,1.8,5.918H61.47Z" transform="translate(-2.427 -1.083)" fill="#b7202e"/><path d="M69.772,34.983h11.4a1.092,1.092,0,0,0,0-2.183h-11.4a1.092,1.092,0,1,0,0,2.183Z" transform="translate(-2.131 -0.869)" fill="#b7202e"/><path d="M69.772,41.683h11.4a1.092,1.092,0,0,0,0-2.183h-11.4a1.092,1.092,0,1,0,0,2.183Z" transform="translate(-2.131 -1.21)" fill="#b7202e"/><path d="M69.772,48.373h11.4a1.092,1.092,0,0,0,0-2.183h-11.4a1.092,1.092,0,0,0,0,2.183Z" transform="translate(-2.131 -1.549)" fill="#b7202e"/></g></svg>