<svg xmlns="http://www.w3.org/2000/svg" width="178.234" height="179.67" viewBox="0 0 178.234 179.67">
    <defs>
        <style>
            .cls-2{fill:#a50c22}
        </style>
    </defs>
    <g id="Group_13942" opacity="0.05">
        <g id="Group_4576">
            <path id="Path_8819" d="M253.884 223.124a3.609 3.609 0 0 1-.393.13c-1.772.213-1.772.213-2.526-1.4-.436-.929-.436-.926-1.49-.841-.866.068-1.732.143-2.593.175a.946.946 0 0 0-1.049.854 17.276 17.276 0 0 1-.513 1.757l-2.148.163c.105-.4.17-.678.255-.954q1.457-4.712 2.921-9.422c.235-.773.24-.8 1.041-.819 1.765-.05 1.307-.383 2.115 1.249 1.307 2.653 2.576 5.329 3.862 7.993.165.345.323.7.516 1.111m-5.9-7.7l-.238.023c-.365 1.289-.736 2.573-1.152 4.023 1.116-.075 2.05-.135 3.137-.21-.618-1.389-1.144-2.628-1.747-3.835" class="cls-2" transform="translate(-166.629 -212.43)"/>
            <path id="Path_8820" d="M249.582 218.064a4.04 4.04 0 1 1 4.1 3.975 3.8 3.8 0 0 1-4.1-3.975m6.08-.228l-.085-.015a4.793 4.793 0 0 0 0-.536 1.932 1.932 0 0 0-3.793-.4 3.479 3.479 0 0 0-.065 2.113 1.91 1.91 0 0 0 1.74 1.434 1.856 1.856 0 0 0 1.887-1.219 9.387 9.387 0 0 0 .318-1.382" class="cls-2" transform="translate(-156.995 -210.749)"/>
            <path id="Path_8821" d="M255.288 222.306c-.646-.148-1.214-.273-1.887-.423.591-2.561 1.169-5.042 1.76-7.6.626.125 1.139.23 1.7.345-.023.34-.04.621-.065 1.039.308-.143.551-.27.806-.375a3.145 3.145 0 0 1 3.147.315 1.865 1.865 0 0 1 .874 1.667 6.851 6.851 0 0 1-.135 1.242c-.313 1.459-.656 2.911-.991 4.366-.038.17-.118.33-.208.593-.608-.145-1.2-.28-1.857-.433.275-1.214.541-2.343.789-3.474a15.077 15.077 0 0 0 .3-1.582c.09-.881-.183-1.332-.859-1.56a1.6 1.6 0 0 0-1.89.623 3.316 3.316 0 0 0-.408.986c-.31 1.214-.591 2.436-.886 3.652-.04.17-.105.338-.2.623" class="cls-2" transform="translate(-151.252 -210.072)"/>
            <path id="Path_8822" d="M248.125 212.6h1.9c.133 1.795 0 3.572 0 5.345 0 1.79-.052 3.575-.08 5.427h-1.973c-.04-3.582.18-7.117.158-10.772" class="cls-2" transform="translate(-159.428 -212.598)"/>
            <path id="Path_8823" d="M351.511 279.658a64.93 64.93 0 0 1-129.424.32 32.658 32.658 0 0 0 32.335 27.048 32.329 32.329 0 0 0 30.46-21.628c-.4-.25-.819-.518-1.244-.779a23.208 23.208 0 0 1-8.5-8.806 16.551 16.551 0 0 1-2.07-7.455 15.037 15.037 0 0 1 2.205-8.389 30.989 30.989 0 0 1 2.859-3.9 39.343 39.343 0 0 0 5.467-7.758 18.826 18.826 0 0 0 2.09-7.643 23.894 23.894 0 0 0-.568-5.61c-.248-1.259-.443-2.528-.651-3.8a5.855 5.855 0 0 1 0-.8 5.832 5.832 0 0 1 .711.365 41.961 41.961 0 0 1 14.008 15.933 29.615 29.615 0 0 1-1.174 28.037 27.168 27.168 0 0 1-6.105 6.646c-.791.638-1.575 1.289-2.353 1.943-.25.21-.466.463-.706.686a1.068 1.068 0 0 0-.255 1.294 32.628 32.628 0 0 0 2.724 5.748c5.174 8.371 12.566 13.64 22.251 15.385a32.46 32.46 0 0 0 35.549-18.915 36.123 36.123 0 0 0 2.4-7.933" class="cls-2" transform="translate(-198.325 -185.733)"/>
            <path id="Path_8824" d="M228.694 266.224c-.21-.728-.406-1.412-.618-2.135a2.309 2.309 0 0 1 .358-.253 3.877 3.877 0 0 0 2.486-4.4 8.68 8.68 0 0 0-.876-3.182 3.323 3.323 0 0 0-1.78-1.687 2.378 2.378 0 0 0-3.294 1.667 22.838 22.838 0 0 0-.361 3.289c-.09 1.309-.1 2.629-.2 3.938a8.6 8.6 0 0 1-.333 1.665 5.165 5.165 0 0 1-7.888 2.834 6.715 6.715 0 0 1-2.616-3.222 11.228 11.228 0 0 1-.761-6.671 6.236 6.236 0 0 1 4.453-4.829 2.589 2.589 0 0 1 .431-.053c.22.716.438 1.414.661 2.133a4.341 4.341 0 0 1-.441.263 4.463 4.463 0 0 0-2.924 3.958 7.618 7.618 0 0 0 1.547 5.727 2.926 2.926 0 0 0 2.586 1.177 2.478 2.478 0 0 0 2.308-1.585 8.128 8.128 0 0 0 .5-2.165c.12-1.309.1-2.631.205-3.943a17.773 17.773 0 0 1 .411-3.1 4.477 4.477 0 0 1 4.253-3.627 4.967 4.967 0 0 1 4.664 2.323 9.785 9.785 0 0 1 1.535 3.987 9.44 9.44 0 0 1 0 3.477 5.456 5.456 0 0 1-4.311 4.413" class="cls-2" transform="translate(-212.595 -153.353)"/>
            <path id="Path_8825" d="M229.327 264.849c-.5.415-.916.771-1.334 1.121l.03.185a5.241 5.241 0 0 1 4.306 2.015 4.085 4.085 0 0 1 .588 4.719c.388.048.693.1 1 .115a5.033 5.033 0 0 1 4.158 2.6 3.749 3.749 0 0 1-.458 4.786 7.547 7.547 0 0 1-.909.859q-3.744 2.94-7.495 5.86c-.118.09-.245.163-.468.318l-1.4-1.757c.278-.23.5-.431.726-.611 2.025-1.587 4.055-3.164 6.075-4.754a14.1 14.1 0 0 0 1.484-1.3 2.174 2.174 0 0 0 .393-2.719 3.351 3.351 0 0 0-4.4-1.645 8.04 8.04 0 0 0-1.53.919c-1.948 1.489-3.872 3.009-5.808 4.516-.255.2-.516.383-.826.616-.481-.616-.914-1.174-1.389-1.785.28-.243.493-.441.723-.618 2.1-1.645 4.2-3.272 6.283-4.929a9.168 9.168 0 0 0 1.474-1.429 2.123 2.123 0 0 0 .058-2.663 3.345 3.345 0 0 0-4.306-1.322 12.123 12.123 0 0 0-2.2 1.369c-1.72 1.294-3.4 2.641-5.1 3.965-.25.2-.516.385-.834.618-.478-.6-.919-1.156-1.434-1.8 3.775-2.954 7.5-5.868 11.3-8.837.443.551.831 1.029 1.287 1.592" class="cls-2" transform="translate(-206.359 -136.444)"/>
            <path id="Path_8826" d="M241.854 226.752c.486.623.9 1.159 1.342 1.727-.528.453-1 .851-1.512 1.294 2.483 3.189 4.924 6.321 7.432 9.537a4.381 4.381 0 0 1-.651.18c-.355.04-.721 0-1.074.07a1.758 1.758 0 0 1-1.875-.846c-1.667-2.228-3.4-4.4-5.119-6.594-.2-.258-.411-.5-.658-.811a10.992 10.992 0 0 0-2.819 2.381c2.784 2.884 5.552 5.76 8.471 8.786-1.011.17-1.845.348-2.686.436-.205.022-.476-.208-.653-.385-.969-.976-1.918-1.975-2.874-2.959-.205-.21-.423-.406-.726-.693-.851.941-1.665 1.835-2.523 2.786.713.663 1.359 1.264 2.008 1.865a.975.975 0 0 1-.974.483c-1.076-.013-2.153-.025-3.229-.045a1.162 1.162 0 0 1-1.229-.716 1.33 1.33 0 0 1 .323-1.479c1.154-1.254 2.283-2.531 3.419-3.8.2-.223.385-.451.651-.761l-1.78-1.837c-2.14 1.837-3.762 4.038-5.735 6.03l-1.66-1.47c1.474-1.64 2.886-3.212 4.321-4.8.255.18.461.323.666.463l.055-.068-.4-.583a63.229 63.229 0 0 1 9.487-8.188" class="cls-2" transform="translate(-189.853 -191.321)"/>
            <path id="Path_8827" d="M258.443 232.64c.065.633.13 1.242.2 1.9-.711.07-1.329.125-1.943.2a3.734 3.734 0 0 0-.781.183.934.934 0 0 0-.741 1.076.976.976 0 0 0 .871.989 9.1 9.1 0 0 0 1.86-.063 6.218 6.218 0 0 0 1.031-.293c-.03.373-.058.681-.085.991a24.691 24.691 0 0 0 2.005-5.44l-6.734-1.882.586-2.1c.268.04.468.048.658.1q2.114.6 4.225 1.209c1.1.315 2.211.628 3.465.984a11.722 11.722 0 0 0-.8-1.026 13.835 13.835 0 0 0-4.571-3.259 1.122 1.122 0 0 1-.826-1.2c0-.591-.088-1.179-.15-1.965a9.893 9.893 0 0 1 4.759 3.179 3.4 3.4 0 0 0-.06-.558c-.26-.761-.521-1.527-.8-2.283a1.815 1.815 0 0 0-1.039-1.272.662.662 0 0 1-.33-.471c-.1-.766-.14-1.537-.22-2.488a20.031 20.031 0 0 1 2.513 1.189 2.442 2.442 0 0 1 .8 1.254c.433 1.337.831 2.684 1.149 4.05.348 1.482.626 2.984.851 4.491.108.706.315 1.192 1.071 1.309a2.529 2.529 0 0 1 .511.238l-.714 2.045c-.633-.2-1.2-.38-1.88-.6-.793 1.872-1.4 3.8-2.11 5.69-.7 1.867-1.372 3.745-2.12 5.8-.591-.819-1.1-1.469-1.54-2.173a1.077 1.077 0 0 1 .023-.749c.235-.761.513-1.514.819-2.4h-1.121a3.533 3.533 0 0 1-3.675-3.395 2.6 2.6 0 0 1 1.189-2.458 5.426 5.426 0 0 1 3.65-.8" class="cls-2" transform="translate(-150.959 -202.73)"/>
            <path id="Path_8828" d="M245.663 224.592a6.808 6.808 0 0 1-.155-.756c-.038-.443-.045-.889-.07-1.409.979-.085 1.895-.165 2.809-.24.748-.058 1.492-.118 2.24-.16a1.671 1.671 0 0 1 1.352.245c.143.125.463.063.7.063 1.409.005 2.816 0 4.218 0h.921a4.84 4.84 0 0 1 .075 2.21c-.613.03-1.2.058-1.872.088-.023.36-.058.676-.058 1-.005 3.349.007 6.7-.015 10.053a1.343 1.343 0 0 0 .621 1.257 3.176 3.176 0 0 1 1.009 3.637 2.85 2.85 0 0 1-2.851 2.038 4.566 4.566 0 0 1-3.1-.986 10.2 10.2 0 0 1-1.3-1.224 29.45 29.45 0 0 1-2.706-3.843 1.289 1.289 0 0 1 1.652.616 10.774 10.774 0 0 0 2.453 2.841 3.447 3.447 0 0 0 3.332.811 1.5 1.5 0 0 0 1.177-1.409 1.161 1.161 0 0 0-1.642-1.237 4.513 4.513 0 0 0-1.036.691 5.438 5.438 0 0 0-.593.646c-.426-.616-.793-1.147-1.152-1.67a2.894 2.894 0 0 1 2.926-1.527c-.073-.446-.41-.563-.663-.708a1.108 1.108 0 0 1-.568-1.116c.028-1.434.012-2.871.007-4.308 0-.318-.025-.641-.048-1.079-1.407.118-2.741.188-4.063.35a1.157 1.157 0 0 0-.941 1.412 4.772 4.772 0 0 0 .415 1.269 10.452 10.452 0 0 0 2.175 2.944c.193.185.408.345.7.6-.345.255-.591.441-.876.651a3.4 3.4 0 0 1-.5-.393c-.851-1-1.745-1.97-2.526-3.026a5.906 5.906 0 0 1-1.194-3.69 2.315 2.315 0 0 1 .651-1.717 1.8 1.8 0 0 1 .909-.508c1.6-.17 3.209-.273 4.909-.408.073.531.143.986.205 1.449a9.031 9.031 0 0 0 .038-3.4l-.854-.05c-.175-.012-.411.04-.526-.053-.536-.436-1.132-.255-1.715-.218-1.252.083-2.5.183-3.755.268-.233.018-.463 0-.719 0" class="cls-2" transform="translate(-163.222 -198.47)"/>
            <path id="Path_8829" d="M263.932 281.788c-.8-2.343-1.52-4.478-2.278-6.7.759-.258 1.422-.488 2.173-.748 2.163 6.271 4.3 12.474 6.469 18.78-.688.235-1.317.453-1.983.683-.22-.523-.4-.954-.631-1.51-.153.265-.26.423-.335.591a5.151 5.151 0 0 1-5.109 2.911 6.363 6.363 0 0 1-4.854-3.012 10.363 10.363 0 0 1-1.747-6.546c.255-4.023 4.7-6.331 7.673-4.686.128.07.273.1.623.238m-6.025 5.254a9.877 9.877 0 0 0 1.815 5.009 3.975 3.975 0 0 0 2.919 1.725 3.635 3.635 0 0 0 3.905-3.923 9.352 9.352 0 0 0-2.06-5.54 3.73 3.73 0 0 0-4.183-1.254c-1.489.528-2.391 1.9-2.4 3.983" class="cls-2" transform="translate(-147.927 -119.786)"/>
            <path id="Path_8830" d="M265.626 275.817l.5 2.616c-.764.16-1.432.293-2.138.438-.113-.163-.225-.315-.408-.573a2.423 2.423 0 0 0-.148.28q-1.438 4.059-2.869 8.116-1.7 4.825-3.394 9.645c-.293.834-.3.834-1.2.861-.451.015-.894.025-1.344.032-.088 0-.178-.02-.388-.043-2.749-6.423-5.52-12.9-8.358-19.528l2.724-.125c2.286 5.76 4.561 11.5 6.874 17.335a3.683 3.683 0 0 0 .275-.521l5.415-16.534c.23-.711.26-.721 1.006-.763.381-.022.764-.033 1.172-.053.055-.285.1-.5.16-.794.676-.125 1.344-.245 2.128-.39" class="cls-2" transform="translate(-162.568 -117.563)"/>
            <path id="Path_8831" d="M282.426 280.809c-.283.25-.478.431-.678.6-.368.305-.736.6-1.144.926-.491-.318-.931-.606-1.4-.911-.365.255-.308.693-.411 1.036a7.49 7.49 0 0 1-3.727 4.618 4.122 4.122 0 0 1-2.493.568 4.021 4.021 0 0 1-3.337-5.355 6.864 6.864 0 0 1 1.474-2.336q1.509-1.66 2.994-3.337a11.423 11.423 0 0 0 .681-.961c-.4-.428-.751-.856-1.161-1.234a1.95 1.95 0 0 0-1.927-.433 5.79 5.79 0 0 0-3.432 2.709 2.457 2.457 0 0 0-.163 1.838c.067.315.183.626.318 1.069-.6.36-1.222.738-1.89 1.141a4.318 4.318 0 0 1-.448-3.94 9.131 9.131 0 0 1 5.765-5.144 3.147 3.147 0 0 1 3.294.876 17.814 17.814 0 0 1 1.427 1.607c.8.969 1.56 1.97 2.376 2.924 1.156 1.354 2.15 2.879 3.888 3.74m-6.876-3.647c-.608.791-1.119 1.49-1.667 2.153-.571.691-1.181 1.349-1.765 2.023a4.471 4.471 0 0 0-.415.583 2.158 2.158 0 0 0 .07 2.591 2.258 2.258 0 0 0 2.578.723 5.017 5.017 0 0 0 3.1-4.245c.043-1.587-.926-2.633-1.9-3.828" class="cls-2" transform="translate(-133.25 -124.054)"/>
            <path id="Path_8832" d="M240.135 280.818l-1.99-.9a4.512 4.512 0 0 1 4.118-2.816 9.948 9.948 0 0 1 5.805 1.534 3.406 3.406 0 0 1 1.647 4.085c-.488 1.968-1.089 3.915-1.615 5.878-.25.949-.5 1.907-.656 2.879a11.947 11.947 0 0 0-.018 1.857c-.521-.14-.946-.248-1.369-.371-.989-.283-1.024-.335-.966-1.369.01-.173.028-.346.048-.558-.416-.16-.726.1-1.034.215a7.445 7.445 0 0 1-6.241-.491 3.864 3.864 0 0 1-1.785-5.2 3.908 3.908 0 0 1 3.621-2.361 22.051 22.051 0 0 1 3.029.225c1.159.11 2.313.263 3.475.363.766.063.829-.01 1.039-.781a2.445 2.445 0 0 0-1.424-3.254 10.31 10.31 0 0 0-2.473-.736 2.6 2.6 0 0 0-2.548.994c-.21.25-.411.5-.663.811m6.316 4.856a3.056 3.056 0 0 0-.416-.1c-1.337-.108-2.676-.223-4.018-.315a12.95 12.95 0 0 0-1.79-.055 2.053 2.053 0 0 0-1.945 1.58 2.083 2.083 0 0 0 .829 2.373 5.079 5.079 0 0 0 1.795.761 4.148 4.148 0 0 0 4.438-1.414 7.482 7.482 0 0 0 1.106-2.829" class="cls-2" transform="translate(-177.887 -115.637)"/>
            <path id="Path_8833" d="M231.649 287.788c-.668-.583-1.2-1.054-1.785-1.565l.678-1.665c-.421-.04-.763-.075-1.111-.11a7.252 7.252 0 0 1-5.55-3.367 3.925 3.925 0 0 1 2.335-5.993 4.375 4.375 0 0 1 3.137.375c.718.36 1.389.809 2.08 1.227 1.049.631 2.08 1.294 3.147 1.9.7.391.773.343 1.272-.26a2.47 2.47 0 0 0 .04-3.627 10.024 10.024 0 0 0-1.73-1.54 2.728 2.728 0 0 0-3.122-.17c-.205.113-.415.218-.688.358-.478-.553-.944-1.081-1.454-1.667a4.387 4.387 0 0 1 4.04-1.076 9.323 9.323 0 0 1 5.66 4.391 3.328 3.328 0 0 1-.363 4.088c-1.181 1.462-2.433 2.874-3.655 4.306-.1.113-.2.22-.3.336a11.974 11.974 0 0 0-2.636 4.065m2.423-7.4c-.223-.15-.313-.218-.411-.27-1.194-.673-2.388-1.347-3.585-2.01a11.508 11.508 0 0 0-1.424-.743 2.166 2.166 0 0 0-2.891 1.194 2.32 2.32 0 0 0 .4 2.361 5.068 5.068 0 0 0 2.418 1.765 3.8 3.8 0 0 0 4.14-.851c.446-.436.854-.906 1.357-1.444" class="cls-2" transform="translate(-196.625 -125.611)"/>
            <path id="Path_8834" d="M280.514 265.442c-.32.656-.626 1.294-.956 1.968a4.56 4.56 0 0 1-2.681-4.393 10.235 10.235 0 0 1 1.537-5.274 3.553 3.553 0 0 1 4.511-1.762c1.722.491 3.414 1.087 5.129 1.61a13.359 13.359 0 0 0 5.229 1.021c-.218.683-.406 1.274-.588 1.87a.553.553 0 0 1-.618.405c-.383-.015-.766-.04-1.279-.067.11.415.193.776.305 1.129a7.4 7.4 0 0 1-.6 5.9 3.9 3.9 0 0 1-4.391 2.183 3.95 3.95 0 0 1-3.212-3.9 20.385 20.385 0 0 1 .268-2.934c.155-1.244.368-2.486.516-3.727.09-.758.02-.811-.663-1.034a2.5 2.5 0 0 0-3.424 1.4 10.753 10.753 0 0 0-.791 2.641 2.371 2.371 0 0 0 .819 2.178c.28.26.571.513.891.8m5.009-6.055c-.117 1.151-.22 2.25-.345 3.342-.1.8-.263 1.592-.315 2.393a2.209 2.209 0 0 0 1.68 2.426 2.245 2.245 0 0 0 2.563-1.177 5.106 5.106 0 0 0 .548-3.887c-.443-1.712-1.955-2.839-4.131-3.1" class="cls-2" transform="translate(-115.963 -147.713)"/>
            <path id="Path_8835" d="M290.427 274.885c-.37.681-.7 1.277-1.1 1.99-5.825-3.2-11.57-6.408-17.385-9.63.4-.711.741-1.324 1.139-2.03 2.065 1.139 4.058 2.238 6.191 3.417-.07-.458-.1-.716-.148-.974a5.921 5.921 0 0 1 2.526-5.92 3.61 3.61 0 0 1 3.092-.448 10.3 10.3 0 0 1 1.982.813c2.6 1.412 5.184 2.859 7.77 4.293.128.073.245.16.451.3-.36.656-.706 1.294-1.081 1.975-.336-.165-.6-.288-.856-.428-2.326-1.286-4.646-2.586-6.984-3.862a7.38 7.38 0 0 0-1.474-.641 2.589 2.589 0 0 0-2.889.911 3.681 3.681 0 0 0 .563 5.465c1.367.954 2.866 1.722 4.316 2.556 1.111.638 2.248 1.244 3.369 1.87.153.085.293.2.516.345" class="cls-2" transform="translate(-123.375 -139.648)"/>
            <path id="Path_8836" d="M273.344 245.958c-.4.193-.683.35-.981.478-.651.285-1.121-.013-1.146-.728a1.462 1.462 0 0 1 .048-.533c.275-.916.556-1.832.871-2.734a1.68 1.68 0 0 1 .458-.643c.626-.568 1.029-.5 1.479.215.093.145.205.28.37.5 1-.553 1.985-1.1 3.026-1.672-.4-1.207-1.282-2.035-1.865-3.174-3.474 2.17-6.859 4.278-10.339 6.453a4.492 4.492 0 0 1-.083-.681c.015-.476.1-.954.078-1.427a1.215 1.215 0 0 1 .691-1.224c2.473-1.5 4.921-3.057 7.38-4.6.273-.173.543-.355.9-.591-.263-.488-.513-.944-.811-1.494.611-.383 1.2-.756 1.862-1.172a112.078 112.078 0 0 1 6.466 10.917c-.6.338-1.217.676-1.893 1.054-.406-.681-.766-1.287-1.166-1.963l-3.114 1.727c.543 1 1.049 1.935 1.615 2.981-.724.408-1.407.8-2.175 1.227-.566-.984-1.091-1.91-1.67-2.924" class="cls-2" transform="translate(-133.54 -182.021)"/>
            <path id="Path_8837" d="M235.234 230.91c1.152-.641 2.245-1.252 3.337-1.857s2.185-1.222 3.344-1.865a2.58 2.58 0 0 0-.456-.388c-.929-.406-1.85-.836-2.806-1.174a3.207 3.207 0 0 0-2.851.243 1.165 1.165 0 0 1-1.6-.17 17.382 17.382 0 0 0-1.452-1.111c1.492-.758 2.8-1.6 4.523-1.036a24.6 24.6 0 0 1 5.38 2.423 1.037 1.037 0 0 0 1.459-.03l1.111 1.96-1.985 1.179c.693 1.277 1.372 2.518 2.1 3.847-.623.343-1.194.661-1.765.976-.388.22-.786.428-1.169.661a1.665 1.665 0 0 0-.616 2.446 2.322 2.322 0 0 0 3.46.423c-.06-.085-.108-.185-.18-.27a1.4 1.4 0 0 1-.27-1.787 1.758 1.758 0 0 1 1.782-.949 1.152 1.152 0 0 1 .633.29c.673.771 1.342 1.567.964 2.721a1.335 1.335 0 0 0 0 .323 5.378 5.378 0 0 1 2.178 1.439c-.486.278-.936.536-1.332.769-.606-.35-1.139-.663-1.677-.966a.817.817 0 0 0-.844.012 4.866 4.866 0 0 1-6.436-1.875 5.6 5.6 0 0 1-.681-1.827 1.94 1.94 0 0 1 1.174-2.278c.521-.3 1.039-.588 1.557-.889.05-.028.083-.085.21-.23-.293-.543-.611-1.129-.979-1.807l-5.012 2.754c-.373-.661-.711-1.274-1.091-1.955" class="cls-2" transform="translate(-182.302 -196.413)"/>
            <path id="Path_8838" d="M220.891 273.023a5.51 5.51 0 0 1-3.59-1.374 7.2 7.2 0 0 1-2.6-4.859 5.869 5.869 0 0 1 2.251-5.472 10.736 10.736 0 0 1 5.7-2.411 5.745 5.745 0 0 1 3.77.891 7.22 7.22 0 0 1 3.154 7.047 6.055 6.055 0 0 1-1.57 3.167 10.935 10.935 0 0 1-7.117 3.011m2.341-11.783a8.512 8.512 0 0 0-5.392 2.493 4.075 4.075 0 0 0 3.029 6.911 7.954 7.954 0 0 0 5.6-2.468 3.848 3.848 0 0 0 .8-4.476 4.041 4.041 0 0 0-4.045-2.461" class="cls-2" transform="translate(-209.5 -143.04)"/>
            <path id="Path_8839" d="M227.772 242.217c-.331.483-.623.919-.964 1.414-.618-.381-1.194-.731-1.842-1.124a67.645 67.645 0 0 1 6.749-10.236c.6.423 1.144.816 1.752 1.252l-1.116 1.662 9.848 7.184a11.743 11.743 0 0 1-2.531.9c-.245.055-.608-.18-.859-.363-2.331-1.675-4.646-3.364-6.969-5.049-.285-.205-.581-.408-.929-.648a15.287 15.287 0 0 0-1.887 2.864c3.48 2.093 6.894 4.153 10.411 6.268a9.957 9.957 0 0 1-2.441 1.187c-.2.078-.556-.14-.8-.288-2.438-1.452-4.871-2.921-7.3-4.378-.353-.215-.716-.411-1.121-.646" class="cls-2" transform="translate(-193.997 -183.024)"/>
            <path id="Path_8840" d="M260.091 279.965c.751-.4 1.429-.766 2.188-1.172l8.977 8.2a1.5 1.5 0 0 0 .05-.358q-.683-4.476-1.372-8.947c-.113-.741-.185-1.484-.313-2.218a.649.649 0 0 1 .385-.8c.506-.238 1-.506 1.587-.808.2 1.44.388 2.766.561 4.09.528 3.97 1.066 7.938 1.56 11.916a24.2 24.2 0 0 1 .225 3.482 3.535 3.535 0 0 1-2.7 3.5c-.653.18-.721.163-1.117-.393-.258-.365-.5-.736-.791-1.171.345-.148.636-.268.924-.393a2.413 2.413 0 0 0 1.657-2.668v-.09a3.717 3.717 0 0 0-1.454-3.072c-3.3-2.764-6.5-5.65-9.73-8.5-.2-.17-.38-.355-.636-.6" class="cls-2" transform="translate(-141.195 -120.497)"/>
            <path id="Path_8841" d="M237.4 274.4c.816.433 1.494.789 2.208 1.172-.593 4.025-1.179 8-1.777 12.043l9.037-8.181 1.95 1.026a3.186 3.186 0 0 1-.4.518q-6.38 5.644-12.784 11.262a9.66 9.66 0 0 1-2.24 1.459 3.425 3.425 0 0 1-3.83-.666.724.724 0 0 1-.265-.939c.193-.461.376-.929.593-1.467.353.238.638.443.936.621a2.435 2.435 0 0 0 3.134-.225 3.961 3.961 0 0 0 1.71-2.951c.4-4.008.976-8 1.484-12 .065-.5.145-1 .24-1.67" class="cls-2" transform="translate(-187.592 -119.699)"/>
            <path id="Path_8842" d="M266.465 227.8c.426-.368.854-.731 1.357-1.159.163.128.476.355.778.591 1.154.9 2.3 1.807 3.46 2.706.275.213.528.413.293.824.145-.083.293-.17.526-.3 1.785 1.665 3.592 3.347 5.487 5.112-.5.551-.964 1.069-1.479 1.637-2.493-2.053-4.546-4.543-7.375-6.321-2.468 3.154-4.939 6.313-7.522 9.62-.313-.961-.6-1.74-.806-2.533a1.04 1.04 0 0 1 .248-.708c.443-.626.926-1.227 1.462-1.923-.3-.07-.463-.108-.623-.148a3.6 3.6 0 0 1-2.013-5.522 2.768 2.768 0 0 1 3.082-1.107c1.607.376 1.78.613 1.655 2.23-.015.173-.058.338-.1.576a7.293 7.293 0 0 0-.954-.355 11.5 11.5 0 0 0-1.928-.318 1.684 1.684 0 0 0-.969.37.74.74 0 0 0 .005 1.282 2.883 2.883 0 0 0 1.832.616c.593.008 1.184 0 1.885 0 .886-1.136 1.838-2.353 2.834-3.632-.363-.3-.663-.538-.956-.781-.24-.2-.466-.4-.2-.738z" class="cls-2" transform="translate(-141.919 -191.482)"/>
            <path id="Path_8843" d="M242.62 224.613l.588 1.149.113-.04-.268-1.264a30.624 30.624 0 0 1 5.923-1.667c.173.626.35 1.274.546 1.975-.658.215-1.214.406-1.88.631 1.1 3.87 2.193 7.7 3.317 11.643a10.521 10.521 0 0 1-2.581-.761c-.16-.058-.263-.37-.335-.588-.215-.646-.4-1.3-.618-2.045-.3.223-.526.4-.763.566a3.613 3.613 0 0 1-5.425-2.133 3.311 3.311 0 0 1 2.393-3.715.69.69 0 0 1 .488.11c.443.343.864.713 1.334 1.111-.491.328-.926.586-1.319.894a3 3 0 0 0-1.194 1.527 1.062 1.062 0 0 0 .238 1.159c.338.308.724.188 1.091.023a3.87 3.87 0 0 0 1.672-1.572c.183-.3.383-.578.643-.979-.41-1.419-.856-2.959-1.334-4.629-2.278.819-4.378 1.8-6.664 2.646-.275-.663-.541-1.307-.854-2.068 1.66-.668 3.247-1.309 4.889-1.973" class="cls-2" transform="translate(-174.808 -197.275)"/>
            <path id="Path_8844" d="M263.446 239.328c-.613-.073-.944-.318-.971-.909a17.525 17.525 0 0 1 .318-5.087 4.223 4.223 0 0 1 1.98-2.661 2.351 2.351 0 0 1 3.787 1.95c.012.2.027.408.043.608 1.94-.063 2.433.426 2.3 2.318.283-.1.541-.19.849-.3.24.278.493.533.7.814.626.839 2.17.338 2.521-.581a.963.963 0 0 0-.233-1c-.435-.528-.856-1.069-1.334-1.667l1.69-1.4c1.379 1.532 2.573 3.152 3.947 4.8-.593.488-1.131.931-1.71 1.4-.381-.421-.716-.786-1.1-1.214-.17.205-.323.371-.458.551a4.3 4.3 0 0 1-2.516 1.6 3.056 3.056 0 0 1-2.045-.366 1.058 1.058 0 0 0 .033 1.474 4.006 4.006 0 0 0 1.962 1.354c.363.128.751.193 1.269.323a20.37 20.37 0 0 1-2.1 1.687c-.12.085-.411.02-.583-.06-2.048-.949-3.077-2.433-2.343-4.751.233-.731.613-1.417.926-2.138-.636-1.044-1.347-1.144-2.2-.273-.5.513-.981 1.041-1.557 1.652l-.814-1.83c.4-.438.8-.879 1.2-1.312.308-.333.661-.641.371-1.164a1.456 1.456 0 0 0-1.53-.7 2.232 2.232 0 0 0-1.439 1.262 10.119 10.119 0 0 0-.778 3.389c-.075.733-.125 1.472-.188 2.228" class="cls-2" transform="translate(-137.68 -186.131)"/>
            <path id="Path_8845" d="M268.8 276.343c.556-.6 1.051-1.144 1.63-1.775 3.665 1.585 7.322 3.169 11.072 4.789a12.309 12.309 0 0 0-1.036-2.168c-.346-.728-.726-1.442-1.094-2.158s-.731-1.439-1.1-2.158-.736-1.434-1.1-2.153-.721-1.434-1.1-2.19c.543-.586 1.044-1.124 1.6-1.727.293.561.531 1 .756 1.452q2.831 5.749 5.66 11.5c.4.806.4.811-.208 1.452-1.061 1.119-.721 1.036-2.083.481q-6.1-2.474-12.191-4.974c-.238-.1-.473-.213-.806-.368" class="cls-2" transform="translate(-128.101 -131.113)"/>
            <path id="Path_8846" d="M221.383 240.274c.345.789.608 1.487.956 2.138a1.465 1.465 0 0 0 .693.5c.761.34 1.537.641 2.416 1-.26.661-.5 1.254-.769 1.94l-10.086-4.08c.27-.666.506-1.237.786-1.923 1.467.578 2.889 1.139 4.3 1.7l.153-.155c-.13-.285-.25-.573-.383-.856-.693-1.459-1.377-2.921-2.09-4.368a1.277 1.277 0 0 1-.04-1.194c.273-.586.506-1.2.814-1.938.215.446.373.753.516 1.071.513 1.144 1.019 2.293 1.532 3.437.35.773.376.784 1.229.613 1.935-.376 3.87-.764 5.8-1.142.313-.058.628-.09 1.086-.155-.33.829-.578 1.53-.9 2.193a.976.976 0 0 1-.658.348c-1.559.255-3.127.478-4.694.711-.175.025-.343.078-.666.153" class="cls-2" transform="translate(-209.589 -181.861)"/>
            <path id="Path_8847" d="M236.767 226.243c.628-.168 1.249-.343 1.875-.491a.584.584 0 0 1 .406.12 1.256 1.256 0 0 0 1.277.12c1.279-.426 1.582-1.051 1.121-2.328-.108-.305-.238-.6-.411-1.016-.17.253-.288.4-.378.566a2.848 2.848 0 0 1-4.363.929 4.849 4.849 0 0 1-1.867-4.684 2.961 2.961 0 0 1 4.018-2.4c.163.055.328.1.581.185-.06-.34-.105-.591-.168-.959.5-.188 1.011-.385 1.57-.6a3.527 3.527 0 0 1 .27.476c.8 2.06 1.615 4.118 2.368 6.2a10.285 10.285 0 0 1 .483 2.17 1.915 1.915 0 0 1-.749 1.74 6.213 6.213 0 0 1-4.11 1.527 1.9 1.9 0 0 1-1.922-1.555m-.418-6.311a4.117 4.117 0 0 0 .839 2.293 1.654 1.654 0 0 0 1.877.678 1.77 1.77 0 0 0 1.237-1.772 3.666 3.666 0 0 0-.981-2.431 1.7 1.7 0 0 0-2.971 1.232" class="cls-2" transform="translate(-179.864 -207.951)"/>
            <path id="Path_8848" d="M221.9 230.9l1.4-1.332q2.245 1.179 4.486 2.353c.045-.04.093-.085.138-.13-.768-1.492-1.75-2.866-2.583-4.4l1.317-1.377c1.512.851 2.961 1.67 4.561 2.573a10.13 10.13 0 0 0-1.2-2.406c-.4-.764-.841-1.5-1.289-2.293.423-.448.809-.851 1.194-1.257a47.846 47.846 0 0 1 3.983 7.177c-.41.378-.846.776-1.384 1.267-1.372-.753-2.816-1.549-4.266-2.343-.05.05-.1.108-.153.16.776 1.427 1.69 2.779 2.528 4.26-.431.458-.854.909-1.334 1.417-2.426-1.209-4.826-2.4-7.392-3.672" class="cls-2" transform="translate(-198.609 -197.517)"/>
            <path id="Path_8849" d="M234.828 216.222c1.77 3.192 3.49 6.3 5.257 9.487-.521.3-1 .586-1.509.886-.215-.273-.393-.5-.618-.773a3.622 3.622 0 0 0-.225.418 3.016 3.016 0 0 1-4.994 1.322 5.653 5.653 0 0 1-1.95-3.542 3.064 3.064 0 0 1 3.562-3.49c.14.018.283 0 .578 0-.626-1.152-1.2-2.213-1.822-3.354.578-.323 1.091-.608 1.722-.956m-.145 5.42a1.748 1.748 0 0 0-1.92 1.83 4.007 4.007 0 0 0 1.294 2.573 1.69 1.69 0 0 0 2.05.33 1.732 1.732 0 0 0 .814-1.915 4.126 4.126 0 0 0-1.237-2.233 4.424 4.424 0 0 0-1-.586" class="cls-2" transform="translate(-185.302 -207.15)"/>
            <path id="Path_8850" d="M268.618 228.4c-.315.285-.526.473-.773.7-.441-.345-.859-.673-1.374-1.074 2.2-2.876 4.416-5.672 6.661-8.549.3.21.561.386.811.581.23.178.448.378.733.618-.756 1-1.479 1.955-2.288 3.019.35.043.543.073.738.085a3.05 3.05 0 0 1 2.836 3.822 5.354 5.354 0 0 1-2.829 3.53 2.959 2.959 0 0 1-4.408-2.223c-.013-.115-.05-.228-.108-.508m1.1-.463a1.6 1.6 0 0 0 2.493 1.444 4.114 4.114 0 0 0 1.845-2.441 1.509 1.509 0 0 0-.478-1.622 1.59 1.59 0 0 0-1.65-.386 3.746 3.746 0 0 0-2.21 3" class="cls-2" transform="translate(-131.605 -202.255)"/>
            <path id="Path_8851" d="M292.51 259.167c-.128.756-.243 1.444-.373 2.25L278 258.921c.133-.708.243-1.309.368-1.99.638.075 1.214.14 1.945.225-.543-.661-1.039-1.169-1.422-1.747a2.417 2.417 0 0 1-.225-2.073 4.244 4.244 0 0 1 1.121-1.928c.621.361 1.249.726 1.9 1.1-.155.285-.275.488-.383.7a2.519 2.519 0 0 0 1.2 3.74 12.405 12.405 0 0 0 2.716.866c2.135.428 4.291.766 6.433 1.142.235.043.463.115.849.208" class="cls-2" transform="translate(-114.276 -154.254)"/>
            <path id="Path_8852" d="M236.24 243.02v1.4c-.481.17-1 .381-1.535.533a1.564 1.564 0 0 0-1.191 1.066 3.2 3.2 0 0 1-.688 1.034 1.13 1.13 0 0 1-1.309.323 1.374 1.374 0 0 1-.959-1.084 2.1 2.1 0 0 1 1.244-2.271 1.078 1.078 0 0 0 .613-1.244c-.075-.643-.523-.926-1.074-.6a18.529 18.529 0 0 0-1.727 1.277c-.5.381-.956.816-1.482 1.151a3.408 3.408 0 0 1-1.239.481 1.372 1.372 0 0 1-1.652-1.585.941.941 0 0 1 .045-.265c.743-1.983 1.49-3.96 2.248-5.975a8.274 8.274 0 0 1 2.08.671c-.606 1.625-1.189 3.2-1.777 4.774.055.028.108.055.163.085a6.773 6.773 0 0 1 .6-.628 14.992 14.992 0 0 1 1.983-1.514 1.926 1.926 0 0 1 2.831.811 13.308 13.308 0 0 1 .751 1.927c.243-.037.583-.085.921-.143s.693-.133 1.157-.22" class="cls-2" transform="translate(-193.594 -175.529)"/>
            <path id="Path_8853" d="M267.141 247.037c.228-1.014.408-1.795.568-2.576.085-.41.433-.461.728-.578q3.32-1.355 6.641-2.691c.8-.325 1.6-.661 2.466-1.016-.173-.543-.33-1.044-.513-1.635l2.02-.819 2.323 5.712c-.683.288-1.324.558-2.05.859-.275-.616-.523-1.179-.816-1.837-1.9.766-3.752 1.512-5.6 2.255s-3.7 1.492-5.768 2.326" class="cls-2" transform="translate(-130.597 -174.83)"/>
            <path id="Path_8854" d="M275.655 235.951c.143-.29.255-.526.39-.791-.26-.12-.471-.22-.686-.313a3.293 3.293 0 0 1-1.775-1.915 2.155 2.155 0 0 1 .671-2.576 2.1 2.1 0 0 1 2.721-.035 16.6 16.6 0 0 1 1.319 1.2c.35.323.7.653 1.054.974a1.352 1.352 0 0 0 .29.153c.741-.451.879-.7.739-1.259a1.938 1.938 0 0 0-1.96-1.462c-.108-.235-.24-.5-.35-.769-.1-.238-.175-.486-.275-.781a2.493 2.493 0 0 1 2.563.438 6.159 6.159 0 0 1 1.752 2.664 1.9 1.9 0 0 1-.708 2.376c-.754.538-1.532 1.034-2.308 1.539a8.1 8.1 0 0 0-2.448 2.078c-.346-.533-.646-1-.989-1.524m2.814-2.623a19.584 19.584 0 0 0-1.717-1.522.93.93 0 0 0-1.489.756 1.679 1.679 0 0 0 .355 1.054c.708.879 1.777.776 2.851-.288" class="cls-2" transform="translate(-121.17 -189.12)"/>
            <path id="Path_8855" d="M224.257 227.14a4.135 4.135 0 0 1 .14 8.268 4.427 4.427 0 0 1-4.256-4.148 4.211 4.211 0 0 1 4.115-4.12m-.393 1.885a1.865 1.865 0 0 0-1.827 2.5 3.278 3.278 0 0 0 2.759 1.962 1.874 1.874 0 0 0 1.772-2.551 3.312 3.312 0 0 0-2.7-1.913" class="cls-2" transform="translate(-201.251 -190.737)"/>
            <path id="Path_8856" d="M233.815 224.105c.563-.255 1.094-.5 1.68-.763a2.9 2.9 0 0 1-.446 2.791 4.282 4.282 0 0 1-2.4 1.625 3.187 3.187 0 0 1-2.946-.658 5.322 5.322 0 0 1-1.943-3.134 3.242 3.242 0 0 1 1.3-3.4 3.366 3.366 0 0 1 3.7-.478 5.182 5.182 0 0 1 2.108 2.043c-1.364 1.079-2.844 1.962-4.183 3.011a1.758 1.758 0 0 0 2.143.931c.766-.26 1.036-.769.989-1.97m-1.254-1.755c-.826-1.081-1.762-1.274-2.526-.631a1.575 1.575 0 0 0 .028 2.383l2.5-1.752" class="cls-2" transform="translate(-189.919 -201.866)"/>
            <path id="Path_8857" d="M240.449 219.9c.35 1.111.926 1.625 1.71 1.632.8.01 1.232-.365 1.627-1.522.553-.048 1.157-.1 1.86-.155a3.031 3.031 0 0 1-1.334 2.433 4.526 4.526 0 0 1-2.621.769 2.92 2.92 0 0 1-2.306-1.019 5.031 5.031 0 0 1-1.172-4.583 3.223 3.223 0 0 1 2.734-2.513 3.276 3.276 0 0 1 3.6 1.394 4.461 4.461 0 0 1 .841 2.2c-1.645.456-3.269.9-4.944 1.364m2.761-1.99c-.446-1.344-1.3-1.832-2.258-1.409a1.526 1.526 0 0 0-.678 2.208c.954-.255 1.92-.521 2.936-.8" class="cls-2" transform="translate(-174.304 -209.2)"/>
            <path id="Path_8858" d="M281.485 240.6l-2.16-4.578a1.586 1.586 0 0 0-1.349 1.667c.028.9.438 1.284 1.775 1.6q.222.788.473 1.69a2.645 2.645 0 0 1-2.528-.738 4.161 4.161 0 0 1-1.324-2.859 3.782 3.782 0 0 1 .368-1.715 5.161 5.161 0 0 1 5.147-2.288 3.62 3.62 0 0 1 1.7 5.89 5.011 5.011 0 0 1-2.1 1.329m.2-2.345c1.129-.431 1.557-1.312 1.149-2.2s-1.342-1.124-2.446-.578q.65 1.393 1.3 2.779" class="cls-2" transform="translate(-116.726 -181.511)"/>
            <path id="Path_8859" d="M275.947 230.467c-1.239-1.269-2.4-2.466-3.555-3.655a1.671 1.671 0 0 0-.736 2.048c.308.8.826 1.019 2.225.929.2.285.425.6.638.916.115.17.205.355.325.573a2.715 2.715 0 0 1-2.909-.1 6.318 6.318 0 0 1-1.487-1.4 3.065 3.065 0 0 1-.255-3.535 5.37 5.37 0 0 1 2.646-2.458 3.578 3.578 0 0 1 4.513 4.971 5.732 5.732 0 0 1-1.407 1.7m-.571-2.265c.961-.936 1.024-1.88.263-2.568a1.578 1.578 0 0 0-2.383.353c.691.718 1.387 1.447 2.12 2.215" class="cls-2" transform="translate(-126.669 -196.225)"/>
            <path id="Path_8860" d="M264.256 221.192c-1.66-.528-3.244-1.036-4.816-1.537a1.653 1.653 0 0 0 .293 2.14c.693.6 1.3.548 2.373-.243l1.6.841a2.739 2.739 0 0 1-2.694 1.314 6.265 6.265 0 0 1-2.038-.6 3.044 3.044 0 0 1-1.76-2.986 5.434 5.434 0 0 1 1.157-3.327 3.4 3.4 0 0 1 3.858-1.139 3.287 3.287 0 0 1 2.471 3.245 4.882 4.882 0 0 1-.446 2.29m-1.537-1.725a1.622 1.622 0 0 0-.28-2 1.4 1.4 0 0 0-1.647-.32 1.373 1.373 0 0 0-.956 1.387l2.884.931" class="cls-2" transform="translate(-145.512 -208.29)"/>
            <path id="Path_8861" d="M226.926 235.215c-.961-.553-1.862-1.074-2.769-1.585-.543-.31-1.081-.636-1.647-.906-.831-.4-1.4-.285-1.837.3a1.614 1.614 0 0 0 .133 2.133 5.441 5.441 0 0 0 1.074.8c.9.546 1.8 1.054 2.709 1.582.225.138.443.285.716.463-.316.558-.608 1.071-.954 1.687-2.266-1.3-4.476-2.578-6.769-3.905l.844-1.537c.333.125.6.228.949.355-.043-.375-.075-.661-.1-.949a3.1 3.1 0 0 1 .346-1.82 2.3 2.3 0 0 1 3.379-1.111c1.64.854 3.224 1.81 4.921 2.771-.345.6-.653 1.132-1 1.722" class="cls-2" transform="translate(-205.099 -185.885)"/>
            <path id="Path_8862" d="M284.776 242.88c-.29-.506-.576-.991-.879-1.517a1.994 1.994 0 0 0 .02-2.563c-.168-.283-.4-.558-.8-.425a.648.648 0 0 0-.4.731c.015.476.055.954.078 1.427a17.352 17.352 0 0 1 .067 1.97 2.091 2.091 0 0 1-2.889 1.875 2.7 2.7 0 0 1-1.4-1.069 5.426 5.426 0 0 1-1.011-3.55 2.724 2.724 0 0 1 1.277-2.153l.9 1.665a1.97 1.97 0 0 0-.343 2.646 1.747 1.747 0 0 0 .393.483.667.667 0 0 0 1.167-.456 5.993 5.993 0 0 0-.042-.894c-.04-.773-.108-1.55-.105-2.323a1.986 1.986 0 0 1 1.359-2.008 2.105 2.105 0 0 1 2.441.621 5.459 5.459 0 0 1 1.287 3.64 2.168 2.168 0 0 1-1.129 1.9" class="cls-2" transform="translate(-114.948 -176.573)"/>
            <path id="Path_8863" d="M229.859 286.706l-1.955-1.274c2.6-4.013 5.177-7.981 7.808-12.033.671.436 1.282.826 1.963 1.267-2.623 4.04-5.2 8.01-7.815 12.041" class="cls-2" transform="translate(-189.581 -121.197)"/>
            <path id="Path_8864" d="M285.676 273.876c-.453.651-.859 1.229-1.337 1.91-3.918-2.744-7.793-5.454-11.745-8.223.443-.648.854-1.247 1.319-1.93l11.763 8.243" class="cls-2" transform="translate(-122.399 -132.872)"/>
            <path id="Path_8865" d="M258.3 292.068l-2.293.411c-.916-4.711-1.812-9.325-2.734-14.058.776-.145 1.487-.283 2.293-.441.914 4.719 1.812 9.33 2.734 14.088" class="cls-2" transform="translate(-151.45 -114.311)"/>
            <path id="Path_8866" d="M267.123 216.269c.676.373 1.214.671 1.835 1.011-1.465 2.646-2.889 5.224-4.373 7.91l4.774 2.691c-.27.5-.511.959-.8 1.51-2.23-1.234-4.388-2.431-6.659-3.685 1.745-3.147 3.46-6.241 5.227-9.437" class="cls-2" transform="translate(-138.481 -207.079)"/>
            <path id="Path_8867" d="M277.866 237.624l-1.174.886a11.137 11.137 0 0 1-.964-1.189 1.745 1.745 0 0 1 .618-2.739c.934-.6 1.9-1.126 2.854-1.69.308-.18.611-.368.959-.578-.093-.3-.178-.568-.283-.909.373-.225.751-.446 1.169-.693.22.243.413.453.613.676a1.108 1.108 0 0 0 .353-.125 1.466 1.466 0 0 1 2.085.038c.228.175.486.313.851.551-.8.483-1.507.9-2.268 1.359.2.413.373.783.591 1.252-.4.245-.781.488-1.217.756l-.859-1.174c-1.207.708-2.391 1.389-3.56 2.1a.589.589 0 0 0-.163.929c.115.168.238.33.393.553" class="cls-2" transform="translate(-118.311 -185.368)"/>
            <path id="Path_8868" d="M225.05 221.9c.558-.458 1.011-.826 1.534-1.257 2.333 2.779 4.614 5.5 6.962 8.3-.491.431-.949.831-1.492 1.309-2.343-2.791-4.641-5.527-7-8.348" class="cls-2" transform="translate(-193.871 -200.503)"/>
            <path id="Path_8869" d="M256.76 228.8c.453-.884.833-1.65 1.237-2.408.17-.32.476-.328.786-.258a3.093 3.093 0 0 1 2.125 1.65 4.9 4.9 0 0 1-1.69 6.253 1.425 1.425 0 0 1-1.823-.1.99.99 0 0 1 .255-1.77 6.248 6.248 0 0 0 1.262-.666 2.745 2.745 0 0 0 .791-.944 1.116 1.116 0 0 0-.7-1.642 7.063 7.063 0 0 0-1.495-.2 4.318 4.318 0 0 0-.748.083" class="cls-2" transform="translate(-146.202 -192.301)"/>
            <path id="Path_8870" d="M272.966 232.241l-1.239-1.527c2.05-1.662 4.038-3.272 6.083-4.926.39.471.729.881 1.1 1.334-.183.233-.358.453-.591.746.733.108 1.454.048 1.935.643a1.773 1.773 0 0 1 .483 1.287c-.486.183-.976.371-1.507.568-.118-.225-.2-.413-.3-.588a1.214 1.214 0 0 0-1.8-.6 9.784 9.784 0 0 0-1.575 1.021c-.859.641-1.682 1.324-2.591 2.045" class="cls-2" transform="translate(-123.703 -192.77)"/>
            <path id="Path_8871" d="M223.457 244.6c1-2.613 1.95-5.084 2.926-7.622.723.278 1.354.518 2.1.8-.986 2.568-1.94 5.059-2.921 7.62-.721-.273-1.352-.516-2.1-.8" class="cls-2" transform="translate(-196.266 -175.942)"/>
            <path id="Path_8872" d="M269.269 219.295l1.682 1.046-4.141 6.636c-.578-.358-1.1-.676-1.69-1.041l4.148-6.641" class="cls-2" transform="translate(-133.633 -202.531)"/>
            <path id="Path_8873" d="M267.517 239.855a3.38 3.38 0 0 1 1.835 1.905 1.754 1.754 0 0 1 .033 1.559 8.04 8.04 0 0 1-.864 1.457c-.7.891-1.464 1.735-2.213 2.588-.373.421-.388.408-1.139.143.118-.2.215-.406.343-.588.673-.954 1.367-1.89 2.023-2.854.448-.661.418-.836-.14-1.394-.4-.4-.829-.771-1.317-1.224.235-.27.456-.536.691-.791s.488-.523.748-.8" class="cls-2" transform="translate(-133.561 -171.623)"/>
            <path id="Path_8874" d="M263.08 228.8c-1.615-.821-3.147-1.607-4.734-2.413.346-.678.648-1.289 1.009-2 1.59.809 3.124 1.585 4.739 2.4-.348.7-.663 1.319-1.014 2.013" class="cls-2" transform="translate(-143.818 -194.885)"/>
            <path id="Path_8875" d="M265.246 229.757l-.023.02c-.218.293-.458.193-.7.04-1.339-.836-2.681-1.67-4.1-2.561.393-.638.761-1.232 1.176-1.91 1.5.936 2.961 1.842 4.461 2.781-.288.581-.551 1.1-.811 1.63" class="cls-2" transform="translate(-140.7 -193.434)"/>
            <path id="Path_8876" d="M273 267.822c-.776-.543-1.469-1.029-2.218-1.55l1.344-1.895c.741.518 1.437 1 2.193 1.527-.443.643-.846 1.224-1.319 1.918" class="cls-2" transform="translate(-125.123 -134.76)"/>
            <path id="Path_8877" d="M233.107 271.548l1.882 1.224a12.711 12.711 0 0 1-1.417 2.293c-.636-.413-1.247-.806-1.935-1.249.506-.778.966-1.487 1.469-2.268" class="cls-2" transform="translate(-183.967 -123.98)"/>
            <path id="Path_8878" d="M267.041 219.8l.951-1.532c.571.348 1.089.666 1.672 1.024-.328.536-.616 1-.946 1.542-.571-.35-1.064-.658-1.677-1.034" class="cls-2" transform="translate(-130.747 -204.068)"/>
        </g>
    </g>
</svg>
