<svg xmlns="http://www.w3.org/2000/svg" width="84.088" height="56.884" viewBox="0 0 84.088 56.884">
    <g>
        <path fill="#b7202e" d="M17.312 0h49.464a17.312 17.312 0 0 1 17.312 17.312v22.259a17.312 17.312 0 0 1-17.312 17.313H17.312A17.312 17.312 0 0 1 0 39.571V17.312A17.312 17.312 0 0 1 17.312 0z" transform="translate(-835 -1141) translate(835 1141)"/>
        <path fill="#fff" d="M631.516 459.885l-21.658 11.7a1.086 1.086 0 0 1-1.6-.955l-.009-23.493a1.085 1.085 0 0 1 1.6-.954l21.667 11.794a1.086 1.086 0 0 1 0 1.908z" transform="translate(-835 -1141) translate(257.753 709.951)"/>
    </g>
</svg>
