<svg xmlns="http://www.w3.org/2000/svg" width="31" height="31" viewBox="0 0 31 31"><defs><style>.a{fill:#b7202e;}.b{fill:#fff;}</style></defs><g transform="translate(-611 -72)"><circle class="a" cx="15.5" cy="15.5" r="15.5" transform="translate(611 72)"/><g transform="translate(618.406 79.406)"><g transform="translate(0 0)"><path class="b" d="M47.538,44.116c-.5-.415-3.4-2.257-3.887-2.173-.227.04-.4.234-.865.789a6.7,6.7,0,0,1-.706.764,6.071,6.071,0,0,1-1.346-.5,8.337,8.337,0,0,1-3.848-3.849,6.092,6.092,0,0,1-.5-1.347,6.618,6.618,0,0,1,.764-.705c.554-.465.748-.637.789-.866.084-.484-1.759-3.391-2.173-3.887-.174-.2-.331-.343-.534-.343C34.648,32,32,35.274,32,35.7c0,.035.056,3.443,4.362,7.823,4.38,4.305,7.788,4.362,7.823,4.362.424,0,3.7-2.648,3.7-3.233,0-.2-.138-.36-.345-.534Z" transform="translate(-32 -32)"/></g><path class="b" d="M46.118,40.11h1.135a4.544,4.544,0,0,0-4.539-4.539v1.135A3.407,3.407,0,0,1,46.118,40.11Z" transform="translate(-34.205 -32.735)"/><path class="b" d="M48.954,39.375h1.135A7.383,7.383,0,0,0,42.714,32v1.135A6.246,6.246,0,0,1,48.954,39.375Z" transform="translate(-34.205 -32)"/></g></g></svg>