<svg xmlns="http://www.w3.org/2000/svg" width="65" height="65.001" viewBox="0 0 65 65.001"><defs><style>.a{fill:#fff;}.b{fill:#b7202e;}</style></defs><g transform="translate(-871 -797)"><ellipse class="a" cx="31.246" cy="30.246" rx="31.246" ry="30.246" transform="translate(872 798.453)"/><g transform="translate(871 797)"><path class="b" d="M-562.31,44.235h-7.127a13.817,13.817,0,0,0,2.839,6.843l5.038-5.038A7.028,7.028,0,0,1-562.31,44.235Z" transform="translate(587.593 -9.763)"/><path class="b" d="M-561.025,56.052a13.833,13.833,0,0,0,6.843,2.839V51.764a7.03,7.03,0,0,1-1.805-.749Z" transform="translate(584.71 -12.046)"/><circle class="b" cx="3.512" cy="3.512" r="3.512" transform="translate(28.471 29.596) rotate(-9.217)"/><path class="b" d="M-554.557,26.579V19.454a14.007,14.007,0,0,0-7.49,3.352l5.333,4.741A7,7,0,0,1-554.557,26.579Z" transform="translate(585.07 -1.293)"/><path class="b" d="M-561.764,33.647l-5.324-4.734a13.912,13.912,0,0,0-2.349,6.18h7.125A6.88,6.88,0,0,1-561.764,33.647Z" transform="translate(587.591 -4.548)"/><path class="b" d="M-537.812,22.291a13.828,13.828,0,0,0-6.844-2.838V26.58a7.054,7.054,0,0,1,1.805.749Z" transform="translate(579.127 -1.296)"/><path class="b" d="M-537.876,32.9a7.018,7.018,0,0,1,.749,1.805H-530a13.821,13.821,0,0,0-2.838-6.843Z" transform="translate(576.844 -4.179)"/><path class="b" d="M-564.472-8.083a32.5,32.5,0,0,0-32.5,32.5,32.5,32.5,0,0,0,32.5,32.5,32.5,32.5,0,0,0,32.5-32.5A32.5,32.5,0,0,0-564.472-8.083Zm20.032,34.322h-1.934a18.144,18.144,0,0,1-4.708,10.5l2.539,2.856a1.824,1.824,0,0,1-.151,2.571,1.818,1.818,0,0,1-1.21.46,1.819,1.819,0,0,1-1.362-.613l-2.54-2.858a18.02,18.02,0,0,1-8.845,3.359V44.45a1.823,1.823,0,0,1-1.821,1.821,1.823,1.823,0,0,1-1.821-1.821V42.515a18.236,18.236,0,0,1-9.685-4.016l-3.6,3.6a1.811,1.811,0,0,1-1.288.533,1.811,1.811,0,0,1-1.286-.531,1.823,1.823,0,0,1,0-2.577l3.6-3.6a18.239,18.239,0,0,1-4.017-9.684H-584.5a1.823,1.823,0,0,1-1.821-1.821A1.823,1.823,0,0,1-584.5,22.6h1.935a18.019,18.019,0,0,1,3.358-8.845l-2.86-2.541a1.824,1.824,0,0,1-.152-2.571,1.824,1.824,0,0,1,2.57-.153l2.858,2.54a18.142,18.142,0,0,1,10.5-4.708V4.385a1.823,1.823,0,0,1,1.821-1.821,1.823,1.823,0,0,1,1.821,1.821V6.32a18.234,18.234,0,0,1,9.684,4.017l1.776-1.776a1.824,1.824,0,0,1,2.576,0,1.824,1.824,0,0,1,0,2.576l-1.776,1.775a18.25,18.25,0,0,1,4.017,9.685h1.934a1.824,1.824,0,0,1,1.821,1.822A1.823,1.823,0,0,1-544.44,26.239Z" transform="translate(596.972 8.083)"/><path class="b" d="M-544.655,51.883v7.125a13.9,13.9,0,0,0,6.181-2.349l-4.734-5.324A6.9,6.9,0,0,1-544.655,51.883Z" transform="translate(579.11 -12.161)"/><path class="b" d="M-538.219,46.391l4.74,5.334a14.016,14.016,0,0,0,3.352-7.49h-7.126A6.981,6.981,0,0,1-538.219,46.391Z" transform="translate(576.966 -9.747)"/></g></g></svg>