<svg xmlns="http://www.w3.org/2000/svg" width="31" height="31" viewBox="0 0 31 31"><defs><style>.a{fill:#b7202e;}.b{fill:#fff;}</style></defs><g transform="translate(-1020 -36)"><circle class="a" cx="15.5" cy="15.5" r="15.5" transform="translate(1020 36)"/><path class="b" d="M14.119,45.945H1.9A1.867,1.867,0,0,0,0,47.771v8.515a1.867,1.867,0,0,0,1.9,1.826H14.119a1.867,1.867,0,0,0,1.9-1.826V47.771A1.867,1.867,0,0,0,14.119,45.945Zm0,10.556H1.9c-.154,0-.289-.1-.289-.215V48.9l5.526,4.666a.629.629,0,0,0,.405.148h.933a.629.629,0,0,0,.405-.148L14.409,48.9v7.39C14.408,56.4,14.273,56.5,14.119,56.5ZM8.01,52.11,2.636,47.557H13.385Z" transform="translate(1027.47 -0.42)"/></g></svg>