<svg xmlns="http://www.w3.org/2000/svg" width="474" height="171" viewBox="0 0 474 171">
    <defs>
        <filter id="Union_14" width="268.189" height="204.198" x=".833" y="17.281" filterUnits="userSpaceOnUse">
            <feOffset dy="3"/>
            <feGaussianBlur result="blur" stdDeviation="3"/>
            <feFlood/>
            <feComposite in2="blur" operator="in"/>
            <feComposite in="SourceGraphic"/>
        </filter>
        <filter id="Path_17632" width="181.455" height="199.663" x="281.136" y="9.873" filterUnits="userSpaceOnUse">
            <feOffset dy="3"/>
            <feGaussianBlur result="blur-2" stdDeviation="3"/>
            <feFlood flood-opacity=".961"/>
            <feComposite in2="blur-2" operator="in"/>
            <feComposite in="SourceGraphic"/>
        </filter>
        <clipPath id="clip-path">
            <path id="Rectangle_5725" fill="#b7202e" stroke="#707070" d="M0 0H474V171H0z" data-name="Rectangle 5725" transform="translate(0 -.32)"/>
        </clipPath>
    </defs>
    <g id="Mask_Group_308" clip-path="url(#clip-path)" data-name="Mask Group 308" opacity="0.2" transform="translate(0 .32)">
        <g id="Group_8827" data-name="Group 8827" transform="translate(10.354 11.347)">
            <path id="Path_17629" fill="#b7202e" d="M461.5-8.321h-7.629v-1.955c-26.329-7.391-50.565-20.107-71.594-35.825-.045-.034-.073-.069-.113-.1-.368.483-.747.947-1.106 1.444-5.914-18.338-13.338-24.753-13.338-24.753h-2.079c-1.311-2.621-6.547-7.682-8.864-9.529.61-.293.967-.641.967-1.015 0-.56-.8-1.059-2.051-1.4.484-.231.773-.506.773-.8 0-.5-.792-.929-2-1.2.613-.208 1-.483 1-.786 0-.55-1.23-1.009-2.883-1.134l-.28-16.262c2.025-1.211 3.463-3.028 10.295-.51 4.135 1.524 5.441.641 5.731-1.473s.8-5.956.8-5.956c-2.758 1.217-9.215-.96-11.247-2.241-1.645-1.036-4.668-.563-5.759-.345l-.038-2.247a.386.386 0 0 0-.4-.353.386.386 0 0 0-.412.353l-.5 29.035c-1.653.126-2.883.584-2.883 1.134 0 .3.382.578 1 .786-1.205.27-2 .7-2 1.2 0 .3.288.572.773.8-1.254.343-2.049.843-2.049 1.4 0 .374.358.721.967 1.013-2.317 1.849-7.553 6.909-8.864 9.531h-2.077s-3.388 2.923-7.409 10.467c-6-16.17-12.594-23.685-14.624-25.741h1.993v-3.138h-5.337a4.158 4.158 0 0 0 1.808-3.347 4.631 4.631 0 0 0-4.663-4.337 3.228 3.228 0 0 0 .83-2.125 3.744 3.744 0 0 0-3.84-3.5 2.554 2.554 0 0 0 .6-1.622 3 3 0 0 0-3.164-2.795h-.719c-.863-1.662-4.1-4.788-5.535-5.93.382-.182.611-.4.611-.635 0-.351-.507-.662-1.292-.877.307-.147.49-.32.49-.507 0-.311-.5-.584-1.252-.753.386-.13.625-.3.625-.494 0-.307-.6-.569-1.464-.679l-.24-10.562c2.087-1.3 3.769-3.06 10.92-.425 4.472 1.646 5.882.691 6.2-1.593s.863-6.439.863-6.439c-2.98 1.315-9.961-1.039-12.158-2.424-1.711-1.079-4.795-.645-6.077-.4l-.012-.5a.382.382 0 0 0-.4-.349.385.385 0 0 0-.413.349l-.507 22.342c-.86.11-1.464.373-1.464.679 0 .19.24.363.625.494-.757.169-1.254.441-1.254.753 0 .187.182.36.491.507-.785.215-1.29.526-1.29.877 0 .235.227.452.61.635-1.434 1.142-4.672 4.268-5.535 5.93h-.717a3 3 0 0 0-3.166 2.795 2.551 2.551 0 0 0 .6 1.622 3.746 3.746 0 0 0-3.841 3.5 3.237 3.237 0 0 0 .83 2.125 4.63 4.63 0 0 0-4.661 4.337 4.16 4.16 0 0 0 1.806 3.347h-5.337v3.138h1.971c-2.03 2.056-8.617 9.561-14.616 25.714-4.015-7.525-7.395-10.441-7.395-10.441h-2.08c-1.311-2.621-6.547-7.682-8.864-9.531.61-.293.967-.639.967-1.013 0-.56-.8-1.059-2.049-1.4.485-.231.775-.507.775-.8 0-.5-.792-.929-2-1.2.613-.208 1-.483 1-.786 0-.492-.985-.912-2.377-1.085l-.429-10.148c1.348-.866 2.569-1.913 7.233-.195 3.023 1.114 3.977.468 4.189-1.076s.583-4.352.583-4.352c-2.015.889-6.733-.7-8.218-1.639-1.155-.728-3.239-.437-4.107-.271l-.017-.415a.614.614 0 0 0-.622-.549.619.619 0 0 0-.669.549l-.766 18.1c-1.391.173-2.376.593-2.376 1.085 0 .3.384.578 1 .786-1.205.27-2 .7-2 1.2 0 .3.288.572.775.8-1.254.343-2.049.843-2.049 1.4 0 .374.356.721.966 1.013-2.317 1.849-7.553 6.909-8.864 9.531h-2.079s-9.923 8.566-15.965 34.233c-.1-.193-.2-.377-.3-.567a2.9 2.9 0 0 1-1.533.858q-18.073 4.293-36.016 8.991-16.854 4.4-33.6 9.112c-.038.466-.082.929-.106 1.4h-4.837l-4.041 1.145v6.017h-8.484v29.21h351.41V-7.83c-.696-.155-1.387-.328-2.081-.491z" data-name="Path 17629" transform="translate(-60.56 138.213)"/>
            <g filter="url(#Union_14)" transform="translate(-10.35 -11.67)">
                <path id="Union_14-2" fill="#58595b" stroke="#000" stroke-miterlimit="10" d="M238.91 184.651q-42.947-.013-85.888-.007H76.126c-19.431 0-34.261 0-62.89.007-3.42 0-6.839.259-10.261.4v-39.069H1.029c-2.795-3 1.231-3.51-.953-5.848q.362-.762.721-1.524c6.255 1.012 6.3.2 13.029 1.288-1.842-3.332-3.422-6.185-5-9.037l1.2-1.673 17.426 6.181c-1.036-2.469-2.079-4.947-3.574-8.506l7.406 1.6c2.216.479 4.429.958 6.335 1.372.245-3.364-.657-7.348 1.051-10.021 1.857-2.909 5.79-5.385 9.436-6.665 8.479-2.977 17.323-5.14 26.036-7.593 2.37-.666 4.793-1.19 7.12-1.763 0-.648.155-1.248-.022-1.338-10.414-5.363-12.13-13.929-11.452-23.584a151.365 151.365 0 0 0 .084-16.463C69.627 56.228 72.567 51.731 78.6 49c6.314-2.855 12.929-5.181 19.249-8.022 1.928-.866 3.322-2.664 4.962-4.034l-1.586-1.525-2.625 3.657-1.934-.052c-.9-8.05-2.952-16.162-2.412-24.137.559-8.275 8.535-12.831 15.821-14.665V0c.156.035.312.07.469.108q.235-.056.468-.108v.222c7.286 1.834 15.263 6.39 15.822 14.665.541 7.975-1.507 16.086-2.411 24.137l-1.936.052-2.626-3.656c-.529.51-1.055 1.018-1.585 1.525 1.641 1.371 3.036 3.168 4.964 4.034 6.321 2.84 12.935 5.167 19.248 8.022 6.037 2.73 8.979 7.227 8.737 13.408a151.772 151.772 0 0 0 .085 16.463c.678 9.655-1.04 18.22-11.452 23.584-.177.09-.022.69-.022 1.338 2.328.573 4.748 1.1 7.119 1.763 8.712 2.453 17.556 4.616 26.036 7.593 3.648 1.28 7.579 3.757 9.438 6.665 1.708 2.673.8 6.656 1.049 10.021l6.335-1.372c2.11-.457 4.223-.913 7.406-1.6-1.5 3.559-2.536 6.037-3.572 8.506l17.426-6.181 1.193 1.673-5 9.037c6.727-1.088 12.982-2.1 19.235-3.114l.72 1.522c-2.183 2.339-4.367 4.679-7.159 7.676h29.1v39.067c-3.413-.14-6.833-.399-10.252-.399z" data-name="Union 14" transform="translate(10.35 23.91)"/>
            </g>
            <g filter="url(#Path_17632)" transform="translate(-10.35 -11.67)">
                <path id="Path_17632-2" fill="#58595b" stroke="#000" d="M650.181 630.341h-2.616v-5.107h-1.7v-7c3.682-1.183 5.927-2.7 6.856-5.777a13.986 13.986 0 0 0 .5-4.1 11.85 11.85 0 0 0-1.19-5.656c-.753-1.39-9.811-7.081-9.871-7.037-4.97-1.515-10.188-2.569-14.794-3.5a33.578 33.578 0 0 1-4.247-1.249c-.854-.293-1.738-.6-2.633-.853-.174-.049-.356-.1-.545-.159a16.355 16.355 0 0 0-4.322-.852 5.064 5.064 0 0 0-.986.09l.113-.531c.083-.394.166-.788.257-1.181.065-.285.117-.674.172-1.086.151-1.13.339-2.535.93-3.094a.08.08 0 0 0 .019-.1c-.014-.03-.046-.049-.116-.049a.8.8 0 0 0-.159.055 9.566 9.566 0 0 0 1.318-4.234c.383-6.488-.522-13-1.4-19.3a123.718 123.718 0 0 1-1.479-15.26c0-.122 0-.28.007-.47.048-2.05.194-8.289-6.191-10.617a71.383 71.383 0 0 0-9.994-3.567c-1.672-.477-3.422-.824-5.116-1.158-1.848-.365-3.758-.743-5.56-1.291a6.467 6.467 0 0 1-2.428-1.2 2.6 2.6 0 0 1-.829-1.748 4.394 4.394 0 0 0-.267-1.055c-.025-.058-.047-.114-.068-.169a1.087 1.087 0 0 0-.365-.568c-.016-.083-.085-.413-.085-.413a13.38 13.38 0 0 0 1.995-2.675 27.031 27.031 0 0 0 1.367 4.346c.313.514 1.061 2.671 2.254 2.671a1.7 1.7 0 0 0 .481-.07.922.922 0 0 0 .579-.422c.293-.529-.042-1.372-.338-2.116a4.758 4.758 0 0 1-.327-1.006l-.069-.577a79.967 79.967 0 0 1-.7-8.33c1.935-1.839 3.9-4.972 3.935-7.847a1.459 1.459 0 0 0-.793-1.517.4.4 0 0 0 .015-.166.638.638 0 0 0-.012-.071l-.063-.525a.489.489 0 0 0-.267-.4 1.787 1.787 0 0 1 .515-.211.287.287 0 0 0 .232-.215.3.3 0 0 0-.148-.311c-.072-.045-.164-.091-.262-.14a1.8 1.8 0 0 1-.5-.318.294.294 0 0 0-.137-.389c-.008-.065-.013-.13-.018-.195l-.006-.072a2.037 2.037 0 0 1 1.1-.362c.049 0 .1 0 .17.007a.179.179 0 0 0 .178-.124.176.176 0 0 0-.088-.21 1.889 1.889 0 0 1-1.156-1.845 1.18 1.18 0 0 1 .332-.287c.079-.05.162-.094.246-.138a1.4 1.4 0 0 0 .545-.414.166.166 0 0 0-.032-.219 1.641 1.641 0 0 0-.624-.3 3.2 3.2 0 0 1-.325-.114 3.366 3.366 0 0 1-.428-.226 3.775 3.775 0 0 1 .513-.7 3.417 3.417 0 0 1 .436-.385l.014-.01c-.1-.323-.2-.65-.289-.976a2.827 2.827 0 0 1-.633-.171l-.119-.048c-.036-.048-.077-.092-.113-.133a.222.222 0 0 0 .074-.242l.049-.062a.942.942 0 0 1 .113-.113l.064-.06a.214.214 0 0 0 .194-.219.219.219 0 0 0-.24-.2.29.29 0 0 0-.062.007.505.505 0 0 0-.266-.056 1.454 1.454 0 0 1-.246-.019 1.243 1.243 0 0 1-.612-.3.331.331 0 0 0-.029-.026.851.851 0 0 1-.3-.719.186.186 0 0 0-.057-.159.331.331 0 0 0-.229-.09.29.29 0 0 0-.1.016 1.2 1.2 0 0 0-.231-.254.663.663 0 0 0-.165-.08.506.506 0 0 1-.134-.066.382.382 0 0 1-.129-.341 1.015 1.015 0 0 0-.035-.278.758.758 0 0 0-.245-.43.22.22 0 0 0-.057-.175.318.318 0 0 0-.238-.1.384.384 0 0 0-.134.025 1.834 1.834 0 0 1-.273.079 4.521 4.521 0 0 1-.464-.083 3.727 3.727 0 0 0-.528-.088l-.078-.006c-.051 0-.095-.007-.134-.007a.571.571 0 0 0-.063 0 .366.366 0 0 0-.074-.1 1.283 1.283 0 0 1-.129-.142.741.741 0 0 0 .039-.736c-.252-.533-1-.656-1.65-.738a.728.728 0 0 0 .235-.571c-.021-.465-.388-.792-.986-.884a.826.826 0 0 0-.078-.706.508.508 0 0 0-.441-.22.486.486 0 0 0-.128.016.216.216 0 0 1-.062.01.071.071 0 0 1-.063-.028c-.06-.077-.1-.36.338-1.393l.025-.06a.233.233 0 0 0-.036-.239.41.41 0 0 0-.311-.136h-.02l-.8-1.708a.3.3 0 0 0 .1-.328.3.3 0 0 0-.315-.189h-.154a5.45 5.45 0 0 1-1.984-.5 1.625 1.625 0 0 0 .316-.981l.018-.019a2.746 2.746 0 0 0 .545-2.954c-.246-.6-.555-1.22-.855-1.816l-.138-.275a3.839 3.839 0 0 0-.46-.629c-.411-.5-.876-1.057-.587-1.472a.2.2 0 0 0 .012-.228.313.313 0 0 0-.263-.131.337.337 0 0 0-.125.024c-.095.039-.181.077-.26.117a2.1 2.1 0 0 0-.141-1.179 4.071 4.071 0 0 0-1.113-1.338 4.732 4.732 0 0 1-.924-1.009.443.443 0 0 0 .073-.483 1.9 1.9 0 0 0 .112-.183c.362-.684-.1-1.352-.5-1.941l-.111-.163a.2.2 0 0 0-.175-.089.233.233 0 0 0-.192.1.153.153 0 0 0 0 .173c.036.054.138.2.138.2a.221.221 0 0 0 .069.131.094.094 0 0 0 .035.024c.051.075.1.151.145.228a1.146 1.146 0 0 1-.042 1.248.479.479 0 0 0-.383.215.446.446 0 0 0-.009.451 1.794 1.794 0 0 0-.3.668c-.132.742-.044 1.291.818 1.559a1.205 1.205 0 0 1 .222 1.074 1.532 1.532 0 0 1-.365.339c-.082.062-.161.123-.223.179a.592.592 0 0 0-.135-.422.777.777 0 0 0-.254-.16l-.054-.025c-.143-.07-.276-.121-.4-.171a3.933 3.933 0 0 1-.371-.155 1.861 1.861 0 0 0-.189-.224.857.857 0 0 1-.241-.351.325.325 0 0 0-.326-.2.287.287 0 0 0-.305.208.462.462 0 0 0 .082.434c.023.038.05.08.079.133a.952.952 0 0 1 .122 1.03c-.035.087-.072.173-.108.259a5.266 5.266 0 0 0-.211.55l-.025.082c-.069.227-.135.443-.183.658a14.708 14.708 0 0 0-1.585-.718l-.133-.054a.452.452 0 0 0-.174-.035.391.391 0 0 0-.375.255.292.292 0 0 0 .174.348c.781.409.262 1.239-.287 2.118a3.057 3.057 0 0 0-.676 1.616 2.9 2.9 0 0 0 1.557 1.992 1.787 1.787 0 0 0 .9 1.124 6.039 6.039 0 0 0-.5.384 3.618 3.618 0 0 1-.55.4c-.194.1-.333.159-.436.2-.318.137-.323.153-.468.551-.025.07-.055.151-.094.272a1.158 1.158 0 0 0 .131.388l-.9.755a.1.1 0 0 1-.036.005.723.723 0 0 1-.164-.032.793.793 0 0 0-.2-.037.229.229 0 0 0-.1.022.885.885 0 0 1-.387.134c-.111.007-.124.025-.329.331a.212.212 0 0 0 .044.282.7.7 0 0 1 .278.345.347.347 0 0 0-.1.369 2.91 2.91 0 0 1-.625.508 4.837 4.837 0 0 0-.406.3.254.254 0 0 0-.089.263.318.318 0 0 0 .184.2c-.191.723-.534 1.089-1.019 1.089a1.1 1.1 0 0 1-.143-.01 1.668 1.668 0 0 0-.2-.013 1.552 1.552 0 0 0-.318.032.323.323 0 0 0-.3.2c-.393.907-1.555 1.042-2.212 1.042h-.031a.291.291 0 0 0-.244.112.262.262 0 0 0-.033.244l-1.725 1.461a.4.4 0 0 0-.116-.017.335.335 0 0 0-.274.13.247.247 0 0 0-.017.267c.162 1.1.072 1.829-.268 2.173a.835.835 0 0 1-.627.235 1.956 1.956 0 0 1-.227-.016 1.208 1.208 0 0 0-.389.1l-.006.021a.226.226 0 0 1-.04.021c-.053.024-.126.058-.14.128a8.119 8.119 0 0 0 .412 2.487l.028.109a2.061 2.061 0 0 0-.527-.087.712.712 0 0 0-.7.472c-.077.168.135.464.381.807a2.073 2.073 0 0 1 .435.8.858.858 0 0 0-.185.166.906.906 0 0 1-.157.013 2.436 2.436 0 0 1-.433-.048.461.461 0 0 0-.09-.009.388.388 0 0 0-.284.116.313.313 0 0 0-.076.282 3.115 3.115 0 0 0 .424.77c.326.5.732 1.119.581 1.429a.393.393 0 0 1-.3.189.319.319 0 0 0-.266.231.344.344 0 0 0 .151.357l1.118 1.784h-.089a1.545 1.545 0 0 0-1.534 1.518 8.724 8.724 0 0 0 2.848 6.551.662.662 0 0 0 .145.672 27.518 27.518 0 0 0 .889 3.369c.886 2.231.453 7.452.372 7.765a.757.757 0 0 1-.124.219.473.473 0 0 0-.138.384l.026.094a.732.732 0 0 0 .436.594 1.3 1.3 0 0 0 .683.221c1.54 0 2.138-3.755 2.175-6.4a13.029 13.029 0 0 0 1.052 1.364 1.12 1.12 0 0 0 .118.495c.02.041.036.084.056.126a.992.992 0 0 0 .074.362.214.214 0 0 0-.015.18 3.373 3.373 0 0 1-.246 3.1c-.991 1.552-3.419 2.74-7.217 3.53a68.4 68.4 0 0 0-9.4 2.473 34.238 34.238 0 0 0-8.612 4.414c-9.1 6.695-7.406 21.009-8.294 30.356a32.524 32.524 0 0 0-.129 7.692.855.855 0 0 0 .071.726c.017.029.031.06.047.091l.034.08.005.028a.153.153 0 0 0 .023.055 11.089 11.089 0 0 1-.232 1.649q-.288.371-.563.749a28.6 28.6 0 0 0-2.044 3.444c-.5.947-1.023 1.926-1.633 2.849a20.743 20.743 0 0 0-2.042 4.3c-.158.416-.32.838-.494 1.271-.962 2.391-2.812 3.925-4.77 5.549l-.637.53a.294.294 0 0 0-.112.221l-4.029.925-.461.056c-.655.2-1.234.4-1.768.6a27.954 27.954 0 0 0-4.583 2.41c-.579.353-1.179.718-1.782 1.06-1.209.686-7.017 3.846-7.826 8.1-.64 2.815.884 6.066 3.792 8.09a23.7 23.7 0 0 0 3.419 1.937v6.392h-1.7v5.107h-2.616l-7.456 6.435v11.345h162.46v-11.337zm-53.886-59.4c.311-2.819 2.1-10.822 4.055-13.233.042 1.1.14 2.207.234 3.282l.047.547c.254 2.94.543 5.827.861 8.582.074.64.132 1.312.187 1.961a24.458 24.458 0 0 0 .908 5.567 26.294 26.294 0 0 0-3.438 3.125c-1.674-2.563-3.308-5.731-2.854-9.834zm-55.613 18.13c2.11-2.79 3.382-4.884 4.055-7.962 1.943-8.866 3.875-18.081 5.743-27.388a26.72 26.72 0 0 1 .935 3.624l.129.611c1.394 6.582 1.358 20.986-1.53 26.619l-.065.044a48.176 48.176 0 0 1-7.649 4.6c-.79.356-1.617.7-2.531 1.046-.032.012-.068.024-.106.036.377-.422.711-.826 1.019-1.233z" data-name="Path 17632" transform="translate(-204.55 -451.09)"/>
            </g>
        </g>
    </g>
</svg>
