<svg xmlns="http://www.w3.org/2000/svg" width="599.954" height="34.339" viewBox="0 0 599.954 34.339"><defs><style>.a{fill:#b7202e;}</style></defs><path class="a" d="M105.756,98.944l13.713,7.193c2.349,1.125,3.219-.236,3.5-.683a1.528,1.528,0,0,0-.465-2.11.846.846,0,0,0-1.163.255,1.1,1.1,0,1,1-1.857-1.182,3.045,3.045,0,0,1,4.206-.931,3.739,3.739,0,0,1,1.137,5.15c-1.38,2.166-3.741,2.723-6.347,1.468l-13.713-7.191c-2.658-1.276-6.341-1.989-8.792,1.852a4.358,4.358,0,0,0,1.333,6.016,2.935,2.935,0,0,0,4.052-.9,1.888,1.888,0,0,0-.573-2.6,1.109,1.109,0,0,0-1.529.34,1.1,1.1,0,0,1-1.858-1.186,3.316,3.316,0,0,1,4.57-1.012,4.092,4.092,0,0,1,1.248,5.645,5.14,5.14,0,0,1-7.1,1.568,6.523,6.523,0,0,1-2.245-2.421,6.476,6.476,0,0,1-2.213,2.421,5.14,5.14,0,0,1-7.1-1.568,4.091,4.091,0,0,1,1.249-5.645,3.315,3.315,0,0,1,4.568,1.012,1.1,1.1,0,0,1-1.858,1.186,1.107,1.107,0,0,0-1.526-.34,1.886,1.886,0,0,0-.576,2.6,2.935,2.935,0,0,0,4.052.9,4.356,4.356,0,0,0,1.333-6.016c-2.45-3.841-6.134-3.129-8.756-1.873L69.274,108.12c-2.572,1.239-4.933.681-6.313-1.484a3.7,3.7,0,0,1-.586-2,3.768,3.768,0,0,1,.088-.811,3.715,3.715,0,0,1,1.635-2.34,3.045,3.045,0,0,1,4.206.931,1.1,1.1,0,1,1-1.857,1.182.847.847,0,0,0-1.164-.255,1.528,1.528,0,0,0-.465,2.11c.285.447,1.155,1.808,3.47.7l13.781-7.23c4.821-2.31,9.051-1.344,11.6,2.655.1.152.157.316.239.472.082-.154.117-.322.215-.472C96.672,97.579,100.9,96.613,105.756,98.944Z" transform="translate(-15.545 -85.646)"/><path class="a" d="M160.436,98.946l13.713,7.193c2.348,1.125,3.218-.237,3.505-.683a1.525,1.525,0,0,0-.47-2.11.827.827,0,0,0-.631-.112.836.836,0,0,0-.53.37,1.1,1.1,0,1,1-1.858-1.186,3.045,3.045,0,0,1,4.2-.93,3.735,3.735,0,0,1,1.143,5.151c-1.384,2.164-3.744,2.719-6.351,1.467l-13.713-7.191c-2.657-1.276-6.34-1.989-8.787,1.852a4.363,4.363,0,0,0,1.328,6.016,2.939,2.939,0,0,0,4.054-.9,1.884,1.884,0,0,0-.576-2.6,1.1,1.1,0,0,0-1.525.337,1.1,1.1,0,1,1-1.857-1.182,3.307,3.307,0,0,1,4.567-1.013,4.1,4.1,0,0,1,1.248,5.645,5.148,5.148,0,0,1-7.1,1.568,6.517,6.517,0,0,1-2.245-2.422,6.472,6.472,0,0,1-2.214,2.422,5.147,5.147,0,0,1-7.1-1.57,4.1,4.1,0,0,1,1.249-5.642,3.315,3.315,0,0,1,4.568,1.012,1.1,1.1,0,1,1-1.858,1.186,1.107,1.107,0,0,0-1.526-.34,1.892,1.892,0,0,0-.576,2.6,2.936,2.936,0,0,0,4.052.9,4.358,4.358,0,0,0,1.333-6.016c-2.452-3.841-6.132-3.129-8.755-1.873l-13.781,7.228c-2.574,1.239-4.935.684-6.316-1.484a3.733,3.733,0,0,1,1.137-5.15,3.043,3.043,0,0,1,4.206.931,1.1,1.1,0,1,1-1.858,1.182.843.843,0,0,0-1.162-.255,1.53,1.53,0,0,0-.467,2.11c.287.447,1.155,1.811,3.472.7l13.782-7.23c4.821-2.31,9.048-1.341,11.6,2.655.1.154.157.318.24.476.082-.155.119-.324.215-.474C151.35,97.582,155.579,96.615,160.436,98.946Z" transform="translate(3.551 -85.649)"/><path class="a" d="M215.117,98.943l13.715,7.193c2.349,1.128,3.217-.236,3.5-.683a1.529,1.529,0,0,0-.467-2.11.843.843,0,0,0-1.162.255,1.1,1.1,0,1,1-1.858-1.182,3.043,3.043,0,0,1,4.206-.931,3.736,3.736,0,0,1,1.137,5.15c-1.38,2.168-3.741,2.723-6.347,1.468l-13.716-7.191c-2.657-1.276-6.337-1.989-8.789,1.852a4.362,4.362,0,0,0,1.333,6.016,2.938,2.938,0,0,0,4.053-.895,1.892,1.892,0,0,0-.575-2.6,1.11,1.11,0,0,0-1.529.34,1.1,1.1,0,0,1-1.858-1.186,3.318,3.318,0,0,1,4.571-1.012,4.1,4.1,0,0,1,1.247,5.645,5.14,5.14,0,0,1-7.1,1.568,6.521,6.521,0,0,1-2.246-2.422,6.476,6.476,0,0,1-2.211,2.422,5.141,5.141,0,0,1-7.1-1.568,4.092,4.092,0,0,1,1.251-5.645,3.314,3.314,0,0,1,4.567,1.012,1.1,1.1,0,1,1-1.857,1.186,1.109,1.109,0,0,0-1.527-.34,1.887,1.887,0,0,0-.576,2.6,2.937,2.937,0,0,0,4.053.9,4.363,4.363,0,0,0,1.332-6.016c-2.45-3.841-6.134-3.129-8.756-1.873l-13.782,7.228c-2.572,1.239-4.931.681-6.313-1.483a3.731,3.731,0,0,1,1.137-5.151,3.048,3.048,0,0,1,4.207.93,1.1,1.1,0,1,1-1.858,1.186.845.845,0,0,0-1.164-.258,1.527,1.527,0,0,0-.464,2.11c.285.447,1.155,1.808,3.469.7l13.781-7.23c4.822-2.31,9.052-1.344,11.6,2.658.1.151.155.314.237.471.082-.155.119-.324.215-.474C206.034,97.582,210.261,96.613,215.117,98.943Z" transform="translate(22.645 -85.646)"/><path class="a" d="M283.862,103.937a1.1,1.1,0,0,1-.335-1.522,3.044,3.044,0,0,1,4.2-.93,3.734,3.734,0,0,1,1.14,5.151c-1.382,2.164-3.743,2.721-6.349,1.467l-13.712-7.191c-2.658-1.276-6.341-1.989-8.792,1.852a4.359,4.359,0,0,0,1.333,6.016,2.935,2.935,0,0,0,4.052-.9,1.886,1.886,0,0,0-.573-2.6,1.109,1.109,0,0,0-1.529.34,1.1,1.1,0,0,1-1.858-1.186,3.316,3.316,0,0,1,4.57-1.012,4.092,4.092,0,0,1,1.248,5.645,5.14,5.14,0,0,1-7.1,1.568,6.517,6.517,0,0,1-2.245-2.422,6.48,6.48,0,0,1-2.213,2.422,5.138,5.138,0,0,1-7.1-1.57,4.1,4.1,0,0,1,1.249-5.642,3.315,3.315,0,0,1,4.568,1.012,1.1,1.1,0,0,1-1.858,1.186,1.107,1.107,0,0,0-1.526-.34,1.883,1.883,0,0,0-.576,2.6,2.935,2.935,0,0,0,4.052.9,4.356,4.356,0,0,0,1.333-6.016c-2.45-3.841-6.134-3.129-8.756-1.873l-13.782,7.228c-2.572,1.239-4.933.681-6.313-1.484a3.737,3.737,0,0,1,1.137-5.15,3.045,3.045,0,0,1,4.206.931,1.1,1.1,0,1,1-1.857,1.182.846.846,0,0,0-1.163-.255,1.532,1.532,0,0,0-.467,2.11c.285.447,1.155,1.808,3.47.7l13.781-7.23c4.821-2.31,9.051-1.344,11.6,2.655.1.152.156.317.239.474.082-.155.117-.324.215-.474,2.55-4,6.78-4.965,11.634-2.635l13.713,7.193c2.349,1.125,3.219-.236,3.5-.683a1.529,1.529,0,0,0-.467-2.11.843.843,0,0,0-1.163.258A1.1,1.1,0,0,1,283.862,103.937Z" transform="translate(41.742 -85.646)"/><path class="a" d="M324.48,98.946l13.712,7.193c2.348,1.128,3.218-.236,3.5-.683a1.527,1.527,0,0,0-.468-2.11.842.842,0,0,0-1.162.258,1.1,1.1,0,1,1-1.858-1.186,3.046,3.046,0,0,1,4.206-.93,3.733,3.733,0,0,1,1.14,5.151c-1.383,2.164-3.743,2.721-6.351,1.467l-13.712-7.191c-2.658-1.276-6.341-1.989-8.789,1.852a4.362,4.362,0,0,0,1.329,6.016,2.939,2.939,0,0,0,4.054-.895,1.89,1.89,0,0,0-.575-2.6,1.108,1.108,0,0,0-1.529.34,1.1,1.1,0,1,1-1.857-1.186,3.315,3.315,0,0,1,4.568-1.012,4.094,4.094,0,0,1,1.248,5.645,5.145,5.145,0,0,1-7.094,1.568,6.509,6.509,0,0,1-2.246-2.422,6.484,6.484,0,0,1-2.214,2.422,5.146,5.146,0,0,1-7.1-1.57,4.1,4.1,0,0,1,1.249-5.642,3.315,3.315,0,0,1,4.568,1.012,1.1,1.1,0,0,1-1.858,1.186,1.108,1.108,0,0,0-1.527-.34,1.891,1.891,0,0,0-.576,2.6,2.939,2.939,0,0,0,4.054.9,4.357,4.357,0,0,0,1.33-6.016c-2.449-3.841-6.132-3.129-8.754-1.873L288,108.122c-2.573,1.239-4.933.681-6.314-1.483a3.733,3.733,0,0,1,1.139-5.151,3.045,3.045,0,0,1,4.206.93,1.1,1.1,0,1,1-1.858,1.186.843.843,0,0,0-1.163-.258,1.51,1.51,0,0,0-.669.958,1.534,1.534,0,0,0,.2,1.152c.286.447,1.155,1.811,3.467.7l13.785-7.23c4.821-2.31,9.048-1.341,11.6,2.655.1.152.157.317.239.475.082-.156.119-.324.215-.475C315.395,97.582,319.623,96.615,324.48,98.946Z" transform="translate(60.836 -85.649)"/><path class="a" d="M379.159,98.943l13.712,7.193c2.349,1.128,3.218-.236,3.5-.685a1.485,1.485,0,0,0,.2-1.15,1.507,1.507,0,0,0-.671-.958.841.841,0,0,0-1.162.258,1.1,1.1,0,0,1-1.858-1.186,3.044,3.044,0,0,1,4.2-.93,3.707,3.707,0,0,1,1.637,2.34,3.666,3.666,0,0,1-.5,2.81c-1.38,2.165-3.74,2.723-6.348,1.468l-13.712-7.191c-2.658-1.276-6.341-1.989-8.791,1.85a4.363,4.363,0,0,0,1.332,6.019,2.933,2.933,0,0,0,4.053-.895,1.888,1.888,0,0,0-.573-2.6,1.11,1.11,0,0,0-1.529.34,1.1,1.1,0,1,1-1.858-1.186,3.318,3.318,0,0,1,4.571-1.012,4.092,4.092,0,0,1,1.247,5.645,5.138,5.138,0,0,1-7.1,1.568,6.513,6.513,0,0,1-2.246-2.423,6.466,6.466,0,0,1-2.214,2.423,5.135,5.135,0,0,1-7.094-1.57,4.092,4.092,0,0,1,1.249-5.642,3.314,3.314,0,0,1,4.567,1.012,1.1,1.1,0,1,1-1.857,1.186,1.109,1.109,0,0,0-1.527-.34,1.889,1.889,0,0,0-.576,2.6,2.934,2.934,0,0,0,4.054.9,4.363,4.363,0,0,0,1.33-6.016c-2.449-3.841-6.132-3.129-8.755-1.873l-13.782,7.228c-2.573,1.239-4.933.681-6.316-1.484a3.736,3.736,0,0,1,1.139-5.15,3.047,3.047,0,0,1,4.207.93,1.1,1.1,0,1,1-1.858,1.186.843.843,0,0,0-1.163-.258,1.528,1.528,0,0,0-.467,2.107c.286.449,1.156,1.813,3.469.7l13.782-7.23c4.822-2.31,9.052-1.341,11.6,2.658.1.151.155.314.237.471.082-.155.119-.324.215-.474C370.074,97.581,374.3,96.613,379.159,98.943Z" transform="translate(79.932 -85.646)"/><path class="a" d="M410.151,98.927c4.822-2.311,9.049-1.344,11.6,2.655.1.152.157.317.24.475.082-.157.117-.324.213-.475,2.553-4,6.78-4.965,11.636-2.635l13.714,7.193c2.349,1.128,3.218-.236,3.5-.685a1.491,1.491,0,0,0,.205-1.15,1.512,1.512,0,0,0-.671-.958.845.845,0,0,0-1.163.255,1.1,1.1,0,1,1-1.857-1.182,3.043,3.043,0,0,1,4.2-.931,3.728,3.728,0,0,1,1.139,5.15c-1.38,2.165-3.74,2.723-6.348,1.468l-13.713-7.191c-2.658-1.276-6.341-1.989-8.79,1.852a4.36,4.36,0,0,0,1.332,6.016,2.939,2.939,0,0,0,4.053-.895,1.888,1.888,0,0,0-.573-2.6,1.11,1.11,0,0,0-1.529.34,1.1,1.1,0,1,1-1.858-1.186,3.316,3.316,0,0,1,4.57-1.012,4.094,4.094,0,0,1,1.248,5.645,5.148,5.148,0,0,1-7.1,1.568,6.513,6.513,0,0,1-2.248-2.422,6.479,6.479,0,0,1-2.213,2.422,5.145,5.145,0,0,1-7.1-1.57,4.1,4.1,0,0,1,1.248-5.642,3.314,3.314,0,0,1,4.568,1.013,1.1,1.1,0,1,1-1.858,1.182,1.106,1.106,0,0,0-1.526-.337,1.888,1.888,0,0,0-.575,2.6,2.937,2.937,0,0,0,4.053.9,4.359,4.359,0,0,0,1.33-6.016c-2.449-3.841-6.131-3.129-8.755-1.873l-13.782,7.228c-2.572,1.239-4.933.681-6.314-1.484a3.732,3.732,0,0,1,1.139-5.15,3.045,3.045,0,0,1,4.206.93,1.1,1.1,0,1,1-1.857,1.186.844.844,0,0,0-1.164-.258,1.527,1.527,0,0,0-.465,2.107c.285.449,1.155,1.813,3.469.7Z" transform="translate(99.028 -85.65)"/><path class="a" d="M467.334,109.073a4.1,4.1,0,0,1,1.248-5.645,3.314,3.314,0,0,1,4.568,1.013,1.1,1.1,0,1,1-1.858,1.182,1.107,1.107,0,0,0-1.527-.337,1.89,1.89,0,0,0-.575,2.6,2.938,2.938,0,0,0,4.054.9,4.357,4.357,0,0,0,1.329-6.016c-2.449-3.841-6.132-3.129-8.754-1.873l-13.782,7.228c-2.573,1.239-4.933.681-6.314-1.484a3.732,3.732,0,0,1,1.139-5.15,3.045,3.045,0,0,1,4.206.93,1.1,1.1,0,1,1-1.858,1.186.843.843,0,0,0-1.163-.258,1.527,1.527,0,0,0-.467,2.107c.286.449,1.156,1.811,3.469.7l13.784-7.23c4.821-2.31,9.048-1.341,11.6,2.655a6.568,6.568,0,0,1-2,9.06A5.146,5.146,0,0,1,467.334,109.073Z" transform="translate(118.123 -85.649)"/><rect class="a" width="3.863" height="3.863" transform="translate(521.304 28.876) rotate(45)"/><rect class="a" width="3.863" height="3.863" transform="matrix(0.707, 0.707, -0.707, 0.707, 447.528, 28.876)"/><rect class="a" width="3.863" height="3.863" transform="translate(373.752 28.876) rotate(45)"/><rect class="a" width="3.863" height="3.863" transform="translate(299.976 28.876) rotate(45)"/><rect class="a" width="3.863" height="3.863" transform="translate(226.2 28.876) rotate(44.997)"/><rect class="a" width="3.863" height="3.863" transform="translate(152.425 28.876) rotate(45.004)"/><rect class="a" width="3.863" height="3.863" transform="matrix(0.707, 0.707, -0.707, 0.707, 78.648, 28.876)"/><rect class="a" width="3.863" height="3.863" transform="translate(595.08 28.876) rotate(44.997)"/><path class="a" d="M459.864,114.543l-14.307,5.727a1.1,1.1,0,0,1-.819,0l-14.307-5.727a1.1,1.1,0,0,1,0-2.047l14.307-5.73a1.1,1.1,0,0,1,.819,0l14.307,5.73A1.148,1.148,0,0,1,459.864,114.543Zm-26.06-1.023,11.344,4.54,11.344-4.54-11.344-4.544Z" transform="translate(112.746 -106.687)"/><path class="a" d="M405.316,112.5a1.148,1.148,0,0,1,0,2.047l-14.307,5.727a1.1,1.1,0,0,1-.819,0l-14.306-5.727a1.1,1.1,0,0,1,0-2.047l14.306-5.73a1.1,1.1,0,0,1,.819,0Zm-26.06,1.024,11.344,4.54,11.344-4.54L390.6,108.976Z" transform="translate(93.697 -106.687)"/><path class="a" d="M350.768,112.5a1.148,1.148,0,0,1,0,2.047l-14.307,5.727a1.1,1.1,0,0,1-.819,0l-14.306-5.727a1.1,1.1,0,0,1,0-2.047l14.306-5.73a1.1,1.1,0,0,1,.819,0Zm-26.06,1.024,11.343,4.54,11.346-4.54-11.346-4.544Z" transform="translate(74.647 -106.687)"/><path class="a" d="M296.219,112.5a1.148,1.148,0,0,1,0,2.047l-14.306,5.727a1.1,1.1,0,0,1-.819,0l-14.306-5.727a1.1,1.1,0,0,1,0-2.047l14.306-5.73a1.1,1.1,0,0,1,.819,0Zm-26.059,1.024,11.343,4.54,11.344-4.54L281.5,108.976Z" transform="translate(55.598 -106.687)"/><path class="a" d="M241.67,112.5a1.148,1.148,0,0,1,0,2.047l-14.306,5.727a1.1,1.1,0,0,1-.818,0l-14.306-5.727a1.1,1.1,0,0,1,0-2.047l14.306-5.73a1.1,1.1,0,0,1,.818,0Zm-26.057,1.024,11.343,4.54,11.343-4.54-11.343-4.544Z" transform="translate(36.549 -106.687)"/><path class="a" d="M187.122,112.5a1.148,1.148,0,0,1,0,2.047l-14.307,5.727a1.1,1.1,0,0,1-.816,0l-14.307-5.727a1.1,1.1,0,0,1,0-2.047L172,106.766a1.1,1.1,0,0,1,.816,0Zm-26.057,1.024,11.343,4.54,11.343-4.54-11.343-4.544Z" transform="translate(17.499 -106.687)"/><path class="a" d="M132.574,112.5a1.148,1.148,0,0,1,0,2.047l-14.307,5.727a1.1,1.1,0,0,1-.816,0l-14.307-5.727a1.1,1.1,0,0,1,0-2.047l14.307-5.73a1.1,1.1,0,0,1,.816,0Zm-26.059,1.024,11.344,4.54,11.343-4.54-11.343-4.544Z" transform="translate(-1.55 -106.687)"/><path class="a" d="M415.3,108.139a.827.827,0,0,1,.584.243l4.046,4.048a.848.848,0,0,1,0,1.167l-4.046,4.045a.822.822,0,0,1-1.167,0l-4.046-4.045a.824.824,0,0,1,0-1.167l4.046-4.048A.83.83,0,0,1,415.3,108.139Zm-2.879,4.875,2.879,2.878,2.878-2.878-2.878-2.879Z" transform="translate(106.002 -106.181)"/><path class="a" d="M360.039,117.642l-4.048-4.045a.822.822,0,0,1,0-1.167l4.046-4.048a.824.824,0,0,1,1.168,0l4.048,4.048a.851.851,0,0,1,0,1.167l-4.048,4.045A.821.821,0,0,1,360.039,117.642Zm3.461-4.628-2.878-2.879-2.878,2.879,2.878,2.878Z" transform="translate(86.906 -106.181)"/><path class="a" d="M305.356,117.642l-4.045-4.045a.822.822,0,0,1,0-1.167l4.045-4.048a.826.826,0,0,1,1.17,0l4.046,4.048a.848.848,0,0,1,0,1.167l-4.046,4.045A.824.824,0,0,1,305.356,117.642Zm3.463-4.628-2.879-2.879-2.877,2.879,2.877,2.878Z" transform="translate(67.811 -106.181)"/><path class="a" d="M250.678,117.642,246.63,113.6a.822.822,0,0,1,0-1.167l4.048-4.048a.822.822,0,0,1,1.167,0l4.045,4.048a.818.818,0,0,1,0,1.167l-4.045,4.045A.822.822,0,0,1,250.678,117.642Zm3.462-4.628-2.878-2.879-2.879,2.879,2.879,2.878Z" transform="translate(48.715 -106.181)"/><path class="a" d="M196,117.642,191.95,113.6a.823.823,0,0,1,0-1.167L196,108.382a.822.822,0,0,1,1.167,0l4.048,4.048a.848.848,0,0,1,0,1.167l-4.048,4.045A.823.823,0,0,1,196,117.642Zm3.461-4.628-2.878-2.879-2.878,2.879,2.878,2.878Z" transform="translate(29.62 -106.181)"/><path class="a" d="M141.316,117.642l-4.045-4.045a.822.822,0,0,1,0-1.167l4.045-4.048a.822.822,0,0,1,1.167,0l4.045,4.048a.82.82,0,0,1,0,1.167l-4.045,4.045A.823.823,0,0,1,141.316,117.642Zm3.462-4.628-2.879-2.879-2.878,2.879,2.878,2.875Z" transform="translate(10.525 -106.181)"/><rect class="a" width="2.724" height="2.724" transform="translate(539.531 4.906) rotate(45)"/><rect class="a" width="2.723" height="2.723" transform="translate(534.261 4.906) rotate(44.996)"/><rect class="a" width="2.723" height="2.723" transform="matrix(0.707, 0.707, -0.707, 0.707, 528.992, 4.906)"/><rect class="a" width="2.723" height="2.723" transform="translate(513.615 4.906) rotate(45)"/><rect class="a" width="2.723" height="2.723" transform="matrix(0.707, 0.707, -0.707, 0.707, 508.346, 4.906)"/><rect class="a" width="2.723" height="2.723" transform="matrix(0.707, 0.707, -0.707, 0.707, 503.077, 4.906)"/><rect class="a" width="2.723" height="2.723" transform="matrix(0.707, 0.707, -0.707, 0.707, 587.736, 4.906)"/><rect class="a" width="2.723" height="2.723" transform="translate(582.467 4.906) rotate(45)"/><rect class="a" width="2.723" height="2.723" transform="matrix(0.707, 0.707, -0.707, 0.707, 577.198, 4.906)"/><rect class="a" width="2.723" height="2.723" transform="matrix(0.707, 0.707, -0.707, 0.707, 465.755, 4.906)"/><rect class="a" width="2.723" height="2.723" transform="matrix(0.707, 0.707, -0.707, 0.707, 460.486, 4.906)"/><rect class="a" width="2.724" height="2.724" transform="matrix(0.707, 0.707, -0.707, 0.707, 455.216, 4.906)"/><rect class="a" width="2.724" height="2.724" transform="translate(439.839 4.906) rotate(45)"/><rect class="a" width="2.723" height="2.723" transform="translate(434.57 4.906) rotate(45)"/><rect class="a" width="2.723" height="2.723" transform="translate(429.301 4.906) rotate(45.004)"/><rect class="a" width="2.723" height="2.723" transform="translate(391.979 4.906) rotate(45)"/><rect class="a" width="2.723" height="2.723" transform="translate(386.71 4.906) rotate(44.994)"/><rect class="a" width="2.723" height="2.723" transform="matrix(0.707, 0.707, -0.707, 0.707, 381.44, 4.906)"/><rect class="a" width="2.723" height="2.723" transform="translate(366.063 4.906) rotate(44.996)"/><rect class="a" width="2.723" height="2.723" transform="translate(360.794 4.906) rotate(44.996)"/><rect class="a" width="2.723" height="2.723" transform="translate(355.525 4.906) rotate(45.004)"/><rect class="a" width="2.723" height="2.723" transform="translate(318.203 4.906) rotate(45)"/><rect class="a" width="2.723" height="2.723" transform="matrix(0.707, 0.707, -0.707, 0.707, 312.934, 4.906)"/><rect class="a" width="2.723" height="2.723" transform="translate(307.665 4.906) rotate(44.996)"/><rect class="a" width="2.723" height="2.723" transform="translate(292.288 4.906) rotate(44.996)"/><rect class="a" width="2.723" height="2.723" transform="translate(287.018 4.906) rotate(44.996)"/><rect class="a" width="2.723" height="2.723" transform="matrix(0.707, 0.707, -0.707, 0.707, 281.749, 4.906)"/><rect class="a" width="2.723" height="2.723" transform="matrix(0.707, 0.707, -0.707, 0.707, 244.427, 4.906)"/><rect class="a" width="2.723" height="2.723" transform="matrix(0.707, 0.707, -0.707, 0.707, 239.158, 4.906)"/><rect class="a" width="2.723" height="2.723" transform="translate(233.889 4.906) rotate(45.002)"/><rect class="a" width="2.723" height="2.723" transform="translate(218.512 4.906) rotate(44.994)"/><rect class="a" width="2.723" height="2.723" transform="translate(213.242 4.906) rotate(44.996)"/><rect class="a" width="2.723" height="2.723" transform="translate(207.974 4.906) rotate(45.004)"/><rect class="a" width="2.723" height="2.723" transform="matrix(0.707, 0.707, -0.707, 0.707, 170.651, 4.906)"/><rect class="a" width="2.724" height="2.724" transform="translate(165.382 4.906) rotate(45)"/><rect class="a" width="2.723" height="2.723" transform="matrix(0.707, 0.707, -0.707, 0.707, 160.113, 4.906)"/><rect class="a" width="2.723" height="2.723" transform="translate(144.736 4.906) rotate(45)"/><rect class="a" width="2.723" height="2.723" transform="translate(139.466 4.906) rotate(44.992)"/><rect class="a" width="2.723" height="2.723" transform="translate(134.197 4.906) rotate(45)"/><rect class="a" width="2.723" height="2.723" transform="translate(96.875 4.906) rotate(45)"/><rect class="a" width="2.723" height="2.723" transform="translate(91.606 4.906) rotate(45)"/><rect class="a" width="2.723" height="2.723" transform="translate(86.337 4.906) rotate(45)"/><path class="a" d="M56.838,106.13c2.35,1.128,3.218-.236,3.505-.683a1.525,1.525,0,0,0-.47-2.11.827.827,0,0,0-.631-.112.836.836,0,0,0-.53.37,1.1,1.1,0,0,1-1.858-1.186,3.045,3.045,0,0,1,4.2-.93,3.731,3.731,0,0,1,1.141,5.15c-1.38,2.168-3.741,2.723-6.349,1.468l-13.713-7.191c-2.657-1.276-6.337-1.989-8.789,1.852a4.359,4.359,0,0,0,1.333,6.016,2.935,2.935,0,0,0,4.05-.9,1.891,1.891,0,0,0-.572-2.6,1.109,1.109,0,0,0-1.529.337,1.1,1.1,0,1,1-1.858-1.182,3.316,3.316,0,0,1,4.571-1.013,4.1,4.1,0,0,1,1.244,5.645,5.135,5.135,0,0,1-7.093,1.568,6.564,6.564,0,0,1-2-9.06c2.55-4,6.777-4.965,11.633-2.635Z" transform="translate(-26.689 -85.64)"/><rect class="a" width="3.863" height="3.863" transform="matrix(0.707, 0.707, -0.707, 0.707, 4.873, 28.876)"/><path class="a" d="M77.1,112.5a1.149,1.149,0,0,1,0,2.047l-14.307,5.727a1.1,1.1,0,0,1-.816,0l-14.307-5.727a1.1,1.1,0,0,1,0-2.047l14.307-5.73a1.1,1.1,0,0,1,.816,0Zm-26.059,1.024,11.343,4.54,11.344-4.54-11.344-4.544Z" transform="translate(-20.923 -106.687)"/><path class="a" d="M37.17,112.43a.848.848,0,0,1,0,1.167l-4.049,4.045a.821.821,0,0,1-1.166,0L27.909,113.6a.822.822,0,0,1,0-1.167l4.046-4.048a.821.821,0,0,1,1.166,0Zm-7.51.584,2.878,2.878,2.878-2.878-2.878-2.879Z" transform="translate(-27.666 -106.181)"/><path class="a" d="M86.637,117.642,82.589,113.6a.822.822,0,0,1,0-1.167l4.048-4.048a.822.822,0,0,1,1.167,0l4.045,4.048a.818.818,0,0,1,0,1.167L87.8,117.642A.822.822,0,0,1,86.637,117.642Zm3.462-4.628-2.878-2.879-2.879,2.879,2.879,2.878Z" transform="translate(-8.571 -106.181)"/><rect class="a" width="2.723" height="2.723" transform="translate(23.1 4.906) rotate(45)"/><rect class="a" width="2.723" height="2.723" transform="translate(17.83 4.906) rotate(44.996)"/><rect class="a" width="2.723" height="2.723" transform="matrix(0.707, 0.707, -0.707, 0.707, 12.561, 4.906)"/><rect class="a" width="2.723" height="2.723" transform="translate(71.305 4.906) rotate(44.994)"/><rect class="a" width="2.723" height="2.723" transform="matrix(0.707, 0.707, -0.707, 0.707, 66.036, 4.906)"/><rect class="a" width="2.723" height="2.723" transform="matrix(0.707, 0.707, -0.707, 0.707, 60.766, 4.906)"/><path class="a" d="M465.361,113.6a.824.824,0,0,1,0-1.167l4.046-4.048a.826.826,0,0,1,1.17,0l4.046,4.048a.848.848,0,0,1,0,1.167l-4.046,4.045a.822.822,0,0,1-1.167,0Zm7.508-.583-2.879-2.879-2.878,2.879,2.878,2.878Z" transform="translate(125.1 -106.181)"/></svg>