<svg xmlns="http://www.w3.org/2000/svg" xmlns:xlink="http://www.w3.org/1999/xlink" width="458" height="188" viewBox="0 0 458 188"><defs><style>.a,.d,.e{fill:#fff;}.a{stroke:#707070;}.b{clip-path:url(#a);}.c{fill:#b7202e;}.d{stroke:rgba(0,0,0,0);stroke-miterlimit:10;}</style><clipPath id="a"><rect class="a" width="458" height="188" transform="translate(9339 586)"/></clipPath></defs><g class="b" transform="translate(-9339 -586)"><path class="c" d="M449.772,3.995H442.4V1.855c-25.445-8.091-48.867-22.013-69.19-39.221-.044-.037-.07-.076-.109-.112-.356.529-.722,1.037-1.069,1.581C366.314-55.972,359.139-63,359.139-63H357.13c-1.267-2.87-6.327-8.41-8.566-10.433.589-.321.935-.7.935-1.111,0-.613-.77-1.16-1.982-1.537.468-.253.747-.554.747-.879,0-.542-.765-1.017-1.928-1.312.592-.228.963-.529.963-.861,0-.6-1.188-1.1-2.786-1.242l-.27-17.8c1.957-1.326,3.347-3.315,9.949-.559,4,1.668,5.258.7,5.539-1.613s.772-6.52.772-6.52c-2.665,1.333-8.905-1.051-10.869-2.454-1.589-1.135-4.511-.616-5.565-.378l-.037-2.46a.394.394,0,0,0-.386-.386.392.392,0,0,0-.4.386l-.482,31.788c-1.6.138-2.786.639-2.786,1.242,0,.332.369.633.962.861-1.165.3-1.928.77-1.928,1.312,0,.326.279.626.747.881-1.212.376-1.98.923-1.98,1.536,0,.41.346.789.935,1.109-2.239,2.024-7.3,7.564-8.566,10.434h-2.011s-3.274,3.2-7.16,11.46c-5.8-17.7-12.171-25.93-14.133-28.181h1.925v-3.436h-5.158a4.738,4.738,0,0,0,1.747-3.664,4.763,4.763,0,0,0-4.506-4.748,3.807,3.807,0,0,0,.8-2.326,3.84,3.84,0,0,0-3.711-3.833,3.026,3.026,0,0,0,.577-1.776,3.059,3.059,0,0,0-3.058-3.06h-.695c-.834-1.819-3.963-5.241-5.349-6.492.369-.2.591-.438.591-.695,0-.384-.49-.725-1.249-.96.3-.161.473-.351.473-.556,0-.341-.48-.639-1.21-.824.373-.143.6-.332.6-.54,0-.336-.584-.623-1.415-.744l-.232-11.564c2.017-1.427,3.642-3.35,10.553-.465,4.322,1.8,5.685.757,5.988-1.744s.834-7.049.834-7.049c-2.88,1.44-9.627-1.138-11.75-2.653-1.653-1.182-4.634-.707-5.873-.44l-.012-.545a.39.39,0,0,0-.383-.383.39.39,0,0,0-.4.383l-.49,24.46c-.831.121-1.415.408-1.415.744,0,.208.232.4.6.54-.732.185-1.212.483-1.212.824,0,.2.176.394.475.556-.759.235-1.247.576-1.247.96,0,.257.22.5.589.695-1.386,1.25-4.515,4.673-5.349,6.492H277.2a3.059,3.059,0,0,0-3.06,3.06,3.022,3.022,0,0,0,.577,1.776,3.841,3.841,0,0,0-3.712,3.833,3.818,3.818,0,0,0,.8,2.326,4.762,4.762,0,0,0-4.5,4.748,4.742,4.742,0,0,0,1.745,3.664h-5.158v3.436h1.9c-1.962,2.251-8.328,10.468-14.125,28.153C247.794-59.8,244.528-63,244.528-63h-2.011c-1.267-2.87-6.327-8.41-8.566-10.434.589-.321.935-.7.935-1.109,0-.613-.769-1.16-1.98-1.536.468-.253.749-.556.749-.881,0-.542-.765-1.017-1.93-1.312.592-.228.963-.529.963-.861,0-.539-.952-1-2.3-1.188l-.415-11.111c1.3-.948,2.482-2.095,6.99-.213,2.922,1.22,3.843.512,4.048-1.178s.564-4.765.564-4.765c-1.947.973-6.507-.769-7.942-1.794-1.116-.8-3.13-.478-3.969-.3l-.017-.455a.627.627,0,0,0-.6-.6.625.625,0,0,0-.646.6l-.74,19.813c-1.344.19-2.3.65-2.3,1.188,0,.332.371.633.963.861-1.165.3-1.93.77-1.93,1.312,0,.326.279.626.749.881-1.212.376-1.98.923-1.98,1.536,0,.41.344.789.933,1.109-2.239,2.024-7.3,7.564-8.566,10.434h-2.009s-9.59,9.379-15.429,37.479c-.092-.211-.2-.413-.292-.621a2.744,2.744,0,0,1-1.482.94q-17.467,4.7-34.807,9.843-16.288,4.821-32.471,9.976c-.037.51-.079,1.017-.1,1.532h-4.674q-1.954.627-3.906,1.254V3.995h-8.2V35.974H451.782V4.532C451.109,4.362,450.441,4.173,449.772,3.995Z" transform="translate(9286.836 736.811)"/><path class="d" d="M-7623.983,489.159q-41.5-.015-83-.008-20.3,0-40.594,0h-.907c-13.388,0-23.635,0-32.818,0-18.779,0-33.111,0-60.779.008-3.3,0-6.609.284-9.916.436V446.824h-1.875c-2.7-3.281,1.189-3.843-.921-6.4q.349-.834.7-1.668c6.045,1.108,6.088.219,12.591,1.41-1.78-3.648-3.307-6.771-4.831-9.894l1.155-1.832,16.841,6.767c-1-2.7-2.009-5.416-3.455-9.313,3.076.753,5.119,1.252,7.157,1.753,2.142.524,4.281,1.049,6.123,1.5.236-3.683-.635-8.045,1.015-10.971,1.794-3.184,5.6-5.9,9.12-7.3,8.194-3.259,16.742-5.627,25.161-8.313,2.291-.73,4.632-1.3,6.881-1.93,0-.71.15-1.366-.021-1.465-10.064-5.872-11.722-15.249-11.067-25.82.371-5.988.288-12.022.081-18.024-.232-6.767,2.609-11.69,8.443-14.68,6.1-3.125,12.495-5.673,18.6-8.782,1.863-.948,3.21-2.916,4.8-4.417q-.766-.834-1.532-1.67l-2.538,4-1.869-.057c-.874-8.814-2.853-17.694-2.331-26.425.541-9.059,8.248-14.048,15.289-16.055V287c.151.038.3.077.454.118q.227-.061.453-.118v.243c7.042,2.007,14.75,7,15.291,16.055.522,8.731-1.457,17.612-2.331,26.425l-1.871.057-2.538-4c-.511.558-1.02,1.114-1.532,1.67,1.585,1.5,2.934,3.468,4.8,4.417,6.108,3.109,12.5,5.657,18.6,8.782,5.834,2.989,8.678,7.913,8.443,14.68-.205,6-.288,12.036.083,18.024.655,10.57-1.005,19.948-11.067,25.82-.171.1-.021.755-.021,1.465,2.25.627,4.588,1.2,6.879,1.93,8.419,2.686,16.967,5.054,25.161,8.313,3.526,1.4,7.325,4.113,9.122,7.3,1.65,2.926.777,7.288,1.013,10.971,1.844-.453,3.981-.978,6.123-1.5,2.039-.5,4.082-1,7.157-1.753-1.445,3.9-2.451,6.609-3.453,9.313l16.841-6.767,1.153,1.832-4.829,9.894c6.5-1.191,12.546-2.3,18.589-3.409.233.556.463,1.11.7,1.666-2.11,2.561-4.22,5.123-6.919,8.4h28.123V489.6C-7617.374,489.443-7620.678,489.159-7623.983,489.159Z" transform="translate(17204 325)"/><path class="e" d="M644.977,645.785h-2.528v-5.591H640.8v-7.663c3.558-1.3,5.728-2.96,6.626-6.324a17.233,17.233,0,0,0,.484-4.491,14.444,14.444,0,0,0-1.15-6.192c-.727-1.521-9.481-7.752-9.539-7.7a138.435,138.435,0,0,0-14.3-3.83,29.634,29.634,0,0,1-4.1-1.367c-.826-.321-1.68-.653-2.545-.934-.168-.054-.344-.113-.527-.174a14.191,14.191,0,0,0-4.177-.933,4.34,4.34,0,0,0-.953.1l.109-.582c.08-.432.161-.863.248-1.293.063-.312.113-.738.166-1.189.146-1.237.328-2.775.9-3.387a.1.1,0,0,0,.018-.1c-.014-.033-.044-.054-.112-.054a.7.7,0,0,0-.153.061,11.493,11.493,0,0,0,1.274-4.636c.37-7.1-.5-14.233-1.35-21.128a152.929,152.929,0,0,1-1.429-16.707c0-.134,0-.307.007-.515.046-2.244.188-9.075-5.983-11.623a63.9,63.9,0,0,0-9.658-3.905c-1.615-.523-3.308-.9-4.944-1.268a50.237,50.237,0,0,1-5.373-1.413,5.988,5.988,0,0,1-2.346-1.316,3.025,3.025,0,0,1-.8-1.914,5.337,5.337,0,0,0-.258-1.155c-.024-.063-.045-.125-.065-.185a1.217,1.217,0,0,0-.352-.622c-.015-.091-.083-.452-.083-.452a14.664,14.664,0,0,0,1.928-2.929,32.5,32.5,0,0,0,1.322,4.758c.3.563,1.025,2.924,2.178,2.924a1.469,1.469,0,0,0,.465-.076.91.91,0,0,0,.56-.462,3.5,3.5,0,0,0-.327-2.316,5.724,5.724,0,0,1-.316-1.1l-.067-.632c-.331-3.156-.618-5.883-.673-9.119,1.871-2.013,3.768-5.443,3.8-8.591.012-1.035-.4-1.474-.766-1.661a.5.5,0,0,0,.014-.181.728.728,0,0,0-.012-.077l-.061-.575a.541.541,0,0,0-.258-.435,1.623,1.623,0,0,1,.5-.231.294.294,0,0,0,.225-.235.348.348,0,0,0-.143-.34c-.07-.049-.159-.1-.253-.153a1.734,1.734,0,0,1-.483-.348.343.343,0,0,0-.132-.426c-.008-.071-.013-.143-.017-.213l-.006-.079a1.817,1.817,0,0,1,1.067-.4c.048,0,.1,0,.165.008a.176.176,0,0,0,.172-.136.2.2,0,0,0-.085-.23,2.111,2.111,0,0,1-1.118-2.02,1.2,1.2,0,0,1,.321-.314c.076-.055.157-.1.238-.152a1.383,1.383,0,0,0,.527-.453.2.2,0,0,0-.031-.24,1.516,1.516,0,0,0-.6-.326,2.852,2.852,0,0,1-.315-.125,3.143,3.143,0,0,1-.413-.247,4.16,4.16,0,0,1,.5-.765,3.474,3.474,0,0,1,.422-.421l.013-.011c-.1-.354-.19-.711-.279-1.068a2.479,2.479,0,0,1-.612-.187l-.115-.052c-.035-.053-.074-.1-.109-.145a.263.263,0,0,0,.072-.265c.016-.024.032-.047.048-.068a.987.987,0,0,1,.109-.124c.021-.022.043-.043.062-.065a.228.228,0,0,0,.188-.24.223.223,0,0,0-.232-.223.245.245,0,0,0-.06.008.441.441,0,0,0-.258-.061,1.25,1.25,0,0,1-.237-.021,1.153,1.153,0,0,1-.592-.332.324.324,0,0,0-.028-.029,1,1,0,0,1-.293-.788.22.22,0,0,0-.055-.174.3.3,0,0,0-.221-.1.251.251,0,0,0-.092.017,1.267,1.267,0,0,0-.223-.278.61.61,0,0,0-.159-.087.469.469,0,0,1-.13-.072.449.449,0,0,1-.125-.374,1.253,1.253,0,0,0-.034-.3.861.861,0,0,0-.237-.47.262.262,0,0,0-.055-.192.29.29,0,0,0-.23-.107.333.333,0,0,0-.13.027,1.614,1.614,0,0,1-.263.087,3.886,3.886,0,0,1-.448-.09,3.226,3.226,0,0,0-.51-.1l-.075-.007c-.049,0-.092-.008-.13-.008a.492.492,0,0,0-.061,0,.4.4,0,0,0-.071-.115,1.377,1.377,0,0,1-.124-.155.905.905,0,0,0,.038-.806c-.244-.583-.966-.718-1.595-.808a.853.853,0,0,0,.227-.625,1.025,1.025,0,0,0-.953-.968,1.011,1.011,0,0,0-.076-.773.475.475,0,0,0-.426-.241.416.416,0,0,0-.124.018.187.187,0,0,1-.06.011.066.066,0,0,1-.061-.03c-.058-.084-.093-.394.327-1.525l.024-.065a.282.282,0,0,0-.035-.262.378.378,0,0,0-.3-.149h-.019l-.777-1.87a.349.349,0,0,0,.1-.359.292.292,0,0,0-.3-.207c-.05,0-.1,0-.149,0a4.78,4.78,0,0,1-1.917-.553,1.947,1.947,0,0,0,.306-1.074l.017-.021a3.312,3.312,0,0,0,.527-3.234c-.237-.662-.536-1.336-.826-1.988l-.133-.3a4.213,4.213,0,0,0-.444-.688c-.4-.542-.847-1.157-.567-1.612a.24.24,0,0,0,.011-.25.3.3,0,0,0-.375-.117c-.092.042-.175.084-.251.129a2.583,2.583,0,0,0-.136-1.291,4.38,4.38,0,0,0-1.075-1.464,5,5,0,0,1-.893-1.105.536.536,0,0,0,.071-.528,2.117,2.117,0,0,0,.108-.2,2.262,2.262,0,0,0-.487-2.125l-.108-.178a.192.192,0,0,0-.169-.1.219.219,0,0,0-.186.109.186.186,0,0,0,0,.19c.034.059.133.222.133.222a.254.254,0,0,0,.067.143.092.092,0,0,0,.034.027c.049.082.1.165.14.25a1.4,1.4,0,0,1-.041,1.366.454.454,0,0,0-.371.235.544.544,0,0,0-.008.494,2.1,2.1,0,0,0-.29.731c-.128.812-.042,1.413.79,1.707a1.459,1.459,0,0,1,.215,1.176,1.576,1.576,0,0,1-.353.371c-.079.068-.155.135-.215.2a.707.707,0,0,0-.13-.462.745.745,0,0,0-.246-.175l-.052-.027c-.138-.077-.266-.133-.391-.187a3.583,3.583,0,0,1-.359-.17,1.994,1.994,0,0,0-.183-.246.951.951,0,0,1-.232-.384.315.315,0,0,0-.315-.224.282.282,0,0,0-.295.228.558.558,0,0,0,.08.475c.023.041.049.087.077.146a1.155,1.155,0,0,1,.118,1.128c-.033.1-.069.19-.1.284a6.288,6.288,0,0,0-.2.6l-.024.089c-.067.249-.13.485-.177.72a13.465,13.465,0,0,0-1.532-.786l-.128-.059a.394.394,0,0,0-.168-.039.383.383,0,0,0-.363.28.332.332,0,0,0,.168.381c.755.447.253,1.356-.277,2.319a3.606,3.606,0,0,0-.653,1.769,3.159,3.159,0,0,0,1.5,2.181,1.941,1.941,0,0,0,.868,1.23,6.027,6.027,0,0,0-.484.42,3.56,3.56,0,0,1-.532.441c-.188.108-.322.174-.422.222-.307.15-.312.167-.452.6-.024.076-.053.165-.091.3a1.388,1.388,0,0,0,.127.425l-.873.826a.085.085,0,0,1-.035.006.625.625,0,0,1-.158-.035.686.686,0,0,0-.194-.04.2.2,0,0,0-.1.024.786.786,0,0,1-.374.146c-.108.007-.12.027-.318.363a.253.253,0,0,0,.043.309.756.756,0,0,1,.268.378.413.413,0,0,0-.1.4,2.918,2.918,0,0,1-.6.556,4.709,4.709,0,0,0-.393.324.3.3,0,0,0-.086.288.337.337,0,0,0,.178.223c-.184.791-.516,1.192-.985,1.192a.943.943,0,0,1-.139-.011,1.419,1.419,0,0,0-.2-.014,1.334,1.334,0,0,0-.308.035.314.314,0,0,0-.287.214,2.143,2.143,0,0,1-2.138,1.141h-.03a.27.27,0,0,0-.236.123.319.319,0,0,0-.032.267l-1.667,1.6a.347.347,0,0,0-.112-.018.311.311,0,0,0-.265.143.3.3,0,0,0-.016.292,3.261,3.261,0,0,1-.259,2.379.757.757,0,0,1-.606.257,1.665,1.665,0,0,1-.219-.017,1.059,1.059,0,0,0-.376.113l-.006.023a.2.2,0,0,1-.039.023c-.051.027-.121.064-.135.14a9.975,9.975,0,0,0,.4,2.723l.027.119a1.779,1.779,0,0,0-.51-.1.693.693,0,0,0-.676.516c-.074.184.131.508.368.884a2.38,2.38,0,0,1,.42.871.874.874,0,0,0-.178.181.774.774,0,0,1-.152.014,2.09,2.09,0,0,1-.419-.053.4.4,0,0,0-.087-.009.354.354,0,0,0-.274.127.374.374,0,0,0-.074.309,3.578,3.578,0,0,0,.41.843c.315.545.707,1.225.561,1.564a.38.38,0,0,1-.29.207.325.325,0,0,0-.257.253.4.4,0,0,0,.146.391l1.081,1.953c-.029,0-.058,0-.086,0a1.606,1.606,0,0,0-1.482,1.662,10.193,10.193,0,0,0,2.752,7.172.8.8,0,0,0,.14.736,33.391,33.391,0,0,0,.859,3.688c.857,2.443.438,8.158.36,8.5a.866.866,0,0,1-.12.24.56.56,0,0,0-.133.42l.026.1a.8.8,0,0,0,.421.65,1.16,1.16,0,0,0,.66.242c1.489,0,2.066-4.111,2.1-7a14.183,14.183,0,0,0,1.017,1.493,1.361,1.361,0,0,0,.114.541c.02.045.035.092.054.139a1.209,1.209,0,0,0,.071.4.263.263,0,0,0-.015.2,4.122,4.122,0,0,1-.238,3.4c-.958,1.7-3.3,3-6.975,3.865a59.968,59.968,0,0,0-9.082,2.707,31.8,31.8,0,0,0-8.323,4.832c-8.8,7.33-7.158,23-8.015,33.234a40.291,40.291,0,0,0-.124,8.421,1.046,1.046,0,0,0,.068.795c.016.032.03.066.045.1l.033.088.005.03a.185.185,0,0,0,.023.061,13.67,13.67,0,0,1-.224,1.806q-.278.406-.544.82a32.455,32.455,0,0,0-1.975,3.77c-.486,1.037-.989,2.108-1.579,3.119a24.163,24.163,0,0,0-1.974,4.7c-.153.455-.309.918-.478,1.392-.93,2.618-2.718,4.3-4.61,6.075-.2.192-.409.384-.616.581a.339.339,0,0,0-.108.242l-3.893,1.012-.446.062c-.633.218-1.192.432-1.708.654a26.071,26.071,0,0,0-4.429,2.639c-.56.386-1.139.786-1.723,1.161-1.169.751-6.781,4.211-7.563,8.873a9.394,9.394,0,0,0,3.665,8.857,22.341,22.341,0,0,0,3.3,2.121v7h-1.643v5.591h-2.528l-7.205,7.045v12.42h157V652.83ZM592.9,580.749c.3-3.086,2.034-11.848,3.919-14.488.041,1.2.135,2.417.227,3.594l.046.6c.245,3.219.525,6.38.832,9.4.071.7.127,1.436.181,2.147a30.044,30.044,0,0,0,.877,6.095,26.854,26.854,0,0,0-3.322,3.421A17.42,17.42,0,0,1,592.9,580.749ZM539.154,600.6a22.062,22.062,0,0,0,3.919-8.717c1.878-9.707,3.745-19.8,5.551-29.985a32.446,32.446,0,0,1,.9,3.967l.124.669c1.348,7.206,1.313,22.976-1.479,29.142l-.062.049a45.831,45.831,0,0,1-7.393,5.039c-.763.39-1.563.764-2.446,1.145-.031.013-.066.027-.1.04C538.534,601.486,538.857,601.044,539.154,600.6Z" transform="translate(9124.818 136.291)"/></g></svg>