<svg xmlns="http://www.w3.org/2000/svg" width="44.975" height="44.974" viewBox="0 0 44.975 44.974"><defs><style>.a{fill:#b7202e;}</style></defs><g transform="translate(1.5 1.5)"><path class="a" d="M43.412,38.631a5.767,5.767,0,0,0-5.774-3.6,23.529,23.529,0,0,0-6.573,1.432l-.035.012-.558.175a4.852,4.852,0,0,0-3.707-4.083L10.1,28.544l.03-.118a1.211,1.211,0,0,0-.511-1.313c-.141-.092-3.53-2.258-9.911-2.258A1.213,1.213,0,0,0-1.5,26.066V42.718a1.212,1.212,0,0,0,1.211,1.21h5.55a1.2,1.2,0,0,0,1.173-.913l.165-.653c4.81,2.207,12.2,5.267,16.238,5.267,5.443,0,17.59-6.271,19.97-7.527l.029-.014A1.213,1.213,0,0,0,43.412,38.631ZM.922,41.506v-14.2A18.285,18.285,0,0,1,7.551,28.76l-.093.365-.008.025,0,.017L4.643,40.228a1.19,1.19,0,0,0-.063.249l-.261,1.029ZM9.508,30.893l16.7,4.032A2.452,2.452,0,0,1,28.1,37.333v.011a12.325,12.325,0,0,1-2.952.462c-3.428,0-8.323-1.758-8.372-1.777a1.211,1.211,0,1,0-.83,2.276,32.787,32.787,0,0,0,9.2,1.923A23.531,23.531,0,0,0,31.723,38.8l.035-.011a22.035,22.035,0,0,1,5.88-1.332,3.827,3.827,0,0,1,2.9,1.093c-3.455,1.766-13.42,6.661-17.7,6.661-3.79,0-11.618-3.377-15.632-5.232Z" transform="translate(0 -4.154)"/><path class="a" d="M15.085,21.273a1.212,1.212,0,0,0,1.21-1.21V8.961a2.492,2.492,0,0,1,2.489-2.489h2.489v.639a3.064,3.064,0,0,0,3.061,3.061h11.1A3.065,3.065,0,0,0,38.5,7.112V6.472h2.488a2.492,2.492,0,0,1,2.489,2.489v18.5a1.211,1.211,0,1,0,2.423,0V8.961A4.917,4.917,0,0,0,40.986,4.05H38.5V3.411A1.212,1.212,0,0,0,37.286,2.2h-2.64a4.913,4.913,0,0,0-9.521,0H22.486a1.212,1.212,0,0,0-1.211,1.21V4.05H18.785a4.916,4.916,0,0,0-4.911,4.911v11.1A1.212,1.212,0,0,0,15.085,21.273ZM36.075,7.112a.639.639,0,0,1-.639.639h-11.1a.64.64,0,0,1-.639-.639V4.622h2.489A1.213,1.213,0,0,0,27.4,3.411a2.489,2.489,0,0,1,4.978,0,1.212,1.212,0,0,0,1.21,1.211h2.489Z" transform="translate(-2.423 0)"/><path class="a" d="M40.175,16.07h-18.5a1.211,1.211,0,0,0,0,2.423h18.5a1.211,1.211,0,1,0,0-2.423Z" transform="translate(-3.462 -2.77)"/><path class="a" d="M40.175,22.659h-18.5a1.211,1.211,0,0,0,0,2.422h18.5a1.211,1.211,0,1,0,0-2.422Z" transform="translate(-3.462 -3.808)"/></g></svg>