<svg xmlns="http://www.w3.org/2000/svg" width="65" height="65" viewBox="0 0 65 65"><defs><style>.a{fill:#fff;}.b{fill:#f58220;}</style></defs><g transform="translate(-682.809 -797)"><circle class="a" cx="30.463" cy="30.463" r="30.463" transform="translate(685.17 798.982)"/><path class="b" d="M32.5,0A32.5,32.5,0,1,0,65,32.5,32.627,32.627,0,0,0,32.5,0Zm7.617,11.553a1.9,1.9,0,1,1-1.9,1.9A1.9,1.9,0,0,1,40.117,11.553Zm-7.617,0a1.9,1.9,0,0,1,1.9,1.9,5.713,5.713,0,1,0,11.426,0,1.9,1.9,0,1,1,3.809,0,9.521,9.521,0,1,1-19.043,0A1.9,1.9,0,0,1,32.5,11.553Zm9.521,38.086a1.9,1.9,0,1,1,0-3.809A7.617,7.617,0,1,0,34.4,38.213a11.426,11.426,0,1,1-22.852,0,1.9,1.9,0,0,1,3.809,0A7.617,7.617,0,1,0,22.979,30.6a1.9,1.9,0,1,1,0-3.809,3.809,3.809,0,1,0-3.809-3.809,1.9,1.9,0,0,1-3.809,0,7.617,7.617,0,1,1,13.1,5.27A11.458,11.458,0,0,1,32.5,31.92a11.42,11.42,0,1,1,9.521,17.719Z" transform="translate(682.809 797)"/></g></svg>