<svg xmlns="http://www.w3.org/2000/svg" width="58.028" height="50.275" viewBox="0 0 58.028 50.275">
    <path id="Path_17687" d="M36.737-30.249a10.4 10.4 0 0 1 3.348-7.87 11.579 11.579 0 0 1 8.281-3.172 10.371 10.371 0 0 1 7.988 3.641 12.993 12.993 0 0 1 3.289 9.05 24.7 24.7 0 0 1-1.879 8.927 62.9 62.9 0 0 1-4.875 9.75 107.149 107.149 0 0 1-6.755 9.804q-3.759 4.875-7.635 9.1l-3.172-2.7a71.428 71.428 0 0 0 8.751-12.45 36.055 36.055 0 0 0 4.288-12.569 13.263 13.263 0 0 1-8.223-3.462 10.4 10.4 0 0 1-3.406-8.049zm-33.6 0a10.492 10.492 0 0 1 3.289-7.87 11.376 11.376 0 0 1 8.223-3.172 10.371 10.371 0 0 1 7.988 3.641 12.993 12.993 0 0 1 3.293 9.05 24.7 24.7 0 0 1-1.879 8.927 62.9 62.9 0 0 1-4.875 9.75 107.146 107.146 0 0 1-6.755 9.804q-3.759 4.875-7.635 9.1l-3.172-2.7a74.045 74.045 0 0 0 8.81-12.451 33.657 33.657 0 0 0 4.229-12.569A13.134 13.134 0 0 1 6.548-22.2a10.4 10.4 0 0 1-3.407-8.049z" data-name="Path 17687" opacity="0.1" transform="translate(-1.614 41.291)"/>
</svg>
