<svg xmlns="http://www.w3.org/2000/svg" width="65" height="65" viewBox="0 0 65 65"><defs><style>.a{fill:#fff;}.b{fill:#b7202e;}</style></defs><g transform="translate(-1038.945 -794)"><circle class="a" cx="30.712" cy="30.712" r="30.712" transform="translate(1041.26 795.739)"/><path class="b" d="M-580.5-12.943a32.5,32.5,0,0,0-32.5,32.5,32.5,32.5,0,0,0,32.5,32.5,32.5,32.5,0,0,0,32.5-32.5A32.5,32.5,0,0,0-580.5-12.943Zm9.058,13.17a1.916,1.916,0,0,1,1.916,1.916,1.916,1.916,0,0,1-1.916,1.916,1.916,1.916,0,0,1-1.917-1.916A1.916,1.916,0,0,1-571.442.227Zm-9.058,0a1.916,1.916,0,0,1,1.916,1.916A1.916,1.916,0,0,1-580.5,4.06a1.916,1.916,0,0,1-1.916-1.916A1.916,1.916,0,0,1-580.5.227Zm-9.584,0a1.917,1.917,0,0,1,1.916,1.916,1.917,1.917,0,0,1-1.916,1.916A1.917,1.917,0,0,1-592,2.143,1.917,1.917,0,0,1-590.085.227Zm25.519,10.783H-578.5v9.947h13.939v17.93h-3.992V24.948H-578.5V38.886h-17.93V34.894H-582.5V24.948h-13.938V7.017h3.991V20.956h9.947V7.017h17.931Z" transform="translate(1651.945 806.943)"/></g></svg>