<svg xmlns="http://www.w3.org/2000/svg" viewBox="0 0 11 13" width="11" height="13">
	<style>
		tspan { white-space:pre }
		.shp0 { fill: #ffffff } 
	</style>
	<path id="Layer" class="shp0" d="M10.38 5.34L5.19 0.28C5 0.1 4.76 0 4.5 0C4.24 0 3.99 0.11 3.81 0.3C3.63 0.48 3.53 0.73 3.53 0.99C3.54 1.25 3.64 1.5 3.83 1.68L7.3 5.07L0.97 5.07C0.72 5.07 0.47 5.17 0.28 5.35C0.1 5.54 0 5.78 0 6.04C0 6.3 0.1 6.55 0.28 6.73C0.47 6.92 0.72 7.02 0.98 7.02L7.3 7.02L3.83 10.41C3.64 10.59 3.54 10.84 3.53 11.09C3.53 11.35 3.63 11.6 3.81 11.79C3.99 11.97 4.24 12.08 4.5 12.08C4.76 12.09 5 11.99 5.19 11.81L10.38 6.74C10.48 6.65 10.55 6.54 10.6 6.42C10.65 6.3 10.68 6.17 10.68 6.04C10.68 5.91 10.65 5.78 10.6 5.66C10.55 5.54 10.48 5.43 10.38 5.34Z" />
</svg>