<svg xmlns="http://www.w3.org/2000/svg" width="41.583" height="41.583" viewBox="0 0 41.583 41.583"><defs><style>.a{fill:#b7202e;}</style></defs><path class="a" d="M39.5,20.792h-.693V4.158H39.5A2.079,2.079,0,0,0,39.5,0H2.079a2.079,2.079,0,0,0,0,4.158h.693V20.792H2.079a2.079,2.079,0,0,0,0,4.158H39.5a2.079,2.079,0,0,0,0-4.158ZM2.079,2.772a.693.693,0,0,1,0-1.386H39.5a.693.693,0,0,1,0,1.386ZM37.425,4.158V20.792H4.158V4.158ZM39.5,23.564H2.079a.693.693,0,1,1,0-1.386H39.5a.693.693,0,0,1,0,1.386Z"/><path class="a" d="M137.224,78.611a.693.693,0,0,0,.693-.693V74.525l2.079.883v4.136l0,.008a.693.693,0,0,0,.052.256q.072.112.147.222a.692.692,0,0,0,.224.153l3.446,1.463a6.1,6.1,0,0,0,4.737,0l3.442-1.462a.692.692,0,0,0,.224-.153q.075-.11.147-.222a.692.692,0,0,0,.052-.256V75.409l2.745-1.166a1.245,1.245,0,0,0,0-2.258l-8.552-3.634a1.092,1.092,0,0,0-.861,0l-8.552,3.634a1.213,1.213,0,0,0-.72,1.129v4.805A.693.693,0,0,0,137.224,78.611Zm13.861.475-3.019,1.282a4.721,4.721,0,0,1-3.662,0l-3.022-1.283V76l4.421,1.879a1.092,1.092,0,0,0,.861,0L151.085,76v3.088Zm-4.851-9.413,8.1,3.44-2.817,1.2-.006,0-5.272,2.24-5.272-2.24-.006,0-2.817-1.2Z" transform="translate(-125.442 -62.718)"/><path class="a" d="M40.2,335.106H38.811v-.891a4.636,4.636,0,0,0-2.6-4.119,3.465,3.465,0,1,0-4.5,0,4.636,4.636,0,0,0-2.6,4.119v.891H25.643v-.891a4.636,4.636,0,0,0-2.6-4.119,3.465,3.465,0,1,0-4.5,0,4.636,4.636,0,0,0-2.6,4.119v.891H12.475v-.891a4.636,4.636,0,0,0-2.6-4.119,3.465,3.465,0,1,0-4.5,0,4.636,4.636,0,0,0-2.6,4.119v.891H1.386A1.387,1.387,0,0,0,0,336.492v1.386a1.388,1.388,0,0,0,1.386,1.386H40.2a1.388,1.388,0,0,0,1.386-1.386v-1.386A1.388,1.388,0,0,0,40.2,335.106Zm-6.237-9.7a2.079,2.079,0,1,1-2.079,2.079A2.079,2.079,0,0,1,33.96,325.4Zm-3.465,8.812a3.471,3.471,0,0,1,6.931,0v.891H30.494v-.891Zm-9.7-8.812a2.079,2.079,0,1,1-2.079,2.079A2.079,2.079,0,0,1,20.792,325.4Zm-3.465,8.812a3.471,3.471,0,0,1,6.931,0v.891H17.326v-.891Zm-9.7-8.812a2.079,2.079,0,1,1-2.079,2.079A2.079,2.079,0,0,1,7.624,325.4Zm-3.465,8.812a3.374,3.374,0,0,1,3.465-3.267,3.375,3.375,0,0,1,3.465,3.267v.891H4.158Zm-2.772,3.663v-1.386H40.2v1.386Z" transform="translate(0 -297.681)"/></svg>