<svg xmlns="http://www.w3.org/2000/svg" width="39.74" height="39.74" viewBox="0 0 39.74 39.74"><defs><style>.a{fill:#b7202e;}</style></defs><path class="a" d="M297.54,59.28a14.633,14.633,0,0,1,10.449,10.048l-1.017-.706a.583.583,0,0,0-.664.956l2.327,1.615a.585.585,0,0,0,.856-.224l1.236-2.549a.583.583,0,0,0-1.048-.508l-.554,1.144a15.8,15.8,0,0,0-11.3-10.906A.583.583,0,0,0,297.54,59.28Z" transform="translate(-274.056 -53.62)"/><path class="a" d="M245.282,234.513a10.769,10.769,0,1,0,3.914,20.8.583.583,0,0,0-.423-1.085,9.619,9.619,0,1,1,2.5-1.446c-.569.455.133,1.385.727.909a10.769,10.769,0,0,0-6.722-19.182Z" transform="translate(-216.311 -216.311)"/><path class="a" d="M326.6,295.7a4.287,4.287,0,1,0-4.869,4.246v1.3h-1.125a.583.583,0,0,0,0,1.164h1.125v1.125a.583.583,0,0,0,1.164,0v-1.125h1.125a.583.583,0,0,0,0-1.164H322.9v-1.3A4.292,4.292,0,0,0,326.6,295.7Zm-7.409,0a3.122,3.122,0,1,1,3.122,3.122A3.126,3.126,0,0,1,319.192,295.7Z" transform="translate(-293.344 -268.798)"/><path class="a" d="M21.538,10.769A10.769,10.769,0,0,0,4.806,1.8a.583.583,0,0,0,.645.969A9.61,9.61,0,1,1,3.315,4.712c.46-.565-.422-1.325-.9-.735a10.769,10.769,0,1,0,19.126,6.792Z" transform="translate(0)"/><path class="a" d="M75.543,73.233a4.292,4.292,0,1,0,3.419,1.7l1.606-1.606V74.34a.582.582,0,0,0,1.164,0V71.926a.59.59,0,0,0-.582-.582H78.736a.582.582,0,1,0,0,1.164h1.009l-1.6,1.6a4.264,4.264,0,0,0-2.6-.88Zm0,7.409a3.122,3.122,0,1,1,3.122-3.122A3.126,3.126,0,0,1,75.543,80.642Z" transform="translate(-65.725 -65.807)"/><path class="a" d="M60.059,302.523A14.632,14.632,0,0,1,49.6,292.438l1.061.687a.583.583,0,0,0,.633-.977l-2.378-1.539a.588.588,0,0,0-.848.252l-1.153,2.587a.582.582,0,0,0,1.063.474l.508-1.139a15.8,15.8,0,0,0,11.29,10.87A.582.582,0,0,0,60.059,302.523Z" transform="translate(-43.225 -267.968)"/></svg>