<svg xmlns="http://www.w3.org/2000/svg" width="52.532" height="42.169" viewBox="0 0 52.532 42.169"><defs><style>.a{fill:#b7202e;}</style></defs><g transform="translate(0 -50.5)"><path class="a" d="M50.223,68.045H37.86V66.506H48.171a2.309,2.309,0,1,0,0-4.617h-.8a.77.77,0,0,0,0,1.539h.8a.77.77,0,1,1,0,1.539H37.6a1.284,1.284,0,0,0-1.283,1.283V68.3A1.284,1.284,0,0,0,37.6,69.584h12.62a.77.77,0,0,1,0,1.539H37.6a1.284,1.284,0,0,0-1.283,1.283v2.052A1.284,1.284,0,0,0,37.6,75.74H47.761a.77.77,0,1,1,0,1.539H37.6a1.284,1.284,0,0,0-1.283,1.283v2.052A1.284,1.284,0,0,0,37.6,81.9h7.49a.77.77,0,1,1,0,1.539H32.473V81.9h.77a1.284,1.284,0,0,0,1.283-1.283V76.92a1.28,1.28,0,0,0-.513-1.024V73.842a1.284,1.284,0,0,0-1.283-1.283H30.678A1.284,1.284,0,0,0,29.4,73.842V75.9a1.28,1.28,0,0,0-.513,1.024v3.694A1.284,1.284,0,0,0,30.165,81.9h.77v1.539H23.752V81.9h.77A1.284,1.284,0,0,0,25.8,80.614V76.92a1.28,1.28,0,0,0-.513-1.024V73.842a1.284,1.284,0,0,0-1.283-1.283H21.957a1.284,1.284,0,0,0-1.283,1.283V75.9a1.28,1.28,0,0,0-.513,1.024v3.694A1.284,1.284,0,0,0,21.444,81.9h.77v1.463a7.488,7.488,0,0,1-3.42-1.412L17.7,81.127a3.871,3.871,0,0,0-2.309-.77H8.926V67.942h3.54v1.539H11.7a1.284,1.284,0,0,0-1.283,1.283v3.694a1.28,1.28,0,0,0,.513,1.024v2.055a1.284,1.284,0,0,0,1.283,1.283h2.052a1.284,1.284,0,0,0,1.283-1.283V75.481a1.28,1.28,0,0,0,.513-1.024V70.764a1.284,1.284,0,0,0-1.283-1.283h-.77v-1.54a3.868,3.868,0,0,0,2.742-1.168l3.113-3.209a16.65,16.65,0,0,0,3.949-6.679l1.1-3.6a1.767,1.767,0,0,1,3.457.518V53.9a17.748,17.748,0,0,1-.8,5.266l-.807,2.6a1.3,1.3,0,0,0,1.225,1.663H43.776a.77.77,0,0,0,0-1.539H28.336l.7-2.269a19.285,19.285,0,0,0,.868-5.722v-.091a3.306,3.306,0,0,0-6.467-.97l-1.1,3.6a15.1,15.1,0,0,1-3.582,6.058L15.642,65.7a2.321,2.321,0,0,1-1.637.7v-3.21a2.309,2.309,0,1,0-1.539,0V66.4H8.912a2.312,2.312,0,0,0-2.294-2.052H2.309A2.311,2.311,0,0,0,0,66.66V77.484a.77.77,0,1,0,1.539,0V66.66a.77.77,0,0,1,.77-.77H6.618a.77.77,0,0,1,.77.77V81.64a.77.77,0,0,1-.77.77H2.309a.77.77,0,0,1-.77-.77v-.564a.77.77,0,1,0-1.539,0v.564a2.311,2.311,0,0,0,2.309,2.309H6.618A2.312,2.312,0,0,0,8.912,81.9H15.39a2.323,2.323,0,0,1,1.385.462l1.094.821a9.041,9.041,0,0,0,4.343,1.733v3.273a2.309,2.309,0,1,0,1.539,0v-3.21h7.182v3.21a2.309,2.309,0,1,0,1.539,0v-3.21h12.62a2.309,2.309,0,0,0,0-4.617H37.86V78.818h9.9a2.309,2.309,0,0,0,0-4.617h-9.9V72.662H50.223a2.309,2.309,0,0,0,0-4.617ZM32.473,74.1v1.539H30.934V74.1Zm-2.052,3.078h2.565v3.181H30.421ZM23.752,74.1v1.539H22.213V74.1ZM21.7,77.176h2.565v3.181H21.7Zm-9.234.1V75.74h1.539v1.539ZM14.518,74.2H11.953V71.02h2.565ZM13.236,60.247a.77.77,0,1,1-.77.77A.77.77,0,0,1,13.236,60.247ZM22.983,91.13a.77.77,0,1,1,.77-.77A.77.77,0,0,1,22.983,91.13Zm8.721,0a.77.77,0,1,1,.77-.77A.77.77,0,0,1,31.7,91.13Z"/></g></svg>