<svg xmlns="http://www.w3.org/2000/svg" width="42.83" height="41.422" viewBox="0 0 42.83 41.422"><defs><style>.a{fill:#b7202e;}</style></defs><g transform="translate(0 -8.412)"><path class="a" d="M41.8,39.273H39.259a4.141,4.141,0,0,0,1.337-2.3,5.6,5.6,0,0,0,.01-2.007,7.235,7.235,0,0,1,.051-2.628h0a1.728,1.728,0,0,0-.389-1.79c-.53-.466-1.4-.486-2.574-.058a2.95,2.95,0,0,0-.991.6,4.713,4.713,0,0,0-5.676,1.887,9.735,9.735,0,0,0-2.964-1.292.627.627,0,1,0-.317,1.214,8.323,8.323,0,0,1,2.7,1.2c-.019.053-.038.105-.056.159a4.536,4.536,0,0,0-.218,1.882,5.19,5.19,0,0,0,1.446,3.129H25.482V37.321H27.15a.627.627,0,0,0,0-1.255H19.928V33.722a2.328,2.328,0,0,0,.237-.121,9.5,9.5,0,0,1,4.788-1.072h.01a.627.627,0,0,0,.01-1.255,12.947,12.947,0,0,0-2.1.135V28.075a5.292,5.292,0,0,0,1.488-1.639,4.707,4.707,0,0,0,.667-2.646c.007-.166.015-.347.025-.549,0-.006,0-.011,0-.017s0-.011,0-.016V21.669a3.313,3.313,0,0,0-3.309-3.309h-.219a5.015,5.015,0,0,0,1.551-3.29V13.783a5.475,5.475,0,0,0-1.5-3.974,4.773,4.773,0,0,0-3.326-1.4h-.02a4.776,4.776,0,0,0-3.327,1.4,5.472,5.472,0,0,0-1.5,3.974V15.07a5.014,5.014,0,0,0,1.552,3.29h-.22A3.238,3.238,0,0,0,11.85,20.1L8.2,26.035c-.413-.742-1.437-2.338-2.649-2.43a1.213,1.213,0,0,0-1.042.3,1.144,1.144,0,0,0-.168,1.04l.883,5.033a1.556,1.556,0,0,0,.435,1.038,1.34,1.34,0,0,0,1.075.169c.084-.009.179-.019.287-.029a7.1,7.1,0,0,1,3.549.571,10.58,10.58,0,0,1,1.407.783V35.87H6.868c-.738,0-.758-.042-.853-.243-.123-.26-1.244-2.546-2.772-2.663a1.212,1.212,0,0,0-1.044.3,1.133,1.133,0,0,0-.165,1.046L2.9,39.273H1.028A1.029,1.029,0,0,0,0,40.3v4.918a1.031,1.031,0,0,0,1.028,1.031H2.592v1.165a2.423,2.423,0,0,0,2.42,2.42h32.8a2.423,2.423,0,0,0,2.42-2.42V46.249H41.8a1.032,1.032,0,0,0,1.031-1.031V40.3A1.031,1.031,0,0,0,41.8,39.273Zm-4.4-3.73a3.683,3.683,0,0,1-.284-2.9,1.709,1.709,0,0,1,1.009-.978,3.2,3.2,0,0,1,1.045-.232.477.477,0,0,1,.272.053c.021.019.083.172-.007.574h0a8.506,8.506,0,0,0-.073,3.046,4.617,4.617,0,0,1,.015,1.572c-.356,1.5-1.223,2.218-3.268,2.476l.016-.014C37.859,37.646,37.773,36.358,37.4,35.543Zm-5.974.468a3.273,3.273,0,0,1,.161-1.355,3.773,3.773,0,0,1,3.031-2.6,3.584,3.584,0,0,1,1.339.111,4.9,4.9,0,0,0,.3,3.9c.614,1.33-1.723,2.744-2.464,3.151A3.765,3.765,0,0,1,31.423,36.011Zm-7.2,1.311v1.951H18.766a.978.978,0,0,1,.093-1.951Zm-2.608-5.654a8.532,8.532,0,0,0-2.087.85l-.034.019c-.07-.082-.16-.2-.244-.306-.1-.131-.229-.294-.382-.481a13.354,13.354,0,0,0-1.27-1.309l3.456-1.394c.18-.073.368-.154.56-.243v2.863Zm-5.449-2a.778.778,0,0,1-.577-1.446l.017-.007,3.169-1.373.745,1.473Zm2.073-20a3.628,3.628,0,0,1,3.53,3.358c-1.371-.261-4.167-.821-4.492-.905h0a2.021,2.021,0,0,0-.507-.068,2.328,2.328,0,0,0-1.369.54,3.484,3.484,0,0,1-.69.4,3.626,3.626,0,0,1,3.529-3.329Zm-3.582,5.4v-.748a3.975,3.975,0,0,0,1.46-.7c.412-.286.544-.365.845-.287h0c.225.058,3.479.724,4.855.977v.758A4.354,4.354,0,0,1,19.375,18.4a.636.636,0,0,0-.058.026c-.078.035-.156.069-.236.1a2.385,2.385,0,0,1-.837.173,2.416,2.416,0,0,1-.836-.172c-.076-.028-.152-.061-.227-.095a.638.638,0,0,0-.062-.029,4.357,4.357,0,0,1-2.455-3.336Zm5.029,4.566v.188a1.564,1.564,0,0,1-1.447,1.656,1.565,1.565,0,0,1-1.45-1.656v-.188q.089.037.179.071a3.36,3.36,0,0,0,2.542,0q.088-.033.176-.07Zm-6.773,1.125a1.981,1.981,0,0,1,1.821-1.146h.8v.21a2.817,2.817,0,0,0,2.7,2.911,2.816,2.816,0,0,0,2.7-2.911v-.21h.8A2.057,2.057,0,0,1,23.8,21.67v1.523c-.01.2-.018.38-.025.545a3.479,3.479,0,0,1-.5,2.072,4.863,4.863,0,0,1-2.583,2.031l-.765-1.512a2.807,2.807,0,0,0,.794-.622A.622.622,0,0,0,20.8,25.6l.756-1.245a.627.627,0,1,0-1.072-.652l-.72,1.186a1.731,1.731,0,0,1-.71.464l-3.938,1.706a2.012,2.012,0,0,0-.871.68,8.063,8.063,0,0,0-1.788-.7l1.277-2.077a.627.627,0,1,0-1.069-.657l-1.512,2.459c-.606-.1-1.214-.159-1.8-.206ZM8.8,29.941A8.527,8.527,0,0,0,6.9,29.9c-.115.01-.377.039-.413.042C6.478,29.879,5.6,24.9,5.6,24.9a4.87,4.87,0,0,1,1.652,2.047,1.2,1.2,0,0,0,.812.781c.39.05.675.042.8.051l.5.039Zm4.43,3.563a4.92,4.92,0,0,1,1.462,2.15,4.686,4.686,0,0,1-1.462.193Zm-5.264,3.62h3.951c2.435,0,3.274-.144,3.737-.641a1.126,1.126,0,0,0,.294-.873c-.079-1.158-1.677-3.556-4.854-5.025A7.428,7.428,0,0,0,10.03,30.2l.609-2.245a8.381,8.381,0,0,1,3.209,1.007,2.032,2.032,0,0,0,2.416,1.982,13.2,13.2,0,0,1,1.637,1.6c.143.175.26.325.363.458a5.231,5.231,0,0,0,.409.484v2.589a2.232,2.232,0,0,0-1.823,3.2H7.965Zm-3.084-.961a1.74,1.74,0,0,0,1.829.96v2.149H4.178L3.3,34.253A4.3,4.3,0,0,1,4.881,36.164Zm36.694,8.831H22.912a.627.627,0,1,0,0,1.255H38.981v1.165a1.167,1.167,0,0,1-1.165,1.165H5.012a1.167,1.167,0,0,1-1.165-1.165V46.25H20.152a.627.627,0,1,0,0-1.255H1.255V40.528h40.32Z"/></g></svg>