<svg xmlns="http://www.w3.org/2000/svg" width="39.933" height="39.888" viewBox="0 0 39.933 39.888"><defs><style>.a{fill:#b7202e;}</style></defs><g transform="translate(-2 -2.384)"><path class="a" d="M43.189,18.456a2,2,0,0,0-.385-2.278,2.056,2.056,0,0,0-2.838,0l-.472.473-.669-.669,1.071-1.071a2.082,2.082,0,0,1,1.818-.545,6.071,6.071,0,0,0,5.156-1.7,6,6,0,0,0,1.288-6.608.669.669,0,0,0-1.089-.213l-3.26,3.257L42.231,8.79l-.316-1.578,3.257-3.258a.669.669,0,0,0-.213-1.091,6.022,6.022,0,0,0-8.307,6.446,2.09,2.09,0,0,1-.545,1.816L35.036,12.2,30.579,7.738l-.9-1.8a.669.669,0,0,0-.273-.286L25.15,3.3a.669.669,0,0,0-.8.112l-.943.943a.669.669,0,0,0-.112.8L25.659,9.4a.669.669,0,0,0,.285.274l1.8.9L32.2,15.036l-1.071,1.071a2.082,2.082,0,0,1-1.818.545,6.026,6.026,0,0,0-6.445,8.306.669.669,0,0,0,1.089.213l3.258-3.257,1.576.315.315,1.577-3.257,3.258a.669.669,0,0,0,.213,1.089,6.022,6.022,0,0,0,8.307-6.446,2.09,2.09,0,0,1,.545-1.816l1.071-1.071.669.669-.472.474a2,2,0,0,0,2.28,3.226l3.952,3.952a3.346,3.346,0,0,0,4.732-4.731ZM28.61,9.554a.662.662,0,0,0-.173-.125l-1.709-.857L24.711,4.937l.227-.227,3.634,2.017.857,1.708a.65.65,0,0,0,.125.173l4.534,4.534-.947.947Zm5.361,9.389a3.412,3.412,0,0,0-.923,2.961,4.687,4.687,0,0,1-5.46,5.313L30.31,24.5a.669.669,0,0,0,.183-.6l-.476-2.365A.669.669,0,0,0,29.489,21l-2.365-.473a.669.669,0,0,0-.6.183l-2.72,2.72a4.688,4.688,0,0,1,5.311-5.46,3.457,3.457,0,0,0,2.963-.922l4.977-4.977a3.412,3.412,0,0,0,.923-2.961A4.687,4.687,0,0,1,43.435,3.8L40.715,6.52a.669.669,0,0,0-.183.6l.473,2.365a.669.669,0,0,0,.525.525l2.365.473a.669.669,0,0,0,.6-.183L47.22,7.585a4.688,4.688,0,0,1-5.311,5.46,3.455,3.455,0,0,0-2.963.925Zm3.909-2.015.669.669-.951.947-.669-.669Zm-.751,4.927a.669.669,0,0,1,0-.946l3.785-3.785a.669.669,0,1,1,.946.947l-3.786,3.785a.684.684,0,0,1-.949,0ZM46.2,26.2a2.011,2.011,0,0,1-2.839,0l-3.867-3.867,2.839-2.838L46.2,23.356a2.007,2.007,0,0,1,0,2.839Z" transform="translate(-6.747 0)"/><path class="a" d="M41.575,43.94a2.673,2.673,0,0,0-3.652-.983L31.4,46.724a2.652,2.652,0,0,0-1.511-1.09L19.9,42.957a4.684,4.684,0,0,0-2.349-.02l-3.513.882v-1.15A.669.669,0,0,0,13.375,42H8.022a.669.669,0,0,0-.669.669v.669H2.669A.669.669,0,0,0,2,44.007v9.367a.669.669,0,0,0,.669.669H7.353v.669a.669.669,0,0,0,.669.669h5.353a.669.669,0,0,0,.669-.669v-.925l.86.43A4.7,4.7,0,0,0,17,54.713H27.019a4.691,4.691,0,0,0,2.342-.628L40.6,47.595a2.684,2.684,0,0,0,.974-3.655ZM3.338,52.705V44.676H7.353v8.029Zm9.367,1.338H8.691V43.338h4.015Zm27.225-7.6L28.69,52.929a3.345,3.345,0,0,1-1.673.448H17a3.363,3.363,0,0,1-1.5-.353l-1.459-.732V45.2l3.837-.959a3.362,3.362,0,0,1,1.678.014l9.983,2.676a1.338,1.338,0,1,1-.693,2.585l-7.98-2.14a.669.669,0,1,0-.346,1.293L28.5,50.809a2.705,2.705,0,0,0,.7.092,2.644,2.644,0,0,0,2.653-2.888l6.739-3.891a1.362,1.362,0,0,1,1.824.49,1.344,1.344,0,0,1-.484,1.827Z" transform="translate(0 -13.109)"/></g></svg>