<svg xmlns="http://www.w3.org/2000/svg" width="40.031" height="39.465" viewBox="0 0 40.031 39.465"><defs><style>.a{fill:#b7202e;}.b{fill:#f6f7f7;}</style></defs><g transform="translate(-116 -743.845)"><g transform="translate(116 743.845)"><path class="a" d="M27.409,34.645H6.937A3.942,3.942,0,0,1,3,30.708V3.937A3.942,3.942,0,0,1,6.937,0H27.409a3.942,3.942,0,0,1,3.937,3.937V30.708A3.942,3.942,0,0,1,27.409,34.645ZM6.937,1.575A2.365,2.365,0,0,0,4.575,3.937V30.708a2.365,2.365,0,0,0,2.362,2.362H27.409a2.365,2.365,0,0,0,2.362-2.362V3.937a2.365,2.365,0,0,0-2.362-2.362Z" transform="translate(-3)"/><path class="a" d="M30.559,8.575H3.787A.787.787,0,1,1,3.787,7H30.559a.787.787,0,0,1,0,1.575Z" transform="translate(-3 4.024)"/><path class="a" d="M30.559,15.575H3.787a.787.787,0,1,1,0-1.575H30.559a.787.787,0,0,1,0,1.575Z" transform="translate(-3 8.047)"/><path class="a" d="M6.787,25.724A.788.788,0,0,1,6,24.937v-3.15a.787.787,0,1,1,1.575,0v3.15A.788.788,0,0,1,6.787,25.724Z" transform="translate(-1.276 12.071)"/><path class="a" d="M17.787,25.724A.788.788,0,0,1,17,24.937v-3.15a.787.787,0,1,1,1.575,0v3.15A.788.788,0,0,1,17.787,25.724Z" transform="translate(5.047 12.071)"/><path class="a" d="M6.787,19.6A.788.788,0,0,1,6,18.811V7.787a.787.787,0,0,1,1.575,0V18.811A.788.788,0,0,1,6.787,19.6Z" transform="translate(-1.276 4.024)"/><path class="a" d="M14.787,19.6A.788.788,0,0,1,14,18.811V7.787a.787.787,0,1,1,1.575,0V18.811A.788.788,0,0,1,14.787,19.6Z" transform="translate(3.323 4.024)"/><path class="a" d="M17.787,19.6A.788.788,0,0,1,17,18.811V7.787a.787.787,0,1,1,1.575,0V18.811A.788.788,0,0,1,17.787,19.6Z" transform="translate(5.047 4.024)"/><path class="a" d="M13.787,12.6A.788.788,0,0,1,13,11.811V.787a.787.787,0,0,1,1.575,0V11.811A.788.788,0,0,1,13.787,12.6Z" transform="translate(2.748)"/><path class="a" d="M10.787,12.6A.788.788,0,0,1,10,11.811V.787a.787.787,0,1,1,1.575,0V11.811A.788.788,0,0,1,10.787,12.6Z" transform="translate(1.024)"/><path class="a" d="M10.787,26.6A.788.788,0,0,1,10,25.811V14.787a.787.787,0,0,1,1.575,0V25.811A.788.788,0,0,1,10.787,26.6Z" transform="translate(1.024 8.047)"/><path class="a" d="M13.787,26.6A.788.788,0,0,1,13,25.811V14.787a.787.787,0,0,1,1.575,0V25.811A.788.788,0,0,1,13.787,26.6Z" transform="translate(2.748 8.047)"/><path class="a" d="M16.787,26.6A.788.788,0,0,1,16,25.811V14.787a.787.787,0,1,1,1.575,0V25.811A.788.788,0,0,1,16.787,26.6Z" transform="translate(4.472 8.047)"/></g><path class="b" d="M126.622,781.511V762.079l3.2-1.454V756.7s8.143.146,13.233,3.926,2.327,20.885,2.327,20.885Z" transform="translate(1.486 1.799)"/><g transform="translate(130.819 761.793)"><g transform="translate(0 0)"><path class="a" d="M25.209,54.982V39.522a.547.547,0,0,0,0-.123.159.159,0,0,0-.067-.179l-.056-.078h-.078l-.1-.067a18.713,18.713,0,0,0-1.9-.58V35.9a.558.558,0,0,0-.558-.558,12.537,12.537,0,0,0-9.715,5.142,12.47,12.47,0,0,0-9.95-5.142.558.558,0,0,0-.558.558v2.532a17.716,17.716,0,0,0-1.9.58l-.123.078H.156a.558.558,0,0,0-.067.1v.078a.565.565,0,0,0,0,.089.547.547,0,0,0,0,.123V54.892a.519.519,0,0,0,0,.089A.523.523,0,0,0,0,55.071a.545.545,0,0,0,.067.112v.078l.089.067h.48a13.753,13.753,0,0,1,11.779,1.528h.446a13.8,13.8,0,0,1,11.712-1.439h.468l.1-.078v-.067a.548.548,0,0,0,.067-.112.53.53,0,0,0,0-.089A.524.524,0,0,0,25.209,54.982ZM1.093,54.134V39.923q.58-.2,1.115-.346v11.3a.558.558,0,0,0,.557.558h.023l.045.011a10.931,10.931,0,0,1,7.674,3.19A15.136,15.136,0,0,0,1.093,54.134Zm11.121.647a12.27,12.27,0,0,0-8.823-4.462V36.477a11.623,11.623,0,0,1,8.823,5.131Zm1.115.011V41.6a11.7,11.7,0,0,1,8.8-5.131l.033.011V50.33A12.381,12.381,0,0,0,13.329,54.792Zm11.065-.658a15.181,15.181,0,0,0-9.414.5,10.965,10.965,0,0,1,7.708-3.2.558.558,0,0,0,.558-.558v-11.3q.569.156,1.149.357Z" transform="translate(0 -35.339)"/></g><g transform="translate(5.487 9.297)"><path class="a" d="M110.252,215.725a.549.549,0,0,0-.049-.044,10.64,10.64,0,0,0-4.54-2.521.575.575,0,1,0-.279,1.115,9.525,9.525,0,0,1,4.071,2.231.558.558,0,0,0,.8-.781Z" transform="translate(-104.949 -213.143)"/></g><g transform="translate(5.491 11.905)"><g transform="translate(0 0)"><path class="a" d="M110.339,265.619a.551.551,0,0,0-.049-.044,10.9,10.9,0,0,0-4.54-2.521.576.576,0,0,0-.29,1.115,9.8,9.8,0,0,1,4.082,2.231.558.558,0,0,0,.8-.781Z" transform="translate(-105.029 -263.036)"/></g></g><g transform="translate(5.487 4.099)"><g transform="translate(0 0)"><path class="a" d="M110.214,116.267a10.63,10.63,0,0,0-4.551-2.521.575.575,0,0,0-.279,1.115,9.515,9.515,0,0,1,4.082,2.231.558.558,0,0,0,.747-.825Z" transform="translate(-104.949 -113.729)"/></g></g><g transform="translate(5.487 6.709)"><path class="a" d="M110.2,166.187a10.607,10.607,0,0,0-4.54-2.521.575.575,0,1,0-.279,1.115,9.5,9.5,0,0,1,4.071,2.231.558.558,0,0,0,.747-.825Z" transform="translate(-104.949 -163.649)"/></g><g transform="translate(14.553 9.274)"><path class="a" d="M283.742,213.151a.575.575,0,0,0-.7-.418,10.653,10.653,0,0,0-4.551,2.5.558.558,0,0,0,.747.825l.011.022a9.537,9.537,0,0,1,4.071-2.231A.575.575,0,0,0,283.742,213.151Z" transform="translate(-278.335 -212.715)"/></g><g transform="translate(14.564 11.916)"><g transform="translate(0 0)"><path class="a" d="M283.95,263.681a.576.576,0,0,0-.7-.413v-.011a10.909,10.909,0,0,0-4.54,2.532.558.558,0,0,0,.747.825,9.816,9.816,0,0,1,4.082-2.231A.576.576,0,0,0,283.95,263.681Z" transform="translate(-278.548 -263.25)"/></g></g><g transform="translate(14.53 4.099)"><path class="a" d="M283.325,114.165a.575.575,0,0,0-.7-.418,10.63,10.63,0,0,0-4.551,2.5.558.558,0,0,0,.379.97l.011.022a.558.558,0,0,0,.368-.145,9.515,9.515,0,0,1,4.071-2.231A.575.575,0,0,0,283.325,114.165Z" transform="translate(-277.894 -113.729)"/></g><g transform="translate(14.541 6.686)"><path class="a" d="M283.538,163.658a.575.575,0,0,0-.7-.418,10.619,10.619,0,0,0-4.551,2.5.558.558,0,0,0,.379.97v.022a.558.558,0,0,0,.379-.145,9.515,9.515,0,0,1,4.071-2.231A.575.575,0,0,0,283.538,163.658Z" transform="translate(-278.107 -163.222)"/></g></g></g></svg>