<svg xmlns="http://www.w3.org/2000/svg" width="40.909" height="40.909" viewBox="0 0 40.909 40.909"><defs><style>.a{fill:#b7202e;}</style></defs><g transform="translate(16.364)"><path class="a" d="M196.091,0a4.091,4.091,0,1,0,4.091,4.091A4.091,4.091,0,0,0,196.091,0Zm0,6.818a2.727,2.727,0,1,1,2.727-2.727A2.727,2.727,0,0,1,196.091,6.818Z" transform="translate(-192)"/></g><g transform="translate(14.318 8.864)"><path class="a" d="M176.864,104H176.7l-.144.072a5.435,5.435,0,0,1-4.845,0L171.57,104h-.161A3.413,3.413,0,0,0,168,107.409V111.5a2.045,2.045,0,0,0,2.045,2.045h8.182a2.045,2.045,0,0,0,2.045-2.045v-4.091A3.413,3.413,0,0,0,176.864,104Zm2.045,7.5a.682.682,0,0,1-.682.682h-8.182a.682.682,0,0,1-.682-.682v-4.091a2.045,2.045,0,0,1,1.9-2.04,6.823,6.823,0,0,0,5.745,0,2.046,2.046,0,0,1,1.9,2.04Z" transform="translate(-168 -104)"/></g><g transform="translate(30.682 22.5)"><path class="a" d="M364.091,264a4.091,4.091,0,1,0,4.091,4.091A4.091,4.091,0,0,0,364.091,264Zm0,6.818a2.727,2.727,0,1,1,2.727-2.727A2.727,2.727,0,0,1,364.091,270.818Z" transform="translate(-360 -264)"/></g><g transform="translate(28.636 31.364)"><path class="a" d="M344.864,368H344.7l-.144.068a5.436,5.436,0,0,1-4.845,0L339.57,368h-.161A3.413,3.413,0,0,0,336,371.409V375.5a2.045,2.045,0,0,0,2.045,2.045h8.182a2.045,2.045,0,0,0,2.045-2.045v-4.091A3.413,3.413,0,0,0,344.864,368Zm2.045,7.5a.682.682,0,0,1-.682.682h-8.182a.682.682,0,0,1-.682-.682v-4.091a2.046,2.046,0,0,1,1.9-2.04,6.823,6.823,0,0,0,5.745,0,2.046,2.046,0,0,1,1.9,2.04Z" transform="translate(-336 -368)"/></g><g transform="translate(2.045 22.5)"><path class="a" d="M28.091,264a4.091,4.091,0,1,0,4.091,4.091A4.091,4.091,0,0,0,28.091,264Zm0,6.818a2.727,2.727,0,1,1,2.727-2.727A2.727,2.727,0,0,1,28.091,270.818Z" transform="translate(-24 -264)"/></g><g transform="translate(0 31.364)"><path class="a" d="M8.864,368H8.7l-.144.068a5.436,5.436,0,0,1-4.845,0L3.57,368H3.409A3.413,3.413,0,0,0,0,371.409V375.5a2.045,2.045,0,0,0,2.045,2.045h8.182a2.045,2.045,0,0,0,2.045-2.045v-4.091A3.413,3.413,0,0,0,8.864,368Zm2.045,7.5a.682.682,0,0,1-.682.682H2.045a.682.682,0,0,1-.682-.682v-4.091a2.046,2.046,0,0,1,1.9-2.04,6.823,6.823,0,0,0,5.745,0,2.046,2.046,0,0,1,1.9,2.04Z" transform="translate(0 -368)"/></g><g transform="translate(13.636 33.409)"><path class="a" d="M173.581,393.213v0a.682.682,0,0,0-.894-.36h0a15.124,15.124,0,0,1-9.725.67l.638-.187a.682.682,0,1,0-.383-1.309l-2.727.8c-.01,0-.018.012-.027.015a.675.675,0,0,0-.176.1.594.594,0,0,0-.068.043.66.66,0,0,0-.167.232.683.683,0,0,0-.052.282,2.1,2.1,0,0,0,.068.273c0,.01,0,.02.007.03l1.364,2.609a.682.682,0,0,0,1.21-.631l-.555-1.061a16.412,16.412,0,0,0,11.127-.605A.682.682,0,0,0,173.581,393.213Z" transform="translate(-159.998 -391.995)"/></g><g transform="translate(25.909 5.337)"><path class="a" d="M316.753,75.212a.682.682,0,0,0-.964,0l-.965.965a16.339,16.339,0,0,0-9.877-13.5.682.682,0,0,0-.535,1.255,14.977,14.977,0,0,1,9.018,12.05l-.769-.769a.682.682,0,0,0-.964.964l2.045,2.045a.682.682,0,0,0,.964,0h0l2.045-2.045A.682.682,0,0,0,316.753,75.212Z" transform="translate(-303.998 -62.622)"/></g><g transform="translate(4.091 4.102)"><path class="a" d="M58.889,49.936a.635.635,0,0,0-.018-.118c0-.006-.008-.01-.01-.017s0-.012,0-.017a.654.654,0,0,0-.064-.094.688.688,0,0,0-.078-.112.64.64,0,0,0-.133-.091.6.6,0,0,0-.076-.055l-2.727-1.246a.682.682,0,0,0-.566,1.24l1.412.646A16.339,16.339,0,0,0,48,64.487a.682.682,0,1,0,1.364,0A14.977,14.977,0,0,1,56.743,51.57L56.25,52.6a.682.682,0,0,0,.318.909.671.671,0,0,0,.3.068.682.682,0,0,0,.614-.387l1.364-2.845a.031.031,0,0,1,.005-.021.656.656,0,0,0,.037-.145.706.706,0,0,0,.026-.112A.68.68,0,0,0,58.889,49.936Z" transform="translate(-48 -48.134)"/></g></svg>