<svg xmlns="http://www.w3.org/2000/svg" width="46.374" height="46.486" viewBox="0 0 46.374 46.486"><defs><style>.a{fill:#b7202e;}</style></defs><g transform="translate(-2.289 2.423)"><g transform="translate(2.288 -2.423)"><g transform="translate(19.314 16.278)"><path class="a" d="M203.934,168.121a3.873,3.873,0,1,0,3.873,3.873A3.873,3.873,0,0,0,203.934,168.121Zm0,6.2a2.324,2.324,0,1,1,2.324-2.324A2.324,2.324,0,0,1,203.934,174.318Z" transform="translate(-200.061 -168.121)"/></g><g transform="translate(14.667 0)"><path class="a" d="M168.589,18.565l-1.07-.472q-.062-.224-.135-.434l.6-1.027a.774.774,0,0,0,.006-.766,8.676,8.676,0,0,0-1.115-1.558.774.774,0,0,0-.75-.238l-.893.2V9.306a4.65,4.65,0,0,0-2.406-4.069,3.1,3.1,0,1,0-4.482,0,4.65,4.65,0,0,0-2.406,4.069v4.968l-.893-.2a.774.774,0,0,0-.75.238,8.7,8.7,0,0,0-1.115,1.558.775.775,0,0,0,.006.766l.6,1.027q-.071.208-.133.428l-1.113.474a.775.775,0,0,0-.471.713v1.753a.775.775,0,0,0,.471.713l1.113.474c.041.147.085.29.133.428l-.6,1.027a.775.775,0,0,0-.006.766,8.7,8.7,0,0,0,1.115,1.558.773.773,0,0,0,.75.238l1.125-.258q.166.13.341.252l.109,1.193a.775.775,0,0,0,.446.632,8.355,8.355,0,0,0,1.8.6.777.777,0,0,0,.745-.253l.789-.916h.377l.789.916a.775.775,0,0,0,.745.253,8.37,8.37,0,0,0,1.8-.6.774.774,0,0,0,.446-.632l.109-1.194q.175-.121.341-.252l1.125.258a.773.773,0,0,0,.75-.238,8.726,8.726,0,0,0,1.115-1.557.776.776,0,0,0-.006-.766l-.6-1.027q.073-.21.135-.434l1.07-.472a.775.775,0,0,0,.462-.709V19.273A.775.775,0,0,0,168.589,18.565Zm-8.008-17a1.549,1.549,0,1,1-1.549,1.549A1.549,1.549,0,0,1,160.581,1.561Zm-3.1,7.746a3.1,3.1,0,1,1,6.2,0v2.775a8.213,8.213,0,0,0-1.375-.435.777.777,0,0,0-.745.253l-.789.916h-.377L159.6,11.9a.777.777,0,0,0-.745-.253,8.214,8.214,0,0,0-1.376.435V9.306ZM167.5,20.522l-.954.421a.776.776,0,0,0-.442.537,5.8,5.8,0,0,1-.292.936.775.775,0,0,0,.046.685l.551.95q-.187.29-.4.565l-1.037-.238a.77.77,0,0,0-.685.174,5.666,5.666,0,0,1-.773.571.774.774,0,0,0-.363.588l-.1,1.106q-.313.123-.624.212l-.711-.824a.775.775,0,0,0-.587-.269h-1.088a.775.775,0,0,0-.587.269l-.711.825c-.207-.059-.416-.13-.624-.212l-.1-1.106a.775.775,0,0,0-.364-.588,5.693,5.693,0,0,1-.773-.571.771.771,0,0,0-.685-.174l-1.037.238q-.217-.275-.4-.565l.551-.95a.775.775,0,0,0,.046-.685,5.776,5.776,0,0,1-.292-.936.774.774,0,0,0-.452-.54l-1-.424v-.73l1-.424a.774.774,0,0,0,.452-.54,5.8,5.8,0,0,1,.292-.936.775.775,0,0,0-.046-.685l-.551-.95q.187-.29.4-.565l1.037.238a.777.777,0,0,0,.685-.174,5.676,5.676,0,0,1,.773-.571.774.774,0,0,0,.363-.588l.1-1.106q.312-.123.624-.212l.71.825a.775.775,0,0,0,.587.269h1.088a.775.775,0,0,0,.587-.269l.711-.825c.207.059.416.13.624.212l.1,1.106a.775.775,0,0,0,.364.588,5.693,5.693,0,0,1,.773.571.776.776,0,0,0,.685.174l1.037-.238q.217.275.4.565l-.551.95a.775.775,0,0,0-.046.685,5.809,5.809,0,0,1,.292.936.776.776,0,0,0,.442.537l.954.421v.744Z" transform="translate(-152.061 0)"/></g><g transform="translate(34.031 34.093)"><path class="a" d="M355.934,352.121a3.873,3.873,0,1,0,3.873,3.873A3.873,3.873,0,0,0,355.934,352.121Zm0,6.2a2.324,2.324,0,1,1,2.324-2.324A2.324,2.324,0,0,1,355.934,358.318Z" transform="translate(-352.061 -352.121)"/></g><g transform="translate(29.383 17.815)"><path class="a" d="M320.588,202.565l-1.07-.472q-.062-.224-.135-.434l.6-1.027a.775.775,0,0,0,.006-.766,8.68,8.68,0,0,0-1.115-1.558.775.775,0,0,0-.75-.238l-.893.2v-4.968a4.65,4.65,0,0,0-2.406-4.069,3.1,3.1,0,1,0-4.482,0,4.65,4.65,0,0,0-2.406,4.069v4.968l-.893-.2a.776.776,0,0,0-.75.238,8.7,8.7,0,0,0-1.115,1.558.775.775,0,0,0,.006.766l.6,1.027q-.071.208-.133.428l-1.113.474a.774.774,0,0,0-.471.712v1.753a.775.775,0,0,0,.471.713l1.113.474c.041.147.086.29.133.428l-.6,1.027a.775.775,0,0,0-.006.766,8.7,8.7,0,0,0,1.115,1.558.772.772,0,0,0,.75.238l1.125-.258q.166.13.341.252l.109,1.193a.775.775,0,0,0,.446.632,8.356,8.356,0,0,0,1.8.6.774.774,0,0,0,.745-.253l.789-.916h.377l.789.916a.775.775,0,0,0,.745.253,8.37,8.37,0,0,0,1.8-.6.774.774,0,0,0,.446-.632l.109-1.194q.175-.121.341-.252l1.125.258a.771.771,0,0,0,.75-.238,8.727,8.727,0,0,0,1.115-1.557.776.776,0,0,0-.006-.766l-.6-1.027q.073-.21.135-.434l1.07-.472a.775.775,0,0,0,.462-.709v-1.753A.775.775,0,0,0,320.588,202.565Zm-8.008-17a1.549,1.549,0,1,1-1.549,1.549A1.549,1.549,0,0,1,312.58,185.561Zm-3.1,7.746a3.1,3.1,0,0,1,6.2,0v2.775a8.212,8.212,0,0,0-1.375-.435.778.778,0,0,0-.745.253l-.789.916h-.377l-.789-.916a.779.779,0,0,0-.745-.253,8.214,8.214,0,0,0-1.376.435v-2.775ZM319.5,204.522l-.954.421a.776.776,0,0,0-.443.537,5.8,5.8,0,0,1-.292.936.775.775,0,0,0,.046.685l.551.95q-.187.29-.4.565l-1.037-.238a.769.769,0,0,0-.685.174,5.665,5.665,0,0,1-.773.571.774.774,0,0,0-.363.588l-.1,1.106q-.313.123-.624.212l-.711-.824a.775.775,0,0,0-.587-.269h-1.088a.775.775,0,0,0-.587.269l-.711.825c-.207-.059-.416-.13-.624-.212l-.1-1.106a.775.775,0,0,0-.364-.588,5.7,5.7,0,0,1-.773-.571.77.77,0,0,0-.685-.174l-1.037.238q-.217-.275-.4-.565l.551-.95a.775.775,0,0,0,.046-.685,5.781,5.781,0,0,1-.292-.936.774.774,0,0,0-.452-.54l-1-.424v-.73l.995-.424a.774.774,0,0,0,.452-.54,5.808,5.808,0,0,1,.292-.936.775.775,0,0,0-.046-.685l-.551-.95q.187-.29.4-.565l1.037.237a.774.774,0,0,0,.685-.174,5.677,5.677,0,0,1,.773-.571.774.774,0,0,0,.363-.588l.1-1.106q.312-.123.624-.212l.71.825a.775.775,0,0,0,.587.269h1.088a.775.775,0,0,0,.587-.269l.711-.825c.207.059.416.13.624.212l.1,1.106a.776.776,0,0,0,.364.588,5.7,5.7,0,0,1,.773.571.774.774,0,0,0,.685.174l1.037-.238q.217.275.4.565l-.551.95a.775.775,0,0,0-.046.685,5.809,5.809,0,0,1,.292.936.776.776,0,0,0,.443.537l.954.421Z" transform="translate(-304.059 -184)"/></g><g transform="translate(4.597 34.093)"><path class="a" d="M51.934,352.121a3.873,3.873,0,1,0,3.873,3.873A3.873,3.873,0,0,0,51.934,352.121Zm0,6.2a2.324,2.324,0,1,1,2.324-2.324A2.324,2.324,0,0,1,51.934,358.318Z" transform="translate(-48.061 -352.121)"/></g><g transform="translate(0 17.815)"><path class="a" d="M17.058,202.565l-1.07-.472q-.062-.224-.135-.434l.6-1.027a.775.775,0,0,0,.006-.766,8.7,8.7,0,0,0-1.115-1.558.776.776,0,0,0-.75-.238l-.893.2v-4.968a4.65,4.65,0,0,0-2.406-4.069,3.1,3.1,0,1,0-4.482,0A4.65,4.65,0,0,0,4.4,193.307v4.968l-.893-.2a.777.777,0,0,0-.75.238,8.7,8.7,0,0,0-1.115,1.558.776.776,0,0,0,.006.766l.6,1.027q-.073.21-.135.434l-1.07.472a.775.775,0,0,0-.462.709v1.753a.775.775,0,0,0,.462.709l1.07.472q.062.224.135.434l-.6,1.027a.775.775,0,0,0-.006.766,8.7,8.7,0,0,0,1.115,1.558.772.772,0,0,0,.75.238l1.125-.258q.166.13.341.252l.109,1.193a.775.775,0,0,0,.446.632,8.356,8.356,0,0,0,1.8.6.774.774,0,0,0,.745-.253l.789-.916h.377l.789.916a.775.775,0,0,0,.745.253,8.369,8.369,0,0,0,1.8-.6.774.774,0,0,0,.446-.632l.109-1.194q.175-.121.341-.252l1.125.258a.771.771,0,0,0,.75-.238,8.723,8.723,0,0,0,1.115-1.557.775.775,0,0,0-.006-.766l-.6-1.027q.073-.21.135-.434l1.07-.472a.775.775,0,0,0,.462-.709v-1.753A.775.775,0,0,0,17.058,202.565Zm-8.008-17A1.549,1.549,0,1,1,7.5,187.11,1.549,1.549,0,0,1,9.05,185.561Zm-3.1,7.746a3.1,3.1,0,0,1,6.2,0v2.775a8.212,8.212,0,0,0-1.375-.435.777.777,0,0,0-.745.253l-.789.916H8.861l-.789-.916a.778.778,0,0,0-.745-.253,8.213,8.213,0,0,0-1.376.435v-2.775Zm10.019,11.216-.954.421a.776.776,0,0,0-.442.537,5.758,5.758,0,0,1-.292.936.775.775,0,0,0,.046.685l.551.95q-.187.29-.4.565l-1.037-.238a.769.769,0,0,0-.685.174,5.662,5.662,0,0,1-.773.571.774.774,0,0,0-.363.588l-.1,1.106q-.313.123-.624.212l-.711-.824a.775.775,0,0,0-.587-.269H8.506a.775.775,0,0,0-.587.269l-.711.825c-.207-.059-.416-.13-.624-.212l-.1-1.106a.775.775,0,0,0-.364-.588,5.7,5.7,0,0,1-.773-.571.771.771,0,0,0-.685-.174l-1.037.238q-.217-.275-.4-.565l.551-.95a.775.775,0,0,0,.046-.685,5.776,5.776,0,0,1-.292-.936.776.776,0,0,0-.442-.537l-.954-.421v-.744l.954-.421a.776.776,0,0,0,.442-.537,5.755,5.755,0,0,1,.292-.936.775.775,0,0,0-.046-.685l-.551-.95q.187-.29.4-.565l1.037.238a.775.775,0,0,0,.685-.174,5.677,5.677,0,0,1,.773-.571.774.774,0,0,0,.363-.588l.1-1.106q.312-.123.624-.212l.71.825a.775.775,0,0,0,.587.269H9.594a.775.775,0,0,0,.587-.269l.711-.825c.207.059.416.13.624.212l.1,1.106a.775.775,0,0,0,.364.588,5.7,5.7,0,0,1,.773.571.773.773,0,0,0,.685.174l1.037-.238q.217.275.4.565l-.551.95a.775.775,0,0,0-.046.685,5.764,5.764,0,0,1,.292.936.776.776,0,0,0,.442.537l.954.421v.744Z" transform="translate(-0.58 -184)"/></g><g transform="translate(4.336 6.303)"><path class="a" d="M56.076,65.1a20.938,20.938,0,0,0-10.71,10.2l1.4.672a19.388,19.388,0,0,1,9.918-9.448Z" transform="translate(-45.366 -65.098)"/></g><g transform="translate(16.968 43.961)"><path class="a" d="M188.141,454.043a19.566,19.566,0,0,1-11.847.105l-.46,1.479a21.028,21.028,0,0,0,12.793-.114Z" transform="translate(-175.835 -454.043)"/></g><g transform="translate(30.531 6.216)"><path class="a" d="M316.5,64.2l-.588,1.433a19.343,19.343,0,0,1,10.207,9.731l1.4-.656A20.888,20.888,0,0,0,316.5,64.2Z" transform="translate(-315.913 -64.199)"/></g></g></g></svg>