<svg xmlns="http://www.w3.org/2000/svg" width="49" height="49.271" viewBox="0 0 49 49.271"><defs><style>.a{fill:#b7202e;}</style></defs><g transform="translate(0 0)"><path class="a" d="M49.57,336.785a4.785,4.785,0,1,0-4.785,4.785A4.791,4.791,0,0,0,49.57,336.785Zm-4.785,2.871a2.871,2.871,0,1,1,2.871-2.871A2.874,2.874,0,0,1,44.785,339.656Z" transform="translate(-36.172 -300.226)"/><path class="a" d="M215.57,336.785a4.785,4.785,0,1,0-4.785,4.785A4.791,4.791,0,0,0,215.57,336.785Zm-4.785,2.871a2.871,2.871,0,1,1,2.871-2.871A2.874,2.874,0,0,1,210.785,339.656Z" transform="translate(-186.285 -300.226)"/><path class="a" d="M381.57,336.785a4.785,4.785,0,1,0-4.785,4.785A4.791,4.791,0,0,0,381.57,336.785Zm-4.785,2.871a2.871,2.871,0,1,1,2.871-2.871A2.874,2.874,0,0,1,376.785,339.656Z" transform="translate(-336.398 -300.226)"/><path class="a" d="M42.3,432H38.473a6.7,6.7,0,0,0-5.742,3.253A6.7,6.7,0,0,0,26.988,432H22.012a6.7,6.7,0,0,0-5.742,3.253A6.7,6.7,0,0,0,10.527,432H6.7A6.707,6.707,0,0,0,0,438.7a.957.957,0,0,0,.957.957H20.193a.957.957,0,1,0,0-1.914H17.323a4.794,4.794,0,0,1,4.689-3.828h4.977a4.794,4.794,0,0,1,4.689,3.828H28.807a.957.957,0,1,0,0,1.914H48.043A.957.957,0,0,0,49,438.7,6.707,6.707,0,0,0,42.3,432ZM2.01,437.742A4.794,4.794,0,0,1,6.7,433.914h3.828a4.794,4.794,0,0,1,4.689,3.828Zm31.773,0a4.794,4.794,0,0,1,4.689-3.828H42.3a4.794,4.794,0,0,1,4.689,3.828Z" transform="translate(0 -390.656)"/><path class="a" d="M98.539,22.012V25.84a.957.957,0,0,0,.957.957h3.828a.957.957,0,0,0,.957-.957V22.012a2.876,2.876,0,0,0-1.914-2.706V8.614a.971.971,0,0,0-.581-.88l0,0L84.572.083a.956.956,0,0,0-.777,0L66.568,7.739a.957.957,0,0,0,0,1.749l7.088,3.15V18.3a.957.957,0,0,0,.568.875l9.57,4.253a.958.958,0,0,0,.777,0l9.57-4.253a.957.957,0,0,0,.568-.875V12.639l5.742-2.552v9.219A2.876,2.876,0,0,0,98.539,22.012Zm3.828,2.871h-1.914V22.012a.957.957,0,0,1,1.914,0ZM84.184,2,96.9,7.657H84.184a.957.957,0,1,0,0,1.914H96.9L84.184,15.223,69.313,8.614ZM92.8,17.678l-8.613,3.828L75.57,17.678V13.489l8.225,3.655a.958.958,0,0,0,.777,0L92.8,13.489Z" transform="translate(-59.684)"/><ellipse class="a" cx="1" cy="0.5" rx="1" ry="0.5" transform="translate(24 48.272)"/></g></svg>