<svg xmlns="http://www.w3.org/2000/svg" xmlns:xlink="http://www.w3.org/1999/xlink" width="46.519" height="46.519" viewBox="0 0 46.519 46.519"><defs><style>.a{fill:#b7202e;}.b{clip-path:url(#a);}</style><clipPath id="a"><rect class="a" width="46.519" height="46.519"/></clipPath></defs><g class="b" transform="translate(0 0)"><path class="a" d="M4.492,32.224h21.78a.666.666,0,0,0,.7-.7V24.471a.706.706,0,0,0-.7-.7H4.492a.666.666,0,0,0-.7.7V31.52a.666.666,0,0,0,.7.7m.7-7.049H25.567v5.639H5.2Z" transform="translate(-0.968 -6.075)"/><path class="a" d="M8.02,36.833H5.06a.666.666,0,0,0-.7.7v2.89a.666.666,0,0,0,.7.7H7.95a.666.666,0,0,0,.7-.7v-2.96c.071-.352-.281-.634-.634-.634M5.766,38.172h1.48v1.551H5.766Z" transform="translate(-1.113 -9.415)"/><path class="a" d="M8.02,44.787H5.06a.666.666,0,0,0-.7.7v2.96a.666.666,0,0,0,.7.7H7.95a.665.665,0,0,0,.7-.7v-2.96a.613.613,0,0,0-.634-.7M5.766,46.2h1.48v1.551H5.766Z" transform="translate(-1.113 -11.448)"/><path class="a" d="M8.02,52.74H5.06a.666.666,0,0,0-.7.7v2.96a.666.666,0,0,0,.7.7H7.95a.666.666,0,0,0,.7-.7v-2.96a.648.648,0,0,0-.634-.7M5.766,54.15h1.48V55.7H5.766Z" transform="translate(-1.113 -13.481)"/><path class="a" d="M16.069,36.833h-2.96a.666.666,0,0,0-.7.7v2.89a.666.666,0,0,0,.7.7h2.96a.666.666,0,0,0,.7-.7v-2.96a.7.7,0,0,0-.7-.634m-.7,2.89H13.814V38.173h1.551Z" transform="translate(-3.171 -9.415)"/><path class="a" d="M16.069,44.787h-2.96a.666.666,0,0,0-.7.7v2.96a.666.666,0,0,0,.7.7h2.96a.665.665,0,0,0,.7-.7v-2.96a.706.706,0,0,0-.7-.7m-.7,2.96H13.814V46.2h1.551Z" transform="translate(-3.171 -11.448)"/><path class="a" d="M16.069,52.74h-2.96a.666.666,0,0,0-.7.7v2.96a.666.666,0,0,0,.7.7h2.96a.666.666,0,0,0,.7-.7v-2.96a.758.758,0,0,0-.7-.7m-.7,2.96H13.814V54.15h1.551Z" transform="translate(-3.171 -13.481)"/><path class="a" d="M24.142,36.833h-2.89a.666.666,0,0,0-.7.7v2.89a.666.666,0,0,0,.7.7h2.89a.666.666,0,0,0,.7-.7v-2.96a.7.7,0,0,0-.7-.634m-.7,2.89h-1.48V38.173h1.48Z" transform="translate(-5.252 -9.415)"/><path class="a" d="M24.142,44.787h-2.89a.666.666,0,0,0-.7.7v2.96a.666.666,0,0,0,.7.7h2.89a.666.666,0,0,0,.7-.7v-2.96a.706.706,0,0,0-.7-.7m-.7,2.96h-1.48V46.2h1.48Z" transform="translate(-5.252 -11.448)"/><path class="a" d="M24.142,52.74h-2.89a.666.666,0,0,0-.7.7v2.96a.666.666,0,0,0,.7.7h2.89a.666.666,0,0,0,.7-.7v-2.96a.758.758,0,0,0-.7-.7m-.7,2.96h-1.48V54.15h1.48Z" transform="translate(-5.252 -13.481)"/><path class="a" d="M32.1,36.833H29.2a.666.666,0,0,0-.7.7v2.89a.666.666,0,0,0,.7.7H32.1a.666.666,0,0,0,.7-.7v-2.96a.65.65,0,0,0-.7-.634m-.7,2.89h-1.48V38.173h1.48Z" transform="translate(-7.285 -9.415)"/><path class="a" d="M32.1,44.787H29.2a.666.666,0,0,0-.7.7v8.881a.666.666,0,0,0,.7.7H32.1a.666.666,0,0,0,.7-.7V45.492a.666.666,0,0,0-.7-.7m-.7,8.881h-1.48V46.2h1.48Z" transform="translate(-7.285 -11.448)"/><path class="a" d="M46.308,12.264,33.762.211A.762.762,0,0,0,33.268,0H9.022a.666.666,0,0,0-.7.7V14.66H.7a.666.666,0,0,0-.7.7V45.814a.666.666,0,0,0,.7.7h45.11a.666.666,0,0,0,.7-.7V12.757c0-.141-.071-.423-.212-.494M33.974,2.325l10.079,9.657H33.974ZM27.418,45.109H1.41V16.07H27.418Zm17.692,0H28.828V15.365a.665.665,0,0,0-.7-.7H9.727V1.409H32.564V12.757a.666.666,0,0,0,.7.7H45.11Z" transform="translate(0 0)"/><path class="a" d="M32.105,5.965H17.938a.666.666,0,0,0-.7.7.666.666,0,0,0,.7.7H32.105a.666.666,0,0,0,.7-.7.666.666,0,0,0-.7-.7" transform="translate(-4.405 -1.525)"/><path class="a" d="M32.105,11.552H17.938a.7.7,0,0,0,0,1.41H32.105a.7.7,0,1,0,0-1.41" transform="translate(-4.405 -2.953)"/><path class="a" d="M47.481,39.958A6.837,6.837,0,1,0,54.248,46.8a6.783,6.783,0,0,0-6.766-6.837m0,12.194a5.428,5.428,0,1,1,5.357-5.427,5.37,5.37,0,0,1-5.357,5.427" transform="translate(-10.407 -10.214)"/><path class="a" d="M42.539,28.946c-.07,0,0,0,0,.07L39.65,35.148a.672.672,0,0,0,.211.846.74.74,0,0,0,.846.071l5.568-3.806.071-.071a.069.069,0,0,0,.07-.071l7.754-9.092a2.477,2.477,0,0,0-.282-3.524,2.584,2.584,0,0,0-3.524.281l-7.754,9.093a.069.069,0,0,1-.071.071M51.491,20.7a1.092,1.092,0,0,1,1.48-.141,1.111,1.111,0,0,1,.141,1.551l-7.331,8.528-1.621-1.41ZM44.724,31.554l-2.678,1.832,1.409-2.96Z" transform="translate(-10.117 -4.841)"/><path class="a" d="M46.795,44.663h4.661v.879H46.795Zm0,3.415H48.3a1.187,1.187,0,0,0,.616-.158,1.076,1.076,0,0,0,.415-.447,1.435,1.435,0,0,0,.148-.666,1.465,1.465,0,0,0-.146-.666,1.057,1.057,0,0,0-.413-.447,1.2,1.2,0,0,0-.621-.158H46.795v-.687h1.757a1.923,1.923,0,0,1,1.008.26,1.752,1.752,0,0,1,.674.738,2.433,2.433,0,0,1,.239,1.1A1.967,1.967,0,0,1,50.191,48a1.874,1.874,0,0,1-.794.7,2.671,2.671,0,0,1-1.18.249H46.795Zm0-1.724h4.661v.869H46.795Zm1.461,2.388.969-.22L51,51.607H49.846Z" transform="translate(-11.961 -11.416)"/></g></svg>