<svg xmlns="http://www.w3.org/2000/svg" width="45.775" height="45.775" viewBox="0 0 45.775 45.775"><defs><style>.a{fill:#b7202e;}</style></defs><g transform="translate(-1 -1)"><path class="a" d="M33.053,21.673a1.77,1.77,0,0,0,1.26-.522l2.431-2.431H44.56A2.218,2.218,0,0,0,46.775,16.5V6.168A2.218,2.218,0,0,0,44.56,3.953h-15.5V2.477A1.478,1.478,0,0,0,27.579,1H7.212a1.467,1.467,0,0,0-1.044.433L1.433,6.168A1.467,1.467,0,0,0,1,7.212V45.3a1.478,1.478,0,0,0,1.477,1.477h25.1A1.478,1.478,0,0,0,29.056,45.3V39.392h7.077l2.431,2.431a1.782,1.782,0,0,0,3.043-1.26V39.392H44.56a2.218,2.218,0,0,0,2.215-2.215V26.841a2.217,2.217,0,0,0-2.213-2.215H29.056V18.72h2.215V19.89A1.784,1.784,0,0,0,33.053,21.673ZM6.168,3.521V6.168H3.521ZM2.477,45.3V7.645H7.645V2.477H27.579V4.089A2.212,2.212,0,0,0,26.1,6.168V16.5a2.212,2.212,0,0,0,1.477,2.079v6.179A2.212,2.212,0,0,0,26.1,26.842V37.178a2.212,2.212,0,0,0,1.477,2.079V45.3ZM45.3,26.841V37.177a.74.74,0,0,1-.738.738h-4.43v2.648a.318.318,0,0,1-.522.216l-2.864-2.864H28.318a.74.74,0,0,1-.738-.738V26.841a.74.74,0,0,1,.738-.738H44.562a.738.738,0,0,1,.737.738Zm-16.981-9.6a.74.74,0,0,1-.738-.738V6.168a.74.74,0,0,1,.738-.738H44.56a.74.74,0,0,1,.738.738V16.5a.74.74,0,0,1-.738.738H36.133l-2.864,2.864a.317.317,0,0,1-.522-.216V17.243Z"/><path class="a" d="M53.648,10.353,52.654,9.26l-7.6,6.91-1.717-1.717L42.293,15.5l2.713,2.713Z" transform="translate(-10.806 -2.162)"/><path class="a" d="M21.243,35H5v5.907H21.243Zm-1.477,4.43H6.477V36.477h13.29Z" transform="translate(-1.047 -8.897)"/><path class="a" d="M5,45H21.243v1.477H5Z" transform="translate(-1.047 -11.514)"/><path class="a" d="M5,49H24.2v1.477H5Z" transform="translate(-1.047 -12.561)"/><path class="a" d="M5,53H24.2v1.477H5Z" transform="translate(-1.047 -13.608)"/><path class="a" d="M5,57H9.43v1.477H5Z" transform="translate(-1.047 -14.654)"/><path class="a" d="M13,57h4.43v1.477H13Z" transform="translate(-3.14 -14.654)"/><path class="a" d="M21,57h4.43v1.477H21Z" transform="translate(-5.234 -14.654)"/><path class="a" d="M16.6,7a9.6,9.6,0,1,0,9.6,9.6A9.609,9.609,0,0,0,16.6,7Zm0,17.72a8.09,8.09,0,0,1-5.873-2.527,6.832,6.832,0,0,1,2.191-2.285L16.6,23.542l3.682-3.635a6.832,6.832,0,0,1,2.191,2.285A8.09,8.09,0,0,1,16.6,24.72ZM13.645,14.383A2.953,2.953,0,1,1,16.6,17.336,2.956,2.956,0,0,1,13.645,14.383Zm.681,4.841a6.481,6.481,0,0,1,4.544,0L16.6,21.467Zm9.12,1.722a8.388,8.388,0,0,0-4.065-3.121,4.43,4.43,0,1,0-5.565,0A8.388,8.388,0,0,0,9.75,20.946a8.121,8.121,0,1,1,13.7,0Z" transform="translate(-1.57 -1.57)"/><path class="a" d="M44.337,45.72l3.17-3.17,3.17,3.17,1.044-1.044-3.17-3.17,3.17-3.17-1.044-1.044-3.17,3.17-3.17-3.17-1.044,1.044,3.17,3.17-3.17,3.17Z" transform="translate(-11.068 -9.497)"/></g></svg>