<svg xmlns="http://www.w3.org/2000/svg" width="44.134" height="43.903" viewBox="0 0 44.134 43.903"><defs><style>.a{fill:#b7202e;}</style></defs><g transform="translate(0 -1.335)"><path class="a" d="M83.728,164.608a.646.646,0,0,0-.646.646v1.54a.646.646,0,0,0,1.293,0v-1.54A.646.646,0,0,0,83.728,164.608Z" transform="translate(-75.92 -149.199)"/><path class="a" d="M178.419,167.441a.646.646,0,0,0,.646-.646v-1.54a.646.646,0,0,0-1.293,0v1.54A.646.646,0,0,0,178.419,167.441Z" transform="translate(-162.449 -149.199)"/><path class="a" d="M112.249,215.858a2.425,2.425,0,0,0,2.422-2.422.646.646,0,1,0-1.293,0,1.129,1.129,0,1,1-2.258,0,.646.646,0,1,0-1.293,0A2.425,2.425,0,0,0,112.249,215.858Z" transform="translate(-100.36 -193.227)"/><path class="a" d="M310.422,332.531a4.652,4.652,0,1,0-6.779-5.579,4.653,4.653,0,1,0-6.779,5.579,5.019,5.019,0,0,0-2.605,4.4v2.424a.646.646,0,0,0,.646.646h17.476a.646.646,0,0,0,.646-.646v-2.424A5.019,5.019,0,0,0,310.422,332.531Zm-2.41-7.338a3.36,3.36,0,1,1-3.36,3.36A3.364,3.364,0,0,1,308.011,325.193Zm-2.41,7.338a5.051,5.051,0,0,0-1.959,1.938,5.051,5.051,0,0,0-1.959-1.938,4.678,4.678,0,0,0,1.959-2.378A4.678,4.678,0,0,0,305.6,332.531Zm-9.687-3.978a3.36,3.36,0,1,1,3.36,3.36A3.364,3.364,0,0,1,295.914,328.553Zm-.363,8.375a3.723,3.723,0,0,1,7.445,0v1.778h-7.445v-1.778Zm16.183,1.778h-7.445v-1.778a3.722,3.722,0,0,1,7.445,0Z" transform="translate(-268.893 -294.76)"/><path class="a" d="M301.948,55.02a2.458,2.458,0,0,0,2.455-2.455V51.2a4.322,4.322,0,0,1,.959-1.535,4.769,4.769,0,0,0-3.227-8.077,4.761,4.761,0,0,0-3.6,8.078,4.318,4.318,0,0,1,.959,1.534v1.367A2.458,2.458,0,0,0,301.948,55.02Zm1.162-2.455a1.162,1.162,0,1,1-2.324,0v-.835h2.324v.835Zm-3.567-8.72a3.469,3.469,0,0,1,4.892,4.917,5.63,5.63,0,0,0-1.122,1.676h-2.73a5.623,5.623,0,0,0-1.122-1.675A3.465,3.465,0,0,1,299.542,43.845Z" transform="translate(-271.568 -36.779)"/><path class="a" d="M345.59,4.131a.646.646,0,0,0,.647-.646v-1.5a.646.646,0,0,0-1.293,0v1.5A.646.646,0,0,0,345.59,4.131Z" transform="translate(-315.21)"/><path class="a" d="M292.944,20.219a.647.647,0,1,0,.914-.914L292.8,18.242a.647.647,0,1,0-.914.914Z" transform="translate(-266.549 -15.277)"/><path class="a" d="M386.97,20.219l1.063-1.063a.647.647,0,0,0-.914-.914l-1.063,1.063a.647.647,0,1,0,.914.914Z" transform="translate(-352.605 -15.277)"/><path class="a" d="M414.24,66.15h1.5a.646.646,0,0,0,0-1.293h-1.5a.646.646,0,0,0,0,1.293Z" transform="translate(-377.943 -58.047)"/><path class="a" d="M19.4,28.154h-.958L16,26.825V25.681a9,9,0,0,0,4.67-6,3.489,3.489,0,0,0,2.08-5.895.643.643,0,0,0,.141-.4c0-5.484,0-5.1-.006-5.283.067.008-.018,0,1.579,0a.646.646,0,0,0,0-1.293h-1.5a.641.641,0,0,0-.279.064,5.374,5.374,0,0,0-4.714-3.854A4.161,4.161,0,0,0,14.61,1.338h-6.8A6.929,6.929,0,0,0,.888,8.259v5.126a.643.643,0,0,0,.141.4,3.489,3.489,0,0,0,2.08,5.895,9,9,0,0,0,4.67,6v1.144L5.332,28.154H4.4a4.4,4.4,0,0,0-4.4,4.4V38.99a.646.646,0,0,0,.646.646H4.16a.646.646,0,1,0,0-1.293H1.293v-5.79A3.11,3.11,0,0,1,4.4,29.447h.883L9.242,32.4a.653.653,0,0,0,.5.119l.356,1.4-.87,4.43H7.177a.646.646,0,0,0,0,1.293H23.157a.646.646,0,0,0,.646-.646V32.553a4.4,4.4,0,0,0-4.4-4.4Zm-12.711.732,1.7-.922,2.5,1.665L9.556,31.02Zm5.2,1.568,1.06,1.107-.431,1.688h-1.26l-.431-1.688,1.06-1.107Zm-.6,4.088h1.2l.747,3.8H10.542Zm1.6-4.913,2.5-1.665,1.7.922L14.222,31.02ZM2.181,8.259A5.634,5.634,0,0,1,7.809,2.631h6.8A2.88,2.88,0,0,1,17.067,4a.646.646,0,0,0,.539.3A4.064,4.064,0,0,1,21.6,8.348v4.391H19.078a2.543,2.543,0,0,1-2-.966.647.647,0,0,0-.937-.079,4.085,4.085,0,0,1-2.73,1.045H2.181V8.259Zm2.1,10.692a.647.647,0,0,0-.665-.539,2.192,2.192,0,0,1-.19-4.38h9.984a5.374,5.374,0,0,0,3.1-.982,3.824,3.824,0,0,0,2.567.982h1.274a2.192,2.192,0,0,1-.19,4.38.646.646,0,0,0-.665.539,7.715,7.715,0,0,1-15.216,0Zm7.608,7.725a9.086,9.086,0,0,0,2.818-.451v.639l-1.255.837-1.563,1.042L9.071,26.863v-.639A9.087,9.087,0,0,0,11.889,26.676ZM22.511,38.343H14.553l-.87-4.429.357-1.4a.653.653,0,0,0,.5-.119l3.96-2.951H19.4a3.11,3.11,0,0,1,3.107,3.106v5.79Z" transform="translate(0 -0.003)"/><path class="a" d="M286.476,206.977V208.8h-.063a.986.986,0,0,0-.821,1.534l1.917,2.875a.987.987,0,0,0,1.642,0c2.094-3.141,2.083-3.025,2.083-3.422a.989.989,0,0,0-.987-.988h-.259a.647.647,0,0,0-.273,1.233l-1.385,2.077-1.345-2.017h.138a.646.646,0,0,0,.647-.646v-3.114a.646.646,0,0,0-.647-.646h-7.769a.56.56,0,0,1,0-1.121h8.976a.561.561,0,0,1,.56.56v1.755a.646.646,0,0,0,1.293,0v-1.755a1.855,1.855,0,0,0-1.853-1.853h-8.976a1.853,1.853,0,0,0,0,3.707Z" transform="translate(-253.58 -184.529)"/></g></svg>