<svg xmlns="http://www.w3.org/2000/svg" width="40.581" height="51.848" viewBox="0 0 40.581 51.848"><defs><style>.a{fill:#b7202e;}</style></defs><g transform="translate(-87.096 -55.2)"><path class="a" d="M232.344,63.185c2.2,0,3.844-2.293,3.844-4.344a3.85,3.85,0,0,0-7.689,0C228.5,60.892,230.145,63.185,232.344,63.185Zm0-6.183a1.881,1.881,0,0,1,2.042,1.839,2.091,2.091,0,1,1-4.085,0A1.882,1.882,0,0,1,232.344,57Z" transform="translate(-124.417)"/><path class="a" d="M224.16,158.31a.9.9,0,0,0-.9.9l.011,3.674a.9.9,0,1,0,1.8,0l-.011-3.674A.9.9,0,0,0,224.16,158.31Z" transform="translate(-119.806 -90.723)"/><path class="a" d="M212.714,127.991c.032.949.252,3.789.252,3.789a.9.9,0,0,0,.9.841h.061a.9.9,0,0,0,.841-.961s-.215-2.8-.249-3.724a4.841,4.841,0,0,0-4.05-4.835,24.957,24.957,0,0,0-2.935-.21h-.01a29.041,29.041,0,0,0-3.012.208,4.836,4.836,0,0,0-4.065,4.845c-.026.935-.195,3.736-.195,3.736a.9.9,0,1,0,1.8.094s.172-2.835.2-3.782a3.025,3.025,0,0,1,2.508-3.107,27.326,27.326,0,0,1,2.763-.192h.007a23.038,23.038,0,0,1,2.663.184,3.051,3.051,0,0,1,2.523,3.115Z" transform="translate(-99.56 -59.558)"/><path class="a" d="M283.471,158.31a.9.9,0,0,0-.9.9l-.01,3.674a.9.9,0,1,0,1.8,0l.01-3.674A.9.9,0,0,0,283.471,158.31Z" transform="translate(-171.982 -90.723)"/><path class="a" d="M296.9,77.272c1.884,0,3.292-1.953,3.292-3.7a3.3,3.3,0,0,0-6.582,0C293.605,75.321,295.012,77.272,296.9,77.272Zm0-5.025a1.349,1.349,0,0,1,1.49,1.321c0,.841-.7,1.9-1.49,1.9s-1.488-1.061-1.488-1.9A1.343,1.343,0,0,1,296.9,72.247Z" transform="translate(-181.705 -13.418)"/><path class="a" d="M318.688,133.89c.032.744.257,2.966.257,2.966a.9.9,0,0,0,.9.823h.079a.9.9,0,0,0,.817-.978s-.219-2.162-.253-2.883a4.125,4.125,0,0,0-3.435-4.085,20.861,20.861,0,0,0-2.41-.173.9.9,0,0,0,0,1.8,18.66,18.66,0,0,1,2.138.153,2.332,2.332,0,0,1,1.909,2.375Z" transform="translate(-199.417 -65.427)"/><path class="a" d="M337.426,158.349a.9.9,0,0,0-.887.915l.044,2.858a.9.9,0,0,0,.9.887h.013a.9.9,0,0,0,.888-.915l-.046-2.858a.9.9,0,0,0-.914-.887Z" transform="translate(-219.477 -90.757)"/><path class="a" d="M176.506,77.272c1.884,0,3.286-1.951,3.286-3.7a3.3,3.3,0,0,0-6.582,0C173.215,75.321,174.626,77.272,176.506,77.272Zm0-5.025a1.348,1.348,0,0,1,1.488,1.321c0,.841-.7,1.9-1.488,1.9s-1.49-1.061-1.49-1.9A1.349,1.349,0,0,1,176.506,72.247Z" transform="translate(-75.769 -13.418)"/><path class="a" d="M151.617,133.854a2.349,2.349,0,0,1,1.908-2.38,18.657,18.657,0,0,1,2.14-.153.9.9,0,1,0,0-1.8,20.852,20.852,0,0,0-2.412.178,4.119,4.119,0,0,0-3.435,4.085c-.035.721-.253,2.883-.253,2.883a.9.9,0,0,0,.819.977h.079a.9.9,0,0,0,.9-.823S151.585,134.6,151.617,133.854Z" transform="translate(-54.961 -65.392)"/><path class="a" d="M170.645,158.35a.9.9,0,0,0-.9.887l-.046,2.858a.9.9,0,0,0,.888.915h.014a.9.9,0,0,0,.9-.887l.044-2.858a.9.9,0,0,0-.887-.915Z" transform="translate(-72.68 -90.758)"/><path class="a" d="M355.793,81.324a3.389,3.389,0,0,0,3.053-3.419,3.056,3.056,0,0,0-6.105,0A3.39,3.39,0,0,0,355.793,81.324Zm0-4.522a1.14,1.14,0,0,1,1.251,1.1c0,.758-.655,1.617-1.251,1.617s-1.251-.841-1.251-1.617A1.129,1.129,0,0,1,355.793,76.8Z" transform="translate(-233.732 -17.421)"/><path class="a" d="M375.4,133.221c.029.67.232,2.674.232,2.674a.9.9,0,0,0,.9.822h.08a.9.9,0,0,0,.818-.975s-.2-1.946-.227-2.6a3.8,3.8,0,0,0-3.168-3.758,18.221,18.221,0,0,0-2.182-.156.9.9,0,0,0,0,1.8,16.857,16.857,0,0,1,1.911.136A2.028,2.028,0,0,1,375.4,133.221Z" transform="translate(-249.754 -65.136)"/><path class="a" d="M391.21,155.14H391.2a.9.9,0,0,0-.888.915l.041,2.572a.9.9,0,0,0,.9.887h.014a.9.9,0,0,0,.888-.915l-.041-2.572A.9.9,0,0,0,391.21,155.14Z" transform="translate(-266.787 -87.934)"/><path class="a" d="M121.1,81.324a3.389,3.389,0,0,0,3.053-3.419,3.056,3.056,0,0,0-6.105,0A3.39,3.39,0,0,0,121.1,81.324Zm0-4.522a1.14,1.14,0,0,1,1.251,1.1c0,.758-.655,1.617-1.251,1.617s-1.251-.841-1.251-1.617A1.129,1.129,0,0,1,121.1,76.8Z" transform="translate(-27.236 -17.421)"/><path class="a" d="M98.745,133.194a2.028,2.028,0,0,1,1.641-2.057A16.853,16.853,0,0,1,102.3,131a.9.9,0,1,0,0-1.8,18.219,18.219,0,0,0-2.188.156,3.8,3.8,0,0,0-3.168,3.758c-.031.651-.227,2.6-.227,2.6a.9.9,0,0,0,.818.975h.08a.9.9,0,0,0,.9-.822S98.716,133.861,98.745,133.194Z" transform="translate(-8.461 -65.11)"/><path class="a" d="M116.935,155.14a.9.9,0,0,0-.9.887L116,158.6a.9.9,0,0,0,.888.915h.013a.9.9,0,0,0,.9-.887l.041-2.572a.9.9,0,0,0-.888-.915Z" transform="translate(-25.431 -87.934)"/><path class="a" d="M356.043,218.165a.9.9,0,0,0-1.181,1.361,8.816,8.816,0,0,1-.624,13.868l.388-.663a.9.9,0,1,0-1.556-.909l-1.866,3.188a.9.9,0,0,0,.611,1.339l3.633.682a.881.881,0,0,0,.167.016.9.9,0,0,0,.166-1.786l-.853-.16a10.62,10.62,0,0,0,1.114-16.939Z" transform="translate(-232.273 -143.194)"/><path class="a" d="M94.83,229.518a8.82,8.82,0,0,1-4.511-13.129l-.12.759a.9.9,0,0,0,.752,1.028.918.918,0,0,0,.139.011.9.9,0,0,0,.889-.764l.565-3.652a.9.9,0,0,0-1.061-1.022l-3.629.7a.9.9,0,0,0,.341,1.77l.849-.163a10.621,10.621,0,0,0,5.187,16.165.9.9,0,1,0,.6-1.7Z" transform="translate(0 -138.607)"/><path class="a" d="M181.45,366.512h-1.545l1.13-1.1a3.079,3.079,0,0,0,.778-3.3c-.24-.669-.581-1.993-.907-3.272a27.151,27.151,0,0,0-1.049-3.6c-1.049-2.2-4.24-2.774-5.193-2.9h-.028a39.328,39.328,0,0,0-8.042,0h-.017c-.954.12-4.145.7-5.193,2.9a25.409,25.409,0,0,0-1.013,3.549c-.32,1.289-.65,2.621-.9,3.3a3.069,3.069,0,0,0,.829,3.346l1.167,1.081h-1.511a.9.9,0,0,0,0,1.8H181.45a.9.9,0,0,0,0-1.8Zm-16.831,0-.607-7.251H177.4l-.6,7.251Zm15.5-3.779a1.282,1.282,0,0,1-.326,1.374l-.011.01-1.072,1.042.481-5.74c.345,1.335.666,2.585.932,3.315Zm-7.643-8.747a3.244,3.244,0,0,1-3.681-.008q1.792-.084,3.686.008Zm-5.853.175a4.781,4.781,0,0,0,8.049,0c2.126.324,3.244,1.188,3.563,1.85a12.365,12.365,0,0,1,.469,1.514.92.92,0,0,0-.323-.061H163.033a.911.911,0,0,0-.506.156,14.149,14.149,0,0,1,.481-1.6C163.33,355.348,164.465,354.477,166.621,354.161Zm-5.449,8.544c.279-.764.621-2.144.953-3.484l.059-.24.52,6.208-1.175-1.09-.01-.01a1.276,1.276,0,0,1-.35-1.389Z" transform="translate(-63.319 -261.263)"/><path class="a" d="M244.235,452.06H242.6a.9.9,0,1,0,0,1.8h1.634a.9.9,0,0,0,0-1.8Z" transform="translate(-136.031 -349.184)"/><path class="a" d="M249.568,435.506a.878.878,0,1,0-.878-.878A.878.878,0,0,0,249.568,435.506Z" transform="translate(-142.181 -333.074)"/><path class="a" d="M223.584,272.085a1.544,1.544,0,0,1-1.879-.626.9.9,0,0,0-.712-.35h-.016a.9.9,0,0,0-.715.375,2.727,2.727,0,0,1-3.76,1.061.9.9,0,0,0-1.241.686,6.437,6.437,0,0,0-.1,1.015c0,3.075,2.075,6.516,4.852,6.516s4.852-3.441,4.852-6.516a6.279,6.279,0,0,0-.2-1.494A.9.9,0,0,0,223.584,272.085Zm-3.578,6.875c-1.442,0-2.9-2.153-3.039-4.373a4.164,4.164,0,0,0,4.085-1.246,3.048,3.048,0,0,0,1.993.626c.008.095.012.187.012.279C223.056,276.581,221.517,278.961,220.006,278.961Z" transform="translate(-112.679 -189.972)"/><path class="a" d="M184.493,254.294a.9.9,0,0,0,1.258-.2,9.531,9.531,0,0,0,1.562-4.964c.126-5.1,1.834-7.471,5.376-7.471s5.251,2.374,5.376,7.471a9.531,9.531,0,0,0,1.562,4.964.9.9,0,0,0,1.462-1.054,7.833,7.833,0,0,1-1.227-3.955,13.952,13.952,0,0,0-1.081-5.526,6.861,6.861,0,0,0-12.186,0,13.813,13.813,0,0,0-1.081,5.526,7.809,7.809,0,0,1-1.225,3.952A.9.9,0,0,0,184.493,254.294Z" transform="translate(-85.366 -162.467)"/></g></svg>