<svg xmlns="http://www.w3.org/2000/svg" width="41.993" height="42" viewBox="0 0 41.993 42"><defs><style>.a{fill:#b7202e;}</style></defs><g transform="translate(-0.038 0.011)"><path class="a" d="M108.25,80.111a.7.7,0,0,0,.7.7h5.6a.7.7,0,0,0,.7-.7v-5.6a3.5,3.5,0,0,0-2.6-3.367,4.2,4.2,0,1,0-6,0,3.5,3.5,0,0,0-2.6,3.367v2.406a.7.7,0,0,0,1.4,0V74.512a2.1,2.1,0,0,1,2.1-2.1h4.2a2.1,2.1,0,0,1,2.1,2.1v4.9h-4.9A.7.7,0,0,0,108.25,80.111Zm1.4-14.7a2.8,2.8,0,1,1-2.8,2.8A2.8,2.8,0,0,1,109.65,65.414Zm0,0" transform="translate(-94.913 -58.419)"/><path class="a" d="M170.151,185.47a.7.7,0,1,0,0-1.4h-1.4a.7.7,0,1,0,0,1.4Zm0,0" transform="translate(-153.315 -167.977)"/><path class="a" d="M41.416,35.435,33,27.022a2.154,2.154,0,0,0-2.379-.4l-3.709-3.709A14.7,14.7,0,1,0,5.4,26.035a.7.7,0,0,0,.89-1.081,13.313,13.313,0,1,1,19.048-2.262c-.168.222-.339.442-.52.652-.015.019-.033.036-.049.055a13.268,13.268,0,0,1-1.315,1.315c-.022.019-.042.04-.064.059q-.315.268-.643.513a13.215,13.215,0,0,1-8.006,2.7c-.222,0-.442-.011-.661-.023a.7.7,0,1,0-.077,1.4c.246.013.49.025.738.025a14.614,14.614,0,0,0,8.219-2.52l4.109,4.109a.7.7,0,0,0,.99,0l2.969-2.969a.719.719,0,0,1,.99,0l8.412,8.414a.7.7,0,0,1,0,.989l-2.969,2.97a.7.7,0,0,1-.99,0l-5.513-5.513a.7.7,0,0,0-.99.99l5.513,5.513a2.1,2.1,0,0,0,2.97,0l2.969-2.969a2.1,2.1,0,0,0,0-2.969ZM26.066,24.044l3.472,3.472L27.559,29.5l-3.473-3.473A14.821,14.821,0,0,0,26.066,24.044Zm0,0" transform="translate(0 0)"/><path class="a" d="M160.751,142.065a.7.7,0,0,0,0,1.4,11.86,11.86,0,0,0,11.509-14.872.7.7,0,0,0-1.356.35,10.458,10.458,0,0,1-10.153,13.122Zm0,0" transform="translate(-146.014 -116.874)"/><path class="a" d="M49.7,33.508A11.89,11.89,0,0,0,36,52.759a.7.7,0,1,0,.935-1.041A10.491,10.491,0,0,1,49.02,34.733a.7.7,0,0,0,.678-1.225Zm0,0" transform="translate(-29.205 -29.225)"/><path class="a" d="M64.751,424.07a.7.7,0,1,0,0,1.4h4.2a.7.7,0,1,0,0-1.4Zm0,0" transform="translate(-58.412 -386.981)"/><path class="a" d="M41.547,249.843h-7.7v-9.1a.7.7,0,0,0-1.307-.35l-5.4,9.448h-.994a2.1,2.1,0,0,0-2.1,2.1v7a2.1,2.1,0,0,0,2.1,2.1h15.4a2.1,2.1,0,0,0,2.1-2.1v-1.4a.7.7,0,1,0-1.4,0v1.4a.7.7,0,0,1-.7.7h-15.4a.7.7,0,0,1-.7-.7v-7a.7.7,0,0,1,.7-.7h1.4a.7.7,0,0,0,.608-.35l4.291-7.512v7.162a.7.7,0,0,0,.7.7h8.4a.7.7,0,0,1,.7.7v1.4a.7.7,0,0,0,1.4,0v-1.4a2.1,2.1,0,0,0-2.1-2.1Zm0,0" transform="translate(-21.912 -219.053)"/><path class="a" d="M86.35,392.77a.7.7,0,0,0-.7-.7h-4.9a.7.7,0,0,0,0,1.4h4.9A.7.7,0,0,0,86.35,392.77Zm0,0" transform="translate(-73.013 -357.781)"/><path class="a" d="M172.25,392.77a.7.7,0,0,0-.7-.7h-2.8a.7.7,0,0,0,0,1.4h2.8A.7.7,0,0,0,172.25,392.77Zm0,0" transform="translate(-153.315 -357.781)"/><path class="a" d="M144.751,425.47h2.8a.7.7,0,1,0,0-1.4h-2.8a.7.7,0,1,0,0,1.4Zm0,0" transform="translate(-131.414 -386.981)"/><path class="a" d="M344.751,49.47h6.3a.7.7,0,0,0,0-1.4h-6.3a.7.7,0,1,0,0,1.4Zm0,0" transform="translate(-313.918 -43.875)"/><path class="a" d="M344.751,89.47h6.3a.7.7,0,0,0,0-1.4h-6.3a.7.7,0,1,0,0,1.4Zm0,0" transform="translate(-313.918 -80.375)"/><path class="a" d="M380.25,128.07h-3.5a.7.7,0,0,0,0,1.4h3.5a.7.7,0,1,0,0-1.4Zm0,0" transform="translate(-343.118 -116.876)"/><path class="a" d="M380.25,168.07h-3.5a.7.7,0,0,0,0,1.4h3.5a.7.7,0,0,0,0-1.4Zm0,0" transform="translate(-343.118 -153.377)"/><path class="a" d="M360.751,202.869a.7.7,0,0,0,0,1.4h4.2a1.4,1.4,0,0,0,1.4-1.4v-1.4a1.4,1.4,0,0,0-1.4-1.4h-4.2a.7.7,0,0,0,0,1.4h4.2v1.4Zm0,0" transform="translate(-328.518 -182.577)"/></g></svg>