<svg xmlns="http://www.w3.org/2000/svg" width="47.524" height="40.971" viewBox="0 0 47.524 40.971"><defs><style>.a{fill:#b7202e;}</style></defs><g transform="translate(-3 -11.997)"><rect class="a" width="2" height="1" transform="translate(12 26.966)"/><rect class="a" width="2" height="1" transform="translate(17 26.966)"/><rect class="a" width="2" height="1" transform="translate(35 26.966)"/><rect class="a" width="2" height="1" transform="translate(40 26.966)"/><path class="a" d="M47.255,38.351a4.88,4.88,0,0,0,.615-8.046,3.333,3.333,0,0,0,.2-1.1,3.278,3.278,0,0,0-2.458-3.171V17.776l1.639-.541v3.777h1.639V16.1a.831.831,0,0,0-.557-.778L38.5,12.041a.819.819,0,0,0-.524,0l-9.833,3.278a.819.819,0,0,0,0,1.557l2.72.9v8.259A3.278,3.278,0,0,0,28.4,29.206a3.333,3.333,0,0,0,.2,1.1,4.88,4.88,0,0,0,.615,8.046,7.31,7.31,0,0,0-2.45,2.745,7.392,7.392,0,0,0-4.031-3.572l-4.162-1.516v-1.95a6.6,6.6,0,0,0,3.064-4.031h.213a2.458,2.458,0,1,0,0-4.916V18.055l2.458-.819v3.777h1.639V16.1a.831.831,0,0,0-.557-.778l-9.833-3.278a.819.819,0,0,0-.524,0L5.2,15.318a.819.819,0,0,0,0,1.557l3.54,1.18V25.11a2.458,2.458,0,1,0,0,4.916h.213a6.6,6.6,0,0,0,3.064,4.031v1.95L7.851,37.523A7.383,7.383,0,0,0,3,44.447v7.7a.819.819,0,0,0,.819.819H49.7a.819.819,0,0,0,.819-.819v-7.7a7.374,7.374,0,0,0-3.269-6.1ZM8.736,28.387a.819.819,0,1,1,0-1.639Zm10.586,9.636-.885,1.36L16.946,37.9l.852-.426Zm.885-13.757A1.646,1.646,0,0,1,18.9,23.053l-.1-.4h1.409Zm0-3.253H10.374V18.6l4.654,1.557a.86.86,0,0,0,.524,0L20.207,18.6Zm-3.425,1.639a2.466,2.466,0,0,1-2.311,1.639h-4.1V22.651Zm5.883,4.916a.819.819,0,0,1-.819.819V26.748A.819.819,0,0,1,22.665,27.568ZM8.047,16.1l7.243-2.417L22.534,16.1l-7.243,2.417Zm2.327,12.291V25.929h4.1a4.107,4.107,0,0,0,3.22-1.565,3.269,3.269,0,0,0,2.515,1.549v2.475a4.916,4.916,0,0,1-9.833,0Zm6.555,6.342v1.344l-1.016.508H14.668l-1.016-.508V34.729a6.409,6.409,0,0,0,3.278,0Zm-4.146,2.745.852.426-1.491,1.483-.885-1.36ZM14.471,51.33H4.639V44.447a5.76,5.76,0,0,1,3.777-5.392L9.678,38.6l1.647,2.532a.832.832,0,0,0,.606.361.279.279,0,0,0,.082.008.825.825,0,0,0,.582-.238l.041-.049,1.835,2.974Zm-.639-11.307,1.458-1.467,1.458,1.467L15.291,42.39ZM25.943,51.33H16.11V44.185l1.835-2.974.041.049a.825.825,0,0,0,.582.238.279.279,0,0,0,.082-.008.832.832,0,0,0,.606-.361L20.9,38.6l1.262.459a5.76,5.76,0,0,1,3.777,5.392ZM46.427,29.206a1.521,1.521,0,0,1-.041.279,5.284,5.284,0,0,0-.615-.18l-.328,1.606a3.271,3.271,0,0,1-.221,6.449l-3.712-1.352v-1.95a6.559,6.559,0,0,0,3.278-5.67v-.819A1.644,1.644,0,0,1,46.427,29.206Zm-6.014,8.145.574.2a6.042,6.042,0,0,1-5.506,0l.574-.2a.813.813,0,0,0,.541-.77V34.729a6.409,6.409,0,0,0,3.278,0v1.852A.813.813,0,0,0,40.413,37.351ZM38.233,33.3a4.916,4.916,0,0,1-4.916-4.916V25.929H35.66A4.086,4.086,0,0,0,39.069,24.1l.115-.164.787.795a4.092,4.092,0,0,0,2.9,1.2h.279v2.458A4.916,4.916,0,0,1,38.233,33.3ZM32.5,21.013V18.325l5.473,1.827a.86.86,0,0,0,.524,0l5.473-1.827v2.688Zm11.471,1.639V24.29h-1.1a2.422,2.422,0,0,1-1.737-.721l-.926-.918Zm-5.9,0-.361.541a2.463,2.463,0,0,1-2.048,1.1H32.5V22.651Zm.164-8.972L45.477,16.1l-7.243,2.417L30.99,16.1ZM28.4,34.123a3.288,3.288,0,0,1,2.614-3.212L30.687,29.3a4.729,4.729,0,0,0-.606.18,1.522,1.522,0,0,1-.041-.279,1.644,1.644,0,0,1,1.639-1.639v.819a6.559,6.559,0,0,0,3.278,5.67v1.95l-3.712,1.352A3.283,3.283,0,0,1,28.4,34.123ZM37.414,51.33H27.581V44.447a5.76,5.76,0,0,1,3.777-5.392l1.712-.623,4.343,5.793ZM35.931,39.514a7.874,7.874,0,0,0,4.6,0l-2.3,3.073ZM48.885,51.33H39.053v-7.1L43.4,38.433l1.713.623a5.76,5.76,0,0,1,3.777,5.392Z" transform="translate(0 0)"/></g></svg>