<svg xmlns="http://www.w3.org/2000/svg" xmlns:xlink="http://www.w3.org/1999/xlink" width="45.239" height="34.683" viewBox="0 0 45.239 34.683"><defs><style>.a{fill:#b7202e;}.b{clip-path:url(#a);}</style><clipPath id="a"><rect class="a" width="45.239" height="34.683"/></clipPath></defs><g class="b"><path class="a" d="M45.018,24.88l-9.36-9.36a2.244,2.244,0,0,0-1.6-.663H21.112v1.508h3.77V27.674h1.508V16.365h7.669a.752.752,0,0,1,.533.221l1.287,1.287H32.421a1.508,1.508,0,0,0-1.508,1.508v6.786a1.508,1.508,0,0,0,1.508,1.508h11.31v6.032a.754.754,0,0,1-.755.754H41.409a5.271,5.271,0,0,0-10.435,0H20.3a5.271,5.271,0,0,0-10.435,0H8.294a.754.754,0,0,1-.754-.754V26.92H6.032v6.786a2.262,2.262,0,0,0,2.262,2.262H9.863a5.258,5.258,0,0,0,1.531,3.016H0v1.508H36.191a5.282,5.282,0,0,0,5.218-4.524h1.568a2.262,2.262,0,0,0,2.262-2.262V25.413a.754.754,0,0,0-.221-.533M11.309,35.214a3.77,3.77,0,1,1,3.77,3.77,3.77,3.77,0,0,1-3.77-3.77m7.456,3.77A5.263,5.263,0,0,0,20.3,35.968H30.974a5.259,5.259,0,0,0,1.532,3.016Zm17.425,0a3.77,3.77,0,1,1,3.77-3.77,3.77,3.77,0,0,1-3.77,3.77m-3.77-12.818V19.381h4.966l6.344,6.344v.442Z" transform="translate(0 -5.809)"/><rect class="a" width="1.508" height="1.508" transform="translate(14.326 28.651)"/><rect class="a" width="1.508" height="1.508" transform="translate(35.437 28.651)"/><rect class="a" width="3.77" height="1.508" transform="translate(0 26.389)"/><rect class="a" width="2.262" height="1.508" transform="translate(1.508 23.373)"/><rect class="a" width="1.508" height="1.508" transform="translate(2.262 20.357)"/><path class="a" d="M9.8,19.6A9.8,9.8,0,1,0,0,9.8a9.8,9.8,0,0,0,9.8,9.8m0-18.1A8.294,8.294,0,1,1,1.508,9.8,8.294,8.294,0,0,1,9.8,1.508" transform="translate(0 0)"/><rect class="a" width="3.016" height="1.508" transform="translate(28.651 23.373)"/><path class="a" d="M15.568,7.411a.854.854,0,1,0,.854.854.854.854,0,0,0-.854-.854" transform="translate(-5.753 -2.898)"/><path class="a" d="M14.384,10.789a.594.594,0,0,0-.336-.49.541.541,0,0,0-.484.012l-2.278,1.138a.564.564,0,0,0-.314.507v2.278a.57.57,0,0,0,1.139,0V12.309l1.139-.569v.837a3.082,3.082,0,0,1,1.138.461v-2.22Z" transform="translate(-4.291 -4.007)"/><path class="a" d="M20.726,19.761l-1.139-3.416a.568.568,0,0,0-.558-.456H17.743a3.138,3.138,0,0,1,.6,1.139h.222l1.047,2.961a.567.567,0,0,0,.672.445.573.573,0,0,0,.444-.672" transform="translate(-6.938 -6.213)"/><path class="a" d="M12.133,14.954v1.139a1.436,1.436,0,1,1-1.424,1.449,1.465,1.465,0,0,1,.038-.341,1.15,1.15,0,0,1-.875-.9,2.621,2.621,0,0,0-.3,1.219,2.563,2.563,0,1,0,2.563-2.563" transform="translate(-3.742 -5.847)"/></g></svg>