<svg xmlns="http://www.w3.org/2000/svg" width="44.483" height="46.002" viewBox="0 0 44.483 46.002"><defs><style>.a{fill:#b7202e;}</style></defs><g transform="translate(-2.052 -1.036)"><g transform="translate(2.052 1.036)"><path class="a" d="M17.166,32.893c.144-.431.431-1.149,1.005-2.585l.072-.144,1.436,1.652a2.418,2.418,0,0,0,1.867.862h7.037A2.544,2.544,0,0,0,31.1,30.164a2.424,2.424,0,0,0-1.58-2.3c0-.072,3.662-8.114,3.662-8.042a9.12,9.12,0,0,0,2.441.359,9.577,9.577,0,1,0-6.175-2.3L28.8,19.393H16.448a4.221,4.221,0,0,0-4.093,2.657L9.411,29.518l-.215.646L2.589,38.422a2.571,2.571,0,0,0,.359,3.519,2.5,2.5,0,0,0,3.519-.359l5.242-6.606c.574.431,3.734,2.944,5.314,4.165v5.386a2.513,2.513,0,0,0,5.027,0V37.991a2.524,2.524,0,0,0-.933-1.939ZM28.153,7.257a8.148,8.148,0,1,1,7.4,11.489A8.149,8.149,0,0,1,28.153,7.257Zm3.662,12.135c-5.17,11.417-3.375,7.468-3.806,8.33H26.5l1.652-3.59.072-.215h0l2.3-5.17A10.487,10.487,0,0,0,31.815,19.393Zm-9.12,8.33L20.254,24.85a1.827,1.827,0,0,0,.144-.5h6.032l-1.58,3.375ZM5.39,40.648a1.105,1.105,0,0,1-1.508.144,1.024,1.024,0,0,1-.144-1.436l5.745-7.109A6.455,6.455,0,0,0,10.7,34.113Zm15.223,3.806a1.077,1.077,0,1,1-2.154,0V38.781a.653.653,0,0,0-.287-.574L12.5,33.754c-1.149-.79-2.3-2.226-1.723-3.734l2.944-7.468a3.013,3.013,0,0,1,2.872-1.8H28.081l-.933,2.154H19.895c-.646,0-.646.574-.79.933-.287.79-.5,1.221-.144,1.652l2.944,3.447a.886.886,0,0,0,.574.287h6.1a1.077,1.077,0,0,1,0,2.154H21.546a1.153,1.153,0,0,1-.79-.359L18.6,28.3a.719.719,0,0,0-1.221.215c-.862,2.226-1.58,4.093-1.652,4.165a.681.681,0,0,0,.144.933l4.308,3.447a1.153,1.153,0,0,1,.359.79v6.606Z" transform="translate(-2.052 -1.036)"/></g><g transform="translate(14.651 8.119)"><path class="a" d="M24.554,20.809A4.955,4.955,0,1,0,19.6,15.855,4.875,4.875,0,0,0,24.554,20.809Zm0-8.545a3.519,3.519,0,1,1-3.519,3.519A3.435,3.435,0,0,1,24.554,12.264Z" transform="translate(-19.598 -10.9)"/></g><g transform="translate(37.073 5.048)"><path class="a" d="M51.237,7.971a4.6,4.6,0,0,1,2.3,6.1.707.707,0,1,0,1.293.574,6.026,6.026,0,0,0-3.016-7.971.707.707,0,0,0-.574,1.293Z" transform="translate(-50.823 -6.623)"/></g><g transform="translate(23.054 28.8)"><path class="a" d="M53.991,39.7H47.026a.678.678,0,0,0-.718.718V48.1H38.7a.678.678,0,0,0-.718.718v7.612h-5.96a.718.718,0,1,0,0,1.436H38.7a.678.678,0,0,0,.718-.718V49.466H47.1a.678.678,0,0,0,.718-.718h0V41.136h6.247a.678.678,0,0,0,.718-.718A.783.783,0,0,0,53.991,39.7Z" transform="translate(-31.3 -39.7)"/></g></g></svg>