<svg xmlns="http://www.w3.org/2000/svg" width="44.41" height="44.326" viewBox="0 0 44.41 44.326"><defs><style>.a{fill:#b7202e;}</style></defs><g transform="translate(0 -0.48)"><path class="a" d="M385.773,298.829a.65.65,0,0,0-.651.651v.864a.651.651,0,1,0,1.3,0v-.864A.65.65,0,0,0,385.773,298.829Z" transform="translate(-351.717 -272.471)"/><path class="a" d="M445.265,298.829a.65.65,0,0,0-.651.651v.864a.651.651,0,1,0,1.3,0v-.864A.65.65,0,0,0,445.265,298.829Z" transform="translate(-406.049 -272.471)"/><path class="a" d="M53.5,300.343v-.864a.651.651,0,1,0-1.3,0v.864a.651.651,0,1,0,1.3,0Z" transform="translate(-47.67 -272.471)"/><path class="a" d="M112.342,300.994a.651.651,0,0,0,.651-.651v-.864a.651.651,0,1,0-1.3,0v.864A.651.651,0,0,0,112.342,300.994Z" transform="translate(-102.003 -272.471)"/><path class="a" d="M209,286.008a.65.65,0,0,0,.651-.651v-1.1a.651.651,0,1,0-1.3,0v1.1A.65.65,0,0,0,209,286.008Z" transform="translate(-190.28 -258.565)"/><path class="a" d="M285.077,286.008a.65.65,0,0,0,.651-.651v-1.1a.651.651,0,1,0-1.3,0v1.1A.65.65,0,0,0,285.077,286.008Z" transform="translate(-259.756 -258.565)"/><path class="a" d="M231.925,324.764a2.036,2.036,0,0,0,2.086-1.976.651.651,0,1,0-1.3,0,.794.794,0,0,1-1.57,0,.651.651,0,1,0-1.3,0A2.035,2.035,0,0,0,231.925,324.764Z" transform="translate(-209.903 -293.757)"/><path class="a" d="M217.173,63.988a3.487,3.487,0,1,0,3.487,3.487A3.491,3.491,0,0,0,217.173,63.988Zm0,5.673a2.186,2.186,0,1,1,2.186-2.186A2.188,2.188,0,0,1,217.173,69.661Z" transform="translate(-195.151 -58)"/><path class="a" d="M41.386,34.359h-.544l-1.366-.742v-.426a5.906,5.906,0,0,0,2.908-3.733,2.438,2.438,0,0,0,1.407-3.969.648.648,0,0,0,.041-.226V22.023a4.622,4.622,0,0,0-4.617-4.617h-4.3a2.884,2.884,0,0,0-2.248,1.077,3.61,3.61,0,0,0-2.1.977v-.038a5.778,5.778,0,0,0-1.684-4.091l.31-.31a1.286,1.286,0,0,0,0-1.819l-.636-.636q.151-.32.271-.652h.9a1.288,1.288,0,0,0,1.286-1.286v-2.3a1.288,1.288,0,0,0-1.286-1.286h-.9q-.119-.332-.271-.652l.636-.636a1.282,1.282,0,0,0,.376-.86.65.65,0,0,0-1.3-.056l-.968.968a.651.651,0,0,0-.107.778,5.908,5.908,0,0,1,.533,1.285.65.65,0,0,0,.626.474h1.359v2.275H28.358a.65.65,0,0,0-.626.474,5.9,5.9,0,0,1-.533,1.285.651.651,0,0,0,.107.778l.961.961-1.609,1.609-.961-.961a.651.651,0,0,0-.778-.107,5.9,5.9,0,0,1-1.285.533.651.651,0,0,0-.474.626V17.17H20.884V15.811a.651.651,0,0,0-.474-.626,5.894,5.894,0,0,1-1.285-.533.651.651,0,0,0-.778.107l-.961.961-1.609-1.609.961-.961a.65.65,0,0,0,.107-.778,5.906,5.906,0,0,1-.533-1.285.651.651,0,0,0-.626-.474H14.327V8.338h1.359a.651.651,0,0,0,.626-.474,5.9,5.9,0,0,1,.533-1.285.65.65,0,0,0-.107-.778l-.961-.961L17.385,3.23l.961.961a.651.651,0,0,0,.778.107,5.9,5.9,0,0,1,1.285-.533.65.65,0,0,0,.474-.626V1.781h2.275V3.14a.65.65,0,0,0,.474.626,5.891,5.891,0,0,1,1.285.533.651.651,0,0,0,.778-.107l.965-.964a.651.651,0,0,0,.568-1.17,1.292,1.292,0,0,0-.571-.134h0a1.278,1.278,0,0,0-.91.377l-.636.636q-.32-.151-.652-.271v-.9A1.288,1.288,0,0,0,23.174.48h-2.3a1.288,1.288,0,0,0-1.286,1.286v.9q-.332.119-.652.271L18.295,2.3a1.286,1.286,0,0,0-1.819,0l-1.63,1.63a1.286,1.286,0,0,0,0,1.819l.636.636q-.151.32-.271.652h-.9a1.288,1.288,0,0,0-1.286,1.286v2.3a1.288,1.288,0,0,0,1.286,1.286h.9q.119.332.271.652l-.636.636a1.286,1.286,0,0,0,0,1.819l.31.31a5.772,5.772,0,0,0-1.676,3.84,3.6,3.6,0,0,0-1.752-.689,2.87,2.87,0,0,0-2.25-1.077h-4.3A4.622,4.622,0,0,0,.562,22.023v3.241A.649.649,0,0,0,.6,25.49a2.438,2.438,0,0,0,1.407,3.969,5.906,5.906,0,0,0,2.908,3.733v.426l-1.366.742H3.023A3.027,3.027,0,0,0,0,37.382v4.069a.651.651,0,0,0,.651.651H12.282v2.054a.651.651,0,0,0,.651.651h1.94a.651.651,0,0,0,0-1.3h-1.29V38.953a2.386,2.386,0,0,1,1.286-2.114,3.312,3.312,0,0,1,1.769-.269L19.8,38.93a.659.659,0,0,0,.38.129l.255,1-.678,3.449H17.909a.651.651,0,0,0,0,1.3H31.131a.65.65,0,0,0,.651-.651V42.1H43.759a.65.65,0,0,0,.651-.651V37.382a3.027,3.027,0,0,0-3.023-3.023Zm-9.486,0a3.03,3.03,0,0,0-2.4,1.187,3.664,3.664,0,0,0-1.4-.278h-.742l-1.882-1.023v-.77a7.419,7.419,0,0,0,3.752-4.814c.081-.012.161-.028.24-.047a2.415,2.415,0,0,0,1.422.844,5.906,5.906,0,0,0,2.908,3.732v.426l-1.366.742Zm-18.282-8.61a1.647,1.647,0,0,1,1.566-1.642H19.13a3.541,3.541,0,0,0,2.892-1.5,3.541,3.541,0,0,0,2.892,1.5H28.86a1.644,1.644,0,0,1-.146,3.285.652.652,0,0,0-.667.543,6.088,6.088,0,0,1-6.024,5.093h0A6.09,6.09,0,0,1,16,27.935a.651.651,0,0,0-.667-.543,1.651,1.651,0,0,1-1.712-1.643ZM23.028,36.61l1.828-1.219L25.985,36l-2.064,1.538-.893-.933Zm-1.007-2.281a7.472,7.472,0,0,0,2.15-.318v.273l-2.15,1.433-2.15-1.433v-.273A7.461,7.461,0,0,0,22.022,34.329Zm-2.835,1.063,1.828,1.219-.893.933L18.058,36Zm2.119,2.8.716-.747.716.747-.306,1.2h-.82Zm15.329-4.279a6.044,6.044,0,0,0,1.415-.169l-1.415.943-1.415-.943A6,6,0,0,0,36.635,33.908ZM33.8,35.1l.613-.333,1.218.812-.495.517Zm2.434,1.729.4-.421.4.421-.193.755h-.421Zm1.41-1.251,1.218-.812.613.333-1.336,1ZM41.921,28.2h-.047a.652.652,0,0,0-.668.543,4.636,4.636,0,0,1-9.143,0A.651.651,0,0,0,31.4,28.2a1.133,1.133,0,0,1-.707-.208,2.949,2.949,0,0,0,1.036-2.153l.01-.006c.32-.176.323-.457.373-.685a4.546,4.546,0,0,1,.388-1.091,3.657,3.657,0,0,0,3.178,1.857H41.95a1.144,1.144,0,0,1-.029,2.287Zm-7.006-9.494h4.3a3.32,3.32,0,0,1,3.316,3.316v2.59H35.673a2.367,2.367,0,0,1-.8-.141l-.009,0a2.35,2.35,0,0,1-1.536-2.2V20.294a1.59,1.59,0,0,1,1.587-1.587ZM32.042,20c-.024.239-.016,2.313-.013,2.4a5.985,5.985,0,0,0-.912,1.553,2.94,2.94,0,0,0-.377-.4V22.079A2.327,2.327,0,0,1,32.042,20ZM16.075,16.251c.405.405.681.777,1.31.777H17.4c.656-.008.96-.442,1.53-1.013q.32.151.652.271v.9a1.288,1.288,0,0,0,1.286,1.286h2.3a1.288,1.288,0,0,0,1.286-1.286v-.9q.332-.119.652-.271c.65.65.769.821,1.133.944a1.281,1.281,0,0,0,1.322-.308l.4-.4a4.487,4.487,0,0,1,1.3,3.171v3.384H24.913a2.244,2.244,0,0,1-2.241-2.223v-.018h0a.651.651,0,1,0-1.3,0,2.244,2.244,0,0,1-2.241,2.241H14.955v-.727a3.576,3.576,0,0,0-.181-1.124V19.422a4.487,4.487,0,0,1,1.3-3.171ZM1.863,22.023a3.32,3.32,0,0,1,3.316-3.316h4.3a1.58,1.58,0,0,1,1.348.749.65.65,0,0,0,.543.306,2.328,2.328,0,0,1,2.1,1.423v2.222a2.936,2.936,0,0,0-.93,1.206,1.48,1.48,0,0,1-1.315-.519.651.651,0,0,0-.943-.079,2.341,2.341,0,0,1-1.565.6H1.863v-2.59Zm1.324,6.72a.651.651,0,0,0-.641-.543H2.472a1.144,1.144,0,0,1-.029-2.287H8.72a3.64,3.64,0,0,0,1.943-.561,2.66,2.66,0,0,0,1.658.561A2.948,2.948,0,0,0,13.5,28.106a1.141,1.141,0,0,1-.5.093.651.651,0,0,0-.668.543,4.636,4.636,0,0,1-9.143,0ZM4.921,35.1l.613-.333,1.218.812-.495.517Zm1.422-1.357a5.992,5.992,0,0,0,2.83,0l-1.415.943Zm1.012,3.086.4-.421.4.421-.193.755H7.548Zm1.9-.734-.495-.517,1.218-.812.613.333ZM1.3,37.382A1.724,1.724,0,0,1,3.023,35.66H3.5L5.94,37.478a.678.678,0,0,0,.269.118l.167.653-.5,2.552H1.3ZM7.2,40.8l.377-1.92h.361l.377,1.92Zm2.441,0-.5-2.551.167-.654a.676.676,0,0,0,.269-.118l2.439-1.818h.494a1.722,1.722,0,0,1,1.138.429,3.676,3.676,0,0,0-1.365,2.863V40.8H9.642Zm5.191-5.353a3.022,3.022,0,0,0-2.323-1.089h-.544L10.6,33.617v-.426a5.906,5.906,0,0,0,2.908-3.733,2.457,2.457,0,0,0,1.327-.738,7.416,7.416,0,0,0,3.736,4.756v.77l-1.882,1.023a5.263,5.263,0,0,0-1.856.18Zm6.256,8.057.553-2.817h.76l.553,2.817Zm9.392,0h-6.2L23.6,40.056l.255-1a.659.659,0,0,0,.38-.129l3.167-2.36H28.1a2.387,2.387,0,0,1,2.383,2.383v4.553Zm1.3-4.553a3.675,3.675,0,0,0-1.179-2.7,2.021,2.021,0,0,1,1.776-.591l2.439,1.818a.676.676,0,0,0,.269.118l.167.653-.5,2.552h-2.97Zm4.3,1.848.377-1.92h.361l.377,1.92Zm7.031,0h-4.59l-.5-2.551.167-.653a.677.677,0,0,0,.269-.118l2.439-1.818h.494a1.724,1.724,0,0,1,1.722,1.722V40.8Z" transform="translate(0 0)"/></g></svg>