<svg xmlns="http://www.w3.org/2000/svg" width="41.054" height="41.054" viewBox="0 0 41.054 41.054"><defs><style>.a{fill:#b7202e;}</style></defs><g transform="translate(-2 -2)"><path class="a" d="M29.474,12.948a5.474,5.474,0,1,1,5.474-5.474A5.48,5.48,0,0,1,29.474,12.948Zm0-9.579a4.105,4.105,0,1,0,4.105,4.105A4.11,4.11,0,0,0,29.474,3.368Z" transform="translate(-6.947)"/><path class="a" d="M30.145,10.882a.682.682,0,0,1-.484-.2L28.293,9.313l.968-.968.885.885,2.937-2.937.968.968-3.421,3.421A.682.682,0,0,1,30.145,10.882Z" transform="translate(-8.302 -1.356)"/><path class="a" d="M42.37,16.039H6.79V11.25A2.059,2.059,0,0,1,8.842,9.2H14.72l-1.574,1.567.972.972L16.855,9a.694.694,0,0,0,0-.972L14.118,5.29l-.972.972L14.72,7.829H8.842A3.422,3.422,0,0,0,5.421,11.25v4.79H2.684A.686.686,0,0,0,2,16.724V31.092a.686.686,0,0,0,.684.684H9.6a2.619,2.619,0,0,0,2.552,2.053.744.744,0,0,0,.123-.007.744.744,0,0,0-.007.123,2.625,2.625,0,0,0,2.621,2.621.744.744,0,0,0,.123-.007.744.744,0,0,0-.007.123A2.625,2.625,0,0,0,17.621,39.3a.744.744,0,0,0,.123-.007.744.744,0,0,0-.007.123A2.623,2.623,0,0,0,22.185,41.3l2.025,2.025a2.656,2.656,0,0,0,1.854.766,2.616,2.616,0,0,0,2.621-2.621.744.744,0,0,0-.007-.123.744.744,0,0,0,.123.007,2.625,2.625,0,0,0,2.621-2.621.744.744,0,0,0-.007-.123.744.744,0,0,0,.123.007A2.625,2.625,0,0,0,34.159,36a.744.744,0,0,0-.007-.123.744.744,0,0,0,.123.007,2.624,2.624,0,0,0,2.162-4.105H42.37a.686.686,0,0,0,.684-.684V16.724A.686.686,0,0,0,42.37,16.039ZM13.03,32.091a1.22,1.22,0,0,1-.883.369A1.253,1.253,0,0,1,10.9,31.209a1.22,1.22,0,0,1,.369-.883l2.97-2.97a1.22,1.22,0,0,1,.883-.369,1.253,1.253,0,0,1,1.252,1.252,1.22,1.22,0,0,1-.369.883Zm2.737,2.737a1.22,1.22,0,0,1-.883.369,1.253,1.253,0,0,1-1.252-1.252A1.22,1.22,0,0,1,14,33.063l2.97-2.97a1.22,1.22,0,0,1,.883-.369,1.253,1.253,0,0,1,1.252,1.252,1.22,1.22,0,0,1-.369.883ZM18.5,37.565a1.22,1.22,0,0,1-.883.369,1.253,1.253,0,0,1-1.252-1.252,1.22,1.22,0,0,1,.369-.883l2.97-2.97a1.22,1.22,0,0,1,.883-.369,1.253,1.253,0,0,1,1.252,1.252,1.22,1.22,0,0,1-.369.883ZM21.241,40.3a1.22,1.22,0,0,1-.883.369,1.253,1.253,0,0,1-1.252-1.252,1.22,1.22,0,0,1,.369-.883l2.97-2.97a1.22,1.22,0,0,1,.883-.369A1.253,1.253,0,0,1,24.58,36.45a1.22,1.22,0,0,1-.369.883Zm13.035-5.789a1.22,1.22,0,0,1-.883-.369l-1.485-1.485-.972.972,1.485,1.485a1.22,1.22,0,0,1,.369.883,1.253,1.253,0,0,1-1.252,1.252,1.22,1.22,0,0,1-.883-.369L29.171,35.4l-.972.972,1.485,1.485a1.22,1.22,0,0,1,.369.883A1.253,1.253,0,0,1,28.8,39.988a1.22,1.22,0,0,1-.883-.369l-1.485-1.485-.972.972,1.485,1.485a1.26,1.26,0,0,1,.369.883,1.22,1.22,0,0,1-.369.883,1.277,1.277,0,0,1-1.765,0L23.157,40.33,25.182,38.3a2.622,2.622,0,0,0-1.854-4.475.744.744,0,0,0-.123.007.744.744,0,0,0,.007-.123,2.625,2.625,0,0,0-2.621-2.621.744.744,0,0,0-.123.007.744.744,0,0,0,.007-.123,2.625,2.625,0,0,0-2.621-2.621.744.744,0,0,0-.123.007.744.744,0,0,0,.007-.123,2.622,2.622,0,0,0-4.475-1.854l-2.97,2.97a2.759,2.759,0,0,0-.643,1.054H3.368v-13H16.424a4.786,4.786,0,0,0,4.735,4.105H24.3L35.158,32.379a1.22,1.22,0,0,1,.369.883,1.253,1.253,0,0,1-1.252,1.252Zm7.41-4.105H35.124L25.066,20.343a.707.707,0,0,0-.486-.2H21.159a3.427,3.427,0,0,1-3.353-2.737h23.88Z" transform="translate(0 -1.039)"/><path class="a" d="M42,9h1.368v1.368H42Z" transform="translate(-12.631 -2.21)"/><path class="a" d="M46,9h1.368v1.368H46Z" transform="translate(-13.894 -2.21)"/><path class="a" d="M50,9h1.368v1.368H50Z" transform="translate(-15.157 -2.21)"/></g></svg>