<svg xmlns="http://www.w3.org/2000/svg" width="34.303" height="42.99" viewBox="0 0 34.303 42.99"><defs><style>.a{fill:#b7202e;}</style></defs><g transform="translate(-51.733)"><g transform="translate(51.733)"><g transform="translate(0)"><path class="a" d="M176.594,208.651h-20a.63.63,0,1,0,0,1.26h20a.63.63,0,0,0,0-1.26Z" transform="translate(-147.216 -191.132)"/><path class="a" d="M176.594,258.343h-20a.63.63,0,1,0,0,1.26h20a.63.63,0,1,0,0-1.26Z" transform="translate(-147.216 -236.651)"/><path class="a" d="M176.594,308.035h-20a.63.63,0,1,0,0,1.26h20a.63.63,0,0,0,0-1.26Z" transform="translate(-147.216 -282.171)"/><path class="a" d="M285.667,357.727h-10a.63.63,0,1,0,0,1.26h10a.63.63,0,1,0,0-1.26Z" transform="translate(-256.289 -327.69)"/><path class="a" d="M285.667,407.419h-10a.63.63,0,1,0,0,1.26h10a.63.63,0,1,0,0-1.26Z" transform="translate(-256.289 -373.21)"/><path class="a" d="M85.406,29.81a.63.63,0,0,0,.63-.63V3.8a2.077,2.077,0,0,0-2.074-2.074H57.534a3.051,3.051,0,0,0-5.8,1.322V39.918c0,.007,0,.014,0,.022h0a3.054,3.054,0,0,0,3.051,3.051H79.373a2.077,2.077,0,0,0,2.074-2.074V39.869h2.515a2.077,2.077,0,0,0,2.074-2.074V32.162a.63.63,0,1,0-1.26,0v5.633a.815.815,0,0,1-.814.814H57.835V3.051c0-.021,0-.042,0-.062H83.962a.815.815,0,0,1,.814.814V29.181a.63.63,0,0,0,.63.63ZM52.993,3.051a1.791,1.791,0,0,1,3.582,0V37.475a3.036,3.036,0,0,0-3.582,0ZM80.187,40.916a.815.815,0,0,1-.814.814H54.784A1.791,1.791,0,1,1,56.5,39.421a.63.63,0,0,0,.6.448H80.187Z" transform="translate(-51.733)"/><path class="a" d="M177.224,67.762a1.158,1.158,0,0,0-1.157-1.157H162.4a.63.63,0,1,0,0,1.26h13.565V74.92H157.228V67.865h2.226a.63.63,0,1,0,0-1.26h-2.329a1.158,1.158,0,0,0-1.157,1.157v7.261a1.158,1.158,0,0,0,1.157,1.157h18.942a1.158,1.158,0,0,0,1.157-1.157Z" transform="translate(-147.216 -61.012)"/><path class="a" d="M157.125,357.727a1.158,1.158,0,0,0-1.157,1.157V362a1.158,1.158,0,0,0,1.157,1.157h6.109A1.158,1.158,0,0,0,164.391,362v-3.118a1.158,1.158,0,0,0-1.157-1.157Zm6.006,4.172h-5.9v-2.913h5.9Z" transform="translate(-147.216 -327.69)"/></g></g></g></svg>