<svg xmlns="http://www.w3.org/2000/svg" width="41.869" height="41.869" viewBox="0 0 41.869 41.869"><defs><style>.a{fill:#b7202e;}</style></defs><path class="a" d="M39.981,6.869H31.4a.613.613,0,1,0,0,1.227h8.579a.662.662,0,0,1,.662.662V32.375a.662.662,0,0,1-.662.662H1.889a.662.662,0,0,1-.662-.662V8.758A.662.662,0,0,1,1.889,8.1H15.364V9.322H3.067a.613.613,0,0,0-.613.613V26.141a.613.613,0,0,0,1.227,0V10.549H15.364v3.29l-2.626,1.254a.618.618,0,0,0-.349.554v10a.614.614,0,0,0,.349.554l7.932,3.79a.622.622,0,0,0,.529,0l4.459-2.131a.613.613,0,1,0-.529-1.107l-3.582,1.711V19.824l6.706-3.2v8.643l-.911.435a.613.613,0,1,0,.529,1.107l1.26-.6a.614.614,0,0,0,.349-.554v-10a.617.617,0,0,0-.349-.554l-2.626-1.254v-3.29H38.189V30.584H3.68V28.758a.613.613,0,1,0-1.227,0V31.2a.613.613,0,0,0,.613.613H38.8a.613.613,0,0,0,.613-.613V9.936a.613.613,0,0,0-.613-.613h-12.3V8.1h2.279a.613.613,0,1,0,0-1.227H26.506V5.643H32a.613.613,0,0,0,.613-.613V3.574a1.84,1.84,0,1,0-1.227,0v.841h-5.5a.613.613,0,0,0-.613.613v1.84H21.548V3.574a1.84,1.84,0,1,0-1.227,0V6.869H16.59V5.029a.613.613,0,0,0-.613-.613h-5.5V3.574a1.84,1.84,0,1,0-1.227,0V5.029a.613.613,0,0,0,.613.613h5.5V6.869H1.889A1.891,1.891,0,0,0,0,8.758V32.375a1.891,1.891,0,0,0,1.889,1.889h13.3a5.845,5.845,0,0,1-2.194,3.925H10.386a1.84,1.84,0,0,0,0,3.68h21.1a1.84,1.84,0,1,0,0-3.68h-2.6a5.9,5.9,0,0,1-2.195-3.925h13.3a1.891,1.891,0,0,0,1.889-1.889V8.758A1.891,1.891,0,0,0,39.981,6.869ZM32,1.227a.613.613,0,1,1-.613.613A.614.614,0,0,1,32,1.227Zm-11.07,0a.613.613,0,1,1-.613.613A.614.614,0,0,1,20.935,1.227Zm-11.07,0a.613.613,0,1,1-.613.613A.614.614,0,0,1,9.864,1.227Zm6.726,9.322h3.731v.922L16.59,13.253Zm10.854,5.1-6.51,3.11-6.51-3.11,6.51-3.11Zm-13.828.973,6.706,3.2v8.643l-6.706-3.2Zm11.663-3.367-3.731-1.783v-.922h3.731Zm0-5.158V9.322H21.548V8.1Zm-4.958,0V9.322H16.59V8.1ZM32.1,40.029a.614.614,0,0,1-.613.613h-21.1a.613.613,0,0,1,0-1.227h21.1A.614.614,0,0,1,32.1,40.029Zm-4.977-1.84H14.749a6.917,6.917,0,0,0,1.67-3.925H25.45A6.917,6.917,0,0,0,27.12,38.189Zm0,0"/></svg>