<svg xmlns="http://www.w3.org/2000/svg" width="47.616" height="45.449" viewBox="0 0 47.616 45.449"><defs><style>.a{fill:#b7202e;}</style></defs><g transform="translate(0 -0.501)"><path class="a" d="M102.471,158.329a9.727,9.727,0,0,0-2.3-.08,9.664,9.664,0,0,0-4.794-9.569,10.72,10.72,0,0,0,.348-10.246,9.715,9.715,0,0,0,3.951-4.919.717.717,0,1,0-1.35-.485,8.283,8.283,0,0,1-3.583,4.322,1.122,1.122,0,0,0-.419,1.5,9.281,9.281,0,0,1-.337,9.352,1.115,1.115,0,0,0,.42,1.582,8.234,8.234,0,0,1,4.29,8.642,1.121,1.121,0,0,0,1.246,1.29,8.329,8.329,0,0,1,2.313.031.718.718,0,0,0,.22-1.418Zm0,0" transform="translate(-85.084 -119.772)"/><path class="a" d="M110.458,6.953a.718.718,0,1,0,1.323-.557l-2.3-5.454a.718.718,0,0,0-1.323.557Zm0,0" transform="translate(-98.051 0)"/><path class="a" d="M.5,161.274c7.556,2.383,7.043,2.237,7.2,2.237a.718.718,0,0,0,.215-1.4L.934,159.9A.718.718,0,1,0,.5,161.274Zm0,0" transform="translate(0 -144.549)"/><path class="a" d="M6.907,306.785l-6.6,4.71a.719.719,0,0,0,.417,1.3c.326,0-.134.259,7.02-4.843a.718.718,0,1,0-.833-1.169Zm0,0" transform="translate(-0.001 -277.678)"/><path class="a" d="M128.641,429.4a.717.717,0,0,0-.884.5l-1.149,4.128a.718.718,0,1,0,1.383.385l1.148-4.128A.718.718,0,0,0,128.641,429.4Zm0,0" transform="translate(-114.81 -388.984)"/><path class="a" d="M71.233,102.808c4.618,3.009,4.358,2.892,4.65,2.892a.719.719,0,0,0,.392-1.319l-4.259-2.775a.718.718,0,1,0-.784,1.2Zm0,0" transform="translate(-64.312 -91.595)"/><path class="a" d="M38.284,244.262a.718.718,0,1,0,0,1.436h3.747a.718.718,0,1,0,0-1.436Zm0,0" transform="translate(-34.073 -221.091)"/><path class="a" d="M91.472,351.433a.718.718,0,0,0-1,.155l-1.823,2.489a.718.718,0,1,0,1.158.848l1.823-2.488A.718.718,0,0,0,91.472,351.433Zm0,0" transform="translate(-80.276 -318.169)"/><path class="a" d="M179.464,73.839a.717.717,0,0,0,.718-.718V72.94a2.472,2.472,0,0,0-2.469-2.469H169.2a9,9,0,0,0-6.378-3.332,8.236,8.236,0,0,1-.651-4.815,1.121,1.121,0,0,0-1.247-1.29,8.183,8.183,0,0,1-6.07-1.646,1.119,1.119,0,0,0-1.365,0,8.185,8.185,0,0,1-6.071,1.646,1.12,1.12,0,0,0-1.246,1.3,8.3,8.3,0,0,1,.109,1.544.718.718,0,0,0,1.436.033,9.774,9.774,0,0,0-.07-1.4,9.611,9.611,0,0,0,6.525-1.831A9.606,9.606,0,0,0,160.7,62.5a9.686,9.686,0,0,0,.56,4.616H159.6a4.07,4.07,0,0,0-3.341,1.747l-1.292,1.86h-1.589a2.581,2.581,0,0,0-1.476,4.692,2.576,2.576,0,0,0,.762,3.863,2.578,2.578,0,0,0,1.133,3.853,2.6,2.6,0,0,0,2.133,3.926h5.33a9.606,9.606,0,0,0-.567,4.614,9.6,9.6,0,0,0-6.523,1.831,9.8,9.8,0,0,0-1.283-.793.718.718,0,1,0-.658,1.275,8.277,8.277,0,0,1,1.258.8,1.119,1.119,0,0,0,1.365,0,8.338,8.338,0,0,1,6.214-1.638,1.12,1.12,0,0,0,1.1-1.3,8.176,8.176,0,0,1,.651-4.788,7.985,7.985,0,0,0,5.46-1.537,7.767,7.767,0,0,0,1.692-1.816h7.738a2.472,2.472,0,0,0,2.469-2.469V75.993a.718.718,0,0,0-1.436,0v5.243a1.036,1.036,0,0,1-1.034,1.034h-7c.609-1.589.489-2.458.489-6.146a8.945,8.945,0,0,0-1.05-4.217h7.561a1.035,1.035,0,0,1,1.034,1.034v.182a.717.717,0,0,0,.718.718ZM152.238,73.3a1.145,1.145,0,0,1,1.143-1.144h.792a2.017,2.017,0,0,0,1.8,2.287h-2.591a1.144,1.144,0,0,1-1.143-1.143Zm6.252,12.319c-.018,0-2.574,0-2.592,0a1.148,1.148,0,0,1,.055-2.285h2.537A1.146,1.146,0,0,1,158.489,85.624Zm.136-3.731h-3.842a1.144,1.144,0,1,1,.09-2.285h3.752a1.143,1.143,0,1,1,0,2.285Zm0-3.723c-5.183,0-4.877.037-5.187-.106a1.144,1.144,0,0,1,.48-2.18h4.707a1.143,1.143,0,0,1,0,2.287Zm0-3.722h-1.3a3.245,3.245,0,0,0,2.054-1.558h.313A1.144,1.144,0,0,1,158.625,74.447Zm8.864,9.873a6.009,6.009,0,0,1-3.821,1.3h-2.919a2.714,2.714,0,0,0-.436-2.928,2.571,2.571,0,0,0,.093-3.807,2.573,2.573,0,0,0,0-3.723,2.366,2.366,0,0,0,.215-.231,6.3,6.3,0,0,0,3.607,2.817.718.718,0,0,0,.43-1.37,4.935,4.935,0,0,1-2.238-1.423,6.291,6.291,0,0,1-1.456-3.5,1.14,1.14,0,0,0-1.24-.754c-.744.071-.94.535-1.768,1.709-.767,1.1-2.38.66-2.38.076,0-.168-.083,0,1.861-2.8a2.633,2.633,0,0,1,2.162-1.131,18.382,18.382,0,0,1,4.182.167,7.584,7.584,0,0,1,5.981,7.4c0,3.5.447,6.046-2.276,8.2Zm0,0" transform="translate(-132.565 -53.199)"/></g></svg>