<svg xmlns="http://www.w3.org/2000/svg" width="36.325" height="36.324" viewBox="0 0 36.325 36.324"><defs><style>.a{fill:#b7202e;}</style></defs><g transform="translate(0 -0.001)"><g transform="translate(0 0.001)"><g transform="translate(0 0)"><path class="a" d="M167.553,39.857a.532.532,0,0,0,0-1.064H155.845a.532.532,0,0,0,0,1.064Z" transform="translate(-144.294 -36.041)"/><path class="a" d="M155.845,117.442h21.349a.532.532,0,1,0,0-1.064H155.845a.532.532,0,0,0,0,1.064Z" transform="translate(-144.294 -108.121)"/><path class="a" d="M155.845,146.536h21.349a.532.532,0,0,0,0-1.064H155.845a.532.532,0,0,0,0,1.064Z" transform="translate(-144.294 -135.151)"/><path class="a" d="M33.726,0h-27a2.6,2.6,0,0,0-2.6,2.6V8.1a.532.532,0,0,0,.532.532h3.6v7.549L.867,18.43a1.222,1.222,0,0,0,0,2.34l4.847,1.452L4.685,32.969a1.224,1.224,0,0,0-.862,1.168V35.1a1.223,1.223,0,0,0,1.221,1.222H22.3A1.223,1.223,0,0,0,23.525,35.1v-.966a1.224,1.224,0,0,0-.862-1.168l-.091-.941h1.736l-.02.164A1.222,1.222,0,0,0,25.5,33.565h1.888A1.222,1.222,0,0,0,28.6,32.191l-.465-3.719a1.7,1.7,0,0,0-.248-.7,1.567,1.567,0,0,0-.911-2.085v-5.2a1.223,1.223,0,0,0-.485-2.057L14.262,14.7a1.906,1.906,0,0,0-1.114,0l-3.82,1.16V2.6a2.581,2.581,0,0,0-.5-1.532h24.9A1.535,1.535,0,0,1,35.26,2.6V4.679a.532.532,0,0,0,1.064,0V2.6A2.6,2.6,0,0,0,33.726,0ZM5.2,7.569V2.6a1.534,1.534,0,0,1,3.068,0V7.569ZM22.461,35.1h0a.158.158,0,0,1-.157.158H5.044a.158.158,0,0,1-.157-.158v-.966a.158.158,0,0,1,.157-.158H17.81a.532.532,0,0,0,0-1.064H5.759L6.8,22.109a.857.857,0,0,1,.626-.739A24.89,24.89,0,0,1,14,20.513a25.2,25.2,0,0,1,5.892.682.848.848,0,0,1,.645.744l1.056,10.976H19.756a.532.532,0,1,0,0,1.064H22.3a.158.158,0,0,1,.157.158ZM25,27.777a1.7,1.7,0,0,0-.249.695l-.311,2.491H22.47l-.84-8.732,4.282-1.288v4.749A1.567,1.567,0,0,0,25,27.777Zm2.078.821V28.6l.465,3.719a.158.158,0,0,1-.157.178H25.5a.158.158,0,0,1-.157-.178l.465-3.719V28.6a1.562,1.562,0,0,0,1.27,0Zm-.131-1.433a.5.5,0,1,1-.5-.5A.5.5,0,0,1,26.948,27.166ZM13.457,15.718a.846.846,0,0,1,.494,0l12.23,3.73a.158.158,0,0,1,0,.3l-4.772,1.436a1.91,1.91,0,0,0-1.271-1.026A26.26,26.26,0,0,0,14,19.449a25.952,25.952,0,0,0-6.853.9,1.929,1.929,0,0,0-1.133.855L1.177,19.751a.158.158,0,0,1,0-.3Z" transform="translate(0 -0.001)"/><path class="a" d="M412.2,252.682a.532.532,0,0,0-.532-.532h-3.443a.532.532,0,1,0,0,1.064h3.443A.532.532,0,0,0,412.2,252.682Z" transform="translate(-378.771 -234.261)"/><path class="a" d="M155.845,68.952h5.509a.532.532,0,1,0,0-1.064h-5.509a.532.532,0,0,0,0,1.064Z" transform="translate(-144.294 -63.072)"/><path class="a" d="M155.845,175.63h21.349a.532.532,0,1,0,0-1.064H155.845a.532.532,0,0,0,0,1.064Z" transform="translate(-144.294 -162.181)"/><path class="a" d="M423.859,87.283a.532.532,0,0,0-.532.532V111.9a.156.156,0,0,1-.157.156h-4.937a.532.532,0,1,0,0,1.064h4.937a1.222,1.222,0,0,0,1.221-1.22V87.815A.532.532,0,0,0,423.859,87.283Z" transform="translate(-388.067 -81.091)"/><path class="a" d="M429.707,387.923h-2.066a.532.532,0,0,0,0,1.064h2.066a.532.532,0,1,0,0-1.064Z" transform="translate(-396.807 -360.401)"/><path class="a" d="M388.813,224.121h4.821a.532.532,0,0,0,0-1.064h-4.821a.532.532,0,0,0,0,1.064Z" transform="translate(-360.734 -207.232)"/></g></g></g></svg>