<svg xmlns="http://www.w3.org/2000/svg" width="41.551" height="27.24" viewBox="0 0 41.551 27.24"><defs><style>.a{fill:#b7202e;}</style></defs><g transform="translate(0 -88)"><g transform="translate(0 88)"><path class="a" d="M5.367,114.02H1.911a.692.692,0,0,1-.691-.691V89.911a.692.692,0,0,1,.691-.691H25.98a.61.61,0,1,0,0-1.22H1.911A1.913,1.913,0,0,0,0,89.911v23.418a1.913,1.913,0,0,0,1.911,1.911H5.367a.61.61,0,0,0,0-1.22Z" transform="translate(0 -88)"/><path class="a" d="M125.637,88H114.942a.61.61,0,1,0,0,1.22h10.694a.692.692,0,0,1,.691.691v23.418a.692.692,0,0,1-.691.691H94.218a.61.61,0,0,0,0,1.22h31.419a1.913,1.913,0,0,0,1.911-1.911V89.911A1.913,1.913,0,0,0,125.637,88Z" transform="translate(-85.996 -88)"/><path class="a" d="M324.319,208H312.61a.61.61,0,0,0-.61.61v13.01a.61.61,0,0,0,.61.61h11.709a.61.61,0,0,0,.61-.61V208.61A.61.61,0,0,0,324.319,208Zm-8.5,13.01v-3.293a.692.692,0,0,1,.691-.691h3.9a.692.692,0,0,1,.691.691v3.293Zm7.887,0h-1.382v-3.293a1.913,1.913,0,0,0-1.911-1.911h-3.9a1.913,1.913,0,0,0-1.911,1.911v3.293H313.22V209.22h10.489Z" transform="translate(-286.63 -198.242)"/><path class="a" d="M362.561,245.123A2.561,2.561,0,1,0,360,242.561,2.564,2.564,0,0,0,362.561,245.123Zm0-3.9a1.342,1.342,0,1,1-1.342,1.342A1.343,1.343,0,0,1,362.561,241.22Z" transform="translate(-330.727 -227.64)"/><path class="a" d="M40.338,135.66l3.9,1.952a.614.614,0,0,0,.546,0l3.9-1.952a.61.61,0,0,0,.337-.545V128.61a.61.61,0,0,0-.61-.61H40.611a.61.61,0,0,0-.61.61v6.505A.61.61,0,0,0,40.338,135.66Zm.883-3.839H43.9v4.258l-2.683-1.342Zm3.9,4.258v-4.258h2.683v2.916Zm2.683-5.478H45.124V129.22h2.683Zm-3.9-1.382V130.6H41.221V129.22Z" transform="translate(-36.748 -124.747)"/><path class="a" d="M207.337,128.61a.61.61,0,0,0-.61-.61H184.61a.61.61,0,0,0-.61.61v3.9a.61.61,0,0,0,.61.61h22.117a.61.61,0,0,0,.61-.61Zm-1.22,3.293h-20.9V129.22h20.9Z" transform="translate(-169.038 -124.747)"/><path class="a" d="M40.61,273.22h5.855a.61.61,0,1,0,0-1.22H40.61a.61.61,0,1,0,0,1.22Z" transform="translate(-36.747 -257.038)"/><path class="a" d="M156.278,272.61a.61.61,0,0,0-.61-.61H144.61a.61.61,0,1,0,0,1.22h11.059A.61.61,0,0,0,156.278,272.61Z" transform="translate(-132.291 -257.038)"/><path class="a" d="M40.61,305.22H51.668a.61.61,0,1,0,0-1.22H40.61a.61.61,0,1,0,0,1.22Z" transform="translate(-36.747 -286.436)"/><path class="a" d="M216.61,304a.61.61,0,1,0,0,1.22h2.6a.61.61,0,1,0,0-1.22Z" transform="translate(-198.436 -286.436)"/></g></g></svg>