<svg xmlns="http://www.w3.org/2000/svg" width="14.55" height="18" viewBox="0 0 14.55 18"><defs><style>.a{fill:#069;}</style></defs><g transform="translate(-2.995)"><g transform="translate(2.995)"><path class="a" d="M10.316,11.4a8.642,8.642,0,0,1-.628,4.471c-.063.123-.125.242-.187.356-1.344.412-2.764,1.193-3,2.053a.957.957,0,0,0,.234.932,1.238,1.238,0,0,0,.906.4c.828,0,1.688-.79,2.628-2.411a25.891,25.891,0,0,1,2.718-.319c1.133,1.158,2.05,1.721,2.8,1.721a1.251,1.251,0,0,0,1.111-.652.926.926,0,0,0,0-.92c-.47-.849-2.3-1.194-3.4-1.273-.094-.1-.19-.21-.288-.321a8.933,8.933,0,0,1-1.754-4.157c-.021-.226-.045-.413-.066-.551-.073-.522-.4-.6-.589-.6a.574.574,0,0,0-.43.195.651.651,0,0,0-.132.559C10.257,11.027,10.282,11.214,10.316,11.4ZM7.689,18.464a2.886,2.886,0,0,1,.636-.485A1.571,1.571,0,0,1,7.689,18.464Zm8.036-1a1.511,1.511,0,0,1-.573-.241A3.114,3.114,0,0,1,15.725,17.46Zm-4.411-2.843a7.667,7.667,0,0,0,.7,1.164c-.126.012-1.011.127-1.09.136A7.372,7.372,0,0,0,11.314,14.617Z" transform="translate(-4.466 -4.297)"/><path class="a" d="M7.656,0,2.995,4.922V18h14.55V0ZM7.245,2.07V4.251H5.179Zm9.174,14.8H4.12V5.376H8.37V1.125h8.05V16.875Z" transform="translate(-2.995)"/></g></g></svg>