<svg xmlns="http://www.w3.org/2000/svg" xmlns:xlink="http://www.w3.org/1999/xlink" width="327.96" height="425.99" viewBox="0 0 327.96 425.99"><defs><style>.a{fill:none;}.b{clip-path:url(#a);}.c{fill:#4951ec;}.d{fill:#fb9390;}.e{opacity:0.6;}.f{clip-path:url(#c);}.g{fill:#ef7f7f;}.h{fill:#06bfad;}.i{fill:#0b0754;}.j{fill:#dde8fe;}.k{fill:#b7202e;}.l{fill:#fff;}.m{fill:#b2b2b2;}.n{fill:#8e101c;}.o{mix-blend-mode:multiply;}.o,.t{isolation:isolate;}.p{clip-path:url(#d);}.q{fill:#cdd6e0;}.r{fill:#9b9b9b;}.s{fill:#9d9d9d;}.t{mix-blend-mode:luminosity;}.u{clip-path:url(#f);}.v{fill:#7c9af2;}.w{fill:#bed1f9;}.x{fill:#55769f;}.y{fill:#92b5f9;}.z{fill:#fa7167;}.aa{fill:#e8605d;}.ab{clip-path:url(#h);}.ac{fill:#daeef7;}.ad{clip-path:url(#i);}.ae{clip-path:url(#j);}.af{clip-path:url(#k);}</style><clipPath id="a"><rect class="a" width="77.195" height="283"/></clipPath><clipPath id="c"><rect class="a" width="8.979" height="6.234"/></clipPath><clipPath id="d"><rect class="a" width="30.732" height="3.36"/></clipPath><clipPath id="f"><rect class="a" width="327.96" height="323.894"/></clipPath><clipPath id="h"><rect class="a" width="99.766" height="19.917"/></clipPath><clipPath id="i"><rect class="a" width="112.916" height="24.93"/></clipPath><clipPath id="j"><rect class="a" width="112.96" height="19.781"/></clipPath><clipPath id="k"><rect class="a" width="141.615" height="22.102"/></clipPath></defs><g transform="translate(-761.471 -991)"><g transform="translate(854 991)"><g class="b"><g class="b"><path class="c" d="M167.736,848.6v4.841a.723.723,0,0,0,.722.724h11.3a.82.82,0,0,0,.439-1.512l-6.339-4.053s-2.487,1.823-6.122,0" transform="translate(-112.898 -571.164)"/><path class="d" d="M86.656,208.024a.223.223,0,0,1-.3-.252c.283-1.344,1.146-5.579.821-5.729-.387-.178-1.251,3.587-1.644,3.633s.542-3.606.1-3.729-1.186,3.234-1.391,3.247.161-3.279-.057-3.51-1.036,3.239-1.282,3.325-.475-2.494-.7-2.5-.372-.047-1.517,5.913a8.268,8.268,0,0,1-.454,2.7l.86,1.755,2.666.088s5.792-5.24,5.744-5.559-.3-.376-2.842.621" transform="translate(-53.999 -135.739)"/><path class="d" d="M179.168,213.685a.223.223,0,0,0,.383-.087c.361-1.325,1.523-5.488,1.88-5.473.426.018-.521,3.763-.192,3.983s1.16-3.457,1.612-3.364-.419,3.419-.242,3.525,1.352-2.992,1.65-3.1-.553,3.355-.374,3.544,1.56-2,1.762-1.906.352.128-1.344,5.954a8.266,8.266,0,0,0-.824,2.608l-1.566,1.17L179.5,219.4s-2.766-7.3-2.58-7.565.439-.2,2.248,1.848" transform="translate(-119.073 -140.082)"/><path class="d" d="M98.724,365.351l.042,10.189-9.9-1.526,1.651-11.457Z" transform="translate(-59.815 -244.025)"/><g class="e" transform="translate(29.945 118.532)"><g class="f"><path class="g" d="M91.593,367.831l.76-5.274,8.214,3.76,0,2.011a14.934,14.934,0,0,1-8.979-.5" transform="translate(-91.593 -362.557)"/></g></g><path class="c" d="M35.235,846.955v5.308a.8.8,0,0,1-.794.794H22.011a.9.9,0,0,1-.484-1.658l6.973-4.444s2.736,2,6.734,0" transform="translate(-14.209 -570.057)"/><path d="M23.67,554.74c.025-1.136-2.93,2.212-2.875,1.305C21.956,537.2,58.785,553,58.785,553l8.99,6.6,10.15,87.362s-5.509,1.6-9.135.29L46.315,572.388l-2.764-1.063S31.259,562.749,23.67,554.74" transform="translate(-13.996 -368.032)"/><path class="h" d="M20.609,577.436c-.01.221-.021.445-.03.678.009-.232.019-.457.03-.678" transform="translate(-13.851 -388.653)"/><path class="h" d="M20.526,579.543c-.009.236-.018.479-.025.727.007-.248.016-.491.025-.727" transform="translate(-13.799 -390.071)"/><path class="h" d="M20.45,582.06c-.008.257-.015.519-.02.788q.008-.4.02-.788" transform="translate(-13.751 -391.765)"/><path class="h" d="M20.726,575.084c-.012.2-.024.416-.035.632.011-.216.022-.428.035-.632" transform="translate(-13.926 -387.07)"/><path d="M20.742,561.985c7.588,8.009,22.751,19.561,22.751,19.561l2.764,1.063-2.764-1.063-8.545,75.635s-6.09,1.16-9.57-.725c0,0-5.131-72-4.636-94.472" transform="translate(-13.938 -378.253)"/><path class="h" d="M185.189,853.166a23.7,23.7,0,0,1-5.029.791,23.7,23.7,0,0,0,5.029-.791" transform="translate(-121.26 -574.238)"/><path class="h" d="M170.853,854.953c.245.05.494.091.745.122-.251-.032-.5-.072-.745-.122" transform="translate(-114.995 -575.44)"/><path class="h" d="M176.213,855.5a14.789,14.789,0,0,1-1.917-.042,14.789,14.789,0,0,0,1.917.042" transform="translate(-117.313 -575.777)"/><path class="i" d="M120.7,563.874l1.449,12.468c-3.834,1.484-13.176,3.069-20.216-12.33-2.22-4.857-2.791-8.352-2.382-10.861a99.969,99.969,0,0,1,12.159,4.126Z" transform="translate(-66.925 -372.308)"/><path class="j" d="M33.118,400.52c.426,0,6.8-14.459,6.8-14.459,5.457,3.827,12.864,1.17,12.864,1.17s29.8,54.538,9.817,63.043-38.84-1.843-38.84-1.843-4.253-11.057-4.253-11.482,13.183-36.43,13.608-36.43" transform="translate(-13.132 -259.845)"/><path class="k" d="M136.916,238.313s1.291,25.875-1.134,30.618c-8.044,15.734-18.038,17.329-18.038,17.329s-3.437,55.034-.6,68.217c0,0,9.427,2.906,23.318-3.615,0,0-10.632-42.667-10.065-48.053,0,0,17.01-15.167,17.577-33.028a120.59,120.59,0,0,0-4.111-33.736Z" transform="translate(-78.09 -158.874)"/><path class="k" d="M12.97,343.592a251.181,251.181,0,0,1,5.741-39.9c4.677-19.42,8.08-27.5,8.08-27.5-6.273-6.91-5.231-13.157-4.678-21.262.638-9.355,9.781-28.067,9.781-28.067l-6.166-4.04c-29.555,35.508-13.183,63.788-13.183,63.788S1.488,325.731,0,337.638a90.011,90.011,0,0,0,12.97,5.953" transform="translate(0 -149.973)"/><path class="l" d="M151.164,427.214a6.558,6.558,0,0,1-1.188-1.129,12,12,0,0,1-2.352-5.119,14.88,14.88,0,0,0,2.53,4.969,6.032,6.032,0,0,0,1.381,1.262c-.053.049-.084.077-.084.077,0,.035-.007.073-.009.111a3.229,3.229,0,0,1-2.247-.527,10.242,10.242,0,0,1-1.89-1.356,13.7,13.7,0,0,0,1.96,1.22,4.232,4.232,0,0,0,1.9.493" transform="translate(-99.146 -283.338)"/><path class="l" d="M38.62,404.74a6.551,6.551,0,0,0,1.35-1.243,14.472,14.472,0,0,0,2.53-4.969,12,12,0,0,1-2.353,5.119,6.542,6.542,0,0,1-1.188,1.129,2.672,2.672,0,0,0,.832-.1,5.469,5.469,0,0,0,1.068-.4,13.366,13.366,0,0,0,1.959-1.22,10.3,10.3,0,0,1-1.89,1.356,5.535,5.535,0,0,1-1.085.455,2.3,2.3,0,0,1-1.212.062l-.227-.061Z" transform="translate(-25.849 -268.236)"/><path class="i" d="M74.354,305.806l-.6,6.992,1.1.7,2.042-8.515Z" transform="translate(-49.643 -205.271)"/><path class="g" d="M70.551,321.62a2.394,2.394,0,1,1-2.844-2.428,2.677,2.677,0,0,1,2.844,2.428" transform="translate(-44.353 -214.815)"/><path class="d" d="M74.1,306.928a23.09,23.09,0,0,1-.1-5.873c.038-.382.055-.764.064-1.148a12.476,12.476,0,1,1,24.705,2.746,2.694,2.694,0,0,1,2.419.291c1.322.939,1.442,3.039.268,4.692s-3.2,2.231-4.519,1.292a2.4,2.4,0,0,1-.479-.455A11.7,11.7,0,0,1,82.948,316.7a11.484,11.484,0,0,1-8.853-9.776" transform="translate(-49.71 -193.659)"/><path class="i" d="M115.807,327.956a1.09,1.09,0,1,0,.99-.679,1.091,1.091,0,0,0-.99.679" transform="translate(-77.892 -220.279)"/><path class="i" d="M87.456,323.713a1.09,1.09,0,1,0,.99-.679,1.091,1.091,0,0,0-.99.679" transform="translate(-58.81 -217.423)"/><path class="g" d="M97.745,350.379a7.138,7.138,0,0,1-1.75.6,5.519,5.519,0,0,1-1.822.07,4.71,4.71,0,0,1-1.713-.6,6.555,6.555,0,0,1-1.423-1.177,5.029,5.029,0,0,0,1.335,1.319,4.287,4.287,0,0,0,1.772.671,4.93,4.93,0,0,0,1.89-.123,5.4,5.4,0,0,0,1.713-.762" transform="translate(-61.273 -235.085)"/><path class="i" d="M113.278,320.776a10.138,10.138,0,0,1,1.628-.174,5.375,5.375,0,0,1,1.513.18,4.983,4.983,0,0,1,1.391.6,15.578,15.578,0,0,1,1.334.958,3.61,3.61,0,0,0-.955-1.45,3.548,3.548,0,0,0-1.568-.875,3.71,3.71,0,0,0-1.793-.03,3.434,3.434,0,0,0-1.549.788" transform="translate(-76.244 -215.309)"/><path class="i" d="M87.562,316.718a3.438,3.438,0,0,0-1.215-1.243,3.712,3.712,0,0,0-1.708-.547,3.549,3.549,0,0,0-1.766.326,3.625,3.625,0,0,0-1.369,1.067,15.126,15.126,0,0,1,1.57-.48,4.979,4.979,0,0,1,1.511-.126,5.365,5.365,0,0,1,1.491.314,10.16,10.16,0,0,1,1.486.687" transform="translate(-54.858 -211.963)"/><path class="g" d="M99.246,324.615a15.753,15.753,0,0,0-1.42,1.538,14.819,14.819,0,0,0-1.22,1.713,4.092,4.092,0,0,0-.535,1.261c-.036.228-.018.45.364.826a5.028,5.028,0,0,0,.822.681,6.782,6.782,0,0,0,.912.523,11.457,11.457,0,0,1-1.481-1.424,2.015,2.015,0,0,1-.24-.373.811.811,0,0,1,.074-.389,5.672,5.672,0,0,1,.452-.889c.345-.587.736-1.157,1.12-1.732s.778-1.146,1.152-1.737" transform="translate(-64.654 -218.488)"/><path class="i" d="M72.955,274.6s-3.673-.707.851-2.925,15.616-3.509,21.414,1.458c0,0,1.95-2.5,3.7-1.4s-1.825,2.314-1.825,2.314,2.448.471,2.921,1.831c.349,1.006-1.148.708-1.953.484,1.33.548,5.244,4.244.161,14.339-.9-.422-6.716-8.718-6.716-8.718s-11.692,3.842-9.56.656c0,0-13.625,3.427-10.323-2.75,0,0-5.022-.756,1.327-5.288" transform="translate(-46.942 -181.535)"/><path class="i" d="M141.87,302.93a2.4,2.4,0,0,0-2.229-.175c-1.348.5-2.2,3.523-2.2,3.523s-4.412,3.613-2.26-12.133c2.114-15.47,5.041,2.576,5.041,2.576Z" transform="translate(-90.584 -193.761)"/><path class="m" d="M131.483,175.234,111.31,173.8a1.853,1.853,0,0,1,.263-3.7l20.173,1.437a1.853,1.853,0,0,1-.264,3.7" transform="translate(-73.76 -114.486)"/><path class="k" d="M101.053,0l7.05,17.281,18.233,3.99L112.079,33.317l1.84,18.573L98.057,42.053l-17.1,7.489,4.454-18.125L73.01,17.472l18.615-1.364Z" transform="translate(-49.141 0)"/><path class="n" d="M155.067,0,153.26,25.359l8.856-8.077Z" transform="translate(-103.154 0)"/><path class="n" d="M180.35,65.063,153.26,69.15l12.832,7.959Z" transform="translate(-103.154 -43.792)"/><path class="n" d="M99.246,58.519l-7.621-9.25L73.01,50.633Z" transform="translate(-49.14 -33.161)"/><path class="n" d="M97.331,101.746l18.285-24.184-13.831,6.059Z" transform="translate(-65.51 -52.205)"/><path class="n" d="M165.483,104.095,150.811,77.563l-1.189,16.694Z" transform="translate(-100.705 -52.205)"/><rect class="m" width="10.799" height="30.726" transform="matrix(0.071, -0.997, 0.997, 0.071, 31.516, 70.102)"/><g class="o" transform="translate(31.516 68.926)"><g class="p"><rect class="q" width="1.179" height="30.726" transform="translate(0 1.173) rotate(-85.914)"/></g></g><g class="o" transform="translate(32.221 59.029)"><g class="p"><rect class="q" width="1.179" height="30.726" transform="translate(0 1.177) rotate(-85.93)"/></g></g><path class="r" d="M126.87,179.583l-30.189-2.151a1.388,1.388,0,0,1,.2-2.768l30.189,2.151a1.388,1.388,0,0,1-.2,2.768" transform="translate(-64.205 -117.559)"/><path class="s" d="M124.328,218.415l-32.212-2.3a.373.373,0,0,1-.346-.4l.144-2.024a.373.373,0,0,1,.4-.345l32.212,2.294a.373.373,0,0,1,.346.4l-.144,2.023a.374.374,0,0,1-.4.346" transform="translate(-61.767 -143.599)"/><path class="l" d="M132.31,197.785l-11.655-.83a2.629,2.629,0,1,1,.374-5.245l11.655.83a2.629,2.629,0,1,1-.374,5.245" transform="translate(-79.565 -129.029)"/><path class="m" d="M142.836,144.259l-6.483-.462.043-.6a32.551,32.551,0,0,1,4.3-14.569c2.926,8.058,2.362,12.587,2.188,15.031Z" transform="translate(-91.775 -86.575)"/></g></g></g><g class="t" transform="translate(761.471 1093.096)"><g class="u"><g transform="translate(0 0.001)"><g class="u"><path class="v" d="M761.292,728.611l41.891,16.824,51.855-129.119L819.628,602.1a6.984,6.984,0,0,0-9.084,3.878Z" transform="translate(-593.345 -468.876)"/><rect class="w" width="114.533" height="81.46" transform="translate(163.018 254.931) rotate(-79.947)"/><rect class="x" width="0.817" height="36.377" transform="translate(203.127 158.097) rotate(-79.947)"/><rect class="x" width="0.817" height="51.661" transform="translate(195.964 154.724) rotate(-79.947)"/><rect class="x" width="0.817" height="62.676" transform="translate(188.683 164.245) rotate(-79.947)"/><rect class="x" width="0.817" height="62.676" transform="translate(187.997 168.113) rotate(-79.947)"/><rect class="x" width="0.817" height="62.676" transform="translate(186.626 175.848) rotate(-79.947)"/><rect class="x" width="0.817" height="62.676" transform="translate(185.94 179.715) rotate(-79.947)"/><rect class="x" width="0.817" height="62.676" transform="translate(185.255 183.583) rotate(-79.947)"/><rect class="x" width="0.817" height="62.676" transform="translate(182.239 200.594) rotate(-79.947)"/><rect class="x" width="0.817" height="62.676" transform="translate(181.528 204.604) rotate(-79.947)"/><rect class="x" width="0.817" height="62.676" transform="translate(180.817 208.615) rotate(-79.947)"/><rect class="x" width="0.817" height="62.676" transform="translate(180.106 212.625) rotate(-79.947)"/><rect class="x" width="0.817" height="62.676" transform="translate(179.395 216.636) rotate(-79.947)"/><rect class="x" width="0.817" height="62.676" transform="translate(178.684 220.646) rotate(-79.947)"/><rect class="x" width="0.817" height="62.676" transform="translate(177.973 224.657) rotate(-79.947)"/><rect class="j" width="114.533" height="81.46" transform="translate(165.421 250.102) rotate(-75.255)"/><rect class="y" width="0.817" height="36.377" transform="matrix(0.255, -0.967, 0.967, 0.255, 213.316, 156.873)"/><rect class="y" width="0.817" height="51.66" transform="matrix(0.255, -0.967, 0.967, 0.255, 206.453, 152.925)"/><rect class="y" width="0.817" height="62.676" transform="translate(198.417 161.819) rotate(-75.255)"/><rect class="y" width="0.817" height="62.676" transform="translate(197.417 165.617) rotate(-75.255)"/><rect class="y" width="0.816" height="62.676" transform="matrix(0.255, -0.967, 0.967, 0.255, 195.418, 173.214)"/><rect class="y" width="0.817" height="62.676" transform="matrix(0.255, -0.967, 0.967, 0.255, 194.418, 177.013)"/><rect class="y" width="0.817" height="62.676" transform="matrix(0.255, -0.967, 0.967, 0.255, 193.418, 180.812)"/><rect class="y" width="0.817" height="62.676" transform="matrix(0.255, -0.967, 0.967, 0.255, 189.021, 197.519)"/><rect class="y" width="0.817" height="62.676" transform="matrix(0.255, -0.967, 0.967, 0.255, 187.985, 201.458)"/><rect class="y" width="0.817" height="62.676" transform="translate(186.948 205.397) rotate(-75.256)"/><rect class="y" width="0.817" height="62.676" transform="matrix(0.255, -0.967, 0.967, 0.255, 185.912, 209.336)"/><rect class="x" width="0.817" height="62.676" transform="matrix(0.255, -0.967, 0.967, 0.255, 184.875, 213.275)"/><rect class="x" width="0.817" height="62.676" transform="translate(183.838 217.213) rotate(-75.255)"/><rect class="x" width="0.817" height="62.676" transform="matrix(0.255, -0.967, 0.967, 0.255, 182.802, 221.152)"/><path class="y" d="M833.342,734.826l84.336,33.87,49.188-122.479L896,602.5a7.545,7.545,0,0,0-10.963,3.609Z" transform="translate(-649.5 -468.707)"/><path class="z" d="M1081.962,1059.48l15.28-4.476c2.69-11.12,4.305-20.59,4.305-20.59-18.436.743-32.625,6.386-43.538,14.407l-2.258,18.161-4.874-12.176c-25.765,24.57-28.779,62.5-28.779,62.5s51.857-20.29,61.741-28.651c3.816-3.228,7.325-12.05,10.2-21.665-5.159-2.778-12.073-7.509-12.073-7.509" transform="translate(-796.615 -806.214)"/><path class="aa" d="M1101.547,1034.413s-60.686,47.6-79.45,82.892c0,0,51.857-20.29,61.741-28.651,3.816-3.228,7.325-12.05,10.2-21.665-5.159-2.778-12.072-7.509-12.072-7.509l15.28-4.476c2.69-11.12,4.306-20.59,4.306-20.59" transform="translate(-796.614 -806.214)"/><path class="z" d="M1097.46,1235.766a72.982,72.982,0,0,0-30.252-2.3c-1.744,4.007-3.932,8.758-3.932,8.758l-2.447-7.608c-35.019,7.88-57.345,38.89-57.345,38.89,23.485,7.151,41.525,5.961,55.215,1.006.093-2.922.168-7.262.168-7.262l4.164,5.511a62.6,62.6,0,0,0,16.188-10.552c-2.187-2.851-4.57-6.144-4.57-6.144l8.613,2.2a67.759,67.759,0,0,0,14.2-22.5" transform="translate(-782.108 -960.847)"/><path class="aa" d="M1058.7,1284.942c.093-2.921.168-7.262.168-7.262l4.164,5.511a62.6,62.6,0,0,0,16.188-10.551c-2.187-2.852-4.57-6.143-4.57-6.143l8.613,2.2a67.755,67.755,0,0,0,14.2-22.5c-41.573,6.361-93.975,37.743-93.975,37.743,23.485,7.151,41.526,5.961,55.215,1.006" transform="translate(-782.107 -971.274)"/><path class="aa" d="M208.1,821.5h-5.767a6.029,6.029,0,0,1,3.408-1.031H350.214c7.559,0,13.687,5.432,13.687,12.132v7.706c0,6.7-6.128,12.132-13.687,12.132L207.352,852.4Z" transform="translate(-157.693 -639.467)"/><path class="j" d="M831.436,840.307V832.6c0-6.7-6.128-12.132-13.687-12.132h3.1c7.559,0,13.686,5.432,13.686,12.132v7.706c0,6.7-6.128,12.132-13.686,12.132H817.79c7.54-.02,13.646-5.443,13.646-12.131" transform="translate(-637.347 -639.467)"/><path class="j" d="M678.054,840.307V832.6c0-6.7-6.128-12.132-13.687-12.132h3.1c7.559,0,13.687,5.432,13.687,12.132v7.706c0,6.7-6.128,12.132-13.687,12.132h-3.061c7.54-.02,13.645-5.443,13.645-12.131" transform="translate(-517.802 -639.467)"/><path class="z" d="M282.519,820.6c7.229,0,13.089,5.194,13.089,11.6v8.709c0,6.408-5.86,11.6-13.089,11.6H192.578v-1.948h.372l22.865-1.92,4.622-16.071s-8.92-8.881-9.5-9.11-17.985-.924-17.985-.924l-.372,0V820.6Z" transform="translate(-150.094 -639.568)"/><path class="j" d="M199.667,843.38c0-9.4-5.478-13.952-5.478-13.952h87.744c6.64,0,12.022,4.771,12.022,10.657v6.7c0,5.886-5.383,10.657-12.022,10.657H194.189s5.478-2.235,5.478-14.066" transform="translate(-151.349 -646.45)"/><g class="o" transform="translate(42.84 182.978)"><g class="ab"><path class="ac" d="M293.956,840.085v6.7a9.53,9.53,0,0,1-.351,2.556c-2.959-6.418-8.631-12.6-19.428-14.588-25.208-4.641-79.988-5.329-79.988-5.329h87.744c6.64,0,12.022,4.771,12.022,10.657" transform="translate(-194.19 -829.428)"/></g></g><path class="i" d="M216.193,1110.251h-6.527a6.373,6.373,0,0,1,3.857-1.291H377.044a15.341,15.341,0,0,1,15.491,15.186v9.646a15.341,15.341,0,0,1-15.491,15.187l-161.692-.054Z" transform="translate(-163.412 -864.315)"/><path class="c" d="M300.426,1109.122a14.671,14.671,0,0,1,14.814,14.523v10.9a14.671,14.671,0,0,1-14.814,14.523h-101.8v-2.438h.421l25.879-2.4,5.231-20.117s-10.1-11.116-10.754-11.4-20.355-1.156-20.355-1.156l-.421,0v-2.425Z" transform="translate(-154.81 -864.442)"/><path class="j" d="M206.655,1137.639c0-11.761-6.2-17.464-6.2-17.464h99.309a13.475,13.475,0,0,1,13.607,13.339v8.391a13.476,13.476,0,0,1-13.607,13.339H200.455s6.2-2.8,6.2-17.607" transform="translate(-156.233 -873.056)"/><g class="o" transform="translate(44.222 247.119)"><g class="ad"><path class="w" d="M313.371,1133.514v8.391a13.117,13.117,0,0,1-.4,3.2c-3.349-8.034-9.769-15.772-21.989-18.26-28.531-5.809-90.53-6.67-90.53-6.67h99.309a13.475,13.475,0,0,1,13.607,13.339" transform="translate(-200.455 -1120.175)"/></g></g><path class="c" d="M439.781,966.045h6.53a7.52,7.52,0,0,0-3.859-1.025H278.867c-8.559,0-15.5,5.4-15.5,12.05v7.654c0,6.655,6.938,12.05,15.5,12.05l161.755-.042Z" transform="translate(-205.268 -752.13)"/><path class="i" d="M589.693,965.151c-8.185,0-14.82,5.159-14.82,11.523v8.65c0,6.364,6.635,11.524,14.82,11.524H691.529v-1.935h-.421l-25.889-1.906-5.233-15.963s10.1-8.82,10.758-9.048,20.364-.918,20.364-.918l.421,0v-1.924Z" transform="translate(-448.051 -752.232)"/><path class="j" d="M696.56,987.777a17.588,17.588,0,0,1,6.2-13.857H603.414c-7.518,0-13.612,4.739-13.612,10.585v6.658c0,5.846,6.095,10.585,13.612,10.585h99.348s-6.2-2.219-6.2-13.971" transform="translate(-459.687 -759.067)"/><g class="o" transform="translate(130.115 214.854)"><g class="ae"><path class="ac" d="M589.8,984.507v6.658a8.379,8.379,0,0,0,.4,2.539c3.351-6.375,9.773-12.515,22-14.489,28.542-4.609,90.566-5.292,90.566-5.292H603.414c-7.518,0-13.612,4.739-13.612,10.585" transform="translate(-589.802 -973.922)"/></g></g><path class="z" d="M344.332,984.726v-7.654c0-6.655,6.938-12.05,15.5-12.05H344.295c-8.559,0-15.5,5.395-15.5,12.05v7.654c0,6.655,6.938,12.05,15.5,12.05l15.328,0c-8.463-.086-15.291-5.445-15.291-12.046" transform="translate(-256.262 -752.131)"/><path class="y" d="M330.525,1291.876h8.186a10.327,10.327,0,0,0-4.837-1.144H128.791c-10.73,0-19.428,6.028-19.428,13.463v8.552c0,7.436,8.7,13.464,19.428,13.464l202.789-.048Z" transform="translate(-85.237 -1005.987)"/><path class="v" d="M518.464,1290.875c-10.261,0-18.579,5.765-18.579,12.875v9.664c0,7.111,8.318,12.875,18.579,12.875H646.133v-2.162h-.528L613.15,1322l-6.56-17.834s12.661-9.855,13.487-10.109,25.529-1.025,25.529-1.025l.528,0v-2.15Z" transform="translate(-389.606 -1006.098)"/><path class="j" d="M652.44,1316.157a19.1,19.1,0,0,1,7.776-15.482H535.666c-9.425,0-17.066,5.295-17.066,11.826v7.439c0,6.531,7.641,11.826,17.066,11.826H660.215s-7.776-2.48-7.776-15.61" transform="translate(-404.193 -1013.737)"/><g class="o" transform="translate(114.408 286.938)"><g class="af"><path class="w" d="M518.6,1312.5v7.439a8.435,8.435,0,0,0,.5,2.836c4.2-7.122,12.252-13.983,27.578-16.189,35.782-5.15,113.539-5.913,113.539-5.913H535.667c-9.425,0-17.066,5.295-17.066,11.826" transform="translate(-518.601 -1300.676)"/></g></g><path class="v" d="M1140.593,749.915l-57.418-32.841-7.76,15.373,58.752,31.083Z" transform="translate(-838.169 -558.882)"/><path class="y" d="M1142.925,327.884s.453,4.466,3.977,4.775c-3.524.309-3.977,4.775-3.977,4.775s-.453-4.466-3.977-4.775c3.524-.309,3.977-4.775,3.977-4.775" transform="translate(-887.687 -255.551)"/><path class="z" d="M1417.521,917.97s.68,6.7,5.965,7.162c-5.286.463-5.965,7.162-5.965,7.162s-.679-6.7-5.965-7.162c5.286-.464,5.965-7.162,5.965-7.162" transform="translate(-1100.155 -715.459)"/><path class="j" d="M1344.751,162.353s.6,5.948,5.3,6.36c-4.694.411-5.3,6.36-5.3,6.36s-.6-5.948-5.3-6.36c4.694-.411,5.3-6.36,5.3-6.36" transform="translate(-1043.96 -126.537)"/><path class="y" d="M84.4,1037.526s.406,4,3.565,4.28c-3.159.277-3.565,4.28-3.565,4.28s-.406-4-3.565-4.28c3.158-.277,3.565-4.28,3.565-4.28" transform="translate(-63.003 -808.64)"/><path class="z" d="M1255.288,527.55s.405,3.994,3.557,4.27c-3.152.276-3.557,4.271-3.557,4.271s-.405-3.994-3.557-4.271c3.152-.276,3.557-4.27,3.557-4.27" transform="translate(-975.589 -411.169)"/><path class="z" d="M1006.563,52.336s.405,3.994,3.557,4.27c-3.152.276-3.557,4.271-3.557,4.271s-.4-3.994-3.557-4.271c3.152-.276,3.557-4.27,3.557-4.27" transform="translate(-781.735 -40.791)"/><path class="z" d="M253.744,282.8s.53,5.226,4.654,5.588c-4.124.362-4.654,5.588-4.654,5.588s-.53-5.226-4.655-5.588c4.124-.362,4.655-5.588,4.655-5.588" transform="translate(-194.138 -220.41)"/><path class="z" d="M85.27,693.176s.777,7.658,6.819,8.187c-6.043.53-6.819,8.188-6.819,8.188s-.777-7.658-6.82-8.188c6.043-.53,6.82-8.187,6.82-8.187" transform="translate(-61.143 -540.257)"/><path class="z" d="M928.22,377.815s.6,5.948,5.3,6.36c-4.694.411-5.3,6.36-5.3,6.36s-.6-5.948-5.3-6.36c4.694-.411,5.3-6.36,5.3-6.36" transform="translate(-719.319 -294.467)"/><path class="y" d="M1443.892,668.882s.6,5.948,5.3,6.36c-4.694.411-5.3,6.36-5.3,6.36s-.6-5.948-5.3-6.36c4.694-.411,5.3-6.36,5.3-6.36" transform="translate(-1121.229 -521.322)"/><path class="y" d="M113.137,115.622s.43,4.237,3.773,4.53c-3.344.293-3.773,4.53-3.773,4.53s-.43-4.237-3.773-4.53c3.344-.293,3.773-4.53,3.773-4.53" transform="translate(-85.237 -90.116)"/><path class="y" d="M307.448,590.414s.689,6.786,6.043,7.255c-5.355.469-6.043,7.255-6.043,7.255s-.688-6.786-6.043-7.255c5.355-.469,6.043-7.255,6.043-7.255" transform="translate(-234.913 -460.165)"/><path class="j" d="M44.921,390.129s.47,5.383,4.127,5.756c-3.657.372-4.127,5.756-4.127,5.756s-.47-5.384-4.127-5.756c3.657-.373,4.127-5.756,4.127-5.756" transform="translate(-31.795 -304.064)"/><path class="j" d="M441.753,0s.471,5.4,4.139,5.772c-3.667.373-4.139,5.772-4.139,5.772s-.471-5.4-4.139-5.772C441.281,5.4,441.753,0,441.753,0" transform="translate(-341.073 -0.004)"/></g></g></g></g></g></svg>