<svg xmlns="http://www.w3.org/2000/svg" width="288.832" height="184.348" viewBox="0 0 288.832 184.348">
    <defs>
        <style>
            .cls-1{fill:#f5f6f6}
        </style>
    </defs>
    <g id="noun_Gears_1977761" transform="translate(-12.707 -20.8)">
        <g id="Group_8972" data-name="Group 8972" transform="translate(12.707 20.8)">
            <path id="Path_17708" d="M85.426 102.557c-2.21-5.366-2.21-5.366-4.419-11.048l-8.523.316-1.895-1.895 35.039-35.039-.628 3.473c2.525 1.263 2.525 1.263 5.366 2.841l3.157-2.841a23.892 23.892 0 0 0 4.735.316l2.525 3.472 5.682-1.894v-2.525l35.67 32.513-4.735-.631c-1.894 3.472-1.894 3.472-3.472 6.629l3.472 3.788c-.316 2.21-.316 3.472-.631 6l-4.1 3.157a48.791 48.791 0 0 1 2.21 7.26l5.366.316a54.958 54.958 0 0 0 3.788 4.419l-.631 5.366c3.472 1.894 3.472 1.894 6.629 3.472l3.788-3.472c2.21.316 3.472.316 6 .631l3.157 4.1a48.794 48.794 0 0 1 7.26-2.21l.316-5.366a54.972 54.972 0 0 0 4.419-3.788l5.366.631c1.894-3.472 1.894-3.472 3.472-6.629l-3.472-3.788c.316-2.21.316-3.472.631-6l4.1-3.157a48.791 48.791 0 0 1-2.21-7.26l-5.366-.316a54.961 54.961 0 0 0-3.788-4.419l.631-5.366c-3.472-1.894-3.472-1.894-6.629-3.472l-3.788 3.472c-2.21-.316-3.472-.316-6-.631l-3.157-4.1a48.792 48.792 0 0 1-7.26 2.21l-.316 5.051-36.3-32.829 3.472.631c1.263-2.525 1.263-2.525 2.841-5.366l-2.841-3.157a23.89 23.89 0 0 0 .316-4.735l3.472-2.525-1.894-5.682h-4.1a34.558 34.558 0 0 0-3.157-3.472l.631-4.419c-2.525-1.263-2.525-1.263-5.366-2.841l-3.159 2.84a23.892 23.892 0 0 0-4.735-.316l-2.53-3.472-5.682 1.894v4.1a34.561 34.561 0 0 0-3.472 3.157l-4.1-.631c-1.263 2.525-1.263 2.525-2.841 5.366l2.841 3.157a23.892 23.892 0 0 0-.316 4.735l-3.472 2.525 1.894 5.682h2.525L66.17 85.511l-.316-.316.316-8.523c-5.366-2.21-5.366-2.21-11.048-4.419l-5.682 6.313h-9.47l-5.682-6.313c-5.366 2.21-5.366 2.21-11.048 4.419l.316 8.523-6.629 6.629-8.527-.315c-1.89 5.366-1.89 5.366-4.1 11.048l6.313 5.682v9.47L4.3 123.391c2.21 5.366 2.21 5.366 4.735 10.733l8.523-.316 6.629 6.629-.316 8.523c5.366 2.21 5.366 2.21 11.048 4.419l5.682-6.313h9.47l5.682 6.313c5.366-2.21 5.366-2.21 11.048-4.419l-.316-8.523 6.629-6.629 8.523.316c2.21-5.366 2.21-5.366 4.419-11.048l-6.313-5.682v-9.47zm94.7-12.311a15.2 15.2 0 1 1-16.415 13.889 14.985 14.985 0 0 1 16.414-13.889zm-135.1 46.718a23.99 23.99 0 1 1 23.99-23.99 23.98 23.98 0 0 1-23.995 23.99z" class="cls-1" data-name="Path 17708" transform="translate(-4.3 -20.8)"/>
            <path id="Path_17709" d="M226.549 73.186l6.313-5.682a116.264 116.264 0 0 0-4.735-11.048l-8.523.316-6.629-6.629.316-8.523c-5.366-2.21-5.366-2.21-11.048-4.419l-5.682 6.313h-9.47l-5.682-6.314c-5.366 2.21-5.366 2.21-11.048 4.419l.316 8.523-6.629 6.629-8.523-.316a91.888 91.888 0 0 1-3.789 11.045l6.313 5.682v9.47l-6.313 5.682c2.21 5.366 2.21 5.366 4.419 11.048l8.523-.316 1.894 1.894-35.039 34.723.631-3.472c-2.525-1.263-2.525-1.263-5.366-2.841l-3.157 2.841a23.891 23.891 0 0 0-4.735-.316l-2.525-3.472-5.682 1.894v2.525L75.03 100.017l4.735.631c1.894-3.472 1.894-3.472 3.472-6.629l-3.472-3.788c.316-2.21.316-3.472.631-6l4.1-3.157a48.788 48.788 0 0 1-2.21-7.26l-5.362-.314a54.96 54.96 0 0 0-3.788-4.419l.631-5.366c-3.472-1.894-3.472-1.894-6.629-3.472l-3.788 3.472c-2.21-.316-3.472-.316-6-.631l-3.157-4.1a48.789 48.789 0 0 1-7.26 2.21l-.316 5.366a54.955 54.955 0 0 0-4.417 3.785l-5.366-.631c-1.894 3.472-1.894 3.472-3.472 6.629l3.472 3.788c-.316 2.21-.316 3.472-.631 6l-4.1 3.157a48.789 48.789 0 0 1 2.21 7.26l5.366.316a54.96 54.96 0 0 0 3.788 4.419l-.631 5.366c3.472 1.894 3.472 1.894 6.629 3.472l3.788-3.472c2.21.316 3.472.316 6 .631l3.157 4.1a48.79 48.79 0 0 1 7.26-2.21l.316-5.051 36.617 33.46-3.472-.631c-1.263 2.525-1.263 2.525-2.841 5.366l2.841 3.157a23.892 23.892 0 0 0-.316 4.735l-3.472 2.525 1.894 5.682h4.1a34.559 34.559 0 0 0 3.157 3.472l-.947 4.1c2.525 1.263 2.525 1.263 5.366 2.841l3.157-2.841a23.893 23.893 0 0 0 4.735.316l2.525 3.472 5.682-1.894v-4.1a34.564 34.564 0 0 0 3.472-3.157l4.1.631c1.263-2.525 1.263-2.525 2.841-5.366l-2.841-3.157a23.893 23.893 0 0 0 .316-4.73l3.472-2.525-1.894-5.682h-2.525l35.039-35.039.316.316-.316 8.523c5.366 2.21 5.366 2.21 11.048 4.419l5.682-6.313h9.47l5.682 6.313c5.366-2.21 5.366-2.21 11.048-4.419l-.316-8.523 6.629-6.629 8.523.316c2.21-5.366 2.21-5.366 4.419-11.048l-6.313-5.682a76.992 76.992 0 0 1-.315-8.841zM57.037 100.333a15.2 15.2 0 1 1 16.415-13.89 14.985 14.985 0 0 1-16.415 13.89zm135.1 1.578a23.99 23.99 0 1 1 23.99-23.99 23.98 23.98 0 0 1-23.986 23.99z" class="cls-1" data-name="Path 17709" transform="translate(55.654 14.569)"/>
        </g>
    </g>
</svg>
