<svg xmlns="http://www.w3.org/2000/svg" width="15.622" height="15.589" viewBox="0 0 15.622 15.589">
    <g id="noun_Engineering_3092114" transform="translate(-7.957 -8.034)">
        <g id="Group_8961" data-name="Group 8961" transform="translate(7.957 8.034)">
            <path id="Path_17706" fill="#58595b" d="M29.037 32.431c0 .066-.066.1-.132.1l-1.944.2a.634.634 0 0 0-.56.593V35a.606.606 0 0 0 .56.593l1.944.2a.219.219 0 0 1 .165.132 3.572 3.572 0 0 0 .264.626.155.155 0 0 1-.033.2l-1.219 1.516a.648.648 0 0 0 .033.824l1.185 1.184a.608.608 0 0 0 .824.033l1.516-1.219a.218.218 0 0 1 .2-.033 5.073 5.073 0 0 0 .626.264.232.232 0 0 1 .132.165l.2 1.944a.634.634 0 0 0 .593.56h1.681a.606.606 0 0 0 .593-.56l.165-1.977a.219.219 0 0 1 .132-.165 3.571 3.571 0 0 0 .626-.264.155.155 0 0 1 .2.033l1.512 1.219a.648.648 0 0 0 .824-.033l1.186-1.186a.608.608 0 0 0 .033-.824l-1.219-1.516a.218.218 0 0 1-.033-.2 5.07 5.07 0 0 0 .264-.626.232.232 0 0 1 .165-.132l1.944-.2a.634.634 0 0 0 .56-.593v-1.677a.606.606 0 0 0-.56-.593l-2.01-.165a.219.219 0 0 1-.165-.132 3.571 3.571 0 0 0-.264-.626.155.155 0 0 1 .033-.2l1.219-1.516a.648.648 0 0 0-.033-.824l-1.186-1.186a.608.608 0 0 0-.824-.033l-1.516 1.219a.218.218 0 0 1-.2.033 5.07 5.07 0 0 0-.626-.265c-.033 0-.066-.033-.066-.1l-.2-1.944a.634.634 0 0 0-.593-.56h-1.679a.606.606 0 0 0-.593.56L32.53 28.9a.219.219 0 0 1-.132.165 3.572 3.572 0 0 0-.626.264.155.155 0 0 1-.2-.033l-1.516-1.219a.648.648 0 0 0-.824.033l-1.184 1.19a.608.608 0 0 0-.033.824l1.219 1.516a.218.218 0 0 1 .033.2c-.067.16-.132.36-.23.591zm5.141-1.121a2.867 2.867 0 1 1-2.867 2.867 2.869 2.869 0 0 1 2.867-2.866z" data-name="Path 17706" transform="translate(-26.4 -26.4)"/>
        </g>
    </g>
</svg>
