<svg xmlns="http://www.w3.org/2000/svg" width="36.837" height="46.61" viewBox="0 0 36.837 46.61">
    <path d="M33.418 16.109C24.49 16.109 15 13.636 15 9.054S24.49 2 33.418 2s18.419 2.472 18.419 7.055-9.49 7.054-18.419 7.054zm0-12.605C23.45 3.5 16.5 6.429 16.5 9.055s6.947 5.551 16.915 5.551 16.918-2.926 16.918-5.551S43.387 3.5 33.418 3.5z" transform="translate(-15 -2)"/>
    <path d="M33.418 34.483C24.49 34.483 15 32.011 15 27.428V19.52a.752.752 0 1 1 1.5 0v7.909c0 2.625 6.947 5.551 16.915 5.551s16.915-2.925 16.915-5.551V19.52a.752.752 0 1 1 1.5 0v7.909c.007 4.582-9.483 7.054-18.412 7.054z" transform="translate(-15 -12.465)"/>
    <path d="M33.418 56.521C24.49 56.521 15 54.049 15 49.467v-8.249a.756.756 0 0 1 1.512 0 .8.8 0 0 1-.009.117v8.133c0 2.625 6.947 5.551 16.915 5.551s16.915-2.925 16.915-5.551v-8.136a.717.717 0 0 1-.009-.114.744.744 0 0 1 .743-.752.767.767 0 0 1 .769.752v8.249c.001 4.582-9.489 7.054-18.418 7.054z" transform="translate(-15 -26.007)"/>
    <path d="M33.418 78.281C24.49 78.281 15 75.808 15 71.226v-8.063a.752.752 0 0 1 1.5 0v8.064c0 2.625 6.947 5.551 16.915 5.551s16.915-2.925 16.915-5.551v-8.064a.752.752 0 1 1 1.5 0v8.064c.007 4.581-9.483 7.054-18.412 7.054z" transform="translate(-15 -39.703)"/>
    <path d="M33.418 99.7C24.49 99.7 15 97.23 15 92.647v-8.032a.752.752 0 0 1 1.5 0v8.032c0 2.626 6.947 5.551 16.915 5.551s16.915-2.926 16.915-5.551v-8.032a.752.752 0 0 1 1.5 0v8.032c.007 4.583-9.483 7.053-18.412 7.053z" transform="translate(-15 -53.092)"/>
</svg>
