<svg xmlns="http://www.w3.org/2000/svg" width="47.117" height="48.061" viewBox="0 0 47.117 48.061"><g transform="translate(-520.432 -483.439)"><path d="M46.969,17.033A23.076,23.076,0,0,0,34.691,3.961a22.442,22.442,0,0,0-17.446-.382A23.6,23.6,0,0,0,4.052,33.859l1.87-.707A21.6,21.6,0,0,1,17.977,5.44a20.476,20.476,0,0,1,15.9.349A21.1,21.1,0,0,1,45.1,17.74,21.6,21.6,0,0,1,33.046,45.452a20.706,20.706,0,0,1-21.938-4.426h6.476v-2h-9.8V49h2V42.551a22.805,22.805,0,0,0,15.74,6.325,22.535,22.535,0,0,0,8.249-1.563A23.607,23.607,0,0,0,46.969,17.033Z" transform="translate(518.48 482)" stroke="rgba(0,0,0,0)" stroke-width="1"/><path d="M16.934,29.246H39.342v-.671h-1.5a5.73,5.73,0,0,1-.056-4.324h1.554V23.58H16.917a2.832,2.832,0,0,0,0,5.665h.021Zm-.021-.67v.007a2.657,2.657,0,0,1-.583-.092,1.764,1.764,0,0,1-.349-.141,2.162,2.162,0,0,1-.423-.27,1.937,1.937,0,0,1-.2-.192,1.6,1.6,0,0,1-.124-.148.8.8,0,0,1-.069-.094,1.366,1.366,0,0,1-.125-.2.871.871,0,0,1-.054-.105,1.8,1.8,0,0,1-.09-.22.48.48,0,0,1-.025-.069c-.008-.026-.016-.054-.021-.08a.463.463,0,0,1-.018-.067c-.012-.054-.023-.11-.031-.166a.856.856,0,0,1-.014-.111.619.619,0,0,1-.006-.081c0-.042,0-.085,0-.127v-.01c0-.054,0-.105.007-.156a.121.121,0,0,1,0-.029,1.205,1.205,0,0,1,.018-.15v-.011c.01-.054.02-.107.032-.159a.044.044,0,0,1,0-.018,2.137,2.137,0,0,1,.356-.751A1.564,1.564,0,0,1,15.3,25c.033-.038.067-.076.1-.112s.1-.1.155-.141.082-.067.127-.1.074-.051.115-.074a1.411,1.411,0,0,1,.164-.094c.044-.021.092-.044.139-.064l.008,0c.045-.018.09-.036.136-.051l.02-.006.09-.027a2.809,2.809,0,0,1,.566-.084v0h20.37a6.2,6.2,0,0,0,.049,4.325Z" transform="translate(515.713 481.03)" stroke="#000" stroke-miterlimit="10" stroke-width="0.5"/><path d="M38.9,29.263H16.472v.671h1.554a5.735,5.735,0,0,1-.055,4.324h-1.5v.671H38.9a2.832,2.832,0,0,0-.006-5.665Zm2.086,2.32c.011.051.023.105.031.159l0,.011c.01.05.013.1.018.15a.126.126,0,0,1,0,.029c0,.051.006.1.006.156v.01c0,.042,0,.085,0,.128a.453.453,0,0,1-.007.08.849.849,0,0,1-.013.112c-.008.055-.02.111-.031.165a.692.692,0,0,1-.018.067c-.007.027-.013.054-.023.081a.435.435,0,0,1-.024.069,1.863,1.863,0,0,1-.09.219,1.087,1.087,0,0,1-.054.105,1.56,1.56,0,0,1-.125.2.943.943,0,0,1-.069.093,1.469,1.469,0,0,1-.125.148,1.815,1.815,0,0,1-.2.192,2.141,2.141,0,0,1-.423.27,1.764,1.764,0,0,1-.349.141,2.587,2.587,0,0,1-.583.092v-.007H18.478a6.208,6.208,0,0,0,.049-4.324H38.9v0a2.638,2.638,0,0,1,.565.084c.032.008.061.018.09.026l.02.007c.048.016.092.033.136.051l.01,0c.047.02.094.042.139.064a1.258,1.258,0,0,1,.164.094,1.3,1.3,0,0,1,.113.073c.045.032.085.066.128.1s.105.092.154.141.069.074.1.111.07.085.105.13a2.176,2.176,0,0,1,.355.751A.057.057,0,0,1,40.983,31.583Z" transform="translate(516.174 482.133)" stroke="#000" stroke-miterlimit="10" stroke-width="0.5"/><path d="M41.714,18.663v-.671H19.289a2.832,2.832,0,0,0,0,5.665h22.43v-.671h-1.5a5.733,5.733,0,0,1-.056-4.325Zm-22.43,4.325V23A2.587,2.587,0,0,1,18.7,22.9a1.764,1.764,0,0,1-.349-.141,2.107,2.107,0,0,1-.423-.27,1.937,1.937,0,0,1-.2-.192,1.6,1.6,0,0,1-.124-.148.785.785,0,0,1-.069-.093,1.441,1.441,0,0,1-.125-.2.871.871,0,0,1-.054-.105,1.861,1.861,0,0,1-.09-.219.611.611,0,0,1-.025-.069c-.008-.027-.016-.054-.021-.081a.462.462,0,0,1-.018-.067c-.012-.054-.023-.11-.031-.165a.848.848,0,0,1-.014-.112.6.6,0,0,1-.006-.08c0-.043,0-.085,0-.128v-.01c0-.054,0-.105.007-.156a.126.126,0,0,1,0-.029,1.262,1.262,0,0,1,.018-.15l0-.011c.008-.054.02-.107.031-.159a.053.053,0,0,1,0-.018,2.147,2.147,0,0,1,.356-.751c.033-.044.067-.087.105-.13s.067-.076.1-.111c.05-.05.1-.1.155-.141s.082-.068.128-.1a1.235,1.235,0,0,1,.113-.074,1.247,1.247,0,0,1,.164-.093c.044-.023.092-.045.139-.066h.008c.045-.018.09-.036.137-.051l.019-.007.09-.026a2.727,2.727,0,0,1,.566-.084H39.66a6.2,6.2,0,0,0,.049,4.325Z" transform="translate(516.174 479.946)" stroke="#000" stroke-miterlimit="10" stroke-width="0.5"/></g></svg>