<svg xmlns="http://www.w3.org/2000/svg" xmlns:xlink="http://www.w3.org/1999/xlink" width="160" height="160" viewBox="0 0 160 160"><defs><filter id="a" x="0" y="0" width="160" height="160" filterUnits="userSpaceOnUse"><feOffset dy="3" input="SourceAlpha"/><feGaussianBlur stdDeviation="3" result="b"/><feFlood flood-opacity="0.161"/><feComposite operator="in" in2="b"/><feComposite in="SourceGraphic"/></filter></defs><g transform="translate(13916 -9816)"><g transform="matrix(1, 0, 0, 1, -13916, 9816)" filter="url(#a)"><circle cx="71" cy="71" r="71" transform="translate(9 6)" fill="#fafbfb"/></g><g transform="translate(-14108.603 9663.4)"><g transform="translate(212.603 212.6)"><path d="M245.227,214.709a.69.69,0,0,1-.076.025c-.34.041-.34.041-.485-.268-.084-.178-.084-.178-.289-.162-.166.013-.333.027-.5.034a.182.182,0,0,0-.2.164,3.313,3.313,0,0,1-.1.337l-.413.031c.02-.076.033-.13.048-.183q.28-.905.561-1.81c.045-.149.048-.153.2-.157.339-.01.251-.074.406.24.251.51.495,1.024.742,1.535.032.066.062.134.1.214m-1.133-1.479-.048,0c-.07.248-.141.494-.221.773l.6-.04c-.119-.267-.22-.5-.337-.737" transform="translate(-228.469 -212.656)" fill="#a50c22"/><path d="M249.58,214.669a.776.776,0,1,1,.788.764.73.73,0,0,1-.788-.764m1.168-.044-.016,0a.919.919,0,0,0,0-.1.371.371,0,0,0-.729-.076.668.668,0,0,0-.013.406.367.367,0,0,0,.334.276.357.357,0,0,0,.363-.234,1.8,1.8,0,0,0,.061-.265" transform="translate(-231.798 -213.265)" fill="#a50c22"/><path d="M253.764,215.82l-.363-.081c.113-.492.225-.969.337-1.461l.328.066q-.007.1-.013.2c.059-.027.106-.052.155-.072a.6.6,0,0,1,.6.061.358.358,0,0,1,.168.32,1.316,1.316,0,0,1-.026.24q-.092.42-.192.839c-.007.033-.023.063-.04.114l-.357-.083c.053-.233.1-.45.151-.667a2.9,2.9,0,0,0,.058-.3c.017-.169-.035-.256-.165-.3a.308.308,0,0,0-.363.12.636.636,0,0,0-.078.189c-.06.233-.113.468-.17.7-.008.033-.02.065-.038.12" transform="translate(-233.782 -213.471)" fill="#a50c22"/><path d="M247.994,212.6h.364c.025.345,0,.686,0,1.027s-.01.687-.015,1.043h-.379c-.008-.688.035-1.367.03-2.068" transform="translate(-230.959 -212.6)" fill="#a50c22"/><path d="M246.951,239.918a12.473,12.473,0,0,1-24.862.062,6.274,6.274,0,0,0,6.209,5.2,6.211,6.211,0,0,0,5.851-4.155c-.077-.048-.157-.1-.24-.15a4.458,4.458,0,0,1-1.635-1.692,3.18,3.18,0,0,1-.4-1.432,2.889,2.889,0,0,1,.424-1.611,5.951,5.951,0,0,1,.549-.749,7.559,7.559,0,0,0,1.05-1.491,3.617,3.617,0,0,0,.4-1.468,4.591,4.591,0,0,0-.109-1.078c-.048-.24-.085-.486-.125-.73a.09.09,0,1,1,.137-.083A8.061,8.061,0,0,1,236.9,233.6a5.689,5.689,0,0,1-.226,5.386,5.219,5.219,0,0,1-1.173,1.277c-.152.123-.3.248-.452.373-.048.04-.089.089-.136.132a.205.205,0,0,0-.048.249,6.27,6.27,0,0,0,.523,1.106,6.135,6.135,0,0,0,4.275,2.956,6.236,6.236,0,0,0,6.829-3.634,6.94,6.94,0,0,0,.46-1.524" transform="translate(-217.527 -221.876)" fill="#a50c22"/><path d="M215.692,254.737c-.04-.14-.078-.271-.119-.41a.443.443,0,0,1,.069-.048.745.745,0,0,0,.478-.844,1.667,1.667,0,0,0-.168-.611.639.639,0,0,0-.342-.324.457.457,0,0,0-.633.32,4.389,4.389,0,0,0-.069.632c-.017.252-.019.5-.038.756a1.654,1.654,0,0,1-.064.32.992.992,0,0,1-1.515.544,1.29,1.29,0,0,1-.5-.619,2.157,2.157,0,0,1-.144-1.282,1.2,1.2,0,0,1,.855-.928.5.5,0,0,1,.083-.01l.127.41a.842.842,0,0,1-.085.048.857.857,0,0,0-.562.76,1.464,1.464,0,0,0,.3,1.1.562.562,0,0,0,.5.226.476.476,0,0,0,.443-.3,1.562,1.562,0,0,0,.1-.416c.023-.251.02-.505.039-.757a3.415,3.415,0,0,1,.079-.6.86.86,0,0,1,.817-.7.954.954,0,0,1,.9.446,1.879,1.879,0,0,1,.3.765,1.814,1.814,0,0,1,0,.668,1.048,1.048,0,0,1-.828.848" transform="translate(-212.603 -233.055)" fill="#a50c22"/><path d="M219.161,263.559l-.256.215.006.036a1.007,1.007,0,0,1,.827.385.785.785,0,0,1,.113.906c.075.009.133.018.192.022a.967.967,0,0,1,.8.5.721.721,0,0,1-.088.919,1.45,1.45,0,0,1-.175.165l-1.44,1.126c-.023.017-.048.031-.09.061l-.268-.337c.053-.044.1-.083.139-.117.389-.3.779-.608,1.167-.914a2.71,2.71,0,0,0,.285-.25.417.417,0,0,0,.075-.522.644.644,0,0,0-.844-.316,1.541,1.541,0,0,0-.294.176c-.374.289-.744.577-1.116.866-.048.038-.1.074-.159.118l-.267-.343c.054-.048.1-.085.139-.119.4-.316.807-.629,1.207-.947a1.761,1.761,0,0,0,.283-.275.408.408,0,0,0,.011-.512.642.642,0,0,0-.827-.254,2.329,2.329,0,0,0-.422.263c-.33.249-.654.507-.98.762-.048.038-.1.074-.16.119l-.276-.346,2.17-1.7.247.306" transform="translate(-214.753 -238.892)" fill="#a50c22"/><path d="M230.439,226.752l.258.332-.289.249,1.428,1.833a.842.842,0,0,1-.125.033c-.068.008-.138,0-.206.013a.337.337,0,0,1-.36-.163c-.32-.428-.654-.845-.983-1.267-.038-.048-.079-.1-.126-.156a2.112,2.112,0,0,0-.541.457l1.627,1.688c-.192.033-.354.067-.516.084-.039,0-.091-.04-.126-.074-.186-.188-.368-.379-.552-.568-.039-.04-.081-.078-.139-.133l-.485.535.385.358a.188.188,0,0,1-.187.093c-.207,0-.414,0-.62-.009a.223.223,0,0,1-.236-.138.255.255,0,0,1,.062-.284c.222-.24.439-.486.657-.73.038-.043.074-.087.125-.144l-.342-.353c-.411.353-.721.776-1.1,1.158l-.319-.282.83-.923c.048.035.088.062.128.089l.011-.013-.076-.112a12.146,12.146,0,0,1,1.823-1.573" transform="translate(-220.453 -219.946)" fill="#a50c22"/><path d="M254.519,221.757l.038.366c-.137.013-.255.024-.373.038a.718.718,0,0,0-.15.035.179.179,0,0,0-.144.207.188.188,0,0,0,.167.192,1.745,1.745,0,0,0,.357-.012,1.2,1.2,0,0,0,.2-.056l-.016.192a4.743,4.743,0,0,0,.385-1.045l-1.294-.362.113-.4c.051.008.09.009.126.019l.812.232.666.189a2.247,2.247,0,0,0-.154-.2,2.658,2.658,0,0,0-.878-.625.215.215,0,0,1-.159-.23c0-.113-.017-.227-.029-.378a1.9,1.9,0,0,1,.914.611.652.652,0,0,0-.012-.107c-.048-.144-.1-.293-.154-.439a.349.349,0,0,0-.2-.244.127.127,0,0,1-.063-.09c-.018-.147-.027-.3-.042-.478a3.846,3.846,0,0,1,.481.228.469.469,0,0,1,.154.24c.083.257.16.516.221.778.067.285.12.573.164.863.021.136.061.229.206.251a.486.486,0,0,1,.1.048l-.137.393-.361-.115c-.152.36-.27.73-.405,1.093s-.264.721-.407,1.114c-.113-.157-.211-.282-.3-.417a.207.207,0,0,1,0-.144c.045-.144.1-.291.157-.461h-.215a.679.679,0,0,1-.7-.655.5.5,0,0,1,.228-.472,1.043,1.043,0,0,1,.7-.154" transform="translate(-233.875 -216.012)" fill="#a50c22"/><path d="M245.481,222.49a1.3,1.3,0,0,1-.03-.144c-.007-.085-.009-.171-.013-.271l.54-.048c.144-.011.289-.023.433-.031a.321.321,0,0,1,.26.048c.027.024.089.012.134.012h.987a.93.93,0,0,1,.014.425l-.36.017c0,.069-.011.13-.011.192q0,.965,0,1.931a.258.258,0,0,0,.119.24.61.61,0,0,1,.192.7.547.547,0,0,1-.548.391.877.877,0,0,1-.595-.189,1.958,1.958,0,0,1-.25-.235,5.655,5.655,0,0,1-.52-.738.248.248,0,0,1,.317.118,2.068,2.068,0,0,0,.471.546.662.662,0,0,0,.64.156.289.289,0,0,0,.226-.271.223.223,0,0,0-.315-.238.866.866,0,0,0-.2.133,1.045,1.045,0,0,0-.114.124l-.221-.321a.556.556,0,0,1,.562-.293c-.014-.086-.079-.108-.127-.136a.213.213,0,0,1-.109-.214c.005-.276,0-.552,0-.828,0-.061,0-.123-.009-.207-.27.023-.529.036-.78.067a.222.222,0,0,0-.181.271.917.917,0,0,0,.08.244,2.009,2.009,0,0,0,.418.566c.037.036.078.066.135.114l-.168.125a.652.652,0,0,1-.1-.076c-.163-.192-.337-.378-.485-.581a1.135,1.135,0,0,1-.229-.709.445.445,0,0,1,.125-.33.346.346,0,0,1,.175-.1c.308-.033.617-.052.943-.078.014.1.027.189.039.278a1.735,1.735,0,0,0,.007-.653l-.164-.01c-.034,0-.079.008-.1-.01-.1-.084-.217-.048-.329-.042-.24.016-.481.035-.721.051-.045,0-.089,0-.138,0" transform="translate(-229.648 -217.473)" fill="#a50c22"/><path d="M257.209,275.769c-.153-.45-.292-.86-.438-1.287.144-.048.273-.1.417-.144.415,1.2.826,2.4,1.243,3.607l-.381.131-.121-.289c-.029.051-.048.081-.064.114a.989.989,0,0,1-.981.559,1.222,1.222,0,0,1-.932-.577,1.991,1.991,0,0,1-.337-1.258,1.052,1.052,0,0,1,1.474-.9c.025.013.052.02.12.048m-1.157,1.01a1.9,1.9,0,0,0,.349.962.764.764,0,0,0,.561.331.7.7,0,0,0,.75-.754,1.8,1.8,0,0,0-.4-1.064.716.716,0,0,0-.8-.24.737.737,0,0,0-.46.765" transform="translate(-234.928 -244.648)" fill="#a50c22"/><path d="M249.669,275.817l.1.5-.411.084-.078-.11a.479.479,0,0,0-.028.054l-.551,1.559-.652,1.853c-.056.16-.057.16-.231.165l-.258.006c-.017,0-.034,0-.075-.008-.529-1.234-1.06-2.478-1.606-3.751l.523-.024,1.321,3.33a.706.706,0,0,0,.053-.1l1.04-3.176c.044-.137.048-.139.192-.144.073,0,.144-.006.225-.01l.031-.152.409-.075" transform="translate(-229.875 -245.417)" fill="#a50c22"/><path d="M268.655,273.289c-.054.048-.092.083-.13.115-.071.059-.141.114-.22.178l-.27-.175c-.07.048-.059.133-.079.2a1.439,1.439,0,0,1-.716.887.791.791,0,0,1-.481.109.772.772,0,0,1-.641-1.029,1.317,1.317,0,0,1,.283-.449q.288-.319.577-.641a2.2,2.2,0,0,0,.131-.185c-.076-.082-.144-.164-.223-.237a.375.375,0,0,0-.37-.083,1.113,1.113,0,0,0-.659.52.472.472,0,0,0-.031.353c.013.061.035.12.061.205-.116.069-.235.144-.363.219a.83.83,0,0,1-.086-.757,1.754,1.754,0,0,1,1.106-.988.6.6,0,0,1,.633.168,3.425,3.425,0,0,1,.274.309c.154.186.3.378.456.562a2.485,2.485,0,0,0,.747.718m-1.321-.7c-.117.152-.215.289-.32.414s-.227.259-.337.389a.865.865,0,0,0-.08.112.414.414,0,0,0,.013.5.433.433,0,0,0,.5.139.962.962,0,0,0,.6-.818,1.113,1.113,0,0,0-.366-.735" transform="translate(-240.002 -243.177)" fill="#a50c22"/><path d="M236.536,277.812l-.382-.172a.866.866,0,0,1,.791-.541,1.911,1.911,0,0,1,1.115.295.654.654,0,0,1,.316.785c-.094.378-.209.752-.31,1.129-.048.182-.1.366-.126.553a2.3,2.3,0,0,0,0,.357c-.1-.027-.182-.048-.263-.071-.19-.054-.2-.064-.186-.263,0-.033.005-.066.009-.107-.08-.031-.139.02-.2.041a1.43,1.43,0,0,1-1.2-.1.743.743,0,0,1-.343-1,.751.751,0,0,1,.7-.455,4.228,4.228,0,0,1,.582.043c.223.021.444.05.667.07.147.012.159,0,.2-.15a.47.47,0,0,0-.274-.625,1.983,1.983,0,0,0-.475-.141.5.5,0,0,0-.49.192c-.04.048-.079.1-.127.156m1.213.933a.587.587,0,0,0-.08-.019c-.257-.021-.514-.043-.769-.061a2.478,2.478,0,0,0-.344-.011.394.394,0,0,0-.374.3.4.4,0,0,0,.159.456.975.975,0,0,0,.345.144.8.8,0,0,0,.853-.272,1.437,1.437,0,0,0,.213-.543" transform="translate(-224.582 -246.081)" fill="#a50c22"/><path d="M224.838,273.8l-.343-.3.13-.32-.214-.021a1.394,1.394,0,0,1-1.066-.647.754.754,0,0,1,.449-1.151.84.84,0,0,1,.6.072c.138.069.267.155.4.236.2.121.4.249.6.364.134.075.149.066.244-.048a.475.475,0,0,0,.008-.7,1.926,1.926,0,0,0-.332-.3.524.524,0,0,0-.6-.033c-.039.022-.08.042-.132.069-.092-.106-.181-.208-.279-.32a.843.843,0,0,1,.776-.207,1.791,1.791,0,0,1,1.087.843.64.64,0,0,1-.07.785c-.227.281-.467.552-.7.827-.019.022-.038.042-.057.064a2.3,2.3,0,0,0-.506.781m.465-1.422c-.043-.029-.06-.042-.079-.052-.229-.129-.459-.259-.689-.385a2.22,2.22,0,0,0-.274-.144.416.416,0,0,0-.555.229.446.446,0,0,0,.076.453.974.974,0,0,0,.465.337.73.73,0,0,0,.8-.163c.086-.084.164-.174.261-.277" transform="translate(-218.114 -242.643)" fill="#a50c22"/><path d="M277.573,257.616c-.062.126-.12.249-.184.378a.876.876,0,0,1-.515-.844,1.965,1.965,0,0,1,.3-1.013.682.682,0,0,1,.866-.337c.331.1.656.209.985.309a2.567,2.567,0,0,0,1,.2c-.042.131-.078.245-.113.359a.106.106,0,0,1-.119.078l-.246-.013c.021.08.037.149.059.217a1.421,1.421,0,0,1-.115,1.133.75.75,0,0,1-.843.419.759.759,0,0,1-.617-.749,3.919,3.919,0,0,1,.051-.564c.03-.24.071-.478.1-.716.017-.144,0-.156-.127-.2a.481.481,0,0,0-.658.268,2.067,2.067,0,0,0-.152.507.455.455,0,0,0,.157.418l.171.153m.962-1.163c-.023.221-.042.433-.066.642-.018.153-.048.306-.061.46a.424.424,0,0,0,.323.466.433.433,0,0,0,.492-.226.981.981,0,0,0,.105-.747.851.851,0,0,0-.793-.595" transform="translate(-245.967 -235.001)" fill="#a50c22"/><path d="M275.5,263.769c-.071.131-.135.245-.211.382-1.119-.615-2.223-1.231-3.34-1.85.077-.137.144-.254.219-.39l1.189.656c-.013-.088-.019-.138-.028-.187a1.137,1.137,0,0,1,.485-1.137.693.693,0,0,1,.594-.086,1.973,1.973,0,0,1,.381.156c.5.271,1,.549,1.491.825.025.014.048.031.087.057l-.208.379c-.064-.032-.115-.055-.164-.082-.447-.247-.892-.5-1.342-.742a1.421,1.421,0,0,0-.283-.123.5.5,0,0,0-.555.175.707.707,0,0,0,.108,1.05c.263.183.551.331.829.491.214.123.433.24.647.359.029.016.056.038.1.066" transform="translate(-243.408 -237.79)" fill="#a50c22"/><path d="M266.751,235.437c-.076.037-.131.067-.189.092-.125.055-.215,0-.22-.14a.281.281,0,0,1,.009-.1c.053-.176.107-.352.167-.525a.322.322,0,0,1,.088-.124c.12-.109.2-.1.284.041.018.028.039.054.071.1l.581-.321a4.481,4.481,0,0,0-.358-.61l-1.986,1.24a.853.853,0,0,1-.016-.131c0-.091.019-.183.015-.274a.233.233,0,0,1,.133-.235c.475-.289.945-.587,1.418-.883.052-.033.1-.068.173-.113-.051-.1-.1-.181-.156-.289l.358-.225a21.541,21.541,0,0,1,1.242,2.1l-.364.2-.224-.377-.6.332.31.573-.418.236c-.109-.189-.21-.367-.321-.562" transform="translate(-239.898 -223.156)" fill="#a50c22"/><path d="M233.224,224.831l.641-.357.642-.358a.5.5,0,0,0-.088-.075c-.178-.078-.355-.161-.539-.226a.616.616,0,0,0-.548.048.224.224,0,0,1-.308-.033,3.347,3.347,0,0,0-.279-.214,1.073,1.073,0,0,1,.869-.2,4.725,4.725,0,0,1,1.033.465.2.2,0,0,0,.28-.006l.213.377-.381.226.4.739-.339.188c-.075.042-.151.082-.225.127a.32.32,0,0,0-.118.47.446.446,0,0,0,.665.081c-.012-.016-.021-.036-.035-.052a.268.268,0,0,1-.052-.343.337.337,0,0,1,.342-.182.221.221,0,0,1,.122.056c.129.148.258.3.185.523a.257.257,0,0,0,0,.062,1.033,1.033,0,0,1,.418.277l-.256.148c-.116-.067-.219-.127-.322-.186a.157.157,0,0,0-.162,0,.935.935,0,0,1-1.236-.36,1.075,1.075,0,0,1-.131-.351.373.373,0,0,1,.226-.438l.3-.171c.01-.005.016-.016.04-.044l-.188-.347-.962.529c-.072-.127-.137-.245-.21-.376" transform="translate(-223.059 -218.204)" fill="#a50c22"/><path d="M215.85,261.588a1.058,1.058,0,0,1-.69-.264,1.384,1.384,0,0,1-.5-.933,1.128,1.128,0,0,1,.433-1.051,2.063,2.063,0,0,1,1.1-.463,1.106,1.106,0,0,1,.724.171,1.387,1.387,0,0,1,.606,1.354,1.163,1.163,0,0,1-.3.608,2.1,2.1,0,0,1-1.367.577m.45-2.264a1.635,1.635,0,0,0-1.036.481.783.783,0,0,0,.582,1.328,1.528,1.528,0,0,0,1.077-.474.739.739,0,0,0,.154-.86.776.776,0,0,0-.777-.473" transform="translate(-213.665 -236.619)" fill="#a50c22"/><path d="M225.505,234.182l-.185.272-.354-.216a13,13,0,0,1,1.3-1.966l.337.24-.214.319,1.892,1.38a2.257,2.257,0,0,1-.486.173c-.048.011-.117-.035-.165-.07-.448-.322-.893-.646-1.339-.97-.055-.039-.112-.078-.178-.125a2.938,2.938,0,0,0-.363.55l2,1.2a1.912,1.912,0,0,1-.469.228c-.039.015-.107-.027-.153-.055-.468-.279-.936-.561-1.4-.841-.068-.041-.138-.079-.215-.124" transform="translate(-219.021 -222.811)" fill="#a50c22"/><path d="M260.091,275.035l.42-.225,1.724,1.575a.29.29,0,0,0,.01-.069q-.131-.86-.264-1.719c-.022-.144-.036-.285-.06-.426a.125.125,0,0,1,.074-.153c.1-.048.192-.1.3-.155.038.276.075.531.108.786.1.763.2,1.525.3,2.289a4.648,4.648,0,0,1,.043.669.679.679,0,0,1-.518.673c-.125.035-.138.031-.214-.076-.048-.07-.1-.141-.152-.225l.177-.076a.464.464,0,0,0,.318-.513v-.017a.714.714,0,0,0-.279-.59c-.633-.529-1.25-1.085-1.869-1.632-.038-.033-.073-.068-.122-.116" transform="translate(-237.255 -244.402)" fill="#a50c22"/><path d="M230.8,274.4c.157.083.289.151.424.225l-.341,2.314,1.736-1.572.375.2a.608.608,0,0,1-.076.1q-1.225,1.084-2.456,2.164a1.855,1.855,0,0,1-.433.28.658.658,0,0,1-.736-.128.139.139,0,0,1-.051-.18c.037-.088.072-.178.114-.282.068.048.123.085.18.119a.468.468,0,0,0,.6-.043.761.761,0,0,0,.328-.567c.077-.769.188-1.539.285-2.308.012-.1.028-.192.048-.321" transform="translate(-221.23 -244.679)" fill="#a50c22"/><path d="M260.931,226.868l.261-.223c.031.025.091.068.15.113.222.173.442.347.665.52.053.041.1.079.056.158l.1-.057,1.054.982-.284.314a14.155,14.155,0,0,0-1.417-1.214l-1.445,1.848c-.06-.185-.116-.337-.155-.487a.2.2,0,0,1,.048-.136c.085-.12.178-.236.281-.369l-.12-.028a.693.693,0,0,1-.385-1.061.532.532,0,0,1,.592-.213c.309.072.342.118.318.428,0,.033-.011.065-.02.111a1.4,1.4,0,0,0-.183-.068,2.21,2.21,0,0,0-.37-.061.324.324,0,0,0-.186.071.144.144,0,0,0,0,.246.554.554,0,0,0,.352.118h.362l.544-.7-.184-.15c-.048-.038-.089-.077-.038-.142Z" transform="translate(-237.009 -219.891)" fill="#a50c22"/><path d="M238.675,223.141l.113.221.022-.008-.051-.243a5.884,5.884,0,0,1,1.138-.32l.1.379c-.126.041-.233.078-.361.121l.637,2.237a2.02,2.02,0,0,1-.5-.144c-.031-.011-.048-.071-.064-.113-.041-.124-.076-.25-.119-.393-.058.043-.1.077-.144.109a.694.694,0,0,1-1.042-.41.636.636,0,0,1,.46-.714.133.133,0,0,1,.094.021c.085.066.166.137.256.214-.1.063-.178.113-.253.172a.577.577,0,0,0-.229.293.2.2,0,0,0,.048.223c.065.059.139.036.21,0a.743.743,0,0,0,.321-.3c.035-.057.074-.111.124-.188-.079-.273-.164-.568-.256-.889-.438.157-.841.346-1.28.508l-.164-.4.939-.379" transform="translate(-225.652 -217.89)" fill="#a50c22"/><path d="M262.621,231.952c-.118-.014-.181-.061-.187-.175a3.366,3.366,0,0,1,.061-.977.811.811,0,0,1,.38-.511.452.452,0,0,1,.728.375l.008.117c.373-.012.467.082.441.445l.163-.058a1.97,1.97,0,0,1,.135.156c.12.161.417.065.484-.112a.185.185,0,0,0-.045-.192c-.084-.1-.164-.205-.256-.32l.325-.269c.265.294.494.605.758.921l-.328.27-.212-.233c-.033.039-.062.071-.088.106a.826.826,0,0,1-.483.307.587.587,0,0,1-.393-.07.2.2,0,0,0,.006.283.77.77,0,0,0,.377.26c.07.025.144.037.244.062a3.913,3.913,0,0,1-.4.324c-.023.016-.079,0-.112-.012a.692.692,0,0,1-.45-.914c.045-.14.118-.272.178-.411-.122-.2-.259-.22-.422-.052-.1.1-.188.2-.3.317l-.156-.352c.077-.084.153-.169.231-.252.059-.064.127-.123.071-.224a.28.28,0,0,0-.294-.134.429.429,0,0,0-.277.24,1.944,1.944,0,0,0-.15.651c-.014.141-.024.283-.036.428" transform="translate(-238.465 -221.734)" fill="#a50c22"/><path d="M268.8,268.636l.313-.341,2.127.92a2.367,2.367,0,0,0-.2-.416c-.066-.14-.139-.277-.21-.415s-.14-.277-.211-.415l-.212-.414c-.07-.138-.139-.276-.212-.421l.308-.332c.056.108.1.192.144.279l1.087,2.209c.076.155.077.156-.04.279-.2.215-.138.2-.4.092q-1.172-.475-2.342-.956c-.046-.019-.091-.041-.155-.071" transform="translate(-241.775 -240.737)" fill="#a50c22"/><path d="M215.9,234.433c.066.151.117.286.184.411a.281.281,0,0,0,.133.1c.144.065.3.123.464.192-.048.127-.1.24-.148.373l-1.937-.784c.052-.128.1-.238.151-.369l.827.327.029-.03c-.025-.055-.048-.11-.074-.164-.133-.28-.264-.561-.4-.839a.245.245,0,0,1-.008-.229c.052-.113.1-.23.156-.372.041.086.072.144.1.206.1.22.2.44.294.66.067.149.072.151.236.118l1.115-.219c.06-.011.121-.017.209-.03-.063.159-.111.294-.173.421a.188.188,0,0,1-.126.067c-.3.048-.6.092-.9.137-.034,0-.066.015-.128.029" transform="translate(-213.637 -223.213)" fill="#a50c22"/><path d="M234.827,217.709c.121-.032.24-.066.36-.1a.112.112,0,0,1,.078.023.24.24,0,0,0,.245.023c.246-.082.3-.2.215-.447-.021-.059-.048-.115-.079-.2-.033.048-.055.077-.073.109a.547.547,0,0,1-.838.178.931.931,0,0,1-.359-.9.569.569,0,0,1,.769-.461l.112.036-.032-.184.3-.114a.677.677,0,0,1,.052.091c.153.4.31.791.455,1.19a1.977,1.977,0,0,1,.093.417.368.368,0,0,1-.144.337,1.194,1.194,0,0,1-.79.293.365.365,0,0,1-.369-.3m-.08-1.212a.791.791,0,0,0,.161.44.318.318,0,0,0,.361.13.34.34,0,0,0,.238-.34.7.7,0,0,0-.189-.467.327.327,0,0,0-.571.237" transform="translate(-223.899 -214.199)" fill="#a50c22"/><path d="M221.9,224.219l.269-.256.862.452.026-.025c-.148-.289-.337-.551-.5-.845l.253-.264.876.494a1.948,1.948,0,0,0-.231-.462c-.077-.147-.162-.289-.248-.44l.229-.24a9.191,9.191,0,0,1,.765,1.379l-.266.243-.818-.45-.029.031c.149.274.325.534.486.818l-.256.272-1.42-.705" transform="translate(-217.429 -217.808)" fill="#a50c22"/><path d="M231.535,216.221l1.01,1.823-.289.17c-.041-.052-.076-.1-.119-.149a.7.7,0,0,0-.043.08.577.577,0,0,1-.959.254,1.086,1.086,0,0,1-.375-.68.589.589,0,0,1,.684-.67c.027,0,.054,0,.111,0l-.35-.644.331-.184m-.028,1.041a.337.337,0,0,0-.369.352.769.769,0,0,0,.249.494.325.325,0,0,0,.394.063.333.333,0,0,0,.156-.368.793.793,0,0,0-.238-.429.851.851,0,0,0-.192-.113" transform="translate(-222.025 -214.48)" fill="#a50c22"/><path d="M266.883,221.192l-.149.134-.264-.206c.423-.553.848-1.09,1.28-1.642.057.04.108.074.156.112s.086.073.141.119c-.144.192-.284.376-.44.58.067.008.1.014.142.016a.586.586,0,0,1,.545.734,1.029,1.029,0,0,1-.543.678.568.568,0,0,1-.847-.427c0-.022-.01-.044-.021-.1m.211-.089a.308.308,0,0,0,.481.277.791.791,0,0,0,.354-.469.288.288,0,0,0-.092-.312.305.305,0,0,0-.317-.074.721.721,0,0,0-.425.577" transform="translate(-240.566 -216.17)" fill="#a50c22"/><path d="M280.791,252.9c-.025.144-.048.277-.072.433L278,252.849c.026-.136.048-.252.071-.382l.374.043a4.312,4.312,0,0,1-.273-.337.464.464,0,0,1-.043-.4.817.817,0,0,1,.215-.37l.366.212c-.03.055-.053.094-.074.134a.484.484,0,0,0,.231.718,2.379,2.379,0,0,0,.522.166c.41.082.824.147,1.236.219.045.008.089.022.163.04" transform="translate(-246.553 -232.744)" fill="#a50c22"/><path d="M227.347,238.362v.268c-.092.033-.192.073-.295.1a.3.3,0,0,0-.229.2.614.614,0,0,1-.132.2.217.217,0,0,1-.252.062.264.264,0,0,1-.184-.208.4.4,0,0,1,.24-.436.207.207,0,0,0,.118-.24c-.014-.124-.1-.178-.206-.115a3.554,3.554,0,0,0-.332.245c-.1.073-.184.157-.285.221a.655.655,0,0,1-.238.092.264.264,0,0,1-.317-.3.179.179,0,0,1,.009-.051c.144-.381.289-.761.433-1.148a1.59,1.59,0,0,1,.4.129l-.341.917.031.016a1.3,1.3,0,0,1,.115-.121,2.884,2.884,0,0,1,.381-.288.37.37,0,0,1,.544.156,2.56,2.56,0,0,1,.144.37c.048-.007.112-.016.177-.027s.133-.025.222-.042" transform="translate(-219.158 -225.398)" fill="#a50c22"/><path d="M267.141,239.511c.044-.192.078-.345.109-.495.016-.079.083-.089.14-.111q.638-.26,1.276-.517c.154-.062.307-.127.474-.2q-.05-.156-.1-.314l.388-.157.446,1.1-.394.165-.157-.353-1.076.433c-.355.144-.711.289-1.106.447" transform="translate(-240.914 -225.641)" fill="#a50c22"/><path d="M273.841,229.7c.027-.056.048-.1.075-.152q-.065-.031-.132-.06a.633.633,0,0,1-.341-.368.414.414,0,0,1,.129-.495.4.4,0,0,1,.523-.007,3.184,3.184,0,0,1,.253.231c.067.062.134.126.2.187a.26.26,0,0,0,.056.029c.144-.087.169-.134.144-.24a.372.372,0,0,0-.376-.281c-.021-.045-.048-.1-.067-.148s-.034-.093-.053-.15a.481.481,0,0,1,.492.084,1.184,1.184,0,0,1,.337.512.365.365,0,0,1-.136.456c-.144.1-.294.2-.443.3a1.557,1.557,0,0,0-.47.4c-.066-.1-.124-.192-.19-.293m.54-.5a3.762,3.762,0,0,0-.33-.292.178.178,0,0,0-.289.144.322.322,0,0,0,.068.2c.136.169.341.149.548-.055" transform="translate(-244.168 -220.706)" fill="#a50c22"/><path d="M220.932,227.138a.794.794,0,0,1,.027,1.587.85.85,0,0,1-.818-.8.809.809,0,0,1,.791-.792m-.076.362a.358.358,0,0,0-.351.481.629.629,0,0,0,.529.377.36.36,0,0,0,.34-.49.636.636,0,0,0-.519-.367" transform="translate(-216.516 -220.146)" fill="#a50c22"/><path d="M228.856,220.58l.323-.144a.557.557,0,0,1-.086.536.823.823,0,0,1-.462.312.612.612,0,0,1-.566-.126,1.023,1.023,0,0,1-.373-.6.625.625,0,0,1,.25-.653.647.647,0,0,1,.711-.092,1,1,0,0,1,.4.392c-.262.207-.546.377-.8.577a.337.337,0,0,0,.412.179c.147-.048.2-.148.192-.378m-.24-.337c-.159-.208-.337-.245-.485-.121a.3.3,0,0,0,.005.458l.481-.337" transform="translate(-220.428 -216.309)" fill="#a50c22"/><path d="M238.525,215.825c.067.214.178.312.328.314s.237-.07.313-.292l.357-.03a.582.582,0,0,1-.256.467.869.869,0,0,1-.5.148.561.561,0,0,1-.443-.2.967.967,0,0,1-.225-.88.619.619,0,0,1,.525-.481.63.63,0,0,1,.692.268.857.857,0,0,1,.162.423l-.95.262m.529-.382c-.086-.258-.25-.352-.433-.271a.293.293,0,0,0-.13.424c.183-.048.369-.1.564-.153" transform="translate(-225.822 -213.769)" fill="#a50c22"/><path d="M277.351,234.689c-.144-.3-.279-.593-.415-.88a.3.3,0,0,0-.259.32c.005.173.084.247.341.308l.091.325a.508.508,0,0,1-.486-.142.8.8,0,0,1-.254-.549.727.727,0,0,1,.071-.329.991.991,0,0,1,.989-.44.7.7,0,0,1,.326,1.132.962.962,0,0,1-.4.255m.038-.451c.217-.083.3-.252.221-.423s-.258-.216-.47-.111l.249.534" transform="translate(-245.705 -223.34)" fill="#a50c22"/><path d="M270.944,224.839l-.683-.7a.321.321,0,0,0-.141.393c.059.153.159.2.428.178.038.055.082.114.123.176.022.033.039.068.063.11a.521.521,0,0,1-.559-.018,1.213,1.213,0,0,1-.286-.269.589.589,0,0,1-.048-.679,1.032,1.032,0,0,1,.508-.472.687.687,0,0,1,.866.955,1.1,1.1,0,0,1-.27.327m-.11-.433c.185-.18.2-.361.05-.493a.3.3,0,0,0-.458.068l.407.426" transform="translate(-242.271 -218.262)" fill="#a50c22"/><path d="M258.571,216.561l-.925-.3a.317.317,0,0,0,.056.411c.133.115.25.105.456-.048l.308.162a.526.526,0,0,1-.517.252,1.2,1.2,0,0,1-.391-.115.585.585,0,0,1-.337-.574,1.044,1.044,0,0,1,.222-.639.652.652,0,0,1,.741-.219.631.631,0,0,1,.474.625.936.936,0,0,1-.086.44m-.3-.331a.312.312,0,0,0-.054-.385.27.27,0,0,0-.316-.062.263.263,0,0,0-.184.266l.554.179" transform="translate(-235.764 -214.083)" fill="#a50c22"/><path d="M219.378,231.294c-.185-.106-.358-.206-.532-.3-.1-.06-.208-.122-.316-.174-.16-.076-.269-.055-.353.058a.31.31,0,0,0,.025.41,1.046,1.046,0,0,0,.206.153c.172.1.347.2.52.3.043.026.085.055.138.089l-.183.324c-.433-.251-.86-.5-1.3-.75l.162-.3.182.068c-.008-.072-.014-.127-.019-.182a.6.6,0,0,1,.066-.35.442.442,0,0,1,.65-.214c.315.164.619.348.945.532-.066.116-.126.217-.192.331" transform="translate(-215.189 -221.82)" fill="#a50c22"/><path d="M278.942,237.776c-.056-.1-.111-.192-.169-.291a.385.385,0,0,0,0-.492c-.032-.054-.077-.107-.153-.082a.125.125,0,0,0-.076.14c0,.091.011.183.015.274a3.333,3.333,0,0,1,.013.378.4.4,0,0,1-.555.36.518.518,0,0,1-.269-.205,1.043,1.043,0,0,1-.192-.682.523.523,0,0,1,.245-.414l.174.32a.378.378,0,0,0-.066.508.337.337,0,0,0,.075.093.128.128,0,0,0,.224-.088,1.161,1.161,0,0,0-.008-.172c-.008-.149-.021-.3-.02-.446a.381.381,0,0,1,.261-.385.4.4,0,0,1,.469.119,1.049,1.049,0,0,1,.247.7.416.416,0,0,1-.217.365" transform="translate(-246.321 -225.04)" fill="#a50c22"/><path d="M228.28,275.955l-.376-.245,1.5-2.312.377.243-1.5,2.313" transform="translate(-220.546 -244.161)" fill="#a50c22"/><path d="M275.107,267.217l-.257.367L272.594,266l.253-.371,2.26,1.584" transform="translate(-243.745 -240.13)" fill="#a50c22"/><path d="M254.235,280.686l-.44.079-.525-2.7.44-.085.525,2.706" transform="translate(-233.713 -246.54)" fill="#a50c22"/><path d="M262.9,216.265l.352.192-.84,1.52.917.517c-.052.1-.1.184-.154.289l-1.279-.708c.337-.6.665-1.2,1-1.813" transform="translate(-238.192 -214.501)" fill="#a50c22"/><path d="M275.8,232.04l-.226.17a2.143,2.143,0,0,1-.185-.228.337.337,0,0,1,.119-.526c.179-.114.366-.216.548-.325.059-.035.117-.071.184-.111l-.054-.175.225-.133.118.13a.213.213,0,0,0,.068-.024.282.282,0,0,1,.4.007c.044.034.093.06.164.106l-.436.261c.038.079.072.151.113.24-.076.048-.15.094-.234.144l-.165-.226c-.232.136-.459.267-.684.4a.113.113,0,0,0-.031.178c.022.032.048.063.076.106" transform="translate(-245.156 -222.002)" fill="#a50c22"/><path d="M225.047,220.886l.295-.24,1.337,1.594-.289.252-1.346-1.6" transform="translate(-219.061 -216.777)" fill="#a50c22"/><path d="M256.755,226.619c.087-.17.16-.317.238-.463.033-.062.091-.063.151-.048a.594.594,0,0,1,.408.317.941.941,0,0,1-.325,1.2.274.274,0,0,1-.35-.02.192.192,0,0,1,.048-.34,1.2,1.2,0,0,0,.24-.128.529.529,0,0,0,.152-.181.214.214,0,0,0-.135-.315,1.357,1.357,0,0,0-.289-.038.83.83,0,0,0-.144.016" transform="translate(-235.52 -219.608)" fill="#a50c22"/><path d="M271.965,227.028l-.238-.293,1.169-.946.212.256-.113.144c.141.021.279.009.372.124a.34.34,0,0,1,.093.247l-.289.109c-.023-.043-.039-.079-.058-.113a.233.233,0,0,0-.346-.116,1.879,1.879,0,0,0-.3.2c-.165.123-.323.254-.5.393" transform="translate(-243.295 -219.446)" fill="#a50c22"/><path d="M223.457,238.446l.562-1.464.4.154-.561,1.464-.4-.153" transform="translate(-218.237 -225.257)" fill="#a50c22"/><path d="M265.918,219.3l.323.2-.8,1.275-.325-.2c.269-.433.529-.847.8-1.276" transform="translate(-239.866 -216.075)" fill="#a50c22"/><path d="M265.62,239.855a.649.649,0,0,1,.353.366.337.337,0,0,1,.006.3,1.544,1.544,0,0,1-.166.28c-.135.171-.281.333-.425.5-.072.081-.075.078-.219.027.023-.039.041-.078.066-.113.129-.183.263-.363.389-.548.086-.127.08-.161-.027-.268-.077-.076-.159-.148-.253-.235.045-.052.088-.1.133-.152l.144-.154" transform="translate(-239.891 -226.748)" fill="#a50c22"/><path d="M259.255,225.229l-.909-.464c.066-.13.125-.248.192-.385l.91.462c-.067.134-.127.253-.192.385" transform="translate(-236.349 -218.716)" fill="#a50c22"/><path d="M261.347,226.193l0,0c-.042.056-.088.037-.135.008l-.788-.492c.076-.123.144-.237.226-.367l.857.534-.156.313" transform="translate(-237.425 -219.217)" fill="#a50c22"/><path d="M271.208,265.039l-.426-.3.258-.364.421.293c-.085.124-.163.235-.253.368" transform="translate(-242.804 -239.478)" fill="#a50c22"/><path d="M231.92,271.547l.362.235a2.442,2.442,0,0,1-.272.44l-.372-.24c.1-.15.186-.286.282-.436" transform="translate(-222.484 -243.2)" fill="#a50c22"/><path d="M267.041,218.566l.183-.294.321.2-.182.3-.322-.2" transform="translate(-240.862 -215.544)" fill="#a50c22"/></g><g transform="translate(251.324 236.009)"><path d="M294.978,265.9l-1.47-3.961-.385-.048v-.478h1.63v.478l-.406.065.933,2.734.083.292h.019l.086-.289.946-2.741-.466-.062v-.478h1.582v.478l-.389.048-1.415,3.961Z" transform="translate(-293.123 -261.351)" fill="#a50c22"/><path d="M303.017,265.9v-.475l.49-.093v-3.351l-.49-.092v-.478h1.754v.478l-.487.092v3.35l.487.093v.475Z" transform="translate(-298.259 -261.35)" fill="#a50c22"/><path d="M307.516,265.9v-.474l.493-.1v-3.342l-.493-.1v-.478h1.88a1.9,1.9,0,0,1,1.758,1.063,2.474,2.474,0,0,1,.252,1.137v.089a2.512,2.512,0,0,1-.247,1.13,1.865,1.865,0,0,1-1.741,1.068Zm1.271-.6h.592a1.082,1.082,0,0,0,.673-.212,1.336,1.336,0,0,0,.427-.573,2.153,2.153,0,0,0,.148-.817v-.092a2.165,2.165,0,0,0-.148-.825,1.305,1.305,0,0,0-.427-.565,1.106,1.106,0,0,0-.673-.206h-.592Z" transform="translate(-300.595 -261.351)" fill="#a50c22"/><path d="M317.28,265.905v-.475l.487-.093v-1.01l-1.349-2.37-.407-.062v-.478H317.7v.478l-.428.056.832,1.572.068.135.012-.006.065-.126.9-1.575-.508-.056v-.478h1.655v.478l-.422.062-1.332,2.308v1.073l.49.093v.475Z" transform="translate(-305.004 -261.351)" fill="#a50c22"/><path d="M323.938,265.9v-.475l.326-.048,1.486-3.966h.755l1.467,3.966.327.048v.475h-1.427v-.475l.32-.059-.237-.705h-1.67l-.244.705.323.059v.475Zm1.55-1.834h1.269l-.582-1.661-.04-.12h-.019l-.043.126Z" transform="translate(-309.119 -261.349)" fill="#a50c22"/><path d="M334.019,265.905l-1.47-3.961-.385-.048v-.478h1.63v.478l-.407.065.934,2.734.083.292h.019l.087-.289.946-2.741-.466-.062v-.478h1.582v.478l-.389.048-1.414,3.961Z" transform="translate(-313.39 -261.351)" fill="#a50c22"/><path d="M342.058,265.9v-.475l.49-.093v-3.351l-.49-.092v-.478h1.751v.478l-.487.092v3.35l.487.093v.475Z" transform="translate(-318.526 -261.35)" fill="#a50c22"/><path d="M346.557,265.9v-.475l.49-.093v-3.351l-.49-.092v-.478h1.757v.478l-.491.092v1.4h1.963v-1.4l-.49-.092v-.478h1.753v.478l-.491.092v3.35l.491.093v.475H349.3v-.475l.49-.093v-1.346h-1.963v1.346l.49.093v.475Z" transform="translate(-320.861 -261.35)" fill="#a50c22"/><path d="M356.312,265.9v-.475l.327-.048,1.486-3.966h.755l1.467,3.966.326.048v.475h-1.427v-.475l.321-.059-.238-.705h-1.671l-.244.705.324.059v.475Zm1.55-1.834h1.267l-.582-1.661-.04-.12h-.019l-.043.126Z" transform="translate(-325.925 -261.349)" fill="#a50c22"/><path d="M366.144,265.9v-.475l.49-.093v-3.351l-.49-.092v-.478h2.074a2.164,2.164,0,0,1,.866.155,1.2,1.2,0,0,1,.546.445,1.377,1.377,0,0,1,0,1.387,1.242,1.242,0,0,1-.521.454,1.841,1.841,0,0,1-.784.169l-.914.01v1.3l.491.093v.475Zm1.267-2.472h.774a.991.991,0,0,0,.647-.177.638.638,0,0,0,.209-.516.7.7,0,0,0-.2-.526.866.866,0,0,0-.62-.2h-.807Zm1.652,2.472-.856-2.065.727-.12.727,1.631.351.074v.481Z" transform="translate(-331.029 -261.349)" fill="#a50c22"/><path d="M380.455,265.969a2.062,2.062,0,0,1-.891-.183,1.406,1.406,0,0,1-.606-.529,1.531,1.531,0,0,1-.217-.835v-2.437l-.49-.092v-.478h1.755v.478l-.49.092v2.435a1.073,1.073,0,0,0,.117.523.75.75,0,0,0,.33.315,1.108,1.108,0,0,0,.5.105,1.142,1.142,0,0,0,.507-.105.76.76,0,0,0,.333-.314,1.047,1.047,0,0,0,.118-.524v-2.435l-.49-.092v-.478h1.753v.478l-.487.092v2.435a1.542,1.542,0,0,1-.217.841,1.381,1.381,0,0,1-.608.526,2.153,2.153,0,0,1-.914.18" transform="translate(-337.314 -261.35)" fill="#a50c22"/><path d="M388.225,265.9v-.475l.49-.093v-3.351l-.49-.092v-.478H389.5l2.059,3.276.019-.007v-2.7l-.567-.092v-.478h1.757v.478l-.49.092V265.9h-.737l-2.108-3.264-.018,0v2.693l.567.093v.475Z" transform="translate(-342.492 -261.35)" fill="#a50c22"/><path d="M398.467,265.9v-.475l.491-.093v-3.351l-.491-.092v-.478h1.754v.478l-.487.092v3.35l.487.093v.475Z" transform="translate(-347.808 -261.35)" fill="#a50c22"/><path d="M404.7,265.905l-1.47-3.961-.385-.048v-.478h1.63v.478l-.406.065L405,264.7l.083.292h.019l.086-.289.946-2.741-.465-.062v-.478h1.582v.478l-.389.048-1.415,3.961Z" transform="translate(-350.08 -261.351)" fill="#a50c22"/><path d="M412.735,265.9v-.475l.491-.093v-3.351l-.491-.092v-.478h3.419v1.154h-.6l-.052-.558H414v1.271h1.575v.6H414v1.427h1.577l.053-.569h.6V265.9Z" transform="translate(-355.215 -261.35)" fill="#a50c22"/><path d="M421.113,265.9v-.475l.49-.093v-3.351l-.49-.092v-.478h2.074a2.164,2.164,0,0,1,.866.155,1.2,1.2,0,0,1,.545.445,1.267,1.267,0,0,1-.519,1.841,1.839,1.839,0,0,1-.784.169l-.914.01v1.3l.49.093v.475Zm1.267-2.472h.774a.988.988,0,0,0,.647-.177.637.637,0,0,0,.21-.516.7.7,0,0,0-.2-.526.866.866,0,0,0-.62-.2h-.807Zm1.652,2.472-.857-2.065.728-.12.727,1.631.352.074v.481Z" transform="translate(-359.564 -261.349)" fill="#a50c22"/><path d="M431.941,265.9a3.05,3.05,0,0,1-.854-.114,2.536,2.536,0,0,1-.769-.379v-1.033h.6l.1.669a1.38,1.38,0,0,0,.4.189,1.828,1.828,0,0,0,.52.071,1.188,1.188,0,0,0,.461-.079.648.648,0,0,0,.286-.221.577.577,0,0,0,.1-.337.592.592,0,0,0-.086-.318.754.754,0,0,0-.289-.248,2.537,2.537,0,0,0-.543-.2,3.846,3.846,0,0,1-.84-.32,1.389,1.389,0,0,1-.509-.444,1.154,1.154,0,0,1,.025-1.25,1.331,1.331,0,0,1,.543-.438,1.95,1.95,0,0,1,.8-.164,2.554,2.554,0,0,1,.883.13,2.115,2.115,0,0,1,.649.354v.967h-.581l-.111-.629a1.174,1.174,0,0,0-.329-.152,1.574,1.574,0,0,0-.476-.063,1.039,1.039,0,0,0-.413.077.665.665,0,0,0-.281.217.558.558,0,0,0-.1.334.5.5,0,0,0,.089.3.781.781,0,0,0,.3.229,3.7,3.7,0,0,0,.567.208,2.648,2.648,0,0,1,1.106.536,1.126,1.126,0,0,1,.376.872,1.087,1.087,0,0,1-.2.652,1.3,1.3,0,0,1-.567.433,2.184,2.184,0,0,1-.855.154" transform="translate(-364.343 -261.28)" fill="#a50c22"/><path d="M437.957,265.9v-.475l.49-.093v-3.351l-.49-.092v-.478h1.752v.478l-.487.092v3.35l.487.093v.475Z" transform="translate(-368.308 -261.35)" fill="#a50c22"/><path d="M443.526,265.905v-.475l.49-.093v-3.326h-.9l-.068.574h-.583v-1.168h3.887v1.168h-.586l-.068-.574h-.9v3.326l.49.093v.475Z" transform="translate(-370.647 -261.351)" fill="#a50c22"/><path d="M452.662,265.905v-.475l.487-.093v-1.01l-1.35-2.37-.406-.062v-.478h1.687v.478l-.429.056.832,1.572.068.135.013-.006.065-.126.9-1.575-.509-.056v-.478h1.657v.478l-.422.062-1.331,2.308v1.073l.49.093v.475Z" transform="translate(-375.282 -261.351)" fill="#a50c22"/></g><g transform="translate(251.326 220.382)"><path d="M297.616,241.576a8.48,8.48,0,0,1-2.365-.315,7.038,7.038,0,0,1-2.125-1.051v-2.859h1.665l.273,1.852a3.7,3.7,0,0,0,1.114.52,5.021,5.021,0,0,0,1.438.2,3.3,3.3,0,0,0,1.276-.218,1.77,1.77,0,0,0,.79-.611,1.587,1.587,0,0,0,.274-.93,1.635,1.635,0,0,0-.24-.879,2.071,2.071,0,0,0-.794-.687,7.049,7.049,0,0,0-1.5-.559,10.64,10.64,0,0,1-2.326-.888,3.867,3.867,0,0,1-1.409-1.23,3.2,3.2,0,0,1,.068-3.457,3.675,3.675,0,0,1,1.507-1.212,5.368,5.368,0,0,1,2.228-.452,7.076,7.076,0,0,1,2.446.359,5.857,5.857,0,0,1,1.8.982v2.672H300.1l-.307-1.742a3.276,3.276,0,0,0-.909-.423,4.443,4.443,0,0,0-1.319-.175,2.876,2.876,0,0,0-1.144.213,1.83,1.83,0,0,0-.777.6,1.532,1.532,0,0,0-.282.926,1.379,1.379,0,0,0,.248.818,2.148,2.148,0,0,0,.828.636,10.044,10.044,0,0,0,1.571.577,7.3,7.3,0,0,1,3.065,1.485,3.12,3.12,0,0,1,1.041,2.416,3,3,0,0,1-.558,1.806,3.623,3.623,0,0,1-1.571,1.2,6.06,6.06,0,0,1-2.369.428" transform="translate(-293.126 -228.789)" fill="#a50c22"/><path d="M319.713,241.57a5.222,5.222,0,0,1-2.236-.466,4.937,4.937,0,0,1-1.712-1.31,6.016,6.016,0,0,1-1.1-2,7.953,7.953,0,0,1-.385-2.527v-.188a7.928,7.928,0,0,1,.385-2.518,6.06,6.06,0,0,1,1.1-2,4.905,4.905,0,0,1,1.712-1.314,5.2,5.2,0,0,1,2.227-.465,5.365,5.365,0,0,1,2.279.465,4.849,4.849,0,0,1,1.716,1.314,5.992,5.992,0,0,1,1.084,2,8.082,8.082,0,0,1,.376,2.518v.188a8.11,8.11,0,0,1-.376,2.527,5.95,5.95,0,0,1-1.084,2,4.882,4.882,0,0,1-1.716,1.31,5.343,5.343,0,0,1-2.27.465m0-1.708a2.906,2.906,0,0,0,1.857-.577,3.381,3.381,0,0,0,1.084-1.609,7.42,7.42,0,0,0,.354-2.407v-.2a7.205,7.205,0,0,0-.359-2.381,3.444,3.444,0,0,0-1.088-1.605,2.893,2.893,0,0,0-1.857-.58,2.8,2.8,0,0,0-1.8.58,3.519,3.519,0,0,0-1.093,1.605,7.061,7.061,0,0,0-.366,2.381v.2a7.206,7.206,0,0,0,.366,2.4,3.465,3.465,0,0,0,1.1,1.613,2.822,2.822,0,0,0,1.805.577" transform="translate(-304.109 -228.782)" fill="#a50c22"/><path d="M339.33,241.584v-1.315l1.346-.256v-9.278l-1.346-.256v-1.323h4.43l3.645,8.989h.051l3.534-8.989h4.483v1.323l-1.357.256v9.278l1.357.256v1.315h-4.857v-1.315l1.425-.256V237.12l.017-5.438-.043-.008-3.852,9.628H346.6l-3.961-9.577-.042.009.111,5.242v3.039l1.476.256v1.313Z" transform="translate(-317.111 -228.976)" fill="#a50c22"/><path d="M374.068,241.583v-1.315l.9-.128,4.114-10.986h2.091l4.062,10.986.9.127v1.315h-3.952v-1.315l.888-.162-.657-1.955H377.8l-.673,1.955.9.162v1.315Zm4.3-5.079h3.508l-1.613-4.6-.111-.333h-.053l-.12.35Z" transform="translate(-335.144 -228.975)" fill="#a50c22"/><path d="M401.3,241.584v-1.315l1.357-.256v-9.278l-1.357-.256v-1.323h4.857v1.323l-1.346.256v9.278l1.346.256v1.315Z" transform="translate(-349.28 -228.976)" fill="#a50c22"/><path d="M416.74,241.583v-1.315l1.346-.256v-2.8l-3.739-6.565-1.127-.17v-1.323H417.9v1.323l-1.186.153,2.305,4.353.188.376.034-.017.179-.351,2.493-4.362-1.409-.153v-1.323h4.587v1.323l-1.17.17-3.687,6.4v2.97l1.357.256v1.314Z" transform="translate(-355.469 -228.975)" fill="#a50c22"/><path d="M435.183,241.584v-1.315l.905-.127,4.114-10.986h2.091l4.064,10.986.9.127v1.315h-3.952v-1.315l.888-.162-.657-1.955h-4.627l-.673,1.955.9.162v1.315Zm4.293-5.079h3.51l-1.613-4.6-.111-.333h-.051l-.12.35Z" transform="translate(-366.87 -228.976)" fill="#a50c22"/></g></g></g></svg>