<svg xmlns="http://www.w3.org/2000/svg" width="94.996" height="94.996" viewBox="0 0 94.996 94.996">
    <defs>
        <filter id="prefix__Path_10642" width="94.996" height="94.996" x="0" y="0" filterUnits="userSpaceOnUse">
            <feOffset dy="3"/>
            <feGaussianBlur result="blur" stdDeviation="3"/>
            <feFlood flood-opacity=".161"/>
            <feComposite in2="blur" operator="in"/>
            <feComposite in="SourceGraphic"/>
        </filter>
    </defs>
    <g id="prefix__Group_7630" data-name="Group 7630" transform="translate(11025 -13395.9)">
        <g transform="translate(-11025 13395.9)">
            <g id="prefix__Path_10642-2" data-name="Path 10642" style="fill:rgba(0,0,0,.6)">
                <path d="M38.498 75.996c-5.063 0-9.973-.991-14.596-2.946-4.465-1.889-8.475-4.593-11.92-8.037-3.443-3.444-6.147-7.454-8.036-11.92C1.991 48.472 1 43.562 1 38.499c0-5.063.991-9.973 2.946-14.596 1.889-4.465 4.593-8.475 8.037-11.92 3.444-3.443 7.454-6.147 11.92-8.036C28.524 1.991 33.434 1 38.497 1c5.063 0 9.973.991 14.596 2.946 4.465 1.889 8.475 4.593 11.92 8.037 3.443 3.444 6.147 7.454 8.036 11.92 1.955 4.622 2.946 9.532 2.946 14.595 0 5.063-.991 9.973-2.946 14.596-1.889 4.465-4.593 8.475-8.037 11.92-3.444 3.443-7.454 6.147-11.92 8.036-4.622 1.955-9.532 2.946-14.595 2.946z" style="stroke:none" transform="translate(9 6)"/>
                <path d="M38.498 2c-4.928 0-9.708.965-14.206 2.867-4.346 1.839-8.25 4.47-11.602 7.823-3.353 3.353-5.984 7.256-7.823 11.602C2.965 28.79 2 33.57 2 38.498c0 4.928.965 9.708 2.867 14.206 1.839 4.346 4.47 8.25 7.823 11.602 3.353 3.353 7.256 5.985 11.602 7.823 4.498 1.902 9.278 2.867 14.206 2.867 4.928 0 9.708-.965 14.206-2.867 4.346-1.838 8.25-4.47 11.602-7.823 3.353-3.352 5.985-7.256 7.823-11.602 1.902-4.498 2.867-9.278 2.867-14.206 0-4.928-.965-9.708-2.867-14.206-1.838-4.346-4.47-8.25-7.823-11.602-3.352-3.353-7.256-5.984-11.602-7.823C48.206 2.965 43.426 2 38.498 2m0-2C59.76 0 76.996 17.236 76.996 38.498c0 21.262-17.236 38.498-38.498 38.498C17.236 76.996 0 59.76 0 38.498 0 17.236 17.236 0 38.498 0z" style="stroke:none;fill:#fff" transform="translate(9 6)"/>
            </g>
        </g>
        <path id="prefix__Path_5584" d="M978.157 1031.288v29.092l19.633-13.715z" data-name="Path 5584" transform="translate(-11964.156 12394.612)" style="fill:#fff"/>
    </g>
</svg>
