<svg xmlns="http://www.w3.org/2000/svg" xmlns:xlink="http://www.w3.org/1999/xlink" width="94.996" height="94.996" viewBox="0 0 94.996 94.996"><defs><filter id="a" x="0" y="0" width="94.996" height="94.996" filterUnits="userSpaceOnUse"><feOffset dy="3" input="SourceAlpha"/><feGaussianBlur stdDeviation="3" result="b"/><feFlood flood-opacity="0.161"/><feComposite operator="in" in2="b"/><feComposite in="SourceGraphic"/></filter></defs><g transform="translate(11025 -13395.9)"><g transform="matrix(1, 0, 0, 1, -11025, 13395.9)" filter="url(#a)"><g transform="translate(9 6)" fill="#b7202e"><path d="M 38.498046875 75.99609375 C 33.43540191650391 75.99609375 28.52472496032715 75.00479125976562 23.90242385864258 73.04972839355469 C 19.43730163574219 71.1611328125 15.42700290679932 68.45724487304688 11.98292446136475 65.01316833496094 C 8.538846969604492 61.569091796875 5.834958076477051 57.55879211425781 3.946380138397217 53.09366989135742 C 1.991302371025085 48.47137069702148 1.000002384185791 43.56069183349609 1.000002384185791 38.498046875 C 1.000002384185791 33.43540191650391 1.991302371025085 28.52472496032715 3.946380138397217 23.90242385864258 C 5.834958076477051 19.43730163574219 8.538846969604492 15.42700290679932 11.98292446136475 11.98292446136475 C 15.42700290679932 8.538846969604492 19.43730163574219 5.834958076477051 23.90242385864258 3.946380138397217 C 28.52472496032715 1.991302371025085 33.43540191650391 1.000002384185791 38.498046875 1.000002384185791 C 43.56069183349609 1.000002384185791 48.47137069702148 1.991302371025085 53.09366989135742 3.946380138397217 C 57.55879211425781 5.834958076477051 61.569091796875 8.538846969604492 65.01316833496094 11.98292446136475 C 68.45724487304688 15.42700290679932 71.1611328125 19.43730163574219 73.04972839355469 23.90242385864258 C 75.00479125976562 28.52472496032715 75.99609375 33.43540191650391 75.99609375 38.498046875 C 75.99609375 43.56069183349609 75.00479125976562 48.47137069702148 73.04972839355469 53.09366989135742 C 71.1611328125 57.55879211425781 68.45724487304688 61.569091796875 65.01316833496094 65.01316833496094 C 61.569091796875 68.45724487304688 57.55879211425781 71.1611328125 53.09366989135742 73.04972839355469 C 48.47137069702148 75.00479125976562 43.56069183349609 75.99609375 38.498046875 75.99609375 Z" stroke="none"/><path d="M 38.498046875 2 C 33.56996536254883 2 28.79035186767578 2.964729309082031 24.29197692871094 4.867378234863281 C 19.94604873657227 6.705551147460938 16.04258728027344 9.337471008300781 12.69003295898438 12.69003295898438 C 9.337471008300781 16.04258728027344 6.705551147460938 19.94604873657227 4.867378234863281 24.29197692871094 C 2.964729309082031 28.79035186767578 2 33.56996536254883 2 38.498046875 C 2 43.42612838745117 2.964729309082031 48.20574188232422 4.867378234863281 52.70411682128906 C 6.705551147460938 57.050048828125 9.337471008300781 60.95350646972656 12.69003295898438 64.30606079101562 C 16.04258728027344 67.65862274169922 19.94604873657227 70.29054260253906 24.29197692871094 72.12871551513672 C 28.79035186767578 74.03136444091797 33.56996536254883 74.99609375 38.498046875 74.99609375 C 43.42612838745117 74.99609375 48.20574188232422 74.03136444091797 52.70411682128906 72.12871551513672 C 57.050048828125 70.29054260253906 60.95350646972656 67.65862274169922 64.30606079101562 64.30606079101562 C 67.65862274169922 60.95350646972656 70.29054260253906 57.050048828125 72.12871551513672 52.70411682128906 C 74.03136444091797 48.20574188232422 74.99609375 43.42612838745117 74.99609375 38.498046875 C 74.99609375 33.56996536254883 74.03136444091797 28.79035186767578 72.12871551513672 24.29197692871094 C 70.29054260253906 19.94604873657227 67.65862274169922 16.04258728027344 64.30606079101562 12.69003295898438 C 60.95350646972656 9.337471008300781 57.050048828125 6.705551147460938 52.70411682128906 4.867378234863281 C 48.20574188232422 2.964729309082031 43.42612838745117 2 38.498046875 2 M 38.498046875 0 C 59.75992965698242 0 76.99609375 17.23616409301758 76.99609375 38.498046875 C 76.99609375 59.75992965698242 59.75992965698242 76.99609375 38.498046875 76.99609375 C 17.23616409301758 76.99609375 0 59.75992965698242 0 38.498046875 C 0 17.23616409301758 17.23616409301758 0 38.498046875 0 Z" stroke="none" fill="#fff"/></g></g><path d="M978.157,1031.288v29.092l19.633-13.715Z" transform="translate(-11964.156 12394.612)" fill="#fff"/></g></svg>