<svg xmlns="http://www.w3.org/2000/svg" xmlns:xlink="http://www.w3.org/1999/xlink" width="206" height="87" viewBox="0 0 206 87"><defs><style>.a{fill:#fff;stroke:#707070;}.b{clip-path:url(#a);}.c{clip-path:url(#b);}</style><clipPath id="a"><rect class="a" width="206" height="87" transform="translate(85 1376)"/></clipPath><clipPath id="b"><path d="M0-732H225.171v155.3H0Z" transform="translate(0 731.998)"/></clipPath></defs><g class="b" transform="translate(-85 -1376)"><g transform="translate(72 2077.998)"><g transform="translate(0 -731.998)"><g class="c"><g transform="translate(13.18 58.325)"><path d="M-176.163-197.088c-.963-5.329,1.462-9.77,3.712-14.256-.544,4.934-.926,9.91-3.712,14.256m14.232-28.724a4.614,4.614,0,0,0-.8.576c-1.915,1.464-3.829,2.929-6.063,4.639.242-.819.35-1.219.479-1.613,1.352-4.112,2.748-8.21,4.028-12.343a8.559,8.559,0,0,0,.186-2.914,1.024,1.024,0,0,0-1.5-.964,3.323,3.323,0,0,0-1.581.856c-2.3,3.018-4.979,5.788-6.3,9.478-.975,2.727-5.1,5.146-8.171,4.6.414-1.3.55-2.73,1.257-3.772,2.592-3.815,5.386-7.494,8.065-11.251a3.586,3.586,0,0,0,.291-1.309,6.592,6.592,0,0,0-1.753-.111c-.345.067-.647.522-.9.854a81.463,81.463,0,0,0-5.015,6.652c-2.37,3.833-5.832,6.64-8.788,9.918-.848.94-1.78.722-2.122-.5a6.013,6.013,0,0,1-.195-3.109c2.088-7.216,5.854-13.64,9.692-20.021.274-.455.527-.924.793-1.393a3.168,3.168,0,0,0-4.368,1.066c-.643.872-1.336,1.707-1.969,2.585-2.917,4.053-5.793,8.136-8.739,12.168-2.015,2.758-4.12,5.451-6.184,8.173,2.132-9.372,6.53-17.746,10.661-26.229-1.548-.643-1.926-.572-3.035.847q-14.622,18.71-29.215,37.443a5.285,5.285,0,0,0-.422.774,2.278,2.278,0,0,0,1.75-.38,28.812,28.812,0,0,0,3.329-3.442q10.536-13.7,20.983-27.472a9.852,9.852,0,0,1-.384,1.541c-.949,2.307-2.029,4.564-2.894,6.9-1.469,3.968-2.817,7.98-4.2,11.98a2.019,2.019,0,0,0,.568,2.557c.958.627,1.832.018,2.51-.661a16.552,16.552,0,0,0,1.888-2.276q6.032-8.714,12.025-17.455c.218-.316.486-.6.9-1.1-1.591,3.764-3.1,7.251-4.535,10.768-.639,1.565-1.178,3.177-1.677,4.793-.663,2.146-.155,3.987,1.273,4.969,1.343.925,2.911.736,4.805-.691.928-.7,1.758-1.53,2.642-2.31,1.521,2.736,3.184,3.163,5.827,1.564,1.451-.877,2.9-1.752,4.377-2.591.287-.163.831-.334.982-.2.822.745,1.373.128,1.979-.282.564-.382,1.121-.777,1.68-1.166-.905,4.189-1.51,8.336-3.428,12.13a85.505,85.505,0,0,0-3.471,7.872,23.9,23.9,0,0,0-1.608,9.967,2.132,2.132,0,0,0,1.731,2.253,2.534,2.534,0,0,0,1.986-1.141,17.879,17.879,0,0,0,2.022-4.743c.983-4.358,1.778-8.761,2.552-13.163.575-3.271,1.492-6.344,4.144-8.575,1.116-.939,2.34-1.748,3.474-2.666a6.647,6.647,0,0,0,1.2-1.35c.1-.146,0-.534-.134-.713-.086-.111-.447-.112-.623-.03" transform="translate(223.602 250.162)"/></g><g transform="translate(104.506 62.74)"><path d="M-420.873-39.6c-.22-.365-1.283-.283-1.966-.285-.505,0-1.013.285-1.517.274-2.257-.05-4.515-.114-6.767-.257-6.719-.426-13.433-.917-20.152-1.331-3.243-.2-3.59-.518-3.521-3.791a1.656,1.656,0,0,0-.014-.7c-.368-.747-.792-1.468-1.194-2.2a12.116,12.116,0,0,0-2,1.47c-.972,1.068-1.786,2.279-2.71,3.394-.162.195-.541.21-.82.309-.013-.294-.134-.64-.021-.872.576-1.184,1.308-2.3,1.782-3.522.2-.5.085-1.549-.239-1.736a2.314,2.314,0,0,0-1.915.07,3.924,3.924,0,0,0-1.205,1.51,13.741,13.741,0,0,1-7.042,5.842,1.992,1.992,0,0,1-1.679-.05,2.57,2.57,0,0,1-.443-1.778,6.762,6.762,0,0,1,.559-1.735c.608-1.788.412-2.26-1.043-3.349-1.268-.948-2.289-.515-3.266.4-.651.61-1.2,1.338-1.886,1.9a39.524,39.524,0,0,1-4.562,3.48,8.824,8.824,0,0,1-3.232.762c-.867.125-1.238-.43-1-1.225a10.819,10.819,0,0,1,.97-2.3c.54-.933.639-2.623-.05-3-1.072-.586-1.827.121-2.327.947-.848,1.4-1.592,2.864-2.344,4.32a7.569,7.569,0,0,1-4.6,4.112c-1.2.356-1.8-.218-1.544-1.44a5.189,5.189,0,0,1,.324-.933c.933-2.21,1.851-4.427,2.819-6.622a1.518,1.518,0,0,0-.75-2.122c-.943-.623-1.14.268-1.489.716a16.731,16.731,0,0,0-1.391,2.125A81.626,81.626,0,0,1-505.8-34.357c-3.305,3.926-6.473,7.973-9.9,11.791-5.032,5.608-10.26,11.039-15.354,16.592-1.161,1.266-2.113,2.724-3.156,4.087,1.38,1.084,1.824,1,2.708-.063,3.814-4.608,7.473-9.362,11.533-13.744,6.948-7.5,14.169-14.753,19.928-23.268.085-.126.258-.192.5-.366.106.492.188.85.259,1.211.441,2.225,1.388,2.827,3.5,1.968a27.338,27.338,0,0,0,4.1-2.186,2.924,2.924,0,0,1,3.1-.466,4.317,4.317,0,0,0,2.343.045c1.275-.212,2.523-.578,3.745-.871.809,1.767,1.5,2.187,2.971,1.651a9.025,9.025,0,0,0,2.129-1.325c.633-.466,1.2-1.021,1.936-1.656,1.808,2.758,4.091,2.382,6.512,1.2,1.138-.555,2.306-1.05,3.488-1.585a3.563,3.563,0,0,1,.314.524c.819,2.2,1.5,2.495,3.661,1.4,1.128-.57,2.179-1.29,3.418-2.035,1.244,2.557,3.094,3.654,5.816,2.894a1.488,1.488,0,0,1,.423-.006c7.58.211,15.162.378,22.739.663,1.961.074,4.1-.223,5.68,1.511a1.212,1.212,0,0,0,1.06.245c.666-.233,1.66-.519,1.809-1a3.342,3.342,0,0,0-.342-2.46" transform="translate(534.211 50.267)"/></g><g transform="translate(84.28 49.528)"><path d="M-107.777-39.736c-1.009,3.2-2.27,6.232-3.419,9.3-1.2,3.216-2.316,6.466-3.428,9.715-.424,1.24-.137,1.69,1.1,1.425a6.4,6.4,0,0,0,2.27-1.425c1.059-.823,2-1.8,3.1-2.561.848-.585,1.394-.261,1.661.832.691,2.833,1.5,5.638,2.292,8.444.117.41.357.966.686,1.1a2.187,2.187,0,0,0,2.97-1.7c.144-.975.142-1.972.278-2.948a27.881,27.881,0,0,1,.847-5.122c3.17-9.306,8.27-17.317,16.287-23.219,1-.738,2.419-.893,3.593-1.428.576-.262,1.319-.7,1.46-1.2.111-.4-.463-1.216-.94-1.507a2.872,2.872,0,0,0-3.626.6,124.485,124.485,0,0,0-9.689,9.47c-4.594,5.391-7.459,11.839-10.012,18.4-.221.568-.447,1.134-.8,2.031-1.316-6.06-2.262-6.818-7.161-5.946a12.642,12.642,0,0,1,.354-1.363c1.648-4.305,3.32-8.6,4.96-12.909a4.277,4.277,0,0,0,.435-1.887,2.62,2.62,0,0,0-.922-1.617c-.219-.167-1.013.234-1.419.545a5.794,5.794,0,0,0-1.2,1.377c-5.024,7.4-10.021,14.826-15.068,22.214a21.591,21.591,0,0,1-2.2,2.383,1.467,1.467,0,0,1-.363-1.026c.407-4.033.857-8.053,2.6-11.8a12.617,12.617,0,0,0,1.083-3.188c.082-.493-.49-1.095-.765-1.647a4.16,4.16,0,0,0-1.232.7c-1.838,2.209-3.577,4.5-5.439,6.688-1.265,1.485-2.678,2.844-4.024,4.26l-.307-.226c.188-.516.358-1.038.566-1.545,2.505-6.093,5.028-12.18,7.5-18.286a3.887,3.887,0,0,0-.03-1.459,5.517,5.517,0,0,0-1.943.188c-.424.206-.695.87-.888,1.384q-3.985,10.643-7.92,21.3a2.291,2.291,0,0,0-.263,1.219,3.688,3.688,0,0,0,.914,1.759c.248.219,1.139.051,1.484-.243a30.416,30.416,0,0,0,3.955-3.767c1.272-1.562,2.242-3.368,3.362-5.056.3-.46.675-.876,1.015-1.313a33.864,33.864,0,0,1-1.01,4.2,22.227,22.227,0,0,0-.811,9.078,2.627,2.627,0,0,0,1.338,1.886,3.562,3.562,0,0,0,2.362-.677,4.811,4.811,0,0,0,1.38-1.584c1.378-2.135,2.723-4.293,4.055-6.457q5.182-8.413,10.35-16.835a3.268,3.268,0,0,1,.6-.576" transform="translate(136.8 50.437)"/></g></g></g></g></g></svg>