<svg xmlns="http://www.w3.org/2000/svg" width="21" height="21" viewBox="0 0 21 21">
    <path d="M21.381 9.454a.506.506 0 0 0-.009-.093.256.256 0 0 0-.013-.084 1.009 1.009 0 0 0-.031-.123 1.325 1.325 0 0 0-.163-.361.383.383 0 0 0-.031-.044.91.91 0 0 0-.062-.075 1.35 1.35 0 0 0-.159-.159c-.026-.022-.048-.044-.079-.066l-.04-.026a1.322 1.322 0 0 0-.361-.163 1.01 1.01 0 0 0-.123-.031.257.257 0 0 0-.084-.013.506.506 0 0 0-.093-.009.455.455 0 0 0-.07 0h-5.286v-.885A1.32 1.32 0 0 0 13.455 6H9.93a1.32 1.32 0 0 0-1.321 1.322V8.2H3.322a.455.455 0 0 0-.07 0 .506.506 0 0 0-.093.009.257.257 0 0 0-.084.013 1.01 1.01 0 0 0-.123.031 1.322 1.322 0 0 0-.361.163.381.381 0 0 0-.044.031.911.911 0 0 0-.075.062 1.349 1.349 0 0 0-.159.159c-.022.026-.044.048-.066.079l-.026.04a1.325 1.325 0 0 0-.163.361 1.01 1.01 0 0 0-.031.123.256.256 0 0 0-.013.084.506.506 0 0 0-.014.099.456.456 0 0 0 0 .07V20.98a.442.442 0 0 0 .441.441h18.5a.442.442 0 0 0 .441-.441V9.525a.456.456 0 0 0 0-.07zM9.49 7.322a.442.442 0 0 1 .441-.441h3.525a.442.442 0 0 1 .441.441V8.2H9.49zM2.881 9.533v-.04a.233.233 0 0 0 0-.057.552.552 0 0 1 .066-.159c.009-.013.022-.026.031-.04L3 9.225l.013-.013a.693.693 0 0 1 .053-.048s.009 0 .013-.009c.026-.013.049-.026.07-.035a.282.282 0 0 1 .07-.026h.013a.151.151 0 0 0 .044 0 .215.215 0 0 0 .053 0h16.766a.234.234 0 0 0 .057 0 .552.552 0 0 1 .159.066c.013.009.026.022.04.031l.013.013.013.013a.684.684 0 0 1 .049.053s0 .009.009.013c.013.026.026.048.035.07a.281.281 0 0 1 .026.07v.013a.15.15 0 0 0 0 .044.214.214 0 0 0 0 .053v2.635a2.2 2.2 0 0 1-2.2 2.2h-5.061v-.441a1.326 1.326 0 0 0-1.322-1.322h-.441a1.326 1.326 0 0 0-1.322 1.322v.441H5.084a2.2 2.2 0 0 1-2.2-2.2zm8.151 4.4a.442.442 0 0 1 .441-.441h.441a.442.442 0 0 1 .441.441v1.762a.442.442 0 0 1-.441.441h-.441a.442.442 0 0 1-.441-.441zm9.468 6.606H2.881v-6.216a3.071 3.071 0 0 0 2.2.93h5.067v.441a1.326 1.326 0 0 0 1.322 1.322h.441a1.326 1.326 0 0 0 1.322-1.322v-.441H18.3a3.071 3.071 0 0 0 2.2-.93z" transform="translate(-1.119 -3.356)"/>
    <path d="M21.956 13.364v-.014a.282.282 0 0 0-.026-.07.266.266 0 0 1 .026.084zM4.61 13.046a.266.266 0 0 1 .084-.026H4.68a.282.282 0 0 0-.07.026z" transform="translate(-2.579 -7.284)"/>
</svg>
