<svg xmlns="http://www.w3.org/2000/svg" width="13.535" height="13.844" viewBox="0 0 13.535 13.844">
    <path id="prefix__filter" d="M13.046 0H1.06a.563.563 0 0 0-.5.306A.571.571 0 0 0 .6.9l4.394 6.186v.006a1.255 1.255 0 0 1 .246.744v5.044a.561.561 0 0 0 .561.564.577.577 0 0 0 .221-.044l2.468-.941a.534.534 0 0 0 .368-.527v-4.1a1.255 1.255 0 0 1 .246-.744v-.006L13.5.9a.57.57 0 0 0 .044-.594.563.563 0 0 0-.5-.306zM8.558 6.688a1.943 1.943 0 0 0-.379 1.149v4.012l-2.252.859V7.837a1.942 1.942 0 0 0-.379-1.149L1.285.682h11.536zm0 0" transform="translate(-.286 .2)" style="stroke:#000;stroke-width:.4px"/>
</svg>
