<svg xmlns="http://www.w3.org/2000/svg" width="19.576" height="28.697" viewBox="0 0 19.576 28.697">
    <g>
        <g>
            <path stroke="#000" d="M74.139 7.219h-4.074A8.03 8.03 0 0 0 66.848 1.6h7.291a.8.8 0 0 0 0-1.6H57.167a.8.8 0 1 0 0 1.6h4.861a6.482 6.482 0 0 1 6.425 5.615H57.167a.8.8 0 1 0 0 1.6h11.285a6.492 6.492 0 0 1-6.425 5.695h-4.852a.815.815 0 0 0-.8.826.828.828 0 0 0 .249.578L68.757 27.4a.8.8 0 0 0 1.131-.032.819.819 0 0 0-.032-1.147L59.18 16.122h2.84a8.1 8.1 0 0 0 8.045-7.3h4.075a.8.8 0 0 0 0-1.6z" transform="translate(-55.865 .5) translate(56.365) translate(-56.365)"/>
        </g>
    </g>
</svg>
