<svg xmlns="http://www.w3.org/2000/svg" width="20.676" height="19.677" viewBox="0 0 20.676 19.677">
    <defs>
        <style>
            .cls-1{stroke:#000;stroke-width:.5px}
        </style>
    </defs>
    <g id="noun_institute_1894007" transform="translate(1172.063 -119.693)">
        <g id="Group_10613" transform="translate(-1171.676 119.95)">
            <g id="Group_10600" transform="translate(0 16.608)">
                <g id="Group_10599">
                    <path id="Path_18028" d="M71.685 841.959H53.008c-.251 0-.508-.013-.759 0h-.032l.216.216v-1.989l-.216.216h18.677c.251 0 .508.013.759 0h.032l-.216-.216v1.989a.216.216 0 0 0 .432 0v-1.989a.22.22 0 0 0-.216-.216H53.008c-.253 0-.506-.006-.759 0h-.032a.22.22 0 0 0-.216.216v1.989a.22.22 0 0 0 .216.216h18.677c.253 0 .506.006.759 0h.032a.216.216 0 0 0 0-.432z" class="cls-1" transform="translate(-52 -839.967)"/>
                </g>
            </g>
            <g id="Group_10602" transform="translate(.432)">
                <g id="Group_10601">
                    <path id="Path_18029" d="M90.6 77.727v1.081l.216-.216H72.973c-.242 0-.487-.011-.727 0h-.032l.216.216v-1.081c-.037.063-.071.125-.108.186l.93-.554 2.234-1.33 2.692-1.6 2.335-1.39.768-.456c.121-.071.253-.136.368-.218a.054.054 0 0 1 .015-.009h-.218l.921.554 2.214 1.33 2.669 1.6 2.316 1.39c.374.225.744.465 1.124.675l.015.009a.217.217 0 0 0 .218-.374L90 76.985l-2.214-1.33-2.668-1.6-2.318-1.392c-.374-.225-.744-.465-1.124-.675l-.015-.009a.219.219 0 0 0-.218 0c-.372.223-.746.443-1.118.666l-2.6 1.548-2.953 1.757q-1.087.652-2.182 1.3c-.154.091-.309.179-.461.275a.312.312 0 0 0-.13.3v.984a.22.22 0 0 0 .216.216h18.607a.22.22 0 0 0 .216-.216v-1.08a.217.217 0 0 0-.438-.002z" class="cls-1" transform="translate(-72 -71.95)"/>
                </g>
            </g>
            <g id="Group_10604" transform="translate(1.3 8.136)">
                <g id="Group_10603">
                    <path id="Path_18030" d="M114.694 456.675h-2.374l.216.216.013-.843.032-2.024.039-2.45.035-2.117c0-.231.007-.463.011-.692 0-.11.013-.225 0-.333v-.015l-.216.216h2.1l-.216-.216.013.843.032 2.024.039 2.45.035 2.117c.006.342 0 .685.017 1.027v.015a.216.216 0 0 0 .433 0l-.013-.843-.032-2.024-.039-2.45-.035-2.117c-.006-.342 0-.685-.017-1.027v-.015a.22.22 0 0 0-.216-.216h-2.1a.22.22 0 0 0-.216.216l-.013.843-.032 2.024-.039 2.45-.035 2.117c-.006.342-.026.685-.017 1.027v.015a.22.22 0 0 0 .216.216h2.374a.217.217 0 0 0 .005-.434z" class="cls-1" transform="translate(-112.099 -448.2)"/>
                </g>
            </g>
            <g id="Group_10606" transform="translate(6.096 8.136)">
                <g id="Group_10605">
                    <path id="Path_18031" d="M336.494 456.675h-2.374l.216.216.013-.843.032-2.024.039-2.45.035-2.117c0-.231.007-.463.011-.692 0-.11.013-.225 0-.333v-.015l-.216.216h2.1l-.216-.216.013.843.032 2.024.039 2.45.035 2.117c.007.342 0 .685.017 1.027v.015a.216.216 0 0 0 .432 0l-.013-.843-.032-2.024-.039-2.45-.035-2.117c-.007-.342 0-.685-.017-1.027v-.015a.22.22 0 0 0-.216-.216h-2.1a.22.22 0 0 0-.216.216l-.013.843-.032 2.024-.039 2.45-.035 2.117c-.006.342-.026.685-.017 1.027v.015a.22.22 0 0 0 .216.216h2.374a.217.217 0 0 0 .006-.434z" class="cls-1" transform="translate(-333.899 -448.2)"/>
                </g>
            </g>
            <g id="Group_10608" transform="translate(15.689 8.136)">
                <g id="Group_10607">
                    <path id="Path_18032" d="M780.094 456.675h-2.374l.216.216.013-.843.032-2.024.039-2.45.035-2.117c0-.231.007-.463.011-.692 0-.11.013-.225 0-.333v-.015l-.216.216h2.1l-.216-.216.013.843.032 2.024.039 2.45.035 2.117c.006.342 0 .685.017 1.027v.015a.216.216 0 0 0 .432 0l-.013-.843-.033-2.024-.039-2.45-.035-2.117c-.006-.342 0-.685-.017-1.027v-.015a.22.22 0 0 0-.216-.216h-2.1a.22.22 0 0 0-.216.216l-.013.843-.033 2.024-.039 2.45-.035 2.117c-.007.342-.026.685-.017 1.027v.015a.22.22 0 0 0 .216.216h2.374a.217.217 0 0 0 .008-.434z" class="cls-1" transform="translate(-777.499 -448.2)"/>
                </g>
            </g>
            <g id="Group_10610" transform="translate(10.892 8.154)">
                <g id="Group_10609">
                    <path id="Path_18033" d="M558.294 457.457h-2.374l.216.216c0-.279.009-.56.013-.839l.032-2.018.039-2.441.035-2.113c0-.234.007-.467.011-.7 0-.108.013-.223 0-.331v-.015l-.216.216h2.1l-.216-.216c0 .279.009.56.013.839l.033 2.018.039 2.441.035 2.113c.006.344 0 .688.017 1.031v.015a.216.216 0 0 0 .432 0c0-.279-.009-.56-.013-.839l-.032-2.018-.039-2.441-.035-2.113c-.007-.344 0-.688-.017-1.032v-.015a.22.22 0 0 0-.216-.216h-2.1a.22.22 0 0 0-.216.216l-.013.839-.032 2.018-.039 2.441-.035 2.113c-.006.342-.026.688-.017 1.031v.015a.22.22 0 0 0 .216.216h2.374a.216.216 0 0 0 .005-.431z" class="cls-1" transform="translate(-555.699 -449)"/>
                </g>
            </g>
            <g id="Group_10612" transform="translate(8.312 2.319)">
                <g id="Group_10611">
                    <path id="Path_18034" d="M439.224 180.821a1.212 1.212 0 1 1-.988-1.192 1.221 1.221 0 0 1 .988 1.192.216.216 0 0 0 .432 0 1.644 1.644 0 1 0-1.319 1.611 1.668 1.668 0 0 0 1.319-1.611.218.218 0 0 0-.432 0z" class="cls-1" transform="translate(-436.373 -179.177)"/>
                </g>
            </g>
        </g>
    </g>
</svg>
