<svg xmlns="http://www.w3.org/2000/svg" width="19.98" height="19.979" viewBox="0 0 19.98 19.979"><defs><style>.a{stroke:#545557;stroke-width:0.4px;}.b{stroke:#000;stroke-width:0.5px;}</style></defs><g transform="translate(-113.8 -610.8)"><g transform="translate(114.001 611)"><g transform="translate(-0.001)"><path class="a" d="M16.553,2.782a9.911,9.911,0,0,0-13.771,0A9.911,9.911,0,0,0,16.8,16.8,9.911,9.911,0,0,0,16.553,2.782Zm-.222,13.549,0,0A9.251,9.251,0,1,1,19.04,9.79,9.251,9.251,0,0,1,16.327,16.328Z" transform="translate(0.001)"/></g></g><g transform="translate(99.97 608.001)"><g transform="translate(19.031 5.999)"><path class="b" d="M23.518,6A4.47,4.47,0,0,0,19.18,9.3a4.924,4.924,0,0,0-.15,1.319,7.2,7.2,0,0,0,1.732,4.075,19.708,19.708,0,0,1,2.493,3.871.29.29,0,0,0,.535,0,19.709,19.709,0,0,1,2.493-3.871,7.2,7.2,0,0,0,1.732-4.075,4.924,4.924,0,0,0-.15-1.319A4.47,4.47,0,0,0,23.527,6Zm0,.58h.009A3.879,3.879,0,0,1,27.3,9.449a4.394,4.394,0,0,1,.131,1.17,6.718,6.718,0,0,1-1.623,3.735A24.837,24.837,0,0,0,23.523,17.8a24.837,24.837,0,0,0-2.289-3.445,6.718,6.718,0,0,1-1.623-3.735,4.394,4.394,0,0,1,.131-1.17A3.879,3.879,0,0,1,23.518,6.58Zm0,2.013a1.859,1.859,0,1,0,1.863,1.863A1.864,1.864,0,0,0,23.514,8.592Zm0,.58a1.278,1.278,0,1,1-1.283,1.278A1.282,1.282,0,0,1,23.514,9.173Z" transform="translate(-19.031 -5.999)"/></g></g></g></svg>