<svg xmlns="http://www.w3.org/2000/svg" width="19.325" height="14.519" viewBox="0 0 19.325 14.519"><defs><style>.a{stroke:#000;stroke-width:0.1px;}</style></defs><g transform="translate(0.05 -63.95)"><g transform="translate(0 64)"><path class="a" d="M17.623,64H1.6A1.6,1.6,0,0,0,0,65.6V76.817a1.6,1.6,0,0,0,1.6,1.6H17.623a1.6,1.6,0,0,0,1.6-1.6V65.6A1.6,1.6,0,0,0,17.623,64ZM1.6,64.8H17.623a.762.762,0,0,1,.166.034c-1.387,1.269-5.986,5.477-7.6,6.927a.8.8,0,0,1-1.163,0c-1.609-1.45-6.209-5.658-7.6-6.927A.766.766,0,0,1,1.6,64.8ZM.8,76.817V65.6a.774.774,0,0,1,.045-.221c1.062.972,4.271,3.907,6.352,5.8C5.123,72.962,1.913,76.005.843,77.026A.772.772,0,0,1,.8,76.817Zm16.822.8H1.6a.766.766,0,0,1-.181-.037c1.106-1.054,4.336-4.115,6.374-5.858l.7.633a1.6,1.6,0,0,0,2.235,0l.7-.633c2.038,1.743,5.268,4.8,6.374,5.858A.766.766,0,0,1,17.623,77.618Zm.8-.8a.773.773,0,0,1-.042.209C17.311,76,14.1,72.962,12.028,71.18c2.081-1.892,5.29-4.828,6.352-5.8a.774.774,0,0,1,.045.221Z" transform="translate(0 -64)"/></g></g></svg>