<svg xmlns="http://www.w3.org/2000/svg" width="19.98" height="19.979" viewBox="0 0 19.98 19.979"><defs><style>.a{stroke:#000;stroke-width:0.4px;}</style></defs><g transform="translate(0.201 0.2)"><g transform="translate(-0.001)"><path class="a" d="M16.553,2.782a9.911,9.911,0,0,0-13.771,0A9.911,9.911,0,0,0,16.8,16.8,9.911,9.911,0,0,0,16.553,2.782Zm-.222,13.549,0,0A9.251,9.251,0,1,1,19.04,9.79,9.251,9.251,0,0,1,16.327,16.328Z" transform="translate(0.001)"/></g><g transform="translate(3.899 3.959)"><path class="a" d="M112.17,110.905l-1.857-1.85a1.08,1.08,0,0,0-1.528,0l0,0-1.064,1.064a.235.235,0,0,1-.3.026,12.262,12.262,0,0,1-2.864-2.812.231.231,0,0,1,.023-.3l1.09-1.09a1.08,1.08,0,0,0,0-1.526l-1.857-1.857a1.107,1.107,0,0,0-1.53,0l-.588.588a3.3,3.3,0,0,0-.819,3.37,9.911,9.911,0,0,0,1.209,2.451,12.851,12.851,0,0,0,3.71,3.644,9.458,9.458,0,0,0,2.749,1.222,3.183,3.183,0,0,0,.766.092,3.343,3.343,0,0,0,2.356-.991l.505-.505A1.08,1.08,0,0,0,112.17,110.905Zm-.468,1.076h0l0-.01-.505.505a2.643,2.643,0,0,1-2.494.714,8.782,8.782,0,0,1-2.551-1.143,12.215,12.215,0,0,1-3.515-3.446,9.25,9.25,0,0,1-1.13-2.286,2.643,2.643,0,0,1,.661-2.7l.588-.588a.42.42,0,0,1,.593,0h0l1.857,1.857a.42.42,0,0,1,0,.593h0l-1.09,1.09a.889.889,0,0,0-.092,1.156,13.014,13.014,0,0,0,3.023,2.967.9.9,0,0,0,1.143-.1l1.054-1.07a.42.42,0,0,1,.593,0h0l1.86,1.863A.419.419,0,0,1,111.7,111.981Z" transform="translate(-100.712 -102.253)"/></g></g></svg>