<svg xmlns="http://www.w3.org/2000/svg" width="42.131" height="37.15" viewBox="0 0 42.131 37.15"><defs><style>.a{fill:#b7202e;}</style></defs><g transform="translate(0 -7.328)"><path class="a" d="M16.926,14.7a2.026,2.026,0,0,0,1.02-2.719l-1.665-3.5A2.032,2.032,0,0,0,13.629,7.5a23.415,23.415,0,0,0-7.341,4.758A17.758,17.758,0,0,0,1.36,20.041,42.686,42.686,0,0,0,0,32V42.439a2.045,2.045,0,0,0,2.039,2.039H15.4a2.045,2.045,0,0,0,2.039-2.039V29.082A2.045,2.045,0,0,0,15.4,27.042H9.007a14.331,14.331,0,0,1,2.379-8.259A12.918,12.918,0,0,1,16.926,14.7Z" transform="translate(0 0)"/><path class="a" d="M87.592,14.771a2.026,2.026,0,0,0,1.02-2.719L86.946,8.586A2.032,2.032,0,0,0,84.3,7.6a24.62,24.62,0,0,0-7.307,4.724,18.139,18.139,0,0,0-4.963,7.817A42.113,42.113,0,0,0,70.7,32.071V42.505a2.045,2.045,0,0,0,2.039,2.039H86.1a2.045,2.045,0,0,0,2.039-2.039V29.148A2.045,2.045,0,0,0,86.1,27.109H79.673a14.333,14.333,0,0,1,2.379-8.259A12.916,12.916,0,0,1,87.592,14.771Z" transform="translate(-46.671 -0.066)"/></g></svg>