<svg xmlns="http://www.w3.org/2000/svg" width="42.131" height="37.15" viewBox="0 0 42.131 37.15"><defs><style>.a{fill:#b7202e;}</style></defs><path class="a" d="M1.21,37.1A2.026,2.026,0,0,0,.191,39.82l1.665,3.5a2.032,2.032,0,0,0,2.651.985,23.415,23.415,0,0,0,7.341-4.758,17.758,17.758,0,0,0,4.928-7.783A42.686,42.686,0,0,0,18.136,19.8V9.367A2.045,2.045,0,0,0,16.1,7.328H2.74A2.045,2.045,0,0,0,.7,9.367V22.725A2.045,2.045,0,0,0,2.74,24.764H9.13A14.331,14.331,0,0,1,6.75,33.023,12.918,12.918,0,0,1,1.21,37.1Z" transform="translate(23.995 -7.328)"/><path class="a" d="M71.91,37.2a2.026,2.026,0,0,0-1.02,2.719l1.665,3.466a2.032,2.032,0,0,0,2.651.986,24.62,24.62,0,0,0,7.307-4.724,18.139,18.139,0,0,0,4.963-7.817A42.113,42.113,0,0,0,88.8,19.9V9.468a2.045,2.045,0,0,0-2.039-2.039H73.406a2.045,2.045,0,0,0-2.039,2.039V22.825a2.045,2.045,0,0,0,2.039,2.039h6.424a14.333,14.333,0,0,1-2.379,8.259A12.916,12.916,0,0,1,71.91,37.2Z" transform="translate(-70.7 -7.429)"/></svg>