<svg xmlns="http://www.w3.org/2000/svg" width="16.64" height="16.565" viewBox="0 0 16.64 16.565">
    <g>
        <g>
            <g>
                <path stroke="#000" stroke-width="0.4px" d="M116.378 114.165l-2.539-2.547a1.47 1.47 0 0 0-2.089 0l-1.455 1.465a.319.319 0 0 1-.411.036 16.822 16.822 0 0 1-3.917-3.871.32.32 0 0 1 .032-.414l1.491-1.5a1.5 1.5 0 0 0 0-2.1l-2.539-2.556a1.506 1.506 0 0 0-2.092 0l-.8.81a4.57 4.57 0 0 0-1.12 4.639 13.683 13.683 0 0 0 1.653 3.375 17.23 17.23 0 0 0 2.168 2.656 17.045 17.045 0 0 0 2.9 2.361 12.888 12.888 0 0 0 3.758 1.683 4.324 4.324 0 0 0 1.048.127 4.556 4.556 0 0 0 3.221-1.364l.691-.7a1.494 1.494 0 0 0 0-2.1zm-.64 1.481v-.014l-.691.7a3.6 3.6 0 0 1-3.411.982 11.968 11.968 0 0 1-3.487-1.574 16.134 16.134 0 0 1-2.751-2.233 16.324 16.324 0 0 1-2.055-2.511 12.77 12.77 0 0 1-1.545-3.147 3.656 3.656 0 0 1 .9-3.716l.8-.81a.571.571 0 0 1 .811 0l2.539 2.556a.58.58 0 0 1 0 .817l-1.491 1.5a1.23 1.23 0 0 0-.126 1.592 17.854 17.854 0 0 0 4.133 4.084 1.218 1.218 0 0 0 1.563-.136l1.441-1.474a.571.571 0 0 1 .811 0l2.543 2.565a.58.58 0 0 1 .017.819z" transform="translate(-1.625 -1.651) translate(1.867 1.943) translate(-100.712 -102.253)"/>
            </g>
        </g>
    </g>
</svg>
