<svg xmlns="http://www.w3.org/2000/svg" width="1590" height="385.279" viewBox="0 0 1590 385.279"><defs><style>.a{opacity:0.63;}.b{fill:#707070;}.c{fill:#bebebe;}.d{fill:#b7202e;}.e,.g,.h,.i,.j,.k,.l,.m,.p,.q,.r,.s{fill:none;}.e,.g,.h,.i,.j,.k,.l,.m,.n,.o,.p,.q,.r{stroke:#fff;}.e,.g,.h,.i,.j,.k,.l,.q,.s{stroke-miterlimit:10;}.e{stroke-width:2px;}.f,.n,.o{fill:#f58220;}.g{stroke-width:2.678px;}.h{stroke-width:1.802px;}.i{stroke-width:0.728px;}.j{stroke-width:0.653px;}.k{stroke-width:0.779px;}.l{stroke-width:2.142px;}.m,.n,.o,.p,.r,.s{stroke-linecap:round;}.m,.n,.o,.p,.r{stroke-linejoin:round;}.m{stroke-width:1.83px;}.n{stroke-width:1.229px;}.o{stroke-width:0.614px;}.p{stroke-width:0.823px;}.q{stroke-width:0.823px;}.r{stroke-width:0.397px;}.s{stroke:#ffcb05;stroke-width:4.645px;}</style></defs><g transform="translate(362.631 -114.721)"><g class="a"><circle class="b" cx="41.143" cy="41.143" r="41.143" transform="matrix(0.922, -0.388, 0.388, 0.922, 747.163, 279.26)"/><circle class="b" cx="30.825" cy="30.825" r="30.825" transform="translate(700.914 349.141) rotate(-40.126)"/><circle class="b" cx="11.583" cy="11.583" r="11.583" transform="translate(704.792 380.602) rotate(-12.758)"/><circle class="b" cx="10.207" cy="10.207" r="10.207" transform="translate(693.99 357.457)"/><circle class="b" cx="12.179" cy="12.179" r="12.179" transform="translate(735.476 461.411)"/><circle class="c" cx="38.573" cy="38.573" r="38.573" transform="translate(674.724 254.614) rotate(-13.063)"/><circle class="b" cx="35.919" cy="35.919" r="35.919" transform="translate(721.316 383.697)"/><circle class="b" cx="21.733" cy="21.733" r="21.733" transform="translate(772.073 350.579) rotate(-10.064)"/><circle class="b" cx="17.718" cy="17.718" r="17.718" transform="translate(678.279 318.727)"/></g><path class="d" d="M1227.369,114.721h-1590V500l1093.512-.625a4.988,4.988,0,0,1-.034-.562h0a5.752,5.752,0,0,1,3.724-5.107l-8.666-10-3.3-3.806-6.179,0a2.821,2.821,0,0,1-2.819-2.823l.006-8.364a2.821,2.821,0,0,1,2.823-2.819l3.665,0,0-2.509V463.3l.006-8.943-8.3-.006a2.82,2.82,0,0,1-2.819-2.822l.005-8.364a2.822,2.822,0,0,1,2.823-2.819l7.216.005c-2.738-21.143-9.9-31.373-33.524-71.54-6.968-11.846-19.6-35.177-19.589-56.524a91.453,91.453,0,1,1,182.9-.981c-.013,19.818-5.335,31.63-16.891,51.709.133-.081.265-.155.4-.237-1.126,1.969-2.293,3.989-3.544,6.132-16.325,27.961-25.271,42.181-30.016,56.129a83.041,83.041,0,0,0-3.385,15.365l6.274,0a2.821,2.821,0,0,1,2.819,2.823l-.006,8.363a2.821,2.821,0,0,1-2.823,2.82l-8.6-.006,0,2.879v1.276l-.005,7.375,3.957,0a2.821,2.821,0,0,1,2.819,2.823l-.006,8.363a2.82,2.82,0,0,1-2.823,2.819l-6.47,0-1.988,2.287-6.56,7.549h0l-3.052,3.512c2.912.7,5.041,2.923,5.039,5.556h0a4.827,4.827,0,0,1-.032.526l443.443.625Z"/><path class="e" d="M730.847,494.276l.034.525a4.974,4.974,0,0,1-.034-.562h0a5.754,5.754,0,0,1,3.724-5.108l-8.666-10-3.3-3.807-6.179,0a2.821,2.821,0,0,1-2.819-2.823l.006-8.363a2.821,2.821,0,0,1,2.823-2.819l3.665,0,0-2.509v-.078l.006-8.943-8.3-.006a2.821,2.821,0,0,1-2.819-2.823l.005-8.363a2.822,2.822,0,0,1,2.823-2.819l7.216.005c-2.738-21.144-9.9-31.373-33.524-71.54-6.968-11.847-19.6-35.177-19.589-56.525a91.453,91.453,0,1,1,182.9-.981c-.013,19.819-5.335,31.631-16.891,51.709.133-.081.265-.154.4-.236-1.126,1.968-2.293,3.989-3.544,6.132-16.325,27.961-25.271,42.18-30.016,56.128a83.041,83.041,0,0,0-3.385,15.365l6.274.005a2.82,2.82,0,0,1,2.819,2.823l-.006,8.363a2.821,2.821,0,0,1-2.823,2.819l-8.6-.006,0,2.88v1.275l-.005,7.376,3.957,0a2.821,2.821,0,0,1,2.819,2.823l-.006,8.364a2.821,2.821,0,0,1-2.823,2.819l-6.47-.005-1.988,2.287-6.56,7.549h0l-3.052,3.512c2.912.7,5.041,2.923,5.039,5.556h0a4.809,4.809,0,0,1-.032.525h-.557"/><circle class="f" cx="41.143" cy="41.143" r="41.143" transform="translate(759.893 257.24)"/><path class="g" d="M817.66,299.108c-.52,13.669-7.286,24.508-15.114,24.211s-13.752-11.62-13.232-25.288,7.286-24.508,15.113-24.211S818.179,285.439,817.66,299.108Z"/><ellipse class="g" cx="28.137" cy="12.485" rx="28.137" ry="12.485" transform="matrix(0.834, -0.551, 0.551, 0.834, 773.129, 303.662)"/><path class="g" d="M813.815,290.9c11.665,10.123,16.5,21.762,10.793,26s-19.784-.537-31.449-10.659-16.5-21.763-10.794-26S802.15,280.778,813.815,290.9Z"/><path class="g" d="M809.649,298.8c-.1,2.733-2.947,4.845-6.35,4.715s-6.078-2.45-5.974-5.184,2.947-4.845,6.35-4.716S809.753,296.07,809.649,298.8Z"/><circle class="f" cx="30.825" cy="30.825" r="30.825" transform="translate(700.756 349.984) rotate(-45)"/><rect class="h" width="39.863" height="12.15" rx="1.908" transform="translate(760.907 362.97) rotate(-157.361)"/><line class="h" x1="1.673" y2="3.938" transform="translate(758.974 349.78)"/><line class="h" x1="1.673" y2="3.938" transform="translate(754.479 347.891)"/><line class="h" x1="1.673" y2="3.938" transform="translate(749.983 346.003)"/><line class="h" x1="1.673" y2="3.938" transform="translate(745.488 344.114)"/><line class="h" x1="1.673" y2="3.938" transform="translate(740.993 342.226)"/><line class="h" x1="1.673" y2="3.938" transform="translate(736.498 340.337)"/><line class="h" x1="1.673" y2="3.938" transform="translate(732.003 338.448)"/><circle class="f" cx="11.583" cy="11.583" r="11.583" transform="translate(707.064 374.897)"/><path class="i" d="M720.636,387.91a61.16,61.16,0,0,1-5.939-2.056c-1.34-.569-1.43-3.649,1.419-2.864s6.957,2.126,8.659,2.765a2.323,2.323,0,0,1-1.449,4.413c-1.917-.6-8.874-3.018-10.779-3.788-2.959-1.2-.719-6.611,2.575-5.394s8.118,2.8,8.118,2.8"/><circle class="f" cx="10.207" cy="10.207" r="10.207" transform="matrix(0.161, -0.987, 0.987, 0.161, 692.482, 373.236)"/><path class="j" d="M706.562,367.059a4.2,4.2,0,1,1,4.353-4.051A4.2,4.2,0,0,1,706.562,367.059Z"/><path class="j" d="M706.61,365.727a2.871,2.871,0,1,1,2.972-2.767A2.871,2.871,0,0,1,706.61,365.727Z"/><path class="j" d="M1.232,0H4.448A1.233,1.233,0,0,1,5.68,1.233v.079A1.232,1.232,0,0,1,4.448,2.544H1.232A1.232,1.232,0,0,1,0,1.312V1.232A1.232,1.232,0,0,1,1.232,0Z" transform="matrix(-0.847, 0.531, -0.531, -0.847, 702.872, 366.909)"/><path class="j" d="M703.515,365.565l-1.046.678-.6-.923,1.046-.678"/><g transform="translate(5 7)"><circle class="f" cx="12.179" cy="12.179" r="12.179" transform="translate(730.476 452.55)"/><path class="k" d="M745.478,467.421a5.017,5.017,0,1,1,5.194-4.833A5.017,5.017,0,0,1,745.478,467.421Z"/><path class="k" d="M745.535,465.832a3.426,3.426,0,1,1,3.547-3.3A3.426,3.426,0,0,1,745.535,465.832Z"/><rect class="k" width="6.778" height="3.035" rx="1.232" transform="matrix(-0.847, 0.531, -0.531, -0.847, 741.074, 467.242)"/><path class="k" d="M741.842,465.639l-1.248.809-.714-1.1,1.248-.809"/></g><circle class="f" cx="38.573" cy="38.573" r="38.573" transform="translate(674.724 309.466) rotate(-76.937)"/><path class="l" d="M702.122,295.652a25.84,25.84,0,1,0,14.45-45.044"/><circle class="l" cx="20.764" cy="20.764" r="20.764" transform="translate(690.551 283.965) rotate(-60.059)"/><path class="l" d="M711.21,295.313c-10.732-10.58-8.236-35.5,12.325-39.079"/><path class="l" d="M728.883,258.4c6.879,8.448,5.125,30.9-12.811,38.262"/><line class="l" x1="12.189" y2="38.997" transform="translate(713.383 256.866)"/><line class="l" x2="32.696" y2="10.593" transform="translate(705.909 260.095)"/><line class="l" x2="32.696" y2="10.593" transform="translate(698.992 281.929)"/><line class="l" x2="39.403" y2="12.87" transform="translate(699.029 269.914)"/><path class="l" d="M709.964,309.161l21.553.194a12.1,12.1,0,0,0-11.018-7.147C713.826,302.073,709.964,309.161,709.964,309.161Z"/><circle class="f" cx="35.919" cy="35.919" r="35.919" transform="translate(721.316 380.836)"/><path class="m" d="M780,426.378l-19.4,2.567-6.083-23.25,18.167-7.26Z"/><path class="m" d="M772.663,398.754l2.257-.9,7.31,27.944-2.255.3"/><path class="m" d="M775.144,398.1l2.257-.9,7.31,27.944-2.254.3"/><line class="m" y1="3.689" x2="9.466" transform="translate(759.947 404.063)"/><line class="m" y1="3.235" x2="9.585" transform="translate(760.838 407.922)"/><line class="m" y1="2.781" x2="9.703" transform="translate(761.729 411.782)"/><line class="m" y1="2.857" x2="9.683" transform="translate(762.62 415.112)"/><line class="m" y1="2.478" x2="9.783" transform="translate(763.511 418.896)"/><line class="m" y1="1.873" x2="9.941" transform="translate(764.402 422.907)"/><path class="m" d="M742.431,436.207l18.167-7.26-6.082-23.25-19.4,2.567Z"/><path class="m" d="M735.3,408.528l-2.41.319,7.31,27.944,2.112-.844"/><path class="m" d="M732.82,409.177l-2.41.319,7.31,27.944,2.112-.844"/><line class="m" x1="10.06" y2="1.419" transform="translate(740.736 410.146)"/><line class="m" x1="9.941" y2="1.873" transform="translate(741.745 413.552)"/><line class="m" x1="9.822" y2="2.327" transform="translate(742.755 416.957)"/><line class="m" x1="9.842" y2="2.251" transform="translate(743.626 420.363)"/><line class="m" x1="9.743" y2="2.63" transform="translate(744.616 423.769)"/><line class="m" x1="9.584" y2="3.235" transform="translate(745.666 427.174)"/><circle class="f" cx="21.733" cy="21.733" r="21.733" transform="translate(775.536 343.586)"/><path class="n" d="M800.907,360.422v-9.354h-5.544v9.354l-6.872,18.633a1.855,1.855,0,0,0,1.74,2.5h15.808a1.854,1.854,0,0,0,1.74-2.5Z"/><rect class="n" width="8.924" height="3.197" transform="translate(793.673 347.876)"/><path class="n" d="M800.283,364.354h-4.289L790.665,379.5h14.947Z"/><path class="o" d="M797.917,370.372a.673.673,0,1,1-.673-.674A.673.673,0,0,1,797.917,370.372Z"/><path class="n" d="M797.58,374.99a1.2,1.2,0,1,1-1.2-1.2A1.2,1.2,0,0,1,797.58,374.99Z"/><path class="o" d="M801.381,373.018a.818.818,0,1,1-.818-.818A.818.818,0,0,1,801.381,373.018Z"/><circle class="f" cx="17.718" cy="17.718" r="17.718" transform="translate(678.279 315.866)"/><rect class="p" width="21.487" height="5.633" transform="matrix(0.653, 0.757, -0.757, 0.653, 690.392, 321.696)"/><path class="q" d="M700.157,341.647l5.783,2.421-1.518-6.1"/><path class="p" d="M705.367,341.75a1.869,1.869,0,0,0-1.779,1.265"/><line class="r" x2="13.987" y2="16.223" transform="translate(689.119 322.781)"/><line class="r" x2="13.987" y2="16.223" transform="translate(687.567 324.12)"/><line class="s" y2="30.706" transform="translate(753.618 169.342)"/><line class="s" x1="6.739" y2="17.795" transform="translate(807.922 191.315)"/><line class="s" x1="17.75" y2="6.857" transform="translate(860.92 256.924)"/><line class="s" x2="17.75" y2="6.857" transform="translate(634.679 256.924)"/><line class="s" x2="6.739" y2="17.795" transform="translate(702.761 191.315)"/><line class="s" x1="21.712" y2="21.712" transform="translate(843.026 213.944)"/><line class="s" x1="21.712" y1="21.712" transform="translate(648.138 213.944)"/></g></svg>