<svg xmlns="http://www.w3.org/2000/svg" width="23.792" height="23.81" viewBox="0 0 23.792 23.81"><defs><style>.a{fill:#58595b;}</style></defs><g transform="translate(-0.189)"><path class="a" d="M17.586,23.984c-3.264,0-9.027-4.079-11.165-6.218C4.481,15.827-2.016,7.451.955,4.593L4,1.553a3.033,3.033,0,0,1,4.281.092l2.541,2.541a3.029,3.029,0,0,1,.092,4.281L9.685,9.693c-.259.259-.741.741.66,2.141,2.023,2.024,2.622,2.726,3.309,2.926a.8.8,0,0,0,.84-.257l1.226-1.226A3.032,3.032,0,0,1,20,13.37l2.541,2.541a3.028,3.028,0,0,1,.092,4.281l-3.043,3.043A2.707,2.707,0,0,1,17.586,23.984ZM5.048,2.605,2,5.651c-1.7,1.7,3.209,8.8,5.472,11.063,1.919,1.92,7.38,5.782,10.111,5.782a1.3,1.3,0,0,0,.946-.3l3.051-3.052a1.543,1.543,0,0,0-.092-2.176l-2.541-2.541a1.545,1.545,0,0,0-2.177-.092l-1.225,1.225a2.235,2.235,0,0,1-2.31.634c-1.121-.328-1.86-1.219-3.944-3.3A4.755,4.755,0,0,1,8,10.95a2.235,2.235,0,0,1,.634-2.31L9.857,7.416a1.543,1.543,0,0,0-.092-2.177L7.224,2.7a1.546,1.546,0,0,0-2.177-.092Z" transform="translate(0 -0.174)"/><path class="a" d="M28.259,8.185a.744.744,0,0,1-.744-.744,5.959,5.959,0,0,0-5.953-5.953.744.744,0,1,1,0-1.488A7.449,7.449,0,0,1,29,7.441.744.744,0,0,1,28.259,8.185Z" transform="translate(-5.021)"/><path class="a" d="M23.568,11.362a.745.745,0,0,1-.744-.744A3.724,3.724,0,0,0,19.1,6.9a.744.744,0,0,1,0-1.488,5.214,5.214,0,0,1,5.208,5.208A.744.744,0,0,1,23.568,11.362Z" transform="translate(-4.423 -1.317)"/></g></svg>