<svg xmlns="http://www.w3.org/2000/svg" width="23.792" height="19.331" viewBox="0 0 23.792 19.331"><defs><style>.a{fill:#58595b;}</style></defs><path class="a" d="M22.178,48H1.614A1.616,1.616,0,0,0,0,49.614v16.1a1.616,1.616,0,0,0,1.614,1.614H22.178a1.616,1.616,0,0,0,1.614-1.614v-16.1A1.616,1.616,0,0,0,22.178,48ZM1.487,50.226,7.666,55.21,1.487,64.238Zm10.489,6.419a.126.126,0,0,1-.16,0L2.939,49.487H20.853Zm-3.148-.5L10.883,57.8a1.624,1.624,0,0,0,2.027,0l2.055-1.658,6.638,9.7H2.189Zm7.3-.936L22.3,50.226V64.238Z" transform="translate(0 -48)"/></svg>