<svg xmlns="http://www.w3.org/2000/svg" width="25.605" height="25.605" viewBox="0 0 25.605 25.605"><defs><style>.a{fill:#58595b;}</style></defs><path class="a" d="M18.574,9.858h-.088a.827.827,0,0,0,.529-.771V6.22a.825.825,0,0,0-.823-.826l-2.368-.01a3.8,3.8,0,0,0-4.05,4.04v.434a.827.827,0,0,0-.8.826v3.194a.826.826,0,0,0,.8.826v7.159a.826.826,0,0,0,.826.826h3.194a.826.826,0,0,0,.826-.826V14.7h1.674a.823.823,0,0,0,.822-.753l.281-3.194a.827.827,0,0,0-.823-.9Zm-1.037,3.194H15.795a.826.826,0,0,0-.826.826v7.159H13.427V13.879a.826.826,0,0,0-.8-.826V11.511a.827.827,0,0,0,.8-.827V9.425a2.167,2.167,0,0,1,2.395-2.388l1.541.006V8.261l-.828-.006c-1.491,0-1.566,1.108-1.566,1.33v1.1a.826.826,0,0,0,.826.827h1.879Z" transform="translate(-2.193 -1.076)"/><path class="a" d="M18.936,0H6.666A6.45,6.45,0,0,0,0,6.669V18.937a6.449,6.449,0,0,0,6.666,6.668h12.27a6.451,6.451,0,0,0,6.669-6.668V6.669A6.451,6.451,0,0,0,18.936,0Zm5.017,18.937a4.8,4.8,0,0,1-5.017,5.016H6.666a4.8,4.8,0,0,1-5.014-5.016V6.669A4.8,4.8,0,0,1,6.666,1.652h12.27a4.8,4.8,0,0,1,5.017,5.016Z"/></svg>