<svg xmlns="http://www.w3.org/2000/svg" width="25.605" height="25.605" viewBox="0 0 25.605 25.605"><defs><style>.a{fill:#58595b;}</style></defs><path class="a" d="M18.927,25.605H6.678A6.686,6.686,0,0,1,0,18.927V6.678A6.686,6.686,0,0,1,6.678,0H18.927a6.686,6.686,0,0,1,6.678,6.678V18.927A6.686,6.686,0,0,1,18.927,25.605ZM6.678,1.829A4.855,4.855,0,0,0,1.829,6.678V18.927a4.855,4.855,0,0,0,4.849,4.849H18.927a4.855,4.855,0,0,0,4.849-4.849V6.678a4.855,4.855,0,0,0-4.849-4.849Z"/><path class="a" d="M13.292,20.607a7.316,7.316,0,1,1,7.315-7.315A7.324,7.324,0,0,1,13.292,20.607Zm0-12.8a5.486,5.486,0,1,0,5.486,5.486A5.492,5.492,0,0,0,13.292,7.806Z" transform="translate(-0.49 -0.49)"/><path class="a" d="M22.664,5.356a1.372,1.372,0,1,1-1.372-1.372A1.371,1.371,0,0,1,22.664,5.356Z" transform="translate(-1.632 -0.326)"/></svg>