<svg xmlns="http://www.w3.org/2000/svg" width="25.605" height="25.605" viewBox="0 0 25.605 25.605"><defs><style>.a{fill:#58595b;}</style></defs><path class="a" d="M18.843,0H6.762A6.689,6.689,0,0,0,0,6.762V18.843a6.689,6.689,0,0,0,6.762,6.762H18.843a6.689,6.689,0,0,0,6.762-6.762V6.762A6.691,6.691,0,0,0,18.843,0Zm5.109,18.843a5.055,5.055,0,0,1-5.109,5.109H6.762a5.055,5.055,0,0,1-5.109-5.109V6.762A5.053,5.053,0,0,1,6.762,1.653H18.843a5.053,5.053,0,0,1,5.109,5.109Z"/><path class="a" d="M18.313,3.125a.832.832,0,0,0-.905-.045A4.8,4.8,0,0,1,16,3.395c-.1.014-.207.026-.306.04a3.969,3.969,0,0,0-2.525-.91,3.91,3.91,0,0,0-3.92,3.644A8.05,8.05,0,0,1,4.4,3.383a.839.839,0,0,0-.752-.294A.826.826,0,0,0,3,3.576,11.018,11.018,0,0,0,2.49,7.637c0,2.429,1.916,4.213,3.233,5.152A5.66,5.66,0,0,1,2.8,13.24a.825.825,0,0,0-.531,1.519,9.7,9.7,0,0,0,5.189,1.5A9.474,9.474,0,0,0,17.1,7.021c.169-.247.494-.729,1.042-1.571a5.587,5.587,0,0,0,.494-1.479A.827.827,0,0,0,18.313,3.125ZM15.6,6.268a.833.833,0,0,0-.158.484A7.862,7.862,0,0,1,7.46,14.606a8.137,8.137,0,0,1-1.477-.136A7.141,7.141,0,0,0,7.8,13.454a.835.835,0,0,0,.317-.734.819.819,0,0,0-.449-.658c-.035-.019-3.527-1.855-3.527-4.425a17.513,17.513,0,0,1,.108-2.053,9.734,9.734,0,0,0,5.855,2.337.346.346,0,0,0,.049,0,.825.825,0,0,0,.769-1.147,2.449,2.449,0,0,1-.031-.371,2.25,2.25,0,0,1,2.274-2.224,2.294,2.294,0,0,1,1.66.705.841.841,0,0,0,.757.242c.186-.038.4-.066.63-.094L16.461,5C15.84,5.944,15.617,6.254,15.6,6.268Z" transform="translate(2.542 3.412)"/></svg>