<svg xmlns="http://www.w3.org/2000/svg" width="81.415" height="77.709" viewBox="0 0 81.415 77.709"><defs><style>.a{fill:#b7202e;}</style></defs><g transform="translate(0 -0.501)"><path class="a" d="M108.62,176.623a16.63,16.63,0,0,0-3.941-.137,16.524,16.524,0,0,0-8.2-16.36,18.33,18.33,0,0,0,.6-17.518,16.611,16.611,0,0,0,6.755-8.41,1.227,1.227,0,1,0-2.309-.83,14.162,14.162,0,0,1-6.127,7.39,1.919,1.919,0,0,0-.717,2.561,15.869,15.869,0,0,1-.576,15.99,1.907,1.907,0,0,0,.718,2.705,14.078,14.078,0,0,1,7.335,14.776A1.916,1.916,0,0,0,104.288,179a14.241,14.241,0,0,1,3.955.052,1.227,1.227,0,0,0,.376-2.425Zm0,0" transform="translate(-78.892 -111.055)"/><path class="a" d="M112.129,11.531a1.227,1.227,0,1,0,2.262-.953l-3.927-9.326a1.227,1.227,0,0,0-2.262.953Zm0,0" transform="translate(-90.915 0)"/><path class="a" d="M.859,162.27c12.919,4.075,12.043,3.825,12.316,3.825a1.228,1.228,0,0,0,.368-2.4L1.6,159.929a1.227,1.227,0,1,0-.739,2.341Zm0,0" transform="translate(0 -134.028)"/><path class="a" d="M11.808,306.88.516,314.932a1.229,1.229,0,0,0,.714,2.227c.557,0-.229.442,12-8.281a1.227,1.227,0,1,0-1.425-2Zm0,0" transform="translate(-0.001 -257.468)"/><path class="a" d="M130.1,429.416a1.226,1.226,0,0,0-1.511.853l-1.964,7.058a1.228,1.228,0,1,0,2.365.658l1.963-7.058A1.227,1.227,0,0,0,130.1,429.416Zm0,0" transform="translate(-106.454 -360.674)"/><path class="a" d="M71.464,103.745c7.9,5.146,7.451,4.945,7.951,4.945a1.229,1.229,0,0,0,.671-2.256L72.8,101.688a1.227,1.227,0,1,0-1.34,2.057Zm0,0" transform="translate(-59.632 -84.929)"/><path class="a" d="M38.794,244.262a1.227,1.227,0,1,0,0,2.455H45.2a1.227,1.227,0,1,0,0-2.455Zm0,0" transform="translate(-31.593 -204.999)"/><path class="a" d="M93.577,351.531a1.228,1.228,0,0,0-1.716.265l-3.116,4.255a1.227,1.227,0,1,0,1.98,1.45l3.116-4.254A1.228,1.228,0,0,0,93.577,351.531Zm0,0" transform="translate(-74.434 -295.012)"/><path class="a" d="M203.1,84.263a1.226,1.226,0,0,0,1.227-1.227v-.311A4.227,4.227,0,0,0,200.11,78.5H185.556a15.383,15.383,0,0,0-10.905-5.7,14.082,14.082,0,0,1-1.112-8.233,1.918,1.918,0,0,0-2.132-2.206,13.992,13.992,0,0,1-10.379-2.814,1.913,1.913,0,0,0-2.334,0,14,14,0,0,1-10.38,2.814,1.914,1.914,0,0,0-2.131,2.214,14.193,14.193,0,0,1,.186,2.64,1.228,1.228,0,0,0,2.455.057,16.714,16.714,0,0,0-.119-2.4,16.432,16.432,0,0,0,11.156-3.131,16.424,16.424,0,0,0,11.154,3.131,16.562,16.562,0,0,0,.957,7.893c-.985,0-.06,0-2.826,0a6.958,6.958,0,0,0-5.713,2.986l-2.209,3.18h-2.716a4.413,4.413,0,0,0-2.524,8.022,4.4,4.4,0,0,0,1.3,6.605,4.408,4.408,0,0,0,1.938,6.588c-1.6,2.714.113,6.713,3.647,6.713h9.113a16.424,16.424,0,0,0-.97,7.89,16.421,16.421,0,0,0-11.154,3.131,16.748,16.748,0,0,0-2.195-1.357,1.227,1.227,0,1,0-1.124,2.181,14.151,14.151,0,0,1,2.152,1.37,1.913,1.913,0,0,0,2.334,0,14.257,14.257,0,0,1,10.624-2.8,1.914,1.914,0,0,0,1.885-2.229,13.98,13.98,0,0,1,1.113-8.187,13.653,13.653,0,0,0,9.336-2.629,13.279,13.279,0,0,0,2.893-3.106H200.11a4.227,4.227,0,0,0,4.222-4.222V87.945a1.227,1.227,0,0,0-2.455,0V96.91a1.771,1.771,0,0,1-1.767,1.767H188.14c1.041-2.716.836-4.2.836-10.509a15.294,15.294,0,0,0-1.8-7.21H200.11a1.77,1.77,0,0,1,1.767,1.767v.311a1.226,1.226,0,0,0,1.227,1.227Zm-46.551-.914a1.957,1.957,0,0,1,1.954-1.956h1.355c-.324,1.46.583,3.344,3.075,3.909h-4.43a1.957,1.957,0,0,1-1.954-1.954Zm10.689,21.063c-.031,0-4.4,0-4.431,0-2.35-.121-2.286-3.908.093-3.908h4.338C169.671,100.5,169.669,104.411,167.242,104.411Zm.232-6.379h-6.569a1.957,1.957,0,1,1,.154-3.908h6.415a1.954,1.954,0,1,1,0,3.908Zm0-6.366c-8.861,0-8.339.064-8.869-.181a1.956,1.956,0,0,1,.821-3.728h8.048a1.955,1.955,0,0,1,0,3.91Zm0-6.364h-2.227a5.548,5.548,0,0,0,3.512-2.664h.535A1.955,1.955,0,0,1,167.475,85.3Zm15.155,16.88a10.274,10.274,0,0,1-6.533,2.229h-4.991a4.64,4.64,0,0,0-.745-5.006,4.4,4.4,0,0,0,.158-6.51,4.4,4.4,0,0,0,0-6.366,4.042,4.042,0,0,0,.368-.4,10.78,10.78,0,0,0,6.168,4.816,1.228,1.228,0,0,0,.735-2.343,8.438,8.438,0,0,1-3.826-2.434,10.756,10.756,0,0,1-2.489-5.99,1.949,1.949,0,0,0-2.119-1.289c-1.271.121-1.607.915-3.023,2.921-1.311,1.882-4.068,1.129-4.068.129,0-.288-.142,0,3.181-4.785a4.5,4.5,0,0,1,3.7-1.933c4.823,0,5.47-.076,7.15.285a12.966,12.966,0,0,1,10.227,12.656c0,5.983.764,10.337-3.892,14.014Zm0,0" transform="translate(-122.917 -49.327)"/></g></svg>