<svg xmlns="http://www.w3.org/2000/svg" width="69.034" height="69.034" viewBox="0 0 69.034 69.034"><defs><style>.a{fill:#b7202e;}</style></defs><path class="a" d="M297.852,60.127A25.419,25.419,0,0,1,316,77.583l-1.767-1.226a1.012,1.012,0,0,0-1.153,1.662l4.042,2.805a1.017,1.017,0,0,0,1.486-.39l2.147-4.427a1.012,1.012,0,0,0-1.82-.882l-.963,1.986a27.455,27.455,0,0,0-19.631-18.945A1.012,1.012,0,0,0,297.852,60.127Z" transform="translate(-257.057 -50.294)"/><path class="a" d="M253.22,234.513a18.707,18.707,0,1,0,6.8,36.139,1.012,1.012,0,0,0-.735-1.884,16.709,16.709,0,1,1,4.349-2.512c-.988.791.23,2.406,1.263,1.579a18.707,18.707,0,0,0-11.677-33.322Z" transform="translate(-202.893 -202.893)"/><path class="a" d="M332.921,298.864a7.447,7.447,0,1,0-8.458,7.376V308.5h-1.954a1.012,1.012,0,0,0,0,2.023h1.954v1.954a1.012,1.012,0,0,0,2.023,0v-1.954h1.954a1.012,1.012,0,0,0,0-2.023h-1.954V306.24A7.457,7.457,0,0,0,332.921,298.864Zm-12.87,0a5.424,5.424,0,1,1,5.424,5.424A5.43,5.43,0,0,1,320.051,298.864Z" transform="translate(-275.148 -252.125)"/><path class="a" d="M37.414,18.707A18.708,18.708,0,0,0,8.35,3.128,1.012,1.012,0,0,0,9.471,4.811,16.694,16.694,0,1,1,5.759,8.186c.8-.982-.733-2.3-1.569-1.276a18.707,18.707,0,1,0,33.224,11.8Z" transform="translate(0)"/><path class="a" d="M78.7,74.626a7.456,7.456,0,1,0,5.939,2.961L87.433,74.8v1.752a1.011,1.011,0,0,0,2.022,0V72.356a1.024,1.024,0,0,0-1.011-1.012H84.25a1.011,1.011,0,1,0,0,2.022H86l-2.788,2.788A7.408,7.408,0,0,0,78.7,74.626Zm0,12.87a5.424,5.424,0,1,1,5.424-5.424A5.43,5.43,0,0,1,78.7,87.5Z" transform="translate(-61.648 -61.725)"/><path class="a" d="M69.788,311.374a25.419,25.419,0,0,1-18.169-17.519l1.842,1.193a1.012,1.012,0,0,0,1.1-1.7l-4.13-2.674a1.021,1.021,0,0,0-1.473.437l-2,4.494a1.012,1.012,0,0,0,1.847.823l.882-1.979a27.453,27.453,0,0,0,19.613,18.884A1.012,1.012,0,0,0,69.788,311.374Z" transform="translate(-40.544 -251.346)"/></svg>