<svg xmlns="http://www.w3.org/2000/svg" width="66.775" height="66.775" viewBox="0 0 66.775 66.775"><defs><style>.a{fill:#b7202e;}</style></defs><g transform="translate(-1 -1)"><path class="a" d="M47.758,31.157A2.582,2.582,0,0,0,49.6,30.4l3.547-3.547h11.4a3.235,3.235,0,0,0,3.231-3.231V8.539a3.235,3.235,0,0,0-3.231-3.231H41.927V3.154A2.156,2.156,0,0,0,39.773,1H10.062a2.139,2.139,0,0,0-1.523.631L1.631,8.539A2.139,2.139,0,0,0,1,10.062V65.621a2.156,2.156,0,0,0,2.154,2.154H39.773a2.156,2.156,0,0,0,2.154-2.154V57.005H52.251L55.8,60.552a2.6,2.6,0,0,0,4.438-1.838V57.005h4.308a3.235,3.235,0,0,0,3.231-3.231V38.7a3.234,3.234,0,0,0-3.229-3.231H41.927V26.849h3.231v1.708A2.6,2.6,0,0,0,47.758,31.157ZM8.539,4.677V8.539H4.677ZM3.154,65.621V10.693h7.539V3.154h29.08V5.506a3.227,3.227,0,0,0-2.154,3.033V23.617a3.227,3.227,0,0,0,2.154,3.033v9.014A3.227,3.227,0,0,0,37.619,38.7V53.775a3.227,3.227,0,0,0,2.154,3.033v8.813ZM65.621,38.7V53.774a1.079,1.079,0,0,1-1.077,1.077H58.082v3.862a.463.463,0,0,1-.761.316l-4.178-4.178H40.85a1.079,1.079,0,0,1-1.077-1.077V38.7a1.079,1.079,0,0,1,1.077-1.077h23.7A1.077,1.077,0,0,1,65.621,38.7Zm-24.772-14a1.079,1.079,0,0,1-1.077-1.077V8.539A1.079,1.079,0,0,1,40.85,7.462H64.544a1.079,1.079,0,0,1,1.077,1.077V23.617a1.079,1.079,0,0,1-1.077,1.077H52.251l-4.178,4.178a.463.463,0,0,1-.761-.316V24.694Z"/><path class="a" d="M58.858,10.854,57.408,9.26,46.321,19.34l-2.505-2.505-1.523,1.523,3.957,3.957Z" transform="translate(3.18 0.636)"/><path class="a" d="M28.694,35H5v8.616H28.694ZM26.54,41.462H7.154V37.154H26.54Z" transform="translate(0.308 2.619)"/><path class="a" d="M5,45H28.694v2.154H5Z" transform="translate(0.308 3.389)"/><path class="a" d="M5,49H33v2.154H5Z" transform="translate(0.308 3.697)"/><path class="a" d="M5,53H33v2.154H5Z" transform="translate(0.308 4.005)"/><path class="a" d="M5,57h6.462v2.154H5Z" transform="translate(0.308 4.313)"/><path class="a" d="M13,57h6.462v2.154H13Z" transform="translate(0.924 4.313)"/><path class="a" d="M21,57h6.462v2.154H21Z" transform="translate(1.54 4.313)"/><path class="a" d="M21,7A14,14,0,1,0,35,21,14.017,14.017,0,0,0,21,7Zm0,25.849a11.8,11.8,0,0,1-8.567-3.687,9.966,9.966,0,0,1,3.2-3.333L21,31.131l5.371-5.3a9.966,9.966,0,0,1,3.2,3.333A11.8,11.8,0,0,1,21,32.849ZM16.693,17.77A4.308,4.308,0,1,1,21,22.078,4.312,4.312,0,0,1,16.693,17.77Zm.994,7.062a9.454,9.454,0,0,1,6.628,0L21,28.1Zm13.3,2.512a12.237,12.237,0,0,0-5.93-4.553,6.462,6.462,0,1,0-8.119,0,12.237,12.237,0,0,0-5.93,4.553,11.847,11.847,0,1,1,19.979,0Z" transform="translate(0.462 0.462)"/><path class="a" d="M44.816,49.586l4.624-4.624,4.624,4.624,1.523-1.523L50.962,43.44l4.624-4.624-1.523-1.523L49.44,41.917l-4.624-4.624-1.523,1.523,4.624,4.624-4.624,4.624Z" transform="translate(3.258 2.795)"/></g></svg>