<svg xmlns="http://www.w3.org/2000/svg" width="992.588" height="243.445" viewBox="0 0 992.588 243.445"><defs><style>.a{fill:#afafaf;}.b{fill:#bebebe;}.c{fill:#f7f7f7;}.d{fill:#b7202e;}.e{fill:#58595b;font-size:18px;font-family:FiraSans-Regular, Fira Sans;}</style></defs><g transform="translate(-137.706 -946)"><g transform="translate(-31.144 583.059)"><g transform="translate(168.85 362.941)"><g transform="translate(0 6.096)"><path class="a" d="M366.236,422.807a115.268,115.268,0,1,0,24.779,36.753A115.239,115.239,0,0,0,366.236,422.807Zm-81.76,195.511a113.75,113.75,0,1,1,113.751-113.75A113.879,113.879,0,0,1,284.476,618.318Z" transform="translate(-168.85 -388.941)"/><path class="a" d="M1436.97,422.807a115.647,115.647,0,0,0-195.57,61.245,3.523,3.523,0,1,0,1.855.287c9.634-53.563,57.139-93.523,111.955-93.523a113.75,113.75,0,1,1-111.661,135.567,3.53,3.53,0,1,0-1.848.313,115.659,115.659,0,1,0,195.269-103.89Z" transform="translate(-987.524 -388.941)"/><path class="a" d="M2510.542,422.807a115.649,115.649,0,0,0-195.359,60.1,3.523,3.523,0,1,0,1.849.305,113.747,113.747,0,1,1,.359,44.517,3.53,3.53,0,1,0-1.845.336,115.66,115.66,0,1,0,195-105.257Z" transform="translate(-1809.506 -388.941)"/><path class="a" d="M3608.066,459.56A115.662,115.662,0,0,0,3388.025,482.4a3.523,3.523,0,1,0,1.848.314,113.76,113.76,0,1,1,111.653,135.6c-54.5,0-101.951-39.687-111.839-92.889a3.53,3.53,0,1,0-1.854.3,115.642,115.642,0,1,0,220.232-66.167Z" transform="translate(-2630.661 -388.941)"/></g><path class="b" d="M802.174,484.663l-11.761-6.79-7.193-4.153a121.629,121.629,0,0,0-121.239-110.78v14.068a107.654,107.654,0,1,1,0,215.308v14.068A121.633,121.633,0,0,0,783.22,495.606l7.193-4.153Z" transform="translate(-546.355 -362.941)"/><path class="b" d="M1877.174,484.663l-11.761-6.79-7.193-4.153a121.629,121.629,0,0,0-121.24-110.78v14.068a107.654,107.654,0,1,1,0,215.308v14.068a121.632,121.632,0,0,0,121.24-110.78l7.193-4.153Z" transform="translate(-1369.296 -362.941)"/><path class="b" d="M2950.174,484.663l-11.76-6.79-7.193-4.153a121.628,121.628,0,0,0-121.239-110.78v14.068a107.654,107.654,0,1,1,0,215.308v14.068a121.632,121.632,0,0,0,121.239-110.78l7.193-4.153Z" transform="translate(-2190.706 -362.941)"/><g transform="translate(870.865 0)"><path class="b" d="M3882.981,606.386V592.318a107.654,107.654,0,0,0,0-215.308V362.941a121.723,121.723,0,1,1,0,243.445Z" transform="translate(-3882.981 -362.941)"/></g><circle class="c" cx="96.452" cy="96.452" r="96.452" transform="translate(19.174 25.27)"/><circle class="c" cx="96.452" cy="96.452" r="96.452" transform="translate(271.233 25.27)"/><circle class="c" cx="96.452" cy="96.452" r="96.452" transform="translate(522.823 25.27)"/><circle class="c" cx="96.452" cy="96.452" r="96.452" transform="translate(774.413 25.27)"/><g transform="translate(87.129 124.622)"><path class="d" d="M542.167,817.532a2.522,2.522,0,0,0,2.814,2.027c1.7,0,2.378-.777,2.378-1.813,0-1.107-.562-1.705-2.793-2.241-2.776-.67-3.681-1.633-3.681-3.23,0-1.756,1.3-3.136,3.883-3.136,2.785,0,3.924,1.587,4.08,3.123h-1.724a2.117,2.117,0,0,0-2.413-1.781c-1.32,0-2.069.587-2.069,1.626,0,1.022.616,1.427,2.592,1.9,3.277.793,3.882,2.057,3.882,3.554,0,1.892-1.408,3.337-4.25,3.337-2.884,0-4.179-1.546-4.423-3.365Z" transform="translate(-540.443 -809.139)"/><path class="d" d="M584.7,811.28H581.04v-1.438h9.021v1.438H586.4v10.009H584.7Z" transform="translate(-571.521 -809.677)"/><path class="d" d="M633.728,816.016h-5.651v3.834h6.212l-.214,1.438h-7.659V809.842h7.58v1.438h-5.918v3.3h5.651Z" transform="translate(-606.257 -809.677)"/><path class="d" d="M668.59,809.842h4.42c2.267,0,3.815,1.268,3.815,3.371,0,2.279-1.659,3.454-3.9,3.454H670.3v4.622H668.59Zm1.708,5.416H672.8c1.488,0,2.277-.7,2.277-2a1.945,1.945,0,0,0-2.219-2H670.3Z" transform="translate(-638.543 -809.677)"/><path class="d" d="M735.516,817.112c0,2.743-.8,5.695-3.866,5.695-3.005,0-3.856-2.778-3.856-5.62,0-2.818.93-5.62,3.906-5.62C734.632,811.567,735.516,814.279,735.516,817.112Zm-6.02.069c0,2.049.333,4.273,2.17,4.273s2.15-2.108,2.15-4.335c0-2.091-.339-4.2-2.107-4.2C729.909,812.92,729.5,814.8,729.5,817.181Z" transform="translate(-683.865 -810.998)"/><path class="d" d="M769.322,823.108v-8.93a6.962,6.962,0,0,1-2.192.857v-1.284a6.335,6.335,0,0,0,2.64-1.533h1.2v10.889Z" transform="translate(-713.978 -811.497)"/></g><g transform="translate(337.326 124.622)"><path class="d" d="M1609.227,817.532a2.522,2.522,0,0,0,2.814,2.027c1.7,0,2.378-.777,2.378-1.813,0-1.107-.562-1.705-2.793-2.241-2.776-.67-3.681-1.633-3.681-3.23,0-1.756,1.3-3.136,3.884-3.136,2.785,0,3.924,1.587,4.08,3.123h-1.724a2.117,2.117,0,0,0-2.412-1.781c-1.32,0-2.069.587-2.069,1.626,0,1.022.616,1.427,2.592,1.9,3.277.793,3.882,2.057,3.882,3.554,0,1.892-1.408,3.337-4.25,3.337-2.884,0-4.179-1.546-4.423-3.365Z" transform="translate(-1607.503 -809.139)"/><path class="d" d="M1651.756,811.28H1648.1v-1.438h9.021v1.438h-3.657v10.009h-1.708Z" transform="translate(-1638.581 -809.677)"/><path class="d" d="M1700.789,816.016h-5.652v3.834h6.212l-.214,1.438h-7.659V809.842h7.58v1.438h-5.918v3.3h5.652Z" transform="translate(-1673.318 -809.677)"/><path class="d" d="M1735.651,809.842h4.42c2.267,0,3.814,1.268,3.814,3.371,0,2.279-1.658,3.454-3.9,3.454h-2.626v4.622h-1.708Zm1.708,5.416h2.507c1.488,0,2.277-.7,2.277-2a1.945,1.945,0,0,0-2.219-2h-2.565Z" transform="translate(-1705.604 -809.677)"/><path class="d" d="M1802.576,817.112c0,2.743-.8,5.695-3.866,5.695-3.005,0-3.856-2.778-3.856-5.62,0-2.818.93-5.62,3.906-5.62C1801.692,811.567,1802.576,814.279,1802.576,817.112Zm-6.02.069c0,2.049.333,4.273,2.169,4.273s2.15-2.108,2.15-4.335c0-2.091-.339-4.2-2.107-4.2C1796.97,812.92,1796.556,814.8,1796.556,817.181Z" transform="translate(-1750.925 -810.998)"/><path class="d" d="M1834.44,822.609v-.1c0-1.629,1-3.235,3.252-4.931,1.7-1.287,2.17-1.7,2.17-2.853a1.644,1.644,0,0,0-1.783-1.827c-1.266,0-1.838.679-2.051,1.931h-1.582a3.39,3.39,0,0,1,3.633-3.262c2.5,0,3.446,1.582,3.446,3.123,0,1.629-.694,2.294-2.7,3.814a6.608,6.608,0,0,0-2.466,2.7h5.586l-.223,1.407Z" transform="translate(-1781.229 -810.998)"/></g><g transform="translate(588.929 124.622)"><path class="d" d="M2682.281,817.532a2.522,2.522,0,0,0,2.814,2.027c1.7,0,2.378-.777,2.378-1.813,0-1.107-.562-1.705-2.793-2.241-2.776-.67-3.681-1.633-3.681-3.23,0-1.756,1.3-3.136,3.883-3.136,2.785,0,3.924,1.587,4.08,3.123h-1.724a2.116,2.116,0,0,0-2.412-1.781c-1.32,0-2.069.587-2.069,1.626,0,1.022.616,1.427,2.592,1.9,3.276.793,3.882,2.057,3.882,3.554,0,1.892-1.408,3.337-4.25,3.337-2.885,0-4.178-1.546-4.423-3.365Z" transform="translate(-2680.557 -809.139)"/><path class="d" d="M2724.81,811.28h-3.656v-1.438h9.021v1.438h-3.657v10.009h-1.708Z" transform="translate(-2711.635 -809.677)"/><path class="d" d="M2773.843,816.016h-5.651v3.834h6.212l-.214,1.438h-7.659V809.842h7.58v1.438h-5.918v3.3h5.651Z" transform="translate(-2746.372 -809.677)"/><path class="d" d="M2808.705,809.842h4.42c2.267,0,3.814,1.268,3.814,3.371,0,2.279-1.658,3.454-3.9,3.454h-2.627v4.622h-1.708Zm1.708,5.416h2.507c1.488,0,2.277-.7,2.277-2a1.945,1.945,0,0,0-2.219-2h-2.565Z" transform="translate(-2778.658 -809.677)"/><path class="d" d="M2875.631,817.112c0,2.743-.8,5.695-3.866,5.695-3.005,0-3.856-2.778-3.856-5.62,0-2.818.93-5.62,3.906-5.62C2874.747,811.567,2875.631,814.279,2875.631,817.112Zm-6.02.069c0,2.049.333,4.273,2.17,4.273s2.15-2.108,2.15-4.335c0-2.091-.339-4.2-2.107-4.2C2870.024,812.92,2869.611,814.8,2869.611,817.181Z" transform="translate(-2823.98 -810.998)"/><path class="d" d="M2907.335,814.384a3.181,3.181,0,0,1,3.5-2.817c2.3,0,3.34,1.38,3.34,2.839a2.263,2.263,0,0,1-1.426,2.237v.04a2.649,2.649,0,0,1,1.883,2.713c0,1.694-1.048,3.41-3.822,3.41-2.568,0-3.612-1.6-3.765-3.041h1.6a2.123,2.123,0,0,0,2.233,1.726,1.936,1.936,0,0,0,2.093-2.1c0-1.356-.815-2-2.242-2h-.815v-1.3h.69c1.356,0,1.941-.52,1.941-1.611a1.543,1.543,0,0,0-1.764-1.576,1.718,1.718,0,0,0-1.889,1.486Z" transform="translate(-2853.941 -810.998)"/></g><g transform="translate(840.203 124.622)"><path class="d" d="M3753.937,817.532a2.522,2.522,0,0,0,2.813,2.027c1.7,0,2.378-.777,2.378-1.813,0-1.107-.562-1.705-2.793-2.241-2.776-.67-3.682-1.633-3.682-3.23,0-1.756,1.3-3.136,3.884-3.136,2.785,0,3.924,1.587,4.08,3.123h-1.724a2.117,2.117,0,0,0-2.413-1.781c-1.32,0-2.07.587-2.07,1.626,0,1.022.617,1.427,2.593,1.9,3.277.793,3.882,2.057,3.882,3.554,0,1.892-1.408,3.337-4.251,3.337-2.884,0-4.178-1.546-4.422-3.365Z" transform="translate(-3752.212 -809.139)"/><path class="d" d="M3796.465,811.28h-3.656v-1.438h9.021v1.438h-3.658v10.009h-1.708Z" transform="translate(-3783.29 -809.677)"/><path class="d" d="M3845.5,816.016h-5.652v3.834h6.212l-.214,1.438h-7.659V809.842h7.579v1.438h-5.918v3.3h5.652Z" transform="translate(-3818.027 -809.677)"/><path class="d" d="M3880.36,809.842h4.42c2.267,0,3.814,1.268,3.814,3.371,0,2.279-1.659,3.454-3.9,3.454h-2.626v4.622h-1.708Zm1.708,5.416h2.506c1.488,0,2.278-.7,2.278-2a1.945,1.945,0,0,0-2.219-2h-2.565Z" transform="translate(-3850.313 -809.677)"/><path class="d" d="M3947.286,817.112c0,2.743-.8,5.695-3.866,5.695-3.005,0-3.856-2.778-3.856-5.62,0-2.818.93-5.62,3.906-5.62C3946.4,811.567,3947.286,814.279,3947.286,817.112Zm-6.02.069c0,2.049.333,4.273,2.169,4.273s2.15-2.108,2.15-4.335c0-2.091-.339-4.2-2.107-4.2C3941.679,812.92,3941.266,814.8,3941.266,817.181Z" transform="translate(-3895.635 -810.998)"/><path class="d" d="M3984.771,823.255V820.53h-5.06v-1.452l4.856-6.667h1.741v6.751h1.384l-.168,1.368h-1.216v2.725Zm0-6.676c0-.9.009-1.894.041-2.6-.437.851-2.418,3.584-3.551,5.18h3.511Z" transform="translate(-3926.368 -811.644)"/></g></g></g><text class="e" transform="translate(193 1088)"><tspan x="1.42" y="17">Pre-Placement </tspan><tspan x="44.746" y="44">Talk </tspan></text><text class="e" transform="translate(444 1088)"><tspan x="6.613" y="17">Psychometric </tspan><tspan x="13.165" y="44">Assessment </tspan></text><text class="e" transform="translate(691 1089)"><tspan x="4.498" y="17">Technical &amp; HR </tspan><tspan x="2.923" y="44">Panel Interview</tspan></text><text class="e" transform="translate(939 1088)"><tspan x="5.673" y="17">Hands-On Skills </tspan><tspan x="22.665" y="44">Assessment</tspan></text><g transform="translate(731 992.833)"><path class="d" d="M2.781,39.236a3.349,3.349,0,0,0,6.492-1.149V36.225a3.837,3.837,0,0,1-1.808-.294,6.231,6.231,0,0,1-.155.616,4.007,4.007,0,0,1-1.272,2,3.714,3.714,0,0,1-2.623.76,5.711,5.711,0,0,1-.633-.066Zm19.733-4.989h6.7v-2.1H24.054a1.548,1.548,0,0,0-1.54,1.54Zm6.7,1.523h-6.7v2.317a3.348,3.348,0,0,0,6.7,0V35.77Zm20.873,5.084a3.627,3.627,0,0,1,1.065.858A3.568,3.568,0,0,1,52,44.027v5.136a.761.761,0,0,1-1.523,0V44.027a2.057,2.057,0,0,0-.489-1.333,2.092,2.092,0,0,0-1.054-.668,4.847,4.847,0,0,1-5.8-.06,1.455,1.455,0,0,0-.449.127,1.394,1.394,0,0,0-.518.423l-4.091,5.418a.765.765,0,0,1-.607.305H32.227a1.4,1.4,0,1,0,0,2.807h6.262a1.368,1.368,0,0,0,.683-.147,4.512,4.512,0,0,0,1.16-1.3l2.709-3.584a.759.759,0,1,1,1.212.915l-2.577,3.414v6.639h8.8V52.612a.761.761,0,0,1,1.523,0v5.136a.759.759,0,0,1-.76.76H.763A.762.762,0,0,1,0,57.748V52.612a.761.761,0,0,1,1.523,0v4.373h8.8V50.346L7.747,46.932a.761.761,0,0,1,1.215-.915l2.649,3.507q.363.479.725.964a1.4,1.4,0,0,0,.5.412,1.332,1.332,0,0,0,.636.147h6.308a1.4,1.4,0,1,0,0-2.807H14.53a.76.76,0,0,1-.607-.305L9.832,42.516a1.408,1.408,0,0,0-.967-.55,4.853,4.853,0,0,1-5.8.063,2.088,2.088,0,0,0-1.042.651,2.062,2.062,0,0,0-.5,1.347v5.136a.761.761,0,0,1-1.523,0V44.027a3.579,3.579,0,0,1,.875-2.341,3.666,3.666,0,0,1,1.045-.832,4.831,4.831,0,0,1-.867-2.767v-4.4a3.067,3.067,0,0,1,3.06-3.063H7.733A3.067,3.067,0,0,1,10.8,33.683v4.4a4.839,4.839,0,0,1-.789,2.651,2.948,2.948,0,0,1,1.039.861l3.861,5.113h3.049V43.624a3.177,3.177,0,0,1,1.215-2.338,8.005,8.005,0,0,1,2.194-1.327,4.836,4.836,0,0,1-.374-1.871v-4.4a3.067,3.067,0,0,1,3.063-3.063h5.919a.764.764,0,0,1,.763.763v6.705a4.872,4.872,0,0,1-.337,1.776,8.29,8.29,0,0,1,2.355,1.353,3.227,3.227,0,0,1,1.29,2.407v3.089h3.049L40.953,41.6A2.916,2.916,0,0,1,42,40.742a4.835,4.835,0,0,1-.792-2.654v-4.4a3.067,3.067,0,0,1,3.063-3.063h3.619a3.067,3.067,0,0,1,3.063,3.063v4.4A4.853,4.853,0,0,1,50.083,40.854Zm-.864-1.618a5.641,5.641,0,0,1-.633.066,3.712,3.712,0,0,1-2.62-.76,3.992,3.992,0,0,1-1.275-2,6.222,6.222,0,0,1-.153-.616,3.852,3.852,0,0,1-1.811.294v1.863a3.349,3.349,0,0,0,6.492,1.149ZM42.727,34.7a2.482,2.482,0,0,0,1.891-.561.77.77,0,0,1,.5-.213.758.758,0,0,1,.795.723,6.068,6.068,0,0,0,.236,1.454,2.522,2.522,0,0,0,.772,1.258,2.284,2.284,0,0,0,1.6.426,5.483,5.483,0,0,0,.913-.132v-3.97a1.553,1.553,0,0,0-1.54-1.54H44.267a1.553,1.553,0,0,0-1.54,1.54Zm-33.454,0V33.683a1.548,1.548,0,0,0-1.54-1.54H4.114a1.548,1.548,0,0,0-1.537,1.54v3.97a5.421,5.421,0,0,0,.91.132,2.284,2.284,0,0,0,1.6-.426A2.547,2.547,0,0,0,5.859,36.1a5.924,5.924,0,0,0,.233-1.454.762.762,0,0,1,1.284-.515,2.484,2.484,0,0,0,1.9.567Zm12.907,6.57a6.615,6.615,0,0,0-2,1.149,1.738,1.738,0,0,0-.7,1.206v3.089h.3a2.927,2.927,0,0,1,2.568,4.333h7.313a2.93,2.93,0,0,1,2.571-4.333h.294V43.624a1.794,1.794,0,0,0-.754-1.252,7.082,7.082,0,0,0-2.154-1.183c-.1.118-.2.233-.308.34a4.855,4.855,0,0,1-6.884,0q-.125-.126-.242-.259ZM6.348,13.807a.761.761,0,0,1,0-1.523h14.1a.761.761,0,0,1,0,1.523Zm0,8.015a.763.763,0,0,1,0-1.526H13.4a.763.763,0,0,1,0,1.526Zm0-4.007a.761.761,0,0,1,0-1.523h14.1a.761.761,0,0,1,0,1.523Zm14.881,8.121a2.106,2.106,0,0,0,.492.777,2.129,2.129,0,0,0,1.517.631h4.477a.761.761,0,0,1,0,1.523H23.239a3.638,3.638,0,0,1-2.594-1.082,3.7,3.7,0,0,1-1-1.848H9.028L5.58,29.385a.763.763,0,0,1-1.3-.535V25.872A4.634,4.634,0,0,1,.42,21.318V12.785A4.63,4.63,0,0,1,5.038,8.167H21.759a4.63,4.63,0,0,1,4.618,4.618V14.2H39.315a3.676,3.676,0,0,1,3.668,3.668V25.2a3.678,3.678,0,0,1-2.908,3.587V31.78a.76.76,0,0,1-1.3.538l-3.452-3.452h-4.16a.761.761,0,1,1,0-1.523h4.477a.752.752,0,0,1,.541.227l2.369,2.369V28.107a.762.762,0,0,1,.763-.763A2.153,2.153,0,0,0,41.46,25.2V17.863a2.153,2.153,0,0,0-2.145-2.145H26.377v5.6a4.63,4.63,0,0,1-4.618,4.618h-.53ZM8.712,24.413H21.759a3.106,3.106,0,0,0,3.095-3.095V12.785A3.106,3.106,0,0,0,21.759,9.69H5.038a3.106,3.106,0,0,0-3.1,3.095v8.533a3.106,3.106,0,0,0,3.1,3.095.762.762,0,0,1,.76.763V27.01l2.375-2.372a.756.756,0,0,1,.538-.225ZM40.153,52.569H11.85v4.416h28.3V52.569Z"/></g><g transform="translate(477 959.533)"><path class="d" d="M20.1,64.262a.847.847,0,0,1-.621,1.576,5.977,5.977,0,1,1,4.395,0,.847.847,0,1,1-.622-1.576,4.288,4.288,0,1,0-4.606-7.021A4.286,4.286,0,0,0,20.1,64.262Zm13.277,24.77H40.6c.179-3.28.535-4.792,1.458-5.5.938-.718,2.867-.641,4.01-.663a4.726,4.726,0,0,0,2.117-.487,2.112,2.112,0,0,0,1.009-1.08l2.319-6.013c.544-1.416,1.781-1.5,3.017-1.579.817-.054,1.637-.106,1.64-1.067.006-1.307-1.086-2.864-2.178-4.42a16.028,16.028,0,0,1-2.217-3.841,4.223,4.223,0,0,1-.237-1.717L52,59.841a11.218,11.218,0,0,0-.609-5.9,13.971,13.971,0,0,0-3.7-5.285.847.847,0,0,1,1.14-1.252,15.681,15.681,0,0,1,4.145,5.936,12.877,12.877,0,0,1,.7,6.772l-.464,2.809c.026,1.288,1.1,2.812,2.165,4.337,1.246,1.775,2.492,3.552,2.483,5.394-.01,2.537-1.618,2.643-3.223,2.748-.7.048-1.39.093-1.547.5l-2.319,6.012a3.761,3.761,0,0,1-1.784,1.96,6.383,6.383,0,0,1-2.886.685c-.9.016-2.316-.074-2.957.657-.564.644-.772,1.951-.891,4.638a.848.848,0,0,1-.849.874H16.455a.851.851,0,0,1-.846-.81c-.125-2.941-.359-4.251-1.031-4.843-.644-.567-1.992-.5-2.816-.516a6.373,6.373,0,0,1-2.886-.685,3.749,3.749,0,0,1-1.784-1.96L4.773,75.9c-.157-.407-.852-.452-1.55-.5C1.617,75.294.009,75.188,0,72.651c-.006-1.842,1.24-3.62,2.483-5.394,1.07-1.525,2.14-3.049,2.169-4.337L4.183,60.11a12.91,12.91,0,0,1,.7-6.772A15.689,15.689,0,0,1,9.026,47.4a.846.846,0,1,1,1.137,1.252,14.01,14.01,0,0,0-3.7,5.285,11.22,11.22,0,0,0-.609,5.9l.48,2.889a4.169,4.169,0,0,1-.189,1.454,14.919,14.919,0,0,1-2.277,4.039c-1.089,1.557-2.182,3.114-2.178,4.42.006.961.823,1.012,1.64,1.067,1.24.083,2.476.163,3.021,1.579L8.668,81.3a2.112,2.112,0,0,0,1.009,1.08,4.706,4.706,0,0,0,2.117.487c1.24.026,3.306-.09,4.231.862.759.782,1.07,2.3,1.233,5.3H31.69c.186-11.442,2.265-15.824,3.908-19.287a14.721,14.721,0,0,0,1.9-7.14v-2.63A15.869,15.869,0,0,0,21.679,44.162a16.655,16.655,0,0,0-4.382.6,17.87,17.87,0,0,0-4.183,1.749.844.844,0,0,1-.839-1.464,19.4,19.4,0,0,1,4.581-1.912,18.234,18.234,0,0,1,4.824-.663,17.325,17.325,0,0,1,7.249,1.582,17.418,17.418,0,0,1,7.249-1.582A18.276,18.276,0,0,1,41,43.13a19.456,19.456,0,0,1,4.581,1.912.844.844,0,0,1-.842,1.464,17.869,17.869,0,0,0-4.183-1.749,16.62,16.62,0,0,0-4.382-.6,15.591,15.591,0,0,0-3.53.4,14.665,14.665,0,0,0-1.784.525,17.814,17.814,0,0,1,3.184,2.521,17.47,17.47,0,0,1,5.141,12.368v2.63a16.109,16.109,0,0,1-2.06,7.861c-1.576,3.319-3.565,7.518-3.748,18.566ZM35.22,57.647a1.379,1.379,0,0,1,.381.971c0,1.108.006,2.223,0,3.325a1.324,1.324,0,0,1-.378.955,1.384,1.384,0,0,1-.971.381H32.932a15,15,0,0,1-.487,1.441,9.447,9.447,0,0,1-.679,1.387,9.361,9.361,0,0,1,1.028,1.054,1.5,1.5,0,0,1,.282.849,1.321,1.321,0,0,1-.311.855,25.087,25.087,0,0,1-2.457,2.46,1.365,1.365,0,0,1-.906.362,1.383,1.383,0,0,1-.961-.4l-.929-.929a11.378,11.378,0,0,1-1.393.669c-.445.179-.9.327-1.432.5V72.84a1.3,1.3,0,0,1-1.355,1.355H20.026a1.313,1.313,0,0,1-.97-.375,1.388,1.388,0,0,1-.381-.98V71.523c-.538-.17-.99-.317-1.435-.5a11.629,11.629,0,0,1-1.393-.669c-.311.311-.641.669-.964.958a1.331,1.331,0,0,1-.923.372,1.4,1.4,0,0,1-.955-.4c-.756-.756-1.675-1.592-2.371-2.377a1.3,1.3,0,0,1-.349-.9,1.512,1.512,0,0,1,.381-.977l.926-.926a9.428,9.428,0,0,1-.676-1.387,14.208,14.208,0,0,1-.49-1.441c-.673,0-1.759.151-2.287-.381a1.365,1.365,0,0,1-.381-.971c0-1.108-.006-2.223,0-3.325a1.326,1.326,0,0,1,.381-.955,1.372,1.372,0,0,1,.968-.381h1.316a14.208,14.208,0,0,1,.49-1.441,9.428,9.428,0,0,1,.676-1.387,9.371,9.371,0,0,1-1.028-1.054,1.5,1.5,0,0,1-.279-.849,1.323,1.323,0,0,1,.381-.939c.746-.743,1.611-1.707,2.383-2.377a1.335,1.335,0,0,1,1.868.038l.929.929a11.611,11.611,0,0,1,1.393-.669c.445-.179.9-.33,1.435-.5,0-.455-.016-.929,0-1.381a1.323,1.323,0,0,1,.378-.916,1.345,1.345,0,0,1,.97-.375h3.306a1.314,1.314,0,0,1,.971.375,1.385,1.385,0,0,1,.384.98v1.316c.535.167.987.317,1.432.5a11.394,11.394,0,0,1,1.393.669l.929-.929a1.368,1.368,0,0,1,.961-.4,1.4,1.4,0,0,1,.951.4L32.692,51.6a1.339,1.339,0,0,1,.384.939,1.531,1.531,0,0,1-.384.977l-.926.926a9.442,9.442,0,0,1,.679,1.387,14.99,14.99,0,0,1,.487,1.441c.445,0,.894,0,1.332,0A1.343,1.343,0,0,1,35.22,57.647ZM33.906,58.96H32.772a1.472,1.472,0,0,1-.894-.327,1.619,1.619,0,0,1-.538-.785c-.131-.464-.285-.948-.464-1.4a7.88,7.88,0,0,0-.625-1.253,1.439,1.439,0,0,1-.227-.951,1.506,1.506,0,0,1,.426-.887l.8-.8L29.4,50.7l-.8.8a1.5,1.5,0,0,1-.874.416,1.541,1.541,0,0,1-.929-.2,10.421,10.421,0,0,0-1.3-.637c-.464-.186-.935-.333-1.409-.484a1.6,1.6,0,0,1-.778-.525,1.371,1.371,0,0,1-.311-.9V48.047H20.369v1.134a1.427,1.427,0,0,1-.311.9,1.626,1.626,0,0,1-.778.525c-.477.151-.948.3-1.409.484a10,10,0,0,0-1.3.637,1.579,1.579,0,0,1-.932.2c-.708-.08-1.2-.746-1.675-1.22l-1.855,1.855c.477.48,1.147.971,1.227,1.688a1.455,1.455,0,0,1-.224.951,7.632,7.632,0,0,0-.628,1.253c-.179.455-.333.939-.464,1.4a1.635,1.635,0,0,1-.535.785,3.125,3.125,0,0,1-2.031.327v2.623h1.134a1.474,1.474,0,0,1,.9.327,1.633,1.633,0,0,1,.535.785,14.614,14.614,0,0,0,.464,1.4,7.537,7.537,0,0,0,.628,1.256,1.454,1.454,0,0,1,.224.951c-.08.708-.753,1.214-1.227,1.688l1.855,1.855c.477-.48.958-1.14,1.675-1.22a1.54,1.54,0,0,1,.929.2,10.032,10.032,0,0,0,1.3.637c.509.2,1.044.327,1.534.529a1.622,1.622,0,0,1,.653.48,3.271,3.271,0,0,1,.311,2.031h2.624c0-.372-.029-.846,0-1.2a1.353,1.353,0,0,1,.308-.826,1.632,1.632,0,0,1,.775-.529c.477-.147.948-.295,1.413-.48.5-.2.935-.49,1.39-.685a1.543,1.543,0,0,1,.839-.147,1.443,1.443,0,0,1,.874.42l.8.8,1.855-1.855c-.263-.259-.634-.589-.859-.865a1.477,1.477,0,0,1-.372-.823,1.439,1.439,0,0,1,.227-.951,7.766,7.766,0,0,0,.625-1.256,14.593,14.593,0,0,0,.464-1.4,1.619,1.619,0,0,1,.538-.785,1.419,1.419,0,0,1,.894-.327h1.134V58.96Z"/></g><g transform="translate(229.001 999.928)"><path class="d" d="M47.145,37.291h-4.6V48.838h4.6ZM45.876,15.572c-.091.091-.186.18-.285.264a3.591,3.591,0,0,1,.621.64,4.055,4.055,0,0,1,.783,2.033l1.571,15.251a2.993,2.993,0,0,1-.605,2.114.715.715,0,0,1,.611.7V49.55a.712.712,0,0,1-.713.71h-6.03a.709.709,0,0,1-.71-.71V37.291h-3.79L39.7,46.132a3.2,3.2,0,0,1-.2,2.327,3.281,3.281,0,0,1-1.772,1.56A3.444,3.444,0,0,1,35.152,50a3.17,3.17,0,0,1-1.8-2.165L29.87,34.854a3.164,3.164,0,0,1,.594-2.883,3.548,3.548,0,0,1,2.752-1.256H39.27l-.581-5.632A2.514,2.514,0,0,1,37.651,26v2.431a.709.709,0,0,1-.71.71H27.729v20.4a.709.709,0,0,1-.71.71H21.562a.712.712,0,0,1-.713-.71V40.6a.711.711,0,1,1,1.423,0v8.233h4.034V29.146H22.272V37.38a.711.711,0,1,1-1.423,0V29.146H11.639a.712.712,0,0,1-.713-.71V26a2.527,2.527,0,0,1-1.038-.923L9.31,30.715h6.052a3.579,3.579,0,0,1,2.743,1.229,3.141,3.141,0,0,1,.605,2.91l-3.486,12.98A3.176,3.176,0,0,1,13.428,50a3.444,3.444,0,0,1-2.582.019,3.281,3.281,0,0,1-1.772-1.56,3.2,3.2,0,0,1-.2-2.327l2.375-8.844H7.462V49.551a.712.712,0,0,1-.713.71H.722a.71.71,0,0,1-.713-.71V36.578a.713.713,0,0,1,.608-.7,2.976,2.976,0,0,1-.6-2.114L.894,25.2a.71.71,0,1,1,1.412.145l-.481,4.675,6.065.624.758-7.383L6.688,20.383a.71.71,0,0,1,1.173-.8l3.249,4.772a1.11,1.11,0,0,0,.818.473H18.8a1.081,1.081,0,0,0,0-2.163H12.947a.717.717,0,0,1-.586-.312L8.724,17.016A1.074,1.074,0,0,0,8,16.559a4.757,4.757,0,0,1-3.623.1,1.976,1.976,0,0,0-.9.7A2.657,2.657,0,0,0,3,18.654l-.36,3.486a.71.71,0,1,1-1.412-.145l.36-3.486a4.084,4.084,0,0,1,.742-1.977,3.614,3.614,0,0,1,.664-.694A4.759,4.759,0,0,1,1.3,12.207V7.866a2.989,2.989,0,0,1,2.98-2.98H7.852a2.985,2.985,0,0,1,2.977,2.98v4.341a4.753,4.753,0,0,1-1.471,3.437,2.528,2.528,0,0,1,.538.57l3.424,5.024h5.473a2.508,2.508,0,0,1,2.259,3.588h6.474a2.474,2.474,0,0,1-.247-1.081,2.507,2.507,0,0,1,2.507-2.507H35.26l3.421-5.024a2.485,2.485,0,0,1,.541-.57c-.027-.024-.051-.048-.075-.073a4.75,4.75,0,0,1-1.4-3.365V7.866a2.985,2.985,0,0,1,2.98-2.98h3.566a2.985,2.985,0,0,1,2.98,2.98v4.341a4.746,4.746,0,0,1-1.4,3.365Zm-.207-2.281a5.861,5.861,0,0,1-.686.075,3.622,3.622,0,0,1-2.558-.74,3.912,3.912,0,0,1-1.243-1.95,5.7,5.7,0,0,1-.159-.648,3.774,3.774,0,0,1-1.853.3v1.877a3.341,3.341,0,0,0,6.5,1.084Zm-6.5-4.39a2.483,2.483,0,0,0,1.923-.551.711.711,0,0,1,1.213.468,5.916,5.916,0,0,0,.234,1.442,2.525,2.525,0,0,0,.775,1.261,2.284,2.284,0,0,0,1.6.428,5.172,5.172,0,0,0,.933-.14V7.866a1.561,1.561,0,0,0-1.557-1.557H40.728a1.566,1.566,0,0,0-1.557,1.557ZM2.729,11.809a5.135,5.135,0,0,0,.933.14,2.288,2.288,0,0,0,1.6-.428A2.544,2.544,0,0,0,6.04,10.26a5.914,5.914,0,0,0,.231-1.442.711.711,0,0,1,.742-.675.723.723,0,0,1,.473.207,2.481,2.481,0,0,0,1.92.551V7.866A1.561,1.561,0,0,0,7.853,6.308H4.283A1.561,1.561,0,0,0,2.729,7.866Zm6.678-1.479a3.763,3.763,0,0,1-1.85-.3,5.709,5.709,0,0,1-.161.648,3.912,3.912,0,0,1-1.243,1.95,3.618,3.618,0,0,1-2.558.74,5.883,5.883,0,0,1-.686-.075,3.341,3.341,0,0,0,6.5-1.084V10.329ZM44.2,16.661a4.751,4.751,0,0,1-3.62-.1,1.08,1.08,0,0,0-.724.457L36.22,22.352a.72.72,0,0,1-.586.312H29.787a1.081,1.081,0,0,0-.005,2.163h6.869a1.11,1.11,0,0,0,.818-.473l3.252-4.772a.71.71,0,1,1,1.173.8l-1.963,2.881.761,7.383,6.063-.624-1.17-11.369a2.62,2.62,0,0,0-.506-1.321,1.981,1.981,0,0,0-.879-.672Zm-24-9.1a.71.71,0,1,1,.923-1.079l3.244,2.768,2.924-1.7A.709.709,0,1,1,28,8.769l-3.357,1.958a.707.707,0,0,1-.818-.075ZM22.847,16a.711.711,0,0,1-.317,1.385,7.756,7.756,0,1,1,3.521,0A.711.711,0,1,1,25.733,16a6.337,6.337,0,1,0-2.886,0ZM1.432,37.291V48.838H6.04V37.291Zm2.06-1.426,8.631,0a.716.716,0,0,1,.74.893L10.249,46.5a1.826,1.826,0,0,0,.091,1.321,1.867,1.867,0,0,0,1.011.877,2.046,2.046,0,0,0,1.514,0,1.735,1.735,0,0,0,.984-1.224l3.486-12.983a1.749,1.749,0,0,0-.317-1.63,2.158,2.158,0,0,0-1.657-.715H8.522l-6.842-.7L1.427,33.9a1.668,1.668,0,0,0,.522,1.34,2.167,2.167,0,0,0,1.544.621Zm36.636-3.731h-.019l-.013,0h-.038v0H33.216a2.129,2.129,0,0,0-1.657.732,1.771,1.771,0,0,0-.315,1.614l3.483,12.983a1.745,1.745,0,0,0,.987,1.224,2.046,2.046,0,0,0,1.514,0,1.876,1.876,0,0,0,1.011-.877,1.813,1.813,0,0,0,.089-1.321l-2.614-9.737a.716.716,0,0,1,.686-.9h8.712a2.177,2.177,0,0,0,1.517-.621,1.643,1.643,0,0,0,.525-1.34L46.9,31.435ZM12.349,26.25v1.474H36.228V26.25Z"/></g><g transform="translate(982 999)"><circle class="d" cx="0.5" cy="0.5" r="0.5" transform="translate(23 13)"/><ellipse class="d" cx="1" cy="0.5" rx="1" ry="0.5" transform="translate(29 13)"/><path class="d" d="M32.312,22.656H29v1.656h3.312A3.316,3.316,0,0,0,35.625,21H33.968A1.658,1.658,0,0,1,32.312,22.656Z" transform="translate(-4.814 -3.438)"/><path class="d" d="M31,15h1.656v3.312H31Z" transform="translate(-5.158 -2.407)"/><path class="d" d="M5,43H6.656v1.656H5Z" transform="translate(-0.688 -7.221)"/><path class="d" d="M9,43h4.968v1.656H9Z" transform="translate(-1.375 -7.221)"/><path class="d" d="M5,47h8.281v1.656H5Z" transform="translate(-0.688 -7.908)"/><path class="d" d="M5,51h8.281v1.656H5Z" transform="translate(-0.688 -8.596)"/><path class="d" d="M51.464,51.1l-1.171,1.171,3.138,3.138,7.2-9-1.293-1.035-6.047,7.559Z" transform="translate(-8.475 -7.629)"/><path class="d" d="M49.029,49.029H40.748V40.748h4.968V39.092H39.092V44.06H30.811v-.828a4.164,4.164,0,0,0-.185-1.225A19.873,19.873,0,0,0,35.75,4.854,9.105,9.105,0,0,0,28.319,1H25.333a7.361,7.361,0,0,0-5.978,3.054A19.99,19.99,0,0,0,6.8,22.53a19.765,19.765,0,0,0,2.66,9.937h-6.8A1.658,1.658,0,0,0,1,34.123V49.029a1.658,1.658,0,0,0,1.656,1.656H14.249a1.658,1.658,0,0,0,1.656-1.656V45.716H22.53v4.14a2.487,2.487,0,0,0,2.484,2.484h3.312a2.487,2.487,0,0,0,2.484-2.484v-4.14h8.281v4.968H50.685V44.06H49.029Zm-19.874-5.8v.828H24.186v-.828a2.481,2.481,0,0,1,.2-.972,20.23,20.23,0,0,0,2.281.144,20.018,20.018,0,0,0,2.285-.135A2.478,2.478,0,0,1,29.155,43.232Zm15.733-20.7A18.238,18.238,0,0,1,26.67,40.748a18.033,18.033,0,0,1-10.765-3.533V35.09A16.549,16.549,0,1,0,37.427,9.945a9.087,9.087,0,0,0-.362-2.382A18.117,18.117,0,0,1,44.888,22.53Zm-25.67-4.968a1.656,1.656,0,0,1,0-3.312Zm-3.112-5.539.4,1.993a3.3,3.3,0,0,0,2.714,5.2h.066a5.806,5.806,0,0,0,3.726,4.6l-.32,1.28a10.079,10.079,0,0,0-7.839,6.473,14.848,14.848,0,0,1,1.255-19.553Zm18.017,2.227a1.656,1.656,0,0,1,0,3.312Zm-.066,4.968h.066a3.3,3.3,0,0,0,2.713-5.2l.4-1.993A14.847,14.847,0,0,1,38.49,31.574,10.081,10.081,0,0,0,30.651,25.1l-.32-1.28a5.8,5.8,0,0,0,3.726-4.6Zm-9.043,4.968h3.312c.129,0,.257-.011.383-.019l.335,1.339-2.414,1.785-2.338-1.778.337-1.347c.128.009.255.02.384.02Zm5.594,2.583-.416,2.078L28.316,28.1l1.887-1.4c.136.02.272.036.406.06Zm-3.754,4.042h-.462l-.44-1.319.675-.273.67.265ZM24.965,28.1l-1.818.736-.414-2.071c.132-.025.266-.041.4-.059Zm-3.827-.86.776,3.88,2.5-1.011.521,1.561-1.322,5.442a14.892,14.892,0,0,1-7.477-4.053,8.4,8.4,0,0,1,5-5.819Zm5.309,5.222h.363l1.259,4.9c-.46.044-.926.071-1.4.071s-.947-.027-1.414-.071Zm3.269,4.654-1.4-5.451.525-1.576,2.588,1.024.774-3.873a8.4,8.4,0,0,1,5,5.82A14.887,14.887,0,0,1,29.716,37.121ZM32.467,18.39a4.145,4.145,0,0,1-4.14,4.14H25.014a4.145,4.145,0,0,1-4.14-4.14V11.765a2.487,2.487,0,0,1,2.484-2.484H23.8a4.956,4.956,0,0,0,3.7,1.656h4.14a.829.829,0,0,1,.828.828ZM25.333,2.656h2.986a7.46,7.46,0,0,1,7.315,8.923l-.253,1.265a3.282,3.282,0,0,0-1.258-.252v-.828a2.487,2.487,0,0,0-2.484-2.484H27.5a3.316,3.316,0,0,1-3.312-3.312H22.53a4.95,4.95,0,0,0,.3,1.69,4.147,4.147,0,0,0-3.608,4.106v.828a3.289,3.289,0,0,0-1.259.252l-.312-1.563a4.429,4.429,0,0,1-.085-.862,4.384,4.384,0,0,1,1.957-3.657l.373-.248.1-.239a5.731,5.731,0,0,1,5.346-3.619ZM8.453,22.53A18.339,18.339,0,0,1,16.839,7.208a6.018,6.018,0,0,0-.9,2.718,16.5,16.5,0,0,0-2.483,22.541H11.411A18.112,18.112,0,0,1,8.453,22.53Zm-5.8,26.5V34.123H14.249V49.029ZM15.905,44.06V39.24A19.593,19.593,0,0,0,22.719,42a4.142,4.142,0,0,0-.189,1.234v.828Zm13.249,5.8a.829.829,0,0,1-.828.828H25.014a.829.829,0,0,1-.828-.828v-4.14h4.968Z" transform="translate(0 0)"/><path class="d" d="M5,55h8.281v1.656H5Z" transform="translate(-0.688 -9.284)"/></g></g></svg>