<svg xmlns="http://www.w3.org/2000/svg" viewBox="0 0 24 24"><path fill="#1589b7" stroke="#046" stroke-miterlimit="10" stroke-width=".2" d="M18.5 9.8c.3-.3.6-.7.6-1.2s-.3-.8-.6-1.2l-.4-.5.1-.6c.1-.4.2-.9 0-1.3s-.7-.6-1.1-.7a2 2 0 0 0-.6-.2l-.2-.6c-.1-.4-.3-.9-.7-1.1l-.6-.1-.7.1-.6.1-.5-.4c-.3-.3-.7-.6-1.2-.6s-.8.3-1.2.6l-.5.4-.6-.1-.7-.1-.6.1-.6 1.2-.3.6-.5.2c-.4.2-.9.3-1.1.7-.3.4-.2.9-.1 1.3l.1.6-.4.5c-.2.3-.6.7-.6 1.1s.3.8.6 1.2l.4.5-.1.6c-.1.4-.2.9 0 1.3s.7.6 1.1.7l.6.2.2.6.3.7-2 6.2c-.1.3 0 .5.2.7.2.2.5.3.7.2l1.4-.4 1 1.1c.1.2.3.2.5.2h.2c.3-.1.5-.3.5-.5l1.5-4.2 1.3 4.2c.1.3.3.5.5.5h.2l.5-.2 1-1.1 1.4.4c.3.1.5 0 .7-.2s.3-.5.2-.7l-2-6.2.3-.7.2-.6.6-.2c.4-.1.9-.3 1.1-.7.2-.4.1-.9 0-1.3l-.1-.6.6-.5zM9.8 21.4l-.8-1a.8.8 0 0 0-.8-.2l-1.2.4 1.8-5.7H9l.7-.1.6-.1.5.4.5.5.3.7-1.8 5.1zm6-1.2a.8.8 0 0 0-.8.2l-.9.9-1.7-5.8.7-.5.5-.4.6.1.7.1h.1l1.9 5.7-1.1-.3zm2-11c-.2.3-.5.5-.6.8-.1.3 0 .7.1 1l.1.6-.6.3c-.3.1-.7.2-.9.5l-.5.9-.3.6H15l-.5-.1-.7-.1h-.3c-.3.1-.6.3-.8.6-.2.2-.4.4-.6.4s-.4-.2-.6-.4c-.3-.2-.5-.5-.8-.6h-.3l-.7.1-.6.2h-.2l-.3-.6c-.1-.3-.2-.7-.5-.9l-.9-.5-.6-.3c-.1-.1 0-.4.1-.6l.1-1c-.1-.4-.3-.6-.6-.9l-.3-.6c0-.2.2-.4.4-.6.2-.3.5-.5.6-.8.1-.3 0-.7-.1-1-.1-.2-.2-.5-.1-.6l.6-.3c.3-.1.7-.2.9-.5l.5-.9.3-.6h.1l.5.1.7.1h.3c.3-.1.6-.3.8-.6.2-.2.4-.4.6-.4l.6.4c.3.2.5.5.8.6h.3l.7-.1.5-.1h.1l.3.6c.1.3.2.7.5.9l.9.5.6.3c.1.1 0 .4-.1.6l-.1 1c.1.3.3.6.6.8.2.2.4.4.4.6l-.3.6z"/><circle cx="12" cy="8.7" r="4" fill="#1589b7"/></svg>