<svg xmlns="http://www.w3.org/2000/svg" id="prefix__Layer_2" width="16.754" height="16.751" data-name="Layer 2" viewBox="0 0 16.754 16.751">
    <defs>
        <style>
            .prefix__cls-1{fill:#58595b}
        </style>
    </defs>
    <g id="prefix__Layer_1" data-name="Layer 1">
        <path id="prefix__Path_14414" d="M15.548 12.634a.24.24 0 0 0 .045-.077 8.346 8.346 0 0 0 0-8.363.24.24 0 0 0-.045-.077A8.411 8.411 0 0 0 10.666.332.251.251 0 0 0 10.6.313a8.334 8.334 0 0 0-4.523 0 .256.256 0 0 0-.065.018 8.411 8.411 0 0 0-4.883 3.786.24.24 0 0 0-.045.077 8.346 8.346 0 0 0 0 8.363.24.24 0 0 0 .045.077 8.411 8.411 0 0 0 4.877 3.784.241.241 0 0 0 .068.019 8.333 8.333 0 0 0 4.523 0 .25.25 0 0 0 .071-.02 8.411 8.411 0 0 0 4.88-3.783zM8.586 16.25v-3.528h3.38a8.915 8.915 0 0 1-1.539 3.251 7.835 7.835 0 0 1-1.841.276zm-2.336-.277a8.9 8.9 0 0 1-1.539-3.251h3.38v3.528a7.854 7.854 0 0 1-1.841-.277zM.464 8.623h1.089v1.944a.247.247 0 0 0 .247.247h2.024c.066.484.151.957.254 1.414H1.467a7.822 7.822 0 0 1-1-3.6zm1-4.1h2.615c-.1.457-.189.93-.254 1.414H1.8a.247.247 0 0 0-.247.247v1.944H.464a7.825 7.825 0 0 1 1-3.6zM8.091.5v3.529h-3.38A8.915 8.915 0 0 1 6.25.778 7.854 7.854 0 0 1 8.091.5zm2.336.276a8.9 8.9 0 0 1 1.539 3.251h-3.38V.5a7.836 7.836 0 0 1 1.841.276zm5.786 7.351h-1.089V6.184a.247.247 0 0 0-.247-.247h-2.024c-.066-.484-.151-.957-.254-1.414h2.611a7.824 7.824 0 0 1 1.003 3.605zm-1 4.1H12.6c.1-.457.189-.93.254-1.414h2.024a.247.247 0 0 0 .247-.247V8.623h1.089a7.822 7.822 0 0 1-1 3.6zm-6.623 0v-1.413h3.767c-.068.485-.155.958-.263 1.414zm-6.542-1.908V6.432h12.581v3.887zm10.3-4.382H8.586V4.524h3.5c.114.455.2.928.267 1.413zM8.091 4.524v1.413H4.324c.068-.485.155-.958.263-1.414zm-3.767 6.29h3.767v1.414h-3.5c-.11-.456-.199-.928-.267-1.414zM11.23 15.7a10.469 10.469 0 0 0 1.248-2.983h2.43A7.92 7.92 0 0 1 11.23 15.7zm3.678-11.671h-2.43a10.484 10.484 0 0 0-1.248-2.983 7.925 7.925 0 0 1 3.678 2.983zm-9.46-2.983A10.484 10.484 0 0 0 4.2 4.029H1.769a7.926 7.926 0 0 1 3.678-2.983zM1.769 12.722H4.2A10.483 10.483 0 0 0 5.447 15.7a7.926 7.926 0 0 1-3.678-2.983z" class="prefix__cls-1" data-name="Path 14414" transform="translate(.038)"/>
        <path id="prefix__Path_14415" d="M102.441 208.993l-.492-1.493h-.413l-.495 1.493-.441-1.493h-.416l.662 2.085h.376l.525-1.548.522 1.548h.379l.658-2.085h-.416z" class="prefix__cls-1" data-name="Path 14415" transform="translate(-96.638 -200.167)"/>
        <path id="prefix__Path_14416" d="M194.905 209.585h.379l.658-2.085h-.416l-.446 1.493-.492-1.493h-.413l-.495 1.493-.446-1.493h-.416l.662 2.085h.376l.523-1.548z" class="prefix__cls-1" data-name="Path 14416" transform="translate(-186.005 -200.167)"/>
        <path id="prefix__Path_14417" d="M286.5 209.585l.525-1.548.522 1.548h.38l.658-2.085h-.416l-.446 1.493-.492-1.493h-.413l-.495 1.493-.446-1.493h-.416l.662 2.085z" class="prefix__cls-1" data-name="Path 14417" transform="translate(-275.371 -200.167)"/>
    </g>
</svg>
