<svg xmlns="http://www.w3.org/2000/svg" viewBox="0 0 24 24"><path fill="#046" d="M9.6 22.7H4.9a.7.7 0 0 1-.7-.7V11.3c0-.4.3-.7.7-.7H9c.4 0 .7.3.7.7v11.4zM4.9 11c-.2 0-.3.1-.3.3v10.8c0 .2.1.3.3.3h4.4V11.3c0-.2-.1-.3-.3-.3H4.9z"/><path fill="#046" d="M14.7 22.7H9.3v-15c0-.4.3-.7.7-.7h4c.4 0 .7.3.7.7v15zm-5.1-.3h4.7V7.7c0-.2-.1-.3-.3-.3h-4c-.2 0-.3.1-.3.3v14.7z"/><path fill="#046" d="M19.1 22.7h-4.7v-8.1c0-.4.3-.7.7-.7h4.1c.4 0 .7.3.7.7v7.5c-.1.3-.4.6-.8.6zm-4.4-.3h4.4c.2 0 .3-.1.3-.3v-7.5c0-.2-.1-.3-.3-.3H15c-.2 0-.3.1-.3.3v7.8z"/><path fill="#1589b7" d="M12 1.3l.6 1.2 1.2.1-.9.9.2 1.2-1.1-.6-1.1.6.2-1.2-.9-.9 1.2-.1zM8.4 22.4h-3v-9.1c0-.2.2-.4.4-.4h2.1c.2 0 .4.2.4.4v9.1zM13.5 22.4h-3V10.1c0-.2.2-.4.4-.4H13c.2 0 .4.2.4.4v12.3zM18.6 22.4h-3v-6.1c0-.2.2-.4.4-.4h2.1c.2 0 .4.2.4.4v6.1z"/></svg>