<?xml version="1.0" encoding="utf-8"?>
<!-- Generator: Adobe Illustrator 22.1.0, SVG Export Plug-In . SVG Version: 6.00 Build 0)  -->
<svg version="1.1" id="Layer_1" xmlns="http://www.w3.org/2000/svg" xmlns:xlink="http://www.w3.org/1999/xlink" x="0px" y="0px"
	 viewBox="0 0 24 24" style="enable-background:new 0 0 24 24;" xml:space="preserve">
<g>
	<path style="fill:#004466;" d="M8.6,19.6c-0.2,0-0.4,0-0.6-0.1l-6.2-1.9c-0.8-0.2-1.3-0.9-1.3-1.7c0-0.8,0.5-1.4,1.2-1.7l3-9.7
		c-0.4-0.6-0.4-1.4,0-2c0.4-0.5,1.1-1,2-0.7L13,3.7c0.8,0.2,1.3,0.9,1.3,1.7c0,0.8-0.4,1.5-1.2,1.8l-1.2,4l10.5,2.4
		c0.6,0.1,0.9,0.5,1.1,1c0.1,0.6,0,1.2-0.5,1.6c-0.4,0.4-0.9,0.5-1.4,0.3L11.3,13l-1.2,3.8c0.4,0.6,0.4,1.4,0,2
		C9.7,19.3,9.2,19.6,8.6,19.6z M6.2,2C5.8,2,5.4,2.3,5.1,2.6c-0.4,0.5-0.4,1.2,0,1.7l0.1,0.1L2,14.5l-0.1,0c-0.6,0.2-1,0.7-1,1.4
		c0,0.6,0.4,1.2,1,1.4l6.2,1.9c0.7,0.2,1.3-0.1,1.6-0.5c0.4-0.5,0.4-1.2,0-1.7l-0.1-0.1l0-0.1l1.4-4.2l0.2,0.1l10.4,3.5
		c0.4,0.1,0.8,0,1.1-0.2c0.3-0.3,0.5-0.8,0.4-1.3c-0.1-0.4-0.4-0.7-0.8-0.8l-10.9-2.5l0-0.1l1.3-4.4l0.1,0c0.6-0.2,1.1-0.8,1-1.5
		c0-0.5-0.3-1.1-1-1.3L6.7,2.1C6.5,2.1,6.4,2,6.2,2z"/>
	<path style="fill:#1589B7;" d="M14.4,22.3H0.5V22c0-0.2,0.1-0.4,0.3-0.4h13.3c0.1,0,0.3,0.2,0.3,0.4V22.3z"/>
	
		<rect x="5.7" y="11.3" transform="matrix(0.2941 -0.9558 0.9558 0.2941 -10.7395 16.6341)" style="fill:#004466;" width="0.3" height="8.6"/>
	<polygon style="fill:#004466;" points="13,7.2 4.8,4.6 4.9,4.3 13.1,6.9 	"/>
	
		<rect x="3.9" y="6.2" transform="matrix(0.9536 0.3009 -0.3009 0.9536 3.5572 -1.7409)" style="fill:#1589B7;" width="7.1" height="8.9"/>
</g>
</svg>
