<svg id="Layer_1" data-name="Layer 1" xmlns="http://www.w3.org/2000/svg" viewBox="0 0 24 24"><title>Scholarship</title><path d="M13.87,16.23c-.44-.29-4.2-2.85-5.22-4.65l-.05-.09H8.48a2.72,2.72,0,0,0-1.84.73l-.37-.37-.14-.15L6,11.84a2.08,2.08,0,0,0-.75,1.65,1.46,1.46,0,0,0,.8,1c.08,0,1,.7,2.1,1.54a11.58,11.58,0,0,1-1.08.79c-.27.19-1.39,1.21-1.39,1.21l.72.17.25.49a5.31,5.31,0,0,1,.73-1.26,4,4,0,0,1,1-.75s-.35.51-.61,1a4.65,4.65,0,0,0-.32,1.36l.44-.15.31.67A9.11,9.11,0,0,1,8.48,18a3.44,3.44,0,0,1,.66-1.13c1.34,1.17,2.73,2.59,3,2.88a1.3,1.3,0,0,0,.67.4,1.63,1.63,0,0,0,.31,0,1.74,1.74,0,0,0,1.47-1,2.22,2.22,0,0,0-.18-2.6A1.56,1.56,0,0,0,13.87,16.23Zm-5.66-.64c-1-.76-1.85-1.37-2-1.44a1,1,0,0,1-.6-.72,1.56,1.56,0,0,1,.5-1.15c1,1,1.76,1.73,2.44,2.35A1.81,1.81,0,0,0,8.21,15.59Zm.6-1.31c-.55-.48-1.17-1.07-1.88-1.78a2.33,2.33,0,0,1,1.43-.61,9.28,9.28,0,0,0,1.55,1.78A1.59,1.59,0,0,0,8.81,14.28Zm.41,2.14a3.47,3.47,0,0,1,.3-1,9.47,9.47,0,0,0,2.18,1.46,6.43,6.43,0,0,0,0,1.87C11.07,18.12,10.12,17.2,9.22,16.42Zm5,2.6a1.3,1.3,0,0,1-1.34.76c-1-.23-.91-2.23-.78-3l0-.19-.19,0a7.77,7.77,0,0,1-2.23-1.48,2,2,0,0,1,1.14-.57c.89.75,1.78,1.39,2.32,1.76l0,0a1.92,1.92,0,0,0-.74,1.84c.16.57.54.94.94.93.17,0,.59-.1.74-.86l0-.12L14,18c-.58-.49-.89-.78-1-.92a1,1,0,0,1,.37-.43c.23-.13.49,0,.78.25A1.82,1.82,0,0,1,14.25,19Zm-.59-.79c-.07.26-.19.42-.33.42h0c-.17,0-.41-.21-.52-.62a1.08,1.08,0,0,1,0-.53C13,17.66,13.26,17.89,13.66,18.23Z" fill="#0686b9" stroke="#064063" stroke-miterlimit="10" stroke-width="0.1"/><path d="M19.56,11.72a.44.44,0,0,0,.23-.73l-.21-.23.07-.24s.68-1.25-1-1a.38.38,0,0,0-.17.08L13.57,4.46a.47.47,0,0,0-.45-.13L4.71,6.18a.44.44,0,0,0-.19.75l2,1.77.12-.37a.14.14,0,0,1,.11-.1,12.68,12.68,0,0,1,5.53.2,13.33,13.33,0,0,1,4.75,3,.13.13,0,0,1,0,.15h0a.44.44,0,0,0,.5.56l1-.19a.14.14,0,0,1,.17.19L18,14.35a.15.15,0,0,1-.19.1l-.27-.09a.16.16,0,0,0-.19.1l-.27.88a.15.15,0,0,0,.19.19l.53-.17a.16.16,0,0,1,.16.05l.43.49a.14.14,0,0,0,.25-.05l.28-.9a.15.15,0,0,0-.1-.19l-.31-.1a.15.15,0,0,1-.1-.19l.81-2.61a.15.15,0,0,1,.12-.1Zm-.34-.44a.42.42,0,0,1-.52.27.43.43,0,0,1-.27-.52.42.42,0,0,1,.52-.27A.41.41,0,0,1,19.22,11.28ZM18.84,10c.21-.07.58-.13.48.18l-.08.24Z" fill="#0886b8" stroke="#074063" stroke-miterlimit="10" stroke-width="0.2"/></svg>