<svg xmlns="http://www.w3.org/2000/svg" id="arrow-down" width="11.213" height="80.607" viewBox="0 0 11.213 80.607">
    <defs>
        <style>
            .cls-1{fill-rule:evenodd}
        </style>
    </defs>
    <path id="Path_37" d="M.56.81a.8.8 0 0 1 1.134 0l4.237 4.239L10.169.81A.8.8 0 0 1 11.3 1.944l-4.8 4.8a.8.8 0 0 1-1.134 0l-4.8-4.8A.8.8 0 0 1 .56.81z" class="cls-1" transform="translate(-.325 73.623)"/>
    <path id="Path_38" d="M1.276.225c.212 0 .416.416.566 1.157a14.883 14.883 0 0 1 .235 2.793v71.1a14.882 14.882 0 0 1-.235 2.793c-.15.741-.354 1.157-.566 1.157S.86 78.813.71 78.072a14.882 14.882 0 0 1-.235-2.793V4.175A14.884 14.884 0 0 1 .71 1.382C.86.641 1.063.225 1.276.225z" class="cls-1" transform="translate(4.331 -.225)"/>
</svg>
