<svg xmlns="http://www.w3.org/2000/svg" width="58.424" height="46.901" viewBox="0 0 58.424 46.901"><path d="M62.654,27.3a2.66,2.66,0,0,0-2.32-.716,1.8,1.8,0,0,0-.655.339l-.02.017a8.273,8.273,0,0,0-.7.654,2.166,2.166,0,0,0-2.2.386c-1.24,1.091-2.859,4.251-3.541,5.77-.17.379-.389.816-.629,1.269-.208.391-.434.791-.66,1.177a3.226,3.226,0,0,0-.583.4,16.785,16.785,0,0,0-2.423,3.33l-.189.3a7.317,7.317,0,0,1-4.153,2.26,15.672,15.672,0,0,0-5.524,2.738c-1.187,1.047-3.8,4.042-4.118,5.23-.06.219-.137.459-.228.74-.123.386-.277.859-.44,1.468-.1.368-.2.788-.306,1.27-.1-.482-.207-.9-.307-1.27-.163-.61-.314-1.083-.44-1.468-.089-.281-.168-.522-.226-.74-.319-1.189-2.933-4.184-4.121-5.23A15.66,15.66,0,0,0,23.356,42.5a7.315,7.315,0,0,1-4.155-2.26l-.187-.3a16.751,16.751,0,0,0-2.426-3.33,3.138,3.138,0,0,0-.579-.4c-.228-.386-.454-.787-.661-1.177-.24-.453-.459-.89-.63-1.269-.682-1.519-2.3-4.679-3.539-5.77a2.169,2.169,0,0,0-2.2-.386,8.28,8.28,0,0,0-.7-.654c-.006-.006-.015-.012-.019-.017a1.773,1.773,0,0,0-.656-.339,2.658,2.658,0,0,0-2.319.716L5,27.573l.157.361.93,2.136c1.063,2.444,2.683,6.155,2.886,6.565.109.225.207.473.3.716a4.637,4.637,0,0,0,.5,1.051c.268.373,2.785,4.326,3.059,4.777a5.093,5.093,0,0,1,.239.6,4.113,4.113,0,0,0,1.278,2.139,18.746,18.746,0,0,1,2.092,1.97c.639.65,1.367,1.386,2.212,2.2a26.654,26.654,0,0,0,2.7,2.221,9.71,9.71,0,0,1,2.53,2.352,7.893,7.893,0,0,1,.369,3.28c-.012.758-.049,1.6-.107,2.443.378-.027,19.276-.027,19.653,0-.057-.84-.094-1.685-.107-2.443a7.873,7.873,0,0,1,.37-3.28,9.644,9.644,0,0,1,2.529-2.352,26.654,26.654,0,0,0,2.7-2.221c.845-.815,1.572-1.551,2.212-2.2a18.481,18.481,0,0,1,2.093-1.97,4.132,4.132,0,0,0,1.278-2.139,4.847,4.847,0,0,1,.239-.6c.271-.451,2.79-4.4,3.058-4.777a4.758,4.758,0,0,0,.5-1.051c.094-.243.19-.492.3-.716.2-.411,1.821-4.122,2.885-6.565.5-1.157.885-2.031.929-2.136l.158-.361ZM10.447,28.816a19.191,19.191,0,0,1,2.939,4.707c.119.245.227.477.321.686.2.448.484,1.008.8,1.6l-1.855-2.091-.221-.324c-.119-.366-.256-.721-.4-1.069a16.3,16.3,0,0,0-2.211-3.75A.976.976,0,0,1,10.447,28.816ZM33.314,59.182H25.332c.019-.552.032-1.105.031-1.594a7.828,7.828,0,0,0-.546-3.523,10.641,10.641,0,0,0-2.8-2.644,25.411,25.411,0,0,1-2.589-2.13c-.835-.806-1.556-1.537-2.193-2.182a17.383,17.383,0,0,0-2.295-2.132,3.872,3.872,0,0,1-.821-1.572,5.047,5.047,0,0,0-.334-.8c-.288-.476-2.82-4.452-3.108-4.853a4.124,4.124,0,0,1-.37-.8c-.1-.263-.208-.536-.338-.8-.195-.4-1.907-4.317-3.164-7.205-.159-.37-.313-.722-.455-1.049a1.056,1.056,0,0,1,1.214-.1l.04.032c.1.089.221.192.346.313s.255.255.391.4c.12.129.242.27.367.42A15.369,15.369,0,0,1,9.9,30.6,14.2,14.2,0,0,1,11.4,33.8l.024.076.045.066c.792,1.171,1.347,1.937,1.728,2.431a2.292,2.292,0,0,0-.2.178c-.933.938-.656,1.625.95,4.144a12.284,12.284,0,0,1,.562,1.22c.088.215.164.4.249.567a4.588,4.588,0,0,1,.187.492,2.324,2.324,0,0,0,.486.967c.034.034.1.094.2.182a16.637,16.637,0,0,1,2.6,2.649,10.385,10.385,0,0,0,1.747,1.984l.729-.837a10.162,10.162,0,0,1-1.343-1.446c-.066-.091-.125-.182-.181-.272a17.831,17.831,0,0,0-2.81-2.9c-.074-.068-.14-.125-.17-.154A3.207,3.207,0,0,1,16,42.622a4.646,4.646,0,0,0-.247-.637c-.065-.127-.133-.295-.213-.488a13.41,13.41,0,0,0-.617-1.339l-.009-.018-.011-.018c-1.517-2.378-1.409-2.488-1.114-2.783a1.231,1.231,0,0,1,.13-.113c.028-.021.056-.041.083-.059A1.247,1.247,0,0,1,14.388,37a1.489,1.489,0,0,1,.846.067,1.963,1.963,0,0,1,.624.372,8.314,8.314,0,0,1,1.2,1.5c.351.519.7,1.08,1.013,1.586l.215.346.024.038.028.034a8.476,8.476,0,0,0,4.78,2.643,14.46,14.46,0,0,1,5.028,2.488c1.256,1.106,3.573,3.9,3.78,4.682.068.246.148.5.245.795.159.5.351,1.1.554,1.92.169.695.346,1.548.517,2.645.024.162.049.359.073.582v2.49ZM54.235,34.208c.094-.208.2-.441.321-.686A19.18,19.18,0,0,1,57.5,28.816a.97.97,0,0,1,.625-.247,16.356,16.356,0,0,0-2.211,3.751c-.145.347-.282.7-.4,1.068-.078.112-.148.22-.221.324L53.435,35.8C53.752,35.217,54.035,34.657,54.235,34.208Zm6.9-5.267c-1.256,2.889-2.968,6.811-3.162,7.205-.132.268-.238.541-.34.8a4.161,4.161,0,0,1-.368.8c-.289.4-2.822,4.377-3.111,4.852a5.074,5.074,0,0,0-.333.8A3.872,3.872,0,0,1,53,44.979a17.191,17.191,0,0,0-2.295,2.132c-.636.644-1.357,1.376-2.193,2.181a25.528,25.528,0,0,1-2.588,2.131,10.641,10.641,0,0,0-2.8,2.644,7.777,7.777,0,0,0-.545,3.522c0,.49.008,1.042.029,1.6H34.627v-2.49c.026-.223.051-.419.076-.582.17-1.1.346-1.95.515-2.645.2-.824.395-1.423.555-1.92.1-.295.178-.548.244-.794.208-.783,2.523-3.577,3.78-4.683a14.472,14.472,0,0,1,5.028-2.487,8.478,8.478,0,0,0,4.78-2.644l.029-.034.024-.038.215-.346c.314-.5.662-1.067,1.012-1.586a8.435,8.435,0,0,1,1.2-1.5,1.952,1.952,0,0,1,.624-.372A1.491,1.491,0,0,1,53.555,37a1.245,1.245,0,0,1,.394.168c.026.019.056.038.084.059a1.329,1.329,0,0,1,.128.113c.295.295.4.406-1.114,2.784l-.012.018-.007.015a13.187,13.187,0,0,0-.619,1.34c-.081.193-.148.36-.213.488a4.926,4.926,0,0,0-.247.637,3.166,3.166,0,0,1-.207.523l-.169.153A17.661,17.661,0,0,0,48.762,46.2c-.055.09-.116.181-.18.271a10.32,10.32,0,0,1-1.344,1.446l.726.838a10.221,10.221,0,0,0,1.749-1.985,16.641,16.641,0,0,1,2.6-2.649c.1-.09.165-.147.2-.182A2.359,2.359,0,0,0,53,42.976a4.485,4.485,0,0,1,.186-.492c.084-.166.161-.352.249-.567A12.985,12.985,0,0,1,54,40.7c1.6-2.518,1.885-3.205.95-4.143a2.041,2.041,0,0,0-.2-.179c.383-.495.937-1.26,1.729-2.43l.044-.066.025-.077a14.214,14.214,0,0,1,1.507-3.2,15.369,15.369,0,0,1,1.184-1.641c.126-.149.249-.29.367-.419.136-.15.269-.285.391-.4s.24-.224.348-.313l.037-.031a1.06,1.06,0,0,1,1.216.1ZM19.1,35.059H30.212A4.972,4.972,0,0,1,33.1,36.232H33.1c.293.219.3.213.585.213h.779c.3,0,.311.006.576-.272a5.45,5.45,0,0,1,2.85-1.114H48.847a.587.587,0,0,0,.585-.59V14.478a.587.587,0,0,0-.585-.591H37.892a4.948,4.948,0,0,0-3.841,1.552,4.949,4.949,0,0,0-3.84-1.552H19.1a.588.588,0,0,0-.585.592V34.47A.586.586,0,0,0,19.1,35.059ZM37.8,14.977H48.342V33.97H37.8a5.876,5.876,0,0,0-3.174,1.174V16.511S34.54,14.977,37.8,14.977Zm-18.1,0H30.24c3.258,0,3.174,1.533,3.174,1.533V35.144A5.872,5.872,0,0,0,30.24,33.97H19.694Zm25.124,8.791H37.134v.839h7.684Zm-1.229,4.958H37.134v.84h6.455Zm2.064-7.437H37.134v.839h8.519v-.839Zm.6-2.479H37.134v.84h9.118Zm-.66,7.437H37.134v.84h8.458ZM30.011,23.768H22.326v.839h7.684Zm-1.229,4.958H22.326v.84h6.455Zm2.064-7.437H22.326v.839h8.519v-.839Zm.6-2.479H22.326v.84h9.118Zm-.66,7.437H22.326v.84h8.458Z" transform="translate(-4.76 -13.687)" stroke="#000" stroke-width="0.4"/></svg>