<svg xmlns="http://www.w3.org/2000/svg" width="47.398" height="47.4" viewBox="0 0 47.398 47.4"><g transform="translate(-901.801 -472.8)" opacity="0.999"><path d="M55.236,38.925H52.3V27.763a.588.588,0,0,0-.785-.553l-1.641.586V26.588a.587.587,0,0,0-.794-.55L35.055,31.326a.588.588,0,0,0-.38.55V33.05h-2.35V31.875a.588.588,0,0,0-.38-.55L17.92,26.038a.587.587,0,0,0-.794.55V27.8l-1.641-.586a.588.588,0,0,0-.785.553V38.925H11.762A1.764,1.764,0,0,0,10,40.688v9.4a1.765,1.765,0,0,0,1.762,1.762H14.7v5.287a.588.588,0,0,0,.39.553l16.45,5.875a.586.586,0,0,0,.2.034h3.525a.586.586,0,0,0,.2-.034l16.45-5.875a.588.588,0,0,0,.39-.553V51.85h2.937A1.765,1.765,0,0,0,57,50.088v-9.4A1.764,1.764,0,0,0,55.236,38.925ZM48.7,27.437v.778L35.849,32.8v-.522Zm-30.4,0,12.848,4.845V32.8L18.3,28.215ZM11.175,50.088v-9.4a.588.588,0,0,1,.587-.587h4.7a1.764,1.764,0,0,1,1.762,1.762v7.05a1.769,1.769,0,0,1-.051.4c-.01.044-.026.086-.04.129a1.736,1.736,0,0,1-.1.246c-.022.045-.046.089-.072.132a1.728,1.728,0,0,1-.167.229c-.024.028-.044.058-.069.083a1.759,1.759,0,0,1-.319.26,1.7,1.7,0,0,1-.234.127c-.035.016-.073.027-.109.041a1.741,1.741,0,0,1-.19.059c-.035.008-.07.016-.106.023a1.763,1.763,0,0,1-.307.031h-4.7A.588.588,0,0,1,11.175,50.088Zm4.7,1.762h.587a2.94,2.94,0,0,0,.518-.052c.055-.01.108-.022.162-.035a2.878,2.878,0,0,0,.352-.11c.049-.018.1-.032.146-.053a3.008,3.008,0,0,0,.385-.2c.013-.008.024-.018.036-.026.038-.025.073-.052.109-.079a2.937,2.937,0,0,0,.328-.271c.018-.017.036-.033.053-.05a2.886,2.886,0,0,0,.334-.4l.024-.038a2.848,2.848,0,0,0,.25-.459l.01-.02a2.945,2.945,0,0,0,.156-.5c.008-.033.013-.066.019-.1a2.988,2.988,0,0,0,.054-.535v-7.05a2.941,2.941,0,0,0-2.937-2.937h-.587V28.6l1.63.582a.116.116,0,0,1,.012.006l12.911,4.608.722.258V62.179L15.875,56.723Zm16.45-17.625h2.35v28.2h-2.35Zm18.8,22.5L35.849,62.179V34.052l.722-.258,12.911-4.608a.116.116,0,0,1,.012-.006l1.63-.582V38.925h-.587A2.941,2.941,0,0,0,47.6,41.863v7.05a2.988,2.988,0,0,0,.054.535c.006.033.012.066.019.1a2.88,2.88,0,0,0,.156.5c0,.006.006.013.009.019a2.838,2.838,0,0,0,.25.461l.024.038a2.917,2.917,0,0,0,.334.4c.018.018.036.033.055.051a2.874,2.874,0,0,0,.325.268c.038.028.074.056.113.082l.033.024a3.081,3.081,0,0,0,.384.2c.049.021.1.036.152.055a2.931,2.931,0,0,0,.347.109c.055.013.109.025.164.035a2.927,2.927,0,0,0,.517.052h.587Zm4.7-6.636a.588.588,0,0,1-.587.587h-4.7a1.769,1.769,0,0,1-.307-.031c-.036-.006-.071-.015-.107-.023a1.658,1.658,0,0,1-.186-.058c-.038-.014-.078-.026-.115-.042a1.768,1.768,0,0,1-.232-.126,1.746,1.746,0,0,1-.32-.261c-.025-.026-.046-.056-.069-.084a1.737,1.737,0,0,1-.167-.227c-.026-.043-.049-.088-.072-.133a1.754,1.754,0,0,1-.1-.244c-.014-.043-.03-.085-.04-.129a1.766,1.766,0,0,1-.051-.4v-7.05A1.764,1.764,0,0,1,50.537,40.1h4.7a.588.588,0,0,1,.587.587Z" transform="translate(892 456.401)" stroke="#000" stroke-width="0.4"/><path d="M32.587,20.575h8.225a.587.587,0,0,0,.587-.587V18.225h2.35v1.762a.587.587,0,0,0,.587.587h8.225a.587.587,0,0,0,.587-.587v-4.7a.511.511,0,0,0-.014-.066.548.548,0,0,0-.024-.117A.571.571,0,0,0,53.061,15a.475.475,0,0,0-.029-.061l-3.525-4.7A.566.566,0,0,0,49.021,10a.587.587,0,0,0-.473.261l-1.175,1.762a.587.587,0,1,0,.978.652l.714-1.071,2.322,3.1h-7.05a.587.587,0,0,0-.587.587V17.05H41.4V15.288a.587.587,0,0,0-.587-.587h-7.05l2.322-3.1.714,1.071a.587.587,0,1,0,.978-.652L36.6,10.262A.587.587,0,0,0,36.128,10a.579.579,0,0,0-.486.235l-3.525,4.7a.516.516,0,0,0-.029.061.571.571,0,0,0-.052.108.548.548,0,0,0-.023.117.511.511,0,0,0-.014.066v4.7A.587.587,0,0,0,32.587,20.575Zm12.337-4.7h7.05V19.4h-7.05Zm-4.7,3.525h-7.05V15.875h7.05Z" transform="translate(882.924 463.001)" stroke="#000" stroke-width="0.4"/></g></svg>