<svg xmlns="http://www.w3.org/2000/svg" width="48.107" height="47.748" viewBox="0 0 48.107 47.748"><g transform="translate(-2.76 -4.632)"><g transform="translate(3.059 4.933)"><path d="M31.928,94.217a.378.378,0,0,0,.4-.035L35.76,91.61,39.2,94.182a.377.377,0,0,0,.6-.3V85.916H51.312c1.878.092,3.107-.721,3.777-2.746.7-2.13.593-5.776-1.777-6.62a2,2,0,0,0-1.4.054c-2.181.866-3.07,2.583-2.437,4.709a1.73,1.73,0,0,0,3.334-.915l-.735.172A.975.975,0,0,1,50.2,81.1c-.364-1.224-.315-2.876,1.992-3.792a1.24,1.24,0,0,1,.87-.045c1.881.669,1.893,3.921,1.314,5.672-.552,1.669-1.429,2.317-3.053,2.228-2.207,0-3.638-2.553-3.638-5.016,0-2.339,1.338-5.023,3.638-5.023a.377.377,0,1,0,0-.755H20.31c-2.426,0-4.4,2.592-4.4,5.777s1.974,5.771,4.4,5.771h11.41v7.963A.378.378,0,0,0,31.928,94.217Zm7.117-1.091-3.059-2.29a.378.378,0,0,0-.452,0l-3.059,2.29v-7.21h6.571Zm7.881-12.982h0a6.185,6.185,0,0,0,2.223,5.016H38.85a8.783,8.783,0,0,1,0-10.038h10.3A6.338,6.338,0,0,0,46.926,80.144Zm-30.261,0c0-2.769,1.635-5.022,3.645-5.022h6.563a17.547,17.547,0,0,0-.718,4.275l.754.032a16.754,16.754,0,0,1,.75-4.307h1.658a17.6,17.6,0,0,0,0,10.038H20.31C18.3,85.161,16.664,82.911,16.664,80.145ZM30.1,75.123h1.908a17.3,17.3,0,0,0-.622,3.068l.75.082a16.526,16.526,0,0,1,.66-3.15h2.133a17.341,17.341,0,0,0-.635,3.184l.751.077a16.543,16.543,0,0,1,.672-3.261h2.221a9.541,9.541,0,0,0,0,10.038H30.1A16.834,16.834,0,0,1,30.1,75.123Z" transform="translate(-11.06 -47.118)" stroke="#000" stroke-width="0.6"/><path d="M50.313,13.722a.377.377,0,0,0,0-.714L26.931,4.953a.38.38,0,0,0-.246,0L3.314,13.008a.377.377,0,0,0,0,.714l10.118,3.487v9.955c0,2.271,7.843,3.1,13.115,3.1s13.1-.824,13.1-3.1V17.4l6.535-2.251v3.173l-2.063,3.846a.377.377,0,0,0,.333.556h4.216A.377.377,0,0,0,49,22.163L46.941,18.3V14.884Zm-5.227,8.242L46.568,19.2l1.475,2.762ZM26.808,5.709l22.224,7.656c-28.7,9.712-3.952,1.321-22.36,7.609L4.595,13.365ZM38.9,27.164c0,.955-4.811,2.341-12.35,2.341s-12.36-1.386-12.36-2.341v-9.6l12.227,4.212a.38.38,0,0,0,.246,0l.013,0,.013,0a.376.376,0,0,0,.246,0L38.9,17.655Z" transform="translate(-3.059 -4.933)" stroke="#000" stroke-width="0.6"/><path d="M60.477,25.115a3.327,3.327,0,1,0-3.3-3.33A3.319,3.319,0,0,0,60.477,25.115Zm0-5.9a2.572,2.572,0,1,1-2.545,2.569A2.56,2.56,0,0,1,60.477,19.215Z" transform="translate(-36.753 -13.355)" stroke="#000" stroke-width="0.6"/></g></g></svg>