<svg xmlns="http://www.w3.org/2000/svg" width="107.872" height="107.872" viewBox="0 0 107.872 107.872">
    <defs>
        <style>
            .cls-1{opacity:.95;fill:url(#linear-gradient)}.cls-2,.cls-3{fill:#a12023}.cls-3{fill-rule:evenodd}.cls-4{filter:url(#Ellipse_59)}
        </style>
        <linearGradient id="linear-gradient" x1=".5" x2=".5" y2="1" gradientUnits="objectBoundingBox">
            <stop offset="0" stop-color="#fff"/>
            <stop offset="1" stop-color="#fff"/>
        </linearGradient>
        <filter id="Ellipse_59" width="107.872" height="107.872" x="0" y="0" filterUnits="userSpaceOnUse">
            <feOffset dy="3"/>
            <feGaussianBlur result="blur" stdDeviation="3"/>
            <feFlood flood-opacity=".161"/>
            <feComposite in2="blur" operator="in"/>
            <feComposite in="SourceGraphic"/>
        </filter>
    </defs>
    <g id="Group_3595" data-name="Group 3595" transform="translate(9 6)">
        <g class="cls-4" transform="translate(-9 -6)">
            <circle id="Ellipse_59-2" cx="44.936" cy="44.936" r="44.936" class="cls-1" data-name="Ellipse 59" transform="translate(9 6)"/>
        </g>
        <g id="Group_415" data-name="Group 415" transform="translate(10.859 11.596)">
            <path id="Path_2457" d="M73.516 54.085l-5.5-1.17.178-.839.833.177a2.318 2.318 0 0 1-.645-.758 1.062 1.062 0 0 1-.06-.637 1.867 1.867 0 0 1 .5-.895l.8.506a1.345 1.345 0 0 0-.349.639.917.917 0 0 0 .067.59 1.024 1.024 0 0 0 .437.455 3.675 3.675 0 0 0 1.055.387l2.882.613zm-3.369 1.406a6.913 6.913 0 0 1-.22 1.584 3.563 3.563 0 0 0-.121.844.834.834 0 0 0 1.228.708 1.25 1.25 0 0 0 .539-.7 1.969 1.969 0 0 0 .126-1 1.487 1.487 0 0 0-.39-.825 2.292 2.292 0 0 0-.835-.485zm2.018.69a3.622 3.622 0 0 1 .229 1.18 2.958 2.958 0 0 1-.205 1.049 2.04 2.04 0 0 1-.932 1.168 1.5 1.5 0 0 1-1.259.05 1.528 1.528 0 0 1-.638-.446 1.551 1.551 0 0 1-.335-.656 2.35 2.35 0 0 1-.046-.753 6.708 6.708 0 0 1 .17-.842 8.677 8.677 0 0 0 .3-1.706l-.23-.094a1.046 1.046 0 0 0-.864-.042 1.583 1.583 0 0 0-.691.9A1.684 1.684 0 0 0 67.53 57a1.446 1.446 0 0 0 .61.742l-.453.823a2.308 2.308 0 0 1-.752-.736 1.826 1.826 0 0 1-.228-.99 3.763 3.763 0 0 1 .271-1.263 3.382 3.382 0 0 1 .578-1.031 1.558 1.558 0 0 1 .637-.467 1.511 1.511 0 0 1 .712-.044 5.491 5.491 0 0 1 .837.271l1.187.456a13.3 13.3 0 0 0 1.591.545 2.11 2.11 0 0 0 .717.017l-.357.93a2.018 2.018 0 0 1-.715-.072zM68.7 65.107l-6.793-3.765.463-.834 2.437 1.351a2.135 2.135 0 0 1 .14-1.85 2.267 2.267 0 0 1 .744-.829 1.431 1.431 0 0 1 .914-.248 3.147 3.147 0 0 1 1.2.437l3.117 1.731-.464.835-3.118-1.73a1.478 1.478 0 0 0-1.06-.234 1.157 1.157 0 0 0-.711.609 1.546 1.546 0 0 0-.193.8 1.232 1.232 0 0 0 .263.755 2.729 2.729 0 0 0 .831.642l2.691 1.492zm-1.555 1.9l-4.433-3.464.588-.743 4.432 3.464zM61.889 62.9l-.865-.676.588-.752.865.676zm2.678 7.021l-5.575-2.271.687-.737 3.288 1.414q.532.228 1.075.51c-.159-.264-.34-.593-.542-.989L61.843 64.6l.669-.717 2.661 5.4zm-4.717.45a6.942 6.942 0 0 1-.983 1.261 3.566 3.566 0 0 0-.527.671.834.834 0 0 0 .71 1.226 1.241 1.241 0 0 0 .816-.335 1.959 1.959 0 0 0 .61-.8 1.488 1.488 0 0 0 .075-.91 2.3 2.3 0 0 0-.48-.837zm1.4 1.605a3.637 3.637 0 0 1-.392 1.137 2.983 2.983 0 0 1-.7.806 2.049 2.049 0 0 1-1.392.545 1.5 1.5 0 0 1-1.115-.587 1.529 1.529 0 0 1-.33-.705 1.562 1.562 0 0 1 .037-.736 2.342 2.342 0 0 1 .337-.676 6.794 6.794 0 0 1 .568-.644A8.612 8.612 0 0 0 59.38 69.8c-.079-.1-.13-.17-.151-.2a1.048 1.048 0 0 0-.728-.467 1.584 1.584 0 0 0-1.047.431 1.687 1.687 0 0 0-.624.809 1.446 1.446 0 0 0 .157.947l-.8.486a2.32 2.32 0 0 1-.283-1.013 1.829 1.829 0 0 1 .3-.971 3.761 3.761 0 0 1 .868-.958 3.388 3.388 0 0 1 1.016-.6 1.569 1.569 0 0 1 .784-.086 1.533 1.533 0 0 1 .639.318 5.505 5.505 0 0 1 .59.653l.8.989A13.259 13.259 0 0 0 62 71.4a2.132 2.132 0 0 0 .612.374l-.774.627a2 2 0 0 1-.585-.42zm-6.245 7.285l-.514-.74a2.145 2.145 0 0 0 .522-.182 1.047 1.047 0 0 0 .4-.332.847.847 0 0 0 .137-.409 4.383 4.383 0 0 0-.076-.763c-.01-.057-.02-.137-.035-.246l-4.53-3.975.907-.483 2.564 2.326q.49.442.971.96a12.919 12.919 0 0 1-.256-1.317l-.477-3.459.842-.448.8 6.057a11.211 11.211 0 0 1 .127 1.378 1.889 1.889 0 0 1-.19.884 1.382 1.382 0 0 1-.59.564 1.917 1.917 0 0 1-.599.19zm-7.066-2.739a2.443 2.443 0 0 0 .957 1.381 1.377 1.377 0 0 0 1.191.156 1.352 1.352 0 0 0 .837-.83 2.36 2.36 0 0 0-.095-1.618 2.639 2.639 0 0 0-.972-1.457A1.366 1.366 0 0 0 48.648 74a1.322 1.322 0 0 0-.834.837 2.557 2.557 0 0 0 .128 1.689zm3.768 1.678l-.231-.672a1.747 1.747 0 0 1-1.215 1.3 2.206 2.206 0 0 1-1.291.052 2.432 2.432 0 0 1-1.164-.695 3.575 3.575 0 0 1-.79-1.344 4.021 4.021 0 0 1-.233-1.536 2.212 2.212 0 0 1 .455-1.268 2.258 2.258 0 0 1 1.069-.757 1.886 1.886 0 0 1 1.719.227l-.907-2.635.9-.309 2.529 7.344zm-5.832 1.61L44.8 74.288l.937-.183 1.073 5.523zM44.6 73.264l-.21-1.077.941-.187.21 1.077zm-3.32 7.068l-3.675-7.475 1.11-.1 2.5 5.445c.2.436.373.848.516 1.23.084-.432.186-.865.308-1.3l1.6-5.8 1.045-.091-2.353 8zm-8.465-3.54a6.943 6.943 0 0 1-1.6-.081 3.537 3.537 0 0 0-.851-.047.834.834 0 0 0-.6 1.284 1.247 1.247 0 0 0 .742.477 1.961 1.961 0 0 0 1.009.038 1.49 1.49 0 0 0 .789-.46 2.292 2.292 0 0 0 .41-.874zm-.51 2.07a3.613 3.613 0 0 1-1.156.331 2.965 2.965 0 0 1-1.063-.113 2.045 2.045 0 0 1-1.245-.827A1.5 1.5 0 0 1 28.682 77a1.519 1.519 0 0 1 .39-.675 1.542 1.542 0 0 1 .624-.391 2.333 2.333 0 0 1 .747-.111 6.712 6.712 0 0 1 .853.1 8.707 8.707 0 0 0 1.726.153c.039-.124.063-.2.073-.237a1.046 1.046 0 0 0-.034-.864 1.584 1.584 0 0 0-.954-.61 1.69 1.69 0 0 0-1.021-.048 1.447 1.447 0 0 0-.686.672l-.859-.38a2.32 2.32 0 0 1 .667-.813 1.828 1.828 0 0 1 .967-.313 3.761 3.761 0 0 1 1.282.16 3.4 3.4 0 0 1 1.078.486 1.557 1.557 0 0 1 .52.593 1.515 1.515 0 0 1 .106.706 5.445 5.445 0 0 1-.2.857l-.35 1.223a12.934 12.934 0 0 0-.4 1.633 2.1 2.1 0 0 0 .044.717l-.957-.275a2.012 2.012 0 0 1 .002-.722zm-9.705-.573l.282-.857a2.179 2.179 0 0 0 .459.308 1.042 1.042 0 0 0 .505.118.848.848 0 0 0 .409-.137 4.421 4.421 0 0 0 .564-.519c.039-.042.1-.1.176-.176l.449-6.011.93.434-.316 3.451c-.039.439-.1.89-.183 1.354a13.274 13.274 0 0 1 .9-1l2.476-2.463.864.4-4.357 4.281a11.308 11.308 0 0 1-1.025.931 1.892 1.892 0 0 1-.819.38 1.384 1.384 0 0 1-.8-.132 1.887 1.887 0 0 1-.514-.362zM21.443 75.1l2.812-4.872.827.477-2.812 4.872zm3.334-5.776l.55-.95.826.477-.549.95zm-3.565 2.243a7.009 7.009 0 0 1-1.437-.7 3.552 3.552 0 0 0-.765-.376.835.835 0 0 0-1.053.949 1.249 1.249 0 0 0 .5.728 1.961 1.961 0 0 0 .913.43 1.492 1.492 0 0 0 .906-.116 2.308 2.308 0 0 0 .719-.644zm-1.278 1.705a3.61 3.61 0 0 1-1.193-.147 2.957 2.957 0 0 1-.934-.519 2.048 2.048 0 0 1-.824-1.248 1.5 1.5 0 0 1 .343-1.213 1.527 1.527 0 0 1 .622-.469 1.56 1.56 0 0 1 .727-.117 2.321 2.321 0 0 1 .73.19 6.689 6.689 0 0 1 .748.422 8.615 8.615 0 0 0 1.53.815l.16-.189a1.046 1.046 0 0 0 .306-.809 1.584 1.584 0 0 0-.64-.935 1.7 1.7 0 0 0-.92-.444 1.457 1.457 0 0 0-.895.351l-.643-.685a2.32 2.32 0 0 1 .932-.488 1.83 1.83 0 0 1 1.017.089 3.777 3.777 0 0 1 1.117.649 3.4 3.4 0 0 1 .8.869 1.558 1.558 0 0 1 .247.75 1.52 1.52 0 0 1-.178.691 5.46 5.46 0 0 1-.517.712l-.8.988a13.326 13.326 0 0 0-1.01 1.346 2.1 2.1 0 0 0-.238.677l-.775-.627a2.01 2.01 0 0 1 .288-.66zm-9.387-8.508l4.31-3.617.548.653-.6.507a1.991 1.991 0 0 1 1.8.718 1.843 1.843 0 0 1 .458.951 1.378 1.378 0 0 1-.193.9 2.023 2.023 0 0 1 1.872.7 1.71 1.71 0 0 1 .471 1.285 1.975 1.975 0 0 1-.8 1.262L15.446 70.6l-.609-.725 2.716-2.275a2.634 2.634 0 0 0 .573-.6.827.827 0 0 0 .094-.518 1.06 1.06 0 0 0-.251-.537 1.33 1.33 0 0 0-.937-.5 1.742 1.742 0 0 0-1.219.511l-2.5 2.1-.613-.73 2.8-2.35a1.615 1.615 0 0 0 .582-.792.883.883 0 0 0-.247-.789 1.379 1.379 0 0 0-.641-.433 1.2 1.2 0 0 0-.792.018 3.491 3.491 0 0 0-1 .639l-2.242 1.874zm.093-6.057a2.39 2.39 0 0 0-1.228 1.155 1.569 1.569 0 0 0 1.077 2.11 2.459 2.459 0 0 0 1.681-.329 2.323 2.323 0 0 0 1.195-1.143 1.572 1.572 0 0 0-1.072-2.108 2.383 2.383 0 0 0-1.653.314zm-.445-.874a2.9 2.9 0 0 1 2.458-.276 2.618 2.618 0 0 1 1.36 1.291 2.524 2.524 0 0 1 .183 2.037 2.888 2.888 0 0 1-1.537 1.609 3.718 3.718 0 0 1-1.671.485 2.3 2.3 0 0 1-1.292-.4 2.765 2.765 0 0 1-.924-1.056 2.527 2.527 0 0 1-.192-2.046 3.022 3.022 0 0 1 1.615-1.645zm-2.163-6.27l.333.914a2.123 2.123 0 0 0-.841.557 1.754 1.754 0 0 0-.382.91 2.973 2.973 0 0 0 .087 1.211 2.87 2.87 0 0 0 .437.957 1.446 1.446 0 0 0 .637.524 1.114 1.114 0 0 0 .7.041 1 1 0 0 0 .561-.371 1.563 1.563 0 0 0 .262-.793 14.21 14.21 0 0 0 .009-1.434 7.053 7.053 0 0 1 .08-1.574 2.106 2.106 0 0 1 .484-.989 1.778 1.778 0 0 1 .863-.516 1.97 1.97 0 0 1 1.146.037 2.069 2.069 0 0 1 1 .74 3.727 3.727 0 0 1 .624 1.308 3.89 3.89 0 0 1 .125 1.544 2.2 2.2 0 0 1-.527 1.192 2.372 2.372 0 0 1-1.084.685l-.327-.933a1.6 1.6 0 0 0 .935-.808 2.088 2.088 0 0 0 .013-1.4 2.179 2.179 0 0 0-.682-1.225 1.029 1.029 0 0 0-.905-.2.884.884 0 0 0-.588.47 4.08 4.08 0 0 0-.133 1.64 10.366 10.366 0 0 1-.033 1.789 2.385 2.385 0 0 1-.506 1.173 1.934 1.934 0 0 1-.984.6 2.1 2.1 0 0 1-1.22-.04 2.345 2.345 0 0 1-1.088-.764 3.561 3.561 0 0 1-.681-1.366 4.443 4.443 0 0 1-.16-1.786 2.472 2.472 0 0 1 .6-1.321 2.61 2.61 0 0 1 1.245-.773z" class="cls-2" data-name="Path 2457" transform="translate(-6.157 -13.157)"/>
            <path id="Path_2458" d="M58.18 35.928q.506-.579 1-1.154.55-.686.4-1.12a1.734 1.734 0 0 0-.284-.525 1.347 1.347 0 0 0-.5-.372l-.625.666c.178.139.339.276.483.411a1.04 1.04 0 0 1 .243.286c.022.063-.021.173-.128.333q-.49.69-.985 1.368zm5.436-4.907l.254.629-3.839 1.55-.262 1.19 4.478-1.809.295.73.861-.348-.924-2.29zM62.249 28.3l.44.793-1.195.662-.217-.391a.144.144 0 0 0-.142-.065.476.476 0 0 0-.22.066.664.664 0 0 0-.345.391l-.336 1.06a.611.611 0 0 0-.02.223.445.445 0 0 0 .042.177.315.315 0 0 0 .184.153.278.278 0 0 0 .227-.019l.4-.223.647 1.165.907-.5-.646-1.166 1.195-.662.434.784.812-.45-1.354-2.448zm-1.189-1.817l.358.575-3.511 2.194-.051 1.217 4.1-2.558.417.667.788-.492-1.309-2.094zm-.49-.723l.43.54.722-.584-1.561-1.928-.722.585.633.781a.319.319 0 0 1 .012.25.519.519 0 0 1-.171.23.727.727 0 0 1-.41.163.4.4 0 0 1-.369-.151l-.289-.357a.54.54 0 0 0-.27.135 2.1 2.1 0 0 0-.671 1.064 1.347 1.347 0 0 0 .166 1.3 1.893 1.893 0 0 0 .98.655l.968-.784a1.681 1.681 0 0 1-.768-.158 1.651 1.651 0 0 1-.6-.459.589.589 0 0 1-.121-.3.279.279 0 0 1 .095-.273.922.922 0 0 0 .742.186 1.606 1.606 0 0 0 .783-.352 1.385 1.385 0 0 0 .421-.542zm-3.25-2.184a.885.885 0 0 0-.77-.232 1.605 1.605 0 0 0-.9.553 2.17 2.17 0 0 0-.43 1.2 6.972 6.972 0 0 0 .005 1.724l.409.186a4.476 4.476 0 0 1 .508-2.5.742.742 0 0 1 .455-.264.512.512 0 0 1 .415.148c.17.159.2.294.1.406l-.618.664.329.784.719-.771a.405.405 0 0 1 .307-.137.447.447 0 0 1 .315.127.768.768 0 0 1 .188.279 1.163 1.163 0 0 0 .2-.552.539.539 0 0 0-.152-.477l-.08-.075a.525.525 0 0 0-.341-.138.7.7 0 0 0-.387.087 1.036 1.036 0 0 0 .014-.48.93.93 0 0 0-.286-.531zm.276-2.267l-.633.679 2.213 2.064.634-.679zm-2.6-.8l.534.417-2.549 3.263.368 1.161 2.973-3.8.62.484.571-.731-1.945-1.52zm-1.317-1.943l-.492.788L55 20.486l.492-.788zm.718 3.7a1.723 1.723 0 0 1-1.328-.121c-.185-.117-.243-.25-.173-.4a.658.658 0 0 1 .7-.264 2.25 2.25 0 0 1 .943.337l.061-.9a1.8 1.8 0 0 0-1.164-.334 1.125 1.125 0 0 0-.837.566 1.31 1.31 0 0 0-.143 1.064 1.4 1.4 0 0 0 .616.881 1.2 1.2 0 0 0 .339.147.929.929 0 0 0 .372.014zm-4.246-2.915l-.57 1.119a1.555 1.555 0 0 1 .595-.083 1.368 1.368 0 0 1 .514.146.567.567 0 0 1 .137.3.5.5 0 0 1-.054.285 1.024 1.024 0 0 1-.4.4 1.84 1.84 0 0 1-.574.236.716.716 0 0 0-.1.39.54.54 0 0 0 .339.394.6.6 0 0 0 .658-.112 2.086 2.086 0 0 0 .6-.744 1.839 1.839 0 0 0 .161-1.205 1.391 1.391 0 0 0-.744-1.042.705.705 0 0 0-.559-.086zm1.009-.9l1.9.967.421-.827-1.9-.967zm-1.454-3.022c-.158-.183-.3-.336-.417-.461a2.387 2.387 0 0 0-.57-.493l-.989-.44.11 1.165.609.271a4.979 4.979 0 0 1 .959.666 2.61 2.61 0 0 1 .734.77l.7.31q-.162-1-.3-1.688a14.8 14.8 0 0 0-.423-1.684c-.167-.52-.33-.817-.49-.887l-.988-.44.1 1.169.31.138a2.413 2.413 0 0 1 .407.91q.186.547.251.696zm-.932 2.022l.637.232L48 21.576l.71.99 1.651-4.538.739.269.317-.872-2.32-.844zm.017.063l.256-.892-2.067-.592-.257.892zm-.057 1.78a1.872 1.872 0 0 1-1.232.215.422.422 0 0 1-.307-.554q.1-.357 1.369-.335l-.1-.846a2.641 2.641 0 0 0-1.216.2 1.232 1.232 0 0 0-.717.795 1.552 1.552 0 0 0 .211 1.01 1.315 1.315 0 0 0 .8.631 1.467 1.467 0 0 0 .416.057 1.579 1.579 0 0 0 .465-.077zm-5.387 2.957a1.266 1.266 0 0 0-.27-.923 1.152 1.152 0 0 0-.852-.416 1.65 1.65 0 0 0-.718.087 1.256 1.256 0 0 0-.55.5l.5.725a1.766 1.766 0 0 1 .454-.467.677.677 0 0 1 .4-.131.433.433 0 0 1 .307.153.423.423 0 0 1 .11.315.6.6 0 0 1-.206.445 1.074 1.074 0 0 1-.768.165 1.882 1.882 0 0 1-1.124-.691 5.641 5.641 0 0 1-.77-1.04l-.589-.041q.764 1.137.784 1.161a4.408 4.408 0 0 0 .835.9 1.922 1.922 0 0 0 1.044.412 1.327 1.327 0 0 0 1.005-.28 1.228 1.228 0 0 0 .41-.873zm-2.376-5.886h.677v4.141l1.005.688v-4.827h.786v-.929h-2.466zm.093-.15L41 15.291l-2.463.172.064.926zm-1.4 1.018a.674.674 0 0 0-.53.327 1.188 1.188 0 0 0-.171.762 2.681 2.681 0 0 0 .463 1.282 9.166 9.166 0 0 0 1.18 1.375l.418-.282a4.514 4.514 0 0 1-.907-.993 2.086 2.086 0 0 1-.41-.93.529.529 0 0 1 .1-.363.48.48 0 0 1 .377-.175l1.45-.1-.068-1.036zm-6.364.354l.651-.187 1.141 3.98 1.157.384-1.331-4.641.756-.217-.256-.892-2.373.68zm-2.3-.011l.348.862 1.975-.8-.348-.861zm3.412 1.591a1.722 1.722 0 0 1-.879 1c-.2.083-.345.05-.429-.1a.659.659 0 0 1 .2-.722 2.278 2.278 0 0 1 .827-.564l-.694-.579a1.8 1.8 0 0 0-.954.744 1.128 1.128 0 0 0-.034 1.01 1.311 1.311 0 0 0 .777.741 1.4 1.4 0 0 0 1.074.019 1.153 1.153 0 0 0 .319-.188.927.927 0 0 0 .23-.292zm-4.074-1.32a9.527 9.527 0 0 0-1.9-.96 2.133 2.133 0 0 0-1.371-.2l-.988.44.932.7.609-.27a1.347 1.347 0 0 1 .848.023 4.988 4.988 0 0 1 1.25.55zm-1.328 2.678a.829.829 0 0 0-.317.632 1.665 1.665 0 0 0 .247.843 2.045 2.045 0 0 0 1.06.9 1.59 1.59 0 0 0 1.427-.017l.223-.162a3.164 3.164 0 0 1 .444.192.833.833 0 0 1 .337.313l.678-.377q-.193-.167-.3-.256a1.376 1.376 0 0 0-.643-.281 1.7 1.7 0 0 0 .09-.468.763.763 0 0 0-.108-.309 1.62 1.62 0 0 0-.358-.489.589.589 0 0 0-.679.015.7.7 0 0 0-.319.383.517.517 0 0 0 .267.695.563.563 0 0 1-.179.15.819.819 0 0 1-.681.046.848.848 0 0 1-.507-.363.815.815 0 0 1-.09-.468.463.463 0 0 1 .25-.394l1.262-.7-.843-1.51.793-.439-.45-.812-3.526 1.951.45.812 1.962-1.081.392.707zm-3.624 1.664l.534-.417 2.549 3.263 1.216-.077-2.973-3.805.62-.484-.571-.732-1.946 1.52zm-1.756 1.65l.488-.47 2.876 2.978 1.2-.2-3.353-3.477.566-.546-.645-.669-1.777 1.715zm-.515 2.1a.422.422 0 0 0-.076.329.53.53 0 0 0 .174.363.346.346 0 0 0 .26.087l1.371.029a.509.509 0 0 0 .373-.12c.049-.054.054-.1.017-.132l-.764-.687 1.118-1.243-.682-.614zM21.2 25.13l.69.622 1.732-1.924-.69-.622zm-.747 2.738l.4-.549 3.35 2.434 1.148-.409-3.906-2.838.462-.636-.751-.546-1.451 2zm-1.172 1.991l.349-.581 3.55 2.132 1.107-.507-4.139-2.487.4-.674-.8-.478-1.261 2.116zm-2.251 3.118l.867.333 1.163-3.03-.867-.332zm4.508-.189a.994.994 0 0 0-.65.593.694.694 0 0 0-.012.5.575.575 0 0 0 .355.341.482.482 0 0 0 .5-.076 1.215 1.215 0 0 0 .361-.529l.086-.224.984-.337-.039-.6-.884.2a1.366 1.366 0 0 0-.181-.73.98.98 0 0 0-.5-.455 1.077 1.077 0 0 0-1.018.276 3.4 3.4 0 0 0-.788.833l.8-2.081-.847-.324-.881 2.295a.738.738 0 0 0-.016.5.489.489 0 0 0 .293.335q.531.2 1.317-.518t.99-.644a.284.284 0 0 1 .181.244.781.781 0 0 1-.051.401z" class="cls-2" data-name="Path 2458" transform="translate(-7.575 -6.08)"/>
            <path id="Path_2459" d="M69.2 28.958l.388.741a.6.6 0 0 0-.276.321.721.721 0 0 0 .029.468.81.81 0 0 0 .269.417.26.26 0 0 0 .243.031.217.217 0 0 0 .129-.106.666.666 0 0 0 .012-.3 4.449 4.449 0 0 1-.032-1.327.8.8 0 0 1 .544-.577.86.86 0 0 1 .747.081 1.489 1.489 0 0 1 .584.847 1.739 1.739 0 0 1 .112.967 1.059 1.059 0 0 1-.444.605l-.389-.688a.482.482 0 0 0 .2-.27.691.691 0 0 0-.037-.408.892.892 0 0 0-.238-.411.2.2 0 0 0-.189-.034.18.18 0 0 0-.114.126 3.1 3.1 0 0 0 .03.8 2.264 2.264 0 0 1-.047.988.76.76 0 0 1-.5.444.944.944 0 0 1-.813-.1 1.584 1.584 0 0 1-.635-.9 1.743 1.743 0 0 1-.084-1.037 1.18 1.18 0 0 1 .505-.686m.432-1.611a.792.792 0 0 0 .416-.4.565.565 0 0 0-.012-.467.571.571 0 0 0-.367-.32.761.761 0 0 0-.557.068zm-.775.31l.223.8a1.343 1.343 0 0 1-.835-.163 1.47 1.47 0 0 1-.576-.675 1.394 1.394 0 0 1-.027-1.315 1.786 1.786 0 0 1 .843-.733 1.718 1.718 0 0 1 1.271-.145 1.332 1.332 0 0 1 .83.742 1.386 1.386 0 0 1 .047 1.19 2.039 2.039 0 0 1-1.112.943l-.873-1.872a.828.828 0 0 0-.432.422.625.625 0 0 0 .016.517.509.509 0 0 0 .233.25.653.653 0 0 0 .399.046zm.805-3.3l-.569.328-.282-.487-1.087.628a3.11 3.11 0 0 0-.377.236.185.185 0 0 0-.054.116.235.235 0 0 0 .034.141 1.113 1.113 0 0 0 .235.249l-.517.38a1.635 1.635 0 0 1-.433-.5 1.059 1.059 0 0 1-.137-.385.586.586 0 0 1 .037-.324.755.755 0 0 1 .22-.261 4 4 0 0 1 .49-.313l1.177-.679-.19-.328.569-.328.19.327.537-.31.83.476-.953.55zm-3.042-1.889a5.111 5.111 0 0 1-.379-.352 1.571 1.571 0 0 0-.364-.3.345.345 0 0 0-.331.023.4.4 0 0 0-.181.271.451.451 0 0 0 .074.344.712.712 0 0 0 .354.277.512.512 0 0 0 .337.017 1.606 1.606 0 0 0 .354-.192zm-.039-1.289l-.294-.7a1.163 1.163 0 0 1 .8 0 1.594 1.594 0 0 1 .681.65 1.968 1.968 0 0 1 .338.761.823.823 0 0 1-.071.5 1.705 1.705 0 0 1-.559.495l-.812.517a3.287 3.287 0 0 0-.486.364 1.79 1.79 0 0 0-.27.351l-.444-.684a3.354 3.354 0 0 1 .227-.277 1.52 1.52 0 0 1-.505-.211 1.3 1.3 0 0 1-.365-.375 1.069 1.069 0 0 1-.195-.777.872.872 0 0 1 .4-.593.89.89 0 0 1 .464-.15.828.828 0 0 1 .458.124 2.785 2.785 0 0 1 .518.445 4.455 4.455 0 0 0 .605.561l.069-.044a.429.429 0 0 0 .221-.283.7.7 0 0 0-.157-.426.585.585 0 0 0-.26-.241.6.6 0 0 0-.356.005zm-3.115-.553l-.518-.641 2.42-1.96.482.595-.343.278a1.322 1.322 0 0 1 .544.015.652.652 0 0 1 .3.214 1.036 1.036 0 0 1 .221.52l-.719.253a.714.714 0 0 0-.139-.384.452.452 0 0 0-.258-.169.639.639 0 0 0-.387.07 4.833 4.833 0 0 0-.855.6zm-.19-2.978a.8.8 0 0 0 .263-.511.594.594 0 0 0-.615-.621.756.756 0 0 0-.5.246zm-.632.544l.472.687a1.341 1.341 0 0 1-.843.117 1.457 1.457 0 0 1-.764-.45 1.393 1.393 0 0 1-.454-1.234 1.785 1.785 0 0 1 .558-.968 1.72 1.72 0 0 1 1.154-.551 1.333 1.333 0 0 1 1.027.432 1.383 1.383 0 0 1 .431 1.109 2.039 2.039 0 0 1-.745 1.254l-1.435-1.486a.829.829 0 0 0-.271.539.624.624 0 0 0 .183.484.507.507 0 0 0 .3.162.647.647 0 0 0 .394-.079zm-3.2-3.735a1.338 1.338 0 0 0-.321.658.652.652 0 0 0 .247.61.584.584 0 0 0 .51.1 1.138 1.138 0 0 0 .6-.46 1.223 1.223 0 0 0 .322-.727.612.612 0 0 0-.245-.491.625.625 0 0 0-.53-.122 1.058 1.058 0 0 0-.573.445zm-1.645.777l2.648-3.389.65.507-.954 1.221a1.166 1.166 0 0 1 .979.214 1.217 1.217 0 0 1 .489.9 1.708 1.708 0 0 1-.436 1.163 1.808 1.808 0 0 1-1.057.735 1.186 1.186 0 0 1-.992-.229 1.14 1.14 0 0 1-.333-.43 1.266 1.266 0 0 1-.11-.586l-.282.36zm-1.316-.917l1.651-2.642.7.437-1.651 2.642zm1.875-3l.4-.647.7.437-.4.647zm-5.027 1.132L55.4 8.724l.76.421-1.717 3.1 1.888 1.046-.351.634zm-2.369-2.922a.8.8 0 0 0-.007-.575.595.595 0 0 0-.835-.26.754.754 0 0 0-.33.454zm-.3.778l.739.384a1.344 1.344 0 0 1-.689.5 1.468 1.468 0 0 1-.886-.039 1.393 1.393 0 0 1-.979-.877 1.781 1.781 0 0 1 .038-1.117 1.717 1.717 0 0 1 .761-1.029 1.333 1.333 0 0 1 1.109-.1 1.384 1.384 0 0 1 .9.777 2.039 2.039 0 0 1-.07 1.457l-1.964-.638a.833.833 0 0 0 .013.6.625.625 0 0 0 .39.341.5.5 0 0 0 .342 0 .647.647 0 0 0 .294-.256zm-2.86.145l-.8-.185.357-1.55a2.5 2.5 0 0 0 .1-.648.464.464 0 0 0-.117-.263.487.487 0 0 0-.259-.143.655.655 0 0 0-.4.027.6.6 0 0 0-.3.251 2.661 2.661 0 0 0-.223.684l-.324 1.374-.8-.186.7-3.035.745.172-.1.446a1.276 1.276 0 0 1 1.584-.077.844.844 0 0 1 .277.322.9.9 0 0 1 .079.374 2.544 2.544 0 0 1-.08.55zm-5.6-2.513a1.031 1.031 0 0 0 .17.724.719.719 0 0 0 1.081.076 1.043 1.043 0 0 0 .269-.7 1.021 1.021 0 0 0-.17-.717.691.691 0 0 0-.522-.283.7.7 0 0 0-.559.208 1.028 1.028 0 0 0-.271.692zm-.84-.1a1.706 1.706 0 0 1 .257-.779 1.389 1.389 0 0 1 .614-.544 1.686 1.686 0 0 1 .841-.145 1.554 1.554 0 0 1 1.124.539 1.586 1.586 0 0 1 .37 1.19 1.611 1.611 0 0 1-.536 1.137 1.541 1.541 0 0 1-1.178.384 1.8 1.8 0 0 1-.8-.25 1.33 1.33 0 0 1-.55-.608 1.9 1.9 0 0 1-.144-.927zM39.7 9.415l.075-4.3.824.014-.075 4.3zm-2.115-1.594l-.7-1.551-.471 1.63zM39.3 9.407l-.943.066-.443-.949-1.715.12-.286 1-.918.064 1.37-4.408.917-.063zm-7.24-.85a.8.8 0 0 0-.318-.478.594.594 0 0 0-.842.237.756.756 0 0 0-.03.56zm.17.817l.83-.081a1.352 1.352 0 0 1-.305.795 1.469 1.469 0 0 1-.765.45 1.394 1.394 0 0 1-1.3-.2 1.79 1.79 0 0 1-.576-.957 1.716 1.716 0 0 1 .077-1.281 1.33 1.33 0 0 1 .875-.689 1.385 1.385 0 0 1 1.179.16 2.036 2.036 0 0 1 .735 1.259l-1.995.535a.83.83 0 0 0 .34.5.627.627 0 0 0 .512.074.51.51 0 0 0 .287-.186.645.645 0 0 0 .105-.379zm-4.894.952a1.124 1.124 0 0 0 .44.609.591.591 0 0 0 .524.045.658.658 0 0 0 .392-.4 1.037 1.037 0 0 0-.057-.728 1.089 1.089 0 0 0-.444-.6.633.633 0 0 0-.555-.039.611.611 0 0 0-.373.39 1.081 1.081 0 0 0 .072.723zM27.3 12.3l.919-.23a.328.328 0 0 0 .183.172.62.62 0 0 0 .377-.05.946.946 0 0 0 .417-.264.4.4 0 0 0 .079-.253 1.3 1.3 0 0 0-.1-.367l-.163-.424a1.114 1.114 0 0 1-.69.805 1.147 1.147 0 0 1-1.118-.139 1.809 1.809 0 0 1-.643-.871 1.723 1.723 0 0 1-.077-1.254 1.218 1.218 0 0 1 .727-.722 1.142 1.142 0 0 1 1.071.132l-.157-.407.72-.277 1 2.61a2.777 2.777 0 0 1 .21.8 1.006 1.006 0 0 1-.084.491 1.132 1.132 0 0 1-.322.384 2.329 2.329 0 0 1-.617.331 1.8 1.8 0 0 1-1.146.15.854.854 0 0 1-.556-.524.384.384 0 0 0-.03-.093zm-3.431-.211a1.421 1.421 0 0 0 .47.564.623.623 0 0 0 .644.012.605.605 0 0 0 .306-.447 1.12 1.12 0 0 0-.176-.729 1.227 1.227 0 0 0-.544-.582.612.612 0 0 0-.55.034.619.619 0 0 0-.316.442 1.05 1.05 0 0 0 .169.701zm2.712.355l-.67.371-.222-.4a1.246 1.246 0 0 1-.2.566 1.161 1.161 0 0 1-.4.368 1.191 1.191 0 0 1-1.014.068 1.768 1.768 0 0 1-.92-.87 1.745 1.745 0 0 1-.258-1.234 1.217 1.217 0 0 1 .624-.817 1.168 1.168 0 0 1 1-.058l-.751-1.355.721-.4zm-4.794.714a.8.8 0 0 0-.464-.341.565.565 0 0 0-.457.093.572.572 0 0 0-.252.417.755.755 0 0 0 .164.537zm.439.71l.752-.359a1.341 1.341 0 0 1-.016.85 1.457 1.457 0 0 1-.565.684 1.39 1.39 0 0 1-1.289.256 1.785 1.785 0 0 1-.869-.7 1.718 1.718 0 0 1-.363-1.227 1.333 1.333 0 0 1 .586-.946 1.385 1.385 0 0 1 1.163-.253 2.039 2.039 0 0 1 1.122.932l-1.691 1.184a.828.828 0 0 0 .49.353.626.626 0 0 0 .507-.106.508.508 0 0 0 .206-.272.647.647 0 0 0-.03-.401zm-2.18 2.958l-2.765-3.294.631-.53 2.768 3.288zm-2.918 2.854L14.2 18.219l.557-.576 1.874 1-1.1-1.8.552-.572 1.83 1.044-1.055-1.847.564-.584 1.546 2.884-.55.57-1.814-1.006 1.083 1.768zM13.7 21.613a1.034 1.034 0 0 0 .7.239.7.7 0 0 0 .518-.295.692.692 0 0 0 .118-.582 1.04 1.04 0 0 0-.45-.6 1.024 1.024 0 0 0-.7-.237.694.694 0 0 0-.517.292.7.7 0 0 0-.119.584 1.03 1.03 0 0 0 .45.599zm-.532.657a1.7 1.7 0 0 1-.524-.631 1.391 1.391 0 0 1-.137-.808 1.7 1.7 0 0 1 .323-.79 1.554 1.554 0 0 1 1.053-.667 1.587 1.587 0 0 1 1.2.317 1.609 1.609 0 0 1 .68 1.057 1.542 1.542 0 0 1-.3 1.2 1.815 1.815 0 0 1-.637.547 1.331 1.331 0 0 1-.808.145 1.91 1.91 0 0 1-.854-.37zm.92 1.492l-.412.714-1.376-.795a2.445 2.445 0 0 0-.6-.281.465.465 0 0 0-.285.034.5.5 0 0 0-.214.206.67.67 0 0 0-.091.392.6.6 0 0 0 .153.357 2.7 2.7 0 0 0 .589.412l1.222.706-.412.713-2.7-1.557.387-.663.4.23a1.278 1.278 0 0 1 .39-1.537.842.842 0 0 1 .389-.17.917.917 0 0 1 .381.033 2.565 2.565 0 0 1 .5.237zM11.045 30.2l-3.988-1.611.325-.8 1.771.715-1.113-2.347.437-1.083.946 2.126 3.074-.6-.421 1.042-2.314.339.4.923 1.205.487z" class="cls-2" data-name="Path 2459" transform="translate(-6.275 -5.115)"/>
            <path id="Path_2460" d="M44.759 47.4c-4.384-1.146-9.1-6.915-4.378-12.129s2.391-7.988 2.475-10.1c0 0 7.785 4.68 6.92 12.7-.831 7.7-6.989 7.821-5.017 9.531" class="cls-3" data-name="Path 2460" transform="translate(-10.364 -8.542)"/>
            <path id="Path_2461" d="M66.485 45.341a25.426 25.426 0 0 1-50.848 0 12.714 12.714 0 0 0 25.424-.328 12.714 12.714 0 0 0 25.424.328m-25.422-.493v0z" class="cls-3" data-name="Path 2461" transform="translate(-7.393 -12.49)"/>
        </g>
    </g>
</svg>
