<svg xmlns="http://www.w3.org/2000/svg" width="50.762" height="52.125" viewBox="0 0 50.762 52.125">
    <defs>
        <style>
            .cls-1,.cls-2{fill:#fff}.cls-2{fill-rule:evenodd}
        </style>
    </defs>
    <g id="Group_464" data-name="Group 464" transform="translate(204.08 543.258)">
        <path id="Path_2466" d="M-153.467-495.313l-4.134-.879.133-.63.627.133a1.746 1.746 0 0 1-.485-.57.8.8 0 0 1-.046-.48 1.406 1.406 0 0 1 .379-.672l.6.38a1 1 0 0 0-.262.481.683.683 0 0 0 .05.442.768.768 0 0 0 .329.342 2.773 2.773 0 0 0 .793.291l2.165.46zm-2.533 1.058a5.267 5.267 0 0 1-.165 1.189 2.651 2.651 0 0 0-.091.635.613.613 0 0 0 .116.348.607.607 0 0 0 .282.215.61.61 0 0 0 .524-.031.935.935 0 0 0 .405-.524 1.477 1.477 0 0 0 .1-.752 1.119 1.119 0 0 0-.293-.621 1.721 1.721 0 0 0-.627-.365zm1.516.518a2.724 2.724 0 0 1 .172.887 2.237 2.237 0 0 1-.154.788 1.537 1.537 0 0 1-.7.878 1.126 1.126 0 0 1-.946.037 1.146 1.146 0 0 1-.48-.336 1.152 1.152 0 0 1-.252-.492 1.733 1.733 0 0 1-.035-.567 5.057 5.057 0 0 1 .127-.633 6.47 6.47 0 0 0 .227-1.282l-.173-.071a.788.788 0 0 0-.649-.031 1.189 1.189 0 0 0-.519.674 1.272 1.272 0 0 0-.1.761 1.086 1.086 0 0 0 .459.557l-.341.619a1.742 1.742 0 0 1-.565-.553 1.377 1.377 0 0 1-.171-.744 2.829 2.829 0 0 1 .2-.949 2.55 2.55 0 0 1 .434-.775 1.186 1.186 0 0 1 .478-.351 1.145 1.145 0 0 1 .535-.033 4.128 4.128 0 0 1 .629.2l.892.342a9.828 9.828 0 0 0 1.2.41 1.6 1.6 0 0 0 .539.014l-.269.7a1.516 1.516 0 0 1-.536-.051zm-2.6 6.708l-5.1-2.829.347-.627 1.832 1.015a1.6 1.6 0 0 1 .105-1.39 1.708 1.708 0 0 1 .558-.623 1.079 1.079 0 0 1 .687-.186 2.364 2.364 0 0 1 .9.328l2.343 1.3-.348.628-2.344-1.3a1.1 1.1 0 0 0-.8-.175.865.865 0 0 0-.534.457 1.169 1.169 0 0 0-.146.6.926.926 0 0 0 .2.567 2.039 2.039 0 0 0 .624.483l2.023 1.121zm-1.168 1.43l-3.331-2.6.442-.565 3.331 2.6zm-3.949-3.086l-.65-.508.442-.565.65.508zm2.011 5.276l-4.188-1.707.516-.553 2.47 1.063q.4.172.808.384c-.12-.2-.255-.446-.406-.744l-1.245-2.446.5-.538 2 4.053zm-3.544.338a5.208 5.208 0 0 1-.738.947 2.692 2.692 0 0 0-.4.5.607.607 0 0 0-.073.359.609.609 0 0 0 .135.327.616.616 0 0 0 .47.235.938.938 0 0 0 .613-.252 1.475 1.475 0 0 0 .459-.6 1.12 1.12 0 0 0 .057-.684 1.725 1.725 0 0 0-.361-.629zm1.054 1.206a2.705 2.705 0 0 1-.295.854 2.227 2.227 0 0 1-.527.605 1.534 1.534 0 0 1-1.045.41 1.126 1.126 0 0 1-.838-.44 1.136 1.136 0 0 1-.248-.531 1.154 1.154 0 0 1 .028-.552 1.743 1.743 0 0 1 .254-.508 4.993 4.993 0 0 1 .426-.484 6.489 6.489 0 0 0 .838-1l-.114-.147a.789.789 0 0 0-.547-.352 1.191 1.191 0 0 0-.787.324 1.275 1.275 0 0 0-.47.608 1.088 1.088 0 0 0 .118.712l-.6.365a1.742 1.742 0 0 1-.212-.761 1.372 1.372 0 0 1 .223-.731 2.832 2.832 0 0 1 .651-.719 2.534 2.534 0 0 1 .764-.454 1.171 1.171 0 0 1 .589-.065 1.137 1.137 0 0 1 .48.238 4.208 4.208 0 0 1 .444.491l.6.742a9.865 9.865 0 0 0 .831.953 1.58 1.58 0 0 0 .46.282l-.582.471a1.523 1.523 0 0 1-.442-.311zm-4.692 5.474l-.387-.557a1.608 1.608 0 0 0 .393-.136.78.78 0 0 0 .3-.25.644.644 0 0 0 .1-.307 3.364 3.364 0 0 0-.057-.573 5.578 5.578 0 0 1-.026-.185l-3.4-2.987.682-.362 1.926 1.747c.246.221.49.461.73.721a10.071 10.071 0 0 1-.192-.989l-.359-2.6.633-.336.6 4.551a8.556 8.556 0 0 1 .1 1.036 1.414 1.414 0 0 1-.143.663 1.036 1.036 0 0 1-.442.423 1.433 1.433 0 0 1-.459.141zm-5.309-2.058a1.836 1.836 0 0 0 .719 1.037 1.034 1.034 0 0 0 .9.117 1.015 1.015 0 0 0 .629-.623 1.769 1.769 0 0 0-.071-1.216 1.984 1.984 0 0 0-.731-1.095 1.024 1.024 0 0 0-.912-.116 1 1 0 0 0-.627.628 1.929 1.929 0 0 0 .092 1.267zm2.829 1.258l-.174-.505a1.312 1.312 0 0 1-.913.98 1.652 1.652 0 0 1-.97.039 1.828 1.828 0 0 1-.876-.522 2.687 2.687 0 0 1-.593-1.01 3.025 3.025 0 0 1-.174-1.155 1.658 1.658 0 0 1 .342-.953 1.689 1.689 0 0 1 .8-.568 1.406 1.406 0 0 1 .695-.069 1.426 1.426 0 0 1 .6.238l-.682-1.98.674-.231 1.9 5.518zm-4.382 1.209l-.807-4.149.7-.137.807 4.15zm-.957-4.919l-.157-.81.7-.137.157.81zm-2.5 5.312l-2.761-5.617.834-.073 1.88 4.091q.227.492.388.925.094-.487.231-.98l1.2-4.36.785-.069-1.768 6.013zm-6.36-2.66a5.258 5.258 0 0 1-1.2-.061 2.667 2.667 0 0 0-.64-.035.61.61 0 0 0-.336.147.6.6 0 0 0-.19.3.612.612 0 0 0 .077.519.932.932 0 0 0 .557.358 1.481 1.481 0 0 0 .758.029 1.121 1.121 0 0 0 .592-.346 1.713 1.713 0 0 0 .308-.657zm-.384 1.555a2.724 2.724 0 0 1-.868.248 2.227 2.227 0 0 1-.8-.085 1.54 1.54 0 0 1-.936-.621 1.126 1.126 0 0 1-.119-.939 1.144 1.144 0 0 1 .292-.507 1.169 1.169 0 0 1 .468-.294 1.757 1.757 0 0 1 .561-.084 5.044 5.044 0 0 1 .641.073 6.487 6.487 0 0 0 1.3.114l.056-.178a.788.788 0 0 0-.026-.65 1.192 1.192 0 0 0-.717-.458 1.274 1.274 0 0 0-.766-.037 1.092 1.092 0 0 0-.516.506l-.646-.286a1.747 1.747 0 0 1 .5-.612 1.379 1.379 0 0 1 .727-.235 2.816 2.816 0 0 1 .963.121 2.523 2.523 0 0 1 .81.365 1.178 1.178 0 0 1 .391.446 1.143 1.143 0 0 1 .08.53 4.2 4.2 0 0 1-.148.645l-.263.918a9.972 9.972 0 0 0-.3 1.227 1.579 1.579 0 0 0 .034.538l-.72-.207a1.524 1.524 0 0 1 .004-.544zm-7.292-.431l.211-.644a1.634 1.634 0 0 0 .345.232.793.793 0 0 0 .38.088.63.63 0 0 0 .307-.1 3.267 3.267 0 0 0 .423-.39c.029-.031.073-.074.132-.132l.337-4.517.7.327-.237 2.59c-.029.33-.073.669-.137 1.017a9.685 9.685 0 0 1 .674-.748l1.86-1.851.65.3-3.274 3.218a8.475 8.475 0 0 1-.77.7 1.413 1.413 0 0 1-.616.286 1.04 1.04 0 0 1-.6-.1 1.434 1.434 0 0 1-.383-.277zm-.869-2.4l2.114-3.661.621.359-2.114 3.661zm2.506-4.34l.412-.714.621.359-.412.714zm-2.679 1.685a5.234 5.234 0 0 1-1.08-.525 2.72 2.72 0 0 0-.576-.282.609.609 0 0 0-.367 0 .606.606 0 0 0-.292.2.616.616 0 0 0-.132.508.94.94 0 0 0 .373.548 1.485 1.485 0 0 0 .686.323 1.121 1.121 0 0 0 .681-.087 1.721 1.721 0 0 0 .54-.484zm-.961 1.281a2.719 2.719 0 0 1-.9-.11 2.237 2.237 0 0 1-.7-.39 1.537 1.537 0 0 1-.618-.938 1.127 1.127 0 0 1 .257-.911 1.149 1.149 0 0 1 .467-.353 1.165 1.165 0 0 1 .546-.087 1.765 1.765 0 0 1 .55.142 5.2 5.2 0 0 1 .562.317 6.536 6.536 0 0 0 1.149.613l.12-.142a.786.786 0 0 0 .229-.608 1.188 1.188 0 0 0-.48-.7 1.27 1.27 0 0 0-.692-.333 1.085 1.085 0 0 0-.672.264l-.483-.516a1.735 1.735 0 0 1 .7-.367 1.37 1.37 0 0 1 .761.067 2.819 2.819 0 0 1 .84.487 2.547 2.547 0 0 1 .6.652 1.182 1.182 0 0 1 .186.563 1.146 1.146 0 0 1-.134.519 4.12 4.12 0 0 1-.388.535l-.6.743a9.748 9.748 0 0 0-.759 1.011 1.588 1.588 0 0 0-.18.508l-.582-.471a1.5 1.5 0 0 1 .223-.496zm-7.053-6.393l3.238-2.717.411.49-.453.381a1.507 1.507 0 0 1 .723.086 1.483 1.483 0 0 1 .629.454 1.377 1.377 0 0 1 .344.715 1.038 1.038 0 0 1-.144.675 1.519 1.519 0 0 1 1.406.525 1.287 1.287 0 0 1 .355.965 1.492 1.492 0 0 1-.6.949l-2.226 1.869-.457-.546 2.04-1.712a1.973 1.973 0 0 0 .43-.452.615.615 0 0 0 .071-.389.8.8 0 0 0-.188-.4 1 1 0 0 0-.7-.376 1.3 1.3 0 0 0-.916.384l-1.883 1.579-.46-.549 2.1-1.765a1.2 1.2 0 0 0 .437-.6.662.662 0 0 0-.186-.593 1.027 1.027 0 0 0-.482-.325.893.893 0 0 0-.6.014 2.618 2.618 0 0 0-.752.48l-1.68 1.41zm.069-4.551a1.8 1.8 0 0 0-.923.868 1.134 1.134 0 0 0 .044.978 1.131 1.131 0 0 0 .765.608 1.85 1.85 0 0 0 1.264-.248 1.743 1.743 0 0 0 .9-.857 1.133 1.133 0 0 0-.042-.973 1.141 1.141 0 0 0-.763-.612 1.791 1.791 0 0 0-1.242.239zm-.334-.656a2.175 2.175 0 0 1 1.846-.208 1.97 1.97 0 0 1 1.023.971 1.892 1.892 0 0 1 .137 1.53 2.166 2.166 0 0 1-1.155 1.209 2.8 2.8 0 0 1-1.255.365 1.735 1.735 0 0 1-.971-.3 2.078 2.078 0 0 1-.694-.793 1.9 1.9 0 0 1-.144-1.537 2.266 2.266 0 0 1 1.216-1.238zm-1.625-4.712l.25.687a1.6 1.6 0 0 0-.633.418 1.317 1.317 0 0 0-.286.684 2.225 2.225 0 0 0 .065.91 2.164 2.164 0 0 0 .328.719 1.093 1.093 0 0 0 .478.393.838.838 0 0 0 .526.031.754.754 0 0 0 .422-.279 1.168 1.168 0 0 0 .2-.6 10.29 10.29 0 0 0 .007-1.078 5.373 5.373 0 0 1 .06-1.182 1.589 1.589 0 0 1 .364-.744 1.338 1.338 0 0 1 .65-.385 1.48 1.48 0 0 1 .861.028 1.559 1.559 0 0 1 .754.556 2.8 2.8 0 0 1 .468.983 2.922 2.922 0 0 1 .095 1.16 1.653 1.653 0 0 1-.4.9 1.785 1.785 0 0 1-.815.515l-.245-.7a1.2 1.2 0 0 0 .7-.607 1.571 1.571 0 0 0 .01-1.055 1.635 1.635 0 0 0-.513-.921.768.768 0 0 0-.68-.15.662.662 0 0 0-.441.353 3.055 3.055 0 0 0-.1 1.232 7.847 7.847 0 0 1-.025 1.345 1.775 1.775 0 0 1-.38.881 1.45 1.45 0 0 1-.739.449 1.587 1.587 0 0 1-.917-.03 1.773 1.773 0 0 1-.818-.574 2.666 2.666 0 0 1-.511-1.027 3.328 3.328 0 0 1-.121-1.342 1.857 1.857 0 0 1 .453-.992 1.959 1.959 0 0 1 .936-.575z" class="cls-1" data-name="Path 2466" transform="translate(0 -15.543)"/>
        <path id="Path_2467" d="M-162.286-518.266q.38-.435.752-.866.413-.516.3-.842a1.294 1.294 0 0 0-.214-.4 1.008 1.008 0 0 0-.374-.279l-.47.5a4.609 4.609 0 0 1 .363.309.775.775 0 0 1 .183.215q.024.07-.1.25-.37.518-.74 1.027zm4.085-3.687l.191.472-2.885 1.166-.2.894 3.364-1.359.222.548.647-.261-.7-1.72zm-1.028-2.047l.33.6-.9.5-.163-.295a.108.108 0 0 0-.107-.048.348.348 0 0 0-.165.049.5.5 0 0 0-.259.294l-.253.8a.471.471 0 0 0-.015.168.355.355 0 0 0 .031.133.235.235 0 0 0 .139.115.206.206 0 0 0 .171-.014l.3-.167.486.876.682-.378-.486-.876.9-.5.327.589.61-.339-1.019-1.837zm-.894-1.364l.27.431-2.639 1.649-.039.915 3.078-1.923.313.5.592-.37-.983-1.573zm-.368-.544l.325.4.542-.439-1.173-1.448-.542.439.475.587a.241.241 0 0 1 .01.188.39.39 0 0 1-.129.173.549.549 0 0 1-.308.122.3.3 0 0 1-.276-.114l-.217-.268a.4.4 0 0 0-.2.1 1.567 1.567 0 0 0-.5.8 1.008 1.008 0 0 0 .125.976 1.422 1.422 0 0 0 .736.491l.727-.589a1.259 1.259 0 0 1-.577-.119 1.244 1.244 0 0 1-.454-.346.434.434 0 0 1-.09-.222.209.209 0 0 1 .071-.206.693.693 0 0 0 .557.14 1.213 1.213 0 0 0 .588-.265 1.042 1.042 0 0 0 .311-.392zm-2.443-1.641a.665.665 0 0 0-.578-.174 1.2 1.2 0 0 0-.68.416 1.636 1.636 0 0 0-.323.9 5.239 5.239 0 0 0 0 1.3l.307.141a3.355 3.355 0 0 1 .382-1.878.556.556 0 0 1 .342-.2.385.385 0 0 1 .312.111q.192.179.074.305l-.465.5.247.589.54-.579a.3.3 0 0 1 .231-.1.337.337 0 0 1 .237.1.583.583 0 0 1 .141.21.885.885 0 0 0 .151-.414.407.407 0 0 0-.114-.359l-.06-.056a.393.393 0 0 0-.256-.1.536.536 0 0 0-.291.065.778.778 0 0 0 .011-.361.7.7 0 0 0-.207-.413zm.208-1.7l-.476.51 1.663 1.551.476-.51zm-1.952-.6l.4.313-1.916 2.452.277.873 2.233-2.859.466.364.43-.55-1.462-1.142zm-.989-1.46l-.37.592 1.357.848.37-.592zm.54 2.777a1.3 1.3 0 0 1-1-.091q-.209-.13-.129-.3a.494.494 0 0 1 .526-.2 1.709 1.709 0 0 1 .708.254l.046-.678a1.346 1.346 0 0 0-.874-.251.844.844 0 0 0-.629.425.982.982 0 0 0-.107.8 1.05 1.05 0 0 0 .462.662.883.883 0 0 0 .255.111.707.707 0 0 0 .279.01zm-3.191-2.191l-.429.842a1.14 1.14 0 0 1 .446-.063 1.018 1.018 0 0 1 .387.109.422.422 0 0 1 .1.223.37.37 0 0 1-.04.214.777.777 0 0 1-.3.3 1.375 1.375 0 0 1-.431.176.54.54 0 0 0-.076.293.4.4 0 0 0 .255.3.449.449 0 0 0 .495-.084 1.578 1.578 0 0 0 .45-.558 1.384 1.384 0 0 0 .12-.906 1.044 1.044 0 0 0-.559-.783.529.529 0 0 0-.417-.063zm.757-.673l1.426.727.317-.622-1.426-.727zm-1.092-2.271q-.178-.2-.313-.346a1.771 1.771 0 0 0-.429-.37l-.742-.331.08.871.457.2a3.757 3.757 0 0 1 .721.5 1.973 1.973 0 0 1 .551.578l.525.234q-.123-.756-.226-1.269a10.874 10.874 0 0 0-.318-1.264q-.188-.587-.368-.667l-.742-.331.076.879.233.1a1.815 1.815 0 0 1 .306.685c.094.282.158.456.19.531zm-.7 1.52l.478.174-1.064 2.924.533.744 1.241-3.41.555.2.239-.656-1.743-.634zm.012.047l.192-.671-1.555-.446-.192.671zm-.042 1.337a1.409 1.409 0 0 1-.926.162.317.317 0 0 1-.231-.417q.076-.268 1.028-.252l-.074-.636a1.991 1.991 0 0 0-.913.148.926.926 0 0 0-.538.6 1.16 1.16 0 0 0 .158.759.991.991 0 0 0 .6.475 1.146 1.146 0 0 0 .312.042 1.208 1.208 0 0 0 .35-.058zm-4.048 2.222a.953.953 0 0 0-.2-.693.863.863 0 0 0-.641-.312 1.216 1.216 0 0 0-.539.065.941.941 0 0 0-.414.378l.374.544a1.316 1.316 0 0 1 .341-.351.509.509 0 0 1 .3-.1.324.324 0 0 1 .231.115.312.312 0 0 1 .082.236.448.448 0 0 1-.155.335.8.8 0 0 1-.576.125 1.411 1.411 0 0 1-.844-.52 4.174 4.174 0 0 1-.579-.781l-.442-.031q.574.856.589.872a3.31 3.31 0 0 0 .627.678 1.438 1.438 0 0 0 .785.31 1 1 0 0 0 .755-.21.924.924 0 0 0 .307-.661zm-1.786-4.422h.509v3.111l.755.517v-3.628h.591v-.7h-1.856zm.07-.112l-.048-.7-1.851.13.049.7zm-1.049.764a.508.508 0 0 0-.4.246.892.892 0 0 0-.129.573 2.009 2.009 0 0 0 .347.963 6.931 6.931 0 0 0 .887 1.032l.315-.211a3.411 3.411 0 0 1-.682-.747 1.564 1.564 0 0 1-.308-.7.4.4 0 0 1 .075-.272.362.362 0 0 1 .284-.131l1.089-.076-.054-.778zm-4.781.266l.489-.14.858 2.991.868.289-1-3.488.568-.163-.192-.671-1.784.512zm-1.737-.009l.261.647 1.485-.6-.261-.647zm2.563 1.2a1.3 1.3 0 0 1-.66.754c-.152.061-.26.037-.322-.074a.494.494 0 0 1 .148-.542 1.7 1.7 0 0 1 .621-.423l-.521-.436a1.351 1.351 0 0 0-.717.559.843.843 0 0 0-.025.759.984.984 0 0 0 .584.557 1.052 1.052 0 0 0 .807.015.909.909 0 0 0 .24-.141.715.715 0 0 0 .172-.22zm-3.061-.992a7.18 7.18 0 0 0-1.427-.721 1.6 1.6 0 0 0-1.029-.153l-.742.331.7.524.457-.2a1.02 1.02 0 0 1 .636.018 3.729 3.729 0 0 1 .939.413zm-.994 2.013a.622.622 0 0 0-.239.475 1.259 1.259 0 0 0 .187.633 1.534 1.534 0 0 0 .8.675 1.2 1.2 0 0 0 1.073-.012l.167-.121a2.456 2.456 0 0 1 .333.144.628.628 0 0 1 .252.235l.51-.282c-.1-.084-.173-.148-.229-.192a1.031 1.031 0 0 0-.483-.211 1.286 1.286 0 0 0 .068-.352.579.579 0 0 0-.082-.232 1.191 1.191 0 0 0-.269-.367.441.441 0 0 0-.51.01.53.53 0 0 0-.239.288.4.4 0 0 0 .013.354.4.4 0 0 0 .187.169.424.424 0 0 1-.135.112.619.619 0 0 1-.511.035.64.64 0 0 1-.381-.272.613.613 0 0 1-.068-.352.348.348 0 0 1 .188-.3l.947-.525-.629-1.134.6-.331L-183-532l-2.649 1.469.338.61 1.472-.816.295.531zm-2.723 1.249l.4-.314 1.916 2.452.913-.057-2.234-2.859.466-.364-.43-.55-1.462 1.142zm-1.319 1.24l.366-.354 2.162 2.238.9-.152-2.52-2.61.425-.41-.485-.5-1.334 1.289zm-.387 1.581a.317.317 0 0 0-.057.247.4.4 0 0 0 .131.272.256.256 0 0 0 .195.065l1.03.022a.375.375 0 0 0 .28-.09c.037-.041.041-.074.012-.1l-.573-.516.84-.934-.513-.461zm-1.439-.611l.519.467 1.3-1.446-.519-.467zm-.561 2.057l.3-.412 2.517 1.829.863-.307-2.936-2.133.348-.478-.565-.41-1.091 1.5zm-.881 1.5l.262-.437 2.667 1.6.832-.381-3.11-1.869.3-.507-.6-.359-.956 1.59zm-1.692 2.344l.651.25.874-2.276-.651-.25zm3.387-.142a.746.746 0 0 0-.487.446.518.518 0 0 0-.009.379.431.431 0 0 0 .267.256.36.36 0 0 0 .378-.058.9.9 0 0 0 .271-.4l.065-.169.739-.253-.029-.451-.664.15a1.031 1.031 0 0 0-.137-.55.736.736 0 0 0-.374-.342.81.81 0 0 0-.766.208 2.527 2.527 0 0 0-.591.625l.6-1.563-.636-.244-.662 1.724a.556.556 0 0 0-.012.374.365.365 0 0 0 .22.252q.4.153.989-.39t.744-.484a.214.214 0 0 1 .137.184.593.593 0 0 1-.041.297z" class="cls-1" data-name="Path 2467" transform="translate(-3.769 -2.565)"/>
        <path id="Path_2468" d="M-156.485-525.342l.292.557a.453.453 0 0 0-.207.242.542.542 0 0 0 .022.352.606.606 0 0 0 .2.312.2.2 0 0 0 .182.024.164.164 0 0 0 .1-.08.5.5 0 0 0 .01-.222 3.338 3.338 0 0 1-.024-1 .6.6 0 0 1 .408-.435.649.649 0 0 1 .561.061 1.119 1.119 0 0 1 .438.636 1.3 1.3 0 0 1 .085.727.8.8 0 0 1-.334.454l-.291-.517a.36.36 0 0 0 .152-.2.521.521 0 0 0-.029-.307.668.668 0 0 0-.179-.309.146.146 0 0 0-.141-.025.135.135 0 0 0-.086.095 2.308 2.308 0 0 0 .024.6 1.725 1.725 0 0 1-.035.743.575.575 0 0 1-.372.333.7.7 0 0 1-.611-.075 1.186 1.186 0 0 1-.478-.677 1.309 1.309 0 0 1-.063-.78.89.89 0 0 1 .38-.516m.325-1.21a.6.6 0 0 0 .312-.3.429.429 0 0 0-.009-.351.43.43 0 0 0-.276-.241.568.568 0 0 0-.418.052zm-.583.232l.168.6a1.008 1.008 0 0 1-.627-.123 1.094 1.094 0 0 1-.433-.507 1.048 1.048 0 0 1-.021-.987 1.341 1.341 0 0 1 .633-.551 1.3 1.3 0 0 1 .955-.11 1 1 0 0 1 .624.558 1.04 1.04 0 0 1 .035.893 1.529 1.529 0 0 1-.836.708l-.656-1.406a.624.624 0 0 0-.325.316.47.47 0 0 0 .012.389.38.38 0 0 0 .175.188.489.489 0 0 0 .292.039zm.605-2.477l-.427.247-.211-.367-.817.472a2.249 2.249 0 0 0-.283.178.135.135 0 0 0-.041.086.179.179 0 0 0 .025.107.807.807 0 0 0 .176.186l-.389.286a1.227 1.227 0 0 1-.325-.378.773.773 0 0 1-.1-.289.445.445 0 0 1 .027-.244.576.576 0 0 1 .165-.2 3.122 3.122 0 0 1 .369-.235l.883-.51-.142-.246.427-.247.142.246.4-.233.624.358-.716.414zm-2.285-1.419q-.1-.078-.285-.265a1.146 1.146 0 0 0-.274-.224.26.26 0 0 0-.249.017.3.3 0 0 0-.136.2.34.34 0 0 0 .055.259.541.541 0 0 0 .267.208.383.383 0 0 0 .252.012 1.191 1.191 0 0 0 .266-.144zm-.029-.969l-.222-.527a.875.875 0 0 1 .6 0 1.2 1.2 0 0 1 .512.487 1.484 1.484 0 0 1 .254.572.617.617 0 0 1-.054.375 1.278 1.278 0 0 1-.419.371l-.61.388a2.444 2.444 0 0 0-.365.273 1.284 1.284 0 0 0-.2.265l-.334-.515c.026-.035.066-.086.121-.149a.686.686 0 0 0 .049-.058 1.129 1.129 0 0 1-.379-.158.976.976 0 0 1-.274-.282.8.8 0 0 1-.146-.584.65.65 0 0 1 .3-.445.663.663 0 0 1 .348-.113.612.612 0 0 1 .344.093 2.117 2.117 0 0 1 .389.334 3.383 3.383 0 0 0 .455.422l.052-.033a.324.324 0 0 0 .166-.213.534.534 0 0 0-.118-.32.436.436 0 0 0-.2-.18.447.447 0 0 0-.273.004zm-2.341-.416l-.39-.481 1.819-1.473.362.446-.259.209a1.009 1.009 0 0 1 .409.011.489.489 0 0 1 .227.161.783.783 0 0 1 .165.391l-.54.191a.551.551 0 0 0-.1-.289.339.339 0 0 0-.194-.126.484.484 0 0 0-.291.052 3.687 3.687 0 0 0-.643.454zm-.144-2.237a.6.6 0 0 0 .2-.384.427.427 0 0 0-.123-.329.431.431 0 0 0-.339-.138.573.573 0 0 0-.379.185zm-.474.41l.355.516a1.013 1.013 0 0 1-.633.089 1.1 1.1 0 0 1-.574-.339 1.046 1.046 0 0 1-.34-.927 1.339 1.339 0 0 1 .419-.727 1.291 1.291 0 0 1 .868-.414 1 1 0 0 1 .771.324 1.039 1.039 0 0 1 .325.833 1.532 1.532 0 0 1-.56.942l-1.078-1.117a.625.625 0 0 0-.2.405.471.471 0 0 0 .138.364.379.379 0 0 0 .227.121.492.492 0 0 0 .278-.063zm-2.4-2.807a1.007 1.007 0 0 0-.241.494.491.491 0 0 0 .186.458.437.437 0 0 0 .383.077.864.864 0 0 0 .454-.346.911.911 0 0 0 .241-.546.457.457 0 0 0-.184-.369.468.468 0 0 0-.4-.092.8.8 0 0 0-.445.332zm-1.236.583l1.989-2.546.488.382-.717.917a.875.875 0 0 1 .736.161.915.915 0 0 1 .367.68 1.281 1.281 0 0 1-.327.873 1.353 1.353 0 0 1-.795.552.89.89 0 0 1-.745-.172.86.86 0 0 1-.25-.322.945.945 0 0 1-.082-.441l-.212.271zm-.989-.689l1.24-1.985.525.328-1.24 1.985zm1.409-2.254l.3-.486.525.328-.3.486zm-3.777.851l1.554-2.8.57.316-1.29 2.327 1.419.787-.265.476zm-1.788-2.205a.6.6 0 0 0-.005-.433.427.427 0 0 0-.263-.233.43.43 0 0 0-.365.038.572.572 0 0 0-.248.341zm-.227.584l.555.289a1.012 1.012 0 0 1-.518.376 1.1 1.1 0 0 1-.666-.03 1.045 1.045 0 0 1-.736-.659 1.34 1.34 0 0 1 .029-.838 1.29 1.29 0 0 1 .572-.773 1 1 0 0 1 .833-.076 1.039 1.039 0 0 1 .678.583 1.533 1.533 0 0 1-.052 1.1l-1.477-.48a.626.626 0 0 0 .01.453.467.467 0 0 0 .292.256.382.382 0 0 0 .257 0 .5.5 0 0 0 .217-.193zm-2.149.109l-.6-.139.269-1.164a1.838 1.838 0 0 0 .071-.488.348.348 0 0 0-.087-.2.373.373 0 0 0-.2-.109.493.493 0 0 0-.3.021.448.448 0 0 0-.223.188 2.01 2.01 0 0 0-.167.514l-.238 1.033-.6-.139.527-2.281.56.129-.078.335a.941.941 0 0 1 .842-.214.949.949 0 0 1 .349.156.632.632 0 0 1 .207.242.683.683 0 0 1 .059.281 1.871 1.871 0 0 1-.059.414zm-4.208-1.888a.771.771 0 0 0 .128.544.524.524 0 0 0 .394.213.519.519 0 0 0 .418-.156.783.783 0 0 0 .2-.525.774.774 0 0 0-.127-.539.521.521 0 0 0-.393-.213.526.526 0 0 0-.42.156.776.776 0 0 0-.206.527zm-.631-.077a1.278 1.278 0 0 1 .193-.585 1.047 1.047 0 0 1 .461-.409 1.283 1.283 0 0 1 .633-.109 1.171 1.171 0 0 1 .844.405 1.2 1.2 0 0 1 .278.894 1.208 1.208 0 0 1-.4.854 1.157 1.157 0 0 1-.885.288 1.361 1.361 0 0 1-.6-.187 1 1 0 0 1-.414-.457 1.424 1.424 0 0 1-.116-.687zm-1.239 1.194l.056-3.231.619.011-.056 3.231zm-1.592-1.2l-.528-1.165-.352 1.226zm1.288 1.192l-.708.049-.333-.713-1.289.09-.214.751-.691.048 1.03-3.312.688-.048zm-5.44-.639a.6.6 0 0 0-.24-.359.426.426 0 0 0-.347-.052.432.432 0 0 0-.286.23.572.572 0 0 0-.022.421zm.128.614l.623-.06a1.015 1.015 0 0 1-.23.6 1.1 1.1 0 0 1-.574.338 1.047 1.047 0 0 1-.976-.151 1.343 1.343 0 0 1-.433-.719 1.292 1.292 0 0 1 .058-.96 1 1 0 0 1 .657-.518 1.041 1.041 0 0 1 .886.12 1.535 1.535 0 0 1 .553.947l-1.5.4a.626.626 0 0 0 .255.375.469.469 0 0 0 .385.056.378.378 0 0 0 .216-.139.5.5 0 0 0 .073-.28zm-3.677.715a.839.839 0 0 0 .33.457.444.444 0 0 0 .394.034.491.491 0 0 0 .295-.3.772.772 0 0 0-.042-.547.815.815 0 0 0-.333-.45.471.471 0 0 0-.417-.029.457.457 0 0 0-.281.293.813.813 0 0 0 .047.551zm-.025 1.48l.691-.173a.243.243 0 0 0 .137.129.459.459 0 0 0 .283-.037.729.729 0 0 0 .314-.2.3.3 0 0 0 .059-.191.944.944 0 0 0-.075-.276l-.122-.319a.84.84 0 0 1-.519.606.863.863 0 0 1-.84-.1 1.357 1.357 0 0 1-.483-.655 1.29 1.29 0 0 1-.058-.942.913.913 0 0 1 .546-.542.856.856 0 0 1 .806.1l-.118-.306.541-.208.753 1.962a2.1 2.1 0 0 1 .158.6.775.775 0 0 1-.063.369.866.866 0 0 1-.242.289 1.739 1.739 0 0 1-.463.248 1.35 1.35 0 0 1-.861.112.639.639 0 0 1-.418-.393c-.016-.012-.024-.035-.033-.064zm-2.577-.158a1.072 1.072 0 0 0 .353.424.468.468 0 0 0 .484.009.457.457 0 0 0 .23-.336.841.841 0 0 0-.133-.548.921.921 0 0 0-.408-.438.461.461 0 0 0-.412.025.467.467 0 0 0-.238.332.792.792 0 0 0 .117.541zm2.037.267l-.5.278-.167-.3a.929.929 0 0 1-.152.425.869.869 0 0 1-.3.276.891.891 0 0 1-.763.051 1.326 1.326 0 0 1-.691-.653 1.306 1.306 0 0 1-.194-.928.916.916 0 0 1 .469-.614.878.878 0 0 1 .751-.043l-.564-1.018.542-.3zm-3.6.536a.6.6 0 0 0-.348-.255.426.426 0 0 0-.344.07.43.43 0 0 0-.19.313.575.575 0 0 0 .124.4zm.331.533l.565-.27a1.017 1.017 0 0 1-.012.639 1.1 1.1 0 0 1-.425.514 1.047 1.047 0 0 1-.969.191 1.336 1.336 0 0 1-.652-.528 1.29 1.29 0 0 1-.274-.921 1 1 0 0 1 .441-.711 1.038 1.038 0 0 1 .874-.19 1.531 1.531 0 0 1 .843.7l-1.272.891a.624.624 0 0 0 .369.265.467.467 0 0 0 .38-.079.381.381 0 0 0 .156-.205.491.491 0 0 0-.034-.287zm-1.638 2.223l-2.077-2.476.474-.4 2.077 2.475zm-2.194 2.144l-2.2-1.093.418-.433 1.409.75-.824-1.356.416-.43 1.375.785-.793-1.387.423-.439 1.162 2.167-.414.428-1.363-.756.808 1.331zm-2.58 1.457a.774.774 0 0 0 .529.18.524.524 0 0 0 .389-.221.522.522 0 0 0 .09-.438.79.79 0 0 0-.338-.45.772.772 0 0 0-.525-.178.521.521 0 0 0-.389.22.523.523 0 0 0-.09.438.773.773 0 0 0 .325.457zm-.4.494a1.261 1.261 0 0 1-.394-.474 1.042 1.042 0 0 1-.1-.608 1.282 1.282 0 0 1 .243-.594 1.172 1.172 0 0 1 .791-.5 1.193 1.193 0 0 1 .905.238 1.206 1.206 0 0 1 .511.794 1.159 1.159 0 0 1-.225.9 1.353 1.353 0 0 1-.478.411 1 1 0 0 1-.606.109 1.414 1.414 0 0 1-.656-.268zm.691 1.122l-.31.536-1.035-.6a1.862 1.862 0 0 0-.444-.21.347.347 0 0 0-.215.026.369.369 0 0 0-.161.155.5.5 0 0 0-.068.294.447.447 0 0 0 .115.269 2.009 2.009 0 0 0 .442.31l.918.53-.31.536-2.027-1.17.287-.5.3.172a.939.939 0 0 1 .042-.867.939.939 0 0 1 .252-.288.626.626 0 0 1 .291-.128.679.679 0 0 1 .286.026 1.87 1.87 0 0 1 .378.178zm-2.284 4.837l-3-1.21.244-.605 1.33.537-.837-1.76.329-.813.712 1.6 2.31-.451-.316.783-1.739.255.3.694.906.366z" class="cls-1" data-name="Path 2468" transform="translate(-.312)"/>
        <path id="Path_2469" d="M-167.053-506.5c-3.294-.861-6.834-5.2-3.289-9.114s1.8-6 1.86-7.587c0 0 5.849 3.516 5.2 9.539-.624 5.784-5.251 5.877-3.769 7.162" class="cls-2" data-name="Path 2469" transform="translate(-11.181 -6.951)"/>
        <path id="Path_2470" d="M-156.392-503.155a19.108 19.108 0 0 1-19.1 18.861 19.109 19.109 0 0 1-19.1-18.861 9.555 9.555 0 0 0 9.55 9.307 9.555 9.555 0 0 0 9.542-9.552 9.554 9.554 0 0 0 9.553 9.553 9.555 9.555 0 0 0 9.55-9.307m-19.1-.37v0z" class="cls-2" data-name="Path 2470" transform="translate(-3.285 -13.77)"/>
    </g>
</svg>
