<svg xmlns="http://www.w3.org/2000/svg" width="133.903" height="99.877" viewBox="0 0 133.903 99.877">
    <defs>
        <style>
            .cls-1{fill:#d3d5d6}.cls-2,.cls-3{fill:#1a1818;fill-rule:evenodd}.cls-3{fill:#fff}.cls-4{fill:#004a9c}
        </style>
    </defs>
    <g id="Group_1554" data-name="Group 1554" transform="translate(344.5 -11.3)">
        <path id="Rectangle_73" d="M0 0h133.169v21.648H0z" class="cls-1" data-name="Rectangle 73" transform="translate(-344.133 89.528)"/>
        <path id="Path_8241" d="M-230.575 65.153h4.814V77.68h1.922V65.153h4.816v-1.7h-11.552zm-16.19 2.458c-.08-1.566-.575-4.537-5.548-4.537-3.448 0-4.895 2.179-4.895 4.4a3.425 3.425 0 0 0 3.031 3.349l2.914.673c2.338.556 3.031 1.032 3.031 2.517 0 2.042-2.338 2.4-3.726 2.4-1.823 0-3.923-.753-3.923-3.329h-1.8a4.38 4.38 0 0 0 1.446 3.606c.635.575 1.665 1.371 4.3 1.371 2.437 0 5.567-.934 5.567-4.3a3.7 3.7 0 0 0-3.229-3.806l-4.061-.931c-.833-.2-1.686-.594-1.686-1.8 0-2.161 2.042-2.5 3.25-2.5 1.605 0 3.428.693 3.527 2.892zm-30.892-4.16v9c0 3.092-1.982 3.9-3.746 3.9-1.723 0-3.606-.852-3.606-3.943v-8.957h-1.922v9.491c0 2.654 1.645 5.115 5.47 5.115 3.9 0 5.726-2.461 5.726-5.373v-9.233zm-31.685 1.649h4.8c.95 0 2.555.178 2.555 2.377 0 2.1-1.486 2.458-2.892 2.458h-4.458zm0 6.479h4.657c2.3 0 2.536 1.367 2.536 2.536a17.442 17.442 0 0 0 .336 3.567h2.358v-.317c-.594-.337-.693-.635-.714-1.427l-.118-2.576c-.079-1.982-.892-2.338-1.7-2.675a3.506 3.506 0 0 0 1.982-3.409c0-3.012-2.338-3.823-4.676-3.823h-6.579v14.222h1.922zm-31.111-6.421h4.816V77.68h1.922V65.153h4.816v-1.7h-11.553z" class="cls-2" data-name="Path 8241" transform="translate(2.328 29.787)"/>
        <path id="Path_8242" d="M-311.834 54.076a17.25 17.25 0 0 1 .01 1.284c0 .025-.02.047-.024.071-.013.143-.008.287-.021.428 0 .019-.019.032-.024.049a2.46 2.46 0 0 0-.046.214c-.009.055-.011.11-.022.165s-.033.128-.047.191c-.009.047-.011.1-.022.143 0 .017-.019.03-.024.047-.019.087-.025.176-.046.263s-.044.159-.069.238c0 .016-.017.03-.024.047-.017.063-.025.129-.046.191-.011.035-.036.061-.047.1s-.009.08-.022.118c0 .011-.019.014-.024.025a.341.341 0 0 0-.024.071 1.073 1.073 0 0 1-.022.143c-.008.02-.036.028-.047.047s-.03.065-.047.1c-.006.009-.019.014-.024.024-.027.054-.044.113-.069.167-.006.009-.019.014-.024.024s-.014.049-.024.071-.035.063-.047.1-.009.065-.022.1c-.028.065-.066.126-.094.191-.006.014 0 .031-.011.047a.761.761 0 0 1-.058.12c-.019.027-.05.046-.071.071a.459.459 0 0 0-.024.049c-.006.009-.017.014-.024.024s-.013.033-.024.047-.036.028-.047.049c-.021.036-.028.08-.046.118a.28.28 0 0 1-.036.049c-.011.016-.022.032-.035.047s-.036.028-.047.047a.553.553 0 0 0-.024.072.755.755 0 0 1-.047.095c-.006.009-.017.014-.024.025-.025.046-.044.1-.069.143-.006.009-.017.014-.024.024s-.013.033-.024.047-.05.046-.071.072-.014.033-.024.047a.188.188 0 0 1-.035.036c-.014.009-.033.014-.049.024a.126.126 0 0 0-.035.036c-.013.022-.009.05-.024.071a.523.523 0 0 1-.082.085c-.006 0-.017 0-.024.011s-.022.035-.036.049-.041.03-.058.047a.375.375 0 0 0-.06.072c-.011.022-.013.047-.022.071l-.013.013a.277.277 0 0 0-.058.036c-.017.016-.02.041-.036.058s-.017.006-.024.013-.022.033-.035.047-.035.032-.047.049-.013.033-.024.047-.049.046-.071.072-.019.043-.035.06-.042.019-.06.036-.013.033-.024.047a.3.3 0 0 1-.058.06c-.014.011-.033.013-.047.024s-.044.054-.071.072-.068.025-.095.049c-.061.049-.107.115-.165.167-.013.013-.033.014-.047.024a.549.549 0 0 0-.06.06c0 .008 0 .019-.011.025s-.033.022-.047.035c-.049.047-.088.1-.142.145-.019.016-.049.014-.071.024l-.013.013c-.008.014-.013.033-.022.047a.2.2 0 0 1-.036.036c-.014.009-.033.014-.047.024a.109.109 0 0 0-.035.036c-.016.022-.02.05-.036.071a.135.135 0 0 1-.047.036.6.6 0 0 1-.071.036c-.024.013-.049.022-.071.036s-.014.017-.024.025-.033.014-.047.024-.014.019-.024.024-.05.009-.071.025c-.044.033-.074.085-.118.12-.021.014-.05.009-.071.024s-.043.055-.071.072a1.388 1.388 0 0 1-.143.047c-.009 0-.014.019-.022.025a.461.461 0 0 0-.049.024c-.033.028-.06.066-.093.1-.008.006-.017.006-.024.011a.667.667 0 0 1-.047.049c-.022.016-.049.022-.072.036s-.013.019-.022.024a1 1 0 0 0-.12.049c-.028.017-.041.055-.071.072-.066.039-.145.058-.213.1-.021.011-.03.035-.047.047a.2.2 0 0 1-.047.025.92.92 0 0 0-.095.024c-.011 0-.014.019-.024.025-.032.017-.066.027-.1.047s-.043.054-.069.072-.05.011-.072.024-.027.038-.047.049c-.076.038-.159.06-.236.1-.011 0-.014.019-.024.024-.046.027-.1.046-.142.072-.009.006-.014.02-.024.025-.038.016-.082.017-.12.036-.013.006-.011.027-.022.035s-.033.014-.047.025-.014.019-.024.024c-.039.019-.082.03-.12.049-.009 0-.013.019-.024.024-.03.013-.063.013-.095.025a.17.17 0 0 0-.071.036c-.014.011-.006.041-.024.047-.044.016-.1 0-.142.013-.068.022-.125.069-.191.1s-.112.028-.165.049c-.09.036-.172.085-.261.121-.03.013-.065.013-.095.025a1.2 1.2 0 0 0-.142.072c-.009 0-.013.02-.024.024-.038.013-.08.009-.118.025a2.6 2.6 0 0 0-.262.12c-.009.006-.013.02-.024.025-.046.013-.1.013-.142.024a.138.138 0 0 0-.047.025c-.009.006-.013.019-.024.024-.1.036-.208.06-.309.1-.072.027-.139.072-.213.1s-.175.03-.261.05a.262.262 0 0 0-.047.024c-.055.019-.112.03-.167.049a.265.265 0 0 1-.047.024c-.087.02-.175.03-.262.05-.017 0-.03.019-.047.024-.038.011-.08.011-.118.025-.011 0-.014.017-.024.024a.134.134 0 0 1-.047.024c-.087.02-.175.03-.262.05-.024 0-.046.019-.071.024-.055.011-.112.011-.167.025-.009 0-.011.022-.024.024-.112.019-.287.025-.427.052-.035.006-.06.039-.094.047-.093.024-.192.028-.285.05-.065.014-.124.047-.191.06-.016 0-.03-.011-.047-.011a1.268 1.268 0 0 0-.189.025c-.1.02-.192.046-.285.074-.017 0-.03.022-.047.024a9.312 9.312 0 0 1-.523.052c-.009 0-.016-.014-.024-.013s-.03.022-.047.025-.024-.014-.036-.013-.022.019-.036.025a.364.364 0 0 1-.106.036c-.022 0-.039-.022-.06-.024s-.031.013-.047.013-.024-.013-.036-.013a1.75 1.75 0 0 0-.2.038c-.025 0-.046.022-.071.025-.238.022-.553.036-.714.052-.017 0-.03.02-.047.024a.887.887 0 0 1-.191.038c-.024 0-.046-.025-.071-.024a.3.3 0 0 0-.095.036c-.009.006-.013.024-.024.025-.071 0-.922.036-1.331.046-.206 0-.413 0-.619-.008-.016 0-.032-.013-.047-.011s-.046.024-.071.024-.03-.02-.047-.022-.016.009-.024.011a.306.306 0 0 1-.083.013 2.356 2.356 0 0 1-.3-.033c-.027 0-.046-.028-.071-.035-.009 0-.016.011-.024.011a5.332 5.332 0 0 1-.334.016 2.345 2.345 0 0 1-.332-.011c-.036 0-.06-.043-.1-.046-.154-.017-.534-.028-.69-.043-.017 0-.03-.019-.047-.024a1.15 1.15 0 0 0-.178-.035c-.036 0-.073.017-.107.013a3.406 3.406 0 0 1-.358-.068c-.017 0-.03-.02-.047-.024-.063-.013-.128-.009-.191-.022-.017 0-.031-.019-.047-.024-.047-.011-.1-.011-.143-.022-.017 0-.03-.02-.047-.024-.151-.028-.3-.041-.454-.068-.017 0-.03-.02-.047-.024-.055-.013-.112-.011-.167-.024-.017 0-.03-.017-.047-.022-.095-.027-.192-.041-.285-.069-.011 0-.014-.02-.025-.024-.038-.013-.08-.013-.118-.024-.017 0-.031-.019-.047-.024-.071-.019-.145-.027-.216-.046-.016 0-.03-.017-.047-.024a.5.5 0 0 0-.083-.022h-.035c-.066-.027-.124-.071-.192-.095-.046-.016-.1-.009-.142-.022-.011 0-.014-.02-.025-.024-.054-.02-.112-.028-.165-.046-.017-.006-.032-.019-.049-.024-.038-.011-.08-.013-.118-.024a.156.156 0 0 1-.049-.024c-.009-.006-.014-.017-.024-.022-.061-.035-.126-.066-.191-.095s-.131-.041-.191-.069c-.021-.011-.027-.039-.049-.047-.044-.017-.1-.006-.142-.024-.022-.008-.03-.033-.049-.047s-.033-.013-.047-.024-.03-.033-.047-.047a.193.193 0 0 0-.049-.022c-.063-.019-.128-.027-.191-.047-.011 0-.014-.017-.024-.024s-.033-.013-.047-.022-.014-.019-.024-.024-.049-.013-.072-.024-.014-.019-.024-.024-.049-.013-.071-.024-.014-.019-.025-.024c-.093-.049-.194-.088-.285-.14-.021-.011-.028-.038-.049-.047s-.066-.008-.094-.024-.03-.035-.049-.047-.049-.019-.071-.035-.028-.036-.049-.047a.965.965 0 0 0-.094-.035c-.009 0-.014-.017-.024-.024a.464.464 0 0 1-.049-.024c-.017-.013-.028-.035-.047-.047-.053-.038-.113-.068-.167-.106-.019-.013-.028-.036-.049-.047-.036-.02-.082-.024-.12-.046-.02-.014-.025-.046-.047-.06s-.08-.028-.12-.047c-.009 0-.014-.017-.024-.022s-.035-.013-.047-.024c-.028-.025-.043-.061-.073-.083s-.068-.016-.095-.035-.058-.071-.1-.095c-.02-.013-.052 0-.072-.011s0-.025 0-.036a.065.065 0 0 0-.024-.035c-.022-.016-.05-.02-.071-.036s-.03-.035-.049-.047-.05-.009-.071-.022a.269.269 0 0 1-.06-.06c-.006-.006 0-.019-.013-.024-.03-.016-.066-.019-.1-.035a.121.121 0 0 1-.035-.035c-.016-.024-.017-.054-.036-.072a1.268 1.268 0 0 0-.109-.069c-.006-.006 0-.019-.011-.024-.022-.016-.049-.022-.073-.036a.2.2 0 0 1-.047-.035c-.014-.014-.022-.033-.036-.047s-.043-.03-.06-.047-.044-.058-.072-.082c-.013-.013-.033-.013-.047-.024a1.452 1.452 0 0 1-.156-.154c-.017-.019-.02-.049-.036-.071s-.036-.027-.047-.047-.02-.065-.036-.095c-.006-.009-.019-.014-.024-.024-.02-.038-.03-.08-.049-.118-.006-.009-.019-.014-.024-.024-.021-.038-.03-.08-.049-.118-.006-.011-.021-.014-.024-.024-.013-.032-.014-.065-.025-.1s-.036-.077-.049-.118a.858.858 0 0 1-.036-.178c0-.025.027-.047.022-.071a.871.871 0 0 0-.06-.131.252.252 0 0 1-.013-.083.828.828 0 0 0 .011-.107c0-.03-.036-.052-.036-.082 0-.046.031-.087.035-.132.014-.181.008-.364.02-.547a.927.927 0 0 1 .022-.095c.011-.072 0-.145.022-.214a2 2 0 0 1 .093-.263c0-.009.02-.013.024-.024.013-.047.011-.1.024-.143a.944.944 0 0 1 .046-.143c0-.009.017-.014.024-.024a.167.167 0 0 0 .024-.047c.017-.055.027-.113.046-.167 0-.009.019-.014.025-.024.017-.032.027-.066.046-.1s.036-.028.047-.047c.03-.054.044-.113.071-.167 0-.009.017-.014.024-.024a.761.761 0 0 0 .046-.1c.009-.024.014-.049.024-.071a.547.547 0 0 1 .047-.1c.011-.019.035-.028.047-.047.027-.046.043-.1.069-.143.013-.019.035-.03.047-.049s.014-.033.024-.047.017-.014.024-.024c.019-.032.03-.065.047-.1.006-.009.017-.014.024-.024s.013-.033.024-.047a.664.664 0 0 1 .047-.049c0-.006.006-.017.011-.024s.035-.03.047-.047.021-.05.035-.072.036-.028.047-.047.009-.05.024-.072a.3.3 0 0 1 .058-.06c.019-.014.046-.017.06-.036s.011-.049.024-.071.033-.03.047-.047a.453.453 0 0 1 .024-.049c.013-.017.033-.03.047-.047s0-.017.011-.024.033-.022.047-.036a.761.761 0 0 0 .105-.107c.016-.02.008-.052.024-.072.041-.054.1-.093.142-.143.016-.017.017-.044.035-.06s.05-.019.071-.036.028-.044.047-.06a.52.52 0 0 1 .072-.036c.008-.006.013-.017.022-.024s.049-.022.072-.036a.151.151 0 0 0 .047-.036c.013-.022 0-.054.022-.072s.033 0 .049 0a.2.2 0 0 0 .071-.024c.016-.011.022-.033.035-.049a.832.832 0 0 1 .083-.083c.013-.011.033-.013.047-.024s.044-.05.071-.072a.334.334 0 0 1 .047-.024c.009-.006.014-.019.022-.024.039-.022.083-.036.12-.061s.06-.058.095-.083.049-.02.071-.036.011-.027.024-.036c.028-.02.065-.028.095-.047s.03-.035.047-.049.033-.013.047-.024c.035-.028.057-.072.094-.1s.065-.011.095-.024c.011 0 .014-.019.024-.025s.049-.013.071-.024.014-.019.024-.024c.05-.024.106-.036.154-.061a.43.43 0 0 0 .083-.06c.017-.014.027-.036.047-.047a.986.986 0 0 1 .118-.049c.063-.03.123-.071.189-.1.038-.016.08-.013.118-.025.065-.02.128-.046.191-.072.033-.014.061-.035.094-.049a.376.376 0 0 1 .071-.024c.055-.013.112-.011.167-.025a.417.417 0 0 0 .094-.049c.009-.006.013-.02.024-.024.085-.022.175-.03.26-.05.019 0 .031-.019.049-.024a3.437 3.437 0 0 1 .38-.074 3.611 3.611 0 0 1 .392-.014 3.264 3.264 0 0 1 .392.008 1.79 1.79 0 0 1 .285.069c.017 0 .032.019.049.024.046.011.1.009.142.022.011 0 .014.02.024.024.032.013.065.014.1.024a.433.433 0 0 1 .047.024c.055.017.113.027.167.046.011 0 .014.017.024.024a.461.461 0 0 1 .049.024c.025.02.044.052.071.071s.065.028.1.047c.009 0 .014.017.024.024s.033.013.049.024.028.035.047.046.05.009.071.024a.773.773 0 0 1 .109.107c.006.006 0 .017.011.024s.035.02.049.035c.077.074.154.147.227.224.013.014.014.033.025.047s.033.03.047.047.014.033.024.047.017.014.025.024a.28.28 0 0 1 .024.049c.009.03.014.063.024.095l.013.011c.016.013.036.019.047.036a.468.468 0 0 1 .061.118c.013.038.011.08.024.118 0 .011.017.014.025.024a.265.265 0 0 1 .024.047c.011.032.013.065.024.1s.038.06.049.095.011.08.025.118.039.06.047.095c.017.069.014.143.027.214.008.052.03.1.036.154 0 .02-.011.039-.011.06s.014.055.013.082c0 .046-.02.087-.024.132 0 .024.014.046.013.071a1.111 1.111 0 0 1-.022.142.662.662 0 0 0-.024.072c0 .013.014.024.013.035a.28.28 0 0 1-.036.083c0 .011-.019.014-.024.025-.011.03-.011.065-.022.095a.779.779 0 0 1-.047.1c-.006.009-.019.014-.024.024-.035.069-.058.145-.093.214a.1.1 0 0 1-.036.036c-.022.014-.049.02-.071.036-.006 0-.006.017-.011.024a1.1 1.1 0 0 0-.095.1c-.025.036-.03.085-.058.12s-.05.02-.071.036a.217.217 0 0 0-.06.06c-.024.036-.035.082-.058.12-.013.019-.035.028-.047.047-.024.038-.033.082-.058.12s-.05.046-.071.071a.174.174 0 0 0-.024.049c-.009.03-.013.063-.022.095s-.036.079-.047.12a.3.3 0 0 0-.011.083.366.366 0 0 0 .013.082c0 .009.011.016.011.024s-.009.016-.011.025a.466.466 0 0 0-.011.095.317.317 0 0 0 .013.095c.011.035.035.063.047.095a.477.477 0 0 0 .025.072c.027.036.069.058.1.095a.314.314 0 0 1 .024.071.159.159 0 0 0 .036.058c.028.022.066.028.1.047s.028.035.047.047c.038.024.082.035.12.058.013.008.011.03.024.036.077.03.161.041.239.069.009 0 .014.017.024.024a.412.412 0 0 0 .094.047c.063.014.128.009.191.022a1.6 1.6 0 0 1 .191.046c.017 0 .03.019.047.024.055.011.114.009.167.022.011 0 .014.02.024.024.055.013.112.013.167.022.033.006.063.02.1.024.1.011.206.008.309.022.017 0 .03.019.047.022a1.852 1.852 0 0 0 .263.035c.044 0 .085-.027.129-.025.069 0 .135.03.2.035.036 0 .071-.013.107-.013a.494.494 0 0 1 .107.011 1.352 1.352 0 0 0 .154.033c.033 0 .063-.02.095-.024a.191.191 0 0 1 .06.011 1.006 1.006 0 0 0 .1.035c.008 0 .014-.009.024-.011a.649.649 0 0 1 .142-.038c.033 0 .063.024.1.024.017 0 .028-.024.047-.024s.03.02.047.024.014-.011.024-.013c.055-.011.112-.014.165-.025.009 0 .016-.014.025-.013s.028.024.047.024.061-.022.094-.024a.514.514 0 0 1 .12.011c.008 0 .014.011.024.011s.014-.009.024-.013c.079-.017.158-.039.236-.049.134-.016.271-.013.4-.027.025 0 .046-.02.071-.024.095-.014.191-.014.285-.027.06-.008.118-.03.178-.036.02 0 .039.014.06.011.072-.011.142-.038.214-.05.008 0 .014.013.024.013s.014-.011.024-.013c.055-.009.11-.013.165-.024.025-.006.047-.02.072-.025a1.167 1.167 0 0 1 .165-.025c.013 0 .024.013.036.011a1.46 1.46 0 0 0 .2-.036c.065-.016.124-.05.189-.061.017 0 .031.027.049.024s.028-.028.047-.036a.32.32 0 0 1 .094-.024c.11-.014.222-.009.332-.027a1.353 1.353 0 0 0 .154-.049h.024a.263.263 0 0 1 .047-.013c.017 0 .032.011.049.011l.011-.011a.1.1 0 0 1 .035-.024 1.857 1.857 0 0 1 .227-.061c.1-.022.206-.028.309-.05.017 0 .03-.02.047-.024.046-.013.095-.013.142-.025.017 0 .03-.02.047-.025.047-.011.1-.013.143-.024a1.532 1.532 0 0 0 .165-.049c.011 0 .013-.02.024-.025a1.614 1.614 0 0 1 .189-.072c.079-.022.159-.03.238-.049a.344.344 0 0 0 .071-.025c.033-.013.061-.036.095-.047.094-.03.192-.046.285-.074.041-.013.079-.033.118-.049.071-.025.143-.046.214-.072a.264.264 0 0 0 .047-.024c.009-.006.013-.02.024-.024.038-.014.08-.013.118-.025.011 0 .014-.02.024-.024.031-.013.065-.013.1-.025.009 0 .013-.02.024-.024.077-.028.158-.047.236-.072a.172.172 0 0 0 .047-.025c.009-.006.014-.019.024-.024.046-.02.1-.028.142-.049s.095-.052.143-.072.1-.028.142-.049a1.2 1.2 0 0 0 .142-.072c.011 0 .014-.019.024-.024.038-.019.08-.032.118-.049s.063-.033.1-.047.049-.014.071-.025.013-.019.024-.024c.03-.013.065-.013.095-.025.009 0 .014-.017.024-.024s.033-.013.047-.024.046-.05.071-.072a.188.188 0 0 1 .047-.024c.031-.011.065-.013.095-.025.011 0 .014-.017.024-.024a.737.737 0 0 0 .071-.024c.021-.013.03-.035.047-.049s.033-.014.049-.024.013-.019.024-.024a.637.637 0 0 0 .071-.025c.019-.011.027-.036.047-.047.06-.038.129-.058.189-.1.028-.019.044-.05.071-.072s.033-.014.047-.024.014-.017.024-.025.033-.013.047-.024.03-.035.047-.047.033-.013.047-.025c.035-.028.057-.069.095-.095.058-.041.131-.057.189-.1s.073-.087.118-.12c.02-.013.052 0 .071-.013s0-.024 0-.035a.112.112 0 0 1 .024-.036c.006-.006.017-.006.024-.013.065-.061.124-.129.189-.191.006-.006.017-.006.024-.013s.022-.033.035-.047a.36.36 0 0 1 .06-.06c.014-.011.033-.014.047-.025s.028-.035.047-.047.033-.013.047-.025a.85.85 0 0 0 .118-.107c.022-.028.027-.066.047-.1.008-.011.027-.011.035-.024s.011-.049.024-.071a.869.869 0 0 1 .058-.072.553.553 0 0 1 .036-.047c.03-.033.066-.061.095-.1.011-.014.013-.033.022-.047s.017-.014.024-.025.013-.033.024-.047c.044-.05.1-.093.142-.143.011-.014.013-.033.024-.047a.668.668 0 0 1 .047-.049c0-.006 0-.017.011-.024s.046-.027.06-.047.009-.052.024-.072.052-.044.071-.071c.028-.046.044-.1.069-.143.006-.011.017-.016.024-.025s.013-.033.024-.047.033-.03.047-.047a.14.14 0 0 0 .024-.049c.011-.046.013-.095.022-.142a.567.567 0 0 1 .024-.072c.014-.032.035-.061.047-.095s.011-.065.022-.1c0-.009.022-.013.024-.024.014-.079.009-.159.022-.238 0-.017.02-.03.024-.047a1.737 1.737 0 0 0 .033-.3 2.122 2.122 0 0 0-.038-.345c0-.017-.022-.03-.024-.047-.014-.095-.014-.191-.027-.285a.513.513 0 0 0-.025-.118c0-.011-.019-.014-.024-.024-.036-.077-.061-.159-.1-.238a1.5 1.5 0 0 0-.072-.142c-.006-.009-.02-.013-.024-.024-.022-.054-.03-.112-.049-.165a.462.462 0 0 0-.049-.1c-.021-.027-.057-.039-.072-.069a.718.718 0 0 1-.024-.12c0-.011-.019-.014-.025-.024s-.011-.035-.024-.047-.06-.043-.083-.071-.02-.049-.036-.071-.052-.044-.072-.071-.028-.065-.047-.095-.035-.03-.049-.047-.014-.033-.024-.047-.019-.014-.024-.024-.021-.05-.036-.071-.043-.028-.06-.047-.022-.041-.036-.06-.036-.019-.049-.035a.272.272 0 0 1-.036-.071c-.006-.024 0-.05-.011-.071s-.025 0-.036 0a.081.081 0 0 1-.036-.024c-.019-.025-.025-.06-.047-.083s-.052-.019-.072-.035a.152.152 0 0 1-.036-.047c-.011-.022-.009-.05-.024-.071a.864.864 0 0 0-.132-.142c-.031-.028-.079-.039-.107-.071s-.027-.066-.049-.095a.756.756 0 0 0-.107-.106c-.008-.006-.017-.006-.025-.013s-.021-.033-.035-.047c-.11-.112-.228-.216-.336-.329-.016-.017-.02-.044-.036-.06s-.033-.013-.047-.024a.152.152 0 0 1-.036-.035.537.537 0 0 0-.036-.06c-.033-.032-.076-.05-.109-.082-.013-.013-.013-.035-.024-.047s-.041-.03-.06-.047-.022-.033-.036-.047a.7.7 0 0 0-.06-.06c-.006 0-.017 0-.024-.011s-.022-.033-.036-.047c-.046-.049-.1-.091-.143-.142a.438.438 0 0 1-.024-.047.126.126 0 0 0-.036-.035c-.022-.013-.049-.013-.072-.024s-.014-.017-.024-.024-.033-.013-.047-.024a.412.412 0 0 1-.06-.058c-.011-.014-.014-.035-.024-.049a.25.25 0 0 0-.036-.035c-.014-.011-.035-.013-.049-.024s-.03-.033-.047-.047-.017 0-.024-.011-.022-.033-.036-.047a.763.763 0 0 0-.107-.107c-.021-.014-.05-.011-.073-.022a.158.158 0 0 1-.036-.036c-.014-.019-.019-.043-.036-.058s-.033-.013-.047-.024a1.138 1.138 0 0 1-.107-.107c-.014-.014-.022-.035-.036-.047s-.033-.013-.049-.024c-.033-.025-.06-.058-.095-.082s-.052-.017-.072-.035-.011-.035-.024-.047a.333.333 0 0 0-.073-.06.591.591 0 0 1-.071-.035c-.028-.024-.046-.058-.072-.082s-.033-.014-.047-.024-.014-.019-.024-.024a.884.884 0 0 1-.107-.06c-.019-.014-.021-.043-.036-.058s-.035-.013-.049-.024-.044-.05-.071-.071c-.043-.032-.093-.049-.132-.082-.017-.016-.017-.044-.036-.06a.654.654 0 0 0-.095-.046c-.009-.006-.016-.017-.025-.024s-.033-.013-.047-.024c-.043-.036-.076-.083-.12-.118s-.077-.032-.107-.058-.017-.054-.036-.071-.049-.022-.072-.036a.181.181 0 0 1-.035-.035c-.014-.019-.019-.046-.036-.06s-.05-.009-.072-.022-.046-.05-.071-.071a.457.457 0 0 0-.049-.024c-.009-.006-.014-.017-.024-.024s-.033-.013-.047-.024-.03-.035-.047-.047-.05-.022-.072-.035-.014-.019-.024-.024c-.042-.027-.093-.041-.132-.071-.013-.011-.013-.033-.024-.047a.271.271 0 0 0-.06-.06c-.021-.013-.05-.008-.071-.022-.036-.027-.06-.068-.1-.095s-.066-.028-.1-.047-.03-.033-.047-.047-.017-.006-.024-.011-.028-.036-.049-.047a.765.765 0 0 0-.095-.035l-.013-.013a.223.223 0 0 0-.036-.047c-.028-.02-.066-.027-.095-.047s-.03-.035-.049-.047-.05-.019-.071-.035-.044-.052-.072-.071-.05-.008-.071-.024c-.038-.025-.06-.068-.1-.095a.352.352 0 0 0-.072-.022l-.011-.013c-.009-.014-.014-.033-.024-.047a.125.125 0 0 0-.036-.035c-.046-.027-.1-.044-.143-.071-.009 0-.014-.017-.024-.024a.463.463 0 0 1-.049-.024c-.017-.013-.03-.033-.047-.047s-.035-.011-.049-.024c-.05-.043-.09-.1-.143-.14-.019-.016-.047-.014-.071-.024a.841.841 0 0 1-.12-.058c-.019-.013-.028-.036-.047-.047s-.066-.02-.1-.035c-.009-.006-.014-.019-.024-.024-.03-.019-.066-.028-.1-.047s-.028-.036-.047-.047-.049-.013-.071-.024a.153.153 0 0 1-.049-.035c-.017-.017-.025-.047-.047-.06a.61.61 0 0 0-.1-.022c-.009 0-.014-.017-.024-.024s-.033-.014-.047-.024-.016-.017-.025-.024-.033-.013-.047-.024-.027-.038-.047-.047a.946.946 0 0 0-.1-.024l-.011-.011c-.014-.019-.017-.046-.036-.06a1.1 1.1 0 0 0-.12-.046.874.874 0 0 1-.131-.082c-.016-.013-.019-.039-.036-.047-.036-.02-.082-.017-.12-.035-.021-.011-.03-.035-.047-.049s-.033-.013-.049-.022-.014-.017-.024-.024-.033-.014-.047-.024-.014-.017-.024-.024c-.032-.019-.065-.03-.1-.047-.009-.006-.014-.017-.024-.024a1.5 1.5 0 0 0-.143-.069c-.024-.011-.05-.011-.071-.024s-.044-.054-.072-.071-.05-.011-.071-.024-.028-.036-.049-.047c-.038-.02-.08-.028-.12-.046-.009-.006-.014-.019-.024-.024-.038-.022-.082-.036-.12-.06-.019-.011-.027-.036-.047-.047-.061-.032-.129-.05-.191-.08-.011-.006-.014-.019-.024-.024-.047-.027-.1-.044-.143-.071-.009 0-.014-.019-.024-.024-.032-.013-.065-.013-.1-.024a.162.162 0 0 1-.047-.022c-.009-.006-.014-.02-.024-.024a1.554 1.554 0 0 1-.192-.071c-.047-.028-.071-.088-.12-.118a.745.745 0 0 0-.142-.046.675.675 0 0 1-.1-.047c-.009-.006-.014-.017-.024-.024a.329.329 0 0 0-.047-.024c-.032-.009-.066-.011-.1-.022-.011 0-.014-.019-.024-.024s-.049-.013-.072-.024-.014-.017-.024-.024-.033-.014-.047-.024-.014-.017-.024-.024c-.032-.017-.063-.033-.1-.047s-.049-.013-.071-.022-.016-.017-.025-.024-.033-.014-.047-.024-.014-.02-.024-.024c-.031-.013-.065-.011-.1-.024-.01 0-.013-.017-.024-.024-.046-.027-.1-.043-.143-.069-.019-.013-.028-.036-.047-.047s-.066-.019-.1-.036-.044-.043-.071-.058c-.093-.052-.192-.091-.287-.14-.009 0-.014-.019-.024-.024-.055-.027-.115-.041-.167-.071-.021-.009-.03-.033-.049-.047a.164.164 0 0 0-.047-.022c-.032-.011-.065-.013-.095-.024a.39.39 0 0 1-.1-.047c-.028-.019-.044-.052-.072-.071-.068-.041-.145-.065-.214-.106-.013-.006-.013-.027-.024-.035s-.05-.009-.073-.024c-.052-.035-.093-.08-.143-.118-.014-.009-.033-.013-.047-.024s-.016-.016-.024-.022a1.438 1.438 0 0 1-.132-.083c-.017-.014-.019-.043-.036-.058s-.033-.013-.047-.024c-.035-.028-.06-.068-.1-.095s-.076-.033-.107-.058-.02-.043-.036-.06-.035-.011-.047-.024c-.043-.036-.076-.083-.12-.117-.021-.016-.049-.014-.072-.024l-.011-.013c-.009-.014-.014-.033-.025-.047a.127.127 0 0 0-.036-.035.61.61 0 0 1-.071-.036c-.016-.011-.022-.032-.036-.047a.682.682 0 0 0-.084-.082c-.022-.016-.049-.02-.072-.035s-.014-.017-.024-.024-.033-.022-.047-.036a1.164 1.164 0 0 1-.109-.106c-.011-.014-.013-.033-.024-.047s-.052-.044-.071-.071-.027-.068-.049-.095c-.035-.044-.083-.076-.12-.118-.016-.017-.02-.043-.036-.06s-.044-.019-.06-.035-.014-.033-.024-.047a.268.268 0 0 0-.036-.036c-.019-.013-.046-.017-.06-.035a.663.663 0 0 1-.049-.095.158.158 0 0 0-.036-.036c-.014-.009-.033-.013-.047-.022a.157.157 0 0 1-.036-.036c-.006-.009 0-.025-.011-.035a.642.642 0 0 0-.061-.083c-.021-.025-.054-.043-.071-.071s-.025-.082-.049-.118-.043-.03-.06-.047a.082.082 0 0 1-.024-.036c-.016-.035-.022-.071-.036-.106l-.013-.013c-.008 0-.017 0-.024-.011s-.024-.033-.036-.047-.035-.028-.047-.047-.03-.065-.049-.095a.536.536 0 0 0-.06-.083c-.006-.006-.019 0-.024-.011-.017-.03-.022-.065-.036-.095-.006-.011-.019-.014-.025-.024-.017-.032-.03-.065-.047-.1-.006-.009-.019-.014-.025-.024a.165.165 0 0 1-.024-.047c-.011-.038-.011-.08-.024-.118 0-.011-.019-.014-.025-.024s-.014-.033-.024-.047-.017-.014-.024-.024-.014-.033-.024-.047-.019-.014-.025-.024-.011-.05-.024-.071-.036-.028-.049-.047a1.327 1.327 0 0 1-.072-.142c-.009-.024-.014-.049-.024-.072a.771.771 0 0 0-.049-.095c0-.009-.019-.013-.024-.024a.939.939 0 0 1-.024-.095c-.006-.017-.019-.032-.025-.047-.009-.032-.013-.065-.024-.095s-.036-.061-.049-.095-.014-.065-.025-.1a.15.15 0 0 0-.024-.047c-.006-.009-.02-.013-.024-.024-.017-.05-.017-.106-.036-.154-.009-.024-.036-.036-.049-.058a.791.791 0 0 1-.06-.142c-.014-.047-.013-.1-.025-.143s-.035-.079-.049-.118a2.603 2.603 0 0 1-.073-.238c-.014-.054-.011-.112-.025-.165 0-.011-.021-.013-.024-.024-.03-.095-.044-.192-.074-.285 0-.011-.022-.013-.024-.024-.019-.106-.03-.269-.052-.4 0-.025-.019-.047-.024-.072-.013-.063-.013-.128-.025-.189 0-.017-.019-.032-.024-.047a.411.411 0 0 1-.025-.1c-.022-.2-.028-.411-.052-.618 0-.025-.022-.046-.025-.071a76.63 76.63 0 0 1-.055-1.07c0-.016.013-.032.011-.047s-.025-.054-.024-.083a.773.773 0 0 1 .035-.178c0-.017.017-.032.024-.049a.321.321 0 0 0 .022-.095c0-.131-.014-.262-.014-.392s0-.262.008-.392c0-.033.02-.063.024-.1.011-.118.006-.238.02-.356 0-.035.033-.061.036-.1s-.027-.046-.025-.071a.66.66 0 0 1 .035-.143 1.231 1.231 0 0 0 .047-.118.708.708 0 0 0-.013-.1.392.392 0 0 1 .011-.095c0-.025.019-.047.022-.071.013-.079.009-.161.022-.238 0-.019.019-.032.024-.049.019-.055.028-.112.047-.167 0-.016.017-.03.022-.047.019-.063.028-.128.047-.191a.134.134 0 0 1 .024-.047c.006-.009.017-.014.024-.024s.013-.033.022-.049.021-.013.024-.024c.021-.071.028-.143.047-.214a1.162 1.162 0 0 1 .046-.143.537.537 0 0 1 .047-.095c0-.009.019-.014.024-.025.011-.03.011-.065.022-.095 0-.011.02-.014.024-.024.013-.032.014-.065.024-.1s.035-.079.047-.12c.017-.061.027-.128.046-.189a.205.205 0 0 1 .024-.049c.006-.009.019-.014.024-.024s.013-.049.022-.071.021-.014.024-.025c.02-.046.027-.1.047-.142 0-.011.019-.014.024-.025.019-.038.028-.08.046-.118.006-.011.017-.014.024-.025a.134.134 0 0 0 .024-.047c.011-.032.013-.065.024-.095.02-.057.044-.113.069-.167.006-.011.019-.014.024-.025.019-.038.028-.08.047-.118 0-.009.019-.014.024-.024a2.18 2.18 0 0 0 .093-.216c.013-.03.009-.066.024-.095s.035-.03.047-.049a.749.749 0 0 0 .069-.143c.013-.03.011-.065.024-.095a1.213 1.213 0 0 1 .071-.143c0-.009.017-.014.024-.024a.282.282 0 0 0 .024-.049c.009-.03.013-.063.022-.095s.019-.031.024-.047a.662.662 0 0 1 .024-.1c.009-.02.033-.03.047-.047a.175.175 0 0 0 .022-.049c.011-.03.014-.063.024-.095a.217.217 0 0 1 .024-.047c.006-.009.017-.014.024-.025s.013-.033.024-.047.038-.027.047-.047a.957.957 0 0 0 .022-.1c0-.009.019-.014.024-.024.019-.03.028-.066.047-.1s.038-.027.047-.047.009-.066.024-.095.033-.03.047-.049.013-.033.022-.047.036-.03.047-.049a.407.407 0 0 0 .047-.095c.009-.024.013-.049.024-.072s.019-.013.024-.024c.027-.061.043-.129.069-.191 0-.011.017-.014.024-.024s.014-.033.024-.047.019-.014.024-.025a1.7 1.7 0 0 1 .071-.167c.024-.038.066-.06.093-.095a.117.117 0 0 0 .024-.049c.011-.038.011-.08.024-.118 0-.011.019-.014.024-.025s.009-.05.024-.071.055-.041.071-.072 0-.083.022-.118.077-.076.106-.12a.625.625 0 0 0 .035-.1c.006-.009.019-.014.024-.024s.014-.033.024-.047.036-.03.047-.049.027-.066.047-.095.052-.044.071-.072.013-.049.024-.071.019-.014.024-.024.013-.05.022-.072.017-.014.024-.024.013-.035.024-.047a1 1 0 0 0 .071-.072c.033-.049.049-.107.082-.156.011-.016.038-.017.047-.035a.651.651 0 0 0 .035-.12l.013-.013a.357.357 0 0 0 .058-.035c.013-.014.014-.035.024-.049s.017-.014.024-.024.013-.035.024-.047c.028-.035.069-.06.095-.1s.024-.083.047-.12.066-.06.094-.1.035-.074.058-.107c0-.008.017-.006.024-.013a.359.359 0 0 0 .058-.071 1.219 1.219 0 0 0 .071-.143c.009-.024.013-.049.024-.072l.011-.011a.29.29 0 0 0 .06-.036c.017-.02.019-.05.035-.071s.027-.014.035-.025.02-.043.036-.06.035-.02.047-.036.019-.049.035-.071.058-.061.082-.1.022-.049.036-.071a.394.394 0 0 1 .058-.083c.016-.017.043-.02.06-.036s.013-.035.022-.049a.187.187 0 0 1 .036-.035c.014-.011.033-.014.047-.025a.113.113 0 0 0 .036-.036c.011-.02.008-.05.022-.071a1.423 1.423 0 0 1 .118-.12.328.328 0 0 0 .035-.047c.013-.016.024-.033.036-.049s.05-.044.071-.071c.031-.043.049-.093.082-.132.016-.017.043-.019.06-.036s.013-.033.022-.047.035-.03.049-.047.013-.035.022-.049.035-.03.047-.047.014-.033.024-.047a.132.132 0 0 1 .036-.036c.014-.011.033-.014.047-.025a.18.18 0 0 0 .035-.035c.011-.014.014-.035.024-.049a.126.126 0 0 1 .036-.035c.021-.016.052-.019.071-.038s.021-.049.035-.071a.11.11 0 0 1 .035-.036.56.56 0 0 1 .072-.024l.011-.013a1.014 1.014 0 0 1 .082-.131c.019-.02.05-.02.071-.036s.006-.017.013-.024c.038-.043.082-.077.118-.12.011-.014.013-.035.022-.049a.358.358 0 0 1 .06-.06c.014-.011.033-.013.047-.024.035-.028.06-.066.095-.1.017-.014.044-.019.06-.036s.016-.052.035-.071.049-.022.071-.036.014-.017.024-.025.033-.011.047-.024c.035-.028.058-.069.094-.1.021-.014.049-.011.071-.024a.387.387 0 0 0 .083-.06c.016-.017.017-.044.035-.06s.066-.036.095-.06.027-.046.047-.06c.036-.027.082-.036.118-.061.008 0 .006-.016.011-.024a.763.763 0 0 1 .107-.107c.02-.016.05-.011.071-.025.06-.043.107-.1.165-.143.014-.011.033-.014.047-.024s.03-.035.047-.049.033-.014.047-.024.014-.017.024-.024.033-.014.047-.025.028-.035.047-.047c.046-.028.1-.046.142-.072.011-.006.014-.019.024-.024a.911.911 0 0 1 .095-.049.562.562 0 0 0 .073-.024c.019-.013.028-.036.046-.049s.068-.027.1-.047.025-.047.047-.06.082-.025.118-.049c.02-.014.025-.046.047-.06a.983.983 0 0 1 .118-.049c.009 0 .014-.017.024-.024s.033-.014.047-.024.014-.019.024-.025.033-.014.047-.024.014-.019.024-.024c.03-.013.065-.014.094-.025s.077-.038.12-.047c.016 0 .032.014.047.011s-.006-.019 0-.024a.5.5 0 0 1 .071-.036c.009-.006.014-.017.024-.024s.033-.014.047-.025.013-.02.024-.024c.038-.013.08-.011.118-.025.011 0 .014-.017.024-.024s.033-.014.047-.024.014-.017.024-.024a.137.137 0 0 1 .047-.025c.05-.011.1-.011.154-.025.014 0 .022-.017.036-.024s.049-.013.071-.024.014-.019.024-.025c.03-.017.065-.028.095-.047.009-.006.013-.02.024-.024.054-.022.112-.028.165-.049.035-.013.063-.035.1-.049a.341.341 0 0 1 .071-.024c.047-.011.094-.016.142-.025.065-.014.128-.03.191-.049.041-.014.077-.035.118-.049s.065-.014.095-.025.03-.02.047-.024c.1-.022.208-.025.309-.05a.755.755 0 0 0 .095-.047.41.41 0 0 1 .1-.025c.079-.011.159-.013.238-.025.047-.008.093-.032.142-.036.031 0 .063.013.094.011a.411.411 0 0 0 .1-.025c.016 0 .03-.02.047-.024.069-.014.142-.014.213-.025.033-.006.063-.022.1-.025.129-.011.262-.014.392-.014s.262 0 .392.008c.013 0 .024.014.036.013s.038-.025.058-.025.047.024.071.024.071-.025.107-.025.055.02.083.024.032-.013.047-.013.016.013.025.013c.028 0 .054-.022.082-.025a.156.156 0 0 1 .06.011.857.857 0 0 0 .12.047c.093.016.191.009.285.022.017 0 .03.019.047.024.094.019.192.025.287.044s.176.043.262.069c.011 0 .014.02.024.024.031.013.065.014.1.024.016 0 .03.017.047.024a.915.915 0 0 1 .095.024.174.174 0 0 1 .049.035c.016.011.028.028.047.035.071.025.146.028.214.058.024.009.027.046.049.06.052.03.113.041.167.069.019.011.03.033.047.047s.017 0 .024.011.027.047.049.06a.483.483 0 0 0 .095.022.177.177 0 0 1 .049.024c.025.022.046.049.071.071.008.006.017.006.025.013a.437.437 0 0 1 .047.047c.013.014.022.032.036.047.043.044.085.09.131.129.014.011.035.013.049.024a.973.973 0 0 1 .107.106c.013.014.014.033.024.047s.036.03.049.047a1.188 1.188 0 0 0 .06.107c.014.017.047.016.06.035.025.036.027.082.049.118.011.02.035.03.047.049s.014.033.025.047.035.028.047.046c.028.046.046.1.072.143.006.009.019.014.024.024a1.09 1.09 0 0 1 .049.118c.011.032.013.065.024.095a1.219 1.219 0 0 0 .072.143c.006.009.019.013.025.022a.2.2 0 0 1 .024.049c.011.046.011.1.025.142 0 .011.019.014.024.024s.014.049.024.071a.6.6 0 0 1 .049.095c.027.126.028.255.05.381a1.324 1.324 0 0 0 .049.189c0 .011.024.013.024.024.009.09.019.386.028.476 0 .011.022.013.024.024a8.052 8.052 0 0 1 .008.903c0 .013-.014.024-.013.036s.021.038.024.06-.009.014-.011.024c-.009.087-.011.175-.022.262 0 .033-.02.063-.022.095-.013.167-.008.334-.02.5 0 .017-.021.03-.024.047-.013.071-.011.143-.022.214s-.027.159-.046.238c0 .017-.019.03-.024.047-.027.095-.05.191-.069.287s-.025.191-.044.285c0 .017-.019.032-.024.047-.027.079-.049.159-.071.239-.016.063-.028.128-.046.191a.982.982 0 0 1-.058.178c-.008.017-.039.017-.047.036s0 .055 0 .083a1.145 1.145 0 0 1-.035.178c0 .011-.017.014-.024.024s-.014.033-.024.049-.019.013-.024.024c-.019.054-.028.112-.046.167-.006.016-.017.03-.024.047-.025.071-.044.143-.069.214-.006.017-.019.032-.024.049-.019.054-.025.112-.047.165s-.066.126-.093.192c-.013.03-.011.065-.024.095 0 .011-.017.014-.024.024-.017.032-.028.066-.046.1-.006.009-.017.014-.024.024a.2.2 0 0 0-.024.049c-.011.03-.011.065-.024.095 0 .011-.019.014-.024.024-.027.063-.043.129-.069.191 0 .011-.019.014-.024.025s-.013.049-.024.071-.019.014-.024.024-.013.049-.024.072-.017.014-.024.024-.013.033-.022.047-.021.014-.024.024c-.013.032-.014.065-.024.1a.19.19 0 0 1-.024.047 1.3 1.3 0 0 0-.082.107c-.019.033-.016.076-.035.107s-.05.046-.071.072-.014.033-.024.047-.019.014-.024.025c-.022.046-.033.1-.058.142s-.06.061-.082.1a1.063 1.063 0 0 0-.047.1c-.006.009-.017.014-.024.024-.019.032-.028.065-.047.1-.006.009-.019.014-.024.024s-.009.05-.024.071-.05.044-.071.072a.414.414 0 0 0-.046.1.381.381 0 0 1-.024.071c-.025.036-.069.058-.095.1a.835.835 0 0 0-.047.118l-.011.013a.111.111 0 0 0-.024.013c-.014.014-.022.033-.036.047-.03.033-.065.061-.093.1-.013.014-.014.033-.024.047s-.019.014-.024.024 0 .025-.013.036-.033.039-.047.06-.027.058-.046.083c-.006.008-.017.006-.024.013a.421.421 0 0 0-.06.071c-.013.022-.006.054-.022.072-.073.085-.164.153-.236.239-.024.027-.027.066-.047.1a.418.418 0 0 1-.058.06c-.019.014-.044.019-.06.035s-.013.035-.024.049-.05.046-.071.071-.013.033-.024.049-.017.013-.024.024-.013.049-.022.071l-.013.013a.627.627 0 0 0-.071.024.159.159 0 0 0-.036.036c-.009.014-.013.035-.022.047a.369.369 0 0 1-.06.061c-.017.014-.043.019-.058.035s-.013.035-.024.049a.846.846 0 0 1-.084.083c-.006.006-.017 0-.024.013s-.022.033-.035.047a.546.546 0 0 1-.06.06c-.017.014-.043.02-.058.036s-.013.033-.024.047a.151.151 0 0 1-.035.036c-.014.011-.035.013-.047.024-.028.025-.044.061-.071.085s-.049.02-.071.036a.628.628 0 0 0-.072.06.5.5 0 0 0-.046.035c-.049.047-.091.1-.142.145-.014.011-.033.013-.047.024s-.028.038-.047.047a.666.666 0 0 1-.1.025l-.011.013c-.009.014-.014.033-.024.047s-.019.032-.036.036c-.076.024-.159.027-.236.049-.035.011-.061.039-.094.049-.061.016-.129.009-.191.025-.025.006-.046.03-.071.036s-.032-.013-.047-.011c-.083 0-.167.013-.251.013a2.19 2.19 0 0 1-.249-.009c-.025 0-.047-.019-.072-.024-.047-.009-.1-.009-.142-.022a.613.613 0 0 1-.12-.047c-.009 0-.014-.019-.024-.024s-.049-.013-.072-.024-.014-.017-.024-.024-.049-.013-.071-.022a.758.758 0 0 1-.143-.071 1.751 1.751 0 0 1-.145-.142c-.006-.006-.017 0-.024-.011a1.131 1.131 0 0 1-.12-.154 1.063 1.063 0 0 1-.036-.107c0-.009-.019-.013-.024-.024a.866.866 0 0 1-.072-.165 1.741 1.741 0 0 1-.05-.236c0-.009.013-.016.013-.025s-.013-.03-.013-.047.014-.024.011-.035c0-.03-.03-.054-.036-.083a3.179 3.179 0 0 1-.038-.345.409.409 0 0 1 .011-.107c.011-.049.041-.093.047-.143.016-.142.008-.285.021-.427s.027-.3.044-.4c0-.011.017-.014.024-.024s.013-.033.024-.049.019-.013.024-.024c.019-.046.027-.1.046-.143 0-.009.017-.014.024-.024.017-.03.028-.065.047-.1.006-.009.017-.014.024-.024a.166.166 0 0 0 .067.011c.011-.039.011-.08.022-.12a.146.146 0 0 1 .024-.047c.021-.027.055-.041.071-.072a1.43 1.43 0 0 0 .046-.165c0-.011.019-.016.024-.025a.6.6 0 0 1 .036-.071c.016-.02.047-.025.058-.049s.011-.08.024-.118c0-.011.017-.014.024-.024a.973.973 0 0 1 .035-.1c.011-.019.038-.028.047-.047.017-.038.019-.082.035-.12 0-.011.017-.014.024-.024.025-.046.044-.1.069-.143.006-.009.021-.014.024-.024.013-.032.009-.066.024-.1s.035-.028.047-.047.028-.065.047-.1c0-.009.021-.013.024-.024.013-.046.008-.1.022-.143a.31.31 0 0 1 .047-.095c.011-.019.038-.028.047-.049.022-.044.027-.1.046-.143 0-.009.017-.014.024-.024.019-.03.028-.065.047-.095.006-.009.019-.014.024-.025.014-.03.02-.063.035-.095a1.2 1.2 0 0 1 .058-.12c.006-.009.017-.014.024-.024a.6.6 0 0 0 .047-.1c.006-.014 0-.032.011-.047a.881.881 0 0 0 .047-.083c.025-.074.033-.153.058-.227 0-.009.019-.013.024-.024a1.183 1.183 0 0 0 .046-.167c.013-.063.009-.128.022-.191 0-.011.017-.014.024-.024a.112.112 0 0 0 .024-.047 2.267 2.267 0 0 0 .009-.274 2.615 2.615 0 0 0-.014-.273.741.741 0 0 0-.025-.143.884.884 0 0 0-.047-.142c0-.011-.02-.014-.025-.024a.645.645 0 0 0-.024-.095c-.017-.03-.05-.046-.073-.071 0-.008-.006-.017-.011-.024a.231.231 0 0 0-.049-.047.562.562 0 0 0-.12-.058c-.054-.02-.112-.028-.167-.047-.016 0-.03-.019-.047-.024-.063-.011-.128-.011-.191-.022-.008 0-.014-.011-.024-.011s-.014.011-.024.011c-.071.013-.143.013-.214.027a1.149 1.149 0 0 0-.189.049c-.011 0-.013.02-.024.024-.1.022-.206.032-.309.05a.4.4 0 0 0-.095.024c-.011 0-.014.017-.024.024s-.033.014-.047.025-.014.017-.024.024a.734.734 0 0 0-.071.036c-.008 0-.006.017-.013.024s-.033.03-.047.047-.021.043-.035.06-.017.006-.024.013-.022.033-.036.047a.353.353 0 0 1-.058.06c-.017.016-.042.02-.06.036s-.013.035-.022.049a.841.841 0 0 1-.084.083c-.006.006-.017 0-.024.013a.364.364 0 0 0-.035.047.54.54 0 0 1-.06.06c-.021.016-.05.02-.071.036a.165.165 0 0 0-.035.047c-.009.016-.014.035-.024.049a.152.152 0 0 1-.036.035c-.014.011-.033.014-.047.025s-.03.033-.047.047-.017.006-.024.013a.656.656 0 0 0-.047.047c-.013.016-.022.033-.035.049s-.033.03-.047.047-.019.044-.035.06c-.039.041-.091.068-.131.107a.282.282 0 0 0-.024.049c-.006.009-.017.014-.024.024a.868.868 0 0 1-.058.107c-.011.014-.033.014-.047.025a.146.146 0 0 0-.035.035c-.014.019-.019.044-.036.06s-.05.02-.071.036a.152.152 0 0 0-.035.049c-.009.014-.013.033-.024.047-.028.035-.066.061-.095.1-.016.017-.019.043-.035.06s-.044.019-.06.036-.013.033-.024.047-.033.03-.047.047 0 .017-.011.024c-.027.027-.058.046-.083.072-.008.009 0 .025-.011.036a.973.973 0 0 1-.058.083c-.035.041-.076.077-.107.12-.016.022-.019.05-.035.071a.451.451 0 0 1-.06.049.491.491 0 0 0-.058.071.535.535 0 0 0-.024.072l-.011.011c-.024.014-.049.022-.071.036a.072.072 0 0 0-.024.025c-.022.038-.036.08-.058.118-.006.009-.017.016-.024.025s-.014.033-.024.047-.035.028-.047.047c-.024.035-.033.076-.058.109-.013.013-.035.013-.049.024a.111.111 0 0 0-.035.036c-.016.03-.017.066-.035.095s-.033.024-.047.036a.36.36 0 0 0-.06.06c-.019.03-.025.066-.046.1s-.068.06-.095.1-.028.065-.047.095-.033.03-.047.049-.014.033-.024.047-.019.014-.024.024-.009.05-.022.071-.035.032-.049.049 0 .017-.011.024-.046.027-.058.049-.006.068-.024.095c-.03.047-.085.074-.118.12-.019.028-.016.068-.035.1s-.046.025-.06.047-.027.08-.046.12c0 .009-.017.014-.024.024s-.02.05-.036.071-.033.03-.046.049a.3.3 0 0 0-.036.071c-.011.032-.011.065-.022.1 0 .009-.017.014-.024.024s-.013.033-.024.047-.053.044-.071.072a.377.377 0 0 0-.024.071.686.686 0 0 1-.047.1c0 .009-.017.014-.024.024-.033.071-.058.145-.093.214 0 .011-.019.014-.024.025s-.009.049-.024.071-.036.028-.047.049a.594.594 0 0 0-.022.095.223.223 0 0 1-.024.047c-.006.009-.019.014-.024.025-.031.074-.049.153-.082.225-.011.027-.035.046-.047.072-.03.066-.058.134-.082.2-.011.039-.008.082-.022.12s-.049.095-.071.143c-.009.024-.011.049-.022.071s-.02.014-.024.025c-.013.038-.009.08-.024.118-.025.066-.072.123-.093.191-.027.085-.027.176-.046.263 0 .017-.019.03-.024.047-.019.063-.028.128-.046.191 0 .017-.019.032-.024.047a.646.646 0 0 0-.024.1c-.009.055-.011.112-.022.167s-.036.109-.046.167-.009.143-.024.213c0 .011-.022.014-.024.025-.013.095-.009.191-.021.285-.008.06-.032.118-.035.178 0 .025.024.047.024.071s-.022.039-.022.06.02.03.024.047-.011.016-.011.024a1.973 1.973 0 0 0-.011.214 1.939 1.939 0 0 0 .014.214c0 .009.013.016.011.024s-.021.039-.022.06.009.024.011.036c.013.126.013.254.027.38.011.1.03.206.05.309.013.065.038.126.049.189.022.118.027.239.05.358 0 .011.017.014.024.024.019.03.028.065.049.095s.038.027.047.047.009.065.025.095.035.028.047.047.03.065.049.095c.006.009.017.014.024.024s.014.033.024.047.017.014.025.024.013.033.024.047.036.028.047.047c.033.054.049.115.085.165.02.03.058.044.084.071s.014.033.024.047.035.032.049.047 0 .017.011.024.047.027.061.047.009.066.024.095a.1.1 0 0 0 .036.036c.014.009.033.013.047.024a.152.152 0 0 1 .036.035c.014.022.021.05.036.071s.017.006.024.013a.458.458 0 0 1 .083.082c.014.02.009.052.025.071a.4.4 0 0 0 .083.071.541.541 0 0 1 .047.036.681.681 0 0 1 .083.082c.013.014.014.035.025.047a1.154 1.154 0 0 0 .107.107c.017.014.044.019.06.035s.02.043.036.06.033.013.047.022a.157.157 0 0 1 .036.036c.011.014.013.035.025.047.065.069.132.137.2.2.013.013.035.013.047.024s.03.041.049.06.033.022.047.035.041.038.06.058.006.019.013.024c.025.027.058.044.083.071s.013.035.024.047a.269.269 0 0 0 .06.06c.022.013.05.009.072.024a.3.3 0 0 1 .06.058c0 .006 0 .017.011.024a.513.513 0 0 0 .073.058c.042.03.09.052.131.083.008 0 0 .019.013.024s.052.008.071.024 0 .024 0 .035a.1.1 0 0 0 .024.047.133.133 0 0 0 .047.024c.032.009.065.013.1.024l.011.011a.446.446 0 0 0 .025.047c.02.027.049.046.071.071.006.006.006.017.013.024s.033.022.047.036.03.035.049.047c.044.027.1.039.143.069.02.014.03.041.047.06a.537.537 0 0 0 .072.058c.014.011.033.014.047.024s.014.017.024.024c.031.017.065.028.1.047.009 0 .014.017.024.024s.033.013.047.022.03.035.049.047.043.019.06.036.016.047.035.058.066.011.1.024c.011 0 .014.017.024.024s.05.02.073.035.031.033.047.047a1.773 1.773 0 0 0 .167.142c.028.019.066.017.1.035s.03.035.047.047.033.014.049.024.014.017.024.024.033.013.047.024.046.049.072.071.033.013.047.024.028.038.049.046c.036.016.08.008.118.024.02.008.03.033.049.047s.033.014.047.024.014.019.024.024.049.013.072.024.014.017.024.024a.594.594 0 0 1 .071.035c.02.016.027.046.049.058a1.091 1.091 0 0 0 .118.047c.011 0 .014.019.025.024s.049.009.071.024.028.035.047.047.049.011.072.022.014.017.024.024.033.014.047.024.014.02.025.024c.03.013.065.009.095.024s.028.036.047.047.05.009.072.024c.043.025.074.069.12.093.028.016.065.011.095.024.011 0 .014.017.024.024.032.017.066.027.1.046s.043.055.072.072a.636.636 0 0 0 .095.022c.011 0 .014.017.024.024.031.019.065.028.1.047.009.006.014.019.024.024s.049.013.073.024.013.017.024.024c.046.022.1.035.143.058.022.011.036.035.06.047s.073.019.107.035c.009 0 .014.019.024.024.038.017.08.027.12.046.009 0 .013.019.024.024.038.016.08.019.118.035.011 0 .016.019.025.024.038.022.08.036.118.058.011.006.014.019.025.024.038.019.08.028.118.047.011 0 .014.019.025.024.093.043.194.069.285.117.03.016.046.05.072.071s.033.014.047.024.014.019.024.024c.032.013.065.013.1.022l.013.013c.013.019.016.046.035.06a1.1 1.1 0 0 0 .12.046.97.97 0 0 1 .132.082c.014.013.019.038.035.047.038.022.082.027.12.047s.046.044.073.058.08.028.118.047c.011 0 .016.017.025.024s.033.013.047.024.028.035.047.047a.534.534 0 0 0 .1.046c.022.011.049.013.071.024a.352.352 0 0 1 .083.06c.008 0 0 .019.013.024.03.016.066.017.1.035s.03.033.047.047a.435.435 0 0 1 .047.024c.027.02.046.05.073.069s.066.028.1.047.046.043.071.06a1.056 1.056 0 0 1 .132.069c.019.017.016.055.036.071a.754.754 0 0 0 .118.06c.009 0 .014.017.025.022s.033.014.047.024.03.035.047.047.035.013.049.024.046.049.071.071c.006.006.017.006.024.013s.027.044.049.058.082.024.118.047.046.05.072.071c.009.006.025 0 .036.011.061.044.117.1.18.142.022.014.049.02.071.035s.014.017.024.024a.469.469 0 0 1 .049.024c.017.013.028.035.047.047s.05.019.072.035.028.043.047.058.035.013.047.024c.052.044.091.1.145.142a.885.885 0 0 0 .094.047c.009.006.014.017.024.024a.47.47 0 0 1 .049.024.193.193 0 0 1 .036.035c.013.019.017.046.035.06s.054.006.072.024c.095.079.169.18.263.258.019.017.05.011.072.024a.109.109 0 0 1 .035.036c.014.017.019.043.036.058s.05.02.072.035c.006.006.006.017.011.024a2.47 2.47 0 0 0 .2.2c.031.027.074.035.107.058.006 0 0 .017.013.024a.523.523 0 0 0 .047.035c.017.019.03.043.047.06s.06.044.085.071.013.033.024.047a.126.126 0 0 0 .036.035c.014.011.035.013.047.024.044.039.076.091.12.131s.074.043.107.069c.008.006.006.017.013.024s.042.028.06.047.022.043.036.06.017 0 .024.011c.019.022.027.052.049.071s.076.043.107.071c.013.013.013.033.024.047a1.061 1.061 0 0 0 .084.083c.008 0 .02 0 .025.011s.008.052.024.071.025 0 .036 0a.1.1 0 0 1 .047.024c.013.013.013.035.024.047.046.05.1.091.145.142.011.013.013.033.024.047s.035.03.047.047.013.035.025.047c.068.074.146.139.216.213.011.013.013.033.024.047a.69.69 0 0 0 .084.082c.006.006.019 0 .024.013.025.036.036.08.061.118.013.019.033.03.047.047s.013.033.024.047.052.044.072.071.013.033.024.047a.771.771 0 0 1 .072.071c.014.02.009.05.024.071.035.044.088.072.12.118a.969.969 0 0 1 .049.118c.011.019.035.03.047.047s.016.033.025.047.017.014.024.024.014.033.024.047.035.03.049.047.013.033.024.047.036.028.049.047.025.066.047.095.069.058.1.095c.016.02.011.05.024.071s.035.03.049.047.013.033.024.047.038.028.049.047c.02.038.028.082.049.12 0 .009.017.014.024.024.017.03.03.063.047.095.006.009.019.013.025.024.019.038.028.08.047.118.006.009.019.014.025.024.017.03.028.065.047.095.006.009.019.014.024.024s.014.049.025.071a.591.591 0 0 0 .06.107c.013.016.039.017.047.035.028.052.038.113.061.167 0 .009.017.014.024.024s.014.032.025.047.017.013.024.024c.019.038.027.082.049.118.011.019.036.028.047.047a.911.911 0 0 1 .072.165c.013.038.009.082.025.12.033.082.087.154.12.236.022.054.03.112.049.165a.536.536 0 0 0 .049.095c.006.009.02.014.024.024.022.061.028.129.049.191a.45.45 0 0 0 .049.095c.006.009.019.013.024.024a.751.751 0 0 1 .049.142c.014.063.008.129.025.191.024.082.076.154.1.236.036.14.044.287.074.428 0 .017.017.03.024.047a2.119 2.119 0 0 1 .074.213c.014.063.013.128.025.191a1.169 1.169 0 0 0 .049.191c0 .009.019.013.024.024a.219.219 0 0 1 .024.071c.021.126.032.254.05.38 0 .008.014.014.013.024s-.025.03-.024.047a1.154 1.154 0 0 0 .036.12c.035.173.066.347.088.521 0 .024-.013.047-.011.071-.024.095-.006.221 0 .349zm51.093-16.585c.156-.758-1.588-.835-1.582-.083.003.598 1.451.743 1.582.083zm3.508.175c.238 1.142-.647 1.857-1.456 2.377-2.363 1.5-4.411.712-6.086-1.262a4.651 4.651 0 0 1 .24-4.318 3.741 3.741 0 0 1 1.1-.852 4.356 4.356 0 0 1 3.628.079 4.66 4.66 0 0 1 2.366 3.2c.041.229.158.53.208.775zm-46.846 6.134c-.024 0-.047-.011-.071-.011a.182.182 0 0 0-.071.013c-.011 0-.014.019-.024.024s-.049.013-.071.024-.014.019-.024.025c-.047.027-.1.044-.143.072a.1.1 0 0 0-.035.035c-.011.016-.013.035-.024.049s-.033.03-.047.047a.149.149 0 0 0-.024.047.786.786 0 0 0-.035.18.537.537 0 0 0 .038.154c0 .009.017.014.024.024s.013.033.024.047a.374.374 0 0 0 .084.082.848.848 0 0 0 .227.106c.028.008.055-.024.083-.025s.047.02.072.024c.008 0 .016-.006.024-.011s.027-.036.047-.049c.441-.266.759-.857-.054-.857zm-.035 4.732c-.03-.022-.041-.063-.072-.082a1.086 1.086 0 0 0-.118-.047c-.028-.014-.046-.044-.072-.058a.236.236 0 0 0-.071-.024 1.427 1.427 0 0 1-.143-.024c-.011 0-.014-.019-.024-.024-.031-.011-.065-.011-.1-.022-.009 0-.014-.017-.024-.024a.188.188 0 0 0-.047-.024c-.031-.009-.065-.011-.1-.024-.009 0-.013-.02-.024-.024-.061-.013-.128-.008-.191-.022-.011 0-.013-.019-.024-.024-.11-.043-.224-.074-.334-.117-.009 0-.014-.017-.024-.024a3.343 3.343 0 0 1-1.619-1.782 5.041 5.041 0 0 1 .183-4.044c.263-.629.988-.974 1.416-1.486.028-.035.069-.058.095-.1a.787.787 0 0 0 .046-.12c.006-.009.019-.014.024-.024s.022-.049.036-.071.016-.016.024-.025a.128.128 0 0 0 .035-.047.721.721 0 0 0 .011-.154.419.419 0 0 0-.013-.154.236.236 0 0 0-.085-.082c-.014-.013-.033-.014-.047-.024s-.027-.043-.047-.047c-.629-.17-2.109-.08-2.528.555a5.105 5.105 0 0 0-.772 1.812 28.067 28.067 0 0 0-.295 6.471c.011 1.411 1.171 7.015 3.567 6.095.009 0 .013-.019.024-.024a1.435 1.435 0 0 0 .142-.036c.022-.013.027-.046.047-.06a1.1 1.1 0 0 1 .118-.049c.011 0 .014-.019.024-.024.038-.02.082-.03.12-.049.009 0 .013-.017.024-.024.03-.019.063-.03.094-.049.009-.006.014-.017.024-.024a.766.766 0 0 0 .094-.049c.052-.043.093-.1.142-.143.006-.006.017-.006.024-.013.025-.025.042-.058.071-.083.013-.011.033-.013.047-.024s.028-.043.046-.06.046-.027.06-.049c.03-.044.039-.1.071-.143a.677.677 0 0 1 .106-.107c.006-.006.019 0 .024-.013s.019-.05.035-.071c.028-.036.071-.058.095-.1.963-1.447 1.528-3.811-.094-5.012zm50.258 15.582a8.227 8.227 0 0 1 .046-3.329c.658-4.129 1.4-8.412 1.96-12.595.227-1.712-1.243.671-1.514.844-1.418.923-2.089.879-3.4-1.186-.444-.7-1.215-1.084-1.618-.06-.543 1.309-1.81 2.752-3.307 1.452-.551-.474-1.545-2.272-2.519-1.36-1.867 1.779-3.429 4.984-6.84 2.561-.451-.32-.818-1.06-1.276-.479a15.536 15.536 0 0 1-1.429 1.295c-1.048 1.065-3.952 2.713-5.381 2.1-.733-.312-1.114-1.2-1.953-.353a2.347 2.347 0 0 1-1.326.616c-3.387.745-5.044-8.373-6.345-1.033a3.409 3.409 0 0 1-1.561 2.5c-.8.317-1.648-1.205-1.881-1.827-.2-.536-.986-4.83-2-2.862-.885 1.8-.358 3.853-1.074 5.668a1.508 1.508 0 0 1-2.612.447 6.265 6.265 0 0 1-.84-4.083c.046-1.117-.288-3.467-1.61-3.8-.747-.175-.1 1.569-.08 1.974.161 3.467-.7 6.081-3.625 7.9-.021.013-.028.038-.047.049-.046.025-.1.036-.143.06-.009 0-.014.019-.024.024a.842.842 0 0 1-.118.061c-.03.011-.063.013-.094.024a.22.22 0 0 0-.047.024c-.009.006-.014.019-.024.025a1.255 1.255 0 0 1-.189.1c-.069.025-.145.028-.214.049-.011 0-.014.019-.024.024a.536.536 0 0 1-.094.049c-.047.019-.1.028-.143.049-.009 0-.013.019-.024.024s-.047.013-.071.025-.013.019-.024.024a.777.777 0 0 1-.118.049c-2.691.825-4.568-2.741-5.21-4.847a34.146 34.146 0 0 1-1.207-5.531 28.03 28.03 0 0 1-.1-7.228c.285-2.341 1.556-5.485 4.1-6.06 4.57-1.03 6.467 3.417 6.865 6.809.225 1.917 1.074 1.791 2.41 2.774a3.383 3.383 0 0 1 1.211 1.24c.466 1.256 1.07-.917 1.249-1.246a4.835 4.835 0 0 1 .742-1.1c2.484-2.524 3.556 2.379 4.627 1.927 1.161-.5 1.085-1.708 2-2.369 3.329-2.451 3.425 4.961 5.991 5.969 1.2.5 1.408-2.413 1.605-3.091.92-3.155 2.557-7.494 5.937-8.642 1.871-.638 4.787.076 5.9 1.8.794 1.224 1.137 2.576-.2 3.39-1.979 1.232-2.341-.758-3.883-.969a1.938 1.938 0 0 0-1.33.273c-1.273.74-3.789 4.992-2.818 6.334.649.895 1.468.269 2.176-.172a9.421 9.421 0 0 0 2.133-2.549c.507-.647 1.657-1.914 2.552-1.922 2.087-.016.536 3.611 2.1 3.6l3.948-4.657c1.462-.836 1.867-.31 2.5.969a2.482 2.482 0 0 0 .766.814c2.009 1.238 1.5-4.3 4.234-3.029 1.167.515 2.254 3.157 2.842 3.129.384-.016 1.98-3.834 2.368-4.417.944-1.449 2.023-1.446 2.571.361.74 2.377.518 5.077.414 7.535-.217 5.159-.488 11.108.98 16.186.365 1.208 1.826 2.848 1.2 4.318-.507 1.175-2.609.449-3.39-.057-1.677-1.152-3.235-2.45-3.7-4.589zm29.2-25.5c.359 1.2-.616 2.938-1.434 3.768-.132.134-.222.325-.353.455-.715.731-1.427 1.482-2.2 2.146a26.564 26.564 0 0 1-3.073 2.354c-1.6.97-4.28 1.775-5.529-.208-.3-.482-1.29-1.2-1.812-.556a10.631 10.631 0 0 1-2.659 2.053 3.747 3.747 0 0 1-4.044-.112c-2.631-2.078-2.777-7.744-.756-10.3a17.828 17.828 0 0 1 2.061-2.5c.217-.187.4-.4.614-.6 1.52-1.407 4.231-3.324 6.333-2.141 2.239 1.21 1.169 3.782-.966 4.312-.167.041-.309.058-.476.1a7.115 7.115 0 0 0-4.485 2.733c-.688.969-1.649 2.757-.529 3.749 1.372 1.224 2.7-1.011 3.135-2.057.545-1.334 2.166-4.066 3.962-2.669 1.032.786.521 1.714.914 2.7.181.455.455 1.046.948 1.218 2.639.915 3.565-2.943 4.685-4.518.992-1.4 2.267-2.51 4.088-1.851 1.082.385 1.249.897 1.572 1.925z" class="cls-3" data-name="Path 8242" transform="translate(3.752 5.028)"/>
        <path id="Rectangle_74" d="M0 0h133.903v75.847H0z" class="cls-4" data-name="Rectangle 74" transform="translate(-344.5 11.3)"/>
        <path id="Path_8243" d="M-311.834 53.74a17.084 17.084 0 0 1 .01 1.284c0 .025-.02.047-.024.072-.013.142-.008.285-.021.428 0 .017-.019.03-.024.047a2.63 2.63 0 0 0-.046.214c-.009.055-.011.112-.022.167s-.033.126-.047.191c-.009.047-.011.1-.022.142 0 .017-.019.032-.024.049-.019.087-.025.175-.046.262s-.044.159-.069.238c0 .017-.017.032-.024.049-.017.061-.025.128-.046.189-.011.035-.036.063-.047.1s-.009.08-.022.12c0 .011-.019.014-.024.024a.374.374 0 0 0-.024.071 1.073 1.073 0 0 1-.022.143c-.008.02-.036.03-.047.047s-.03.065-.047.1c-.006.009-.019.014-.024.024-.027.054-.044.113-.069.167-.006.011-.019.014-.024.024s-.014.049-.024.072-.035.061-.047.095-.009.066-.022.1c-.028.066-.066.126-.094.191-.006.016 0 .033-.011.047a.761.761 0 0 1-.058.12c-.019.028-.05.046-.071.072s-.014.033-.024.047-.017.014-.024.024-.013.033-.024.049-.036.028-.047.047c-.021.038-.028.08-.046.12a.34.34 0 0 1-.036.047.507.507 0 0 1-.035.047c-.016.017-.036.028-.047.049a.531.531 0 0 0-.024.071.775.775 0 0 1-.047.1c-.006.009-.017.014-.024.024-.025.046-.044.1-.069.143-.006.009-.017.014-.024.024s-.013.033-.024.047-.05.046-.071.072-.014.033-.024.047a.151.151 0 0 1-.035.036.453.453 0 0 1-.049.024.149.149 0 0 0-.035.036c-.013.022-.009.052-.024.072a.585.585 0 0 1-.082.083c-.006.006-.017.006-.024.013s-.022.033-.036.047-.041.03-.058.047a.375.375 0 0 0-.06.072c-.011.022-.013.049-.022.071l-.013.013a.277.277 0 0 0-.058.036c-.017.016-.02.041-.036.06s-.017 0-.024.011a.541.541 0 0 0-.035.049c-.014.017-.035.03-.047.047s-.013.035-.024.049-.049.044-.071.071-.019.044-.035.06-.042.02-.06.036-.013.035-.024.047a.262.262 0 0 1-.058.06c-.014.011-.033.014-.047.025s-.044.052-.071.071-.068.027-.095.049c-.061.05-.107.115-.165.167-.013.013-.033.014-.047.025a.438.438 0 0 0-.06.06c0 .006 0 .017-.011.024s-.033.022-.047.036c-.049.046-.088.1-.142.143-.019.016-.047.014-.071.025l-.013.011a.42.42 0 0 1-.022.047.157.157 0 0 1-.036.036c-.014.011-.033.014-.047.025a.1.1 0 0 0-.035.035c-.016.024-.02.05-.036.072a.157.157 0 0 1-.047.036c-.022.014-.047.024-.071.036a.6.6 0 0 0-.071.036c-.009.006-.014.017-.024.024s-.033.014-.047.024-.014.019-.024.024-.05.009-.071.025c-.044.033-.074.085-.118.12-.021.014-.05.009-.071.024s-.043.057-.071.072a1.393 1.393 0 0 1-.143.049c-.009 0-.014.017-.022.024a.464.464 0 0 0-.049.024c-.033.03-.06.066-.093.1-.008.006-.017.006-.024.013s-.03.035-.047.047-.049.022-.072.036-.013.019-.022.025c-.039.019-.083.025-.12.047s-.041.055-.071.072c-.066.039-.145.058-.213.1-.021.011-.03.035-.047.049a.15.15 0 0 1-.047.024c-.032.011-.065.013-.095.025-.011 0-.014.017-.024.024-.032.019-.066.027-.1.047s-.043.054-.069.072-.05.011-.072.025-.027.038-.047.047c-.076.039-.159.061-.236.1-.011 0-.014.017-.024.024-.046.027-.1.046-.142.072-.009 0-.014.019-.024.024-.038.016-.082.017-.12.036-.013.006-.011.027-.022.036s-.033.014-.047.024-.014.019-.024.024c-.038.02-.082.03-.12.049-.009.006-.013.02-.024.024-.03.013-.063.014-.095.025a.217.217 0 0 0-.071.036c-.014.011-.006.041-.024.047-.044.017-.1 0-.142.013-.068.024-.125.071-.191.1s-.112.027-.165.049c-.09.035-.172.084-.261.121-.03.013-.065.011-.095.024a1.2 1.2 0 0 0-.142.072c-.009.006-.013.02-.024.024-.038.013-.08.011-.118.025a2.618 2.618 0 0 0-.262.121c-.009 0-.013.02-.024.024-.046.013-.1.013-.142.025a.168.168 0 0 0-.047.024c-.009.006-.013.02-.024.024-.1.038-.208.06-.309.1-.072.027-.139.074-.213.1s-.175.028-.261.049c-.017 0-.032.019-.047.024-.055.019-.112.03-.167.049a.448.448 0 0 1-.047.025c-.087.02-.175.028-.262.049-.017 0-.03.019-.047.024-.038.013-.08.013-.118.025-.011 0-.014.017-.024.024a.138.138 0 0 1-.047.025c-.087.02-.175.03-.262.049-.024.006-.046.019-.071.025-.055.011-.112.011-.167.024-.009 0-.011.024-.022.025-.113.019-.288.024-.429.05-.035.006-.06.039-.094.049-.093.024-.192.027-.285.049-.065.016-.124.047-.191.061-.016 0-.03-.013-.047-.011a1.091 1.091 0 0 0-.189.025c-.1.019-.192.046-.285.072-.017 0-.03.022-.047.025a9.192 9.192 0 0 1-.523.05c-.009 0-.016-.013-.024-.011s-.03.022-.047.024-.024-.014-.036-.011-.022.017-.036.024a.365.365 0 0 1-.106.036c-.022 0-.039-.02-.06-.024s-.031.013-.047.013-.024-.013-.036-.011a1.751 1.751 0 0 0-.2.036.636.636 0 0 1-.071.025c-.238.024-.553.036-.714.054-.017 0-.03.019-.047.024a.991.991 0 0 1-.191.036c-.024 0-.046-.025-.071-.022a.24.24 0 0 0-.095.036c-.009 0-.013.024-.024.024-.071 0-.922.038-1.331.046-.206 0-.413 0-.619-.006-.016 0-.032-.014-.047-.013s-.046.025-.071.025-.03-.02-.047-.024-.016.009-.024.013a.38.38 0 0 1-.083.011 2.1 2.1 0 0 1-.3-.033c-.027 0-.046-.028-.071-.035-.009 0-.016.011-.024.013a5.328 5.328 0 0 1-.334.014 2.6 2.6 0 0 1-.332-.009c-.036 0-.06-.043-.1-.047-.154-.017-.534-.028-.69-.043-.017 0-.03-.019-.047-.022a.988.988 0 0 0-.178-.035c-.036 0-.073.017-.107.013a3.409 3.409 0 0 1-.358-.069c-.017 0-.03-.02-.047-.024-.063-.011-.128-.009-.191-.022-.017 0-.031-.019-.047-.024-.047-.011-.1-.011-.143-.022-.017 0-.03-.02-.047-.024-.151-.027-.3-.041-.454-.068-.017 0-.03-.019-.047-.024-.055-.011-.112-.011-.167-.022-.017 0-.03-.019-.047-.024-.095-.027-.192-.041-.285-.069-.011 0-.014-.02-.025-.024-.038-.013-.08-.013-.118-.022-.017 0-.031-.019-.047-.024-.071-.019-.145-.027-.216-.046-.016 0-.03-.019-.047-.024a.5.5 0 0 0-.083-.024h-.035c-.066-.027-.124-.069-.192-.093-.046-.016-.1-.011-.142-.024-.011 0-.014-.019-.025-.024-.054-.019-.112-.028-.165-.046-.017-.006-.032-.019-.049-.024-.038-.011-.08-.013-.118-.022a.2.2 0 0 1-.049-.024c-.009-.006-.014-.019-.024-.024-.061-.035-.126-.066-.191-.095s-.131-.039-.191-.069c-.021-.009-.027-.039-.049-.047-.044-.017-.1-.006-.142-.022-.022-.008-.03-.035-.049-.047s-.033-.014-.047-.024-.03-.035-.047-.047a.154.154 0 0 0-.049-.024c-.063-.017-.128-.025-.191-.046-.011 0-.014-.017-.024-.024s-.033-.014-.047-.024-.014-.019-.024-.024-.049-.013-.072-.024-.014-.019-.024-.024-.049-.013-.071-.024-.014-.017-.025-.024c-.093-.049-.194-.088-.285-.14-.021-.011-.028-.036-.049-.047s-.066-.008-.094-.022-.03-.035-.049-.047-.049-.02-.071-.036-.028-.035-.049-.046-.065-.02-.094-.036c-.009 0-.014-.017-.024-.024s-.035-.013-.049-.022-.028-.035-.047-.047c-.053-.039-.113-.068-.167-.107-.019-.013-.028-.036-.049-.047-.036-.02-.082-.024-.12-.046-.02-.014-.025-.046-.047-.06s-.08-.027-.12-.046c-.009 0-.014-.017-.024-.024a.438.438 0 0 1-.047-.024c-.028-.025-.043-.061-.073-.083s-.068-.016-.095-.035-.058-.069-.1-.095c-.02-.013-.052 0-.072-.011s0-.025 0-.036a.065.065 0 0 0-.024-.035c-.022-.016-.05-.02-.071-.035s-.03-.036-.049-.047-.05-.011-.071-.024a.262.262 0 0 1-.06-.058c-.006-.008 0-.02-.013-.024-.03-.017-.066-.02-.1-.036a.1.1 0 0 1-.035-.035c-.016-.022-.017-.052-.036-.071a1.284 1.284 0 0 0-.109-.071c-.006 0 0-.019-.011-.024a.61.61 0 0 0-.073-.035.267.267 0 0 1-.047-.036c-.014-.013-.022-.033-.036-.047s-.043-.028-.06-.047-.044-.058-.072-.082c-.013-.013-.033-.013-.047-.024a1.436 1.436 0 0 1-.156-.153c-.017-.02-.02-.05-.036-.071s-.036-.028-.047-.047-.02-.066-.036-.1c-.006-.009-.019-.013-.024-.024-.02-.038-.03-.08-.049-.118-.006-.009-.019-.013-.024-.024-.021-.038-.03-.08-.049-.118-.006-.009-.021-.013-.024-.024-.013-.03-.014-.065-.025-.095s-.036-.077-.049-.118a.872.872 0 0 1-.036-.18c0-.024.027-.046.022-.071a.872.872 0 0 0-.06-.131.252.252 0 0 1-.013-.083.8.8 0 0 0 .011-.106c0-.032-.036-.054-.036-.083 0-.046.031-.085.035-.131.014-.183.008-.365.02-.548 0-.032.017-.063.022-.095.011-.071 0-.145.022-.214a1.9 1.9 0 0 1 .093-.262c0-.011.02-.014.024-.025.013-.046.011-.1.024-.142a.89.89 0 0 1 .046-.143c0-.011.017-.014.024-.024a.2.2 0 0 0 .024-.049c.017-.054.027-.112.046-.165 0-.011.019-.016.025-.025.017-.03.027-.066.046-.095s.036-.028.047-.049c.03-.052.044-.112.071-.167 0-.009.017-.014.024-.024a.668.668 0 0 0 .046-.1c.009-.022.014-.047.024-.071a.547.547 0 0 1 .047-.1c.011-.017.035-.028.047-.047.027-.046.043-.1.069-.143.013-.019.035-.03.047-.047a.458.458 0 0 0 .024-.049c.006-.009.017-.014.024-.024.019-.03.03-.065.047-.095.006-.011.017-.016.024-.025s.013-.033.024-.047.033-.03.047-.047.006-.017.011-.025a.448.448 0 0 0 .047-.047c.016-.022.021-.049.035-.071s.036-.028.047-.049.009-.05.024-.071a.263.263 0 0 1 .058-.06c.019-.014.046-.017.06-.036s.011-.05.024-.071.033-.032.047-.049.013-.033.024-.047.033-.032.047-.049 0-.017.011-.024.033-.022.047-.036a.761.761 0 0 0 .105-.107c.016-.02.008-.052.024-.072.041-.054.1-.093.142-.143.016-.017.017-.044.035-.06s.05-.019.071-.036.028-.044.047-.06.049-.02.072-.036c.008 0 .013-.017.022-.024s.049-.022.072-.036a.131.131 0 0 0 .047-.036c.013-.02 0-.054.022-.071s.033 0 .049 0a.238.238 0 0 0 .071-.025c.016-.011.022-.033.035-.047a.694.694 0 0 1 .083-.083c.013-.013.033-.014.047-.025s.044-.05.071-.071.032-.014.047-.025.014-.017.022-.024c.039-.022.083-.035.12-.06s.06-.06.095-.083.049-.02.071-.036.011-.028.024-.036c.028-.02.065-.028.095-.049s.03-.035.047-.047.033-.013.047-.025c.035-.028.057-.071.094-.1s.065-.011.095-.024c.011 0 .014-.019.024-.024s.049-.013.071-.025.014-.019.024-.024c.05-.024.106-.035.154-.06a.624.624 0 0 0 .083-.06c.017-.016.027-.038.047-.049.036-.02.079-.03.118-.049.063-.03.123-.071.189-.1.038-.016.08-.013.118-.025.065-.02.128-.046.191-.072.033-.014.061-.035.094-.047a.294.294 0 0 1 .071-.025c.055-.011.112-.009.167-.025a.417.417 0 0 0 .094-.049c.009 0 .013-.02.024-.024.085-.022.175-.028.26-.049.019 0 .031-.02.049-.024a3.445 3.445 0 0 1 .38-.076c.129-.014.262-.013.392-.014a2.966 2.966 0 0 1 .392.009 1.634 1.634 0 0 1 .285.069c.017 0 .032.019.049.022.046.011.1.011.142.024.011 0 .014.019.024.024.032.011.065.013.1.022s.032.019.047.024c.055.017.113.027.167.047.011 0 .014.016.024.024a.455.455 0 0 1 .049.022c.025.022.044.052.071.071s.065.03.1.047c.009.006.014.017.024.024s.033.013.049.024.028.036.047.047.05.008.071.024a.761.761 0 0 1 .109.106c.006.006 0 .017.011.024s.035.022.049.035c.077.074.154.147.227.225.013.013.014.033.025.047s.033.03.047.047.014.033.024.047.017.014.025.024a.221.221 0 0 1 .024.047c.009.03.014.065.024.095l.013.013a.175.175 0 0 1 .047.035.5.5 0 0 1 .061.118c.013.038.011.08.024.12 0 .009.017.013.025.024a.221.221 0 0 1 .024.047c.011.03.013.065.024.095s.038.061.049.095.011.08.025.118.039.061.047.1c.017.069.014.142.027.213.008.052.03.1.036.154 0 .02-.011.039-.011.06s.014.055.013.083c0 .044-.02.087-.024.131 0 .024.014.047.013.071a1.093 1.093 0 0 1-.022.143.544.544 0 0 0-.024.071c0 .013.014.024.013.036a.281.281 0 0 1-.036.083c0 .009-.019.013-.024.024-.011.03-.011.065-.022.095a.683.683 0 0 1-.047.1c-.006.009-.019.014-.024.024-.035.071-.058.147-.093.216a.11.11 0 0 1-.036.035c-.022.016-.049.02-.071.036-.006.006-.006.017-.011.024-.03.035-.069.06-.095.1s-.03.087-.058.12-.05.02-.071.036a.241.241 0 0 0-.06.06c-.024.038-.035.082-.058.12-.013.019-.035.028-.047.047-.024.038-.033.083-.058.12s-.05.046-.071.072a.164.164 0 0 0-.024.047c-.009.032-.013.065-.022.095s-.036.079-.047.12a.3.3 0 0 0-.011.084.38.38 0 0 0 .013.083c0 .008.011.014.011.024s-.009.014-.011.024a.48.48 0 0 0-.011.095.327.327 0 0 0 .013.1c.011.033.035.061.047.095a.524.524 0 0 0 .025.071c.027.036.069.058.1.095a.376.376 0 0 1 .024.071.18.18 0 0 0 .036.06c.028.022.066.027.1.046s.028.036.047.047c.038.024.082.035.12.058.013.008.011.031.024.036.077.03.161.043.239.069.009 0 .014.017.024.024a.412.412 0 0 0 .094.047c.063.014.128.011.191.022s.128.028.191.046c.017 0 .03.02.047.024.055.013.114.009.167.022.011 0 .014.022.024.024.055.014.112.014.167.024.033 0 .063.019.1.022.1.011.206.009.309.022.017 0 .03.02.047.024a1.646 1.646 0 0 0 .263.033c.044 0 .085-.025.129-.025.069 0 .135.03.2.035.036 0 .071-.013.107-.013a.618.618 0 0 1 .107.011 1.088 1.088 0 0 0 .154.035c.033 0 .063-.022.095-.025a.156.156 0 0 1 .06.013 1 1 0 0 0 .1.035c.008 0 .014-.009.024-.013a.646.646 0 0 1 .142-.036c.033 0 .063.022.1.022.017 0 .028-.024.047-.024s.03.02.047.024.014-.011.024-.013c.055-.011.112-.014.165-.025.009 0 .016-.013.025-.011s.028.024.047.024.061-.024.094-.025a.514.514 0 0 1 .12.011c.008 0 .014.011.024.011s.014-.009.024-.011a2.1 2.1 0 0 1 .236-.05c.134-.016.271-.011.4-.027.025 0 .046-.02.071-.024.095-.014.191-.013.285-.027.06-.008.118-.03.178-.036.02 0 .039.014.06.011.072-.009.142-.038.214-.049.008 0 .014.011.024.011s.014-.009.024-.011c.055-.011.11-.014.165-.025.025 0 .047-.02.072-.025a1.444 1.444 0 0 1 .165-.025c.013 0 .024.014.036.013a1.467 1.467 0 0 0 .2-.038c.065-.016.124-.05.189-.06.017 0 .031.025.049.022s.028-.028.047-.035a.28.28 0 0 1 .094-.025c.11-.013.222-.009.332-.027a1.351 1.351 0 0 0 .154-.049h.024a.263.263 0 0 1 .047-.013c.017 0 .032.013.049.013l.011-.013a.167.167 0 0 1 .035-.024 1.854 1.854 0 0 1 .227-.061c.1-.022.206-.028.309-.05.017 0 .03-.019.047-.024.046-.013.095-.013.142-.025.017 0 .03-.019.047-.024.047-.013.1-.014.143-.025a1.532 1.532 0 0 0 .165-.049c.011 0 .013-.019.024-.024a1.376 1.376 0 0 1 .189-.072c.079-.024.159-.032.238-.05a.342.342 0 0 0 .071-.024c.033-.014.061-.038.095-.049.094-.03.192-.044.285-.072.041-.013.079-.035.118-.049.071-.027.143-.047.214-.072a.273.273 0 0 0 .047-.025c.009-.006.013-.02.024-.024.038-.013.08-.013.118-.025.011 0 .014-.019.024-.024.031-.013.065-.013.1-.025.009 0 .013-.019.024-.024.077-.028.158-.046.236-.072a.223.223 0 0 0 .047-.024c.009-.008.014-.02.024-.025.046-.019.1-.028.142-.047s.095-.052.143-.072.1-.03.142-.049a1.5 1.5 0 0 0 .142-.072c.011-.006.014-.019.024-.025.038-.019.08-.03.118-.047s.063-.035.1-.049.049-.013.071-.024.013-.02.024-.025c.03-.013.065-.011.095-.024.009 0 .014-.017.024-.024s.033-.014.047-.025.046-.05.071-.071a.194.194 0 0 1 .047-.025.93.93 0 0 0 .095-.024c.011 0 .014-.019.024-.024s.05-.011.071-.025.03-.035.047-.047.033-.014.049-.025.013-.019.024-.024.049-.011.071-.024.027-.036.047-.049c.06-.036.129-.057.189-.1.028-.019.044-.05.071-.072s.033-.014.047-.024.014-.017.024-.024.033-.014.047-.024.03-.035.047-.049.033-.013.047-.024a1.1 1.1 0 0 1 .095-.1c.058-.039.131-.055.189-.1s.073-.088.118-.12c.02-.014.052 0 .071-.013s0-.025 0-.036a.112.112 0 0 1 .024-.036c.006-.006.017-.006.024-.011.065-.063.124-.131.189-.192.006-.006.017-.006.024-.013s.022-.033.035-.047a.539.539 0 0 1 .06-.06c.014-.011.033-.014.047-.024s.028-.035.047-.049.033-.013.047-.024a.772.772 0 0 0 .118-.109c.022-.027.027-.066.047-.095.008-.013.027-.013.035-.025s.011-.049.024-.071a.87.87 0 0 1 .058-.072c.013-.014.022-.031.036-.047.03-.033.066-.061.095-.1.011-.013.013-.033.022-.047s.017-.014.024-.024.013-.035.024-.049c.044-.05.1-.091.142-.143.011-.013.013-.033.024-.047a.648.648 0 0 1 .047-.047c0-.008 0-.019.011-.025s.046-.027.06-.047.009-.05.024-.072.052-.043.071-.071c.028-.044.044-.1.069-.143.006-.009.017-.014.024-.024a.464.464 0 0 1 .024-.049c.013-.017.033-.03.047-.047a.133.133 0 0 0 .024-.047c.011-.047.013-.1.022-.143a.475.475 0 0 1 .024-.071c.014-.033.035-.063.047-.1s.011-.065.022-.095c0-.011.022-.014.024-.025.014-.079.009-.159.022-.238 0-.017.02-.03.024-.047a1.7 1.7 0 0 0 .033-.3 2.1 2.1 0 0 0-.038-.343c0-.019-.022-.03-.024-.049-.014-.093-.014-.189-.027-.285a.513.513 0 0 0-.033-.123c0-.011-.019-.013-.024-.024-.036-.077-.061-.159-.1-.236a1.363 1.363 0 0 0-.072-.143c-.006-.009-.02-.013-.024-.024-.022-.054-.03-.112-.049-.165a.415.415 0 0 0-.049-.095c-.021-.027-.057-.041-.072-.071a.718.718 0 0 1-.024-.12c0-.009-.019-.014-.025-.024s-.011-.033-.024-.047-.06-.043-.083-.071-.02-.049-.036-.071-.052-.043-.072-.071-.028-.065-.047-.095-.035-.028-.049-.047a.417.417 0 0 1-.024-.047c-.006-.009-.019-.014-.024-.024s-.021-.05-.036-.071-.043-.028-.06-.047-.022-.041-.036-.058-.036-.02-.049-.036a.272.272 0 0 1-.036-.071c-.006-.022 0-.05-.011-.071s-.025 0-.036 0a.07.07 0 0 1-.036-.024c-.019-.025-.025-.06-.047-.082s-.052-.019-.072-.036a.123.123 0 0 1-.036-.047c-.011-.022-.009-.05-.024-.071a.933.933 0 0 0-.132-.142c-.031-.028-.077-.039-.107-.069s-.027-.068-.049-.1a.851.851 0 0 0-.107-.106c-.008-.006-.017 0-.024-.011s-.022-.033-.036-.047c-.11-.112-.228-.217-.336-.331-.016-.017-.02-.043-.036-.06s-.033-.013-.047-.022a.158.158 0 0 1-.036-.036c-.014-.019-.02-.043-.036-.06-.033-.032-.076-.05-.109-.082-.013-.013-.013-.033-.024-.047s-.041-.03-.06-.047-.022-.033-.036-.047a.517.517 0 0 0-.06-.058c-.006-.006-.017-.006-.024-.013s-.022-.033-.036-.047c-.046-.049-.1-.091-.143-.142a.438.438 0 0 1-.024-.047.151.151 0 0 0-.036-.035c-.022-.013-.049-.013-.072-.024s-.014-.017-.024-.024-.033-.013-.047-.024a.3.3 0 0 1-.06-.058c-.011-.014-.014-.033-.024-.047a.2.2 0 0 0-.036-.036c-.014-.009-.033-.013-.049-.022s-.03-.033-.047-.047-.017-.006-.024-.013-.022-.033-.036-.047a.752.752 0 0 0-.107-.106c-.021-.016-.05-.011-.073-.024a.132.132 0 0 1-.036-.036c-.014-.017-.019-.043-.036-.058s-.033-.013-.047-.024a1.122 1.122 0 0 1-.107-.106c-.014-.016-.022-.035-.036-.047s-.033-.014-.049-.024c-.033-.025-.06-.058-.095-.083s-.052-.017-.072-.035-.011-.035-.024-.047a.326.326 0 0 0-.073-.058c-.022-.016-.05-.019-.071-.036s-.046-.058-.072-.082-.033-.014-.047-.024-.014-.017-.024-.024a1.158 1.158 0 0 1-.107-.058c-.019-.014-.021-.043-.036-.06s-.035-.013-.049-.024-.044-.05-.071-.071c-.043-.03-.093-.049-.132-.082-.017-.014-.017-.044-.036-.058a.53.53 0 0 0-.095-.047c-.009-.006-.016-.017-.025-.024s-.033-.013-.047-.024c-.043-.036-.076-.084-.12-.118s-.077-.032-.107-.058-.017-.052-.036-.071-.049-.02-.072-.035a.153.153 0 0 1-.035-.036c-.014-.019-.019-.044-.036-.058s-.05-.009-.072-.024-.046-.05-.071-.071a.453.453 0 0 0-.049-.024c-.009-.006-.014-.017-.024-.024s-.033-.013-.047-.024-.03-.035-.047-.047-.05-.02-.072-.035-.014-.017-.024-.024a1.333 1.333 0 0 1-.132-.071c-.013-.009-.013-.033-.024-.047a.235.235 0 0 0-.06-.058c-.021-.014-.05-.009-.071-.024-.036-.025-.06-.068-.1-.095s-.066-.027-.1-.046-.03-.035-.047-.049-.017 0-.024-.011-.028-.036-.049-.047-.065-.02-.095-.035l-.013-.013a.348.348 0 0 0-.036-.047c-.028-.02-.066-.027-.095-.046s-.03-.035-.049-.047-.05-.02-.071-.036-.044-.052-.072-.071-.05-.008-.071-.022c-.038-.027-.06-.069-.1-.095a.354.354 0 0 0-.072-.024l-.011-.011c-.009-.016-.014-.033-.024-.047a.157.157 0 0 0-.036-.036c-.046-.027-.1-.044-.143-.069-.009-.006-.014-.017-.024-.024s-.035-.014-.049-.024-.03-.035-.047-.047-.035-.013-.049-.024c-.05-.044-.09-.1-.143-.142-.019-.016-.047-.014-.071-.024a.841.841 0 0 1-.12-.058c-.019-.013-.028-.036-.047-.047s-.066-.02-.1-.035c-.009 0-.014-.017-.024-.024-.03-.017-.066-.027-.1-.047s-.028-.035-.047-.047a.611.611 0 0 0-.071-.022.188.188 0 0 1-.049-.036c-.017-.017-.025-.046-.047-.058s-.065-.011-.1-.024c-.009 0-.014-.017-.024-.024s-.033-.014-.047-.024-.016-.017-.025-.024-.033-.013-.047-.024-.027-.036-.047-.047a.653.653 0 0 0-.1-.022l-.011-.013c-.014-.019-.017-.046-.036-.058a.858.858 0 0 0-.12-.047.873.873 0 0 1-.131-.082c-.016-.013-.019-.038-.036-.047-.036-.019-.082-.016-.12-.035-.021-.009-.03-.035-.047-.047a.469.469 0 0 0-.049-.024c-.009-.006-.014-.017-.024-.024s-.033-.014-.047-.024-.014-.017-.024-.024c-.032-.017-.065-.028-.1-.047-.009 0-.014-.017-.024-.022a1.207 1.207 0 0 0-.143-.071c-.024-.011-.05-.009-.071-.024s-.044-.052-.072-.071-.05-.009-.071-.022-.028-.038-.049-.047c-.038-.022-.08-.028-.12-.047-.009 0-.014-.019-.024-.024-.038-.022-.082-.035-.12-.058-.019-.013-.027-.036-.047-.047-.061-.033-.129-.052-.191-.082-.011 0-.014-.019-.024-.024-.047-.027-.1-.044-.143-.071-.009 0-.014-.019-.024-.024-.032-.011-.065-.013-.1-.022a.221.221 0 0 1-.047-.024c-.009-.006-.014-.019-.024-.024a1.546 1.546 0 0 1-.192-.069c-.047-.03-.071-.088-.12-.118a.881.881 0 0 0-.142-.047.541.541 0 0 1-.1-.047c-.009 0-.014-.017-.024-.024a.212.212 0 0 0-.047-.022c-.032-.011-.066-.011-.1-.024-.011 0-.014-.019-.024-.024s-.049-.013-.072-.024-.014-.017-.024-.024-.033-.013-.047-.024-.014-.017-.024-.024a.766.766 0 0 0-.1-.046c-.024-.009-.049-.013-.071-.024s-.016-.017-.025-.024-.033-.014-.047-.024-.014-.019-.024-.024c-.031-.013-.065-.011-.1-.024-.01 0-.013-.017-.024-.022-.046-.027-.1-.043-.143-.071-.019-.011-.028-.036-.047-.047s-.066-.019-.1-.035-.044-.044-.071-.058c-.093-.052-.192-.091-.287-.142-.009 0-.014-.017-.024-.024-.055-.027-.115-.041-.167-.069-.021-.011-.03-.035-.049-.047a.135.135 0 0 0-.047-.024.921.921 0 0 1-.095-.024.338.338 0 0 1-.1-.046c-.028-.02-.044-.054-.072-.071-.068-.043-.145-.065-.214-.106-.013-.008-.013-.028-.024-.036s-.05-.009-.073-.022c-.052-.035-.093-.082-.143-.118-.014-.011-.033-.014-.047-.024s-.016-.017-.024-.024a1.423 1.423 0 0 1-.132-.082c-.017-.016-.019-.044-.036-.06s-.033-.011-.047-.024c-.035-.028-.06-.066-.1-.095s-.076-.032-.107-.058-.02-.043-.036-.058-.035-.013-.047-.024c-.043-.036-.076-.085-.12-.118-.021-.016-.049-.014-.072-.024l-.011-.011a.332.332 0 0 0-.025-.047.133.133 0 0 0-.036-.036c-.022-.014-.05-.019-.071-.035s-.022-.033-.036-.047a.7.7 0 0 0-.084-.083c-.022-.016-.049-.02-.072-.035s-.014-.016-.024-.024-.033-.022-.047-.035a1.181 1.181 0 0 1-.109-.107c-.011-.013-.013-.033-.024-.047s-.052-.043-.071-.071-.027-.066-.049-.095c-.035-.044-.083-.076-.12-.118-.016-.017-.02-.043-.036-.058s-.044-.019-.06-.036-.014-.033-.024-.047a.256.256 0 0 0-.036-.035c-.019-.014-.046-.017-.06-.036a.663.663 0 0 1-.049-.095.127.127 0 0 0-.036-.035c-.014-.011-.033-.014-.047-.024a.151.151 0 0 1-.036-.035c-.006-.011 0-.025-.011-.036a.643.643 0 0 0-.061-.083c-.021-.025-.054-.041-.071-.071s-.025-.082-.049-.118c-.014-.02-.043-.028-.06-.047a.1.1 0 0 1-.024-.035c-.016-.035-.022-.072-.036-.107l-.013-.011a.114.114 0 0 1-.024-.013.534.534 0 0 1-.036-.047c-.014-.017-.035-.028-.047-.047s-.03-.065-.049-.095a.623.623 0 0 0-.06-.083c-.006-.006-.019 0-.024-.011-.017-.03-.022-.065-.036-.095-.006-.009-.019-.014-.025-.024-.017-.03-.03-.065-.047-.095-.006-.009-.019-.014-.025-.024a.188.188 0 0 1-.024-.047c-.011-.039-.011-.08-.024-.12 0-.009-.019-.014-.025-.024s-.014-.032-.024-.047-.017-.014-.024-.024a.455.455 0 0 1-.024-.047c-.008-.009-.019-.014-.025-.024s-.011-.049-.024-.071-.036-.028-.049-.047a1.084 1.084 0 0 1-.072-.142c-.009-.024-.014-.049-.024-.071a.672.672 0 0 0-.049-.095c0-.009-.019-.014-.024-.024-.013-.032-.014-.065-.024-.1-.006-.016-.019-.03-.025-.047s-.013-.065-.024-.095-.036-.061-.049-.095-.014-.065-.024-.095a.172.172 0 0 0-.025-.047c-.006-.009-.02-.014-.024-.024-.017-.05-.017-.106-.036-.154-.009-.024-.036-.038-.049-.06a.791.791 0 0 1-.06-.142c-.014-.046-.013-.1-.025-.143s-.035-.077-.049-.118a2.419 2.419 0 0 1-.073-.236c-.014-.055-.011-.113-.025-.167 0-.011-.021-.013-.024-.024-.03-.093-.044-.191-.074-.285 0-.009-.022-.013-.024-.024-.019-.106-.03-.269-.052-.4 0-.025-.019-.047-.024-.071-.013-.063-.013-.128-.025-.191 0-.017-.019-.03-.024-.047a.4.4 0 0 1-.025-.095c-.022-.206-.028-.413-.052-.618 0-.025-.022-.047-.025-.072a73.603 73.603 0 0 1-.055-1.07c0-.016.013-.032.011-.047s-.025-.054-.024-.082a.77.77 0 0 1 .035-.18.263.263 0 0 1 .024-.047.343.343 0 0 0 .022-.1c0-.131-.014-.262-.014-.392s0-.261.008-.392c0-.032.02-.063.024-.095.011-.12.006-.239.02-.358 0-.033.033-.061.036-.095s-.027-.047-.025-.071a.66.66 0 0 1 .035-.143 1.111 1.111 0 0 0 .047-.12.656.656 0 0 0-.013-.095.4.4 0 0 1 .011-.1c0-.024.019-.046.022-.071.013-.079.009-.159.022-.238 0-.017.019-.032.024-.047.019-.055.028-.112.047-.167 0-.017.017-.032.022-.049.019-.061.028-.128.047-.191a.149.149 0 0 1 .024-.047c.006-.009.017-.014.024-.024s.013-.033.022-.047.021-.014.024-.025c.021-.069.028-.143.047-.214a1.14 1.14 0 0 1 .046-.142.551.551 0 0 1 .047-.1c0-.009.019-.014.024-.024.011-.031.011-.065.022-.1 0-.009.02-.013.024-.024a.936.936 0 0 0 .024-.1c.013-.039.035-.077.047-.118.017-.063.027-.128.046-.191a.17.17 0 0 1 .024-.047c.006-.011.019-.014.024-.025s.013-.049.022-.071.021-.014.024-.024c.02-.046.028-.1.047-.143 0-.011.019-.014.024-.024.019-.038.028-.082.046-.12.006-.009.017-.014.024-.024a.168.168 0 0 0 .024-.047c.011-.032.013-.066.024-.1.02-.057.044-.113.069-.167.006-.009.019-.014.024-.024.019-.038.028-.082.047-.12 0-.009.019-.014.024-.024a2.326 2.326 0 0 0 .093-.214c.013-.032.009-.066.024-.1s.036-.028.047-.047a.852.852 0 0 0 .069-.143c.013-.032.011-.065.024-.1a1.347 1.347 0 0 1 .071-.143c0-.009.017-.014.024-.024a.268.268 0 0 0 .024-.047c.009-.032.013-.065.022-.1a.427.427 0 0 0 .024-.047.6.6 0 0 1 .024-.095c.009-.02.033-.03.047-.049a.265.265 0 0 0 .024-.047c.009-.032.013-.065.022-.1a.259.259 0 0 1 .024-.047c.006-.009.017-.014.024-.024s.013-.033.024-.047.038-.028.047-.049.011-.065.022-.095c0-.011.019-.016.024-.025.019-.03.028-.065.047-.095s.038-.028.047-.049.009-.065.024-.095.033-.03.047-.047.013-.035.022-.049.036-.028.047-.047a.452.452 0 0 0 .047-.1c.009-.024.013-.049.024-.071s.019-.014.024-.024c.027-.063.043-.129.069-.192 0-.009.017-.014.024-.024s.014-.033.024-.047.019-.014.024-.024a1.428 1.428 0 0 1 .071-.167c.024-.038.066-.061.093-.1a.121.121 0 0 0 .024-.047c.011-.039.011-.08.024-.12 0-.011.019-.014.024-.024a.567.567 0 0 1 .024-.072c.017-.028.055-.041.071-.071s0-.083.022-.12.077-.076.106-.12a.671.671 0 0 0 .035-.095c.006-.011.019-.014.024-.025s.014-.033.024-.047.036-.028.047-.047.027-.066.047-.1.052-.044.071-.072.013-.049.024-.071.019-.014.024-.024.013-.049.022-.071.017-.016.024-.025.013-.033.024-.047a1 1 0 0 0 .071-.072c.033-.047.049-.106.082-.154.011-.017.038-.019.047-.036a.617.617 0 0 0 .035-.12l.013-.011a.363.363 0 0 0 .058-.036c.013-.013.014-.033.024-.049s.017-.014.024-.024.013-.033.024-.047c.028-.035.069-.058.095-.1s.024-.083.047-.12.066-.06.094-.095.035-.074.058-.109c0-.006.017 0 .024-.011a.368.368 0 0 0 .058-.072 1.22 1.22 0 0 0 .071-.143c.009-.022.013-.049.024-.071l.011-.013a.29.29 0 0 0 .06-.036c.017-.019.019-.05.035-.071s.027-.014.035-.024.02-.043.036-.06.035-.02.047-.036.019-.05.035-.072.058-.06.082-.095.022-.049.036-.072a.438.438 0 0 1 .058-.083c.016-.016.043-.02.06-.036s.013-.033.024-.047a.126.126 0 0 1 .035-.036c.014-.011.033-.014.047-.024a.156.156 0 0 0 .036-.036c.011-.022.008-.052.022-.072.033-.044.08-.077.118-.12a.329.329 0 0 0 .035-.047c.013-.016.024-.033.036-.047s.05-.046.071-.072.049-.091.082-.131c.016-.019.043-.02.06-.036s.013-.035.022-.049.035-.03.049-.047.013-.033.022-.047.035-.03.047-.049.014-.033.024-.047a.132.132 0 0 1 .036-.036c.014-.009.033-.014.047-.024a.188.188 0 0 0 .035-.036c.011-.014.014-.033.024-.047a.132.132 0 0 1 .036-.036c.021-.016.052-.017.071-.036s.021-.049.035-.072a.1.1 0 0 1 .035-.035.565.565 0 0 1 .072-.025l.011-.011a.934.934 0 0 1 .082-.132c.019-.019.05-.02.071-.036s.006-.017.013-.024c.038-.041.082-.077.118-.12.011-.014.013-.035.022-.047a.307.307 0 0 1 .06-.06c.014-.011.033-.013.047-.025.035-.028.06-.066.095-.1.017-.014.044-.017.06-.035s.016-.054.035-.072.049-.022.071-.036.014-.017.024-.024.033-.013.047-.024c.035-.03.058-.071.094-.1.021-.016.049-.013.071-.025a.34.34 0 0 0 .083-.06c.016-.016.017-.044.035-.06s.066-.036.095-.06.027-.046.047-.06c.036-.027.082-.036.118-.06.008 0 .006-.017.011-.024a.774.774 0 0 1 .107-.109c.02-.014.05-.009.071-.024.06-.043.107-.1.165-.145.014-.011.033-.013.047-.024s.03-.035.047-.047.033-.014.047-.025.014-.017.024-.024.033-.013.047-.024.028-.036.047-.049c.046-.028.1-.046.142-.072.011 0 .014-.017.024-.024a.912.912 0 0 1 .095-.049.562.562 0 0 0 .073-.024c.019-.011.028-.036.046-.047s.068-.027.1-.049.025-.046.047-.06.082-.025.118-.049c.02-.014.025-.046.047-.06a.975.975 0 0 1 .118-.047c.009-.006.014-.019.024-.025s.033-.014.047-.024.014-.017.024-.024.033-.014.047-.025.014-.019.024-.024c.03-.013.065-.014.094-.024a1.123 1.123 0 0 1 .12-.049c.016 0 .032.016.047.011s-.006-.019 0-.024a.5.5 0 0 1 .071-.036c.009-.006.014-.017.024-.024s.033-.014.047-.024.013-.02.024-.025c.038-.013.08-.011.118-.024.011 0 .014-.017.024-.025a.433.433 0 0 0 .047-.024c.009-.006.014-.017.024-.024a.133.133 0 0 1 .047-.024c.05-.013.1-.013.154-.025.014 0 .022-.019.036-.024s.049-.014.071-.025.014-.017.024-.024c.03-.019.065-.03.095-.049.009-.006.013-.019.024-.024.054-.02.112-.028.165-.049.035-.013.063-.035.1-.049a.468.468 0 0 1 .071-.024c.047-.011.094-.014.142-.025.065-.014.128-.028.191-.049.041-.013.077-.035.118-.049s.065-.014.095-.024.03-.02.047-.025c.1-.02.208-.025.309-.049.035-.009.061-.036.095-.049a.657.657 0 0 1 .1-.025c.079-.011.159-.013.238-.025.047-.008.093-.032.142-.036.031 0 .063.013.094.011a.346.346 0 0 0 .1-.025c.016 0 .03-.02.047-.024.069-.013.143-.014.213-.025.033-.006.063-.022.1-.025a6.388 6.388 0 0 1 .784-.005c.013 0 .024.013.036.011s.038-.024.058-.024.047.022.072.022.069-.024.106-.024.055.02.083.022.032-.011.047-.011.016.013.025.011c.028 0 .054-.022.082-.024a.131.131 0 0 1 .06.011.848.848 0 0 0 .12.046c.093.016.191.009.285.022.017 0 .03.02.047.024.094.019.192.025.287.046a2.129 2.129 0 0 1 .262.069c.011 0 .014.019.024.024.031.011.065.013.1.022a.443.443 0 0 0 .047.024c.032.011.065.011.095.024a.276.276 0 0 1 .049.035.206.206 0 0 0 .047.036c.071.024.146.027.214.057.024.011.027.047.049.06.052.032.113.041.167.069.019.011.03.033.047.047s.017.006.024.013.027.046.049.058.065.013.095.024a.142.142 0 0 1 .049.024c.025.02.046.049.071.071.008 0 .017.006.025.011a.437.437 0 0 1 .047.047.546.546 0 0 0 .036.047 1.677 1.677 0 0 0 .131.129c.014.013.035.013.049.024a1.154 1.154 0 0 1 .107.107c.013.013.014.033.024.047s.036.028.049.047a1.16 1.16 0 0 0 .06.106c.014.019.047.017.06.036.025.035.027.08.049.118.011.019.035.03.047.047s.014.033.025.047.035.028.047.047c.028.044.046.1.072.142.006.009.019.014.024.024a1.09 1.09 0 0 1 .049.118c.011.032.013.065.024.1a1.2 1.2 0 0 0 .072.142c.006.009.019.014.025.024a.166.166 0 0 1 .024.047c.011.046.011.1.025.142 0 .011.019.014.024.024s.014.049.024.072a.542.542 0 0 1 .049.095c.027.124.028.254.05.38a1.271 1.271 0 0 0 .049.189c0 .011.024.013.024.024.009.09.019.386.028.476 0 .011.024.013.024.024a8.052 8.052 0 0 1 .008.904c0 .013-.014.024-.013.035s.021.039.024.06-.009.016-.011.024c-.009.087-.011.175-.022.262 0 .033-.02.063-.022.1-.013.165-.008.332-.02.5 0 .017-.021.03-.024.047-.013.071-.011.143-.022.214s-.027.159-.046.238c0 .017-.019.032-.024.049-.027.095-.05.189-.069.285s-.025.191-.044.285c0 .019-.019.032-.024.049a4.05 4.05 0 0 0-.071.238c-.016.063-.028.128-.046.191a1.04 1.04 0 0 1-.058.18c-.008.017-.039.017-.047.035s0 .057 0 .083a1.2 1.2 0 0 1-.035.18c0 .009-.017.014-.024.024s-.014.033-.024.047-.019.014-.024.024c-.019.055-.028.112-.046.167-.006.017-.017.032-.024.047-.025.071-.044.145-.069.216a.45.45 0 0 0-.024.047c-.019.055-.025.113-.047.167s-.066.124-.093.191c-.013.03-.011.065-.024.1 0 .009-.017.014-.024.024-.017.03-.028.065-.046.095-.006.009-.017.016-.024.025a.168.168 0 0 0-.024.047c-.011.032-.011.065-.024.095 0 .011-.019.014-.024.025-.027.061-.043.128-.069.191 0 .009-.019.014-.024.024s-.013.049-.024.071-.019.014-.024.025-.013.049-.024.071-.017.014-.024.024-.013.033-.022.047-.021.014-.024.025a.923.923 0 0 0-.024.095.166.166 0 0 1-.024.047 1.1 1.1 0 0 0-.082.109c-.019.033-.016.074-.035.107s-.05.046-.071.071a.465.465 0 0 0-.024.049c-.006.009-.019.014-.024.024-.022.046-.033.1-.058.143s-.06.06-.082.1a1.036 1.036 0 0 0-.047.095c-.006.009-.017.014-.024.024-.019.032-.028.066-.047.1-.006.009-.019.014-.024.024a.562.562 0 0 1-.024.072c-.017.028-.05.044-.071.071a.447.447 0 0 0-.046.1.381.381 0 0 1-.024.071c-.025.038-.069.058-.095.1a.784.784 0 0 0-.047.12l-.011.011c-.008.006-.017.006-.024.013s-.022.033-.036.047c-.03.033-.065.061-.093.1-.013.014-.014.033-.024.047s-.019.016-.024.025 0 .025-.013.035-.033.039-.047.06-.027.058-.046.085c-.006.006-.017 0-.024.011a.377.377 0 0 0-.06.072c-.013.022-.006.052-.022.071-.073.087-.164.154-.236.239-.024.027-.027.066-.047.1a.35.35 0 0 1-.058.06c-.019.014-.044.019-.06.036s-.013.033-.024.047-.05.046-.071.072-.013.033-.024.047-.017.014-.024.024-.013.049-.022.072l-.013.011c-.022.011-.049.013-.071.025a.151.151 0 0 0-.036.035c-.009.016-.013.035-.022.049a.36.36 0 0 1-.06.06c-.017.014-.043.019-.058.036s-.013.033-.024.047a.6.6 0 0 1-.084.083c-.006.006-.017.006-.024.013s-.022.033-.035.047a.436.436 0 0 1-.06.06c-.017.014-.043.02-.058.036s-.013.033-.024.049a.178.178 0 0 1-.035.035c-.014.011-.035.013-.047.025-.028.024-.044.06-.071.083s-.049.02-.071.036a.877.877 0 0 0-.071.06.375.375 0 0 0-.047.036c-.049.046-.091.1-.142.143-.014.013-.033.014-.047.024s-.028.038-.047.049a.661.661 0 0 1-.1.024l-.011.013c-.009.016-.014.033-.024.047s-.019.032-.036.036c-.076.024-.159.027-.236.049-.035.011-.06.039-.094.049-.061.016-.129.011-.191.025-.025.006-.046.032-.071.036s-.032-.011-.047-.011c-.083 0-.167.013-.251.014a2.191 2.191 0 0 1-.249-.011.634.634 0 0 1-.072-.022c-.047-.011-.1-.011-.142-.024a.726.726 0 0 1-.12-.046c-.009-.006-.014-.019-.024-.024s-.049-.013-.072-.024-.014-.019-.024-.024-.049-.013-.071-.024a.674.674 0 0 1-.143-.071 1.75 1.75 0 0 1-.145-.142c-.006 0-.017 0-.024-.011a1.116 1.116 0 0 1-.12-.153c-.019-.033-.021-.074-.036-.107 0-.011-.019-.014-.024-.024a.962.962 0 0 1-.072-.165 1.763 1.763 0 0 1-.05-.238c0-.009.013-.016.013-.024s-.013-.031-.013-.047.014-.024.011-.036c0-.03-.03-.054-.036-.083a3.15 3.15 0 0 1-.038-.343.4.4 0 0 1 .011-.107c.011-.049.041-.093.047-.143.016-.142.008-.287.021-.428s.027-.3.044-.4c0-.011.017-.014.024-.024s.013-.033.024-.047.019-.014.024-.025c.019-.046.027-.1.046-.142 0-.011.017-.014.024-.025.017-.03.028-.065.047-.095.006-.009.017-.014.024-.024a.2.2 0 0 0 .024-.049c.011-.038.011-.08.022-.118a.139.139 0 0 1 .024-.049c.021-.025.055-.041.071-.071a1.55 1.55 0 0 0 .046-.167c0-.011.019-.014.024-.024a.515.515 0 0 1 .036-.072c.016-.019.047-.025.058-.047a.73.73 0 0 0 .024-.12c0-.011.017-.014.024-.024.014-.03.017-.066.035-.1s.038-.027.047-.047c.017-.036.019-.08.035-.12 0-.009.017-.013.024-.024.025-.046.044-.1.069-.143.006-.009.021-.013.024-.024.013-.03.009-.066.024-.095s.035-.03.047-.049.028-.065.047-.095c0-.009.021-.014.024-.025.013-.046.008-.1.022-.142a.319.319 0 0 1 .047-.1c.011-.019.038-.028.047-.047.022-.046.027-.1.046-.143 0-.011.017-.014.024-.024.019-.031.028-.066.047-.1.006-.009.019-.014.024-.024.014-.03.02-.065.035-.1s.036-.08.058-.12c.006-.009.017-.014.024-.024a.529.529 0 0 0 .047-.095c.006-.016 0-.033.011-.049a.72.72 0 0 0 .047-.083c.025-.074.033-.151.058-.225 0-.011.019-.014.024-.025a1.162 1.162 0 0 0 .046-.165c.013-.063.009-.129.022-.191 0-.011.017-.014.024-.024a.128.128 0 0 0 .024-.049 2.23 2.23 0 0 0 .009-.273 2.668 2.668 0 0 0-.014-.274.725.725 0 0 0-.025-.142.9.9 0 0 0-.047-.143c0-.009-.02-.013-.025-.024a.645.645 0 0 0-.024-.095c-.017-.03-.05-.046-.073-.071 0-.006-.006-.017-.011-.024a.278.278 0 0 0-.049-.047.648.648 0 0 0-.12-.058c-.054-.02-.112-.028-.167-.047-.016 0-.03-.019-.047-.022-.063-.013-.128-.013-.191-.022-.008 0-.014-.013-.024-.013s-.014.011-.024.013c-.071.011-.143.013-.214.025a1.585 1.585 0 0 0-.189.049c-.011 0-.013.022-.024.024-.1.022-.206.032-.309.05a.493.493 0 0 0-.095.025c-.011 0-.014.017-.024.024s-.033.014-.047.024-.014.017-.024.024a.735.735 0 0 0-.071.036c-.008 0-.006.017-.013.024s-.033.03-.047.049-.021.041-.035.06-.017 0-.024.011-.022.033-.036.049a.423.423 0 0 1-.058.06c-.017.014-.042.019-.06.036s-.013.033-.022.047a.842.842 0 0 1-.084.083c-.006.006-.017.006-.024.013s-.022.033-.035.047a.36.36 0 0 1-.06.06c-.021.016-.05.02-.071.036a.152.152 0 0 0-.035.049c-.009.014-.014.033-.024.047a.158.158 0 0 1-.036.036c-.014.009-.033.013-.047.024s-.03.033-.047.049-.017.006-.024.011-.032.032-.047.049-.022.032-.035.047-.033.03-.047.047-.019.044-.035.06c-.039.041-.091.068-.131.109-.013.013-.014.033-.024.047s-.017.014-.024.024a1.022 1.022 0 0 1-.058.109c-.011.013-.033.013-.047.024a.127.127 0 0 0-.035.036c-.014.019-.019.044-.036.06s-.05.019-.071.036a.131.131 0 0 0-.035.047.45.45 0 0 1-.024.047c-.028.035-.066.061-.095.1-.016.017-.019.044-.035.06s-.044.019-.06.036-.013.033-.024.047-.033.032-.047.049 0 .017-.011.024c-.027.025-.058.044-.083.071-.008.009 0 .025-.011.036a.645.645 0 0 1-.058.083c-.035.043-.076.077-.107.12-.016.022-.019.052-.035.072a.611.611 0 0 1-.06.047.43.43 0 0 0-.058.072.6.6 0 0 0-.024.071l-.011.013c-.024.013-.049.022-.071.036a.067.067 0 0 0-.024.024c-.022.038-.036.08-.058.12-.006.009-.017.014-.024.024s-.014.033-.024.047-.035.03-.047.049-.033.076-.058.107c-.013.014-.035.014-.049.024a.154.154 0 0 0-.035.036c-.016.03-.017.066-.035.1s-.033.022-.047.035a.431.431 0 0 0-.06.06c-.019.03-.025.068-.046.1s-.068.06-.095.1-.028.066-.047.1-.033.03-.047.047-.014.033-.024.047-.019.014-.024.024-.009.05-.022.072-.035.03-.049.047 0 .017-.011.024-.046.027-.058.049-.006.068-.024.095c-.03.047-.085.074-.118.12-.019.028-.016.068-.035.1s-.046.027-.06.047c-.022.036-.027.082-.046.12 0 .009-.017.014-.024.024s-.02.05-.036.072-.033.03-.046.047a.31.31 0 0 0-.036.072c-.011.03-.011.065-.022.095 0 .011-.017.014-.024.024s-.013.035-.024.049-.053.043-.071.071a.392.392 0 0 0-.024.072.763.763 0 0 1-.047.095c0 .009-.017.014-.024.025-.033.069-.058.143-.093.214 0 .009-.019.014-.024.024s-.009.05-.024.071-.036.028-.047.049a.687.687 0 0 0-.022.095.282.282 0 0 1-.024.049c-.006.009-.019.013-.024.024-.031.074-.049.153-.082.227-.011.025-.035.046-.047.071-.03.066-.058.134-.082.2-.011.038-.008.08-.022.118s-.049.095-.071.143c-.009.024-.011.049-.022.072s-.02.013-.024.024c-.013.038-.009.082-.024.12-.025.066-.072.123-.093.191-.027.085-.027.175-.046.262 0 .017-.019.032-.024.047-.019.063-.028.129-.046.191 0 .017-.019.032-.024.049a.626.626 0 0 0-.024.095c-.009.055-.011.112-.022.167s-.036.11-.046.167-.009.143-.024.214c0 .011-.022.013-.024.024-.013.095-.009.191-.021.285-.008.061-.032.118-.035.18 0 .024.024.046.024.071s-.022.038-.022.06.02.03.024.047-.011.014-.011.024a1.933 1.933 0 0 0-.011.214 1.992 1.992 0 0 0 .014.214c0 .008.013.014.011.024s-.021.038-.022.058.009.024.011.036c.013.126.013.254.027.38.011.1.03.208.05.309.013.065.038.126.049.191.022.118.027.238.05.356 0 .011.017.014.024.024.019.03.028.066.049.095s.038.027.047.047.009.066.025.095.035.03.047.047.03.065.049.095c.006.009.017.014.024.024s.014.033.024.047.017.014.025.024a.439.439 0 0 0 .024.047c.014.019.036.028.047.049.033.052.049.115.085.165.02.03.058.043.084.071.013.013.014.033.024.047s.035.03.049.047 0 .017.011.024.047.025.061.047.009.065.024.095a.1.1 0 0 0 .036.035c.014.011.033.014.047.024a.132.132 0 0 1 .036.036c.014.022.021.049.036.071 0 .006.017 0 .024.011a.466.466 0 0 1 .083.083c.016.02.009.05.025.071a.524.524 0 0 0 .083.071c.016.013.033.022.047.035a.817.817 0 0 1 .083.082c.013.014.014.035.025.049a1.136 1.136 0 0 0 .107.106c.017.014.044.019.06.035s.02.044.036.06.033.013.047.024a.126.126 0 0 1 .036.035c.011.014.013.035.025.047a2.711 2.711 0 0 0 .2.2c.013.011.035.011.047.022s.03.043.049.06.033.022.047.035a.723.723 0 0 1 .06.06c.006.006.006.017.013.024.025.025.058.043.083.071.011.013.013.033.024.047a.233.233 0 0 0 .06.058c.022.014.05.009.072.024a.3.3 0 0 1 .06.058c0 .008 0 .017.011.024a.525.525 0 0 0 .073.06c.042.028.09.052.131.082.008 0 0 .019.013.024s.052.008.071.024 0 .024 0 .035a.109.109 0 0 0 .024.049.109.109 0 0 0 .047.022c.032.011.065.014.1.024l.011.011a.332.332 0 0 0 .025.047 1 1 0 0 0 .071.071c.006.008.006.019.013.025s.033.022.047.035.03.035.049.047c.044.028.1.041.143.071.02.013.03.041.047.058a.437.437 0 0 0 .072.058c.014.011.033.014.047.024s.014.019.024.024c.031.019.065.03.1.047.009.006.014.017.024.024s.033.013.047.024.03.033.049.047.043.019.06.035.016.047.035.06.066.011.1.022c.011 0 .014.019.024.024s.05.02.073.036.031.032.047.046a1.772 1.772 0 0 0 .167.142 1 1 0 0 0 .1.035c.019.011.03.035.047.047s.033.014.049.024.014.017.024.024.033.013.047.024.046.05.072.071.033.013.047.024.028.038.049.047c.036.016.08.008.118.022.02.009.03.035.049.047s.033.014.047.024.014.019.024.024.049.013.072.024.014.017.024.024.05.019.071.035.027.046.049.06a1.08 1.08 0 0 0 .118.046c.011 0 .014.019.025.024s.049.011.071.024.028.036.047.047.049.013.072.024.014.017.024.024.033.013.047.024.014.019.025.024c.03.011.065.008.095.022s.028.036.047.047.05.009.072.024c.043.027.074.069.12.095a.631.631 0 0 0 .095.022c.011 0 .014.019.024.024.032.019.066.027.1.047s.043.055.072.071.065.011.095.024c.011 0 .014.017.024.024.031.017.065.028.1.046.009.006.014.019.024.024s.049.013.073.024.013.019.024.024c.046.022.1.035.143.058.022.013.036.036.06.047s.073.019.107.035c.009 0 .014.019.024.024.038.019.08.028.12.047.009 0 .013.019.024.024.038.014.08.019.118.035.011 0 .016.017.025.024.038.022.08.036.118.058.011 0 .014.019.025.024.038.019.08.028.118.046.011.006.014.019.025.024.093.043.194.069.285.117.03.016.046.05.072.071s.033.014.047.024.014.02.024.024c.032.013.065.013.1.024l.013.011c.013.02.016.047.035.06a1.1 1.1 0 0 0 .12.046.848.848 0 0 1 .132.083c.014.011.019.036.035.047.038.022.082.025.12.046s.046.044.073.06.08.027.118.046c.011 0 .016.017.025.024s.033.013.047.024.028.035.047.047a.675.675 0 0 0 .1.047.629.629 0 0 1 .071.024.4.4 0 0 1 .083.058c.008.006 0 .019.013.024.03.016.066.017.1.035s.03.035.047.047.035.013.047.024.046.052.073.071.066.028.1.047.046.043.071.058a1.066 1.066 0 0 1 .132.071c.019.017.016.054.036.071a.748.748 0 0 0 .118.058c.009 0 .014.017.025.024s.033.013.047.024.03.033.047.047.035.013.049.024.046.049.071.071c.006 0 .017 0 .024.011s.027.046.049.058.082.025.118.047.046.05.072.071c.009.008.025 0 .036.011.061.044.117.1.18.142.022.016.049.02.071.035s.014.017.024.024.035.013.049.024.028.035.047.047.05.019.072.035.028.043.047.06.035.013.047.024c.052.044.091.1.145.142a.877.877 0 0 0 .094.046c.009.006.014.017.024.024s.035.014.049.024a.161.161 0 0 1 .036.036c.013.017.017.044.035.058s.054.008.072.024c.095.079.169.18.263.26.019.016.05.011.072.024a.1.1 0 0 1 .035.035c.014.019.019.044.036.06s.05.019.072.035c.006 0 .006.017.011.024a2.727 2.727 0 0 0 .2.2 1.014 1.014 0 0 0 .107.058c.006.006 0 .017.013.024s.033.022.047.036.03.041.047.058.06.044.085.071.013.033.024.047a.157.157 0 0 0 .036.036c.014.009.035.011.047.024.044.039.076.09.12.129s.074.044.107.071c.008 0 .006.017.013.024s.042.028.06.047.022.041.036.058.017 0 .024.013.027.05.049.071.076.041.107.071c.013.011.013.033.024.047a1.04 1.04 0 0 0 .084.082c.008.006.02 0 .025.013s.008.05.024.071.025 0 .036 0a.1.1 0 0 1 .047.024c.013.013.013.035.024.047.046.05.1.091.145.142.011.014.013.033.024.047s.035.03.047.047.013.035.025.047c.068.074.146.139.216.213.011.013.013.033.024.047a.846.846 0 0 0 .084.083c.006 0 .019 0 .024.011.025.038.036.082.061.118.013.019.033.03.047.047s.013.033.024.047.052.046.072.071.013.033.024.047.054.043.072.071.009.052.024.071c.035.046.088.072.12.118a1.085 1.085 0 0 1 .049.118c.011.02.035.03.047.047s.016.033.025.047.017.016.024.024.014.035.024.049.035.028.049.046.013.035.024.049.036.028.049.047.025.066.047.095.069.058.1.095c.016.019.011.049.024.071s.035.028.049.047.013.033.024.047.038.027.049.047c.02.036.028.08.049.118 0 .009.017.014.024.024.017.03.03.065.047.095.006.009.019.014.025.024.019.038.028.08.047.118.006.011.019.014.025.024.017.032.028.065.047.095.006.009.019.014.024.024s.014.049.025.072a.53.53 0 0 0 .06.106c.013.016.039.019.047.036.028.05.038.112.061.165 0 .009.017.014.024.024s.014.033.025.047.017.014.024.024c.019.038.027.082.049.118.011.019.036.028.047.047a.962.962 0 0 1 .072.165c.013.039.009.082.025.12.033.082.087.154.12.236.022.054.03.112.049.167a.6.6 0 0 0 .049.095c.006.009.02.013.024.024.022.061.028.128.049.189a.415.415 0 0 0 .049.095c.006.009.019.014.024.024a.766.766 0 0 1 .049.143c.014.061.008.129.025.189.024.083.076.154.1.238.036.14.044.285.074.427a.268.268 0 0 0 .024.047 2.017 2.017 0 0 1 .074.214c.014.061.013.128.025.189a1.129 1.129 0 0 0 .049.191c0 .011.019.014.024.024a.219.219 0 0 1 .024.071c.021.126.032.254.05.38 0 .009.014.016.013.024s-.025.03-.024.049a1.127 1.127 0 0 0 .036.118c.035.173.066.347.088.523 0 .024-.013.046-.011.071.026.145.044.271.05.397zm51.093-16.585c.156-.758-1.588-.835-1.582-.083.003.598 1.449.743 1.582.083zm3.508.175c.238 1.142-.647 1.859-1.456 2.377-2.363 1.5-4.411.712-6.086-1.26a4.651 4.651 0 0 1 .24-4.318 3.715 3.715 0 0 1 1.1-.852 4.35 4.35 0 0 1 3.628.079 4.657 4.657 0 0 1 2.366 3.2c.041.229.158.53.208.774zm-46.846 6.137c-.024 0-.047-.011-.071-.011a.217.217 0 0 0-.071.013c-.011 0-.014.019-.024.024s-.049.014-.071.025-.014.017-.024.024c-.047.027-.1.044-.143.072a.127.127 0 0 0-.035.036c-.011.014-.013.033-.024.047s-.033.03-.047.047a.156.156 0 0 0-.024.049.773.773 0 0 0-.035.178.525.525 0 0 0 .038.154c0 .011.017.014.024.024s.013.033.024.047a.381.381 0 0 0 .084.083.894.894 0 0 0 .227.1c.028.008.055-.024.083-.024s.047.02.072.024c.008 0 .016-.008.024-.013s.027-.036.047-.047c.441-.264.759-.858-.054-.851zm-.035 4.732c-.03-.02-.041-.061-.072-.082s-.082-.027-.118-.047-.046-.043-.072-.058a.29.29 0 0 0-.071-.024c-.047-.009-.1-.009-.143-.022-.011 0-.014-.02-.024-.024-.031-.013-.065-.011-.1-.024-.009 0-.014-.017-.024-.024a.262.262 0 0 0-.047-.024c-.031-.009-.065-.011-.1-.022-.009 0-.013-.022-.024-.024-.061-.014-.128-.009-.191-.022-.011 0-.013-.02-.024-.024-.11-.044-.224-.074-.334-.117-.009 0-.014-.019-.024-.024a3.341 3.341 0 0 1-1.619-1.783 5.041 5.041 0 0 1 .183-4.044c.263-.627.988-.974 1.416-1.486.028-.035.069-.058.095-.1a.769.769 0 0 0 .046-.118c.006-.011.019-.014.024-.024s.022-.05.036-.072.016-.016.024-.024.03-.028.035-.047a.743.743 0 0 0 .011-.156.425.425 0 0 0-.013-.154c-.016-.036-.054-.057-.085-.082-.014-.011-.033-.013-.047-.024s-.027-.041-.047-.047c-.629-.169-2.109-.079-2.528.555a5.113 5.113 0 0 0-.772 1.813 28.054 28.054 0 0 0-.295 6.47c.011 1.411 1.171 7.015 3.567 6.1.009 0 .013-.02.024-.025a1.1 1.1 0 0 0 .142-.036c.022-.011.027-.046.047-.06.036-.024.08-.028.118-.049.011 0 .014-.019.024-.024.038-.019.082-.028.12-.049.009 0 .013-.017.024-.024.03-.019.063-.03.094-.049.009 0 .014-.017.024-.024a.755.755 0 0 0 .094-.047c.052-.043.093-.1.142-.145.006-.006.017 0 .024-.011a.889.889 0 0 1 .071-.083c.013-.013.033-.014.047-.025a.607.607 0 0 0 .046-.06c.019-.017.046-.027.06-.047.03-.044.039-.1.071-.143a.624.624 0 0 1 .106-.109c.006-.006.019 0 .024-.011.016-.022.019-.05.035-.072s.071-.058.095-.1c.963-1.452 1.528-3.821-.094-5.021zm50.258 15.582a8.227 8.227 0 0 1 .046-3.329c.658-4.127 1.4-8.411 1.96-12.595.227-1.712-1.243.671-1.514.844-1.418.923-2.089.879-3.4-1.186-.444-.7-1.215-1.084-1.618-.06-.543 1.311-1.81 2.754-3.307 1.452-.551-.474-1.545-2.272-2.519-1.36-1.867 1.78-3.429 4.986-6.84 2.561-.451-.318-.818-1.06-1.276-.477a15.537 15.537 0 0 1-1.429 1.295c-1.048 1.063-3.952 2.711-5.381 2.1-.733-.313-1.114-1.2-1.953-.354a2.339 2.339 0 0 1-1.326.618c-3.387.745-5.044-8.374-6.345-1.033a3.415 3.415 0 0 1-1.561 2.5c-.8.315-1.648-1.207-1.881-1.829-.2-.536-.986-4.83-2-2.862-.885 1.8-.358 3.853-1.074 5.668a1.508 1.508 0 0 1-2.612.447 6.263 6.263 0 0 1-.84-4.083c.046-1.115-.288-3.467-1.61-3.8-.747-.175-.1 1.571-.08 1.975.161 3.466-.7 6.081-3.625 7.9-.021.011-.028.036-.047.047-.046.025-.1.038-.143.06-.009.006-.014.019-.024.025a1.043 1.043 0 0 1-.118.06.925.925 0 0 1-.094.024.17.17 0 0 0-.047.025c-.009.006-.014.017-.024.024a1.256 1.256 0 0 1-.189.1c-.069.025-.145.028-.214.05-.011 0-.014.017-.024.024a.668.668 0 0 1-.094.049c-.047.017-.1.028-.143.047-.009 0-.013.019-.024.025s-.047.013-.071.024-.013.019-.024.024a.776.776 0 0 1-.118.049c-2.691.825-4.568-2.741-5.21-4.847a34.074 34.074 0 0 1-1.207-5.531 28.029 28.029 0 0 1-.1-7.228c.285-2.341 1.556-5.485 4.1-6.059 4.57-1.032 6.467 3.417 6.865 6.807.225 1.917 1.074 1.793 2.41 2.776a3.379 3.379 0 0 1 1.211 1.238c.466 1.256 1.07-.915 1.249-1.246a4.87 4.87 0 0 1 .742-1.1c2.484-2.522 3.556 2.38 4.627 1.927 1.161-.5 1.085-1.708 2-2.369 3.329-2.45 3.425 4.961 5.991 5.97 1.2.5 1.408-2.415 1.605-3.092.92-3.155 2.557-7.494 5.937-8.641 1.871-.64 4.787.076 5.9 1.8.794 1.224 1.137 2.574-.2 3.39-1.979 1.23-2.341-.758-3.883-.969a1.946 1.946 0 0 0-1.33.271c-1.273.74-3.789 4.992-2.818 6.334.649.895 1.468.269 2.176-.17a9.469 9.469 0 0 0 2.133-2.549c.507-.649 1.657-1.916 2.552-1.922 2.087-.016.536 3.611 2.1 3.6l3.948-4.655c1.462-.837 1.867-.31 2.5.967a2.467 2.467 0 0 0 .766.814c2.009 1.238 1.5-4.3 4.234-3.029 1.167.517 2.254 3.157 2.842 3.13.384-.016 1.98-3.836 2.368-4.417.944-1.449 2.023-1.446 2.571.361.74 2.376.518 5.077.414 7.535-.217 5.159-.488 11.106.98 16.185.365 1.208 1.826 2.848 1.2 4.32-.507 1.174-2.609.447-3.39-.058-1.677-1.154-3.235-2.451-3.7-4.592zm29.2-25.5c.359 1.2-.616 2.938-1.434 3.768-.132.132-.222.323-.353.454-.715.731-1.427 1.482-2.2 2.146A26.389 26.389 0 0 1-231.716 47c-1.6.97-4.28 1.777-5.529-.206-.3-.484-1.29-1.2-1.812-.558a10.637 10.637 0 0 1-2.659 2.054 3.753 3.753 0 0 1-4.044-.112c-2.631-2.079-2.777-7.744-.756-10.3a17.815 17.815 0 0 1 2.061-2.5c.217-.187.4-.4.614-.6 1.52-1.407 4.231-3.322 6.333-2.141 2.239 1.21 1.169 3.784-.966 4.312-.167.041-.309.058-.476.1a7.111 7.111 0 0 0-4.485 2.735c-.688.969-1.649 2.757-.529 3.749 1.372 1.222 2.7-1.011 3.135-2.057.545-1.336 2.166-4.067 3.962-2.67 1.032.786.521 1.716.914 2.7.181.455.455 1.046.948 1.218 2.639.915 3.565-2.943 4.685-4.518.992-1.4 2.267-2.509 4.088-1.851 1.082.386 1.249.898 1.572 1.927z" class="cls-3" data-name="Path 8243" transform="translate(3.752 4.836)"/>
    </g>
</svg>
