<svg xmlns="http://www.w3.org/2000/svg" id="Group_221" width="44" height="44" data-name="Group 221" viewBox="0 0 44 44">
    <defs>
        <style>
            .cls-1,.cls-2{fill:#009640}.cls-1,.cls-123{fill-rule:evenodd}.cls-3{fill:#e30613}.cls-4{clip-path:url(#clip-path)}.cls-5{clip-path:url(#clip-path-2)}.cls-6{fill:#ef7d00}.cls-7{clip-path:url(#clip-path-3)}.cls-8{fill:#f07e00}.cls-9{fill:#f07f00}.cls-10{fill:#f08000}.cls-11{fill:#f08100}.cls-12{fill:#f08200}.cls-13{fill:#f08300}.cls-14{fill:#f08400}.cls-15{fill:#f18400}.cls-16{fill:#f18500}.cls-17{fill:#f18600}.cls-18{fill:#f18700}.cls-19{fill:#f18800}.cls-20{fill:#f18900}.cls-21{fill:#f28a00}.cls-22{fill:#f28b00}.cls-23{fill:#f28c00}.cls-24{fill:#f28d00}.cls-25{fill:#f28e00}.cls-26{fill:#f28f00}.cls-27{fill:#f39000}.cls-28{fill:#f39100}.cls-29{fill:#f39200}.cls-30{fill:#f39300}.cls-31{fill:#f39400}.cls-32{fill:#f49500}.cls-33{fill:#f49600}.cls-34{fill:#f49700}.cls-35{fill:#f49800}.cls-36{fill:#f49900}.cls-37{fill:#f59a00}.cls-38{fill:#f59b00}.cls-39{fill:#f59c00}.cls-40{fill:#f59d00}.cls-41{fill:#f59e00}.cls-42{fill:#f69f00}.cls-43{fill:#f6a000}.cls-44{fill:#f6a100}.cls-45{fill:#f6a200}.cls-46{fill:#f6a300}.cls-47{fill:#f7a400}.cls-48{fill:#f7a500}.cls-49{fill:#f7a600}.cls-50{fill:#f7a700}.cls-51{fill:#f8a800}.cls-52{fill:#f8a900}.cls-53{fill:#f8aa00}.cls-54{fill:#f8ab00}.cls-55{fill:#f8ac00}.cls-56{fill:#f8ad00}.cls-57{fill:#f9ae00}.cls-58{fill:#f9af00}.cls-59{fill:#f9b000}.cls-60{fill:#f9b100}.cls-61{fill:#fab200}.cls-62{fill:#fab300}.cls-63{fill:#fab400}.cls-64{fill:#fab500}.cls-65{fill:#fab600}.cls-66{fill:#fbb700}.cls-67{fill:#fbb800}.cls-68{fill:#fbb900}.cls-69{fill:#fbba00}.cls-70{fill:#fbbb00}.cls-71{fill:#fcbc00}.cls-72{fill:#fcbd00}.cls-73{fill:#fcbe00}.cls-74{fill:#fcbf00}.cls-75{fill:#fcc000}.cls-76{fill:#fdc000}.cls-77{fill:#fdc100}.cls-78{fill:#fdc200}.cls-79{fill:#fdc300}.cls-80{fill:#fdc400}.cls-81{fill:#fdc500}.cls-82{fill:#fec500}.cls-83{fill:#fec600}.cls-84{fill:#fec700}.cls-85{fill:#fec800}.cls-86{fill:#fec900}.cls-87{fill:#ffca00}.cls-88{fill:#ffcb00}.cls-89{fill:#fc0}.cls-90{fill:#ffcd00}.cls-91{fill:#ffce00}.cls-92{fill:#ffcf00}.cls-93{fill:#ffd000}.cls-94{fill:#ffd100}.cls-95{fill:#ffd200}.cls-96{fill:#ffd300}.cls-97{fill:#ffd400}.cls-98{fill:#ffd500}.cls-99{fill:#ffd600}.cls-100{fill:gold}.cls-101{fill:#ffd800}.cls-102{fill:#ffd900}.cls-103{fill:#ffda00}.cls-104{fill:#ffdb00}.cls-105{fill:#ffdc00}.cls-106{fill:#fd0}.cls-107{fill:#ffde00}.cls-108{fill:#ffdf00}.cls-109{fill:#ffe000}.cls-110{fill:#ffe100}.cls-111{fill:#ffe200}.cls-112{fill:#ffe300}.cls-113{fill:#ffe400}.cls-114{fill:#ffe500}.cls-115{fill:#ffe600}.cls-116{fill:#ffe700}.cls-117{fill:#ffe800}.cls-118{fill:#ffe900}.cls-119{fill:#ffea00}.cls-120{fill:#ffeb00}.cls-121{fill:#ffec00}.cls-122,.cls-123{fill:#ffed00}
        </style>
        <clipPath id="clip-path">
            <path id="Path_65" d="M32.27 37.6A11.284 11.284 0 1 1 21.1 48.884 11.217 11.217 0 0 1 32.27 37.6" data-name="Path 65" transform="translate(-21.1 -37.6)"/>
        </clipPath>
        <clipPath id="clip-path-2">
            <path id="Rectangle_66" d="M0 0h22.341v22.568H0z" data-name="Rectangle 66"/>
        </clipPath>
        <clipPath id="clip-path-3">
            <path id="Rectangle_68" d="M0 0h22.341v22.568H0z" data-name="Rectangle 68"/>
        </clipPath>
    </defs>
    <g id="Group_49" data-name="Group 49" transform="translate(14.575 7.069)">
        <path id="Path_51" d="M27.4 22.8v-9.068c.227-1.871 1.247-3.232 3.232-3.232h11.511v3.119H30.235V22.8z" class="cls-1" data-name="Path 51" transform="translate(-27.4 -10.5)"/>
    </g>
    <g id="Group_50" data-name="Group 50" transform="translate(11.783 3.119)">
        <path id="Path_52" d="M24.511 20.64H22.3V13.1c0-5.047 2.325-7.6 6.974-7.6h10.66v2.211h-10.66c-3.4 0-4.763 1.588-4.763 5.387v7.542z" class="cls-2" data-name="Path 52" transform="translate(-22.3 -5.5)"/>
    </g>
    <g id="Group_51" data-name="Group 51" transform="translate(10.153 1.301)">
        <path id="Path_53" d="M19.357 19.252l-.057-7.768c0-1.7.284-4.876 2.438-7.031A7.8 7.8 0 0 1 27.692 2.3l10.83.057v1.075h-10.83a6.944 6.944 0 0 0-5.16 1.868 8.632 8.632 0 0 0-2.1 6.237l.057 7.768z" class="cls-2" data-name="Path 53" transform="translate(-19.3 -2.295)"/>
    </g>
    <g id="Group_52" data-name="Group 52" transform="translate(9.066)">
        <path id="Path_54" d="M17.357 18.258L17.3 8.846a8.611 8.611 0 0 1 2.552-6.181A9.852 9.852 0 0 1 27 0l10.77.057v.68L27 .68h-.057a9.072 9.072 0 0 0-6.634 2.495A8.155 8.155 0 0 0 17.98 8.9l.057 9.413z" class="cls-2" data-name="Path 54" transform="translate(-17.3)"/>
    </g>
    <g id="Group_53" data-name="Group 53" transform="translate(6.939 14.521)">
        <path id="Path_55" d="M10.7 27.3v10.377c-.057 2.268.907 4.423 3.119 4.423h1.191v-2.949h-1.25V27.3z" class="cls-1" data-name="Path 55" transform="translate(-10.696 -27.3)"/>
    </g>
    <g id="Group_54" data-name="Group 54" transform="translate(3.232 14.416)">
        <path id="Path_56" d="M13.071 45.161h-.51c-6.861 0-6.861-6.917-6.861-9.185V27.3h2.325v8.619c0 4.876 1.3 6.918 4.536 6.918h.51v2.325z" class="cls-2" data-name="Path 56" transform="translate(-5.7 -27.3)"/>
    </g>
    <g id="Group_55" data-name="Group 55" transform="translate(1.418 14.402)">
        <path id="Path_57" d="M11.629 46.906h-.737a7.52 7.52 0 0 1-6.8-3.686A14.424 14.424 0 0 1 2.5 36.246l.057-8.846h1.134v8.846c-.057 7.654 3.909 9.412 7.258 9.469h.737z" class="cls-2" data-name="Path 57" transform="translate(-2.5 -27.4)"/>
    </g>
    <g id="Group_56" data-name="Group 56" transform="translate(0 14.283)">
        <path id="Path_58" d="M9.016 48.28a8.043 8.043 0 0 1-5.387-2.1A11.357 11.357 0 0 1 0 38.074L.057 27.3h.68L.68 38.074a10.412 10.412 0 0 0 3.4 7.541 7.256 7.256 0 0 0 5.84 1.871l.567-.057.057.68-.567.057a4.994 4.994 0 0 1-.961.114z" class="cls-2" data-name="Path 58" transform="translate(0 -27.3)"/>
    </g>
    <g id="Group_57" data-name="Group 57" transform="translate(25.742 14.203)">
        <path id="Path_59" d="M61.331 41.443V29.932C61.1 28.061 60.084 26.7 58.1 26.7h-9.3v3.119h9.3v11.624z" class="cls-1" data-name="Path 59" transform="translate(-48.8 -26.7)"/>
    </g>
    <g id="Group_58" data-name="Group 58" transform="translate(25.742 11.517)">
        <path id="Path_60" d="M64.223 39.491h-2.211V29.4c0-3.856-1.361-5.387-4.763-5.387H48.8V21.8h8.449c4.65 0 6.974 2.552 6.974 7.6z" class="cls-2" data-name="Path 60" transform="translate(-48.8 -21.8)"/>
    </g>
    <g id="Group_59" data-name="Group 59" transform="translate(25.855 9.834)">
        <path id="Path_61" d="M65.954 38.036h-1.077l.057-10.206c0-1.531-.284-4.366-2.155-6.237a7.1 7.1 0 0 0-5.1-1.814h-.057L49 19.834v-1.077l8.619-.057h.113a8.105 8.105 0 0 1 5.9 2.155 9.757 9.757 0 0 1 2.438 7.031z" class="cls-2" data-name="Path 61" transform="translate(-49 -18.7)"/>
    </g>
    <g id="Group_60" data-name="Group 60" transform="translate(25.742 8.48)">
        <path id="Path_62" d="M67 37.01h-.68l.058-11.91a8.155 8.155 0 0 0-2.325-5.727 9.028 9.028 0 0 0-6.577-2.495h-.113l-8.562.057v-.68l8.562-.057h.113a9.491 9.491 0 0 1 7.031 2.665 8.84 8.84 0 0 1 2.551 6.237z" class="cls-2" data-name="Path 62" transform="translate(-48.8 -16.2)"/>
    </g>
    <g id="Group_61" data-name="Group 61" transform="translate(14.393 25.175)">
        <path id="Path_63" d="M37.423 66.625h-.113l-9.81-.057v-.68l9.81.057h.113a11.07 11.07 0 0 0 8.052-2.892 7.477 7.477 0 0 0 2.268-5.33l-.114-9.923h.68l.057 9.923a8.344 8.344 0 0 1-2.438 5.84 11.749 11.749 0 0 1-8.505 3.062z" class="cls-2" data-name="Path 63" transform="translate(-27.5 -47.8)"/>
    </g>
    <g id="Group_62" data-name="Group 62" transform="translate(8.66 17.359)">
        <path id="Rectangle_63" d="M0 0h26.934v8.959H0z" class="cls-3" data-name="Rectangle 63"/>
    </g>
    <g id="Group_63" data-name="Group 63" transform="translate(17.292 8.713)">
        <path id="Rectangle_64" d="M0 0h9.469v17.861H0z" class="cls-3" data-name="Rectangle 64"/>
    </g>
    <g id="Group_220" data-name="Group 220" transform="translate(10.986 19.391)">
        <g id="Group_219" class="cls-4" data-name="Group 219">
            <g id="Group_218" data-name="Group 218">
                <g id="Group_64" class="cls-5" data-name="Group 64">
                    <path id="Rectangle_65" d="M0 0h22.341v.17H0z" class="cls-6" data-name="Rectangle 65"/>
                </g>
                <g id="Group_65" class="cls-7" data-name="Group 65">
                    <path id="Rectangle_67" d="M0 0h22.341v.17H0z" class="cls-8" data-name="Rectangle 67" transform="translate(0 .113)"/>
                </g>
                <g id="Group_66" class="cls-5" data-name="Group 66">
                    <path id="Rectangle_69" d="M0 0h22.341v.17H0z" class="cls-9" data-name="Rectangle 69" transform="translate(0 .284)"/>
                </g>
                <g id="Group_67" class="cls-7" data-name="Group 67">
                    <path id="Rectangle_71" d="M0 0h22.341v.17H0z" class="cls-10" data-name="Rectangle 71" transform="translate(0 .397)"/>
                </g>
                <g id="Group_68" class="cls-5" data-name="Group 68">
                    <path id="Rectangle_73" d="M0 0h22.341v.17H0z" class="cls-10" data-name="Rectangle 73" transform="translate(0 .567)"/>
                </g>
                <g id="Group_69" class="cls-5" data-name="Group 69">
                    <path id="Rectangle_75" d="M0 0h22.341v.17H0z" class="cls-11" data-name="Rectangle 75" transform="translate(0 .68)"/>
                </g>
                <g id="Group_70" class="cls-5" data-name="Group 70">
                    <path id="Rectangle_77" d="M0 0h22.341v.17H0z" class="cls-12" data-name="Rectangle 77" transform="translate(0 .851)"/>
                </g>
                <g id="Group_71" class="cls-5" data-name="Group 71">
                    <path id="Rectangle_79" d="M0 0h22.341v.17H0z" class="cls-13" data-name="Rectangle 79" transform="translate(0 1.021)"/>
                </g>
                <g id="Group_72" class="cls-5" data-name="Group 72">
                    <path id="Rectangle_81" d="M0 0h22.341v.17H0z" class="cls-14" data-name="Rectangle 81" transform="translate(0 1.134)"/>
                </g>
                <g id="Group_73" class="cls-5" data-name="Group 73">
                    <path id="Rectangle_83" d="M0 0h22.341v.17H0z" class="cls-15" data-name="Rectangle 83" transform="translate(0 1.304)"/>
                </g>
                <g id="Group_74" class="cls-5" data-name="Group 74">
                    <path id="Rectangle_85" d="M0 0h22.341v.17H0z" class="cls-16" data-name="Rectangle 85" transform="translate(0 1.418)"/>
                </g>
                <g id="Group_75" class="cls-5" data-name="Group 75">
                    <path id="Rectangle_87" d="M0 0h22.341v.17H0z" class="cls-17" data-name="Rectangle 87" transform="translate(0 1.588)"/>
                </g>
                <g id="Group_76" class="cls-5" data-name="Group 76">
                    <path id="Rectangle_89" d="M0 0h22.341v.17H0z" class="cls-18" data-name="Rectangle 89" transform="translate(0 1.758)"/>
                </g>
                <g id="Group_77" class="cls-5" data-name="Group 77">
                    <path id="Rectangle_91" d="M0 0h22.341v.17H0z" class="cls-19" data-name="Rectangle 91" transform="translate(0 1.871)"/>
                </g>
                <g id="Group_78" class="cls-5" data-name="Group 78">
                    <path id="Rectangle_93" d="M0 0h22.341v.17H0z" class="cls-20" data-name="Rectangle 93" transform="translate(0 2.041)"/>
                </g>
                <g id="Group_79" class="cls-5" data-name="Group 79">
                    <path id="Rectangle_95" d="M0 0h22.341v.17H0z" class="cls-20" data-name="Rectangle 95" transform="translate(0 2.155)"/>
                </g>
                <g id="Group_80" class="cls-5" data-name="Group 80">
                    <path id="Rectangle_97" d="M0 0h22.341v.17H0z" class="cls-21" data-name="Rectangle 97" transform="translate(0 2.325)"/>
                </g>
                <g id="Group_81" class="cls-5" data-name="Group 81">
                    <path id="Rectangle_99" d="M0 0h22.341v.17H0z" class="cls-22" data-name="Rectangle 99" transform="translate(0 2.495)"/>
                </g>
                <g id="Group_82" class="cls-5" data-name="Group 82">
                    <path id="Rectangle_101" d="M0 0h22.341v.17H0z" class="cls-23" data-name="Rectangle 101" transform="translate(0 2.608)"/>
                </g>
                <g id="Group_83" class="cls-5" data-name="Group 83">
                    <path id="Rectangle_103" d="M0 0h22.341v.17H0z" class="cls-24" data-name="Rectangle 103" transform="translate(0 2.778)"/>
                </g>
                <g id="Group_84" class="cls-5" data-name="Group 84">
                    <path id="Rectangle_105" d="M0 0h22.341v.17H0z" class="cls-25" data-name="Rectangle 105" transform="translate(0 2.892)"/>
                </g>
                <g id="Group_85" class="cls-5" data-name="Group 85">
                    <path id="Rectangle_107" d="M0 0h22.341v.17H0z" class="cls-25" data-name="Rectangle 107" transform="translate(0 3.062)"/>
                </g>
                <g id="Group_86" class="cls-5" data-name="Group 86">
                    <path id="Rectangle_109" d="M0 0h22.341v.17H0z" class="cls-26" data-name="Rectangle 109" transform="translate(0 3.232)"/>
                </g>
                <g id="Group_87" class="cls-5" data-name="Group 87">
                    <path id="Rectangle_111" d="M0 0h22.341v.17H0z" class="cls-27" data-name="Rectangle 111" transform="translate(0 3.345)"/>
                </g>
                <g id="Group_88" class="cls-5" data-name="Group 88">
                    <path id="Rectangle_113" d="M0 0h22.341v.17H0z" class="cls-28" data-name="Rectangle 113" transform="translate(0 3.516)"/>
                </g>
                <g id="Group_89" class="cls-5" data-name="Group 89">
                    <path id="Rectangle_115" d="M0 0h22.341v.17H0z" class="cls-29" data-name="Rectangle 115" transform="translate(0 3.629)"/>
                </g>
                <g id="Group_90" class="cls-5" data-name="Group 90">
                    <path id="Rectangle_117" d="M0 0h22.341v.17H0z" class="cls-30" data-name="Rectangle 117" transform="translate(0 3.799)"/>
                </g>
                <g id="Group_91" class="cls-5" data-name="Group 91">
                    <path id="Rectangle_119" d="M0 0h22.341v.17H0z" class="cls-30" data-name="Rectangle 119" transform="translate(0 3.969)"/>
                </g>
                <g id="Group_92" class="cls-5" data-name="Group 92">
                    <path id="Rectangle_121" d="M0 0h22.341v.17H0z" class="cls-31" data-name="Rectangle 121" transform="translate(0 4.083)"/>
                </g>
                <g id="Group_93" class="cls-5" data-name="Group 93">
                    <path id="Rectangle_123" d="M0 0h22.341v.17H0z" class="cls-32" data-name="Rectangle 123" transform="translate(0 4.253)"/>
                </g>
                <g id="Group_94" class="cls-5" data-name="Group 94">
                    <path id="Rectangle_125" d="M0 0h22.341v.17H0z" class="cls-33" data-name="Rectangle 125" transform="translate(0 4.366)"/>
                </g>
                <g id="Group_95" class="cls-5" data-name="Group 95">
                    <path id="Rectangle_127" d="M0 0h22.341v.17H0z" class="cls-34" data-name="Rectangle 127" transform="translate(0 4.536)"/>
                </g>
                <g id="Group_96" class="cls-5" data-name="Group 96">
                    <path id="Rectangle_129" d="M0 0h22.341v.17H0z" class="cls-34" data-name="Rectangle 129" transform="translate(0 4.706)"/>
                </g>
                <g id="Group_97" class="cls-5" data-name="Group 97">
                    <path id="Rectangle_131" d="M0 0h22.341v.17H0z" class="cls-35" data-name="Rectangle 131" transform="translate(0 4.82)"/>
                </g>
                <g id="Group_98" class="cls-5" data-name="Group 98">
                    <path id="Rectangle_133" d="M0 0h22.341v.17H0z" class="cls-36" data-name="Rectangle 133" transform="translate(0 4.99)"/>
                </g>
                <g id="Group_99" class="cls-5" data-name="Group 99">
                    <path id="Rectangle_135" d="M0 0h22.341v.17H0z" class="cls-37" data-name="Rectangle 135" transform="translate(0 5.103)"/>
                </g>
                <g id="Group_100" class="cls-5" data-name="Group 100">
                    <path id="Rectangle_137" d="M0 0h22.341v.17H0z" class="cls-38" data-name="Rectangle 137" transform="translate(0 5.273)"/>
                </g>
                <g id="Group_101" class="cls-5" data-name="Group 101">
                    <path id="Rectangle_139" d="M0 0h22.341v.17H0z" class="cls-38" data-name="Rectangle 139" transform="translate(0 5.443)"/>
                </g>
                <g id="Group_102" class="cls-5" data-name="Group 102">
                    <path id="Rectangle_141" d="M0 0h22.341v.17H0z" class="cls-39" data-name="Rectangle 141" transform="translate(0 5.557)"/>
                </g>
                <g id="Group_103" class="cls-5" data-name="Group 103">
                    <path id="Rectangle_143" d="M0 0h22.341v.17H0z" class="cls-40" data-name="Rectangle 143" transform="translate(0 5.727)"/>
                </g>
                <g id="Group_104" class="cls-5" data-name="Group 104">
                    <path id="Rectangle_145" d="M0 0h22.341v.17H0z" class="cls-41" data-name="Rectangle 145" transform="translate(0 5.84)"/>
                </g>
                <g id="Group_105" class="cls-5" data-name="Group 105">
                    <path id="Rectangle_147" d="M0 0h22.341v.17H0z" class="cls-41" data-name="Rectangle 147" transform="translate(0 6.01)"/>
                </g>
                <g id="Group_106" class="cls-5" data-name="Group 106">
                    <path id="Rectangle_149" d="M0 0h22.341v.17H0z" class="cls-42" data-name="Rectangle 149" transform="translate(0 6.181)"/>
                </g>
                <g id="Group_107" class="cls-5" data-name="Group 107">
                    <path id="Rectangle_151" d="M0 0h22.341v.17H0z" class="cls-43" data-name="Rectangle 151" transform="translate(0 6.294)"/>
                </g>
                <g id="Group_108" class="cls-5" data-name="Group 108">
                    <path id="Rectangle_153" d="M0 0h22.341v.17H0z" class="cls-44" data-name="Rectangle 153" transform="translate(0 6.464)"/>
                </g>
                <g id="Group_109" class="cls-5" data-name="Group 109">
                    <path id="Rectangle_155" d="M0 0h22.341v.17H0z" class="cls-45" data-name="Rectangle 155" transform="translate(0 6.578)"/>
                </g>
                <g id="Group_110" class="cls-5" data-name="Group 110">
                    <path id="Rectangle_157" d="M0 0h22.341v.17H0z" class="cls-46" data-name="Rectangle 157" transform="translate(0 6.748)"/>
                </g>
                <g id="Group_111" class="cls-5" data-name="Group 111">
                    <path id="Rectangle_159" d="M0 0h22.341v.17H0z" class="cls-46" data-name="Rectangle 159" transform="translate(0 6.918)"/>
                </g>
                <g id="Group_112" class="cls-5" data-name="Group 112">
                    <path id="Rectangle_161" d="M0 0h22.341v.17H0z" class="cls-47" data-name="Rectangle 161" transform="translate(0 7.031)"/>
                </g>
                <g id="Group_113" class="cls-5" data-name="Group 113">
                    <path id="Rectangle_163" d="M0 0h22.341v.17H0z" class="cls-48" data-name="Rectangle 163" transform="translate(0 7.201)"/>
                </g>
                <g id="Group_114" class="cls-5" data-name="Group 114">
                    <path id="Rectangle_165" d="M0 0h22.341v.17H0z" class="cls-49" data-name="Rectangle 165" transform="translate(0 7.315)"/>
                </g>
                <g id="Group_115" class="cls-5" data-name="Group 115">
                    <path id="Rectangle_167" d="M0 0h22.341v.17H0z" class="cls-50" data-name="Rectangle 167" transform="translate(0 7.485)"/>
                </g>
                <g id="Group_116" class="cls-5" data-name="Group 116">
                    <path id="Rectangle_169" d="M0 0h22.341v.17H0z" class="cls-50" data-name="Rectangle 169" transform="translate(0 7.655)"/>
                </g>
                <g id="Group_117" class="cls-5" data-name="Group 117">
                    <path id="Rectangle_171" d="M0 0h22.341v.17H0z" class="cls-51" data-name="Rectangle 171" transform="translate(0 7.768)"/>
                </g>
                <g id="Group_118" class="cls-5" data-name="Group 118">
                    <path id="Rectangle_173" d="M0 0h22.341v.17H0z" class="cls-52" data-name="Rectangle 173" transform="translate(0 7.938)"/>
                </g>
                <g id="Group_119" class="cls-5" data-name="Group 119">
                    <path id="Rectangle_175" d="M0 0h22.341v.17H0z" class="cls-53" data-name="Rectangle 175" transform="translate(0 8.052)"/>
                </g>
                <g id="Group_120" class="cls-5" data-name="Group 120">
                    <path id="Rectangle_177" d="M0 0h22.341v.17H0z" class="cls-54" data-name="Rectangle 177" transform="translate(0 8.222)"/>
                </g>
                <g id="Group_121" class="cls-5" data-name="Group 121">
                    <path id="Rectangle_179" d="M0 0h22.341v.17H0z" class="cls-54" data-name="Rectangle 179" transform="translate(0 8.392)"/>
                </g>
                <g id="Group_122" class="cls-5" data-name="Group 122">
                    <path id="Rectangle_181" d="M0 0h22.341v.17H0z" class="cls-55" data-name="Rectangle 181" transform="translate(0 8.505)"/>
                </g>
                <g id="Group_123" class="cls-5" data-name="Group 123">
                    <path id="Rectangle_183" d="M0 0h22.341v.17H0z" class="cls-56" data-name="Rectangle 183" transform="translate(0 8.676)"/>
                </g>
                <g id="Group_124" class="cls-5" data-name="Group 124">
                    <path id="Rectangle_185" d="M0 0h22.341v.17H0z" class="cls-57" data-name="Rectangle 185" transform="translate(0 8.789)"/>
                </g>
                <g id="Group_125" class="cls-5" data-name="Group 125">
                    <path id="Rectangle_187" d="M0 0h22.341v.17H0z" class="cls-57" data-name="Rectangle 187" transform="translate(0 8.959)"/>
                </g>
                <g id="Group_126" class="cls-5" data-name="Group 126">
                    <path id="Rectangle_189" d="M0 0h22.341v.17H0z" class="cls-58" data-name="Rectangle 189" transform="translate(0 9.129)"/>
                </g>
                <g id="Group_127" class="cls-5" data-name="Group 127">
                    <path id="Rectangle_191" d="M0 0h22.341v.17H0z" class="cls-59" data-name="Rectangle 191" transform="translate(0 9.243)"/>
                </g>
                <g id="Group_128" class="cls-5" data-name="Group 128">
                    <path id="Rectangle_193" d="M0 0h22.341v.17H0z" class="cls-60" data-name="Rectangle 193" transform="translate(0 9.413)"/>
                </g>
                <g id="Group_129" class="cls-5" data-name="Group 129">
                    <path id="Rectangle_195" d="M0 0h22.341v.17H0z" class="cls-60" data-name="Rectangle 195" transform="translate(0 9.526)"/>
                </g>
                <g id="Group_130" class="cls-5" data-name="Group 130">
                    <path id="Rectangle_197" d="M0 0h22.341v.17H0z" class="cls-61" data-name="Rectangle 197" transform="translate(0 9.696)"/>
                </g>
                <g id="Group_131" class="cls-5" data-name="Group 131">
                    <path id="Rectangle_199" d="M0 0h22.341v.17H0z" class="cls-62" data-name="Rectangle 199" transform="translate(0 9.866)"/>
                </g>
                <g id="Group_132" class="cls-5" data-name="Group 132">
                    <path id="Rectangle_201" d="M0 0h22.341v.17H0z" class="cls-63" data-name="Rectangle 201" transform="translate(0 9.98)"/>
                </g>
                <g id="Group_133" class="cls-5" data-name="Group 133">
                    <path id="Rectangle_203" d="M0 0h22.341v.17H0z" class="cls-63" data-name="Rectangle 203" transform="translate(0 10.15)"/>
                </g>
                <g id="Group_134" class="cls-5" data-name="Group 134">
                    <path id="Rectangle_205" d="M0 0h22.341v.17H0z" class="cls-64" data-name="Rectangle 205" transform="translate(0 10.263)"/>
                </g>
                <g id="Group_135" class="cls-5" data-name="Group 135">
                    <path id="Rectangle_207" d="M0 0h22.341v.17H0z" class="cls-65" data-name="Rectangle 207" transform="translate(0 10.433)"/>
                </g>
                <g id="Group_136" class="cls-5" data-name="Group 136">
                    <path id="Rectangle_209" d="M0 0h22.341v.17H0z" class="cls-66" data-name="Rectangle 209" transform="translate(0 10.603)"/>
                </g>
                <g id="Group_137" class="cls-5" data-name="Group 137">
                    <path id="Rectangle_211" d="M0 0h22.341v.17H0z" class="cls-66" data-name="Rectangle 211" transform="translate(0 10.717)"/>
                </g>
                <g id="Group_138" class="cls-5" data-name="Group 138">
                    <path id="Rectangle_213" d="M0 0h22.341v.17H0z" class="cls-67" data-name="Rectangle 213" transform="translate(0 10.887)"/>
                </g>
                <g id="Group_139" class="cls-5" data-name="Group 139">
                    <path id="Rectangle_215" d="M0 0h22.341v.17H0z" class="cls-68" data-name="Rectangle 215" transform="translate(0 11)"/>
                </g>
                <g id="Group_140" class="cls-5" data-name="Group 140">
                    <path id="Rectangle_217" d="M0 0h22.341v.17H0z" class="cls-69" data-name="Rectangle 217" transform="translate(0 11.17)"/>
                </g>
                <g id="Group_141" class="cls-5" data-name="Group 141">
                    <path id="Rectangle_219" d="M0 0h22.341v.17H0z" class="cls-70" data-name="Rectangle 219" transform="translate(0 11.341)"/>
                </g>
                <g id="Group_142" class="cls-5" data-name="Group 142">
                    <path id="Rectangle_221" d="M0 0h22.341v.17H0z" class="cls-70" data-name="Rectangle 221" transform="translate(0 11.454)"/>
                </g>
                <g id="Group_143" class="cls-5" data-name="Group 143">
                    <path id="Rectangle_223" d="M0 0h22.341v.17H0z" class="cls-71" data-name="Rectangle 223" transform="translate(0 11.624)"/>
                </g>
                <g id="Group_144" class="cls-5" data-name="Group 144">
                    <path id="Rectangle_225" d="M0 0h22.341v.17H0z" class="cls-72" data-name="Rectangle 225" transform="translate(0 11.737)"/>
                </g>
                <g id="Group_145" class="cls-5" data-name="Group 145">
                    <path id="Rectangle_227" d="M0 0h22.341v.17H0z" class="cls-72" data-name="Rectangle 227" transform="translate(0 11.908)"/>
                </g>
                <g id="Group_146" class="cls-5" data-name="Group 146">
                    <path id="Rectangle_229" d="M0 0h22.341v.17H0z" class="cls-73" data-name="Rectangle 229" transform="translate(0 12.078)"/>
                </g>
                <g id="Group_147" class="cls-5" data-name="Group 147">
                    <path id="Rectangle_231" d="M0 0h22.341v.17H0z" class="cls-74" data-name="Rectangle 231" transform="translate(0 12.191)"/>
                </g>
                <g id="Group_148" class="cls-5" data-name="Group 148">
                    <path id="Rectangle_233" d="M0 0h22.341v.17H0z" class="cls-75" data-name="Rectangle 233" transform="translate(0 12.361)"/>
                </g>
                <g id="Group_149" class="cls-5" data-name="Group 149">
                    <path id="Rectangle_235" d="M0 0h22.341v.17H0z" class="cls-76" data-name="Rectangle 235" transform="translate(0 12.475)"/>
                </g>
                <g id="Group_150" class="cls-5" data-name="Group 150">
                    <path id="Rectangle_237" d="M0 0h22.341v.17H0z" class="cls-77" data-name="Rectangle 237" transform="translate(0 12.645)"/>
                </g>
                <g id="Group_151" class="cls-5" data-name="Group 151">
                    <path id="Rectangle_239" d="M0 0h22.341v.17H0z" class="cls-78" data-name="Rectangle 239" transform="translate(0 12.815)"/>
                </g>
                <g id="Group_152" class="cls-5" data-name="Group 152">
                    <path id="Rectangle_241" d="M0 0h22.341v.17H0z" class="cls-79" data-name="Rectangle 241" transform="translate(0 12.928)"/>
                </g>
                <g id="Group_153" class="cls-5" data-name="Group 153">
                    <path id="Rectangle_243" d="M0 0h22.341v.17H0z" class="cls-79" data-name="Rectangle 243" transform="translate(0 13.098)"/>
                </g>
                <g id="Group_154" class="cls-5" data-name="Group 154">
                    <path id="Rectangle_245" d="M0 0h22.341v.17H0z" class="cls-80" data-name="Rectangle 245" transform="translate(0 13.212)"/>
                </g>
                <g id="Group_155" class="cls-5" data-name="Group 155">
                    <path id="Rectangle_247" d="M0 0h22.341v.17H0z" class="cls-81" data-name="Rectangle 247" transform="translate(0 13.382)"/>
                </g>
                <g id="Group_156" class="cls-5" data-name="Group 156">
                    <path id="Rectangle_249" d="M0 0h22.341v.17H0z" class="cls-82" data-name="Rectangle 249" transform="translate(0 13.552)"/>
                </g>
                <g id="Group_157" class="cls-5" data-name="Group 157">
                    <path id="Rectangle_251" d="M0 0h22.341v.17H0z" class="cls-83" data-name="Rectangle 251" transform="translate(0 13.665)"/>
                </g>
                <g id="Group_158" class="cls-5" data-name="Group 158">
                    <path id="Rectangle_253" d="M0 0h22.341v.17H0z" class="cls-84" data-name="Rectangle 253" transform="translate(0 13.835)"/>
                </g>
                <g id="Group_159" class="cls-5" data-name="Group 159">
                    <path id="Rectangle_255" d="M0 0h22.341v.17H0z" class="cls-85" data-name="Rectangle 255" transform="translate(0 13.949)"/>
                </g>
                <g id="Group_160" class="cls-5" data-name="Group 160">
                    <path id="Rectangle_257" d="M0 0h22.341v.17H0z" class="cls-85" data-name="Rectangle 257" transform="translate(0 14.119)"/>
                </g>
                <g id="Group_161" class="cls-5" data-name="Group 161">
                    <path id="Rectangle_259" d="M0 0h22.341v.17H0z" class="cls-86" data-name="Rectangle 259" transform="translate(0 14.289)"/>
                </g>
                <g id="Group_162" class="cls-5" data-name="Group 162">
                    <path id="Rectangle_261" d="M0 0h22.341v.17H0z" class="cls-87" data-name="Rectangle 261" transform="translate(0 14.402)"/>
                </g>
                <g id="Group_163" class="cls-5" data-name="Group 163">
                    <path id="Rectangle_263" d="M0 0h22.341v.17H0z" class="cls-87" data-name="Rectangle 263" transform="translate(0 14.573)"/>
                </g>
                <g id="Group_164" class="cls-5" data-name="Group 164">
                    <path id="Rectangle_265" d="M0 0h22.341v.17H0z" class="cls-88" data-name="Rectangle 265" transform="translate(0 14.686)"/>
                </g>
                <g id="Group_165" class="cls-5" data-name="Group 165">
                    <path id="Rectangle_267" d="M0 0h22.341v.17H0z" class="cls-89" data-name="Rectangle 267" transform="translate(0 14.856)"/>
                </g>
                <g id="Group_166" class="cls-5" data-name="Group 166">
                    <path id="Rectangle_269" d="M0 0h22.341v.17H0z" class="cls-90" data-name="Rectangle 269" transform="translate(0 15.026)"/>
                </g>
                <g id="Group_167" class="cls-5" data-name="Group 167">
                    <path id="Rectangle_271" d="M0 0h22.341v.17H0z" class="cls-90" data-name="Rectangle 271" transform="translate(0 15.14)"/>
                </g>
                <g id="Group_168" class="cls-5" data-name="Group 168">
                    <path id="Rectangle_273" d="M0 0h22.341v.17H0z" class="cls-91" data-name="Rectangle 273" transform="translate(0 15.31)"/>
                </g>
                <g id="Group_169" class="cls-5" data-name="Group 169">
                    <path id="Rectangle_275" d="M0 0h22.341v.17H0z" class="cls-92" data-name="Rectangle 275" transform="translate(0 15.423)"/>
                </g>
                <g id="Group_170" class="cls-5" data-name="Group 170">
                    <path id="Rectangle_277" d="M0 0h22.341v.17H0z" class="cls-92" data-name="Rectangle 277" transform="translate(0 15.593)"/>
                </g>
                <g id="Group_171" class="cls-5" data-name="Group 171">
                    <path id="Rectangle_279" d="M0 0h22.341v.17H0z" class="cls-93" data-name="Rectangle 279" transform="translate(0 15.763)"/>
                </g>
                <g id="Group_172" class="cls-5" data-name="Group 172">
                    <path id="Rectangle_281" d="M0 0h22.341v.17H0z" class="cls-94" data-name="Rectangle 281" transform="translate(0 15.877)"/>
                </g>
                <g id="Group_173" class="cls-5" data-name="Group 173">
                    <path id="Rectangle_283" d="M0 0h22.341v.17H0z" class="cls-94" data-name="Rectangle 283" transform="translate(0 16.047)"/>
                </g>
                <g id="Group_174" class="cls-5" data-name="Group 174">
                    <path id="Rectangle_285" d="M0 0h22.341v.17H0z" class="cls-95" data-name="Rectangle 285" transform="translate(0 16.16)"/>
                </g>
                <g id="Group_175" class="cls-5" data-name="Group 175">
                    <path id="Rectangle_287" d="M0 0h22.341v.17H0z" class="cls-96" data-name="Rectangle 287" transform="translate(0 16.33)"/>
                </g>
                <g id="Group_176" class="cls-5" data-name="Group 176">
                    <path id="Rectangle_289" d="M0 0h22.341v.17H0z" class="cls-96" data-name="Rectangle 289" transform="translate(0 16.5)"/>
                </g>
                <g id="Group_177" class="cls-5" data-name="Group 177">
                    <path id="Rectangle_291" d="M0 0h22.341v.17H0z" class="cls-97" data-name="Rectangle 291" transform="translate(0 16.614)"/>
                </g>
                <g id="Group_178" class="cls-5" data-name="Group 178">
                    <path id="Rectangle_293" d="M0 0h22.341v.17H0z" class="cls-98" data-name="Rectangle 293" transform="translate(0 16.784)"/>
                </g>
                <g id="Group_179" class="cls-5" data-name="Group 179">
                    <path id="Rectangle_295" d="M0 0h22.341v.17H0z" class="cls-98" data-name="Rectangle 295" transform="translate(0 16.897)"/>
                </g>
                <g id="Group_180" class="cls-5" data-name="Group 180">
                    <path id="Rectangle_297" d="M0 0h22.341v.17H0z" class="cls-99" data-name="Rectangle 297" transform="translate(0 17.068)"/>
                </g>
                <g id="Group_181" class="cls-5" data-name="Group 181">
                    <path id="Rectangle_299" d="M0 0h22.341v.17H0z" class="cls-100" data-name="Rectangle 299" transform="translate(0 17.238)"/>
                </g>
                <g id="Group_182" class="cls-5" data-name="Group 182">
                    <path id="Rectangle_301" d="M0 0h22.341v.17H0z" class="cls-100" data-name="Rectangle 301" transform="translate(0 17.351)"/>
                </g>
                <g id="Group_183" class="cls-5" data-name="Group 183">
                    <path id="Rectangle_303" d="M0 0h22.341v.17H0z" class="cls-101" data-name="Rectangle 303" transform="translate(0 17.521)"/>
                </g>
                <g id="Group_184" class="cls-5" data-name="Group 184">
                    <path id="Rectangle_305" d="M0 0h22.341v.17H0z" class="cls-102" data-name="Rectangle 305" transform="translate(0 17.635)"/>
                </g>
                <g id="Group_185" class="cls-5" data-name="Group 185">
                    <path id="Rectangle_307" d="M0 0h22.341v.17H0z" class="cls-102" data-name="Rectangle 307" transform="translate(0 17.805)"/>
                </g>
                <g id="Group_186" class="cls-5" data-name="Group 186">
                    <path id="Rectangle_309" d="M0 0h22.341v.17H0z" class="cls-103" data-name="Rectangle 309" transform="translate(0 17.975)"/>
                </g>
                <g id="Group_187" class="cls-5" data-name="Group 187">
                    <path id="Rectangle_311" d="M0 0h22.341v.17H0z" class="cls-104" data-name="Rectangle 311" transform="translate(0 18.088)"/>
                </g>
                <g id="Group_188" class="cls-5" data-name="Group 188">
                    <path id="Rectangle_313" d="M0 0h22.341v.17H0z" class="cls-104" data-name="Rectangle 313" transform="translate(0 18.258)"/>
                </g>
                <g id="Group_189" class="cls-5" data-name="Group 189">
                    <path id="Rectangle_315" d="M0 0h22.341v.17H0z" class="cls-105" data-name="Rectangle 315" transform="translate(0 18.372)"/>
                </g>
                <g id="Group_190" class="cls-5" data-name="Group 190">
                    <path id="Rectangle_317" d="M0 0h22.341v.17H0z" class="cls-106" data-name="Rectangle 317" transform="translate(0 18.542)"/>
                </g>
                <g id="Group_191" class="cls-5" data-name="Group 191">
                    <path id="Rectangle_319" d="M0 0h22.341v.17H0z" class="cls-106" data-name="Rectangle 319" transform="translate(0 18.655)"/>
                </g>
                <g id="Group_192" class="cls-5" data-name="Group 192">
                    <path id="Rectangle_321" d="M0 0h22.341v.17H0z" class="cls-107" data-name="Rectangle 321" transform="translate(0 18.825)"/>
                </g>
                <g id="Group_193" class="cls-5" data-name="Group 193">
                    <path id="Rectangle_323" d="M0 0h22.341v.17H0z" class="cls-108" data-name="Rectangle 323" transform="translate(0 18.995)"/>
                </g>
                <g id="Group_194" class="cls-5" data-name="Group 194">
                    <path id="Rectangle_325" d="M0 0h22.341v.17H0z" class="cls-108" data-name="Rectangle 325" transform="translate(0 19.109)"/>
                </g>
                <g id="Group_195" class="cls-5" data-name="Group 195">
                    <path id="Rectangle_327" d="M0 0h22.341v.17H0z" class="cls-109" data-name="Rectangle 327" transform="translate(0 19.279)"/>
                </g>
                <g id="Group_196" class="cls-5" data-name="Group 196">
                    <path id="Rectangle_329" d="M0 0h22.341v.17H0z" class="cls-110" data-name="Rectangle 329" transform="translate(0 19.392)"/>
                </g>
                <g id="Group_197" class="cls-5" data-name="Group 197">
                    <path id="Rectangle_331" d="M0 0h22.341v.17H0z" class="cls-110" data-name="Rectangle 331" transform="translate(0 19.562)"/>
                </g>
                <g id="Group_198" class="cls-5" data-name="Group 198">
                    <path id="Rectangle_333" d="M0 0h22.341v.17H0z" class="cls-111" data-name="Rectangle 333" transform="translate(0 19.733)"/>
                </g>
                <g id="Group_199" class="cls-5" data-name="Group 199">
                    <path id="Rectangle_335" d="M0 0h22.341v.17H0z" class="cls-112" data-name="Rectangle 335" transform="translate(0 19.846)"/>
                </g>
                <g id="Group_200" class="cls-5" data-name="Group 200">
                    <path id="Rectangle_337" d="M0 0h22.341v.17H0z" class="cls-112" data-name="Rectangle 337" transform="translate(0 20.016)"/>
                </g>
                <g id="Group_201" class="cls-5" data-name="Group 201">
                    <path id="Rectangle_339" d="M0 0h22.341v.17H0z" class="cls-113" data-name="Rectangle 339" transform="translate(0 20.129)"/>
                </g>
                <g id="Group_202" class="cls-5" data-name="Group 202">
                    <path id="Rectangle_341" d="M0 0h22.341v.17H0z" class="cls-114" data-name="Rectangle 341" transform="translate(0 20.3)"/>
                </g>
                <g id="Group_203" class="cls-5" data-name="Group 203">
                    <path id="Rectangle_343" d="M0 0h22.341v.17H0z" class="cls-114" data-name="Rectangle 343" transform="translate(0 20.47)"/>
                </g>
                <g id="Group_204" class="cls-5" data-name="Group 204">
                    <path id="Rectangle_345" d="M0 0h22.341v.17H0z" class="cls-115" data-name="Rectangle 345" transform="translate(0 20.583)"/>
                </g>
                <g id="Group_205" class="cls-5" data-name="Group 205">
                    <path id="Rectangle_347" d="M0 0h22.341v.17H0z" class="cls-116" data-name="Rectangle 347" transform="translate(0 20.753)"/>
                </g>
                <g id="Group_206" class="cls-5" data-name="Group 206">
                    <path id="Rectangle_349" d="M0 0h22.341v.17H0z" class="cls-116" data-name="Rectangle 349" transform="translate(0 20.867)"/>
                </g>
                <g id="Group_207" class="cls-5" data-name="Group 207">
                    <path id="Rectangle_351" d="M0 0h22.341v.17H0z" class="cls-117" data-name="Rectangle 351" transform="translate(0 21.037)"/>
                </g>
                <g id="Group_208" class="cls-5" data-name="Group 208">
                    <path id="Rectangle_353" d="M0 0h22.341v.17H0z" class="cls-117" data-name="Rectangle 353" transform="translate(0 21.207)"/>
                </g>
                <g id="Group_209" class="cls-5" data-name="Group 209">
                    <path id="Rectangle_355" d="M0 0h22.341v.17H0z" class="cls-118" data-name="Rectangle 355" transform="translate(0 21.32)"/>
                </g>
                <g id="Group_210" class="cls-5" data-name="Group 210">
                    <path id="Rectangle_357" d="M0 0h22.341v.17H0z" class="cls-119" data-name="Rectangle 357" transform="translate(0 21.49)"/>
                </g>
                <g id="Group_211" class="cls-5" data-name="Group 211">
                    <path id="Rectangle_359" d="M0 0h22.341v.17H0z" class="cls-119" data-name="Rectangle 359" transform="translate(0 21.604)"/>
                </g>
                <g id="Group_212" class="cls-5" data-name="Group 212">
                    <path id="Rectangle_361" d="M0 0h22.341v.17H0z" class="cls-120" data-name="Rectangle 361" transform="translate(0 21.774)"/>
                </g>
                <g id="Group_213" class="cls-5" data-name="Group 213">
                    <path id="Rectangle_363" d="M0 0h22.341v.17H0z" class="cls-121" data-name="Rectangle 363" transform="translate(0 21.944)"/>
                </g>
                <g id="Group_214" class="cls-5" data-name="Group 214">
                    <path id="Rectangle_365" d="M0 0h22.341v.17H0z" class="cls-121" data-name="Rectangle 365" transform="translate(0 22.057)"/>
                </g>
                <g id="Group_215" class="cls-5" data-name="Group 215">
                    <path id="Rectangle_367" d="M0 0h22.341v.17H0z" class="cls-122" data-name="Rectangle 367" transform="translate(0 22.227)"/>
                </g>
                <g id="Group_216" class="cls-5" data-name="Group 216">
                    <path id="Rectangle_369" d="M0 0h22.341v.17H0z" class="cls-122" data-name="Rectangle 369" transform="translate(0 22.341)"/>
                </g>
                <g id="Group_217" class="cls-5" data-name="Group 217">
                    <path id="Path_64" d="M21.1 77.3z" class="cls-123" data-name="Path 64" transform="translate(-21.1 -54.789)"/>
                </g>
            </g>
        </g>
    </g>
</svg>
