<svg xmlns="http://www.w3.org/2000/svg" id="Group_464" width="44.737" height="45.938" data-name="Group 464" viewBox="0 0 44.737 45.938">
    <defs>
        <style>
            .cls-1,.cls-2{fill:#9b2928}.cls-2{fill-rule:evenodd}
        </style>
    </defs>
    <path id="Path_2466" d="M-159.474-495.639l-3.644-.786.117-.564.552.119a1.558 1.558 0 0 1-.427-.51.726.726 0 0 1-.04-.429 1.263 1.263 0 0 1 .334-.6l.529.34a.9.9 0 0 0-.231.43.62.62 0 0 0 .044.4.682.682 0 0 0 .29.306 2.42 2.42 0 0 0 .7.26l1.908.412zm-2.23.946a4.78 4.78 0 0 1-.146 1.064 2.406 2.406 0 0 0-.08.568.554.554 0 0 0 .1.311.536.536 0 0 0 .248.192.531.531 0 0 0 .462-.028.834.834 0 0 0 .357-.469 1.34 1.34 0 0 0 .084-.673 1.008 1.008 0 0 0-.259-.555 1.513 1.513 0 0 0-.552-.326zm1.336.463a2.47 2.47 0 0 1 .151.793 2.028 2.028 0 0 1-.136.705 1.371 1.371 0 0 1-.618.786.979.979 0 0 1-.833.033 1.01 1.01 0 0 1-.423-.3 1.037 1.037 0 0 1-.222-.44 1.574 1.574 0 0 1-.031-.507 4.583 4.583 0 0 1 .112-.566 5.871 5.871 0 0 0 .2-1.147l-.152-.063a.685.685 0 0 0-.572-.027 1.062 1.062 0 0 0-.457.6 1.154 1.154 0 0 0-.091.681.969.969 0 0 0 .4.5l-.3.554a1.547 1.547 0 0 1-.5-.5 1.247 1.247 0 0 1-.151-.665 2.565 2.565 0 0 1 .18-.849 2.292 2.292 0 0 1 .382-.693 1.046 1.046 0 0 1 .422-.314.994.994 0 0 1 .472-.029 3.6 3.6 0 0 1 .555.182l.786.306a8.566 8.566 0 0 0 1.054.367 1.392 1.392 0 0 0 .475.012l-.237.626a1.316 1.316 0 0 1-.466-.045zm-2.295 6l-4.5-2.532.306-.561 1.614.909a1.455 1.455 0 0 1 .093-1.244 1.52 1.52 0 0 1 .492-.557.94.94 0 0 1 .606-.166 2.063 2.063 0 0 1 .794.293l2.065 1.162-.306.562-2.066-1.163a.962.962 0 0 0-.7-.157.765.765 0 0 0-.471.409 1.059 1.059 0 0 0-.128.541.837.837 0 0 0 .175.507 1.8 1.8 0 0 0 .55.432l1.783 1zm-1.03 1.28l-2.936-2.329.389-.506 2.936 2.329zm-3.48-2.761l-.573-.454.389-.506.573.454zm1.773 4.721l-3.691-1.527.455-.5 2.177.951q.352.154.712.343c-.105-.178-.225-.4-.358-.665l-1.1-2.189.442-.482 1.763 3.627zm-3.124.3a4.652 4.652 0 0 1-.65.847 2.406 2.406 0 0 0-.349.451.551.551 0 0 0-.064.322.549.549 0 0 0 .119.293.54.54 0 0 0 .414.21.82.82 0 0 0 .54-.225 1.318 1.318 0 0 0 .4-.54 1.017 1.017 0 0 0 .05-.612 1.549 1.549 0 0 0-.318-.563zm.929 1.079a2.445 2.445 0 0 1-.26.764 1.984 1.984 0 0 1-.465.541 1.34 1.34 0 0 1-.921.367.988.988 0 0 1-.738-.394 1.023 1.023 0 0 1-.218-.475 1.048 1.048 0 0 1 .025-.494 1.569 1.569 0 0 1 .223-.454 4.447 4.447 0 0 1 .375-.433 5.786 5.786 0 0 0 .739-.892l-.1-.132a.694.694 0 0 0-.482-.315 1.041 1.041 0 0 0-.693.29 1.139 1.139 0 0 0-.414.544.987.987 0 0 0 .1.637l-.533.327a1.577 1.577 0 0 1-.187-.681 1.241 1.241 0 0 1 .2-.654 2.522 2.522 0 0 1 .574-.644 2.226 2.226 0 0 1 .673-.406 1.018 1.018 0 0 1 .519-.058 1 1 0 0 1 .423.213 3.743 3.743 0 0 1 .391.44l.53.664a8.786 8.786 0 0 0 .732.852 1.39 1.39 0 0 0 .405.252l-.513.422a1.343 1.343 0 0 1-.385-.277zm-4.135 4.9l-.341-.5a1.4 1.4 0 0 0 .346-.122.69.69 0 0 0 .264-.224.582.582 0 0 0 .091-.275 3.056 3.056 0 0 0-.05-.513l-.023-.165-3-2.672.6-.324 1.7 1.563c.217.2.432.413.643.645a9.13 9.13 0 0 1-.169-.885l-.316-2.326.557-.3.528 4.072a7.767 7.767 0 0 1 .084.927 1.281 1.281 0 0 1-.126.593.919.919 0 0 1-.39.379 1.249 1.249 0 0 1-.398.129zm-4.679-1.842a1.642 1.642 0 0 0 .634.928.9.9 0 0 0 .789.1.9.9 0 0 0 .554-.558 1.6 1.6 0 0 0-.062-1.088 1.776 1.776 0 0 0-.644-.979.891.891 0 0 0-.8-.1.883.883 0 0 0-.553.562 1.75 1.75 0 0 0 .082 1.137zm2.493 1.125l-.153-.452a1.167 1.167 0 0 1-.8.876 1.435 1.435 0 0 1-.855.035 1.606 1.606 0 0 1-.772-.467 2.412 2.412 0 0 1-.523-.9 2.744 2.744 0 0 1-.154-1.033 1.5 1.5 0 0 1 .3-.852 1.49 1.49 0 0 1 .708-.508 1.221 1.221 0 0 1 .612-.061 1.245 1.245 0 0 1 .526.213l-.6-1.771.594-.207 1.674 4.937zm-3.862 1.082l-.711-3.713.621-.123.711 3.713zm-.843-4.4l-.138-.724.62-.122.139.724zm-2.2 4.753l-2.434-5.026.735-.066 1.657 3.661q.2.44.342.828.083-.436.2-.876l1.058-3.9.692-.061-1.558 5.38zm-5.606-2.38a4.566 4.566 0 0 1-1.057-.055 2.316 2.316 0 0 0-.564-.032.533.533 0 0 0-.3.132.54.54 0 0 0-.168.267.555.555 0 0 0 .068.465.821.821 0 0 0 .491.32 1.287 1.287 0 0 0 .668.026.985.985 0 0 0 .522-.31 1.542 1.542 0 0 0 .272-.588zm-.339 1.391a2.374 2.374 0 0 1-.765.222 1.936 1.936 0 0 1-.7-.076 1.357 1.357 0 0 1-.825-.556 1.02 1.02 0 0 1-.1-.84 1.027 1.027 0 0 1 .257-.454 1.029 1.029 0 0 1 .413-.263 1.527 1.527 0 0 1 .495-.075 4.377 4.377 0 0 1 .565.065 5.633 5.633 0 0 0 1.143.1l.049-.159a.715.715 0 0 0-.023-.581 1.05 1.05 0 0 0-.632-.41 1.106 1.106 0 0 0-.675-.033.969.969 0 0 0-.454.453l-.57-.256a1.558 1.558 0 0 1 .442-.547 1.2 1.2 0 0 1 .64-.21 2.447 2.447 0 0 1 .849.108 2.208 2.208 0 0 1 .713.327 1.05 1.05 0 0 1 .345.4 1.037 1.037 0 0 1 .07.474 3.8 3.8 0 0 1-.131.577l-.232.821a9.038 9.038 0 0 0-.268 1.1 1.434 1.434 0 0 0 .03.482l-.635-.185a1.384 1.384 0 0 1 0-.483zm-6.427-.385l.186-.576a1.436 1.436 0 0 0 .3.208.69.69 0 0 0 .335.079.549.549 0 0 0 .271-.092 2.893 2.893 0 0 0 .373-.349c.026-.028.064-.066.116-.118l.3-4.041.617.292-.208 2.317c-.026.3-.064.6-.12.91a8.62 8.62 0 0 1 .594-.669l1.639-1.656.572.271-2.886 2.879a7.508 7.508 0 0 1-.678.626 1.237 1.237 0 0 1-.543.255.9.9 0 0 1-.533-.088 1.264 1.264 0 0 1-.333-.247zm-.766-2.144l1.863-3.276.548.321-1.863 3.276zm2.208-3.883l.363-.639.548.321-.363.639zm-2.361 1.508a4.583 4.583 0 0 1-.952-.47 2.38 2.38 0 0 0-.507-.253.529.529 0 0 0-.323 0 .534.534 0 0 0-.257.18.557.557 0 0 0-.116.455.842.842 0 0 0 .329.49 1.3 1.3 0 0 0 .6.289.974.974 0 0 0 .6-.078 1.524 1.524 0 0 0 .476-.433zm-.846 1.146a2.362 2.362 0 0 1-.791-.1 1.963 1.963 0 0 1-.618-.349 1.378 1.378 0 0 1-.545-.839 1.019 1.019 0 0 1 .226-.815 1.014 1.014 0 0 1 .412-.316 1.013 1.013 0 0 1 .481-.078 1.535 1.535 0 0 1 .484.127 4.562 4.562 0 0 1 .5.284 5.73 5.73 0 0 0 1.013.548l.106-.127a.709.709 0 0 0 .2-.544 1.064 1.064 0 0 0-.423-.628 1.112 1.112 0 0 0-.61-.3.947.947 0 0 0-.592.236l-.426-.461a1.521 1.521 0 0 1 .617-.328 1.19 1.19 0 0 1 .67.06 2.475 2.475 0 0 1 .74.436 2.267 2.267 0 0 1 .531.583 1.069 1.069 0 0 1 .164.5 1.038 1.038 0 0 1-.118.465 3.687 3.687 0 0 1-.342.479l-.53.665a8.719 8.719 0 0 0-.669.9 1.434 1.434 0 0 0-.158.455l-.513-.422a1.354 1.354 0 0 1 .193-.431zm-6.216-5.72l2.854-2.431.362.438-.4.341a1.309 1.309 0 0 1 .637.077 1.307 1.307 0 0 1 .555.406 1.24 1.24 0 0 1 .3.64.941.941 0 0 1-.127.6 1.329 1.329 0 0 1 1.239.47 1.162 1.162 0 0 1 .313.864 1.338 1.338 0 0 1-.532.849l-1.96 1.669-.4-.488 1.8-1.532a1.755 1.755 0 0 0 .379-.4.557.557 0 0 0 .062-.348.719.719 0 0 0-.166-.362.875.875 0 0 0-.62-.336 1.139 1.139 0 0 0-.807.343l-1.659 1.413-.405-.491 1.854-1.579a1.077 1.077 0 0 0 .385-.533.6.6 0 0 0-.164-.53.9.9 0 0 0-.424-.291.775.775 0 0 0-.525.012 2.3 2.3 0 0 0-.663.429l-1.481 1.262zm.061-4.072a1.6 1.6 0 0 0-.813.776 1.028 1.028 0 0 0 .039.875 1 1 0 0 0 .674.544 1.61 1.61 0 0 0 1.114-.222 1.547 1.547 0 0 0 .791-.766 1.028 1.028 0 0 0-.037-.871 1.008 1.008 0 0 0-.673-.547 1.559 1.559 0 0 0-1.093.211zm-.294-.587a1.891 1.891 0 0 1 1.627-.186 1.747 1.747 0 0 1 .9.869 1.716 1.716 0 0 1 .121 1.369 1.926 1.926 0 0 1-1.018 1.082 2.436 2.436 0 0 1-1.106.327 1.513 1.513 0 0 1-.856-.272 1.851 1.851 0 0 1-.612-.71 1.722 1.722 0 0 1-.127-1.375 2.014 2.014 0 0 1 1.073-1.104zm-1.432-4.216l.221.615a1.412 1.412 0 0 0-.557.374 1.188 1.188 0 0 0-.252.612 2.02 2.02 0 0 0 .057.814 1.95 1.95 0 0 0 .289.644.966.966 0 0 0 .422.352.727.727 0 0 0 .464.027.664.664 0 0 0 .372-.25 1.055 1.055 0 0 0 .173-.533 9.346 9.346 0 0 0 .006-.965 4.88 4.88 0 0 1 .053-1.058 1.43 1.43 0 0 1 .321-.665 1.175 1.175 0 0 1 .572-.344 1.286 1.286 0 0 1 .759.025 1.376 1.376 0 0 1 .665.5 2.519 2.519 0 0 1 .413.88 2.652 2.652 0 0 1 .083 1.038 1.49 1.49 0 0 1-.349.8 1.57 1.57 0 0 1-.718.461l-.216-.627a1.061 1.061 0 0 0 .619-.543 1.426 1.426 0 0 0 .009-.944 1.468 1.468 0 0 0-.452-.824.669.669 0 0 0-.6-.134.585.585 0 0 0-.389.316 2.773 2.773 0 0 0-.088 1.1 7.129 7.129 0 0 1-.022 1.2 1.6 1.6 0 0 1-.335.788 1.275 1.275 0 0 1-.651.4 1.378 1.378 0 0 1-.808-.027 1.563 1.563 0 0 1-.721-.514 2.4 2.4 0 0 1-.45-.919 3.021 3.021 0 0 1-.107-1.2 1.673 1.673 0 0 1 .4-.888 1.723 1.723 0 0 1 .818-.511z" class="cls-1" data-name="Path 2466" transform="translate(204.08 523.931)"/>
    <path id="Path_2467" d="M-166.12-520.117q.333-.389.659-.775.361-.461.263-.753a1.166 1.166 0 0 0-.188-.354.886.886 0 0 0-.327-.25l-.412.448a4.066 4.066 0 0 1 .318.277.69.69 0 0 1 .16.192q.021.062-.084.224-.324.463-.648.919zm3.578-3.3l.167.422-2.527 1.043-.172.8 2.947-1.216.194.49.567-.234-.609-1.539zm-.9-1.829l.289.533-.786.446-.143-.264a.094.094 0 0 0-.093-.043.3.3 0 0 0-.145.044.443.443 0 0 0-.227.263l-.222.713a.43.43 0 0 0-.013.15.323.323 0 0 0 .027.119.207.207 0 0 0 .122.1.178.178 0 0 0 .149-.013l.264-.15.425.784.6-.339-.425-.783.786-.445.286.527.535-.3-.892-1.644zm-.783-1.221l.236.386-2.311 1.475-.034.818 2.7-1.721.274.448.519-.331-.861-1.407zm-.322-.486l.285.36.475-.393-1.027-1.3-.475.393.416.525a.22.22 0 0 1 .009.168.349.349 0 0 1-.113.155.475.475 0 0 1-.27.109.263.263 0 0 1-.242-.1l-.19-.24a.349.349 0 0 0-.179.091 1.406 1.406 0 0 0-.441.715.918.918 0 0 0 .109.873 1.244 1.244 0 0 0 .645.44l.637-.527a1.083 1.083 0 0 1-.505-.106 1.093 1.093 0 0 1-.4-.309.393.393 0 0 1-.079-.2.19.19 0 0 1 .062-.184.6.6 0 0 0 .488.126 1.052 1.052 0 0 0 .515-.237.93.93 0 0 0 .279-.359zm-2.14-1.469a.574.574 0 0 0-.507-.155 1.048 1.048 0 0 0-.6.372 1.483 1.483 0 0 0-.283.805 4.787 4.787 0 0 0 0 1.159l.269.126a3.054 3.054 0 0 1 .334-1.68.485.485 0 0 1 .3-.177.333.333 0 0 1 .273.1q.168.16.065.273l-.407.446.216.527.473-.518a.264.264 0 0 1 .2-.092.292.292 0 0 1 .207.085.522.522 0 0 1 .124.188.8.8 0 0 0 .132-.371.369.369 0 0 0-.1-.322l-.053-.05a.341.341 0 0 0-.224-.094.462.462 0 0 0-.255.058.71.71 0 0 0 .01-.323.63.63 0 0 0-.174-.356zm.182-1.524l-.417.457 1.457 1.387.417-.457zm-1.71-.536l.351.28-1.678 2.194.243.781 1.956-2.558.408.326.377-.492-1.281-1.022zm-.867-1.307l-.324.53 1.189.759.324-.53zm.473 2.485a1.115 1.115 0 0 1-.875-.082q-.183-.117-.113-.272a.429.429 0 0 1 .461-.178 1.477 1.477 0 0 1 .62.227l.041-.606a1.162 1.162 0 0 0-.766-.225.739.739 0 0 0-.551.38.9.9 0 0 0-.094.715.94.94 0 0 0 .4.592.764.764 0 0 0 .224.1.606.606 0 0 0 .244.009zm-2.795-1.96l-.376.753a.979.979 0 0 1 .391-.056.877.877 0 0 1 .339.1.381.381 0 0 1 .09.2.337.337 0 0 1-.035.192.688.688 0 0 1-.263.268 1.191 1.191 0 0 1-.377.158.492.492 0 0 0-.066.263.358.358 0 0 0 .223.264.387.387 0 0 0 .433-.075 1.406 1.406 0 0 0 .394-.5 1.262 1.262 0 0 0 .105-.811.933.933 0 0 0-.49-.7.454.454 0 0 0-.364-.055zm.663-.6l1.25.65.278-.557-1.25-.65zm-.956-2.032q-.156-.183-.274-.31a1.559 1.559 0 0 0-.375-.331l-.65-.3.07.779.4.182a3.288 3.288 0 0 1 .631.448 1.751 1.751 0 0 1 .483.517l.46.209q-.107-.676-.2-1.135a9.9 9.9 0 0 0-.278-1.131q-.165-.525-.322-.6l-.65-.3.066.786.2.092a1.64 1.64 0 0 1 .268.613c.087.257.143.413.168.477zm-.614 1.36l.419.156-.932 2.616.467.666 1.087-3.051.487.181.209-.587-1.527-.568zm.011.042l.168-.6-1.362-.4-.168.6zm-.037 1.2a1.212 1.212 0 0 1-.811.145.284.284 0 0 1-.2-.373q.067-.24.9-.225l-.065-.569a1.712 1.712 0 0 0-.8.132.823.823 0 0 0-.472.534 1.056 1.056 0 0 0 .139.679.872.872 0 0 0 .524.425.985.985 0 0 0 .274.038 1.039 1.039 0 0 0 .306-.052zm-3.546 1.988a.865.865 0 0 0-.177-.62.75.75 0 0 0-.562-.279 1.045 1.045 0 0 0-.472.058.83.83 0 0 0-.362.339l.327.487a1.166 1.166 0 0 1 .3-.314.439.439 0 0 1 .262-.088.282.282 0 0 1 .2.1.283.283 0 0 1 .072.211.4.4 0 0 1-.136.3.693.693 0 0 1-.5.112 1.232 1.232 0 0 1-.74-.465 3.732 3.732 0 0 1-.507-.7l-.388-.028q.5.766.516.78a2.937 2.937 0 0 0 .549.606 1.245 1.245 0 0 0 .687.278.864.864 0 0 0 .662-.188.834.834 0 0 0 .269-.595zm-1.564-3.956h.447v2.784l.662.463v-3.247h.518v-.624h-1.626zm.061-.1l-.042-.623-1.622.116.043.623zm-.919.684a.444.444 0 0 0-.349.22.812.812 0 0 0-.113.513 1.822 1.822 0 0 0 .3.862 6.169 6.169 0 0 0 .777.924l.276-.189a3.028 3.028 0 0 1-.6-.668 1.415 1.415 0 0 1-.27-.625.361.361 0 0 1 .066-.244.315.315 0 0 1 .248-.117l.954-.068-.048-.7zm-4.188.238l.428-.125.752 2.676.761.258-.876-3.121.5-.145-.168-.6-1.563.458zm-1.521-.008l.229.579 1.3-.537-.229-.579zm2.245 1.069a1.15 1.15 0 0 1-.578.675c-.133.055-.228.033-.282-.066a.448.448 0 0 1 .13-.485 1.486 1.486 0 0 1 .544-.379l-.457-.39a1.188 1.188 0 0 0-.628.5.769.769 0 0 0-.022.679.87.87 0 0 0 .511.5.9.9 0 0 0 .707.013.793.793 0 0 0 .21-.126.636.636 0 0 0 .151-.2zm-2.681-.887a6.239 6.239 0 0 0-1.25-.646 1.376 1.376 0 0 0-.9-.137l-.65.3.614.469.4-.182a.876.876 0 0 1 .558.016 3.23 3.23 0 0 1 .823.37zm-.871 1.8a.561.561 0 0 0-.21.425 1.144 1.144 0 0 0 .164.567 1.352 1.352 0 0 0 .7.6 1.029 1.029 0 0 0 .94-.011l.147-.108a2.125 2.125 0 0 1 .292.129.555.555 0 0 1 .221.21l.446-.253a5.944 5.944 0 0 0-.2-.172.894.894 0 0 0-.423-.189 1.173 1.173 0 0 0 .06-.315.526.526 0 0 0-.072-.208 1.064 1.064 0 0 0-.236-.328.38.38 0 0 0-.447.009.472.472 0 0 0-.209.257.369.369 0 0 0 .011.317.357.357 0 0 0 .164.151.374.374 0 0 1-.118.1.532.532 0 0 1-.448.031.561.561 0 0 1-.334-.244.558.558 0 0 1-.06-.314.312.312 0 0 1 .164-.266l.83-.47-.551-1.015.522-.3-.3-.546-2.32 1.314.3.546 1.29-.73.258.475zm-2.386 1.118l.351-.281 1.678 2.194.8-.051-1.957-2.558.408-.326-.377-.492-1.28 1.022zm-1.155 1.109l.321-.316 1.893 2 .79-.136-2.208-2.336.372-.367-.425-.449-1.169 1.153zm-.339 1.415a.289.289 0 0 0-.05.221.357.357 0 0 0 .114.243.221.221 0 0 0 .171.059l.9.019a.324.324 0 0 0 .245-.081c.032-.036.036-.066.011-.089l-.5-.462.736-.835-.449-.413zm-1.26-.547l.454.418 1.14-1.294-.454-.417zm-.491 1.84l.262-.368 2.2 1.636.756-.275-2.572-1.908.3-.428-.495-.367-.955 1.343zm-.772 1.338l.23-.391 2.336 1.434.729-.341-2.725-1.672.267-.454-.524-.322-.837 1.423zm-1.482 2.1l.571.223.765-2.036-.571-.224zm2.967-.127a.659.659 0 0 0-.427.4.473.473 0 0 0-.008.339.381.381 0 0 0 .234.229.31.31 0 0 0 .331-.052.81.81 0 0 0 .238-.355l.057-.151.647-.226-.026-.4-.582.134a.938.938 0 0 0-.12-.492.649.649 0 0 0-.328-.306.7.7 0 0 0-.671.186 2.242 2.242 0 0 0-.518.56l.525-1.4-.557-.219-.58 1.543a.507.507 0 0 0-.01.334.324.324 0 0 0 .193.225q.349.137.867-.349t.651-.433a.191.191 0 0 1 .12.165.541.541 0 0 1-.036.26z" class="cls-1" data-name="Path 2467" transform="translate(199.563 540.184)"/>
    <path id="Path_2468" d="M-162.053-527.228l.257.5a.4.4 0 0 0-.182.216.492.492 0 0 0 .019.315.543.543 0 0 0 .177.279.17.17 0 0 0 .161.022.145.145 0 0 0 .085-.072.451.451 0 0 0 .009-.2 3.034 3.034 0 0 1-.021-.892.537.537 0 0 1 .36-.389.564.564 0 0 1 .494.054 1 1 0 0 1 .386.569 1.184 1.184 0 0 1 .075.651.716.716 0 0 1-.294.406l-.257-.462a.322.322 0 0 0 .133-.181.473.473 0 0 0-.025-.274.6.6 0 0 0-.158-.276.127.127 0 0 0-.124-.022.12.12 0 0 0-.076.085 2.1 2.1 0 0 0 .021.54 1.567 1.567 0 0 1-.031.665.509.509 0 0 1-.328.3.612.612 0 0 1-.538-.067 1.06 1.06 0 0 1-.421-.606 1.188 1.188 0 0 1-.056-.7.8.8 0 0 1 .334-.461m.287-1.083a.534.534 0 0 0 .275-.267.39.39 0 0 0-.008-.314.38.38 0 0 0-.243-.216.493.493 0 0 0-.368.046zm-.513.208l.148.54a.876.876 0 0 1-.552-.11.974.974 0 0 1-.381-.454.951.951 0 0 1-.018-.883 1.187 1.187 0 0 1 .558-.493 1.125 1.125 0 0 1 .841-.1.888.888 0 0 1 .55.5.943.943 0 0 1 .031.8 1.354 1.354 0 0 1-.736.634l-.578-1.258a.554.554 0 0 0-.286.283.426.426 0 0 0 .01.348.338.338 0 0 0 .154.168.425.425 0 0 0 .259.028zm.533-2.216l-.376.221-.186-.328-.72.422a1.978 1.978 0 0 0-.249.159.122.122 0 0 0-.036.077.162.162 0 0 0 .022.1.719.719 0 0 0 .155.167l-.343.255a1.094 1.094 0 0 1-.286-.338.7.7 0 0 1-.09-.258.4.4 0 0 1 .024-.218.514.514 0 0 1 .146-.176 2.741 2.741 0 0 1 .325-.211l.778-.456-.125-.22.376-.221.125.22.355-.209.55.32-.631.37zm-2.013-1.269q-.086-.07-.251-.237a1.012 1.012 0 0 0-.241-.2.226.226 0 0 0-.219.015.271.271 0 0 0-.12.182.308.308 0 0 0 .048.232.478.478 0 0 0 .235.187.332.332 0 0 0 .222.011 1.044 1.044 0 0 0 .234-.129zm-.026-.867l-.2-.471a.76.76 0 0 1 .528 0 1.063 1.063 0 0 1 .451.436 1.337 1.337 0 0 1 .223.512.559.559 0 0 1-.047.336 1.132 1.132 0 0 1-.369.332l-.538.347a2.157 2.157 0 0 0-.322.244 1.148 1.148 0 0 0-.178.237l-.294-.461c.023-.032.058-.077.106-.133a.616.616 0 0 0 .043-.052.986.986 0 0 1-.334-.141.867.867 0 0 1-.242-.253.722.722 0 0 1-.129-.523.582.582 0 0 1 .267-.4.578.578 0 0 1 .307-.1.533.533 0 0 1 .3.083 1.875 1.875 0 0 1 .343.3 2.992 2.992 0 0 0 .4.377l.045-.03a.29.29 0 0 0 .146-.191.483.483 0 0 0-.1-.286.386.386 0 0 0-.172-.161.388.388 0 0 0-.234-.002zm-2.062-.372l-.344-.43 1.6-1.318.319.4-.228.187a.874.874 0 0 1 .36.01.431.431 0 0 1 .2.144.707.707 0 0 1 .146.35l-.475.171a.5.5 0 0 0-.092-.259.3.3 0 0 0-.171-.113.42.42 0 0 0-.256.047 3.248 3.248 0 0 0-.566.406zm-.127-2a.538.538 0 0 0 .175-.343.386.386 0 0 0-.109-.295.377.377 0 0 0-.3-.123.5.5 0 0 0-.334.165zm-.418.367l.312.461a.88.88 0 0 1-.558.079.967.967 0 0 1-.506-.3.944.944 0 0 1-.3-.83 1.2 1.2 0 0 1 .369-.65 1.13 1.13 0 0 1 .764-.371.874.874 0 0 1 .679.29.937.937 0 0 1 .286.745 1.376 1.376 0 0 1-.493.843l-.95-1a.562.562 0 0 0-.18.362.425.425 0 0 0 .121.326.332.332 0 0 0 .2.108.428.428 0 0 0 .257-.065zm-2.116-2.511a.907.907 0 0 0-.212.442.443.443 0 0 0 .163.41.38.38 0 0 0 .337.069.762.762 0 0 0 .4-.31.821.821 0 0 0 .212-.488.411.411 0 0 0-.162-.33.408.408 0 0 0-.35-.082.7.7 0 0 0-.387.286zm-1.088.522l1.752-2.278.43.341-.631.82a.762.762 0 0 1 .648.144.822.822 0 0 1 .323.609 1.157 1.157 0 0 1-.288.781 1.192 1.192 0 0 1-.7.494.775.775 0 0 1-.656-.154.768.768 0 0 1-.22-.288.857.857 0 0 1-.073-.395l-.186.243zm-.871-.616l1.092-1.776.463.293-1.088 1.774zm1.241-2.017l.268-.435.462.293-.268.435zm-3.327.761l1.369-2.508.5.283-1.136 2.082 1.25.7-.233.426zm-1.575-1.973a.542.542 0 0 0 0-.387.378.378 0 0 0-.231-.208.374.374 0 0 0-.321.034.511.511 0 0 0-.218.305zm-.2.523l.489.258a.892.892 0 0 1-.456.336.953.953 0 0 1-.586-.027.926.926 0 0 1-.649-.589 1.218 1.218 0 0 1 .025-.75 1.153 1.153 0 0 1 .5-.692.868.868 0 0 1 .734-.068.92.92 0 0 1 .6.522 1.392 1.392 0 0 1-.045.98l-1.3-.429a.568.568 0 0 0 .009.406.413.413 0 0 0 .257.229.332.332 0 0 0 .227 0 .438.438 0 0 0 .196-.179zm-1.893.1l-.532-.125.237-1.041a1.669 1.669 0 0 0 .063-.436.314.314 0 0 0-.077-.177.327.327 0 0 0-.172-.1.428.428 0 0 0-.265.019.4.4 0 0 0-.2.168 1.819 1.819 0 0 0-.147.46l-.21.924-.531-.125.464-2.041.493.116-.069.3a.82.82 0 0 1 .741-.191.829.829 0 0 1 .307.14.563.563 0 0 1 .182.216.62.62 0 0 1 .052.251 1.7 1.7 0 0 1-.052.37zm-3.706-1.69a.7.7 0 0 0 .113.486.459.459 0 0 0 .347.191.453.453 0 0 0 .368-.14.707.707 0 0 0 .178-.47.7.7 0 0 0-.112-.482.457.457 0 0 0-.346-.191.459.459 0 0 0-.37.14.7.7 0 0 0-.177.461zm-.556-.069a1.155 1.155 0 0 1 .17-.524.927.927 0 0 1 .406-.366 1.114 1.114 0 0 1 .557-.1 1.026 1.026 0 0 1 .744.362 1.081 1.081 0 0 1 .245.8 1.088 1.088 0 0 1-.355.764 1.009 1.009 0 0 1-.78.258 1.185 1.185 0 0 1-.531-.168.889.889 0 0 1-.364-.409 1.292 1.292 0 0 1-.091-.622zm-1.091 1.068l.049-2.891.545.01-.049 2.891zm-1.4-1.072l-.465-1.042-.31 1.1zm1.134 1.066l-.624.044-.294-.638-1.135.081-.189.672-.608.043.908-2.963.606-.043zm-4.792-.572a.535.535 0 0 0-.211-.322.37.37 0 0 0-.306-.047.382.382 0 0 0-.251.206.519.519 0 0 0-.019.377zm.113.549l.549-.054a.917.917 0 0 1-.2.534.966.966 0 0 1-.506.3.911.911 0 0 1-.86-.135 1.2 1.2 0 0 1-.381-.644 1.173 1.173 0 0 1 .051-.859.884.884 0 0 1 .579-.463.9.9 0 0 1 .78.108 1.377 1.377 0 0 1 .487.847l-1.321.359a.561.561 0 0 0 .225.336.407.407 0 0 0 .339.05.332.332 0 0 0 .19-.124.449.449 0 0 0 .067-.259zm-3.239.64a.75.75 0 0 0 .291.409.386.386 0 0 0 .347.03.436.436 0 0 0 .26-.271.7.7 0 0 0-.037-.489.728.728 0 0 0-.294-.4.409.409 0 0 0-.367-.026.406.406 0 0 0-.247.262.738.738 0 0 0 .046.481zm-.022 1.324l.609-.155a.216.216 0 0 0 .12.116.4.4 0 0 0 .249-.033.642.642 0 0 0 .277-.178.273.273 0 0 0 .052-.171.855.855 0 0 0-.066-.247l-.108-.285a.748.748 0 0 1-.457.542.751.751 0 0 1-.74-.094 1.213 1.213 0 0 1-.425-.586 1.171 1.171 0 0 1-.051-.842.811.811 0 0 1 .481-.485.744.744 0 0 1 .71.089l-.1-.274.477-.186.663 1.755a1.9 1.9 0 0 1 .139.539.7.7 0 0 1-.056.33.772.772 0 0 1-.214.258 1.525 1.525 0 0 1-.407.222 1.172 1.172 0 0 1-.759.1.566.566 0 0 1-.368-.352.363.363 0 0 1-.027-.066zm-2.27-.142a.955.955 0 0 0 .311.379.407.407 0 0 0 .426.008.409.409 0 0 0 .2-.3.762.762 0 0 0-.117-.49.819.819 0 0 0-.36-.392.4.4 0 0 0-.363.023.418.418 0 0 0-.209.3.717.717 0 0 0 .111.469zm1.794.239l-.443.249-.147-.269a.84.84 0 0 1-.134.381.77.77 0 0 1-.261.247.774.774 0 0 1-.672.046 1.175 1.175 0 0 1-.608-.585 1.184 1.184 0 0 1-.171-.83.818.818 0 0 1 .413-.55.763.763 0 0 1 .662-.039l-.5-.911.477-.269zm-3.173.479a.524.524 0 0 0-.306-.229.371.371 0 0 0-.3.063.386.386 0 0 0-.167.28.52.52 0 0 0 .109.361zm.291.477l.5-.241a.923.923 0 0 1-.01.572.98.98 0 0 1-.374.46.911.911 0 0 1-.854.171 1.18 1.18 0 0 1-.574-.472 1.167 1.167 0 0 1-.241-.824.9.9 0 0 1 .388-.636.9.9 0 0 1 .769-.17 1.353 1.353 0 0 1 .742.626l-1.12.8a.55.55 0 0 0 .325.237.406.406 0 0 0 .335-.071.34.34 0 0 0 .137-.184.446.446 0 0 0-.023-.271zm-1.443 1.989l-1.83-2.215.418-.356 1.83 2.215zm-1.932 1.918l-1.937-.978.368-.388 1.241.671-.726-1.213.366-.385 1.211.7-.7-1.241.373-.393 1.023 1.939-.364.383-1.2-.676.711 1.191zm-2.272 1.3a.674.674 0 0 0 .466.161.46.46 0 0 0 .343-.2.473.473 0 0 0 .079-.392.706.706 0 0 0-.3-.4.673.673 0 0 0-.462-.159.458.458 0 0 0-.342.2.474.474 0 0 0-.079.392.691.691 0 0 0 .295.398zm-.352.442a1.124 1.124 0 0 1-.347-.424.945.945 0 0 1-.091-.544 1.157 1.157 0 0 1 .214-.531 1.031 1.031 0 0 1 .7-.448 1.039 1.039 0 0 1 .8.213 1.08 1.08 0 0 1 .45.71 1.049 1.049 0 0 1-.2.809 1.2 1.2 0 0 1-.421.368.867.867 0 0 1-.534.1 1.236 1.236 0 0 1-.571-.253zm.609 1l-.273.479-.912-.534a1.629 1.629 0 0 0-.391-.188.3.3 0 0 0-.189.023.327.327 0 0 0-.142.138.449.449 0 0 0-.06.263.4.4 0 0 0 .1.24 1.77 1.77 0 0 0 .39.278l.809.474-.273.48-1.785-1.047.253-.446.262.154a.852.852 0 0 1 .037-.776.837.837 0 0 1 .222-.257.547.547 0 0 1 .257-.115.59.59 0 0 1 .252.023 1.636 1.636 0 0 1 .333.159zm-2.012 4.328l-2.639-1.083.215-.541 1.172.481-.737-1.575.289-.727.627 1.431 2.034-.4-.279.7-1.531.228.266.621.8.327z" class="cls-1" data-name="Path 2468" transform="translate(203.705 543.258)"/>
    <path id="Path_2469" d="M-167.555-508.258c-2.947-.77-6.115-4.649-2.943-8.155s1.608-5.37 1.664-6.788c0 0 5.233 3.146 4.651 8.535-.558 5.175-4.7 5.258-3.372 6.408" class="cls-2" data-name="Path 2469" transform="translate(190.339 534.668)"/>
    <path id="Path_2470" d="M-161.1-503.193a16.924 16.924 0 0 1-16.752 16.875 16.924 16.924 0 0 1-16.748-16.875 8.46 8.46 0 0 0 8.375 8.327 8.465 8.465 0 0 0 8.378-8.548 8.465 8.465 0 0 0 8.377 8.548 8.46 8.46 0 0 0 8.375-8.327m-16.751-.332v0z" class="cls-2" data-name="Path 2470" transform="translate(200.142 526.055)"/>
</svg>
