<svg xmlns="http://www.w3.org/2000/svg" width="96" height="96" viewBox="0 0 96 96"><defs><style>.a{fill:#eeefef;}.b{fill:#b7202e;}</style></defs><g transform="translate(-116 -1440)"><circle class="a" cx="48" cy="48" r="48" transform="translate(116 1440)"/><g transform="translate(140 1463)"><path class="b" d="M50.172,10.779A2.945,2.945,0,0,0,48,7.943a2.937,2.937,0,0,0-1.96-3.92A2.938,2.938,0,0,0,43.312,0H32.749a14.549,14.549,0,0,0-6.416,1.515l-.891.445H14.7a2.923,2.923,0,0,0-1.083.208,2.939,2.939,0,0,0-5.672,0,2.937,2.937,0,0,0-3.92,1.96A2.938,2.938,0,0,0,0,6.859V17.423a15.227,15.227,0,0,0,1.96,7.306V35.473a2.923,2.923,0,0,0,.208,1.083,2.939,2.939,0,0,0,0,5.672,2.937,2.937,0,0,0,1.96,3.92,2.938,2.938,0,0,0,2.732,4.023H9.221a.98.98,0,1,0,0-1.96H6.859a.98.98,0,0,1,0-1.96h1.96a.98.98,0,1,0,0-1.96H4.9a.98.98,0,1,1,0-1.96h3.92a.98.98,0,1,0,0-1.96H2.94a.98.98,0,1,1,0-1.96h5.88a.98.98,0,0,0,0-1.96H4.9a.98.98,0,1,1,0-1.96h9.8a.98.98,0,0,0,.98-.98v-.98h2.469a6.062,6.062,0,0,1,5.472,3.375.98.98,0,0,0,.878.545h8.035v8.819a2.926,2.926,0,0,0,.169.98H26.458a.979.979,0,0,0-.438.1l-1.094.547a12.574,12.574,0,0,1-5.543,1.309H18.021a.98.98,0,1,0,0,1.96h1.362A14.549,14.549,0,0,0,25.8,48.657l.891-.445h8.784A2.923,2.923,0,0,0,36.557,48a2.939,2.939,0,0,0,5.672,0,2.937,2.937,0,0,0,3.92-1.96,2.938,2.938,0,0,0,4.023-2.732V31.553a.975.975,0,0,0-.094-.416,14.651,14.651,0,0,0-1.421-4.8l-.445-.891V14.7A2.923,2.923,0,0,0,48,13.615,2.944,2.944,0,0,0,50.172,10.779ZM13.719,32.533H4.9a2.926,2.926,0,0,0-.98.169V24.5a.979.979,0,0,0-.1-.438A13.809,13.809,0,0,1,1.96,17.423V6.859a.98.98,0,0,1,1.96,0v1.96a.98.98,0,1,0,1.96,0V4.9a.98.98,0,1,1,1.96,0v3.92a.98.98,0,1,0,1.96,0V2.94a.98.98,0,1,1,1.96,0v5.88a.98.98,0,1,0,1.96,0V4.9a.98.98,0,1,1,1.96,0v9.8a.98.98,0,0,0,.98.98h.98v2.469a6.142,6.142,0,0,1-3.375,5.472.98.98,0,0,0-.545.878Zm4.429-1.96H15.679V25.08a8.011,8.011,0,0,0,3.92-6.932V15.679h5.494a8.011,8.011,0,0,0,6.931,3.92h2.469v5.494a8.011,8.011,0,0,0-3.92,6.932v2.469H25.08a8.011,8.011,0,0,0-6.932-3.92ZM48.212,43.312a.98.98,0,0,1-1.96,0v-1.96a.98.98,0,0,0-1.96,0v3.92a.98.98,0,0,1-1.96,0v-3.92a.98.98,0,0,0-1.96,0v5.88a.98.98,0,0,1-1.96,0v-5.88a.98.98,0,0,0-1.96,0v3.92a.98.98,0,1,1-1.96,0v-9.8a.98.98,0,0,0-.98-.98h-.98V32.024a6.062,6.062,0,0,1,3.375-5.472.98.98,0,0,0,.545-.878V17.639h8.819a2.926,2.926,0,0,0,.98-.169v8.2a.979.979,0,0,0,.1.438l.547,1.094a12.574,12.574,0,0,1,1.309,5.543Zm-.98-31.553h-5.88a.98.98,0,0,0,0,1.96h3.92a.98.98,0,0,1,0,1.96h-9.8a.98.98,0,0,0-.98.98v.98H32.024a6.142,6.142,0,0,1-5.472-3.375.98.98,0,0,0-.878-.545H17.639V4.9a2.926,2.926,0,0,0-.169-.98h8.2a.979.979,0,0,0,.438-.1A13.81,13.81,0,0,1,32.749,1.96H43.312a.98.98,0,0,1,0,1.96h-1.96a.98.98,0,0,0,0,1.96h3.92a.98.98,0,0,1,0,1.96h-3.92a.98.98,0,0,0,0,1.96h5.88a.98.98,0,1,1,0,1.96Z" transform="translate(0)"/><ellipse class="b" cx="1" cy="1.5" rx="1" ry="1.5" transform="translate(13 47)"/></g></g></svg>