<svg xmlns="http://www.w3.org/2000/svg" width="96" height="96" viewBox="0 0 96 96"><defs><style>.a{fill:#eeefef;}.b{fill:#b7202e;}</style></defs><g transform="translate(-116 -1662)"><circle class="a" cx="48" cy="48" r="48" transform="translate(116 1662)"/><g transform="translate(138 1668)"><path class="b" d="M208.228,22.114a6.114,6.114,0,1,0-6.114,6.114A6.121,6.121,0,0,0,208.228,22.114Zm-6.114,4.076a4.076,4.076,0,1,1,4.076-4.076A4.081,4.081,0,0,1,202.114,26.19Z" transform="translate(-176.028 0)"/><path class="b" d="M184.342,149.247v-4.076a9.171,9.171,0,1,0-18.342,0v4.076a1.019,1.019,0,0,0,1.019,1.019h16.3A1.019,1.019,0,0,0,184.342,149.247Zm-2.038-1.019H168.038v-3.057a7.133,7.133,0,1,1,14.266,0Z" transform="translate(-149.085 -107.772)"/><path class="b" d="M7.322,145.766l4.906,2.452V153.7a1.019,1.019,0,0,0,1.019,1.019h10.8a1.019,1.019,0,0,0,1.019-1.019V140.739a6.334,6.334,0,0,0-5.44-6.361c-.081-.015-3.938-.3-5.8-2.166l-2.79-2.79a4.048,4.048,0,0,0-2.882-1.194v-8.152a4.076,4.076,0,0,0-8.152,0v13.842a13.248,13.248,0,0,0,7.322,11.848Zm-5.284-25.69a2.038,2.038,0,1,1,4.076,0v8.7a4.075,4.075,0,0,0-.844,6.411l5.218,5.219a1.019,1.019,0,1,0,1.441-1.441l-5.218-5.219a2.038,2.038,0,0,1,.761-3.363h0a2.035,2.035,0,0,1,2.119.482l2.79,2.79c1.9,1.9,4.67,2.433,7.014,2.75h.012a4.278,4.278,0,0,1,3.62,4.334v11.945H14.266v-5.095a1.019,1.019,0,0,0-.563-.911l-5.469-2.734a11.149,11.149,0,0,1-6.2-10.025Z" transform="translate(0 -89.81)"/><ellipse class="b" cx="1" rx="1" transform="translate(45 54)"/><path class="b" d="M286.991,116a4.081,4.081,0,0,0-4.076,4.076v8.152a4.048,4.048,0,0,0-2.882,1.194l-2.79,2.79c-1.626,1.625-4.264,1.9-5.8,2.167a6.334,6.334,0,0,0-5.44,6.361V153.7a1.019,1.019,0,0,0,1.019,1.019h10.8a1.019,1.019,0,0,0,1.019-1.019v-5.484l3.335-1.667a1.019,1.019,0,0,0-.911-1.823l-3.9,1.949a1.02,1.02,0,0,0-.563.912v5.095h-8.763V140.739a4.278,4.278,0,0,1,3.62-4.335h.012c2.38-.321,5.116-.853,7.015-2.75l2.79-2.79a2.036,2.036,0,0,1,2.119-.482h0a2.038,2.038,0,0,1,.761,3.363l-5.218,5.219a1.019,1.019,0,1,0,1.441,1.441l5.218-5.219a4.075,4.075,0,0,0-.844-6.411v-8.7a2.038,2.038,0,1,1,4.076,0v13.842a11.239,11.239,0,0,1-1.361,5.353,1.019,1.019,0,0,0,1.791.973,13.283,13.283,0,0,0,1.608-6.326V120.076A4.081,4.081,0,0,0,286.991,116Z" transform="translate(-238.895 -89.81)"/></g></g></svg>