<svg xmlns="http://www.w3.org/2000/svg" width="367.198" height="73.028" viewBox="0 0 367.198 73.028">
    <defs>
        <style>
            .cls-2{fill:#a50c22}
        </style>
    </defs>
    <g id="Group_7977" data-name="Group 7977" transform="translate(-26.999 -1275)">
        <g id="Group_7976" data-name="Group 7976" transform="translate(-1 92)">
            <path id="Line_1071" fill="none" stroke="#464749" stroke-miterlimit="10" stroke-width="0.754px" d="M0 0L167.174 0" data-name="Line 1071" transform="translate(108.529 1236.993)"/>
            <path id="Path_16840" d="M296.98 257.26l-3.057-8.236-.8-.1v-.993h3.39v.993l-.844.135 1.941 5.685.173.607h.04l.179-.6 1.968-5.7-.968-.128v-.993h3.289v.993l-.808.1-2.942 8.236z" class="cls-2" data-name="Path 16840" transform="translate(-184.596 970.402)"/>
            <path id="Path_16841" d="M303.017 257.26v-.987l1.02-.193v-6.967l-1.02-.192v-.993h3.647v.993l-1.013.192v6.967l1.013.193v.987z" class="cls-2" data-name="Path 16841" transform="translate(-184.596 970.402)"/>
            <path id="Path_16842" d="M307.516 257.26v-.986l1.026-.2v-6.949l-1.026-.205v-.993h3.91a3.935 3.935 0 0 1 3.654 2.21 5.137 5.137 0 0 1 .526 2.365v.186a5.213 5.213 0 0 1-.513 2.35 3.88 3.88 0 0 1-3.621 2.22zm2.642-1.243h1.231a2.257 2.257 0 0 0 1.4-.439 2.779 2.779 0 0 0 .888-1.191 4.485 4.485 0 0 0 .307-1.7v-.187a4.494 4.494 0 0 0-.307-1.714 2.714 2.714 0 0 0-.888-1.176 2.3 2.3 0 0 0-1.4-.43h-1.231z" class="cls-2" data-name="Path 16842" transform="translate(-184.596 970.402)"/>
            <path id="Path_16843" d="M318.65 257.26v-.987l1.013-.193v-2.1l-2.806-4.928-.847-.128v-.993h3.513v.993l-.891.116 1.731 3.269.141.281.025-.013.135-.262 1.871-3.276-1.057-.116v-.993h3.442v.993l-.878.128-2.769 4.8v2.231l1.02.193v.987z" class="cls-2" data-name="Path 16843" transform="translate(-184.596 970.402)"/>
            <path id="Path_16844" d="M323.938 257.261v-.987l.679-.1 3.09-8.249h1.57l3.051 8.249.679.1v.987h-2.967v-.987l.666-.123-.493-1.467h-3.473l-.507 1.467.673.123v.987zm3.223-3.815h2.639l-1.211-3.454-.084-.25h-.039l-.089.263z" class="cls-2" data-name="Path 16844" transform="translate(-184.596 970.402)"/>
            <path id="Path_16845" d="M336.021 257.26l-3.057-8.236-.8-.1v-.993h3.39v.993l-.846.135 1.942 5.685.173.607h.038l.18-.6 1.968-5.7-.969-.128v-.993h3.289v.993l-.808.1-2.941 8.236z" class="cls-2" data-name="Path 16845" transform="translate(-184.596 970.402)"/>
            <path id="Path_16846" d="M342.058 257.26v-.987l1.018-.193v-6.967l-1.018-.192v-.993h3.642v.993l-1.013.192v6.967l1.013.193v.987z" class="cls-2" data-name="Path 16846" transform="translate(-184.596 970.402)"/>
            <path id="Path_16847" d="M346.557 257.26v-.987l1.018-.193v-6.967l-1.018-.192v-.993h3.653v.993l-1.02.192v2.911h4.083v-2.911l-1.018-.192v-.993h3.645v.993l-1.02.192v6.967l1.02.193v.987h-3.647v-.987l1.018-.193v-2.8h-4.083v2.8l1.02.193v.987z" class="cls-2" data-name="Path 16847" transform="translate(-184.596 970.402)"/>
            <path id="Path_16848" d="M356.312 257.261v-.987l.679-.1 3.091-8.249h1.57l3.051 8.249.678.1v.987h-2.967v-.987l.667-.123-.494-1.467h-3.474l-.507 1.467.673.123v.987zm3.224-3.815h2.635l-1.211-3.454-.084-.25h-.039l-.09.263z" class="cls-2" data-name="Path 16848" transform="translate(-184.596 970.402)"/>
            <path id="Path_16849" d="M366.144 257.26v-.987l1.02-.192v-6.968l-1.02-.191v-.993h4.313a4.514 4.514 0 0 1 1.8.322 2.505 2.505 0 0 1 1.135.927 2.861 2.861 0 0 1 0 2.884 2.586 2.586 0 0 1-1.084.945 3.828 3.828 0 0 1-1.63.35l-1.9.02v2.7l1.02.192v.987zm2.635-5.139h1.609a2.058 2.058 0 0 0 1.346-.369 1.327 1.327 0 0 0 .435-1.074 1.451 1.451 0 0 0-.422-1.093 1.8 1.8 0 0 0-1.29-.407h-1.678zm3.435 5.139l-1.781-4.294 1.512-.25 1.513 3.392.729.154v1z" class="cls-2" data-name="Path 16849" transform="translate(-184.596 970.402)"/>
            <path id="Path_16850" d="M382.835 257.395a4.274 4.274 0 0 1-1.852-.381 2.914 2.914 0 0 1-1.26-1.1 3.189 3.189 0 0 1-.452-1.737v-5.063l-1.02-.192v-.993h3.649v.993l-1.018.192v5.063a2.233 2.233 0 0 0 .243 1.088 1.561 1.561 0 0 0 .687.656 2.305 2.305 0 0 0 1.031.218 2.377 2.377 0 0 0 1.054-.218 1.581 1.581 0 0 0 .693-.654 2.181 2.181 0 0 0 .246-1.09v-5.063l-1.018-.192v-.993h3.646v.993l-1.012.192v5.063a3.222 3.222 0 0 1-.452 1.75 2.88 2.88 0 0 1-1.266 1.093 4.478 4.478 0 0 1-1.9.375" class="cls-2" data-name="Path 16850" transform="translate(-184.596 970.402)"/>
            <path id="Path_16851" d="M388.225 257.26v-.987l1.019-.193v-6.967l-1.019-.192v-.993h2.653l4.281 6.813.04-.014v-5.615l-1.18-.192v-.993h3.653v.993l-1.018.192v8.147h-1.533l-4.384-6.787-.037.006v5.6l1.18.193v.987z" class="cls-2" data-name="Path 16851" transform="translate(-184.596 970.402)"/>
            <path id="Path_16852" d="M398.467 257.26v-.987l1.02-.193v-6.967l-1.02-.192v-.993h3.647v.993l-1.012.192v6.967l1.012.193v.987z" class="cls-2" data-name="Path 16852" transform="translate(-184.596 970.402)"/>
            <path id="Path_16853" d="M406.7 257.26l-3.057-8.236-.8-.1v-.993h3.39v.993l-.844.135 1.941 5.685.173.607h.04l.179-.6 1.968-5.7-.968-.128v-.993h3.289v.993l-.808.1-2.942 8.236z" class="cls-2" data-name="Path 16853" transform="translate(-184.596 970.402)"/>
            <path id="Path_16854" d="M412.735 257.26v-.987l1.02-.193v-6.967l-1.02-.192v-.993h7.109v2.4h-1.257l-.109-1.16h-3.108v2.64h3.276v1.25h-3.276v2.967h3.28l.11-1.184H420v2.415z" class="cls-2" data-name="Path 16854" transform="translate(-184.596 970.402)"/>
            <path id="Path_16855" d="M421.113 257.26v-.987l1.019-.192v-6.968l-1.019-.191v-.993h4.313a4.517 4.517 0 0 1 1.8.322 2.508 2.508 0 0 1 1.134.927 2.636 2.636 0 0 1-1.08 3.829 3.821 3.821 0 0 1-1.63.35l-1.9.02v2.7l1.019.192v.987zm2.634-5.139h1.609a2.055 2.055 0 0 0 1.345-.369 1.327 1.327 0 0 0 .436-1.074 1.447 1.447 0 0 0-.422-1.093 1.8 1.8 0 0 0-1.289-.407h-1.679zm3.436 5.139l-1.783-4.294 1.514-.25 1.511 3.392.731.154v1z" class="cls-2" data-name="Path 16855" transform="translate(-184.596 970.402)"/>
            <path id="Path_16856" d="M433.694 257.395a6.34 6.34 0 0 1-1.776-.237 5.33 5.33 0 0 1-1.6-.788v-2.148h1.251l.2 1.392a2.842 2.842 0 0 0 .836.391 3.8 3.8 0 0 0 1.081.147 2.489 2.489 0 0 0 .958-.163 1.347 1.347 0 0 0 .594-.459 1.2 1.2 0 0 0 .2-.7 1.235 1.235 0 0 0-.179-.661 1.57 1.57 0 0 0-.6-.515 5.291 5.291 0 0 0-1.129-.42 7.919 7.919 0 0 1-1.745-.667 2.9 2.9 0 0 1-1.059-.922 2.269 2.269 0 0 1-.355-1.27 2.245 2.245 0 0 1 .407-1.327 2.766 2.766 0 0 1 1.13-.909 4.054 4.054 0 0 1 1.674-.34 5.312 5.312 0 0 1 1.836.27 4.4 4.4 0 0 1 1.35.737v2.006h-1.208l-.232-1.308a2.444 2.444 0 0 0-.683-.317 3.3 3.3 0 0 0-.989-.132 2.161 2.161 0 0 0-.859.16 1.4 1.4 0 0 0-.584.452 1.161 1.161 0 0 0-.21.7 1.035 1.035 0 0 0 .185.617 1.609 1.609 0 0 0 .622.476 7.5 7.5 0 0 0 1.179.434 5.5 5.5 0 0 1 2.3 1.115 2.342 2.342 0 0 1 .781 1.814 2.261 2.261 0 0 1-.42 1.356 2.717 2.717 0 0 1-1.18.9 4.538 4.538 0 0 1-1.778.32" class="cls-2" data-name="Path 16856" transform="translate(-184.596 970.402)"/>
            <path id="Path_16857" d="M437.957 257.26v-.987l1.018-.193v-6.967l-1.018-.192v-.993h3.643v.993l-1.012.192v6.967l1.012.193v.987z" class="cls-2" data-name="Path 16857" transform="translate(-184.596 970.402)"/>
            <path id="Path_16858" d="M444.674 257.26v-.987l1.018-.193v-6.916h-1.877l-.141 1.193h-1.212v-2.429h8.083v2.429h-1.218l-.141-1.193h-1.877v6.916l1.018.193v.987z" class="cls-2" data-name="Path 16858" transform="translate(-184.596 970.402)"/>
            <path id="Path_16859" d="M454.032 257.26v-.987l1.013-.193v-2.1l-2.808-4.928-.845-.128v-.993h3.508v.993l-.891.116 1.731 3.269.141.281.026-.013.135-.262 1.871-3.276-1.058-.116v-.993h3.445v.993l-.878.128-2.768 4.8v2.231l1.018.193v.987z" class="cls-2" data-name="Path 16859" transform="translate(-184.596 970.402)"/>
            <path id="Path_16860" d="M302.463 241.886a17.634 17.634 0 0 1-4.917-.657 14.611 14.611 0 0 1-4.42-2.184V233.1h3.462l.567 3.85a7.672 7.672 0 0 0 2.317 1.083 10.443 10.443 0 0 0 2.991.409 6.838 6.838 0 0 0 2.653-.453 3.668 3.668 0 0 0 1.642-1.27 3.3 3.3 0 0 0 .569-1.933 3.4 3.4 0 0 0-.5-1.829 4.315 4.315 0 0 0-1.651-1.429 14.709 14.709 0 0 0-3.125-1.163 22.13 22.13 0 0 1-4.836-1.846 8.032 8.032 0 0 1-2.929-2.557 6.646 6.646 0 0 1 .142-7.188 7.633 7.633 0 0 1 3.133-2.52 11.162 11.162 0 0 1 4.633-.941 14.691 14.691 0 0 1 5.086.746 12.157 12.157 0 0 1 3.736 2.041v5.556h-3.391l-.639-3.621a6.783 6.783 0 0 0-1.89-.88 9.271 9.271 0 0 0-2.742-.363 5.981 5.981 0 0 0-2.379.444 3.79 3.79 0 0 0-1.616 1.252 3.186 3.186 0 0 0-.586 1.925 2.864 2.864 0 0 0 .516 1.7 4.467 4.467 0 0 0 1.721 1.323 20.784 20.784 0 0 0 3.266 1.2 15.171 15.171 0 0 1 6.373 3.09 6.486 6.486 0 0 1 2.165 5.022 6.24 6.24 0 0 1-1.161 3.755 7.534 7.534 0 0 1-3.264 2.497 12.6 12.6 0 0 1-4.926.889" class="cls-2" data-name="Path 16860" transform="translate(-184.596 970.402)"/>
            <path id="Path_16861" d="M325.574 241.886a10.874 10.874 0 0 1-4.65-.968 10.278 10.278 0 0 1-3.56-2.724 12.529 12.529 0 0 1-2.28-4.154 16.546 16.546 0 0 1-.8-5.254v-.392a16.48 16.48 0 0 1 .8-5.235 12.618 12.618 0 0 1 2.28-4.162 10.21 10.21 0 0 1 3.56-2.734 10.83 10.83 0 0 1 4.632-.968 11.171 11.171 0 0 1 4.739.968 10.1 10.1 0 0 1 3.569 2.737 12.46 12.46 0 0 1 2.254 4.162 16.8 16.8 0 0 1 .781 5.235v.392a16.868 16.868 0 0 1-.781 5.254 12.373 12.373 0 0 1-2.254 4.154 10.165 10.165 0 0 1-3.569 2.724 11.126 11.126 0 0 1-4.721.968m0-3.551a6.042 6.042 0 0 0 3.861-1.2 7.039 7.039 0 0 0 2.254-3.346 15.432 15.432 0 0 0 .737-5.005v-.427a14.971 14.971 0 0 0-.746-4.951 7.156 7.156 0 0 0-2.263-3.338 6.01 6.01 0 0 0-3.861-1.208 5.8 5.8 0 0 0-3.745 1.208 7.313 7.313 0 0 0-2.273 3.338 14.7 14.7 0 0 0-.762 4.951v.427a15.018 15.018 0 0 0 .762 5 7.219 7.219 0 0 0 2.282 3.354 5.869 5.869 0 0 0 3.754 1.2" class="cls-2" data-name="Path 16861" transform="translate(-184.596 970.402)"/>
            <path id="Path_16862" d="M339.33 241.513v-2.734l2.8-.532v-19.295l-2.8-.532v-2.752h9.213l7.579 18.692h.107l7.349-18.692h9.322v2.752l-2.822.532v19.294l2.822.532v2.734h-10.1v-2.734l2.964-.532v-6.016l.035-11.308-.089-.016-8.01 20.021h-3.248l-8.237-19.916-.087.019.231 10.9v6.319l3.07.532v2.734z" class="cls-2" data-name="Path 16862" transform="translate(-184.596 970.402)"/>
            <path id="Path_16863" d="M374.068 241.513v-2.735l1.882-.265 8.555-22.845h4.349l8.45 22.845 1.881.265v2.735h-8.219v-2.735l1.846-.336-1.367-4.065h-9.621l-1.4 4.065 1.864.336v2.735zM383 230.951h7.295l-3.355-9.567-.23-.692h-.11l-.249.727z" class="cls-2" data-name="Path 16863" transform="translate(-184.596 970.402)"/>
            <path id="Path_16864" d="M401.3 241.513v-2.734l2.822-.532v-19.295l-2.822-.532v-2.752h10.1v2.752l-2.8.532v19.294l2.8.532v2.734z" class="cls-2" data-name="Path 16864" transform="translate(-184.596 970.402)"/>
            <path id="Path_16865" d="M420.539 241.513v-2.734l2.8-.532v-5.821l-7.775-13.651-2.343-.354v-2.752h9.727v2.752l-2.467.319 4.794 9.053.39.781.07-.035.372-.729 5.184-9.071-2.929-.319v-2.752h9.538v2.752l-2.432.354-7.667 13.3v6.176l2.822.532v2.734z" class="cls-2" data-name="Path 16865" transform="translate(-184.596 970.402)"/>
            <path id="Path_16866" d="M435.183 241.513v-2.735l1.882-.265 8.555-22.845h4.349l8.45 22.845 1.881.265v2.735h-8.219v-2.735l1.846-.336-1.367-4.065h-9.621l-1.4 4.065 1.863.336v2.735zm8.928-10.562h7.3l-3.354-9.567-.23-.692h-.108l-.248.727z" class="cls-2" data-name="Path 16866" transform="translate(-184.596 970.402)"/>
            <path id="Path_16928" fill="#464749" d="M3.7.123a5.823 5.823 0 0 1-1.626-.217 4.835 4.835 0 0 1-1.459-.72v-1.963h1.143l.188 1.271a2.547 2.547 0 0 0 .765.357 3.457 3.457 0 0 0 .987.135 2.26 2.26 0 0 0 .876-.149 1.213 1.213 0 0 0 .542-.419 1.09 1.09 0 0 0 .184-.639 1.119 1.119 0 0 0-.164-.6 1.424 1.424 0 0 0-.542-.479 4.831 4.831 0 0 0-1.031-.38 7.308 7.308 0 0 1-1.6-.609A2.653 2.653 0 0 1 1-5.133a2.056 2.056 0 0 1-.325-1.16 2.051 2.051 0 0 1 .372-1.213 2.521 2.521 0 0 1 1.033-.832 3.684 3.684 0 0 1 1.529-.311 4.845 4.845 0 0 1 1.679.249 4.022 4.022 0 0 1 1.233.674v1.834H5.4l-.211-1.2a2.24 2.24 0 0 0-.624-.29 3.044 3.044 0 0 0-.905-.12 1.969 1.969 0 0 0-.785.146 1.254 1.254 0 0 0-.533.413 1.054 1.054 0 0 0-.192.643.949.949 0 0 0 .17.563 1.481 1.481 0 0 0 .568.437 6.925 6.925 0 0 0 1.078.4 5.011 5.011 0 0 1 2.1 1.02 2.143 2.143 0 0 1 .715 1.658A2.058 2.058 0 0 1 6.4-.993a2.484 2.484 0 0 1-1.077.823A4.16 4.16 0 0 1 3.7.123zm6.861 0a2.9 2.9 0 0 1-1.57-.41 2.686 2.686 0 0 1-1.011-1.14 3.822 3.822 0 0 1-.352-1.679v-.123A3.789 3.789 0 0 1 7.98-4.9a2.729 2.729 0 0 1 1.008-1.141 2.849 2.849 0 0 1 1.559-.416 2.887 2.887 0 0 1 1.57.413A2.709 2.709 0 0 1 13.125-4.9a3.8 3.8 0 0 1 .352 1.676v.123a3.822 3.822 0 0 1-.352 1.679 2.692 2.692 0 0 1-1 1.14 2.877 2.877 0 0 1-1.566.405zm0-1.137a1.223 1.223 0 0 0 .812-.267 1.594 1.594 0 0 0 .478-.738 3.416 3.416 0 0 0 .158-1.087v-.123a3.368 3.368 0 0 0-.158-1.078 1.6 1.6 0 0 0-.48-.738 1.235 1.235 0 0 0-.82-.27 1.218 1.218 0 0 0-.809.27 1.584 1.584 0 0 0-.478.738 3.427 3.427 0 0 0-.155 1.078v.123a3.475 3.475 0 0 0 .155 1.087 1.555 1.555 0 0 0 .48.738 1.247 1.247 0 0 0 .815.267zM14.256 0v-.9l.885-.176v-4.18l-.932-.176v-.908h2.285l.07.832a2.182 2.182 0 0 1 .776-.7 2.259 2.259 0 0 1 1.081-.249 1.957 1.957 0 0 1 1.063.278 1.72 1.72 0 0 1 .671.841 2.242 2.242 0 0 1 .771-.82 2.071 2.071 0 0 1 1.122-.3 1.86 1.86 0 0 1 1.5.65 3 3 0 0 1 .552 1.97v2.76l.885.176V0h-3.194v-.9l.832-.176v-2.768a1.784 1.784 0 0 0-.27-1.125.973.973 0 0 0-.791-.322 1.089 1.089 0 0 0-.8.311 1.482 1.482 0 0 0-.407.791v3.111l.8.176V0h-3.073v-.9l.8-.176v-2.768a1.763 1.763 0 0 0-.275-1.11.97.97 0 0 0-.8-.337 1.406 1.406 0 0 0-.729.176 1.275 1.275 0 0 0-.472.5v3.539l.826.176V0zm13.512.123a2.136 2.136 0 0 1-1.506-.5 1.774 1.774 0 0 1-.539-1.371 1.736 1.736 0 0 1 .328-1.049 2.136 2.136 0 0 1 .961-.706 4.112 4.112 0 0 1 1.535-.255h.967v-.533a1.079 1.079 0 0 0-.3-.8 1.193 1.193 0 0 0-.876-.3 1.938 1.938 0 0 0-.58.079 1.527 1.527 0 0 0-.451.226l-.135.855h-1.086l-.012-1.564a4.183 4.183 0 0 1 1.043-.483 4.286 4.286 0 0 1 1.277-.179 2.927 2.927 0 0 1 1.9.565 1.969 1.969 0 0 1 .694 1.62V-1.225q0 .123.015.24l.645.082V0h-1.923q-.059-.205-.108-.4a2.993 2.993 0 0 1-.073-.387 2.621 2.621 0 0 1-.765.653 2.008 2.008 0 0 1-1.011.257zM28.1-1.02a1.73 1.73 0 0 0 .832-.208 1.479 1.479 0 0 0 .58-.524v-1.06h-.984a1.436 1.436 0 0 0-1 .308.945.945 0 0 0-.337.718.7.7 0 0 0 .234.568 1.013 1.013 0 0 0 .675.198zM32.332 0v-.9l.879-.176v-4.18l-.932-.176v-.908h2.408v5.262l.873.176V0zm.82-7.775v-1.366h1.535v1.365zm4.67 10.336a2.9 2.9 0 0 1-.419-.035 2.964 2.964 0 0 1-.413-.088l.164-1.107q.105.018.255.029t.237.012a.884.884 0 0 0 .621-.231A1.669 1.669 0 0 0 38.678.5l.193-.51L36.7-5.326l-.738-.105v-.909h3.07v.908l-.779.117 1.1 2.953.193.551h.035l1.3-3.51-.779-.111v-.908h2.918v.908l-.686.1L39.879.955a3.794 3.794 0 0 1-.437.812 1.911 1.911 0 0 1-.656.58 2 2 0 0 1-.964.214zM45.533.123a2.136 2.136 0 0 1-1.506-.5 1.774 1.774 0 0 1-.539-1.371 1.736 1.736 0 0 1 .328-1.049 2.136 2.136 0 0 1 .961-.706 4.112 4.112 0 0 1 1.535-.255h.967v-.533a1.079 1.079 0 0 0-.3-.8 1.193 1.193 0 0 0-.876-.3 1.938 1.938 0 0 0-.58.079 1.527 1.527 0 0 0-.451.226l-.135.855h-1.085l-.012-1.564a4.183 4.183 0 0 1 1.043-.483 4.286 4.286 0 0 1 1.277-.179 2.927 2.927 0 0 1 1.9.565 1.969 1.969 0 0 1 .694 1.62V-1.225q0 .123.015.24l.645.082V0H47.49q-.059-.205-.108-.4a2.993 2.993 0 0 1-.073-.387 2.621 2.621 0 0 1-.765.653 2.008 2.008 0 0 1-1.011.257zm.334-1.143a1.73 1.73 0 0 0 .832-.208 1.479 1.479 0 0 0 .58-.524v-1.06h-.984a1.436 1.436 0 0 0-1 .308.945.945 0 0 0-.337.718.7.7 0 0 0 .234.568 1.013 1.013 0 0 0 .675.198zM53.092 0v-.9l.932-.176v-6.371l-.932-.176v-.908h3.334v.908l-.926.176v6.369l.926.176V0zm4.084 0v-.9l.879-.176v-4.18l-.926-.176v-.908h2.285l.076.92a2.3 2.3 0 0 1 .788-.765 2.1 2.1 0 0 1 1.069-.272 1.952 1.952 0 0 1 1.523.6 2.734 2.734 0 0 1 .545 1.878v2.9l.879.176V0h-3.181v-.9l.826-.176v-2.891a1.464 1.464 0 0 0-.287-1.022 1.127 1.127 0 0 0-.855-.3 1.431 1.431 0 0 0-.747.19 1.468 1.468 0 0 0-.519.53v3.492l.8.176V0zm7.74 0v-.9l.879-.176v-4.18l-.932-.176v-.908h2.408v5.262l.873.176V0zm.82-7.775v-1.366h1.535v1.365zM71.2.111a1.7 1.7 0 0 1-1.26-.454 1.994 1.994 0 0 1-.451-1.45v-3.492h-.926V-6.34h.926v-1.541h1.471v1.541h1.254v1.055h-1.257v3.492a.862.862 0 0 0 .167.589.582.582 0 0 0 .454.185 2.575 2.575 0 0 0 .366-.029q.2-.029.325-.059l.153 1.037a4.7 4.7 0 0 1-.589.129 4.043 4.043 0 0 1-.633.052zM73.143 0v-.9l.879-.176v-4.18l-.932-.176v-.908h2.41v5.262l.873.176V0zm.82-7.775v-1.366H75.5v1.365zm5.168 7.9a2.136 2.136 0 0 1-1.506-.5 1.774 1.774 0 0 1-.539-1.371 1.736 1.736 0 0 1 .328-1.049 2.136 2.136 0 0 1 .961-.706 4.112 4.112 0 0 1 1.535-.255h.967v-.533a1.079 1.079 0 0 0-.3-.8 1.193 1.193 0 0 0-.876-.3 1.938 1.938 0 0 0-.58.079 1.527 1.527 0 0 0-.451.226l-.135.855h-1.086l-.012-1.564a4.183 4.183 0 0 1 1.043-.483 4.286 4.286 0 0 1 1.277-.179 2.927 2.927 0 0 1 1.9.565 1.969 1.969 0 0 1 .694 1.62V-1.223q0 .123.015.24l.645.082V0h-1.923q-.059-.205-.108-.4a2.993 2.993 0 0 1-.073-.387 2.621 2.621 0 0 1-.765.653 2.008 2.008 0 0 1-1.011.257zm.334-1.143a1.73 1.73 0 0 0 .832-.208 1.479 1.479 0 0 0 .58-.524v-1.062h-.984a1.436 1.436 0 0 0-1 .308.945.945 0 0 0-.337.718.7.7 0 0 0 .234.568 1.013 1.013 0 0 0 .675.198zM86 .111a1.7 1.7 0 0 1-1.26-.454 1.994 1.994 0 0 1-.451-1.45v-3.492h-.926V-6.34h.926v-1.541h1.471v1.541h1.254v1.055h-1.25v3.492a.862.862 0 0 0 .167.589.582.582 0 0 0 .454.185 2.575 2.575 0 0 0 .366-.029q.2-.029.325-.059l.153 1.037a4.7 4.7 0 0 1-.589.129 4.043 4.043 0 0 1-.64.052zM87.949 0v-.9l.879-.176v-4.18l-.928-.176v-.908h2.4v5.262l.873.176V0zm.82-7.775v-1.366H90.3v1.365zM94.318 0l-2.056-5.332-.674-.1v-.908h2.9v.908l-.732.117L94.9-2.133l.152.5h.035l.176-.5 1.154-3.182-.8-.117v-.908h2.895v.908l-.691.105L95.754 0zm7.576.123a2.964 2.964 0 0 1-1.562-.4A2.734 2.734 0 0 1 99.3-1.389a3.486 3.486 0 0 1-.366-1.623v-.246a3.651 3.651 0 0 1 .36-1.649 2.832 2.832 0 0 1 .993-1.137 2.578 2.578 0 0 1 1.441-.413 2.789 2.789 0 0 1 1.444.346 2.2 2.2 0 0 1 .882.981 3.564 3.564 0 0 1 .3 1.526v.844h-3.891l-.012.029a2.285 2.285 0 0 0 .208.885 1.459 1.459 0 0 0 .527.609 1.5 1.5 0 0 0 .835.223 2.952 2.952 0 0 0 .938-.141 2.882 2.882 0 0 0 .779-.4l.463.926a3.212 3.212 0 0 1-.955.533 3.858 3.858 0 0 1-1.351.219zM100.488-3.8h2.455v-.152a1.947 1.947 0 0 0-.126-.729 1.029 1.029 0 0 0-.393-.489 1.206 1.206 0 0 0-.677-.176 1.026 1.026 0 0 0-.627.2 1.4 1.4 0 0 0-.431.542 2.65 2.65 0 0 0-.22.776zm7.371 3.92a5.8 5.8 0 0 1-1.269-.132 6.524 6.524 0 0 1-1.18-.388l-.018-1.676h1.061l.223.914a2.886 2.886 0 0 0 .519.173 2.65 2.65 0 0 0 .595.062 1.387 1.387 0 0 0 .894-.223.7.7 0 0 0 .261-.551.682.682 0 0 0-.272-.542 2.592 2.592 0 0 0-1.04-.39 3.728 3.728 0 0 1-1.673-.718 1.558 1.558 0 0 1-.536-1.228 1.676 1.676 0 0 1 .278-.943 1.94 1.94 0 0 1 .82-.677 3.121 3.121 0 0 1 1.333-.255 4.978 4.978 0 0 1 1.28.149 3.474 3.474 0 0 1 .952.4l.035 1.611h-1.049l-.182-.838a1.4 1.4 0 0 0-.422-.2 1.964 1.964 0 0 0-.551-.07 1.24 1.24 0 0 0-.768.214.649.649 0 0 0-.281.536.651.651 0 0 0 .091.34.8.8 0 0 0 .352.278 3.853 3.853 0 0 0 .765.243 4.2 4.2 0 0 1 1.77.75 1.542 1.542 0 0 1 .533 1.225 1.772 1.772 0 0 1-.621 1.395 2.817 2.817 0 0 1-1.9.544zm6.323-.12v-.9l.932-.176v-6.371l-.932-.176v-.908h6.633v2.215h-1.148l-.094-1.072h-2.983v2.6h3.041v1.143h-3.041v2.566l.932.176V0zm9.973.123a2.9 2.9 0 0 1-1.57-.41 2.686 2.686 0 0 1-1.008-1.14 3.822 3.822 0 0 1-.352-1.679v-.123a3.789 3.789 0 0 1 .352-1.67 2.729 2.729 0 0 1 1.008-1.143 2.849 2.849 0 0 1 1.559-.416 2.887 2.887 0 0 1 1.57.413 2.709 2.709 0 0 1 1.008 1.14 3.8 3.8 0 0 1 .352 1.676v.123a3.822 3.822 0 0 1-.352 1.679 2.692 2.692 0 0 1-1 1.14 2.877 2.877 0 0 1-1.568.41zm0-1.137a1.223 1.223 0 0 0 .812-.267 1.594 1.594 0 0 0 .478-.738 3.416 3.416 0 0 0 .158-1.087v-.123a3.368 3.368 0 0 0-.158-1.078 1.6 1.6 0 0 0-.48-.738 1.235 1.235 0 0 0-.82-.27 1.218 1.218 0 0 0-.809.27 1.584 1.584 0 0 0-.478.738 3.427 3.427 0 0 0-.155 1.078v.123a3.475 3.475 0 0 0 .155 1.087 1.555 1.555 0 0 0 .48.738 1.247 1.247 0 0 0 .816.267zM127.957 0v-.9l.879-.176v-4.18l-.926-.176v-.908h2.29l.076.8.012.129a2.1 2.1 0 0 1 .618-.773 1.409 1.409 0 0 1 .858-.27 2.228 2.228 0 0 1 .349.029 2.38 2.38 0 0 1 .3.064L132.24-5l-.826-.047a1.029 1.029 0 0 0-.665.158 1.439 1.439 0 0 0-.437.5v3.3l.879.176V0zm8 0v-.9l.932-.176v-6.371l-.932-.176v-.908h3.943a4.1 4.1 0 0 1 1.641.3 2.281 2.281 0 0 1 1.037.847 2.391 2.391 0 0 1 .357 1.33 2.38 2.38 0 0 1-.354 1.307 2.364 2.364 0 0 1-.99.864 3.5 3.5 0 0 1-1.491.319l-1.734.018v2.473l.932.176V0zm5.543 0l-1.629-3.926 1.383-.229 1.383 3.1.668.141V0zm-3.141-4.7h1.471a1.878 1.878 0 0 0 1.23-.337 1.213 1.213 0 0 0 .4-.981 1.322 1.322 0 0 0-.387-1 1.642 1.642 0 0 0-1.178-.372h-1.535zm8.77 4.823a2.964 2.964 0 0 1-1.562-.4 2.734 2.734 0 0 1-1.031-1.11 3.486 3.486 0 0 1-.366-1.623v-.246a3.651 3.651 0 0 1 .36-1.649 2.832 2.832 0 0 1 .993-1.137 2.578 2.578 0 0 1 1.441-.413 2.789 2.789 0 0 1 1.444.346 2.2 2.2 0 0 1 .882.981 3.564 3.564 0 0 1 .3 1.526v.844h-3.89l-.012.029a2.285 2.285 0 0 0 .208.885 1.459 1.459 0 0 0 .527.609 1.5 1.5 0 0 0 .835.223 2.952 2.952 0 0 0 .938-.141 2.882 2.882 0 0 0 .779-.4l.463.926a3.212 3.212 0 0 1-.955.533 3.858 3.858 0 0 1-1.354.217zM145.723-3.8h2.455v-.152a1.947 1.947 0 0 0-.126-.729 1.029 1.029 0 0 0-.393-.489 1.206 1.206 0 0 0-.677-.176 1.026 1.026 0 0 0-.627.2 1.4 1.4 0 0 0-.431.542 2.65 2.65 0 0 0-.22.776zm7.371 3.92a5.8 5.8 0 0 1-1.269-.132 6.524 6.524 0 0 1-1.181-.39l-.018-1.676h1.061l.223.914a2.886 2.886 0 0 0 .519.173 2.65 2.65 0 0 0 .595.062 1.387 1.387 0 0 0 .894-.223.7.7 0 0 0 .261-.551.682.682 0 0 0-.272-.542 2.592 2.592 0 0 0-1.04-.39 3.728 3.728 0 0 1-1.673-.718 1.558 1.558 0 0 1-.536-1.228 1.676 1.676 0 0 1 .278-.943 1.94 1.94 0 0 1 .82-.677 3.121 3.121 0 0 1 1.333-.255 4.978 4.978 0 0 1 1.28.149 3.474 3.474 0 0 1 .952.4l.035 1.611h-1.049l-.182-.838a1.4 1.4 0 0 0-.422-.2 1.964 1.964 0 0 0-.551-.07 1.24 1.24 0 0 0-.768.214.649.649 0 0 0-.281.536.651.651 0 0 0 .091.34.8.8 0 0 0 .352.278 3.853 3.853 0 0 0 .765.243 4.2 4.2 0 0 1 1.77.75 1.542 1.542 0 0 1 .533 1.225 1.772 1.772 0 0 1-.621 1.395 2.817 2.817 0 0 1-1.899.546zm6.346 0a2.964 2.964 0 0 1-1.562-.4 2.734 2.734 0 0 1-1.031-1.11 3.486 3.486 0 0 1-.366-1.623v-.246a3.651 3.651 0 0 1 .36-1.649 2.832 2.832 0 0 1 .993-1.137 2.578 2.578 0 0 1 1.441-.413 2.789 2.789 0 0 1 1.444.346 2.2 2.2 0 0 1 .882.981 3.564 3.564 0 0 1 .3 1.526v.844h-3.891l-.01.031a2.285 2.285 0 0 0 .208.885 1.459 1.459 0 0 0 .527.609 1.5 1.5 0 0 0 .835.223 2.952 2.952 0 0 0 .938-.141 2.882 2.882 0 0 0 .779-.4l.463.926a3.212 3.212 0 0 1-.955.533 3.858 3.858 0 0 1-1.356.218zm-1.407-3.92h2.455v-.152a1.947 1.947 0 0 0-.126-.729 1.029 1.029 0 0 0-.393-.489 1.206 1.206 0 0 0-.677-.176 1.026 1.026 0 0 0-.627.2 1.4 1.4 0 0 0-.431.542 2.65 2.65 0 0 0-.22.776zm6.832 3.92a2.136 2.136 0 0 1-1.506-.5 1.774 1.774 0 0 1-.539-1.371 1.736 1.736 0 0 1 .328-1.049 2.136 2.136 0 0 1 .961-.706 4.112 4.112 0 0 1 1.535-.255h.967v-.533a1.079 1.079 0 0 0-.3-.8 1.193 1.193 0 0 0-.876-.3 1.938 1.938 0 0 0-.58.079 1.527 1.527 0 0 0-.451.226l-.135.855h-1.084l-.012-1.564a4.183 4.183 0 0 1 1.043-.483 4.286 4.286 0 0 1 1.277-.179 2.927 2.927 0 0 1 1.9.565 1.969 1.969 0 0 1 .694 1.62V-1.228q0 .123.015.24l.645.082V0h-1.928q-.059-.205-.108-.4a2.993 2.993 0 0 1-.073-.387 2.621 2.621 0 0 1-.765.653 2.008 2.008 0 0 1-1.008.257zm.335-1.14a1.73 1.73 0 0 0 .832-.208 1.479 1.479 0 0 0 .58-.524v-1.06h-.984a1.436 1.436 0 0 0-1 .308.945.945 0 0 0-.337.718.7.7 0 0 0 .234.568 1.013 1.013 0 0 0 .675.198zM169.541 0v-.9l.879-.176v-4.18l-.926-.176v-.908h2.285l.076.8.012.129a2.1 2.1 0 0 1 .618-.773 1.409 1.409 0 0 1 .858-.27 2.228 2.228 0 0 1 .349.029 2.38 2.38 0 0 1 .3.064L173.824-5 173-5.045a1.029 1.029 0 0 0-.665.158 1.439 1.439 0 0 0-.437.5v3.3l.879.176V0zm7.869.123a2.859 2.859 0 0 1-1.544-.407 2.707 2.707 0 0 1-1.008-1.125 3.692 3.692 0 0 1-.354-1.655v-.206a3.7 3.7 0 0 1 .352-1.641 2.723 2.723 0 0 1 1-1.134 2.828 2.828 0 0 1 1.544-.413 3.554 3.554 0 0 1 1.418.261 3.144 3.144 0 0 1 .99.647l.006 1.693h-1.125l-.217-1.119a1.2 1.2 0 0 0-.416-.272 1.448 1.448 0 0 0-.551-.1 1.319 1.319 0 0 0-.829.264 1.631 1.631 0 0 0-.521.729 3.026 3.026 0 0 0-.179 1.087v.205a3.057 3.057 0 0 0 .182 1.125 1.512 1.512 0 0 0 .507.691 1.245 1.245 0 0 0 .747.234 1.224 1.224 0 0 0 .829-.275 1.319 1.319 0 0 0 .419-.762h1.277l.018.035a2.66 2.66 0 0 1-.366 1.1 2.048 2.048 0 0 1-.832.759 2.942 2.942 0 0 1-1.347.279zM180.668 0v-.9l.879-.176v-6.981l-.932-.176v-.908h2.4v3.621a2.2 2.2 0 0 1 .768-.691 2.14 2.14 0 0 1 1.031-.246 1.961 1.961 0 0 1 1.538.624 2.818 2.818 0 0 1 .56 1.925v2.83l.879.176V0h-3.182v-.9l.832-.176V-3.92a1.537 1.537 0 0 0-.293-1.049 1.105 1.105 0 0 0-.861-.322 1.489 1.489 0 0 0-.729.179 1.544 1.544 0 0 0-.542.5v3.533l.832.176V0zM193.5.123a2.136 2.136 0 0 1-1.506-.5 1.774 1.774 0 0 1-.539-1.371 1.736 1.736 0 0 1 .328-1.049 2.136 2.136 0 0 1 .961-.706 4.112 4.112 0 0 1 1.535-.255h.967v-.533a1.079 1.079 0 0 0-.3-.8 1.193 1.193 0 0 0-.876-.3 1.938 1.938 0 0 0-.58.079 1.527 1.527 0 0 0-.451.226l-.135.855h-1.084l-.012-1.564a4.183 4.183 0 0 1 1.043-.483 4.286 4.286 0 0 1 1.277-.179 2.927 2.927 0 0 1 1.9.565 1.969 1.969 0 0 1 .694 1.62V-1.225q0 .123.015.24l.645.082V0h-1.928q-.059-.205-.108-.4a2.993 2.993 0 0 1-.073-.387 2.621 2.621 0 0 1-.765.653 2.008 2.008 0 0 1-1.008.257zm.334-1.143a1.73 1.73 0 0 0 .832-.208 1.479 1.479 0 0 0 .58-.524v-1.06h-.984a1.436 1.436 0 0 0-1 .308.945.945 0 0 0-.337.718.7.7 0 0 0 .234.568 1.013 1.013 0 0 0 .675.198zM198.07 0v-.9l.879-.176v-4.18l-.926-.176v-.908h2.285l.076.92a2.3 2.3 0 0 1 .788-.765 2.1 2.1 0 0 1 1.069-.272 1.952 1.952 0 0 1 1.523.6 2.734 2.734 0 0 1 .545 1.878v2.9l.879.176V0h-3.182v-.9l.826-.176v-2.891a1.464 1.464 0 0 0-.287-1.022 1.127 1.127 0 0 0-.855-.3 1.431 1.431 0 0 0-.747.19 1.468 1.468 0 0 0-.519.53v3.492l.8.176V0zm10.184.123a2.209 2.209 0 0 1-1.312-.387 2.44 2.44 0 0 1-.835-1.081 4.18 4.18 0 0 1-.29-1.62v-.123a4.928 4.928 0 0 1 .29-1.77 2.634 2.634 0 0 1 .838-1.178 2.074 2.074 0 0 1 1.3-.422 2.067 2.067 0 0 1 .952.208 2.034 2.034 0 0 1 .7.595v-2.4l-.932-.176v-.908h2.408v8.063l.879.176V0H210.1l-.117-.768a2 2 0 0 1-.729.665 2.123 2.123 0 0 1-1 .226zm.416-1.166a1.376 1.376 0 0 0 .727-.185 1.438 1.438 0 0 0 .5-.536v-2.795a1.505 1.505 0 0 0-.5-.536 1.305 1.305 0 0 0-.718-.2 1.13 1.13 0 0 0-.788.278 1.643 1.643 0 0 0-.454.773 4.072 4.072 0 0 0-.146 1.151v.123a2.626 2.626 0 0 0 .325 1.4 1.145 1.145 0 0 0 1.054.527zM219.832.123a4.111 4.111 0 0 1-2.153-.536 3.5 3.5 0 0 1-1.365-1.5 5.041 5.041 0 0 1-.472-2.241v-.217a5 5 0 0 1 .469-2.212 3.642 3.642 0 0 1 1.341-1.517 3.813 3.813 0 0 1 2.086-.554 4.78 4.78 0 0 1 1.576.252 3.921 3.921 0 0 1 1.266.709v1.969h-1.125l-.155-1.319a2.161 2.161 0 0 0-.428-.24 2.5 2.5 0 0 0-.513-.152 3.262 3.262 0 0 0-.606-.053 2.222 2.222 0 0 0-1.315.387 2.411 2.411 0 0 0-.835 1.084 4.274 4.274 0 0 0-.287 1.635v.229a4.175 4.175 0 0 0 .3 1.673 2.383 2.383 0 0 0 .876 1.075 2.437 2.437 0 0 0 1.368.375 3.261 3.261 0 0 0 .765-.091 3.009 3.009 0 0 0 .665-.237l.158-1.2h1.113V-.6a4.31 4.31 0 0 1-1.2.521 5.666 5.666 0 0 1-1.529.202zm6.65 0a2.9 2.9 0 0 1-1.57-.41 2.686 2.686 0 0 1-1.008-1.14 3.822 3.822 0 0 1-.352-1.679v-.123A3.789 3.789 0 0 1 223.9-4.9a2.729 2.729 0 0 1 1.008-1.143 2.849 2.849 0 0 1 1.559-.416 2.887 2.887 0 0 1 1.57.413 2.709 2.709 0 0 1 1.008 1.14 3.8 3.8 0 0 1 .352 1.676v.123a3.822 3.822 0 0 1-.352 1.679 2.692 2.692 0 0 1-1 1.14 2.877 2.877 0 0 1-1.563.411zm0-1.137a1.223 1.223 0 0 0 .812-.267 1.594 1.594 0 0 0 .478-.738 3.416 3.416 0 0 0 .158-1.087v-.123a3.368 3.368 0 0 0-.158-1.078 1.6 1.6 0 0 0-.48-.738 1.235 1.235 0 0 0-.82-.27 1.218 1.218 0 0 0-.809.27 1.584 1.584 0 0 0-.478.738 3.427 3.427 0 0 0-.155 1.078v.123a3.475 3.475 0 0 0 .155 1.087 1.555 1.555 0 0 0 .48.738 1.247 1.247 0 0 0 .817.267zM230.18 0v-.9l.879-.176v-4.18l-.926-.176v-.908h2.285l.076.92a2.3 2.3 0 0 1 .788-.765 2.1 2.1 0 0 1 1.069-.272 1.952 1.952 0 0 1 1.523.6 2.734 2.734 0 0 1 .545 1.878v2.9l.881.179V0h-3.182v-.9l.826-.176v-2.891a1.464 1.464 0 0 0-.287-1.022 1.127 1.127 0 0 0-.855-.3 1.431 1.431 0 0 0-.747.19 1.468 1.468 0 0 0-.519.53v3.492l.8.176V0zm10.441.123a5.8 5.8 0 0 1-1.269-.132 6.524 6.524 0 0 1-1.181-.39l-.018-1.676h1.061l.223.914a2.886 2.886 0 0 0 .519.173 2.65 2.65 0 0 0 .595.062 1.387 1.387 0 0 0 .894-.223.7.7 0 0 0 .261-.551.682.682 0 0 0-.272-.542 2.592 2.592 0 0 0-1.04-.39 3.728 3.728 0 0 1-1.673-.718 1.558 1.558 0 0 1-.536-1.228 1.676 1.676 0 0 1 .278-.943 1.94 1.94 0 0 1 .82-.677 3.121 3.121 0 0 1 1.333-.255 4.978 4.978 0 0 1 1.28.149 3.474 3.474 0 0 1 .952.4l.035 1.611h-1.049l-.182-.838a1.4 1.4 0 0 0-.422-.2 1.964 1.964 0 0 0-.551-.07 1.24 1.24 0 0 0-.768.214.649.649 0 0 0-.281.536.651.651 0 0 0 .091.34.8.8 0 0 0 .352.278 3.853 3.853 0 0 0 .765.243 4.2 4.2 0 0 1 1.77.75 1.542 1.542 0 0 1 .533 1.225 1.772 1.772 0 0 1-.621 1.395 2.817 2.817 0 0 1-1.899.543zm6.105 0a2.011 2.011 0 0 1-1.591-.647 2.984 2.984 0 0 1-.571-2.013v-2.719l-.715-.176v-.908h2.191v3.814a1.91 1.91 0 0 0 .261 1.151.963.963 0 0 0 .806.331 1.637 1.637 0 0 0 .817-.19 1.4 1.4 0 0 0 .536-.542v-3.48l-.8-.176v-.908h2.273v5.262l.75.176V0h-2.057l-.1-.861a2.084 2.084 0 0 1-.759.729 2.121 2.121 0 0 1-1.04.255zM251.309 0v-.9l.885-.176v-6.981l-.937-.176v-.908h2.408v8.063l.885.176V0zm6.291.111a1.7 1.7 0 0 1-1.26-.454 1.994 1.994 0 0 1-.451-1.45v-3.492h-.926V-6.34h.926v-1.541h1.471v1.541h1.254v1.055h-1.254v3.492a.862.862 0 0 0 .167.589.582.582 0 0 0 .454.185 2.575 2.575 0 0 0 .366-.029q.2-.029.325-.059l.152 1.037a4.7 4.7 0 0 1-.589.129 4.043 4.043 0 0 1-.635.052zm4 .012a2.136 2.136 0 0 1-1.506-.5 1.774 1.774 0 0 1-.539-1.371 1.736 1.736 0 0 1 .328-1.049 2.136 2.136 0 0 1 .961-.706 4.112 4.112 0 0 1 1.535-.255h.967v-.533a1.079 1.079 0 0 0-.3-.8 1.193 1.193 0 0 0-.876-.3 1.938 1.938 0 0 0-.58.079 1.527 1.527 0 0 0-.451.226l-.135.855h-1.084l-.012-1.564a4.183 4.183 0 0 1 1.043-.483 4.286 4.286 0 0 1 1.277-.179 2.927 2.927 0 0 1 1.9.565 1.969 1.969 0 0 1 .694 1.62V-1.225q0 .123.015.24l.645.082V0h-1.928q-.059-.205-.108-.4a2.993 2.993 0 0 1-.073-.387 2.621 2.621 0 0 1-.765.653 2.008 2.008 0 0 1-1.008.257zm.334-1.143a1.73 1.73 0 0 0 .832-.208 1.479 1.479 0 0 0 .58-.524v-1.06h-.984a1.436 1.436 0 0 0-1 .308.945.945 0 0 0-.337.718.7.7 0 0 0 .234.568 1.013 1.013 0 0 0 .679.198zm4.24 1.02v-.9l.879-.176v-4.18l-.926-.176v-.908h2.285l.076.92a2.3 2.3 0 0 1 .788-.765 2.1 2.1 0 0 1 1.069-.272 1.952 1.952 0 0 1 1.523.6 2.734 2.734 0 0 1 .545 1.878v2.9l.879.176V0h-3.182v-.9l.826-.176v-2.891a1.464 1.464 0 0 0-.287-1.022 1.127 1.127 0 0 0-.855-.3 1.431 1.431 0 0 0-.747.19 1.468 1.468 0 0 0-.519.53v3.492l.8.176V0zm10.652.123a2.859 2.859 0 0 1-1.544-.407 2.707 2.707 0 0 1-1.008-1.125 3.692 3.692 0 0 1-.354-1.655v-.206a3.7 3.7 0 0 1 .352-1.641 2.723 2.723 0 0 1 1-1.134 2.828 2.828 0 0 1 1.544-.413 3.554 3.554 0 0 1 1.418.261 3.144 3.144 0 0 1 .99.647l.006 1.693h-1.125l-.217-1.119a1.2 1.2 0 0 0-.416-.272 1.448 1.448 0 0 0-.551-.1 1.319 1.319 0 0 0-.829.264 1.631 1.631 0 0 0-.521.729 3.026 3.026 0 0 0-.171 1.085v.205a3.057 3.057 0 0 0 .182 1.125 1.512 1.512 0 0 0 .507.691 1.245 1.245 0 0 0 .747.234 1.224 1.224 0 0 0 .829-.275 1.319 1.319 0 0 0 .419-.762h1.277l.018.035a2.66 2.66 0 0 1-.366 1.1 2.048 2.048 0 0 1-.832.759 2.942 2.942 0 0 1-1.355.281zm4.969 2.438a2.9 2.9 0 0 1-.419-.035 2.964 2.964 0 0 1-.413-.088l.164-1.107q.105.018.255.029t.237.012a.884.884 0 0 0 .621-.231 1.669 1.669 0 0 0 .41-.641l.193-.51-2.168-5.314-.738-.105v-.911h3.07v.908l-.779.117 1.1 2.953.193.551h.035l1.3-3.51-.779-.111v-.908h2.912v.908l-.686.1-2.451 6.287a3.794 3.794 0 0 1-.437.812 1.911 1.911 0 0 1-.656.58 2 2 0 0 1-.964.214z" data-name="Path 16928" transform="translate(108.205 1253.468)"/>
            <path id="Path_16867" d="M247.451 216.87a1.445 1.445 0 0 1-.157.052c-.708.085-.708.085-1.009-.558-.174-.371-.174-.37-.6-.336-.346.027-.692.057-1.036.07a.378.378 0 0 0-.419.341 6.9 6.9 0 0 1-.205.7l-.858.065c.042-.158.068-.271.1-.381q.582-1.882 1.167-3.764c.094-.309.1-.318.416-.327.705-.02.522-.153.845.5.522 1.06 1.029 2.129 1.543 3.193.066.138.129.278.206.444m-2.356-3.075l-.1.009c-.146.515-.294 1.028-.46 1.607l1.253-.084c-.247-.555-.457-1.05-.7-1.532" class="cls-2" data-name="Path 16867" transform="translate(-184.596 970.402)"/>
            <path id="Path_16868" d="M249.581 215.52a1.614 1.614 0 1 1 1.639 1.588 1.518 1.518 0 0 1-1.639-1.588m2.429-.091l-.034-.006a1.912 1.912 0 0 0 0-.214.772.772 0 0 0-1.515-.158 1.389 1.389 0 0 0-.026.844.763.763 0 0 0 .695.573.741.741 0 0 0 .754-.487 3.75 3.75 0 0 0 .127-.552" class="cls-2" data-name="Path 16868" transform="translate(-184.596 970.402)"/>
            <path id="Path_16869" d="M254.155 217.485c-.258-.059-.485-.109-.754-.169.237-1.023.467-2.014.7-3.038l.681.138-.026.415c.123-.057.22-.108.322-.15a1.256 1.256 0 0 1 1.257.126.745.745 0 0 1 .349.666 2.738 2.738 0 0 1-.054.5c-.125.583-.262 1.163-.4 1.744-.015.068-.047.132-.083.237-.243-.058-.478-.112-.742-.173.11-.485.216-.936.315-1.388a5.772 5.772 0 0 0 .121-.632c.036-.352-.073-.532-.343-.623a.64.64 0 0 0-.755.249 1.324 1.324 0 0 0-.163.394c-.124.485-.236.973-.354 1.459-.016.068-.042.135-.078.249" class="cls-2" data-name="Path 16869" transform="translate(-184.596 970.402)"/>
            <path id="Path_16870" d="M248.027 212.6h.758c.053.717 0 1.427 0 2.135s-.021 1.428-.032 2.168h-.788c-.016-1.431.072-2.843.063-4.3" class="cls-2" data-name="Path 16870" transform="translate(-184.596 970.402)"/>
            <path id="Path_16871" d="M273.789 250.119a25.938 25.938 0 0 1-51.7.128A13.046 13.046 0 0 0 235 261.052a12.915 12.915 0 0 0 12.168-8.64c-.16-.1-.327-.207-.5-.311a9.271 9.271 0 0 1-3.4-3.518 6.612 6.612 0 0 1-.827-2.978 6.007 6.007 0 0 1 .881-3.351 12.284 12.284 0 0 1 1.143-1.557 15.754 15.754 0 0 0 2.183-3.1 7.52 7.52 0 0 0 .835-3.053 9.544 9.544 0 0 0-.227-2.241c-.1-.5-.177-1.01-.26-1.517a2.336 2.336 0 0 1 0-.318 2.333 2.333 0 0 1 .284.146 16.763 16.763 0 0 1 5.6 6.365 11.831 11.831 0 0 1-.469 11.2 10.853 10.853 0 0 1-2.439 2.655c-.316.255-.629.515-.94.776-.1.084-.186.185-.282.274a.427.427 0 0 0-.1.517 13.1 13.1 0 0 0 1.088 2.3 12.758 12.758 0 0 0 8.889 6.146 12.967 12.967 0 0 0 14.2-7.556 14.427 14.427 0 0 0 .957-3.169" class="cls-2" data-name="Path 16871" transform="translate(-184.596 970.402)"/>
            <path id="Path_16872" d="M219.026 257.687c-.084-.291-.162-.564-.247-.853a.919.919 0 0 1 .143-.1 1.549 1.549 0 0 0 .993-1.756 3.468 3.468 0 0 0-.35-1.271 1.328 1.328 0 0 0-.711-.674.95.95 0 0 0-1.316.666 9.124 9.124 0 0 0-.144 1.314c-.036.523-.04 1.05-.08 1.573a3.437 3.437 0 0 1-.133.665 2.063 2.063 0 0 1-3.151 1.132 2.683 2.683 0 0 1-1.045-1.287 4.493 4.493 0 0 1-.3-2.665 2.491 2.491 0 0 1 1.779-1.929 1.035 1.035 0 0 1 .172-.021l.264.852a1.631 1.631 0 0 1-.176.1 1.783 1.783 0 0 0-1.168 1.581 3.044 3.044 0 0 0 .618 2.288 1.17 1.17 0 0 0 1.033.47.989.989 0 0 0 .922-.633 3.248 3.248 0 0 0 .2-.865c.048-.523.041-1.051.082-1.575a7.1 7.1 0 0 1 .164-1.238 1.789 1.789 0 0 1 1.7-1.449 1.984 1.984 0 0 1 1.863.928 3.924 3.924 0 0 1 .615 1.591 3.793 3.793 0 0 1 0 1.389 2.178 2.178 0 0 1-1.722 1.763" class="cls-2" data-name="Path 16872" transform="translate(-184.596 970.402)"/>
            <path id="Path_16873" d="M221.77 263.893l-.533.448.012.074a2.094 2.094 0 0 1 1.72.8 1.632 1.632 0 0 1 .235 1.885c.155.019.277.038.4.046a2.011 2.011 0 0 1 1.661 1.037 1.5 1.5 0 0 1-.183 1.912 3.014 3.014 0 0 1-.363.343q-1.5 1.175-2.993 2.341c-.048.036-.1.065-.188.127l-.558-.7c.111-.092.2-.172.29-.244.809-.634 1.62-1.264 2.427-1.9a5.638 5.638 0 0 0 .593-.519.868.868 0 0 0 .157-1.086 1.339 1.339 0 0 0-1.756-.657 3.208 3.208 0 0 0-.611.367c-.778.6-1.547 1.2-2.32 1.8-.1.079-.206.153-.33.246l-.555-.713c.112-.1.2-.176.29-.247.837-.657 1.677-1.307 2.509-1.969a3.659 3.659 0 0 0 .589-.571.848.848 0 0 0 .023-1.064 1.336 1.336 0 0 0-1.72-.528 4.842 4.842 0 0 0-.878.547c-.687.517-1.359 1.055-2.038 1.584-.1.08-.206.154-.333.247l-.573-.72 4.513-3.53.514.636" class="cls-2" data-name="Path 16873" transform="translate(-184.596 970.402)"/>
            <path id="Path_16874" d="M233.368 226.752l.537.69-.6.517 2.969 3.81a1.75 1.75 0 0 1-.26.072c-.142.016-.288 0-.429.028a.7.7 0 0 1-.749-.338c-.666-.89-1.36-1.758-2.045-2.634-.079-.1-.163-.2-.263-.324a4.392 4.392 0 0 0-1.126.951l3.384 3.51c-.4.068-.737.139-1.073.174-.082.009-.19-.083-.261-.154-.387-.39-.766-.789-1.148-1.182-.082-.084-.169-.162-.29-.277L231 232.708l.8.745a.39.39 0 0 1-.389.193c-.43 0-.86-.01-1.29-.018a.464.464 0 0 1-.491-.286.531.531 0 0 1 .129-.591c.461-.5.912-1.011 1.367-1.518.079-.089.153-.18.259-.3l-.711-.734c-.855.734-1.5 1.613-2.291 2.409l-.663-.587 1.726-1.919c.1.072.184.129.266.185l.022-.027-.159-.233a25.307 25.307 0 0 1 3.79-3.271" class="cls-2" data-name="Path 16874" transform="translate(-184.596 970.402)"/>
            <path id="Path_16875" d="M255.532 224.546l.079.761c-.283.028-.531.05-.776.08a1.491 1.491 0 0 0-.312.073.373.373 0 0 0-.3.43.39.39 0 0 0 .348.4 3.631 3.631 0 0 0 .743-.025 2.482 2.482 0 0 0 .412-.117l-.034.4a9.866 9.866 0 0 0 .8-2.173l-2.69-.752.235-.837c.106.016.186.019.262.039q.845.24 1.688.483l1.384.393a4.678 4.678 0 0 0-.32-.41 5.526 5.526 0 0 0-1.826-1.3.449.449 0 0 1-.33-.478c0-.236-.035-.471-.06-.785a3.953 3.953 0 0 1 1.9 1.27 1.356 1.356 0 0 0-.024-.223c-.1-.3-.208-.61-.32-.912a.729.729 0 0 0-.416-.508.264.264 0 0 1-.132-.188c-.038-.306-.056-.614-.087-.994a8.049 8.049 0 0 1 1 .475.975.975 0 0 1 .321.5c.174.534.332 1.072.459 1.618.139.592.25 1.192.341 1.794.042.282.125.476.428.523a1.034 1.034 0 0 1 .2.1l-.285.817-.751-.239c-.317.748-.561 1.518-.843 2.273s-.548 1.5-.847 2.317c-.236-.327-.439-.587-.615-.868a.43.43 0 0 1 .009-.3c.094-.3.205-.605.327-.958h-.448a1.411 1.411 0 0 1-1.465-1.363 1.04 1.04 0 0 1 .475-.982 2.168 2.168 0 0 1 1.458-.32" class="cls-2" data-name="Path 16875" transform="translate(-184.596 970.402)"/>
            <path id="Path_16876" d="M245.528 223.033a2.963 2.963 0 0 1-.062-.3c-.015-.177-.018-.355-.028-.563.391-.034.757-.066 1.122-.1.3-.023.6-.047.9-.064a.667.667 0 0 1 .54.1c.057.05.185.025.278.025h2.053a1.934 1.934 0 0 1 .03.883l-.748.035c-.009.144-.023.27-.023.4 0 1.338 0 2.677-.006 4.016a.536.536 0 0 0 .248.5 1.269 1.269 0 0 1 .4 1.453 1.138 1.138 0 0 1-1.139.814 1.82 1.82 0 0 1-1.236-.394 4.018 4.018 0 0 1-.521-.489 11.764 11.764 0 0 1-1.081-1.535.515.515 0 0 1 .66.246 4.3 4.3 0 0 0 .98 1.135 1.377 1.377 0 0 0 1.331.324.6.6 0 0 0 .47-.563.464.464 0 0 0-.656-.494 1.8 1.8 0 0 0-.414.276 2.168 2.168 0 0 0-.237.258l-.46-.667a1.156 1.156 0 0 1 1.169-.61c-.029-.178-.164-.225-.265-.283a.443.443 0 0 1-.227-.446c.011-.573 0-1.147 0-1.721 0-.127-.01-.256-.019-.431-.562.047-1.1.075-1.623.14a.462.462 0 0 0-.376.564 1.908 1.908 0 0 0 .166.507 4.175 4.175 0 0 0 .869 1.176c.077.074.163.138.281.238l-.35.26a1.353 1.353 0 0 1-.2-.157c-.34-.4-.7-.787-1.009-1.209a2.36 2.36 0 0 1-.477-1.474.925.925 0 0 1 .26-.686.72.72 0 0 1 .363-.2c.64-.068 1.282-.109 1.961-.163.029.212.057.394.082.579a3.607 3.607 0 0 0 .015-1.358l-.341-.02c-.07-.005-.164.016-.21-.021-.214-.174-.452-.1-.685-.087-.5.033-1 .073-1.5.107-.093.007-.185 0-.287 0" class="cls-2" data-name="Path 16876" transform="translate(-184.596 970.402)"/>
            <path id="Path_16877" d="M258.936 277.314c-.318-.936-.607-1.789-.91-2.677.3-.1.568-.2.868-.3.864 2.5 1.717 4.983 2.584 7.5l-.792.273-.252-.6c-.061.106-.1.169-.134.236a2.057 2.057 0 0 1-2.041 1.163 2.542 2.542 0 0 1-1.939-1.2 4.14 4.14 0 0 1-.7-2.615 2.187 2.187 0 0 1 3.065-1.872c.051.028.109.041.249.1m-2.407 2.1a3.945 3.945 0 0 0 .725 2 1.588 1.588 0 0 0 1.166.689 1.452 1.452 0 0 0 1.56-1.567 3.736 3.736 0 0 0-.823-2.213 1.49 1.49 0 0 0-1.671-.5 1.532 1.532 0 0 0-.957 1.591" class="cls-2" data-name="Path 16877" transform="translate(-184.596 970.402)"/>
            <path id="Path_16878" d="M253.764 275.817l.2 1.045c-.305.064-.572.117-.854.175-.045-.065-.09-.126-.163-.229a.978.978 0 0 0-.059.112l-1.146 3.242-1.355 3.853c-.118.333-.12.333-.481.344-.18.006-.357.01-.537.013-.035 0-.071-.008-.155-.017-1.1-2.566-2.205-5.154-3.339-7.8l1.089-.05 2.745 6.925a1.376 1.376 0 0 0 .11-.208l2.163-6.605c.092-.284.1-.288.4-.3.152-.009.3-.013.468-.021l.064-.317.85-.156" class="cls-2" data-name="Path 16878" transform="translate(-184.596 970.402)"/>
            <path id="Path_16879" d="M272.187 275.218c-.113.1-.191.172-.271.239-.147.122-.294.238-.457.37l-.561-.364c-.145.1-.123.277-.164.414a2.992 2.992 0 0 1-1.489 1.845 1.646 1.646 0 0 1-1 .227 1.605 1.605 0 0 1-1.332-2.139 2.724 2.724 0 0 1 .588-.933q.6-.663 1.2-1.333a4.565 4.565 0 0 0 .272-.384c-.159-.171-.3-.342-.464-.493a.779.779 0 0 0-.77-.173 2.313 2.313 0 0 0-1.371 1.082.982.982 0 0 0-.065.734c.027.126.073.25.127.427-.241.144-.488.3-.755.456a1.725 1.725 0 0 1-.179-1.574 3.648 3.648 0 0 1 2.3-2.055 1.257 1.257 0 0 1 1.316.35 7.281 7.281 0 0 1 .571.642c.319.387.622.787.948 1.168a5.168 5.168 0 0 0 1.553 1.494m-2.747-1.457c-.243.316-.447.6-.666.86s-.472.539-.7.808a1.794 1.794 0 0 0-.166.233.862.862 0 0 0 .028 1.035.9.9 0 0 0 1.03.289 2 2 0 0 0 1.24-1.7 2.315 2.315 0 0 0-.761-1.529" class="cls-2" data-name="Path 16879" transform="translate(-184.596 970.402)"/>
            <path id="Path_16880" d="M237.461 278.584l-.795-.358a1.8 1.8 0 0 1 1.645-1.125 3.974 3.974 0 0 1 2.319.613 1.361 1.361 0 0 1 .658 1.632c-.195.786-.435 1.564-.645 2.348-.1.379-.2.762-.262 1.15a4.773 4.773 0 0 0-.007.742c-.208-.056-.378-.1-.547-.148-.395-.113-.409-.134-.386-.547 0-.069.012-.138.019-.223-.166-.064-.29.041-.413.086a2.974 2.974 0 0 1-2.493-.2 1.544 1.544 0 0 1-.713-2.078 1.561 1.561 0 0 1 1.447-.946 8.809 8.809 0 0 1 1.21.09c.463.044.924.105 1.388.145.306.025.331 0 .416-.312a.978.978 0 0 0-.57-1.3 4.119 4.119 0 0 0-.988-.294 1.04 1.04 0 0 0-1.018.4c-.084.1-.164.2-.265.324m2.523 1.94a1.226 1.226 0 0 0-.166-.04c-.534-.043-1.069-.089-1.6-.126a5.174 5.174 0 0 0-.715-.022.821.821 0 0 0-.777.631.832.832 0 0 0 .331.948 2.036 2.036 0 0 0 .717.3 1.657 1.657 0 0 0 1.773-.565 2.989 2.989 0 0 0 .442-1.13" class="cls-2" data-name="Path 16880" transform="translate(-184.596 970.402)"/>
            <path id="Path_16881" d="M226.586 277.384l-.713-.625.271-.665-.444-.044a2.9 2.9 0 0 1-2.217-1.345 1.568 1.568 0 0 1 .933-2.394 1.748 1.748 0 0 1 1.253.15c.287.144.555.323.831.49.419.252.831.517 1.257.757.278.156.309.137.508-.1a.987.987 0 0 0 .016-1.449 4.006 4.006 0 0 0-.691-.615 1.09 1.09 0 0 0-1.247-.068c-.082.045-.166.087-.275.143-.191-.221-.377-.432-.581-.666a1.754 1.754 0 0 1 1.615-.43 3.725 3.725 0 0 1 2.26 1.754 1.331 1.331 0 0 1-.144 1.633c-.473.584-.973 1.148-1.461 1.72-.039.045-.08.088-.118.134a4.784 4.784 0 0 0-1.053 1.624m.968-2.957c-.089-.06-.125-.087-.164-.108-.477-.269-.954-.538-1.432-.8a4.657 4.657 0 0 0-.568-.3.866.866 0 0 0-1.156.477.927.927 0 0 0 .158.943 2.029 2.029 0 0 0 .966.7 1.518 1.518 0 0 0 1.654-.34c.178-.174.341-.362.542-.577" class="cls-2" data-name="Path 16881" transform="translate(-184.596 970.402)"/>
            <path id="Path_16882" d="M278.329 259.628c-.128.262-.25.517-.382.786a1.822 1.822 0 0 1-1.071-1.755 4.087 4.087 0 0 1 .614-2.107 1.419 1.419 0 0 1 1.8-.7c.688.2 1.364.434 2.049.643a5.337 5.337 0 0 0 2.089.408c-.087.273-.162.509-.235.747a.22.22 0 0 1-.246.162c-.154-.006-.307-.016-.512-.027.044.166.078.31.122.451a2.956 2.956 0 0 1-.24 2.355 1.559 1.559 0 0 1-1.754.872 1.578 1.578 0 0 1-1.283-1.558 8.143 8.143 0 0 1 .107-1.172c.062-.5.148-.993.206-1.489.036-.3.008-.324-.265-.413a1 1 0 0 0-1.368.558 4.3 4.3 0 0 0-.316 1.055.947.947 0 0 0 .327.87l.356.318m2-2.419c-.047.46-.088.9-.138 1.335-.038.319-.1.636-.126.956a.882.882 0 0 0 .671.969.9.9 0 0 0 1.024-.47 2.04 2.04 0 0 0 .219-1.553 1.769 1.769 0 0 0-1.65-1.237" class="cls-2" data-name="Path 16882" transform="translate(-184.596 970.402)"/>
            <path id="Path_16883" d="M279.328 266.622c-.148.272-.281.51-.438.795-2.326-1.278-4.622-2.56-6.945-3.847.16-.284.3-.529.455-.811l2.473 1.365c-.027-.183-.039-.286-.059-.389a2.369 2.369 0 0 1 1.009-2.365 1.442 1.442 0 0 1 1.235-.179 4.145 4.145 0 0 1 .793.325c1.038.564 2.07 1.142 3.1 1.715.051.029.1.064.18.119l-.432.789c-.134-.066-.239-.115-.342-.171-.929-.514-1.856-1.033-2.79-1.543a2.951 2.951 0 0 0-.589-.256 1.035 1.035 0 0 0-1.154.364 1.471 1.471 0 0 0 .225 2.183c.546.381 1.145.688 1.724 1.021.444.255.9.5 1.347.747.06.034.116.078.205.138" class="cls-2" data-name="Path 16883" transform="translate(-184.596 970.402)"/>
            <path id="Path_16884" d="M268.443 238.139c-.158.077-.273.14-.392.191-.26.114-.448-.005-.458-.291a.631.631 0 0 1 .019-.213c.11-.366.222-.732.348-1.092a.671.671 0 0 1 .183-.257c.25-.227.411-.2.591.086.037.058.082.112.148.2l1.209-.668a9.319 9.319 0 0 0-.745-1.268c-1.388.867-2.74 1.709-4.13 2.578a1.788 1.788 0 0 1-.033-.272c.006-.19.041-.381.031-.57a.485.485 0 0 1 .276-.489c.988-.6 1.966-1.221 2.948-1.836.109-.069.218-.142.359-.236-.105-.2-.2-.377-.324-.6l.744-.468a44.793 44.793 0 0 1 2.583 4.366l-.756.421-.466-.784-1.244.69.645 1.191-.869.49c-.226-.393-.436-.763-.667-1.168" class="cls-2" data-name="Path 16884" transform="translate(-184.596 970.402)"/>
            <path id="Path_16885" d="M233.74 226.379l1.333-.742c.437-.243.873-.488 1.336-.745a1.03 1.03 0 0 0-.182-.155c-.371-.162-.739-.334-1.121-.469a1.281 1.281 0 0 0-1.139.1.466.466 0 0 1-.641-.068 6.948 6.948 0 0 0-.58-.444 2.231 2.231 0 0 1 1.807-.414 9.824 9.824 0 0 1 2.149.968.414.414 0 0 0 .583-.012l.445.783-.794.471.837 1.537-.705.39c-.155.088-.314.171-.467.264a.665.665 0 0 0-.246.977.928.928 0 0 0 1.382.169c-.024-.034-.043-.074-.072-.108a.558.558 0 0 1-.108-.714.7.7 0 0 1 .712-.379.457.457 0 0 1 .253.116c.269.308.536.626.385 1.087a.532.532 0 0 0 0 .129 2.148 2.148 0 0 1 .87.575c-.194.111-.374.214-.532.307-.241-.14-.455-.265-.669-.386a.328.328 0 0 0-.338 0 1.944 1.944 0 0 1-2.571-.749 2.236 2.236 0 0 1-.272-.73.775.775 0 0 1 .469-.91c.208-.118.415-.235.622-.355.02-.011.033-.034.084-.092l-.391-.722-2 1.1c-.149-.264-.285-.509-.436-.781" class="cls-2" data-name="Path 16885" transform="translate(-184.596 970.402)"/>
            <path id="Path_16886" d="M217.145 264.523a2.2 2.2 0 0 1-1.433-.549 2.874 2.874 0 0 1-1.04-1.941 2.345 2.345 0 0 1 .9-2.186 4.289 4.289 0 0 1 2.279-.963 2.293 2.293 0 0 1 1.5.356 2.884 2.884 0 0 1 1.26 2.815 2.424 2.424 0 0 1-.626 1.265 4.373 4.373 0 0 1-2.844 1.2m.935-4.707a3.4 3.4 0 0 0-2.153 1 1.627 1.627 0 0 0 1.209 2.761 3.177 3.177 0 0 0 2.239-.986 1.535 1.535 0 0 0 .321-1.788 1.614 1.614 0 0 0-1.616-.983" class="cls-2" data-name="Path 16886" transform="translate(-184.596 970.402)"/>
            <path id="Path_16887" d="M226.087 236.244l-.385.565-.735-.449a26.942 26.942 0 0 1 2.7-4.089l.7.5-.447.664 3.934 2.87a4.693 4.693 0 0 1-1.011.36c-.1.022-.243-.072-.343-.145-.931-.669-1.856-1.344-2.784-2.017-.114-.082-.232-.163-.371-.259a6.106 6.106 0 0 0-.754 1.144l4.159 2.5a3.977 3.977 0 0 1-.975.474c-.081.031-.222-.056-.319-.115-.974-.58-1.946-1.167-2.917-1.749-.141-.086-.286-.164-.448-.258" class="cls-2" data-name="Path 16887" transform="translate(-184.596 970.402)"/>
            <path id="Path_16888" d="M260.091 276.3l.874-.468 3.586 3.276a.6.6 0 0 0 .02-.143q-.273-1.788-.548-3.574c-.045-.3-.074-.593-.125-.886a.259.259 0 0 1 .154-.319c.2-.1.4-.2.634-.323.08.575.155 1.105.224 1.634.211 1.586.426 3.171.623 4.76a9.669 9.669 0 0 1 .09 1.391 1.412 1.412 0 0 1-1.077 1.4c-.261.072-.288.065-.446-.157-.1-.146-.2-.294-.316-.468l.369-.157a.964.964 0 0 0 .662-1.066v-.036a1.485 1.485 0 0 0-.581-1.227c-1.317-1.1-2.6-2.257-3.887-3.394-.078-.068-.152-.142-.254-.241" class="cls-2" data-name="Path 16888" transform="translate(-184.596 970.402)"/>
            <path id="Path_16889" d="M232.493 274.4c.326.173.6.315.882.468l-.71 4.811 3.61-3.268.779.41a1.268 1.268 0 0 1-.158.207q-2.548 2.255-5.107 4.5a3.859 3.859 0 0 1-.9.583 1.368 1.368 0 0 1-1.53-.266.289.289 0 0 1-.106-.375c.077-.184.15-.371.237-.586.141.1.255.177.375.248a.972.972 0 0 0 1.251-.09 1.582 1.582 0 0 0 .683-1.179c.161-1.6.39-3.2.593-4.8.026-.2.058-.4.1-.667" class="cls-2" data-name="Path 16889" transform="translate(-184.596 970.402)"/>
            <path id="Path_16890" d="M262.348 227.108c.17-.147.341-.292.542-.463.065.051.19.142.311.236.461.36.919.722 1.382 1.081.11.085.211.165.117.329.058-.033.117-.068.21-.119l2.192 2.042-.591.654a29.421 29.421 0 0 0-2.946-2.525l-3.005 3.843c-.125-.384-.241-.7-.322-1.012a.416.416 0 0 1 .1-.283c.177-.25.37-.49.584-.768l-.249-.059a1.44 1.44 0 0 1-.8-2.206 1.106 1.106 0 0 1 1.231-.442c.642.15.711.245.661.891-.006.069-.023.135-.041.23a2.909 2.909 0 0 0-.381-.142 4.6 4.6 0 0 0-.77-.127.673.673 0 0 0-.387.148.3.3 0 0 0 0 .512 1.152 1.152 0 0 0 .732.246h.753l1.132-1.451c-.145-.12-.265-.215-.382-.312-.1-.079-.186-.161-.078-.295z" class="cls-2" data-name="Path 16890" transform="translate(-184.596 970.402)"/>
            <path id="Path_16891" d="M239.684 223.519c.1.193.168.326.235.459l.045-.016-.106-.505a12.2 12.2 0 0 1 2.365-.666l.218.789c-.263.086-.485.162-.751.252l1.325 4.651a4.182 4.182 0 0 1-1.03-.3c-.065-.023-.106-.148-.135-.235-.085-.258-.159-.52-.247-.817-.121.089-.21.16-.3.226a1.443 1.443 0 0 1-2.167-.852 1.323 1.323 0 0 1 .956-1.484.276.276 0 0 1 .195.044c.177.137.345.285.533.444-.2.131-.37.234-.526.357a1.2 1.2 0 0 0-.478.61.424.424 0 0 0 .1.463c.135.123.289.075.436.009a1.546 1.546 0 0 0 .668-.628c.073-.118.153-.231.257-.391l-.533-1.849c-.91.327-1.749.719-2.662 1.057l-.341-.826 1.953-.788" class="cls-2" data-name="Path 16891" transform="translate(-184.596 970.402)"/>
            <path id="Path_16892" d="M262.835 233.849c-.245-.029-.377-.127-.388-.363a7 7 0 0 1 .127-2.032 1.691 1.691 0 0 1 .791-1.063.939.939 0 0 1 1.513.779l.017.243c.775-.025.972.17.918.926l.339-.12c.1.111.2.213.281.325.25.335.867.135 1.007-.232a.385.385 0 0 0-.093-.4c-.174-.211-.342-.427-.533-.666l.675-.56c.551.612 1.028 1.259 1.577 1.916l-.683.561-.441-.485c-.068.082-.128.148-.183.22a1.715 1.715 0 0 1-1.005.638 1.221 1.221 0 0 1-.817-.146.423.423 0 0 0 .013.589 1.6 1.6 0 0 0 .785.541c.144.051.3.077.506.129a8.137 8.137 0 0 1-.838.674c-.048.034-.164.008-.233-.024a1.438 1.438 0 0 1-.936-1.9c.093-.292.245-.566.37-.854-.254-.417-.538-.457-.878-.109-.2.205-.392.416-.622.66l-.325-.731c.161-.175.319-.351.48-.524.123-.133.264-.256.148-.465a.582.582 0 0 0-.611-.278.892.892 0 0 0-.575.5 4.043 4.043 0 0 0-.311 1.354c-.03.293-.05.588-.075.89" class="cls-2" data-name="Path 16892" transform="translate(-184.596 970.402)"/>
            <path id="Path_16893" d="M268.8 270.614l.651-.709 4.423 1.913a4.92 4.92 0 0 0-.414-.866c-.138-.291-.29-.576-.437-.862s-.292-.575-.438-.862l-.44-.86c-.146-.287-.288-.573-.441-.875l.64-.69c.117.224.212.4.3.58l2.261 4.593c.158.322.16.324-.083.58-.424.447-.287.414-.832.192q-2.437-.988-4.87-1.987c-.095-.039-.189-.085-.322-.147" class="cls-2" data-name="Path 16893" transform="translate(-184.596 970.402)"/>
            <path id="Path_16894" d="M217.307 235.933c.137.315.242.594.381.854a.588.588 0 0 0 .278.2c.3.136.613.256.964.4-.1.264-.2.5-.307.775l-4.029-1.63c.108-.266.2-.494.314-.768.586.231 1.154.455 1.719.68l.061-.062c-.052-.114-.1-.229-.153-.342-.277-.583-.55-1.167-.835-1.745a.51.51 0 0 1-.016-.477c.109-.234.2-.478.325-.774.086.178.149.3.206.428.205.457.407.916.612 1.373.14.309.15.313.492.245.772-.15 1.545-.305 2.317-.456.125-.023.252-.036.434-.062-.132.331-.231.611-.36.876a.387.387 0 0 1-.262.139c-.624.1-1.25.191-1.876.284-.07.01-.137.031-.265.061" class="cls-2" data-name="Path 16894" transform="translate(-184.596 970.402)"/>
            <path id="Path_16895" d="M235.326 219.9c.251-.067.5-.137.749-.2a.233.233 0 0 1 .162.048.5.5 0 0 0 .51.048c.511-.17.632-.42.448-.93-.043-.122-.1-.24-.164-.406-.068.1-.115.16-.151.226a1.137 1.137 0 0 1-1.742.371 1.938 1.938 0 0 1-.747-1.871 1.184 1.184 0 0 1 1.606-.959c.064.022.13.041.231.074l-.067-.383.627-.238a1.406 1.406 0 0 1 .108.19c.319.823.645 1.645.946 2.475a4.108 4.108 0 0 1 .193.867.765.765 0 0 1-.3.7 2.48 2.48 0 0 1-1.642.61.759.759 0 0 1-.768-.621m-.167-2.521a1.645 1.645 0 0 0 .335.916.661.661 0 0 0 .75.271.707.707 0 0 0 .494-.708 1.464 1.464 0 0 0-.392-.971.657.657 0 0 0-.78-.169.664.664 0 0 0-.407.661" class="cls-2" data-name="Path 16895" transform="translate(-184.596 970.402)"/>
            <path id="Path_16896" d="M221.9 225.932l.559-.532 1.792.94.056-.052c-.308-.6-.7-1.145-1.033-1.757l.526-.55 1.822 1.028a4.048 4.048 0 0 0-.481-.961c-.161-.305-.336-.6-.515-.916.169-.179.323-.34.477-.5a19.115 19.115 0 0 1 1.591 2.867l-.553.506c-.548-.3-1.125-.619-1.7-.936l-.061.064c.31.57.675 1.11 1.01 1.7l-.533.566c-.969-.483-1.928-.958-2.953-1.467" class="cls-2" data-name="Path 16896" transform="translate(-184.596 970.402)"/>
            <path id="Path_16897" d="M232.379 216.222l2.1 3.79c-.208.121-.4.234-.6.354-.086-.109-.157-.2-.247-.309a1.454 1.454 0 0 0-.09.167 1.2 1.2 0 0 1-1.995.528 2.258 2.258 0 0 1-.779-1.415 1.224 1.224 0 0 1 1.423-1.394c.056.007.113 0 .231 0l-.728-1.34.688-.382m-.058 2.165a.7.7 0 0 0-.766.731 1.6 1.6 0 0 0 .516 1.028.675.675 0 0 0 .819.132.692.692 0 0 0 .325-.765 1.648 1.648 0 0 0-.494-.892 1.746 1.746 0 0 0-.4-.234" class="cls-2" data-name="Path 16897" transform="translate(-184.596 970.402)"/>
            <path id="Path_16898" d="M267.328 223.043l-.309.279-.549-.429c.88-1.149 1.764-2.266 2.661-3.415.118.084.224.154.324.232s.179.151.293.247c-.3.4-.591.781-.914 1.206.14.017.218.029.295.034a1.218 1.218 0 0 1 1.133 1.527 2.139 2.139 0 0 1-1.13 1.41 1.182 1.182 0 0 1-1.761-.888c-.005-.046-.019-.091-.043-.2m.439-.185a.64.64 0 0 0 1 .577 1.644 1.644 0 0 0 .737-.975.6.6 0 0 0-.191-.648.635.635 0 0 0-.659-.154 1.5 1.5 0 0 0-.883 1.2" class="cls-2" data-name="Path 16898" transform="translate(-184.596 970.402)"/>
            <path id="Path_16899" d="M283.8 254.508c-.05.3-.1.577-.149.9l-5.648-1c.053-.283.1-.523.147-.795l.777.09c-.217-.264-.415-.467-.568-.7a.965.965 0 0 1-.09-.828 1.7 1.7 0 0 1 .448-.77l.761.441c-.062.114-.11.195-.153.279a1.006 1.006 0 0 0 .481 1.494 4.953 4.953 0 0 0 1.085.346c.853.171 1.714.306 2.57.456.094.017.185.046.339.083" class="cls-2" data-name="Path 16899" transform="translate(-184.596 970.402)"/>
            <path id="Path_16900" d="M229.631 239.559v.558c-.192.068-.4.152-.613.213a.625.625 0 0 0-.476.426 1.277 1.277 0 0 1-.275.413.452.452 0 0 1-.523.129.549.549 0 0 1-.383-.433.838.838 0 0 1 .5-.907.431.431 0 0 0 .244-.5c-.029-.257-.209-.37-.429-.24a7.673 7.673 0 0 0-.69.51c-.2.152-.382.326-.592.46a1.362 1.362 0 0 1-.495.192.548.548 0 0 1-.66-.633.374.374 0 0 1 .018-.106c.3-.792.6-1.582.9-2.387a3.312 3.312 0 0 1 .83.268l-.71 1.907.065.034a2.71 2.71 0 0 1 .239-.251 5.994 5.994 0 0 1 .792-.6.771.771 0 0 1 1.132.324 5.439 5.439 0 0 1 .3.77c.1-.015.233-.034.368-.057s.277-.053.462-.088" class="cls-2" data-name="Path 16900" transform="translate(-184.596 970.402)"/>
            <path id="Path_16901" d="M267.141 241.443c.091-.4.163-.717.228-1.029.033-.164.172-.184.29-.231q1.326-.541 2.653-1.075c.321-.13.638-.264.985-.406-.069-.217-.132-.417-.2-.653l.807-.327.928 2.282c-.273.115-.529.223-.819.343l-.326-.734-2.237.9c-.738.3-1.479.6-2.3.929" class="cls-2" data-name="Path 16901" transform="translate(-184.596 970.402)"/>
            <path id="Path_16902" d="M274.308 231.306c.057-.116.1-.21.156-.316-.1-.048-.188-.088-.273-.125a1.314 1.314 0 0 1-.71-.765.861.861 0 0 1 .268-1.029.84.84 0 0 1 1.088-.014 6.8 6.8 0 0 1 .526.481c.14.129.278.261.421.389a.539.539 0 0 0 .116.061c.3-.18.351-.278.3-.5a.774.774 0 0 0-.783-.584c-.043-.094-.1-.2-.14-.307s-.07-.194-.11-.312a1 1 0 0 1 1.024.175 2.461 2.461 0 0 1 .7 1.064.759.759 0 0 1-.283.949c-.3.215-.612.413-.921.615a3.228 3.228 0 0 0-.979.83c-.138-.213-.258-.4-.395-.609m1.124-1.048a7.83 7.83 0 0 0-.686-.608.371.371 0 0 0-.6.3.671.671 0 0 0 .142.421c.283.351.71.31 1.139-.115" class="cls-2" data-name="Path 16902" transform="translate(-184.596 970.402)"/>
            <path id="Path_16903" d="M221.785 227.14a1.652 1.652 0 0 1 .056 3.3 1.768 1.768 0 0 1-1.7-1.657 1.683 1.683 0 0 1 1.644-1.646m-.157.753a.745.745 0 0 0-.73 1 1.309 1.309 0 0 0 1.1.784.75.75 0 0 0 .709-1.019 1.326 1.326 0 0 0-1.081-.764" class="cls-2" data-name="Path 16903" transform="translate(-184.596 970.402)"/>
            <path id="Path_16904" d="M230.13 221.482l.671-.3a1.158 1.158 0 0 1-.178 1.115 1.711 1.711 0 0 1-.96.649 1.273 1.273 0 0 1-1.177-.263 2.126 2.126 0 0 1-.776-1.252 1.3 1.3 0 0 1 .52-1.357 1.345 1.345 0 0 1 1.478-.191 2.07 2.07 0 0 1 .842.816c-.545.431-1.136.784-1.671 1.2a.7.7 0 0 0 .856.372c.306-.1.414-.307.4-.787m-.5-.7c-.33-.432-.7-.509-1.009-.252a.629.629 0 0 0 .011.952l1-.7" class="cls-2" data-name="Path 16904" transform="translate(-184.596 970.402)"/>
            <path id="Path_16905" d="M239.018 216.874c.14.444.37.649.683.652s.492-.146.65-.608l.743-.062a1.211 1.211 0 0 1-.533.972 1.807 1.807 0 0 1-1.046.307 1.167 1.167 0 0 1-.922-.407 2.01 2.01 0 0 1-.468-1.831 1.289 1.289 0 0 1 1.092-1 1.309 1.309 0 0 1 1.44.557 1.782 1.782 0 0 1 .336.879l-1.975.545m1.1-.795c-.178-.537-.52-.732-.9-.563a.61.61 0 0 0-.271.882c.381-.1.768-.208 1.173-.319" class="cls-2" data-name="Path 16905" transform="translate(-184.596 970.402)"/>
            <path id="Path_16906" d="M278.412 236.2c-.3-.631-.58-1.233-.863-1.829a.634.634 0 0 0-.539.666c.011.36.175.513.709.64.059.21.123.435.189.675a1.057 1.057 0 0 1-1.01-.295 1.662 1.662 0 0 1-.529-1.142 1.511 1.511 0 0 1 .147-.685 2.061 2.061 0 0 1 2.056-.914 1.446 1.446 0 0 1 .678 2.353 2 2 0 0 1-.838.531m.079-.937c.451-.172.623-.524.459-.879s-.536-.449-.977-.231l.518 1.11" class="cls-2" data-name="Path 16906" transform="translate(-184.596 970.402)"/>
            <path id="Path_16907" d="M272.228 226.277c-.495-.507-.959-.985-1.42-1.46a.668.668 0 0 0-.294.818c.123.318.33.407.889.371.08.114.17.238.255.366.046.068.082.142.13.229a1.085 1.085 0 0 1-1.162-.038 2.523 2.523 0 0 1-.594-.559 1.223 1.223 0 0 1-.1-1.412 2.139 2.139 0 0 1 1.056-.982 1.429 1.429 0 0 1 1.8 1.986 2.276 2.276 0 0 1-.562.681m-.228-.9c.384-.374.409-.751.105-1.026a.63.63 0 0 0-.952.141l.847.885" class="cls-2" data-name="Path 16907" transform="translate(-184.596 970.402)"/>
            <path id="Path_16908" d="M260.03 217.752l-1.924-.614a.66.66 0 0 0 .117.855c.276.239.519.219.948-.1l.641.336a1.094 1.094 0 0 1-1.076.525 2.5 2.5 0 0 1-.814-.239 1.218 1.218 0 0 1-.7-1.193 2.178 2.178 0 0 1 .463-1.329 1.356 1.356 0 0 1 1.541-.455 1.314 1.314 0 0 1 .987 1.3 1.963 1.963 0 0 1-.179.915m-.614-.689a.647.647 0 0 0-.112-.8.561.561 0 0 0-.658-.128.548.548 0 0 0-.382.554l1.152.372" class="cls-2" data-name="Path 16908" transform="translate(-184.596 970.402)"/>
            <path id="Path_16909" d="M221.314 232.3c-.384-.221-.744-.429-1.106-.633-.217-.124-.432-.254-.658-.362-.332-.159-.56-.114-.734.121a.645.645 0 0 0 .053.852 2.2 2.2 0 0 0 .429.319c.358.218.721.421 1.082.632.091.055.177.114.286.185l-.381.674c-.9-.521-1.788-1.03-2.7-1.56l.337-.614c.133.05.24.091.379.142-.017-.15-.03-.264-.04-.379a1.237 1.237 0 0 1 .138-.727.92.92 0 0 1 1.351-.445c.655.341 1.288.723 1.966 1.107-.138.241-.261.452-.4.688" class="cls-2" data-name="Path 16909" transform="translate(-184.596 970.402)"/>
            <path id="Path_16910" d="M280.437 239.086c-.116-.2-.23-.4-.351-.606a.8.8 0 0 0 .008-1.024c-.067-.113-.161-.223-.318-.17a.259.259 0 0 0-.159.292c.006.19.022.381.032.57a7.155 7.155 0 0 1 .026.787.835.835 0 0 1-1.154.749 1.078 1.078 0 0 1-.559-.427 2.174 2.174 0 0 1-.4-1.418 1.088 1.088 0 0 1 .51-.86l.361.665a.787.787 0 0 0-.137 1.057.7.7 0 0 0 .157.193.266.266 0 0 0 .466-.182 2.4 2.4 0 0 0-.017-.357c-.016-.309-.043-.619-.042-.928a.793.793 0 0 1 .543-.8.841.841 0 0 1 .975.248 2.181 2.181 0 0 1 .514 1.454.866.866 0 0 1-.451.759" class="cls-2" data-name="Path 16910" transform="translate(-184.596 970.402)"/>
            <path id="Path_16911" d="M228.685 278.715l-.781-.509 3.119-4.807.784.506-3.122 4.81" class="cls-2" data-name="Path 16911" transform="translate(-184.596 970.402)"/>
            <path id="Path_16912" d="M277.82 268.926l-.534.763-4.692-3.285.527-.771 4.7 3.293" class="cls-2" data-name="Path 16912" transform="translate(-184.596 970.402)"/>
            <path id="Path_16913" d="M255.277 283.608l-.916.164-1.092-5.616c.31-.058.594-.113.916-.176l1.092 5.628" class="cls-2" data-name="Path 16913" transform="translate(-184.596 970.402)"/>
            <path id="Path_16914" d="M263.984 216.269l.733.4-1.747 3.16 1.907 1.075c-.108.2-.2.383-.321.6l-2.66-1.472c.7-1.257 1.382-2.493 2.088-3.77" class="cls-2" data-name="Path 16914" transform="translate(-184.596 970.402)"/>
            <path id="Path_16915" d="M276.333 233.473l-.469.354a4.584 4.584 0 0 1-.385-.475.7.7 0 0 1 .247-1.094c.373-.238.76-.45 1.141-.675.122-.072.243-.147.382-.231l-.113-.363c.149-.09.3-.178.467-.277l.245.27a.444.444 0 0 0 .141-.05.586.586 0 0 1 .833.015c.091.07.194.125.34.22l-.906.543c.078.165.149.313.236.5-.158.1-.312.195-.486.3l-.343-.469c-.482.283-.955.555-1.422.838a.235.235 0 0 0-.065.371c.046.067.1.132.157.221" class="cls-2" data-name="Path 16915" transform="translate(-184.596 970.402)"/>
            <path id="Path_16916" d="M225.05 221.146l.613-.5 2.781 3.314-.6.523-2.8-3.335" class="cls-2" data-name="Path 16916" transform="translate(-184.596 970.402)"/>
            <path id="Path_16917" d="M256.76 227.179c.181-.353.333-.659.494-.962.069-.128.19-.131.314-.1a1.236 1.236 0 0 1 .849.659 1.957 1.957 0 0 1-.675 2.5.569.569 0 0 1-.728-.041.4.4 0 0 1 .1-.707 2.514 2.514 0 0 0 .5-.266 1.1 1.1 0 0 0 .316-.377.446.446 0 0 0-.28-.656 2.822 2.822 0 0 0-.6-.078 1.728 1.728 0 0 0-.3.033" class="cls-2" data-name="Path 16917" transform="translate(-184.596 970.402)"/>
            <path id="Path_16918" d="M272.222 228.366l-.495-.61 2.43-1.968.44.533-.236.3c.293.043.581.019.773.257a.717.717 0 0 1 .194.514l-.6.227c-.047-.09-.081-.165-.12-.235a.485.485 0 0 0-.719-.241 3.909 3.909 0 0 0-.629.408c-.343.256-.672.529-1.035.817" class="cls-2" data-name="Path 16918" transform="translate(-184.596 970.402)"/>
            <path id="Path_16919" d="M223.457 240.027l1.169-3.045.838.32-1.167 3.044-.84-.319" class="cls-2" data-name="Path 16919" transform="translate(-184.596 970.402)"/>
            <path id="Path_16920" d="M266.779 219.295l.671.418-1.654 2.651-.675-.416c.559-.9 1.1-1.761 1.658-2.653" class="cls-2" data-name="Path 16920" transform="translate(-184.596 970.402)"/>
            <path id="Path_16921" d="M266.107 239.855a1.35 1.35 0 0 1 .733.761.7.7 0 0 1 .013.623 3.209 3.209 0 0 1-.345.582c-.281.356-.585.693-.884 1.034-.149.168-.155.163-.455.057.047-.081.086-.162.138-.235.268-.381.545-.755.807-1.14.179-.264.167-.334-.056-.557-.16-.159-.331-.308-.526-.489.094-.108.182-.214.276-.316s.195-.209.3-.32" class="cls-2" data-name="Path 16921" transform="translate(-184.596 970.402)"/>
            <path id="Path_16922" d="M260.237 226.145c-.645-.328-1.257-.642-1.891-.964.138-.271.259-.515.4-.8l1.893.96c-.139.278-.265.527-.4.8" class="cls-2" data-name="Path 16922" transform="translate(-184.596 970.402)"/>
            <path id="Path_16923" d="M262.348 227.108l-.008.008c-.088.117-.184.077-.281.016-.535-.334-1.071-.667-1.638-1.023.156-.255.3-.492.469-.763.6.374 1.183.736 1.782 1.111l-.324.651" class="cls-2" data-name="Path 16923" transform="translate(-184.596 970.402)"/>
            <path id="Path_16924" d="M271.668 265.753l-.886-.619.537-.757.876.61-.527.766" class="cls-2" data-name="Path 16924" transform="translate(-184.596 970.402)"/>
            <path id="Path_16925" d="M232.225 271.548l.752.489a5.079 5.079 0 0 1-.566.916c-.254-.165-.5-.322-.773-.5.2-.311.386-.594.587-.906" class="cls-2" data-name="Path 16925" transform="translate(-184.596 970.402)"/>
            <path id="Path_16926" d="M267.041 218.884l.38-.612.668.409-.378.616-.67-.413" class="cls-2" data-name="Path 16926" transform="translate(-184.596 970.402)"/>
        </g>
    </g>
</svg>
