<svg xmlns="http://www.w3.org/2000/svg" width="118" height="118" viewBox="0 0 118 118">
    <defs>
        <style>
            .cls-1{fill:#162443;stroke:#c26e00}.cls-2{fill:#fff;stroke:#fff}.cls-3{stroke:none}.cls-4{fill:none}.cls-5{filter:url(#Ellipse_363)}
        </style>
        <filter id="Ellipse_363" width="118" height="118" x="0" y="0" filterUnits="userSpaceOnUse">
            <feOffset dy="3"/>
            <feGaussianBlur result="blur" stdDeviation="3"/>
            <feFlood flood-opacity=".161"/>
            <feComposite in2="blur" operator="in"/>
            <feComposite in="SourceGraphic"/>
        </filter>
    </defs>
    <g id="Group_2824" data-name="Group 2824" transform="translate(-624 -1387)">
        <g class="cls-5" transform="translate(624 1387)">
            <g id="Ellipse_363-2" class="cls-1" data-name="Ellipse 363" transform="translate(9 6)">
                <circle cx="50" cy="50" r="50" class="cls-3"/>
                <circle cx="50" cy="50" r="49.5" class="cls-4"/>
            </g>
        </g>
        <g id="Group_2791" data-name="Group 2791" transform="translate(660 1424)">
            <path id="Path_2732" d="M68.053 59.556a.509.509 0 0 0-.617-.314l-.146.047a1.81 1.81 0 0 1-2.233-1.245 1.67 1.67 0 0 1-.068-.481v-.507a4.441 4.441 0 0 1 1.935-3.676h.026l.481-.178a.506.506 0 0 0 .262-.669.513.513 0 0 0-.523-.3h-.11a.538.538 0 0 0-.183.031l-.209.084a1.771 1.771 0 0 1-.471 0 1.8 1.8 0 0 1-1.527-1.768v-.507a4.454 4.454 0 0 1 1.93-3.68h.031l.481-.178a.512.512 0 0 0 .3-.638.5.5 0 0 0-.56-.335.426.426 0 0 0-.2 0h-.078l-.209.078a1.391 1.391 0 0 1-.465 0 1.788 1.788 0 0 1-1.527-1.762v-.607a4.441 4.441 0 0 1 1.935-3.676l.063-.042a1.843 1.843 0 0 1 .162-.1l.11-.047a.543.543 0 0 0 .277-.293v-.183a.589.589 0 0 0 0-.136.787.787 0 0 0-.057-.115l-.084-.094-.042-.1a.39.39 0 0 0-.126-.058l-22.16-9.547a.51.51 0 0 0-.34-.026l-20.365 5.7a3.634 3.634 0 0 0-2.1 1.747 3.391 3.391 0 0 0-.371 1.527v1.778a4.3 4.3 0 0 0 1.6 2.85 1.384 1.384 0 0 0-.209.125c-.084.058-.162.126-.241.188a1.58 1.58 0 0 0-.209.209l-.047.058a2.386 2.386 0 0 0-.162.22 3.359 3.359 0 0 0-.371 1.527v1.778a4.356 4.356 0 0 0 1.6 2.85 2.012 2.012 0 0 0-.209.126h-.063l-.251.193a1.271 1.271 0 0 0-.146.146l-.11.241-.063.078a1.279 1.279 0 0 0-.115.162l-.026.042a3.293 3.293 0 0 0-.371 1.527v1.773a4.44 4.44 0 0 0 2.542 3.462l23.56 9.664a2.956 2.956 0 0 0 .947.371 3.525 3.525 0 0 0 .58.058 3.191 3.191 0 0 0 1.015-.183l17.237-6.558a.517.517 0 0 0 .29-.637zM65.04 52.94L61.8 54.2l-11.3 4.3-.664.23a1.946 1.946 0 0 1-1.051.084 1.857 1.857 0 0 1-.654-.277 1.6 1.6 0 0 1-.784-1.375V56.7a4.061 4.061 0 0 1 .047-.507.489.489 0 0 1 .021-.173c.026-.063.037-.2.063-.309s.047-.157.073-.241l.073-.209a4.62 4.62 0 0 1 .12-.277l.1-.22.094-.157a2.273 2.273 0 0 1 .2-.3l.068-.094.047-.063.152-.2c.063-.068.136-.141.2-.214a3.043 3.043 0 0 1 .277-.241l.136-.11c.12-.084.241-.178.371-.251a4.059 4.059 0 0 1 .706-.356l12.231-4.858 2.113-.8a5.406 5.406 0 0 0-.811 2.871v.509a2.723 2.723 0 0 0 .251 1.109 2.8 2.8 0 0 0 1.161 1.313zm-.314-7.05l-.22.094-2.913 1.124-3.111 1.192-8.294 3.15-.669.251a1.927 1.927 0 0 1-1.046.084 2.032 2.032 0 0 1-.659-.277 1.636 1.636 0 0 1-.784-1.381v-.507a4.065 4.065 0 0 1 .141-1.067 4.172 4.172 0 0 1 1.914-2.495 4.2 4.2 0 0 1 .7-.356l14.408-5.685a5.442 5.442 0 0 0-.858 2.934v.507a2.8 2.8 0 0 0 1.391 2.416zM44.21 29.6l20.872 9-.507.209-15.7 6.181-.764-.173-23.073-9.741-.209-.1zm-21.933 9.675v-1.684a2.3 2.3 0 0 1 .241-1.02l.089-.1.078-.1.11-.089.094-.084c.042-.031.089-.052.131-.078a.493.493 0 0 1 .115-.063l.146-.063.126-.042a1.561 1.561 0 0 1 .167-.037l.1-.089h.3a1.236 1.236 0 0 1 .235.042h.078a1.654 1.654 0 0 1 .319.115l23.141 9.764h.037c-.052.052-.1.11-.162.162s-.131.12-.194.183-.193.22-.282.335l-.115.131a4.7 4.7 0 0 0-.324.507l-.1.193c-.063.12-.125.235-.173.35s-.063.152-.089.225-.089.235-.12.356-.047.157-.063.225a3.76 3.76 0 0 0-.084.408.5.5 0 0 1-.026.194 4.977 4.977 0 0 0-.042.622v.507a2.694 2.694 0 0 0 .089.68L42 49.138l-8.514-3.561h-.078a.284.284 0 0 0-.094 0H33.2L24.322 41.9l-.1-.042a3.42 3.42 0 0 1-1.94-2.625zm.314 7.044v-1.683a2.3 2.3 0 0 1 .235-1.02 1.01 1.01 0 0 1 .115-.146l.11-.11a1.729 1.729 0 0 1 .157-.131 1.487 1.487 0 0 1 .314-.162h.068l.126-.042h.073a.5.5 0 0 1 .126 0h.073l17.6 7.055 6.477 2.72h.047l-.178.162-.073.068-.115.12a2.1 2.1 0 0 0-.141.162 1.8 1.8 0 0 0-.157.183c-.063.078-.126.167-.188.251l-.063.094-.136.2-.131.241c0 .037-.047.078-.068.126l-.042.1a3.722 3.722 0 0 0-.162.366l-.078.246a3.323 3.323 0 0 0-.1.324c-.031.115-.047.241-.068.366s-.031.152-.042.225a5.484 5.484 0 0 0-.042.654v.512a2.443 2.443 0 0 0 .094.675L42.077 56.1l-.11-.047-17.358-7.124h-.068a3.437 3.437 0 0 1-1.951-2.657zm24.663 15a3.417 3.417 0 0 0-.194.392l-.073.183a3.4 3.4 0 0 0-.136.408.817.817 0 0 1-.047.178 4.8 4.8 0 0 0-.1.476v.131a5.058 5.058 0 0 0-.042.628v.512a1.845 1.845 0 0 0 0 .34 1.747 1.747 0 0 0 .063.329l-21.891-8.944a3.442 3.442 0 0 1-1.93-2.631v-1.688a2.331 2.331 0 0 1 .23-1.046l.058-.068.037-.047.058-.068.078-.073a1.758 1.758 0 0 1 .152-.126 1.49 1.49 0 0 1 .314-.162h.069l.1-.037h.1l.131-.031h.089l17.38 7.039 6.71 2.84-.178.173c-.058.052-.115.1-.173.167a3.5 3.5 0 0 0-.314.366l-.084.094a5.383 5.383 0 0 0-.335.512c-.02.042-.046.11-.072.152zm3.567 4.226l-.669.251a1.977 1.977 0 0 1-1.046.078 1.872 1.872 0 0 1-.659-.272 1.624 1.624 0 0 1-.784-1.381v-.513a4.026 4.026 0 0 1 .837-2.432c.073-.1.167-.193.251-.288l.1-.12a4.942 4.942 0 0 1 .863-.68 4.482 4.482 0 0 1 .737-.382l12.217-4.848 2.113-.811a5.407 5.407 0 0 0-.811 2.871v.512a2.789 2.789 0 0 0 1.438 2.442z" class="cls-2" data-name="Path 2732" transform="translate(-21.278 -28.516)"/>
            <path id="Path_2733" d="M54.087 32.083l-7.392-3.192a.733.733 0 0 0-.516 0l-22.31 6.2a.769.769 0 0 0-.508.962.751.751 0 0 0 .438.485l8.338 3.262a.555.555 0 0 0 .274.055.517.517 0 0 0 .219 0L54 33.553a.781.781 0 0 0 .524-.962.751.751 0 0 0-.438-.485zm-21.637 6.2L26.5 35.97l19.822-5.538 5.194 2.253z" class="cls-2" data-name="Path 2733" transform="translate(-16.343 -26.275)"/>
        </g>
    </g>
</svg>
