<svg xmlns="http://www.w3.org/2000/svg" width="33.216" height="37.257" viewBox="0 0 33.216 37.257">
    <defs>
        <style>
            .cls-1{fill:#102846}
        </style>
    </defs>
    <g id="Group_2821" data-name="Group 2821" transform="translate(-104.48 -329.768)">
        <ellipse id="Ellipse_375" cx="7.286" cy="6.476" class="cls-1" data-name="Ellipse 375" rx="7.286" ry="6.476" transform="rotate(-89.636 231.164 113.903)"/>
        <g id="Group_2820" data-name="Group 2820" transform="translate(104.48 339.888)">
            <rect id="Rectangle_1812" width=".81" height="18.964" class="cls-1" data-name="Rectangle 1812" rx=".231" transform="rotate(-18.496 .79 .129)"/>
            <path id="Path_5615" d="M135.719 352.128a7.6 7.6 0 0 0 .089-1.125 9.151 9.151 0 0 0-7.818-9.111c-.015 0-.032 0-.049-.006a9.809 9.809 0 0 0-.384-.046v.039c0 .038-.009.075-.014.114a1.857 1.857 0 0 1-.191.621 42.266 42.266 0 0 1-3.824 6.2l-.373.076-.213-3.37a2.216 2.216 0 0 0 .908-.871 1.751 1.751 0 0 0 .244-.848 5.473 5.473 0 0 1-1.933.411c-.056 0-.111 0-.167-.006s-.111 0-.167 0a5.451 5.451 0 0 1-1.928-.436 1.738 1.738 0 0 0 .234.851 2.216 2.216 0 0 0 .9.883l-.256 3.367-.372-.082a42.044 42.044 0 0 1-3.745-6.251 1.857 1.857 0 0 1-.184-.624c0-.039-.011-.076-.012-.114v-.039c-.129.011-.257.026-.385.04-.017 0-.032 0-.047.006a9.15 9.15 0 0 0-7.933 9.012 7.555 7.555 0 0 0 .075 1.126 3.081 3.081 0 0 0-1.635 2.7l-.013 1.984a3.084 3.084 0 0 0 2.671 3.075 3.061 3.061 0 0 0 2.967 2.971l9.1 1.982.611.134.613-.124 9.122-1.867a3.061 3.061 0 0 0 3.005-2.932 3.083 3.083 0 0 0 2.709-3.042l.013-1.984a3.08 3.08 0 0 0-1.618-2.714zm-14.464 11.289l-8.967-1.954h-.064a1.838 1.838 0 0 1-1.82-1.741 3.086 3.086 0 0 0 2.7-3.041l.012-1.984a3.083 3.083 0 0 0-2.665-3.074l.011-1.526a1.837 1.837 0 0 1 1.786-1.823l9.09 1.981-.084 13.162zm12.175-11.648a3.086 3.086 0 0 0-2.7 3.041l-.012 1.984a3.084 3.084 0 0 0 2.66 3.074 1.837 1.837 0 0 1-1.842 1.718h-.064l-8.989 1.839.083-13.162 9.114-1.865a1.836 1.836 0 0 1 1.764 1.846l-.01 1.526z" class="cls-1" data-name="Path 5615" transform="translate(-104.104 -337.663)"/>
        </g>
    </g>
</svg>
