<svg xmlns="http://www.w3.org/2000/svg" width="14.544" height="21.326" viewBox="0 0 14.544 21.326">
    <defs>
        <style>
            .cls-1{stroke:#000;stroke-width:.3px}
        </style>
    </defs>
    <g id="Group_4087" data-name="Group 4087" transform="translate(-10.85 -.85)">
        <path id="Path_8313" d="M18.373 20.669a.3.3 0 0 1-.273-.169c-.271-.407-6.41-10.242-6.41-12.819a6.681 6.681 0 1 1 13.362 0c0 2.577-6.139 12.412-6.41 12.819a.3.3 0 0 1-.269.169zm0-18.991a5.991 5.991 0 0 0-6 6c0 1.865 4.1 8.919 6 12 1.9-3.086 6-10.14 6-12a5.992 5.992 0 0 0-6-5.999zm0 9.5a3.493 3.493 0 1 1 3.493-3.493 3.488 3.488 0 0 1-3.493 3.489zm0-6.308a2.815 2.815 0 1 0 2.815 2.815 2.808 2.808 0 0 0-2.815-2.819z" class="cls-1" data-name="Path 8313" transform="translate(-.251)"/>
        <path id="Path_8314" d="M20.665 26.815c-.136.2-.238.407-.373.61.034.034.068.034.136.034 2.849.305 4.138 1.085 4.138 1.56 0 .679-2.51 1.7-6.443 1.7s-6.443-1.017-6.443-1.7c0-.475 1.288-1.255 4.137-1.56.034 0 .1-.034.136-.034a5.876 5.876 0 0 0-.373-.61c-1.255.136-4.578.645-4.578 2.2 0 1.526 3.663 2.374 7.122 2.374s7.122-.848 7.122-2.374c-.002-1.555-3.326-2.064-4.581-2.2z" class="cls-1" data-name="Path 8314" transform="translate(0 -9.368)"/>
    </g>
</svg>
