<svg xmlns="http://www.w3.org/2000/svg" width="19" height="19.019" viewBox="0 0 19 19.019">
    <g data-name="Group 4088" transform="translate(-.472 -.4)">
        <path d="M11.607 6.416a8.394 8.394 0 0 1 1.582.475.61.61 0 0 1 .369.554v1.819H6.6V7.441a.571.571 0 0 1 .369-.554 7.849 7.849 0 0 1 1.58-.471L9.63 8.232a.519.519 0 0 0 .9 0zM1.64 17.356l.369-2.189h1.134a.528.528 0 0 0 0-1.055h-.976l.185-1.055H4.54a.528.528 0 0 0 0-1.055H2.51l.29-1.686h14.371l1.16 7.067H1.64zm16.586-7.04h.712a.534.534 0 0 0 .527-.606.564.564 0 0 0-.554-.448h-4.324V7.441a1.631 1.631 0 0 0-1.028-1.525 8.74 8.74 0 0 0-2.162-.58.536.536 0 0 0-.527.264l-.817 1.371-.791-1.4a.536.536 0 0 0-.527-.264 8.74 8.74 0 0 0-2.162.58 1.671 1.671 0 0 0-1.031 1.529v1.846H1.007a.534.534 0 0 0-.527.606.544.544 0 0 0 .553.448h.686L.48 17.804a.52.52 0 0 0 .527.606h1.582v.448a.564.564 0 0 0 .448.554.534.534 0 0 0 .606-.527v-.475H16.3v.448a.564.564 0 0 0 .448.554.534.534 0 0 0 .606-.527v-.475h1.582a.534.534 0 0 0 .527-.606z" data-name="Path 8315"/>
        <path d="M9.34 12.978h1.266v3.533H9.34z" data-name="Rectangle 2828"/>
        <path d="M9.972 4.461a2.03 2.03 0 1 0-2.03-2.031 2.031 2.031 0 0 0 2.03 2.031zm0-2.98a.976.976 0 1 1-.976.976.973.973 0 0 1 .976-.976z" data-name="Path 8316"/>
        <circle cx=".738" cy=".738" r=".738" data-name="Ellipse 916" transform="translate(9.234 11.132)"/>
    </g>
</svg>
