<svg xmlns="http://www.w3.org/2000/svg" width="28" height="38.954" viewBox="0 0 28 38.954">
    <defs>
        <style>
            .cls-1{fill:#102846}
        </style>
    </defs>
    <g id="Group_2819" data-name="Group 2819" transform="translate(-47.937 -31.265)">
        <path id="Path_5613" d="M62.359 35.569l.591.251-.05.39a.47.47 0 0 0-.066.914l-.359 4.941a2.23 2.23 0 0 0 .094.731l.291.859c.067.2.175.2.241 0l.291-.859a2.227 2.227 0 0 0 .093-.731l-.358-4.941a.47.47 0 0 0-.067-.914l-.046-.363 1.364.581.668.284v2.394a6.423 6.423 0 0 0-.255 1.824c0 .137.006.273.013.408q.016.3.059.585c0 .059.01.118.015.176.4 4.437 3.038 7.865 6.236 7.865s5.838-3.428 6.237-7.865c.005-.058.011-.117.015-.176a7.02 7.02 0 0 0 .072-.993 6.8 6.8 0 0 0-.072-.993 6.644 6.644 0 0 0-.182-.83v-2.395l.668-.284 2.019-.86c.528-.225.528-.592 0-.817l-7.8-3.319a2.818 2.818 0 0 0-1.92 0l-7.8 3.319c-.52.226-.52.593.008.818zm4.069 4.268l.825.351 2.9 1.236a2.822 2.822 0 0 0 1.92 0l2.9-1.236.825-.351a10.681 10.681 0 0 1-.092 2.717 2.692 2.692 0 0 1 .878-.4c-.363 3.876-2.674 6.864-5.473 6.864s-5.11-2.988-5.473-6.864a2.674 2.674 0 0 1 .877.4 10.668 10.668 0 0 1-.087-2.718z" class="cls-1" data-name="Path 5613" transform="translate(-9.178)"/>
        <path id="Path_5614" d="M74.467 92.107a6.715 6.715 0 0 0 .074-1.013 8.259 8.259 0 0 0-7.161-8.149.4.4 0 0 1-.044-.006 8.45 8.45 0 0 0-.349-.038v.035c0 .034-.008.067-.012.1a1.656 1.656 0 0 1-.171.56 38.008 38.008 0 0 1-3.44 5.6l-.339.071-.214-3.03a2 2 0 0 0 .82-.789 1.557 1.557 0 0 0 .217-.763 5.018 5.018 0 0 1-1.756.381h-.304a5.018 5.018 0 0 1-1.756-.381 1.552 1.552 0 0 0 .217.763 2 2 0 0 0 .82.789l-.214 3.03-.339-.071a37.836 37.836 0 0 1-3.44-5.6 1.66 1.66 0 0 1-.171-.56c0-.035-.01-.068-.012-.1v-.035a13.37 13.37 0 0 0-.35.039l-.043.006a8.259 8.259 0 0 0-7.16 8.149 6.7 6.7 0 0 0 .074 1.012 2.768 2.768 0 0 0-1.47 2.439v1.785a2.785 2.785 0 0 0 2.446 2.751 2.768 2.768 0 0 0 2.715 2.654l8.283 1.731.557.118.556-.116 8.283-1.731a2.768 2.768 0 0 0 2.715-2.654 2.784 2.784 0 0 0 2.446-2.75v-1.788a2.764 2.764 0 0 0-1.478-2.439zm-13.086 10.234l-8.163-1.706h-.058a1.662 1.662 0 0 1-1.66-1.555 2.785 2.785 0 0 0 2.436-2.749v-1.785a2.784 2.784 0 0 0-2.441-2.75v-1.372a1.661 1.661 0 0 1 1.614-1.65l8.272 1.726v11.837zm11-10.545a2.784 2.784 0 0 0-2.441 2.75v1.785a2.786 2.786 0 0 0 2.436 2.749 1.662 1.662 0 0 1-1.664 1.555h-.058l-8.163 1.706V90.5l8.276-1.729a1.66 1.66 0 0 1 1.614 1.65V91.8z" class="cls-1" data-name="Path 5614" transform="translate(0 -33.364)"/>
    </g>
</svg>
