<svg xmlns="http://www.w3.org/2000/svg" width="47.225" height="43.553" viewBox="0 0 47.225 43.553"><path d="M29.325,56.818a48.655,48.655,0,0,1-9.628-.946,1.091,1.091,0,0,1-.874-1.069V43.825l-5.66-1.691a1.091,1.091,0,0,1,0-2.091l15.85-4.734a1.091,1.091,0,0,1,.624,0l15.826,4.727a1.092,1.092,0,0,1,.8,1.052c0,.01,0,.02,0,.029v5.656l.672,1.615A1.091,1.091,0,0,1,45.175,49.6a1.091,1.091,0,0,1-1.762-1.206l.672-1.615V42.554L29.637,46.869a1.091,1.091,0,0,1-.624,0L21,44.477V53.9a47.483,47.483,0,0,0,16.641,0v-6.17a1.091,1.091,0,0,1,2.182,0V54.8a1.091,1.091,0,0,1-.874,1.069A48.663,48.663,0,0,1,29.325,56.818ZM20.253,41.976l9.072,2.71,12.039-3.6-12.039-3.6-12.038,3.6,2.913.87Zm-4.888,8.763a1.091,1.091,0,0,1-.326-.05L.766,46.229A1.091,1.091,0,0,1,0,45.188V14.562a1.091,1.091,0,0,1,1.416-1.041l18.651,5.827,18.344-5.731a1.091,1.091,0,0,1,1.416,1.041V34.136a1.091,1.091,0,0,1-2.182,0V16.142L21,21.341V33.585a1.091,1.091,0,0,1-2.182,0V21.245l-16.641-5.2v28.34l13.508,4.22a1.091,1.091,0,0,1-.325,2.132ZM10.5,36.275a1.091,1.091,0,0,1-.326-.05L7.19,35.292a1.091,1.091,0,0,1,.651-2.082l2.987.933a1.091,1.091,0,0,1-.325,2.132Zm15.835-4.492a1.091,1.091,0,0,1-.325-2.132l5.974-1.866a1.091,1.091,0,0,1,.651,2.082l-5.974,1.866A1.084,1.084,0,0,1,26.338,31.783Zm-12.848,0a1.092,1.092,0,0,1-.326-.05L7.19,29.866a1.091,1.091,0,0,1,.651-2.082l5.974,1.866a1.091,1.091,0,0,1-.325,2.132ZM26.338,26.69a1.091,1.091,0,0,1-.325-2.132l5.974-1.867a1.091,1.091,0,0,1,.651,2.082L26.663,26.64A1.085,1.085,0,0,1,26.338,26.69Zm-12.848,0a1.091,1.091,0,0,1-.326-.05L7.19,24.773a1.091,1.091,0,0,1,.651-2.082l5.974,1.867a1.091,1.091,0,0,1-.325,2.132Z" transform="translate(0.1 -13.365)" fill="#58595b" stroke="#58595b" stroke-width="0.2" opacity="0.7"/></svg>