<svg xmlns="http://www.w3.org/2000/svg" width="49.953" height="50" viewBox="0 0 49.953 50"><g transform="translate(-2.5 -2.6)" opacity="0.7"><g transform="translate(2.5 2.6)"><path d="M30.616,36.045c0,.105-.105.158-.211.158l-3.109.316a1.014,1.014,0,0,0-.9.949v2.688a.969.969,0,0,0,.9.949l3.109.316a.35.35,0,0,1,.264.211,5.712,5.712,0,0,0,.422,1,.248.248,0,0,1-.053.316l-1.95,2.424a1.036,1.036,0,0,0,.053,1.318l1.9,1.9a.973.973,0,0,0,1.318.053l2.424-1.95a.349.349,0,0,1,.316-.053,8.108,8.108,0,0,0,1,.422.371.371,0,0,1,.211.264l.316,3.109a1.014,1.014,0,0,0,.949.9h2.688a.969.969,0,0,0,.949-.9l.264-3.162a.35.35,0,0,1,.211-.264,5.712,5.712,0,0,0,1-.422.248.248,0,0,1,.316.053l2.424,1.95a1.036,1.036,0,0,0,1.318-.053l1.9-1.9a.973.973,0,0,0,.053-1.318L46.743,42.9a.349.349,0,0,1-.053-.316,8.108,8.108,0,0,0,.422-1,.371.371,0,0,1,.264-.211l3.109-.316a1.014,1.014,0,0,0,.9-.949V37.415a.969.969,0,0,0-.9-.949L47.27,36.2a.35.35,0,0,1-.264-.211,5.712,5.712,0,0,0-.422-1,.248.248,0,0,1,.053-.316l1.95-2.424a1.036,1.036,0,0,0-.053-1.318l-1.9-1.9a.973.973,0,0,0-1.318-.053L42.9,30.932a.349.349,0,0,1-.316.053,8.108,8.108,0,0,0-1-.422c-.053,0-.105-.053-.105-.158L41.157,27.3a1.014,1.014,0,0,0-.949-.9H37.52a.969.969,0,0,0-.949.9L36.2,30.405a.35.35,0,0,1-.211.264,5.712,5.712,0,0,0-1,.422.248.248,0,0,1-.316-.053l-2.424-1.95a1.036,1.036,0,0,0-1.318.053l-1.9,1.9a.973.973,0,0,0-.053,1.318l1.95,2.424a.349.349,0,0,1,.053.316C30.88,35.36,30.774,35.676,30.616,36.045Zm8.222-1.792a4.585,4.585,0,1,1-4.585,4.585A4.588,4.588,0,0,1,38.838,34.253Z" transform="translate(-13.812 -13.864)" fill="#58595b"/><path d="M56.026,22.943a21.584,21.584,0,0,0-4.111-8.485A21.969,21.969,0,0,0,40.426,6.922a10.794,10.794,0,0,0-1.265-.264,4.926,4.926,0,0,0-9.75.369,21.646,21.646,0,0,0-2.424.791A21.3,21.3,0,0,0,16.92,16.356a.658.658,0,0,0,.158.843.6.6,0,0,0,.843-.158,19.355,19.355,0,0,1,9.75-7.273c.632-.211,1.265-.369,1.95-.527a4.94,4.94,0,0,0,9.17.316c.264.053.527.158.738.211a18.555,18.555,0,0,1,9.276,6.957A17.318,17.318,0,0,1,51.6,23.47a4.955,4.955,0,1,0,7.642,4.164A4.691,4.691,0,0,0,56.026,22.943ZM34.312,9.61A2.108,2.108,0,1,1,36.42,7.5,2.114,2.114,0,0,1,34.312,9.61Zm20.08,20.08A2.108,2.108,0,1,1,56.5,27.581,2.114,2.114,0,0,1,54.392,29.689Z" transform="translate(-9.294 -2.6)" fill="#58595b"/><path d="M43.752,56.142a19.287,19.287,0,0,1-9.641,7.22c-.632.211-1.264.369-1.949.527a4.986,4.986,0,0,0-4.584-3.162A4.914,4.914,0,0,0,23.1,63.573c-.263-.053-.527-.158-.79-.211a18.452,18.452,0,0,1-9.272-6.9,17.526,17.526,0,0,1-2.845-6.693A5.022,5.022,0,0,0,12.4,45.654a4.953,4.953,0,1,0-6.638,4.585,20.893,20.893,0,0,0,4.109,8.485,22.08,22.08,0,0,0,11.538,7.589,10.787,10.787,0,0,0,1.264.264,4.931,4.931,0,0,0,9.747-.264,18.606,18.606,0,0,0,2.423-.791,21.242,21.242,0,0,0,10.115-8.591.75.75,0,0,0-.211-1A.7.7,0,0,0,43.752,56.142ZM7.452,43.493A2.108,2.108,0,1,1,5.345,45.6,2.114,2.114,0,0,1,7.452,43.493Zm20.073,24.3a2.108,2.108,0,1,1,2.107-2.108A2.114,2.114,0,0,1,27.525,67.789Z" transform="translate(-2.5 -20.635)" fill="#58595b"/></g></g></svg>