<svg xmlns="http://www.w3.org/2000/svg" width="44.682" height="52.07" viewBox="0 0 44.682 52.07"><path d="M62.113,44.093a3.712,3.712,0,0,0-2.836-6.112,4.306,4.306,0,0,0-.831.1c-.342-.44-.733-.88-1.125-1.32,5.231-6.014,6.992-11.441,4.645-14.717-2-2.787-6.552-3.325-12.565-1.662C47.348,14.22,44.17,10.7,40.65,10.7a5.815,5.815,0,0,0-3.765,1.467,3.287,3.287,0,0,0-1.173-.2A3.714,3.714,0,0,0,32,15.687a3.909,3.909,0,0,0,.831,2.347c-.342.733-.636,1.516-.929,2.347-6.014-1.662-10.61-1.125-12.565,1.662-2.3,3.276-.587,8.752,4.645,14.717-5.231,6.014-6.992,11.441-4.645,14.717A5.619,5.619,0,0,0,20.8,52.845h0a3.695,3.695,0,0,0,7.236,1.076,23,23,0,0,0,3.814-.782c2.1,6.16,5.231,9.632,8.752,9.632s6.7-3.52,8.752-9.632a22.617,22.617,0,0,0,6.063.929c2.982,0,5.28-.88,6.5-2.64C62.9,50.156,63.58,47.858,62.113,44.093ZM60.5,41.7a1.222,1.222,0,1,1-1.222-1.222A1.21,1.21,0,0,1,60.5,41.7Zm-.538-18.237c1.565,2.2-.147,6.6-4.3,11.441-1.271-1.271-2.591-2.542-4.058-3.765a53.367,53.367,0,0,0-1.467-8.458C54.926,21.407,58.642,21.652,59.962,23.461Zm-12.223,26.6a41.858,41.858,0,0,1-4.5-1.858,44.277,44.277,0,0,0,3.765-2.4c.587-.391,1.173-.831,1.809-1.271A48.033,48.033,0,0,1,47.739,50.058Zm-14.179,0a43.377,43.377,0,0,1-1.076-5.574c.587.44,1.222.88,1.809,1.271,1.271.88,2.542,1.662,3.765,2.4A42.566,42.566,0,0,1,33.56,50.058Zm0-26.6a41.858,41.858,0,0,1,4.5,1.858,44.28,44.28,0,0,0-3.765,2.4c-.587.391-1.173.831-1.809,1.271A48.033,48.033,0,0,1,33.56,23.461ZM29.5,38.862c-.782-.684-1.467-1.418-2.151-2.1.684-.733,1.418-1.418,2.151-2.1,0,.733-.049,1.418-.049,2.1C29.5,37.444,29.5,38.177,29.5,38.862Zm6.16,4.889c-1.173-.782-2.347-1.711-3.52-2.64-.1-1.467-.147-2.934-.147-4.351s.049-2.836.147-4.351q1.833-1.467,3.52-2.64,2.493-1.687,4.987-3.08,2.493,1.393,4.987,3.08c1.173.782,2.347,1.711,3.52,2.64.1,1.467.147,2.934.147,4.351s-.049,2.836-.147,4.351c-1.173.978-2.4,1.858-3.52,2.64q-2.494,1.687-4.987,3.08Q38.156,45.438,35.663,43.751Zm12.076-20.29a43.377,43.377,0,0,1,1.076,5.574c-.587-.44-1.222-.88-1.809-1.271-1.271-.88-2.542-1.662-3.765-2.4A42.568,42.568,0,0,1,47.739,23.461Zm4.009,11.2c.782.684,1.467,1.418,2.151,2.1-.684.733-1.418,1.418-2.151,2.1,0-.733.049-1.418.049-2.1S51.8,35.342,51.748,34.657ZM47.054,21.114a47.156,47.156,0,0,0-6.4,2.787,57.381,57.381,0,0,0-6.356-2.787,14.678,14.678,0,0,1,.684-1.76,3.774,3.774,0,0,0,.733.1,3.7,3.7,0,0,0,3.178-5.623,3.154,3.154,0,0,1,1.76-.587C42.947,13.193,45.343,16.176,47.054,21.114Zm-11.392-6.7a1.222,1.222,0,1,1-1.222,1.222A1.21,1.21,0,0,1,35.663,14.416ZM21.337,23.461c1.32-1.809,5.036-2.053,9.827-.733A52.4,52.4,0,0,0,29.7,31.186,50.554,50.554,0,0,0,25.64,34.95C21.484,30.061,19.822,25.661,21.337,23.461Zm0,26.6c-1.565-2.2.147-6.6,4.3-11.441,1.271,1.271,2.591,2.542,4.058,3.765a53.367,53.367,0,0,0,1.467,8.458,21.22,21.22,0,0,1-3.227.684A3.695,3.695,0,0,0,21.728,50.5C21.582,50.3,21.435,50.2,21.337,50.058Zm3.178,4.058a1.222,1.222,0,1,1,1.222-1.222A1.21,1.21,0,0,1,24.515,54.116ZM40.65,60.325c-2.3,0-4.694-2.982-6.4-7.921a47.156,47.156,0,0,0,6.4-2.787,41.741,41.741,0,0,0,6.4,2.787C45.343,57.343,42.947,60.325,40.65,60.325ZM59.962,50.058c-1.32,1.809-5.036,2.053-9.827.733A52.405,52.405,0,0,0,51.6,42.333a50.553,50.553,0,0,0,4.058-3.765,10.74,10.74,0,0,1,.684.88,3.692,3.692,0,0,0,2.934,5.965c.244,0,.44-.049.684-.049C60.7,47.369,60.7,48.982,59.962,50.058Z" transform="translate(-18.311 -10.7)" fill="#58595b" opacity="0.7"/></svg>