<svg xmlns="http://www.w3.org/2000/svg" id="prefix__Layer_2" width="26.253" height="31.76" data-name="Layer 2" viewBox="0 0 26.253 31.76">
    <defs>
        <style>
            .prefix__cls-1{fill:#58595b}
        </style>
    </defs>
    <g id="prefix__Layer_1" data-name="Layer 1">
        <circle id="prefix__Ellipse_808" cx="2.971" cy="2.971" r="2.971" class="prefix__cls-1" data-name="Ellipse 808" transform="translate(2.047)"/>
        <path id="prefix__Path_10321" d="M25.574 5.805h-6.808a.376.376 0 0 1-.376-.376v-.065A.376.376 0 0 0 18.014 5H16.88a.376.376 0 0 0-.37.376v.066a.376.376 0 0 1-.376.376H9.3v.972h.358v1.718a.28.28 0 0 1-.4.251L8.6 8.443a.274.274 0 0 0-.119 0H6.994a.286.286 0 0 0-.209.1l-.835.937a.274.274 0 0 1-.424 0l-.782-.943a.28.28 0 0 0-.263-.1l-2.029.382a.268.268 0 0 0-.227.263l-.137 4.732a.376.376 0 0 0 .376.388h.274a.376.376 0 0 1 .376.352l.042.758h.155v6.468H3.1l-.973.209a.28.28 0 0 0-.221.274v.6a.28.28 0 0 0 .28.28h.758l1.163-.191v.2h1.05a.28.28 0 0 0 .274-.28V16.9a.376.376 0 0 1 .376-.376.376.376 0 0 1 .37.376v5.961a.28.28 0 0 0 .28.28h1.038v-.2l1.193.191h.764a.28.28 0 0 0 .274-.28v-.6a.28.28 0 0 0-.215-.274l-.984-.2h-.2V15.31h.2l.191-4.344a.37.37 0 0 1 .525-.322l.2.089a.382.382 0 0 1 .221.34v5.137a.274.274 0 0 0 .274.28h6.474a.274.274 0 0 1 .274.274v1.42a.28.28 0 0 1-.072.185l-3.4 3.831a.274.274 0 0 0 .2.459h.686a.209.209 0 0 0 .155-.066l2.07-2.339a.274.274 0 0 1 .483.179v1.856a.376.376 0 0 0 .376.37h.054a.376.376 0 0 0 .376-.37v-1.85a.274.274 0 0 1 .483-.185l2.058 2.327a.215.215 0 0 0 .173.078h.722a.274.274 0 0 0 .209-.459l-3.419-3.831a.31.31 0 0 1-.072-.185v-1.45a.274.274 0 0 1 .28-.274H25.3a.28.28 0 0 0 .28-.28V6.79h.3v-.985zm-.686 9.934H10.621a.28.28 0 0 1-.274-.28v-3.9a.274.274 0 0 1 .388-.251l2.076.943A.274.274 0 0 0 13.2 12v-1.194a.28.28 0 0 0-.155-.251l-2.537-1.193a.28.28 0 0 1-.155-.251V7.058a.28.28 0 0 1 .268-.268h14.016a.274.274 0 0 1 .274.274v8.676z" class="prefix__cls-1" data-name="Path 10321" transform="translate(-.77 -2.017)"/>
        <path id="prefix__Path_10322" d="M24 18.858v1a.107.107 0 0 0 .113.113h.776A.107.107 0 0 0 25 19.86v-1.79l-.567.561a.674.674 0 0 1-.436.227z" class="prefix__cls-1" data-name="Path 10322" transform="translate(-9.68 -7.288)"/>
        <path id="prefix__Path_10323" d="M26.31 18.08v1.79a.113.113 0 0 0 .113.113h.777a.107.107 0 0 0 .107-.113v-1.056a.662.662 0 0 1-.465-.2z" class="prefix__cls-1" data-name="Path 10323" transform="translate(-10.612 -7.292)"/>
        <path id="prefix__Path_10324" d="M28.64 18.464v1.158a.113.113 0 0 0 .113.113h.782a.113.113 0 0 0 .113-.113V17.48l-.895.907a.829.829 0 0 1-.113.078z" class="prefix__cls-1" data-name="Path 10324" transform="translate(-11.552 -7.05)"/>
        <path id="prefix__Path_10325" d="M31.913 15.28L31 16.2v2.53a.107.107 0 0 0 .107.113h.782a.113.113 0 0 0 .111-.108v-3.389a.28.28 0 0 1-.06-.054z" class="prefix__cls-1" data-name="Path 10325" transform="translate(-12.503 -6.163)"/>
        <path id="prefix__Path_10326" d="M29.426 12.479a.215.215 0 0 0-.167-.06l-1.086.054a.209.209 0 0 0-.167.054.215.215 0 0 0-.042.06.191.191 0 0 0 .06.227l.09.09c.06.066.125.131.191.191l-2.22 2.2-.985-.995a.31.31 0 0 0-.221-.1.292.292 0 0 0-.221.1l-1.313 1.307a.3.3 0 0 0 0 .442l.06.06a.3.3 0 0 0 .442 0l1.044-1.026.979.984a.346.346 0 0 0 .227.089.334.334 0 0 0 .221-.09l2.47-2.476.28.28a.191.191 0 0 0 .149.078.167.167 0 0 0 .09 0l.054-.036a.263.263 0 0 0 .066-.185l.036-.7v-.352a.251.251 0 0 0-.036-.2z" class="prefix__cls-1" data-name="Path 10326" transform="translate(-9.378 -5.009)"/>
        <path id="prefix__Path_10327" d="M26.484 13.147a1.718 1.718 0 1 1 1.716-1.713 1.718 1.718 0 0 1-1.712 1.712zm0-3.168a1.456 1.456 0 1 0 1.456 1.456 1.456 1.456 0 0 0-1.456-1.457z" class="prefix__cls-1" data-name="Path 10327" transform="translate(-9.987 -3.916)"/>
        <path id="prefix__Path_10328" d="M27.823 11.476h-.268a.6.6 0 0 0-.09-.2h.352V11.1h-1.211v.245a.03.03 0 0 0 .03 0h.191c.191 0 .316.048.37.155h-.627v.167c0 .03 0 0 .03 0h.6a.245.245 0 0 1-.143.173.6.6 0 0 1-.292.06h-.155a.03.03 0 0 0-.03 0v.233c.173.191.406.453.686.794a.042.042 0 0 0 .036 0h.269a.042.042 0 0 0 .042 0v-.048c-.269-.328-.483-.6-.632-.74a.71.71 0 0 0 .382-.149.543.543 0 0 0 .179-.328h.258a.048.048 0 0 0 0-.03v-.143a.048.048 0 0 0 .023-.013z" class="prefix__cls-1" data-name="Path 10328" transform="translate(-10.717 -4.477)"/>
        <path id="prefix__Path_10329" d="M21.432 39.532h-2.56v-3.658h1.677l.722.835.7-.835H23.5v.054a2.416 2.416 0 0 0-2.064 3.58zm.113-1.193a2.032 2.032 0 1 1 0 .018zm4.594 2.309h-1.616l-.746.895-.764-.895h-1.79v3.878h5.03zm-6.981-6.957a1.9 1.9 0 1 0 1.9-1.9 1.9 1.9 0 0 0-1.9 1.9zM6.45 35.731h-.74l-.722.835-.7-.835H2.757v.048a2.387 2.387 0 0 1 2.064 3.58h2.566v-3.628H6.45zM.686 38.213a2.011 2.011 0 1 0 .587-1.426 2.011 2.011 0 0 0-.587 1.426zm3.341 2.309H3.24l-.764.883-.746-.883H.113L0 44.389h5.018V40.51h-.99zM3.3 33.547a1.9 1.9 0 1 0 1.9-1.9 1.9 1.9 0 0 0-1.9 1.9z" class="prefix__cls-1" data-name="Path 10329" transform="translate(0 -12.766)"/>
    </g>
</svg>
