<svg xmlns="http://www.w3.org/2000/svg" width="29.495" height="30.189" viewBox="0 0 29.495 30.189">
    <defs>
        <style>
            .prefix__cls-1{fill:#58595b}
        </style>
    </defs>
    <g id="prefix__Layer_2" data-name="Layer 2" transform="translate(-.005 .032)">
        <g id="prefix__Layer_1" data-name="Layer 1" transform="translate(.005 -.032)">
            <path id="prefix__Path_10330" d="M19.238 32.987c-.829-.568-7.953-5.42-9.9-8.828L9.234 24h-.216a5.112 5.112 0 0 0-3.5 1.385l-.688-.738-.278-.284-.278.284a3.939 3.939 0 0 0-1.432 3.124 2.738 2.738 0 0 0 1.518 1.91c.159.091 2 1.341 3.977 2.937a24.9 24.9 0 0 1-2.005 1.511c-.512.364-2.643 2.271-2.643 2.271l1.375.324.477.932A10.225 10.225 0 0 1 6.9 35.294a8.2 8.2 0 0 1 1.97-1.426 19.753 19.753 0 0 0-1.136 1.909 8.3 8.3 0 0 0-.614 2.562l.841-.267.568 1.267a18.247 18.247 0 0 1 .511-2.948 6.766 6.766 0 0 1 1.233-2.164c2.534 2.272 5.181 4.942 5.715 5.488a2.318 2.318 0 0 0 1.267.761 2.869 2.869 0 0 0 .568.062 3.306 3.306 0 0 0 2.806-1.88 4.232 4.232 0 0 0-.358-4.937 2.67 2.67 0 0 0-1.033-.734zM8.5 31.76c-1.84-1.443-3.51-2.59-3.754-2.727a1.971 1.971 0 0 1-1.136-1.375 2.889 2.889 0 0 1 .949-2.176c1.8 1.835 3.323 3.289 4.63 4.448a3.59 3.59 0 0 0-.689 1.83zm1.136-2.471c-1.036-.92-2.226-2.034-3.572-3.409a4.5 4.5 0 0 1 2.71-1.165 17.662 17.662 0 0 0 2.948 3.374 3.034 3.034 0 0 0-2.085 1.2zm.784 4.056a6.249 6.249 0 0 1 .568-1.88 18.4 18.4 0 0 0 4.141 2.772 11.93 11.93 0 0 0 0 3.539c-1.2-1.216-3-2.954-4.7-4.431zm9.55 4.931a2.422 2.422 0 0 1-2.539 1.437c-1.96-.432-1.733-4.238-1.483-5.681l.062-.364-.358-.085s-1.233-.347-4.244-2.8a3.749 3.749 0 0 1 2.155-1.083c1.7 1.409 3.409 2.625 4.4 3.335l-.085.045a3.649 3.649 0 0 0-1.4 3.494c.3 1.074 1.017 1.767 1.772 1.755.324 0 1.136-.193 1.4-1.636l.045-.222-.176-.148c-1.091-.932-1.7-1.483-1.966-1.755a1.869 1.869 0 0 1 .7-.8c.432-.244.926-.085 1.466.477a3.458 3.458 0 0 1 .246 4.031zm-1.136-1.494c-.136.489-.364.784-.619.79-.324 0-.773-.409-.988-1.187a2.113 2.113 0 0 1 .051-1.023c.312.324.812.772 1.551 1.42z" class="prefix__cls-1" data-name="Path 10330" transform="translate(-1.221 -10.348)"/>
            <path id="prefix__Path_10331" d="M28.827 14.035a.824.824 0 0 0 .443-1.38l-.409-.432.139-.466s1.284-2.363-1.949-1.926a.534.534 0 0 0-.324.159L17.459.27a.909.909 0 0 0-.859-.284L.65 3.525a.829.829 0 0 0-.369 1.426L4.03 8.3l.216-.687a.278.278 0 0 1 .216-.193 24.051 24.051 0 0 1 10.5.369 25.437 25.437 0 0 1 9.016 5.641.267.267 0 0 1 .074.284.835.835 0 0 0 .948 1.042l1.9-.369a.284.284 0 0 1 .324.364l-1.334 4.26a.284.284 0 0 1-.358.182l-.511-.165a.29.29 0 0 0-.358.187l-.523 1.7a.284.284 0 0 0 .352.358l1.023-.318a.284.284 0 0 1 .3.085l.8.937a.29.29 0 0 0 .489-.1l.534-1.7a.29.29 0 0 0-.187-.358l-.6-.187a.278.278 0 0 1-.187-.358l1.545-4.959a.3.3 0 0 1 .222-.193zm-.642-.835a.784.784 0 1 1-.517-.977.784.784 0 0 1 .517.977zm-.727-2.42c.4-.125 1.1-.25.915.341 0 .057-.074.222-.148.466z" class="prefix__cls-1" data-name="Path 10331" transform="translate(-.005 .032)"/>
        </g>
    </g>
</svg>
