<svg xmlns="http://www.w3.org/2000/svg" width="28.503" height="33.501" viewBox="0 0 28.503 33.501">
    <defs>
        <style>
            .prefix__cls-1{fill:#58595b}
        </style>
    </defs>
    <g id="prefix__Layer_2" data-name="Layer 2" transform="translate(-.031)">
        <g id="prefix__Layer_1" data-name="Layer 1" transform="translate(.031)">
            <path id="prefix__Path_10319" d="M16.531 37.465c-.915-.253-8.789-2.462-11.54-4.936l-.163-.138-.2.06a4.852 4.852 0 0 0-2.709 2.294l-.819-.423-.337-.175-.144.343a3.687 3.687 0 0 0-.343 3.233A2.6 2.6 0 0 0 2.21 39c.175.03 2.2.6 4.473 1.433a23.659 23.659 0 0 1-1.415 1.956c-.349.482-1.68 2.853-1.68 2.853l1.33-.12.71.692a9.547 9.547 0 0 1 .512-2.558 7.609 7.609 0 0 1 1.337-1.866 19.439 19.439 0 0 0-.47 2.059 7.964 7.964 0 0 0 .229 2.48l.674-.494.9.957a16.922 16.922 0 0 1-.427-2.8 6.429 6.429 0 0 1 .482-2.306c2.944 1.24 6.128 2.859 6.766 3.191a2.288 2.288 0 0 0 1.908.175 3.118 3.118 0 0 0 1.95-2.528 3.992 3.992 0 0 0-1.808-4.324 2.564 2.564 0 0 0-1.15-.337zM6.52 39.6c-2.077-.74-3.925-1.264-4.214-1.318a1.86 1.86 0 0 1-1.427-.891 2.732 2.732 0 0 1 .193-2.239c2.161 1.108 3.979 1.956 5.5 2.6A3.4 3.4 0 0 0 6.52 39.6zm.28-2.563c-1.2-.512-2.6-1.156-4.214-1.962a4.214 4.214 0 0 1 2.083-1.86 16.585 16.585 0 0 0 3.66 2.137A2.9 2.9 0 0 0 6.8 37.037zm1.932 3.4a5.7 5.7 0 0 1-.06-1.86 17.56 17.56 0 0 0 4.551 1.246 11.125 11.125 0 0 0 1.077 3.168c-1.463-.722-3.6-1.74-5.574-2.552zm10.047 1.547a2.319 2.319 0 0 1-1.854 2.059c-1.884.2-2.829-3.281-3.01-4.635l-.054-.343-.349.03s-1.2.06-4.647-1.234a3.516 3.516 0 0 1 1.607-1.619c1.932.728 3.817 1.33 4.936 1.661l-.06.066a3.4 3.4 0 0 0-.2 3.558 1.96 1.96 0 0 0 2.119 1.041c.289-.108.939-.512.765-1.89v-.211l-.2-.084c-1.264-.506-1.962-.819-2.3-.981a1.92 1.92 0 0 1 .385-.945c.319-.349.807-.355 1.463 0a3.263 3.263 0 0 1 1.4 3.528zm-1.457-1c0 .482-.09.813-.319.9-.289.1-.819-.138-1.24-.771a1.962 1.962 0 0 1-.263-.913c.367.175.951.433 1.824.783z" class="prefix__cls-1" data-name="Path 10319" transform="translate(-.031 -12.892)"/>
            <path id="prefix__Path_10320" d="M30.007 1.336V.482A.482.482 0 0 0 29.525 0H4.206a.476.476 0 0 0-.476.482v.855a.476.476 0 0 0 .476.482h3.01A.482.482 0 0 1 7.7 2.3v5.417l.337.1a10.234 10.234 0 0 0 .413 11.236c.157.223.319.433.494.644a10.234 10.234 0 0 0 7.826 3.708h.054a10.27 10.27 0 0 0 7.91-3.714c.175-.211.337-.427.494-.65a10.156 10.156 0 0 0 1.451-8.885.476.476 0 0 1 .458-.6h1.806a.482.482 0 0 0 .482-.482V6.02h-.6V2.3a.482.482 0 0 1 .482-.482h.223a.482.482 0 0 0 .482-.482zm-8.338 8.248a15.929 15.929 0 0 1 .379 2.974.476.476 0 0 1-.482.494h-3.8a.476.476 0 0 1-.482-.476v-1.92a.482.482 0 0 1 .337-.458l2.2-.686h.054c.409-.078.813-.163 1.2-.265a.482.482 0 0 1 .594.337zM17.293 13.9h4.214a.482.482 0 0 1 .482.512 15.875 15.875 0 0 1-.337 2.282.482.482 0 0 1-.6.349 15.983 15.983 0 0 0-3.311-.512.476.476 0 0 1-.458-.476V13.9zM9.256 8.193l1.547.458.4.71a16.519 16.519 0 0 0-.415 3.221.482.482 0 0 1-.482.47H7.9a.476.476 0 0 1-.482-.494 9.373 9.373 0 0 1 1.288-4.13.494.494 0 0 1 .548-.235zM7.986 13.9h2.36a.482.482 0 0 1 .476.451 16.476 16.476 0 0 0 .415 2.7.47.47 0 0 1-.283.56 11.065 11.065 0 0 0-1.415.7.488.488 0 0 1-.656-.138A9.493 9.493 0 0 1 7.5 14.448a.488.488 0 0 1 .482-.548zm2.167 5a8.734 8.734 0 0 1 .951-.464.494.494 0 0 1 .65.277 10.9 10.9 0 0 0 .9 1.86.482.482 0 0 1-.65.662 9.529 9.529 0 0 1-1.956-1.577.482.482 0 0 1 .1-.759zm5.671 3.5c-1.354-.488-2.522-1.932-3.275-3.919a.482.482 0 0 1 .313-.644 15.814 15.814 0 0 1 3.07-.464.482.482 0 0 1 .5.482v4.087a.476.476 0 0 1-.608.458zm.163-5.875a15.929 15.929 0 0 0-3.371.524.482.482 0 0 1-.6-.349 15.911 15.911 0 0 1-.343-2.294.482.482 0 0 1 .482-.512h3.817a.476.476 0 0 1 .476.476v1.68a.476.476 0 0 1-.458.476zm-4.358-3.479a16 16 0 0 1 .391-3.479.47.47 0 0 1 .6-.349c.235.06.476.12.722.169l2.757.843a.476.476 0 0 1 .343.458V12.6a.476.476 0 0 1-.476.482h-4.34zm5.665 8.879v-4.064a.476.476 0 0 1 .5-.482 14.959 14.959 0 0 1 3.01.458.476.476 0 0 1 .319.638 6.412 6.412 0 0 1-3.227 3.913.476.476 0 0 1-.6-.458zM21 20.618a10.95 10.95 0 0 0 .951-1.92.488.488 0 0 1 .644-.277 9.524 9.524 0 0 1 .993.482.488.488 0 0 1 .108.759 9.445 9.445 0 0 1-2.035 1.619.482.482 0 0 1-.661-.663zm3.2-2.3a11.323 11.323 0 0 0-1.457-.722.482.482 0 0 1-.289-.56 15.742 15.742 0 0 0 .409-2.685.482.482 0 0 1 .482-.451h2.408a.482.482 0 0 1 .476.554 9.493 9.493 0 0 1-1.373 3.726.488.488 0 0 1-.656.138zm-1.3-5.267a16.4 16.4 0 0 0-.554-4.214c.343-.126.668-.271.981-.421h.054L24.4 8.1a.482.482 0 0 1 .554.2 9.349 9.349 0 0 1 1.346 4.269.482.482 0 0 1-.482.5zm4.524-7.031h-.488a.482.482 0 0 0-.482.476v.914a.476.476 0 0 1-.885.253.476.476 0 0 1-.069-.253V2.3a.482.482 0 0 1 .482-.482h.969a.476.476 0 0 1 .476.482z" class="prefix__cls-1" data-name="Path 10320" transform="translate(-1.503)"/>
        </g>
    </g>
</svg>
