<svg xmlns="http://www.w3.org/2000/svg" width="39.813" height="24.549" viewBox="0 0 39.813 24.549">
    <defs>
        <style>
            .prefix__cls-1{fill:#58595b}
        </style>
    </defs>
    <g id="prefix__Layer_2" data-name="Layer 2" transform="translate(.002)">
        <g id="prefix__Layer_1" data-name="Layer 1" transform="translate(-.002)">
            <path id="prefix__Path_10343" d="M38.227 3.7l4.8 9.125a10.256 10.256 0 0 1-1.763 2.5 15.7 15.7 0 0 1-2.066 1.8l-8.851-9.798a1.675 1.675 0 0 0-.967-.468 3.791 3.791 0 0 0-1.264.265l-4.991 2.737a1.409 1.409 0 0 1-2-.367c-.8-1.131.632-2.136.632-2.136A46.748 46.748 0 0 1 29.216 2.3a4.152 4.152 0 0 1 3.791.07c.935.5 2.433 1.548 3.16 1.833.866.324 2.06-.503 2.06-.503z" class="prefix__cls-1" data-name="Path 10343" transform="translate(-7.686 -.692)"/>
            <path id="prefix__Path_10344" d="M58.044 10.584L52.755.726a.524.524 0 0 0-.72-.215l-2.048 1.074a.537.537 0 0 0-.215.727l5.289 9.858a.531.531 0 0 0 .72.221l2.047-1.081a.537.537 0 0 0 .215-.727zM56 10.71a.752.752 0 1 1 .746-.746.752.752 0 0 1-.746.746z" class="prefix__cls-1" data-name="Path 10344" transform="translate(-18.296 -.164)"/>
            <path id="prefix__Path_10345" d="M12.491 16.3a12.72 12.72 0 0 1-2.155-1.656 13.687 13.687 0 0 1-1.681-2 .537.537 0 0 1-.032-.556l4.752-8.923a.524.524 0 0 1 .664-.246 5.529 5.529 0 0 0 .84.2 3.577 3.577 0 0 0 1.833-.246l.487-.139a7.185 7.185 0 0 0 1.409-.634 8.013 8.013 0 0 1 1.864-.84 2.414 2.414 0 0 1 2.414.74l-.828.645a1.333 1.333 0 0 0-1.321-.392 7.21 7.21 0 0 0-1.611.739 7.431 7.431 0 0 1-1.643.758l-.468.139a4.638 4.638 0 0 1-2.338.272l-.569-.126-4.391 8.254a11.5 11.5 0 0 0 1.333 1.554A12.531 12.531 0 0 0 13 15.36z" class="prefix__cls-1" data-name="Path 10345" transform="translate(-3.15 -.434)"/>
            <path id="prefix__Path_10346" d="M37.2 35.627a1.851 1.851 0 0 1-1.2-.436l.36-.392.354-.4c.139.12.632.449 1.327-.348a1.4 1.4 0 0 0 .158-1.656l.891-.581a2.452 2.452 0 0 1-.24 2.932 2.275 2.275 0 0 1-1.567.885z" class="prefix__cls-1" data-name="Path 10346" transform="translate(-13.25 -11.709)"/>
            <path id="prefix__Path_10347" d="M41.387 30.142a2.717 2.717 0 0 1-1.15-.3 6.635 6.635 0 0 1-1.466-1.22.537.537 0 0 1 0-.752.531.531 0 0 1 .752 0 5.82 5.82 0 0 0 1.1.979 1.125 1.125 0 0 0 1.466-.164c.676-.632.1-1.529 0-1.675l-3.071-3.273a.531.531 0 0 1 0-.752.537.537 0 0 1 .758 0l3.1 3.3.038.044a2.332 2.332 0 0 1-.088 3.1 2.111 2.111 0 0 1-1.439.713z" class="prefix__cls-1" data-name="Path 10347" transform="translate(-14.214 -8.404)"/>
            <path id="prefix__Path_10348" d="M46.133 29.708a2.572 2.572 0 0 1-1.706-.632l-1.637-1.643.765-.746 1.63 1.6a1.5 1.5 0 0 0 1.826.095 1.529 1.529 0 0 0 .733-.821.7.7 0 0 0-.076-.5l.878-.6a1.731 1.731 0 0 1 .24 1.3 2.408 2.408 0 0 1-1.22 1.523 2.635 2.635 0 0 1-1.434.423z" class="prefix__cls-1" data-name="Path 10348" transform="translate(-15.75 -9.74)"/>
            <path id="prefix__Path_10349" d="M17.624 26.806a1.384 1.384 0 0 1-1.953 0 1.378 1.378 0 0 1 0-1.959l.632-.632a1.384 1.384 0 0 1 1.953 0 1.371 1.371 0 0 1 0 1.953z" class="prefix__cls-1" data-name="Path 10349" transform="translate(-5.617 -8.765)"/>
            <path id="prefix__Path_10350" d="M21.9 29.425a1.371 1.371 0 0 1-1.953 0 1.371 1.371 0 0 1 0-1.953l2.166-2.172a1.39 1.39 0 0 1 1.959 0 1.384 1.384 0 0 1 0 1.953z" class="prefix__cls-1" data-name="Path 10350" transform="translate(-7.193 -9.166)"/>
            <path id="prefix__Path_10351" d="M26.8 32.441a1.384 1.384 0 0 1-1.953 0 1.371 1.371 0 0 1 0-1.953l2.753-2.723a1.384 1.384 0 0 1 1.953 0 1.39 1.39 0 0 1 0 1.959z" class="prefix__cls-1" data-name="Path 10351" transform="translate(-8.997 -10.072)"/>
            <path id="prefix__Path_10352" d="M31.884 36a1.39 1.39 0 0 1-1.959 0 1.384 1.384 0 0 1 0-1.953l1.434-1.434a1.378 1.378 0 0 1 1.959 0 1.384 1.384 0 0 1 0 1.953z" class="prefix__cls-1" data-name="Path 10352" transform="translate(-10.866 -11.854)"/>
            <circle id="prefix__Ellipse_812" cx=".752" cy=".752" r=".752" class="prefix__cls-1" data-name="Ellipse 812" transform="translate(1.815 9.163)"/>
            <path id="prefix__Path_10353" d="M6.173 1.068a.537.537 0 0 1 .253.063l1.3.765a.531.531 0 0 1 .221.72l-4.573 8.632a.531.531 0 0 1-.468.278.518.518 0 0 1-.253-.063l-1.308-.72a.531.531 0 0 1-.215-.72l4.557-8.677a.55.55 0 0 1 .474-.278M6.173 0a1.6 1.6 0 0 0-1.409.84L.189 9.51a1.592 1.592 0 0 0 .632 2.148l1.3.733a1.662 1.662 0 0 0 .758.19 1.605 1.605 0 0 0 1.434-.828L8.89 3.084A1.605 1.605 0 0 0 8.258.929L6.95.2a1.681 1.681 0 0 0-.777-.2z" class="prefix__cls-1" data-name="Path 10353" transform="translate(.002)"/>
            <path id="prefix__Path_10354" d="M38.334 30.73a.531.531 0 0 1-.392-.171l-3.1-3.292a.537.537 0 0 1 .777-.733l3.071 3.3a.531.531 0 0 1 0 .739.518.518 0 0 1-.36.158z" class="prefix__cls-1" data-name="Path 10354" transform="translate(-12.785 -9.719)"/>
        </g>
    </g>
</svg>
