<svg xmlns="http://www.w3.org/2000/svg" width="34.541" height="28.47" viewBox="0 0 34.541 28.47">
    <defs>
        <style>
            .prefix__cls-1{fill:#58595b}
        </style>
    </defs>
    <g id="prefix__Layer_2" data-name="Layer 2" transform="translate(.008)">
        <g id="prefix__Layer_1" data-name="Layer 1" transform="translate(-.008)">
            <path id="prefix__Path_10332" d="M7.259 38.182v-.84a.178.178 0 0 0-.178-.178H2.874a.173.173 0 0 1-.173-.132L1.147 30.9a.173.173 0 0 0-.213-.127l-.811.2A.178.178 0 0 0 0 31.19l1.767 7.033a.167.167 0 0 0 .167.132h.518a.173.173 0 0 1 .161.247l-1 2.216a.173.173 0 0 0 .086.236l.4.178a.178.178 0 0 0 .236-.086l1.22-2.688a.178.178 0 0 1 .161-.075h1.719a.178.178 0 0 1 .161.1l1.151 2.682a.173.173 0 0 0 .23.086l.4-.173a.173.173 0 0 0 .092-.23L6.5 38.631a.178.178 0 0 1 .161-.247h.391a.178.178 0 0 0 .207-.2z" class="prefix__cls-1" data-name="Path 10332" transform="translate(.008 -13.062)"/>
            <path id="prefix__Path_10333" d="M52.7 38.124l1.767-7.038a.173.173 0 0 0-.127-.213l-.811-.207a.173.173 0 0 0-.213.132l-1.542 6.141a.173.173 0 0 1-.173.132h-4.215a.178.178 0 0 0-.178.178v.834a.178.178 0 0 0 .178.173h.391a.178.178 0 0 1 .161.247l-.95 2.221a.178.178 0 0 0 .092.236l.4.173a.173.173 0 0 0 .23-.092l1.151-2.682a.161.161 0 0 1 .155-.1h1.727a.178.178 0 0 1 .161.1l1.26 2.688a.173.173 0 0 0 .23.086l.4-.178a.173.173 0 0 0 .086-.23l-1-2.221a.173.173 0 0 1 .155-.247h.518a.178.178 0 0 0 .144-.132z" class="prefix__cls-1" data-name="Path 10333" transform="translate(-19.935 -13.015)"/>
            <path id="prefix__Path_10334" d="M18.52 38.47v6.33h.466v-6.33h-.466z" class="prefix__cls-1" data-name="Path 10334" transform="translate(-7.857 -16.33)"/>
            <path id="prefix__Path_10335" d="M30.136 35.4h3.292a.173.173 0 0 0 .173-.213L32.1 27.7a.184.184 0 0 0-.173-.144h-2.378a.178.178 0 0 0-.15.086l-1.727 2.8.069-.161-.081.127-1.83-.731a.178.178 0 0 0-.224.1l-.305.737a.184.184 0 0 1-.161.109H14.609a.184.184 0 0 1-.161-.109l-.282-.679a.178.178 0 0 0-.23-.092l-1.686.673a.167.167 0 0 1-.213-.069L10.35 27.7a.178.178 0 0 0-.144-.081H7.812a.178.178 0 0 0-.173.144l-1.5 7.482a.173.173 0 0 0 .173.207h4.875v-1.441a.173.173 0 0 0-.178-.173H9.625a.178.178 0 0 1-.173-.23l1.048-3.383.38.616h-.288v1.088a.173.173 0 0 0 .173.178h.472a.173.173 0 0 1 .173.173v7.884h1.508a.173.173 0 0 0 .178-.173v-7.712a.173.173 0 0 1 .173-.173h13.425a.173.173 0 0 1 .173.173v7.712a.173.173 0 0 0 .178.173h1.5v-7.885a.178.178 0 0 1 .178-.173h.351a.178.178 0 0 0 .178-.178V30.84h-.437l.414-.668 1.047 3.4a.173.173 0 0 1-.167.224h-1.187a.173.173 0 0 0-.173.173V35.4h1.387z" class="prefix__cls-1" data-name="Path 10335" transform="translate(-2.599 -11.699)"/>
            <path id="prefix__Path_10336" d="M40.67 38.38v6.2a.173.173 0 0 0 .178.173h.305a.173.173 0 0 0 .178-.173v-6.2z" class="prefix__cls-1" data-name="Path 10336" transform="translate(-17.259 -16.292)"/>
            <circle id="prefix__Ellipse_809" cx="2.785" cy="2.785" r="2.785" class="prefix__cls-1" data-name="Ellipse 809" transform="translate(13.564 3.654)"/>
            <path id="prefix__Path_10337" d="M23.389 37.542h-.213l-.978.213a.173.173 0 0 0-.138.167v.714a.178.178 0 0 0 .178.178h.788l1.093-.178v.184h1.053a.178.178 0 0 0 .178-.178V36.4a.173.173 0 0 0-.178-.173h-1.61a.167.167 0 0 0-.173.173z" class="prefix__cls-1" data-name="Path 10337" transform="translate(-9.36 -15.379)"/>
            <path id="prefix__Path_10338" d="M31.041 37.534v-1.151a.173.173 0 0 0-.178-.173h-1.64a.167.167 0 0 0-.173.173v2.233a.173.173 0 0 0 .173.178h1.053v-.184l1.093.178h.788a.178.178 0 0 0 .178-.178v-.7a.173.173 0 0 0-.138-.167l-.978-.213z" class="prefix__cls-1" data-name="Path 10338" transform="translate(-12.327 -15.371)"/>
            <path id="prefix__Path_10339" d="M38.064 8.09l-5.134 2.941-.121-.23-4.322 2.256a.19.19 0 0 1-.081 0h-1.473a.167.167 0 0 0-.132.058l-.875 1.013a.173.173 0 0 1-.265 0l-.834-1a.178.178 0 0 0-.167-.058l-2.014.374a.173.173 0 0 0-.144.167l-.132 4.679a.173.173 0 0 0 .173.184h.61a.184.184 0 0 1 .178.167l.04.9h.15v2.175a.167.167 0 0 0 .173.173h1.64a.173.173 0 0 0 .178-.173v-.909a.167.167 0 0 1 .173-.173h.351a.173.173 0 0 1 .178.173v.9a.167.167 0 0 0 .173.173h1.64a.173.173 0 0 0 .178-.173v-2.159h.178l.247-4.932a.184.184 0 0 1 .1-.144l4.558-2.36a.184.184 0 0 0 .075-.242l-.322-.622.115.207L38.3 8.5z" class="prefix__cls-1" data-name="Path 10339" transform="translate(-9.491 -3.434)"/>
            <path id="prefix__Path_10340" d="M11.7 3.6V1.876a.932.932 0 0 1 .922-.926h22.151a.932.932 0 0 1 .927.927v10.209a.927.927 0 0 1-.927.927 5.312 5.312 0 0 0-1.318.081v.247a.575.575 0 0 0 .576.616h1.939a.932.932 0 0 0 .927-.927V.944A.932.932 0 0 0 35.976 0H11.437a.927.927 0 0 0-.927.927v8.2a.576.576 0 0 0 .374.547.576.576 0 0 0 .811-.547z" class="prefix__cls-1" data-name="Path 10340" transform="translate(-4.457)"/>
            <path id="prefix__Path_10341" d="M17.488 23.254a.173.173 0 0 0 .138.27h2.014a.178.178 0 0 0 .178-.155l.063-.633a.178.178 0 0 0-.173-.2h-1.777a.173.173 0 0 0-.167.132 2.337 2.337 0 0 1-.276.581z" class="prefix__cls-1" data-name="Path 10341" transform="translate(-7.406 -9.568)"/>
            <path id="prefix__Path_10342" d="M34.68 22.707v.576a.173.173 0 0 0 .173.184l4.3.04a.178.178 0 0 0 .173-.219 2.1 2.1 0 0 1-.1-.576.822.822 0 0 1 0-.127l-4.368-.046a.184.184 0 0 0-.178.168z" class="prefix__cls-1" data-name="Path 10342" transform="translate(-14.716 -9.568)"/>
            <circle id="prefix__Ellipse_810" cx="2.239" cy="2.239" r="2.239" class="prefix__cls-1" data-name="Ellipse 810" transform="translate(4.499 10.733)"/>
            <circle id="prefix__Ellipse_811" cx="2.239" cy="2.239" r="2.239" class="prefix__cls-1" data-name="Ellipse 811" transform="translate(25.258 10.733)"/>
        </g>
    </g>
</svg>
