<svg xmlns="http://www.w3.org/2000/svg" width="14.7" height="22.87" viewBox="0 0 14.7 22.87">
    <defs>
        <style>
            .cls-1{fill:#069;stroke:#069;stroke-width:.2px}
        </style>
    </defs>
    <g id="Group_10625" transform="translate(-19.6 -2.4)">
        <path id="Path_18117" d="M43.6 71.267l-1.5 1.457v-5.518a.4.4 0 0 0-.406-.406.419.419 0 0 0-.406.406v5.518l-1.5-1.457a.405.405 0 1 0-.573.573l2.2 2.15a.4.4 0 0 0 .573 0l2.2-2.15a.39.39 0 0 0 0-.573.436.436 0 0 0-.588 0z" class="cls-1" transform="translate(-14.747 -48.94)"/>
        <path id="Path_18118" d="M34.416 34.064c-.119.334-.287.645-.43.956-1.577.621-2.508 1.29-2.652 1.959a.783.783 0 0 0 .287.788.822.822 0 0 0 .5.191.9.9 0 0 0 .239-.024c.717-.191 1.5-1.266 2.078-2.341.358-.119.741-.263 1.171-.382.526-.143.979-.263 1.386-.358a3.33 3.33 0 0 0 1.935.908 1.408 1.408 0 0 0 1-.406.728.728 0 0 0 .191-.884c-.311-.526-1.362-.621-2.938-.334-.263-.239-.549-.5-.836-.812a4.964 4.964 0 0 1-.645-.908c.358-1.242.549-2.437.143-3.01a.9.9 0 0 0-.784-.407.817.817 0 0 0-.812.5c-.311.693.167 1.959.717 2.962a11.625 11.625 0 0 1-.549 1.6zm-2.2 3.2c-.1.024-.119 0-.143-.024-.073-.07-.073-.094-.073-.118.048-.239.478-.645 1.433-1.1a3.272 3.272 0 0 1-1.215 1.243zm7.334-2.508a1.241 1.241 0 0 1-.072.119.7.7 0 0 1-.526.215 1.953 1.953 0 0 1-1.027-.406c1.125-.166 1.575.001 1.627.073zm-4.634-5.017c.024-.048.048-.1.191-.1s.191.048.215.1a2.76 2.76 0 0 1-.048 1.72 2.8 2.8 0 0 1-.357-1.718zm.143 4.563c.143-.358.287-.741.406-1.123a3.689 3.689 0 0 0 .406.526 5.45 5.45 0 0 0 .526.526c-.311.072-.621.167-.956.263-.191.048-.382.119-.573.167a2.435 2.435 0 0 0 .193-.361z" class="cls-1" transform="translate(-8.839 -20.17)"/>
        <path id="Path_18119" d="M33.794 7.11l-4.2-4.2a1.394 1.394 0 0 0-.984-.41h-7.5a1.387 1.387 0 0 0-1.41 1.409v15.337a1.412 1.412 0 0 0 1.409 1.409h4.133a.406.406 0 0 0 0-.812h-4.156a.591.591 0 0 1-.6-.6V3.909a.576.576 0 0 1 .167-.406.613.613 0 0 1 .43-.167h7.334v3.512A1.463 1.463 0 0 0 29.876 8.3h3.512v10.97a.591.591 0 0 1-.6.6h-4.13a.406.406 0 0 0 0 .812h4.133A1.412 1.412 0 0 0 34.2 19.27V8.114a1.408 1.408 0 0 0-.406-1.004zm-4.539-.287V3.718l3.727 3.727h-3.106a.617.617 0 0 1-.621-.621z" class="cls-1"/>
    </g>
</svg>
