<svg xmlns="http://www.w3.org/2000/svg" width="49" height="49" viewBox="0 0 49 49">
    <g>
        <g transform="translate(-103 -661)">
            <circle cx="24.5" cy="24.5" r="24.5" fill="#f5f6f6" transform="translate(103 661)"/>
            <g>
                <path d="M16.973 15.72a7.464 7.464 0 0 0 13.871 3.838c.754-1.2 1.057-3.805 1.057-11.871h3.935a.813.813 0 0 0 .813-.813.829.829 0 0 0-.813-.813H13.07a.829.829 0 0 0-.813.813.813.813 0 0 0 .813.813c1.522-.126 2.472.115 3.9 0zm7.48 5.789a5.854 5.854 0 0 1-5.854-5.79v-2.731h11.709v2.732a5.854 5.854 0 0 1-5.854 5.789zm5.855-13.823v3.675H18.6V7.686zm1.35 23.856a.813.813 0 0 1-.813.813h-1.887a.813.813 0 0 1 0-1.626h1.886a.813.813 0 0 1 .814.813zm-10.9 0a.813.813 0 0 1-.813.813h-1.882a.813.813 0 0 1 0-1.626h1.886a.813.813 0 0 1 .813.813zm16.213 1.106a8.57 8.57 0 0 0-7.9-8.57.748.748 0 0 0-.423 0h-8.39a33 33 0 0 0-4.033 1.138 7.139 7.139 0 0 0-.829.52 8.7 8.7 0 0 0-3.464 6.911v4.879a.813.813 0 0 0 .813.813h23.417a.813.813 0 0 0 .813-.813zm-12.517-5.382l-2.033-1.626h4.065zm10.9 9.5H13.558v-4.118a7.058 7.058 0 0 1 2.765-5.548 6.911 6.911 0 0 1 3.513-1.333l3.805 2.96v6.928a.813.813 0 0 0 1.626 0v-6.926l3.757-2.992a6.911 6.911 0 0 1 3.561 1.363 7.058 7.058 0 0 1 2.813 5.61z" transform="translate(97.068 664.542)"/>
            </g>
        </g>
        <g>
            <path d="M58.388 29.824h-4.17v-4.17a1.3 1.3 0 1 0-2.606 0v4.17h-4.17a1.3 1.3 0 1 0 0 2.606h4.17v4.17a1.3 1.3 0 1 0 2.606 0v-4.17h4.17a1.3 1.3 0 1 0 0-2.606z" transform="translate(-103 -661) translate(-116.525 657.474) translate(203 -13.824)"/>
        </g>
    </g>
</svg>
