<svg xmlns="http://www.w3.org/2000/svg" width="49" height="49" viewBox="0 0 49 49">
    <g transform="translate(-409 -663)">
        <circle cx="24.5" cy="24.5" r="24.5" fill="#f5f6f6" transform="translate(409 663)"/>
        <g>
            <path d="M16.973 15.72a7.464 7.464 0 0 0 13.871 3.838 6.049 6.049 0 0 0 11.611-2.374v-6.132h2.895a.813.813 0 0 0 0-1.626H34.585a.813.813 0 0 0 0 1.626h6.245v2.521h-6.408a.813.813 0 1 0 0 1.626h6.407v1.919a4.423 4.423 0 0 1-8.846 0v-.829a.878.878 0 0 0-.081-.341V7.686h3.935a.813.813 0 0 0 .813-.813.829.829 0 0 0-.813-.813H13.07a.829.829 0 0 0-.813.813.813.813 0 0 0 .813.813h1.4v1.74H3.557a.813.813 0 0 0 0 1.626h2.895v6.066a6.049 6.049 0 0 0 11.091 3.35.816.816 0 1 0-1.366-.894 4.423 4.423 0 0 1-8.131-2.456V15.2h6.391v1.4a.813.813 0 0 0 1.626 0V7.686h.911zm-8.9-2.147v-2.521h6.358v2.521zm16.376 7.936a5.854 5.854 0 0 1-5.854-5.79v-2.731h11.713v2.732a5.854 5.854 0 0 1-5.854 5.789zm5.859-13.823v3.675H18.6V7.686zm1.35 23.856a.813.813 0 0 1-.813.813h-1.887a.813.813 0 0 1 0-1.626h1.886a.813.813 0 0 1 .814.813zm-10.9 0a.813.813 0 0 1-.813.813h-1.882a.813.813 0 0 1 0-1.626h1.886a.813.813 0 0 1 .813.813zm22.852-6.651a6.96 6.96 0 0 0-4.163-1.382h-5.025a.813.813 0 1 0 0 1.626h5.025a5.334 5.334 0 0 1 5.334 5.334v3.041h-7.806v-.862a8.57 8.57 0 0 0-7.9-8.57.748.748 0 0 0-.423 0h-8.394a.748.748 0 0 0-.423 0 9.756 9.756 0 0 0-1.171.179 6.879 6.879 0 0 0-3.106-.748H9.46a6.96 6.96 0 0 0-6.96 6.96v3.854a.813.813 0 0 0 .813.813h6.18a.829.829 0 0 0 .813-.813.813.813 0 0 0-.813-.813H4.126v-3.041a5.334 5.334 0 0 1 5.334-5.334h6.1a4.96 4.96 0 0 1 .667.081 7.139 7.139 0 0 0-.829.52 8.7 8.7 0 0 0-3.464 6.911v4.879a.813.813 0 0 0 .813.813h23.415a.813.813 0 0 0 .813-.813v-2.438h8.619a.813.813 0 0 0 .813-.813v-3.806a6.96 6.96 0 0 0-2.8-5.578zm-19.156 2.375l-2.033-1.626h4.065zm10.9 9.5H13.558v-4.118a7.058 7.058 0 0 1 2.765-5.548 6.911 6.911 0 0 1 3.513-1.333l3.805 2.96v6.928a.813.813 0 0 0 1.626 0v-6.926l3.757-2.992a6.911 6.911 0 0 1 3.561 1.363 7.058 7.058 0 0 1 2.813 5.61z" transform="translate(408.593 665.067)"/>
        </g>
    </g>
</svg>
