<svg xmlns="http://www.w3.org/2000/svg" width="25.022" height="25.021" viewBox="0 0 25.022 25.021">
    <defs>
        <style>
            .cls-1{fill:#fff;stroke:#fff;stroke-width:.7px}
        </style>
    </defs>
    <g id="noun_contact_us_3730612" transform="translate(-5.328 -5.329)">
        <path id="Path_19995" d="M22.417 31.742a2.382 2.382 0 0 0 .336.023c1.41 0 3.1-1.189 5.019-3.541a2.04 2.04 0 0 0-.141-2.742l-2.656-2.655a2.05 2.05 0 0 0-2.9 0l-1.142 1.142-7.458-7.469 1.142-1.141a2.051 2.051 0 0 0 0-2.9l-2.655-2.647a2.04 2.04 0 0 0-2.742-.141c-2.542 2.078-3.726 3.88-3.518 5.355.733 5.204 11.512 15.983 16.715 16.716zM9.835 10.425a1.071 1.071 0 0 1 1.438.076l2.656 2.655a1.077 1.077 0 0 1 0 1.52l-1.486 1.485a.486.486 0 0 0 0 .688L20.594 25a.5.5 0 0 0 .688 0l1.486-1.486a1.076 1.076 0 0 1 1.52 0l2.656 2.655a1.07 1.07 0 0 1 .075 1.438c-1.822 2.229-3.37 3.328-4.466 3.17C17.737 30.1 7.343 19.706 6.665 14.89c-.155-1.099.941-2.644 3.17-4.465z" class="cls-1" transform="translate(0 -1.765)"/>
        <path id="Path_19996" d="M30.545 5.679a.486.486 0 0 0 0 .973 10.684 10.684 0 0 1 10.672 10.671.486.486 0 1 0 .973 0A11.658 11.658 0 0 0 30.545 5.679z" class="cls-1" transform="translate(-12.19)"/>
        <path id="Path_19997" d="M37.5 21.042a.486.486 0 1 0 .973 0 7.934 7.934 0 0 0-7.925-7.925.486.486 0 0 0 0 .973 6.961 6.961 0 0 1 6.952 6.952z" class="cls-1" transform="translate(-12.19 -3.719)"/>
        <path id="Path_19998" d="M30.059 21.042a.486.486 0 0 0 .486.486 3.237 3.237 0 0 1 3.233 3.233.486.486 0 1 0 .973 0 4.211 4.211 0 0 0-4.206-4.206.486.486 0 0 0-.486.487z" class="cls-1" transform="translate(-12.19 -7.439)"/>
    </g>
</svg>
