<svg xmlns="http://www.w3.org/2000/svg" width="22" height="22" viewBox="0 0 22 22">
    <g>
        <path fill="#fff" stroke="#fff" d="M16 9.29v.49a3.32 3.32 0 0 1-2.11 3.07 1.39 1.39 0 0 0-.89 1.29v1.36a.5.5 0 0 1-1 0v-1.36a2.42 2.42 0 0 1 1.53-2.23A2.29 2.29 0 0 0 15 9.78v-.49A2.3 2.3 0 0 0 12.71 7h-.26A2.45 2.45 0 0 0 10 9.45a.52.52 0 0 1-.5.53.48.48 0 0 1-.5-.48v-.05A3.46 3.46 0 0 1 12.45 6h.26A3.3 3.3 0 0 1 16 9.29zM12.69 18a.5.5 0 0 0-.38 0 .36.36 0 0 0-.16.11.47.47 0 0 0-.15.35.41.41 0 0 0 0 .19.53.53 0 0 0 .27.27.47.47 0 0 0 .38 0 .53.53 0 0 0 .27-.27.41.41 0 0 0 0-.19.47.47 0 0 0-.15-.35.36.36 0 0 0-.08-.11zM23 12.5A10.5 10.5 0 1 1 12.5 2 10.5 10.5 0 0 1 23 12.5zm-1 0a9.5 9.5 0 1 0-9.5 9.5 9.5 9.5 0 0 0 9.5-9.5z" transform="translate(-1.5 -1.5)"/>
    </g>
</svg>
