<svg xmlns="http://www.w3.org/2000/svg" width="22.713" height="26.626" viewBox="0 0 22.713 26.626">
    <defs>
        <style>
            .cls-1{fill:#fff}
        </style>
    </defs>
    <g id="noun_notice_2805049" transform="translate(-11.597 -5.003)">
        <path id="Path_20000" d="M15.327 30.632a.178.178 0 0 0-.03-.118l-.947-1.48a.145.145 0 0 0-.266.03l-2.457 8.731a.791.791 0 0 0 .533.977l9.56 2.693a.988.988 0 0 0 .5-.03l9.737-4.321a.759.759 0 0 0 .414-.444l1.894-5.239a.826.826 0 0 0-.03-.592 6.333 6.333 0 0 0-.3-.651c-.444-.977-.858-1.953-1.3-2.93-.5-1.154-1.036-2.309-1.539-3.463-.207-.444-.385-.858-.562-1.3-.059-.118-.118-.326-.178-.414-.178-.266-.326.326-.414.474l-.207.355c-.03.059-.059.089-.089.148a1.367 1.367 0 0 1-.207.207.336.336 0 0 0-.118.385L32.4 30.6a.69.69 0 0 1 0 .592.643.643 0 0 1-.414.414L29.5 32.7c0 .03 0 .03-.03.059l1.07 2.431a.758.758 0 0 1-.385 1.006l-7.133 3.137a1.064 1.064 0 0 1-.326.059.44.44 0 0 1-.266-.059.643.643 0 0 1-.414-.414l-6.245-14a.69.69 0 0 1 0-.592.643.643 0 0 1 .414-.414l6.748-2.989a.271.271 0 0 0 .148-.385.977.977 0 0 1-.03-.651c.03-.059.03-.148.089-.207l.237-.385c.059-.118.207-.3-.03-.3a.912.912 0 0 0-.355.148c-.207.089-.414.178-.592.266-1.1.5-2.19.977-3.315 1.48s-2.279 1.006-3.4 1.509c-.533.237-1.036.474-1.569.71a.87.87 0 0 0-.414.444.812.812 0 0 0 .03.592l6.837 15.39-6.393-1.805a.926.926 0 0 1-.3-.148 1.287 1.287 0 0 1-.178-.207.813.813 0 0 1-.059-.592z" class="cls-1" transform="translate(0 -9.854)"/>
        <path id="Path_20001" d="M53.532 10.507l1.865.977-1.036 1.953a.178.178 0 0 0-.03.118l.207 1.213c0 .089.118.089.148 0l1.514-2.84 1.865.977a.211.211 0 0 0 .3-.089v-.03l.089-.148.118-.237a1.822 1.822 0 0 0 .03-1.569.26.26 0 0 1 .03-.207l.888-1.687a.261.261 0 0 1 .38-.118l.207.118a.261.261 0 0 0 .385-.118l.562-1.036a.261.261 0 0 0-.118-.385l-4.44-2.368a.283.283 0 0 0-.385.118l-.533 1.036a.283.283 0 0 0 .118.385l.207.118a.267.267 0 0 1 .118.385l-.891 1.688a.2.2 0 0 1-.148.118c-.622.237-.947.266-1.3.918l-.148.237-.089.148v.03a.23.23 0 0 0 .087.295z" class="cls-1" transform="translate(-29.444)"/>
        <path id="Rectangle_6942" d="M0 0H5.594V1.48H0z" class="cls-1" transform="rotate(-24.412 47.255 -33.896)"/>
        <path id="Rectangle_6943" d="M0 0H8.997V1.48H0z" class="cls-1" transform="rotate(-24.36 55.46 -35.925)"/>
        <path id="Rectangle_6944" d="M0 0H8.554V1.48H0z" class="cls-1" transform="rotate(-24.581 63.725 -38.016)"/>
    </g>
</svg>
