<svg xmlns="http://www.w3.org/2000/svg" width="71.401" height="82.039" viewBox="0 0 71.401 82.039"><g transform="translate(-7.967 -2.382)"><rect width="4.487" height="6.73" transform="translate(32.45 23.919)" fill="#aa5c09" stroke="#0f1c33" stroke-miterlimit="10" stroke-width="0.561"/><path d="M42.158,3.207,39.915,4.329,37.671,6.572,36.55,8.816l-1.122,2.243H53.376L51.693,8.886,50.011,6.222,45.524,3.207Z" transform="translate(-1.715)" fill="#aa5c09"/><path d="M44.272,59.958a2.452,2.452,0,1,0-2.452-2.452A2.455,2.455,0,0,0,44.272,59.958Zm0-3.563a1.109,1.109,0,1,1-1.109,1.11A1.111,1.111,0,0,1,44.272,56.4Z" transform="translate(-1.716 -2.652)" fill="#aa5c09" stroke="#aa5c09" stroke-miterlimit="10" stroke-width="0.561"/><path d="M33.523,31.8h4.755V27.749H59.1V21.288H29.444v6.461h4.08V31.8Zm1.342-4.052V25.722h2.071v4.737H34.865Zm-4.079-1.342V22.63H57.759v3.777H38.278V24.38H33.523v2.027Z" transform="translate(-1.695 -1.014)" fill="#0f1c33" stroke="#0f1c33" stroke-miterlimit="10" stroke-width="0.561"/><path d="M19.2,66.448v2.883a6.722,6.722,0,0,0,6.726,6.7H59.109a6.721,6.721,0,0,0,6.725-6.7V66.448a34.036,34.036,0,0,0-.08-50.109A6.73,6.73,0,0,0,59.109,10.4H50.887a8.394,8.394,0,0,0-16.736,0H25.931a6.73,6.73,0,0,0-6.645,5.945A34.036,34.036,0,0,0,19.2,66.448Zm-.062-39.764c.02-.03.043-.06.062-.089V56.27c-.018-.029-.041-.058-.06-.088-.12-.189-.226-.383-.342-.573-.248-.41-.493-.822-.718-1.243-.127-.238-.242-.48-.362-.72-.191-.385-.38-.771-.552-1.164-.114-.259-.22-.521-.325-.783-.156-.386-.3-.773-.442-1.165-.094-.271-.186-.543-.271-.816-.125-.4-.239-.794-.345-1.2-.072-.274-.146-.548-.21-.826-.1-.415-.178-.836-.255-1.258-.049-.265-.1-.531-.144-.8-.07-.464-.121-.935-.169-1.4-.023-.228-.055-.456-.073-.686-.052-.7-.084-1.408-.084-2.118s.031-1.418.084-2.12c.018-.229.05-.457.073-.686.049-.469.1-.939.169-1.4.041-.267.1-.533.144-.8.077-.421.159-.842.255-1.258.064-.277.137-.551.21-.825.107-.4.221-.8.346-1.2.086-.274.177-.545.271-.815q.207-.589.443-1.167c.1-.262.21-.523.323-.782.174-.393.363-.781.556-1.167.119-.24.232-.48.359-.716.227-.424.474-.839.724-1.253C18.921,27.06,19.026,26.869,19.143,26.684ZM64.557,69.332a5.444,5.444,0,0,1-5.448,5.428H25.931a5.444,5.444,0,0,1-5.448-5.428V42.312A6.721,6.721,0,0,0,25.931,45.1H37.112V56.332A4.288,4.288,0,0,0,41.4,60.607h2.234a4.288,4.288,0,0,0,4.291-4.276V45.1H59.108a6.719,6.719,0,0,0,5.448-2.789v27.02ZM38.388,45.1H46.65V56.332a3.012,3.012,0,0,1-3.014,3H41.4a3.012,3.012,0,0,1-3.014-3ZM65.834,26.595c.02.03.043.059.063.089.117.185.222.375.335.563.25.413.5.828.725,1.253.126.236.24.477.359.715.192.387.381.773.555,1.168.114.259.219.52.324.782.156.386.3.773.442,1.166.1.271.186.542.272.815.125.4.239.8.345,1.2.072.274.146.548.21.825.1.416.178.836.256,1.258.049.265.1.53.143.8.07.465.122.935.169,1.4.023.229.055.457.073.686.053.7.085,1.408.085,2.12s-.031,1.417-.085,2.118c-.018.23-.05.457-.073.686-.048.47-.1.94-.169,1.4-.041.268-.094.533-.143.8-.078.422-.16.843-.256,1.258-.065.277-.138.551-.21.826q-.16.6-.344,1.2-.13.409-.272.816-.207.586-.441,1.164c-.107.263-.212.525-.325.784-.173.393-.361.779-.553,1.164-.12.24-.234.482-.361.72-.225.421-.47.832-.719,1.243-.114.191-.221.385-.341.573-.019.029-.042.058-.061.088V26.595Zm0-8.422a32.782,32.782,0,0,1,0,46.518V58.527c.226-.306.427-.627.64-.94.2-.3.417-.589.607-.892.223-.354.42-.719.624-1.081.175-.305.361-.606.523-.916.2-.374.363-.759.541-1.141.145-.31.3-.614.436-.93.167-.393.306-.8.454-1.2.117-.314.247-.622.353-.939.138-.415.245-.84.364-1.261.088-.312.189-.619.266-.935.108-.446.187-.9.275-1.353.058-.3.131-.592.18-.892.081-.5.128-1.013.183-1.522.028-.257.07-.511.091-.769q.091-1.154.092-2.326c0-.78-.032-1.556-.092-2.325-.021-.258-.064-.51-.091-.766-.054-.509-.1-1.021-.183-1.525-.049-.3-.122-.594-.18-.892-.088-.453-.166-.908-.275-1.354-.077-.316-.179-.623-.266-.936-.119-.421-.226-.845-.364-1.26-.106-.318-.236-.627-.353-.939-.147-.4-.286-.8-.454-1.2-.133-.316-.291-.62-.437-.93-.178-.381-.346-.766-.541-1.14-.162-.311-.348-.61-.522-.916-.205-.362-.4-.728-.625-1.082-.191-.3-.4-.593-.606-.891-.214-.314-.414-.635-.64-.941V18.172ZM42.519,3.935A7.12,7.12,0,0,1,49.61,10.4H35.429A7.12,7.12,0,0,1,42.519,3.935ZM25.931,11.667H59.109a5.454,5.454,0,0,1,5.4,5.023h0c.006.073.015.145.025.216a1.376,1.376,0,0,1,.019.189V38.4a5.445,5.445,0,0,1-5.448,5.429H25.931A5.445,5.445,0,0,1,20.482,38.4V17.1a1.349,1.349,0,0,1,.019-.187c.01-.071.019-.143.025-.217h0A5.454,5.454,0,0,1,25.931,11.667Zm-6.726,6.5v6.167c-.226.306-.426.627-.639.94-.2.3-.417.588-.607.892-.223.354-.42.719-.625,1.081-.175.306-.361.6-.522.916-.2.374-.363.759-.541,1.14-.145.31-.3.615-.437.93-.167.394-.306.8-.454,1.2-.117.314-.247.622-.353.939-.138.415-.245.84-.364,1.261-.088.312-.189.619-.266.935-.108.445-.187.9-.275,1.354-.058.3-.131.592-.18.892-.081.5-.128,1.016-.183,1.526-.028.256-.07.508-.091.765q-.091,1.153-.092,2.326c0,.78.032,1.555.092,2.325.021.258.064.512.091.769.053.509.1,1.019.183,1.522.049.3.122.594.18.892.088.453.166.907.275,1.354.077.316.179.623.266.936.119.421.226.845.364,1.26.106.318.236.627.353.939.147.4.286.8.454,1.2.133.315.291.619.436.929.178.382.346.767.541,1.141.163.311.349.61.523.917.205.361.4.726.624,1.081.19.3.405.6.608.892.212.314.413.634.639.94V64.69a32.781,32.781,0,0,1,0-46.518Z" fill="#0f1c33" stroke="#0f1c33" stroke-miterlimit="10" stroke-width="0.561"/><path d="M62.058,80.846" transform="translate(-2.566 -4.039)" fill="none" stroke="#141d33" stroke-linecap="round" stroke-linejoin="round" stroke-width="2.243"/><g transform="translate(46.026 51.078)"><circle cx="16.111" cy="16.111" r="16.111" fill="#fff" stroke="#0f1c33" stroke-miterlimit="10" stroke-width="2.243"/></g><g transform="translate(54.966 61.161)"><path d="M73.32,69.592" transform="translate(-58.472 -65.2)" fill="none" stroke="#141d33" stroke-linecap="round" stroke-linejoin="round" stroke-width="2.243"/><path d="M58.564,65.456,72.01,78.912" transform="translate(-58.472 -65.2)" fill="none" stroke="#0f1c33" stroke-linecap="round" stroke-linejoin="round" stroke-width="2.478"/><path d="M71.928,65.2,58.472,78.646" transform="translate(-58.472 -65.2)" fill="none" stroke="#151d33" stroke-linecap="round" stroke-linejoin="round" stroke-width="2.478"/></g></g></svg>