<svg xmlns="http://www.w3.org/2000/svg" width="101" height="101" viewBox="0 0 101 101">
    <defs>
        <filter id="5uxqqav8ha" width="101" height="101" x="0" y="0" filterUnits="userSpaceOnUse">
            <feOffset dy="8"/>
            <feGaussianBlur result="blur" stdDeviation="10"/>
            <feFlood flood-opacity=".161"/>
            <feComposite in2="blur" operator="in"/>
            <feComposite in="SourceGraphic"/>
        </filter>
    </defs>
    <g>
        <g filter="url(#5uxqqav8ha)" transform="translate(-519 -4826.1) translate(519 4826.1)">
            <circle cx="20.5" cy="20.5" r="20.5" fill="#fff" transform="translate(30 22)"/>
        </g>
        <g>
            <g>
                <g>
                    <path stroke="#000" stroke-width="0.4px" d="M119.2 116.217l-3-2.986a1.744 1.744 0 0 0-2.466 0l-1.717 1.717a.379.379 0 0 1-.485.043 19.789 19.789 0 0 1-4.623-4.537.373.373 0 0 1 .037-.485l1.76-1.76a1.743 1.743 0 0 0 0-2.463l-3-3a1.786 1.786 0 0 0-2.469 0l-.949.949a5.332 5.332 0 0 0-1.322 5.439 15.994 15.994 0 0 0 1.951 3.956 20.74 20.74 0 0 0 5.988 5.881 15.263 15.263 0 0 0 4.436 1.973 5.136 5.136 0 0 0 1.237.149 5.4 5.4 0 0 0 3.8-1.6l.816-.816a1.743 1.743 0 0 0 .006-2.46zm-.755 1.736l.005-.016-.816.816a4.266 4.266 0 0 1-4.026 1.152 14.173 14.173 0 0 1-4.116-1.845 19.713 19.713 0 0 1-5.673-5.561 14.928 14.928 0 0 1-1.824-3.69 4.265 4.265 0 0 1 1.066-4.356l.949-.949a.677.677 0 0 1 .958 0l3 3a.677.677 0 0 1 0 .958l-1.76 1.76a1.434 1.434 0 0 0-.149 1.866 21 21 0 0 0 4.879 4.788 1.445 1.445 0 0 0 1.845-.16l1.7-1.728a.677.677 0 0 1 .958 0l3 3.007a.677.677 0 0 1 .007.958z" transform="translate(-519 -4826.1) translate(556.102 4855.139) translate(3.899 3.959) translate(-100.712 -102.253)"/>
                </g>
            </g>
        </g>
    </g>
</svg>
