<svg xmlns="http://www.w3.org/2000/svg" width="77.422" height="78.191" viewBox="0 0 77.422 78.191">
    <defs>
        <style>
            .cls-2{fill:#58595b}.cls-3{fill:#282525}.cls-4{fill:#fff}
        </style>
    </defs>
    <g id="Group_7977" opacity="0.6" transform="translate(-342.258 -157.775)">
        <g id="Group_7966" transform="translate(405.387 172.241)">
            <path id="Path_16873" d="M411.7 177.237a6.551 6.551 0 1 1-6.551-6.551 6.552 6.552 0 0 1 6.551 6.551z" transform="translate(-398.6 -170.686)"/>
        </g>
        <g id="Group_7967" transform="translate(405.387 187.726)">
            <path id="Path_16874" d="M409.57 215.474h-7.647a3.323 3.323 0 0 1-3.323-3.323v-20.5a7.146 7.146 0 0 1 7.146-7.146 7.146 7.146 0 0 1 7.147 7.146v20.5a3.323 3.323 0 0 1-3.323 3.323z" transform="translate(-398.6 -184.506)"/>
        </g>
        <path id="Path_16875" d="M411.153 194.385v5.226H390.9a2.614 2.614 0 0 1-2.612-2.611 2.614 2.614 0 0 1 2.614-2.613z" transform="translate(5.545 4.41)"/>
        <path id="Path_16876" d="M345.414 194.385v5.226h20.252a2.613 2.613 0 0 0 2.613-2.611 2.613 2.613 0 0 0-2.613-2.613z" class="cls-2" transform="translate(.38 4.41)"/>
        <path id="Path_16877" d="M410.665 205.235h-21.44a1.787 1.787 0 0 0-1.787 1.787v19.922a3.306 3.306 0 0 0 3.305 3.305h1.032a3.3 3.3 0 0 0 3.305-3.305v-12.167a1.8 1.8 0 0 1 1.8-1.8h13.785z" transform="translate(5.442 5.717)"/>
        <g id="Group_7968" transform="translate(343.449 172.241)">
            <path id="Path_16878" d="M343.321 177.237a6.551 6.551 0 1 0 6.551-6.551 6.552 6.552 0 0 0-6.551 6.551z" class="cls-2" transform="translate(-343.321 -170.686)"/>
        </g>
        <g id="Group_7969" transform="translate(342.258 187.726)">
            <path id="Path_16879" d="M345.581 215.474h7.646a3.324 3.324 0 0 0 3.324-3.323v-20.5a7.146 7.146 0 0 0-7.147-7.146 7.146 7.146 0 0 0-7.146 7.146v20.5a3.323 3.323 0 0 0 3.323 3.323z" class="cls-2" transform="translate(-342.258 -184.506)"/>
        </g>
        <g id="Group_7970" transform="translate(345.831 210.952)">
            <path id="Path_16880" d="M345.447 205.235h21.44a1.787 1.787 0 0 1 1.787 1.787v19.922a3.306 3.306 0 0 1-3.305 3.305h-1.033a3.3 3.3 0 0 1-3.3-3.305v-12.167a1.8 1.8 0 0 0-1.8-1.8h-13.789z" class="cls-2" transform="translate(-345.447 -205.235)"/>
        </g>
        <path id="Path_16881" d="M397.978 201.549h-37.52a1.191 1.191 0 0 1-1.191-1.191 1.191 1.191 0 0 1 1.191-1.191h37.52a1.191 1.191 0 0 1 1.191 1.191 1.191 1.191 0 0 1-1.191 1.191z" class="cls-3" transform="translate(2.049 4.986)"/>
        <path id="Rectangle_5074" d="M0 0H2.382V31.031H0z" class="cls-3" transform="translate(380.374 204.935)"/>
        <path id="Path_16882" d="M368.385 157.775c-6.275 0-11.36 3.737-11.36 8.345 0 2.718 1.769 5.132 4.506 6.655a4.6 4.6 0 0 1-1.81 3.955.333.333 0 0 0 .171.62c1.766-.007 4.66-.452 6.067-3.077a15.283 15.283 0 0 0 2.425.193c6.273 0 11.359-3.737 11.359-8.346s-5.084-8.345-11.358-8.345z" transform="translate(1.779)"/>
        <g id="Group_7971" transform="translate(363.237 164.484)">
            <circle id="Ellipse_1415" cx="1.108" cy="1.108" r="1.108" class="cls-4"/>
        </g>
        <g id="Group_7972" transform="translate(368.778 164.484)">
            <circle id="Ellipse_1416" cx="1.108" cy="1.108" r="1.108" class="cls-4"/>
        </g>
        <g id="Group_7973" transform="translate(374.32 164.483)">
            <path id="Path_16883" d="M373.089 164.87a1.108 1.108 0 1 1-1.108-1.108 1.108 1.108 0 0 1 1.108 1.108z" class="cls-4" transform="translate(-370.873 -163.762)"/>
        </g>
        <path id="Path_16884" d="M386.781 164.356c5.509 0 9.974 3.282 9.974 7.329 0 2.385-1.553 4.505-3.956 5.843a4.038 4.038 0 0 0 1.589 3.472.293.293 0 0 1-.15.545c-1.551-.006-4.092-.4-5.328-2.7a13.461 13.461 0 0 1-2.129.169c-5.508 0-9.974-3.281-9.974-7.328s4.466-7.33 9.974-7.33z" class="cls-2" transform="translate(4.162 .793)"/>
        <g id="Group_7974" transform="translate(395.078 171.04)">
            <path id="Path_16885" d="M389.4 170.587a.973.973 0 1 0 .974-.973.974.974 0 0 0-.974.973z" class="cls-4" transform="translate(-389.4 -169.614)"/>
        </g>
        <g id="Group_7975" transform="translate(390.213 171.04)">
            <path id="Path_16886" d="M385.058 170.587a.973.973 0 1 0 .974-.973.974.974 0 0 0-.974.973z" class="cls-4" transform="translate(-385.058 -169.614)"/>
        </g>
        <g id="Group_7976" transform="translate(385.348 171.04)">
            <path id="Path_16887" d="M380.716 170.587a.973.973 0 1 0 .973-.973.973.973 0 0 0-.973.973z" class="cls-4" transform="translate(-380.716 -169.614)"/>
        </g>
    </g>
</svg>
