<svg xmlns="http://www.w3.org/2000/svg" width="75.311" height="75.286" viewBox="0 0 75.311 75.286">
    <defs>
        <style>
            .cls-3{fill:#58595b}.cls-4{fill:#fff}
        </style>
    </defs>
    <g id="Group_7999" opacity="0.6" transform="translate(-154.789 -2564.784)">
        <g id="Group_7985" transform="translate(172.729 2564.784)">
            <path id="Path_16891" fill="#5c6366" d="M179.347 40.081H122V26.847h6.617a6.624 6.624 0 0 0 6.238-4.411H122V.085h57.347z" transform="translate(-122 -.085)"/>
        </g>
        <g id="Pedagogy_1_" transform="translate(154.789 2569.489)">
            <g id="Group_7986">
                <path id="Path_16893" d="M6.617 45.319a6.617 6.617 0 1 1 6.617-6.619 6.624 6.624 0 0 1-6.617 6.619z" transform="translate(0 -32.085)"/>
            </g>
            <g id="Group_7987" transform="translate(17.939 39.936)">
                <ellipse id="Ellipse_1418" cx="6.5" cy="7" class="cls-3" rx="6.5" ry="7" transform="translate(4.271 -.425)"/>
                <ellipse id="Ellipse_1419" cx="6.5" cy="7" class="cls-3" rx="6.5" ry="7" transform="translate(22.271 -.425)"/>
                <ellipse id="Ellipse_1420" cx="6.5" cy="7" class="cls-3" rx="6.5" ry="7" transform="translate(40.271 -.425)"/>
                <path id="Path_16894" d="M168.319 392.085a10.985 10.985 0 0 0-8.823 4.479 10.929 10.929 0 0 0-17.645 0A10.995 10.995 0 0 0 122 403.113v6.617h57.347v-6.617a11.04 11.04 0 0 0-11.028-11.028z" class="cls-3" transform="translate(-122 -379.085)"/>
            </g>
            <g id="Group_7988" transform="translate(26.762 4.411)">
                <path id="Path_16895" d="M182 62.085h39.7v.827H182z" class="cls-4" transform="translate(-182 -62.085)"/>
            </g>
            <g id="Group_7989" transform="translate(39.996 9.927)">
                <path id="Path_16896" d="M272 122.085h26.468v.827H272z" class="cls-4" transform="translate(-272 -122.085)"/>
            </g>
            <g id="Group_7990" transform="translate(39.996 20.403)">
                <path id="Path_16897" d="M272 182.085h26.468v.827H272z" class="cls-4" transform="translate(-272 -182.085)"/>
            </g>
            <g id="Group_7993" transform="translate(39.996 15.3)">
                <path id="Path_16896-2" d="M272 122.085h26.468v.827H272z" class="cls-4" transform="translate(-272 -122.085)"/>
            </g>
            <g id="Group_7994" transform="translate(39.996 26.191)">
                <path id="Path_16897-2" d="M272 182.085h26.468v.827H272z" class="cls-4" transform="translate(-272 -182.085)"/>
            </g>
        </g>
        <g id="Group_7992" transform="translate(154.789 2582.724)">
            <path id="Path_16904" d="M13.234 179.431H0V128.7a6.624 6.624 0 0 1 6.617-6.617h28.968v2.206a11.04 11.04 0 0 1-11.028 11.028H13.234z" transform="translate(0 -122.084)"/>
        </g>
    </g>
</svg>
