<svg xmlns="http://www.w3.org/2000/svg" width="105.76" height="60.613" viewBox="0 0 105.76 60.613">
    <defs>
        <style>
            .cls-2{fill:#58595b}.cls-3{fill:none;stroke:#000;stroke-miterlimit:10}
        </style>
    </defs>
    <g id="Group_7978" opacity="0.6" transform="translate(-103.553 -2827.067)">
        <path id="Path_16861" d="M603.816 359.111l-16.245 24.954-23.539-4.465 4.872-27.354z" class="cls-2" transform="translate(-460.479 2474.816)"/>
        <path id="Rectangle_5067" d="M0 0H54.411V26.459H0z" transform="rotate(-13.533 12063.705 789.397)"/>
        <path id="Path_16862" d="M626.876 393.129l-20.827 12.389a5.471 5.471 0 0 1-6.665-.833l-18.162-18.163a5.47 5.47 0 0 1 0-7.736l14.295-18.963a5.471 5.471 0 0 1 7.736 0l24.7 24.737a5.47 5.47 0 0 1-1.077 8.569z" class="cls-2" transform="translate(-455.789 2476.612)"/>
        <path id="Rectangle_5068" d="M0 0h9.319v24.388a3.381 3.381 0 0 1-3.381 3.381H3.381A3.381 3.381 0 0 1 0 24.388V0z" class="cls-2" transform="rotate(-45 3530.688 1239.709)"/>
        <path id="Path_16888" d="M0 0h9.319v24.818a2.951 2.951 0 0 1-2.951 2.951H2.951A2.951 2.951 0 0 1 0 24.818z" class="cls-2" transform="rotate(-45 3528.448 1252.87)"/>
        <path id="Rectangle_5070" d="M0 0h9.319v24.389a3.38 3.38 0 0 1-3.38 3.38H3.381A3.381 3.381 0 0 1 0 24.388V0z" class="cls-2" transform="rotate(-45 3528.135 1265.646)"/>
        <path id="Rectangle_5071" d="M0 0h9.319v24.388a3.381 3.381 0 0 1-3.381 3.381H3.381A3.381 3.381 0 0 1 0 24.388V0z" class="cls-2" transform="rotate(-45 3527.303 1276.455)"/>
        <path id="Path_16863" d="M593.273 357.514h11.99l6.45 20.59z" class="cls-2" transform="translate(-451.682 2476.4)"/>
        <path id="Path_16864" d="M651.039 367.849l-28.516-10.207a2.108 2.108 0 0 0-.708-.122h-24.644a4.211 4.211 0 0 0-4.211 4.212v.895a4.211 4.211 0 0 0 4.211 4.212h24.739l-.02 1.011z" transform="translate(-451.776 2476.401)"/>
        <path id="Line_1074" d="M8.765 9.592L0 0" class="cls-3" transform="translate(163.009 2864.199)"/>
        <path id="Line_1075" d="M6.471 7.318L0 0" class="cls-3" transform="translate(156.807 2870.256)"/>
        <path id="Line_1076" d="M4.114 4.837L0 0" class="cls-3" transform="translate(150.915 2876.458)"/>
        <rect id="Rectangle_5072" width="12.635" height="29.854" fill="#fff" rx=".326" transform="rotate(10.878 -14792.184 2044.597)"/>
        <g id="Group_7964" transform="translate(119.005 2854.493)">
            <path id="Path_16865" d="M577.254 382.622c-1.59-1.612-1.8-3.983-.468-5.3l3.3-3.145c1.332-1.313 3.7-1.069 5.29.544 1.59 1.612 1.8 3.983.468 5.3l-3.3 3.145c-1.332 1.312-3.701 1.069-5.29-.544z" transform="translate(-575.91 -373.334)"/>
            <path id="Path_16866" d="M581.884 386.946c-1.59-1.613-1.8-3.984-.468-5.3l3.3-3.145c1.331-1.312 3.7-1.071 5.289.542 1.591 1.613 1.8 3.984.468 5.3l-3.3 3.145c-1.331 1.312-3.699 1.071-5.289-.542z" transform="translate(-574.517 -372.034)"/>
            <path id="Path_16867" d="M586.141 391.636c-1.59-1.613-1.8-3.984-.467-5.3l3.3-3.145c1.331-1.312 3.7-1.069 5.289.542 1.59 1.613 1.8 3.984.468 5.3l-3.3 3.147c-1.331 1.312-3.7 1.069-5.29-.544z" transform="translate(-573.236 -370.623)"/>
            <path id="Path_16868" d="M590.4 396.327c-1.59-1.613-1.8-3.984-.468-5.3l3.3-3.145c1.332-1.314 3.7-1.071 5.29.542 1.59 1.612 1.8 3.983.468 5.3l-3.3 3.145c-1.333 1.313-3.702 1.07-5.29-.542z" transform="translate(-571.956 -369.212)"/>
        </g>
        <path id="Path_16869" d="M582.66 359.04a1.654 1.654 0 1 1-1.655-1.653 1.655 1.655 0 0 1 1.655 1.653z" class="cls-2" transform="translate(-455.87 2476.361)"/>
    </g>
</svg>
