<?xml version="1.0" encoding="utf-8"?>
<!-- Generator: Adobe Illustrator 22.1.0, SVG Export Plug-In . SVG Version: 6.00 Build 0)  -->
<svg version="1.1" id="Layer_1" xmlns="http://www.w3.org/2000/svg" xmlns:xlink="http://www.w3.org/1999/xlink" x="0px" y="0px"
	 viewBox="0 0 129 129" style="enable-background:new 0 0 129 129;" xml:space="preserve">
<style type="text/css">
	.st0{fill:#FFFFFF;}
	.st1{fill:#4B4A4B;}
</style>
<g>
	<circle class="st0" cx="64.5" cy="64.5" r="62.5"/>
	<g>
		<g>
			<path class="st1" d="M108.4,96.1C108.4,96.1,108.4,96.1,108.4,96.1H31.5c-0.6,0-1.2-0.4-1.5-1c-0.2-0.6-0.1-1.3,0.3-1.7l18.6-19
				c0.3-0.3,0.7-0.5,1.2-0.5c0.4,0,0.9,0.2,1.2,0.6l7.2,8.4l17.4-19.7c0.3-0.3,0.7-0.5,1.2-0.5c0.5,0,0.9,0.2,1.2,0.5l9.8,10.5
				l21.3,19.6c0.4,0.3,0.7,0.8,0.7,1.3C110,95.4,109.3,96.1,108.4,96.1z M35.3,92.9h69l-18.5-17l-8.7-9.3L59.7,86.3
				c-0.3,0.3-0.7,0.5-1.2,0.5c0,0,0,0,0,0c-0.5,0-0.9-0.2-1.2-0.6L50,77.8L35.3,92.9z"/>
		</g>
		<g>
			<path class="st1" d="M20.6,96.7c-0.4,0-0.8-0.2-1.1-0.5c-0.6-0.6-0.6-1.6,0-2.3l30.2-30.8c0.3-0.3,0.7-0.5,1.2-0.5
				c0.4,0,0.9,0.2,1.1,0.5l6.2,6.8l31.3-30.2c0.6-0.6,1.6-0.6,2.3,0c0.6,0.6,0.6,1.6,0,2.3L59.2,73.5c-0.3,0.3-0.7,0.5-1.2,0.4
				c-0.4,0-0.8-0.2-1.1-0.5l-6.2-6.8L21.7,96.2C21.4,96.5,21,96.7,20.6,96.7z"/>
		</g>
		<g>
			<path class="st1" d="M90.6,48.2c-0.9,0-1.6-0.7-1.6-1.6v-4.1h-4.1c-0.9,0-1.6-0.7-1.6-1.6s0.7-1.6,1.6-1.6h5.7
				c0.9,0,1.6,0.7,1.6,1.6v5.7C92.2,47.5,91.5,48.2,90.6,48.2z"/>
		</g>
		<g>
			<path class="st1" d="M104.9,83c-0.4,0-0.8-0.2-1.1-0.5l-22-21.6c-0.6-0.6-0.6-1.6,0-2.3c0.6-0.6,1.6-0.6,2.3,0l22,21.6
				c0.6,0.6,0.6,1.6,0,2.3C105.7,82.8,105.3,83,104.9,83z"/>
		</g>
		<g>
			<path class="st1" d="M34.7,72.2c-0.4,0-0.8-0.2-1.1-0.5c-0.6-0.6-0.6-1.6,0-2.3l29.1-29.6c0.3-0.3,0.7-0.5,1.1-0.5
				c0.4,0,0.8,0.2,1.1,0.5l8.4,8.2c0.6,0.6,0.6,1.6,0,2.3c-0.6,0.6-1.6,0.6-2.3,0l-7.2-7.1l-28,28.5C35.5,72,35.1,72.2,34.7,72.2z"
				/>
		</g>
		<g>
			<path class="st1" d="M63.8,41.9c-0.9,0-1.6-0.7-1.6-1.6V18.6c0-0.9,0.7-1.6,1.6-1.6s1.6,0.7,1.6,1.6v21.7
				C65.4,41.1,64.7,41.9,63.8,41.9z"/>
		</g>
		<g>
			<path class="st1" d="M80.4,32.3C80.4,32.3,80.3,32.3,80.4,32.3H63.8c-0.9,0-1.6-0.7-1.6-1.6V17.9c0-0.9,0.7-1.6,1.6-1.6h16.5
				c0.6,0,1.1,0.3,1.4,0.9c0.3,0.5,0.2,1.2-0.1,1.6l-3.8,5.5l3.6,5.3c0.3,0.3,0.4,0.7,0.4,1.1C82,31.6,81.2,32.3,80.4,32.3z
				 M65.4,29.1h11.9l-2.7-3.9c-0.4-0.5-0.4-1.3,0-1.8l2.7-3.9H65.4V29.1z"/>
		</g>
	</g>
</g>
</svg>
