<?xml version="1.0" encoding="utf-8"?>
<!-- Generator: Adobe Illustrator 22.1.0, SVG Export Plug-In . SVG Version: 6.00 Build 0)  -->
<svg version="1.1" id="Layer_1" xmlns="http://www.w3.org/2000/svg" xmlns:xlink="http://www.w3.org/1999/xlink" x="0px" y="0px"
	 viewBox="0 0 129 129" style="enable-background:new 0 0 129 129;" xml:space="preserve">
<style type="text/css">
	.st0{fill:#FFFFFF;}
	.st1{fill:#4B4A4B;}
</style>
<g>
	<circle class="st0" cx="64.5" cy="64.5" r="62.5"/>
	<g>
		<g>
			<path class="st1" d="M65.6,90.2c-24.6,0-42.7-19.6-46.1-23.5c-0.5-0.6-0.5-1.4,0-2c3.3-4.1,21.1-24.6,45.9-24.6
				c15.7,0,30.9,8.2,45.2,24.5c0.5,0.6,0.5,1.5,0,2.1C96.5,82.3,81.3,90.2,65.6,90.2z M22.9,65.6C27.7,70.9,44.1,87,65.6,87
				c14.4,0,28.4-7.2,41.7-21.5C94,50.8,79.9,43.2,65.4,43.2C43.7,43.2,27.6,60.1,22.9,65.6z"/>
		</g>
		<g>
			<path class="st1" d="M65.1,80.1c-8.2,0-15-6.7-15-15c0-8.2,6.7-14.9,15-14.9s15,6.7,15,14.9c0,0.9-0.7,1.6-1.6,1.6
				c-0.9,0-1.6-0.7-1.6-1.6c0-6.5-5.3-11.8-11.8-11.8s-11.8,5.3-11.8,11.8c0,6.5,5.3,11.8,11.8,11.8c0.9,0,1.6,0.7,1.6,1.6
				C66.7,79.4,66,80.1,65.1,80.1z"/>
		</g>
		<g>
			<path class="st1" d="M65.1,89.5c-13.5,0-24.4-11-24.4-24.4c0-13.5,10.9-24.4,24.4-24.4s24.4,10.9,24.4,24.4
				C89.5,78.6,78.6,89.5,65.1,89.5z M65.1,43.9c-11.7,0-21.2,9.5-21.2,21.2c0,11.7,9.5,21.2,21.2,21.2s21.2-9.5,21.2-21.2
				C86.4,53.4,76.8,43.9,65.1,43.9z"/>
		</g>
		<g>
			<path class="st1" d="M65.1,79.5c-0.9,0-1.6-0.7-1.6-1.6V65.8c0-0.9,0.7-1.6,1.6-1.6h13.4c0.9,0,1.6,0.7,1.6,1.6
				c0,0.9-0.7,1.6-1.6,1.6H66.7v10.5C66.7,78.8,66,79.5,65.1,79.5z"/>
		</g>
	</g>
	<g>
		<path class="st1" d="M121.9,66.7c-0.9,0-1.6-0.7-1.6-1.6c0-30.4-24.7-55.2-55.2-55.2c-0.9,0-1.6-0.7-1.6-1.6s0.7-1.6,1.6-1.6
			c32.2,0,58.4,26.2,58.4,58.4C123.5,66,122.8,66.7,121.9,66.7z"/>
	</g>
	<g>
		<path class="st1" d="M65.1,123.5C33,123.5,6.8,97.3,6.8,65.1c0-0.9,0.7-1.6,1.6-1.6s1.6,0.7,1.6,1.6c0,30.4,24.7,55.2,55.2,55.2
			c0.9,0,1.6,0.7,1.6,1.6C66.7,122.8,66,123.5,65.1,123.5z"/>
	</g>
</g>
</svg>
