<svg xmlns="http://www.w3.org/2000/svg" width="22.16" height="35.847" viewBox="0 0 22.16 35.847">
    <defs>
        <style>
            .prefix__cls-1{fill:#c8c9c9}
        </style>
    </defs>
    <g id="prefix__Group_7527" data-name="Group 7527" transform="translate(-97.903 -1138.049)">
        <g id="prefix__Group_7520" data-name="Group 7520" transform="translate(12608.903 15762)">
            <g id="prefix__Group_7499" data-name="Group 7499" transform="translate(-12511 -14623)">
                <g id="prefix__Group_7496" data-name="Group 7496">
                    <g id="prefix__Group_7302" data-name="Group 7302" transform="translate(0 22.309)">
                        <path id="prefix__Rectangle_4688" d="M0 0H22.063V6.862H0z" class="prefix__cls-1" data-name="Rectangle 4688"/>
                        <path id="prefix__Polygon_8" d="M11.031 0l11.032 5.735H0z" class="prefix__cls-1" data-name="Polygon 8" transform="rotate(180 11.031 6.294)"/>
                    </g>
                    <path id="prefix__Line_907" d="M0 0L22.063 0" data-name="Line 907" transform="translate(.049 .049)" style="fill:none;stroke:#c8c9c9;stroke-width:2px;opacity:.4"/>
                    <path id="prefix__Rectangle_4687" d="M0 0H22.063V22.309H0z" data-name="Rectangle 4687" transform="translate(.097)" style="opacity:.12;fill:#c8c9c9"/>
                    <path id="prefix__Path_14432" d="M4.524-9.23a4.245 4.245 0 0 1 1.5.247 4.231 4.231 0 0 1 1.242.741L6.253-7.033A3.327 3.327 0 0 0 5.46-7.5a2.219 2.219 0 0 0-.832-.156 1.654 1.654 0 0 0-1.437.767 4.232 4.232 0 0 0-.526 2.366 4.14 4.14 0 0 0 .526 2.333 1.681 1.681 0 0 0 1.463.761 2.091 2.091 0 0 0 .9-.189 5.04 5.04 0 0 0 .871-.539l.946 1.221A4.093 4.093 0 0 1 6.142-.1 3.833 3.833 0 0 1 4.55.221a4.185 4.185 0 0 1-2.171-.546A3.65 3.65 0 0 1 .942-1.943a5.932 5.932 0 0 1-.514-2.58 5.668 5.668 0 0 1 .528-2.536 3.763 3.763 0 0 1 1.455-1.618 4.055 4.055 0 0 1 2.113-.553z" class="prefix__cls-1" data-name="Path 14432" transform="translate(6.667 15.23)"/>
                </g>
            </g>
        </g>
    </g>
</svg>
