<svg xmlns="http://www.w3.org/2000/svg" width="39.705" height="125.211" viewBox="0 0 39.705 125.211"><defs><style>.a{fill:#f58220;}</style></defs><g transform="translate(-311.753 -1909.247)"><g transform="translate(472.346 1317.792) rotate(90)"><path class="a" d="M591.846,132.549c.171.011.326.044.5.044,4,0,5.987-2.745,7.745-5.166,1.635-2.253,3.045-4.2,5.845-4.2s4.207,1.945,5.839,4.2c1.757,2.422,3.747,5.167,7.741,5.167s5.982-2.746,7.736-5.167c1.632-2.253,3.04-4.2,5.833-4.2s4.2,1.945,5.837,4.2c1.756,2.422,3.746,5.167,7.74,5.167v-2.341c-2.8,0-4.205-1.946-5.837-4.2-1.757-2.422-3.747-5.166-7.74-5.166s-5.982,2.745-7.736,5.166c-1.633,2.253-3.041,4.2-5.833,4.2s-4.205-1.945-5.838-4.2c-1.756-2.423-3.746-5.168-7.742-5.168s-5.989,2.744-7.748,5.166c-1.634,2.252-3.044,4.2-5.842,4.2a5.31,5.31,0,0,1-.895-.08C591.6,130.959,591.723,131.754,591.846,132.549Z"/></g><g transform="translate(444.346 1317.792) rotate(90)"><path class="a" d="M591.846,132.549c.171.011.326.044.5.044,4,0,5.987-2.745,7.745-5.166,1.635-2.253,3.045-4.2,5.845-4.2s4.207,1.945,5.839,4.2c1.757,2.422,3.747,5.167,7.741,5.167s5.982-2.746,7.736-5.167c1.632-2.253,3.04-4.2,5.833-4.2s4.2,1.945,5.837,4.2c1.756,2.422,3.746,5.167,7.74,5.167v-2.341c-2.8,0-4.205-1.946-5.837-4.2-1.757-2.422-3.747-5.166-7.74-5.166s-5.982,2.745-7.736,5.166c-1.633,2.253-3.041,4.2-5.833,4.2s-4.205-1.945-5.838-4.2c-1.756-2.423-3.746-5.168-7.742-5.168s-5.989,2.744-7.748,5.166c-1.634,2.252-3.044,4.2-5.842,4.2a5.31,5.31,0,0,1-.895-.08C591.6,130.959,591.723,131.754,591.846,132.549Z"/></g><g transform="translate(472.346 1387.792) rotate(90)"><path class="a" d="M591.846,132.549c.171.011.326.044.5.044,4,0,5.987-2.745,7.745-5.166,1.635-2.253,3.045-4.2,5.845-4.2s4.207,1.945,5.839,4.2c1.757,2.422,3.747,5.167,7.741,5.167s5.982-2.746,7.736-5.167c1.632-2.253,3.04-4.2,5.833-4.2s4.2,1.945,5.837,4.2c1.756,2.422,3.746,5.167,7.74,5.167v-2.341c-2.8,0-4.205-1.946-5.837-4.2-1.757-2.422-3.747-5.166-7.74-5.166s-5.982,2.745-7.736,5.166c-1.633,2.253-3.041,4.2-5.833,4.2s-4.205-1.945-5.838-4.2c-1.756-2.423-3.746-5.168-7.742-5.168s-5.989,2.744-7.748,5.166c-1.634,2.252-3.044,4.2-5.842,4.2a5.31,5.31,0,0,1-.895-.08C591.6,130.959,591.723,131.754,591.846,132.549Z"/></g><g transform="translate(444.346 1387.792) rotate(90)"><path class="a" d="M591.846,132.549c.171.011.326.044.5.044,4,0,5.987-2.745,7.745-5.166,1.635-2.253,3.045-4.2,5.845-4.2s4.207,1.945,5.839,4.2c1.757,2.422,3.747,5.167,7.741,5.167s5.982-2.746,7.736-5.167c1.632-2.253,3.04-4.2,5.833-4.2s4.2,1.945,5.837,4.2c1.756,2.422,3.746,5.167,7.74,5.167v-2.341c-2.8,0-4.205-1.946-5.837-4.2-1.757-2.422-3.747-5.166-7.74-5.166s-5.982,2.745-7.736,5.166c-1.633,2.253-3.041,4.2-5.833,4.2s-4.205-1.945-5.838-4.2c-1.756-2.423-3.746-5.168-7.742-5.168s-5.989,2.744-7.748,5.166c-1.634,2.252-3.044,4.2-5.842,4.2a5.31,5.31,0,0,1-.895-.08C591.6,130.959,591.723,131.754,591.846,132.549Z"/></g></g></svg>