<svg xmlns="http://www.w3.org/2000/svg" xmlns:xlink="http://www.w3.org/1999/xlink" width="407.441" height="148.842" viewBox="0 0 407.441 148.842"><defs><style>.a{fill:none;}.b{opacity:0.2;clip-path:url(#a);}.c{fill:#707070;fill-rule:evenodd;}.d{fill:#f58220;}</style><clipPath id="a"><rect class="a" width="247.758" height="142.378"/></clipPath></defs><g transform="translate(48 -875.158)"><g class="b" transform="translate(111.683 875.158)"><path class="c" d="M624.512,255.681a4.378,4.378,0,1,0-4.38-4.378A4.387,4.387,0,0,0,624.512,255.681Z" transform="translate(-620.132 -246.924)"/><path class="c" d="M624.512,299.53a4.378,4.378,0,1,0-4.38-4.378A4.387,4.387,0,0,0,624.512,299.53Z" transform="translate(-620.132 -227.306)"/><path class="c" d="M624.512,284.912a4.378,4.378,0,1,0-4.38-4.378A4.386,4.386,0,0,0,624.512,284.912Z" transform="translate(-620.132 -233.845)"/><path class="c" d="M624.512,270.3a4.378,4.378,0,1,0-4.38-4.378A4.387,4.387,0,0,0,624.512,270.3Z" transform="translate(-620.132 -240.385)"/><path class="c" d="M624.512,314.145a4.378,4.378,0,1,0-4.38-4.378A4.387,4.387,0,0,0,624.512,314.145Z" transform="translate(-620.132 -220.767)"/><g transform="translate(23)"><path class="c" d="M624.512,255.681a4.378,4.378,0,1,0-4.38-4.378A4.387,4.387,0,0,0,624.512,255.681Z" transform="translate(-620.132 -246.924)"/><path class="c" d="M624.512,299.53a4.378,4.378,0,1,0-4.38-4.378A4.387,4.387,0,0,0,624.512,299.53Z" transform="translate(-620.132 -227.306)"/><path class="c" d="M624.512,284.912a4.378,4.378,0,1,0-4.38-4.378A4.386,4.386,0,0,0,624.512,284.912Z" transform="translate(-620.132 -233.845)"/><path class="c" d="M624.512,270.3a4.378,4.378,0,1,0-4.38-4.378A4.387,4.387,0,0,0,624.512,270.3Z" transform="translate(-620.132 -240.385)"/><path class="c" d="M624.512,314.145a4.378,4.378,0,1,0-4.38-4.378A4.387,4.387,0,0,0,624.512,314.145Z" transform="translate(-620.132 -220.767)"/></g><g transform="translate(46)"><path class="c" d="M624.512,255.681a4.378,4.378,0,1,0-4.38-4.378A4.387,4.387,0,0,0,624.512,255.681Z" transform="translate(-620.132 -246.924)"/><path class="c" d="M624.512,299.53a4.378,4.378,0,1,0-4.38-4.378A4.387,4.387,0,0,0,624.512,299.53Z" transform="translate(-620.132 -227.306)"/><path class="c" d="M624.512,284.912a4.378,4.378,0,1,0-4.38-4.378A4.386,4.386,0,0,0,624.512,284.912Z" transform="translate(-620.132 -233.845)"/><path class="c" d="M624.512,270.3a4.378,4.378,0,1,0-4.38-4.378A4.387,4.387,0,0,0,624.512,270.3Z" transform="translate(-620.132 -240.385)"/><path class="c" d="M624.512,314.145a4.378,4.378,0,1,0-4.38-4.378A4.387,4.387,0,0,0,624.512,314.145Z" transform="translate(-620.132 -220.767)"/></g><g transform="translate(69)"><path class="c" d="M624.512,255.681a4.378,4.378,0,1,0-4.38-4.378A4.387,4.387,0,0,0,624.512,255.681Z" transform="translate(-620.132 -246.924)"/><path class="c" d="M624.512,299.53a4.378,4.378,0,1,0-4.38-4.378A4.387,4.387,0,0,0,624.512,299.53Z" transform="translate(-620.132 -227.306)"/><path class="c" d="M624.512,284.912a4.378,4.378,0,1,0-4.38-4.378A4.386,4.386,0,0,0,624.512,284.912Z" transform="translate(-620.132 -233.845)"/><path class="c" d="M624.512,270.3a4.378,4.378,0,1,0-4.38-4.378A4.387,4.387,0,0,0,624.512,270.3Z" transform="translate(-620.132 -240.385)"/><path class="c" d="M624.512,314.145a4.378,4.378,0,1,0-4.38-4.378A4.387,4.387,0,0,0,624.512,314.145Z" transform="translate(-620.132 -220.767)"/></g><g transform="translate(92)"><path class="c" d="M624.512,255.681a4.378,4.378,0,1,0-4.38-4.378A4.387,4.387,0,0,0,624.512,255.681Z" transform="translate(-620.132 -246.924)"/><path class="c" d="M624.512,299.53a4.378,4.378,0,1,0-4.38-4.378A4.387,4.387,0,0,0,624.512,299.53Z" transform="translate(-620.132 -227.306)"/><path class="c" d="M624.512,284.912a4.378,4.378,0,1,0-4.38-4.378A4.386,4.386,0,0,0,624.512,284.912Z" transform="translate(-620.132 -233.845)"/><path class="c" d="M624.512,270.3a4.378,4.378,0,1,0-4.38-4.378A4.387,4.387,0,0,0,624.512,270.3Z" transform="translate(-620.132 -240.385)"/><path class="c" d="M624.512,314.145a4.378,4.378,0,1,0-4.38-4.378A4.387,4.387,0,0,0,624.512,314.145Z" transform="translate(-620.132 -220.767)"/></g><g transform="translate(115)"><path class="c" d="M624.512,255.681a4.378,4.378,0,1,0-4.38-4.378A4.387,4.387,0,0,0,624.512,255.681Z" transform="translate(-620.132 -246.924)"/><path class="c" d="M624.512,299.53a4.378,4.378,0,1,0-4.38-4.378A4.387,4.387,0,0,0,624.512,299.53Z" transform="translate(-620.132 -227.306)"/><path class="c" d="M624.512,284.912a4.378,4.378,0,1,0-4.38-4.378A4.386,4.386,0,0,0,624.512,284.912Z" transform="translate(-620.132 -233.845)"/><path class="c" d="M624.512,270.3a4.378,4.378,0,1,0-4.38-4.378A4.387,4.387,0,0,0,624.512,270.3Z" transform="translate(-620.132 -240.385)"/><path class="c" d="M624.512,314.145a4.378,4.378,0,1,0-4.38-4.378A4.387,4.387,0,0,0,624.512,314.145Z" transform="translate(-620.132 -220.767)"/></g><g transform="translate(138)"><path class="c" d="M624.512,255.681a4.378,4.378,0,1,0-4.38-4.378A4.387,4.387,0,0,0,624.512,255.681Z" transform="translate(-620.132 -246.924)"/><path class="c" d="M624.512,299.53a4.378,4.378,0,1,0-4.38-4.378A4.387,4.387,0,0,0,624.512,299.53Z" transform="translate(-620.132 -227.306)"/><path class="c" d="M624.512,284.912a4.378,4.378,0,1,0-4.38-4.378A4.386,4.386,0,0,0,624.512,284.912Z" transform="translate(-620.132 -233.845)"/><path class="c" d="M624.512,270.3a4.378,4.378,0,1,0-4.38-4.378A4.387,4.387,0,0,0,624.512,270.3Z" transform="translate(-620.132 -240.385)"/><path class="c" d="M624.512,314.145a4.378,4.378,0,1,0-4.38-4.378A4.387,4.387,0,0,0,624.512,314.145Z" transform="translate(-620.132 -220.767)"/></g><g transform="translate(161)"><path class="c" d="M624.512,255.681a4.378,4.378,0,1,0-4.38-4.378A4.387,4.387,0,0,0,624.512,255.681Z" transform="translate(-620.132 -246.924)"/><path class="c" d="M624.512,299.53a4.378,4.378,0,1,0-4.38-4.378A4.387,4.387,0,0,0,624.512,299.53Z" transform="translate(-620.132 -227.306)"/><path class="c" d="M624.512,284.912a4.378,4.378,0,1,0-4.38-4.378A4.386,4.386,0,0,0,624.512,284.912Z" transform="translate(-620.132 -233.845)"/><path class="c" d="M624.512,270.3a4.378,4.378,0,1,0-4.38-4.378A4.387,4.387,0,0,0,624.512,270.3Z" transform="translate(-620.132 -240.385)"/><path class="c" d="M624.512,314.145a4.378,4.378,0,1,0-4.38-4.378A4.387,4.387,0,0,0,624.512,314.145Z" transform="translate(-620.132 -220.767)"/></g><g transform="translate(184)"><path class="c" d="M624.512,255.681a4.378,4.378,0,1,0-4.38-4.378A4.387,4.387,0,0,0,624.512,255.681Z" transform="translate(-620.132 -246.924)"/><path class="c" d="M624.512,299.53a4.378,4.378,0,1,0-4.38-4.378A4.387,4.387,0,0,0,624.512,299.53Z" transform="translate(-620.132 -227.306)"/><path class="c" d="M624.512,284.912a4.378,4.378,0,1,0-4.38-4.378A4.386,4.386,0,0,0,624.512,284.912Z" transform="translate(-620.132 -233.845)"/><path class="c" d="M624.512,270.3a4.378,4.378,0,1,0-4.38-4.378A4.387,4.387,0,0,0,624.512,270.3Z" transform="translate(-620.132 -240.385)"/><path class="c" d="M624.512,314.145a4.378,4.378,0,1,0-4.38-4.378A4.387,4.387,0,0,0,624.512,314.145Z" transform="translate(-620.132 -220.767)"/></g><g transform="translate(207)"><path class="c" d="M624.512,255.681a4.378,4.378,0,1,0-4.38-4.378A4.387,4.387,0,0,0,624.512,255.681Z" transform="translate(-620.132 -246.924)"/><path class="c" d="M624.512,299.53a4.378,4.378,0,1,0-4.38-4.378A4.387,4.387,0,0,0,624.512,299.53Z" transform="translate(-620.132 -227.306)"/><path class="c" d="M624.512,284.912a4.378,4.378,0,1,0-4.38-4.378A4.386,4.386,0,0,0,624.512,284.912Z" transform="translate(-620.132 -233.845)"/><path class="c" d="M624.512,270.3a4.378,4.378,0,1,0-4.38-4.378A4.387,4.387,0,0,0,624.512,270.3Z" transform="translate(-620.132 -240.385)"/><path class="c" d="M624.512,314.145a4.378,4.378,0,1,0-4.38-4.378A4.387,4.387,0,0,0,624.512,314.145Z" transform="translate(-620.132 -220.767)"/></g><g transform="translate(230)"><path class="c" d="M624.512,255.681a4.378,4.378,0,1,0-4.38-4.378A4.387,4.387,0,0,0,624.512,255.681Z" transform="translate(-620.132 -246.924)"/><path class="c" d="M624.512,299.53a4.378,4.378,0,1,0-4.38-4.378A4.387,4.387,0,0,0,624.512,299.53Z" transform="translate(-620.132 -227.306)"/><path class="c" d="M624.512,284.912a4.378,4.378,0,1,0-4.38-4.378A4.386,4.386,0,0,0,624.512,284.912Z" transform="translate(-620.132 -233.845)"/><path class="c" d="M624.512,270.3a4.378,4.378,0,1,0-4.38-4.378A4.387,4.387,0,0,0,624.512,270.3Z" transform="translate(-620.132 -240.385)"/><path class="c" d="M624.512,314.145a4.378,4.378,0,1,0-4.38-4.378A4.387,4.387,0,0,0,624.512,314.145Z" transform="translate(-620.132 -220.767)"/></g><g transform="translate(0 108)"><path class="c" d="M624.512,255.681a4.378,4.378,0,1,0-4.38-4.378A4.387,4.387,0,0,0,624.512,255.681Z" transform="translate(-620.132 -246.924)"/><path class="c" d="M624.512,299.53a4.378,4.378,0,1,0-4.38-4.378A4.387,4.387,0,0,0,624.512,299.53Z" transform="translate(-620.132 -227.306)"/><path class="c" d="M624.512,284.912a4.378,4.378,0,1,0-4.38-4.378A4.386,4.386,0,0,0,624.512,284.912Z" transform="translate(-620.132 -233.845)"/><path class="c" d="M624.512,270.3a4.378,4.378,0,1,0-4.38-4.378A4.387,4.387,0,0,0,624.512,270.3Z" transform="translate(-620.132 -240.385)"/><path class="c" d="M624.512,314.145a4.378,4.378,0,1,0-4.38-4.378A4.387,4.387,0,0,0,624.512,314.145Z" transform="translate(-620.132 -220.767)"/></g><g transform="translate(23 108)"><path class="c" d="M624.512,255.681a4.378,4.378,0,1,0-4.38-4.378A4.387,4.387,0,0,0,624.512,255.681Z" transform="translate(-620.132 -246.924)"/><path class="c" d="M624.512,299.53a4.378,4.378,0,1,0-4.38-4.378A4.387,4.387,0,0,0,624.512,299.53Z" transform="translate(-620.132 -227.306)"/><path class="c" d="M624.512,284.912a4.378,4.378,0,1,0-4.38-4.378A4.386,4.386,0,0,0,624.512,284.912Z" transform="translate(-620.132 -233.845)"/><path class="c" d="M624.512,270.3a4.378,4.378,0,1,0-4.38-4.378A4.387,4.387,0,0,0,624.512,270.3Z" transform="translate(-620.132 -240.385)"/><path class="c" d="M624.512,314.145a4.378,4.378,0,1,0-4.38-4.378A4.387,4.387,0,0,0,624.512,314.145Z" transform="translate(-620.132 -220.767)"/></g><g transform="translate(46 108)"><path class="c" d="M624.512,255.681a4.378,4.378,0,1,0-4.38-4.378A4.387,4.387,0,0,0,624.512,255.681Z" transform="translate(-620.132 -246.924)"/><path class="c" d="M624.512,299.53a4.378,4.378,0,1,0-4.38-4.378A4.387,4.387,0,0,0,624.512,299.53Z" transform="translate(-620.132 -227.306)"/><path class="c" d="M624.512,284.912a4.378,4.378,0,1,0-4.38-4.378A4.386,4.386,0,0,0,624.512,284.912Z" transform="translate(-620.132 -233.845)"/><path class="c" d="M624.512,270.3a4.378,4.378,0,1,0-4.38-4.378A4.387,4.387,0,0,0,624.512,270.3Z" transform="translate(-620.132 -240.385)"/><path class="c" d="M624.512,314.145a4.378,4.378,0,1,0-4.38-4.378A4.387,4.387,0,0,0,624.512,314.145Z" transform="translate(-620.132 -220.767)"/></g><g transform="translate(69 108)"><path class="c" d="M624.512,255.681a4.378,4.378,0,1,0-4.38-4.378A4.387,4.387,0,0,0,624.512,255.681Z" transform="translate(-620.132 -246.924)"/><path class="c" d="M624.512,299.53a4.378,4.378,0,1,0-4.38-4.378A4.387,4.387,0,0,0,624.512,299.53Z" transform="translate(-620.132 -227.306)"/><path class="c" d="M624.512,284.912a4.378,4.378,0,1,0-4.38-4.378A4.386,4.386,0,0,0,624.512,284.912Z" transform="translate(-620.132 -233.845)"/><path class="c" d="M624.512,270.3a4.378,4.378,0,1,0-4.38-4.378A4.387,4.387,0,0,0,624.512,270.3Z" transform="translate(-620.132 -240.385)"/><path class="c" d="M624.512,314.145a4.378,4.378,0,1,0-4.38-4.378A4.387,4.387,0,0,0,624.512,314.145Z" transform="translate(-620.132 -220.767)"/></g><g transform="translate(92 108)"><path class="c" d="M624.512,255.681a4.378,4.378,0,1,0-4.38-4.378A4.387,4.387,0,0,0,624.512,255.681Z" transform="translate(-620.132 -246.924)"/><path class="c" d="M624.512,299.53a4.378,4.378,0,1,0-4.38-4.378A4.387,4.387,0,0,0,624.512,299.53Z" transform="translate(-620.132 -227.306)"/><path class="c" d="M624.512,284.912a4.378,4.378,0,1,0-4.38-4.378A4.386,4.386,0,0,0,624.512,284.912Z" transform="translate(-620.132 -233.845)"/><path class="c" d="M624.512,270.3a4.378,4.378,0,1,0-4.38-4.378A4.387,4.387,0,0,0,624.512,270.3Z" transform="translate(-620.132 -240.385)"/><path class="c" d="M624.512,314.145a4.378,4.378,0,1,0-4.38-4.378A4.387,4.387,0,0,0,624.512,314.145Z" transform="translate(-620.132 -220.767)"/></g><g transform="translate(115 108)"><path class="c" d="M624.512,255.681a4.378,4.378,0,1,0-4.38-4.378A4.387,4.387,0,0,0,624.512,255.681Z" transform="translate(-620.132 -246.924)"/><path class="c" d="M624.512,299.53a4.378,4.378,0,1,0-4.38-4.378A4.387,4.387,0,0,0,624.512,299.53Z" transform="translate(-620.132 -227.306)"/><path class="c" d="M624.512,284.912a4.378,4.378,0,1,0-4.38-4.378A4.386,4.386,0,0,0,624.512,284.912Z" transform="translate(-620.132 -233.845)"/><path class="c" d="M624.512,270.3a4.378,4.378,0,1,0-4.38-4.378A4.387,4.387,0,0,0,624.512,270.3Z" transform="translate(-620.132 -240.385)"/><path class="c" d="M624.512,314.145a4.378,4.378,0,1,0-4.38-4.378A4.387,4.387,0,0,0,624.512,314.145Z" transform="translate(-620.132 -220.767)"/></g><g transform="translate(138 108)"><path class="c" d="M624.512,255.681a4.378,4.378,0,1,0-4.38-4.378A4.387,4.387,0,0,0,624.512,255.681Z" transform="translate(-620.132 -246.924)"/><path class="c" d="M624.512,299.53a4.378,4.378,0,1,0-4.38-4.378A4.387,4.387,0,0,0,624.512,299.53Z" transform="translate(-620.132 -227.306)"/><path class="c" d="M624.512,284.912a4.378,4.378,0,1,0-4.38-4.378A4.386,4.386,0,0,0,624.512,284.912Z" transform="translate(-620.132 -233.845)"/><path class="c" d="M624.512,270.3a4.378,4.378,0,1,0-4.38-4.378A4.387,4.387,0,0,0,624.512,270.3Z" transform="translate(-620.132 -240.385)"/><path class="c" d="M624.512,314.145a4.378,4.378,0,1,0-4.38-4.378A4.387,4.387,0,0,0,624.512,314.145Z" transform="translate(-620.132 -220.767)"/></g><g transform="translate(161 108)"><path class="c" d="M624.512,255.681a4.378,4.378,0,1,0-4.38-4.378A4.387,4.387,0,0,0,624.512,255.681Z" transform="translate(-620.132 -246.924)"/><path class="c" d="M624.512,299.53a4.378,4.378,0,1,0-4.38-4.378A4.387,4.387,0,0,0,624.512,299.53Z" transform="translate(-620.132 -227.306)"/><path class="c" d="M624.512,284.912a4.378,4.378,0,1,0-4.38-4.378A4.386,4.386,0,0,0,624.512,284.912Z" transform="translate(-620.132 -233.845)"/><path class="c" d="M624.512,270.3a4.378,4.378,0,1,0-4.38-4.378A4.387,4.387,0,0,0,624.512,270.3Z" transform="translate(-620.132 -240.385)"/><path class="c" d="M624.512,314.145a4.378,4.378,0,1,0-4.38-4.378A4.387,4.387,0,0,0,624.512,314.145Z" transform="translate(-620.132 -220.767)"/></g><g transform="translate(184 108)"><path class="c" d="M624.512,255.681a4.378,4.378,0,1,0-4.38-4.378A4.387,4.387,0,0,0,624.512,255.681Z" transform="translate(-620.132 -246.924)"/><path class="c" d="M624.512,299.53a4.378,4.378,0,1,0-4.38-4.378A4.387,4.387,0,0,0,624.512,299.53Z" transform="translate(-620.132 -227.306)"/><path class="c" d="M624.512,284.912a4.378,4.378,0,1,0-4.38-4.378A4.386,4.386,0,0,0,624.512,284.912Z" transform="translate(-620.132 -233.845)"/><path class="c" d="M624.512,270.3a4.378,4.378,0,1,0-4.38-4.378A4.387,4.387,0,0,0,624.512,270.3Z" transform="translate(-620.132 -240.385)"/><path class="c" d="M624.512,314.145a4.378,4.378,0,1,0-4.38-4.378A4.387,4.387,0,0,0,624.512,314.145Z" transform="translate(-620.132 -220.767)"/></g><g transform="translate(207 108)"><path class="c" d="M624.512,255.681a4.378,4.378,0,1,0-4.38-4.378A4.387,4.387,0,0,0,624.512,255.681Z" transform="translate(-620.132 -246.924)"/><path class="c" d="M624.512,299.53a4.378,4.378,0,1,0-4.38-4.378A4.387,4.387,0,0,0,624.512,299.53Z" transform="translate(-620.132 -227.306)"/><path class="c" d="M624.512,284.912a4.378,4.378,0,1,0-4.38-4.378A4.386,4.386,0,0,0,624.512,284.912Z" transform="translate(-620.132 -233.845)"/><path class="c" d="M624.512,270.3a4.378,4.378,0,1,0-4.38-4.378A4.387,4.387,0,0,0,624.512,270.3Z" transform="translate(-620.132 -240.385)"/><path class="c" d="M624.512,314.145a4.378,4.378,0,1,0-4.38-4.378A4.387,4.387,0,0,0,624.512,314.145Z" transform="translate(-620.132 -220.767)"/></g><g transform="translate(230 108)"><path class="c" d="M624.512,255.681a4.378,4.378,0,1,0-4.38-4.378A4.387,4.387,0,0,0,624.512,255.681Z" transform="translate(-620.132 -246.924)"/><path class="c" d="M624.512,299.53a4.378,4.378,0,1,0-4.38-4.378A4.387,4.387,0,0,0,624.512,299.53Z" transform="translate(-620.132 -227.306)"/><path class="c" d="M624.512,284.912a4.378,4.378,0,1,0-4.38-4.378A4.386,4.386,0,0,0,624.512,284.912Z" transform="translate(-620.132 -233.845)"/><path class="c" d="M624.512,270.3a4.378,4.378,0,1,0-4.38-4.378A4.387,4.387,0,0,0,624.512,270.3Z" transform="translate(-620.132 -240.385)"/><path class="c" d="M624.512,314.145a4.378,4.378,0,1,0-4.38-4.378A4.387,4.387,0,0,0,624.512,314.145Z" transform="translate(-620.132 -220.767)"/></g></g><path class="d" d="M0,0H296a70,70,0,0,1,70,70v46a0,0,0,0,1,0,0H0a0,0,0,0,1,0,0V0A0,0,0,0,1,0,0Z" transform="translate(-48 908)"/></g></svg>