<svg xmlns="http://www.w3.org/2000/svg" viewBox="0 0 170 49.26"><defs><style>.cls-1{fill:#58595b;}</style></defs><g id="Layer_2" data-name="Layer 2"><g id="LOGO"><path class="cls-1" d="M23.92,2.93l-.11,0c-.48.06-.48.06-.69-.39-.12-.25-.12-.25-.41-.23L22,2.4a.27.27,0,0,0-.29.24,2.54,2.54,0,0,1-.14.48l-.58,0a1.38,1.38,0,0,1,.07-.26c.26-.86.53-1.72.8-2.58.06-.21.06-.22.28-.23.49,0,.36-.1.58.35.36.72.71,1.46,1.06,2.19,0,.09.09.19.14.3M22.3.82h-.06c-.1.35-.2.7-.32,1.1l.86-.06c-.17-.38-.31-.72-.48-1.05"/><path class="cls-1" d="M25.38,2a1.11,1.11,0,1,1,2.22-.08,1.08,1.08,0,0,1-1.09,1.16A1,1,0,0,1,25.38,2m1.67-.07h0V1.79a.52.52,0,0,0-.46-.49.52.52,0,0,0-.58.38,1,1,0,0,0,0,.58.54.54,0,0,0,.48.4A.5.5,0,0,0,27,2.32a2.34,2.34,0,0,0,.09-.38"/><path class="cls-1" d="M28.52,3.35,28,3.24c.16-.7.32-1.38.48-2.09l.47.1a2.3,2.3,0,0,0,0,.28l.22-.1a.86.86,0,0,1,.86.09.5.5,0,0,1,.24.45,1.27,1.27,0,0,1,0,.34c-.08.4-.18.8-.27,1.2,0,.05,0,.09-.05.16l-.51-.12c.07-.33.14-.64.21-.95a3.25,3.25,0,0,0,.08-.43c0-.24,0-.37-.23-.43a.44.44,0,0,0-.52.17.9.9,0,0,0-.11.27c-.09.33-.16.67-.24,1a.88.88,0,0,1-.06.17"/><path class="cls-1" d="M24.32,0h.52c0,.49,0,1,0,1.47s0,1,0,1.48h-.54c0-1,.05-1.95.05-2.95"/><path class="cls-1" d="M42,25.75a17.81,17.81,0,0,1-35.49.09,9,9,0,0,0,8.87,7.41,8.85,8.85,0,0,0,8.35-5.93l-.34-.21a6.27,6.27,0,0,1-2.33-2.41,4.48,4.48,0,0,1-.57-2.05,4.14,4.14,0,0,1,.61-2.3,10.07,10.07,0,0,1,.78-1.07,10.44,10.44,0,0,0,1.5-2.12,5.14,5.14,0,0,0,.57-2.1,6.65,6.65,0,0,0-.15-1.54c-.07-.34-.13-.69-.18-1a1.59,1.59,0,0,1,0-.22l.19.1a11.55,11.55,0,0,1,3.84,4.37,7.72,7.72,0,0,1,.81,3.72,7.74,7.74,0,0,1-1.13,4,7.43,7.43,0,0,1-1.67,1.82l-.65.53c-.07.06-.13.13-.19.19a.29.29,0,0,0-.07.36,9,9,0,0,0,.74,1.57,8.76,8.76,0,0,0,6.1,4.22,8.9,8.9,0,0,0,9.75-5.18A10.29,10.29,0,0,0,42,25.75"/><path class="cls-1" d="M4.41,30.94c0-.2-.11-.38-.17-.58a.46.46,0,0,1,.1-.07A1.06,1.06,0,0,0,5,29.08a2.27,2.27,0,0,0-.24-.87.9.9,0,0,0-.48-.46.66.66,0,0,0-.91.46,8.85,8.85,0,0,0-.1.9c0,.36,0,.72,0,1.08a2.24,2.24,0,0,1-.09.45A1.41,1.41,0,0,1,1,31.42a1.83,1.83,0,0,1-.72-.88,3.11,3.11,0,0,1-.21-1.83,1.68,1.68,0,0,1,1.22-1.32l.12,0,.18.59L1.46,28a1.21,1.21,0,0,0-.8,1.08,2.1,2.1,0,0,0,.42,1.57.8.8,0,0,0,.71.33.67.67,0,0,0,.63-.44A2,2,0,0,0,2.56,30c0-.36,0-.72.06-1.08a4.7,4.7,0,0,1,.11-.85,1.21,1.21,0,0,1,1.16-1,1.37,1.37,0,0,1,1.28.64,2.69,2.69,0,0,1,.42,1.09,2.53,2.53,0,0,1,0,.95,1.5,1.5,0,0,1-1.19,1.21"/><path class="cls-1" d="M6.3,35.2l-.37.31v.05a1.45,1.45,0,0,1,1.18.55,1.13,1.13,0,0,1,.16,1.3l.28,0a1.38,1.38,0,0,1,1.14.71,1,1,0,0,1-.13,1.31,1.88,1.88,0,0,1-.25.24L6.27,41.31l-.13.08-.39-.48.2-.17c.56-.43,1.12-.86,1.67-1.3A4.59,4.59,0,0,0,8,39.08a.59.59,0,0,0,.1-.74.91.91,0,0,0-1.2-.45,2.22,2.22,0,0,0-.42.25c-.54.41-1.06.82-1.59,1.24l-.23.17-.38-.49.2-.17,1.72-1.35a2.16,2.16,0,0,0,.4-.4.57.57,0,0,0,0-.73.92.92,0,0,0-1.18-.36,3.19,3.19,0,0,0-.6.38c-.47.35-.94.72-1.4,1.08l-.23.17-.39-.49,3.09-2.42.36.43"/><path class="cls-1" d="M14.26,9.71l.36.48-.41.35,2,2.62-.18.05a2.64,2.64,0,0,0-.29,0,.49.49,0,0,1-.52-.24c-.46-.61-.93-1.2-1.4-1.8L13.68,11a3,3,0,0,0-.78.66L15.23,14c-.28,0-.51.09-.74.11-.06,0-.13-.05-.18-.1l-.79-.81a1.92,1.92,0,0,0-.2-.19l-.69.76.55.51a.25.25,0,0,1-.26.13H12a.32.32,0,0,1-.34-.19.39.39,0,0,1,.09-.41c.32-.34.63-.69.94-1l.18-.21-.49-.5c-.59.5-1,1.1-1.57,1.65l-.46-.4L11.57,12l.18.13v0s-.07-.1-.1-.16a17.58,17.58,0,0,1,2.6-2.25"/><path class="cls-1" d="M29.47,8.2c0,.17,0,.34.05.52L29,8.78a.72.72,0,0,0-.21.05c-.17.06-.22.14-.21.29a.26.26,0,0,0,.24.27,2.9,2.9,0,0,0,.51,0,2.05,2.05,0,0,0,.28-.08,2.28,2.28,0,0,1,0,.27,6.45,6.45,0,0,0,.55-1.49l-1.85-.52c.06-.21.11-.38.16-.57l.18,0,1.16.33.95.27a2.28,2.28,0,0,0-.22-.28,3.81,3.81,0,0,0-1.25-.89A.31.31,0,0,1,29,6.11c0-.16,0-.32,0-.54a6.09,6.09,0,0,1,.72.34,5.64,5.64,0,0,1,.59.53c0-.07,0-.11,0-.15-.07-.21-.14-.42-.22-.63a.5.5,0,0,0-.28-.34.2.2,0,0,1-.09-.13c0-.21,0-.42-.06-.69a6.17,6.17,0,0,1,.68.33.65.65,0,0,1,.22.34c.12.37.23.74.32,1.11s.17.82.23,1.24c0,.19.09.32.3.35l.14.07c-.07.18-.13.36-.2.56l-.51-.16c-.22.51-.39,1-.58,1.56s-.38,1-.58,1.59c-.17-.23-.31-.41-.43-.6a.28.28,0,0,1,0-.2c.06-.21.14-.42.22-.66h-.3a1,1,0,0,1-1-.94.69.69,0,0,1,.33-.67,1.47,1.47,0,0,1,1-.22"/><path class="cls-1" d="M22.6,7.16c0-.08,0-.14,0-.21s0-.24,0-.38l.77-.07.61,0a.47.47,0,0,1,.38.06s.12,0,.19,0H25.9a1.57,1.57,0,0,1,0,.61l-.52,0c0,.1,0,.19,0,.28,0,.91,0,1.83,0,2.75a.38.38,0,0,0,.17.35.87.87,0,0,1,.28,1,.77.77,0,0,1-.78.56,1.24,1.24,0,0,1-.85-.27,2.82,2.82,0,0,1-.36-.33,8.31,8.31,0,0,1-.74-1.06.35.35,0,0,1,.45.17,3,3,0,0,0,.68.78.92.92,0,0,0,.91.22.4.4,0,0,0,.32-.38.32.32,0,0,0-.45-.34,1.26,1.26,0,0,0-.28.19,1.35,1.35,0,0,0-.17.17l-.31-.45a.79.79,0,0,1,.8-.42c0-.12-.11-.16-.18-.2a.3.3,0,0,1-.16-.3c0-.4,0-.79,0-1.18,0-.09,0-.18,0-.3-.38,0-.75,0-1.11.1a.31.31,0,0,0-.26.38,1.42,1.42,0,0,0,.11.35A3,3,0,0,0,24,10l.19.16-.24.18a.75.75,0,0,1-.13-.11c-.24-.27-.48-.54-.7-.83a1.62,1.62,0,0,1-.32-1A.6.6,0,0,1,23,8a.49.49,0,0,1,.24-.14c.44-.05.88-.07,1.35-.11l.06.4a2.62,2.62,0,0,0,0-.93l-.24,0c-.05,0-.11,0-.14,0s-.31-.07-.47-.06l-1,.07h-.2"/><path class="cls-1" d="M31.8,44.41c-.21-.64-.41-1.22-.62-1.83l.6-.21c.59,1.72,1.17,3.42,1.77,5.15l-.55.19c-.06-.15-.1-.26-.17-.42,0,.08-.07.12-.09.17a1.41,1.41,0,0,1-1.4.79A1.72,1.72,0,0,1,30,47.43a2.85,2.85,0,0,1-.48-1.8,1.5,1.5,0,0,1,2.1-1.28l.17.06m-1.65,1.45a2.77,2.77,0,0,0,.5,1.37,1.07,1.07,0,0,0,.8.47,1,1,0,0,0,1.07-1.07A2.53,2.53,0,0,0,32,45.11a1,1,0,0,0-1.15-.35,1.06,1.06,0,0,0-.66,1.1"/><path class="cls-1" d="M28.25,43.39c.05.25.1.48.14.71l-.59.12-.11-.15,0,.07-.78,2.23L25.94,49c-.09.23-.09.23-.33.24h-.48l-2.29-5.36.75,0c.62,1.58,1.25,3.15,1.88,4.75l.08-.14q.73-2.27,1.48-4.53c.06-.2.07-.2.28-.21l.32,0c0-.08,0-.14,0-.22l.58-.1"/><path class="cls-1" d="M40.9,43l-.19.16-.31.25L40,43.14c-.1.07-.08.19-.11.29a2,2,0,0,1-1,1.26,1.09,1.09,0,0,1-.68.16,1.11,1.11,0,0,1-.92-1.47,1.89,1.89,0,0,1,.41-.64c.27-.3.54-.61.82-.91.06-.08.11-.16.18-.27-.11-.11-.2-.23-.32-.33a.5.5,0,0,0-.52-.12,1.57,1.57,0,0,0-1,.74.67.67,0,0,0,0,.5c0,.09,0,.17.09.3-.17.09-.34.2-.52.31a1.17,1.17,0,0,1-.12-1.08,2.47,2.47,0,0,1,1.58-1.41.85.85,0,0,1,.9.24,4.09,4.09,0,0,1,.39.44c.22.26.43.54.65.8a3.63,3.63,0,0,0,1.07,1M39,42l-.45.59c-.16.19-.33.37-.49.55l-.11.16A.58.58,0,0,0,38,44a.61.61,0,0,0,.7.2A1.4,1.4,0,0,0,39.54,43,1.57,1.57,0,0,0,39,42"/><path class="cls-1" d="M17.07,45.29,16.52,45a1.23,1.23,0,0,1,1.13-.77,2.7,2.7,0,0,1,1.59.42.93.93,0,0,1,.45,1.12c-.13.54-.3,1.07-.44,1.61a7,7,0,0,0-.18.79,2.84,2.84,0,0,0,0,.51l-.37-.1c-.27-.08-.28-.09-.26-.38a.81.81,0,0,1,0-.15c-.12-.05-.2,0-.29.06A2,2,0,0,1,16.44,48,1.06,1.06,0,0,1,16,46.59a1.08,1.08,0,0,1,1-.65,5.9,5.9,0,0,1,.83.06l.95.1c.21,0,.23,0,.29-.21a.68.68,0,0,0-.4-.9,2.59,2.59,0,0,0-.67-.2.73.73,0,0,0-.7.27,2.31,2.31,0,0,0-.18.23m1.73,1.33-.12,0-1.1-.09a4,4,0,0,0-.49,0,.55.55,0,0,0-.53.43.57.57,0,0,0,.23.65,1.26,1.26,0,0,0,.49.21,1.12,1.12,0,0,0,1.21-.39,1.87,1.87,0,0,0,.31-.77"/><path class="cls-1" d="M9.6,44.46,9.11,44l.19-.45-.31,0a2,2,0,0,1-1.52-.93A1.07,1.07,0,0,1,8.11,41a1.22,1.22,0,0,1,.86.1c.2.1.38.23.57.34l.87.52c.19.11.21.09.34-.07a.68.68,0,0,0,0-1,3.21,3.21,0,0,0-.48-.42.74.74,0,0,0-.85,0l-.19.09-.4-.45a1.19,1.19,0,0,1,1.11-.3A2.56,2.56,0,0,1,11.51,41a.93.93,0,0,1-.1,1.13c-.33.4-.67.78-1,1.18l-.08.09a3.3,3.3,0,0,0-.73,1.11m.67-2-.12-.07c-.32-.19-.65-.37-1-.55-.13-.07-.25-.15-.39-.21a.6.6,0,0,0-.79.33.62.62,0,0,0,.11.65,1.38,1.38,0,0,0,.66.48,1,1,0,0,0,1.13-.23c.13-.12.24-.25.38-.4"/><path class="cls-1" d="M45.11,32.28c-.08.18-.17.35-.26.54a1.26,1.26,0,0,1-.73-1.21,2.72,2.72,0,0,1,.42-1.44,1,1,0,0,1,1.23-.49l1.41.44a3.61,3.61,0,0,0,1.43.28l-.16.52c0,.08-.08.11-.17.11l-.35,0,.09.31a2,2,0,0,1-.17,1.61,1.05,1.05,0,0,1-1.2.6,1.08,1.08,0,0,1-.88-1.07,5.52,5.52,0,0,1,.07-.8c0-.34.1-.68.14-1s0-.22-.18-.29a.69.69,0,0,0-.94.39,2.87,2.87,0,0,0-.22.72.67.67,0,0,0,.23.6l.24.22m1.38-1.66c0,.31-.06.61-.1.91s-.07.44-.08.66a.58.58,0,0,0,.46.66.61.61,0,0,0,.7-.32,1.42,1.42,0,0,0,.15-1.07,1.22,1.22,0,0,0-1.13-.84"/><path class="cls-1" d="M45.8,37.08l-.3.54L40.73,35c.11-.19.21-.36.31-.55l1.7.93c0-.12,0-.19,0-.27a1.63,1.63,0,0,1,.69-1.62,1,1,0,0,1,.85-.12,2.87,2.87,0,0,1,.55.22l2.13,1.18.12.08-.3.54-.23-.12-1.92-1a2,2,0,0,0-.4-.18.71.71,0,0,0-.79.25,1,1,0,0,0,.15,1.5c.38.26.79.47,1.18.7l.93.51.14.1"/><path class="cls-1" d="M38.33,17.53l-.27.13c-.18.08-.31,0-.31-.2a.26.26,0,0,1,0-.15q.1-.37.24-.75a.48.48,0,0,1,.12-.17c.17-.16.28-.14.41.06a.76.76,0,0,0,.1.13l.83-.45a6.38,6.38,0,0,0-.51-.87L36.11,17c0-.09,0-.14,0-.19a2.55,2.55,0,0,0,0-.39.35.35,0,0,1,.19-.34c.68-.41,1.35-.84,2-1.26l.25-.16-.22-.41.51-.32a30.91,30.91,0,0,1,1.77,3l-.52.29-.32-.54-.85.48.44.81-.59.34-.46-.8"/><path class="cls-1" d="M14.51,9.46,15.43,9l.91-.51a.57.57,0,0,0-.12-.11c-.26-.11-.51-.23-.77-.32a.86.86,0,0,0-.78.07A.33.33,0,0,1,14.23,8c-.11-.11-.25-.19-.4-.31.41-.2.77-.44,1.24-.28a7,7,0,0,1,1.47.66c.13.08.25.14.41,0,.1.18.19.35.3.53L16.71,9l.57,1-.48.27-.32.18a.45.45,0,0,0-.17.67.63.63,0,0,0,.94.12.3.3,0,0,0,0-.08.39.39,0,0,1-.08-.49.49.49,0,0,1,.49-.26.3.3,0,0,1,.17.08.74.74,0,0,1,.27.75s0,.05,0,.09a1.39,1.39,0,0,1,.59.39l-.36.21-.46-.26a.21.21,0,0,0-.23,0,1.35,1.35,0,0,1-1.77-.51,1.5,1.5,0,0,1-.18-.5A.53.53,0,0,1,16,10l.43-.24.05-.07c-.08-.14-.16-.31-.26-.49L14.81,10c-.1-.18-.19-.35-.3-.53"/><path class="cls-1" d="M3.12,35.64a1.55,1.55,0,0,1-1-.38,2,2,0,0,1-.71-1.33A1.6,1.6,0,0,1,2,32.43a2.86,2.86,0,0,1,1.57-.66,1.51,1.51,0,0,1,1,.24,2,2,0,0,1,.86,1.93,1.63,1.63,0,0,1-.43.87,3,3,0,0,1-1.95.83m.64-3.23a2.29,2.29,0,0,0-1.47.68,1,1,0,0,0-.22,1.23A1,1,0,0,0,3.12,35a2.16,2.16,0,0,0,1.53-.67,1.05,1.05,0,0,0,.22-1.23,1.09,1.09,0,0,0-1.11-.67"/><path class="cls-1" d="M9.26,16.23,9,16.62l-.51-.31a18.67,18.67,0,0,1,1.85-2.81c.16.12.31.23.48.34l-.3.46,2.69,2a2.89,2.89,0,0,1-.69.25.37.37,0,0,1-.23-.1C11.65,16,11,15.5,10.38,15l-.26-.17a4.24,4.24,0,0,0-.52.78l2.86,1.72a2.56,2.56,0,0,1-.67.32c-.06,0-.15,0-.22-.07l-2-1.21-.31-.17"/><path class="cls-1" d="M32.6,43.72l.6-.32,2.46,2.25s0-.08,0-.1c-.12-.82-.25-1.64-.37-2.45,0-.21-.06-.41-.09-.61a.18.18,0,0,1,.11-.22l.43-.22c.06.39.11.76.15,1.12.15,1.09.3,2.18.43,3.27a6,6,0,0,1,.06,1,1,1,0,0,1-.74,1c-.18,0-.19,0-.3-.11l-.22-.32.25-.11a.65.65,0,0,0,.46-.73v0a1,1,0,0,0-.4-.85c-.91-.75-1.78-1.54-2.67-2.32l-.17-.17"/><path class="cls-1" d="M13.66,42.41l.6.32c-.16,1.11-.32,2.19-.49,3.31l2.48-2.25.54.28c-.05.06-.07.11-.11.15-1.17,1-2.33,2.06-3.51,3.08a2.47,2.47,0,0,1-.61.4.94.94,0,0,1-1.05-.18.19.19,0,0,1-.07-.26l.16-.4.26.17a.65.65,0,0,0,.85-.06,1,1,0,0,0,.47-.81c.11-1.1.27-2.19.41-3.29l.07-.46"/><path class="cls-1" d="M34.15,10l.37-.32.21.16,1,.74c.07.06.14.12.08.23l.14-.08,1.51,1.4-.41.45a18.76,18.76,0,0,0-2-1.73l-2.06,2.63a6.72,6.72,0,0,1-.22-.69c0-.06,0-.14.07-.2s.25-.33.4-.52L33,12a1,1,0,0,1-.56-1.52.78.78,0,0,1,.85-.3c.44.1.49.17.45.61a.55.55,0,0,1,0,.16,1.39,1.39,0,0,0-.26-.1,3.09,3.09,0,0,0-.53-.09.46.46,0,0,0-.26.11.2.2,0,0,0,0,.35.88.88,0,0,0,.5.17h.52c.24-.32.5-.65.78-1l-.27-.21c-.06-.06-.12-.11,0-.21Z"/><path class="cls-1" d="M18.59,7.49c.07.14.12.23.16.32h0c0-.12-.05-.23-.07-.35A8.69,8.69,0,0,1,20.33,7c.05.17.1.34.15.54L20,7.71l.91,3.19a2.82,2.82,0,0,1-.71-.21s-.07-.1-.09-.16-.11-.36-.17-.56l-.21.16a1,1,0,0,1-1.49-.59.91.91,0,0,1,.66-1,.19.19,0,0,1,.13,0l.37.31c-.14.09-.26.16-.36.24a.8.8,0,0,0-.33.42.31.31,0,0,0,.06.32.27.27,0,0,0,.3,0,1.09,1.09,0,0,0,.46-.44l.18-.26c-.11-.39-.24-.81-.37-1.27-.62.22-1.2.49-1.82.72L17.25,8l1.34-.55"/><path class="cls-1" d="M34.48,14.58c-.17,0-.26-.08-.27-.25a5,5,0,0,1,.09-1.39,1.18,1.18,0,0,1,.54-.73.65.65,0,0,1,1,.54.86.86,0,0,1,0,.16c.54,0,.67.12.63.64l.24-.08c.06.07.13.14.19.22.17.23.59.09.69-.16a.27.27,0,0,0-.06-.27l-.37-.46.46-.39c.38.42.71.87,1.09,1.32l-.47.38L38,13.78l-.12.15a1.22,1.22,0,0,1-.69.44.82.82,0,0,1-.56-.1c-.11.17-.11.26,0,.4a1.09,1.09,0,0,0,.54.38l.34.08a5.9,5.9,0,0,1-.57.47s-.11,0-.16,0a1,1,0,0,1-.64-1.3,5,5,0,0,1,.25-.59c-.17-.28-.37-.31-.6-.07l-.43.45c-.08-.18-.15-.33-.22-.5l.33-.36c.08-.09.18-.18.1-.32a.4.4,0,0,0-.42-.19.62.62,0,0,0-.4.34,2.73,2.73,0,0,0-.21.93c0,.2,0,.41-.05.61"/><path class="cls-1" d="M38.57,39.82l.45-.49,3,1.31a3.24,3.24,0,0,0-.29-.59c-.09-.2-.2-.4-.3-.59l-.3-.6-.3-.59-.3-.6L41,37.2c.08.15.14.27.2.4l1.56,3.15c.1.22.11.22-.06.4s-.2.28-.57.13L38.8,39.92l-.23-.1"/><path class="cls-1" d="M3.23,16c.1.22.17.41.27.59a.4.4,0,0,0,.19.14l.66.27-.21.53L1.37,16.43l.22-.53,1.18.47,0-.05c0-.07-.07-.15-.11-.23-.19-.4-.37-.8-.57-1.2a.38.38,0,0,1,0-.33A5.71,5.71,0,0,0,2.34,14a2.5,2.5,0,0,1,.14.3c.15.31.28.62.42.94s.11.21.34.17l1.59-.32.3,0c-.09.23-.16.42-.25.6a.25.25,0,0,1-.18.1L3.42,16l-.19,0"/><path class="cls-1" d="M15.6,5l.51-.13a.17.17,0,0,1,.12,0,.34.34,0,0,0,.35,0c.35-.12.43-.29.3-.64A2.66,2.66,0,0,0,16.77,4l-.1.15a.79.79,0,0,1-1.2.26A1.35,1.35,0,0,1,15,3.15a.8.8,0,0,1,1.1-.65l.16,0,0-.27.43-.16.08.13c.22.57.44,1.13.65,1.7a2.91,2.91,0,0,1,.13.6.52.52,0,0,1-.21.47,1.66,1.66,0,0,1-1.12.42A.53.53,0,0,1,15.6,5m-.11-1.73a1,1,0,0,0,.23.63.45.45,0,0,0,.51.19.49.49,0,0,0,.34-.49A1,1,0,0,0,16.3,3a.46.46,0,0,0-.54-.12.45.45,0,0,0-.27.45"/><path class="cls-1" d="M6.39,9.15l.38-.36L8,9.43l0,0c-.21-.41-.48-.79-.71-1.21l.36-.38,1.25.71a2.54,2.54,0,0,0-.33-.66c-.11-.21-.23-.41-.35-.63.11-.12.22-.23.32-.35a12.66,12.66,0,0,1,1.09,2L9.3,9.2,8.13,8.56l-.05,0c.22.39.47.76.7,1.17l-.37.39-2-1"/><path class="cls-1" d="M13.58,2.49,15,5.09l-.41.24-.17-.21-.07.11A.82.82,0,0,1,13,5.6a1.58,1.58,0,0,1-.54-1,.84.84,0,0,1,1-1h.16c-.18-.32-.33-.61-.5-.92l.47-.26m0,1.48a.49.49,0,0,0-.53.5,1.09,1.09,0,0,0,.36.71.46.46,0,0,0,.78-.43,1.16,1.16,0,0,0-.34-.62A1.7,1.7,0,0,0,13.54,4"/><path class="cls-1" d="M37.56,7.17l-.21.19L37,7.06,38.8,4.72l.22.16a1.51,1.51,0,0,1,.2.17l-.62.83.2,0a.84.84,0,0,1,.78,1,1.49,1.49,0,0,1-.78,1,.82.82,0,0,1-1.21-.61.58.58,0,0,0,0-.14M37.87,7a.44.44,0,0,0,.68.4,1.13,1.13,0,0,0,.5-.67.41.41,0,0,0-.13-.45.44.44,0,0,0-.45-.1,1,1,0,0,0-.6.82"/><path class="cls-1" d="M48.86,28.76c0,.21-.06.4-.1.62l-3.87-.68c0-.2.06-.36.1-.55l.53.06c-.15-.18-.28-.32-.39-.48a.67.67,0,0,1-.06-.57,1.05,1.05,0,0,1,.31-.52l.52.3c0,.08-.08.13-.11.19a.69.69,0,0,0,.33,1,3.28,3.28,0,0,0,.75.24c.58.12,1.17.21,1.76.32l.23.05"/><path class="cls-1" d="M11.69,18.5v.39l-.42.14a.46.46,0,0,0-.33.29.88.88,0,0,1-.18.29.33.33,0,0,1-.36.09.41.41,0,0,1-.27-.3.57.57,0,0,1,.35-.62.3.3,0,0,0,.16-.34c0-.18-.14-.26-.29-.17a4.1,4.1,0,0,0-.47.35l-.41.32a1,1,0,0,1-.34.13.38.38,0,0,1-.45-.44.17.17,0,0,1,0-.07c.2-.54.41-1.08.62-1.64a2.39,2.39,0,0,1,.57.19c-.17.44-.33.87-.49,1.31l0,0c.06-.06.11-.12.17-.17a3.57,3.57,0,0,1,.54-.42.53.53,0,0,1,.78.22,3.26,3.26,0,0,1,.2.53l.25,0,.32-.06"/><path class="cls-1" d="M37.44,19.8c.06-.28.11-.5.15-.71s.12-.13.2-.16l1.82-.74.68-.28c0-.14-.09-.28-.14-.44l.55-.23c.21.53.42,1,.64,1.57l-.56.23c-.08-.16-.15-.32-.23-.5L39,19.16l-1.58.64"/><path class="cls-1" d="M42.35,12.84l.11-.22-.19-.08a.9.9,0,0,1-.48-.53A.58.58,0,0,1,42,11.3a.58.58,0,0,1,.75,0,2.76,2.76,0,0,1,.36.33l.29.26.08,0c.2-.12.24-.19.2-.34a.53.53,0,0,0-.54-.4L43,11c0-.07-.05-.14-.08-.22a.7.7,0,0,1,.7.12,1.7,1.7,0,0,1,.48.73.54.54,0,0,1-.19.66l-.63.42a2.14,2.14,0,0,0-.68.57c-.09-.15-.17-.28-.27-.42m.78-.72a6.27,6.27,0,0,0-.48-.42.25.25,0,0,0-.4.21.44.44,0,0,0,.09.29c.2.24.49.21.79-.08"/><path class="cls-1" d="M6.31,10a1.14,1.14,0,0,1,0,2.27,1.22,1.22,0,0,1-1.17-1.14A1.16,1.16,0,0,1,6.31,10m-.11.52a.5.5,0,0,0-.5.68.89.89,0,0,0,.75.54.51.51,0,0,0,.49-.7.91.91,0,0,0-.74-.52"/><path class="cls-1" d="M12,6.1l.47-.21a.78.78,0,0,1-.13.76,1.13,1.13,0,0,1-.66.45.86.86,0,0,1-.8-.18,1.47,1.47,0,0,1-.54-.86A1,1,0,0,1,11.75,5a1.33,1.33,0,0,1,.57.56c-.37.29-.78.53-1.14.82a.48.48,0,0,0,.58.26c.21-.07.29-.21.27-.54m-.34-.48c-.23-.3-.48-.35-.69-.18a.43.43,0,0,0,0,.66l.68-.48"/><path class="cls-1" d="M18.13,2.93c.1.31.26.45.47.45s.34-.1.45-.42l.51,0a.82.82,0,0,1-.37.67,1.21,1.21,0,0,1-.71.21.83.83,0,0,1-.64-.28,1.41,1.41,0,0,1-.32-1.26.9.9,0,0,1,.75-.69.91.91,0,0,1,1,.39,1.18,1.18,0,0,1,.23.6l-1.36.37m.76-.54c-.12-.37-.36-.5-.62-.39a.42.42,0,0,0-.18.61l.8-.22"/><path class="cls-1" d="M45.17,16.2l-.59-1.26a.43.43,0,0,0-.37.46c0,.25.12.35.48.44.05.14.09.3.13.46a.72.72,0,0,1-.69-.2,1.12,1.12,0,0,1-.36-.78,1,1,0,0,1,.1-.47,1.41,1.41,0,0,1,1.41-.63,1,1,0,0,1,.47,1.61,1.45,1.45,0,0,1-.58.37m0-.64c.31-.12.43-.36.32-.61s-.37-.31-.67-.16l.35.77"/><path class="cls-1" d="M40.93,9.39l-1-1a.46.46,0,0,0-.2.56c.08.22.23.28.61.25l.17.25a.83.83,0,0,1,.09.16.73.73,0,0,1-.79,0,1.49,1.49,0,0,1-.41-.38.84.84,0,0,1-.07-1,1.47,1.47,0,0,1,.72-.67.93.93,0,0,1,1.1.25.91.91,0,0,1,.14,1.11,1.52,1.52,0,0,1-.38.47m-.16-.62c.26-.26.28-.52.07-.71a.43.43,0,0,0-.65.1l.58.61"/><path class="cls-1" d="M32.55,3.54c-.45-.15-.88-.29-1.32-.42a.46.46,0,0,0,.08.58c.19.17.36.15.66-.06l.44.23a.77.77,0,0,1-.74.36,1.58,1.58,0,0,1-.56-.17.81.81,0,0,1-.48-.82,1.52,1.52,0,0,1,.31-.91A.94.94,0,0,1,32,2a.91.91,0,0,1,.68.89,1.35,1.35,0,0,1-.13.63m-.42-.48a.43.43,0,0,0-.07-.54.39.39,0,0,0-.45-.09.37.37,0,0,0-.27.38l.79.25"/><path class="cls-1" d="M6,13.52l-.75-.43-.46-.25a.35.35,0,0,0-.5.08.44.44,0,0,0,0,.59,2.21,2.21,0,0,0,.29.22l.74.43.2.13c-.09.15-.17.29-.26.46L3.42,13.68c.08-.15.16-.28.23-.42l.26.1c0-.11,0-.18,0-.26A.79.79,0,0,1,4,12.6a.64.64,0,0,1,.93-.31c.45.24.88.5,1.35.76L6,13.52"/><path class="cls-1" d="M46.56,18.18c-.08-.14-.16-.27-.24-.42a.53.53,0,0,0,0-.7.18.18,0,0,0-.21-.12.17.17,0,0,0-.11.2c0,.13,0,.26,0,.39a5,5,0,0,1,0,.54.58.58,0,0,1-.79.52.76.76,0,0,1-.39-.29,1.5,1.5,0,0,1-.28-1,.78.78,0,0,1,.35-.59l.25.46a.53.53,0,0,0-.09.72.49.49,0,0,0,.11.14.19.19,0,0,0,.32-.13,1.94,1.94,0,0,0,0-.24c0-.22,0-.43,0-.64a.54.54,0,0,1,.37-.55.58.58,0,0,1,.67.17,1.51,1.51,0,0,1,.35,1,.59.59,0,0,1-.31.52"/><path class="cls-1" d="M11,45.38,10.51,45l2.14-3.3.54.34L11,45.38"/><path class="cls-1" d="M44.76,38.66l-.36.52-3.22-2.25c.12-.18.23-.35.36-.53l3.22,2.26"/><path class="cls-1" d="M29.29,48.73l-.63.12c-.25-1.3-.49-2.56-.75-3.86l.63-.12c.25,1.3.5,2.56.75,3.86"/><path class="cls-1" d="M35.27,2.52l.5.28L34.57,5l1.31.74-.22.42-1.82-1c.47-.87.94-1.71,1.43-2.59"/><path class="cls-1" d="M43.74,14.33l-.32.24a3.75,3.75,0,0,1-.26-.33.48.48,0,0,1,.17-.75c.25-.16.52-.31.78-.46l.26-.16c0-.08,0-.16-.08-.25l.33-.19.16.19s.08,0,.1,0a.41.41,0,0,1,.57,0,1.46,1.46,0,0,0,.24.15l-.63.38c.06.11.11.21.17.34l-.34.21-.23-.33-1,.58a.16.16,0,0,0,0,.25l.1.16"/><path class="cls-1" d="M8.55,5.87,9,5.52,10.88,7.8l-.41.35L8.55,5.87"/><path class="cls-1" d="M30.31,10c.12-.25.23-.46.34-.66a.16.16,0,0,1,.21-.07.83.83,0,0,1,.59.45A1.34,1.34,0,0,1,31,11.44a.37.37,0,0,1-.49,0,.26.26,0,0,1,.07-.48,2.21,2.21,0,0,0,.34-.18.78.78,0,0,0,.22-.26.31.31,0,0,0-.19-.45,2.9,2.9,0,0,0-.41-.06l-.21,0"/><path class="cls-1" d="M40.92,10.82l-.34-.42,1.67-1.35.3.37-.16.2c.2,0,.4,0,.53.18a.48.48,0,0,1,.13.35l-.41.16-.08-.16a.34.34,0,0,0-.5-.17,2.87,2.87,0,0,0-.43.28l-.71.56"/><path class="cls-1" d="M7.46,18.82l.8-2.09.57.22L8,19l-.57-.22"/><path class="cls-1" d="M37.19,4.6l.46.28L36.51,6.7l-.46-.28c.38-.62.75-1.21,1.14-1.82"/><path class="cls-1" d="M36.73,18.71a.94.94,0,0,1,.5.52.5.5,0,0,1,0,.43,2.36,2.36,0,0,1-.24.4c-.19.24-.4.47-.61.71s-.1.11-.31,0a1.4,1.4,0,0,1,.1-.16l.55-.78c.12-.18.12-.23,0-.38l-.36-.34.19-.21a2.18,2.18,0,0,1,.21-.22"/><path class="cls-1" d="M32.7,9.3l-1.3-.66c.09-.19.18-.36.28-.55L33,8.74c-.09.2-.18.37-.27.56"/><path class="cls-1" d="M34.15,10h0C34.08,10,34,10,34,10l-1.13-.7.32-.52,1.23.76-.22.45"/><path class="cls-1" d="M40.54,36.48l-.61-.43.37-.51.6.41-.36.53"/><path class="cls-1" d="M13.47,40.46l.52.33a3.84,3.84,0,0,1-.39.63l-.53-.34.4-.62"/><path class="cls-1" d="M37.37,4.31l.26-.42.46.28-.26.43-.46-.29"/><path class="cls-1" d="M61.68,29.36a12.17,12.17,0,0,1-3.38-.45,10,10,0,0,1-3-1.5V23.33h2.37L58,26a5.09,5.09,0,0,0,1.59.74,7.13,7.13,0,0,0,2.06.28,4.64,4.64,0,0,0,1.82-.31,2.42,2.42,0,0,0,1.12-.87A2.25,2.25,0,0,0,65,24.48a2.28,2.28,0,0,0-.34-1.25,2.86,2.86,0,0,0-1.13-1,9.78,9.78,0,0,0-2.14-.8,15.08,15.08,0,0,1-3.32-1.27,5.45,5.45,0,0,1-2-1.75,4.56,4.56,0,0,1,.09-4.93,5.23,5.23,0,0,1,2.15-1.73,7.58,7.58,0,0,1,3.18-.65,9.9,9.9,0,0,1,3.49.51A8.5,8.5,0,0,1,67.55,13v3.82H65.22l-.44-2.49a4.3,4.3,0,0,0-1.29-.6,6.27,6.27,0,0,0-1.89-.25,4.16,4.16,0,0,0-1.63.3,2.68,2.68,0,0,0-1.11.86,2.18,2.18,0,0,0-.4,1.32,2,2,0,0,0,.35,1.17,3,3,0,0,0,1.19.91,13.63,13.63,0,0,0,2.24.82A10.43,10.43,0,0,1,66.61,21a4.46,4.46,0,0,1,1.49,3.45A4.32,4.32,0,0,1,67.3,27a5.23,5.23,0,0,1-2.24,1.71,8.79,8.79,0,0,1-3.38.61"/><path class="cls-1" d="M77.54,29.36a7.35,7.35,0,0,1-3.19-.67,7,7,0,0,1-2.45-1.87A8.53,8.53,0,0,1,70.34,24a11.19,11.19,0,0,1-.55-3.6V20.1a11.23,11.23,0,0,1,.55-3.6,8.73,8.73,0,0,1,1.56-2.85,7,7,0,0,1,2.45-1.88,7.48,7.48,0,0,1,3.18-.66,7.7,7.7,0,0,1,3.25.66,6.94,6.94,0,0,1,2.45,1.88,8.51,8.51,0,0,1,1.54,2.85,11.52,11.52,0,0,1,.54,3.6v.27a11.47,11.47,0,0,1-.54,3.6,8.32,8.32,0,0,1-1.54,2.85,6.91,6.91,0,0,1-2.45,1.87,7.54,7.54,0,0,1-3.24.67m0-2.44a4.15,4.15,0,0,0,2.65-.82,4.84,4.84,0,0,0,1.54-2.3,10.49,10.49,0,0,0,.51-3.43v-.3a10.24,10.24,0,0,0-.51-3.39,5,5,0,0,0-1.55-2.3,4.15,4.15,0,0,0-2.65-.82,4,4,0,0,0-2.58.82,5,5,0,0,0-1.55,2.3,10,10,0,0,0-.53,3.39v.3a10.25,10.25,0,0,0,.53,3.43A4.94,4.94,0,0,0,75,26.1a4,4,0,0,0,2.58.82"/><polygon class="cls-1" points="86.98 29.1 86.98 27.22 88.9 26.86 88.9 13.62 86.98 13.25 86.98 11.36 88.9 11.36 93.3 11.36 98.5 24.19 98.58 24.19 103.62 11.36 110.02 11.36 110.02 13.25 108.08 13.62 108.08 26.86 110.02 27.22 110.02 29.1 103.08 29.1 103.08 27.22 105.12 26.86 105.12 22.73 105.14 14.97 105.08 14.96 99.59 28.7 97.36 28.7 91.7 15.03 91.64 15.04 91.8 22.52 91.8 26.86 93.91 27.22 93.91 29.1 86.98 29.1"/><path class="cls-1" d="M110.82,29.1V27.22l1.29-.18L118,11.36h3L126.77,27l1.29.18V29.1h-5.64V27.22l1.26-.23-.93-2.79h-6.61l-1,2.79,1.28.23V29.1ZM117,21.85h5l-2.3-6.56-.16-.48h-.07l-.17.5Z"/><polygon class="cls-1" points="129.51 29.1 129.51 27.22 131.44 26.86 131.44 13.62 129.51 13.25 129.51 11.36 136.44 11.36 136.44 13.25 134.51 13.62 134.51 26.86 136.44 27.22 136.44 29.1 129.51 29.1"/><polygon class="cls-1" points="142.71 29.1 142.71 27.22 144.64 26.86 144.64 22.86 139.3 13.49 137.69 13.25 137.69 11.36 144.37 11.36 144.37 13.25 142.68 13.47 145.97 19.68 146.23 20.22 146.28 20.2 146.54 19.7 150.09 13.47 148.08 13.25 148.08 11.36 154.63 11.36 154.63 13.25 152.96 13.49 147.69 22.62 147.69 26.86 149.63 27.22 149.63 29.1 142.71 29.1"/><path class="cls-1" d="M152.76,29.1V27.22l1.29-.18,5.88-15.68h3L168.71,27l1.29.18V29.1h-5.64V27.22l1.27-.23-.94-2.79h-6.6l-1,2.79,1.28.23V29.1Zm6.13-7.25h5l-2.31-6.56-.15-.48h-.08l-.17.5Z"/><path class="cls-1" d="M57.92,40l-2-5.5-.62-.08v-.91h2.91v.91l-.58.09,1.16,3.65.07.25h0l.06-.24L60,34.51l-.7-.09v-.91h2.72v.91l-.63.08L59.61,40Z"/><path class="cls-1" d="M68.63,40v-.92l.67-.14V34.57l-.67-.15v-.91h2.9v.91l-.67.15v4.37l.67.14V40Z"/><path class="cls-1" d="M78.21,40v-.92l.69-.16V34.59l-.69-.17v-.91h3A2.83,2.83,0,0,1,83.87,35a3.45,3.45,0,0,1,.38,1.66v.1a3.46,3.46,0,0,1-.38,1.67,2.93,2.93,0,0,1-1.06,1.12,3,3,0,0,1-1.56.41Zm2.25-1.19h.71a1.32,1.32,0,0,0,.83-.25,1.54,1.54,0,0,0,.51-.7,3.06,3.06,0,0,0,.17-1.06v-.1a3,3,0,0,0-.17-1.05A1.49,1.49,0,0,0,82,35a1.32,1.32,0,0,0-.83-.25h-.71Z"/><path class="cls-1" d="M92.76,40v-.92l.68-.14V37.86l-1.88-3.34-.68-.1v-.91h2.81v.91l-.4.08.89,1.77.1.23h0l.11-.21,1-1.79-.68-.08v-.91h2.76v.91l-.69.1L95,37.73v1.21l.67.14V40Z"/><path class="cls-1" d="M102.94,40v-.92l.45-.06,1.93-5.51H107L109,39l.45.06V40H107v-.92l.42-.08-.2-.7h-2.08l-.19.7.42.08V40Zm2.52-2.8h1.42l-.63-2-.07-.23h0l-.08.25Z"/><path class="cls-1" d="M117.87,40l-2-5.5-.62-.08v-.91h2.91v.91l-.58.09,1.17,3.65.06.25h0l0-.24L120,34.51l-.69-.09v-.91H122v.91l-.63.08L119.56,40Z"/><path class="cls-1" d="M128.58,40v-.92l.67-.14V34.57l-.67-.15v-.91h2.9v.91l-.67.15v4.37l.67.14V40Z"/><path class="cls-1" d="M138.17,40v-.92l.67-.14V34.57l-.67-.15v-.91h2.91v.91l-.68.15v1.64h2.37V34.57l-.68-.15v-.91H145v.91l-.67.15v4.37l.67.14V40h-2.91v-.92l.68-.14V37.41H140.4v1.53l.68.14V40Z"/><path class="cls-1" d="M150.91,40v-.92l.46-.06,1.93-5.51H155L156.94,39l.45.06V40H155v-.92l.42-.08-.2-.7h-2.08l-.19.7.42.08V40Zm2.53-2.8h1.42l-.63-2-.08-.23h0l-.08.25Z"/><path class="cls-1" d="M164,40v-.92l.67-.14V34.57l-.67-.15V33.5h3.19a3.27,3.27,0,0,1,1.34.25,2,2,0,0,1,.87.69,1.93,1.93,0,0,1,.31,1.08,2,2,0,0,1-.31,1.06,2.29,2.29,0,0,1-.85.78,2.49,2.49,0,0,1-1.23.3l-1.09,0v1.3l.68.14V40Zm2.23-3.56h1a1.06,1.06,0,0,0,.7-.21.76.76,0,0,0,.24-.61.9.9,0,0,0-.25-.67.93.93,0,0,0-.71-.25h-1ZM168.11,40l-.88-2.54,1.36-.46.79,1.93.62.16V40Z"/></g></g></svg>