<svg xmlns="http://www.w3.org/2000/svg" xmlns:xlink="http://www.w3.org/1999/xlink" viewBox="0 0 170 49.26"><defs><style>.cls-1,.cls-2{fill:#58595b;}.cls-2{fill-rule:evenodd;}.cls-3{clip-path:url(#clip-path);}</style><clipPath id="clip-path"><ellipse class="cls-1" cx="24.76" cy="34.9" rx="11.99" ry="12.08"/></clipPath></defs><g id="Layer_2" data-name="Layer 2"><g id="LOGO"><path class="cls-1" d="M61.68,29.36a12.17,12.17,0,0,1-3.38-.45,10,10,0,0,1-3-1.5V23.33h2.37L58,26a5.09,5.09,0,0,0,1.59.74,7.13,7.13,0,0,0,2.06.28,4.64,4.64,0,0,0,1.82-.31,2.42,2.42,0,0,0,1.12-.87A2.25,2.25,0,0,0,65,24.48a2.28,2.28,0,0,0-.34-1.25,2.86,2.86,0,0,0-1.13-1,9.78,9.78,0,0,0-2.14-.8,15.08,15.08,0,0,1-3.32-1.27,5.45,5.45,0,0,1-2-1.75,4.56,4.56,0,0,1,.09-4.93,5.23,5.23,0,0,1,2.15-1.73,7.58,7.58,0,0,1,3.18-.65,9.9,9.9,0,0,1,3.49.51A8.5,8.5,0,0,1,67.55,13v3.82H65.22l-.44-2.49a4.3,4.3,0,0,0-1.29-.6,6.27,6.27,0,0,0-1.89-.25,4.16,4.16,0,0,0-1.63.3,2.68,2.68,0,0,0-1.11.86,2.18,2.18,0,0,0-.4,1.32,2,2,0,0,0,.35,1.17,3,3,0,0,0,1.19.91,13.63,13.63,0,0,0,2.24.82A10.43,10.43,0,0,1,66.61,21a4.46,4.46,0,0,1,1.49,3.45A4.32,4.32,0,0,1,67.3,27a5.23,5.23,0,0,1-2.24,1.71,8.79,8.79,0,0,1-3.38.61"/><path class="cls-1" d="M77.54,29.36a7.35,7.35,0,0,1-3.19-.67,7,7,0,0,1-2.45-1.87A8.53,8.53,0,0,1,70.34,24a11.19,11.19,0,0,1-.55-3.6V20.1a11.23,11.23,0,0,1,.55-3.6,8.73,8.73,0,0,1,1.56-2.85,7,7,0,0,1,2.45-1.88,7.48,7.48,0,0,1,3.18-.66,7.7,7.7,0,0,1,3.25.66,6.94,6.94,0,0,1,2.45,1.88,8.51,8.51,0,0,1,1.54,2.85,11.52,11.52,0,0,1,.54,3.6v.27a11.47,11.47,0,0,1-.54,3.6,8.32,8.32,0,0,1-1.54,2.85,6.91,6.91,0,0,1-2.45,1.87,7.54,7.54,0,0,1-3.24.67m0-2.44a4.15,4.15,0,0,0,2.65-.82,4.84,4.84,0,0,0,1.54-2.3,10.49,10.49,0,0,0,.51-3.43v-.3a10.24,10.24,0,0,0-.51-3.39,5,5,0,0,0-1.55-2.3,4.15,4.15,0,0,0-2.65-.82,4,4,0,0,0-2.58.82,5,5,0,0,0-1.55,2.3,10,10,0,0,0-.53,3.39v.3a10.25,10.25,0,0,0,.53,3.43A4.94,4.94,0,0,0,75,26.1a4,4,0,0,0,2.58.82"/><polygon class="cls-1" points="86.98 29.1 86.98 27.22 88.9 26.86 88.9 13.62 86.98 13.25 86.98 11.36 88.9 11.36 93.3 11.36 98.5 24.19 98.58 24.19 103.62 11.36 110.02 11.36 110.02 13.25 108.08 13.62 108.08 26.86 110.02 27.22 110.02 29.1 103.08 29.1 103.08 27.22 105.12 26.86 105.12 22.73 105.14 14.97 105.08 14.96 99.59 28.7 97.36 28.7 91.7 15.03 91.64 15.04 91.8 22.52 91.8 26.86 93.91 27.22 93.91 29.1 86.98 29.1"/><path class="cls-1" d="M110.82,29.1V27.22l1.29-.18L118,11.36h3L126.77,27l1.29.18V29.1h-5.64V27.22l1.26-.23-.93-2.79h-6.61l-1,2.79,1.28.23V29.1ZM117,21.85h5l-2.3-6.56-.16-.48h-.07l-.17.5Z"/><polygon class="cls-1" points="129.51 29.1 129.51 27.22 131.44 26.86 131.44 13.62 129.51 13.25 129.51 11.36 136.44 11.36 136.44 13.25 134.51 13.62 134.51 26.86 136.44 27.22 136.44 29.1 129.51 29.1"/><polygon class="cls-1" points="142.71 29.1 142.71 27.22 144.64 26.86 144.64 22.86 139.3 13.49 137.69 13.25 137.69 11.36 144.37 11.36 144.37 13.25 142.68 13.47 145.97 19.68 146.23 20.22 146.28 20.2 146.54 19.7 150.09 13.47 148.08 13.25 148.08 11.36 154.63 11.36 154.63 13.25 152.96 13.49 147.69 22.62 147.69 26.86 149.63 27.22 149.63 29.1 142.71 29.1"/><path class="cls-1" d="M152.76,29.1V27.22l1.29-.18,5.88-15.68h3L168.71,27l1.29.18V29.1h-5.64V27.22l1.27-.23-.94-2.79h-6.6l-1,2.79,1.28.23V29.1Zm6.13-7.25h5l-2.31-6.56-.15-.48h-.08l-.17.5Z"/><path class="cls-1" d="M55.27,39.91V39l.45-.06,1.94-5.51h1.69l1.94,5.51.45.06v.92H59.32V39l.42-.08-.19-.7H57.46l-.19.7.43.08v.92Zm2.52-2.8h1.42l-.63-2-.07-.23h0l-.07.25Z"/><path class="cls-1" d="M70.13,39.91V39l.67-.14V37.77l-1.88-3.34-.68-.09v-.92h2.81v.92l-.4.07.89,1.78.11.22h0l.1-.21,1-1.79-.68-.07v-.92h2.75v.92l-.68.09-1.87,3.21v1.21L73,39v.92Z"/><path class="cls-1" d="M86.26,40a3.62,3.62,0,0,1-1.46-.27,2,2,0,0,1-1-.79,2.25,2.25,0,0,1-.34-1.27V34.48l-.67-.14v-.92h2.91v.92l-.68.14v3.19a1.35,1.35,0,0,0,.14.64.94.94,0,0,0,.4.39,1.6,1.6,0,0,0,.65.12,1.62,1.62,0,0,0,.66-.12.94.94,0,0,0,.4-.39,1.35,1.35,0,0,0,.13-.64V34.48l-.67-.14v-.92h2.91v.92l-.67.14v3.19a2.25,2.25,0,0,1-.35,1.26,2.2,2.2,0,0,1-1,.8A3.54,3.54,0,0,1,86.26,40Z"/><path class="cls-1" d="M97.4,39.91V39l.67-.14V34.48l-.67-.14v-.93h3.19a3.27,3.27,0,0,1,1.34.25,2,2,0,0,1,.87.7,1.9,1.9,0,0,1,.31,1.07,2,2,0,0,1-.31,1.06,2.31,2.31,0,0,1-.85.79,2.6,2.6,0,0,1-1.23.29l-1.09,0v1.3l.68.14v.92Zm2.23-3.56h1a1.06,1.06,0,0,0,.7-.21.76.76,0,0,0,.24-.61.9.9,0,0,0-.25-.67,1,1,0,0,0-.71-.25h-1Zm1.88,3.56-.88-2.53,1.36-.47.79,1.93.62.16v.91Z"/><path class="cls-1" d="M113.3,39.91l-2-5.5-.62-.07v-.92h2.91v.92l-.58.09,1.17,3.64.06.26h0l.05-.25,1.13-3.65-.69-.09v-.92h2.72v.92l-.64.07L115,39.91Z"/><path class="cls-1" d="M125.14,39.91V39l.67-.14V34.48l-.67-.14v-.92h2.91v.92l-.68.14v4.37l.68.14v.92Z"/><path class="cls-1" d="M135.86,39.91V39l.67-.14V34.48l-.67-.14v-.92h2.91v.92l-.67.14v1.64h2.36V34.48l-.67-.14v-.92h2.9v.92l-.67.14v4.37l.67.14v.92h-2.9V39l.67-.14V37.32H138.1v1.53l.67.14v.92Z"/><path class="cls-1" d="M149.74,39.91V39l.46-.06,1.93-5.51h1.69l1.94,5.51.46.06v.92h-2.43V39l.43-.08-.2-.7h-2.09l-.18.7.42.08v.92Zm2.52-2.8h1.43l-.64-2-.07-.23h0l-.08.25Z"/><path class="cls-1" d="M164,39.91V39l.67-.14V34.48l-.67-.14v-.93h3.19a3.27,3.27,0,0,1,1.34.25,2,2,0,0,1,.87.7,1.9,1.9,0,0,1,.31,1.07,2,2,0,0,1-.31,1.06,2.31,2.31,0,0,1-.85.79,2.6,2.6,0,0,1-1.23.29l-1.09,0v1.3l.68.14v.92Zm2.23-3.56h1a1.06,1.06,0,0,0,.7-.21.76.76,0,0,0,.24-.61.9.9,0,0,0-.25-.67,1,1,0,0,0-.71-.25h-1Zm1.88,3.56-.88-2.53,1.36-.47.79,1.93L170,39v.91Z"/><path class="cls-2" d="M16.61,19.59V9.85c.23-2,1.36-3.48,3.45-3.48H32.42V9.71H19.65v9.88Z"/><path class="cls-1" d="M15.88,19.59H13.54V11.5c0-5.41,2.51-8.15,7.46-8.15H32.42V5.69H21c-3.64,0-5.12,1.68-5.12,5.81Z"/><path class="cls-1" d="M11.79,19.59l-.06-8.3c0-1.82.31-5.21,2.62-7.53a8.6,8.6,0,0,1,6.33-2.33h.08l11.62.07V2.67L20.75,2.61h-.07a7.43,7.43,0,0,0-5.5,2c-2,2-2.29,5.06-2.28,6.69l.06,8.3Z"/><path class="cls-1" d="M10.56,19.59,10.49,9.52A9.45,9.45,0,0,1,13.2,2.87,10.46,10.46,0,0,1,20.8,0h.08L32.42.06V.77L20.87.7H20.8a9.74,9.74,0,0,0-7.1,2.67,8.67,8.67,0,0,0-2.5,6.15l.06,10.06Z"/><path class="cls-2" d="M6.47,16.61V27.76c0,2.42,1,4.72,3.37,4.72h1.25V29.3H9.78V16.61Z"/><path class="cls-1" d="M11.36,35.67h-.55c-7.28,0-7.28-7.37-7.28-9.8V16.61H5.87v9.26c0,5.3,1.43,7.46,4.94,7.46h.55Z"/><path class="cls-1" d="M11.31,37.51l-.77,0a8.18,8.18,0,0,1-7.29-3.94,14.72,14.72,0,0,1-1.7-7.44l.07-9.5H2.79l-.07,9.5C2.67,34.38,7,36.23,10.57,36.32l.77,0Z"/><path class="cls-1" d="M9.64,39a8.58,8.58,0,0,1-5.78-2.26A12,12,0,0,1,0,28.13L.06,16.61H.77L.7,28.13a11.28,11.28,0,0,0,3.63,8.12,7.82,7.82,0,0,0,6.3,2l.6-.07.08.7-.59.07A9.77,9.77,0,0,1,9.64,39Z"/><path class="cls-2" d="M43.09,32.05V19.73c-.23-2-1.36-3.48-3.45-3.48h-10v3.34h10V32.05Z"/><path class="cls-1" d="M46.16,32.2H43.82V21.37c0-4.12-1.48-5.8-5.12-5.8H29.65V13.23H38.7c4.95,0,7.46,2.74,7.46,8.14Z"/><path class="cls-1" d="M47.91,32.1H46.74l.06-10.93c0-1.64-.28-4.7-2.29-6.71a7.48,7.48,0,0,0-5.56-2l-9.26.07V11.38l9.26-.07a8.66,8.66,0,0,1,6.4,2.31C47.65,15.94,48,19.34,48,21.17Z"/><path class="cls-1" d="M49.14,32.14h-.7L48.5,19.4A8.71,8.71,0,0,0,46,13.23a9.79,9.79,0,0,0-7.16-2.65l-9.18.06v-.7l9.17-.06a10.4,10.4,0,0,1,7.66,2.86,9.35,9.35,0,0,1,2.73,6.66Z"/><path class="cls-1" d="M27.32,49.26H27.2l-10.52-.07v-.8l10.52.06h.11c4.54,0,7.17-1.67,8.58-3.08a8,8,0,0,0,2.41-5.68l-.07-10.61H39l.07,10.61a8.72,8.72,0,0,1-2.64,6.26C35,47.46,32.14,49.26,27.32,49.26Z"/><rect class="cls-1" x="10.3" y="19.63" width="28.86" height="9.57"/><rect class="cls-1" x="19.56" y="10.04" width="10.15" height="19.17"/><ellipse class="cls-1" cx="24.76" cy="34.9" rx="11.99" ry="12.08"/><g class="cls-3"><polygon class="cls-2" points="36.75 22.82 24.76 22.82 36.75 22.82 36.75 22.82"/><polygon class="cls-2" points="36.75 22.98 12.77 22.98 12.77 22.82 24.76 22.82 36.75 22.82 36.75 22.98"/><rect class="cls-1" x="12.77" y="22.98" width="23.98" height="0.16"/><rect class="cls-1" x="12.77" y="23.14" width="23.98" height="0.16"/><rect class="cls-1" x="12.77" y="23.3" width="23.98" height="0.16"/><rect class="cls-1" x="12.77" y="23.45" width="23.98" height="0.16"/><rect class="cls-1" x="12.77" y="23.61" width="23.98" height="0.16"/><rect class="cls-1" x="12.77" y="23.77" width="23.98" height="0.16"/><rect class="cls-1" x="12.77" y="23.93" width="23.98" height="0.16"/><rect class="cls-1" x="12.77" y="24.09" width="23.98" height="0.16"/><rect class="cls-1" x="12.77" y="24.24" width="23.98" height="0.16"/><rect class="cls-1" x="12.77" y="24.4" width="23.98" height="0.16"/><rect class="cls-1" x="12.77" y="24.56" width="23.98" height="0.16"/><rect class="cls-1" x="12.77" y="24.72" width="23.98" height="0.16"/><rect class="cls-1" x="12.77" y="24.88" width="23.98" height="0.16"/><rect class="cls-1" x="12.77" y="25.03" width="23.98" height="0.16"/><rect class="cls-1" x="12.77" y="25.19" width="23.98" height="0.16"/><rect class="cls-1" x="12.77" y="25.35" width="23.98" height="0.16"/><rect class="cls-1" x="12.77" y="25.51" width="23.98" height="0.16"/><rect class="cls-1" x="12.77" y="25.66" width="23.98" height="0.16"/><rect class="cls-1" x="12.77" y="25.82" width="23.98" height="0.16"/><rect class="cls-1" x="12.77" y="25.98" width="23.98" height="0.16"/><rect class="cls-1" x="12.77" y="26.14" width="23.98" height="0.16"/><rect class="cls-1" x="12.77" y="26.3" width="23.98" height="0.16"/><rect class="cls-1" x="12.77" y="26.45" width="23.98" height="0.16"/><rect class="cls-1" x="12.77" y="26.61" width="23.98" height="0.16"/><rect class="cls-1" x="12.77" y="26.77" width="23.98" height="0.16"/><rect class="cls-1" x="12.77" y="26.93" width="23.98" height="0.16"/><rect class="cls-1" x="12.77" y="27.09" width="23.98" height="0.16"/><rect class="cls-1" x="12.77" y="27.24" width="23.98" height="0.16"/><rect class="cls-1" x="12.77" y="27.4" width="23.98" height="0.16"/><rect class="cls-1" x="12.77" y="27.56" width="23.98" height="0.16"/><rect class="cls-1" x="12.77" y="27.72" width="23.98" height="0.16"/><rect class="cls-1" x="12.77" y="27.88" width="23.98" height="0.16"/><rect class="cls-1" x="12.77" y="28.03" width="23.98" height="0.16"/><rect class="cls-1" x="12.77" y="28.19" width="23.98" height="0.16"/><rect class="cls-1" x="12.77" y="28.35" width="23.98" height="0.16"/><rect class="cls-1" x="12.77" y="28.51" width="23.98" height="0.16"/><rect class="cls-1" x="12.77" y="28.67" width="23.98" height="0.16"/><rect class="cls-1" x="12.77" y="28.82" width="23.98" height="0.16"/><rect class="cls-1" x="12.77" y="28.98" width="23.98" height="0.16"/><rect class="cls-1" x="12.77" y="29.14" width="23.98" height="0.16"/><rect class="cls-1" x="12.77" y="29.3" width="23.98" height="0.16"/><rect class="cls-1" x="12.77" y="29.46" width="23.98" height="0.16"/><rect class="cls-1" x="12.77" y="29.61" width="23.98" height="0.16"/><rect class="cls-1" x="12.77" y="29.77" width="23.98" height="0.16"/><rect class="cls-1" x="12.77" y="29.93" width="23.98" height="0.16"/><rect class="cls-1" x="12.77" y="30.09" width="23.98" height="0.16"/><rect class="cls-1" x="12.77" y="30.24" width="23.98" height="0.16"/><rect class="cls-1" x="12.77" y="30.4" width="23.98" height="0.16"/><rect class="cls-1" x="12.77" y="30.56" width="23.98" height="0.16"/><rect class="cls-1" x="12.77" y="30.72" width="23.98" height="0.16"/><rect class="cls-1" x="12.77" y="30.88" width="23.98" height="0.16"/><rect class="cls-1" x="12.77" y="31.03" width="23.98" height="0.16"/><rect class="cls-1" x="12.77" y="31.19" width="23.98" height="0.16"/><rect class="cls-1" x="12.77" y="31.35" width="23.98" height="0.16"/><rect class="cls-1" x="12.77" y="31.51" width="23.98" height="0.16"/><rect class="cls-1" x="12.77" y="31.67" width="23.98" height="0.16"/><rect class="cls-1" x="12.77" y="31.82" width="23.98" height="0.16"/><rect class="cls-1" x="12.77" y="31.98" width="23.98" height="0.16"/><rect class="cls-1" x="12.77" y="32.14" width="23.98" height="0.16"/><rect class="cls-1" x="12.77" y="32.3" width="23.98" height="0.16"/><rect class="cls-1" x="12.77" y="32.46" width="23.98" height="0.16"/><rect class="cls-1" x="12.77" y="32.61" width="23.98" height="0.16"/><rect class="cls-1" x="12.77" y="32.77" width="23.98" height="0.16"/><rect class="cls-1" x="12.77" y="32.93" width="23.98" height="0.16"/><rect class="cls-1" x="12.77" y="33.09" width="23.98" height="0.16"/><rect class="cls-1" x="12.77" y="33.25" width="23.98" height="0.16"/><rect class="cls-1" x="12.77" y="33.4" width="23.98" height="0.16"/><rect class="cls-1" x="12.77" y="33.56" width="23.98" height="0.16"/><rect class="cls-1" x="12.77" y="33.72" width="23.98" height="0.16"/><rect class="cls-1" x="12.77" y="33.88" width="23.98" height="0.16"/><rect class="cls-1" x="12.77" y="34.04" width="23.98" height="0.16"/><rect class="cls-1" x="12.77" y="34.19" width="23.98" height="0.16"/><rect class="cls-1" x="12.77" y="34.35" width="23.98" height="0.16"/><rect class="cls-1" x="12.77" y="34.51" width="23.98" height="0.16"/><rect class="cls-1" x="12.77" y="34.67" width="23.98" height="0.16"/><rect class="cls-1" x="12.77" y="34.82" width="23.98" height="0.16"/><rect class="cls-1" x="12.77" y="34.98" width="23.98" height="0.16"/><rect class="cls-1" x="12.77" y="35.14" width="23.98" height="0.16"/><rect class="cls-1" x="12.77" y="35.3" width="23.98" height="0.16"/><rect class="cls-1" x="12.77" y="35.46" width="23.98" height="0.16"/><rect class="cls-1" x="12.77" y="35.61" width="23.98" height="0.16"/><rect class="cls-1" x="12.77" y="35.77" width="23.98" height="0.16"/><rect class="cls-1" x="12.77" y="35.93" width="23.98" height="0.16"/><rect class="cls-1" x="12.77" y="36.09" width="23.98" height="0.16"/><rect class="cls-1" x="12.77" y="36.25" width="23.98" height="0.16"/><rect class="cls-1" x="12.77" y="36.4" width="23.98" height="0.16"/><rect class="cls-1" x="12.77" y="36.56" width="23.98" height="0.16"/><rect class="cls-1" x="12.77" y="36.72" width="23.98" height="0.16"/><rect class="cls-1" x="12.77" y="36.88" width="23.98" height="0.16"/><rect class="cls-1" x="12.77" y="37.04" width="23.98" height="0.16"/><rect class="cls-1" x="12.77" y="37.19" width="23.98" height="0.16"/><rect class="cls-1" x="12.77" y="37.35" width="23.98" height="0.16"/><rect class="cls-1" x="12.77" y="37.51" width="23.98" height="0.16"/><rect class="cls-1" x="12.77" y="37.67" width="23.98" height="0.16"/><rect class="cls-1" x="12.77" y="37.83" width="23.98" height="0.16"/><rect class="cls-1" x="12.77" y="37.98" width="23.98" height="0.16"/><rect class="cls-1" x="12.77" y="38.14" width="23.98" height="0.16"/><rect class="cls-1" x="12.77" y="38.3" width="23.98" height="0.16"/><rect class="cls-1" x="12.77" y="38.46" width="23.98" height="0.16"/><rect class="cls-1" x="12.77" y="38.62" width="23.98" height="0.16"/><rect class="cls-1" x="12.77" y="38.77" width="23.98" height="0.16"/><rect class="cls-1" x="12.77" y="38.93" width="23.98" height="0.16"/><rect class="cls-1" x="12.77" y="39.09" width="23.98" height="0.16"/><rect class="cls-1" x="12.77" y="39.25" width="23.98" height="0.16"/><rect class="cls-1" x="12.77" y="39.4" width="23.98" height="0.16"/><rect class="cls-1" x="12.77" y="39.56" width="23.98" height="0.16"/><rect class="cls-1" x="12.77" y="39.72" width="23.98" height="0.16"/><rect class="cls-1" x="12.77" y="39.88" width="23.98" height="0.16"/><rect class="cls-1" x="12.77" y="40.04" width="23.98" height="0.16"/><rect class="cls-1" x="12.77" y="40.19" width="23.98" height="0.16"/><rect class="cls-1" x="12.77" y="40.35" width="23.98" height="0.16"/><rect class="cls-1" x="12.77" y="40.51" width="23.98" height="0.16"/><rect class="cls-1" x="12.77" y="40.67" width="23.98" height="0.16"/><rect class="cls-1" x="12.77" y="40.83" width="23.98" height="0.16"/><rect class="cls-1" x="12.77" y="40.98" width="23.98" height="0.16"/><rect class="cls-1" x="12.77" y="41.14" width="23.98" height="0.16"/><rect class="cls-1" x="12.77" y="41.3" width="23.98" height="0.16"/><rect class="cls-1" x="12.77" y="41.46" width="23.98" height="0.16"/><rect class="cls-1" x="12.77" y="41.62" width="23.98" height="0.16"/><rect class="cls-1" x="12.77" y="41.77" width="23.98" height="0.16"/><rect class="cls-1" x="12.77" y="41.93" width="23.98" height="0.16"/><rect class="cls-1" x="12.77" y="42.09" width="23.98" height="0.16"/><rect class="cls-1" x="12.77" y="42.25" width="23.98" height="0.16"/><rect class="cls-1" x="12.77" y="42.41" width="23.98" height="0.16"/><rect class="cls-1" x="12.77" y="42.56" width="23.98" height="0.16"/><rect class="cls-1" x="12.77" y="42.72" width="23.98" height="0.16"/><rect class="cls-1" x="12.77" y="42.88" width="23.98" height="0.16"/><rect class="cls-1" x="12.77" y="43.04" width="23.98" height="0.16"/><rect class="cls-1" x="12.77" y="43.2" width="23.98" height="0.16"/><rect class="cls-1" x="12.77" y="43.35" width="23.98" height="0.16"/><rect class="cls-1" x="12.77" y="43.51" width="23.98" height="0.16"/><rect class="cls-1" x="12.77" y="43.67" width="23.98" height="0.16"/><rect class="cls-1" x="12.77" y="43.83" width="23.98" height="0.16"/><rect class="cls-1" x="12.77" y="43.98" width="23.98" height="0.16"/><rect class="cls-1" x="12.77" y="44.14" width="23.98" height="0.16"/><rect class="cls-1" x="12.77" y="44.3" width="23.98" height="0.16"/><rect class="cls-1" x="12.77" y="44.46" width="23.98" height="0.16"/><rect class="cls-1" x="12.77" y="44.62" width="23.98" height="0.16"/><rect class="cls-1" x="12.77" y="44.77" width="23.98" height="0.16"/><rect class="cls-1" x="12.77" y="44.93" width="23.98" height="0.16"/><rect class="cls-1" x="12.77" y="45.09" width="23.98" height="0.16"/><rect class="cls-1" x="12.77" y="45.25" width="23.98" height="0.16"/><rect class="cls-1" x="12.77" y="45.41" width="23.98" height="0.16"/><rect class="cls-1" x="12.77" y="45.56" width="23.98" height="0.16"/><rect class="cls-1" x="12.77" y="45.72" width="23.98" height="0.16"/><rect class="cls-1" x="12.77" y="45.88" width="23.98" height="0.16"/><rect class="cls-1" x="12.77" y="46.04" width="23.98" height="0.16"/><rect class="cls-1" x="12.77" y="46.2" width="23.98" height="0.16"/><rect class="cls-1" x="12.77" y="46.35" width="23.98" height="0.16"/><rect class="cls-1" x="12.77" y="46.51" width="23.98" height="0.16"/><rect class="cls-1" x="12.77" y="46.67" width="23.98" height="0.16"/><polygon class="cls-2" points="24.76 46.98 12.77 46.98 12.77 46.83 36.75 46.83 36.75 46.98 24.76 46.98"/><polygon class="cls-2" points="12.77 46.98 24.76 46.98 12.77 46.98 12.77 46.98"/></g></g></g></svg>