<svg xmlns="http://www.w3.org/2000/svg" width="140.403" height="35.358" viewBox="0 0 140.403 35.358">
    <defs>
        <style>
            .cls-1{fill:#58595b}
        </style>
    </defs>
    <g id="Group_4842" data-name="Group 4842" transform="translate(-1591.373 1029.67)">
        <g id="Group_4840" data-name="Group 4840" transform="translate(1591.373 -1029.67)">
            <g id="Group_4833" data-name="Group 4833" transform="translate(0 .014)">
                <path id="Path_9387" d="M1599.215-1007.335a14.8 14.8 0 0 1-4.129-.552 12.276 12.276 0 0 1-3.713-1.834v-4.993h2.907l.476 3.234a6.443 6.443 0 0 0 1.946.91 8.781 8.781 0 0 0 2.512.344 5.745 5.745 0 0 0 2.228-.38 3.088 3.088 0 0 0 1.38-1.067 2.775 2.775 0 0 0 .477-1.623 2.858 2.858 0 0 0-.417-1.536 3.625 3.625 0 0 0-1.387-1.2 12.347 12.347 0 0 0-2.624-.977 18.574 18.574 0 0 1-4.062-1.55 6.741 6.741 0 0 1-2.461-2.148 5.227 5.227 0 0 1-.827-2.95 5.22 5.22 0 0 1 .947-3.087 6.412 6.412 0 0 1 2.631-2.116 9.372 9.372 0 0 1 3.891-.79 12.335 12.335 0 0 1 4.272.627 10.2 10.2 0 0 1 3.138 1.714v4.666h-2.847l-.537-3.041a5.714 5.714 0 0 0-1.587-.739 7.8 7.8 0 0 0-2.3-.3 5.015 5.015 0 0 0-2 .373 3.18 3.18 0 0 0-1.357 1.052 2.676 2.676 0 0 0-.492 1.617 2.4 2.4 0 0 0 .433 1.43 3.745 3.745 0 0 0 1.445 1.111 17.487 17.487 0 0 0 2.742 1.006 12.741 12.741 0 0 1 5.352 2.6 5.448 5.448 0 0 1 1.819 4.218 5.241 5.241 0 0 1-.976 3.154 6.323 6.323 0 0 1-2.744 2.094 10.579 10.579 0 0 1-4.137.747" class="cls-1" data-name="Path 9387" transform="translate(-1591.373 1029.653)"/>
            </g>
            <g id="Group_4834" data-name="Group 4834" transform="translate(17.771)">
                <path id="Path_9388" d="M1622.013-1007.337a9.129 9.129 0 0 1-3.9-.813 8.626 8.626 0 0 1-2.99-2.288 10.512 10.512 0 0 1-1.916-3.49 13.883 13.883 0 0 1-.671-4.413v-.328a13.835 13.835 0 0 1 .671-4.4 10.574 10.574 0 0 1 1.916-3.5 8.558 8.558 0 0 1 2.99-2.3 9.091 9.091 0 0 1 3.889-.813 9.387 9.387 0 0 1 3.981.813 8.48 8.48 0 0 1 3 2.3 10.454 10.454 0 0 1 1.892 3.5 14.109 14.109 0 0 1 .656 4.4v.328a14.157 14.157 0 0 1-.656 4.413 10.393 10.393 0 0 1-1.892 3.49 8.546 8.546 0 0 1-3 2.288 9.351 9.351 0 0 1-3.966.813m0-2.982a5.073 5.073 0 0 0 3.243-1.006 5.92 5.92 0 0 0 1.894-2.81 12.987 12.987 0 0 0 .618-4.2v-.358a12.55 12.55 0 0 0-.626-4.158 6.009 6.009 0 0 0-1.9-2.8 5.05 5.05 0 0 0-3.244-1.015 4.874 4.874 0 0 0-3.145 1.015 6.142 6.142 0 0 0-1.908 2.8 12.321 12.321 0 0 0-.641 4.158v.358a12.589 12.589 0 0 0 .641 4.2 6.056 6.056 0 0 0 1.916 2.817 4.929 4.929 0 0 0 3.153 1.006" class="cls-1" data-name="Path 9388" transform="translate(-1612.532 1029.67)"/>
            </g>
            <g id="Group_4835" data-name="Group 4835" transform="translate(38.805 .313)">
                <path id="Path_9389" d="M1637.577-1007.591v-2.3l2.355-.447v-16.2l-2.355-.447v-2.311h7.738l6.365 15.7h.09l6.172-15.7h7.826v2.311l-2.37.447v16.2l2.37.447v2.3h-8.482v-2.3l2.49-.447v-5.053l.03-9.5-.075-.014-6.724 16.815h-2.728l-6.918-16.727-.073.016.194 9.153v5.307l2.578.447v2.3z" class="cls-1" data-name="Path 9389" transform="translate(-1637.577 1029.297)"/>
            </g>
            <g id="Group_4836" data-name="Group 4836" transform="translate(67.98 .313)">
                <path id="Path_9390" d="M1672.315-1007.591v-2.3l1.581-.223 7.184-19.187h3.654l7.1 19.187 1.58.223v2.3h-6.9v-2.3l1.551-.282-1.149-3.414h-8.079l-1.177 3.414 1.565.282v2.3zm7.5-8.871h6.127l-2.818-8.035-.193-.581h-.09l-.209.611z" class="cls-1" data-name="Path 9390" transform="translate(-1672.315 1029.297)"/>
            </g>
            <g id="Group_4837" data-name="Group 4837" transform="translate(90.85 .313)">
                <path id="Path_9391" d="M1699.545-1007.591v-2.3l2.37-.447v-16.2l-2.37-.447v-2.311h8.482v2.311l-2.355.447v16.2l2.355.447v2.3z" class="cls-1" data-name="Path 9391" transform="translate(-1699.545 1029.297)"/>
            </g>
            <g id="Group_4838" data-name="Group 4838" transform="translate(100.867 .313)">
                <path id="Path_9392" d="M1717.615-1007.591v-2.3l2.355-.447v-4.889l-6.53-11.465-1.968-.3v-2.311h8.169v2.311l-2.072.268 4.026 7.6.328.656.059-.029.313-.612 4.354-7.618-2.46-.268v-2.311h8.005v2.311l-2.042.3-6.44 11.167v5.187l2.37.447v2.3z" class="cls-1" data-name="Path 9392" transform="translate(-1711.472 1029.297)"/>
            </g>
            <g id="Group_4839" data-name="Group 4839" transform="translate(119.308 .313)">
                <path id="Path_9393" d="M1733.43-1007.591v-2.3l1.581-.223 7.185-19.187h3.653l7.1 19.187 1.58.223v2.3h-6.9v-2.3l1.55-.282-1.148-3.414h-8.08l-1.177 3.414 1.565.282v2.3zm7.5-8.871h6.127l-2.818-8.035-.193-.581h-.09l-.209.611z" class="cls-1" data-name="Path 9393" transform="translate(-1733.43 1029.297)"/>
            </g>
        </g>
        <g id="Group_4841" data-name="Group 4841" transform="translate(1591.373 -1002.374)">
            <path id="Path_9394" d="M1591.373-989.22v-1.119l.556-.082 2.368-6.742h2.073l2.373 6.742.556.082v1.119h-2.967v-1.119l.518-.1-.239-.862h-2.553l-.229.862.518.1v1.119zm3.087-3.421h1.739l-.774-2.4-.087-.279h-.034l-.093.306z" class="cls-1" data-name="Path 9394" transform="translate(-1591.373 997.168)"/>
            <path id="Path_9395" d="M1612.587-989.22v-1.119l.824-.174v-1.325l-2.3-4.086-.829-.114v-1.124h3.436v1.124l-.49.087 1.091 2.176.125.278h.049l.131-.262 1.276-2.192-.829-.087v-1.124h3.371v1.124l-.841.114-2.279 3.932v1.479l.829.174v1.119z" class="cls-1" data-name="Path 9395" transform="translate(-1594.401 997.168)"/>
            <path id="Path_9396" d="M1635.726-989.106a4.459 4.459 0 0 1-1.786-.33 2.59 2.59 0 0 1-1.176-.967 2.807 2.807 0 0 1-.414-1.561v-3.9l-.818-.174v-1.124h3.556v1.124l-.824.174v3.9a1.655 1.655 0 0 0 .17.794 1.055 1.055 0 0 0 .494.466 1.829 1.829 0 0 0 .788.153 1.876 1.876 0 0 0 .8-.153 1.045 1.045 0 0 0 .491-.466 1.686 1.686 0 0 0 .166-.794v-3.9l-.818-.174v-1.124h3.557v1.124l-.824.174v3.9a2.733 2.733 0 0 1-.425 1.546 2.694 2.694 0 0 1-1.182.977 4.3 4.3 0 0 1-1.755.335z" class="cls-1" data-name="Path 9396" transform="translate(-1597.804 997.168)"/>
            <path id="Path_9397" d="M1652.757-989.221v-1.119l.824-.174v-5.352l-.824-.174v-1.13h3.905a4.1 4.1 0 0 1 1.637.3 2.417 2.417 0 0 1 1.069.854 2.274 2.274 0 0 1 .376 1.312 2.383 2.383 0 0 1-.38 1.3 2.783 2.783 0 0 1-1.039.963 3.033 3.033 0 0 1-1.505.357l-1.326-.016v1.587l.824.174v1.119zm2.738-4.348h1.189a1.271 1.271 0 0 0 .857-.259.937.937 0 0 0 .3-.75 1.11 1.11 0 0 0-.3-.815 1.175 1.175 0 0 0-.874-.308h-1.167zm2.291 4.348l-1.069-3.1 1.664-.568.966 2.362.752.191v1.113z" class="cls-1" data-name="Path 9397" transform="translate(-1601.203 997.169)"/>
            <path id="Path_9398" d="M1675.313-989.22l-2.487-6.731-.752-.087v-1.124h3.562v1.124l-.709.108 1.423 4.462.077.311h.032l.071-.295 1.38-4.478-.851-.108v-1.124h3.327v1.124l-.774.087-2.225 6.731z" class="cls-1" data-name="Path 9398" transform="translate(-1604.297 997.168)"/>
            <path id="Path_9399" d="M1693.182-989.22v-1.119l.824-.174v-5.352l-.824-.174v-1.124h3.557v1.124l-.824.174v5.352l.824.174v1.119z" class="cls-1" data-name="Path 9399" transform="translate(-1607.677 997.168)"/>
            <path id="Path_9400" d="M1708.8-989.22v-1.119l.823-.174v-5.352l-.823-.174v-1.124h3.562v1.124l-.824.174v2.007h2.891v-2.007l-.824-.174v-1.124h3.557v1.124l-.824.174v5.352l.824.174v1.119h-3.557v-1.119l.824-.174v-1.877h-2.891v1.877l.824.174v1.119z" class="cls-1" data-name="Path 9400" transform="translate(-1610.178 997.168)"/>
            <path id="Path_9401" d="M1729.029-989.22v-1.119l.557-.082 2.367-6.742h2.073l2.373 6.742.557.082v1.119h-2.968v-1.119l.519-.1-.24-.862h-2.553l-.229.862.519.1v1.119zm3.087-3.421h1.74l-.774-2.4-.087-.279h-.033l-.093.306z" class="cls-1" data-name="Path 9401" transform="translate(-1613.417 997.168)"/>
            <path id="Path_9402" d="M1749.742-989.221v-1.119l.823-.174v-5.352l-.823-.174v-1.13h3.9a4.1 4.1 0 0 1 1.637.3 2.416 2.416 0 0 1 1.069.854 2.274 2.274 0 0 1 .376 1.312 2.389 2.389 0 0 1-.379 1.3 2.792 2.792 0 0 1-1.04.963 3.033 3.033 0 0 1-1.505.357l-1.325-.016v1.587l.824.174v1.119zm2.738-4.348h1.189a1.27 1.27 0 0 0 .856-.259.935.935 0 0 0 .3-.75 1.109 1.109 0 0 0-.3-.815 1.175 1.175 0 0 0-.873-.308h-1.167zm2.29 4.348l-1.068-3.1 1.663-.568.966 2.362.753.191v1.113z" class="cls-1" data-name="Path 9402" transform="translate(-1616.734 997.169)"/>
        </g>
    </g>
</svg>
