<svg xmlns="http://www.w3.org/2000/svg" width="251.812" height="402.508" viewBox="0 0 251.812 402.508"><defs><style>.a{fill:#e0e0e0;}.b{fill:#e6e6e6;}.c{fill:#f5f5f5;}.d{fill:#f0f0f0;}.e{fill:#ebebeb;}.f{fill:#fafafa;}.g,.m{fill:#263238;}.aa,.h,.i,.j,.u,.x{fill:#fff;}.h,.m,.t,.v{opacity:0.2;}.i{opacity:0.1;}.j{opacity:0.3;}.k{fill:#ff8b7b;}.l{fill:#407bff;}.n{fill:#494949;}.o{fill:#282828;}.p{fill:#b7202e;}.q{fill:#9c2531;}.r{fill:#ce7a63;}.s{fill:#2d2d2d;}.u{opacity:0.8;}.v{isolation:isolate;}.w{fill:#ba4d3c;}.x{opacity:0.5;}.y{fill:#20252d;}.z{fill:#a7aaaf;}.aa{opacity:0.9;}.ab{fill:#353d4c;}</style></defs><g transform="translate(-937.188 -1989)"><g transform="translate(726.566 1947.794)"><g transform="translate(210.622 127.206)"><g transform="translate(126.139 12.449)"><rect class="a" width="90.284" height="227.468" transform="translate(18.661 1.995)"/><path class="b" d="M430.851,138.868V370.327h16.634V138.868Z" transform="translate(-321.906 -138.868)"/><path class="b" d="M331.436,138.868V370.327H348.07V138.868Z" transform="translate(-328.612 -138.868)"/><path class="c" d="M328.79,138.868V370.327H439.73V138.868Zm106.95,3.991v41.5H332.781v-41.5ZM332.781,275.349v-41.5H435.74v41.5Zm102.959,3.99v41.5H332.781v-41.5ZM332.781,229.855v-41.5H435.74v41.5Zm0,136.481v-41.5H435.74v41.5Z" transform="translate(-328.79 -138.868)"/><g transform="translate(13.891 13.671)"><rect class="b" width="3.837" height="32.204" transform="translate(60.928 32.204) rotate(180)"/><rect class="a" width="3.837" height="32.204" transform="translate(64.765 32.204) rotate(180)"/><rect class="b" width="7.675" height="29.94" transform="translate(57.091 32.204) rotate(180)"/><rect class="d" width="4.959" height="32.204" transform="translate(45.578 32.204) rotate(180)"/><rect class="e" width="3.837" height="32.204" transform="translate(49.415 32.204) rotate(180)"/><rect class="b" width="4.96" height="32.204" transform="translate(16.472 32.204) rotate(180)"/><rect class="e" width="3.837" height="32.204" transform="translate(20.309 32.204) rotate(180)"/><rect class="b" width="4.96" height="32.204" transform="translate(32.944 32.204) rotate(180)"/><rect class="a" width="3.837" height="32.204" transform="translate(36.781 32.204) rotate(180)"/><rect class="e" width="7.675" height="31.441" transform="translate(11.512 32.204) rotate(180)"/><rect class="a" width="3.837" height="31.441" transform="translate(3.837 32.204) rotate(180)"/><rect class="a" width="5.117" height="31.441" transform="translate(27.984 32.204) rotate(180)"/><rect class="d" width="2.558" height="31.441" transform="translate(22.867 32.204) rotate(180)"/><rect class="c" width="7.675" height="29.94" transform="translate(40.619 32.204) rotate(180)"/><rect class="e" width="4.96" height="32.204" transform="translate(81.237 32.204) rotate(180)"/><rect class="b" width="3.837" height="32.204" transform="translate(85.075 32.204) rotate(180)"/><rect class="a" width="7.675" height="31.441" transform="translate(76.278 32.204) rotate(180)"/><rect class="e" width="3.837" height="31.441" transform="translate(68.603 32.204) rotate(180)"/><rect class="e" width="5.117" height="31.441" transform="translate(92.749 32.204) rotate(180)"/><rect class="f" width="2.558" height="31.441" transform="translate(87.633 32.204) rotate(180)"/></g><g transform="translate(13.891 58.766)"><rect class="b" width="3.837" height="32.204" transform="translate(31.822)"/><rect class="a" width="3.837" height="32.204" transform="translate(27.984)"/><rect class="b" width="7.675" height="29.941" transform="translate(35.659 2.263)"/><rect class="d" width="4.959" height="32.204" transform="translate(47.171)"/><rect class="e" width="3.837" height="32.204" transform="translate(43.334)"/><rect class="b" width="4.96" height="32.204" transform="translate(76.277)"/><rect class="e" width="3.837" height="32.204" transform="translate(72.44)"/><rect class="b" width="4.96" height="32.204" transform="translate(59.806)"/><rect class="a" width="3.837" height="32.204" transform="translate(55.968)"/><rect class="e" width="7.675" height="31.441" transform="translate(81.237 0.763)"/><rect class="a" width="3.837" height="31.441" transform="translate(88.912 0.763)"/><rect class="a" width="5.117" height="31.441" transform="translate(64.765 0.763)"/><rect class="d" width="2.558" height="31.441" transform="translate(69.882 0.763)"/><rect class="c" width="7.675" height="29.941" transform="translate(52.131 2.263)"/><rect class="e" width="4.96" height="32.204" transform="translate(11.512)"/><rect class="b" width="3.837" height="32.204" transform="translate(7.675)"/><rect class="a" width="7.675" height="31.441" transform="translate(16.472 0.763)"/><rect class="e" width="3.837" height="31.441" transform="translate(24.147 0.763)"/><rect class="e" width="5.117" height="31.441" transform="translate(0 0.763)"/><rect class="f" width="2.558" height="31.441" transform="translate(5.117 0.763)"/></g><g transform="translate(13.891 104.659)"><rect class="b" width="3.837" height="32.204" transform="translate(31.822)"/><rect class="a" width="3.837" height="32.204" transform="translate(27.984)"/><rect class="b" width="7.675" height="29.941" transform="translate(35.659 2.263)"/><rect class="d" width="4.959" height="32.204" transform="translate(47.171)"/><rect class="e" width="3.837" height="32.204" transform="translate(43.334)"/><rect class="b" width="4.96" height="32.204" transform="translate(76.277)"/><rect class="e" width="3.837" height="32.204" transform="translate(72.44)"/><rect class="b" width="4.96" height="32.204" transform="translate(59.806)"/><rect class="a" width="3.837" height="32.204" transform="translate(55.968)"/><rect class="e" width="7.675" height="31.441" transform="translate(81.237 0.763)"/><rect class="a" width="3.837" height="31.441" transform="translate(88.912 0.763)"/><rect class="a" width="5.117" height="31.441" transform="translate(64.765 0.763)"/><rect class="d" width="2.558" height="31.441" transform="translate(69.882 0.763)"/><rect class="c" width="7.675" height="29.941" transform="translate(52.131 2.263)"/><rect class="e" width="4.96" height="32.204" transform="translate(11.512)"/><rect class="b" width="3.837" height="32.204" transform="translate(7.675)"/><rect class="a" width="7.675" height="31.441" transform="translate(16.472 0.763)"/><rect class="e" width="3.837" height="31.441" transform="translate(24.147 0.763)"/><rect class="e" width="5.117" height="31.441" transform="translate(0 0.763)"/><rect class="f" width="2.558" height="31.441" transform="translate(5.117 0.763)"/></g><g transform="translate(13.891 150.552)"><rect class="b" width="3.837" height="32.204" transform="translate(60.928 32.204) rotate(180)"/><rect class="a" width="3.837" height="32.204" transform="translate(64.765 32.204) rotate(180)"/><rect class="b" width="7.675" height="29.94" transform="translate(57.091 29.94) rotate(180)"/><rect class="d" width="4.959" height="32.204" transform="translate(45.578 32.204) rotate(180)"/><rect class="e" width="3.837" height="32.204" transform="translate(49.415 32.204) rotate(180)"/><rect class="b" width="4.96" height="32.204" transform="translate(16.472 32.204) rotate(180)"/><rect class="e" width="3.837" height="32.204" transform="translate(20.309 32.204) rotate(180)"/><rect class="b" width="4.96" height="32.204" transform="translate(32.944 32.204) rotate(180)"/><rect class="a" width="3.837" height="32.204" transform="translate(36.781 32.204) rotate(180)"/><rect class="e" width="7.675" height="31.441" transform="translate(11.512 31.441) rotate(180)"/><rect class="a" width="3.837" height="31.441" transform="translate(3.837 31.441) rotate(180)"/><rect class="a" width="5.117" height="31.441" transform="translate(27.984 31.441) rotate(180)"/><rect class="d" width="2.558" height="31.441" transform="translate(22.867 31.441) rotate(180)"/><rect class="c" width="7.675" height="29.94" transform="translate(40.619 29.94) rotate(180)"/><rect class="e" width="4.96" height="32.204" transform="translate(81.237 32.204) rotate(180)"/><rect class="b" width="3.837" height="32.204" transform="translate(85.075 32.204) rotate(180)"/><rect class="a" width="7.675" height="31.441" transform="translate(76.278 31.441) rotate(180)"/><rect class="e" width="3.837" height="31.441" transform="translate(68.603 31.441) rotate(180)"/><rect class="e" width="5.117" height="31.441" transform="translate(92.749 31.441) rotate(180)"/><rect class="f" width="2.558" height="31.441" transform="translate(87.633 31.441) rotate(180)"/></g><g transform="translate(13.891 196.444)"><rect class="b" width="3.837" height="32.204" transform="translate(31.822)"/><rect class="a" width="3.837" height="32.204" transform="translate(27.984)"/><rect class="b" width="7.675" height="29.94" transform="translate(35.659)"/><rect class="d" width="4.959" height="32.204" transform="translate(47.171)"/><rect class="e" width="3.837" height="32.204" transform="translate(43.334)"/><rect class="b" width="4.96" height="32.204" transform="translate(76.277)"/><rect class="e" width="3.837" height="32.204" transform="translate(72.44)"/><rect class="b" width="4.96" height="32.204" transform="translate(59.806)"/><rect class="a" width="3.837" height="32.204" transform="translate(55.968)"/><rect class="e" width="7.675" height="31.441" transform="translate(81.237)"/><rect class="a" width="3.837" height="31.441" transform="translate(88.912)"/><rect class="a" width="5.117" height="31.441" transform="translate(64.765)"/><rect class="d" width="2.558" height="31.441" transform="translate(69.882)"/><rect class="c" width="7.675" height="29.94" transform="translate(52.131)"/><rect class="e" width="4.96" height="32.204" transform="translate(11.512)"/><rect class="b" width="3.837" height="32.204" transform="translate(7.675)"/><rect class="a" width="7.675" height="31.441" transform="translate(16.472)"/><rect class="e" width="3.837" height="31.441" transform="translate(24.147)"/><rect class="e" width="5.117" height="31.441"/><rect class="f" width="2.558" height="31.441" transform="translate(5.117)"/></g></g><rect class="a" width="103.379" height="260.459" transform="translate(21.367 2.285)"/><path class="b" d="M327.486,127.206V392.235h19.047V127.206Z" transform="translate(-202.739 -127.206)"/><path class="b" d="M213.652,127.206V392.235H232.7V127.206Z" transform="translate(-210.418 -127.206)"/><path class="c" d="M210.622,127.206V392.235H337.653V127.206Zm122.461,4.57V179.3H215.192V131.776ZM215.192,283.482V235.959H333.083v47.523Zm117.891,4.569v47.523H215.192V288.051ZM215.192,231.39V183.867H333.083V231.39Zm0,156.275V340.143H333.083v47.522Z" transform="translate(-210.622 -127.206)"/><g transform="translate(15.905 15.654)"><rect class="b" width="4.394" height="36.874" transform="translate(69.764 36.874) rotate(180)"/><rect class="a" width="4.394" height="36.874" transform="translate(74.159 36.874) rotate(180)"/><rect class="b" width="8.788" height="34.283" transform="translate(65.371 36.874) rotate(180)"/><rect class="d" width="5.679" height="36.874" transform="translate(52.188 36.874) rotate(180)"/><rect class="e" width="4.394" height="36.874" transform="translate(56.582 36.874) rotate(180)"/><rect class="b" width="5.679" height="36.874" transform="translate(18.861 36.874) rotate(180)"/><rect class="e" width="4.394" height="36.874" transform="translate(23.255 36.874) rotate(180)"/><rect class="b" width="5.679" height="36.874" transform="translate(37.722 36.874) rotate(180)"/><rect class="a" width="4.394" height="36.874" transform="translate(42.116 36.874) rotate(180)"/><rect class="e" width="8.788" height="36.001" transform="translate(13.182 36.874) rotate(180)"/><rect class="a" width="4.394" height="36.001" transform="translate(4.394 36.874) rotate(180)"/><rect class="a" width="5.859" height="36.001" transform="translate(32.043 36.874) rotate(180)"/><rect class="d" width="2.929" height="36.001" transform="translate(26.184 36.874) rotate(180)"/><rect class="c" width="8.788" height="34.283" transform="translate(46.51 36.874) rotate(180)"/><rect class="e" width="5.679" height="36.874" transform="translate(93.019 36.874) rotate(180)"/><rect class="b" width="4.394" height="36.874" transform="translate(97.413 36.874) rotate(180)"/><rect class="a" width="8.788" height="36.001" transform="translate(87.341 36.874) rotate(180)"/><rect class="e" width="4.394" height="36.001" transform="translate(78.553 36.874) rotate(180)"/><rect class="e" width="5.859" height="36.001" transform="translate(106.201 36.874) rotate(180)"/><rect class="f" width="2.929" height="36.001" transform="translate(100.342 36.874) rotate(180)"/></g><g transform="translate(15.905 67.289)"><rect class="b" width="4.394" height="36.874" transform="translate(36.437)"/><rect class="a" width="4.394" height="36.874" transform="translate(32.043)"/><rect class="b" width="8.788" height="34.283" transform="translate(40.831 2.591)"/><rect class="d" width="5.679" height="36.874" transform="translate(54.013)"/><rect class="e" width="4.394" height="36.874" transform="translate(49.619)"/><rect class="b" width="5.679" height="36.874" transform="translate(87.34)"/><rect class="e" width="4.394" height="36.874" transform="translate(82.946)"/><rect class="b" width="5.679" height="36.874" transform="translate(68.48)"/><rect class="a" width="4.394" height="36.874" transform="translate(64.086)"/><rect class="e" width="8.788" height="36.001" transform="translate(93.019 0.874)"/><rect class="a" width="4.394" height="36.001" transform="translate(101.807 0.874)"/><rect class="a" width="5.859" height="36.001" transform="translate(74.159 0.874)"/><rect class="d" width="2.929" height="36.001" transform="translate(80.017 0.874)"/><rect class="c" width="8.788" height="34.283" transform="translate(59.692 2.591)"/><rect class="e" width="5.679" height="36.874" transform="translate(13.182)"/><rect class="b" width="4.394" height="36.874" transform="translate(8.788)"/><rect class="a" width="8.788" height="36.001" transform="translate(18.861 0.874)"/><rect class="e" width="4.394" height="36.001" transform="translate(27.649 0.874)"/><rect class="e" width="5.859" height="36.001" transform="translate(0 0.874)"/><rect class="f" width="2.929" height="36.001" transform="translate(5.859 0.874)"/></g><g transform="translate(15.905 119.838)"><rect class="b" width="4.394" height="36.874" transform="translate(36.437)"/><rect class="a" width="4.394" height="36.874" transform="translate(32.043)"/><rect class="b" width="8.788" height="34.283" transform="translate(40.831 2.591)"/><rect class="d" width="5.679" height="36.874" transform="translate(54.013)"/><rect class="e" width="4.394" height="36.874" transform="translate(49.619)"/><rect class="b" width="5.679" height="36.874" transform="translate(87.34)"/><rect class="e" width="4.394" height="36.874" transform="translate(82.946)"/><rect class="b" width="5.679" height="36.874" transform="translate(68.48)"/><rect class="a" width="4.394" height="36.874" transform="translate(64.086)"/><rect class="e" width="8.788" height="36.001" transform="translate(93.019 0.873)"/><rect class="a" width="4.394" height="36.001" transform="translate(101.807 0.873)"/><rect class="a" width="5.859" height="36.001" transform="translate(74.159 0.873)"/><rect class="d" width="2.929" height="36.001" transform="translate(80.017 0.873)"/><rect class="c" width="8.788" height="34.283" transform="translate(59.692 2.591)"/><rect class="e" width="5.679" height="36.874" transform="translate(13.182)"/><rect class="b" width="4.394" height="36.874" transform="translate(8.788)"/><rect class="a" width="8.788" height="36.001" transform="translate(18.861 0.873)"/><rect class="e" width="4.394" height="36.001" transform="translate(27.649 0.873)"/><rect class="e" width="5.859" height="36.001" transform="translate(0 0.873)"/><rect class="f" width="2.929" height="36.001" transform="translate(5.859 0.873)"/></g><g transform="translate(15.905 172.387)"><rect class="b" width="4.394" height="36.874" transform="translate(69.764 36.874) rotate(180)"/><rect class="a" width="4.394" height="36.874" transform="translate(74.159 36.874) rotate(180)"/><rect class="b" width="8.788" height="34.283" transform="translate(65.371 34.283) rotate(180)"/><rect class="d" width="5.679" height="36.874" transform="translate(52.188 36.874) rotate(180)"/><rect class="e" width="4.394" height="36.874" transform="translate(56.582 36.874) rotate(180)"/><rect class="b" width="5.679" height="36.874" transform="translate(18.861 36.874) rotate(180)"/><rect class="e" width="4.394" height="36.874" transform="translate(23.255 36.874) rotate(180)"/><rect class="b" width="5.679" height="36.874" transform="translate(37.722 36.874) rotate(180)"/><rect class="a" width="4.394" height="36.874" transform="translate(42.116 36.874) rotate(180)"/><rect class="e" width="8.788" height="36.001" transform="translate(13.182 36.001) rotate(180)"/><rect class="a" width="4.394" height="36.001" transform="translate(4.394 36.001) rotate(180)"/><rect class="a" width="5.859" height="36.001" transform="translate(32.043 36.001) rotate(180)"/><rect class="d" width="2.929" height="36.001" transform="translate(26.184 36.001) rotate(180)"/><rect class="c" width="8.788" height="34.283" transform="translate(46.51 34.283) rotate(180)"/><rect class="e" width="5.679" height="36.874" transform="translate(93.019 36.874) rotate(180)"/><rect class="b" width="4.394" height="36.874" transform="translate(97.413 36.874) rotate(180)"/><rect class="a" width="8.788" height="36.001" transform="translate(87.341 36.001) rotate(180)"/><rect class="e" width="4.394" height="36.001" transform="translate(78.553 36.001) rotate(180)"/><rect class="e" width="5.859" height="36.001" transform="translate(106.201 36.001) rotate(180)"/><rect class="f" width="2.929" height="36.001" transform="translate(100.342 36.001) rotate(180)"/></g><g transform="translate(15.905 224.936)"><rect class="b" width="4.394" height="36.874" transform="translate(36.437)"/><rect class="a" width="4.394" height="36.874" transform="translate(32.043)"/><rect class="b" width="8.788" height="34.283" transform="translate(40.831)"/><rect class="d" width="5.679" height="36.874" transform="translate(54.013)"/><rect class="e" width="4.394" height="36.874" transform="translate(49.619)"/><rect class="b" width="5.679" height="36.874" transform="translate(87.34)"/><rect class="e" width="4.394" height="36.874" transform="translate(82.946)"/><rect class="b" width="5.679" height="36.874" transform="translate(68.48)"/><rect class="a" width="4.394" height="36.874" transform="translate(64.086)"/><rect class="e" width="8.788" height="36.001" transform="translate(93.019)"/><rect class="a" width="4.394" height="36.001" transform="translate(101.807)"/><rect class="a" width="5.859" height="36.001" transform="translate(74.159)"/><rect class="d" width="2.929" height="36.001" transform="translate(80.017)"/><rect class="c" width="8.788" height="34.283" transform="translate(59.692)"/><rect class="e" width="5.679" height="36.874" transform="translate(13.182)"/><rect class="b" width="4.394" height="36.874" transform="translate(8.788)"/><rect class="a" width="8.788" height="36.001" transform="translate(18.861)"/><rect class="e" width="4.394" height="36.001" transform="translate(27.649)"/><rect class="e" width="5.859" height="36.001"/><rect class="f" width="2.929" height="36.001" transform="translate(5.859)"/></g></g><g transform="translate(215.191 419.54)"><ellipse class="c" cx="119.642" cy="12.087" rx="119.642" ry="12.087"/></g><g transform="translate(346.591 189.244)"><g transform="translate(5.602 81.26)"><path class="g" d="M415.535,340.743h5.989l10.28,69.808c.263,1.789-1.123,2.5-2.931,2.5h0c-1.469,0-2.717-.178-2.931-1.632Z" transform="translate(-338.371 -256.101)"/><path class="h" d="M415.535,340.743h5.989l10.28,69.808c.263,1.789-1.123,2.5-2.931,2.5h0c-1.469,0-2.717-.178-2.931-1.632Z" transform="translate(-338.371 -256.101)"/><path class="g" d="M397.763,340.743h5.989l5.154,70c.127,1.731-1.243,2.307-2.978,2.307h0c-1.565,0-2.864-.309-2.978-1.868Z" transform="translate(-339.57 -256.101)"/><path class="h" d="M397.763,340.743h5.989l5.154,70c.127,1.731-1.243,2.307-2.978,2.307h0c-1.565,0-2.864-.309-2.978-1.868Z" transform="translate(-339.57 -256.101)"/><path class="g" d="M385.165,340.743h-5.988l-5.154,70c-.128,1.731,1.242,2.307,2.978,2.307h0c1.564,0,2.863-.309,2.978-1.868Z" transform="translate(-341.172 -256.101)"/><path class="h" d="M385.165,340.743h-5.988l-5.154,70c-.128,1.731,1.242,2.307,2.978,2.307h0c1.564,0,2.863-.309,2.978-1.868Z" transform="translate(-341.172 -256.101)"/><path class="g" d="M367.718,340.743H361.73l-10.28,69.808c-.264,1.789,1.123,2.5,2.931,2.5h0c1.469,0,2.717-.178,2.93-1.632Z" transform="translate(-342.696 -256.101)"/><path class="h" d="M367.718,340.743H361.73l-10.28,69.808c-.264,1.789,1.123,2.5,2.931,2.5h0c1.469,0,2.717-.178,2.93-1.632Z" transform="translate(-342.696 -256.101)"/><path class="g" d="M407.714,265.532l-24.958,76.123h54.593l9.432-80.206H413.35A5.931,5.931,0,0,0,407.714,265.532Z" transform="translate(-340.582 -261.449)"/><path class="h" d="M407.714,265.532l-24.958,76.123h54.593l9.432-80.206H413.35A5.931,5.931,0,0,0,407.714,265.532Z" transform="translate(-340.582 -261.449)"/><g transform="translate(0 74.109)"><path class="g" d="M401.836,330.875H347.769a4.522,4.522,0,0,0-4.522,4.522v3.152a4.522,4.522,0,0,0,4.522,4.522h54.067Z" transform="translate(-343.247 -330.875)"/><path class="i" d="M401.836,330.875H347.769a4.522,4.522,0,0,0-4.522,4.522v3.152a4.522,4.522,0,0,0,4.522,4.522h54.067Z" transform="translate(-343.247 -330.875)"/></g><g transform="translate(42.869)"><path class="g" d="M442.182,265.9l-7.042,61.151a9.6,9.6,0,0,1-9.538,8.5H387.929a4.522,4.522,0,0,0-4.522,4.522v3.152a4.522,4.522,0,0,0,4.522,4.522h45.619A9.6,9.6,0,0,0,443.1,339.1l7.678-77.647h-3.6A5.031,5.031,0,0,0,442.182,265.9Z" transform="translate(-383.407 -261.449)"/><path class="j" d="M442.182,265.9l-7.042,61.151a9.6,9.6,0,0,1-9.538,8.5H387.929a4.522,4.522,0,0,0-4.522,4.522v3.152a4.522,4.522,0,0,0,4.522,4.522h45.619A9.6,9.6,0,0,0,443.1,339.1l7.678-77.647h-3.6A5.031,5.031,0,0,0,442.182,265.9Z" transform="translate(-383.407 -261.449)"/></g></g><g transform="translate(0 122.459)"><g transform="translate(0 91.886)"><path class="k" d="M356.854,386.125l.764,14.294-7.99.615-2-13.571Z" transform="translate(-337.35 -386.125)"/><g transform="translate(0 11.672)"><path class="l" d="M346.431,400.958a3.562,3.562,0,0,1-2.49-.479.743.743,0,0,1-.038-.859,1.031,1.031,0,0,1,.592-.5c1.367-.471,4.379,1.007,4.512,1.072a.2.2,0,0,1,.108.2.206.206,0,0,1-.149.172A14.622,14.622,0,0,1,346.431,400.958ZM345,399.421a1.282,1.282,0,0,0-.375.073.548.548,0,0,0-.37.3c-.131.255-.072.37-.012.433.421.519,2.523.4,4.063.109A9.14,9.14,0,0,0,345,399.421Z" transform="translate(-337.609 -396.927)"/><path class="l" d="M348.806,400.693a.115.115,0,0,1-.082,0c-1.025-.379-3.142-2.059-3.023-3.008.006-.227.159-.512.7-.6a1.471,1.471,0,0,1,1.12.268c1.117.806,1.481,3.039,1.5,3.143a.2.2,0,0,1-.077.185A.187.187,0,0,1,348.806,400.693Zm-2.251-3.245-.113,0c-.353.052-.367.2-.379.248-.015.569,1.387,1.9,2.458,2.444a4.651,4.651,0,0,0-1.268-2.485,1.029,1.029,0,0,0-.7-.2Z" transform="translate(-337.48 -397.06)"/><path class="g" d="M350.133,399.357l9.1-.575a.735.735,0,0,1,.751.527l2.111,7.3a1.22,1.22,0,0,1-.821,1.518,1.294,1.294,0,0,1-.255.047c-3.282.15-6.209.155-10.292.418-4.817.305-3.559.8-9.217,1.244-3.409.26-4.279-3.579-2.845-3.862,6.57-1.252,7.132-3.3,9.537-5.827A2.939,2.939,0,0,1,350.133,399.357Z" transform="translate(-337.999 -396.944)"/></g><path class="m" d="M347.628,387.463l1,6.768,8.629-.627-.4-7.478h0Z" transform="translate(-337.35 -386.125)"/></g><g transform="translate(0.088)"><path class="n" d="M390.84,302.735s-45.111,6.573-51.163,21.366,7.06,70.077,7.06,70.077l12.342-1.009s-.094-34-2.592-59.319l34.353-1.681,31.54-32.124Z" transform="translate(-338.081 -300.045)"/></g><path class="o" d="M345.4,387.659l13.959-1.534v3.835l-13.192,1.15Z" transform="translate(-337.5 -294.239)"/></g><g transform="translate(24.145 124.477)"><g transform="translate(6.513 91.473)"><path class="k" d="M385.576,387.628l.765,14.294-7.99.615-2-13.571Z" transform="translate(-366.071 -387.628)"/><g transform="translate(0 11.672)"><path class="l" d="M375.152,402.461a3.554,3.554,0,0,1-2.489-.48.743.743,0,0,1-.04-.859,1.033,1.033,0,0,1,.592-.5c1.367-.471,4.38,1.006,4.512,1.072a.2.2,0,0,1,.109.2.21.21,0,0,1-.149.172A14.636,14.636,0,0,1,375.152,402.461Zm-1.427-1.537a1.281,1.281,0,0,0-.375.073.545.545,0,0,0-.369.3c-.131.255-.073.37-.012.434.421.518,2.523.4,4.062.109A9.141,9.141,0,0,0,373.725,400.924Z" transform="translate(-366.33 -398.43)"/><path class="l" d="M377.528,402.2a.117.117,0,0,1-.083,0c-1.024-.379-3.142-2.059-3.023-3.008.006-.227.159-.513.7-.6a1.467,1.467,0,0,1,1.12.268c1.117.806,1.482,3.039,1.5,3.143a.2.2,0,0,1-.077.185A.185.185,0,0,1,377.528,402.2Zm-2.251-3.246-.114,0c-.352.052-.367.2-.379.249-.015.569,1.388,1.9,2.459,2.444a4.662,4.662,0,0,0-1.268-2.485,1.037,1.037,0,0,0-.7-.2Z" transform="translate(-366.201 -398.562)"/><path class="g" d="M378.855,400.859l9.1-.574a.732.732,0,0,1,.75.527l2.112,7.3a1.22,1.22,0,0,1-1.076,1.564c-3.282.151-6.21.156-10.292.418-4.817.306-3.559.806-9.219,1.244-3.409.262-4.279-3.579-2.845-3.861,6.571-1.252,7.133-3.3,9.537-5.827A2.941,2.941,0,0,1,378.855,400.859Z" transform="translate(-366.72 -398.446)"/></g><path class="m" d="M386,395.566l-.425-7.937h0l-9.227,1.338,1.059,7.179Z" transform="translate(-366.071 -387.628)"/></g><path class="o" d="M432.626,301.935s9.414,30.593-9.413,31.266-43.7,0-43.7,0,8.77,24.124,8.8,62.866l-11.828,1.009s-19.889-65.528-15.128-74.3c6.388-11.767,50.765-20.843,50.765-20.843Z" transform="translate(-360.618 -301.935)"/><path class="o" d="M374.189,389.633l.949,3.774,13.21-1.107v-3.639Z" transform="translate(-359.703 -296.085)"/></g><g transform="translate(20.013)"><g transform="translate(5.716 51.204)"><path class="p" d="M402.93,233.418s-11.508-2.514-16.809,14.96c-3.155,10.4-2.631,24.638-2.631,24.638l-19.034.378-2.354,7.732s24.552.333,30.94-.507S402.93,233.418,402.93,233.418Z" transform="translate(-362.102 -233.292)"/></g><g transform="translate(32.833 48.834)"><path class="q" d="M388.453,307.09s-6.051-76.018,12.439-76.018h26.559c6.388,0,10.085,8.74,8.74,24.542s-2.689,54.8-2.689,54.8Z" transform="translate(-387.506 -231.072)"/></g><path class="r" d="M361.583,269.3l2.18.278a3.1,3.1,0,0,1,2.272,1.483l3.007,5.012a3.522,3.522,0,0,1,.393,2.684l-.481,1.889a3.523,3.523,0,0,1-4.782,2.377l-3.511-1.478a5.133,5.133,0,0,1-2.8-2.9l-.869-2.271a3.643,3.643,0,0,1-.045-2.474l.739-2.166A3.639,3.639,0,0,1,361.583,269.3Z" transform="translate(-356.748 -179.661)"/><g transform="translate(5.894 84.937)"><g transform="translate(0.504 2.013)"><path class="s" d="M362.741,270.814l6.556,15.128,10.086,3.866,13.448-6.724-.073-15.295-6.925-1.011-5.735,2.807-3.1,2.992-4.082-5.169-5.3-.63-3.4,1.513Z" transform="translate(-362.741 -266.78)"/></g><path class="t" d="M380.521,288.737l-2.093-18.379-2.158,2.08-2.819-3.569,3.407,20.108,1.8.691Z" transform="translate(-361.515 -264.625)"/><path class="l" d="M362.269,268.42s9.245-9.414,14.96,2.521c0,0,9.6-11.258,15.559-3.024l-.767,3.024s-3.1-7.438-15,3.593c0,0-6.015-11.662-14.252-3.593Z" transform="translate(-362.269 -264.894)"/><path class="u" d="M362.269,268.42s9.245-9.414,14.96,2.521c0,0,9.6-11.258,15.559-3.024l-.767,3.024s-3.1-7.438-15,3.593c0,0-6.015-11.662-14.252-3.593Z" transform="translate(-362.269 -264.894)"/></g><path class="r" d="M408.9,272.054H398.743l-2.664-2.479a4.792,4.792,0,0,0-4.226-1.186l-1.23.253a4.8,4.8,0,0,1-2.5-.155h0a4.79,4.79,0,0,0-5.336,1.625l-.19.248a4.792,4.792,0,0,0-.2,5.548l2.559,3.889a4.792,4.792,0,0,0,5.178,2.012L397.3,280l12.229,1.639Z" transform="translate(-355.07 -179.731)"/><g transform="translate(51.934 48.834)"><path class="p" d="M424.563,249.562c-.789-4.774-4.034-18.49,4.706-18.49s10.17,13.448,10.675,21.769,2.044,33.744-3.769,33.766-30.775-2-30.775-2l.252-11.094,21.936-1.766S425.562,255.615,424.563,249.562Z" transform="translate(-405.4 -231.072)"/></g><g transform="translate(34.579)"><path class="r" d="M401.61,232.6l.157.683,5.557,3.526,10.778-4.068.135-.1c-4.159-4.208-2.6-11.922-1.215-18.148l-5.175,4.294-7.054,5.894a23.055,23.055,0,0,1,.473,2.866C405.6,230.59,404.764,231.63,401.61,232.6Z" transform="translate(-388.3 -183.357)"/><path class="g" d="M395.913,202.847s-6.008,4.042-4.526,6.5c2.4,3.983,5.8-2.707,5.8-2.707Z" transform="translate(-389.006 -184.142)"/><path class="v" d="M414.162,224.062a15.449,15.449,0,0,0,.107-3.734l-9.4,5.472c.073.447.133.9.179,1.348a5.584,5.584,0,0,1-.215,2.773C408.293,229.57,413.137,227.493,414.162,224.062Z" transform="translate(-388.083 -182.963)"/><path class="r" d="M417.03,206.182c1.074,8.47,2.148,13.356-1.287,18.551-5.09,7.806-16.03,6.174-19.562-1.75-3.22-7.118-4.358-19.776,3.124-24.843a11.272,11.272,0,0,1,17.725,8.041Z" transform="translate(-388.834 -184.599)"/><path class="g" d="M404.2,212.461c.128.687-.129,1.31-.569,1.407s-.9-.376-1.074-1.074.128-1.31.569-1.407S404.068,211.784,404.2,212.461Z" transform="translate(-388.24 -183.567)"/><path class="g" d="M396.754,213.879c.128.677-.129,1.31-.569,1.4s-.9-.376-1.074-1.074.129-1.31.569-1.407S396.625,213.193,396.754,213.879Z" transform="translate(-388.742 -183.472)"/><path class="w" d="M399.675,211.708a26.124,26.124,0,0,1-1.761,5.615,3.612,3.612,0,0,0,2.963,0Z" transform="translate(-388.55 -183.544)"/><path class="g" d="M405.954,207.851a.365.365,0,0,0,.183-.064.4.4,0,0,0,.1-.553l-.012-.016A3.919,3.919,0,0,0,403,205.532a.4.4,0,0,0-.366.426v.014a.407.407,0,0,0,.429.376,3.07,3.07,0,0,1,2.556,1.343A.375.375,0,0,0,405.954,207.851Z" transform="translate(-388.231 -183.961)"/><path class="g" d="M393.206,209.518a.43.43,0,0,0,.322-.2,3.338,3.338,0,0,1,2.426-1.728.408.408,0,0,0,.376-.438v0a.42.42,0,0,0-.429-.376h0a4.08,4.08,0,0,0-3.06,2.148.409.409,0,0,0,.14.558A.482.482,0,0,0,393.206,209.518Z" transform="translate(-388.896 -183.877)"/><path class="g" d="M405.6,218.849a7.387,7.387,0,0,0,.873-1.04.236.236,0,0,0-.054-.33l-.006,0a.236.236,0,0,0-.326.053,6.444,6.444,0,0,1-5.042,2.839.239.239,0,0,0-.022.478A6.677,6.677,0,0,0,405.6,218.849Z" transform="translate(-388.356 -183.158)"/><path class="g" d="M412.561,194.55s1.737-9.611-2.336-9.214S412.561,194.55,412.561,194.55Z" transform="translate(-387.811 -185.324)"/><g transform="translate(2.277 22.155)"><path class="g" d="M408.291,209a3.983,3.983,0,0,0-7.065,2.1l-2.188.535a3.988,3.988,0,1,0,.269,1.413c0-.125-.026-.243-.036-.365l1.979-.482a4.01,4.01,0,1,0,7.626-2.273c4.043-1.578,9.768-3.343,10.853-2.656l.573-.907C418.407,205.166,410.623,208.083,408.291,209Zm-13,6.986a2.942,2.942,0,1,1,2.943-2.941A2.945,2.945,0,0,1,395.291,215.986Zm9.907-1.514a2.942,2.942,0,1,1,2.943-2.942A2.945,2.945,0,0,1,405.2,214.472Z" transform="translate(-391.275 -206.078)"/><path class="h" d="M408.291,209a3.983,3.983,0,0,0-7.065,2.1l-2.188.535a3.988,3.988,0,1,0,.269,1.413c0-.125-.026-.243-.036-.365l1.979-.482a4.01,4.01,0,1,0,7.626-2.273c4.043-1.578,9.768-3.343,10.853-2.656l.573-.907C418.407,205.166,410.623,208.083,408.291,209Zm-13,6.986a2.942,2.942,0,1,1,2.943-2.941A2.945,2.945,0,0,1,395.291,215.986Zm9.907-1.514a2.942,2.942,0,1,1,2.943-2.942A2.945,2.945,0,0,1,405.2,214.472Z" transform="translate(-391.275 -206.078)"/></g><path class="g" d="M406.192,200.1s-13.411,9.483-16.274,5.548,3.111-4.294,3.111-4.294-5.079-3.579-2.4-6.442,5.944,0,5.944,0,12.321-10.736,16.52-2.685c0,0,9.336-1.858,9.988,5.692s0,8.71,0,8.71,4.947.611,4.231,2.32-4.231.376-4.231.376,5.841,4.425,3.158,5.027-9.512-.842-11.2-6.562.282-6.5.282-6.5S399.289,207.976,406.192,200.1Z" transform="translate(-389.141 -185.06)"/><path class="r" d="M420.371,212.511a9.052,9.052,0,0,1-3.307,5.175c-2.148,1.578-3.769-.333-3.651-3.027.108-2.426,1.352-6.174,3.725-6.667S420.951,209.923,420.371,212.511Z" transform="translate(-387.505 -183.799)"/></g><path class="p" d="M402.842,231.118s-1.012,2.776,4.648,2.861,10.9-3.362,10.9-3.362,2.278-.762,2.974.5c0,0-5.831,5.634-13.872,5.465s-6.8-5.569-6.8-5.569S402.159,230.616,402.842,231.118Z" transform="translate(-353.788 -182.284)"/></g></g><g transform="translate(259.449 283.803)"><g transform="translate(0 32.285)"><path class="g" d="M296.866,421.051h0c-1.69,0-3.045-.5-2.991-2.19l3.495-110.071h5.988l-3.5,110.261C299.806,420.665,298.482,421.051,296.866,421.051Z" transform="translate(-253.833 -303.84)"/><path class="h" d="M296.866,421.051h0c-1.69,0-3.045-.5-2.991-2.19l3.495-110.071h5.988l-3.5,110.261C299.806,420.665,298.482,421.051,296.866,421.051Z" transform="translate(-253.833 -303.84)"/><g transform="translate(27.368 4.949)"><rect class="g" width="74.614" height="15.703"/><rect class="h" width="74.614" height="15.703"/></g><g transform="translate(101.982 4.949)"><rect class="l" width="19.144" height="15.703"/><rect class="g" width="19.144" height="15.703"/><rect class="h" width="19.144" height="15.703"/></g><path class="g" d="M376.112,421.051h0c1.716,0,3.081-.544,2.986-2.258l-6.113-110H367l6.131,110.336C373.215,420.709,374.526,421.051,376.112,421.051Z" transform="translate(-248.901 -303.84)"/><path class="h" d="M376.112,421.051h0c1.716,0,3.081-.544,2.986-2.258l-6.113-110H367l6.131,110.336C373.215,420.709,374.526,421.051,376.112,421.051Z" transform="translate(-248.901 -303.84)"/><path class="g" d="M355.536,421.051h0c1.69,0,3.044-.5,2.991-2.19l-3.495-110.071h-5.989l3.5,110.261C352.6,420.665,353.92,421.051,355.536,421.051Z" transform="translate(-250.112 -303.84)"/><path class="h" d="M355.536,421.051h0c1.69,0,3.044-.5,2.991-2.19l-3.495-110.071h-5.989l3.5,110.261C352.6,420.665,353.92,421.051,355.536,421.051Z" transform="translate(-250.112 -303.84)"/><path class="g" d="M276.455,421.051h0c-1.715,0-3.08-.544-2.985-2.258l6.112-110h5.989l-6.131,110.336C279.352,420.709,278.042,421.051,276.455,421.051Z" transform="translate(-255.21 -303.84)"/><path class="h" d="M276.455,421.051h0c-1.715,0-3.08-.544-2.985-2.258l6.112-110h5.989l-6.131,110.336C279.352,420.709,278.042,421.051,276.455,421.051Z" transform="translate(-255.21 -303.84)"/><rect class="g" width="148.457" height="9.898" rx="2.685"/><rect class="x" width="148.457" height="9.898" rx="2.685"/></g><g transform="translate(30.439)"><g transform="translate(2.089)"><g transform="translate(39.062 0.113)"><path class="y" d="M332.459,275.526v7.894a.756.756,0,0,1,0,1.512c-3.008,0-6.018.02-9.029.037V274.014h9.029A.756.756,0,0,1,332.459,275.526Z" transform="translate(-323.43 -274.014)"/><rect class="l" width="7.014" height="7.882" transform="translate(2.015 1.523)"/><rect class="z" width="7.014" height="7.882" transform="translate(2.015 1.523)"/></g><path class="l" d="M329.334,274.722H290.616c-1.671,0-3.026,2.106-3.026,4.7s1.356,4.7,3.026,4.7h38.718Z" transform="translate(-286.786 -273.853)"/><path class="aa" d="M329.334,274.722H290.616c-1.671,0-3.026,2.106-3.026,4.7s1.356,4.7,3.026,4.7h38.718Z" transform="translate(-286.786 -273.853)"/><path class="l" d="M329.385,284.938c-7.96,0-30.336.143-38.295,0-5.453-.1-5.746-10.55-.4-10.917,3.729-.255,7.563,0,11.3,0h27.4a.756.756,0,0,1,0,1.511H292.347c-1.746,0-3,.02-3.67,2.079-.584,1.783-.4,5.421,1.99,5.814a5.39,5.39,0,0,0,.82,0h37.9a.756.756,0,0,1,0,1.512Z" transform="translate(-286.836 -273.908)"/><path class="ab" d="M329.385,284.938c-7.96,0-30.336.143-38.295,0-5.453-.1-5.746-10.55-.4-10.917,3.729-.255,7.563,0,11.3,0h27.4a.756.756,0,0,1,0,1.511H292.347c-1.746,0-3,.02-3.67,2.079-.584,1.783-.4,5.421,1.99,5.814a5.39,5.39,0,0,0,.82,0h37.9a.756.756,0,0,1,0,1.512Z" transform="translate(-286.836 -273.908)"/></g><g transform="translate(4.296 10.773)"><g transform="translate(36.176 0.105)"><path class="y" d="M331.155,285.5v7.31a.7.7,0,0,1,0,1.4c-2.786,0-5.574.019-8.361.036V284.1h8.361A.7.7,0,0,1,331.155,285.5Z" transform="translate(-322.794 -284.099)"/><rect class="l" width="6.495" height="7.3" transform="translate(1.866 1.41)"/><rect class="z" width="6.495" height="7.3" transform="translate(1.866 1.41)"/></g><path class="l" d="M328.262,284.754H292.405c-1.549,0-2.8,1.95-2.8,4.355s1.254,4.355,2.8,4.355h35.857Z" transform="translate(-288.857 -283.95)"/><path class="aa" d="M328.262,284.754H292.405c-1.549,0-2.8,1.95-2.8,4.355s1.254,4.355,2.8,4.355h35.857Z" transform="translate(-288.857 -283.95)"/><path class="ab" d="M328.309,294.214c-7.373,0-28.1.133-35.466,0-5.05-.091-5.321-9.769-.368-10.109,3.452-.237,7,0,10.462,0h25.372a.7.7,0,0,1,0,1.4h-34.3c-1.617,0-2.773.018-3.4,1.926-.541,1.651-.37,5.019,1.843,5.384a4.856,4.856,0,0,0,.758,0h35.1a.7.7,0,0,1,0,1.4Z" transform="translate(-288.904 -284)"/></g><g transform="translate(0 20.734)"><g transform="translate(43.05 0.125)"><path class="y" d="M335.161,295.115v8.7a.834.834,0,0,1,0,1.666c-3.316,0-6.633.022-9.952.043V293.449h9.952A.834.834,0,0,1,335.161,295.115Z" transform="translate(-325.209 -293.449)"/><rect class="l" width="7.73" height="8.687" transform="translate(2.221 1.679)"/><rect class="z" width="7.73" height="8.687" transform="translate(2.221 1.679)"/></g><path class="l" d="M331.717,294.23H289.046c-1.842,0-3.336,2.32-3.336,5.182s1.493,5.182,3.336,5.182h42.671Z" transform="translate(-284.823 -293.271)"/><path class="aa" d="M331.717,294.23H289.046c-1.842,0-3.336,2.32-3.336,5.182s1.493,5.182,3.336,5.182h42.671Z" transform="translate(-284.823 -293.271)"/><path class="ab" d="M331.773,305.488c-8.774,0-33.435.159-42.207,0-6.009-.109-6.332-11.627-.438-12.031,4.109-.282,8.335,0,12.451,0h30.194a.834.834,0,0,1,0,1.666h-40.82c-1.925,0-3.3.021-4.045,2.292-.644,1.964-.441,5.973,2.194,6.407a5.779,5.779,0,0,0,.9,0h41.769a.834.834,0,0,1,0,1.666Z" transform="translate(-284.879 -293.332)"/></g></g></g></g><g transform="translate(709.878 1934.047)"><g transform="translate(392.662 110.237)"><rect class="b" width="76.46" height="25.309"/></g><g transform="translate(392.736 55.255)"><rect class="b" width="1.211" height="54.982"/></g><g transform="translate(467.793 55.255)"><rect class="b" width="1.211" height="54.982"/></g><g transform="translate(237.787 89.39)"><rect class="b" width="87.55" height="28.98"/></g><g transform="translate(237.961 55.255)"><rect class="b" width="1.211" height="34.135"/></g><g transform="translate(323.991 54.953)"><rect class="b" width="1.211" height="34.438"/></g></g></g></svg>