<svg xmlns="http://www.w3.org/2000/svg" width="41.667" height="41.667" viewBox="0 0 41.667 41.667"><defs><style>.a{fill:#58595b;}</style></defs><g transform="translate(0 0)"><path class="a" d="M1.223,399.973h25.4V398.75H21.445v-1.281A3.466,3.466,0,0,1,24.9,394a3.525,3.525,0,0,1,.446.029l1.909.244.155-1.213-1.909-.244a4.771,4.771,0,0,0-.6-.038,4.683,4.683,0,0,0-4.069,2.374,4.683,4.683,0,0,0-4.069-2.374,4.749,4.749,0,0,0-.6.038l-15.1,1.928v4H0v3.669H4.77V401.2H1.223Zm1.06-4.15,14.034-1.792a3.531,3.531,0,0,1,.446-.029,3.466,3.466,0,0,1,3.458,3.466v1.281H2.283Z" transform="translate(0 -360.753)"/><path class="a" d="M108.113,403.674v-4l-11.98-1.529-.155,1.213,10.912,1.393v2.927H95.353V404.9h12.6v1.223H73.5v1.223h35.673v-3.669Z" transform="translate(-67.507 -365.677)"/><path class="a" d="M72.349,21.176,70.8,24.426l3.347,3.347,3.25-1.545,2.315.959,1.205,3.39h4.734l1.206-3.39,2.315-.959,3.25,1.545,3.347-3.347-1.545-3.25.959-2.315,3.39-1.205V12.922l-3.39-1.206L94.228,9.4l1.545-3.25L92.426,2.8l-3.25,1.545L86.861,3.39,85.656,0H80.922L79.716,3.39,77.4,4.349,74.151,2.8,70.8,6.152,72.349,9.4l-.959,2.315L68,12.922v4.734l3.39,1.206Zm-3.126-7.391,3.089-1.1,1.375-3.319L72.279,6.406,74.406,4.28l2.961,1.407,3.319-1.375,1.1-3.089h3.008l1.1,3.089L89.21,5.687l2.961-1.407L94.3,6.406,92.89,9.367l1.375,3.319,3.089,1.1v3.008l-3.089,1.1L92.89,21.21,94.3,24.171,92.171,26.3,89.21,24.89l-3.319,1.375-1.1,3.089H81.785l-1.1-3.089L77.367,24.89,74.406,26.3l-2.127-2.127,1.408-2.961-1.375-3.319-3.089-1.1Z" transform="translate(-62.455)"/><path class="a" d="M156.766,97.531a8.766,8.766,0,0,0,6.616-14.515l-.923.8a7.535,7.535,0,0,1-.2,10.108,5.5,5.5,0,0,0-3.05-4.628,2.636,2.636,0,0,0,.205-1.022V86.318l.837-3.138h-4.221a1.918,1.918,0,0,0-1.916,1.916v3.18a2.635,2.635,0,0,0,.205,1.022,5.5,5.5,0,0,0-3.05,4.628,7.541,7.541,0,0,1,10.269-11l.775-.946a8.766,8.766,0,1,0-5.549,15.551ZM155.339,85.1a.694.694,0,0,1,.693-.693h2.629l-.326,1.223h-3Zm0,1.753h2.854v1.427a1.427,1.427,0,0,1-2.854,0Zm-2.854,7.379A4.276,4.276,0,0,1,155.06,90.3a2.643,2.643,0,0,0,3.411,0,4.276,4.276,0,0,1,2.576,3.926v.743a7.525,7.525,0,0,1-8.562,0Z" transform="translate(-135.932 -73.477)"/><path class="a" d="M248,254h1.223v1.223H248Z" transform="translate(-227.778 -233.289)"/><path class="a" d="M248,224h1.223v1.223H248Z" transform="translate(-227.778 -205.735)"/></g></svg>