<svg xmlns="http://www.w3.org/2000/svg" width="33.333" height="33.333" viewBox="0 0 33.333 33.333"><defs><style>.a{fill:#58595b;}</style></defs><g transform="translate(0.001 0.001)"><path class="a" d="M197.932,213.332h-1.111a.556.556,0,1,0,0,1.111h1.111a.556.556,0,0,0,0-1.111Zm0,0" transform="translate(-183.489 -199.444)"/><path class="a" d="M197.932,256h-1.111a.556.556,0,1,0,0,1.111h1.111a.556.556,0,0,0,0-1.111Zm0,0" transform="translate(-183.489 -239.334)"/><path class="a" d="M197.932,298.668h-1.111a.556.556,0,1,0,0,1.111h1.111a.556.556,0,0,0,0-1.111Zm0,0" transform="translate(-183.489 -279.224)"/><path class="a" d="M282.157,214.443h1.111a.556.556,0,1,0,0-1.111h-1.111a.556.556,0,0,0,0,1.111Zm0,0" transform="translate(-263.269 -199.444)"/><path class="a" d="M282.157,257.111h1.111a.556.556,0,1,0,0-1.111h-1.111a.556.556,0,0,0,0,1.111Zm0,0" transform="translate(-263.269 -239.334)"/><path class="a" d="M282.157,299.779h1.111a.556.556,0,1,0,0-1.111h-1.111a.556.556,0,0,0,0,1.111Zm0,0" transform="translate(-263.269 -279.224)"/><path class="a" d="M143.556,181.421h-1.111V180.31a1.112,1.112,0,0,0-1.111-1.111h-3.889a1.655,1.655,0,0,0-1.111.433,1.655,1.655,0,0,0-1.111-.433h-3.889a1.112,1.112,0,0,0-1.111,1.111v1.111h-1.111A1.112,1.112,0,0,0,128,182.532v8.889a1.112,1.112,0,0,0,1.111,1.111h14.444a1.112,1.112,0,0,0,1.111-1.111v-8.889a1.112,1.112,0,0,0-1.111-1.111Zm-7.778,10h-6.667v-8.889h1.111V189.2a1.112,1.112,0,0,0,1.111,1.111h3.889a.556.556,0,0,1,.555.555Zm0-2.127a1.659,1.659,0,0,0-.555-.1h-3.889V180.31h3.889a.556.556,0,0,1,.555.556Zm1.111-8.428a.556.556,0,0,1,.555-.556h3.889v8.89h-3.889a1.659,1.659,0,0,0-.555.1Zm6.667,10.556h-6.667v-.556a.556.556,0,0,1,.555-.555h3.889a1.112,1.112,0,0,0,1.111-1.111v-6.667h1.111Zm0,0" transform="translate(-119.668 -167.533)"/><path class="a" d="M33.3,5.942a.541.541,0,0,0-.029-.076.551.551,0,0,0-.068-.1.372.372,0,0,0-.154-.13.546.546,0,0,0-.071-.04c-.006,0-.01-.007-.016-.009L17.441.131a2.347,2.347,0,0,0-1.551,0L.37,5.586c-.006,0-.01.007-.016.009a.546.546,0,0,0-.071.04.543.543,0,0,0-.1.069.539.539,0,0,0-.052.061.551.551,0,0,0-.068.1.54.54,0,0,0-.029.076.553.553,0,0,0-.025.123c0,.016-.009.029-.009.045V8.888A1.112,1.112,0,0,0,1.11,10H2.221v2.222a1.107,1.107,0,0,0,.556.956V26.666H1.666A1.112,1.112,0,0,0,.555,27.777V29.6A1.107,1.107,0,0,0,0,30.555v1.667A1.112,1.112,0,0,0,1.11,33.333H32.221a1.112,1.112,0,0,0,1.111-1.111V30.555a1.107,1.107,0,0,0-.556-.956V27.777a1.112,1.112,0,0,0-1.111-1.111H30.555V13.178a1.107,1.107,0,0,0,.556-.956V10h1.111a1.112,1.112,0,0,0,1.111-1.111V6.11c0-.016-.008-.029-.009-.045a.555.555,0,0,0-.025-.124ZM16.259,1.179a1.23,1.23,0,0,1,.814,0L29.521,5.555H3.811ZM32.221,30.555v1.667H1.11V30.555Zm-.556-2.778v1.667h-30V27.777ZM3.332,12.221V10H6.666v2.222ZM6.11,13.332V26.666H3.888V13.332Zm20-.155V26.666H7.221V13.178a1.106,1.106,0,0,0,.555-.956V10H25.555v2.222a1.106,1.106,0,0,0,.555.956Zm.556-.956V10H30v2.222Zm2.778,1.111V26.666H27.221V13.332Zm1.111-4.444H1.11V6.666H32.222V8.888Zm0,0"/></g></svg>