<svg xmlns="http://www.w3.org/2000/svg" width="41.384" height="41.384" viewBox="0 0 41.384 41.384"><defs><style>.a{fill:#58595b;}</style></defs><path class="a" d="M37.069,54.278h-3.45a.606.606,0,0,0,0,1.212h3.45a3.11,3.11,0,0,1,3.1,3.11V81.753a3.11,3.11,0,0,1-3.1,3.11H4.315a3.11,3.11,0,0,1-3.1-3.11V77.462a.606.606,0,1,0-1.212,0v4.292a4.324,4.324,0,0,0,4.315,4.323H16.622L15.4,90.063H12.713a.606.606,0,1,0,0,1.212H28.671a.606.606,0,1,0,0-1.212H25.983l-1.221-3.986H37.069a4.324,4.324,0,0,0,4.315-4.323V58.6a4.324,4.324,0,0,0-4.315-4.323Zm-20.4,35.785,1.221-3.986h5.6l1.221,3.986Z" transform="translate(0 -49.891)"/><path class="a" d="M.606,75.249a.606.606,0,0,0,.606-.606V58.6a3.11,3.11,0,0,1,3.1-3.11h1.76a.606.606,0,1,0,0-1.212H4.315A4.324,4.324,0,0,0,0,58.6V74.643a.606.606,0,0,0,.606.606Z" transform="translate(0 -49.892)"/><path class="a" d="M428.85,84.688a1.92,1.92,0,0,0-1.917-1.92h-2.158a.606.606,0,0,0,0,1.212h2.158a.707.707,0,0,1,.7.707V96.574a.606.606,0,0,0,1.212,0Z" transform="translate(-389.884 -76.078)"/><path class="a" d="M66.471,105.537V99.428a.606.606,0,0,0-1.212,0v6.108a.707.707,0,0,1-.7.707H31.841a.707.707,0,0,1-.7-.707V84.688a.707.707,0,0,1,.7-.707h1.142a.606.606,0,1,0,0-1.212H31.841a1.92,1.92,0,0,0-1.917,1.92v20.849a1.92,1.92,0,0,0,1.917,1.92H64.554A1.92,1.92,0,0,0,66.471,105.537Z" transform="translate(-27.505 -76.078)"/><path class="a" d="M57.161,402.976a.606.606,0,1,0,0,1.212h2.477a.606.606,0,1,0,0-1.212Z" transform="translate(-51.984 -370.404)"/><path class="a" d="M117.161,402.976a.606.606,0,0,0,0,1.212h2.477a.606.606,0,1,0,0-1.212Z" transform="translate(-107.134 -370.404)"/><path class="a" d="M98.272,27.792a13.9,13.9,0,0,0,11.983-6.838.606.606,0,1,0-1.044-.617,12.765,12.765,0,0,1-2.8,3.295q-.748-.336-1.55-.606a19.064,19.064,0,0,0,2.119-8.524h3.974a12.623,12.623,0,0,1-.657,3.474.606.606,0,1,0,1.148.39A13.9,13.9,0,0,0,98.272,0a13.771,13.771,0,0,0-6.3,1.5,14.037,14.037,0,0,0-4.5,3.634A2.02,2.02,0,0,0,85.45,8.5,13.772,13.772,0,0,0,84.364,13.9a13.918,13.918,0,0,0,13.908,13.9ZM85.591,14.5h3.974a19.064,19.064,0,0,0,2.119,8.524q-.8.268-1.544.6A12.662,12.662,0,0,1,85.591,14.5Zm5.675,9.967q.519-.206,1.063-.379a10.681,10.681,0,0,0,1.327,1.621A12.676,12.676,0,0,1,91.266,24.469Zm6.4,2.069a6.3,6.3,0,0,1-4.1-2.791,20.094,20.094,0,0,1,4.1-.526Zm0-4.53a21.133,21.133,0,0,0-4.791.663,17.642,17.642,0,0,1-2.1-8.169h6.888v1.662a2.02,2.02,0,0,0,0,3.855v1.99Zm1.212,4.53V23.222a20.094,20.094,0,0,1,4.1.526A6.3,6.3,0,0,1,98.878,26.538Zm6.405-2.067q-.306.2-.624.388a12.577,12.577,0,0,1-1.775.855,10.675,10.675,0,0,0,1.33-1.625Q104.762,24.265,105.283,24.472Zm.685-14.068a.808.808,0,1,1,.809-.808A.809.809,0,0,1,105.968,10.4Zm4.985,2.886h-3.974c-.017-.631-.06-1.258-.129-1.876a2.02,2.02,0,0,0-.8-3.837,16.1,16.1,0,0,0-1.185-2.811q.8-.268,1.544-.6A12.662,12.662,0,0,1,110.953,13.29Zm-5.675-9.967q-.519.206-1.063.379a10.9,10.9,0,0,0-1.1-1.39q-.113-.12-.229-.235A12.669,12.669,0,0,1,105.278,3.323Zm-6.4-2.068a6.384,6.384,0,0,1,4.094,2.791,20.1,20.1,0,0,1-4.094.525Zm0,4.529a21.137,21.137,0,0,0,4.79-.663A14.587,14.587,0,0,1,104.874,7.9a2.019,2.019,0,0,0,.775,3.693c.061.559.1,1.128.117,1.7H98.878Zm0,8.719h6.888a17.643,17.643,0,0,1-2.1,8.169,21.137,21.137,0,0,0-4.791-.663v-1.99a2.02,2.02,0,0,0,0-3.855Zm-.606,2.782a.808.808,0,1,1-.809.808A.809.809,0,0,1,98.272,17.284Zm-.606-16.03V4.571a20.1,20.1,0,0,1-4.1-.527,6.343,6.343,0,0,1,4.1-2.789Zm-5.144,1.33q.569-.29,1.158-.518A10.636,10.636,0,0,0,92.331,3.7q-.547-.174-1.069-.381A12.576,12.576,0,0,1,92.522,2.585ZM86.868,6.257a.808.808,0,1,1-.809.808A.809.809,0,0,1,86.868,6.257Zm-.335,2.8A2.019,2.019,0,0,0,88.47,5.835a12.819,12.819,0,0,1,1.666-1.674q.747.336,1.549.605a16.61,16.61,0,0,0-1.444,3.7.606.606,0,1,0,1.172.31A15.327,15.327,0,0,1,92.87,5.12a21.13,21.13,0,0,0,4.8.664V13.29H90.778c.018-.63.063-1.256.136-1.87a.606.606,0,0,0-1.2-.143c-.078.66-.127,1.335-.145,2.012H85.59a12.532,12.532,0,0,1,.942-4.233Z" transform="translate(-77.545)"/><path class="a" d="M72.684,298.688h-2.6a.606.606,0,0,0,0,1.212h2.6a.606.606,0,0,0,0-1.212Z" transform="translate(-63.864 -274.545)"/><path class="a" d="M69.48,334.294a.606.606,0,0,0,.606.606H74.3a.606.606,0,1,0,0-1.212H70.086A.606.606,0,0,0,69.48,334.294Z" transform="translate(-63.864 -306.716)"/></svg>