<svg xmlns="http://www.w3.org/2000/svg" width="38.636" height="38.667" viewBox="0 0 38.636 38.667"><defs><style>.a{fill:#58595b;}</style></defs><g transform="translate(-0.203)"><path class="a" d="M38.839,277.369v-3.4H35.21V271.7H34v-1.89h1.21v-3.4H26.164v1.134h7.912v1.134H10.61v1.134H32.866v1.89H8.18a.945.945,0,0,1,0-1.89h1.3v-1.134H8.18a2.079,2.079,0,0,0,0,4.158h25.9v1.134H14.531V275.1H37.7v1.134H5.685a3.213,3.213,0,0,0,0,6.427H32.4v-1.134H5.685a2.079,2.079,0,0,1,0-4.158H36.5v1.89H11.355v1.134H36.5v1.134H33.53v1.134H37.7V283.8H5.685a4.347,4.347,0,1,1,0-8.695H13.4v-1.134H8.18a3.213,3.213,0,0,1,0-6.427H25.03v-1.134H8.18a4.345,4.345,0,0,0-2.906,7.578,5.481,5.481,0,0,0,.411,10.946H38.839v-3.4h-1.21v-4.158Z" transform="translate(0 -246.263)"/><path class="a" d="M117.7,436.406h1.134v1.134H117.7Z" transform="translate(-108.616 -403.41)"/><path class="a" d="M58.5,16.855l.253.168c.1.066,2.482,1.607,8.631,1.607s8.533-1.542,8.631-1.607l.253-.168V7.307l3.4-1.134v5.354a2.083,2.083,0,0,0-1.512,2v2.835h4.158V13.527a2.083,2.083,0,0,0-1.512-2V5.8l1.982-.661L76.836,3.149l-.359,1.076,2.728.909L67.389,9.073,55.572,5.134,67.389,1.2,75.4,3.866l.359-1.076L67.389,0l-15.4,5.134L58.5,7.307Zm22.683-3.328v1.7H79.3v-1.7a.945.945,0,0,1,1.89,0ZM59.639,7.685l7.75,2.583,7.75-2.583v4.443h-1.4v1.134h1.4V14.4H72.681V15.53h2.457v.684c-.731.356-3.082,1.282-7.75,1.282s-7.023-.928-7.75-1.282Z" transform="translate(-47.868 0)"/><path class="a" d="M87.7,436.406h1.134v1.134H87.7Z" transform="translate(-80.884 -403.41)"/><path class="a" d="M295.7,190.406h1.134v1.134H295.7Z" transform="translate(-273.158 -176.01)"/></g></svg>