<svg xmlns="http://www.w3.org/2000/svg" width="41.017" height="39" viewBox="0 0 41.017 39"><defs><style>.a{fill:#58595b;}</style></defs><g transform="translate(-12 -24)"><path class="a" d="M18.393,34.23h9.414v1.344H18.393Z" transform="translate(0.331 0.529)"/><path class="a" d="M18.393,31.033h9.414v1.344H18.393Z" transform="translate(0.331 0.364)"/><path class="a" d="M18.393,27.836h9.414v1.345H18.393Z" transform="translate(0.331 0.198)"/><path class="a" d="M18.393,37.426h9.414v1.345H18.393Z" transform="translate(0.331 0.694)"/><path class="a" d="M18.393,40.623h9.414v1.345H18.393Z" transform="translate(0.331 0.86)"/><path class="a" d="M18.393,43.82h9.414v1.344H18.393Z" transform="translate(0.331 1.025)"/><path class="a" d="M18.393,47.016h9.414v1.345H18.393Z" transform="translate(0.331 1.19)"/><path class="a" d="M51,41.578V26.689H48.311V24H35.534A4.706,4.706,0,0,0,31.5,26.295,4.706,4.706,0,0,0,27.466,24H14.689v2.689H12V56.276H35.766l1.786,1.786V63h14.12V57.488a3.33,3.33,0,0,1,.56-1.848,4.656,4.656,0,0,0,.786-2.594V44.172A2.686,2.686,0,0,0,51,41.578ZM49.655,28.034v13.54a2.674,2.674,0,0,0-.823.364,2.665,2.665,0,0,0-.521-.876V28.034Zm-14.12-2.689H46.965V40.231a2.635,2.635,0,0,0-2.686.815,2.7,2.7,0,0,0-3.365-.548V36.1a2.69,2.69,0,0,0-5.38,0V48.438l-1.461-1.46a2.671,2.671,0,0,0-1.9-.789V28.706a3.366,3.366,0,0,1,3.362-3.361Zm-19.5,0H27.466a3.366,3.366,0,0,1,3.362,3.361V46.561a2.671,2.671,0,0,0-.577,4.194,3.332,3.332,0,0,1-2.785,1.485H16.034ZM13.345,54.931v-26.9h1.344V53.586H27.466a4.661,4.661,0,0,0,3.362-1.425v2.77Zm18.827,0V52.682l2.249,2.249Zm19.5-1.885a3.314,3.314,0,0,1-.56,1.848,4.664,4.664,0,0,0-.785,2.594v4.167H38.9V57.506L31.221,49.83a1.345,1.345,0,0,1,0-1.9h0a1.375,1.375,0,0,1,1.9,0l3.757,3.755V36.1a1.345,1.345,0,0,1,2.689,0V46.189h1.345V42.828a1.345,1.345,0,0,1,2.689-.054h0c0,.018,0,.036,0,.054V46.19h1.345V42.828a1.345,1.345,0,1,1,2.689,0v3.361h1.345V44.172a1.345,1.345,0,0,1,2.689,0Z"/></g></svg>