<svg xmlns="http://www.w3.org/2000/svg" width="289.221" height="209.009" viewBox="0 0 289.221 209.009"><defs><style>.a,.j,.p{isolation:isolate;}.b{fill:#f2f2f2;}.c{fill:#c8c8c8;}.d{fill:#d6d6d6;}.e{fill:#efd8c5;}.f{fill:#565656;}.g{fill:#fff;}.h{fill:#b7202e;}.i{fill:#4b4b4b;}.j{fill:#cdc9cd;opacity:0.3;mix-blend-mode:multiply;}.k{fill:#6d6d6d;}.l{fill:#f4f4f4;}.m{fill:#d3d3d3;}.n{fill:#e5e5e5;}.o{fill:#adadad;}.p{mix-blend-mode:soft-light;}</style></defs><g transform="translate(-85 -1577.5)"><g class="a" transform="translate(159.937 1577.5)"><g transform="translate(0 13.707)"><path class="b" d="M101.175,247.253c4.773,7.008,10.368,10.825,14.825,13.866,25.9,17.672,73.727,14.683,107.482-7.19,4.07-2.637,39.809-26.293,35.384-47.753-2.893-12.006-10.468-13.615-14.751-22.109-9.219-18.283,13.977-34.429,7.947-60.952-2.706-11.9-9.857-19.57-13.718-23.709-20.884-22.4-52.026-21.022-60.908-20.631-10.323.456-17.793.784-26.14,5.377-19.575,10.773-15.878,29.544-33.055,36.536-12.459,5.071-19.5-2.73-34.911,4.913a44.026,44.026,0,0,0-14.75,11.791c-13.743,17.289-12.083,44.512.626,59.626,7.391,8.789,11.815,5.513,18.6,14.995C96.588,224.3,92.011,233.8,101.175,247.253Z" transform="translate(-56.316 -78.611)"/><path class="b" d="M67.261,130.343c-12.955,10.073-14.214,30.379-11.293,31.6C58.734,163.1,62.583,146.019,79,138.871c5.679-2.473,11.646-3.228,12.1-6.5.368-2.638-3.022-5.574-6.046-6.782C77.346,122.5,68.606,129.3,67.261,130.343Z" transform="translate(-54.662 -96.4)"/></g><path class="c" d="M246.27,90.621l1.4-2.682a15.552,15.552,0,0,0,5.532.023l1.375,2.7a1.13,1.13,0,0,0,1.435.534l3.62-1.48a1.129,1.129,0,0,0,.65-1.386l-.909-2.888a15.524,15.524,0,0,0,3.931-3.892l2.877.935a1.131,1.131,0,0,0,1.392-.638l1.513-3.606a1.131,1.131,0,0,0-.52-1.44l-2.682-1.4a15.551,15.551,0,0,0,.023-5.532l2.7-1.374a1.131,1.131,0,0,0,.534-1.435l-1.48-3.62a1.131,1.131,0,0,0-1.386-.65l-2.888.909a15.526,15.526,0,0,0-3.892-3.931l.935-2.877a1.131,1.131,0,0,0-.638-1.392l-3.606-1.513a1.131,1.131,0,0,0-1.44.52l-1.4,2.682a15.538,15.538,0,0,0-5.532-.024l-1.374-2.7A1.131,1.131,0,0,0,245,53.931l-3.62,1.48a1.131,1.131,0,0,0-.65,1.386l.909,2.888a15.536,15.536,0,0,0-3.931,3.892l-2.877-.934a1.13,1.13,0,0,0-1.391.638l-1.514,3.606a1.13,1.13,0,0,0,.52,1.44l2.682,1.4a15.538,15.538,0,0,0-.024,5.532l-2.7,1.375a1.13,1.13,0,0,0-.533,1.435l1.48,3.62a1.13,1.13,0,0,0,1.386.651l2.888-.909a15.538,15.538,0,0,0,3.892,3.932l-.934,2.877a1.13,1.13,0,0,0,.638,1.392l3.606,1.513A1.13,1.13,0,0,0,246.27,90.621Zm-2.146-20.738a6.921,6.921,0,1,1,3.7,9.061A6.921,6.921,0,0,1,244.124,69.883Z" transform="translate(-79.247 -15.404)"/><path class="d" d="M280.205,98.039l4.187,1.769a23.357,23.357,0,0,0,.636,8.29l-3.874,2.386a1.7,1.7,0,0,0-.625,2.214l2.656,5.243a1.7,1.7,0,0,0,2.155.806l4.215-1.712a23.349,23.349,0,0,0,6.308,5.417l-1.051,4.422a1.7,1.7,0,0,0,1.124,2.008l5.585,1.829a1.7,1.7,0,0,0,2.094-.954l1.769-4.187a23.356,23.356,0,0,0,8.29-.636l2.386,3.874a1.7,1.7,0,0,0,2.214.625l5.243-2.656a1.7,1.7,0,0,0,.806-2.155l-1.712-4.215a23.346,23.346,0,0,0,5.417-6.308l4.423,1.051a1.7,1.7,0,0,0,2.007-1.124l1.83-5.586a1.7,1.7,0,0,0-.954-2.093l-4.187-1.769a23.358,23.358,0,0,0-.636-8.29l3.874-2.386a1.7,1.7,0,0,0,.625-2.214l-2.656-5.243a1.7,1.7,0,0,0-2.155-.807l-4.216,1.712a23.355,23.355,0,0,0-6.307-5.417l1.051-4.423A1.7,1.7,0,0,0,319.6,75.5l-5.585-1.83a1.7,1.7,0,0,0-2.094.954l-1.769,4.188a23.355,23.355,0,0,0-8.29.636l-2.386-3.874a1.7,1.7,0,0,0-2.214-.624l-5.243,2.656a1.7,1.7,0,0,0-.806,2.154l1.712,4.215a23.338,23.338,0,0,0-5.417,6.308l-4.423-1.051a1.7,1.7,0,0,0-2.007,1.124l-1.83,5.585A1.7,1.7,0,0,0,280.205,98.039Zm30.8-5.73a10.4,10.4,0,1,1-13.122,6.647A10.4,10.4,0,0,1,311.008,92.309Z" transform="translate(-122.089 2.196)"/><path class="e" d="M127.025,346.152l.087-3.023a15.544,15.544,0,0,0,4.988-2.394l2.414,1.827a1.131,1.131,0,0,0,1.524-.146l2.611-2.912a1.13,1.13,0,0,0-.02-1.531l-2.078-2.2a15.545,15.545,0,0,0,1.839-5.218l3-.414a1.13,1.13,0,0,0,.974-1.181l-.213-3.905a1.131,1.131,0,0,0-1.1-1.069l-3.023-.087a15.549,15.549,0,0,0-2.393-4.988l1.827-2.414a1.13,1.13,0,0,0-.146-1.524L134.4,312.36a1.13,1.13,0,0,0-1.531.02l-2.2,2.078a15.522,15.522,0,0,0-5.218-1.839l-.415-3a1.13,1.13,0,0,0-1.181-.974l-3.905.213a1.13,1.13,0,0,0-1.068,1.1l-.087,3.023a15.534,15.534,0,0,0-4.988,2.393l-2.414-1.827a1.13,1.13,0,0,0-1.523.147l-2.612,2.912a1.131,1.131,0,0,0,.02,1.531l2.078,2.2a15.543,15.543,0,0,0-1.838,5.218l-3,.414a1.131,1.131,0,0,0-.974,1.182l.212,3.905a1.13,1.13,0,0,0,1.1,1.068l3.023.087a15.534,15.534,0,0,0,2.394,4.988l-1.827,2.414a1.131,1.131,0,0,0,.146,1.524l2.912,2.612a1.131,1.131,0,0,0,1.531-.02l2.2-2.078a15.543,15.543,0,0,0,5.218,1.838l.414,3a1.13,1.13,0,0,0,1.181.974l3.905-.212A1.131,1.131,0,0,0,127.025,346.152Zm-10.982-17.721a6.921,6.921,0,1,1,7.287,6.535A6.921,6.921,0,0,1,116.044,328.431Z" transform="translate(-73.494 -153.52)"/><g transform="translate(1.47 0)"><path class="f" d="M81.9,0A81.9,81.9,0,1,1,0,81.9,81.9,81.9,0,0,1,81.9,0Z" transform="translate(22.603 22.603)"/><circle class="g" cx="73.896" cy="73.896" r="73.896" transform="translate(0 104.504) rotate(-45)"/><g transform="translate(38.539 38.539)"><path class="f" d="M181.434,147.835a.716.716,0,0,1-.621-.358L173.7,135.155a.717.717,0,0,1,1.241-.716l7.114,12.321a.717.717,0,0,1-.62,1.075Z" transform="translate(-140.49 -124.811)"/><path class="f" d="M148.328,180.813a.714.714,0,0,1-.358-.1L135.649,173.6a.717.717,0,0,1,.717-1.242l12.321,7.114a.717.717,0,0,1-.359,1.337Z" transform="translate(-125.731 -139.521)"/><path class="f" d="M135.833,273.74a.716.716,0,0,1-.359-1.337L147.8,265.29a.717.717,0,1,1,.717,1.241l-12.322,7.114A.716.716,0,0,1,135.833,273.74Z" transform="translate(-125.664 -175.319)"/><path class="f" d="M174.017,308.789a.717.717,0,0,1-.62-1.075l7.114-12.321a.717.717,0,0,1,1.241.717l-7.114,12.321A.716.716,0,0,1,174.017,308.789Z" transform="translate(-140.373 -186.815)"/><path class="f" d="M274.06,308.964a.717.717,0,0,1-.622-.358l-7.114-12.322a.717.717,0,0,1,1.242-.717l7.114,12.322a.716.716,0,0,1-.62,1.075Z" transform="translate(-176.171 -186.882)"/><path class="f" d="M309.107,274.042a.711.711,0,0,1-.358-.1l-12.321-7.114a.717.717,0,0,1,.717-1.242l12.321,7.114a.717.717,0,0,1-.358,1.337Z" transform="translate(-187.667 -175.435)"/><path class="f" d="M296.962,181.115a.717.717,0,0,1-.359-1.337l12.322-7.114a.717.717,0,1,1,.717,1.241l-12.322,7.114A.711.711,0,0,1,296.962,181.115Z" transform="translate(-187.735 -139.638)"/><path class="f" d="M267.246,148.01a.717.717,0,0,1-.62-1.075l7.114-12.321a.717.717,0,1,1,1.241.717l-7.114,12.321A.714.714,0,0,1,267.246,148.01Z" transform="translate(-176.288 -124.879)"/><path class="f" d="M226.143,136.1a1.433,1.433,0,0,1-1.433-1.433V120.437a1.433,1.433,0,1,1,2.867,0v14.227A1.433,1.433,0,0,1,226.143,136.1Z" transform="translate(-160.178 -119.003)"/><path class="f" d="M135.4,226.839H121.174a1.433,1.433,0,0,1,0-2.867H135.4a1.433,1.433,0,0,1,0,2.867Z" transform="translate(-119.741 -159.44)"/><path class="f" d="M226.143,322.893a1.433,1.433,0,0,1-1.433-1.434V307.232a1.433,1.433,0,0,1,2.867,0v14.227A1.434,1.434,0,0,1,226.143,322.893Z" transform="translate(-160.178 -190.962)"/><path class="f" d="M322.2,226.839H307.971a1.433,1.433,0,0,1,0-2.867H322.2a1.433,1.433,0,1,1,0,2.867Z" transform="translate(-191.7 -159.44)"/></g></g></g><path class="h" d="M265.242,203.1l-37.311-20.263V117.589a2.384,2.384,0,1,0-4.765,0s.006,66.641.009,68.105l40.49,21.842a2.47,2.47,0,0,0,2.487-1.29A2.5,2.5,0,0,0,265.242,203.1Z" transform="translate(40.363 1498.528)"/><g transform="translate(257.034 1673.126)"><circle class="i" cx="6.278" cy="6.278" r="6.278" transform="translate(0 8.878) rotate(-45)"/><path class="g" d="M228.151,224.442a2.971,2.971,0,1,1-2.971-2.971A2.971,2.971,0,0,1,228.151,224.442Z" transform="translate(-216.303 -215.564)"/></g><g transform="translate(85 1666.398)"><ellipse class="j" cx="106.942" cy="5.791" rx="106.942" ry="5.791" transform="translate(0 96.524)"/><g transform="translate(9.688 0)"><g transform="translate(13.096 67.389)"><path class="k" d="M364.227,300.115H201.82v2.97h7.191V333.41H201.82v2.97H364.227a8.6,8.6,0,0,0,8.6-8.6V308.716A8.6,8.6,0,0,0,364.227,300.115Z" transform="translate(-201.82 -300.115)"/><path class="l" d="M0,0H155.131a4.935,4.935,0,0,1,4.935,4.935V25.39a4.935,4.935,0,0,1-4.935,4.935H0a0,0,0,0,1,0,0V0A0,0,0,0,1,0,0Z" transform="translate(7.191 2.97)"/><path class="m" d="M362.185,302.638H207.928v2.5H362.185a5.81,5.81,0,0,1,5.81,5.809v-2.5A5.81,5.81,0,0,0,362.185,302.638Z" transform="translate(-200.737 -299.668)"/><path class="n" d="M207.928,309.7H337.044l-129.116,2.461Z" transform="translate(-200.737 -298.416)"/><path class="n" d="M207.928,319.577H357.26l-149.332,2.709Z" transform="translate(-200.737 -296.665)"/></g><g transform="translate(15.724)"><path class="h" d="M341.46,249.782V265.1a6.911,6.911,0,0,1-6.909,6.909h-130.5v-2.385h5.778V245.258h-5.778v-2.385h130.5A6.908,6.908,0,0,1,341.46,249.782Z" transform="translate(-204.052 -242.873)"/><path class="l" d="M0,0H124.652a3.965,3.965,0,0,1,3.965,3.965V20.4a3.965,3.965,0,0,1-3.965,3.965H0a0,0,0,0,1,0,0V0A0,0,0,0,1,0,0Z" transform="translate(5.777 2.384)"/><path class="m" d="M332.908,244.9H208.959v2.01H332.908a4.668,4.668,0,0,1,4.668,4.668v-2.01A4.668,4.668,0,0,0,332.908,244.9Z" transform="translate(-203.182 -242.514)"/><path class="n" d="M208.959,250.57H312.707l-103.748,1.977Z" transform="translate(-203.182 -241.509)"/><path class="n" d="M208.959,258.509H328.952l-119.992,2.177Z" transform="translate(-203.182 -240.101)"/></g><g transform="translate(34.563 48.408)"><path class="h" d="M377.619,287.805v11.357a3.811,3.811,0,0,1-3.811,3.811H220.055v-2.595h4.9V286.589h-4.9v-2.6H373.808A3.812,3.812,0,0,1,377.619,287.805Z" transform="translate(-220.055 -283.992)"/><path class="l" d="M373.547,289.448v7.288a3.248,3.248,0,0,1-3.249,3.25H224.215V286.2H370.3A3.249,3.249,0,0,1,373.547,289.448Z" transform="translate(-219.318 -283.601)"/><path class="m" d="M370.3,286.2H224.215v.99H370.3a3.249,3.249,0,0,1,3.249,3.25v-.99A3.249,3.249,0,0,0,370.3,286.2Z" transform="translate(-219.318 -283.601)"/><path class="n" d="M224.215,288.773l37.1.729-37.1.938Z" transform="translate(-219.318 -283.145)"/><path class="n" d="M224.215,294.261l89.933,1.042-89.933.834Z" transform="translate(-219.318 -282.172)"/></g><g transform="translate(0 29.137)"><path class="o" d="M359.238,284.088V271.167h4.308v-3.544H197.835a7.139,7.139,0,0,0-7.139,7.139v4.988a7.139,7.139,0,0,0,7.139,7.139h165.71v-2.8Z" transform="translate(-190.696 -267.623)"/><path class="l" d="M2.879,0H164.234a0,0,0,0,1,0,0V12.922a0,0,0,0,1,0,0H2.879A2.879,2.879,0,0,1,0,10.043V2.879A2.879,2.879,0,0,1,2.879,0Z" transform="translate(4.308 3.543)"/><rect class="k" width="90.667" height="3.543" transform="translate(82.183 0)"/><rect class="k" width="90.667" height="2.8" transform="translate(82.183 16.466)"/><rect class="n" width="86.36" height="12.922" transform="translate(82.183 3.543)"/><path class="m" d="M197.744,270.633a3.389,3.389,0,0,0-3.389,3.389v1.528a3.389,3.389,0,0,1,3.389-3.389H358.589v-1.528Z" transform="translate(-190.047 -267.089)"/><path class="n" d="M268.4,273.761,215.95,275l52.452,1.172Z" transform="translate(-186.219 -266.535)"/><path class="n" d="M271.143,278.364H200.489l70.654.973Z" transform="translate(-188.96 -265.719)"/></g><g transform="translate(34.563 10.542)"><path class="p" d="M230.574,270.423l-5.506-4.141-4.634,3.733V251.828h9.526Z" transform="translate(-219.988 -251.828)"/><path class="k" d="M230.027,269.234l-4.986-4.017-4.986,4.017V251.828h9.973Z" transform="translate(-220.055 -251.828)"/></g><g transform="translate(116.93 78.976)"><path class="p" d="M298.442,330.814l-4.408-4.645-3.711,4.187v-20.4h7.627Z" transform="translate(-289.966 -309.958)"/><path class="h" d="M298,329.48l-3.992-4.5-3.992,4.5V309.958H298Z" transform="translate(-290.019 -309.958)"/></g></g></g></g></svg>