<svg xmlns="http://www.w3.org/2000/svg" width="255" height="225" viewBox="0 0 255 225">
    <g>
        <path fill="#58595b" d="M0 0H255V225H0z" transform="translate(-655 -1142.4) translate(655 1142.4)"/>
        <g>
            <path fill="#fff" d="M96.591 55.489C97.3 40.129 84.929 27.756 69 27.756S40.7 40.129 41.409 55.489C41.978 70.849 54.351 83.222 69 83.222s27.022-12.373 27.591-27.733zm13.938 54.471v-2.418A19.727 19.727 0 0 0 90.76 87.773H47.382a19.727 19.727 0 0 0-19.769 19.769v2.418a58.2 58.2 0 0 0 82.916 0zM69 127.311A58.311 58.311 0 1 1 127.311 69 58.391 58.391 0 0 1 69 127.311zM69 133A64 64 0 1 0 5 69a63.914 63.914 0 0 0 64 64z" transform="translate(-655 -1142.4) translate(714 1186.4)"/>
        </g>
    </g>
</svg>
