<svg xmlns="http://www.w3.org/2000/svg" width="143.224" height="143.224" viewBox="0 0 143.224 143.224"><defs><style>.a{fill:#58595b;}.b{fill:#b7202e;}</style></defs><g transform="translate(-1 -1)"><path class="a" d="M144.224,100.333V81.852A20.808,20.808,0,0,0,130.8,62.434a16.163,16.163,0,1,0-18.961.3,41.243,41.243,0,0,0-6.944,2.71,24.339,24.339,0,0,1-10.818,2.553H93.4V51.821h-4.62v-9.24H72.612a6.939,6.939,0,0,0-6.93,6.93V74.922H44.891V53.859A30.09,30.09,0,0,0,70.3,24V9.085a8.085,8.085,0,1,0-16.17,0V21.791a13.874,13.874,0,0,1-13.86,13.86h-.256a16.173,16.173,0,1,0-21.236,1.176A25.452,25.452,0,0,0,1,61.062V74.88a11.455,11.455,0,0,0,3.4,8.185,11.32,11.32,0,0,0,8.148,3.363v34.695a9.2,9.2,0,0,0,16.17,6.048,9.056,9.056,0,0,0,11.55,1.908v15.145h13.86V93.4h50.821v4.62h-2.58a11.534,11.534,0,0,0-10.957,7.9l-9.136,27.413a8.266,8.266,0,0,0,7.845,10.89h1.291a8.251,8.251,0,0,0,7.845-5.655l5.692-17.071v22.726h13.86v-18.48H139.6a4.625,4.625,0,0,0,4.62-4.62V116.5a4.625,4.625,0,0,0-4.62-4.62h-.256a16.109,16.109,0,0,0,4.877-11.55ZM109.573,49.511a11.55,11.55,0,1,1,11.55,11.55A11.563,11.563,0,0,1,109.573,49.511ZM88.782,67.992H83.007a8.094,8.094,0,0,0-8.085,8.085,8,8,0,0,0,.811,3.465H72.612a2.311,2.311,0,0,1-2.31-2.31V56.016a6.852,6.852,0,0,0,2.31.425h16.17ZM72.612,47.2h11.55v4.62H72.612a2.31,2.31,0,1,1,0-4.62ZM58.751,21.791V9.085a3.465,3.465,0,0,1,6.93,0V24A25.506,25.506,0,0,1,42.371,49.52l-2.1.192V67.567a6.921,6.921,0,0,1-4.62-6.505V40.271h4.62A18.5,18.5,0,0,0,58.751,21.791ZM17.17,24.1a11.55,11.55,0,1,1,11.55,11.55A11.563,11.563,0,0,1,17.17,24.1ZM7.662,79.791A6.871,6.871,0,0,1,5.62,74.88V61.062a20.813,20.813,0,0,1,16.17-20.255V61.062a6.921,6.921,0,0,1-4.62,6.505V54.131H12.55V81.81A6.878,6.878,0,0,1,7.662,79.791Zm27.989,45.952a4.625,4.625,0,0,1-4.62-4.62V77.232h-4.62v43.891a4.62,4.62,0,0,1-9.24,0V72.378a11.57,11.57,0,0,0,9.24-11.317V40.271h4.62V61.062a11.572,11.572,0,0,0,9.24,11.317v48.745A4.625,4.625,0,0,1,35.651,125.743Zm13.86,13.86h-4.62V93.4h4.62Zm4.62-50.821h-9.24v-9.24H66.107a6.921,6.921,0,0,0,6.505,4.62h28.4a28.972,28.972,0,0,0,12.883-3.04l.3-.152v7.813H54.131Zm48.1,26.258-7.36,22.068a3.643,3.643,0,0,1-3.46,2.495H90.124a3.653,3.653,0,0,1-3.465-4.807L95.8,107.383a6.925,6.925,0,0,1,6.577-4.74h2.58v9.584A4.587,4.587,0,0,0,102.236,115.041ZM114.193,139.6h-4.62V93.4h4.62v46.2ZM139.6,116.5v4.62H118.813V116.5H139.6Zm-20.791-4.62V78.66l3.343-1.672-2.068-4.133-8.265,4.133a24.293,24.293,0,0,1-10.816,2.555h-18a3.465,3.465,0,0,1,0-6.93h11.07a28.972,28.972,0,0,0,12.883-3.04,37.009,37.009,0,0,1,16.473-3.89,16.191,16.191,0,0,1,16.17,16.17v18.48a11.563,11.563,0,0,1-11.55,11.55Z" transform="translate(0 0)"/><path class="b" d="M41.93,28.721h3.664l5.3,5.3a5.577,5.577,0,0,0,9.52-3.943V28.721h18.48a6.939,6.939,0,0,0,6.93-6.93V7.93A6.939,6.939,0,0,0,78.891,1H41.93A6.939,6.939,0,0,0,35,7.93v13.86A6.939,6.939,0,0,0,41.93,28.721ZM39.62,7.93a2.311,2.311,0,0,1,2.31-2.31H78.891A2.311,2.311,0,0,1,81.2,7.93v13.86a2.311,2.311,0,0,1-2.31,2.31h-23.1v5.974a.993.993,0,0,1-1.633.677L47.507,24.1H41.93a2.311,2.311,0,0,1-2.31-2.31Z" transform="translate(44.542 0)"/><path class="b" d="M45,6h4.62v4.62H45Z" transform="translate(57.643 6.55)"/><path class="b" d="M49,6h4.62v4.62H49Z" transform="translate(62.883 6.55)"/><path class="b" d="M41,6h4.62v4.62H41Z" transform="translate(52.402 6.55)"/></g></svg>