<svg xmlns="http://www.w3.org/2000/svg" width="143.635" height="143.636" viewBox="0 0 143.635 143.636"><defs><style>.a{fill:#58595b;}.b{fill:#b7202e;}</style></defs><g transform="translate(-1 -1)"><path class="a" d="M40.592,60.35a16.217,16.217,0,1,0-18.951,0A30.156,30.156,0,0,0,1,88.918v16.217H61.234V88.918A30.156,30.156,0,0,0,40.592,60.35ZM19.534,47.217A11.584,11.584,0,1,1,31.117,58.8,11.6,11.6,0,0,1,19.534,47.217Zm3.475,41.7H19.534V79.651h13.9V100.5h-3.1a8.107,8.107,0,0,0-7.325-11.583ZM56.6,100.5H47.334V79.651H42.7V100.5H38.067V75.017H14.9v13.9H10.267v4.633H23.009a3.475,3.475,0,1,1,0,6.95H5.633V88.918a25.484,25.484,0,0,1,50.967,0Z" transform="translate(0 39.501)"/><path class="a" d="M76.592,60.35a16.217,16.217,0,1,0-18.951,0A30.156,30.156,0,0,0,37,88.918v16.217H97.234V88.918A30.156,30.156,0,0,0,76.592,60.35ZM55.534,47.217A11.584,11.584,0,1,1,67.117,58.8,11.6,11.6,0,0,1,55.534,47.217Zm3.475,41.7H55.534V79.651h13.9V100.5h-3.1a8.107,8.107,0,0,0-7.325-11.583ZM92.6,100.5H83.334V79.651H78.7V100.5H74.067V75.017H50.9v13.9H46.267v4.633H59.009a3.475,3.475,0,1,1,0,6.95H41.633V88.918a25.484,25.484,0,0,1,50.967,0Z" transform="translate(47.401 39.501)"/><path class="b" d="M31.183,42.613a6.345,6.345,0,0,1,2.4,5.076v1.962a11.584,11.584,0,1,0,23.167,0V47.862a7,7,0,0,1,2.734-5.507A23.155,23.155,0,0,0,44.454,1.009,23.316,23.316,0,0,0,22,24.251,22.981,22.981,0,0,0,31.183,42.613Zm20.934,7.038a6.95,6.95,0,1,1-13.9,0V47.689c0-.12-.016-.236-.021-.354H52.147c-.007.176-.03.35-.03.528ZM45.167,28.8A4.633,4.633,0,1,1,49.8,24.167,4.638,4.638,0,0,1,45.167,28.8ZM44.593,5.643c.192-.007.385-.009.577-.009A18.516,18.516,0,0,1,56.621,38.711,11.864,11.864,0,0,0,53.35,42.7H47.484v-9.6a9.267,9.267,0,1,0-4.633,0v9.6H37.066A10.531,10.531,0,0,0,33.98,38.92a18.375,18.375,0,0,1-7.346-14.688A18.647,18.647,0,0,1,44.593,5.643Z" transform="translate(27.651 0)"/><path class="a" d="M60.517,37.947a6.962,6.962,0,1,0,4.46-1.242A52.92,52.92,0,0,0,49.1,10.867L46.01,14.319A48.307,48.307,0,0,1,60.517,37.947Zm6.32,5.662a2.317,2.317,0,1,1-2.317-2.317A2.319,2.319,0,0,1,66.837,43.609Z" transform="translate(59.265 12.992)"/><path class="a" d="M49.667,11.347c-1.2-.929-2.449-1.821-3.73-2.655l-2.523,3.887c1.17.76,2.317,1.575,3.406,2.423Z" transform="translate(55.847 10.128)"/><path class="a" d="M13.95,50.559a6.937,6.937,0,0,0,4-12.612,48.3,48.3,0,0,1,14.5-23.628l-3.093-3.452A52.937,52.937,0,0,0,13.491,36.705a6.934,6.934,0,0,0,.459,13.854Zm0-9.267a2.317,2.317,0,1,1-2.317,2.317A2.319,2.319,0,0,1,13.95,41.292Z" transform="translate(7.9 12.992)"/><path class="a" d="M24.139,12.579,21.616,8.692c-1.281.832-2.534,1.724-3.73,2.655L20.733,15c1.091-.848,2.238-1.663,3.406-2.423Z" transform="translate(22.234 10.128)"/><path class="a" d="M61.385,44.9a6.95,6.95,0,1,0-6.524-9.267H35.473a6.95,6.95,0,1,0,0,4.633H54.861A6.941,6.941,0,0,0,61.385,44.9Zm0-9.267a2.317,2.317,0,1,1-2.317,2.317A2.319,2.319,0,0,1,61.385,35.633ZM28.951,40.267a2.317,2.317,0,1,1,2.317-2.317A2.319,2.319,0,0,1,28.951,40.267Z" transform="translate(27.649 39.501)"/></g></svg>