<svg xmlns="http://www.w3.org/2000/svg" width="49.621" height="49.623" viewBox="0 0 49.621 49.623">
    <defs>
        <style>
            .prefix__cls-1{fill:#58595b;stroke:#707070;stroke-width:.4px}
        </style>
    </defs>
    <g id="prefix__Group_7800" data-name="Group 7800" transform="translate(-9.8 -9.799)">
        <path id="prefix__Path_16507" d="M57.375 39.536H54.3v-11.69a.616.616 0 0 0-.823-.58l-1.718.614v-1.264a.615.615 0 0 0-.832-.576l-14.688 5.537a.616.616 0 0 0-.4.576v1.231H33.38v-1.231a.616.616 0 0 0-.4-.576L18.295 26.04a.615.615 0 0 0-.832.576v1.265l-1.718-.614a.616.616 0 0 0-.823.58v11.69h-3.076A1.848 1.848 0 0 0 10 41.382v9.844a1.848 1.848 0 0 0 1.846 1.846h3.076v5.538a.616.616 0 0 0 .409.58l17.227 6.153a.614.614 0 0 0 .207.036h3.692a.614.614 0 0 0 .207-.036l17.226-6.154a.616.616 0 0 0 .409-.58v-5.537h3.076a1.848 1.848 0 0 0 1.846-1.846v-9.844a1.848 1.848 0 0 0-1.846-1.846zM50.527 27.5v.815l-13.455 4.811v-.547zm-31.834 0l13.456 5.074v.547L18.694 28.32zm-7.462 23.726v-9.844a.615.615 0 0 1 .615-.615h4.922a1.848 1.848 0 0 1 1.846 1.846V50a1.853 1.853 0 0 1-.054.422c-.01.046-.028.09-.042.135a1.819 1.819 0 0 1-.1.257c-.023.047-.048.094-.075.138a1.809 1.809 0 0 1-.175.239c-.025.029-.046.06-.072.087a1.842 1.842 0 0 1-.334.273 1.782 1.782 0 0 1-.245.134c-.037.017-.076.028-.114.042a1.824 1.824 0 0 1-.2.062l-.111.024a1.846 1.846 0 0 1-.322.033h-4.924a.616.616 0 0 1-.615-.62zm4.922 1.846h.615a3.079 3.079 0 0 0 .542-.055c.057-.01.113-.023.17-.037a3.013 3.013 0 0 0 .369-.115c.051-.019.1-.034.153-.056a3.15 3.15 0 0 0 .4-.212c.014-.009.025-.019.038-.027.039-.026.076-.055.114-.082a3.076 3.076 0 0 0 .346-.288l.056-.052a3.022 3.022 0 0 0 .35-.424l.025-.04a2.983 2.983 0 0 0 .261-.481l.01-.021a3.084 3.084 0 0 0 .163-.526c.008-.034.014-.069.02-.1a3.129 3.129 0 0 0 .057-.56v-7.383a3.08 3.08 0 0 0-3.076-3.076h-.615V28.72l1.707.61a.122.122 0 0 1 .012.007l13.522 4.826.756.27v29.456l-16-5.713zM33.38 34.614h2.461v29.533H33.38zm19.688 23.562l-16 5.713V34.433l.756-.27 13.522-4.826a.122.122 0 0 1 .012-.007l1.707-.61v10.816h-.615a3.08 3.08 0 0 0-3.076 3.076V50a3.13 3.13 0 0 0 .057.56c.007.035.012.07.02.1a3.016 3.016 0 0 0 .164.526c0 .007.006.014.009.02a2.972 2.972 0 0 0 .262.482l.025.039a3.055 3.055 0 0 0 .349.423l.057.053a3.01 3.01 0 0 0 .341.281c.039.029.078.059.119.086l.035.025a3.227 3.227 0 0 0 .4.213c.052.022.106.038.159.058a3.068 3.068 0 0 0 .364.114c.057.014.114.026.172.037a3.066 3.066 0 0 0 .541.055h.615zm4.922-6.949a.616.616 0 0 1-.615.615h-4.922a1.853 1.853 0 0 1-.322-.033c-.038-.007-.074-.015-.112-.025a1.736 1.736 0 0 1-.194-.06c-.04-.015-.081-.027-.12-.044a1.852 1.852 0 0 1-.243-.132 1.828 1.828 0 0 1-.335-.273c-.026-.028-.048-.059-.073-.088a1.819 1.819 0 0 1-.175-.238c-.027-.045-.052-.092-.076-.14a1.838 1.838 0 0 1-.1-.255c-.014-.045-.031-.089-.042-.135a1.849 1.849 0 0 1-.054-.419v-7.387a1.848 1.848 0 0 1 1.846-1.846h4.922a.615.615 0 0 1 .615.615z" class="prefix__cls-1" data-name="Path 16507" transform="translate(0 -6.156)"/>
        <path id="prefix__Path_16508" d="M32.615 21.075h8.614a.615.615 0 0 0 .615-.615v-1.846h2.461v1.846a.615.615 0 0 0 .615.615h8.614a.615.615 0 0 0 .615-.615v-4.922a.535.535 0 0 0-.014-.07.574.574 0 0 0-.025-.123.6.6 0 0 0-.054-.113.5.5 0 0 0-.03-.063l-3.692-4.922a.593.593 0 0 0-.508-.247.615.615 0 0 0-.5.274L48.1 12.12a.615.615 0 1 0 1.024.682l.748-1.122 2.428 3.242h-7.379a.615.615 0 0 0-.615.615v1.846h-2.462v-1.845a.615.615 0 0 0-.615-.615h-7.383l2.432-3.242.748 1.122a.615.615 0 1 0 1.024-.682l-1.231-1.846a.615.615 0 0 0-.5-.274.606.606 0 0 0-.509.246l-3.692 4.922a.541.541 0 0 0-.03.063.6.6 0 0 0-.054.113.574.574 0 0 0-.025.123.535.535 0 0 0-.014.07v4.922a.615.615 0 0 0 .62.615zm12.921-4.922h7.383v3.692h-7.383zm-4.922 3.692h-7.383v-3.692h7.383z" class="prefix__cls-1" data-name="Path 16508" transform="translate(-8.464)"/>
    </g>
</svg>
