<svg xmlns="http://www.w3.org/2000/svg" width="38" height="38" viewBox="0 0 38 38">
    <g data-name="Group 7804">
        <path d="M47.525 41.722H42.9l2.052-.375a.475.475 0 0 0 .382-.552L40.19 12.6a.475.475 0 0 0-.552-.382l-6.561 1.2v-2.943A.475.475 0 0 0 32.6 10h-5.765a.475.475 0 0 0-.475.475v1.535h-4.815v-1.535A.475.475 0 0 0 21.07 10h-7.931a.475.475 0 0 0-.475.475v31.247h-2.189A.475.475 0 0 0 10 42.2v5.328a.475.475 0 0 0 .475.475h37.05a.475.475 0 0 0 .475-.478V42.2a.475.475 0 0 0-.475-.478zm-9.325-.107l-.946-5.181 6.115-1.116.945 5.181zm5-7.232L37.085 35.5l-.429-2.352 6.114-1.115zm-3.859-21.147L42.6 31.1l-6.115 1.116-3.26-17.861zm-2.086 28.486h-4.179v-22.9zM27.31 10.95h4.816v30.772H27.31V10.95zm-.95 2.01v28.762h-4.815V12.96zM13.614 32.1H20.6v2.746h-6.986zM20.6 10.95v20.2h-6.986v-20.2zm-6.986 24.842H20.6v5.93h-6.986zM47.05 47.05h-36.1v-4.378h36.1z" data-name="Path 16513" transform="translate(-10 -10)"/>
        <path d="M22.644 35.792h2.618a.475.475 0 1 0 0-.95h-2.618a.475.475 0 1 0 0 .95z" data-name="Path 16514" transform="translate(-10 -10)"/>
        <path d="M22.644 32.096h2.618a.475.475 0 1 0 0-.95h-2.618a.475.475 0 1 0 0 .95z" data-name="Path 16515" transform="translate(-10 -10)"/>
        <path d="M28.41 18.106h2.618a.475.475 0 1 0 0-.95H28.41a.475.475 0 0 0 0 .95z" data-name="Path 16516" transform="translate(-10 -10)"/>
        <path d="M28.41 15.447h2.618a.475.475 0 1 0 0-.95H28.41a.475.475 0 0 0 0 .95z" data-name="Path 16517" transform="translate(-10 -10)"/>
        <path d="M17.033 19.51a2.672 2.672 0 0 0 2.4-2.875 2.672 2.672 0 0 0-2.4-2.875 2.672 2.672 0 0 0-2.4 2.875 2.672 2.672 0 0 0 2.4 2.875zm0-4.8c.8 0 1.449.864 1.449 1.925s-.65 1.925-1.449 1.925-1.449-.864-1.449-1.925.65-1.924 1.449-1.924z" data-name="Path 16518" transform="translate(-10 -10)"/>
        <path d="M37.808 23.998a1.492 1.492 0 0 0 .267-.024 1.943 1.943 0 0 0 1.409-1.44 5.556 5.556 0 0 0-.879-4.817 1.942 1.942 0 0 0-1.827-.849c-1.221.223-1.892 1.958-1.529 3.95a5.138 5.138 0 0 0 1 2.306 2.07 2.07 0 0 0 1.559.874zm-1.625-3.35c-.273-1.5.179-2.738.765-2.845a.514.514 0 0 1 .09-.008 1.2 1.2 0 0 1 .832.525 4.242 4.242 0 0 1 .8 1.874 4.246 4.246 0 0 1-.085 2.036c-.157.464-.4.759-.68.809s-.611-.138-.921-.517a4.242 4.242 0 0 1-.801-1.874z" data-name="Path 16519" transform="translate(-10 -10)"/>
    </g>
</svg>
