<svg xmlns="http://www.w3.org/2000/svg" width="46.961" height="48" viewBox="0 0 46.961 48">
    <defs>
        <style>
            .prefix__cls-2{fill:#58595b;stroke:#58595b;stroke-miterlimit:10;stroke-width:.5px}
        </style>
    </defs>
    <g id="prefix__Group_7803" data-name="Group 7803" transform="translate(-2.519 -2)">
        <g id="prefix__Group_7801" data-name="Group 7801">
            <path id="prefix__Path_16509" d="M47.915 17.353A23.567 23.567 0 0 0 35.376 4a22.92 22.92 0 0 0-17.817-.39A24.107 24.107 0 0 0 4.085 34.537l1.91-.722a22.058 22.058 0 0 1 12.311-28.3 20.912 20.912 0 0 1 16.242.356 21.549 21.549 0 0 1 11.457 12.204A22.06 22.06 0 0 1 33.7 46.377a21.147 21.147 0 0 1-22.4-4.52h6.614v-2.044H7.9V50h2.043v-6.586a23.291 23.291 0 0 0 16.075 6.46 23.014 23.014 0 0 0 8.424-1.6 24.11 24.11 0 0 0 13.473-30.921z" data-name="Path 16509" style="fill:#58595b"/>
        </g>
        <g id="prefix__Group_7802" data-name="Group 7802" transform="translate(-2.58 -1.758)">
            <path id="prefix__Path_16510" d="M16.994 29.367h22.885v-.685H38.35a5.851 5.851 0 0 1-.057-4.416h1.587v-.686h-22.9a2.893 2.893 0 0 0 0 5.785h.022zm-.022-.684v.007a2.713 2.713 0 0 1-.6-.094 1.8 1.8 0 0 1-.356-.144 2.208 2.208 0 0 1-.432-.276 1.978 1.978 0 0 1-.209-.2 1.632 1.632 0 0 1-.127-.151.816.816 0 0 1-.071-.1 1.4 1.4 0 0 1-.128-.207.889.889 0 0 1-.049-.1 1.837 1.837 0 0 1-.091-.224.49.49 0 0 1-.026-.071c-.009-.027-.016-.055-.022-.082a.472.472 0 0 1-.018-.068c-.012-.055-.023-.112-.032-.17a.874.874 0 0 1-.015-.113.632.632 0 0 1-.006-.083v-.139c0-.055 0-.107.007-.16a.124.124 0 0 1 0-.029 1.231 1.231 0 0 1 .018-.154v-.011c.01-.055.021-.11.033-.162a.045.045 0 0 1 0-.018 2.183 2.183 0 0 1 .363-.767 1.6 1.6 0 0 1 .107-.133l.1-.115c.032-.037.1-.1.159-.144s.084-.068.129-.1.076-.052.117-.076A1.441 1.441 0 0 1 16 24.5l.141-.066h.009c.046-.018.091-.037.139-.052l.021-.006.091-.028a2.869 2.869 0 0 1 .578-.085h20.8a6.33 6.33 0 0 0 .05 4.417z" class="prefix__cls-2" data-name="Path 16510" transform="translate(0 1.227)"/>
            <path id="prefix__Path_16511" d="M39.374 29.263h-22.9v.685h1.587A5.857 5.857 0 0 1 18 34.363h-1.53v.685h22.911a2.893 2.893 0 0 0-.006-5.785zm2.13 2.37c.011.052.023.107.032.162v.011c.01.051.013.1.018.154a.129.129 0 0 1 0 .029c0 .052.006.1.006.16v.14a.463.463 0 0 1-.007.082.867.867 0 0 1-.013.115c-.009.056-.021.113-.032.168a.706.706 0 0 1-.018.068c-.007.028-.013.055-.023.083a.444.444 0 0 1-.024.071 1.9 1.9 0 0 1-.091.223 1.109 1.109 0 0 1-.055.107 1.593 1.593 0 0 1-.128.209.962.962 0 0 1-.071.1 1.5 1.5 0 0 1-.128.151 1.855 1.855 0 0 1-.207.2 2.187 2.187 0 0 1-.432.276 1.8 1.8 0 0 1-.356.144 2.642 2.642 0 0 1-.6.094v-.007H18.521a6.34 6.34 0 0 0 .05-4.416h20.8a2.694 2.694 0 0 1 .577.085l.091.027.021.007c.049.016.094.034.139.052h.01c.048.021.1.043.141.066a1.285 1.285 0 0 1 .167.1 1.327 1.327 0 0 1 .116.074c.046.033.087.067.13.1s.107.094.157.144.071.076.106.113.072.087.107.133a2.222 2.222 0 0 1 .362.767.059.059 0 0 1 .005.008z" class="prefix__cls-2" data-name="Path 16511" transform="translate(.521 2.474)"/>
            <path id="prefix__Path_16512" d="M42.251 18.677v-.685h-22.9a2.893 2.893 0 0 0 0 5.785h22.9v-.685h-1.529a5.855 5.855 0 0 1-.057-4.417zm-22.907 4.417v.006a2.642 2.642 0 0 1-.6-.094 1.8 1.8 0 0 1-.356-.144 2.152 2.152 0 0 1-.432-.276 1.978 1.978 0 0 1-.209-.2 1.634 1.634 0 0 1-.127-.151.8.8 0 0 1-.071-.1 1.472 1.472 0 0 1-.128-.209.889.889 0 0 1-.055-.107 1.9 1.9 0 0 1-.091-.223.624.624 0 0 1-.026-.071c-.009-.028-.016-.055-.022-.083a.472.472 0 0 1-.018-.068c-.012-.055-.023-.112-.032-.168a.866.866 0 0 1-.015-.115.614.614 0 0 1-.006-.082v-.14c0-.055 0-.107.007-.16a.129.129 0 0 1 0-.029 1.289 1.289 0 0 1 .018-.154v-.011c.009-.055.021-.11.032-.162a.054.054 0 0 1 0-.018 2.193 2.193 0 0 1 .363-.767c.034-.045.068-.089.107-.133l.1-.113c.051-.051.1-.1.159-.144s.084-.07.13-.1a1.261 1.261 0 0 1 .116-.076 1.274 1.274 0 0 1 .167-.1c.045-.023.094-.046.141-.067h.009c.046-.018.091-.037.14-.052l.02-.007.091-.027a2.785 2.785 0 0 1 .578-.085h20.8a6.329 6.329 0 0 0 .05 4.417z" class="prefix__cls-2" data-name="Path 16512" transform="translate(.521)"/>
        </g>
    </g>
</svg>
