<svg xmlns="http://www.w3.org/2000/svg" width="96" height="96" viewBox="0 0 96 96"><defs><style>.a{fill:#f58220;}.b{fill:#fff;}</style></defs><g transform="translate(-1066 -1132)"><circle class="a" cx="48" cy="48" r="48" transform="translate(1066 1132)"/><g transform="translate(1087.998 1129.047)"><path class="b" d="M49.623,45.348,46.4,45.1a.248.248,0,0,1-.222-.177,21.136,21.136,0,0,0-1.669-4.112.251.251,0,0,1,.036-.283l2.169-2.45a3.275,3.275,0,0,0-.136-4.48l-3.323-3.323a3.285,3.285,0,0,0-4.441-.17l-2.452,2.1a.249.249,0,0,1-.283.031,21.141,21.141,0,0,0-4.088-1.731.25.25,0,0,1-.174-.225l-.2-3.263a3.275,3.275,0,0,0-3.264-3.071h-4.7a3.284,3.284,0,0,0-3.26,3.021l-.246,3.22a.247.247,0,0,1-.174.222,21.081,21.081,0,0,0-4.413,1.828.248.248,0,0,1-.281-.033l-2.451-2.1a3.284,3.284,0,0,0-4.441.17L5.066,33.6a3.274,3.274,0,0,0-.137,4.48L7.1,40.53a.251.251,0,0,1,.036.283,21.054,21.054,0,0,0-1.668,4.112.249.249,0,0,1-.222.177l-3.222.246A3.284,3.284,0,0,0-1,48.608v4.7a3.275,3.275,0,0,0,3.071,3.264l3.262.2a.25.25,0,0,1,.226.174,21.085,21.085,0,0,0,1.731,4.088.251.251,0,0,1-.031.284l-2.1,2.451a3.285,3.285,0,0,0,.169,4.441l3.323,3.324a3.256,3.256,0,0,0,1.025.694.785.785,0,0,0,1.084-.853V67.251a4.309,4.309,0,0,1,2.932-4.089l1.651-.554a3.464,3.464,0,0,0,.885-.447,9.383,9.383,0,0,0,1.843.373l-1.755,6.207a.782.782,0,0,0,.171.738L18.5,71.733a.787.787,0,0,0,.566.262h.02a.79.79,0,0,0,.558-.232l2.235-2.255a.784.784,0,0,0,.192-.788l-1.942-6.21a9.319,9.319,0,0,0,1.911-.442,3.483,3.483,0,0,0,1.01.539l1.65.555a4.326,4.326,0,0,1,2.541,2.292,4.272,4.272,0,0,1,.39,1.719c0,.014,0,.027,0,.041s0,.024,0,.037v4.6a.786.786,0,1,0,1.571,0v-4.6c0-.041,0-.08,0-.121a5.85,5.85,0,0,0-.306-1.762,3.316,3.316,0,0,1,.858-.435l1.342-.452a2.983,2.983,0,0,0,.7-.341,7.8,7.8,0,0,0,1.281.27L31.7,69.285a.787.787,0,0,0,.171.738l1.643,1.831a.787.787,0,0,0,.565.261h.02a.784.784,0,0,0,.558-.233l1.816-1.831a.784.784,0,0,0,.192-.788l-1.526-4.878a7.718,7.718,0,0,0,1.331-.317,2.926,2.926,0,0,0,.8.413l1.341.452a3.351,3.351,0,0,1,2.282,3.18v3.224a.784.784,0,0,0,1.074.893,3.258,3.258,0,0,0,1.034-.7l3.323-3.323a3.285,3.285,0,0,0,.17-4.441l-2.1-2.452a.252.252,0,0,1-.032-.284,21.112,21.112,0,0,0,1.732-4.087.249.249,0,0,1,.225-.174l3.262-.2a3.274,3.274,0,0,0,3.072-3.263v-4.7A3.285,3.285,0,0,0,49.623,45.348ZM22.83,50.305l-4.837-1.557a.787.787,0,0,0-.6.051l-1.828.955v-.922a1.949,1.949,0,0,1,1.945-1.949h3.38a1.949,1.949,0,0,1,1.945,1.949Zm-7.27,1.222,2.264-1.183,5.006,1.611v2.368a1.6,1.6,0,0,1-.761,1.357l-2.051,1.25a1.574,1.574,0,0,1-1.646,0l-2.051-1.25a1.6,1.6,0,0,1-.761-1.357Zm3.6,9.48a7.713,7.713,0,0,1-1.8-.172,3.5,3.5,0,0,0,.361-1.543v-.926a3.131,3.131,0,0,0,2.951,0v.926a3.5,3.5,0,0,0,.315,1.456A7.733,7.733,0,0,1,19.161,61.008Zm-.044,9.056-1.176-1.311,1.185-4.191,1.307,4.176ZM36.986,54.147l-3.736-1.2a.787.787,0,0,0-.6.052l-1.269.663v-.506a1.436,1.436,0,0,1,1.433-1.435h2.745a1.435,1.435,0,0,1,1.432,1.435Zm-5.61,1.285,1.705-.891,3.9,1.257v1.817a1.149,1.149,0,0,1-.547.976l-1.665,1.015a1.132,1.132,0,0,1-1.185,0L31.923,58.59a1.151,1.151,0,0,1-.547-.976ZM34.15,62.9a6.21,6.21,0,0,1-1.249-.1,2.988,2.988,0,0,0,.229-1.144v-.519a2.688,2.688,0,0,0,2.1,0v.519a2.987,2.987,0,0,0,.2,1.081A6.221,6.221,0,0,1,34.15,62.9Zm-.026,7.289-.8-.889.807-2.849.886,2.835ZM51.072,53.309A1.7,1.7,0,0,1,49.477,55l-3.263.2a1.828,1.828,0,0,0-1.634,1.285,19.509,19.509,0,0,1-1.6,3.783,1.827,1.827,0,0,0,.213,2.068l2.1,2.451a1.707,1.707,0,0,1-.087,2.308L42.46,69.847V68.113a4.921,4.921,0,0,0-3.351-4.669l-1.06-.357a17.434,17.434,0,0,0,5.124-11.409A.786.786,0,0,0,41.6,51.6a15.859,15.859,0,0,1-4.742,10.453,1.417,1.417,0,0,1-.058-.4V60.208l.453-.276a2.732,2.732,0,0,0,1.3-2.317V53.153a3.008,3.008,0,0,0-3-3.007H32.809a3.008,3.008,0,0,0-3,3.007v4.462a2.73,2.73,0,0,0,1.3,2.317l.453.276v1.442a1.419,1.419,0,0,1-.962,1.343l-1.342.452a4.9,4.9,0,0,0-1.062.506A5.9,5.9,0,0,0,25.2,61.673l-1.651-.555a1.893,1.893,0,0,1-.775-.492,1.921,1.921,0,0,1-.535-1.334V57.416l.645-.393a3.18,3.18,0,0,0,1.515-2.7V48.832a3.522,3.522,0,0,0-3.516-3.52H17.5a3.523,3.523,0,0,0-3.516,3.52v5.493a3.18,3.18,0,0,0,1.515,2.7l.645.393v1.876a1.935,1.935,0,0,1-.616,1.413,1.9,1.9,0,0,1-.693.413l-1.652.555a5.878,5.878,0,0,0-4,5.578v2.6L6.437,67.1a1.708,1.708,0,0,1-.088-2.308l2.1-2.451a1.829,1.829,0,0,0,.213-2.069,19.536,19.536,0,0,1-1.6-3.782A1.827,1.827,0,0,0,5.43,55.2L2.168,55a1.7,1.7,0,0,1-1.6-1.7v-4.7a1.707,1.707,0,0,1,1.569-1.693l3.221-.245a1.83,1.83,0,0,0,1.613-1.31,19.508,19.508,0,0,1,1.544-3.8,1.829,1.829,0,0,0-.245-2.066l-2.168-2.45a1.7,1.7,0,0,1,.07-2.326L9.5,31.388a1.7,1.7,0,0,1,2.306-.088l2.452,2.1a1.828,1.828,0,0,0,2.067.214,19.545,19.545,0,0,1,4.083-1.692,1.826,1.826,0,0,0,1.309-1.613l.245-3.221a1.707,1.707,0,0,1,1.693-1.568h4.7a1.7,1.7,0,0,1,1.7,1.6l.2,3.262a1.829,1.829,0,0,0,1.285,1.634,19.536,19.536,0,0,1,3.782,1.6,1.829,1.829,0,0,0,2.069-.213l2.451-2.1a1.706,1.706,0,0,1,2.307.088l3.323,3.323a1.7,1.7,0,0,1,.071,2.326l-2.169,2.45a1.829,1.829,0,0,0-.245,2.066,19.5,19.5,0,0,1,1.544,3.8,1.829,1.829,0,0,0,1.613,1.31l3.221.246a1.705,1.705,0,0,1,1.568,1.693Z" transform="translate(0)"/><path class="b" d="M26.056,34.56A17.376,17.376,0,0,0,12.368,61.346a.786.786,0,1,0,1.318-.854,15.8,15.8,0,1,1,28.86-11.184A.786.786,0,1,0,44.1,49.05,17.367,17.367,0,0,0,26.056,34.56Z" transform="translate(-1.136 -1.136)"/></g></g></svg>