<svg xmlns="http://www.w3.org/2000/svg" width="96" height="96" viewBox="0 0 96 96"><defs><style>.a{fill:#f58220;}.b{fill:#fff;}</style></defs><g transform="translate(-1066 -1346)"><circle class="a" cx="48" cy="48" r="48" transform="translate(1066 1346)"/><g transform="translate(1089.001 1345)"><path class="b" d="M17.368,56.237h-3a.718.718,0,1,0,0,1.436h3a.718.718,0,1,0,0-1.436Z" transform="translate(4.568 10.792)"/><path class="b" d="M7.493,56.783,5.072,54.662a.718.718,0,1,0-.946,1.08l2.421,2.121a.718.718,0,0,0,.946-1.08Z" transform="translate(1.299 10.205)"/><path class="b" d="M46.631,64.583a1.051,1.051,0,0,0,.016-1.61L42.954,59.81a.653.653,0,0,1-.212-.362l-1.9-8.524a.718.718,0,1,0-1.385.376l.379,1.392-.941.108-.35.041-1.981.228-1.965-5.312a3.115,3.115,0,0,1,0-2.077l0-.005.367-.634.009-.017.419,1.463a.718.718,0,1,0,1.38-.4l-2.441-8.5a3.1,3.1,0,0,1,.614-2.858l3.7,13.605a.718.718,0,1,0,1.385-.376l-3.853-14.16,1.24-.742.035-.024.02-.013a.606.606,0,0,0,.064-.052h0a.6.6,0,0,0,.056-.06l.012-.015a.506.506,0,0,0,.04-.053l.007-.009,2.505-3.9h0L42.2,25.76A1.147,1.147,0,0,0,41.15,24l-3.763.3h0l-4.614.367-.016,0-.06.009-.025,0c-.023.005-.045.012-.067.019l-.013,0a.74.74,0,0,0-.075.032l-.021.011-.035.019L1.011,43.616a2.144,2.144,0,0,0-.7,2.946l2.731,4.566a2.187,2.187,0,0,0,1.3.994,2.1,2.1,0,0,0,.563.077,2.059,2.059,0,0,0,1.058-.294L6.48,51.6a2.57,2.57,0,0,0,3.259.873l3.444-1.686-1.771,8.665a.65.65,0,0,1-.212.359L7.506,62.975a1.052,1.052,0,0,0,.016,1.608l.96.793a1.143,1.143,0,0,0,1.289.109l4.5-2.58.009-.005.141-.083a2.779,2.779,0,0,0,1.28-1.211l.013-.029.594-1.468,1.686.969a1.029,1.029,0,0,1,.511.985l-.29,3.193a.847.847,0,0,0,.844.925h1.809a.847.847,0,0,0,.826-.654l1.119-4.777a2.1,2.1,0,0,0-.207-1.738l-.027-.04-3.7-5.228,2.032-5.491,0-.009a4.611,4.611,0,0,0,.263-1.451,2.242,2.242,0,0,0,1.512-.276l1.6-.924a2.294,2.294,0,0,0,.838-3.127l-.366-.634a2.284,2.284,0,0,0-.71-.757l.808-.483a.718.718,0,0,0-.738-1.232l-6.391,3.828L17.7,43.2l-6,3.593-.669-1.117,16.029-9.6a.718.718,0,1,0-.738-1.232L10.3,44.443,8.221,40.97l24.361-14.6.517.862.172.287L12.28,40.1a.718.718,0,0,0,.37,1.333.711.711,0,0,0,.368-.1L34.007,28.757,36.065,32.2l-1.09.654h0L26.953,37.66a.718.718,0,0,0,.737,1.232l5.187-3.107a4.511,4.511,0,0,0,.073,2.208l1.119,3.891-1.543-.89a2.289,2.289,0,0,0-3.129.838l-.366.634a2.292,2.292,0,0,0,.837,3.126l1.6.925a2.271,2.271,0,0,0,1.512.276,4.61,4.61,0,0,0,.263,1.451l0,.009,2.032,5.491-3.7,5.228-.027.04a2.087,2.087,0,0,0-.207,1.737l1.119,4.778a.846.846,0,0,0,.826.654H35.1a.847.847,0,0,0,.844-.925l-.291-3.194a1.032,1.032,0,0,1,.511-.984l1.686-.97.6,1.47.013.029a2.779,2.779,0,0,0,1.28,1.211l.141.083.009.005,4.5,2.581a1.142,1.142,0,0,0,1.287-.111Zm-5.96-39.1-1.095,1.7-.922-1.543Zm-3.615.29,1.652,2.763-1.638,2.549-3.033-5.072ZM4.727,50.738a.763.763,0,0,1-.45-.348l-2.73-4.565a.708.708,0,0,1,.2-.977l2.727-1.634.659,1.1,2.823,4.722-1.522.91c-.013.008-.024.019-.036.027l-1.169.7A.643.643,0,0,1,4.727,50.738ZM14.39,61.019c-.1.2-.319.339-.694.558l-.144.085L9.237,64.137l-.448-.371L12.133,60.9a2.092,2.092,0,0,0,.686-1.161l.454-2.2a5.561,5.561,0,0,0,1.782,1.842Zm7.052-.7a.678.678,0,0,0-.02.069L20.4,64.745h-.7l.232-2.552a2.471,2.471,0,0,0-1.225-2.36l-2.7-1.555A4.106,4.106,0,0,1,13.98,54.1v0l1.212.14,2.477.287,3.72,5.252A.664.664,0,0,1,21.442,60.32ZM19.56,47.759l-1.966,5.312-2.541-.294-.784-.091.538-2.7,1.6-.784a.718.718,0,1,0-.631-1.289l-1.909.934-.021.011-4.738,2.32a1.133,1.133,0,0,1-1.392-.324l10.639-6.373a.686.686,0,0,1,.671.25l.031.04,0,0a2.415,2.415,0,0,0,.129.264l.366.634,0,.005A3.115,3.115,0,0,1,19.56,47.759Zm4.007-3.41-1.6.924a.852.852,0,0,1-1.116-.236,4.641,4.641,0,0,0-.506-.936.855.855,0,0,1,.4-.941l1.6-.924a.854.854,0,0,1,1.167.312l.366.634A.856.856,0,0,1,23.567,44.348ZM9.19,48.3,7.4,45.311l-1.7-2.835,1.281-.767L9.434,45.8l1.037,1.734Zm23.644-2.94a.845.845,0,0,1-.647-.085l-1.6-.924a.856.856,0,0,1-.312-1.167l.366-.634a.844.844,0,0,1,.518-.4.853.853,0,0,1,.649.085l1.6.924a.855.855,0,0,1,.4.941,4.541,4.541,0,0,0-.506.936A.846.846,0,0,1,32.834,45.357Zm2.609,14.475a2.471,2.471,0,0,0-1.225,2.36l.232,2.552h-.7l-1.02-4.355a.679.679,0,0,0-.02-.069.664.664,0,0,1,.051-.542l3.72-5.252,2.5-.288,1.193-.139v0a4.105,4.105,0,0,1-2.025,4.175Zm9.474,4.3L40.6,61.663c-.048-.029-.1-.057-.145-.085-.374-.219-.594-.354-.693-.558l-.665-1.64a5.561,5.561,0,0,0,1.782-1.842l.454,2.2A2.089,2.089,0,0,0,42.02,60.9l3.346,2.866Z" transform="translate(0)"/><path class="b" d="M27.323,56.237H24.317a.718.718,0,0,0,0,1.436h3.006a.718.718,0,1,0,0-1.436Z" transform="translate(7.901 10.792)"/><path class="b" d="M37.481,54.728a.718.718,0,0,0-1.013-.067l-2.421,2.121a.717.717,0,0,0,.945,1.08l2.421-2.121A.718.718,0,0,0,37.481,54.728Z" transform="translate(11.315 10.205)"/></g></g></svg>