<svg xmlns="http://www.w3.org/2000/svg" width="96" height="96" viewBox="0 0 96 96"><defs><style>.a{fill:#f58220;}.b{fill:#fff;}</style></defs><g transform="translate(-1066 -1453)"><circle class="a" cx="48" cy="48" r="48" transform="translate(1066 1453)"/><g transform="translate(1091 1476)"><path class="b" d="M64.971,111.175H38.021a2.887,2.887,0,1,1,0-5.775h26.95a2.887,2.887,0,1,1,0,5.775Zm-26.95-3.85a.962.962,0,0,0,0,1.925h26.95a.962.962,0,1,0,0-1.925Z" transform="translate(-21.658 -64.975)"/><path class="b" d="M75.079,85.667h-3.85a.962.962,0,0,1-.962-.962V71.229a.962.962,0,0,1,.962-.962h3.85a.962.962,0,0,1,.963.962V84.7A.962.962,0,0,1,75.079,85.667Zm-2.887-1.925h1.925V72.192H72.192Z" transform="translate(-43.317 -43.317)"/><path class="b" d="M105.193,85.667h-3.85a.962.962,0,0,1-.962-.962V71.229a.962.962,0,0,1,.962-.962h3.85a.962.962,0,0,1,.963.962V84.7A.962.962,0,0,1,105.193,85.667Zm-2.887-1.925h1.925V72.192h-1.925Z" transform="translate(-61.881 -43.317)"/><path class="b" d="M44.965,85.667h-3.85a.962.962,0,0,1-.962-.962V71.229a.962.962,0,0,1,.962-.962h3.85a.962.962,0,0,1,.963.962V84.7A.962.962,0,0,1,44.965,85.667Zm-2.888-1.925H44V72.192H42.078Z" transform="translate(-24.753 -43.317)"/><path class="b" d="M64.971,66H38.021a2.887,2.887,0,1,1,0-5.775h26.95a2.887,2.887,0,1,1,0,5.775Zm-26.95-3.85a.963.963,0,0,0,0,1.925h26.95a.963.963,0,0,0,0-1.925Z" transform="translate(-21.658 -37.129)"/><path class="b" d="M69.028,45.72H67.1V43.427L54.59,37.171,42.078,43.427V45.72H40.153V42.833a.961.961,0,0,1,.532-.861L54.16,35.234a.963.963,0,0,1,.861,0L68.5,41.971a.963.963,0,0,1,.532.861Z" transform="translate(-24.753 -21.658)"/><path class="b" d="M9.625,31.763a.962.962,0,0,1-.681-.282l-4.53-4.53H2.888A2.888,2.888,0,0,1,0,24.063V2.888A2.888,2.888,0,0,1,2.888,0H24.063A2.888,2.888,0,0,1,26.95,2.888V13.475H25.025V2.888a.962.962,0,0,0-.962-.963H2.888a.963.963,0,0,0-.963.963V24.063a.962.962,0,0,0,.963.962H4.812a.964.964,0,0,1,.681.282l3.17,3.17V25.988a.963.963,0,0,1,.963-.963h2.887V26.95H10.587V30.8A.962.962,0,0,1,9.625,31.763Z"/><path class="b" d="M21.21,29.872a8.663,8.663,0,1,1,8.663-8.663H27.947a6.737,6.737,0,1,0-6.738,6.738Z" transform="translate(-7.735 -7.735)"/><path class="b" d="M28.436,33.833a.963.963,0,0,1-.681-.282l-1.925-1.925,1.361-1.361,1.245,1.245,3.17-3.17L32.967,29.7l-3.85,3.85A.962.962,0,0,1,28.436,33.833Z" transform="translate(-15.924 -17.47)"/></g></g></svg>