<svg xmlns="http://www.w3.org/2000/svg" width="96" height="96" viewBox="0 0 96 96"><defs><style>.a{fill:#f58220;}.b{fill:#fff;}</style></defs><g transform="translate(-1066 -1025)"><circle class="a" cx="48" cy="48" r="48" transform="translate(1066 1025)"/><g transform="translate(1088 1042)"><path class="b" d="M24.992,59.618l-.148.723.142-.724a.738.738,0,0,0-.285,1.448l.014,0a.738.738,0,0,0,.277-1.449Z" transform="translate(-4.301 -9.564)"/><path class="b" d="M31.9,59.908l.073.734-.076-.734a.738.738,0,0,0,.075,1.471c.025,0,.051,0,.076,0l.021,0a.738.738,0,0,0-.169-1.467Z" transform="translate(-5.574 -9.618)"/><path class="b" d="M28.443,60.023h-.011a.734.734,0,0,0-.765.7.742.742,0,0,0,.708.771h.035a.737.737,0,0,0,.033-1.474Z" transform="translate(-4.937 -9.639)"/><path class="b" d="M21.652,58.7l-.009,0a.734.734,0,0,0-.939.447.74.74,0,1,0,.948-.443Z" transform="translate(-3.686 -9.394)"/><path class="b" d="M35.317,59.276l.182.715-.184-.714a.738.738,0,0,0,.183,1.453.756.756,0,0,0,.185-.024l.02,0a.738.738,0,0,0-.385-1.425Z" transform="translate(-6.202 -9.502)"/><path class="b" d="M38.587,58.135l.292.677-.295-.676a.738.738,0,1,0,.589,1.352l.018-.008a.737.737,0,0,0-.6-1.345Z" transform="translate(-6.805 -9.291)"/><path class="b" d="M18.277,16.9a.738.738,0,1,0-.345-1.389l-.009,0a.736.736,0,0,0,.354,1.384Z" transform="translate(-3.129 -1.681)"/><path class="b" d="M7.966,26.943a.736.736,0,0,0,1-.311l.013-.025a.738.738,0,1,0-1.009.337Z" transform="translate(-1.351 -3.487)"/><path class="b" d="M6.678,30.311a.748.748,0,0,0,.237.039.738.738,0,0,0,.7-.5l.009-.029a.738.738,0,1,0-.945.491Z" transform="translate(-1.102 -4.08)"/><path class="b" d="M9.757,23.815a.737.737,0,0,0,1.03-.163l.01-.013a.738.738,0,0,0-1.2-.858l.594.437-.6-.435A.738.738,0,0,0,9.757,23.815Z" transform="translate(-1.687 -2.939)"/><path class="b" d="M15.229,18.835a.741.741,0,1,0-.427-1.34l-.018.013a.739.739,0,0,0,.445,1.327Z" transform="translate(-2.586 -2.026)"/><path class="b" d="M5.978,44.033A.736.736,0,1,0,5.968,44Z" transform="translate(-1.06 -6.614)"/><path class="b" d="M12.517,21.2A.74.74,0,1,0,12,19.937l-.012.012a.737.737,0,0,0,.527,1.253Z" transform="translate(-2.102 -2.448)"/><path class="b" d="M6.659,40.187a.738.738,0,0,0-1.464.182l0,.03a.737.737,0,0,0,.729.629.686.686,0,0,0,.108-.008A.738.738,0,0,0,6.659,40.187Z" transform="translate(-0.926 -5.985)"/><path class="b" d="M5.695,37.433h.022a.738.738,0,0,0,.737-.716v-.031a.738.738,0,1,0-.76.747Z" transform="translate(-0.889 -5.343)"/><path class="b" d="M5.915,33.834a.718.718,0,0,0,.131.012.739.739,0,0,0,.725-.608l0-.033a.738.738,0,1,0-.862.629Z" transform="translate(-0.947 -4.703)"/><path class="b" d="M48.372,24.136a.738.738,0,0,0,1.215-.837l-.614.41.611-.414a.738.738,0,0,0-1.222.828Z" transform="translate(-8.607 -3.028)"/><path class="b" d="M52.846,33.423a.738.738,0,0,0-.651.816l0,.032a.738.738,0,0,0,.73.633.763.763,0,0,0,.105-.007.743.743,0,0,0-.188-1.474Z" transform="translate(-9.312 -4.892)"/><path class="b" d="M51.466,30.685l0,.009a.737.737,0,0,0,.707.53.709.709,0,0,0,.209-.03.736.736,0,0,0,.5-.915l0-.01a.737.737,0,1,0-1.415.417Z" transform="translate(-9.178 -4.236)"/><path class="b" d="M50.187,27.3a.742.742,0,0,0,.665.415.725.725,0,0,0,.324-.076.735.735,0,0,0,.337-.985l-.669.312.668-.313a.738.738,0,1,0-1.336.626Z" transform="translate(-8.94 -3.609)"/><path class="b" d="M46.094,21.311a.751.751,0,1,0-.022-.024Z" transform="translate(-8.185 -2.507)"/><path class="b" d="M53.115,37.174a.742.742,0,0,0-.063,1.483h.042a.737.737,0,0,0,.735-.7l0-.03A.736.736,0,0,0,53.115,37.174Z" transform="translate(-9.342 -5.562)"/><path class="b" d="M40.316,16.875l.018.01a.728.728,0,0,0,.343.085.738.738,0,0,0,.35-1.388l-.357.646.354-.647a.738.738,0,0,0-.709,1.294Z" transform="translate(-7.125 -1.693)"/><path class="b" d="M43.373,18.858l.012.009a.738.738,0,1,0,.891-1.176l0,0a.737.737,0,1,0-.9,1.17Z" transform="translate(-7.687 -2.058)"/><path class="b" d="M49.9,42.779l-3.463-3.47a1.558,1.558,0,0,0-2.206,0l-.081.081-.227-.228a2.971,2.971,0,0,1-.647-.966.688.688,0,0,0-.053-.136,3,3,0,0,1-.172-1v-.981a.728.728,0,0,0,.219.074.743.743,0,0,0,.272-1.46.729.729,0,0,0-.5.075,4.16,4.16,0,0,0-1.219-2.774l-3.359-3.365a3.986,3.986,0,0,0-5.1-.458l-.357-.358V19.373a4.19,4.19,0,0,0-1.039-2.762,2.981,2.981,0,0,1-.739-1.965v-.618h.051a1.562,1.562,0,0,0,1.559-1.56V7.56A1.562,1.562,0,0,0,31.293,6H17.513a1.562,1.562,0,0,0-1.56,1.56v4.907a1.562,1.562,0,0,0,1.56,1.56h.113v.323a2.963,2.963,0,0,1-.871,2.106l-1.487,1.49a4.163,4.163,0,0,0-1.224,2.96v4.759a3.976,3.976,0,0,0,.429,1.8,3.964,3.964,0,0,0-2.589,1.163L8.525,31.991A4.165,4.165,0,0,0,7.3,34.951v2.107a2.957,2.957,0,0,1-.871,2.1l-.224.225,0,0-.081-.081a1.557,1.557,0,0,0-2.205,0L.455,42.779a1.563,1.563,0,0,0,0,2.206l1.186,1.188a.738.738,0,0,0,1.043-1.043L1.5,43.943a.086.086,0,0,1,0-.121l3.464-3.47a.082.082,0,0,1,.117,0l.6.6h0L13.9,49.191l.921.923a.086.086,0,0,1,0,.122L11.362,53.7a.082.082,0,0,1-.117,0l-6.47-6.481a.738.738,0,0,0-1.045,1.043L10.2,54.746a1.558,1.558,0,0,0,2.206,0l3.463-3.47a1.562,1.562,0,0,0,0-2.205l-.038-.038.437-.438a2.968,2.968,0,0,1,1.909-.865,4.177,4.177,0,0,0,2.686-1.218l3.181-3.189A2.525,2.525,0,0,0,25.869,41.4a2.515,2.515,0,0,0,3.594-2.276V37.373A2.515,2.515,0,0,0,33.02,35.08V29.9l2.269,2.28a.738.738,0,0,0,1.046-1.041l-1.891-1.9a2.514,2.514,0,0,1,2.986.429l3.359,3.365a2.7,2.7,0,0,1,.793,1.917v2.107a4.427,4.427,0,0,0,1.3,3.147l.229.229-1.07,1.072L35.571,47.99l-.361-.361-.012-.011-.063-.064a4.443,4.443,0,0,0-2.857-1.295,2.705,2.705,0,0,1-1.74-.79l-2.424-2.411A.738.738,0,0,0,27.074,44.1l2.423,2.41a4.177,4.177,0,0,0,2.687,1.218,2.967,2.967,0,0,1,1.908.865l.036.035a.615.615,0,0,0,.061.062l.34.34-.038.039a1.562,1.562,0,0,0,0,2.205l3.463,3.47a1.558,1.558,0,0,0,2.206,0L49.9,44.985A1.563,1.563,0,0,0,49.9,42.779Zm-6.352-7.336-.014,0-.134-.028ZM19.818,45.471a2.7,2.7,0,0,1-1.737.788,4.443,4.443,0,0,0-2.857,1.295l-.435.436L14.4,47.6l-.015-.015L7.247,40.435l.229-.229a4.427,4.427,0,0,0,1.3-3.147V34.951a2.7,2.7,0,0,1,.792-1.917l3.359-3.365a2.513,2.513,0,0,1,2.991-.426l-1.895,1.9a.738.738,0,0,0,1.044,1.043l2.263-2.268v9.21a2.515,2.515,0,0,0,3.608,2.269,2.527,2.527,0,0,0,1.25,1.7ZM31.545,35.08a1.041,1.041,0,1,1-2.082,0V26.852a.737.737,0,1,0-1.475,0V39.125a1.04,1.04,0,0,1-2.066.173V26.843a.746.746,0,0,0-1.491.008V39.125a2.554,2.554,0,0,0,.016.276v1.487a1.041,1.041,0,1,1-2.082,0V26.834a.738.738,0,0,0-1.476,0V39.125a1.041,1.041,0,1,1-2.081,0V25.4a.738.738,0,0,0-1.476,0v2.539a.717.717,0,0,0-.177.085,2.525,2.525,0,0,1-1.635-2.361V20.906a2.7,2.7,0,0,1,.793-1.918L17.8,17.5a4.423,4.423,0,0,0,1.3-3.147v-.323h1.483a.738.738,0,1,0,0-1.476H17.513a.085.085,0,0,1-.085-.085V7.56a.085.085,0,0,1,.085-.085H31.292a.085.085,0,0,1,.085.085v4.907a.085.085,0,0,1-.085.085H24.048a.738.738,0,1,0,0,1.476h5.718v.618a4.455,4.455,0,0,0,1.105,2.938,2.711,2.711,0,0,1,.674,1.789ZM48.86,43.943,39.115,53.7a.078.078,0,0,1-.058.025A.081.081,0,0,1,39,53.7l-3.463-3.469a.086.086,0,0,1,0-.122l.558-.559h0l5.657-5.666,3.53-3.536a.081.081,0,0,1,.117,0l3.464,3.47A.086.086,0,0,1,48.86,43.943Z"/><path class="b" d="M23.988,9.928a.787.787,0,1,0,.786.787A.787.787,0,0,0,23.988,9.928Z" transform="translate(-4.14 -0.701)"/><path class="b" d="M55.307,50.858a.787.787,0,1,0,.785.786A.786.786,0,0,0,55.307,50.858Z" transform="translate(-9.728 -8.004)"/><path class="b" d="M14.622,59.847a.785.785,0,1,0-.785.787A.787.787,0,0,0,14.622,59.847Z" transform="translate(-2.329 -9.467)"/></g></g></svg>