<svg xmlns="http://www.w3.org/2000/svg" width="96" height="96" viewBox="0 0 96 96"><defs><style>.a{fill:#f58220;}.b{fill:#fff;}</style></defs><g transform="translate(-1032 -831)"><circle class="a" cx="48" cy="48" r="48" transform="translate(1032 831)"/><path class="b" d="M65.183,5.9,63.307,4.249,65.183,2.6a.926.926,0,0,0-.612-1.62H56.81V.643a.644.644,0,0,0-1.287,0V9.319L50.24,12.187a2.012,2.012,0,0,0-.209-.675l-.744-1.454a2.034,2.034,0,0,0-2.736-.882l-.575.294a2.032,2.032,0,0,0-.883,2.736l.744,1.454a2.023,2.023,0,0,0,.733.8,5.615,5.615,0,0,0-.775,1.866l-.139.491a.643.643,0,0,0,.444.794.621.621,0,0,0,.175.024.642.642,0,0,0,.619-.468l.139-.49c.281-.994.455-1.527,1.006-1.826l.988-.537.122-.062c.04-.021.078-.044.117-.067l7.042-3.825a2.72,2.72,0,0,1-1.3,2.186l-4.58,2.783-.016.009-1.425.866a.644.644,0,0,0,.615,1.129L48.522,20.6l-.791.324-2.149.881.619-2.19a.643.643,0,1,0-1.238-.35l-.979,3.461a.611.611,0,0,0-.023.14l-.256,4.706a2.167,2.167,0,0,1-.053.694l-2.845,5.985H38.74a2.2,2.2,0,0,0-2.2,2.2V38.3a2.2,2.2,0,0,0-.91-.2h-5.25a2.2,2.2,0,0,0-2.2,2.2v2.3H26.644a.643.643,0,1,0,0,1.287H64.57a.643.643,0,1,0,0-1.287H62.9V26.023a2.2,2.2,0,0,0-2.195-2.2H56.81V12.6a4.013,4.013,0,0,0,.646-3.438.643.643,0,0,0-.646-.472V7.521h7.761A.926.926,0,0,0,65.183,5.9ZM46.192,11.051a.739.739,0,0,1,.37-.435l.576-.3a.733.733,0,0,1,.339-.082.746.746,0,0,1,.665.406l.745,1.453a.748.748,0,0,1-.248.959l-.21.114-.442.226a.746.746,0,0,1-1-.324l-.745-1.453A.741.741,0,0,1,46.192,11.051ZM44.9,34.447a2.208,2.208,0,0,0-.707-.189l.707-.937Zm3.054-5.184a2.422,2.422,0,0,0,.463-1.152c.018-.083.335-1.817.335-1.817s.3.187.332.2a.068.068,0,0,1,.04.056l.35,3.557H47.318Zm3.8-3.55L51.214,30.1h-.448l-.362-3.68a1.355,1.355,0,0,0-.758-1.088L49,24.927l.431-2.388s1.816,2.156,1.858,2.211C51.664,25.239,51.792,25.434,51.758,25.713Zm-6.949,3.113a3.486,3.486,0,0,0,.181-1.194l.233-4.291,2.975-1.22-.54,3-.005.024-.447,2.477a2.441,2.441,0,0,1-.269.857L42.59,34.249h-.358ZM29.475,40.3a.91.91,0,0,1,.909-.909h5.25a.911.911,0,0,1,.91.909v2.3H29.475Zm8.355,0V36.445a.911.911,0,0,1,.91-.91h5.25a.911.911,0,0,1,.91.91V42.6H37.83V40.3ZM61.611,26.023V42.6H54.542V38.746a.643.643,0,0,0-1.287,0V42.6H46.186V32.3a.911.911,0,0,1,.909-.91h5.251a.911.911,0,0,1,.909.91v3.224a.643.643,0,0,0,1.287,0v-9.5a.91.91,0,0,1,.909-.909H60.7A.911.911,0,0,1,61.611,26.023Zm-6.16-2.2a2.2,2.2,0,0,0-2.2,2.2v4.283a2.166,2.166,0,0,0-.745-.191l.524-4.244a2.478,2.478,0,0,0-.726-1.905c-.043-.057-2.544-3.025-2.544-3.025L51.3,16.3l4.225-2.567V23.827ZM56.81,6.234V2.264h6.805l-1.466,1.29a.926.926,0,0,0,0,1.39l1.466,1.29Z" transform="translate(1031 855)"/></g></svg>