<svg xmlns="http://www.w3.org/2000/svg" width="96" height="96" viewBox="0 0 96 96"><defs><style>.a{fill:#f58220;}.b{fill:#fff;}</style></defs><g transform="translate(-1032 -724)"><path class="a" d="M48,0A48,48,0,1,1,0,48,48,48,0,0,1,48,0Z" transform="translate(1032 724)"/><g transform="translate(1059 753)"><g transform="translate(7.904 7.904)"><path class="b" d="M36.539,26.694a9.845,9.845,0,1,0,9.845,9.845A9.856,9.856,0,0,0,36.539,26.694Zm0,18.3A8.459,8.459,0,1,1,45,36.539,8.468,8.468,0,0,1,36.539,45Z" transform="translate(-26.694 -26.694)"/></g><g transform="translate(28.981 0)"><g transform="translate(0 0)"><path class="b" d="M104.028.081a.693.693,0,0,0-.714.038,12.335,12.335,0,0,0-5.436,10.233v9A3.589,3.589,0,0,0,98.937,21.9l1.3,1.3V33.418a2.08,2.08,0,1,0,4.16,0V.693A.693.693,0,0,0,104.028.081ZM103.01,33.418a.693.693,0,1,1-1.387,0v-10.5a.693.693,0,0,0-.2-.49l-1.5-1.5a2.211,2.211,0,0,1-.652-1.574v-9A10.948,10.948,0,0,1,103.01,2.1Z" transform="translate(-97.879 0)"/></g></g><g transform="translate(11.376 11.829)"><path class="b" d="M43.2,40.373a.694.694,0,0,0-.91-.365,6.367,6.367,0,0,0-3.873,5.864.693.693,0,1,0,1.387,0,4.982,4.982,0,0,1,3.031-4.588A.694.694,0,0,0,43.2,40.373Z" transform="translate(-38.42 -39.952)"/></g><g transform="translate(11.366 4.5)"><path class="b" d="M54.381,19.33a13.257,13.257,0,0,0-15.615-2.694.693.693,0,0,0,.629,1.236,11.87,11.87,0,0,1,13.98,2.413.693.693,0,0,0,1.006-.955Z" transform="translate(-38.388 -15.2)"/></g><g transform="translate(10.267 24.836)"><path class="b" d="M52.441,84.031a.694.694,0,0,0-.974.114,11.867,11.867,0,0,1-15.724,2.63.693.693,0,1,0-.751,1.166,13.253,13.253,0,0,0,17.562-2.935A.693.693,0,0,0,52.441,84.031Z" transform="translate(-34.675 -83.882)"/></g><g transform="translate(0 0)"><path class="b" d="M8.6,0A.693.693,0,0,0,7.9.693V8.181H6.655s0-.008,0-.012V.693a.693.693,0,1,0-1.387,0V8.17s0,.008,0,.012H4.021s0-.008,0-.012V.693a.693.693,0,1,0-1.387,0V8.17s0,.008,0,.012H1.387V.693A.693.693,0,1,0,0,.693V9.152a4.27,4.27,0,0,0,2.565,3.9V33.418a2.08,2.08,0,1,0,4.16,0V13.051a4.27,4.27,0,0,0,2.565-3.9V.693A.693.693,0,0,0,8.6,0ZM5.839,11.9a.693.693,0,0,0-.5.666V33.418a.693.693,0,1,1-1.387,0V12.565a.693.693,0,0,0-.5-.666A2.875,2.875,0,0,1,1.418,9.568H7.872A2.874,2.874,0,0,1,5.839,11.9Z"/></g></g></g></svg>