<svg xmlns="http://www.w3.org/2000/svg" width="26.318" height="21.832" viewBox="0 0 26.318 21.832"><defs><style>.a{fill:#b7202e;}</style></defs><g transform="translate(-472 -43.636)"><g transform="translate(472 47.823)"><path class="a" d="M493.234,50H472.9a.9.9,0,0,0-.9.9V66.748a.9.9,0,0,0,.9.9h20.337a.9.9,0,0,0,.9-.9V50.9A.9.9,0,0,0,493.234,50Zm-.9,15.851H473.794V51.794h18.543Z" transform="translate(-472 -50)"/></g><g transform="translate(478.52 50.754)"><path class="a" d="M484.421,54.455a2.512,2.512,0,1,0,2.512,2.512A2.515,2.515,0,0,0,484.421,54.455Zm0,3.229a.718.718,0,1,1,.718-.718A.719.719,0,0,1,484.421,57.684Z" transform="translate(-481.909 -54.455)"/></g><g transform="translate(475.708 53.924)"><path class="a" d="M492.182,66.51l-4.307-6.819a.9.9,0,0,0-1.445-.1L483.137,63.5l-1.42-1.015a.9.9,0,0,0-1.254.213L477.8,66.471a.9.9,0,0,0,.733,1.415h12.89a.9.9,0,0,0,.759-1.376Zm-11.916-.418,1.142-1.617,1.36.971a.9.9,0,0,0,1.207-.153l3.038-3.607,2.783,4.405Z" transform="translate(-477.636 -59.273)"/></g><g transform="translate(475.888 43.636)"><path class="a" d="M499.442,43.636H478.806a.9.9,0,0,0-.9.9V48.72H479.7V45.43h18.842V59.517h-3.23v1.795h4.127a.9.9,0,0,0,.9-.9V44.533A.9.9,0,0,0,499.442,43.636Z" transform="translate(-477.909 -43.636)"/></g></g></svg>