<svg xmlns="http://www.w3.org/2000/svg" width="96" height="96" viewBox="0 0 96 96"><defs><style>.a{fill:#f58220;}.b{fill:#fff;}</style></defs><g transform="translate(-1066 -918)"><circle class="a" cx="48" cy="48" r="48" transform="translate(1066 918)"/><g transform="translate(1089 939.654)"><path class="b" d="M48.017,29.877a12.582,12.582,0,0,0-22.867-6.99c-.184.262-.359.531-.52.8A12.582,12.582,0,0,0,45.146,38.135c.2-.244.4-.5.579-.76h0A12.478,12.478,0,0,0,48.017,29.877ZM41.85,21.024a11.279,11.279,0,0,1,1.584,1.353,11.386,11.386,0,0,1-2.336-.285,11.351,11.351,0,0,1-1.056-2.1A11.239,11.239,0,0,1,41.85,21.024Zm-9.54-1.583a11.053,11.053,0,0,1,5.994-.076A14.013,14.013,0,0,0,39.78,22.71l-1.571,2.231a12.916,12.916,0,0,0-5.744.07l-1.43-1.7A14.032,14.032,0,0,0,32.31,19.441Zm7.514,12.02a12.744,12.744,0,0,1-4.328,3.25A9.119,9.119,0,0,1,31.1,31.618a11.512,11.512,0,0,1,1.6-5.169,11.486,11.486,0,0,1,5.366-.058A11.463,11.463,0,0,1,39.824,31.461ZM30.709,20.044a11.907,11.907,0,0,1-1.04,2.764,12.047,12.047,0,0,1-3.064.537A11.031,11.031,0,0,1,30.709,20.044Zm-4.688,16.04a11.212,11.212,0,0,1-1.6-4.329A11.742,11.742,0,0,1,26.4,33.442,11.729,11.729,0,0,1,26.021,36.084ZM24.3,29.971A11.077,11.077,0,0,1,25.657,24.8c.112,0,.224.006.338.006a14.08,14.08,0,0,0,3.933-.565l1.41,1.672a13.052,13.052,0,0,0-1.668,5.452l-2.352.945A14.278,14.278,0,0,0,24.3,29.971Zm4.725,9.267A11.119,11.119,0,0,1,27.1,37.521a14.167,14.167,0,0,0,.735-3.864l2.309-.928a10.569,10.569,0,0,0,4.628,3.259l-.095,2.486a14.174,14.174,0,0,0-3.391,2A11.168,11.168,0,0,1,29.025,39.238ZM33.006,41a11.83,11.83,0,0,1,2.361-1.246,11.776,11.776,0,0,1,2.255,1.3A11.217,11.217,0,0,1,33.006,41Zm6.336-.439a14.228,14.228,0,0,0-3.22-2.053l.1-2.538a14.535,14.535,0,0,0,4.563-3.406l2.058.766a14.03,14.03,0,0,0,.913,4.21A11.075,11.075,0,0,1,39.342,40.563Zm4-8.585L41.259,31.2a12.909,12.909,0,0,0-1.87-5.431l1.571-2.231a13.557,13.557,0,0,0,2.837.285c.272,0,.543-.008.809-.023a11.072,11.072,0,0,1,1.95,5.668A14.013,14.013,0,0,0,43.338,31.978ZM44.8,36.16a12.074,12.074,0,0,1-.528-3.067,11.872,11.872,0,0,1,2.253-1.911A11.034,11.034,0,0,1,44.8,36.16Z"/><path class="b" d="M23.517,18.227a.7.7,0,0,0,.278.057.722.722,0,0,0,.666-.444L29.689,5.346a.721.721,0,1,0-1.331-.557l-2.252,5.382L14.54,7.363l.473-2.139A.722.722,0,1,0,13.6,4.912L9.793,22.125a.716.716,0,0,0-.452.118L3.827,25.919a.715.715,0,0,0-.119.1L2.6,27.12l0,0L.211,29.511a.723.723,0,0,0,0,1.021l.931.931-.871.872a.721.721,0,1,0,1.02,1.02l.872-.871,2.82,2.82-.872.871A.722.722,0,0,0,5.132,37.2L6,36.324l2.819,2.82-.871.871a.722.722,0,0,0,1.021,1.021l.871-.872,2.82,2.82-.872.872a.722.722,0,1,0,1.021,1.02l.871-.871,1.9,1.9c.131.131.466.46.947.892l-.9.9a.722.722,0,1,0,1.021,1.02l.979-.979A21.922,21.922,0,0,0,20.7,49.856l-.377.577a.722.722,0,0,0,.21,1,.714.714,0,0,0,.394.118.722.722,0,0,0,.605-.327l.476-.729a6.58,6.58,0,0,0,2.462.562,3.48,3.48,0,0,0,1.42-.282.718.718,0,0,0,.219-.15l1.566-1.565c.016-.017.032-.034.047-.052a2.573,2.573,0,0,0,.436-1.887c-.182-1.822-1.676-3.906-4.443-6.2l-.351-1.111a.722.722,0,1,0-1.377.435l.416,1.315a.719.719,0,0,0,.232.343c3.208,2.616,3.97,4.355,4.078,5.311C24.567,47.121,21.3,44.8,19,42.493L9.938,33.434a.722.722,0,1,0-1.02,1.021l9.058,9.058c.517.517,4.626,4.53,8.115,5.086l-.9.9c-.9.317-2.329-.052-4.043-1.049A23.8,23.8,0,0,1,16.6,44.884L1.742,30.022l1.371-1.371L7.359,32.9A.722.722,0,1,0,8.38,31.876L4.134,27.63l.544-.543,4.683-3.123a15.519,15.519,0,0,0,3.368,5.3,4.477,4.477,0,0,0,4.613,1.154,6.825,6.825,0,0,0,1.363-.557l.737,2.334-.894.155a.722.722,0,0,0,.122,1.433.73.73,0,0,0,.123-.011l1.088-.187.113.357-.856.158a.722.722,0,0,0,.13,1.432.737.737,0,0,0,.132-.012l1.032-.191.111.354-.9.166a.722.722,0,0,0,.13,1.432.737.737,0,0,0,.132-.012l1.075-.2.39,1.234a.722.722,0,0,0,1.377-.435l-.337-1.065a.721.721,0,0,0-.282-1.415l-.156.029-.111-.354.024,0a.722.722,0,0,0-.263-1.419l-.2.037-.108-.34.147-.025a.722.722,0,0,0-.245-1.423l-.34.059-1-3.16,3.66-8.746a.722.722,0,1,0-1.332-.557l-3.684,8.8c-.6.413-2.925,1.8-4.774-.046a13.966,13.966,0,0,1-2.865-4.37l2.435-11c.239.086.525.179.868.281,1.945.578,5.233,1.293,9.78,2.127l-.838,2A.72.72,0,0,0,23.517,18.227ZM13.635,11.45l.593-2.677L25.541,11.52l-1,2.4C16.913,12.525,14.421,11.76,13.635,11.45Z"/></g></g></svg>