<svg xmlns="http://www.w3.org/2000/svg" width="96" height="96" viewBox="0 0 96 96"><defs><style>.a{fill:#f58220;}.b{fill:#fff;}</style></defs><g transform="translate(-1066 -1239)"><circle class="a" cx="48" cy="48" r="48" transform="translate(1066 1239)"/><g transform="translate(1074.096 1246)"><path class="b" d="M39.23,16A23.316,23.316,0,1,0,50.438,59.757c4.715,1.691,10.458.575,10.706.525a.777.777,0,0,0,.279-1.408,9.711,9.711,0,0,1-3.737-5.32,23.049,23.049,0,0,0,4.86-14.238A23.343,23.343,0,0,0,39.23,16ZM56.222,52.9a.775.775,0,0,0-.142.692A11.9,11.9,0,0,0,59.126,59a19.261,19.261,0,0,1-8.465-.817.776.776,0,0,0-.669.048,21.761,21.761,0,1,1,11-18.913A21.526,21.526,0,0,1,56.222,52.9Z" transform="translate(0)"/><path class="b" d="M43.162,19.633v1.554A18.675,18.675,0,0,1,61.815,39.84h1.554A20.229,20.229,0,0,0,43.162,19.633Z" transform="translate(-3.932 -0.524)"/><path class="b" d="M41.58,31.6a7,7,0,0,0-6.6-4.7h-5.44V29.23a7,7,0,0,0,6.995,7H40.42v3.959a6.705,6.705,0,0,0-7.518.9,5.4,5.4,0,0,0,0,8.147L41.2,56.7l8.3-7.465a5.4,5.4,0,0,0,.525-7.619,5.343,5.343,0,0,0-.525-.525,6.707,6.707,0,0,0-7.519-.9v-2.4H45.86a7,7,0,0,0,6.995-6.995V28.453H47.414A6.991,6.991,0,0,0,41.58,31.6Zm6.865,10.637a3.845,3.845,0,0,1,.425,5.421,3.911,3.911,0,0,1-.421.421L41.2,54.605l-7.248-6.523a3.845,3.845,0,0,1,0-5.846,5.158,5.158,0,0,1,6.724,0l.524.478.524-.478a5.156,5.156,0,0,1,6.724,0ZM31.093,29.231v-.778h3.886a5.447,5.447,0,0,1,5.441,5.441V34l-5.786-3.859-.863,1.294,4.861,3.239h-2.1a5.447,5.447,0,0,1-5.441-5.441ZM51.3,30.785a5.447,5.447,0,0,1-5.44,5.441h-2.1l4.86-3.24-.863-1.293L41.974,35.55v-.1a5.447,5.447,0,0,1,5.441-5.44H51.3Z" transform="translate(-1.967 -1.572)"/></g></g></svg>