<svg xmlns="http://www.w3.org/2000/svg" width="247.624" height="73.031" viewBox="0 0 247.624 73.031">
    <defs>
        <style>
            .prefix__cls-2{fill:#b7202e}
        </style>
    </defs>
    <g id="prefix__Layer_2" data-name="Layer 2" transform="translate(-.086)">
        <g id="prefix__LOGO">
            <path id="prefix__Line_857" d="M0 0L167.17 0" data-name="Line 857" transform="translate(80.53 53.99)" style="fill:none;stroke:#58595b;stroke-miterlimit:10;stroke-width:.75px"/>
            <path id="prefix__Path_11673" d="M84.39 44.66l-3.06-8.23-.8-.11v-.99h3.39v.99l-.84.14 1.94 5.68.17.61h.04l.18-.6 1.97-5.7-.97-.13v-.99h3.29v.99l-.81.11-2.94 8.23z" class="prefix__cls-2" data-name="Path 11673"/>
            <path id="prefix__Path_11674" d="M90.42 44.66v-.99l1.02-.19v-6.96l-1.02-.2v-.99h3.65v.99l-1.01.2v6.96l1.01.19v.99z" class="prefix__cls-2" data-name="Path 11674"/>
            <path id="prefix__Path_11675" d="M94.92 44.66v-1l1-.2v-6.93l-1-.21v-1h3.91a3.957 3.957 0 0 1 3.66 2.21 5.17 5.17 0 0 1 .52 2.37v.18a5.24 5.24 0 0 1-.51 2.35 4 4 0 0 1-1.45 1.63 3.9 3.9 0 0 1-2.17.59zm2.64-1.24h1.23a2.25 2.25 0 0 0 1.4-.44 2.7 2.7 0 0 0 .89-1.19 4.4 4.4 0 0 0 .31-1.7v-.19a4.35 4.35 0 0 0-.31-1.71 2.67 2.67 0 0 0-.89-1.18 2.24 2.24 0 0 0-1.4-.43h-1.23z" class="prefix__cls-2" data-name="Path 11675"/>
            <path id="prefix__Path_11676" d="M106.06 44.66v-.99l1.01-.19v-2.1l-2.81-4.93-.84-.13v-.99h3.51v.99l-.89.12 1.73 3.27.14.28.02-.01.14-.26 1.87-3.28-1.06-.12v-.99h3.44v.99l-.87.13-2.77 4.8v2.23l1.02.19v.99z" class="prefix__cls-2" data-name="Path 11676"/>
            <path id="prefix__Path_11677" d="M111.34 44.66v-1l.68-.1 3.09-8.25h1.57l3 8.25.68.1v1h-3v-1l.66-.13-.49-1.46h-3.47l-.51 1.46.67.13v1zm3.23-3.81h2.63l-1.2-3.46-.08-.25-.09.27z" class="prefix__cls-2" data-name="Path 11677"/>
            <path id="prefix__Path_11678" d="M123.43 44.66l-3.06-8.23-.8-.11v-.99h3.39v.99l-.84.14 1.94 5.68.17.61h.04l.18-.6 1.97-5.7-.97-.13v-.99h3.29v.99l-.81.11-2.94 8.23z" class="prefix__cls-2" data-name="Path 11678"/>
            <path id="prefix__Path_11679" d="M129.46 44.66v-.99l1.02-.19v-6.96l-1.02-.2v-.99h3.65v.99l-1.01.2v6.96l1.01.19v.99z" class="prefix__cls-2" data-name="Path 11679"/>
            <path id="prefix__Path_11680" d="M133.96 44.66v-.99l1.02-.19v-6.96l-1.02-.2v-.99h3.66v.99l-1.02.2v2.91h4.08v-2.91l-1.02-.2v-.99h3.65v.99l-1.02.2v6.96l1.02.19v.99h-3.65v-.99l1.02-.19v-2.8h-4.08v2.8l1.02.19v.99z" class="prefix__cls-2" data-name="Path 11680"/>
            <path id="prefix__Path_11681" d="M143.72 44.66v-1l.68-.1 3.09-8.25h1.57l3.05 8.25.68.1v1h-3v-1l.67-.13-.5-1.46h-3.47l-.49 1.48.67.13v1zm3.22-3.81h2.64l-1.21-3.46-.09-.25-.09.27z" class="prefix__cls-2" data-name="Path 11681"/>
            <path id="prefix__Path_11682" d="M153.55 44.66v-1l1-.19v-7l-1-.19v-1h4.31a4.63 4.63 0 0 1 1.8.32 2.55 2.55 0 0 1 1.13.93 2.62 2.62 0 0 1 .39 1.45 2.65 2.65 0 0 1-.38 1.43 2.53 2.53 0 0 1-1.09.95 3.91 3.91 0 0 1-1.63.35h-1.9v2.7l1 .19v1zm2.63-5.14h1.61a2 2 0 0 0 1.35-.37 1.31 1.31 0 0 0 .43-1.07 1.44 1.44 0 0 0-.42-1.09 1.75 1.75 0 0 0-1.29-.41h-1.68zm3.44 5.14l-1.78-4.29 1.51-.25 1.51 3.39.73.15v1z" class="prefix__cls-2" data-name="Path 11682"/>
            <path id="prefix__Path_11683" d="M170.24 44.8a4.34 4.34 0 0 1-1.85-.38 2.94 2.94 0 0 1-1.26-1.1 3.22 3.22 0 0 1-.45-1.74v-5.06l-1-.2v-1h3.64v1l-1 .2v5.06a2.28 2.28 0 0 0 .24 1.09 1.52 1.52 0 0 0 .68.65 2.28 2.28 0 0 0 1 .22 2.32 2.32 0 0 0 1.05-.22 1.5 1.5 0 0 0 .69-.65 2.14 2.14 0 0 0 .25-1.09v-5.06l-1-.2v-1h3.65v1l-1 .2v5.06a3.23 3.23 0 0 1-.45 1.75 2.86 2.86 0 0 1-1.26 1.09 4.54 4.54 0 0 1-1.9.38" class="prefix__cls-2" data-name="Path 11683"/>
            <path id="prefix__Path_11684" d="M175.63 44.66v-.99l1.02-.19v-6.96l-1.02-.2v-.99h2.65l4.28 6.81.04-.01v-5.61l-1.17-.2v-.99h3.65v.99l-1.02.2v8.14h-1.53l-4.39-6.79-.04.01v5.6l1.18.19v.99z" class="prefix__cls-2" data-name="Path 11684"/>
            <path id="prefix__Path_11685" d="M185.87 44.66v-.99l1.02-.19v-6.96l-1.02-.2v-.99h3.65v.99l-1.01.2v6.96l1.01.19v.99z" class="prefix__cls-2" data-name="Path 11685"/>
            <path id="prefix__Path_11686" d="M194.1 44.66l-3.06-8.23-.79-.11v-.99h3.39v.99l-.84.14 1.94 5.68.17.61h.04l.18-.6 1.97-5.7-.97-.13v-.99h3.29v.99l-.81.11-2.94 8.23z" class="prefix__cls-2" data-name="Path 11686"/>
            <path id="prefix__Path_11687" d="M200.14 44.66v-.99l1.02-.19v-6.96l-1.02-.2v-.99h7.11v2.4h-1.26l-.11-1.16h-3.1v2.64h3.27v1.25h-3.27v2.97h3.28l.1-1.18h1.25v2.41z" class="prefix__cls-2" data-name="Path 11687"/>
            <path id="prefix__Path_11688" d="M208.52 44.66v-1l1-.19v-7l-1-.19v-1h4.31a4.63 4.63 0 0 1 1.8.32 2.55 2.55 0 0 1 1.13.93 2.62 2.62 0 0 1 .39 1.45 2.54 2.54 0 0 1-1.47 2.38 3.91 3.91 0 0 1-1.63.35h-1.9v2.7l1 .19v1zm2.63-5.14h1.61a2 2 0 0 0 1.35-.37 1.31 1.31 0 0 0 .43-1.07 1.44 1.44 0 0 0-.42-1.09 1.75 1.75 0 0 0-1.29-.41h-1.68zm3.44 5.14l-1.78-4.29 1.51-.25 1.51 3.39.73.15v1z" class="prefix__cls-2" data-name="Path 11688"/>
            <path id="prefix__Path_11689" d="M221.1 44.8a6.33 6.33 0 0 1-1.78-.24 5.37 5.37 0 0 1-1.59-.79v-2.15H219l.2 1.4a3 3 0 0 0 .84.39 4.09 4.09 0 0 0 1.08.14 2.47 2.47 0 0 0 1-.16 1.31 1.31 0 0 0 .59-.46 1.16 1.16 0 0 0 .21-.7 1.23 1.23 0 0 0-.18-.66 1.55 1.55 0 0 0-.6-.51 4.909 4.909 0 0 0-1.13-.42 7.63 7.63 0 0 1-1.74-.67 2.85 2.85 0 0 1-1.06-.92 2.25 2.25 0 0 1-.36-1.27 2.28 2.28 0 0 1 .41-1.33 2.78 2.78 0 0 1 1.13-.91 4.14 4.14 0 0 1 1.61-.34 5.21 5.21 0 0 1 1.84.27 4.36 4.36 0 0 1 1.35.74v2H223l-.24-1.3a2.27 2.27 0 0 0-.68-.32 3.26 3.26 0 0 0-1-.13 2.13 2.13 0 0 0-.86.16 1.4 1.4 0 0 0-.58.45 1.15 1.15 0 0 0-.21.69 1.05 1.05 0 0 0 .18.62 1.59 1.59 0 0 0 .62.48 8 8 0 0 0 1.18.43 5.48 5.48 0 0 1 2.31 1.12 2.34 2.34 0 0 1 .78 1.81 2.26 2.26 0 0 1-.42 1.36 2.86 2.86 0 0 1-1.18.9 4.64 4.64 0 0 1-1.78.32" class="prefix__cls-2" data-name="Path 11689"/>
            <path id="prefix__Path_11690" d="M225.36 44.66v-.99l1.02-.19v-6.96l-1.02-.2v-.99h3.65v.99l-1.01.2v6.96l1.01.19v.99z" class="prefix__cls-2" data-name="Path 11690"/>
            <path id="prefix__Path_11691" d="M232.08 44.66v-.99l1.02-.19v-6.91h-1.88l-.14 1.19h-1.21v-2.43h8.08v2.43h-1.22l-.14-1.19h-1.88v6.91l1.02.19v.99z" class="prefix__cls-2" data-name="Path 11691"/>
            <path id="prefix__Path_11692" d="M241.44 44.66v-.99l1.01-.19v-2.1l-2.81-4.93-.84-.13v-.99h3.51v.99l-.89.12 1.73 3.27.14.28.02-.01.14-.26 1.87-3.28-1.06-.12v-.99h3.45v.99l-.88.13-2.77 4.8v2.23l1.02.19v.99z" class="prefix__cls-2" data-name="Path 11692"/>
            <path id="prefix__Path_11693" d="M89.87 29.29a17.58 17.58 0 0 1-4.87-.66 14.9 14.9 0 0 1-4.42-2.18V20.5H84l.57 3.85a7.67 7.67 0 0 0 2.32 1.08 10.15 10.15 0 0 0 3 .41 6.85 6.85 0 0 0 2.65-.45 3.409 3.409 0 0 0 1.71-5.03 4.32 4.32 0 0 0-1.65-1.43 14.43 14.43 0 0 0-3.12-1.16 22.19 22.19 0 0 1-4.84-1.85 8.07 8.07 0 0 1-2.93-2.56 6.25 6.25 0 0 1-1-3.51 6.14 6.14 0 0 1 1.13-3.67A7.52 7.52 0 0 1 85 3.66a11.22 11.22 0 0 1 4.63-1 14.82 14.82 0 0 1 5.09.75 12.09 12.09 0 0 1 3.73 2v5.56H95l-.64-3.62a6.4 6.4 0 0 0-1.89-.88 9.22 9.22 0 0 0-2.74-.37 5.91 5.91 0 0 0-2.38.45 3.76 3.76 0 0 0-1.61 1.25 3.19 3.19 0 0 0-.59 1.92 2.84 2.84 0 0 0 .52 1.71 4.49 4.49 0 0 0 1.72 1.32A20.19 20.19 0 0 0 90.68 14a15.08 15.08 0 0 1 6.38 3.09 6.49 6.49 0 0 1 2.16 5 6.22 6.22 0 0 1-1.16 3.76 7.45 7.45 0 0 1-3.27 2.49 12.6 12.6 0 0 1-4.92.89" class="prefix__cls-2" data-name="Path 11693"/>
            <path id="prefix__Path_11694" d="M113 29.29a10.93 10.93 0 0 1-4.65-1 10.32 10.32 0 0 1-3.56-2.72 12.5 12.5 0 0 1-2.28-4.16 16.61 16.61 0 0 1-.8-5.25v-.36a16.55 16.55 0 0 1 .8-5.24 12.5 12.5 0 0 1 2.28-4.16 10.26 10.26 0 0 1 3.56-2.74 10.9 10.9 0 0 1 4.63-1 11.24 11.24 0 0 1 4.74 1 10.11 10.11 0 0 1 3.57 2.74 12.44 12.44 0 0 1 2.25 4.16 16.84 16.84 0 0 1 .78 5.24v.39a16.9 16.9 0 0 1-.78 5.25 12.44 12.44 0 0 1-2.25 4.16 10.17 10.17 0 0 1-3.57 2.72 11.18 11.18 0 0 1-4.72 1m0-3.55a6 6 0 0 0 3.86-1.2 7.07 7.07 0 0 0 2.25-3.35 15.17 15.17 0 0 0 .74-5v-.43a15.16 15.16 0 0 0-.74-4.95 7.24 7.24 0 0 0-2.27-3.34A6 6 0 0 0 113 6.26a5.81 5.81 0 0 0-3.74 1.21 7.33 7.33 0 0 0-2.28 3.34 14.88 14.88 0 0 0-.76 4.95v.43a15.13 15.13 0 0 0 .76 5 7.18 7.18 0 0 0 2.29 3.36 5.85 5.85 0 0 0 3.75 1.2" class="prefix__cls-2" data-name="Path 11694"/>
            <path id="prefix__Path_11695" d="M126.74 28.91v-2.73l2.8-.53V6.35l-2.8-.53V3.07h9.21l7.58 18.69h.1l7.35-18.69h9.32v2.75l-2.82.53v19.3l2.82.53v2.73h-10.1v-2.73l2.97-.53v-6.02l.03-11.31-.09-.01-8 20.02h-3.25l-8.24-19.92-.09.02.23 10.9v6.32l3.08.53v2.73z" class="prefix__cls-2" data-name="Path 11695"/>
            <path id="prefix__Path_11696" d="M161.47 28.91v-2.73l1.89-.27 8.55-22.84h4.35l8.45 22.84 1.88.27v2.73h-8.22v-2.73l1.85-.34-1.37-4.06h-9.62l-1.4 4.06 1.86.34v2.73zm8.93-10.56h7.3l-3.36-9.56-.23-.7H174l-.24.73z" class="prefix__cls-2" data-name="Path 11696"/>
            <path id="prefix__Path_11697" d="M188.7 28.91v-2.73l2.83-.53V6.35l-2.83-.53V3.07h10.1v2.75l-2.8.53v19.3l2.8.53v2.73z" class="prefix__cls-2" data-name="Path 11697"/>
            <path id="prefix__Path_11698" d="M207.94 28.91v-2.73l2.81-.53v-5.82l-7.78-13.66-2.34-.35V3.07h9.73v2.75l-2.47.32 4.79 9.05.39.78.07-.03.38-.73 5.18-9.07-2.93-.32V3.07h9.53v2.75l-2.43.35-7.67 13.3v6.18l2.83.53v2.73z" class="prefix__cls-2" data-name="Path 11698"/>
            <path id="prefix__Path_11699" d="M222.59 28.91v-2.73l1.88-.27L233 3.07h4.34l8.45 22.84 1.88.27v2.73h-8.21v-2.73l1.84-.34-1.3-4.06h-9.63l-1.4 4.06 1.87.34v2.73zm8.93-10.56h7.29l-3.35-9.56-.23-.7h-.11l-.25.73z" class="prefix__cls-2" data-name="Path 11699"/>
            <path id="prefix__Path_11760" d="M3.7.123a5.823 5.823 0 0 1-1.626-.217 4.835 4.835 0 0 1-1.459-.72v-1.963h1.143l.188 1.271a2.547 2.547 0 0 0 .765.357 3.457 3.457 0 0 0 .987.135 2.26 2.26 0 0 0 .876-.149 1.213 1.213 0 0 0 .542-.419 1.09 1.09 0 0 0 .184-.639 1.119 1.119 0 0 0-.164-.6 1.424 1.424 0 0 0-.542-.479 4.831 4.831 0 0 0-1.031-.38 7.308 7.308 0 0 1-1.6-.609A2.653 2.653 0 0 1 1-5.133a2.056 2.056 0 0 1-.325-1.16 2.051 2.051 0 0 1 .372-1.213 2.521 2.521 0 0 1 1.033-.832 3.684 3.684 0 0 1 1.529-.311 4.845 4.845 0 0 1 1.679.249 4.022 4.022 0 0 1 1.233.674v1.834H5.4l-.211-1.2a2.24 2.24 0 0 0-.624-.29 3.044 3.044 0 0 0-.905-.12 1.969 1.969 0 0 0-.785.146 1.254 1.254 0 0 0-.533.413 1.054 1.054 0 0 0-.192.643.949.949 0 0 0 .17.563 1.481 1.481 0 0 0 .568.437 6.925 6.925 0 0 0 1.078.4 5.011 5.011 0 0 1 2.1 1.02 2.143 2.143 0 0 1 .715 1.658A2.058 2.058 0 0 1 6.4-.993a2.484 2.484 0 0 1-1.077.823A4.16 4.16 0 0 1 3.7.123zm6.861 0a2.9 2.9 0 0 1-1.57-.41 2.686 2.686 0 0 1-1.011-1.14 3.822 3.822 0 0 1-.352-1.679v-.123A3.789 3.789 0 0 1 7.98-4.9a2.729 2.729 0 0 1 1.008-1.141 2.849 2.849 0 0 1 1.559-.416 2.887 2.887 0 0 1 1.57.413A2.709 2.709 0 0 1 13.125-4.9a3.8 3.8 0 0 1 .352 1.676v.123a3.822 3.822 0 0 1-.352 1.679 2.692 2.692 0 0 1-1 1.14 2.877 2.877 0 0 1-1.566.405zm0-1.137a1.223 1.223 0 0 0 .812-.267 1.594 1.594 0 0 0 .478-.738 3.416 3.416 0 0 0 .158-1.087v-.123a3.368 3.368 0 0 0-.158-1.078 1.6 1.6 0 0 0-.48-.738 1.235 1.235 0 0 0-.82-.27 1.218 1.218 0 0 0-.809.27 1.584 1.584 0 0 0-.478.738 3.427 3.427 0 0 0-.155 1.078v.123a3.475 3.475 0 0 0 .155 1.087 1.555 1.555 0 0 0 .48.738 1.247 1.247 0 0 0 .815.267zM14.256 0v-.9l.885-.176v-4.18l-.932-.176v-.908h2.285l.07.832a2.182 2.182 0 0 1 .776-.7 2.259 2.259 0 0 1 1.081-.249 1.957 1.957 0 0 1 1.063.278 1.72 1.72 0 0 1 .671.841 2.242 2.242 0 0 1 .771-.82 2.071 2.071 0 0 1 1.122-.3 1.86 1.86 0 0 1 1.5.65 3 3 0 0 1 .552 1.97v2.76l.885.176V0h-3.194v-.9l.832-.176v-2.768a1.784 1.784 0 0 0-.27-1.125.973.973 0 0 0-.791-.322 1.089 1.089 0 0 0-.8.311 1.482 1.482 0 0 0-.407.791v3.111l.8.176V0h-3.073v-.9l.8-.176v-2.768a1.763 1.763 0 0 0-.275-1.11.97.97 0 0 0-.8-.337 1.406 1.406 0 0 0-.729.176 1.275 1.275 0 0 0-.472.5v3.539l.826.176V0zm13.512.123a2.136 2.136 0 0 1-1.506-.5 1.774 1.774 0 0 1-.539-1.371 1.736 1.736 0 0 1 .328-1.049 2.136 2.136 0 0 1 .961-.706 4.112 4.112 0 0 1 1.535-.255h.967v-.533a1.079 1.079 0 0 0-.3-.8 1.193 1.193 0 0 0-.876-.3 1.938 1.938 0 0 0-.58.079 1.527 1.527 0 0 0-.451.226l-.135.855h-1.086l-.012-1.564a4.183 4.183 0 0 1 1.043-.483 4.286 4.286 0 0 1 1.277-.179 2.927 2.927 0 0 1 1.9.565 1.969 1.969 0 0 1 .694 1.62V-1.225q0 .123.015.24l.645.082V0h-1.923q-.059-.205-.108-.4a2.993 2.993 0 0 1-.073-.387 2.621 2.621 0 0 1-.765.653 2.008 2.008 0 0 1-1.011.257zM28.1-1.02a1.73 1.73 0 0 0 .832-.208 1.479 1.479 0 0 0 .58-.524v-1.06h-.984a1.436 1.436 0 0 0-1 .308.945.945 0 0 0-.337.718.7.7 0 0 0 .234.568 1.013 1.013 0 0 0 .675.198zM32.332 0v-.9l.879-.176v-4.18l-.932-.176v-.908h2.408v5.262l.873.176V0zm.82-7.775v-1.366h1.535v1.365zm4.67 10.336a2.9 2.9 0 0 1-.419-.035 2.964 2.964 0 0 1-.413-.088l.164-1.107q.105.018.255.029t.237.012a.884.884 0 0 0 .621-.231A1.669 1.669 0 0 0 38.678.5l.193-.51L36.7-5.326l-.738-.105v-.909h3.07v.908l-.779.117 1.1 2.953.193.551h.035l1.3-3.51-.779-.111v-.908h2.918v.908l-.686.1L39.879.955a3.794 3.794 0 0 1-.437.812 1.911 1.911 0 0 1-.656.58 2 2 0 0 1-.964.214zM45.533.123a2.136 2.136 0 0 1-1.506-.5 1.774 1.774 0 0 1-.539-1.371 1.736 1.736 0 0 1 .328-1.049 2.136 2.136 0 0 1 .961-.706 4.112 4.112 0 0 1 1.535-.255h.967v-.533a1.079 1.079 0 0 0-.3-.8 1.193 1.193 0 0 0-.876-.3 1.938 1.938 0 0 0-.58.079 1.527 1.527 0 0 0-.451.226l-.135.855h-1.085l-.012-1.564a4.183 4.183 0 0 1 1.043-.483 4.286 4.286 0 0 1 1.277-.179 2.927 2.927 0 0 1 1.9.565 1.969 1.969 0 0 1 .694 1.62V-1.225q0 .123.015.24l.645.082V0H47.49q-.059-.205-.108-.4a2.993 2.993 0 0 1-.073-.387 2.621 2.621 0 0 1-.765.653 2.008 2.008 0 0 1-1.011.257zm.334-1.143a1.73 1.73 0 0 0 .832-.208 1.479 1.479 0 0 0 .58-.524v-1.06h-.984a1.436 1.436 0 0 0-1 .308.945.945 0 0 0-.337.718.7.7 0 0 0 .234.568 1.013 1.013 0 0 0 .675.198zM56.4.123a5.823 5.823 0 0 1-1.623-.217 4.835 4.835 0 0 1-1.457-.72v-1.963h1.143l.188 1.271a2.547 2.547 0 0 0 .765.357 3.457 3.457 0 0 0 .987.135 2.26 2.26 0 0 0 .876-.149 1.213 1.213 0 0 0 .542-.419 1.09 1.09 0 0 0 .188-.639 1.119 1.119 0 0 0-.164-.6A1.424 1.424 0 0 0 57.3-3.3a4.831 4.831 0 0 0-1.031-.384 7.308 7.308 0 0 1-1.6-.609 2.653 2.653 0 0 1-.967-.844 2.056 2.056 0 0 1-.325-1.16 2.051 2.051 0 0 1 .372-1.213 2.521 2.521 0 0 1 1.034-.832 3.684 3.684 0 0 1 1.529-.311 4.845 4.845 0 0 1 1.679.246 4.022 4.022 0 0 1 1.233.674v1.834h-1.117L57.9-7.09a2.24 2.24 0 0 0-.624-.29 3.044 3.044 0 0 0-.905-.12 1.969 1.969 0 0 0-.785.146 1.254 1.254 0 0 0-.533.413 1.054 1.054 0 0 0-.193.636.949.949 0 0 0 .17.563 1.481 1.481 0 0 0 .568.437 6.925 6.925 0 0 0 1.078.4 5.011 5.011 0 0 1 2.1 1.02 2.143 2.143 0 0 1 .715 1.658 2.058 2.058 0 0 1-.384 1.239 2.484 2.484 0 0 1-1.078.823A4.16 4.16 0 0 1 56.4.123zm3.809 2.314v-.908l.855-.176v-6.609l-.932-.176v-.908h2.256l.094.75a2.053 2.053 0 0 1 .715-.642 2.083 2.083 0 0 1 1-.226 2.114 2.114 0 0 1 1.324.422 2.624 2.624 0 0 1 .841 1.178 4.928 4.928 0 0 1 .29 1.77v.123a4.143 4.143 0 0 1-.293 1.62 2.451 2.451 0 0 1-.841 1.081A2.232 2.232 0 0 1 64.2.123a2.247 2.247 0 0 1-.955-.19 1.924 1.924 0 0 1-.7-.56v1.98l.9.176v.908zm3.541-3.451a1.192 1.192 0 0 0 1.075-.536 2.56 2.56 0 0 0 .349-1.415v-.123a3.856 3.856 0 0 0-.155-1.151 1.653 1.653 0 0 0-.475-.773 1.182 1.182 0 0 0-.806-.278 1.337 1.337 0 0 0-.712.185 1.392 1.392 0 0 0-.489.519v2.906a1.33 1.33 0 0 0 .486.5 1.429 1.429 0 0 0 .727.166zM70.57.123A2.9 2.9 0 0 1 69-.287a2.686 2.686 0 0 1-1.008-1.14 3.822 3.822 0 0 1-.352-1.679v-.123a3.789 3.789 0 0 1 .352-1.67A2.729 2.729 0 0 1 69-6.041a2.849 2.849 0 0 1 1.559-.416 2.887 2.887 0 0 1 1.57.413A2.709 2.709 0 0 1 73.137-4.9a3.8 3.8 0 0 1 .352 1.676v.123a3.822 3.822 0 0 1-.352 1.679 2.692 2.692 0 0 1-1 1.14 2.877 2.877 0 0 1-1.567.405zm0-1.137a1.223 1.223 0 0 0 .812-.267 1.594 1.594 0 0 0 .478-.738 3.416 3.416 0 0 0 .158-1.087v-.123a3.368 3.368 0 0 0-.158-1.078 1.6 1.6 0 0 0-.48-.738 1.235 1.235 0 0 0-.82-.27 1.218 1.218 0 0 0-.809.27 1.584 1.584 0 0 0-.478.738 3.427 3.427 0 0 0-.155 1.078v.123a3.475 3.475 0 0 0 .155 1.087 1.555 1.555 0 0 0 .48.738 1.247 1.247 0 0 0 .817.267zM74.373 0v-.9l.879-.176v-4.18l-.926-.176v-.908h2.285l.076.8.012.129a2.1 2.1 0 0 1 .618-.773 1.409 1.409 0 0 1 .858-.27 2.228 2.228 0 0 1 .349.029 2.38 2.38 0 0 1 .3.064L78.656-5l-.826-.047a1.029 1.029 0 0 0-.665.158 1.439 1.439 0 0 0-.437.5v3.3l.879.176V0zm7.594.111a1.7 1.7 0 0 1-1.26-.454 1.994 1.994 0 0 1-.451-1.45v-3.492h-.926V-6.34h.926v-1.541h1.471v1.541h1.253v1.055h-1.253v3.492a.862.862 0 0 0 .167.589.582.582 0 0 0 .454.185 2.575 2.575 0 0 0 .366-.029q.2-.029.325-.059l.152 1.037a4.7 4.7 0 0 1-.591.129 4.043 4.043 0 0 1-.633.052zm4.564.012a5.8 5.8 0 0 1-1.269-.132 6.524 6.524 0 0 1-1.18-.391l-.018-1.676h1.061l.223.914a2.886 2.886 0 0 0 .519.173 2.65 2.65 0 0 0 .595.062 1.387 1.387 0 0 0 .894-.223.7.7 0 0 0 .261-.551.682.682 0 0 0-.272-.542 2.592 2.592 0 0 0-1.04-.39 3.728 3.728 0 0 1-1.673-.718 1.558 1.558 0 0 1-.536-1.228 1.676 1.676 0 0 1 .278-.943 1.94 1.94 0 0 1 .82-.677 3.121 3.121 0 0 1 1.333-.255 4.978 4.978 0 0 1 1.28.149 3.474 3.474 0 0 1 .952.4l.035 1.611h-1.05l-.182-.838a1.4 1.4 0 0 0-.422-.2 1.964 1.964 0 0 0-.551-.07 1.24 1.24 0 0 0-.768.214.649.649 0 0 0-.281.536.651.651 0 0 0 .091.34.8.8 0 0 0 .352.278 3.853 3.853 0 0 0 .765.243 4.2 4.2 0 0 1 1.77.75 1.542 1.542 0 0 1 .533 1.225 1.772 1.772 0 0 1-.621 1.394 2.817 2.817 0 0 1-1.899.545zM92.777 0v-.9l.623-.09 2.824-7.541h1.436l2.787 7.541.621.088V0h-2.713v-.9l.609-.111-.451-1.342h-3.175l-.463 1.342.615.111V0zm2.947-3.486h2.408l-1.107-3.159-.076-.229h-.035l-.082.24zM104.6.123a2.859 2.859 0 0 1-1.544-.407 2.707 2.707 0 0 1-1.008-1.125 3.692 3.692 0 0 1-.354-1.655v-.206a3.7 3.7 0 0 1 .352-1.641 2.723 2.723 0 0 1 1-1.134 2.828 2.828 0 0 1 1.544-.413 3.554 3.554 0 0 1 1.418.261 3.144 3.144 0 0 1 .99.647L107-3.855h-1.125l-.217-1.119a1.2 1.2 0 0 0-.416-.272 1.448 1.448 0 0 0-.551-.1 1.319 1.319 0 0 0-.829.264 1.631 1.631 0 0 0-.521.729 3.026 3.026 0 0 0-.179 1.087v.205a3.057 3.057 0 0 0 .182 1.125 1.512 1.512 0 0 0 .507.691 1.245 1.245 0 0 0 .747.234 1.224 1.224 0 0 0 .829-.275 1.319 1.319 0 0 0 .419-.762h1.277l.018.035a2.66 2.66 0 0 1-.366 1.1 2.048 2.048 0 0 1-.832.759 2.942 2.942 0 0 1-1.343.277zm5.52 0a2.136 2.136 0 0 1-1.506-.5 1.774 1.774 0 0 1-.539-1.371 1.736 1.736 0 0 1 .328-1.049 2.136 2.136 0 0 1 .961-.706 4.112 4.112 0 0 1 1.535-.255h.967v-.533a1.079 1.079 0 0 0-.3-.8 1.193 1.193 0 0 0-.876-.3 1.938 1.938 0 0 0-.58.079 1.527 1.527 0 0 0-.451.226l-.135.855h-1.084l-.012-1.564a4.183 4.183 0 0 1 1.043-.483 4.286 4.286 0 0 1 1.277-.179 2.927 2.927 0 0 1 1.9.565 1.969 1.969 0 0 1 .694 1.62V-1.225q0 .123.015.24L114-.9V0h-1.928q-.059-.205-.108-.4a2.993 2.993 0 0 1-.073-.387 2.621 2.621 0 0 1-.765.653 2.008 2.008 0 0 1-1.011.257zm.334-1.143a1.73 1.73 0 0 0 .832-.208 1.479 1.479 0 0 0 .58-.524v-1.06h-.984a1.436 1.436 0 0 0-1 .308.945.945 0 0 0-.337.718.7.7 0 0 0 .234.568 1.013 1.013 0 0 0 .67.198zm6.734 1.143a2.209 2.209 0 0 1-1.312-.387 2.44 2.44 0 0 1-.835-1.081 4.18 4.18 0 0 1-.29-1.62v-.123a4.928 4.928 0 0 1 .29-1.77 2.634 2.634 0 0 1 .838-1.178 2.074 2.074 0 0 1 1.3-.422 2.067 2.067 0 0 1 .952.208 2.034 2.034 0 0 1 .7.595v-2.4l-.932-.176v-.908h2.408v8.063l.879.176V0h-2.156l-.117-.768a2 2 0 0 1-.729.665 2.123 2.123 0 0 1-.996.226zm.416-1.166a1.376 1.376 0 0 0 .727-.185 1.438 1.438 0 0 0 .5-.536v-2.795a1.505 1.505 0 0 0-.5-.536 1.305 1.305 0 0 0-.718-.2 1.13 1.13 0 0 0-.788.278 1.643 1.643 0 0 0-.454.773 4.072 4.072 0 0 0-.146 1.151v.123a2.626 2.626 0 0 0 .325 1.4 1.145 1.145 0 0 0 1.05.527zM124.8.123a2.964 2.964 0 0 1-1.562-.4 2.734 2.734 0 0 1-1.031-1.11 3.486 3.486 0 0 1-.366-1.623v-.246a3.651 3.651 0 0 1 .36-1.649 2.832 2.832 0 0 1 .993-1.137 2.578 2.578 0 0 1 1.441-.413 2.789 2.789 0 0 1 1.444.346 2.2 2.2 0 0 1 .882.981 3.564 3.564 0 0 1 .3 1.526v.844h-3.891l-.012.029a2.285 2.285 0 0 0 .208.885 1.459 1.459 0 0 0 .527.609 1.5 1.5 0 0 0 .835.223 2.952 2.952 0 0 0 .938-.141 2.882 2.882 0 0 0 .779-.4l.463.926a3.212 3.212 0 0 1-.955.533 3.858 3.858 0 0 1-1.353.217zM123.393-3.8h2.455v-.152a1.947 1.947 0 0 0-.126-.729 1.029 1.029 0 0 0-.393-.489 1.206 1.206 0 0 0-.677-.176 1.026 1.026 0 0 0-.627.2 1.4 1.4 0 0 0-.431.542 2.65 2.65 0 0 0-.22.776zm4.664 3.8v-.9l.885-.176v-4.18l-.932-.176v-.908h2.285l.07.832a2.182 2.182 0 0 1 .776-.7 2.259 2.259 0 0 1 1.081-.249 1.957 1.957 0 0 1 1.063.278 1.72 1.72 0 0 1 .671.841 2.242 2.242 0 0 1 .771-.82 2.071 2.071 0 0 1 1.122-.3 1.86 1.86 0 0 1 1.5.65 3 3 0 0 1 .548 1.969v2.76l.885.176V0h-3.193v-.9l.832-.176v-2.768a1.784 1.784 0 0 0-.27-1.125.973.973 0 0 0-.791-.322 1.089 1.089 0 0 0-.8.311 1.482 1.482 0 0 0-.407.791v3.111l.8.176V0h-3.076v-.9l.8-.176v-2.768a1.763 1.763 0 0 0-.275-1.11.97.97 0 0 0-.8-.337 1.406 1.406 0 0 0-.729.176 1.275 1.275 0 0 0-.472.5v3.539l.826.176V0zm12.568 2.561a2.9 2.9 0 0 1-.419-.035 2.964 2.964 0 0 1-.413-.088l.164-1.107q.105.018.255.029t.237.012a.884.884 0 0 0 .621-.231 1.669 1.669 0 0 0 .41-.641l.193-.51-2.168-5.314-.738-.105v-.911h3.07v.908l-.779.117 1.1 2.953.193.551h.035l1.3-3.51-.779-.111v-.908h2.912v.908l-.686.1-2.451 6.287a3.794 3.794 0 0 1-.437.812 1.911 1.911 0 0 1-.656.58 2 2 0 0 1-.964.214z" data-name="Path 11760" transform="translate(80.21 70.47)" style="fill:#58595b"/>
            <path id="prefix__Path_11700" d="M34.86 4.27l-.16.05c-.71.09-.71.09-1-.55-.17-.38-.17-.37-.6-.34s-.69.06-1 .07a.38.38 0 0 0-.42.34 6.769 6.769 0 0 1-.2.7l-.86.07.1-.38L31.85.46c.09-.31.09-.32.41-.32.71 0 .52-.16.85.49.52 1.06 1 2.13 1.54 3.2l.21.44M32.5 1.2h-.09c-.15.51-.3 1-.46 1.6l1.25-.08c-.25-.56-.46-1-.7-1.53" class="prefix__cls-2" data-name="Path 11700"/>
            <path id="prefix__Path_11701" d="M37 2.92a1.611 1.611 0 1 1 3.22-.11 1.58 1.58 0 0 1-1.58 1.7A1.51 1.51 0 0 1 37 2.92m2.43-.09a1.469 1.469 0 0 0 0-.21.77.77 0 0 0-1.51-.16 1.37 1.37 0 0 0 0 .85.76.76 0 0 0 .69.57.74.74 0 0 0 .76-.49 3.16 3.16 0 0 0 .13-.55" class="prefix__cls-2" data-name="Path 11701"/>
            <path id="prefix__Path_11702" d="M41.56 4.89l-.75-.17c.23-1 .46-2 .7-3l.68.14v.41l.33-.15a1.22 1.22 0 0 1 1.25.13.74.74 0 0 1 .35.66 2.73 2.73 0 0 1-.05.5c-.13.58-.26 1.16-.4 1.74a1.11 1.11 0 0 1-.08.24l-.74-.17.31-1.39a4.66 4.66 0 0 0 .12-.63c0-.35-.07-.53-.34-.62a.63.63 0 0 0-.75.24 1.42 1.42 0 0 0-.17.4c-.12.48-.23 1-.35 1.46l-.08.25" class="prefix__cls-2" data-name="Path 11702"/>
            <path id="prefix__Path_11703" d="M35.43 0h.76c.05.72 0 1.43 0 2.13V4.3h-.79c0-1.43.07-2.84.06-4.3" class="prefix__cls-2" data-name="Path 11703"/>
            <path id="prefix__Path_11704" d="M61.19 37.52a25.94 25.94 0 0 1-51.7.13 13.02 13.02 0 0 0 25.09 2.16l-.5-.31a9.24 9.24 0 0 1-3.39-3.5 6.47 6.47 0 0 1-.83-3 6 6 0 0 1 .88-3.35 12.46 12.46 0 0 1 1.14-1.56A15.94 15.94 0 0 0 34.07 25a7.54 7.54 0 0 0 .83-3 9.37 9.37 0 0 0-.23-2.24c-.1-.51-.17-1-.26-1.52v-.32a1.92 1.92 0 0 1 .29.15 16.73 16.73 0 0 1 5.59 6.36 11.78 11.78 0 0 1-.47 11.2 10.84 10.84 0 0 1-2.44 2.66l-.94.77c-.1.09-.18.19-.28.28a.41.41 0 0 0-.1.51 13.038 13.038 0 0 0 24.2.89 14.21 14.21 0 0 0 .95-3.17" class="prefix__cls-2" data-name="Path 11704"/>
            <path id="prefix__Path_11705" d="M6.43 45.09c-.08-.29-.16-.57-.25-.85l.15-.11a1.55 1.55 0 0 0 1-1.75A3.54 3.54 0 0 0 7 41.11a1.35 1.35 0 0 0-.71-.68 1 1 0 0 0-1.32.67 9.54 9.54 0 0 0-.14 1.31 10.457 10.457 0 0 1-.08 1.58 3.67 3.67 0 0 1-.13.66 2.06 2.06 0 0 1-3.15 1.13 2.69 2.69 0 0 1-1-1.28 4.45 4.45 0 0 1-.3-2.67 2.5 2.5 0 0 1 1.7-1.93h.17c.09.29.17.57.26.85a.94.94 0 0 1-.17.11A1.76 1.76 0 0 0 1 42.42a3 3 0 0 0 .61 2.29 1.19 1.19 0 0 0 1 .47 1 1 0 0 0 .92-.64 3.17 3.17 0 0 0 .2-.86 10.858 10.858 0 0 1 .08-1.58A6.39 6.39 0 0 1 4 40.87a1.78 1.78 0 0 1 1.69-1.45 2 2 0 0 1 1.87.93 3.91 3.91 0 0 1 .61 1.59 3.61 3.61 0 0 1 0 1.39 2.19 2.19 0 0 1-1.72 1.76" class="prefix__cls-2" data-name="Path 11705"/>
            <path id="prefix__Path_11706" d="M9.18 51.29l-.54.45v.08a2.09 2.09 0 0 1 1.72.8 1.62 1.62 0 0 1 .24 1.89h.4a2 2 0 0 1 1.66 1 1.5 1.5 0 0 1-.18 1.91 3 3 0 0 1-.37.34c-1 .79-2 1.57-3 2.35l-.19.12-.56-.7.29-.24 2.43-1.9a4.88 4.88 0 0 0 .59-.52.87.87 0 0 0 .16-1.09 1.33 1.33 0 0 0-1.75-.65 3 3 0 0 0-.62.36l-2.3 1.89-.33.24-.55-.71.29-.25c.84-.65 1.68-1.3 2.51-2a3.53 3.53 0 0 0 .59-.57.86.86 0 0 0 0-1.06 1.34 1.34 0 0 0-1.67-.5 4.78 4.78 0 0 0-.88.55c-.68.51-1.36 1.05-2 1.58l-.33.25-.57-.72 4.51-3.53c.18.22.33.41.52.63" class="prefix__cls-2" data-name="Path 11706"/>
            <path id="prefix__Path_11707" d="M20.77 14.15l.54.69-.6.52 3 3.81a1.13 1.13 0 0 1-.26.07h-.42a.7.7 0 0 1-.75-.34c-.67-.89-1.36-1.76-2-2.63l-.35-.27a4.28 4.28 0 0 0-1.13 1l3.39 3.51c-.41.06-.74.13-1.08.17a.468.468 0 0 1-.26-.15c-.39-.39-.76-.79-1.15-1.19-.08-.08-.16-.16-.29-.27l-1 1.11.8.74a.4.4 0 0 1-.39.2h-1.29a.45.45 0 0 1-.49-.29.53.53 0 0 1 .13-.59c.46-.5.91-1 1.36-1.52.08-.08.16-.18.26-.3l-.71-.73c-.85.73-1.5 1.61-2.29 2.41l-.66-.59 1.72-1.92.27.18-.12-.35a26.42 26.42 0 0 1 3.79-3.27" class="prefix__cls-2" data-name="Path 11707"/>
            <path id="prefix__Path_11708" d="M42.94 12a7.018 7.018 0 0 0 .08.76l-.78.08a1.55 1.55 0 0 0-.31.07.38.38 0 0 0-.3.43.4.4 0 0 0 .35.4 3.67 3.67 0 0 0 .74 0 2.3 2.3 0 0 0 .42-.12v.4a9.76 9.76 0 0 0 .8-2.17L41.21 11l.24-.84h.26l1.69.48 1.38.39c-.13-.16-.21-.3-.32-.41a5.72 5.72 0 0 0-1.82-1.3.44.44 0 0 1-.33-.48 3.785 3.785 0 0 0-.06-.78 8.44 8.44 0 0 1 1 .49 8.55 8.55 0 0 1 .86.78 1 1 0 0 0 0-.22c-.1-.31-.21-.61-.32-.92a.71.71 0 0 0-.41-.5.3.3 0 0 1-.14-.19 4.522 4.522 0 0 0-.08-1 7.79 7.79 0 0 1 1 .48 1 1 0 0 1 .32.5c.17.53.33 1.07.46 1.62s.25 1.19.34 1.79a.467.467 0 0 0 .43.52.91.91 0 0 1 .2.1l-.28.82-.75-.24c-.32.75-.56 1.52-.85 2.27s-.54 1.5-.84 2.32c-.24-.33-.44-.59-.62-.87a.45.45 0 0 1 0-.3c.09-.3.21-.6.33-1h-.45A1.41 1.41 0 0 1 41 13.25a1 1 0 0 1 .48-1 2.14 2.14 0 0 1 1.46-.25" class="prefix__cls-2" data-name="Path 11708"/>
            <path id="prefix__Path_11709" d="M32.93 10.43a.525.525 0 0 0-.06-.3c-.06-.1 0-.35 0-.56l1.13-.1.89-.06a.65.65 0 0 1 .54.1c.06.05.19 0 .28 0h2a1.91 1.91 0 0 1 0 .89h-.75v4.4a.54.54 0 0 0 .25.5 1.24 1.24 0 0 1 .4 1.45 1.11 1.11 0 0 1-1.13.81 1.79 1.79 0 0 1-1.24-.39 4 4 0 0 1-.52-.49 11.33 11.33 0 0 1-1.08-1.53.51.51 0 0 1 .66.24 4.27 4.27 0 0 0 1 1.14 1.38 1.38 0 0 0 1.33.32.59.59 0 0 0 .47-.56.47.47 0 0 0-.66-.5 2.29 2.29 0 0 0-.41.28 2.151 2.151 0 0 0-.24.26l-.46-.67a1.17 1.17 0 0 1 1.17-.61c0-.18-.16-.22-.26-.28a.46.46 0 0 1-.23-.45v-2.15a14.143 14.143 0 0 0-1.62.14.47.47 0 0 0-.38.56 1.8 1.8 0 0 0 .17.51 4.2 4.2 0 0 0 .82 1.25l.28.24-.35.26a1.75 1.75 0 0 1-.2-.16c-.34-.4-.7-.79-1-1.21a2.35 2.35 0 0 1-.47-1.47.87.87 0 0 1 .26-.69.68.68 0 0 1 .36-.2c.64-.07 1.28-.11 2-.17a4.515 4.515 0 0 0 .08.58 3.6 3.6 0 0 0 0-1.36h-.55a.88.88 0 0 0-.69-.08l-1.5.1h-.29" class="prefix__cls-2" data-name="Path 11709"/>
            <path id="prefix__Path_11710" d="M46.34 64.72L45.43 62l.87-.3 2.58 7.5-.79.27c-.09-.2-.16-.38-.25-.6-.06.11-.1.17-.13.24a2.08 2.08 0 0 1-2.05 1.16 2.51 2.51 0 0 1-1.93-1.2 4.12 4.12 0 0 1-.7-2.62 2.18 2.18 0 0 1 3.06-1.87.475.475 0 0 1 .25.1m-2.41 2.09a4 4 0 0 0 .73 2 1.57 1.57 0 0 0 1.17.68 1.45 1.45 0 0 0 1.56-1.56 3.77 3.77 0 0 0-.83-2.22 1.51 1.51 0 0 0-1.67-.5 1.55 1.55 0 0 0-1 1.59" class="prefix__cls-2" data-name="Path 11710"/>
            <path id="prefix__Path_11711" d="M41.17 63.22c.07.37.13.7.2 1l-.86.18c0-.07-.09-.13-.16-.23a.64.64 0 0 0-.06.11l-1.14 3.24c-.46 1.29-.91 2.57-1.36 3.86-.12.33-.12.33-.48.34h-.69L33.28 64l1.09-.05 2.74 6.92a.85.85 0 0 0 .11-.21q1.08-3.3 2.17-6.6c.09-.29.1-.29.4-.31h.47a.628.628 0 0 1 .06-.32l.85-.15" class="prefix__cls-2" data-name="Path 11711"/>
            <path id="prefix__Path_11712" d="M59.59 62.62l-.27.24-.46.37-.56-.37c-.14.11-.12.28-.16.42a3 3 0 0 1-1.49 1.84 1.67 1.67 0 0 1-1 .23 1.61 1.61 0 0 1-1.33-2.14 2.68 2.68 0 0 1 .59-.93l1.2-1.28c.09-.11.16-.23.27-.39-.16-.17-.3-.34-.47-.49a.77.77 0 0 0-.77-.17A2.27 2.27 0 0 0 53.77 61a1 1 0 0 0-.06.73 1.555 1.555 0 0 0 .13.43l-.76.45A1.73 1.73 0 0 1 52.9 61a3.66 3.66 0 0 1 2.3-2 1.24 1.24 0 0 1 1.32.35 5.79 5.79 0 0 1 .57.64c.32.38.62.78.95 1.17a5.13 5.13 0 0 0 1.55 1.49m-2.74-1.46c-.25.32-.45.6-.67.86s-.47.54-.71.81a1.88 1.88 0 0 0-.16.23.87.87 0 0 0 0 1 .9.9 0 0 0 1 .29 2 2 0 0 0 1.24-1.7 2.37 2.37 0 0 0-.76-1.53" class="prefix__cls-2" data-name="Path 11712"/>
            <path id="prefix__Path_11713" d="M24.87 66l-.8-.36a1.8 1.8 0 0 1 1.65-1.13 4 4 0 0 1 2.32.62 1.35 1.35 0 0 1 .65 1.63c-.19.78-.43 1.56-.64 2.35a10.681 10.681 0 0 0-.26 1.15 4.47 4.47 0 0 0 0 .74l-.55-.15c-.39-.11-.41-.13-.38-.55v-.22a.413.413 0 0 0-.41.09A3 3 0 0 1 24 70a1.6 1.6 0 0 1 .73-3 8.109 8.109 0 0 1 1.17 0l1.39.14c.31 0 .33 0 .42-.31a1 1 0 0 0-.57-1.3 4.2 4.2 0 0 0-1-.3 1.06 1.06 0 0 0-1 .4l-.26.33m2.52 1.94a.79.79 0 0 0-.17 0l-1.6-.13a4.329 4.329 0 0 0-.72 0 .8.8 0 0 0-.77.63.82.82 0 0 0 .33.95 2 2 0 0 0 .71.3 1.68 1.68 0 0 0 1.82-.59 3 3 0 0 0 .44-1.13" class="prefix__cls-2" data-name="Path 11713"/>
            <path id="prefix__Path_11714" d="M14 64.79l-.71-.63.27-.66h-.44a2.89 2.89 0 0 1-2.22-1.34 1.57 1.57 0 0 1 .93-2.4 1.75 1.75 0 0 1 1.25.15c.29.15.56.33.84.49s.83.52 1.25.76.31.14.51-.1a1 1 0 0 0 0-1.45 4 4 0 0 0-.69-.62 1.1 1.1 0 0 0-1.25-.07l-.28.15c-.19-.22-.37-.44-.58-.67a1.76 1.76 0 0 1 1.62-.43 3.78 3.78 0 0 1 2.26 1.75 1.34 1.34 0 0 1-.15 1.64c-.47.58-1 1.15-1.46 1.72l-.12.13a4.82 4.82 0 0 0-1 1.63m1-3l-.16-.11-1.44-.8a3.86 3.86 0 0 0-.57-.3.85.85 0 0 0-1.15.48.92.92 0 0 0 .16.94 2 2 0 0 0 1 .71 1.55 1.55 0 0 0 1.66-.34c.18-.18.34-.37.54-.58" class="prefix__cls-2" data-name="Path 11714"/>
            <path id="prefix__Path_11715" d="M65.73 47c-.12.26-.25.52-.38.79a1.85 1.85 0 0 1-1.07-1.76A4.08 4.08 0 0 1 64.9 44a1.42 1.42 0 0 1 1.8-.7c.68.2 1.36.43 2 .64a5.2 5.2 0 0 0 2.09.41c-.09.27-.17.51-.24.75a.23.23 0 0 1-.25.16h-.51a1.566 1.566 0 0 0 .12.45 2.91 2.91 0 0 1-.19 2.29 1.55 1.55 0 0 1-1.75.87 1.58 1.58 0 0 1-1.28-1.56 9.238 9.238 0 0 1 .1-1.17c.07-.5.15-1 .21-1.49 0-.3 0-.32-.27-.41a1 1 0 0 0-1.36.56 4.13 4.13 0 0 0-.32 1.05 1 1 0 0 0 .33.87l.35.32m2-2.42a11.687 11.687 0 0 1-.14 1.34c-.05.44-.11.63-.13.95a.88.88 0 0 0 .67 1 .9.9 0 0 0 1-.47 2.1 2.1 0 0 0 .22-1.55 1.77 1.77 0 0 0-1.65-1.24" class="prefix__cls-2" data-name="Path 11715"/>
            <path id="prefix__Path_11716" d="M66.73 54c-.14.28-.28.51-.43.8-2.3-1.26-4.63-2.54-6.95-3.8l.46-.81 2.47 1.37a.709.709 0 0 0-.06-.39 2.36 2.36 0 0 1 1-2.37 1.42 1.42 0 0 1 1.23-.18 3.74 3.74 0 0 1 .8.33l3.1 1.71.18.12-.43.79-.34-.17L65 49.83a2.79 2.79 0 0 0-.59-.26 1.06 1.06 0 0 0-1.16.36 1.48 1.48 0 0 0 .23 2.19 16.381 16.381 0 0 0 1.72 1l1.35.75.2.13" class="prefix__cls-2" data-name="Path 11716"/>
            <path id="prefix__Path_11717" d="M55.85 25.54l-.39.19c-.26.12-.45 0-.46-.29a.49.49 0 0 1 0-.21c.11-.37.22-.73.35-1.09a.58.58 0 0 1 .18-.26c.25-.23.41-.2.59.08l.15.21 1.21-.67a9.611 9.611 0 0 0-.75-1.27l-4.13 2.58v-.84a.47.47 0 0 1 .28-.49c1-.6 2-1.22 2.94-1.84l.36-.24-.32-.59.74-.47a45.481 45.481 0 0 1 2.59 4.36l-.76.42-.43-.78-1.26.66c.22.4.42.77.64 1.19l-.86.49c-.23-.39-.44-.76-.67-1.17" class="prefix__cls-2" data-name="Path 11717"/>
            <path id="prefix__Path_11718" d="M21.15 13.78l1.33-.78 1.33-.75a1.09 1.09 0 0 0-.18-.15c-.37-.16-.74-.34-1.12-.47a1.25 1.25 0 0 0-1.14.1.47.47 0 0 1-.64-.07 6.21 6.21 0 0 0-.58-.45 2.24 2.24 0 0 1 1.85-.37 10.13 10.13 0 0 1 2.15 1 .41.41 0 0 0 .58 0l.44.78-.79.47.84 1.54-.71.39-.46.26a.67.67 0 0 0-.25 1 .93.93 0 0 0 1.38.17.41.41 0 0 0-.07-.11.55.55 0 0 1-.11-.71.69.69 0 0 1 .71-.38.47.47 0 0 1 .26.11 1.08 1.08 0 0 1 .38 1.09.55.55 0 0 0 0 .13 2.16 2.16 0 0 1 .87.57l-.53.31L26 17a.34.34 0 0 0-.34 0 2 2 0 0 1-2.57-.75 2.38 2.38 0 0 1-.27-.73.78.78 0 0 1 .47-.91l.62-.35.08-.1-.39-.72-2 1.1c-.15-.26-.28-.51-.43-.78" class="prefix__cls-2" data-name="Path 11718"/>
            <path id="prefix__Path_11719" d="M4.55 51.92a2.19 2.19 0 0 1-1.43-.54 2.87 2.87 0 0 1-1-2A2.33 2.33 0 0 1 3 47.25a4.16 4.16 0 0 1 2.27-1 2.24 2.24 0 0 1 1.51.35A2.89 2.89 0 0 1 8 49.46a2.36 2.36 0 0 1-.63 1.26 4.28 4.28 0 0 1-2.84 1.2m.93-4.7a3.4 3.4 0 0 0-2.15 1A1.54 1.54 0 0 0 3 50a1.51 1.51 0 0 0 1.53 1 3.17 3.17 0 0 0 2.24-1 1.54 1.54 0 0 0 .33-1.8 1.61 1.61 0 0 0-1.62-1" class="prefix__cls-2" data-name="Path 11719"/>
            <path id="prefix__Path_11720" d="M13.49 23.65l-.38.56-.74-.45a27 27 0 0 1 2.7-4.09l.7.5-.45.67 3.94 2.87a5.21 5.21 0 0 1-1 .36.774.774 0 0 1-.34-.15l-2.78-2-.37-.25a6.12 6.12 0 0 0-.77 1.12l4.16 2.5a4 4 0 0 1-1 .48.746.746 0 0 1-.32-.12l-2.9-1.75-.45-.25" class="prefix__cls-2" data-name="Path 11720"/>
            <path id="prefix__Path_11721" d="M47.5 63.7l.87-.46L52 66.51a.929.929 0 0 0 0-.14c-.19-1.19-.37-2.39-.55-3.58a5.342 5.342 0 0 0-.13-.88.27.27 0 0 1 .16-.32l.63-.32c.08.57.16 1.1.23 1.63.21 1.59.42 3.17.62 4.76a9.269 9.269 0 0 1 .04 1.39 1.42 1.42 0 0 1-1 1.4c-.26.07-.29.06-.44-.16s-.2-.29-.32-.47l.37-.15a1 1 0 0 0 .66-1.07 1.49 1.49 0 0 0-.58-1.23c-1.32-1.11-2.6-2.26-3.89-3.4a2.65 2.65 0 0 1-.25-.24" class="prefix__cls-2" data-name="Path 11721"/>
            <path id="prefix__Path_11722" d="M19.9 61.8l.88.47c-.24 1.6-.47 3.19-.71 4.81l3.61-3.27.78.41a1.28 1.28 0 0 1-.16.21q-2.55 2.25-5.11 4.49a3.53 3.53 0 0 1-.89.59 1.38 1.38 0 0 1-1.53-.27.29.29 0 0 1-.11-.37l.24-.59.37.25a1 1 0 0 0 1.26-.09 1.59 1.59 0 0 0 .68-1.18c.16-1.6.39-3.2.59-4.8l.1-.66" class="prefix__cls-2" data-name="Path 11722"/>
            <path id="prefix__Path_11723" d="M49.75 14.51l.55-.46.31.23L52 15.36c.11.09.21.17.11.33l.21-.12 2.2 2.05-.59.65a30 30 0 0 0-3-2.53c-1 1.26-2 2.53-3 3.85-.13-.39-.25-.7-.33-1a.46.46 0 0 1 .1-.29c.18-.25.37-.49.59-.77l-.25-.05a1.45 1.45 0 0 1-.81-2.21 1.1 1.1 0 0 1 1.23-.44c.65.15.72.24.67.89a.436.436 0 0 1-.05.23 1.61 1.61 0 0 0-.38-.14 4 4 0 0 0-.77-.13.63.63 0 0 0-.38.15.29.29 0 0 0 0 .51 1.19 1.19 0 0 0 .73.25h.75l1.14-1.46-.39-.31c-.09-.08-.18-.16-.08-.29z" class="prefix__cls-2" data-name="Path 11723"/>
            <path id="prefix__Path_11724" d="M27.09 10.92c.1.19.17.33.23.46h.05a2.127 2.127 0 0 0-.11-.5 12.71 12.71 0 0 1 2.37-.67l.22.79-.75.25c.44 1.55.87 3.08 1.32 4.65a4.29 4.29 0 0 1-1-.3c-.06 0-.11-.15-.13-.23-.09-.26-.16-.52-.25-.82a3.72 3.72 0 0 1-.31.22 1.43 1.43 0 0 1-2.16-.85 1.32 1.32 0 0 1 .95-1.48.34.34 0 0 1 .2 0l.53.45c-.2.13-.37.23-.53.35a1.19 1.19 0 0 0-.47.61.43.43 0 0 0 .09.47c.14.12.29.07.44 0a1.63 1.63 0 0 0 .67-.63c.07-.12.15-.23.25-.39-.16-.57-.34-1.19-.53-1.85-.91.32-1.75.72-2.66 1-.11-.26-.22-.52-.34-.82l1.95-.79" class="prefix__cls-2" data-name="Path 11724"/>
            <path id="prefix__Path_11725" d="M50.24 21.25a.35.35 0 0 1-.39-.36 6.9 6.9 0 0 1 .13-2 1.72 1.72 0 0 1 .79-1.07.94.94 0 0 1 1.51.78v.24c.77 0 1 .17.92.93l.34-.12c.09.11.19.21.28.33.25.33.87.13 1-.24a.4.4 0 0 0-.1-.4l-.53-.66.67-.56c.55.61 1 1.26 1.58 1.91l-.68.57-.44-.49-.19.22a1.68 1.68 0 0 1-1 .64 1.23 1.23 0 0 1-.82-.15.42.42 0 0 0 0 .59 1.52 1.52 0 0 0 .78.54 2.931 2.931 0 0 1 .51.13 10 10 0 0 1-.84.68.32.32 0 0 1-.23 0 1.44 1.44 0 0 1-.94-1.9A7.819 7.819 0 0 1 53 20c-.25-.42-.54-.46-.88-.11l-.62.66c-.12-.26-.21-.48-.33-.73l.48-.52c.13-.14.27-.26.15-.47a.59.59 0 0 0-.61-.28.9.9 0 0 0-.57.51 3.69 3.69 0 0 0-.31 1.35 3.392 3.392 0 0 1-.08.89" class="prefix__cls-2" data-name="Path 11725"/>
            <path id="prefix__Path_11726" d="M56.21 58l.65-.71 4.42 1.91a5.371 5.371 0 0 0-.41-.87c-.14-.29-.29-.57-.44-.86l-.43-.84c-.14-.29-.29-.57-.44-.86s-.29-.57-.44-.88c.22-.23.42-.44.64-.69l.3.58 2.26 4.6c.16.32.16.32-.08.58-.42.44-.29.41-.83.19l-4.87-2-.33-.15" class="prefix__cls-2" data-name="Path 11726"/>
            <path id="prefix__Path_11727" d="M4.71 23.33c.14.32.24.6.38.86a.65.65 0 0 0 .28.2c.3.14.61.26 1 .4-.11.26-.2.5-.31.77C4.67 25 3.35 24.48 2 23.93l.31-.76 1.69.68.06-.07-.15-.34-.8-1.74a.51.51 0 0 1 0-.48c.11-.23.2-.48.32-.77l.21.42c.21.46.41.92.61 1.38.14.31.15.31.49.24L7 22h.48c-.14.34-.24.62-.36.88a.39.39 0 0 1-.27.14L5 23.27l-.27.06" class="prefix__cls-2" data-name="Path 11727"/>
            <path id="prefix__Path_11728" d="M22.73 7.31l.75-.2a.24.24 0 0 1 .16 0 .5.5 0 0 0 .51 0c.51-.17.63-.42.45-.93a1.269 1.269 0 0 0-.16-.41 1.45 1.45 0 0 0-.15.23 1.15 1.15 0 0 1-1.75.37 1.93 1.93 0 0 1-.74-1.77 1.18 1.18 0 0 1 1.6-1l.23.07a.886.886 0 0 0-.06-.38l.62-.24a1.3 1.3 0 0 1 .11.19c.32.82.65 1.65.95 2.48a4.12 4.12 0 0 1 .19.86.77.77 0 0 1-.3.7 2.47 2.47 0 0 1-1.64.61.76.76 0 0 1-.77-.62m-.17-2.52a1.69 1.69 0 0 0 .34.91.66.66 0 0 0 .75.27.7.7 0 0 0 .49-.71 1.42 1.42 0 0 0-.39-1 .67.67 0 0 0-.75-.1.69.69 0 0 0-.41.67" class="prefix__cls-2" data-name="Path 11728"/>
            <path id="prefix__Path_11729" d="M9.3 13.33l.56-.53 1.79.94.06-.05c-.31-.6-.7-1.15-1-1.76l.52-.55 1.83 1a4.1 4.1 0 0 0-.49-1c-.16-.31-.33-.6-.51-.92l.48-.5a19.87 19.87 0 0 1 1.56 2.94l-.56.5-1.7-.93-.06.06c.31.57.67 1.11 1 1.7l-.53.57-3-1.47" class="prefix__cls-2" data-name="Path 11729"/>
            <path id="prefix__Path_11730" d="M19.78 3.62l2.1 3.79-.6.36c-.08-.11-.16-.2-.25-.31 0 .07-.07.11-.09.17a1.2 1.2 0 0 1-2 .52 2.25 2.25 0 0 1-.78-1.41 1.23 1.23 0 0 1 1.42-1.4h.23L19.1 4l.68-.39m-.05 2.17a.7.7 0 0 0-.77.73 1.6 1.6 0 0 0 .52 1 .67.67 0 0 0 1.14-.64 1.71 1.71 0 0 0-.49-.87 2.27 2.27 0 0 0-.4-.23" class="prefix__cls-2" data-name="Path 11730"/>
            <path id="prefix__Path_11731" d="M54.73 10.44c-.12.12-.21.19-.31.28l-.54-.43c.87-1.14 1.76-2.26 2.66-3.41l.32.23.29.25-.91 1.2h.29a1.22 1.22 0 0 1 1.14 1.53 2.19 2.19 0 0 1-1.13 1.41 1.18 1.18 0 0 1-1.76-.89l-.05-.21m.44-.18a.64.64 0 0 0 1 .58 1.62 1.62 0 0 0 .73-1 .6.6 0 0 0-.19-.65.63.63 0 0 0-.66-.15 1.5 1.5 0 0 0-.88 1.2" class="prefix__cls-2" data-name="Path 11731"/>
            <path id="prefix__Path_11732" d="M71.2 41.91a6.034 6.034 0 0 1-.15.9l-5.65-1c.06-.28.1-.52.15-.79l.78.09c-.22-.27-.42-.47-.57-.7a1 1 0 0 1-.09-.83 1.7 1.7 0 0 1 .45-.77l.76.44-.15.28a1 1 0 0 0 .48 1.47 4.55 4.55 0 0 0 1.08.35c.85.17 1.72.31 2.57.46a2.581 2.581 0 0 1 .34.08" class="prefix__cls-2" data-name="Path 11732"/>
            <path id="prefix__Path_11733" d="M17 27v.56c-.2.07-.4.15-.62.21a.62.62 0 0 0-.47.43 1.25 1.25 0 0 1-.28.41.46.46 0 0 1-.52.13.56.56 0 0 1-.38-.43.83.83 0 0 1 .49-.91.44.44 0 0 0 .25-.5.266.266 0 0 0-.43-.24c-.22.13-.46.34-.69.51s-.38.33-.59.46a1.18 1.18 0 0 1-.5.19.54.54 0 0 1-.66-.63v-.1l.9-2.39a3.1 3.1 0 0 1 .83.27c-.24.65-.48 1.27-.71 1.9h.06a1.9 1.9 0 0 1 .24-.25 5.83 5.83 0 0 1 .8-.61.77.77 0 0 1 1.13.33 5.16 5.16 0 0 1 .3.77l.36-.06L17 27" class="prefix__cls-2" data-name="Path 11733"/>
            <path id="prefix__Path_11734" d="M54.55 28.84c.09-.4.16-.71.22-1s.18-.19.29-.24l2.66-1.07 1-.41c-.07-.21-.13-.41-.2-.65l.8-.33c.32.77.61 1.5.93 2.29l-.82.34c-.11-.25-.21-.47-.32-.74l-2.24.91-2.3.92" class="prefix__cls-2" data-name="Path 11734"/>
            <path id="prefix__Path_11735" d="M61.71 18.71c.06-.12.11-.21.16-.32l-.27-.12a1.31 1.31 0 0 1-.71-.77.86.86 0 0 1 .26-1 .85.85 0 0 1 1.09 0c.19.14.35.32.53.48l.42.39a.45.45 0 0 0 .12.06c.29-.18.35-.28.29-.5a.78.78 0 0 0-.78-.59 2.75 2.75 0 0 1-.14-.3 1.218 1.218 0 0 0-.11-.32 1 1 0 0 1 1 .18 2.44 2.44 0 0 1 .7 1.06.76.76 0 0 1-.28.95c-.3.22-.61.41-.92.62a3.06 3.06 0 0 0-1 .83l-.4-.61m1.13-1.05a7.92 7.92 0 0 0-.69-.61.37.37 0 0 0-.59.3.63.63 0 0 0 .14.42c.28.36.71.31 1.14-.11" class="prefix__cls-2" data-name="Path 11735"/>
            <path id="prefix__Path_11736" d="M9.19 14.54a1.72 1.72 0 0 1 1.68 1.67 1.7 1.7 0 0 1-1.62 1.63 1.75 1.75 0 0 1-1.7-1.65 1.68 1.68 0 0 1 1.64-1.65m-.19.75a.75.75 0 0 0-.73 1 1.33 1.33 0 0 0 1.11.79.74.74 0 0 0 .7-1A1.33 1.33 0 0 0 9 15.29" class="prefix__cls-2" data-name="Path 11736"/>
            <path id="prefix__Path_11737" d="M17.54 8.88l.67-.3A1.17 1.17 0 0 1 18 9.69a1.68 1.68 0 0 1-1 .65 1.27 1.27 0 0 1-1.18-.26 2.12 2.12 0 0 1-.77-1.25 1.27 1.27 0 0 1 .52-1.36 1.34 1.34 0 0 1 1.47-.19 2.09 2.09 0 0 1 .96.82c-.55.43-1.14.78-1.68 1.2a.71.71 0 0 0 .86.37c.31-.1.41-.31.4-.79m-.58-.7c-.33-.43-.7-.51-1-.25a.62.62 0 0 0 0 1l1-.7" class="prefix__cls-2" data-name="Path 11737"/>
            <path id="prefix__Path_11738" d="M26.42 4.28c.14.44.37.64.69.65s.49-.15.65-.61l.74-.06a1.22 1.22 0 0 1-.53 1 1.89 1.89 0 0 1-1 .31 1.2 1.2 0 0 1-.97-.44 2 2 0 0 1-.47-1.83 1.3 1.3 0 0 1 1.09-1 1.32 1.32 0 0 1 1.44.56 1.75 1.75 0 0 1 .34.88l-2 .55m1.11-.8c-.18-.54-.52-.73-.91-.56a.61.61 0 0 0-.27.88l1.18-.32" class="prefix__cls-2" data-name="Path 11738"/>
            <path id="prefix__Path_11739" d="M65.82 23.6L65 21.77a.64.64 0 0 0-.54.67c0 .36.18.51.71.64.06.21.13.43.19.67a1.05 1.05 0 0 1-1-.29 1.67 1.67 0 0 1-.53-1.14 1.51 1.51 0 0 1 .15-.69 2.05 2.05 0 0 1 2.02-.91 1.45 1.45 0 0 1 .68 2.35 2 2 0 0 1-.84.53m.08-.93c.45-.18.62-.53.46-.88s-.54-.45-1-.23c.17.37.34.74.52 1.11" class="prefix__cls-2" data-name="Path 11739"/>
            <path id="prefix__Path_11740" d="M59.63 13.68l-1.42-1.46a.66.66 0 0 0-.29.82c.12.31.33.4.89.37l.25.36a1.71 1.71 0 0 1 .13.23A1.06 1.06 0 0 1 58 14a2.37 2.37 0 0 1-.59-.55 1.23 1.23 0 0 1-.1-1.42 2.09 2.09 0 0 1 1-1 1.44 1.44 0 0 1 1.81 2 2.4 2.4 0 0 1-.57.68m-.22-.91c.38-.37.4-.75.1-1a.63.63 0 0 0-.95.14c.27.29.55.58.85.88" class="prefix__cls-2" data-name="Path 11740"/>
            <path id="prefix__Path_11741" d="M47.44 5.15l-1.93-.61a.66.66 0 0 0 .12.85c.27.24.52.22.95-.09l.64.33a1.1 1.1 0 0 1-1.08.53 2.53 2.53 0 0 1-.81-.24 1.22 1.22 0 0 1-.71-1.19 2.22 2.22 0 0 1 .47-1.33 1.35 1.35 0 0 1 1.54-.46 1.31 1.31 0 0 1 1 1.3 1.89 1.89 0 0 1-.17.91m-.62-.69a.64.64 0 0 0-.11-.79.55.55 0 0 0-.66-.13.54.54 0 0 0-.38.55l1.15.37" class="prefix__cls-2" data-name="Path 11741"/>
            <path id="prefix__Path_11742" d="M8.72 19.71l-1.11-.64c-.21-.12-.43-.25-.65-.36a.612.612 0 0 0-.74.12.65.65 0 0 0 0 .85 2.18 2.18 0 0 0 .48.32c.36.22.72.42 1.09.63l.28.19-.38.67L5 19.93l.33-.61.38.14v-.38a1.22 1.22 0 0 1 .14-.72.92.92 0 0 1 1.35-.45c.66.34 1.29.72 2 1.11l-.4.69" class="prefix__cls-2" data-name="Path 11742"/>
            <path id="prefix__Path_11743" d="M67.84 26.49l-.35-.61a.79.79 0 0 0 0-1c-.07-.12-.16-.23-.32-.17s-.17.14-.17.29v.57a5.219 5.219 0 0 1 0 .79.84.84 0 0 1-1.15.75 1.11 1.11 0 0 1-.56-.43 2.19 2.19 0 0 1-.29-1.44 1.1 1.1 0 0 1 .51-.86c.13.23.24.44.36.67a.78.78 0 0 0-.13 1.05 1 1 0 0 0 .15.2.27.27 0 0 0 .47-.19 2.111 2.111 0 0 0 0-.35v-.93a.8.8 0 0 1 .54-.8.84.84 0 0 1 1 .24 2.17 2.17 0 0 1 .51 1.46.87.87 0 0 1-.45.76" class="prefix__cls-2" data-name="Path 11743"/>
            <path id="prefix__Path_11744" d="M16.09 66.12l-.78-.51 3.12-4.81.78.51-3.12 4.81" class="prefix__cls-2" data-name="Path 11744"/>
            <path id="prefix__Path_11745" d="M65.23 56.33l-.54.76L60 53.81l.53-.78 4.7 3.3" class="prefix__cls-2" data-name="Path 11745"/>
            <path id="prefix__Path_11746" d="M42.68 71l-.91.16-1.1-5.61.92-.18c.37 1.89.72 3.73 1.09 5.63" class="prefix__cls-2" data-name="Path 11746"/>
            <path id="prefix__Path_11747" d="M51.39 3.67l.73.4-1.74 3.16 1.9 1.08-.32.6-2.66-1.47 2.09-3.77" class="prefix__cls-2" data-name="Path 11747"/>
            <path id="prefix__Path_11748" d="M63.74 20.87l-.47.36a5.481 5.481 0 0 1-.39-.48.7.7 0 0 1 .25-1.09c.37-.24.76-.45 1.14-.68.12-.07.25-.14.38-.23a1.458 1.458 0 0 0-.11-.36l.47-.28.24.27a.26.26 0 0 0 .14-.05.6.6 0 0 1 .84 0c.09.07.19.12.34.22l-.91.54.24.5c-.16.1-.31.2-.49.3l-.34-.47-1.42.84a.23.23 0 0 0-.07.37l.16.22" class="prefix__cls-2" data-name="Path 11748"/>
            <path id="prefix__Path_11749" d="M12.46 8.55l.61-.5 2.78 3.31-.6.52-2.79-3.33" class="prefix__cls-2" data-name="Path 11749"/>
            <path id="prefix__Path_11750" d="M44.17 14.58c.18-.35.33-.66.49-1 .07-.13.19-.13.31-.1a1.21 1.21 0 0 1 .85.65 2 2 0 0 1-.67 2.5.56.56 0 0 1-.73 0 .4.4 0 0 1 .1-.71 2.23 2.23 0 0 0 .51-.26 1.15 1.15 0 0 0 .31-.38.44.44 0 0 0-.28-.65 2.41 2.41 0 0 0-.6-.08 1.21 1.21 0 0 0-.29 0" class="prefix__cls-2" data-name="Path 11750"/>
            <path id="prefix__Path_11751" d="M59.63 15.77l-.5-.61 2.43-2 .44.53-.23.3a.843.843 0 0 1 .77.26.73.73 0 0 1 .19.51l-.6.23c-.05-.09-.08-.17-.12-.24a.49.49 0 0 0-.72-.24 4.25 4.25 0 0 0-.63.41c-.34.26-.67.53-1 .82" class="prefix__cls-2" data-name="Path 11751"/>
            <path id="prefix__Path_11752" d="M10.86 27.43L12 24.38l.84.32c-.39 1-.78 2-1.17 3.05l-.84-.32" class="prefix__cls-2" data-name="Path 11752"/>
            <path id="prefix__Path_11753" d="M54.18 6.7l.67.41-1.65 2.66-.67-.42 1.65-2.65" class="prefix__cls-2" data-name="Path 11753"/>
            <path id="prefix__Path_11754" d="M53.51 27.26a1.34 1.34 0 0 1 .74.76.71.71 0 0 1 0 .62 3.08 3.08 0 0 1-.35.58 10.827 10.827 0 0 1-.88 1c-.15.16-.16.16-.46 0 0-.08.09-.16.14-.23.27-.38.55-.76.81-1.14s.17-.34-.06-.56l-.52-.49.27-.31.3-.32" class="prefix__cls-2" data-name="Path 11754"/>
            <path id="prefix__Path_11755" d="M47.64 13.55l-1.89-1c.14-.27.26-.51.4-.8l1.9 1-.41.81" class="prefix__cls-2" data-name="Path 11755"/>
            <path id="prefix__Path_11756" d="M49.75 14.51c-.08.11-.18.07-.28 0l-1.63-1 .47-.76 1.78 1.11-.33.65" class="prefix__cls-2" data-name="Path 11756"/>
            <path id="prefix__Path_11757" d="M59.07 53.15l-.88-.61.53-.76.88.61-.53.76" class="prefix__cls-2" data-name="Path 11757"/>
            <path id="prefix__Path_11758" d="M19.63 59l.75.49a4.85 4.85 0 0 1-.56.91l-.82-.54.59-.91" class="prefix__cls-2" data-name="Path 11758"/>
            <path id="prefix__Path_11759" d="M54.45 6.29l.38-.62.66.41-.37.62-.67-.41" class="prefix__cls-2" data-name="Path 11759"/>
        </g>
    </g>
</svg>
