<svg xmlns="http://www.w3.org/2000/svg" width="52" height="52" viewBox="0 0 52 52">
    <g transform="translate(-210 -776)">
        <circle cx="26" cy="26" r="26" fill="#e7e8e9" transform="translate(210 776)"/>
        <g>
            <path d="M-88.557-71.55l-.44 4.4a.549.549 0 0 0 .139.423.548.548 0 0 0 .407.18h3.294a.546.546 0 0 0 .407-.181.548.548 0 0 0 .139-.423l-.44-4.4a1.752 1.752 0 0 0-1.2-1.494v-1.285c.019-.007.036-.017.055-.025l.085-.038a1.594 1.594 0 0 0 .181-.1c.026-.016.052-.032.077-.05a1.608 1.608 0 0 0 .186-.154c.012-.011.025-.02.036-.031a1.651 1.651 0 0 0 .183-.222c.015-.022.027-.046.042-.069a1.641 1.641 0 0 0 .1-.186c.014-.03.026-.06.038-.092a1.6 1.6 0 0 0 .061-.2c.007-.03.016-.059.022-.09a1.572 1.572 0 0 0 .031-.3 1.615 1.615 0 0 0-.031-.3c-.005-.031-.014-.06-.022-.09a1.588 1.588 0 0 0-.062-.2c-.012-.031-.024-.061-.038-.092a1.645 1.645 0 0 0-.1-.186c-.014-.023-.026-.047-.042-.069a1.686 1.686 0 0 0-.183-.222c-.011-.012-.024-.02-.036-.031a1.666 1.666 0 0 0-.186-.154c-.025-.018-.052-.033-.077-.05a1.623 1.623 0 0 0-.18-.1l-.086-.038c-.029-.012-.036-.018-.055-.024v-8.1l.929.337 2.039.738 1.12 3.36a11.458 11.458 0 0 0-1.892 6.312 11.542 11.542 0 0 0 11.529 11.53A11.542 11.542 0 0 0-61-74.784a11.522 11.522 0 0 0-5.414-9.756l-.3-1.64 3.243-1.853a.549.549 0 0 0 .276-.513.548.548 0 0 0-.34-.472l-12.078-4.941a.55.55 0 0 0-.507.048l-10.98 7.137-.008.007h-.008a.563.563 0 0 0-.1.088l-.007.01a.558.558 0 0 0-.07.108c-.007.014-.011.029-.016.043a.5.5 0 0 0-.028.09.462.462 0 0 0-.007.055c0 .018-.007.036-.007.054v8.885a1.645 1.645 0 0 0-1.1 1.546 1.645 1.645 0 0 0 1.1 1.546v1.292a1.751 1.751 0 0 0-1.206 1.5zm2.794 3.9h-2.081l.379-3.794a.663.663 0 0 1 .661-.6.663.663 0 0 1 .661.6zm23.663-7.134a10.443 10.443 0 0 1-10.429 10.431 10.443 10.443 0 0 1-10.432-10.431 10.38 10.38 0 0 1 2.331-6.56c.043-.054.088-.106.133-.159.184-.217.373-.43.574-.631l.026-.028c.209-.208.429-.4.654-.595.053-.044.1-.088.158-.132.222-.18.45-.351.685-.513.05-.034.1-.065.153-.1q.3-.2.613-.373c.07-.039.138-.08.209-.118.236-.126.478-.242.725-.35.089-.039.178-.075.268-.111.227-.092.458-.178.693-.254.081-.026.163-.051.245-.075q.352-.1.713-.184c.082-.018.165-.037.248-.054.282-.055.567-.1.856-.131.067-.008.134-.013.2-.019.311-.027.626-.047.945-.047s.618.02.923.047c.1.009.192.018.288.03.233.027.462.064.69.105.167.031.333.068.5.108s.312.076.466.12.322.1.482.152c.092.031.182.066.273.1a10.461 10.461 0 0 1 1 .433c.038.019.078.036.116.056.178.091.352.189.525.29a10.43 10.43 0 0 1 5.169 8.993zm-6.158-10.7c-.209-.084-.42-.161-.633-.232q-.215-.072-.432-.135c-.25-.073-.5-.139-.757-.195-.106-.023-.213-.042-.32-.063-.3-.057-.6-.105-.9-.138l-.155-.013c-.356-.033-.713-.054-1.072-.054s-.726.021-1.085.055c-.045 0-.091.007-.136.012-.324.035-.646.086-.964.148l-.231.045q-.444.1-.876.226c-.089.027-.178.054-.267.083-.281.091-.557.192-.83.3-.081.034-.16.069-.239.1-.279.123-.555.253-.824.4-.047.025-.092.053-.138.079q-.393.218-.768.467c-.038.025-.078.049-.116.075-.268.183-.528.379-.781.585l-.125.1q-.373.311-.721.656l-.1.106c-.219.222-.433.451-.635.692l-.909-2.726a.551.551 0 0 0-.016-.115c.063-.044.125-.083.187-.126.241-.167.481-.333.721-.485.1-.064.2-.119.3-.181.2-.124.4-.25.606-.364.128-.072.255-.135.383-.2.172-.092.344-.188.516-.272.145-.071.289-.131.434-.2s.305-.144.457-.208.322-.122.483-.183c.133-.05.267-.106.4-.151.177-.06.352-.108.528-.159.115-.033.231-.074.345-.1.225-.059.447-.1.67-.149.064-.013.129-.031.193-.043q.429-.077.853-.12a22.666 22.666 0 0 1 5.344 0l.037.006c.115.016.225.034.329.052l.111.021c.073.014.148.027.215.042l.164.037.125.029.2.053.057.015c.059.017.111.033.164.051l.057.018.137.048.049.018.1.038.057.023.193 1.157a.535.535 0 0 0 .053.154l.181.984-.1-.045c-.184-.077-.349-.15-.517-.218zm-7.509-7.35l10.771 4.406-1.931 1.1-.122-.667a.519.519 0 0 0-.061-.142.552.552 0 0 0-.035-.08.555.555 0 0 0-.185-.163c-1.383-.74-4.031-1-7.331-.74q-.33.026-.668.06a16.363 16.363 0 0 0-7.958 3.4l-.03.024-1.105-.4-.256-.093-.9-.327zM-86.8-76.431a.55.55 0 0 1 .549.549.55.55 0 0 1-.549.549.55.55 0 0 1-.549-.549.55.55 0 0 1 .549-.549z" transform="rotate(7 -42323.15 86668.854) translate(-10471 -3665.997)"/>
            <g>
                <g>
                    <g>
                        <path stroke="#000" d="M30.127 31.831a.452.452 0 0 1-.266-.087l-4.268-3.1-4.268 3.1a.453.453 0 0 1-.7-.506l1.63-5.017-4.267-3.1a.453.453 0 0 1 .266-.819h5.275l1.63-5.017a.453.453 0 0 1 .862 0l1.63 5.017h5.279a.453.453 0 0 1 .266.819l-4.268 3.1 1.63 5.017a.453.453 0 0 1-.431.593zm-10.476-8.624l3.406 2.475a.452.452 0 0 1 .165.506l-1.3 4 3.406-2.474a.451.451 0 0 1 .533 0l3.406 2.474-1.3-4a.452.452 0 0 1 .165-.506l3.406-2.475h-4.21a.453.453 0 0 1-.431-.313l-1.3-4-1.3 4a.453.453 0 0 1-.431.313z" transform="rotate(7 -42323.15 86668.854) translate(-10550.698 -3747.901) translate(-17.805 -16.971)"/>
                    </g>
                </g>
            </g>
        </g>
    </g>
</svg>
