<svg xmlns="http://www.w3.org/2000/svg" width="52" height="52" viewBox="0 0 52 52">
    <defs>
        <style>
            .cls-2{stroke:#000;stroke-width:.2px}
        </style>
    </defs>
    <g id="Group_10528" transform="translate(-210 -958)">
        <circle id="Ellipse_1525" cx="26" cy="26" r="26" fill="#e7e8e9" transform="translate(210 958)"/>
        <g id="Group_10494" transform="translate(10499 4729.996)">
            <path id="Path_17916" d="M220.929-84.063a.465.465 0 0 0-.33-.137h-1.4a.465.465 0 0 0-.33.137l-.137.137v-2.14c0-.01-.005-.019-.006-.029a.464.464 0 0 0-.024-.121.436.436 0 0 0-.015-.043.465.465 0 0 0-.091-.137l-4.667-4.667a.465.465 0 0 0-.137-.091.435.435 0 0 0-.043-.015.472.472 0 0 0-.121-.024c-.01 0-.019-.006-.028-.006h-8.747l-5.029-2.743a.468.468 0 0 0-.447 0l-5.133 2.8a.466.466 0 0 0-.244.41.467.467 0 0 0 .243.41l2.09 1.14v2.65a.467.467 0 0 0 .312.44c.2.072.413.136.622.193v19.433a.466.466 0 0 0 .467.467h20.533a.466.466 0 0 0 .467-.467V-77.94l2.2-2.2.933-.933A.465.465 0 0 0 222-81.4v-1.4a.465.465 0 0 0-.137-.33zm-3.79-2.47h-3.073v-3.073zm-11.94 0v.933h-.933v-.933a.467.467 0 0 1 .467-.467.467.467 0 0 1 .467.467zm-3.267-2.141v1.8a7.974 7.974 0 0 1-2.774.339c-.2-.011-.4-.033-.6-.06l-.124-.018c-.2-.03-.393-.065-.594-.111-.191-.043-.382-.092-.57-.149v-1.8l2.11 1.151a.455.455 0 0 0 .078.031l.02.008a.459.459 0 0 0 .125.019h.066a.384.384 0 0 0 .052-.007c.014 0 .025-.01.038-.015a.43.43 0 0 0 .067-.026zM199.6-93l4.159 2.268-4.159 2.267-1.643-.9-2.516-1.372zm18.2 26.068h-19.6V-85.7c.027 0 .054 0 .081.009.274.041.549.074.826.09.165.009.329.014.493.014.075 0 .149-.007.224-.009.1 0 .2-.007.308-.013.176-.011.352-.028.528-.049.1-.012.2-.022.292-.037.188-.029.374-.067.56-.108.083-.018.166-.033.248-.053.266-.067.531-.144.793-.236a.467.467 0 0 0 .313-.44v-2.65l1.4-.764v2.1a1.4 1.4 0 0 0-.933 1.314v1.4a.466.466 0 0 0 .467.467h1.867a.466.466 0 0 0 .467-.467v-1.4a1.4 1.4 0 0 0-.933-1.314v-2.419h7.933v4.2a.466.466 0 0 0 .467.467h4.2v2.607l-.6-.6a.465.465 0 0 0-.33-.137h-.934a.464.464 0 0 0-.329.137l-2.8 2.8.66.66 2.663-2.663h.546l.467.467L214.2-79.4l-6.067 6.067v.007a.475.475 0 0 0-.086.129l-.016.036c-.005.013-.01.019-.013.03l-.9 3.15-.847.847.66.66.847-.847 3.15-.9c.011 0 .02-.009.03-.013l.036-.016a.457.457 0 0 0 .129-.086h.007l6.07-6.064.6-.6zm-7-4.393L209.126-73l5.407-5.407 1.673 1.673zm-.891.429l-1.7.484.484-1.7zm8.027-7.566l-1.07 1.07-1.673-1.673 3.073-3.073 1.673 1.673zm3.13-3.13l-.467.467-1.673-1.675.467-.467h1.014l.66.66z" class="cls-2" transform="translate(-10471 -3665.997)"/>
            <path id="Rectangle_6087" d="M0 0H6V1H0z" class="cls-2" transform="translate(-10270.943 -3735.424)"/>
            <path id="Rectangle_6088" d="M0 0H7V1H0z" class="cls-2" transform="translate(-10270.982 -3738.699)"/>
            <path id="Rectangle_6089" d="M0 0H8V1H0z" class="cls-2" transform="translate(-10271.024 -3740.474)"/>
            <path id="Rectangle_6090" d="M0 0H12V1H0z" class="cls-2" transform="translate(-10271.235 -3743.136)"/>
            <path id="Rectangle_6091" d="M0 0H13V1H0z" class="cls-2" transform="translate(-10271.302 -3746.686)"/>
            <path id="Rectangle_6092" d="M0 0H15V1H0z" class="cls-2" transform="translate(-10271.461 -3749.348)"/>
        </g>
    </g>
</svg>
