<svg xmlns="http://www.w3.org/2000/svg" width="52" height="52" viewBox="0 0 52 52">
    <defs>
        <style>
            .cls-2{stroke:#000;stroke-width:.2px}
        </style>
    </defs>
    <g id="Group_10529" transform="translate(-210 -1076)">
        <circle id="Ellipse_1526" cx="26" cy="26" r="26" fill="#e7e8e9" transform="translate(210 1076)"/>
        <g id="Group_10504" transform="translate(10499 5039.997)">
            <path id="Path_17822" d="M221.533-286h-27.066a.467.467 0 0 0-.467.467v27.067a.467.467 0 0 0 .467.467h27.067a.467.467 0 0 0 .467-.467v-27.067a.467.467 0 0 0-.468-.467zm-.467 27.067h-26.133v-26.133h26.133z" class="cls-2" transform="translate(-10471 -3665.997)"/>
            <path id="Path_17823" d="M199.467-260.466a2.336 2.336 0 0 1 2.333 2.333.467.467 0 0 0 .467.467h16.8a.467.467 0 0 0 .467-.467 2.336 2.336 0 0 1 2.333-2.333.467.467 0 0 0 .467-.467v-16.8a.467.467 0 0 0-.467-.467 2.336 2.336 0 0 1-2.333-2.333.467.467 0 0 0-.467-.467h-16.8a.467.467 0 0 0-.467.467 2.336 2.336 0 0 1-2.333 2.333.467.467 0 0 0-.467.467v16.8a.467.467 0 0 0 .467.467zm.467-16.834a3.274 3.274 0 0 0 2.767-2.767h15.934a3.274 3.274 0 0 0 2.765 2.767v15.934a3.275 3.275 0 0 0-2.767 2.767H202.7a3.274 3.274 0 0 0-2.767-2.767z" class="cls-2" transform="translate(-10473.667 -3668.664)"/>
            <path id="Path_17824" d="M206.467-270.2h15.869a.467.467 0 0 0 .467-.467v-1.866a.467.467 0 0 0-.467-.467h-15.869a.467.467 0 0 0-.467.467v1.866a.467.467 0 0 0 .467.467zm.467-1.866h14.936v.933h-14.937z" class="cls-2" transform="translate(-10477.401 -3672.93)"/>
            <path id="Path_17825" d="M223.328-262.667a.466.466 0 0 0-.274-.426l-4.2-1.866a.467.467 0 0 0-.379 0l-4.2 1.866a.467.467 0 0 0-.277.449.467.467 0 0 0 .319.42l1.547.516v1.375c0 .962 1.451 1.4 2.8 1.4s2.8-.438 2.8-1.4v-1.374l.933-.311v2.892l-.8.8.66.66.6-.6.6.6.66-.66-.8-.8v-3.539zm-2.792 2.308a2.641 2.641 0 0 1-1.87.492 2.823 2.823 0 0 1-1.866-.467v-1.066l1.719.573a.471.471 0 0 0 .147.024.469.469 0 0 0 .147-.024l1.72-.573zm-1.87-1.4l-2.91-.97 2.91-1.293 2.91 1.293z" class="cls-2" transform="translate(-10481.664 -3677.196)"/>
            <path id="Rectangle_6011" d="M0 0H10V1H0z" class="cls-2" transform="translate(-10268.001 -3930.998)"/>
            <path id="Rectangle_6012" d="M0 0H14.007V1H0z" class="cls-2" transform="translate(-10270.004 -3932.999)"/>
        </g>
    </g>
</svg>
