<svg xmlns="http://www.w3.org/2000/svg" width="52" height="52" viewBox="0 0 52 52">
    <defs>
        <style>
            .cls-2{stroke:#000;stroke-width:.2px}
        </style>
    </defs>
    <g id="Group_10530" transform="translate(-210 -1192)">
        <circle id="Ellipse_1527" cx="26" cy="26" r="26" fill="#e7e8e9" transform="translate(210 1192)"/>
        <g id="Group_10502" transform="translate(10691 5155.997)">
            <g id="Group_10499" transform="translate(-10469 -3951.997)">
                <path id="Path_17826" d="M38.94-253.03a1.972 1.972 0 0 0-1.97-1.97 1.972 1.972 0 0 0-1.97 1.97 1.972 1.972 0 0 0 1.97 1.97 1.972 1.972 0 0 0 1.97-1.97zm-2.955 0a.986.986 0 0 1 .985-.985.986.986 0 0 1 .985.985.986.986 0 0 1-.985.985.986.986 0 0 1-.985-.985z" class="cls-2" transform="translate(-19.731 269.343)"/>
                <path id="Path_17827" d="M36.908-253.238a3.914 3.914 0 0 0 .45-1.821 3.945 3.945 0 0 0-3.94-3.94 3.945 3.945 0 0 0-3.94 3.94 3.914 3.914 0 0 0 .45 1.821l-1.865 3.357a.491.491 0 0 0 .04.539.493.493 0 0 0 .51.178l1.7-.425.788.788a.49.49 0 0 0 .348.144.5.5 0 0 0 .121-.015.492.492 0 0 0 .351-.336l.661-2.2a3.943 3.943 0 0 0 .837.092 3.943 3.943 0 0 0 .837-.092l.661 2.2a.494.494 0 0 0 .351.336.5.5 0 0 0 .121.015.492.492 0 0 0 .348-.144l.788-.788 1.7.425a.5.5 0 0 0 .51-.178.492.492 0 0 0 .04-.539zm-5.257 1.7l-.438 1.461-.4-.4a.492.492 0 0 0-.348-.144.5.5 0 0 0-.12.015l-.869.217 1.087-1.957.008.007a3.954 3.954 0 0 0 .488.432l.029.021a3.947 3.947 0 0 0 .559.345zm.761-.743a2.969 2.969 0 0 1-1.2-.818l-.006-.007a2.988 2.988 0 0 1-.29-.388 2.931 2.931 0 0 1-.452-1.563 2.958 2.958 0 0 1 2.955-2.955 2.958 2.958 0 0 1 2.955 2.955 2.931 2.931 0 0 1-.452 1.563 2.977 2.977 0 0 1-.29.388l-.006.007a2.962 2.962 0 0 1-1.2.818 2.935 2.935 0 0 1-1.006.18 2.935 2.935 0 0 1-1.008-.183zm4.081 1.672a.5.5 0 0 0-.468.13l-.4.4-.438-1.461h.007a3.947 3.947 0 0 0 .559-.345l.029-.021a3.954 3.954 0 0 0 .488-.432l.008-.007 1.087 1.957z" class="cls-2" transform="translate(-16.256 271.224)"/>
                <path id="Path_17828" d="M27.667-286h-21a2.336 2.336 0 0 0-2.333 2.333v21H2.467A.467.467 0 0 0 2-262.2v1.867A2.336 2.336 0 0 0 4.333-258h19.608a2.341 2.341 0 0 0 1.561-.6 2.339 2.339 0 0 0 .764-1.727v-20.533h3.267a.467.467 0 0 0 .467-.467v-2.333a2.336 2.336 0 0 0-2.333-2.34zM4.333-258.933a1.4 1.4 0 0 1-1.4-1.4v-1.4H21.6v1.4a2.324 2.324 0 0 0 .468 1.4zm21-1.4a1.4 1.4 0 0 1-.458 1.036 1.382 1.382 0 0 1-1.012.357 1.281 1.281 0 0 1-.141-.014 1.256 1.256 0 0 1-.133-.027c-.035-.009-.07-.021-.1-.032a1.354 1.354 0 0 1-.184-.077 1.5 1.5 0 0 1-.763-1.32v-1.79a.467.467 0 0 0-.467-.467H5.267v-21a1.4 1.4 0 0 1 1.4-1.4H25.8c-.014.018-.023.039-.036.057-.028.039-.051.08-.077.12a2.337 2.337 0 0 0-.132.243c-.021.046-.042.091-.06.139a2.213 2.213 0 0 0-.086.277c-.011.044-.025.087-.033.132a2.357 2.357 0 0 0-.043.433v23.333zm3.734-21.467h-2.8v-1.867a1.4 1.4 0 0 1 1.4-1.4 1.4 1.4 0 0 1 1.4 1.4z" class="cls-2" transform="translate(-2 286)"/>
                <path id="Path_17829" d="M22.336-279.07l1.633.544v1.451c0 1.015 1.532 1.478 2.955 1.478s2.955-.462 2.955-1.478v-1.451l.985-.329v3.053l-.841.841.7.7.637-.636.637.637.7-.7-.841-.841v-3.736a.492.492 0 0 0-.29-.45l-4.433-1.97a.493.493 0 0 0-.4 0l-4.433 1.97a.493.493 0 0 0-.292.474.494.494 0 0 0 .328.443zm6.564 1.97a2.788 2.788 0 0 1-1.975.519 2.98 2.98 0 0 1-1.97-.493v-1.126l1.814.6a.5.5 0 0 0 .156.025.5.5 0 0 0 .156-.025l1.819-.6zm-1.975-3.867L30-279.6l-3.072 1.024-3.076-1.024z" class="cls-2" transform="translate(-12.959 283.97)"/>
                <path id="Rectangle_6013" d="M0 0H9V1H0z" class="cls-2" transform="translate(8.113 10.187)"/>
                <path id="Rectangle_6014" d="M0 0H7V1H0z" class="cls-2" transform="translate(6.31 13.024)"/>
                <path id="Rectangle_6015" d="M0 0H8V1H0z" class="cls-2" transform="translate(5.36 14.915)"/>
                <path id="Rectangle_6016" d="M0 0H9V1H0z" class="cls-2" transform="translate(4.416 17.752)"/>
            </g>
        </g>
    </g>
</svg>
