<svg xmlns="http://www.w3.org/2000/svg" width="52" height="52" viewBox="0 0 52 52">
    <defs>
        <style>
            .cls-2{stroke:#000;stroke-width:.2px}
        </style>
    </defs>
    <g id="Group_10531" transform="translate(-210 -1283)">
        <circle id="Ellipse_1528" cx="26" cy="26" r="26" fill="#e7e8e9" transform="translate(210 1283)"/>
        <g id="Group_10500" transform="translate(10594 4862.996)">
            <g id="Group_10492" transform="translate(-10372 -3567.996)">
                <path id="Path_17914" d="M125.575 138h-21.83a.474.474 0 0 0-.407.23 5.077 5.077 0 0 0 0 5.234.474.474 0 0 0 .407.23h6.169v.475a.473.473 0 0 0 .475.475.483.483 0 0 0 .13-.018l1-.286-.641 2.561a.475.475 0 0 0 .724.51l1.1-.733.674.674a.474.474 0 0 0 .336.139.482.482 0 0 0 .127-.017.474.474 0 0 0 .334-.343l.489-1.956.489 1.956a.474.474 0 0 0 .334.343.482.482 0 0 0 .127.017.474.474 0 0 0 .336-.139l.674-.674 1.1.733a.475.475 0 0 0 .724-.51l-.641-2.561 1 .286a.489.489 0 0 0 .13.018.473.473 0 0 0 .475-.475v-.475h6.169a.474.474 0 0 0 .407-.23 5.077 5.077 0 0 0 0-5.234.472.472 0 0 0-.411-.23zm-9.966.949v1.879l-1.831.019-.067-.019v-1.879zm-.949 3.8h-.475v-.949h.949v.949zm-10.636 0a4.125 4.125 0 0 1 0-3.8h8.738v1.608l-2.243-.641a.474.474 0 0 0-.6.457v2.373zm6.84.475V141l2.373.678v1.182l-1.189.34-1.183.338zm2.59 2.868l-.356-.356a.475.475 0 0 0-.6-.059l-.4.268.476-1.9 1.206-.345h.274zm3.77-.148l-.4-.268a.474.474 0 0 0-.6.059l-.356.356-.6-2.394h.274l1.206.345zm1.233-2.4l-1.183-.338-1.189-.34v-1.186l2.373-.678v2.538zm6.84-.794h-5.891v-2.373a.474.474 0 0 0-.6-.457l-2.243.641v-1.608h8.737a4.125 4.125 0 0 1 0 3.793z" class="cls-2" transform="translate(-100.898 -119.018)"/>
                <path id="Path_17915" d="M125.576 109.457v-4.813a.475.475 0 0 0-.269-.428l-12.813-6.169a.477.477 0 0 0-.411 0l-12.813 6.169a.474.474 0 0 0 0 .855l4.477 2.155v6.434a.476.476 0 0 0 .263.425 18.674 18.674 0 0 0 8.283 1.954q.239 0 .484-.006a18.681 18.681 0 0 0 7.792-1.948.475.475 0 0 0 .263-.425v-6.434l3.8-1.828v4.058a1.9 1.9 0 0 0-1.424 1.831v3.322a.474.474 0 0 0 .475.475h2.847a.474.474 0 0 0 .475-.475v-3.322a1.9 1.9 0 0 0-1.429-1.83zm-5.695 3.907a17.561 17.561 0 0 1-15.186 0v-5.68l7.387 3.557a.481.481 0 0 0 .206.047.474.474 0 0 0 .206-.047l7.387-3.557zm.271-6.864l-7.862 3.786-7.862-3.786-3.856-1.856L112.288 99l11.719 5.643zm5.9 7.635h-1.9v-2.847a.949.949 0 1 1 1.9 0z" class="cls-2" transform="translate(-99 -98.001)"/>
            </g>
        </g>
    </g>
</svg>
