<svg xmlns="http://www.w3.org/2000/svg" id="Group_11428" width="50.96" height="54.199" viewBox="0 0 50.96 54.199">
    <defs>
        <style>
            .cls-1{fill:#f58220}
        </style>
    </defs>
    <g id="Group_10995">
        <path id="Path_18298" d="M19.163 36.049L8.683 25.533a1.919 1.919 0 0 1 0-2.718l1.632-1.628a1.925 1.925 0 0 1 2.72 0l7.487 7.514L43.941 5.293a1.921 1.921 0 0 1 2.718 0l1.63 1.632a1.921 1.921 0 0 1 0 2.718L21.878 36.051a1.918 1.918 0 0 1-2.715-.002z" class="cls-1" transform="translate(2.108 .554)"/>
        <path id="Path_18299" d="M42.334 28.838c-1.876 7.809-6.237 14.81-16.318 22.21a1.12 1.12 0 0 1-1.245 0C9.241 39.651 7.251 29.2 7.077 15.285a1.013 1.013 0 0 1 .739-.947 61 61 0 0 0 16.93-7.268 1.341 1.341 0 0 1 1.3 0 63.623 63.623 0 0 0 11.788 5.689 1.336 1.336 0 0 0 1.268-.29l2.266-2.269a.424.424 0 0 0-.192-.768 58.236 58.236 0 0 1-14.55-7.037 2.117 2.117 0 0 0-2.462 0 56.492 56.492 0 0 1-19.61 8.333A2.112 2.112 0 0 0 2.836 12.8c0 16 1.574 29.328 21.356 43.021a2.115 2.115 0 0 0 2.406 0C41.66 45.4 46.151 35.182 47.442 23.838c.048-.424-.161-.523-.461-.221l-3.931 3.93a3.219 3.219 0 0 0-.716 1.291z" class="cls-1" transform="translate(-2.836 -2)"/>
    </g>
</svg>
