<svg xmlns="http://www.w3.org/2000/svg" width="48.552" height="54.199" viewBox="0 0 48.552 54.199"><path d="M38.515,30.1a6.342,6.342,0,1,0-6.342,6.342A6.324,6.324,0,0,0,38.515,30.1Zm-10.379,0a4.036,4.036,0,1,1,4.036,4.036A4.011,4.011,0,0,1,28.137,30.1Zm24.1,2.422A30.845,30.845,0,0,0,49.874,30.1c3.632-3.46,6-6.861,6.515-9.629a1.142,1.142,0,0,0-2.249-.4C53.8,22.2,51.719,25.256,48.2,28.543a71.138,71.138,0,0,0-5.881-4.44,61.224,61.224,0,0,0-.865-6.631,33.62,33.62,0,0,1,4.267-.923,4.571,4.571,0,1,0-.173-2.306,39.076,39.076,0,0,0-4.613.98C39.265,8.189,36.267,3,32.173,3s-7.092,5.189-8.764,12.281c-.692-.173-1.326-.346-1.96-.519a1.174,1.174,0,0,0-1.384.865,1.129,1.129,0,0,0,.865,1.384c.634.173,1.326.346,2.018.519a59.4,59.4,0,0,0-.865,6.631A71.137,71.137,0,0,0,16.2,28.6c-.865-.807-1.614-1.614-2.364-2.422-3-3.4-4.267-6.4-3.344-8.072a3.429,3.429,0,0,1,2.479-1.5,1.154,1.154,0,0,0-.519-2.249,5.832,5.832,0,0,0-3.978,2.652c-1.441,2.595-.173,6.4,3.632,10.725a30.844,30.844,0,0,0,2.364,2.422c-.865.807-1.614,1.614-2.364,2.422C8.3,36.846,7.034,40.651,8.475,43.3c1.153,2.076,3.69,3,6.977,3a31.042,31.042,0,0,0,8.015-1.268C25.081,52.01,28.079,57.2,32.173,57.2a5.429,5.429,0,0,0,3.978-1.9,4.389,4.389,0,0,0,1.211.173,4.036,4.036,0,1,0-4.036-4.036,4.205,4.205,0,0,0,.865,2.537,2.832,2.832,0,0,1-2.018.923c-2.422,0-4.959-4.036-6.573-10.609a51.06,51.06,0,0,0,6.515-2.595c2.191.98,4.382,1.845,6.515,2.595-.058.346-.173.634-.231.98a1.133,1.133,0,1,0,2.191.577,4.8,4.8,0,0,1,.231-.865,32.208,32.208,0,0,0,8.072,1.268c3.287,0,5.824-.923,6.977-3C57.312,40.593,56.044,36.788,52.238,32.521ZM50.047,12.8a2.306,2.306,0,1,1-2.306,2.306A2.313,2.313,0,0,1,50.047,12.8ZM37.362,49.7a1.73,1.73,0,1,1-1.73,1.73A1.7,1.7,0,0,1,37.362,49.7Zm9.052-19.6c-1.211,1.038-2.537,2.018-3.978,3.056a26.569,26.569,0,0,0,.115-3.056c0-1.038,0-2.018-.058-3.056C43.878,28.024,45.2,29.062,46.415,30.1ZM24.1,30.1q0-2.422.173-4.67c1.268-.807,2.652-1.614,4.036-2.422,1.326-.692,2.595-1.384,3.921-2.018,1.326.634,2.595,1.268,3.921,2.018,1.384.75,2.71,1.557,4.036,2.422q.173,2.249.173,4.67c0,1.557-.058,3.171-.173,4.67-1.268.807-2.595,1.614-3.978,2.364-1.326.75-2.652,1.384-3.921,2.018-1.268-.634-2.595-1.268-3.921-2.018-1.384-.75-2.71-1.557-4.036-2.422A39.2,39.2,0,0,1,24.1,30.1Zm15.741-7.553c-.865-.519-1.73-1.038-2.652-1.557-.75-.4-1.557-.807-2.306-1.211a43.855,43.855,0,0,1,4.324-1.614C39.438,19.548,39.669,20.99,39.842,22.546ZM32.173,5.306c2.422,0,4.959,4.036,6.515,10.609a59.582,59.582,0,0,0-6.573,2.595A58.83,58.83,0,0,0,25.6,15.916C27.214,9.342,29.751,5.306,32.173,5.306ZM25.139,18.164c1.384.461,2.825.98,4.267,1.614-.75.4-1.5.807-2.306,1.211-.923.519-1.787,1.038-2.652,1.557C24.677,21.047,24.908,19.548,25.139,18.164Zm-3.287,8.879c-.058,1.038-.058,2.018-.058,3.056s0,2.018.058,3.056A45.061,45.061,0,0,1,17.874,30.1C19.142,29.062,20.468,28.024,21.852,27.044ZM10.493,42.093c-.923-1.672.346-4.67,3.344-8.072A30.845,30.845,0,0,1,16.2,31.6a71.139,71.139,0,0,0,5.881,4.44,61.222,61.222,0,0,0,.865,6.631C16.375,44.514,11.647,44.226,10.493,42.093Zm14.645-.058c-.231-1.384-.461-2.825-.634-4.382.865.519,1.73,1.038,2.652,1.557.75.4,1.557.807,2.306,1.211C27.964,41,26.522,41.574,25.139,42.035Zm9.744-1.614c.75-.4,1.557-.807,2.306-1.211.923-.519,1.787-1.038,2.652-1.557-.173,1.5-.4,3-.634,4.382C37.824,41.574,36.382,41,34.883,40.421Zm18.97,1.672c-1.153,2.076-5.939,2.422-12.454.577.4-2.076.692-4.324.923-6.631A62.59,62.59,0,0,0,48.2,31.6c.865.807,1.614,1.614,2.364,2.422C53.507,37.422,54.775,40.478,53.853,42.093ZM16.086,15.685a1.086,1.086,0,0,1-.115-.461,1.138,1.138,0,0,1,.346-.807l.173-.173c.058-.058.115-.058.231-.115a.347.347,0,0,1,.231-.058.637.637,0,0,1,.461,0c.058,0,.173.058.231.058s.115.058.173.115l.173.173a1.138,1.138,0,0,1,.346.807,1.357,1.357,0,0,1-.115.461.929.929,0,0,1-.231.4,1.115,1.115,0,0,1-1.614,0A1.331,1.331,0,0,1,16.086,15.685Z" transform="translate(-7.897 -3)" fill="#ffcb05"/></svg>