<svg xmlns="http://www.w3.org/2000/svg" width="53.158" height="54.679" viewBox="0 0 53.158 54.679">
    <defs>
        <style>
            .cls-1{stroke:#000;stroke-width:.5px}
        </style>
    </defs>
    <g id="noun_School_3313005" transform="translate(.25 .111)">
        <g id="Group_10993">
            <path id="Path_18300" d="M4.315 56.807h50.962a.848.848 0 1 0 0-1.7h-3.584V33.962a.848.848 0 0 0-.848-.848h-8.763V21.789a.848.848 0 0 0-.4-.72l-11.033-6.877V11.8c3.127.237 5.482-3.443 7.721-1.211a.848.848 0 0 0 1.447-.6V4.333a.847.847 0 0 0-.249-.6c-3.308-3.3-6.519 1.052-8.919.705v-.7a.848.848 0 1 0-1.7 0v10.46L17.91 21.069a.847.847 0 0 0-.4.72v11.325H8.748a.848.848 0 0 0-.848.848V55.11H4.315a.848.848 0 0 0 0 1.7zm20.829-1.7v-7.62a4.652 4.652 0 0 1 9.3 0v7.62zM50 34.811v20.3h-7.918v-20.3zM34.247 5.094c1.694-.847 2.757-1.3 3.873-.387V8.4c-2.805-1.119-5.447 1.984-7.472 1.687V6.15a7.1 7.1 0 0 0 3.599-1.056zM29.8 15.662l10.585 6.6V55.11h-4.24v-7.62a6.349 6.349 0 1 0-12.7 0v7.62h-4.24V22.26zM9.6 34.811h7.91v20.3H9.6z" class="cls-1" transform="translate(-3.467 -2.489)"/>
            <path id="Path_18301" d="M33.506 36.349a5.538 5.538 0 1 0-5.534-5.533 5.544 5.544 0 0 0 5.534 5.533zm0-9.379a3.841 3.841 0 1 1-3.837 3.845 3.85 3.85 0 0 1 3.837-3.844z" class="cls-1" transform="translate(-7.181 -5.943)"/>
            <path id="Path_18302" d="M16.789 41.8h-3.86a.848.848 0 0 0-.848.848V46.4a.848.848 0 0 0 .848.848h3.861a.848.848 0 0 0 .848-.848v-3.752a.848.848 0 0 0-.849-.848zm-.848 3.752h-2.164V43.5h2.164z" class="cls-1" transform="translate(-4.772 -8.448)"/>
            <path id="Path_18303" d="M16.789 49.337h-3.86a.848.848 0 0 0-.848.848v3.752a.848.848 0 0 0 .848.848h3.861a.848.848 0 0 0 .848-.848v-3.751a.848.848 0 0 0-.849-.849zm-.848 3.752h-2.164v-2.055h2.164z" class="cls-1" transform="translate(-4.772 -9.59)"/>
            <path id="Path_18304" d="M16.789 56.874h-3.86a.848.848 0 0 0-.848.848v3.752a.848.848 0 0 0 .848.848h3.861a.848.848 0 0 0 .848-.848v-3.751a.848.848 0 0 0-.849-.849zm-.848 3.752h-2.164v-2.055h2.164z" class="cls-1" transform="translate(-4.772 -10.733)"/>
            <path id="Path_18305" d="M51.219 47.249h3.861a.848.848 0 0 0 .848-.848v-3.753a.848.848 0 0 0-.848-.848h-3.861a.848.848 0 0 0-.848.848V46.4a.848.848 0 0 0 .848.849zm.848-3.752h2.164v2.055h-2.164z" class="cls-1" transform="translate(-10.576 -8.448)"/>
            <path id="Path_18306" d="M51.219 54.786h3.861a.848.848 0 0 0 .848-.848v-3.752a.848.848 0 0 0-.848-.848h-3.861a.848.848 0 0 0-.848.848v3.752a.848.848 0 0 0 .848.848zm.848-3.752h2.164v2.055h-2.164z" class="cls-1" transform="translate(-10.576 -9.59)"/>
            <path id="Path_18307" d="M51.219 62.324h3.861a.848.848 0 0 0 .848-.848v-3.753a.848.848 0 0 0-.848-.848h-3.861a.848.848 0 0 0-.848.848v3.752a.848.848 0 0 0 .848.849zm.848-3.752h2.164v2.056h-2.164z" class="cls-1" transform="translate(-10.576 -10.733)"/>
        </g>
    </g>
</svg>
