<svg xmlns="http://www.w3.org/2000/svg" width="53.159" height="54.679" viewBox="0 0 53.159 54.679"><g transform="translate(0.25 0.111)"><g transform="translate(0 0)"><path d="M4.315,56.807H55.277a.848.848,0,1,0,0-1.7H51.693V33.962a.848.848,0,0,0-.848-.848H42.082V21.789a.848.848,0,0,0-.4-.72L30.649,14.192V11.8c3.127.237,5.482-3.443,7.721-1.211a.848.848,0,0,0,1.447-.6V4.333a.847.847,0,0,0-.249-.6c-3.308-3.3-6.519,1.052-8.919.705v-.7a.848.848,0,1,0-1.7,0v10.46L17.91,21.069a.847.847,0,0,0-.4.72V33.114H8.748a.848.848,0,0,0-.848.848V55.11H4.315a.848.848,0,0,0,0,1.7Zm20.829-1.7v-7.62a4.652,4.652,0,0,1,9.3,0v7.62ZM50,34.811v20.3H42.082v-20.3ZM34.247,5.094c1.694-.847,2.757-1.3,3.873-.387V8.4c-2.805-1.119-5.447,1.984-7.472,1.687V6.15A7.1,7.1,0,0,0,34.247,5.094ZM29.8,15.662l10.585,6.6V55.11h-4.24v-7.62a6.349,6.349,0,1,0-12.7,0v7.62h-4.24c0-.5,0-29.658,0-32.85ZM9.6,34.811H17.51v20.3H9.6Z" transform="translate(-3.467 -2.489)" fill="#a25723" stroke="#000" stroke-width="0.5"/><path d="M33.506,36.349a5.538,5.538,0,1,0-5.534-5.533A5.544,5.544,0,0,0,33.506,36.349Zm0-9.379a3.841,3.841,0,1,1-3.837,3.845A3.85,3.85,0,0,1,33.506,26.971Z" transform="translate(-7.181 -5.943)" fill="#a25723" stroke="#000" stroke-width="0.5"/><path d="M16.789,41.8H12.929a.848.848,0,0,0-.848.848V46.4a.848.848,0,0,0,.848.848h3.861a.848.848,0,0,0,.848-.848V42.648A.848.848,0,0,0,16.789,41.8Zm-.848,3.752H13.777V43.5h2.164Z" transform="translate(-4.772 -8.448)" fill="#a25723" stroke="#000" stroke-width="0.5"/><path d="M16.789,49.337H12.929a.848.848,0,0,0-.848.848v3.752a.848.848,0,0,0,.848.848h3.861a.848.848,0,0,0,.848-.848V50.186A.848.848,0,0,0,16.789,49.337Zm-.848,3.752H13.777V51.034h2.164Z" transform="translate(-4.772 -9.59)" fill="#a25723" stroke="#000" stroke-width="0.5"/><path d="M16.789,56.874H12.929a.848.848,0,0,0-.848.848v3.752a.848.848,0,0,0,.848.848h3.861a.848.848,0,0,0,.848-.848V57.723A.848.848,0,0,0,16.789,56.874Zm-.848,3.752H13.777V58.571h2.164Z" transform="translate(-4.772 -10.733)" fill="#a25723" stroke="#000" stroke-width="0.5"/><path d="M51.219,47.249H55.08a.848.848,0,0,0,.848-.848V42.648a.848.848,0,0,0-.848-.848H51.219a.848.848,0,0,0-.848.848V46.4A.848.848,0,0,0,51.219,47.249Zm.848-3.752h2.164v2.055H52.067Z" transform="translate(-10.576 -8.448)" fill="#a25723" stroke="#000" stroke-width="0.5"/><path d="M51.219,54.786H55.08a.848.848,0,0,0,.848-.848V50.186a.848.848,0,0,0-.848-.848H51.219a.848.848,0,0,0-.848.848v3.752A.848.848,0,0,0,51.219,54.786Zm.848-3.752h2.164v2.055H52.067Z" transform="translate(-10.576 -9.59)" fill="#a25723" stroke="#000" stroke-width="0.5"/><path d="M51.219,62.324H55.08a.848.848,0,0,0,.848-.848V57.723a.848.848,0,0,0-.848-.848H51.219a.848.848,0,0,0-.848.848v3.752A.848.848,0,0,0,51.219,62.324Zm.848-3.752h2.164v2.056H52.067Z" transform="translate(-10.576 -10.733)" fill="#a25723" stroke="#000" stroke-width="0.5"/></g></g></svg>