<svg xmlns="http://www.w3.org/2000/svg" width="48.552" height="54.199" viewBox="0 0 48.552 54.199">
    <path d="M38.515 30.1a6.342 6.342 0 1 0-6.342 6.342 6.324 6.324 0 0 0 6.342-6.342zm-10.379 0a4.036 4.036 0 1 1 4.036 4.036 4.011 4.011 0 0 1-4.035-4.036zm24.1 2.422a30.845 30.845 0 0 0-2.362-2.422c3.632-3.46 6-6.861 6.515-9.629a1.142 1.142 0 0 0-2.249-.4c-.34 2.129-2.421 5.185-5.94 8.472a71.138 71.138 0 0 0-5.881-4.44 61.224 61.224 0 0 0-.865-6.631 33.62 33.62 0 0 1 4.267-.923 4.571 4.571 0 1 0-.173-2.306 39.076 39.076 0 0 0-4.613.98C39.265 8.189 36.267 3 32.173 3s-7.092 5.189-8.764 12.281c-.692-.173-1.326-.346-1.96-.519a1.174 1.174 0 0 0-1.384.865 1.129 1.129 0 0 0 .865 1.384c.634.173 1.326.346 2.018.519a59.4 59.4 0 0 0-.865 6.631A71.137 71.137 0 0 0 16.2 28.6c-.865-.807-1.614-1.614-2.364-2.422-3-3.4-4.267-6.4-3.344-8.072a3.429 3.429 0 0 1 2.479-1.5 1.154 1.154 0 0 0-.519-2.249 5.832 5.832 0 0 0-3.978 2.652c-1.441 2.595-.173 6.4 3.632 10.725a30.844 30.844 0 0 0 2.364 2.422c-.865.807-1.614 1.614-2.364 2.422C8.3 36.846 7.034 40.651 8.475 43.3c1.153 2.076 3.69 3 6.977 3a31.042 31.042 0 0 0 8.015-1.268C25.081 52.01 28.079 57.2 32.173 57.2a5.429 5.429 0 0 0 3.978-1.9 4.389 4.389 0 0 0 1.211.173 4.036 4.036 0 1 0-4.036-4.036 4.205 4.205 0 0 0 .865 2.537 2.832 2.832 0 0 1-2.018.923c-2.422 0-4.959-4.036-6.573-10.609a51.06 51.06 0 0 0 6.515-2.595c2.191.98 4.382 1.845 6.515 2.595-.058.346-.173.634-.231.98a1.133 1.133 0 1 0 2.191.577 4.8 4.8 0 0 1 .231-.865 32.208 32.208 0 0 0 8.072 1.268c3.287 0 5.824-.923 6.977-3 1.442-2.655.174-6.46-3.632-10.727zM50.047 12.8a2.306 2.306 0 1 1-2.306 2.306 2.313 2.313 0 0 1 2.306-2.306zM37.362 49.7a1.73 1.73 0 1 1-1.73 1.73 1.7 1.7 0 0 1 1.73-1.73zm9.052-19.6c-1.211 1.038-2.537 2.018-3.978 3.056a26.569 26.569 0 0 0 .115-3.056c0-1.038 0-2.018-.058-3.056 1.385.98 2.707 2.018 3.922 3.056zm-22.314 0q0-2.422.173-4.67c1.268-.807 2.652-1.614 4.036-2.422 1.326-.692 2.595-1.384 3.921-2.018 1.326.634 2.595 1.268 3.921 2.018 1.384.75 2.71 1.557 4.036 2.422q.173 2.249.173 4.67c0 1.557-.058 3.171-.173 4.67-1.268.807-2.595 1.614-3.978 2.364-1.326.75-2.652 1.384-3.921 2.018-1.268-.634-2.595-1.268-3.921-2.018-1.384-.75-2.71-1.557-4.036-2.422A39.2 39.2 0 0 1 24.1 30.1zm15.741-7.553c-.865-.519-1.73-1.038-2.652-1.557-.75-.4-1.557-.807-2.306-1.211a43.855 43.855 0 0 1 4.324-1.614c.231 1.383.462 2.825.635 4.381zM32.173 5.306c2.422 0 4.959 4.036 6.515 10.609a59.582 59.582 0 0 0-6.573 2.595 58.83 58.83 0 0 0-6.515-2.594c1.614-6.574 4.151-10.61 6.573-10.61zm-7.034 12.858c1.384.461 2.825.98 4.267 1.614-.75.4-1.5.807-2.306 1.211-.923.519-1.787 1.038-2.652 1.557.229-1.499.46-2.998.691-4.382zm-3.287 8.879c-.058 1.038-.058 2.018-.058 3.056s0 2.018.058 3.056a45.061 45.061 0 0 1-3.978-3.055c1.268-1.038 2.594-2.076 3.978-3.056zm-11.359 15.05c-.923-1.672.346-4.67 3.344-8.072A30.845 30.845 0 0 1 16.2 31.6a71.139 71.139 0 0 0 5.881 4.44 61.222 61.222 0 0 0 .865 6.631c-6.571 1.843-11.299 1.555-12.453-.578zm14.645-.058c-.231-1.384-.461-2.825-.634-4.382.865.519 1.73 1.038 2.652 1.557.75.4 1.557.807 2.306 1.211-1.498.579-2.94 1.153-4.323 1.614zm9.744-1.614c.75-.4 1.557-.807 2.306-1.211.923-.519 1.787-1.038 2.652-1.557-.173 1.5-.4 3-.634 4.382-1.382-.461-2.824-1.035-4.323-1.614zm18.97 1.672c-1.153 2.076-5.939 2.422-12.454.577.4-2.076.692-4.324.923-6.631A62.59 62.59 0 0 0 48.2 31.6c.865.807 1.614 1.614 2.364 2.422 2.943 3.4 4.211 6.456 3.289 8.071zM16.086 15.685a1.086 1.086 0 0 1-.115-.461 1.138 1.138 0 0 1 .346-.807l.173-.173c.058-.058.115-.058.231-.115a.347.347 0 0 1 .231-.058.637.637 0 0 1 .461 0c.058 0 .173.058.231.058s.115.058.173.115l.173.173a1.138 1.138 0 0 1 .346.807 1.357 1.357 0 0 1-.115.461.929.929 0 0 1-.231.4 1.115 1.115 0 0 1-1.614 0 1.331 1.331 0 0 1-.29-.4z" transform="translate(-7.897 -3)"/>
</svg>
