<svg xmlns="http://www.w3.org/2000/svg" xmlns:xlink="http://www.w3.org/1999/xlink" width="457" height="253" viewBox="0 0 457 253"><defs><style>.a{fill:#fff;}.b{fill:#f58220;}.c{opacity:0.23;}.d{clip-path:url(#a);}.e{isolation:isolate;}</style><clipPath id="a"><path class="a" d="M67.16,0H158a0,0,0,0,1,0,0V93.854A64.146,64.146,0,0,1,93.854,158H0a0,0,0,0,1,0,0V67.16A67.16,67.16,0,0,1,67.16,0Z" transform="translate(158 158) rotate(180)"/></clipPath></defs><g transform="translate(-700 -1126)"><path class="b" d="M50,0H457a0,0,0,0,1,0,0V253a0,0,0,0,1,0,0H0a0,0,0,0,1,0,0V50A50,50,0,0,1,50,0Z" transform="translate(700 1126)"/><g transform="translate(752 1147.987)"><path class="a" d="M94.331,59.765A6.34,6.34,0,0,0,87.8,56.011a6.482,6.482,0,0,0-.509-1.881,6.274,6.274,0,0,0-5.815-3.8,6.354,6.354,0,0,0-4.769,2.156L66.077,64.571a24.065,24.065,0,0,1-9.194,6.458,1.853,1.853,0,1,0,1.36,3.448A27.788,27.788,0,0,0,68.859,67.02L79.493,54.94a2.646,2.646,0,0,1,1.987-.9,2.648,2.648,0,0,1,1.951,4.436c-.034.036-10.318,11.729-10.318,11.729a23.968,23.968,0,0,1-17.985,8.129H35.653a2.751,2.751,0,0,1,0-5.5H47.912a6.671,6.671,0,1,0,0-13.342H22.171A22.264,22.264,0,0,0,5.62,66.877L.474,72.612a1.853,1.853,0,1,0,2.758,2.475l5.146-5.735A18.554,18.554,0,0,1,22.171,63.2H47.912a2.965,2.965,0,1,1,0,5.929H35.653a6.457,6.457,0,0,0,0,12.914H55.128a27.674,27.674,0,0,0,20.767-9.386l10.634-12.08a2.646,2.646,0,0,1,1.987-.9,2.648,2.648,0,0,1,1.951,4.436L75.553,80.382A33.381,33.381,0,0,1,51,91.183H1.853a1.854,1.854,0,0,0,0,3.707H51a37.1,37.1,0,0,0,27.284-12L93.2,66.615A6.272,6.272,0,0,0,94.331,59.765Z"/><path class="a" d="M64.722,20.951l-.012-.016L48.973.727A1.854,1.854,0,0,0,47.515.013h0a1.855,1.855,0,0,0-1.457.708l-15.806,20.1c-.03.038-.059.078-.086.119a22.237,22.237,0,1,0,34.56.009ZM47.439,53.381A18.463,18.463,0,0,1,33.144,23.15a1.779,1.779,0,0,0,.137-.189L47.5,4.873l14.244,18.29c.02.029.042.056.064.083A18.464,18.464,0,0,1,47.439,53.381Z"/><path class="a" d="M83.2,31.028h-6.22a1.854,1.854,0,0,0,0,3.707H83.2a1.854,1.854,0,0,0,0-3.707Z"/><path class="a" d="M76.855,40.615l-2.242-2.244a1.853,1.853,0,1,0-2.622,2.619l2.242,2.244a1.853,1.853,0,0,0,2.622-2.619Z"/><path class="a" d="M76.83,22.5a1.853,1.853,0,0,0-2.621,0l-2.245,2.248a1.853,1.853,0,1,0,2.622,2.619l2.245-2.247A1.854,1.854,0,0,0,76.83,22.5Z"/><path class="a" d="M17.9,31H11.676a1.853,1.853,0,1,0,0,3.706H17.9A1.853,1.853,0,1,0,17.9,31Z"/><path class="a" d="M22.886,24.744,20.946,22.8a1.853,1.853,0,1,0-2.622,2.619l1.94,1.943a1.853,1.853,0,0,0,2.622-2.619Z"/><path class="a" d="M22.912,38.362a1.852,1.852,0,0,0-2.62,0L17.956,40.7a1.853,1.853,0,1,0,2.622,2.619l2.336-2.338A1.853,1.853,0,0,0,22.912,38.362Z"/><path class="a" d="M60.41,33.053a1.854,1.854,0,0,0-1.853,1.854v.088A1.852,1.852,0,0,0,60.4,36.858h.01a1.853,1.853,0,0,0,1.853-1.843v-.108A1.855,1.855,0,0,0,60.41,33.053Z"/><path class="a" d="M59.318,40.43a1.852,1.852,0,0,0-2.566.533,11.108,11.108,0,0,1-9.314,5.027,1.853,1.853,0,1,0,0,3.706A14.8,14.8,0,0,0,59.851,43,1.853,1.853,0,0,0,59.318,40.43Z"/></g><g class="c" transform="translate(929.568 1177.768)"><g class="d" transform="translate(60.431 1.232)"><g transform="translate(-76.19 -78.189)"><g transform="translate(0)"><g transform="translate(116.99)"><rect class="a" width="4.252" height="228.505" transform="matrix(0.54, -0.842, 0.842, 0.54, 0, 3.578)"/></g><g transform="translate(111.139 9.116)"><rect class="a" width="4.252" height="228.505" transform="matrix(0.54, -0.842, 0.842, 0.54, 0, 3.578)"/></g><g transform="translate(105.291 18.228)"><rect class="a" width="4.252" height="228.505" transform="translate(0 3.578) rotate(-57.307)"/></g><g transform="translate(99.441 27.342)"><rect class="a" width="4.252" height="228.505" transform="matrix(0.54, -0.842, 0.842, 0.54, 0, 3.578)"/></g><g transform="translate(93.592 36.456)"><rect class="a" width="4.252" height="228.505" transform="translate(0 3.578) rotate(-57.307)"/></g><g transform="translate(87.742 45.57)"><rect class="a" width="4.252" height="228.505" transform="translate(0 3.578) rotate(-57.307)"/></g><g transform="translate(81.893 54.684)"><rect class="a" width="4.252" height="228.505" transform="translate(0 3.578) rotate(-57.307)"/></g><g transform="translate(76.043 63.798)"><rect class="a" width="4.252" height="228.505" transform="translate(0 3.578) rotate(-57.307)"/></g><g transform="translate(70.194 72.912)"><rect class="a" width="4.252" height="228.505" transform="translate(0 3.578) rotate(-57.307)"/></g><g transform="translate(64.344 82.026)"><rect class="a" width="4.252" height="228.505" transform="translate(0 3.578) rotate(-57.307)"/></g><g transform="translate(58.495 91.139)"><rect class="a" width="4.252" height="228.505" transform="translate(0 3.578) rotate(-57.307)"/></g><g transform="translate(52.645 100.253)"><rect class="a" width="4.252" height="228.505" transform="translate(0 3.578) rotate(-57.306)"/></g><g transform="translate(46.796 109.367)"><rect class="a" width="4.252" height="228.505" transform="translate(0 3.578) rotate(-57.307)"/></g><g transform="translate(40.945 118.483)"><rect class="a" width="4.252" height="228.505" transform="matrix(0.54, -0.842, 0.842, 0.54, 0, 3.578)"/></g><g transform="translate(35.097 127.596)"><rect class="a" width="4.252" height="228.505" transform="translate(0 3.578) rotate(-57.307)"/></g><g transform="translate(29.247 136.709)"><rect class="a" width="4.252" height="228.505" transform="translate(0 3.578) rotate(-57.307)"/></g><g transform="translate(23.398 145.823)"><rect class="a" width="4.252" height="228.505" transform="translate(0 3.578) rotate(-57.307)"/></g><g transform="translate(17.548 154.937)"><rect class="a" width="4.252" height="228.505" transform="translate(0 3.578) rotate(-57.307)"/></g><g transform="translate(11.699 164.051)"><rect class="a" width="4.252" height="228.505" transform="translate(0 3.578) rotate(-57.307)"/></g><g transform="translate(5.849 173.165)"><rect class="a" width="4.252" height="228.505" transform="translate(0 3.578) rotate(-57.307)"/></g><g transform="translate(0 182.279)"><rect class="a" width="4.252" height="228.505" transform="translate(0 3.578) rotate(-57.307)"/></g></g></g></g></g><g transform="translate(608.723 707.68)"><g class="e"><path class="a" d="M146.763,586.351q0,1.45.043,2.537t.1,1.871c.04.524.091.964.154,1.316a8.953,8.953,0,0,0,.2.889v.068h-4.1v-.068q.1-.359.2-.889c.062-.352.113-.792.153-1.316s.074-1.145.1-1.863.043-1.566.043-2.545V575.225q0-1.452-.043-2.538t-.1-1.872q-.06-.785-.153-1.324a9.1,9.1,0,0,0-.2-.9v-.069l.718.069q.324.035.726.043c.267.006.544.009.829.009a13.383,13.383,0,0,0,1.8-.164,21.372,21.372,0,0,1,2.9-.162,9.944,9.944,0,0,1,3.034.445,7.134,7.134,0,0,1,2.418,1.3,5.932,5.932,0,0,1,1.6,2.094,6.622,6.622,0,0,1,.572,2.811,7.922,7.922,0,0,1-.315,2.282,7.1,7.1,0,0,1-.889,1.905,6.941,6.941,0,0,1-1.376,1.513,8.007,8.007,0,0,1-1.795,1.1l6,8.424q.444.633.829,1.094a9.552,9.552,0,0,0,.734.795,4.961,4.961,0,0,0,.676.547,3,3,0,0,0,.666.333v.068h-4.939a3.039,3.039,0,0,0-.333-.863,9.325,9.325,0,0,0-.658-1.068l-6.05-8.528c-.262.024-.524.043-.786.06s-.53.026-.8.026q-.479,0-.966-.035a9.334,9.334,0,0,1-.982-.119Zm0-5.179a7.275,7.275,0,0,0,.94.145c.318.029.626.043.922.043a6.857,6.857,0,0,0,2.342-.384,4.617,4.617,0,0,0,1.8-1.171,5.385,5.385,0,0,0,1.153-1.957,8.289,8.289,0,0,0,.41-2.744,8.691,8.691,0,0,0-.29-2.324,4.982,4.982,0,0,0-.863-1.768,3.878,3.878,0,0,0-1.444-1.128,4.813,4.813,0,0,0-2.034-.4,11.507,11.507,0,0,0-1.88.121,6.047,6.047,0,0,0-1.059.255Z"/><path class="a" d="M162.656,587.991a4.712,4.712,0,0,1,.556-2.342,5.456,5.456,0,0,1,1.478-1.691,8.043,8.043,0,0,1,2.1-1.137,15.731,15.731,0,0,1,2.444-.683,21.38,21.38,0,0,1,2.5-.342q1.23-.095,2.256-.111v-.872a5.847,5.847,0,0,0-.291-1.949,3.635,3.635,0,0,0-.82-1.358,3.33,3.33,0,0,0-1.273-.8,4.825,4.825,0,0,0-1.632-.265,7.217,7.217,0,0,0-1.214.1,6.838,6.838,0,0,0-1.238.342,9.1,9.1,0,0,0-1.351.65,14.28,14.28,0,0,0-1.529,1.042l-.171-.1,1.162-2.41a8.687,8.687,0,0,1,1.111-.418,10.2,10.2,0,0,1,1.111-.266,11.051,11.051,0,0,1,1.153-.145q.589-.042,1.239-.043a9.541,9.541,0,0,1,3.068.436,5.708,5.708,0,0,1,2.084,1.2,4.6,4.6,0,0,1,1.188,1.778,6.223,6.223,0,0,1,.376,2.178v5.573q0,1.45.043,2.537t.1,1.871c.041.524.092.964.155,1.316a8.958,8.958,0,0,0,.2.889v.068h-3.777v-.068a3.571,3.571,0,0,0,.129-.615c.027-.228.053-.5.076-.821a8.873,8.873,0,0,1-.846.633,6.755,6.755,0,0,1-1.11.589,7.66,7.66,0,0,1-1.385.428,8.076,8.076,0,0,1-1.666.162,6.85,6.85,0,0,1-4.6-1.393A4.926,4.926,0,0,1,162.656,587.991Zm11.331-4.973A29.45,29.45,0,0,0,171,583.2a8.184,8.184,0,0,0-2.538.675,4.74,4.74,0,0,0-1.41,7.059,3.663,3.663,0,0,0,2.786,1.058,4.592,4.592,0,0,0,1.495-.23,5.054,5.054,0,0,0,1.2-.581,4.333,4.333,0,0,0,.881-.769,3.8,3.8,0,0,0,.547-.812q.033-.649.034-1.444v-5.135Z"/><path class="a" d="M182.224,582.214q0-1.452-.043-2.537t-.1-1.871c-.04-.525-.092-.963-.154-1.317s-.128-.649-.2-.888v-.069h3.947v.069a7.981,7.981,0,0,0-.188.888c-.057.354-.108.792-.154,1.317s-.08,1.147-.1,1.871-.034,1.569-.034,2.537v4.137q0,1.45.034,2.537t.1,1.871c.046.524.1.964.154,1.316a7.905,7.905,0,0,0,.188.889v.068h-3.947v-.068q.1-.359.2-.889c.062-.352.114-.792.154-1.316s.074-1.148.1-1.871.043-1.57.043-2.537Zm-.359-11.86a1.77,1.77,0,0,1,.145-.709,1.96,1.96,0,0,1,.385-.582,1.775,1.775,0,0,1,.572-.392,1.881,1.881,0,0,1,1.453,0,1.841,1.841,0,0,1,.974.974,1.754,1.754,0,0,1,.146.709,1.811,1.811,0,0,1-1.846,1.846,1.818,1.818,0,0,1-.727-.145,1.764,1.764,0,0,1-.572-.394,1.931,1.931,0,0,1-.385-.581A1.81,1.81,0,0,1,181.865,570.354Z"/><path class="a" d="M202.322,581.514a5.035,5.035,0,0,0-.906-3.316,3.032,3.032,0,0,0-2.427-1.059,3.91,3.91,0,0,0-1.23.23,9.39,9.39,0,0,0-1.4.615,13.262,13.262,0,0,0-1.435.9,14.085,14.085,0,0,0-1.35,1.094l-.034,2.238v4.137q0,1.45.034,2.537t.1,1.871c.046.524.1.964.154,1.316a7.9,7.9,0,0,0,.188.889v.068h-3.948v-.068a8.923,8.923,0,0,0,.2-.889c.062-.352.113-.792.153-1.316s.075-1.148.1-1.871.043-1.57.043-2.537v-4.137q0-1.452-.043-2.537t-.1-1.871c-.04-.525-.091-.963-.153-1.317a9.027,9.027,0,0,0-.2-.888v-.069h3.948v.069a5.945,5.945,0,0,0-.214,1.085q-.076.659-.162,1.717.7-.579,1.513-1.162a14,14,0,0,1,1.683-1.034,10.729,10.729,0,0,1,1.777-.734,5.934,5.934,0,0,1,1.778-.283,5.084,5.084,0,0,1,2.264.461,4.372,4.372,0,0,1,1.521,1.214,4.831,4.831,0,0,1,.855,1.718,7.39,7.39,0,0,1,.264,1.957v5.811q0,1.45.035,2.537t.1,1.871c.046.524.1.964.154,1.316a7.9,7.9,0,0,0,.188.889v.068h-3.948v-.068a8.919,8.919,0,0,0,.2-.889c.062-.352.113-.792.153-1.316s.074-1.148.1-1.871.043-1.57.043-2.537Z"/><path class="a" d="M236.741,571.755l6.836,16.595,6.648-16.287a17.413,17.413,0,0,0,.581-1.709,4.756,4.756,0,0,0,.188-1.2,3.129,3.129,0,0,0-.017-.315.982.982,0,0,0-.052-.248v-.069h3.385v.069a5.274,5.274,0,0,0-.745,1.2q-.4.82-.93,2.033l-9.127,21.739h-1.3l-6.647-16.133-6.067,16.133h-1.282l-8.374-20.9c-.205-.489-.413-.963-.624-1.418s-.41-.866-.6-1.23-.359-.673-.513-.924a4.762,4.762,0,0,0-.333-.495v-.069h4.734v.069a1.715,1.715,0,0,0-.034.29v.24a6.4,6.4,0,0,0,.128,1.23,8.879,8.879,0,0,0,.5,1.573l6.426,16.234,6.135-16.338Z"/><path class="a" d="M253.318,587.991a4.712,4.712,0,0,1,.556-2.342,5.43,5.43,0,0,1,1.478-1.691,8.043,8.043,0,0,1,2.1-1.137,15.749,15.749,0,0,1,2.443-.683,21.367,21.367,0,0,1,2.5-.342q1.23-.095,2.255-.111v-.872a5.849,5.849,0,0,0-.29-1.949,3.635,3.635,0,0,0-.82-1.358,3.323,3.323,0,0,0-1.273-.8,4.821,4.821,0,0,0-1.632-.265,7.208,7.208,0,0,0-1.214.1,6.86,6.86,0,0,0-1.238.342,9.1,9.1,0,0,0-1.351.65,14.282,14.282,0,0,0-1.529,1.042l-.171-.1,1.162-2.41a8.731,8.731,0,0,1,1.11-.418,10.273,10.273,0,0,1,1.112-.266,11.051,11.051,0,0,1,1.153-.145c.394-.028.806-.043,1.239-.043a9.537,9.537,0,0,1,3.068.436,5.712,5.712,0,0,1,2.085,1.2,4.6,4.6,0,0,1,1.187,1.778,6.223,6.223,0,0,1,.376,2.178v5.573q0,1.45.043,2.537t.1,1.871a13.242,13.242,0,0,0,.154,1.316,8.671,8.671,0,0,0,.2.889v.068h-3.777v-.068a3.77,3.77,0,0,0,.129-.615c.027-.228.053-.5.076-.821a8.875,8.875,0,0,1-.846.633,6.756,6.756,0,0,1-1.11.589,7.66,7.66,0,0,1-1.385.428,8.069,8.069,0,0,1-1.666.162,6.853,6.853,0,0,1-4.6-1.393A4.928,4.928,0,0,1,253.318,587.991Zm11.33-4.973a29.43,29.43,0,0,0-2.99.179,8.184,8.184,0,0,0-2.538.675,4.74,4.74,0,0,0-1.41,7.059,3.663,3.663,0,0,0,2.786,1.058,4.592,4.592,0,0,0,1.495-.23,5.055,5.055,0,0,0,1.2-.581,4.326,4.326,0,0,0,.88-.769,3.722,3.722,0,0,0,.547-.812q.034-.649.034-1.444v-5.135Z"/><path class="a" d="M278.97,592.024a2.871,2.871,0,0,0,1.016-.188,4.431,4.431,0,0,0,.975-.513,7.234,7.234,0,0,0,.9-.743,9.89,9.89,0,0,0,.813-.88l.171.085-1.112,2.751c-.136.068-.3.152-.5.248a4.8,4.8,0,0,1-.717.274,7.75,7.75,0,0,1-.983.222,8.182,8.182,0,0,1-1.333.094,4.893,4.893,0,0,1-3.563-1.239,5.19,5.19,0,0,1-1.274-3.87v-11.4l-2.871.1v-1.5q.531.035,1.265.051t1.606.017q-.017-1.212-.059-2.144t-.1-1.624q-.06-.691-.145-1.171c-.057-.319-.115-.586-.171-.8v-.068h3.948v.068a6.443,6.443,0,0,0-.188.8q-.086.478-.146,1.162t-.1,1.615q-.042.932-.059,2.162,1.077-.016,2.11-.043t1.88-.068q.848-.042,1.436-.085t.778-.077L282.234,577q-.871-.016-1.829-.052-.82-.033-1.88-.051l-2.187-.034v11.758a5.326,5.326,0,0,0,.23,1.718,2.779,2.779,0,0,0,.6,1.033,1.906,1.906,0,0,0,.837.514A3.447,3.447,0,0,0,278.97,592.024Z"/><path class="a" d="M293.872,593.34a10.37,10.37,0,0,1-3.555-.6,8.259,8.259,0,0,1-2.887-1.751,8.142,8.142,0,0,1-1.941-2.854,10.036,10.036,0,0,1-.709-3.888,9.687,9.687,0,0,1,.65-3.58,8.8,8.8,0,0,1,1.8-2.862,8.271,8.271,0,0,1,2.673-1.9,8.028,8.028,0,0,1,3.308-.683,8.655,8.655,0,0,1,3.264.606,7.373,7.373,0,0,1,2.606,1.761,8.308,8.308,0,0,1,1.743,2.853,11.726,11.726,0,0,1,.693,3.871q-1.932-.033-3.863-.051t-4.016-.017q-1.486,0-2.9.017t-2.538.051a13.219,13.219,0,0,0,.556,3.213A7.71,7.71,0,0,0,290,589.981a5.39,5.39,0,0,0,1.932,1.565,5.865,5.865,0,0,0,2.572.547,7.306,7.306,0,0,0,1.871-.232,6.542,6.542,0,0,0,1.6-.64,6.209,6.209,0,0,0,2.239-2.171l.2.1-1.265,3.041a10.573,10.573,0,0,1-2.205.813A12.368,12.368,0,0,1,293.872,593.34ZM291.6,582.915q1.707,0,3.425-.009t3.12-.059a11.162,11.162,0,0,0-.582-2.666,6.847,6.847,0,0,0-1.093-2,4.652,4.652,0,0,0-1.573-1.264,4.464,4.464,0,0,0-2-.445,3.846,3.846,0,0,0-1.82.436,4.294,4.294,0,0,0-1.444,1.256,6.7,6.7,0,0,0-.991,2.008,10.56,10.56,0,0,0-.445,2.709q.77.035,1.624.034Z"/><path class="a" d="M305.186,582.214q0-1.452-.043-2.537t-.1-1.871c-.04-.525-.091-.963-.153-1.317a9.023,9.023,0,0,0-.2-.888v-.069h3.948v.069a5.957,5.957,0,0,0-.231.957,14.219,14.219,0,0,0-.145,1.453q.633-.531,1.316-1.043a11.65,11.65,0,0,1,1.4-.906,8.434,8.434,0,0,1,1.461-.632,4.879,4.879,0,0,1,1.5-.24,6.679,6.679,0,0,1,.8.043,4.192,4.192,0,0,1,1.111.29c.148.064.291.123.427.18l-.838,3.265-.29-.069a2.255,2.255,0,0,0-.769-1.205,2.4,2.4,0,0,0-1.538-.453,3.612,3.612,0,0,0-1.111.188,6.725,6.725,0,0,0-1.179.521,11.814,11.814,0,0,0-1.2.77q-.6.435-1.162.914c-.022.331-.034.689-.034,1.076v5.641q0,1.45.034,2.537t.1,1.871c.046.524.1.964.154,1.316a7.683,7.683,0,0,0,.188.889v.068H304.69v-.068a8.919,8.919,0,0,0,.2-.889c.062-.352.113-.792.153-1.316s.074-1.148.1-1.871.043-1.57.043-2.537Z"/></g><g class="e"><path class="a" d="M160.11,626.309q-.684-.017-1.709-.026t-2.23-.026q-1.206-.017-2.513-.026t-2.554-.016q-1.25-.009-2.376.009c-.752.01-1.407.028-1.965.05v5.077q0,1.45.043,2.537t.1,1.871c.04.524.091.964.154,1.316a8.953,8.953,0,0,0,.2.889v.068h-4.1v-.068q.1-.359.2-.889c.062-.352.116-.792.162-1.316s.079-1.148.1-1.871.034-1.57.034-2.537V620.225q0-1.452-.034-2.538t-.1-1.88q-.069-.8-.162-1.325c-.063-.352-.129-.649-.2-.888v-.069h4.1v.069a9.058,9.058,0,0,0-.2.888q-.095.531-.154,1.325t-.1,1.88q-.044,1.084-.043,2.538V624.6q.888.035,2.016.043t2.359,0q1.23-.009,2.5-.027t2.461-.042q1.187-.025,2.221-.059t1.786-.069v-4.221q0-1.452-.043-2.538t-.1-1.88q-.062-.8-.154-1.325a9.027,9.027,0,0,0-.2-.888v-.069h4.1v.069a8.773,8.773,0,0,0-.2.888q-.095.531-.163,1.325t-.1,1.88q-.034,1.084-.034,2.538v11.126q0,1.45.034,2.537t.1,1.871c.045.524.1.964.163,1.316a8.675,8.675,0,0,0,.2.889v.068h-4.1v-.068a8.923,8.923,0,0,0,.2-.889c.062-.352.113-.792.154-1.316s.074-1.148.1-1.871.043-1.57.043-2.537Z"/><path class="a" d="M167.424,632.991a4.712,4.712,0,0,1,.556-2.342,5.456,5.456,0,0,1,1.478-1.691,8.044,8.044,0,0,1,2.1-1.137,15.731,15.731,0,0,1,2.444-.683,21.381,21.381,0,0,1,2.495-.342q1.23-.095,2.256-.111v-.872a5.847,5.847,0,0,0-.291-1.949,3.622,3.622,0,0,0-.82-1.358,3.322,3.322,0,0,0-1.273-.8,4.825,4.825,0,0,0-1.632-.265,7.217,7.217,0,0,0-1.214.1,6.838,6.838,0,0,0-1.238.342,9.094,9.094,0,0,0-1.351.65,14.279,14.279,0,0,0-1.529,1.042l-.171-.1,1.162-2.41a8.687,8.687,0,0,1,1.111-.418,10.2,10.2,0,0,1,1.111-.266,11.052,11.052,0,0,1,1.153-.145c.394-.028.806-.043,1.239-.043a9.541,9.541,0,0,1,3.068.436,5.713,5.713,0,0,1,2.085,1.2,4.6,4.6,0,0,1,1.188,1.778,6.247,6.247,0,0,1,.376,2.178v5.573q0,1.45.042,2.537t.1,1.871c.04.524.091.964.154,1.316a8.953,8.953,0,0,0,.2.889v.068h-3.777v-.068a3.572,3.572,0,0,0,.129-.615c.028-.228.053-.5.076-.821a8.875,8.875,0,0,1-.846.633,6.757,6.757,0,0,1-1.11.589,7.661,7.661,0,0,1-1.385.428,8.069,8.069,0,0,1-1.666.162,6.85,6.85,0,0,1-4.6-1.393A4.926,4.926,0,0,1,167.424,632.991Zm11.331-4.973a29.449,29.449,0,0,0-2.991.179,8.184,8.184,0,0,0-2.538.675,4.74,4.74,0,0,0-1.41,7.059,3.663,3.663,0,0,0,2.786,1.058,4.592,4.592,0,0,0,1.495-.23,5.055,5.055,0,0,0,1.2-.581,4.333,4.333,0,0,0,.881-.769,3.8,3.8,0,0,0,.547-.812q.033-.649.034-1.444v-5.135Z"/><path class="a" d="M186.89,627.214q0-1.452-.043-2.537t-.1-1.871c-.04-.525-.091-.963-.153-1.317s-.129-.649-.2-.888v-.069h3.948v.069a5.754,5.754,0,0,0-.231.957,13.947,13.947,0,0,0-.145,1.453q.631-.531,1.316-1.043a11.651,11.651,0,0,1,1.4-.906,8.41,8.41,0,0,1,1.462-.632,4.863,4.863,0,0,1,1.495-.24,6.679,6.679,0,0,1,.8.043,4.192,4.192,0,0,1,1.111.29c.148.064.29.123.427.18l-.837,3.265-.291-.069a2.261,2.261,0,0,0-.769-1.205,2.4,2.4,0,0,0-1.538-.453,3.612,3.612,0,0,0-1.111.188,6.693,6.693,0,0,0-1.179.521,11.692,11.692,0,0,0-1.2.77q-.6.435-1.163.914c-.022.331-.034.689-.034,1.076v5.641q0,1.45.034,2.537t.1,1.871c.045.524.1.964.154,1.316a7.483,7.483,0,0,0,.188.889v.068h-3.948v-.068q.1-.359.2-.889c.062-.352.113-.792.153-1.316s.074-1.148.1-1.871.043-1.57.043-2.537Z"/><path class="a" d="M202.219,620.532v.069a.973.973,0,0,0-.051.255,2.972,2.972,0,0,0-.017.309,5.023,5.023,0,0,0,.154,1.17,11.156,11.156,0,0,0,.547,1.6l4.084,9.724,4.136-9.588q.256-.631.547-1.383a4.205,4.205,0,0,0,.29-1.521,1.707,1.707,0,0,0-.034-.368.7.7,0,0,0-.068-.2v-.069h3.076v.069a6.354,6.354,0,0,0-.778,1.153,20.7,20.7,0,0,0-1,2.077l-6.306,14.44h-1.008l-5.845-13.6q-.308-.752-.657-1.444t-.667-1.239q-.316-.547-.556-.915c-.159-.244-.267-.4-.324-.469v-.069Z"/><path class="a" d="M224.932,638.34a10.366,10.366,0,0,1-3.555-.6,8.254,8.254,0,0,1-2.888-1.751,8.127,8.127,0,0,1-1.94-2.854,10.018,10.018,0,0,1-.709-3.888,9.686,9.686,0,0,1,.649-3.58,8.813,8.813,0,0,1,1.795-2.862,8.275,8.275,0,0,1,2.674-1.9,8.023,8.023,0,0,1,3.307-.683,8.655,8.655,0,0,1,3.264.606,7.386,7.386,0,0,1,2.607,1.761,8.339,8.339,0,0,1,1.743,2.853,11.727,11.727,0,0,1,.692,3.871q-1.932-.033-3.863-.051t-4.016-.017q-1.486,0-2.9.017t-2.538.051a13.173,13.173,0,0,0,.555,3.213,7.691,7.691,0,0,0,1.248,2.452,5.387,5.387,0,0,0,1.931,1.565,5.868,5.868,0,0,0,2.572.547,7.314,7.314,0,0,0,1.872-.232,6.535,6.535,0,0,0,1.6-.64,6.209,6.209,0,0,0,2.239-2.171l.205.1-1.265,3.041a10.584,10.584,0,0,1-2.2.813A12.373,12.373,0,0,1,224.932,638.34Zm-2.273-10.425q1.709,0,3.426-.009t3.119-.059a11.163,11.163,0,0,0-.581-2.666,6.827,6.827,0,0,0-1.094-2,4.639,4.639,0,0,0-1.572-1.264,4.467,4.467,0,0,0-2-.445,3.84,3.84,0,0,0-1.82.436,4.3,4.3,0,0,0-1.445,1.256,6.7,6.7,0,0,0-.991,2.008,10.52,10.52,0,0,0-.444,2.709q.77.035,1.623.034Z"/><path class="a" d="M243.97,623.968l-.24.033a3.891,3.891,0,0,0-.384-.837,3.522,3.522,0,0,0-1.692-1.444,3.487,3.487,0,0,0-1.359-.248,3.177,3.177,0,0,0-1,.154,2.388,2.388,0,0,0-.82.453,2.14,2.14,0,0,0-.556.743,2.465,2.465,0,0,0-.205,1.042,2.78,2.78,0,0,0,.521,1.6,9.41,9.41,0,0,0,1.307,1.5q.786.742,1.7,1.495a19.712,19.712,0,0,1,1.7,1.572,8.631,8.631,0,0,1,1.308,1.752,4.049,4.049,0,0,1,.521,2.008,4.848,4.848,0,0,1-.308,1.7,4.135,4.135,0,0,1-.948,1.479,4.742,4.742,0,0,1-1.641,1.05,6.378,6.378,0,0,1-2.384.4,7.168,7.168,0,0,1-1.529-.154,8.435,8.435,0,0,1-1.3-.384,6.978,6.978,0,0,1-1.06-.513q-.47-.281-.829-.538l.171-3.247h.274a5.853,5.853,0,0,0,.512,1.47,4.086,4.086,0,0,0,.846,1.136,3.691,3.691,0,0,0,2.572,1,2.8,2.8,0,0,0,2.008-.7,2.4,2.4,0,0,0,.744-1.829,2.959,2.959,0,0,0-.5-1.666,7.881,7.881,0,0,0-1.272-1.461q-.77-.7-1.649-1.4a17.184,17.184,0,0,1-1.65-1.495,7.711,7.711,0,0,1-1.273-1.744,4.533,4.533,0,0,1-.5-2.162,4.444,4.444,0,0,1,.367-1.82,4.136,4.136,0,0,1,1.025-1.418,4.678,4.678,0,0,1,1.564-.915,5.85,5.85,0,0,1,1.983-.324,7.953,7.953,0,0,1,2.366.3,8.381,8.381,0,0,1,1.445.572Z"/><path class="a" d="M254.822,637.024a2.876,2.876,0,0,0,1.017-.188,4.425,4.425,0,0,0,.974-.513,7.24,7.24,0,0,0,.906-.743,9.871,9.871,0,0,0,.811-.88l.171.085-1.11,2.751c-.137.068-.306.152-.5.248a4.906,4.906,0,0,1-.718.274,7.75,7.75,0,0,1-.983.222,8.191,8.191,0,0,1-1.333.094,4.893,4.893,0,0,1-3.563-1.239,5.19,5.19,0,0,1-1.274-3.87v-11.4l-2.871.1v-1.5q.529.035,1.265.051t1.606.017q-.017-1.212-.059-2.144t-.1-1.624q-.06-.691-.145-1.171c-.057-.319-.115-.586-.171-.8v-.068h3.948v.068a6.446,6.446,0,0,0-.188.8c-.058.319-.1.707-.145,1.162s-.075.995-.1,1.615-.049,1.342-.06,2.162q1.077-.016,2.111-.043t1.88-.068q.846-.042,1.435-.085t.778-.077L258.086,622q-.871-.016-1.828-.052-.82-.033-1.88-.051l-2.188-.034v11.758a5.322,5.322,0,0,0,.231,1.718,2.738,2.738,0,0,0,.6,1.033,1.9,1.9,0,0,0,.836.514A3.447,3.447,0,0,0,254.822,637.024Z"/><path class="a" d="M262.171,627.214q0-1.452-.043-2.537t-.1-1.871c-.04-.525-.091-.963-.153-1.317s-.129-.649-.2-.888v-.069h3.948v.069a7.762,7.762,0,0,0-.188.888c-.057.354-.109.792-.154,1.317s-.08,1.147-.1,1.871-.034,1.569-.034,2.537v4.137q0,1.45.034,2.537t.1,1.871c.045.524.1.964.154,1.316a7.69,7.69,0,0,0,.188.889v.068h-3.948v-.068q.1-.359.2-.889c.062-.352.113-.792.153-1.316s.075-1.148.1-1.871.043-1.57.043-2.537Zm-.359-11.86a1.753,1.753,0,0,1,.145-.709,1.96,1.96,0,0,1,.385-.582,1.764,1.764,0,0,1,.572-.392,1.881,1.881,0,0,1,1.453,0,1.884,1.884,0,0,1,.581.392,1.909,1.909,0,0,1,.393.582,1.824,1.824,0,0,1-1.7,2.555,1.815,1.815,0,0,1-.727-.145,1.754,1.754,0,0,1-.572-.394,1.931,1.931,0,0,1-.385-.581A1.793,1.793,0,0,1,261.812,615.354Z"/><path class="a" d="M282.269,626.514a5.035,5.035,0,0,0-.907-3.316,3.03,3.03,0,0,0-2.426-1.059,3.916,3.916,0,0,0-1.231.23,9.337,9.337,0,0,0-1.4.615,13.272,13.272,0,0,0-1.436.9,14.071,14.071,0,0,0-1.349,1.094l-.035,2.238v4.137q0,1.45.035,2.537t.1,1.871c.045.524.1.964.153,1.316a7.878,7.878,0,0,0,.189.889v.068h-3.948v-.068c.068-.239.133-.535.2-.889s.113-.792.153-1.316.074-1.148.1-1.871.043-1.57.043-2.537v-4.137q0-1.452-.043-2.537t-.1-1.871c-.04-.525-.092-.963-.153-1.317s-.129-.649-.2-.888v-.069h3.948v.069a5.861,5.861,0,0,0-.214,1.085q-.076.659-.162,1.717.7-.579,1.513-1.162a13.986,13.986,0,0,1,1.682-1.034,10.739,10.739,0,0,1,1.778-.734,5.923,5.923,0,0,1,1.777-.283,5.088,5.088,0,0,1,2.265.461,4.381,4.381,0,0,1,1.521,1.214,4.847,4.847,0,0,1,.855,1.718,7.43,7.43,0,0,1,.264,1.957v5.811q0,1.45.034,2.537t.1,1.871c.045.524.1.964.153,1.316a7.661,7.661,0,0,0,.189.889v.068h-3.949v-.068c.069-.239.134-.535.2-.889s.113-.792.153-1.316.074-1.148.1-1.871.043-1.57.043-2.537Z"/><path class="a" d="M297,645.843a7.94,7.94,0,0,0,2.341-.3,4.469,4.469,0,0,0,1.581-.829,3.564,3.564,0,0,0,.957-1.273,7.105,7.105,0,0,0,.495-1.631,12.339,12.339,0,0,0,.188-1.9q.025-1.009.026-2.085v-.564a9.586,9.586,0,0,1-2.017.76,11.206,11.206,0,0,1-6.357-.315,7.871,7.871,0,0,1-2.828-1.812,7.968,7.968,0,0,1-1.8-2.863,10.69,10.69,0,0,1-.633-3.785,10.111,10.111,0,0,1,.624-3.589,8.571,8.571,0,0,1,1.76-2.871,8.157,8.157,0,0,1,2.718-1.905,8.61,8.61,0,0,1,3.495-.693,7.47,7.47,0,0,1,2.776.5,8.4,8.4,0,0,1,1.112.531q.521.3,1.016.64l-.171-1.264v-.069h3.778v.069a9,9,0,0,0-.2.888c-.062.354-.113.792-.153,1.317s-.074,1.147-.1,1.871-.042,1.569-.042,2.537v11.621a11.328,11.328,0,0,1-.419,3.068,6.9,6.9,0,0,1-1.418,2.658,7.085,7.085,0,0,1-2.641,1.862,10.409,10.409,0,0,1-4.084.7,9.525,9.525,0,0,1-1.727-.162,16.4,16.4,0,0,1-1.657-.394,12.3,12.3,0,0,1-1.419-.5q-.633-.273-1.008-.478l-.53-3.281.274-.069a5.072,5.072,0,0,0,1.119,1.564,7.183,7.183,0,0,0,1.547,1.128,7.626,7.626,0,0,0,1.734.683A6.678,6.678,0,0,0,297,645.843Zm1.675-8.75a5.826,5.826,0,0,0,2.229-.41,6.866,6.866,0,0,0,1.684-.957v-8.512q0-.957-.017-1.735c-.011-.517-.017-.988-.017-1.41a5.679,5.679,0,0,0-.949-1.119,6.122,6.122,0,0,0-1.145-.82,5.96,5.96,0,0,0-1.238-.513,4.584,4.584,0,0,0-1.248-.179,5.541,5.541,0,0,0-2.341.479,4.842,4.842,0,0,0-1.77,1.375,6.3,6.3,0,0,0-1.11,2.187,10.251,10.251,0,0,0-.385,2.932,13.734,13.734,0,0,0,.41,3.435,8.777,8.777,0,0,0,1.2,2.759,5.754,5.754,0,0,0,1.974,1.83A5.491,5.491,0,0,0,298.675,637.093Z"/></g></g></g></svg>