<svg xmlns="http://www.w3.org/2000/svg" xmlns:xlink="http://www.w3.org/1999/xlink" width="335.061" height="434.138" viewBox="0 0 335.061 434.138"><defs><style>.a{fill:none;}.b{opacity:0.4;}.c{clip-path:url(#a);}.d{fill:#fac31c;}.e{fill:#fff;}.f{fill:#7fb728;}.g{fill:#2c8c37;}.h{opacity:0.6;mix-blend-mode:multiply;isolation:isolate;}.i{clip-path:url(#b);}.j{fill:#e95327;}.k{fill:#f3c57d;}.l{fill:#efa869;}</style><clipPath id="a"><rect class="a" width="335.061" height="335.059"/></clipPath><clipPath id="b"><rect class="a" width="195.701" height="175.724"/></clipPath></defs><g transform="translate(-774.939 -708)"><g transform="translate(774.939 708)"><g class="b" transform="translate(0 21.002)"><g class="c"><path class="d" d="M82.47,314.4A167.53,167.53,0,1,0,250,146.869,167.529,167.529,0,0,0,82.47,314.4" transform="translate(-82.47 -146.869)"/></g></g><path class="d" d="M124.131,311.6A125.869,125.869,0,1,0,250,185.726,125.868,125.868,0,0,0,124.131,311.6" transform="translate(-82.469 -125.867)"/><path class="e" d="M277.852,352.213h16.082a5.865,5.865,0,0,1,0-11.729h75.341a5.865,5.865,0,1,1,0,11.729H360.8a5.865,5.865,0,0,1,0,11.73h27.772a5.865,5.865,0,0,1,0,11.729h-28.48a5.861,5.861,0,0,1-.337,11.712h27.636a5.865,5.865,0,1,1,0,11.729H330.039a5.865,5.865,0,1,1,0-11.729H294.264a5.865,5.865,0,0,1,0-11.73h19.349a5.86,5.86,0,0,0-.336-11.711H277.852a5.865,5.865,0,0,1,0-11.73" transform="translate(-248.889 -125.867)"/><g transform="translate(70.035)"><path class="f" d="M217.99,174.833c-9.5,9.5-6.945,27.468-6.945,27.468s17.965,2.559,27.468-6.945,6.944-27.467,6.944-27.467-17.965-2.558-27.467,6.944" transform="translate(-109.007 -125.867)"/><path class="f" d="M282.016,174.833c9.5,9.5,6.944,27.468,6.944,27.468s-17.965,2.559-27.467-6.945-6.945-27.467-6.945-27.467,17.965-2.558,27.468,6.944" transform="translate(-196.013 -125.867)"/><path class="f" d="M235.49,150.2c0-13.438,14.513-24.333,14.513-24.333s14.512,10.895,14.512,24.333c0,10.506-8.868,19.456-12.74,22.863v51.648H248.23V173.063c-3.872-3.407-12.74-12.357-12.74-22.863" transform="translate(-152.51 -125.867)"/><path class="g" d="M262.742,224.711V173.063C258.87,169.656,250,160.706,250,150.2c0-13.438,14.513-24.333,14.513-24.333v98.844Z" transform="translate(-167.022 -125.867)"/><path class="g" d="M261.805,195.357c-9.5-9.5-6.944-27.468-6.944-27.468L289.273,202.3s-17.965,2.558-27.468-6.944" transform="translate(-196.326 -125.867)"/><path class="g" d="M218.3,174.833c9.5-9.5,27.468-6.944,27.468-6.944L211.358,202.3s-2.558-17.965,6.944-27.468" transform="translate(-109.32 -125.867)"/><path class="f" d="M180.821,383.581c-.118-.117-.241-.224-.358-.341l.017-.017A97.831,97.831,0,0,1,318.827,244.877l.017-.018c.117.117.224.24.34.358s.241.223.358.34l-.017.017A97.831,97.831,0,0,1,181.178,383.921l-.017.017c-.117-.116-.224-.24-.34-.357" transform="translate(-152.51 -125.867)"/><path class="g" d="M209.472,383.581c-.118-.117-.241-.224-.358-.341l.017-.017a97.838,97.838,0,0,1,.681-137.666l68.493,68.493.7.7L347.5,383.24a97.839,97.839,0,0,1-137.666.681l-.017.017c-.117-.116-.224-.24-.34-.357" transform="translate(-181.161 -125.867)"/></g><g class="h" transform="translate(69.678 97.866)"><g transform="translate(0.001 0)"><g class="i" transform="translate(0)"><path class="g" d="M157.816,282.086a10.393,10.393,0,0,0,2.562,5.29c4.567,4.565,12.8,1.272,18.483,4.329,1.361.731,2.541,1.817,4,2.311a5.6,5.6,0,0,0,6.141-1.943c1.154-1.576,1.377-3.622,2.012-5.47,1.07-3.116,3.318-5.662,5.512-8.118a13.454,13.454,0,0,1,3.315-2.971c4.781-2.66,10.7,1.154,16.118.4,6.292-.881,10.084-7.662,10.912-13.96s-.285-12.781.994-19a25.205,25.205,0,0,1,4.646-10.193c1.129-1.479,2.469-2.925,2.824-4.751s-.879-4.108-2.737-3.985a4.506,4.506,0,0,0-2.54,1.428q-4.042,3.649-8.089,7.3c-1.852,1.669-4.6,3.412-6.6,1.914s-1.09-4.585-.8-7.072a10.892,10.892,0,0,0-.253-3.853,98.09,98.09,0,0,0-56.5,58.353" transform="translate(-152.152 -223.733)"/><path class="g" d="M242.58,227.446c-3.7,2.322-4.995,7.633-3.11,11.578.585,1.225,1.415,2.723.589,3.8a4,4,0,0,1-1.44.948,7.549,7.549,0,0,0-3.239,9.575c.742,1.567,2.081,3.058,1.8,4.769-.218,1.337-1.388,2.338-1.745,3.644-.681,2.489,2.034,4.845,4.614,4.839s4.868-1.56,6.973-3.051l4.451-3.152a70.581,70.581,0,0,0,8.345-6.566,35.484,35.484,0,0,0,10.035-18.147l-.179.117a6.71,6.71,0,0,0-5.391-2.854,24.463,24.463,0,0,0-6.277.773,3.746,3.746,0,0,1-1.937.026c-1.295-.45-1.7-2.028-2.283-3.267-1.869-3.954-7.505-5.354-11.21-3.032" transform="translate(-152.152 -223.733)"/><path class="g" d="M347.853,314.841c0-.165-.012-.328-.012-.494s.012-.328.012-.494h-.025a97.507,97.507,0,0,0-26.384-65.837c-1.514-.258-3.038-.7-4.559-.886-3.368-.413-6.747.474-10.024,1.351-2.831.759-5.782,1.584-7.928,3.578s-3.152,5.545-1.408,7.9c2.1,2.836,7.072,2.784,8.422,6.045,1.112,2.687-1.091,5.511-3.127,7.587-2.8,2.858-5.667,5.762-9.2,7.645a37.524,37.524,0,0,0-5.1,2.731,9.734,9.734,0,0,0-3.827,7.29,18.31,18.31,0,0,0-11.686,3.581,3.769,3.769,0,0,0-1.824,2.677,2.9,2.9,0,0,0,1.379,2.325c2.7,1.867,6.326.442,9.481-.466a27.03,27.03,0,0,1,10.5-.881,8.242,8.242,0,0,1,3.611,1.079,4.851,4.851,0,0,1-3.026,8.9,47.039,47.039,0,0,0-42.663,21.345c-2.192,3.381-3.995,7.437-3.029,11.35,1.635,6.623,10.032,9.275,13.032,15.4a6.164,6.164,0,0,0,1.648,2.544,4.762,4.762,0,0,0,2.791.577c8.449-.02,18,.023,23.815,6.153,2.664,2.81,4.111,6.526,5.5,10.141l5.848,15.27a4.974,4.974,0,0,1,.478,2.21,6.53,6.53,0,0,1-1.6,2.941,11.992,11.992,0,0,0-1.555,3.046A98.029,98.029,0,0,0,314.2,387.662a25.593,25.593,0,0,1,1.52-6.641c1.937-4.944,5.794-8.832,9-13.062s5.928-9.418,4.976-14.643c-.537-2.941-2.181-5.542-3.333-8.3s-1.778-6.051-.3-8.652a29.524,29.524,0,0,1,2.955-3.545,10.416,10.416,0,0,0-6.6-16.8c-3.052-.456-6.218.452-9.229-.222-3.064-.685-5.524-2.9-7.833-5.024-1.191-1.1-2.487-2.481-2.231-4.08.214-1.338,1.435-2.231,2.38-3.2a9.8,9.8,0,0,0,2.459-8.945l11.259,4.242c1.413.532,2.929,1.147,3.713,2.439,1.174,1.934.227,4.578,1.236,6.6.934,1.877,3.254,2.622,5.349,2.658s4.2-.442,6.275-.179c5.118.646,8.848,6.131,8.234,11.254-.533,4.431-3.632,8.153-4.674,12.493a14.255,14.255,0,0,0,2.954,12.213,97.642,97.642,0,0,0,5.521-31.427Z" transform="translate(-152.152 -223.733)"/><path class="g" d="M282.824,271.425a4.589,4.589,0,0,0-.987,2.888c.214,1.639,2.079,2.52,3.725,2.668a9.826,9.826,0,0,0,9.078-4.592c3.175-5.242-2.194-4.9-5.3-6.533-.014-.043-.059-.064-.128-.071-.156-.088-.31-.18-.453-.279l.242.294a12.264,12.264,0,0,0-2.737,1.2,16.449,16.449,0,0,0-3.444,4.425" transform="translate(-152.152 -223.733)"/><path class="g" d="M189.755,311.522a22.306,22.306,0,0,1-5.667-5.123,44.449,44.449,0,0,0-3.046-3.9,6.425,6.425,0,0,0-4.322-2.153,2.048,2.048,0,0,0-1.555.527c-.723.78-.269,2.036.256,2.961a37.277,37.277,0,0,0,4.825,6.649c1.659,1.821,3.534,6.469,5.721,8.15a3.173,3.173,0,0,0,.866.491c.977.353,2.946-.32,4.1-.191,1.784.2,3.351,1.178,5.2.663a1.561,1.561,0,0,0,.835-.483,1.708,1.708,0,0,0-.028-1.73c-1.307-2.858-4.526-4.183-7.185-5.86" transform="translate(-152.152 -223.733)"/><path class="g" d="M196.037,359.746c2.076-1.122,4.381-1.951,6.047-3.622,3.4-3.408,2.9-9.369.067-13.259s-7.382-6.119-11.876-7.841a18.987,18.987,0,0,1-5.165-2.543c-2.086-1.657-3.279-4.167-4.934-6.257a17.217,17.217,0,0,0-13.747-6.412c-2.242.063-4.847.444-6.4-1.177-1.3-1.359-1.191-3.5-1.885-5.247a6.071,6.071,0,0,0-5.825-3.658c-.072,1.369-.132,2.74-.145,4.124h-.025c0,.166.012.329.012.494s-.012.328-.012.494h.025a97.511,97.511,0,0,0,27.515,67.013c.284-.273.563-.549.819-.844,3.257-3.774,4.424-8.9,7.01-13.161a22.557,22.557,0,0,1,8.516-8.1" transform="translate(-152.152 -223.733)"/><path class="g" d="M263.187,395.556a2.842,2.842,0,0,0,3.066,1.675,6.227,6.227,0,0,0,4.211-2.609,18.442,18.442,0,0,0,2.268-4.551q.573-1.476,1.146-2.954c.835-2.148,1.607-4.782.172-6.585l-.3.535a1.723,1.723,0,0,0-1.1-1.85,3.674,3.674,0,0,0-2.892.585c-1.963,1.115-3.742,2.761-5.979,3.067a2.676,2.676,0,0,0-1.415.4,1.657,1.657,0,0,0-.433.637c-1.341,3.058,1.345,6.425,1.228,9.763a5.954,5.954,0,0,0,.035,1.886" transform="translate(-152.152 -223.733)"/></g></g></g><g transform="translate(2.657 103.886)"><path class="e" d="M308.9,229.753h47.662a5.865,5.865,0,0,1,0,11.73h16.082a5.865,5.865,0,1,1,0,11.729H359.469a5.861,5.861,0,0,0-.336,11.712h5.587a5.865,5.865,0,0,1,0,11.729H347.565a5.864,5.864,0,1,1,0,11.729H317.894a5.864,5.864,0,0,1,0-11.729h9.017a5.861,5.861,0,0,1-.336-11.712H311.857a5.865,5.865,0,1,1,0-11.729h5.523a5.865,5.865,0,1,1,0-11.729H308.9a5.865,5.865,0,1,1,0-11.73" transform="translate(-266.671 -229.753)"/><path class="e" d="M388.444,241.36a5.988,5.988,0,1,1-5.987,5.987,5.987,5.987,0,0,1,5.987-5.987" transform="translate(-362.015 -229.753)"/><path class="e" d="M105.005,356.8h17.352a5.865,5.865,0,1,1,0-11.729H144.49a5.861,5.861,0,0,0,.336-11.712h-6.55a5.864,5.864,0,1,1,0-11.729H175.17a5.861,5.861,0,0,1,.336,11.712h20.977a5.865,5.865,0,1,1,0,11.729H184.7a5.865,5.865,0,0,1,0,11.729H140.935a5.866,5.866,0,0,1,5.866,5.864h0a5.865,5.865,0,0,1-5.866,5.864h-35.93a5.865,5.865,0,0,1-5.866-5.864h0a5.866,5.866,0,0,1,5.866-5.864" transform="translate(113.385 -229.753)"/><path class="e" d="M179.55,333.478a5.988,5.988,0,1,1,5.987-5.986,5.986,5.986,0,0,1-5.987,5.986" transform="translate(55.773 -229.753)"/><path class="e" d="M408.886,367.367a5.988,5.988,0,1,1-5.987,5.987,5.988,5.988,0,0,1,5.987-5.987" transform="translate(-402.899 -229.753)"/></g><g transform="translate(141.936 165.098)"><path class="e" d="M228.861,295.416a15.234,15.234,0,0,1,21.14-.368,15.219,15.219,0,0,1,21.518,21.5l.007.01L250,338.079l0,.006-21.138-21.147a15.233,15.233,0,0,1,0-21.522" transform="translate(-224.41 -290.965)"/><path class="j" d="M232.73,299.286h0a9.746,9.746,0,0,1,13.784,0L250,302.774l3.487-3.488a9.747,9.747,0,0,1,13.784,13.784l-3.488,3.489,0,0-13.784,13.784,0,0,0,0-13.784-13.784,0,0-3.489-3.489a9.747,9.747,0,0,1,0-13.784" transform="translate(-224.411 -290.965)"/></g><g transform="translate(56.417 256.735)"><path class="k" d="M174.644,399.832l38.6,19.38h61.341a6.573,6.573,0,0,0,6.661-6.2,6.4,6.4,0,0,0-6.393-6.592H251.367A23.818,23.818,0,0,1,227.55,382.6h90.315a43.249,43.249,0,0,1,43.248,43.249V560.005H300.328V459.463a10.621,10.621,0,0,0-10.621-10.621H212.658v.207L138.892,410.5h0a26.382,26.382,0,0,1,35.752-10.667" transform="translate(-138.892 -382.602)"/><path class="l" d="M218.754,419.212H199.838a6.573,6.573,0,0,0,6.661-6.2,6.4,6.4,0,0,0-6.393-6.592h18.916a6.4,6.4,0,0,1,6.393,6.592,6.574,6.574,0,0,1-6.661,6.2" transform="translate(-64.143 -382.602)"/><path class="l" d="M191.382,560.005V459.463a10.62,10.62,0,0,0-10.621-10.62h18.916a10.62,10.62,0,0,1,10.621,10.62V560.005Z" transform="translate(-29.946 -382.602)"/></g></g></g></svg>