<svg xmlns="http://www.w3.org/2000/svg" width="364" height="192.303" viewBox="0 0 364 192.303"><defs><style>.a{fill:#a25723;}</style></defs><g transform="translate(-391.148 -165.005)"><g transform="translate(406.864 274.619)"><rect class="a" width="2.053" height="43.976" transform="translate(11.742 37.073)"/><ellipse class="a" cx="12.769" cy="25.21" rx="12.769" ry="25.21"/></g><g transform="translate(435.02 294.918)"><rect class="a" width="1.539" height="32.962" transform="translate(8.801 27.788)"/><ellipse class="a" cx="9.571" cy="18.896" rx="9.571" ry="18.896" transform="translate(0 0)"/></g><g transform="translate(391.148 311.255)"><rect class="a" width="1.125" height="24.098" transform="translate(6.434 20.315)"/><ellipse class="a" cx="6.997" cy="13.814" rx="6.997" ry="13.814"/></g><g transform="translate(468.132 314.328)"><rect class="a" width="1.053" height="22.549" transform="translate(6.021 19.009)"/><ellipse class="a" cx="6.547" cy="12.927" rx="6.547" ry="12.927"/></g><path class="a" d="M582.418,430.389c-.376.5-.693.95-.954,1.365V423.07c2-.035,3.591-.717,3.591-4.226,0-3.606-.655-8.476-2.732-8.476a1.526,1.526,0,0,0-.439.068,2.423,2.423,0,0,0-1.125-.293h-.084a2.459,2.459,0,0,0-1.216.3h0a1.548,1.548,0,0,0-.45-.074c-2.077,0-2.73,4.872-2.73,8.478s1.684,4.226,3.76,4.225h.017v8.859a17.866,17.866,0,0,0-1.063-1.541c-2.384-3.132-7.942-5.487-7.942-5.487a51.022,51.022,0,0,0,4.616,8.019c2.384,3.132,3.821,3.474,4.74,2.775a1.549,1.549,0,0,0,.221-.2h.155a1.521,1.521,0,0,0,.222.2c.919.7,2.356.357,4.74-2.775a51.115,51.115,0,0,0,4.614-8.02S584.8,427.256,582.418,430.389Z" transform="translate(-58.386 -79.558)"/><path class="a" d="M548.18,430.389c-.377.5-.694.95-.954,1.365V423.07c2-.035,3.591-.717,3.591-4.226,0-3.606-.655-8.476-2.732-8.476a1.518,1.518,0,0,0-.438.068,2.426,2.426,0,0,0-1.126-.293h-.084a2.46,2.46,0,0,0-1.216.3h0a1.548,1.548,0,0,0-.45-.074c-2.076,0-2.73,4.872-2.73,8.478s1.684,4.226,3.76,4.225h.016v8.859a17.845,17.845,0,0,0-1.062-1.541c-2.385-3.132-7.943-5.487-7.943-5.487a51.022,51.022,0,0,0,4.616,8.019c2.384,3.132,3.821,3.474,4.74,2.775a1.558,1.558,0,0,0,.222-.2h.155a1.556,1.556,0,0,0,.222.2c.919.7,2.356.357,4.74-2.775a51.109,51.109,0,0,0,4.614-8.02S550.563,427.256,548.18,430.389Z" transform="translate(-47.274 -79.558)"/><g transform="translate(507.678 240.971)"><path class="a" d="M581.394,277.523c-4.273-.817-6,8.234-6,8.234l-.422.049a.681.681,0,0,0-.626-.945c-.794-2.507-.1-3.305.054-3.442-.929.732-.341,2.941-.188,3.454a.679.679,0,0,0-.293.128.688.688,0,0,0-.126.965.677.677,0,0,0,.28.212l-.32.245s-7.545-5.289-10.04-1.726c0,0-.626,2.1,2.786,3.766,0,0,1.443,3.072,4.216,1.238,0,0-2.155,3.059-.428,3.971,0,0-.072,1.135,1.011.788,0,0,.149,1.423,1.469.894a.926.926,0,0,0,.365.825l-.209,1.407a.417.417,0,0,0-.124.063.412.412,0,1,0,.578.076.376.376,0,0,0-.048-.051l.172-1.508a2.29,2.29,0,0,0,.711-.3s.736.325.792-.338c0,0,1.762-.059.9-1.363,0,0,.159-1.794.4-1.793a15.555,15.555,0,0,1,1.825,2.477l.009.023,0-.012.006.011-.009-.023a15.553,15.553,0,0,1-.417-3.049c.174-.171,1.539,1.006,1.539,1.006.286,1.539,1.591.353,1.591.353.5.437.8-.309.8-.309a2.28,2.28,0,0,0,.721-.278l1.173.961a.413.413,0,1,0,.255-.327l-1.155-.881a.926.926,0,0,0-.314-.846,1.012,1.012,0,0,0,.431-1.666.718.718,0,0,0,.176-1.269c.6-1.858-3.075-2.55-3.075-2.55,3.266-.617,2.161-3.826,2.161-3.826C583.306,278.592,581.394,277.523,581.394,277.523Z" transform="translate(-563.669 -277.471)"/><path class="a" d="M574.95,285.139c.2-.02,1.286,0,2.632,2.346l.112-.07S576.273,284.916,574.95,285.139Z" transform="translate(-567.33 -279.955)"/><path class="a" d="M574.933,285.146l-.036.005Z" transform="translate(-567.313 -279.962)"/><path class="a" d="M579.559,283.306l.028-.023Z" transform="translate(-568.826 -279.357)"/></g><g transform="translate(485.869 277.94)"><path class="a" d="M543.779,336.3c-1.577-2.123-6.072,1.22-6.072,1.22l-.209-.152a.414.414,0,0,0,.109-.68c.675-1.449,1.316-1.52,1.439-1.518-.717-.055-1.362,1.176-1.5,1.468a.406.406,0,0,0-.184-.063.419.419,0,0,0-.453.38.412.412,0,0,0,.038.209l-.244-.021s-1.2-5.471-3.785-4.9c0,0-1.144.683-.3,2.832a1.7,1.7,0,0,0,1.378,2.288s-2.222.483-1.825,1.6a.437.437,0,0,0,.128.769.615.615,0,0,0,.29,1,.564.564,0,0,0-.176.52l-.673.543a.248.248,0,0,0-.082-.022.25.25,0,1,0,.228.272.225.225,0,0,0,0-.043l.7-.6a1.4,1.4,0,0,0,.443.157s.2.448.494.174c0,0,.813.7.962-.241,0,0,.809-.738.917-.638a9.475,9.475,0,0,1-.2,1.86l-.005.014,0-.007v.007l0-.014a9.486,9.486,0,0,1,1.067-1.536c.149-.005.276,1.083.276,1.083-.5.806.567.813.567.813.045.4.486.193.486.193a1.4,1.4,0,0,0,.438.172l.13.913a.251.251,0,1,0,.249-.042l-.155-.869a.563.563,0,0,0,.207-.508c.811.3.878-.568.878-.568.664.192.6-.5.6-.5,1.033-.584-.328-2.406-.328-2.406a1.7,1.7,0,0,0,2.54-.824C544.195,337.57,543.779,336.3,543.779,336.3Z" transform="translate(-531.381 -332.204)"/><path class="a" d="M539.914,335.524c.1.075.576.528.213,2.132l.079.015S540.6,335.968,539.914,335.524Z" transform="translate(-534.15 -333.281)"/><path class="a" d="M539.905,335.518l-.018-.013Z" transform="translate(-534.141 -333.275)"/><path class="a" d="M542.729,336.6h0Z" transform="translate(-535.064 -333.631)"/></g><g transform="translate(570.474 165.005)"><path class="a" d="M694.786,185.825c-2.2-7.079-17.193-2.407-17.193-2.407l-.413-.6a1.161,1.161,0,0,0,.918-1.7c3.131-3.206,4.89-2.8,5.217-2.681-1.847-.81-4.7,1.847-5.343,2.488a1.165,1.165,0,0,0-2.074.838l-.625-.283s1.9-15.587-5.464-16.479c0,0-3.658.745-3.425,7.213,0,0-3.46,4.636,1.522,7.331,0,0-6.327-.784-6.313,2.544a1.224,1.224,0,0,0-.373,2.151s-2.02,1.367-.165,2.927a1.578,1.578,0,0,0-.948,1.211l-2.283.814a.69.69,0,0,0-.2-.135.7.7,0,1,0,.35.929.655.655,0,0,0,.038-.113l2.405-.952a3.882,3.882,0,0,0,1.027.825s.1,1.366,1.145.919c0,0,1.5,2.6,2.767.252,0,0,2.825-1.2,3.019-.834.184.349-2.028,4.32-2.259,4.733l-.027.032.016-.014-.01.018.026-.032c.365-.3,3.873-3.192,4.249-3.074.4.124-.277,3.119-.277,3.119-2.082,1.666.747,2.676.747,2.676-.253,1.106,1.109.961,1.109.961a3.888,3.888,0,0,0,1,.861l-.5,2.536a.7.7,0,1,0,.7.12l.4-2.443a1.58,1.58,0,0,0,1.021-1.151c1.868,1.543,2.849-.689,2.849-.689,1.577,1.124,2.049-.756,2.049-.756,3.276-.585,1.365-6.668,1.365-6.668,3.549,4.415,7.486.177,7.486.177C694.712,189.557,694.786,185.825,694.786,185.825Z" transform="translate(-656.637 -165.005)"/><path class="a" d="M689.005,179.437c.2.292,1.035,1.93-1.414,5.839l.2.112S690.4,181.246,689.005,179.437Z" transform="translate(-666.683 -169.689)"/><path class="a" d="M689.668,179.413a.479.479,0,0,0-.036-.049C689.645,179.38,689.656,179.4,689.668,179.413Z" transform="translate(-667.345 -169.665)"/><path class="a" d="M696.134,184.9c.019.008.038.014.057.023A.477.477,0,0,0,696.134,184.9Z" transform="translate(-669.455 -171.461)"/></g><g transform="translate(399.1 200.44)"><path class="a" d="M422.117,217.466c-6.925,2.646-1.314,17.312-1.314,17.312l-.567.449a1.162,1.162,0,0,0-1.755-.809c-3.4-2.923-3.1-4.7-3.006-5.038-.691,1.894,2.141,4.569,2.821,5.175a1.161,1.161,0,0,0-.31.448,1.173,1.173,0,0,0,.682,1.512,1.151,1.151,0,0,0,.6.057l-.242.642s-15.677-.905-16.1,6.5c0,0,.974,3.6,7.414,2.962,0,0,4.845,3.16,7.221-1.983,0,0-.382,6.365,2.938,6.14a1.224,1.224,0,0,0,2.171.237s1.492,1.929,2.931-.021a1.577,1.577,0,0,0,1.269.87l.956,2.227a.719.719,0,1,0,.667-.235l-1.1-2.34a3.9,3.9,0,0,0,.759-1.077s1.358-.188.844-1.2c0,0,2.5-1.665.077-2.777,0,0-1.379-2.743-1.024-2.96.336-.205,4.44,1.751,4.867,1.955l.034.025-.015-.016.02.009-.034-.025c-.324-.344-3.431-3.663-3.337-4.045.1-.4,3.131.079,3.131.079,1.794,1.973,2.623-.915,2.623-.915,1.121.182.888-1.168.888-1.168a3.9,3.9,0,0,0,.8-1.049l2.562.341a.7.7,0,1,0,.075-.7l-2.463-.242a1.577,1.577,0,0,0-1.213-.946,1.725,1.725,0,0,0-.868-2.8c1.022-1.646-.883-2-.883-2-.792-3.232-6.741-.94-6.741-.94,4.181-3.821-.3-7.482-.3-7.482C425.847,217.3,422.117,217.466,422.117,217.466Z" transform="translate(-402.92 -217.465)"/><path class="a" d="M416.465,241.644c.279-.213,1.862-1.156,5.917,1.042l.1-.2S418.182,240.134,416.465,241.644Z" transform="translate(-407.316 -225.148)"/><path class="a" d="M416.442,241.887c-.031.024-.047.039-.047.039C416.411,241.912,416.427,241.9,416.442,241.887Z" transform="translate(-407.293 -225.391)"/><path class="a" d="M421.507,235.078c.007-.019.011-.039.02-.058A.521.521,0,0,0,421.507,235.078Z" transform="translate(-408.952 -223.163)"/></g><g transform="translate(576.368 216.85)"><path class="a" d="M833.522,299.387c-.034-.12-.064-.249-.095-.394v0a1.272,1.272,0,0,0,.095-1c-.557-1.95,0-7.489-3.627-11.415-5.115-5.539-8.537-7.921-11.595-15.067-1.121-2.613-1.629-6.018-3.738-8.053-1.082-1.04-7.6-2.336-7.664-2.477-3.481-8.319-10.675-6.326-17.082-11.069-2.2-1.629-3.174-1.6-5.029-2.314l-2.759,2.151c-3.194-1.6-5.222-2.986-9.4-2.673-3.977.3-2.562,1.446-6.227.026-1.668-.646-2.759-2.549-4.718-3.195-1.535-.509-4.255-1.445-5.9-.788-1.215.484-1.288,2.6-2.049,2.853-5.436,1.8-4.3-2.378-9.17-3.922-5.269-1.672-8.8,4.465-13.8,4.384-2.464-.043-4.218-1.441-6.869-.933-.539.1-5.971,2.211-5.385,3.05-1.864-2.677-10.5-.774-9.2,2.767-6.155-4.264-13.806,5.017-17.082,9.024a.009.009,0,0,0-.009.009c-2.434,2.977-3.853,2.092-7.065,3.939-3.982,2.3-1.826,2.776-3.679,6.159-3.31,6.052-13.164,6.193-15.7,13.605a7.724,7.724,0,0,0-.371,1.788c-.283,2.78.658,6.189,3.742,6.771.937.175,3.708-1.993,4.867-2.169.017.038.03.082.043.12a3.261,3.261,0,0,1-.095,2.045,23.507,23.507,0,0,0-.829,5.308v.018c-.116,3.148.509,5.7,1.954,5.612,1.223-.078,3.327-.471,4.422.235a2.391,2.391,0,0,1,.633.556c.68.915-.573,1.676-1.227,2.7a11.415,11.415,0,0,0-1.526,5.786c-.078,1.087-.407,2.378-.462,3.589a3.156,3.156,0,0,0,1.668,3.366c1.5.74,3.011-.171,4.405.945,1.5,1.2.765,2.315,3.391,2.657a5.628,5.628,0,0,0,1.24-.043,3.117,3.117,0,0,1,.881.039c1.321.261,1.984,1.185,3.482.7,1.121-.359,1.868-1.976,3.126-2.122,1.086-.128,1.788.821,3,.975,2.34.3,4.11-1.231,6.112-1.993,1.445-.551,4.131-.415,4.88-2,.056-.118.118-.231.179-.346a25.023,25.023,0,0,0,4.221,1.763c3.04.95,11.27,4.6,14.12,7.305s4.37,3.507,7.156,5.917,2.659,3.36,3.547,5.333,7.153,12.859,7.66,14.174,2.153,3.653,3.61,7.524,1.329,20.748,1.329,20.748h7.029s.442-5.332.823-9.935,2.977-7.671,4.433-10.3,4.18-4.6,5-7.013a87.218,87.218,0,0,0,2.342-11.325c-.126-.291,2.977-2.849,4.179-5.26.55-1.1,2.1-4.489,3.7-8,.913.876,1.8,1.854,2.634,2.54a4.9,4.9,0,0,0,2.609.877c.167.017.338.03.509.039a12.977,12.977,0,0,0,1.637-.034c.116-.008.236-.021.351-.034h0a6.453,6.453,0,0,0,2.96-.847c.851-.8,5.227-6.163,5.227-6.163s3.995,2.143,6.227,1.877,6.437-1.608,6.146-2.947a.2.2,0,0,1-.009-.043.623.623,0,0,0,.009-.3c-.009-.039-.017-.081-.022-.115.167-.646,1.531.072,3.914.988,2.792,1.074,8.87-.265,8.481-1.339a.625.625,0,0,1-.03-.094.323.323,0,0,0,.03-.278,10.038,10.038,0,0,1-.407-2.831v-.111a9.126,9.126,0,0,1,.424-2.579c.71-2.143,6.214-.979,6.249-3.3a3.308,3.308,0,0,0-.03-.492,1.032,1.032,0,0,0,.03-.261c.03-1.865-1.458-4.286-1.753-6.061a1.254,1.254,0,0,1,.12-.329c.833-1.608,7.322-.513,7.005-3.336S834.082,301.26,833.522,299.387ZM762.15,323.6c.712,1.918.475,3.4,0,2.848a57.5,57.5,0,0,1-2.542-5.665l1.9.912C761.73,322.4,761.954,323.076,762.15,323.6ZM734.1,314.289c.95,1.535.127,2.777,0,4.53,0,0-2.283-1.186-4.091-2.3a13.621,13.621,0,0,1,3.675-2.868C733.823,313.865,733.966,314.074,734.1,314.289Zm5.7-2.316c1.952-.126,4.732.861,7.393,1.847.057,1.779.111,3.536.136,4.487.063,2.411,2.407,5.479,2.407,7.965s-.064,6.136-.634,5.917-1.9-4.239-2.66-6.941-2.469-4.092-3.924-5.626-1.647-3.213-2.534-5.26c-.39-.9-.682-1.593-.974-2.318Q739.409,312,739.8,311.973Zm9.429,4.617a18.986,18.986,0,0,1-.143-2.076,26.073,26.073,0,0,0,3.181.979,2.563,2.563,0,0,0,.476.55,3.475,3.475,0,0,1,1.045,1.424,12.487,12.487,0,0,1-2.992.329A2.515,2.515,0,0,1,749.233,316.59Zm6.859-.779-.02.012s-.319-.14-.708-.363A2.338,2.338,0,0,1,756.092,315.812Zm.6.944a1.85,1.85,0,0,1,.43.026,11.64,11.64,0,0,1,.994,1.426c-.141.313-.274.564-.332.52C757.639,318.618,756.167,316.81,756.689,316.755Zm8,6.772c.183.263.436.619.74,1.022-.455.375-.807.4-.807-.178A7.368,7.368,0,0,1,764.687,323.527Zm.455,4.844a13.779,13.779,0,0,1,1.687-2.13,7.9,7.9,0,0,0,1.426,1.266,2.748,2.748,0,0,0,.324.155c-.686,3.054-1.647,6.736-2.249,5.858C765.657,332.541,764.762,329.192,765.142,328.371Zm-30.591,1.771c-1.022-.584-3.934-3.062-3.617-3.283s3.246,1.1,3.617,1.641S734.551,330.142,734.551,330.142Zm-3.175-5.771a8.127,8.127,0,0,0-3.546-.73,14.532,14.532,0,0,1-2.215-1.533c-1.2-.877-7.978-2.63-11.4-4.093-.759-.324-1.988-.844-3.441-1.456,1.5-1.543,3.4-2.352,4.761-1.728,1.893.867,8.524,9.473,12.482,4.336,1.016.687,2.013,1.406,2.915,2.136,4.242,3.434,5.382,5.7,5.319,5.989S733.087,325.175,731.377,324.371Zm8.106.877c-1.2-1.826-3.04-3.287-3.294-4.6a20.926,20.926,0,0,1,0-5.26,6.147,6.147,0,0,0-.476-2.608c.137-.047.274-.091.411-.134a8.678,8.678,0,0,1,2.092,1.718c.7.877,1.837,4.678,2.217,5.116s2.089,2.483,3.355,4.309a28.13,28.13,0,0,1,2.786,7.232,11.827,11.827,0,0,0,1.393,2.923c.824,1.826,2.1,8.4.543,7.158a45.373,45.373,0,0,1-6.495-7.158C741.318,332.627,740.685,327.073,739.483,325.248Zm10.13,25.715c-.253.074-.507-1.679-1.013-2.849s-3.229-5.185-3.547-5.185.633-.586.633-.586,1.647,2.12,2.823,3.287a26.757,26.757,0,0,1,3.51,5.335C752.21,351.552,749.866,350.89,749.613,350.962Zm2.422-23.8c-.38-1.206-.095-4-.38-5.26a24.547,24.547,0,0,0-1.662-3.452,19.192,19.192,0,0,0,1.995.877c.713.22.808-1.043,1.8-.877s3.087,2.192,3.087,2.192a28.523,28.523,0,0,0-2.517,2.959C753.745,324.371,752.415,328.371,752.035,327.165Zm4.48,22.848a11.245,11.245,0,0,1-3.292-6.428,78.225,78.225,0,0,1,0-8.622c0-2.63-.127-5.185.76-6.428s2.969-6.948,4.051-4.822c.145.283,3.927,8.256,4.18,9.425a49.061,49.061,0,0,1,.981,6.866,76.919,76.919,0,0,1-4.336,7.964C757.781,349.5,757.528,350.89,756.514,350.013Zm10.133-.729c-.825,1.314-3.04,5.7-5.383,7.013s-3.23-1.972-3.23-1.972,3.357-4.749,4.624-6.794A80.739,80.739,0,0,0,766.2,340l2.155,2.266S767.47,347.968,766.647,349.284Zm4-10.448c-.237.384-1.425-1.643-2.232-2.247s-.142-2.739,0-4.054a30.571,30.571,0,0,1,1.5-4.519,25.15,25.15,0,0,0,4.748-.509,2.933,2.933,0,0,1,1.753.424C774.381,331.873,770.833,338.541,770.651,338.836Z" transform="translate(-665.363 -241.76)"/></g><g transform="translate(530.724 260.874)"><path class="a" d="M713.955,346.747c-.024-.083-.045-.172-.065-.272v0a.878.878,0,0,0,.065-.689c-.384-1.347,0-5.173-2.506-7.886-3.533-3.826-5.9-5.472-8.01-10.409-.774-1.805-1.126-4.157-2.582-5.563-.748-.719-5.254-1.614-5.295-1.711-2.405-5.747-7.375-4.37-11.8-7.647a10.337,10.337,0,0,0-3.475-1.6l-1.906,1.487c-2.207-1.108-3.607-2.063-6.491-1.847-2.748.207-1.77,1-4.3.018-1.153-.446-1.906-1.761-3.259-2.207-1.061-.352-2.94-1-4.074-.544-.84.334-.89,1.8-1.416,1.971-3.755,1.241-2.969-1.643-6.334-2.709-3.64-1.155-6.078,3.085-9.532,3.029-1.7-.03-2.913-1-4.745-.644-.372.071-4.124,1.528-3.72,2.107-1.288-1.849-7.25-.535-6.352,1.912-4.252-2.946-9.537,3.466-11.8,6.234a.006.006,0,0,0-.006.006c-1.681,2.056-2.662,1.445-4.881,2.721-2.751,1.59-1.262,1.918-2.541,4.255-2.287,4.181-9.094,4.278-10.849,9.4a5.385,5.385,0,0,0-.257,1.235c-.2,1.92.455,4.276,2.586,4.678.647.121,2.561-1.377,3.362-1.5.011.026.02.056.029.082a2.254,2.254,0,0,1-.065,1.412,16.244,16.244,0,0,0-.573,3.667v.011c-.08,2.175.351,3.939,1.35,3.876.844-.053,2.3-.325,3.055.163a1.675,1.675,0,0,1,.437.384c.469.632-.4,1.158-.848,1.868a7.888,7.888,0,0,0-1.054,4c-.053.75-.281,1.643-.319,2.479a2.181,2.181,0,0,0,1.152,2.326c1.037.511,2.08-.118,3.044.652,1.037.831.529,1.6,2.343,1.835a3.881,3.881,0,0,0,.856-.03,2.146,2.146,0,0,1,.609.027c.913.18,1.371.818,2.405.484.774-.248,1.291-1.365,2.16-1.466.75-.089,1.235.567,2.074.674,1.616.209,2.84-.851,4.222-1.377,1-.381,2.854-.286,3.371-1.383.038-.081.082-.159.124-.239a17.248,17.248,0,0,0,2.916,1.219c2.1.655,7.786,3.179,9.754,5.046s3.018,2.422,4.943,4.088,1.837,2.321,2.45,3.683,4.942,8.883,5.292,9.791,1.487,2.524,2.494,5.2.919,14.333.919,14.333h4.855s.306-3.683.568-6.863,2.057-5.3,3.063-7.116,2.887-3.179,3.455-4.844a60.278,60.278,0,0,0,1.618-7.823c-.086-.2,2.056-1.968,2.887-3.634.38-.761,1.454-3.1,2.557-5.525.631.605,1.243,1.281,1.82,1.755a3.392,3.392,0,0,0,1.8.606c.115.011.233.02.351.026a9.027,9.027,0,0,0,1.131-.024c.08-.006.163-.015.243-.024h0a4.462,4.462,0,0,0,2.045-.585c.588-.555,3.61-4.257,3.61-4.257s2.76,1.48,4.3,1.3,4.447-1.111,4.246-2.036a.117.117,0,0,1-.006-.03.442.442,0,0,0,.006-.2c-.006-.026-.012-.056-.016-.08.115-.446,1.058.051,2.7.683,1.93.742,6.128-.183,5.859-.925a.4.4,0,0,1-.02-.066.222.222,0,0,0,.02-.192,6.938,6.938,0,0,1-.28-1.956v-.076a6.292,6.292,0,0,1,.292-1.782c.49-1.481,4.293-.677,4.317-2.281a2.26,2.26,0,0,0-.021-.34.7.7,0,0,0,.021-.18c.02-1.288-1.008-2.961-1.212-4.186a.865.865,0,0,1,.083-.228c.576-1.111,5.058-.355,4.839-2.3S714.342,348.041,713.955,346.747Zm-49.3,16.73c.492,1.325.328,2.347,0,1.968a39.9,39.9,0,0,1-1.756-3.914l1.312.63C664.359,362.645,664.514,363.112,664.65,363.477Zm-19.378-6.434c.656,1.06.088,1.918,0,3.129,0,0-1.577-.819-2.825-1.587a9.4,9.4,0,0,1,2.539-1.981C645.081,356.749,645.18,356.894,645.272,357.042Zm3.941-1.6a14.747,14.747,0,0,1,5.107,1.275c.039,1.229.077,2.443.095,3.1.043,1.666,1.662,3.785,1.662,5.5s-.045,4.239-.438,4.088-1.312-2.928-1.837-4.8a8.871,8.871,0,0,0-2.711-3.887c-1.006-1.06-1.137-2.22-1.75-3.633-.27-.623-.471-1.1-.673-1.6Q648.94,355.46,649.213,355.442Zm6.513,3.189a13.088,13.088,0,0,1-.1-1.434,17.944,17.944,0,0,0,2.2.676,1.747,1.747,0,0,0,.329.38,2.4,2.4,0,0,1,.721.984,8.651,8.651,0,0,1-2.067.227A1.738,1.738,0,0,1,655.726,358.632Zm4.738-.538-.014.008s-.219-.1-.488-.251A1.622,1.622,0,0,1,660.465,358.094Zm.413.651a1.333,1.333,0,0,1,.3.018,8.069,8.069,0,0,1,.686.985c-.1.216-.189.39-.229.359C661.533,360.033,660.517,358.784,660.877,358.745Zm5.525,4.678c.126.182.3.428.511.707-.314.259-.557.275-.557-.123A5.23,5.23,0,0,1,666.4,363.423Zm.314,3.346a9.55,9.55,0,0,1,1.165-1.471,5.465,5.465,0,0,0,.986.875,1.939,1.939,0,0,0,.224.107c-.474,2.109-1.138,4.653-1.554,4.047C667.073,369.651,666.455,367.338,666.717,366.77Zm-21.132,1.224c-.707-.4-2.718-2.116-2.5-2.268a5.416,5.416,0,0,1,2.5,1.134C645.841,367.236,645.584,367.994,645.584,367.994Zm-2.193-3.987a5.614,5.614,0,0,0-2.45-.5,10.081,10.081,0,0,1-1.53-1.06c-.832-.605-5.512-1.817-7.874-2.827-.525-.224-1.373-.583-2.378-1.006,1.035-1.065,2.348-1.624,3.289-1.194,1.308.6,5.888,6.544,8.622,3,.7.474,1.391.971,2.014,1.475,2.93,2.373,3.718,3.937,3.674,4.138S644.573,364.562,643.391,364.007Zm5.6.605c-.832-1.261-2.1-2.271-2.276-3.179a14.467,14.467,0,0,1,0-3.633,4.243,4.243,0,0,0-.329-1.8c.095-.032.189-.063.284-.093a6,6,0,0,1,1.445,1.187c.482.605,1.269,3.231,1.531,3.533s1.443,1.716,2.318,2.977a19.418,19.418,0,0,1,1.924,5,8.187,8.187,0,0,0,.963,2.02c.569,1.261,1.45,5.8.375,4.945a31.407,31.407,0,0,1-4.486-4.945C650.258,369.71,649.821,365.873,648.991,364.612Zm7,17.764c-.174.052-.351-1.159-.7-1.968a17.855,17.855,0,0,0-2.45-3.582c-.219,0,.437-.4.437-.4s1.138,1.464,1.95,2.271a18.412,18.412,0,0,1,2.425,3.685C657.782,382.783,656.163,382.327,655.989,382.376Zm1.673-16.439c-.263-.833-.066-2.763-.263-3.633a16.857,16.857,0,0,0-1.148-2.385,13.337,13.337,0,0,0,1.378.606c.492.151.558-.721,1.247-.606a7.275,7.275,0,0,1,2.132,1.514,19.716,19.716,0,0,0-1.739,2.044C658.843,364.007,657.925,366.77,657.662,365.937Zm3.094,15.784a7.772,7.772,0,0,1-2.274-4.44,54.034,54.034,0,0,1,0-5.956c0-1.817-.088-3.583.525-4.44s2.051-4.8,2.8-3.331c.1.2,2.713,5.7,2.887,6.51a33.924,33.924,0,0,1,.679,4.744,53.366,53.366,0,0,1-3,5.5C661.632,381.368,661.457,382.327,660.756,381.721Zm7-.5c-.569.908-2.1,3.937-3.719,4.844s-2.231-1.362-2.231-1.362,2.319-3.281,3.194-4.694a55.77,55.77,0,0,0,2.449-5.2l1.488,1.566S668.324,380.309,667.756,381.217ZM670.522,374c-.163.265-.984-1.135-1.542-1.552s-.1-1.893,0-2.8a21.082,21.082,0,0,1,1.04-3.121,17.372,17.372,0,0,0,3.279-.352,2.027,2.027,0,0,1,1.211.292C673.1,369.189,670.648,373.8,670.522,374Z" transform="translate(-597.787 -306.938)"/></g><g transform="translate(701.588 311.997)"><path class="a" d="M904.29,400.972c-.011-.039-.02-.079-.03-.126h0a.406.406,0,0,0,.03-.317c-.177-.621,0-2.384-1.155-3.635-1.629-1.764-2.718-2.522-3.691-4.8a7.4,7.4,0,0,0-1.19-2.564,12.572,12.572,0,0,0-2.44-.788c-1.108-2.649-3.4-2.014-5.439-3.525a4.773,4.773,0,0,0-1.6-.737l-.879.685a4.92,4.92,0,0,0-2.992-.851c-1.266.1-.816.46-1.982.008-.532-.205-.879-.811-1.5-1.017a3.279,3.279,0,0,0-1.878-.251c-.387.154-.41.828-.652.908-1.731.572-1.368-.757-2.919-1.249-1.678-.532-2.8,1.422-4.394,1.4-.784-.013-1.342-.459-2.186-.3-.172.033-1.9.7-1.715.971-.594-.852-3.341-.247-2.927.881-1.959-1.358-4.4,1.6-5.439,2.873l0,0c-.775.948-1.227.666-2.249,1.254-1.268.733-.582.884-1.171,1.961-1.054,1.927-4.191,1.972-5,4.332a2.448,2.448,0,0,0-.118.569c-.091.885.209,1.97,1.192,2.156.3.055,1.181-.635,1.549-.691.005.012.009.026.013.038a1.036,1.036,0,0,1-.03.65,7.481,7.481,0,0,0-.264,1.69v.005c-.037,1,.162,1.816.622,1.787a2.68,2.68,0,0,1,1.408.075.76.76,0,0,1,.2.177c.216.291-.182.534-.391.861a3.633,3.633,0,0,0-.486,1.842c-.025.347-.13.758-.147,1.143a1.006,1.006,0,0,0,.531,1.072c.478.235.958-.055,1.4.3.478.383.244.737,1.08.846a1.8,1.8,0,0,0,.395-.013,1.006,1.006,0,0,1,.281.012c.42.083.632.378,1.108.224.357-.114.6-.63.995-.675.346-.041.569.261.956.311.745.1,1.308-.392,1.946-.635.46-.176,1.315-.132,1.554-.638.018-.037.038-.073.057-.11a7.963,7.963,0,0,0,1.344.562,16.381,16.381,0,0,1,4.5,2.326c.907.861,1.391,1.117,2.278,1.884a3.254,3.254,0,0,1,1.129,1.7c.282.628,2.278,4.094,2.439,4.513s.685,1.163,1.149,2.4.424,6.606.424,6.606h2.238s.141-1.7.262-3.163a7.585,7.585,0,0,1,1.412-3.28c.463-.837,1.331-1.465,1.592-2.233a27.581,27.581,0,0,0,.746-3.606,15.774,15.774,0,0,0,1.331-1.674c.176-.351.67-1.429,1.179-2.546.291.278.573.59.839.809a1.558,1.558,0,0,0,.831.279c.053.005.107.009.162.012a4.2,4.2,0,0,0,.521-.011l.111-.011h0a2.06,2.06,0,0,0,.942-.27c.271-.256,1.664-1.962,1.664-1.962a4.775,4.775,0,0,0,1.982.6c.71-.086,2.05-.512,1.957-.938a.065.065,0,0,1,0-.014.192.192,0,0,0,0-.094c0-.012-.005-.026-.007-.036.053-.205.488.023,1.246.315.89.342,2.824-.084,2.7-.426a.2.2,0,0,1-.009-.03.1.1,0,0,0,.009-.088,3.21,3.21,0,0,1-.13-.9v-.036a2.907,2.907,0,0,1,.135-.821c.226-.682,1.978-.311,1.99-1.051a1.132,1.132,0,0,0-.009-.157.354.354,0,0,0,.009-.083,12.577,12.577,0,0,0-.559-1.93.4.4,0,0,1,.038-.1c.266-.512,2.332-.163,2.231-1.062S904.469,401.568,904.29,400.972Zm-22.724,7.711c.227.611.151,1.081,0,.907a18.323,18.323,0,0,1-.809-1.8l.6.29C881.432,408.3,881.5,408.515,881.566,408.683Zm-8.932-2.966c.3.488.041.884,0,1.442,0,0-.727-.378-1.3-.731a4.325,4.325,0,0,1,1.171-.913C872.547,405.582,872.592,405.649,872.635,405.717Zm1.817-.738a6.79,6.79,0,0,1,2.353.588c.018.566.036,1.125.044,1.429.02.767.766,1.744.766,2.536s-.02,1.954-.2,1.884a7.822,7.822,0,0,1-.847-2.209,4.093,4.093,0,0,0-1.249-1.791,4.958,4.958,0,0,1-.807-1.675c-.124-.287-.218-.507-.31-.738C874.283,404.992,874.367,404.985,874.452,404.98Zm3,1.47a6.193,6.193,0,0,1-.046-.661,8.246,8.246,0,0,0,1.013.312.817.817,0,0,0,.152.175,1.1,1.1,0,0,1,.332.453,3.966,3.966,0,0,1-.952.1A.8.8,0,0,1,877.453,406.45Zm2.184-.248-.006,0s-.1-.045-.226-.116A.748.748,0,0,1,879.637,406.2Zm.19.3a.6.6,0,0,1,.136.009,3.6,3.6,0,0,1,.317.454c-.045.1-.087.18-.106.165C880.129,407.1,879.661,406.52,879.827,406.5Zm2.546,2.157c.058.084.138.2.236.325-.145.12-.257.127-.257-.057A2.276,2.276,0,0,1,882.374,408.659Zm.145,1.542a4.44,4.44,0,0,1,.537-.678,2.529,2.529,0,0,0,.455.4.848.848,0,0,0,.1.049c-.218.972-.524,2.145-.716,1.865A3.044,3.044,0,0,1,882.518,410.2Zm-9.74.564c-.325-.186-1.252-.975-1.152-1.046a2.5,2.5,0,0,1,1.152.523C872.9,410.416,872.778,410.765,872.778,410.765Zm-1.01-1.838a2.59,2.59,0,0,0-1.129-.232,4.656,4.656,0,0,1-.705-.488c-.383-.279-2.54-.838-3.629-1.3-.242-.1-.634-.268-1.1-.463a1.47,1.47,0,0,1,1.516-.551c.6.276,2.714,3.017,3.974,1.381.324.218.641.447.928.68,1.351,1.094,1.714,1.814,1.694,1.907S872.312,409.183,871.768,408.927Zm2.581.28c-.384-.582-.968-1.047-1.049-1.466a6.678,6.678,0,0,1,0-1.674,1.967,1.967,0,0,0-.151-.831l.131-.043a2.782,2.782,0,0,1,.666.547c.222.279.584,1.489.706,1.629s.665.791,1.068,1.372a8.954,8.954,0,0,1,.887,2.3,3.8,3.8,0,0,0,.444.931c.262.582.668,2.675.173,2.279a14.5,14.5,0,0,1-2.068-2.279A25.356,25.356,0,0,0,874.349,409.207Zm3.225,8.187c-.08.024-.161-.534-.322-.907a8.2,8.2,0,0,0-1.129-1.651c-.1,0,.2-.186.2-.186s.525.675.9,1.046a8.537,8.537,0,0,1,1.118,1.7C878.4,417.581,877.655,417.371,877.574,417.394Zm.771-7.577c-.121-.384-.03-1.274-.121-1.675a7.83,7.83,0,0,0-.53-1.1,6.178,6.178,0,0,0,.635.279c.227.07.257-.332.575-.279a3.342,3.342,0,0,1,.983.7,9.091,9.091,0,0,0-.8.942C878.89,408.927,878.466,410.2,878.346,409.817Zm1.426,7.275a3.585,3.585,0,0,1-1.048-2.047,24.986,24.986,0,0,1,0-2.746,4.233,4.233,0,0,1,.242-2.047c.282-.4.945-2.212,1.289-1.535.047.091,1.25,2.629,1.331,3a15.673,15.673,0,0,1,.312,2.186,24.449,24.449,0,0,1-1.381,2.536C880.175,416.929,880.094,417.371,879.771,417.092Zm3.227-.232a6.915,6.915,0,0,1-1.714,2.232c-.746.419-1.029-.628-1.029-.628s1.069-1.512,1.472-2.163a25.8,25.8,0,0,0,1.129-2.4l.686.722A11.13,11.13,0,0,1,883,416.859Zm1.275-3.327c-.076.122-.454-.523-.711-.715s-.045-.872,0-1.291a9.685,9.685,0,0,1,.479-1.439,8.081,8.081,0,0,0,1.512-.162.932.932,0,0,1,.558.134C885.46,411.316,884.331,413.439,884.273,413.533Z" transform="translate(-850.749 -382.624)"/></g></g></svg>