<svg xmlns="http://www.w3.org/2000/svg" xmlns:xlink="http://www.w3.org/1999/xlink" width="473.081" height="259.63" viewBox="0 0 473.081 259.63"><defs><style>.a{fill:#fff;}.b{fill:#a25723;}.c{opacity:0.2;}.d{clip-path:url(#a);}.e{isolation:isolate;}</style><clipPath id="a"><path class="a" d="M67.16,0H151a0,0,0,0,1,0,0V86.854A64.146,64.146,0,0,1,86.854,151H0a0,0,0,0,1,0,0V67.16A67.16,67.16,0,0,1,67.16,0Z" transform="translate(151 151) rotate(180)"/></clipPath></defs><g transform="translate(-116.919 -1306.37)"><path class="b" d="M-60,0H375.889c20.541,0,37.192,18.628,37.192,41.607V259.63H-60Z" transform="translate(176.919 1306.37)"/><g class="c" transform="translate(121.568 1365.768)"><g class="d" transform="translate(60.431 1.232)"><g transform="translate(-72.814 -74.725)"><g transform="translate(0)"><g transform="translate(111.807)"><rect class="a" width="4.063" height="218.381" transform="matrix(0.54, -0.842, 0.842, 0.54, 0, 3.419)"/></g><g transform="translate(106.215 8.712)"><rect class="a" width="4.063" height="218.381" transform="matrix(0.54, -0.842, 0.842, 0.54, 0, 3.42)"/></g><g transform="translate(100.626 17.421)"><rect class="a" width="4.063" height="218.381" transform="translate(0 3.42) rotate(-57.307)"/></g><g transform="translate(95.035 26.131)"><rect class="a" width="4.063" height="218.381" transform="matrix(0.54, -0.842, 0.842, 0.54, 0, 3.42)"/></g><g transform="translate(89.445 34.841)"><rect class="a" width="4.063" height="218.381" transform="translate(0 3.42) rotate(-57.307)"/></g><g transform="translate(83.855 43.551)"><rect class="a" width="4.063" height="218.381" transform="translate(0 3.42) rotate(-57.307)"/></g><g transform="translate(78.265 52.261)"><rect class="a" width="4.063" height="218.381" transform="translate(0 3.42) rotate(-57.307)"/></g><g transform="translate(72.674 60.971)"><rect class="a" width="4.063" height="218.381" transform="translate(0 3.42) rotate(-57.307)"/></g><g transform="translate(67.084 69.681)"><rect class="a" width="4.063" height="218.381" transform="translate(0 3.42) rotate(-57.307)"/></g><g transform="translate(61.493 78.391)"><rect class="a" width="4.063" height="218.381" transform="translate(0 3.419) rotate(-57.307)"/></g><g transform="translate(55.903 87.101)"><rect class="a" width="4.063" height="218.381" transform="translate(0 3.42) rotate(-57.307)"/></g><g transform="translate(50.313 95.812)"><rect class="a" width="4.063" height="218.381" transform="translate(0 3.419) rotate(-57.306)"/></g><g transform="translate(44.722 104.522)"><rect class="a" width="4.063" height="218.381" transform="translate(0 3.419) rotate(-57.307)"/></g><g transform="translate(39.131 113.234)"><rect class="a" width="4.063" height="218.381" transform="matrix(0.54, -0.842, 0.842, 0.54, 0, 3.42)"/></g><g transform="translate(33.542 121.942)"><rect class="a" width="4.063" height="218.381" transform="translate(0 3.42) rotate(-57.307)"/></g><g transform="translate(27.952 130.652)"><rect class="a" width="4.063" height="218.381" transform="translate(0 3.419) rotate(-57.307)"/></g><g transform="translate(22.361 139.362)"><rect class="a" width="4.063" height="218.381" transform="translate(0 3.42) rotate(-57.307)"/></g><g transform="translate(16.771 148.072)"><rect class="a" width="4.063" height="218.381" transform="translate(0 3.42) rotate(-57.307)"/></g><g transform="translate(11.181 156.782)"><rect class="a" width="4.063" height="218.381" transform="translate(0 3.419) rotate(-57.307)"/></g><g transform="translate(5.59 165.493)"><rect class="a" width="4.063" height="218.381" transform="translate(0 3.42) rotate(-57.307)"/></g><g transform="translate(0 174.203)"><rect class="a" width="4.063" height="218.381" transform="translate(0 3.42) rotate(-57.307)"/></g></g></g></g></g><path class="a" d="M92.265,71.423a4.739,4.739,0,0,0-4.734,4.734,19.724,19.724,0,0,1-.465,3.993c-.083-.662-.149-1.479-.177-2.475-.1-3.3.1-7.506.315-11.965a1.42,1.42,0,1,0-2.837-.127c-.1,2.129-.2,4.2-.264,6.154H80.321c.062-1.956.155-4.07.262-6.342.355-7.48.757-15.959-.175-22.453-1.425-9.932-5.378-10.368-6.677-10.512-2.873-.317-5.794,1.174-8.478,4.315h-4.74c2.529-3.694,7.234-8.785,13.633-8.08a8.948,8.948,0,0,1,6.459,3.705c1.731,2.3,2.925,5.673,3.551,10.033a104.272,104.272,0,0,1,.46,17.5,1.421,1.421,0,0,0,1.365,1.473h.055a1.421,1.421,0,0,0,1.419-1.367A105.051,105.051,0,0,0,86.969,42c-.694-4.839-2.071-8.653-4.094-11.338a11.8,11.8,0,0,0-8.417-4.821c-8.905-.983-14.836,6.787-17.32,10.9H55.422c0-.018-.01-.038-.014-.056-.659-2.952-.129-5.064,1.672-6.647a10.951,10.951,0,0,1,4.03-1.932,24.333,24.333,0,0,0,9.855-5.526c2.821-2.612,4.408-6.618,4.591-11.584a28.808,28.808,0,0,0-.462-6.225,4.734,4.734,0,0,0-9.277,1.9c.412,2.054.662,7.163-1.285,8.965a15.348,15.348,0,0,1-6.425,3.494,19.636,19.636,0,0,0-7.278,3.8,14.842,14.842,0,0,0-4.289,6.3,47.193,47.193,0,0,0-8.97-13.068,53.265,53.265,0,0,0-13.16-10.1,4.734,4.734,0,0,0-4.242,8.465,44.239,44.239,0,0,1,10.566,8.182,37.96,37.96,0,0,1,7.2,10.392,11.017,11.017,0,0,0-1.128,1.326,21.593,21.593,0,0,0-.811-2.134,14.622,14.622,0,0,0-5.027-6.331c-2.141-1.459-5.774-2.885-10.921-1.4-5.316,1.536-8.65,5.653-9.909,12.235a1.42,1.42,0,0,0,2.79.534c1.057-5.524,3.643-8.807,7.908-10.04,4.086-1.181,6.9-.1,8.533,1.015,3.115,2.122,4.522,5.9,5.138,8.427H30.567c-.539-1.768-1.553-4.095-3.346-5.306a6.3,6.3,0,0,0-5.334-.5c-6.475,1.872-6.165,11.524-5.087,23.948.272,3.127.528,6.089.571,8.742l-3.8-.32c-.059-2.444-.3-5.206-.549-8.1a113.946,113.946,0,0,1-.632-12.437,1.42,1.42,0,1,0-2.84-.074A116.243,116.243,0,0,0,10.2,55.464a94.5,94.5,0,0,1,.542,9.812c-.024.918-.073,1.621-.132,2.156-.147-.476-.276-.942-.344-1.19a26.681,26.681,0,0,1-.8-5.017,4.733,4.733,0,0,0-8.221-2.99A4.706,4.706,0,0,0,0,61.64a36.047,36.047,0,0,0,1.1,7,17.327,17.327,0,0,0,2.522,5.644,8.47,8.47,0,0,0,7.046,3.824,8.562,8.562,0,0,0,6.5-2.754c3.893-4.246,3.231-11.874,2.464-20.708-.931-10.724-1.344-19.7,3.045-20.974,1.944-.562,2.7-.047,2.954.122a6.231,6.231,0,0,1,1.94,2.953H25.752a4.266,4.266,0,0,0-4.261,4.261V93.639A4.266,4.266,0,0,0,25.752,97.9H32.6a1.42,1.42,0,1,0,0-2.84H25.752a1.422,1.422,0,0,1-1.42-1.42V85.9H72.693v7.742a1.422,1.422,0,0,1-1.42,1.42H38.279a1.42,1.42,0,1,0,0,2.841H71.273a4.266,4.266,0,0,0,4.261-4.261V41.008a4.266,4.266,0,0,0-4.261-4.261H69.29a5.753,5.753,0,0,1,4.129-1.492c2.033.224,3.438,2.947,4.176,8.092.893,6.227.5,14.562.149,21.916C77.1,78.95,76.927,86.862,81,90.325a8.593,8.593,0,0,0,5.562,2.205h0a7.372,7.372,0,0,0,3.11-.691C94.454,89.629,97,81.312,97,76.157A4.739,4.739,0,0,0,92.265,71.423ZM70.075,3.877a1.912,1.912,0,0,1,2.237,1.472,25.713,25.713,0,0,1,.4,5.548,18.669,18.669,0,0,1-.637,4.329l-3.5-1.622a15.291,15.291,0,0,0,.305-2.152A21.5,21.5,0,0,0,68.6,6.11,1.9,1.9,0,0,1,70.075,3.877ZM66.462,17.722A6.088,6.088,0,0,0,67.6,16.279l3.434,1.593a9.919,9.919,0,0,1-2,2.629,19.814,19.814,0,0,1-5.406,3.628l-2.174-3.19A16.217,16.217,0,0,0,66.462,17.722ZM3.336,60.155a1.893,1.893,0,0,1,3.289,1.2A29.2,29.2,0,0,0,7.524,67c.13.469.258.934.4,1.377l-3.4,1.6A19.834,19.834,0,0,1,3.843,67.9a33.556,33.556,0,0,1-1-6.382A1.879,1.879,0,0,1,3.336,60.155ZM15.072,73.434a5.792,5.792,0,0,1-4.4,1.834,5.717,5.717,0,0,1-4.745-2.649c-.028-.039-.055-.083-.084-.124L9.2,70.913a2.246,2.246,0,0,0,2.017.651c1.7-.219,2.193-2.213,2.336-5.4l3.769.317C17.138,69.448,16.516,71.859,15.072,73.434ZM52.7,25.065a16.156,16.156,0,0,1,5.989-3.135l2.216,3.251q-.354.121-.7.236a13.383,13.383,0,0,0-5,2.493c-2.465,2.167-3.363,5.138-2.68,8.836H48.688A12.59,12.59,0,0,1,52.7,25.065ZM28.4,16.718A42.892,42.892,0,0,0,21.443,12a1.894,1.894,0,0,1,1.7-3.386,46.193,46.193,0,0,1,7.969,5.42Zm4.38,4.036c-.744-.777-1.49-1.5-2.225-2.173l2.691-2.674c.749.691,1.509,1.433,2.268,2.225q1.63,1.7,3.045,3.5l-2.9,2.431Q34.33,22.369,32.785,20.754Zm4.565,5.6,2.908-2.438a42.259,42.259,0,0,1,3.566,6.207A12.1,12.1,0,0,0,40.269,31.4,38.2,38.2,0,0,0,37.35,26.355ZM40.4,34.707a9.222,9.222,0,0,1,5.365-1.969,18,18,0,0,0,.083,4.238,5.138,5.138,0,0,0-.629.226c-2.242.989-5.008,3.465-5.456,9.65a28.7,28.7,0,0,0,.32,6.87l-3.615,1.283a32.593,32.593,0,0,1-.484-8.411C36.556,38.38,39.511,35.419,40.4,34.707Zm1.71,25.132A9.117,9.117,0,0,0,46.281,63.9l-.8,3.746a12.519,12.519,0,0,1-6.677-5.959,20.379,20.379,0,0,1-1.646-3.913l3.573-1.268A16.848,16.848,0,0,0,42.114,59.838ZM71.273,39.587a1.421,1.421,0,0,1,1.42,1.42v7.742H48.922a1.421,1.421,0,0,0,0,2.841H72.693v8.594H66.16a1.421,1.421,0,1,0,0,2.841h6.533v8.6H62.679a1.42,1.42,0,1,0,0,2.84H72.693v8.6H24.332v-8.6H37.964a1.42,1.42,0,1,0,0-2.84H24.332v-8.6h7.042a1.421,1.421,0,0,0,0-2.841H24.332V51.59h4.081a1.421,1.421,0,0,0,0-2.841H24.332V41.008a1.422,1.422,0,0,1,1.42-1.42h8.587A30.663,30.663,0,0,0,33.153,46.4c-.431,6.217.726,12.3,3.176,16.676A14.917,14.917,0,0,0,49.716,71.2a21.253,21.253,0,0,0,7.19-1.354,4.734,4.734,0,1,0-3.213-8.907c-4.5,1.622-7.219.88-9.1-2.483-1.564-2.8-2.31-7.056-1.994-11.395.274-3.78,1.578-6.289,3.769-7.255a2.725,2.725,0,0,1,1.117-.21h.009c.035,0,.068,0,.1,0ZM48.255,68.276l.788-3.7a13.844,13.844,0,0,0,5.613-.965,1.894,1.894,0,1,1,1.285,3.563,18.45,18.45,0,0,1-6.227,1.186A13.684,13.684,0,0,1,48.255,68.276Zm32,6.3h3.779c-.015,1.121-.013,2.187.016,3.179A14.919,14.919,0,0,0,85.1,83.763l-3.127,3.381C80.529,84.879,80.165,80.652,80.253,74.578Zm12.292,9.371c-1.1,2.724-2.547,4.611-4.063,5.311a4.54,4.54,0,0,1-1.918.429,5.2,5.2,0,0,1-2.463-.662l3.781-4.087a1.939,1.939,0,0,0,.4-.3c1.274-1.254,2.087-5.86,2.087-8.48a1.894,1.894,0,0,1,3.788,0A21.971,21.971,0,0,1,92.545,83.949Z" transform="translate(201.001 1343.042)"/><g class="e" transform="translate(374.494 917.855)"><path class="a" d="M-159.812,555.187v.068a1.025,1.025,0,0,0-.051.257,2.918,2.918,0,0,0-.017.306,5.311,5.311,0,0,0,.145,1.171,9.653,9.653,0,0,0,.556,1.6l7.571,17.072,7.314-16.935q.257-.633.547-1.385a4.2,4.2,0,0,0,.29-1.522,1.527,1.527,0,0,0-.034-.349,1.133,1.133,0,0,0-.068-.214v-.068h3.5v.068a5.552,5.552,0,0,0-.786,1.162q-.461.839-1.008,2.067l-9.793,21.739h-1.367l-9.28-20.9c-.216-.489-.441-.963-.674-1.418s-.453-.869-.659-1.239-.387-.681-.546-.932-.268-.41-.325-.478v-.068Z"/><path class="a" d="M-131.87,580a10.363,10.363,0,0,1-3.554-.6,8.267,8.267,0,0,1-2.889-1.751,8.138,8.138,0,0,1-1.939-2.854,10.018,10.018,0,0,1-.709-3.888,9.687,9.687,0,0,1,.649-3.58,8.829,8.829,0,0,1,1.794-2.862,8.292,8.292,0,0,1,2.675-1.9,8.021,8.021,0,0,1,3.307-.683,8.655,8.655,0,0,1,3.264.606,7.381,7.381,0,0,1,2.606,1.761,8.325,8.325,0,0,1,1.744,2.853,11.78,11.78,0,0,1,.692,3.872q-1.932-.035-3.863-.052t-4.016-.017q-1.487,0-2.9.017t-2.538.052a13.174,13.174,0,0,0,.555,3.212,7.706,7.706,0,0,0,1.247,2.453,5.406,5.406,0,0,0,1.932,1.564,5.864,5.864,0,0,0,2.572.547,7.3,7.3,0,0,0,1.871-.232,6.54,6.54,0,0,0,1.6-.64,6.214,6.214,0,0,0,1.282-.966,6.175,6.175,0,0,0,.957-1.205l.205.1-1.265,3.041a10.584,10.584,0,0,1-2.2.813A12.376,12.376,0,0,1-131.87,580Zm-2.273-10.425q1.71,0,3.427-.009t3.119-.059a11.275,11.275,0,0,0-.581-2.666,6.85,6.85,0,0,0-1.094-2,4.649,4.649,0,0,0-1.572-1.264,4.471,4.471,0,0,0-2-.445,3.846,3.846,0,0,0-1.82.436,4.3,4.3,0,0,0-1.444,1.256,6.677,6.677,0,0,0-.991,2.008,10.519,10.519,0,0,0-.444,2.709q.768.035,1.623.034Z"/><path class="a" d="M-120.556,568.875q0-1.452-.043-2.537t-.1-1.871c-.04-.525-.091-.963-.153-1.317a9.017,9.017,0,0,0-.2-.888v-.069h3.948v.069a5.861,5.861,0,0,0-.23.957,13.9,13.9,0,0,0-.146,1.453q.632-.531,1.316-1.043a11.731,11.731,0,0,1,1.4-.906,8.439,8.439,0,0,1,1.462-.632,4.862,4.862,0,0,1,1.5-.239,6.47,6.47,0,0,1,.8.043,4.171,4.171,0,0,1,.615.119,4.156,4.156,0,0,1,.5.171q.222.094.427.179l-.837,3.265-.291-.068a2.258,2.258,0,0,0-.769-1.206,2.394,2.394,0,0,0-1.538-.453,3.617,3.617,0,0,0-1.111.188,6.725,6.725,0,0,0-1.179.521,11.693,11.693,0,0,0-1.2.77c-.4.29-.786.6-1.162.914-.023.331-.035.689-.035,1.076v5.641q0,1.45.035,2.537t.1,1.871c.046.524.1.964.154,1.316a7.9,7.9,0,0,0,.188.889v.068h-3.948v-.068a8.921,8.921,0,0,0,.2-.889c.062-.352.113-.792.153-1.316s.075-1.148.1-1.871.043-1.57.043-2.537Z"/><path class="a" d="M-95.434,568.175a7.236,7.236,0,0,0-.231-1.948,3.739,3.739,0,0,0-.666-1.359,2.732,2.732,0,0,0-1.051-.8,3.454,3.454,0,0,0-1.368-.264,3.746,3.746,0,0,0-1.145.205,8.644,8.644,0,0,0-1.307.556,12.877,12.877,0,0,0-1.35.811,13.024,13.024,0,0,0-1.273.991c-.023.366-.034.755-.034,1.171v5.478q0,1.45.034,2.537t.1,1.871c.046.524.1.964.154,1.316a7.9,7.9,0,0,0,.188.889v.068h-3.948v-.068a8.921,8.921,0,0,0,.2-.889c.062-.352.113-.792.153-1.316s.075-1.148.1-1.871.043-1.57.043-2.537v-4.137q0-1.452-.043-2.537t-.1-1.871c-.04-.525-.091-.963-.153-1.317a9.017,9.017,0,0,0-.2-.888v-.069h3.948v.069a5.086,5.086,0,0,0-.214,1q-.077.606-.162,1.529.684-.546,1.47-1.076a13.923,13.923,0,0,1,1.615-.941,11.2,11.2,0,0,1,1.666-.667,5.7,5.7,0,0,1,1.658-.255,5.4,5.4,0,0,1,1.726.255,4.436,4.436,0,0,1,1.316.7,4.224,4.224,0,0,1,.949,1.043,5.082,5.082,0,0,1,.589,1.281q.7-.6,1.53-1.188a14.437,14.437,0,0,1,1.709-1.05,10.868,10.868,0,0,1,1.794-.752,5.839,5.839,0,0,1,1.786-.291,5.071,5.071,0,0,1,2.264.461,4.358,4.358,0,0,1,1.521,1.213,4.82,4.82,0,0,1,.854,1.718,7.351,7.351,0,0,1,.266,1.957v5.811q0,1.45.034,2.537t.1,1.871c.046.524.1.964.163,1.316a8.956,8.956,0,0,0,.2.889v.068h-3.965v-.068a8.921,8.921,0,0,0,.2-.889c.062-.352.116-.792.162-1.316s.08-1.148.1-1.871.034-1.57.034-2.537v-4.837a5.035,5.035,0,0,0-.906-3.316,3.032,3.032,0,0,0-2.427-1.059,3.858,3.858,0,0,0-1.17.205,8.475,8.475,0,0,0-1.325.563,14.055,14.055,0,0,0-1.367.829,13.569,13.569,0,0,0-1.282,1,2.479,2.479,0,0,1,.035.411v6.2q0,1.45.042,2.537t.1,1.871c.04.524.091.964.154,1.316a8.953,8.953,0,0,0,.2.889v.068h-3.948v-.068a7.688,7.688,0,0,0,.188-.889c.057-.352.108-.792.154-1.316s.08-1.148.1-1.871.034-1.57.034-2.537Z"/><path class="a" d="M-75.8,568.875q0-1.452-.043-2.537t-.1-1.871c-.04-.525-.092-.963-.154-1.317s-.128-.649-.2-.888v-.069h3.947v.069a7.975,7.975,0,0,0-.188.888c-.057.354-.108.792-.154,1.317s-.08,1.147-.1,1.871-.034,1.569-.034,2.537v4.137q0,1.45.034,2.537t.1,1.871c.046.524.1.964.154,1.316a7.905,7.905,0,0,0,.188.889v.068h-3.947v-.068q.1-.359.2-.889c.062-.352.114-.792.154-1.316s.074-1.148.1-1.871.043-1.57.043-2.537Zm-.359-11.859a1.771,1.771,0,0,1,.145-.71,1.956,1.956,0,0,1,.385-.581,1.779,1.779,0,0,1,.572-.393,1.8,1.8,0,0,1,.727-.145,1.793,1.793,0,0,1,.726.145,1.876,1.876,0,0,1,.581.393,1.886,1.886,0,0,1,.393.581,1.755,1.755,0,0,1,.146.71,1.785,1.785,0,0,1-.53,1.315,1.785,1.785,0,0,1-1.316.53,1.8,1.8,0,0,1-.727-.145,1.765,1.765,0,0,1-.572-.394,1.931,1.931,0,0,1-.385-.581A1.805,1.805,0,0,1-76.157,557.016Z"/><path class="a" d="M-53.256,576.053l-1.265,3.043a8.239,8.239,0,0,1-1.06.375c-.4.114-.812.212-1.238.291s-.858.139-1.291.179-.843.06-1.23.06a11.613,11.613,0,0,1-3.82-.606,8.609,8.609,0,0,1-3.025-1.77,8.07,8.07,0,0,1-1.991-2.854,9.815,9.815,0,0,1-.718-3.862,8.606,8.606,0,0,1,.744-3.58,8.666,8.666,0,0,1,2.068-2.862,9.618,9.618,0,0,1,3.119-1.9,10.871,10.871,0,0,1,3.9-.683,14.054,14.054,0,0,1,2.051.162,13.915,13.915,0,0,1,1.948.419l1.214,2.905-.206.12a5.506,5.506,0,0,0-1.016-.966,6.6,6.6,0,0,0-1.3-.743,7.99,7.99,0,0,0-1.5-.478,7.468,7.468,0,0,0-1.606-.172,6.073,6.073,0,0,0-2.427.471,5.244,5.244,0,0,0-1.88,1.358,6.287,6.287,0,0,0-1.222,2.179,9.155,9.155,0,0,0-.435,2.931,13.41,13.41,0,0,0,.419,3.435,8.434,8.434,0,0,0,1.247,2.76A5.846,5.846,0,0,0-61.69,578.1a6.275,6.275,0,0,0,2.948.658,6.354,6.354,0,0,0,1.563-.2,6.519,6.519,0,0,0,1.47-.564,6.541,6.541,0,0,0,1.273-.88,5,5,0,0,0,.975-1.162Z"/><path class="a" d="M-46.916,573.712a5.066,5.066,0,0,0,.9,3.315,3,3,0,0,0,2.418,1.06,3.892,3.892,0,0,0,1.231-.231,9.684,9.684,0,0,0,1.41-.615,13.443,13.443,0,0,0,1.452-.9,12.044,12.044,0,0,0,1.342-1.094c.022-.33.034-.681.034-1.051v-5.324q0-1.452-.043-2.537t-.1-1.871c-.04-.525-.092-.963-.154-1.317s-.128-.649-.2-.888v-.069h3.947v.069a7.975,7.975,0,0,0-.188.888c-.057.354-.108.792-.153,1.317s-.081,1.147-.1,1.871-.034,1.569-.034,2.537v4.137q0,1.45.034,2.537t.1,1.871c.045.524.1.964.153,1.316a7.9,7.9,0,0,0,.188.889v.068h-3.947v-.068q.1-.426.213-1.094a15.679,15.679,0,0,0,.163-1.743q-.7.6-1.513,1.179a14.422,14.422,0,0,1-1.692,1.043,10.862,10.862,0,0,1-1.777.743,5.878,5.878,0,0,1-1.769.282,5.072,5.072,0,0,1-2.265-.461,4.336,4.336,0,0,1-1.52-1.214,4.806,4.806,0,0,1-.855-1.709,7.311,7.311,0,0,1-.265-1.965v-5.811q0-1.452-.034-2.537t-.1-1.871c-.046-.525-.1-.963-.154-1.317a7.977,7.977,0,0,0-.188-.888v-.069h3.947v.069a7.776,7.776,0,0,0-.187.888c-.058.354-.109.792-.154,1.317s-.08,1.147-.1,1.871-.034,1.569-.034,2.537Z"/><path class="a" d="M-29.809,560.826q0-1.452-.043-2.538t-.1-1.871c-.04-.523-.091-.963-.153-1.315a8.856,8.856,0,0,0-.2-.889v-.068h3.948v.068a7.855,7.855,0,0,0-.188.889c-.057.352-.108.792-.154,1.315s-.08,1.148-.1,1.871-.034,1.57-.034,2.538v12.186q0,1.45.034,2.537t.1,1.871c.046.524.1.964.154,1.316a7.905,7.905,0,0,0,.188.889v.068h-3.948v-.068a8.922,8.922,0,0,0,.2-.889c.062-.352.113-.792.153-1.316s.075-1.148.1-1.871.043-1.57.043-2.537Z"/><path class="a" d="M-15.283,578.686a2.877,2.877,0,0,0,1.017-.189,4.4,4.4,0,0,0,.974-.513,7.073,7.073,0,0,0,.906-.743,9.893,9.893,0,0,0,.812-.88l.171.085-1.111,2.751q-.206.1-.5.248a4.869,4.869,0,0,1-.718.274,7.74,7.74,0,0,1-.983.222,8.175,8.175,0,0,1-1.333.094,4.893,4.893,0,0,1-3.563-1.239,5.19,5.19,0,0,1-1.273-3.87v-11.4l-2.871.1v-1.5q.53.035,1.264.051t1.607.017q-.018-1.212-.06-2.144t-.1-1.624q-.062-.691-.146-1.171t-.171-.8v-.068h3.948v.068a6.677,6.677,0,0,0-.188.8q-.085.478-.145,1.162t-.1,1.615q-.042.931-.06,2.162,1.077-.015,2.111-.043t1.88-.068q.846-.042,1.435-.085t.778-.077l-.308,1.743q-.872-.017-1.828-.052-.82-.033-1.88-.05l-2.188-.035v11.758A5.322,5.322,0,0,0-17.684,577a2.751,2.751,0,0,0,.6,1.033,1.9,1.9,0,0,0,.836.514A3.453,3.453,0,0,0-15.283,578.686Z"/><path class="a" d="M-5.166,573.712a5.06,5.06,0,0,0,.9,3.315,3,3,0,0,0,2.418,1.06,3.891,3.891,0,0,0,1.23-.231,9.646,9.646,0,0,0,1.411-.615,13.64,13.64,0,0,0,1.452-.9,12.124,12.124,0,0,0,1.341-1.094c.023-.33.035-.681.035-1.051v-5.324q0-1.452-.043-2.537t-.1-1.871c-.04-.525-.091-.963-.153-1.317s-.129-.649-.2-.888v-.069H7.071v.069a7.545,7.545,0,0,0-.188.888c-.057.354-.109.792-.154,1.317s-.08,1.147-.1,1.871-.034,1.569-.034,2.537v4.137q0,1.45.034,2.537t.1,1.871c.045.524.1.964.154,1.316a7.483,7.483,0,0,0,.188.889v.068H3.123v-.068q.1-.426.213-1.094a15.209,15.209,0,0,0,.163-1.743q-.7.6-1.512,1.179A14.517,14.517,0,0,1,.294,579.01a10.789,10.789,0,0,1-1.777.743,5.872,5.872,0,0,1-1.768.282,5.072,5.072,0,0,1-2.265-.461,4.349,4.349,0,0,1-1.521-1.214,4.8,4.8,0,0,1-.854-1.709,7.311,7.311,0,0,1-.265-1.965v-5.811q0-1.452-.034-2.537t-.1-1.871c-.046-.525-.1-.963-.154-1.317a7.754,7.754,0,0,0-.188-.888v-.069h3.948v.069a7.975,7.975,0,0,0-.188.888c-.057.354-.108.792-.154,1.317s-.08,1.147-.1,1.871-.035,1.569-.035,2.537Z"/><path class="a" d="M11.839,568.875q0-1.452-.043-2.537t-.1-1.871c-.04-.525-.091-.963-.153-1.317a9.018,9.018,0,0,0-.2-.888v-.069h3.948v.069a5.861,5.861,0,0,0-.23.957,13.9,13.9,0,0,0-.146,1.453q.632-.531,1.316-1.043a11.731,11.731,0,0,1,1.4-.906,8.439,8.439,0,0,1,1.462-.632,4.862,4.862,0,0,1,1.5-.239,6.469,6.469,0,0,1,.8.043,4.086,4.086,0,0,1,1.111.29q.222.094.427.179l-.837,3.265-.291-.068a2.258,2.258,0,0,0-.769-1.206A2.394,2.394,0,0,0,19.5,563.9a3.617,3.617,0,0,0-1.111.188,6.758,6.758,0,0,0-1.179.521,11.692,11.692,0,0,0-1.2.77c-.4.29-.786.6-1.162.914-.023.331-.034.689-.034,1.076v5.641q0,1.45.034,2.537t.1,1.871c.046.524.1.964.154,1.316a7.905,7.905,0,0,0,.188.889v.068H11.343v-.068a8.922,8.922,0,0,0,.2-.889c.062-.352.113-.792.153-1.316s.075-1.148.1-1.871.043-1.57.043-2.537Z"/><path class="a" d="M33.218,580a10.363,10.363,0,0,1-3.554-.6,8.267,8.267,0,0,1-2.889-1.751,8.153,8.153,0,0,1-1.94-2.854,10.037,10.037,0,0,1-.709-3.888,9.687,9.687,0,0,1,.65-3.58,8.812,8.812,0,0,1,1.794-2.862,8.281,8.281,0,0,1,2.675-1.9,8.021,8.021,0,0,1,3.307-.683,8.655,8.655,0,0,1,3.264.606,7.38,7.38,0,0,1,2.606,1.761,8.325,8.325,0,0,1,1.744,2.853,11.754,11.754,0,0,1,.691,3.872q-1.93-.035-3.862-.052t-4.016-.017q-1.486,0-2.9.017t-2.539.052a13.22,13.22,0,0,0,.556,3.212,7.706,7.706,0,0,0,1.247,2.453,5.4,5.4,0,0,0,1.932,1.564,5.864,5.864,0,0,0,2.572.547,7.3,7.3,0,0,0,1.871-.232,6.54,6.54,0,0,0,1.6-.64,6.209,6.209,0,0,0,2.239-2.171l.205.1L38.5,578.855a10.572,10.572,0,0,1-2.205.813A12.362,12.362,0,0,1,33.218,580Zm-2.273-10.425q1.708,0,3.427-.009t3.119-.059a11.275,11.275,0,0,0-.581-2.666,6.85,6.85,0,0,0-1.094-2,4.649,4.649,0,0,0-1.572-1.264,4.471,4.471,0,0,0-2-.445,3.846,3.846,0,0,0-1.82.436,4.3,4.3,0,0,0-1.444,1.256,6.677,6.677,0,0,0-.991,2.008,10.561,10.561,0,0,0-.445,2.709q.769.035,1.624.034Z"/></g></g></svg>