<svg xmlns="http://www.w3.org/2000/svg" xmlns:xlink="http://www.w3.org/1999/xlink" width="301.359" height="287.182" viewBox="0 0 301.359 287.182"><defs><filter id="a" x="0" y="75.638" width="301.359" height="211.543" filterUnits="userSpaceOnUse"><feOffset dy="3" input="SourceAlpha"/><feGaussianBlur stdDeviation="30" result="b"/><feFlood flood-opacity="0.302"/><feComposite operator="in" in2="b"/><feComposite in="SourceGraphic"/></filter></defs><g transform="translate(-846 -625.768)"><g transform="translate(936 628)"><g transform="translate(0 0)"><g transform="translate(0 122.711)"><rect width="121.359" height="37.744" transform="translate(0.001)" fill="#603312"/><g transform="matrix(1, 0, 0, 1, -90, -124.94)" filter="url(#a)"><path d="M60.68,0l60.68,31.543H0Z" transform="translate(211.36 194.18) rotate(180)" fill="#603312"/></g></g><line x2="121.359" transform="translate(0.27 0.269)" fill="none" stroke="#603312" stroke-width="5" opacity="0.4"/><path d="M0,0H121.359V122.714H0Z" transform="translate(0.167)" fill="#603312" opacity="0.12"/></g></g><path d="M22.892-9.23a23.287,23.287,0,0,1,8.237,1.355,23.209,23.209,0,0,1,6.81,4.065L32.377,2.822A18.249,18.249,0,0,0,28.027.255,12.174,12.174,0,0,0,23.463-.6a9.072,9.072,0,0,0-7.88,4.207q-2.888,4.207-2.888,12.979,0,8.629,2.888,12.8a9.222,9.222,0,0,0,8.023,4.172,11.472,11.472,0,0,0,4.921-1.034A27.646,27.646,0,0,0,33.3,29.564l5.206,6.7a22.454,22.454,0,0,1-6.739,4.564,21.027,21.027,0,0,1-8.736,1.783,22.959,22.959,0,0,1-11.909-3,20.022,20.022,0,0,1-7.88-8.878A32.539,32.539,0,0,1,.429,16.585,31.091,31.091,0,0,1,3.317,2.679,20.644,20.644,0,0,1,11.3-6.2,22.242,22.242,0,0,1,22.892-9.23Z" transform="translate(977.571 678.146)" fill="#603312"/></g></svg>