<svg xmlns="http://www.w3.org/2000/svg" xmlns:xlink="http://www.w3.org/1999/xlink" width="301.359" height="287.182" viewBox="0 0 301.359 287.182"><defs><filter id="a" x="0" y="75.638" width="301.359" height="211.543" filterUnits="userSpaceOnUse"><feOffset dy="3" input="SourceAlpha"/><feGaussianBlur stdDeviation="30" result="b"/><feFlood flood-opacity="0.302"/><feComposite operator="in" in2="b"/><feComposite in="SourceGraphic"/></filter></defs><g transform="translate(-845.833 -625.768)"><g transform="translate(935.833 628)"><g transform="translate(0 0)"><g transform="translate(0 122.711)"><rect width="121.359" height="37.744" transform="translate(0.001)" fill="#f58220"/><g transform="matrix(1, 0, 0, 1, -90, -124.94)" filter="url(#a)"><path d="M60.68,0l60.68,31.543H0Z" transform="translate(211.36 194.18) rotate(180)" fill="#f58220"/></g></g><path d="M0,0H121.359" transform="translate(0.27 0.269)" fill="none" stroke="#f58220" stroke-width="5" opacity="0.4"/><path d="M0,0H121.359V122.714H0Z" transform="translate(0.167)" fill="#f58220" opacity="0.12"/><path d="M26.28-51.12A24.4,24.4,0,0,1,42.912-45l-5.976,6.264A21.583,21.583,0,0,0,32-41.652a14.078,14.078,0,0,0-5.22-.9A10.563,10.563,0,0,0,17.928-38.2q-3.312,4.356-3.312,13.212,0,9.576,2.52,13.572t7.848,4a13.856,13.856,0,0,0,6.768-1.656v-11.3h-6.48L24.12-28.728H43.2v24.7A32.327,32.327,0,0,1,34.632-.144a33.218,33.218,0,0,1-9.36,1.368q-11.376,0-17.136-6.66T2.376-24.984A29.735,29.735,0,0,1,5.508-39.1a21.623,21.623,0,0,1,8.568-8.964A24.443,24.443,0,0,1,26.28-51.12Z" transform="translate(37.791 86.12)" fill="#58595b"/></g></g></g></svg>