<svg xmlns="http://www.w3.org/2000/svg" width="36.475" height="36.475" viewBox="0 0 36.475 36.475"><g transform="translate(8.66 4.583)"><path d="M148.339,64.731a1.374,1.374,0,0,0-1.944,0L129.9,81.177l-5.95-6.462a1.375,1.375,0,0,0-2.023,1.862l6.919,7.514a1.373,1.373,0,0,0,.982.443h.029a1.376,1.376,0,0,0,.971-.4l17.5-17.458A1.374,1.374,0,0,0,148.339,64.731Z" transform="translate(-121.568 -64.327)"/></g><path d="M35.1,16.863a1.375,1.375,0,0,0-1.375,1.375A15.488,15.488,0,1,1,18.237,2.749a1.375,1.375,0,1,0,0-2.749A18.237,18.237,0,1,0,36.475,18.237,1.375,1.375,0,0,0,35.1,16.863Z"/></svg>