<svg xmlns="http://www.w3.org/2000/svg" width="12.625" height="16.069" viewBox="0 0 12.625 16.069"><defs><style>.a{fill:#069;}</style></defs><g transform="translate(-5 -2)"><path class="a" d="M14.016,10.775a.574.574,0,0,1,0,.815l-2.3,2.3a.574.574,0,0,1-.815,0l-2.3-2.3a.576.576,0,1,1,.815-.815l1.314,1.32V7.739a.574.574,0,0,1,1.148,0v4.356l1.314-1.32a.574.574,0,0,1,.815,0Zm3.61-4.344v9.917A1.722,1.722,0,0,1,15.9,18.069H6.722A1.722,1.722,0,0,1,5,16.347V3.722A1.722,1.722,0,0,1,6.722,2h6.921a1.722,1.722,0,0,1,1.326.62l2.255,2.709a1.722,1.722,0,0,1,.4,1.1ZM14.182,3.469v1.4a.574.574,0,0,0,.574.574h1.067Zm2.3,3.122H14.756a1.722,1.722,0,0,1-1.722-1.722V3.148H6.722a.574.574,0,0,0-.574.574V16.347a.574.574,0,0,0,.574.574H15.9a.574.574,0,0,0,.574-.574Z"/></g></svg>