<svg xmlns="http://www.w3.org/2000/svg" width="459.653" height="297.896" viewBox="0 0 459.653 297.896"><defs><style>.a,.c{fill:#ece8e2;}.a{opacity:0.3;}.b{fill:#e6e6e6;}.d{fill:#14244d;}.e{fill:#404040;}.f{fill:#fff;}.g{fill:#87b1e0;}.h{fill:#b7202e;}</style></defs><g transform="translate(-604.419 -595.679)"><circle class="a" cx="148.168" cy="148.168" r="148.168" transform="translate(685.011 597.238)"/><circle class="b" cx="122.974" cy="122.974" r="122.974" transform="translate(710.205 622.432)"/><path class="c" d="M773.973,879.012h-.019q-.535-.02-1.069-.042a.533.533,0,0,1,.045-1.066c.354.015.708.03,1.062.042a.533.533,0,0,1-.019,1.066Z"/><path class="c" d="M769.717,878.8h-.035c-.7-.045-1.42-.095-2.129-.149a.533.533,0,0,1,.081-1.063c.705.054,1.416.1,2.116.148a.533.533,0,0,1-.033,1.065Zm-5.3-.424a.457.457,0,0,1-.052,0c-.7-.068-1.419-.142-2.123-.219a.533.533,0,0,1,.116-1.06c.7.077,1.41.15,2.11.218a.533.533,0,0,1-.051,1.063Zm-5.286-.6a.534.534,0,0,1-.069-.005c-.7-.091-1.414-.188-2.116-.288a.533.533,0,0,1,.151-1.055c.7.1,1.4.2,2.1.286a.533.533,0,0,1-.068,1.062Zm-5.265-.769a.514.514,0,0,1-.086-.007c-.7-.114-1.407-.233-2.1-.356a.533.533,0,0,1,.184-1.05c.694.122,1.4.241,2.092.354a.533.533,0,0,1-.085,1.059Zm-5.238-.937a.611.611,0,0,1-.1-.01c-.692-.136-1.4-.278-2.093-.423a.533.533,0,0,1,.218-1.044c.692.144,1.392.286,2.08.42a.533.533,0,0,1-.1,1.057Zm-5.207-1.1a.54.54,0,0,1-.119-.013c-.691-.158-1.39-.323-2.079-.489a.533.533,0,0,1,.25-1.036c.685.165,1.38.329,2.066.485a.533.533,0,0,1-.118,1.053Zm-5.17-1.267a.533.533,0,0,1-.136-.017c-.688-.18-1.382-.366-2.063-.554a.533.533,0,0,1,.283-1.028c.677.186,1.367.372,2.05.551a.533.533,0,0,1-.134,1.048Zm-5.129-1.428a.525.525,0,0,1-.151-.022c-.681-.2-1.369-.408-2.046-.617a.533.533,0,1,1,.315-1.019c.673.208,1.357.414,2.033.614a.533.533,0,0,1-.151,1.044Zm-5.083-1.587a.535.535,0,0,1-.167-.027c-.671-.221-1.352-.45-2.025-.682a.533.533,0,1,1,.346-1.008c.669.23,1.346.458,2.013.677a.534.534,0,0,1-.167,1.04ZM723,868.943a.536.536,0,0,1-.183-.033c-.666-.243-1.34-.493-2-.744a.533.533,0,0,1,.377-1c.659.249,1.329.5,1.991.739a.534.534,0,0,1-.182,1.035Zm-4.976-1.9a.533.533,0,0,1-.2-.039c-.658-.263-1.325-.534-1.98-.806a.533.533,0,0,1,.409-.985c.651.27,1.313.54,1.967.8a.534.534,0,0,1-.2,1.029Zm-4.915-2.056a.516.516,0,0,1-.213-.045c-.651-.284-1.308-.576-1.954-.868a.533.533,0,1,1,.439-.971c.642.29,1.295.58,1.941.862a.533.533,0,0,1-.213,1.022Zm-4.849-2.209a.534.534,0,0,1-.229-.051c-.641-.3-1.289-.617-1.926-.929a.534.534,0,1,1,.47-.958c.633.311,1.277.621,1.914.924a.533.533,0,0,1-.229,1.014Zm-4.778-2.36a.53.53,0,0,1-.243-.059c-.634-.326-1.272-.659-1.9-.99a.533.533,0,1,1,.5-.942c.62.329,1.254.66,1.884.983a.534.534,0,0,1-.244,1.008Zm-4.7-2.512a.524.524,0,0,1-.258-.067c-.619-.343-1.246-.7-1.864-1.05a.533.533,0,0,1,.529-.925c.614.351,1.237.7,1.852,1.043a.533.533,0,0,1-.259,1Zm360.251-2.049h-.019c-.715-.025-1.432-.055-2.132-.087a.533.533,0,1,1,.049-1.065c.7.032,1.41.061,2.121.086a.533.533,0,0,1-.019,1.066Zm-5.312-.262h-.034c-.707-.045-1.423-.094-2.127-.147a.533.533,0,1,1,.08-1.063c.7.052,1.411.1,2.114.146a.533.533,0,0,1-.033,1.065Zm-359.558-.35a.533.533,0,0,1-.273-.075c-.614-.368-1.23-.741-1.829-1.11a.533.533,0,0,1,.559-.908c.6.367,1.207.738,1.817,1.1a.533.533,0,0,1-.274.99Zm354.258-.064-.05,0c-.705-.066-1.419-.137-2.121-.211a.533.533,0,0,1,.112-1.06c.7.074,1.407.144,2.108.209a.533.533,0,0,1-.049,1.064Zm-5.283-.574a.5.5,0,0,1-.067,0c-.708-.088-1.419-.182-2.114-.277a.533.533,0,0,1,.146-1.056c.69.1,1.4.187,2.1.275a.533.533,0,0,1-.065,1.062Zm-5.262-.743a.588.588,0,0,1-.084-.006c-.705-.112-1.413-.229-2.1-.348a.533.533,0,0,1,.181-1.05c.686.118,1.389.234,2.089.345a.533.533,0,0,1-.082,1.059Zm-5.233-.92a.52.52,0,0,1-.1-.01c-.7-.136-1.4-.277-2.09-.421a.533.533,0,0,1,.219-1.044c.684.143,1.382.284,2.075.418a.533.533,0,0,1-.1,1.057Zm-343.01-.508a.533.533,0,0,1-.288-.085c-.6-.384-1.2-.778-1.792-1.169a.533.533,0,0,1,.589-.889c.588.389,1.187.78,1.78,1.161a.533.533,0,0,1-.289.982Zm337.813-.6a.513.513,0,0,1-.122-.014c-.69-.16-1.388-.328-2.073-.5a.533.533,0,1,1,.258-1.034c.68.169,1.372.335,2.057.495a.533.533,0,0,1-.12,1.052Zm-5.151-1.3a.532.532,0,0,1-.141-.019c-.688-.189-1.379-.384-2.052-.581a.533.533,0,1,1,.3-1.023c.669.2,1.354.389,2.036.576a.533.533,0,0,1-.141,1.047Zm-337.1-1.054a.528.528,0,0,1-.3-.094c-.583-.4-1.173-.816-1.752-1.228a.533.533,0,1,1,.617-.869c.576.409,1.162.82,1.741,1.22a.533.533,0,0,1-.3.971Zm332-.456a.537.537,0,0,1-.162-.026c-.676-.216-1.358-.44-2.027-.667a.533.533,0,0,1,.342-1.01c.664.225,1.34.448,2.009.662a.533.533,0,0,1-.162,1.041Zm-5.025-1.728a.52.52,0,0,1-.185-.033c-.67-.247-1.341-.5-2-.756a.533.533,0,0,1,.387-.994c.649.253,1.314.505,1.978.75a.533.533,0,0,1-.184,1.033Zm-331.313-.919a.535.535,0,0,1-.317-.105c-.572-.425-1.148-.858-1.71-1.287a.533.533,0,1,1,.647-.848c.558.427,1.13.857,1.7,1.278a.534.534,0,0,1-.318.962Zm326.37-1.034a.525.525,0,0,1-.208-.042c-.654-.276-1.313-.562-1.959-.85a.533.533,0,0,1,.434-.974c.64.285,1.292.568,1.94.842a.533.533,0,0,1-.207,1.024Zm-4.846-2.187a.533.533,0,0,1-.231-.053c-.641-.309-1.285-.627-1.916-.947a.533.533,0,0,1,.482-.951c.624.316,1.263.632,1.9.937a.533.533,0,0,1-.232,1.014Zm-325.751-.028a.533.533,0,0,1-.332-.116c-.556-.443-1.116-.895-1.665-1.345a.533.533,0,0,1,.676-.825c.545.447,1.1.9,1.653,1.336a.533.533,0,0,1-.332.95Zm321.021-2.4a.538.538,0,0,1-.256-.065c-.625-.342-1.253-.694-1.865-1.046a.533.533,0,1,1,.531-.925c.606.349,1.227.7,1.846,1.035a.533.533,0,0,1-.256,1Zm-325.133-.991a.528.528,0,0,1-.346-.128c-.539-.46-1.083-.932-1.617-1.4a.533.533,0,1,1,.7-.8c.531.466,1.071.935,1.606,1.392a.533.533,0,0,1-.347.938Zm320.535-1.686a.521.521,0,0,1-.28-.08c-.608-.376-1.216-.762-1.808-1.147a.533.533,0,0,1,.582-.894c.585.381,1.186.763,1.787,1.135a.533.533,0,0,1-.281.986ZM668.537,836.2a.533.533,0,0,1-.361-.14c-.523-.48-1.05-.971-1.566-1.459a.533.533,0,0,1,.733-.775c.512.485,1.035.972,1.554,1.449a.532.532,0,0,1-.36.925Zm320.08-1.078a.534.534,0,0,1-.306-.1c-.584-.409-1.17-.829-1.741-1.249a.533.533,0,0,1,.631-.859c.565.415,1.144.83,1.722,1.235a.533.533,0,0,1-.306.97Zm-323.941-2.6a.533.533,0,0,1-.374-.153c-.505-.5-1.013-1.008-1.512-1.515a.533.533,0,1,1,.76-.747c.495.5,1,1.009,1.5,1.5a.532.532,0,0,1-.375.912Zm319.667-.583a.531.531,0,0,1-.33-.114c-.561-.443-1.122-.9-1.667-1.35a.533.533,0,0,1,.68-.821c.54.448,1.094.9,1.648,1.334a.533.533,0,0,1-.331.951Zm-323.39-3.23a.53.53,0,0,1-.388-.167c-.486-.516-.975-1.044-1.455-1.569a.533.533,0,1,1,.787-.72c.476.522.962,1.046,1.444,1.558a.532.532,0,0,1-.388.9Zm319.308-.2a.531.531,0,0,1-.355-.135c-.531-.474-1.065-.962-1.585-1.449a.533.533,0,1,1,.729-.778c.514.481,1.041.963,1.566,1.431a.533.533,0,0,1-.355.931ZM657.053,825.2c-.187,0-.375,0-.562,0a.533.533,0,0,1,.008-1.066h.088c-.339-.392-.677-.787-1.008-1.178a.533.533,0,1,1,.814-.689c.453.536.919,1.078,1.384,1.611a.523.523,0,0,1,.121.249c.237-.006.474-.014.708-.024a.533.533,0,0,1,.046,1.065C658.124,825.191,657.586,825.2,657.053,825.2Zm-3.743-.187-.053,0c-.711-.07-1.431-.162-2.142-.272a.533.533,0,0,1,.163-1.054c.692.108,1.393.2,2.084.265a.533.533,0,0,1-.052,1.064Zm8.5-.129a.533.533,0,0,1-.071-1.062c.7-.094,1.391-.211,2.066-.347a.533.533,0,1,1,.211,1.045c-.7.14-1.415.261-2.133.359A.613.613,0,0,1,661.81,824.887Zm314.579-.044a.534.534,0,0,1-.378-.157c-.5-.506-1.006-1.026-1.5-1.544a.533.533,0,0,1,.775-.733c.484.512.982,1.025,1.478,1.525a.533.533,0,0,1-.378.909Zm-328.328-.711a.578.578,0,0,1-.123-.014c-.7-.166-1.4-.353-2.086-.556a.533.533,0,0,1,.3-1.023c.671.2,1.354.38,2.032.541a.533.533,0,0,1-.124,1.052Zm18.945-.387a.533.533,0,0,1-.158-1.042c.668-.207,1.333-.44,1.974-.69a.533.533,0,1,1,.388.993c-.665.26-1.353.5-2.046.715A.511.511,0,0,1,667.006,823.745Zm-24.03-1.187a.533.533,0,0,1-.191-.035c-.67-.258-1.341-.536-1.994-.828a.533.533,0,0,1,.435-.974c.636.285,1.289.556,1.941.806a.533.533,0,0,1-.191,1.031Zm28.946-.843a.533.533,0,0,1-.25-1.005c.617-.325,1.224-.678,1.806-1.047a.533.533,0,0,1,.571.9c-.605.384-1.237.75-1.879,1.089A.527.527,0,0,1,671.922,821.715Zm300.827-.767a.534.534,0,0,1-.4-.182c-.468-.533-.936-1.08-1.391-1.626a.533.533,0,1,1,.818-.683c.45.539.912,1.08,1.374,1.606a.533.533,0,0,1-.4.885Zm-318.8-.267a.53.53,0,0,1-.415-.2c-.447-.553-.894-1.116-1.331-1.674a.533.533,0,1,1,.84-.657c.434.554.878,1.113,1.32,1.662a.534.534,0,0,1-.414.868Zm-15.8-.363a.532.532,0,0,1-.257-.066c-.632-.348-1.258-.717-1.863-1.1a.533.533,0,0,1,.567-.9c.587.368,1.2.727,1.811,1.065a.533.533,0,0,1-.258,1Zm38.205-1.542a.534.534,0,0,1-.338-.946c.536-.44,1.059-.907,1.556-1.39a.534.534,0,0,1,.743.766c-.518.5-1.064.99-1.623,1.448A.528.528,0,0,1,676.352,818.776Zm-42.671-1.348a.532.532,0,0,1-.318-.1c-.568-.422-1.139-.864-1.7-1.314a.533.533,0,0,1,.668-.831c.55.442,1.11.876,1.667,1.29a.532.532,0,0,1-.318.96Zm335.687-.589a.53.53,0,0,1-.423-.208c-.434-.564-.867-1.14-1.287-1.714a.533.533,0,1,1,.861-.629c.414.566.842,1.136,1.271,1.693a.533.533,0,0,1-.422.858Zm-318.68-.367a.531.531,0,0,1-.428-.215c-.424-.57-.849-1.15-1.263-1.725a.533.533,0,1,1,.865-.623c.411.57.833,1.146,1.253,1.711a.533.533,0,0,1-.109.746A.526.526,0,0,1,650.688,816.472ZM680.094,815a.533.533,0,0,1-.414-.869c.435-.536.856-1.1,1.251-1.671a.533.533,0,1,1,.877.606c-.41.594-.848,1.179-1.3,1.736A.535.535,0,0,1,680.094,815Zm-50.53-.941a.533.533,0,0,1-.356-.136c-.527-.473-1.056-.964-1.572-1.461a.533.533,0,1,1,.739-.768c.507.488,1.027.971,1.545,1.436a.533.533,0,0,1-.356.929Zm336.691-1.532a.532.532,0,0,1-.442-.236c-.4-.588-.791-1.189-1.174-1.787a.533.533,0,1,1,.9-.574c.377.59.767,1.185,1.159,1.765a.534.534,0,0,1-.442.832Zm-318.66-.387a.534.534,0,0,1-.441-.232c-.4-.588-.8-1.185-1.193-1.776a.533.533,0,0,1,.89-.587c.387.586.785,1.178,1.183,1.761a.533.533,0,0,1-.439.834Zm35.437-1.57a.534.534,0,0,1-.469-.786c.325-.606.636-1.238.923-1.877a.533.533,0,1,1,.972.437c-.3.661-.619,1.316-.956,1.945A.533.533,0,0,1,683.032,810.568Zm-57.275-.23a.532.532,0,0,1-.388-.167c-.486-.515-.973-1.048-1.447-1.583a.533.533,0,1,1,.8-.707c.467.527.946,1.051,1.425,1.558a.534.534,0,0,1-.388.9Zm337.664-2.311a.533.533,0,0,1-.46-.264c-.359-.61-.716-1.236-1.061-1.857a.533.533,0,1,1,.932-.518c.341.614.694,1.232,1.048,1.835a.534.534,0,0,1-.459.8Zm-318.719-.36a.532.532,0,0,1-.459-.263c-.361-.611-.715-1.243-1.054-1.876a.533.533,0,1,1,.94-.5c.332.621.679,1.239,1.032,1.838a.534.534,0,0,1-.459.8Zm-22.446-1.339a.532.532,0,0,1-.414-.2c-.446-.551-.892-1.119-1.325-1.687a.533.533,0,1,1,.848-.647c.427.561.866,1.12,1.306,1.663a.534.534,0,0,1-.415.869Zm62.878-.647a.534.534,0,0,1-.506-.7c.219-.653.423-1.329.607-2.009a.533.533,0,0,1,1.029.277c-.189.7-.4,1.4-.625,2.071A.533.533,0,0,1,685.134,805.681Zm275.733-2.32a.533.533,0,0,1-.476-.291c-.321-.633-.641-1.278-.948-1.919a.533.533,0,1,1,.961-.461c.3.633.619,1.271.938,1.9a.534.534,0,0,1-.475.775Zm-318.628-.413a.534.534,0,0,1-.485-.31c-.3-.646-.587-1.309-.861-1.971a.533.533,0,1,1,.984-.408c.27.649.554,1.3.846,1.933a.534.534,0,0,1-.484.756Zm-23.18-.878a.532.532,0,0,1-.437-.228c-.406-.583-.811-1.18-1.2-1.777a.533.533,0,0,1,.891-.585c.387.588.786,1.177,1.186,1.752a.533.533,0,0,1-.437.838Zm67.391-1.547a.516.516,0,0,1-.1-.009.532.532,0,0,1-.429-.619c.123-.68.232-1.38.323-2.08a.533.533,0,1,1,1.057.138c-.093.718-.2,1.435-.331,2.132A.533.533,0,0,1,686.45,800.523Zm272.144-1.973a.533.533,0,0,1-.489-.32c-.285-.651-.566-1.314-.835-1.971a.533.533,0,1,1,.986-.4c.267.65.545,1.306.826,1.949a.533.533,0,0,1-.275.7A.541.541,0,0,1,958.594,798.55Zm-318.349-.538a.534.534,0,0,1-.5-.357c-.236-.673-.463-1.36-.674-2.042a.533.533,0,0,1,1.018-.316c.208.67.43,1.345.662,2.005a.533.533,0,0,1-.327.679A.519.519,0,0,1,640.245,798.012Zm-24.08-.413a.534.534,0,0,1-.458-.258c-.366-.61-.729-1.234-1.08-1.854a.534.534,0,0,1,.929-.525c.346.613.7,1.228,1.065,1.83a.532.532,0,0,1-.456.807Zm70.911-2.364h-.032a.534.534,0,0,1-.5-.564c.041-.691.068-1.4.08-2.107a.533.533,0,0,1,1.066.018c-.012.722-.039,1.447-.081,2.153A.533.533,0,0,1,687.076,795.235ZM956.6,793.614a.533.533,0,0,1-.5-.347c-.247-.666-.491-1.344-.724-2.015a.533.533,0,0,1,1.008-.349c.23.664.471,1.334.716,1.992a.532.532,0,0,1-.5.719Zm-343.024-.67a.534.534,0,0,1-.475-.29c-.326-.635-.647-1.282-.955-1.923a.533.533,0,0,1,.962-.461c.3.632.62,1.271.942,1.9a.534.534,0,0,1-.474.777Zm25.136-.032a.533.533,0,0,1-.517-.4c-.174-.692-.339-1.4-.488-2.093a.533.533,0,1,1,1.042-.224c.147.685.309,1.376.48,2.056a.533.533,0,0,1-.386.647A.5.5,0,0,1,638.712,792.912Zm48.4-3a.533.533,0,0,1-.532-.51c-.03-.694-.074-1.4-.13-2.107a.533.533,0,0,1,1.063-.085c.057.717.1,1.439.132,2.146a.535.535,0,0,1-.51.556Zm267.769-1.334a.534.534,0,0,1-.509-.374c-.21-.676-.417-1.366-.614-2.051a.533.533,0,1,1,1.024-.3c.2.678.4,1.361.609,2.03a.533.533,0,0,1-.351.667A.516.516,0,0,1,954.881,788.575Zm-343.579-.45a.532.532,0,0,1-.49-.322c-.283-.656-.561-1.323-.825-1.984a.533.533,0,0,1,.99-.395c.261.651.534,1.309.814,1.957a.533.533,0,0,1-.489.744Zm26.337-.43a.534.534,0,0,1-.526-.449c-.112-.706-.213-1.422-.3-2.129a.533.533,0,0,1,1.059-.13c.085.694.185,1.4.3,2.091a.531.531,0,0,1-.442.61A.487.487,0,0,1,637.639,787.7Zm49.005-3.09a.535.535,0,0,1-.528-.464c-.091-.691-.2-1.394-.311-2.09a.533.533,0,1,1,1.052-.174c.117.707.223,1.422.316,2.125a.533.533,0,0,1-.459.6A.54.54,0,0,1,686.644,784.6Zm266.787-1.153a.533.533,0,0,1-.516-.4c-.175-.684-.346-1.384-.509-2.08a.533.533,0,1,1,1.038-.243c.162.689.331,1.382.5,2.059a.533.533,0,0,1-.384.648A.559.559,0,0,1,953.431,783.452Zm-344.073-.289a.533.533,0,0,1-.5-.356c-.238-.674-.468-1.359-.684-2.034a.533.533,0,1,1,1.015-.326c.213.666.44,1.341.674,2.006a.534.534,0,0,1-.5.71Zm27.679-.76a.534.534,0,0,1-.532-.5c-.048-.714-.084-1.437-.106-2.148a.533.533,0,0,1,1.066-.033c.021.7.056,1.407.1,2.109a.533.533,0,0,1-.495.568Zm48.7-3.045a.533.533,0,0,1-.52-.422c-.146-.683-.306-1.376-.474-2.06a.533.533,0,1,1,1.035-.255c.171.7.333,1.4.481,2.092a.534.534,0,0,1-.522.645Zm266.508-1.1a.532.532,0,0,1-.522-.427c-.141-.694-.279-1.4-.407-2.1a.533.533,0,1,1,1.048-.193c.128.694.264,1.394.4,2.081a.533.533,0,0,1-.416.629A.544.544,0,0,1,952.242,778.261Zm-344.472-.183a.532.532,0,0,1-.514-.393q-.105-.386-.206-.771c-.113-.435-.223-.875-.327-1.308a.533.533,0,1,1,1.036-.25c.1.427.212.86.323,1.289q.1.381.2.76a.533.533,0,0,1-.374.655A.565.565,0,0,1,607.77,778.078Zm29.155-1h-.014a.534.534,0,0,1-.519-.547c.019-.717.053-1.44.1-2.15a.533.533,0,1,1,1.063.071c-.046.7-.079,1.4-.1,2.107A.533.533,0,0,1,636.925,777.079Zm47.493-2.881a.535.535,0,0,1-.511-.38c-.2-.673-.42-1.349-.647-2.01a.533.533,0,0,1,1.009-.346c.231.674.453,1.363.659,2.048a.533.533,0,0,1-.356.665A.552.552,0,0,1,684.418,774.2ZM951.3,773.019a.534.534,0,0,1-.526-.452c-.108-.7-.212-1.41-.308-2.117a.533.533,0,1,1,1.056-.144c.1.7.2,1.407.306,2.1a.533.533,0,0,1-.445.608A.472.472,0,0,1,951.3,773.019Zm-344.751-.125a.533.533,0,0,1-.522-.429c-.139-.7-.271-1.406-.392-2.109a.533.533,0,0,1,1.051-.181c.119.694.249,1.394.386,2.081a.536.536,0,0,1-.523.638Zm30.8-1.12a.556.556,0,0,1-.081-.006.533.533,0,0,1-.447-.607c.107-.708.246-1.426.413-2.134a.533.533,0,0,1,1.038.245c-.161.68-.294,1.369-.4,2.049A.533.533,0,0,1,637.348,771.774Zm45.293-2.6a.535.535,0,0,1-.494-.331c-.267-.654-.55-1.3-.839-1.935a.533.533,0,1,1,.969-.445c.3.644.584,1.308.857,1.976a.533.533,0,0,1-.493.735Zm267.966-1.437a.533.533,0,0,1-.529-.475c-.077-.706-.149-1.422-.214-2.129a.533.533,0,0,1,1.062-.1c.064.7.135,1.41.212,2.11a.534.534,0,0,1-.472.588Zm-344.924-.1a.532.532,0,0,1-.528-.463c-.093-.705-.179-1.421-.254-2.129a.533.533,0,1,1,1.061-.113c.074.7.158,1.407.25,2.1a.534.534,0,0,1-.459.6A.56.56,0,0,1,605.683,767.639Zm32.984-1.016a.533.533,0,0,1-.5-.715c.245-.675.519-1.351.816-2.011a.533.533,0,1,1,.972.438c-.285.635-.55,1.287-.786,1.937A.532.532,0,0,1,638.667,766.623Zm41.7-2.262a.534.534,0,0,1-.469-.279c-.338-.622-.691-1.236-1.049-1.823a.533.533,0,1,1,.91-.555c.367.6.729,1.231,1.076,1.869a.534.534,0,0,1-.468.788Zm269.78-1.927a.533.533,0,0,1-.531-.5c-.047-.708-.088-1.426-.123-2.135a.533.533,0,0,1,1.065-.052c.034.7.075,1.415.122,2.117a.534.534,0,0,1-.5.567Zm-344.99-.094a.533.533,0,0,1-.531-.5c-.049-.707-.089-1.427-.12-2.14a.533.533,0,1,1,1.065-.047c.031.705.071,1.416.118,2.114a.534.534,0,0,1-.495.569Zm35.783-.529a.521.521,0,0,1-.27-.074.532.532,0,0,1-.188-.73c.366-.621.76-1.235,1.17-1.827a.533.533,0,0,1,.876.607c-.4.571-.775,1.163-1.128,1.762A.531.531,0,0,1,640.937,761.811Zm36.594-1.954a.533.533,0,0,1-.432-.218c-.417-.573-.851-1.129-1.288-1.655a.534.534,0,0,1,.821-.682c.451.543.9,1.118,1.329,1.708a.534.534,0,0,1-.117.745A.527.527,0,0,1,677.531,759.857Zm-33.478-2.36a.534.534,0,0,1-.4-.885c.479-.546.982-1.077,1.495-1.576a.533.533,0,0,1,.744.763c-.493.481-.977.99-1.438,1.516A.532.532,0,0,1,644.053,757.5Zm305.852-.382a.533.533,0,0,1-.533-.52c-.017-.7-.029-1.424-.035-2.137a.534.534,0,0,1,.529-.537h0a.533.533,0,0,1,.533.528c.005.708.017,1.421.034,2.12a.532.532,0,0,1-.52.546Zm-344.95-.1a.534.534,0,0,1-.534-.529q0-.339,0-.678c0-.485,0-.978.012-1.465a.532.532,0,0,1,.532-.525h.009a.534.534,0,0,1,.525.542c-.008.481-.012.969-.012,1.448q0,.335,0,.67a.534.534,0,0,1-.53.537Zm69.1-1.188a.531.531,0,0,1-.371-.151c-.506-.49-1.029-.958-1.554-1.391a.533.533,0,1,1,.677-.823c.548.451,1.093.938,1.619,1.449a.533.533,0,0,1-.371.916Zm-26.109-1.962a.533.533,0,0,1-.321-.959c.584-.44,1.189-.854,1.8-1.231a.534.534,0,0,1,.562.907c-.581.359-1.159.755-1.718,1.175A.526.526,0,0,1,647.945,753.868Zm21.925-1.314a.533.533,0,0,1-.278-.079,20.334,20.334,0,0,0-1.821-.992.533.533,0,0,1,.461-.962,21.436,21.436,0,0,1,1.917,1.045.533.533,0,0,1-.279.988Zm280.012-.762h-.008a.532.532,0,0,1-.525-.541c.011-.708.027-1.428.049-2.138a.533.533,0,1,1,1.066.033c-.022.705-.038,1.419-.049,2.121A.534.534,0,0,1,949.882,751.792Zm-344.812-.1h-.027a.532.532,0,0,1-.505-.559c.035-.708.08-1.427.131-2.139a.533.533,0,1,1,1.064.078c-.052.7-.095,1.414-.131,2.114A.533.533,0,0,1,605.07,751.693Zm47.464-.506a.534.534,0,0,1-.211-1.024,20.287,20.287,0,0,1,2.053-.753.533.533,0,0,1,.312,1.019,19.441,19.441,0,0,0-1.944.714A.525.525,0,0,1,652.534,751.187Zm12.489-.793a.507.507,0,0,1-.149-.022,18.743,18.743,0,0,0-2.015-.465.533.533,0,1,1,.182-1.05,19.386,19.386,0,0,1,2.13.492.533.533,0,0,1-.148,1.045Zm-7.376-.612a.533.533,0,0,1-.065-1.062,18.423,18.423,0,0,1,2.187-.142h0a.533.533,0,0,1,0,1.066,17.549,17.549,0,0,0-2.06.134A.5.5,0,0,1,657.647,749.782Zm292.42-3.313h-.029a.533.533,0,0,1-.5-.561c.038-.71.083-1.428.132-2.135a.533.533,0,1,1,1.063.074c-.048.7-.092,1.414-.13,2.118A.534.534,0,0,1,950.067,746.469Zm-344.581-.085a.54.54,0,0,1-.057,0,.533.533,0,0,1-.474-.586c.075-.7.158-1.419.248-2.128a.533.533,0,0,1,1.058.135c-.089.7-.172,1.409-.246,2.1A.532.532,0,0,1,605.486,746.384Zm344.968-5.226-.049,0a.533.533,0,0,1-.482-.579c.065-.708.136-1.424.211-2.128a.533.533,0,1,1,1.06.113c-.075.7-.145,1.409-.21,2.112A.533.533,0,0,1,950.454,741.158ZM606.185,741.1a.609.609,0,0,1-.084-.006.533.533,0,0,1-.443-.61c.112-.7.232-1.412.358-2.112a.533.533,0,0,1,1.049.189c-.124.693-.244,1.4-.354,2.09A.532.532,0,0,1,606.185,741.1Zm.968-5.237a.523.523,0,0,1-.111-.011.534.534,0,0,1-.412-.632c.146-.693.3-1.4.461-2.09a.533.533,0,0,1,1.039.239c-.158.687-.312,1.384-.456,2.071A.534.534,0,0,1,607.153,735.867Zm343.885,0a.53.53,0,0,1-.529-.6c.07-.545.145-1.1.222-1.648l.066-.471a.533.533,0,0,1,1.056.152c-.023.155-.045.311-.066.467-.077.545-.151,1.095-.221,1.636A.533.533,0,0,1,951.038,735.864Zm-101.052-4.119a.533.533,0,1,1,0-1.066q1.063,0,2.127-.01h0a.533.533,0,0,1,0,1.066q-1.066.009-2.134.01Zm-3.2-.012h-.005c-.711-.006-1.429-.014-2.134-.025a.533.533,0,1,1,.016-1.066q1.063.016,2.127.025a.533.533,0,0,1,0,1.066Zm8.522-.04a.533.533,0,0,1-.01-1.066c.708-.013,1.424-.028,2.127-.046a.533.533,0,1,1,.026,1.066c-.705.018-1.423.033-2.133.046Zm-13.848-.05h-.014c-.708-.018-1.426-.038-2.133-.061a.533.533,0,1,1,.034-1.066c.705.023,1.421.044,2.126.061a.534.534,0,0,1-.013,1.067Zm19.172-.091a.533.533,0,0,1-.018-1.066c.708-.025,1.423-.052,2.125-.082a.533.533,0,0,1,.045,1.066c-.705.029-1.423.057-2.133.081Zm-24.495-.09h-.023c-.708-.03-1.425-.063-2.132-.1a.533.533,0,1,1,.052-1.064c.705.034,1.42.067,2.125.1a.533.533,0,0,1-.022,1.065Zm29.817-.141a.533.533,0,0,1-.027-1.066c.707-.036,1.422-.076,2.123-.117a.533.533,0,1,1,.063,1.065c-.7.041-1.421.08-2.131.117Zm-35.137-.128h-.032c-.7-.042-1.421-.087-2.13-.133a.533.533,0,0,1,.07-1.064c.707.046,1.421.091,2.123.132a.533.533,0,0,1-.031,1.066ZM871.276,731a.533.533,0,0,1-.036-1.065c.707-.049,1.42-.1,2.121-.153a.533.533,0,1,1,.08,1.063c-.7.053-1.419.1-2.128.153Zm-45.768-.167-.041,0c-.709-.054-1.424-.11-2.128-.169a.533.533,0,0,1,.088-1.062c.7.058,1.415.114,2.121.168a.533.533,0,0,1-.04,1.065Zm-217.135-.151a.569.569,0,0,1-.135-.017.534.534,0,0,1-.382-.65c.179-.686.367-1.381.559-2.067a.533.533,0,0,1,1.026.288c-.19.679-.376,1.368-.553,2.047A.532.532,0,0,1,608.373,730.683Zm343.434-.089a.506.506,0,0,1-.086-.007.533.533,0,0,1-.441-.611c.114-.7.233-1.413.355-2.107a.533.533,0,1,1,1.05.183c-.12.69-.239,1.394-.352,2.094A.534.534,0,0,1,951.807,730.594Zm-75.221,0a.533.533,0,0,1-.044-1.064q1.059-.091,2.118-.189a.533.533,0,0,1,.1,1.062q-1.062.1-2.125.189Zm-56.386-.206a.423.423,0,0,1-.05,0c-.707-.066-1.422-.135-2.124-.205a.533.533,0,0,1,.106-1.06c.7.069,1.412.138,2.117.2a.533.533,0,0,1-.049,1.063Zm61.689-.293a.533.533,0,0,1-.053-1.064c.7-.071,1.41-.147,2.115-.224a.533.533,0,0,1,.116,1.06c-.707.077-1.421.153-2.122.225A.521.521,0,0,1,881.889,730.092Zm-66.988-.244-.059,0c-.7-.078-1.417-.159-2.12-.241a.533.533,0,0,1,.123-1.059c.7.082,1.412.163,2.114.24a.533.533,0,0,1-.058,1.063Zm72.283-.345a.533.533,0,0,1-.063-1.062c.7-.084,1.413-.172,2.111-.26a.533.533,0,1,1,.134,1.057c-.7.089-1.413.177-2.118.261A.469.469,0,0,1,887.184,729.5Zm-77.572-.282a.519.519,0,0,1-.068,0c-.7-.09-1.414-.183-2.116-.277a.533.533,0,1,1,.141-1.056c.7.093,1.409.186,2.109.275a.533.533,0,0,1-.066,1.062Zm82.855-.4a.533.533,0,0,1-.072-1.061c.7-.1,1.413-.2,2.107-.3a.533.533,0,0,1,.152,1.055c-.7.1-1.407.2-2.114.3A.6.6,0,0,1,892.467,728.825Zm-88.133-.32a.513.513,0,0,1-.077-.006c-.7-.1-1.409-.206-2.111-.312a.533.533,0,1,1,.159-1.054c.7.106,1.408.21,2.1.311a.533.533,0,0,1-.075,1.061Zm93.4-.448a.533.533,0,0,1-.081-1.06c.7-.107,1.405-.219,2.1-.331a.533.533,0,1,1,.169,1.052c-.7.113-1.408.225-2.108.333A.57.57,0,0,1,897.738,728.057Zm-98.669-.358a.507.507,0,0,1-.086-.007c-.7-.112-1.4-.229-2.106-.348a.533.533,0,1,1,.178-1.051c.7.118,1.405.234,2.1.347a.533.533,0,0,1-.084,1.059ZM903,727.2a.533.533,0,0,1-.09-1.059c.7-.12,1.4-.244,2.095-.367a.533.533,0,0,1,.188,1.05c-.692.123-1.4.247-2.1.368A.556.556,0,0,1,903,727.2Zm-109.178-.4a.618.618,0,0,1-.095-.008c-.7-.126-1.407-.255-2.1-.384a.533.533,0,0,1,.195-1.048c.689.128,1.393.257,2.093.382a.533.533,0,0,1-.094,1.058Zm114.419-.551a.533.533,0,0,1-.1-1.057c.694-.132,1.4-.267,2.088-.4a.533.533,0,1,1,.206,1.046c-.694.136-1.4.273-2.1.405A.564.564,0,0,1,908.237,726.253Zm-119.653-.433a.613.613,0,0,1-.1-.01c-.7-.138-1.4-.279-2.093-.42a.533.533,0,0,1,.214-1.045c.688.141,1.39.282,2.085.418a.534.534,0,0,1-.1,1.057Zm-178.753-.259a.553.553,0,0,1-.159-.024.534.534,0,0,1-.35-.668c.212-.68.439-1.366.674-2.039a.533.533,0,1,1,1.007.352c-.231.661-.454,1.336-.663,2.005A.533.533,0,0,1,609.831,725.561Zm342.907-.21a.5.5,0,0,1-.1-.01.533.533,0,0,1-.422-.625c.135-.7.276-1.4.419-2.1a.533.533,0,1,1,1.044.216c-.142.688-.282,1.389-.416,2.082A.533.533,0,0,1,952.738,725.351Zm-39.276-.135a.533.533,0,0,1-.108-1.055c.688-.142,1.388-.29,2.082-.439a.533.533,0,0,1,.223,1.043c-.7.149-1.4.3-2.088.44A.511.511,0,0,1,913.462,725.216Zm-130.095-.47a.542.542,0,0,1-.113-.012c-.7-.149-1.4-.3-2.085-.455a.533.533,0,1,1,.231-1.041c.686.152,1.385.305,2.078.454a.533.533,0,0,1-.111,1.054Zm135.3-.656a.533.533,0,0,1-.116-1.053c.69-.156,1.388-.316,2.073-.475a.533.533,0,1,1,.242,1.038c-.688.16-1.388.321-2.081.477A.529.529,0,0,1,918.668,724.09Zm-140.5-.507a.569.569,0,0,1-.122-.014c-.692-.161-1.391-.327-2.077-.491a.533.533,0,1,1,.249-1.037c.683.164,1.38.329,2.07.489a.533.533,0,0,1-.12,1.053Zm145.685-.709a.533.533,0,0,1-.125-1.051c.686-.167,1.381-.339,2.065-.511a.533.533,0,0,1,.259,1.035c-.686.172-1.383.344-2.072.512A.55.55,0,0,1,923.854,722.874Zm-150.862-.544a.54.54,0,0,1-.131-.016c-.689-.173-1.385-.35-2.068-.527a.533.533,0,1,1,.267-1.032c.68.176,1.374.352,2.061.525a.533.533,0,0,1-.129,1.05Zm156.027-.761a.533.533,0,0,1-.135-1.049c.679-.178,1.37-.362,2.055-.547a.533.533,0,1,1,.278,1.03c-.688.185-1.382.369-2.063.548A.529.529,0,0,1,929.019,721.569Zm-161.182-.581a.552.552,0,0,1-.139-.018c-.684-.184-1.377-.374-2.059-.563a.533.533,0,1,1,.285-1.027c.68.188,1.37.377,2.051.56a.533.533,0,0,1-.138,1.048Zm-156.21-.439a.539.539,0,0,1-.2-.039.534.534,0,0,1-.294-.7c.268-.661.551-1.326.84-1.976a.533.533,0,1,1,.974.433c-.284.64-.562,1.294-.826,1.944A.534.534,0,0,1,611.627,720.549Zm322.532-.376a.533.533,0,0,1-.144-1.046c.679-.191,1.368-.387,2.046-.582a.533.533,0,1,1,.3,1.024c-.68.2-1.371.393-2.053.584A.511.511,0,0,1,934.159,720.173Zm19.671-.034a.532.532,0,0,1-.52-.651c.158-.7.321-1.4.484-2.081a.533.533,0,1,1,1.037.248c-.162.679-.324,1.375-.481,2.069A.534.534,0,0,1,953.83,720.139Zm-191.124-.582a.546.546,0,0,1-.148-.021c-.681-.2-1.37-.4-2.048-.6a.533.533,0,0,1,.3-1.023c.676.2,1.363.4,2.042.6a.533.533,0,0,1-.148,1.045Zm176.568-.869a.533.533,0,0,1-.153-1.043c.677-.2,1.362-.411,2.035-.618a.533.533,0,1,1,.314,1.019c-.676.208-1.364.416-2.042.62A.545.545,0,0,1,939.274,718.688ZM757.6,718.037a.528.528,0,0,1-.156-.024c-.682-.21-1.368-.423-2.038-.634a.533.533,0,1,1,.32-1.017c.669.21,1.352.423,2.031.632a.533.533,0,0,1-.157,1.043Zm186.762-.923a.533.533,0,0,1-.162-1.041c.677-.216,1.358-.436,2.024-.654a.533.533,0,0,1,.331,1.013c-.668.219-1.351.44-2.031.656A.508.508,0,0,1,944.363,717.114Zm-191.839-.687a.534.534,0,0,1-.166-.027c-.674-.22-1.356-.445-2.026-.67a.533.533,0,1,1,.338-1.011c.668.224,1.348.448,2.019.668a.533.533,0,0,1-.165,1.04ZM613.83,715.7a.535.535,0,0,1-.476-.774c.322-.637.659-1.277,1-1.9a.533.533,0,1,1,.935.512c-.336.614-.667,1.243-.984,1.87A.534.534,0,0,1,613.83,715.7Zm335.593-.251a.533.533,0,0,1-.171-1.038c.669-.227,1.345-.459,2.011-.69a.534.534,0,1,1,.35,1.008c-.669.231-1.348.464-2.019.692A.542.542,0,0,1,949.423,715.45Zm5.662-.486a.567.567,0,0,1-.134-.017.534.534,0,0,1-.383-.65q.087-.336.176-.672l-.112.04a.533.533,0,0,1-.36-1q.4-.144.807-.291l.038-.138a.533.533,0,0,1,.654-.375.521.521,0,0,1,.263.166l.237-.087a.533.533,0,0,1,.367,1l-.674.246c-.123.46-.245.922-.364,1.381A.533.533,0,0,1,955.085,714.964Zm-207.61-.236a.535.535,0,0,1-.174-.03c-.671-.232-1.349-.47-2.015-.706a.533.533,0,0,1,.357-1.005c.663.236,1.339.472,2.007.7a.533.533,0,0,1-.175,1.037Zm-5.017-1.789a.54.54,0,0,1-.184-.032c-.662-.243-1.335-.492-2-.742a.533.533,0,0,1,.374-1c.664.248,1.335.5,1.994.739a.533.533,0,0,1-.183,1.033Zm216.991-1.086a.533.533,0,0,1-.189-1.031c.66-.25,1.328-.506,1.986-.761a.533.533,0,0,1,.385.994c-.661.256-1.331.513-1.993.764A.543.543,0,0,1,959.449,711.853Zm-221.976-.791a.526.526,0,0,1-.193-.036c-.662-.256-1.331-.518-1.988-.777a.533.533,0,1,1,.392-.992c.654.259,1.321.519,1.981.775a.533.533,0,0,1-.192,1.03Zm-121.047-.011a.533.533,0,0,1-.454-.812c.375-.609.764-1.218,1.157-1.812a.533.533,0,1,1,.889.589c-.387.583-.769,1.183-1.137,1.781A.533.533,0,0,1,616.426,711.051Zm347.986-1.13a.533.533,0,0,1-.2-1.028c.657-.263,1.321-.531,1.972-.8a.533.533,0,0,1,.4.987c-.654.267-1.32.536-1.979.8A.531.531,0,0,1,964.412,709.921Zm-7.914-.085a.52.52,0,0,1-.15-.022.532.532,0,0,1-.362-.661c.2-.68.4-1.367.611-2.042a.533.533,0,0,1,1.019.311c-.205.672-.409,1.355-.607,2.03A.532.532,0,0,1,956.5,709.836Zm-223.976-.74a.548.548,0,0,1-.2-.039c-.656-.268-1.32-.541-1.974-.813a.533.533,0,0,1,.409-.985c.652.271,1.314.544,1.967.81a.533.533,0,0,1-.2,1.027Zm236.818-1.2a.533.533,0,0,1-.207-1.025q.773-.325,1.545-.655l.411-.176a.533.533,0,1,1,.421.979l-.413.177q-.774.332-1.551.658A.534.534,0,0,1,969.34,707.9Zm-241.733-.859a.541.541,0,0,1-.21-.043c-.65-.279-1.309-.564-1.959-.849a.533.533,0,1,1,.427-.976c.648.283,1.3.567,1.952.845a.533.533,0,0,1-.21,1.023Zm-108.2-.4a.526.526,0,0,1-.316-.105.532.532,0,0,1-.112-.745c.426-.576.867-1.15,1.309-1.706a.533.533,0,1,1,.834.664c-.434.546-.867,1.11-1.286,1.676A.533.533,0,0,1,619.406,706.637Zm354.822-.848a.533.533,0,0,1-.216-1.021c.652-.289,1.3-.582,1.939-.87a.533.533,0,1,1,.44.971c-.637.289-1.292.583-1.947.874A.531.531,0,0,1,974.228,705.789Zm-251.5-.89a.529.529,0,0,1-.218-.047q-.971-.435-1.945-.875a.533.533,0,0,1,.439-.972q.974.439,1.942.874a.534.534,0,0,1-.218,1.02Zm235.337-.142a.558.558,0,0,1-.165-.026.534.534,0,0,1-.342-.672c.218-.67.445-1.351.673-2.025a.533.533,0,0,1,1.01.343c-.227.669-.452,1.346-.669,2.012A.534.534,0,0,1,958.067,704.757Zm21.006-1.179a.534.534,0,0,1-.228-1.016c.645-.3,1.291-.61,1.919-.913a.533.533,0,1,1,.463.96c-.631.3-1.28.613-1.928.918A.539.539,0,0,1,979.073,703.578Zm-261.2-.875a.521.521,0,0,1-.22-.048l-1.944-.886a.533.533,0,0,1,.442-.97l1.943.886a.533.533,0,0,1-.221,1.018Zm-95.115-.2a.534.534,0,0,1-.4-.887c.476-.537.967-1.069,1.458-1.582a.533.533,0,1,1,.77.737c-.482.5-.963,1.026-1.431,1.553A.534.534,0,0,1,622.76,702.5Zm361.1-1.246a.533.533,0,0,1-.239-1.01c.636-.318,1.274-.641,1.9-.961a.533.533,0,0,1,.487.949c-.625.321-1.267.646-1.906.966A.533.533,0,0,1,983.865,701.254Zm-270.845-.763a.52.52,0,0,1-.22-.048l-1.943-.88a.533.533,0,1,1,.44-.972l1.944.882a.533.533,0,0,1-.221,1.018Zm246.77-.766a.535.535,0,0,1-.5-.714c.24-.668.487-1.343.733-2a.533.533,0,1,1,1,.371c-.245.658-.49,1.329-.728,1.994A.535.535,0,0,1,959.79,699.725Zm28.807-.918a.533.533,0,0,1-.252-1c.626-.336,1.255-.677,1.868-1.014a.533.533,0,1,1,.514.934c-.617.339-1.249.682-1.879,1.02A.528.528,0,0,1,988.6,698.807Zm-362.118-.12a.533.533,0,0,1-.364-.923c.524-.489,1.063-.973,1.6-1.437a.533.533,0,1,1,.7.807c-.528.456-1.057.93-1.571,1.409A.531.531,0,0,1,626.479,698.687Zm81.681-.388a.536.536,0,0,1-.217-.046q-.972-.434-1.947-.864a.533.533,0,1,1,.43-.975q.977.43,1.951.865a.533.533,0,0,1-.217,1.02Zm285.1-2.076a.533.533,0,0,1-.267-.995c.615-.353,1.232-.714,1.835-1.071a.534.534,0,0,1,.544.918c-.607.359-1.229.722-1.847,1.077A.522.522,0,0,1,993.257,696.223Zm-289.977-.066a.546.546,0,0,1-.211-.043c-.666-.287-1.324-.568-1.956-.835a.533.533,0,1,1,.415-.982c.634.268,1.294.549,1.963.837a.533.533,0,0,1-.211,1.023Zm-72.733-.906a.533.533,0,0,1-.323-.957c.57-.435,1.155-.862,1.739-1.269a.533.533,0,1,1,.61.874c-.572.4-1.145.817-1.7,1.243A.535.535,0,0,1,630.547,695.251Zm331.113-.509a.527.527,0,0,1-.194-.037.532.532,0,0,1-.3-.691c.258-.659.524-1.327.79-1.984a.533.533,0,0,1,.988.4c-.264.654-.529,1.317-.786,1.973A.533.533,0,0,1,961.66,694.742ZM698.369,694.1a.53.53,0,0,1-.2-.04c-.666-.271-1.329-.538-1.971-.792a.533.533,0,1,1,.393-.991c.645.256,1.311.523,1.98.8a.533.533,0,0,1-.2,1.027Zm299.463-.6a.533.533,0,0,1-.282-.986c.6-.373,1.207-.754,1.8-1.133a.533.533,0,1,1,.575.9c-.595.381-1.2.765-1.81,1.141A.53.53,0,0,1,997.832,693.492ZM634.945,692.25a.533.533,0,0,1-.277-.989c.612-.372,1.239-.734,1.864-1.077a.533.533,0,1,1,.513.935c-.611.335-1.225.69-1.824,1.053A.528.528,0,0,1,634.945,692.25Zm58.469-.1a.541.541,0,0,1-.188-.034c-.668-.252-1.337-.5-1.989-.737a.533.533,0,0,1,.364-1c.656.238,1.329.488,2,.741a.533.533,0,0,1-.189,1.032Zm308.894-1.546a.533.533,0,0,1-.3-.976c.59-.4,1.179-.8,1.753-1.2a.533.533,0,1,1,.609.875c-.578.4-1.173.809-1.767,1.209A.534.534,0,0,1,1002.308,690.6Zm-313.9-.252a.533.533,0,0,1-.171-.028c-.676-.229-1.353-.453-2.011-.666a.533.533,0,1,1,.326-1.014c.665.214,1.347.439,2.027.67a.533.533,0,0,1-.171,1.038Zm275.265-.539a.535.535,0,0,1-.491-.742c.277-.652.561-1.313.845-1.963a.533.533,0,1,1,.977.427c-.282.646-.565,1.3-.84,1.952A.532.532,0,0,1,963.671,689.811Zm-324.031-.068a.533.533,0,0,1-.225-1.017c.649-.3,1.313-.591,1.973-.861a.533.533,0,0,1,.4.987c-.645.264-1.294.547-1.928.841A.528.528,0,0,1,639.64,689.743Zm43.7-1a.53.53,0,0,1-.151-.022c-.681-.2-1.366-.394-2.035-.577a.533.533,0,1,1,.281-1.028c.675.184,1.367.38,2.055.582a.533.533,0,0,1-.15,1.045Zm-38.749-.958a.533.533,0,0,1-.168-1.039c.678-.225,1.37-.439,2.058-.635a.533.533,0,1,1,.292,1.025c-.673.192-1.351.4-2.014.622A.546.546,0,0,1,644.587,687.784Zm362.082-.244a.533.533,0,0,1-.315-.963c.572-.419,1.145-.847,1.7-1.269a.533.533,0,0,1,.645.849c-.561.426-1.139.857-1.716,1.28A.527.527,0,0,1,1006.669,687.54Zm-328.47-.171a.534.534,0,0,1-.125-.015c-.69-.165-1.383-.323-2.061-.469a.533.533,0,1,1,.225-1.042c.685.148,1.387.307,2.084.474a.533.533,0,0,1-.123,1.052Zm-28.477-.991a.533.533,0,0,1-.112-1.054c.7-.151,1.407-.29,2.113-.412a.533.533,0,0,1,.182,1.05c-.691.12-1.388.256-2.069.4A.56.56,0,0,1,649.722,686.378Zm23.272-.095a.5.5,0,0,1-.094-.009c-.7-.123-1.4-.237-2.084-.339a.533.533,0,0,1,.157-1.054c.7.1,1.406.219,2.113.344a.533.533,0,0,1-.092,1.058Zm-5.266-.743a.5.5,0,0,1-.055,0c-.7-.073-1.41-.135-2.1-.185a.533.533,0,0,1,.077-1.064c.7.051,1.421.115,2.135.189a.533.533,0,0,1-.055,1.063Zm-12.751-.018a.533.533,0,0,1-.058-1.063c.706-.079,1.427-.144,2.143-.2a.533.533,0,0,1,.075,1.064c-.7.05-1.409.114-2.1.19A.4.4,0,0,1,654.977,685.522Zm7.443-.319h-.012c-.705-.015-1.41-.018-2.109-.008a.533.533,0,0,1-.015-1.066c.712-.01,1.43-.007,2.148.009a.533.533,0,0,1-.012,1.066Zm303.394-.271a.52.52,0,0,1-.22-.048.533.533,0,0,1-.265-.706c.292-.641.593-1.294.9-1.941a.533.533,0,1,1,.966.451c-.3.644-.6,1.294-.89,1.932A.534.534,0,0,1,965.814,684.932Zm45.083-.634a.533.533,0,0,1-.334-.948c.552-.444,1.105-.895,1.642-1.344a.533.533,0,0,1,.683.819c-.542.453-1.1.909-1.657,1.356A.534.534,0,0,1,1010.9,684.3Zm4.075-3.431a.533.533,0,0,1-.353-.932c.53-.469,1.06-.947,1.574-1.42a.533.533,0,1,1,.722.784c-.519.478-1.054.961-1.59,1.434A.532.532,0,0,1,1014.972,680.867Zm-46.891-.76a.525.525,0,0,1-.233-.054.534.534,0,0,1-.247-.712c.312-.642.629-1.289.942-1.92a.533.533,0,1,1,.955.473c-.312.629-.627,1.273-.937,1.912A.533.533,0,0,1,968.081,680.107Zm50.791-2.867a.534.534,0,0,1-.374-.914c.505-.494,1.008-1,1.5-1.5a.533.533,0,1,1,.762.746c-.495.506-1,1.015-1.513,1.514A.532.532,0,0,1,1018.872,677.24Zm-48.411-1.906a.534.534,0,0,1-.474-.777c.322-.626.653-1.266.985-1.9a.533.533,0,1,1,.944.495c-.33.631-.66,1.268-.98,1.892A.533.533,0,0,1,970.461,675.334Zm52.112-1.921a.533.533,0,0,1-.393-.893c.477-.522.952-1.053,1.411-1.578a.533.533,0,1,1,.8.7c-.465.531-.945,1.068-1.428,1.6A.532.532,0,0,1,1022.573,673.413Zm-49.628-2.8a.534.534,0,0,1-.469-.786c.336-.623.681-1.256,1.024-1.881a.533.533,0,0,1,.934.514c-.342.622-.684,1.252-1.019,1.873A.534.534,0,0,1,972.945,670.611Zm53.107-1.226a.532.532,0,0,1-.413-.869c.446-.549.889-1.106,1.317-1.658a.533.533,0,0,1,.843.654c-.433.558-.882,1.122-1.333,1.677A.534.534,0,0,1,1026.052,669.385Zm-50.529-3.449a.528.528,0,0,1-.261-.069.534.534,0,0,1-.2-.726c.344-.61.7-1.234,1.055-1.856a.533.533,0,0,1,.925.53c-.355.62-.708,1.242-1.051,1.849A.533.533,0,0,1,975.523,665.936Zm53.762-.782a.532.532,0,0,1-.434-.842c.414-.584.817-1.17,1.2-1.742a.533.533,0,0,1,.889.589c-.385.582-.794,1.177-1.215,1.771A.534.534,0,0,1,1029.285,665.154Zm-51.107-3.835a.528.528,0,0,1-.269-.074.533.533,0,0,1-.191-.729q.539-.918,1.085-1.838a.533.533,0,0,1,.917.545q-.546.916-1.082,1.832A.533.533,0,0,1,978.178,661.319Zm54-.636a.533.533,0,0,1-.46-.8c.358-.616.7-1.237,1.016-1.845a.533.533,0,0,1,.946.493c-.324.622-.674,1.257-1.04,1.888A.534.534,0,0,1,1032.177,660.683Zm-51.271-3.939a.533.533,0,0,1-.456-.809q.552-.91,1.111-1.821a.533.533,0,1,1,.909.557q-.558.909-1.108,1.817A.532.532,0,0,1,980.906,656.744Zm53.667-.815a.534.534,0,0,1-.49-.742c.277-.653.534-1.311.764-1.955a.533.533,0,1,1,1,.358c-.237.664-.5,1.342-.787,2.014A.533.533,0,0,1,1034.573,655.929Zm-50.876-3.72a.534.534,0,0,1-.451-.816l.474-.758c.214-.341.444-.7.684-1.052a.533.533,0,0,1,.885.595c-.234.348-.458.692-.665,1.023-.159.252-.316.505-.474.757A.533.533,0,0,1,983.7,652.209Zm52.575-1.322a.567.567,0,0,1-.128-.016.534.534,0,0,1-.39-.645c.169-.682.312-1.37.427-2.047a.533.533,0,0,1,1.051.179c-.119.7-.268,1.416-.442,2.123A.534.534,0,0,1,1036.272,650.887Zm-49.558-3.069a.532.532,0,0,1-.423-.856c.419-.549.867-1.117,1.33-1.687a.533.533,0,0,1,.828.673c-.457.562-.9,1.12-1.311,1.661A.531.531,0,0,1,986.714,647.818Zm50.333-2.192h-.022a.533.533,0,0,1-.511-.554c.012-.306.018-.618.018-.926,0-.384-.01-.773-.029-1.156a.533.533,0,1,1,1.065-.053c.02.4.03.808.03,1.209,0,.323-.006.649-.019.969A.532.532,0,0,1,1037.047,645.626ZM990.1,643.7a.533.533,0,0,1-.4-.885c.463-.527.945-1.064,1.432-1.595a.533.533,0,1,1,.785.721c-.481.525-.958,1.056-1.416,1.578A.531.531,0,0,1,990.1,643.7Zm46.562-3.379a.532.532,0,0,1-.523-.435c-.128-.684-.289-1.365-.478-2.024a.533.533,0,1,1,1.025-.294c.2.691.367,1.405.5,2.122a.534.534,0,0,1-.426.622A.554.554,0,0,1,1036.662,640.324Zm-42.939-.529a.534.534,0,0,1-.381-.906c.5-.512,1.009-1.022,1.513-1.518a.533.533,0,0,1,.747.761c-.5.49-1,.995-1.5,1.5A.533.533,0,0,1,993.723,639.795Zm3.818-3.716a.533.533,0,0,1-.362-.925c.531-.49,1.066-.973,1.591-1.437a.533.533,0,1,1,.706.8c-.519.459-1.049.937-1.573,1.421A.531.531,0,0,1,997.541,636.079Zm37.527-.824a.533.533,0,0,1-.485-.311,18.831,18.831,0,0,0-.965-1.832.533.533,0,1,1,.915-.549,20.187,20.187,0,0,1,1.019,1.936.534.534,0,0,1-.484.756Zm-33.507-2.676a.533.533,0,0,1-.338-.946c.573-.467,1.141-.915,1.688-1.332a.533.533,0,1,1,.646.848c-.538.41-1.1.851-1.66,1.31A.529.529,0,0,1,1001.561,632.579Zm30.637-1.789a.529.529,0,0,1-.4-.181,15.737,15.737,0,0,0-1.457-1.455.533.533,0,0,1,.7-.8,16.856,16.856,0,0,1,1.554,1.553.533.533,0,0,1-.4.885Zm-26.359-1.386a.534.534,0,0,1-.291-.981c.6-.391,1.232-.764,1.87-1.108a.533.533,0,0,1,.506.939c-.613.33-1.217.688-1.8,1.064A.529.529,0,0,1,1005.839,629.4Zm22.251-1.964a.529.529,0,0,1-.262-.069,15.444,15.444,0,0,0-1.855-.891.533.533,0,0,1,.4-.99,16.685,16.685,0,0,1,1.983.953.533.533,0,0,1-.263,1Zm-17.52-.465a.533.533,0,0,1-.194-1.029c.674-.265,1.365-.5,2.054-.71a.533.533,0,1,1,.307,1.021c-.661.2-1.325.428-1.972.681A.535.535,0,0,1,1010.57,626.975Zm12.541-1.359a.531.531,0,0,1-.1-.011,18.445,18.445,0,0,0-2.049-.284.533.533,0,0,1,.088-1.063,19.62,19.62,0,0,1,2.168.3.534.534,0,0,1-.1,1.057Zm-7.417-.058a.534.534,0,0,1-.086-1.06c.722-.118,1.45-.2,2.164-.254a.533.533,0,1,1,.075,1.063c-.681.048-1.376.13-2.066.243A.531.531,0,0,1,1015.694,625.558Z"/><path class="c" d="M1063.539,855.964h-.007c-.356,0-.713-.01-1.069-.016a.533.533,0,0,1,.01-1.066h.009c.355.006.709.012,1.064.016a.533.533,0,0,1-.007,1.066Z"/><path class="c" d="M969.655,756.439a3.975,3.975,0,1,1,3.975-3.974A3.979,3.979,0,0,1,969.655,756.439Zm0-6.319A2.345,2.345,0,1,0,972,752.465,2.348,2.348,0,0,0,969.655,750.12Z"/><path class="c" d="M702.437,674.12a3.98,3.98,0,1,1,3.98-3.98A3.984,3.984,0,0,1,702.437,674.12Zm0-6.328a2.348,2.348,0,1,0,2.348,2.348A2.351,2.351,0,0,0,702.437,667.792Z"/><path class="c" d="M657.146,844.6h-2.1v-2.956a.6.6,0,0,0-1.19,0V844.6h-2.1a.595.595,0,1,0,0,1.189h2.1v2.956a.6.6,0,0,0,1.19,0v-2.956h2.1a.595.595,0,1,0,0-1.189Z"/><path class="c" d="M943.512,603.6h-3.146v-4.437a.893.893,0,1,0-1.785,0V603.6h-3.146a.892.892,0,1,0,0,1.785h3.146v4.437a.893.893,0,0,0,1.785,0v-4.437h3.146a.892.892,0,1,0,0-1.785Z"/><path class="c" d="M720.295,620.462h-9.74a1.34,1.34,0,1,1,0-2.681h9.74a1.34,1.34,0,1,1,0,2.681Z"/><path class="c" d="M732.657,608.1a1.34,1.34,0,0,1-1.341-1.34v-9.741a1.341,1.341,0,0,1,2.682,0v9.741A1.341,1.341,0,0,1,732.657,608.1Z"/><path class="c" d="M723.719,611.525a1.337,1.337,0,0,1-.948-.393l-6.691-6.691a1.341,1.341,0,0,1,1.9-1.9l6.691,6.691a1.341,1.341,0,0,1-.948,2.289Z"/><rect class="d" width="298.226" height="3.439" rx="1.72" transform="translate(684.066 876.518)"/><path class="e" d="M933.427,638.45V858.531a17.985,17.985,0,0,1-17.984,17.986H750.914c-.109,0-.218,0-.325,0a17.973,17.973,0,0,1-17.658-17.983V638.45a17.986,17.986,0,0,1,17.983-17.988H915.443A17.986,17.986,0,0,1,933.427,638.45Z"/><path class="f" d="M753.04,634.72V846.473l12.2,12.2H913.318V634.72Z"/><path class="g" d="M765.242,858.675l-12.2-12.2h12.2Z"/><circle class="h" cx="16.927" cy="16.927" r="16.927" transform="matrix(0.987, -0.16, 0.16, 0.987, 766.352, 808.336)"/><path class="f" d="M783.258,831.208l-7.046-7.634,3.256-3.006,3.564,3.861,8.852-10.971,3.449,2.783Z"/><rect class="c" width="63.45" height="5.887" rx="2.944" transform="translate(813.195 811.987)"/><rect class="c" width="74.06" height="5.887" rx="2.944" transform="translate(813.195 826.793)"/><circle class="h" cx="16.927" cy="16.927" r="16.927" transform="translate(768.845 755.416)"/><path class="f" d="M783.258,781.218l-7.046-7.634,3.256-3.006,3.564,3.861,8.852-10.971,3.449,2.783Z"/><rect class="c" width="63.45" height="5.887" rx="2.944" transform="translate(876.644 782.69) rotate(-180)"/><path class="c" d="M816.138,762h68.173a2.944,2.944,0,0,1,2.944,2.944h0a2.944,2.944,0,0,1-2.944,2.943H816.138a2.943,2.943,0,0,1-2.943-2.943h0A2.943,2.943,0,0,1,816.138,762Z"/><path class="d" d="M785.772,792.874a20.531,20.531,0,1,1,20.53-20.53A20.554,20.554,0,0,1,785.772,792.874Zm0-39.705a19.174,19.174,0,1,0,19.175,19.175A19.2,19.2,0,0,0,785.772,753.169Z"/><circle class="h" cx="16.927" cy="16.927" r="16.927" transform="matrix(0.23, -0.973, 0.973, 0.23, 765.408, 734.939)"/><path class="f" d="M783.258,731.228l-7.046-7.634,3.256-3.006,3.564,3.861,8.852-10.971,3.449,2.783Z"/><rect class="c" width="45.517" height="5.887" rx="2.944" transform="translate(813.195 712.007)"/><rect class="c" width="63.45" height="5.887" rx="2.944" transform="translate(813.195 726.813)"/><circle class="h" cx="16.927" cy="16.927" r="16.927" transform="translate(767.259 691.143) rotate(-84.345)"/><path class="f" d="M783.258,684.84l-7.046-7.634,3.256-3.006,3.564,3.861,8.852-10.971,3.449,2.783Z"/><rect class="c" width="63.45" height="5.887" rx="2.944" transform="translate(813.195 665.619)"/><rect class="c" width="74.06" height="5.887" rx="2.944" transform="translate(813.195 680.425)"/><path class="h" d="M863.862,614.295H847.867a3.39,3.39,0,0,1-3.39-3.39h0a4.683,4.683,0,0,0-4.67-4.67H826.551a4.683,4.683,0,0,0-4.67,4.67h0a3.391,3.391,0,0,1-3.391,3.39H802.5a3.414,3.414,0,0,0-3.416,3.417v20.54a3.407,3.407,0,0,0,1.785,3,3.319,3.319,0,0,0,1.631.419h61.365a3.419,3.419,0,0,0,3.415-3.42v-20.54A3.416,3.416,0,0,0,863.862,614.295Z"/><path class="f" d="M863.2,639.072h-2.145a.533.533,0,0,1,0-1.066h2.139a.533.533,0,0,1,.006,1.066Zm-5.353,0h-2.139a.533.533,0,0,1,0-1.066h2.139a.533.533,0,0,1,0,1.066Zm-5.348,0h-2.139a.533.533,0,0,1,0-1.066H852.5a.533.533,0,0,1,0,1.066Zm-5.347,0H845.01a.533.533,0,0,1,0-1.066h2.139a.533.533,0,0,1,0,1.066Zm-5.348,0h-2.139a.533.533,0,0,1,0-1.066H841.8a.533.533,0,0,1,0,1.066Zm-5.347,0h-2.139a.533.533,0,0,1,0-1.066h2.139a.533.533,0,0,1,0,1.066Zm-5.348,0h-2.139a.533.533,0,0,1,0-1.066h2.139a.533.533,0,0,1,0,1.066Zm-5.347,0H823.62a.533.533,0,1,1,0-1.066h2.139a.533.533,0,0,1,0,1.066Zm-5.348,0h-2.139a.533.533,0,0,1,0-1.066h2.139a.533.533,0,0,1,0,1.066Zm-5.347,0h-2.14a.533.533,0,0,1,0-1.066h2.14a.533.533,0,0,1,0,1.066Zm-5.348,0h-2.139a.533.533,0,0,1,0-1.066h2.139a.533.533,0,0,1,0,1.066Zm-5.348,0h-1.2a1.773,1.773,0,0,1-1.215-.481.533.533,0,1,1,.728-.778.715.715,0,0,0,.487.193h1.2a.533.533,0,1,1,0,1.066Zm60.071-2.5a.533.533,0,0,1-.533-.533V633.9a.533.533,0,1,1,1.066,0v2.139A.533.533,0,0,1,864.439,636.57Zm-62.52-.932a.533.533,0,0,1-.533-.533v-2.139a.533.533,0,0,1,1.066,0V635.1A.533.533,0,0,1,801.919,635.638Zm62.52-4.416a.533.533,0,0,1-.533-.533V628.55a.533.533,0,0,1,1.066,0v2.139A.533.533,0,0,1,864.439,631.222Zm-62.52-.932a.533.533,0,0,1-.533-.533v-2.139a.533.533,0,0,1,1.066,0v2.139A.532.532,0,0,1,801.919,630.29Zm62.52-4.415a.533.533,0,0,1-.533-.533V623.2a.533.533,0,1,1,1.066,0v2.139A.533.533,0,0,1,864.439,625.875Zm-62.52-.932a.533.533,0,0,1-.533-.533v-2.139a.533.533,0,0,1,1.066,0v2.139A.533.533,0,0,1,801.919,624.943Zm62.52-4.416a.533.533,0,0,1-.533-.533v-1.649a.7.7,0,0,0-.054-.272.533.533,0,1,1,.984-.41,1.769,1.769,0,0,1,.136.682v1.649A.533.533,0,0,1,864.439,620.527Zm-62.52-.932a.533.533,0,0,1-.533-.533v-.717a1.789,1.789,0,0,1,1.036-1.617.533.533,0,1,1,.448.968.718.718,0,0,0-.418.649v.717A.532.532,0,0,1,801.919,619.595Zm59.533-1.965h-2.139a.533.533,0,0,1,0-1.066h2.139a.533.533,0,1,1,0,1.066Zm-5.347,0h-2.139a.533.533,0,1,1,0-1.066H856.1a.533.533,0,1,1,0,1.066Zm-5.348,0h-2.139a.533.533,0,0,1,0-1.066h2.139a.533.533,0,0,1,0,1.066Zm-5.347,0h-2.139a.533.533,0,1,1,0-1.066h2.139a.533.533,0,1,1,0,1.066Zm-5.348,0h-2.139a.533.533,0,0,1,0-1.066h2.139a.533.533,0,0,1,0,1.066Zm-5.347,0h-2.139a.533.533,0,0,1,0-1.066h2.139a.533.533,0,0,1,0,1.066Zm-5.348,0h-2.139a.533.533,0,1,1,0-1.066h2.139a.533.533,0,1,1,0,1.066Zm-5.347,0h-2.139a.533.533,0,1,1,0-1.066h2.139a.533.533,0,0,1,0,1.066Zm-5.348,0h-2.139a.533.533,0,1,1,0-1.066h2.139a.533.533,0,1,1,0,1.066Zm-5.347,0h-2.139a.533.533,0,1,1,0-1.066h2.139a.533.533,0,0,1,0,1.066Zm-5.348,0h-2.139a.533.533,0,1,1,0-1.066h2.139a.533.533,0,1,1,0,1.066Z"/><rect class="h" width="88.181" height="7.576" transform="translate(717.93 868.939)"/><path class="h" d="M0,0H5.11A1.131,1.131,0,0,1,6.241,1.131V6.446A1.131,1.131,0,0,1,5.11,7.576H0a0,0,0,0,1,0,0V0A0,0,0,0,1,0,0Z" transform="translate(806.111 868.939)"/><path class="h" d="M717.93,868.936v7.581l-6.656-2.219-4.713-1.572,4.713-1.572Z"/><path class="h" d="M711.274,871.155V874.3l-4.713-1.572Z"/></g></svg>