<svg xmlns="http://www.w3.org/2000/svg" width="50.87" height="61.453" viewBox="0 0 50.87 61.453">
    <defs>
        <style>
            .prefix__cls-1{fill:#58595b}
        </style>
    </defs>
    <g id="prefix__award" transform="translate(-41.149)">
        <g id="prefix__Group_6016" data-name="Group 6016" transform="translate(41.149)">
            <g id="prefix__Group_6015" data-name="Group 6015">
                <g id="prefix__Group_6014" data-name="Group 6014">
                    <path id="prefix__Path_10262" d="M91.871 54.024l-8.179-14.2a3.315 3.315 0 00.874-2.315v-4.318l3.344-1.852a.05.05 0 00.051-.051h.051a.18.18 0 00.1-.051 3.344 3.344 0 001.235-4.527c0-.051-.051-.051-.051-.1L87.19 22.9l2.01-3.341.051-.051a.05.05 0 01.051-.051 3.517 3.517 0 00.36-2.572 3.319 3.319 0 00-1.595-2.058l-3.7-2.161.051-3.909v-.1a3.423 3.423 0 00-.977-2.418 3.3 3.3 0 00-2.366-.977h-4.327L74.9 1.915c0-.051 0-.051-.051-.1 0-.051-.051-.051-.051-.1A3.42 3.42 0 0070.163.423l-3.755 2.161L63.116.629h-.051l-.052-.051a.05.05 0 01-.051-.051A3.517 3.517 0 0060.39.166a3.319 3.319 0 00-2.058 1.595l-2.161 3.7-3.909-.051h-.1a3.453 3.453 0 00-2.315.926l-.051.051a3.335 3.335 0 00-.977 2.418v4.321l-3.344 1.852h-.055a.05.05 0 00-.051.051l-.051.051a3.42 3.42 0 00-1.286 4.63l2.161 3.755-1.955 3.292v.051l-.051.051a.05.05 0 01-.051.051 3.517 3.517 0 00-.36 2.572 3.319 3.319 0 001.595 2.058l3.7 2.161-.051 3.909v.1a3.449 3.449 0 00.566 1.9l-8.282 14.3a1.254 1.254 0 00-.1.977 1.064 1.064 0 001.389.617l7.356-2.932 1.132 7.87a1.013 1.013 0 00.514.772 1.1 1.1 0 001.492-.412l8.331-14.442a3.317 3.317 0 001.7-.412c.051 0 .051-.051.1-.051l3.7-2.109c.051.051 3.6 2.16 3.4 2.006a3.36 3.36 0 001.286.463l8.436 14.609a1.063 1.063 0 002.006-.36l1.132-7.87 7.356 2.932a1.088 1.088 0 001.337-1.544zm-39.095 2.984l-.926-6.121a1.139 1.139 0 00-1.235-.926.731.731 0 00-.309.1L44.6 52.327l6.584-11.42a2.33 2.33 0 00.823.154h4.321c2.418 4.372 1.7 2.984 1.9 3.447a3.9 3.9 0 00.823 1.029zm19.959-13.066a.83.83 0 01-.463.154h-.1c-.617.051-.514-.1-4.681-2.521a1.021 1.021 0 00-1.08 0l-4.27 2.469a1.179 1.179 0 01-.926.1 1.245 1.245 0 01-.72-.566c-.1-.206-.1-.154-.1-.206l-2.161-3.858a1.1 1.1 0 00-.977-.566h-4.892a1.173 1.173 0 01-.565-.148c-.051-.051-.1-.051-.154-.1a.05.05 0 01-.051-.051 1.241 1.241 0 01-.36-.874v-.1l.051-4.578a1.019 1.019 0 00-.514-.926L46.5 29.693a1.1 1.1 0 01-.566-.72 1.156 1.156 0 01.1-.926l.055-.047c0-.051.051-.051.051-.1l2.26-3.814a1.021 1.021 0 000-1.08l-2.418-4.218c0-.051-.051-.051-.051-.1a1.179 1.179 0 01-.1-.926 1.136 1.136 0 01.566-.72c.051 0 .051-.051.1-.051h.051a.05.05 0 00.051-.051l3.909-2.161a1.1 1.1 0 00.566-.977V8.911a1.241 1.241 0 01.36-.874l.051-.051a1.168 1.168 0 01.823-.309h.1l4.578.051a1.019 1.019 0 00.926-.514l2.469-4.27a1.1 1.1 0 01.72-.566 1.158 1.158 0 01.833.054.069.069 0 01.038.02c.019.01.038.018.055.029l3.807 2.263a1.021 1.021 0 001.08 0l4.27-2.418c.051 0 .051-.051.1-.051a1.179 1.179 0 01.926-.1 1.136 1.136 0 01.72.566.05.05 0 00.051.051v.051c0 .051.051.051.051.1L75.2 6.8a1.1 1.1 0 00.977.566h4.887A1.229 1.229 0 0182.3 8.6v.1l-.051 4.578a1.019 1.019 0 00.514.926l4.27 2.469a1.1 1.1 0 01.566.72 1.156 1.156 0 01-.1.926l-.051.051v.051l-2.315 3.858a1.021 1.021 0 000 1.08l2.469 4.27a1.179 1.179 0 01.1.926 1.136 1.136 0 01-.566.72h-.1a.05.05 0 00-.051.051L83.023 31.7a1.1 1.1 0 00-.566.977v4.887a1.241 1.241 0 01-.36.874 1.225 1.225 0 01-.977.36l-4.475-.051a1.045 1.045 0 00-1.029.514c-.049.049-2.431 4.157-2.523 4.323-.051.052-.1.151-.05.1a.813.813 0 01-.308.258zm9.979 6.224a1.049 1.049 0 00-1.44.823l-.926 6.121-6.532-11.316.051-.051a4.1 4.1 0 00.874-.772c.1-.145 2.295-3.9 2.418-4.115 1.132 0 2.52.051 4.217.051a1.133 1.133 0 00.412-.051l6.688 11.574z" class="prefix__cls-1" data-name="Path 10262" transform="translate(-41.149)"/>
                    <path id="prefix__Path_10263" d="M202.816 18.919l-.038-.02h-.01z" class="prefix__cls-1" data-name="Path 10263" transform="translate(-181.981 -16.463)"/>
                    <path id="prefix__Path_10264" d="M203.216 19.12l-.051-.026a.067.067 0 00.051.026z" class="prefix__cls-1" data-name="Path 10264" transform="translate(-182.33 -16.638)"/>
                </g>
            </g>
        </g>
        <g id="prefix__Group_6018" data-name="Group 6018" transform="translate(52.108 8.551)">
            <g id="prefix__Group_6017" data-name="Group 6017">
                <path id="prefix__Path_10265" d="M151.314 70.764a14.654 14.654 0 104.27 10.34 14.54 14.54 0 00-4.27-10.34zm-1.544 19.187a12.543 12.543 0 113.652-8.848 12.48 12.48 0 01-3.652 8.848z" class="prefix__cls-1" data-name="Path 10265" transform="translate(-126.365 -66.494)"/>
            </g>
        </g>
        <g id="prefix__Group_6020" data-name="Group 6020" transform="translate(57.986 14.444)">
            <g id="prefix__Group_6019" data-name="Group 6019">
                <path id="prefix__Path_10266" d="M188.776 117.637a2.094 2.094 0 00-1.543-.617h-3.4l-1.029-3.138v-.051a3.011 3.011 0 00-.514-.874 2.883 2.883 0 00-.772-.514.385.385 0 00-.257-.051 2.274 2.274 0 00-1.543.154 2.214 2.214 0 00-1.029 1.132.309.309 0 00-.051.206l-1.029 3.138h-3.241a2.031 2.031 0 00-1.08.206 2.064 2.064 0 00-.823.669 2.01 2.01 0 00-.36 1.595 2.149 2.149 0 00.874 1.44l2.726 2.006-1.029 3.241c0 .051 0 .051-.051.1a1.889 1.889 0 00-.051.926 1.676 1.676 0 00.412.926 2.391 2.391 0 001.389.874 2 2 0 001.595-.412l2.726-2.006 2.623 1.9a1.738 1.738 0 00.977.463 2.558 2.558 0 001.08-.051 2.243 2.243 0 001.286-1.08 2.276 2.276 0 00.154-1.646l-1.029-3.241 2.675-1.955c.051-.051.1-.051.154-.1a3.542 3.542 0 00.566-.669 2.128 2.128 0 00.257-.977 2.387 2.387 0 00-.663-1.594zm-1.595 1.595l-3.292 2.418a1 1 0 00-.36 1.235l1.286 3.858v.051c-.051-.051-.1-.051-.1-.1l-3.241-2.366a1.08 1.08 0 00-1.286 0l-3.344 2.469v-.051l1.286-3.909a.982.982 0 00-.412-1.183l-3.4-2.418h4.167a1.1 1.1 0 001.029-.772l1.286-3.964v.051l1.235 3.909a1.16 1.16 0 001.08.772l4.115-.051a.05.05 0 00-.049.051z" class="prefix__cls-1" data-name="Path 10266" transform="translate(-172.071 -112.316)"/>
            </g>
        </g>
    </g>
</svg>
