<svg xmlns="http://www.w3.org/2000/svg" width="47.56" height="64.906" viewBox="0 0 47.56 64.906">
    <defs>
        <style>
            .prefix__cls-1{fill:#fff;stroke:#f0f5ff;stroke-width:.5px}
        </style>
    </defs>
    <g id="prefix__Group_6023" data-name="Group 6023" transform="translate(-5.35 11.55)">
        <path id="prefix__Path_10281" d="M47.459-11.3H10.852A5.23 5.23 0 005.6-6.048v42.156a5.23 5.23 0 005.252 5.252h11.725a1.787 1.787 0 00.584.9 1.924 1.924 0 001.592.477l-1.38 10.03 5.783-4.616 5.73 4.616-1.38-10.028a2.12 2.12 0 001.592-.477 2.4 2.4 0 00.584-.9h11.724a5.23 5.23 0 005.252-5.252V-6.048a5.186 5.186 0 00-5.199-5.252zm3.5 47.355a3.533 3.533 0 01-3.5 3.5h-10.5a2.554 2.554 0 00.637-.849 2.142 2.142 0 00-.265-2.016.321.321 0 01.053-.424 2.1 2.1 0 00.743-1.8 2.032 2.032 0 00-1.114-1.645h-.053a.334.334 0 01-.159-.424 2.009 2.009 0 00-.212-1.963 2.07 2.07 0 00-1.751-.9h-.058a.306.306 0 01-.318-.318 2.032 2.032 0 00-1.114-1.645 2.137 2.137 0 00-1.963 0h-.053a.287.287 0 01-.424-.106v-.053a2.005 2.005 0 00-1.751-.9 2.193 2.193 0 00-1.751.955.287.287 0 01-.424.106h-.053a2.107 2.107 0 00-3.077 1.645.342.342 0 01-.318.318h-.053a1.978 1.978 0 00-1.7.9 2.154 2.154 0 00-.212 1.963.355.355 0 01-.159.424h-.053a1.959 1.959 0 00-1.114 1.645 2.264 2.264 0 00.743 1.857.329.329 0 01.053.424l-.053.053a2.169 2.169 0 00-.265 1.963 2.11 2.11 0 00.637.849h-10.5a3.533 3.533 0 01-3.5-3.5V-6.048a3.533 3.533 0 013.5-3.5h36.601a3.533 3.533 0 013.5 3.5zM34.09 40.617a.448.448 0 01-.106.318.3.3 0 01-.318.053 2.071 2.071 0 00-2.547 1.326c-.053.159-.159.212-.212.212a.448.448 0 01-.318-.106 2.12 2.12 0 00-2.865 0 .448.448 0 01-.318.106c-.053 0-.159-.053-.265-.212a1.99 1.99 0 00-1.91-1.379 2.379 2.379 0 00-.584.053.3.3 0 01-.318-.053.448.448 0 01-.106-.318 2.107 2.107 0 00-1.645-2.334.574.574 0 01-.265-.212c0-.053-.053-.212.053-.318l.053-.053a2.068 2.068 0 00-.371-2.812.39.39 0 01-.106-.318.362.362 0 01.158-.27h.053a2.07 2.07 0 00.955-2.653.3.3 0 01.053-.318 1.16 1.16 0 01.265-.159h.053a2.077 2.077 0 002.069-1.91.331.331 0 01.159-.26q.08-.08.318 0h.053a2.112 2.112 0 002.759-.69.485.485 0 01.265-.159.252.252 0 01.265.159l.743-.477-.69.531a2.087 2.087 0 002.706.69h.053q.239-.08.318 0a.331.331 0 01.159.265 2.072 2.072 0 002.069 1.857h.053a.331.331 0 01.265.159.3.3 0 01.053.318 2.089 2.089 0 00.955 2.653h.053a.252.252 0 01.159.265.448.448 0 01-.106.318 2.01 2.01 0 00-.318 2.812c.106.106.053.265.053.318s-.106.159-.265.212a2.136 2.136 0 00-1.537 2.386zm-4.934 5.305l-3.4 2.759.644-4.721a2.3 2.3 0 00.637.265 1.985 1.985 0 001.91-.531.4.4 0 01.477 0 2.05 2.05 0 001.432.584 1.469 1.469 0 00.477-.053 3.245 3.245 0 00.637-.265l.637 4.722z" class="prefix__cls-1" data-name="Path 10281"/>
        <path id="prefix__Path_10282" d="M56.557 18.951V17.2H27.9v1.751z" class="prefix__cls-1" data-name="Path 10282" transform="translate(-13.07 -12.57)"/>
        <path id="prefix__Path_10283" d="M25.2 27.4v1.751h23.449V27.4z" class="prefix__cls-1" data-name="Path 10283" transform="translate(-7.768 -16.5)"/>
        <path id="prefix__Path_10284" d="M32.8 37.5v1.751h18.25V37.5z" class="prefix__cls-1" data-name="Path 10284" transform="translate(-12.769 -20.299)"/>
        <path id="prefix__Path_10285" d="M51.349 18.951V17.2H27.9v1.751z" class="prefix__cls-1" data-name="Path 10285" transform="translate(-10.468 -18.868)"/>
    </g>
</svg>
