<svg xmlns="http://www.w3.org/2000/svg" width="19.98" height="19.979" viewBox="0 0 19.98 19.979">
    <g id="prefix__Group_6058" data-name="Group 6058" transform="translate(-1035.8 -49.8)">
        <g id="prefix__phone_1_" data-name="phone (1)" transform="translate(1036.001 50)">
            <g id="prefix__Group_6006" data-name="Group 6006" transform="translate(-.001)">
                <g id="prefix__Group_6005" data-name="Group 6005">
                    <path id="prefix__Path_10252" d="M16.553 2.782a9.911 9.911 0 00-13.771 0A9.911 9.911 0 0016.8 16.8a9.911 9.911 0 00-.247-14.018zm-.222 13.549A9.251 9.251 0 1119.04 9.79a9.251 9.251 0 01-2.713 6.538z" data-name="Path 10252" transform="translate(.001)" style="stroke:#58595b;stroke-width:.4px;fill:#58595b"/>
                </g>
            </g>
        </g>
        <path id="prefix__Path_10315" d="M3.808-11.216a3.7 3.7 0 011.656.344 2.47 2.47 0 011.048.92 2.322 2.322 0 01.352 1.232 2.4 2.4 0 01-.216 1.064 2.3 2.3 0 01-.52.712 10.068 10.068 0 01-.816.64 5.328 5.328 0 00-1.012.856A1.555 1.555 0 003.968-4.4v.72H2.512v-.8a2.667 2.667 0 01.232-1.168 2.453 2.453 0 01.556-.768 8.9 8.9 0 01.848-.656 4.721 4.721 0 00.9-.72 1.2 1.2 0 00.288-.832A1.249 1.249 0 004.9-9.64 1.794 1.794 0 003.712-10a2.806 2.806 0 00-2.224 1.152L.48-9.632a4.2 4.2 0 013.328-1.584zM3.28-2.032a1.085 1.085 0 01.8.32 1.066 1.066 0 01.32.784 1.093 1.093 0 01-.32.792 1.072 1.072 0 01-.8.328 1.053 1.053 0 01-.78-.328 1.093 1.093 0 01-.32-.792 1.066 1.066 0 01.32-.784 1.066 1.066 0 01.78-.32z" data-name="Path 10315" transform="translate(1042.52 65.216)" style="fill:#58595b"/>
    </g>
</svg>
