<svg xmlns="http://www.w3.org/2000/svg" width="231" height="66.672" viewBox="0 0 231 66.672">
    <defs>
        <style>
            .prefix__cls-1{fill:#464749}.prefix__cls-2{fill:#a50c22}
        </style>
    </defs>
    <g id="prefix__Group_5985" data-name="Group 5985" transform="translate(-1558.189 -811.345)">
        <g id="prefix__Group_5885" data-name="Group 5885">
            <path id="prefix__Rectangle_3612" d="M0 0H153.501V0.692H0z" class="prefix__cls-1" data-name="Rectangle 3612" transform="translate(1632.133 860.575)"/>
        </g>
        <g id="prefix__Group_5906" data-name="Group 5906">
            <g id="prefix__Group_5886" data-name="Group 5886">
                <path id="prefix__Path_10116" d="M1635.672 852.354l-2.807-7.562-.73-.094v-.911h3.113v.911l-.775.124 1.782 5.22.159.558h.036l.164-.552 1.807-5.232-.889-.118v-.911h3.02v.911l-.742.094-2.7 7.562z" class="prefix__cls-2" data-name="Path 10116"/>
            </g>
            <g id="prefix__Group_5887" data-name="Group 5887">
                <path id="prefix__Path_10117" d="M1641.216 852.354v-.906l.936-.177v-6.4l-.936-.176v-.911h3.349v.911l-.93.176v6.4l.93.177v.906z" class="prefix__cls-2" data-name="Path 10117"/>
            </g>
            <g id="prefix__Group_5888" data-name="Group 5888">
                <path id="prefix__Path_10118" d="M1645.347 852.353v-.905l.941-.182v-6.38l-.941-.188v-.913h3.59a3.617 3.617 0 013.355 2.03 4.721 4.721 0 01.483 2.172v.17a4.8 4.8 0 01-.471 2.158 3.561 3.561 0 01-3.325 2.038zm2.425-1.141h1.131a2.071 2.071 0 001.285-.4 2.547 2.547 0 00.815-1.094 4.1 4.1 0 00.282-1.558v-.176a4.115 4.115 0 00-.282-1.574 2.485 2.485 0 00-.815-1.08 2.11 2.11 0 00-1.285-.394h-1.131z" class="prefix__cls-2" data-name="Path 10118"/>
            </g>
            <g id="prefix__Group_5889" data-name="Group 5889">
                <path id="prefix__Path_10119" d="M1655.57 852.354v-.906l.93-.177v-1.93l-2.577-4.525-.777-.118v-.911h3.226v.911l-.818.106 1.589 3 .13.258.022-.012.124-.24 1.718-3.008-.97-.106v-.911h3.16v.911l-.806.118-2.543 4.407v2.048l.936.177v.906z" class="prefix__cls-2" data-name="Path 10119"/>
            </g>
            <g id="prefix__Group_5890" data-name="Group 5890">
                <path id="prefix__Path_10120" d="M1660.425 852.354v-.906l.623-.089 2.838-7.574h1.442l2.8 7.574.624.089v.906h-2.725v-.906l.612-.112-.453-1.347H1663l-.465 1.347.617.112v.906zm2.96-3.5h2.419l-1.112-3.172-.077-.229h-.035l-.082.241z" class="prefix__cls-2" data-name="Path 10120"/>
            </g>
            <g id="prefix__Group_5891" data-name="Group 5891">
                <path id="prefix__Path_10121" d="M1671.52 852.354l-2.807-7.562-.73-.094v-.911h3.113v.911l-.776.124 1.783 5.22.159.558h.035l.165-.552 1.807-5.232-.89-.118v-.911h3.02v.911l-.742.094-2.7 7.562z" class="prefix__cls-2" data-name="Path 10121"/>
            </g>
            <g id="prefix__Group_5892" data-name="Group 5892">
                <path id="prefix__Path_10122" d="M1677.064 852.354v-.906l.935-.177v-6.4l-.935-.176v-.911h3.348v.911l-.93.176v6.4l.93.177v.906z" class="prefix__cls-2" data-name="Path 10122"/>
            </g>
            <g id="prefix__Group_5893" data-name="Group 5893">
                <path id="prefix__Path_10123" d="M1681.195 852.354v-.906l.935-.177v-6.4l-.935-.176v-.911h3.354v.911l-.936.176v2.673h3.749v-2.673l-.935-.176v-.911h3.349v.911l-.936.176v6.4l.936.177v.906h-3.349v-.906l.935-.177V848.7h-3.749v2.571l.936.177v.906z" class="prefix__cls-2" data-name="Path 10123"/>
            </g>
            <g id="prefix__Group_5894" data-name="Group 5894">
                <path id="prefix__Path_10124" d="M1690.151 852.354v-.906l.624-.089 2.838-7.574h1.442l2.8 7.574.623.089v.906h-2.725v-.906l.613-.112-.454-1.347h-3.189l-.466 1.347.618.112v.906zm2.961-3.5h2.419l-1.112-3.172-.077-.229h-.035l-.083.241z" class="prefix__cls-2" data-name="Path 10124"/>
            </g>
            <g id="prefix__Group_5895" data-name="Group 5895">
                <path id="prefix__Path_10125" d="M1699.18 852.354v-.906l.936-.177v-6.4l-.936-.176v-.911h3.96a4.135 4.135 0 011.648.3 2.3 2.3 0 011.043.85 2.633 2.633 0 010 2.649 2.373 2.373 0 01-.995.867 3.507 3.507 0 01-1.5.322l-1.743.018v2.483l.936.177v.906zm2.419-4.72h1.478a1.889 1.889 0 001.235-.338 1.22 1.22 0 00.4-.986 1.333 1.333 0 00-.388-1 1.654 1.654 0 00-1.184-.374h-1.54zm3.154 4.72l-1.635-3.943 1.388-.23 1.389 3.114.67.142v.917z" class="prefix__cls-2" data-name="Path 10125"/>
            </g>
            <g id="prefix__Group_5896" data-name="Group 5896">
                <path id="prefix__Path_10126" d="M1714.505 852.477a3.924 3.924 0 01-1.7-.349 2.684 2.684 0 01-1.157-1.01 2.932 2.932 0 01-.415-1.595v-4.649l-.936-.176v-.912h3.348v.912l-.935.176v4.649a2.053 2.053 0 00.223 1 1.439 1.439 0 00.631.6 2.12 2.12 0 00.947.2 2.186 2.186 0 00.968-.2 1.446 1.446 0 00.636-.6 2.009 2.009 0 00.226-1v-4.649l-.935-.176v-.912h3.348v.912l-.93.176v4.649a2.953 2.953 0 01-.415 1.607 2.635 2.635 0 01-1.162 1 4.105 4.105 0 01-1.742.344" class="prefix__cls-2" data-name="Path 10126"/>
            </g>
            <g id="prefix__Group_5897" data-name="Group 5897">
                <path id="prefix__Path_10127" d="M1719.454 852.354v-.906l.936-.177v-6.4l-.936-.176v-.911h2.436l3.931 6.256.036-.013v-5.156l-1.083-.176v-.911h3.354v.911l-.935.176v7.481h-1.408l-4.026-6.232-.034.005v5.144l1.083.177v.906z" class="prefix__cls-2" data-name="Path 10127"/>
            </g>
            <g id="prefix__Group_5898" data-name="Group 5898">
                <path id="prefix__Path_10128" d="M1728.859 852.354v-.906l.936-.177v-6.4l-.936-.176v-.911h3.349v.911l-.93.176v6.4l.93.177v.906z" class="prefix__cls-2" data-name="Path 10128"/>
            </g>
            <g id="prefix__Group_5899" data-name="Group 5899">
                <path id="prefix__Path_10129" d="M1736.416 852.354l-2.807-7.562-.73-.094v-.911h3.113v.911l-.775.124 1.782 5.22.159.558h.036l.164-.552 1.807-5.232-.889-.118v-.911h3.02v.911l-.742.094-2.7 7.562z" class="prefix__cls-2" data-name="Path 10129"/>
            </g>
            <g id="prefix__Group_5900" data-name="Group 5900">
                <path id="prefix__Path_10130" d="M1741.96 852.354v-.906l.936-.177v-6.4l-.936-.176v-.911h6.527v2.206h-1.154l-.1-1.065h-2.854v2.424h3.008v1.151h-3.008v2.725h3.012l.1-1.087h1.142v2.218z" class="prefix__cls-2" data-name="Path 10130"/>
            </g>
            <g id="prefix__Group_5901" data-name="Group 5901">
                <path id="prefix__Path_10131" d="M1749.653 852.354v-.906l.935-.177v-6.4l-.935-.176v-.911h3.96a4.143 4.143 0 011.648.3 2.3 2.3 0 011.042.85 2.632 2.632 0 010 2.649 2.367 2.367 0 01-.995.867 3.5 3.5 0 01-1.5.322l-1.743.018v2.483l.936.177v.906zm2.418-4.72h1.478a1.89 1.89 0 001.235-.338 1.22 1.22 0 00.4-.986 1.332 1.332 0 00-.387-1 1.655 1.655 0 00-1.184-.374h-1.542zm3.155 4.72l-1.637-3.943 1.39-.23 1.388 3.114.671.142v.917z" class="prefix__cls-2" data-name="Path 10131"/>
            </g>
            <g id="prefix__Group_5902" data-name="Group 5902">
                <path id="prefix__Path_10132" d="M1761.2 852.477a5.82 5.82 0 01-1.63-.217 4.881 4.881 0 01-1.466-.724v-1.972h1.149l.188 1.278a2.6 2.6 0 00.767.359 3.487 3.487 0 00.992.135 2.272 2.272 0 00.881-.15 1.219 1.219 0 00.544-.421 1.1 1.1 0 00.188-.641 1.133 1.133 0 00-.164-.607 1.435 1.435 0 00-.548-.473 4.8 4.8 0 00-1.036-.386 7.3 7.3 0 01-1.6-.613 2.63 2.63 0 01-.971-.847 2.208 2.208 0 01.047-2.383 2.541 2.541 0 011.038-.836 3.707 3.707 0 011.536-.312 4.874 4.874 0 011.686.248 4.047 4.047 0 011.24.677v1.842h-1.124l-.212-1.2a2.258 2.258 0 00-.628-.291 3.025 3.025 0 00-.908-.121 1.976 1.976 0 00-.789.147 1.279 1.279 0 00-.536.415 1.06 1.06 0 00-.193.638.947.947 0 00.17.566 1.484 1.484 0 00.571.438 6.946 6.946 0 001.083.4 5.051 5.051 0 012.113 1.025 2.151 2.151 0 01.718 1.665 2.076 2.076 0 01-.386 1.245 2.5 2.5 0 01-1.083.827 4.186 4.186 0 01-1.634.293" class="prefix__cls-2" data-name="Path 10132"/>
            </g>
            <g id="prefix__Group_5903" data-name="Group 5903">
                <path id="prefix__Path_10133" d="M1765.119 852.354v-.906l.935-.177v-6.4l-.935-.176v-.911h3.348v.911l-.93.176v6.4l.93.177v.906z" class="prefix__cls-2" data-name="Path 10133"/>
            </g>
            <g id="prefix__Group_5904" data-name="Group 5904">
                <path id="prefix__Path_10134" d="M1771.287 852.354v-.906l.935-.177v-6.35h-1.722l-.13 1.1h-1.113v-2.23h7.422v2.23h-1.118l-.13-1.1h-1.723v6.35l.935.177v.906z" class="prefix__cls-2" data-name="Path 10134"/>
            </g>
            <g id="prefix__Group_5905" data-name="Group 5905">
                <path id="prefix__Path_10135" d="M1779.879 852.354v-.906l.93-.177v-1.93l-2.578-4.525-.776-.118v-.911h3.224v.911l-.818.106 1.589 3 .13.258.024-.012.124-.24 1.718-3.008-.972-.106v-.911h3.16v.911l-.806.118-2.541 4.407v2.048l.935.177v.906z" class="prefix__cls-2" data-name="Path 10135"/>
            </g>
        </g>
        <g id="prefix__Group_5914" data-name="Group 5914">
            <g id="prefix__Group_5907" data-name="Group 5907">
                <path id="prefix__Path_10136" d="M1640.707 838.237a16.2 16.2 0 01-4.515-.6 13.443 13.443 0 01-4.059-2.006v-5.459h3.179l.521 3.536a7.051 7.051 0 002.127.994 9.585 9.585 0 002.747.376 6.277 6.277 0 002.435-.416 3.382 3.382 0 001.509-1.166 3.037 3.037 0 00.522-1.776 3.109 3.109 0 00-.457-1.678 3.948 3.948 0 00-1.516-1.313 13.456 13.456 0 00-2.869-1.068 20.3 20.3 0 01-4.44-1.7 7.378 7.378 0 01-2.69-2.347 6.1 6.1 0 01.131-6.6 7.008 7.008 0 012.876-2.314 10.248 10.248 0 014.254-.864 13.5 13.5 0 014.67.685 11.159 11.159 0 013.431 1.874v5.1h-3.113l-.587-3.325a6.23 6.23 0 00-1.736-.807 8.484 8.484 0 00-2.518-.334 5.49 5.49 0 00-2.184.407 3.485 3.485 0 00-1.483 1.15 2.921 2.921 0 00-.539 1.768 2.631 2.631 0 00.474 1.564 4.1 4.1 0 001.58 1.214 19 19 0 003 1.1 13.937 13.937 0 015.851 2.837 5.954 5.954 0 011.989 4.612 5.732 5.732 0 01-1.067 3.448 6.915 6.915 0 01-3 2.289 11.581 11.581 0 01-4.523.816" class="prefix__cls-2" data-name="Path 10136"/>
            </g>
            <g id="prefix__Group_5908" data-name="Group 5908">
                <path id="prefix__Path_10137" d="M1661.927 838.237a9.974 9.974 0 01-4.269-.889 9.442 9.442 0 01-3.269-2.5 11.489 11.489 0 01-2.093-3.815 15.167 15.167 0 01-.735-4.824v-.359a15.113 15.113 0 01.735-4.807 11.554 11.554 0 012.093-3.822 9.371 9.371 0 013.269-2.51 9.935 9.935 0 014.253-.889 10.247 10.247 0 014.352.889 9.274 9.274 0 013.277 2.51 11.418 11.418 0 012.069 3.822 15.433 15.433 0 01.717 4.807v.359a15.488 15.488 0 01-.717 4.824 11.354 11.354 0 01-2.069 3.815 9.343 9.343 0 01-3.277 2.5 10.209 10.209 0 01-4.336.889m0-3.261a5.552 5.552 0 003.546-1.1 6.478 6.478 0 002.07-3.073 14.187 14.187 0 00.676-4.6v-.391a13.738 13.738 0 00-.685-4.547 6.572 6.572 0 00-2.077-3.065 5.522 5.522 0 00-3.546-1.109 5.331 5.331 0 00-3.439 1.109 6.712 6.712 0 00-2.086 3.065 13.466 13.466 0 00-.7 4.547v.391a13.74 13.74 0 00.7 4.588 6.623 6.623 0 002.094 3.081 5.394 5.394 0 003.447 1.1" class="prefix__cls-2" data-name="Path 10137"/>
            </g>
            <g id="prefix__Group_5909" data-name="Group 5909">
                <path id="prefix__Path_10138" d="M1674.559 837.894v-2.511l2.575-.489v-17.715l-2.575-.489v-2.527h8.46l6.959 17.163h.1l6.748-17.163h8.556v2.527l-2.591.489v17.716l2.591.489v2.511h-9.273v-2.511l2.722-.489v-5.525l.032-10.383-.081-.015-7.351 18.384h-2.983l-7.563-18.287-.08.017.212 10.007v5.8l2.819.489v2.511z" class="prefix__cls-2" data-name="Path 10138"/>
            </g>
            <g id="prefix__Group_5910" data-name="Group 5910">
                <path id="prefix__Path_10139" d="M1706.456 837.894v-2.51l1.728-.244 7.855-20.977h3.993l7.759 20.977 1.727.244v2.51h-7.546v-2.51l1.695-.309-1.256-3.733h-8.834l-1.286 3.733 1.711.309v2.51zm8.2-9.7h6.7l-3.08-8.784-.211-.636h-.1l-.228.668z" class="prefix__cls-2" data-name="Path 10139"/>
            </g>
            <g id="prefix__Group_5911" data-name="Group 5911">
                <path id="prefix__Path_10140" d="M1731.458 837.894v-2.511l2.591-.489v-17.715l-2.591-.489v-2.527h9.274v2.527l-2.575.489v17.716l2.575.489v2.511z" class="prefix__cls-2" data-name="Path 10140"/>
            </g>
            <g id="prefix__Group_5912" data-name="Group 5912">
                <path id="prefix__Path_10141" d="M1749.125 837.894v-2.511l2.575-.489v-5.345l-7.139-12.535-2.152-.325v-2.527h8.932v2.527l-2.265.293 4.4 8.313.358.717.064-.032.342-.669 4.76-8.329-2.69-.293v-2.527h8.752v2.527l-2.233.325-7.04 12.209v5.671l2.591.489v2.511z" class="prefix__cls-2" data-name="Path 10141"/>
            </g>
            <g id="prefix__Group_5913" data-name="Group 5913">
                <path id="prefix__Path_10142" d="M1762.572 837.894v-2.51l1.728-.244 7.855-20.977h3.994l7.758 20.977 1.727.244v2.51h-7.546v-2.51l1.695-.309-1.255-3.733h-8.834l-1.287 3.733 1.711.309v2.51zm8.2-9.7h6.7l-3.08-8.784-.211-.636h-.1l-.228.668z" class="prefix__cls-2" data-name="Path 10142"/>
            </g>
        </g>
        <g id="prefix__Group_5915" data-name="Group 5915">
            <path id="prefix__Path_10143" d="M1632.133 876.048v-.693l.716-.136v-4.9l-.716-.135v-.7h2.545v.7l-.694.135v4.9l.694.136v.693zm1.667-1.73l-.6-.684 3.172-3.37.014-.018-.582-.058v-.7h2.447v.7l-.617.121zm2.153 1.73v-.693l.581-.059v-.005l-1.73-2.387.711-.8 2.348 3.135.626.113v.693z" class="prefix__cls-1" data-name="Path 10143"/>
            <path id="prefix__Path_10144" d="M1643.385 876.143a2.627 2.627 0 01-1.111-.225 1.777 1.777 0 01-.77-.688 2.346 2.346 0 01-.313-1.16l.009-.026h1.077a1.412 1.412 0 00.293.93.968.968 0 00.734.277 1 1 0 00.532-.135.879.879 0 00.338-.388 1.423 1.423 0 00.117-.6v-3.8l-.879-.131v-.7h2.73v.7l-.721.135v3.8a2.3 2.3 0 01-.234 1.067 1.636 1.636 0 01-.687.7 2.3 2.3 0 01-1.115.244z" class="prefix__cls-1" data-name="Path 10144"/>
            <path id="prefix__Path_10145" d="M1651.458 876.143a4.492 4.492 0 01-1.249-.167 3.718 3.718 0 01-1.121-.554v-1.509h.878l.145.977a1.925 1.925 0 00.587.275 2.664 2.664 0 00.76.1 1.748 1.748 0 00.673-.115.937.937 0 00.416-.322.839.839 0 00.144-.491.86.86 0 00-.126-.464 1.074 1.074 0 00-.419-.362 3.678 3.678 0 00-.792-.3 5.618 5.618 0 01-1.228-.468 2.032 2.032 0 01-.743-.649 1.685 1.685 0 01.035-1.824 1.947 1.947 0 01.8-.64 2.822 2.822 0 011.175-.238 3.726 3.726 0 011.291.188 3.092 3.092 0 01.948.519v1.41h-.86l-.162-.919a1.715 1.715 0 00-.48-.223 2.327 2.327 0 00-.7-.093 1.516 1.516 0 00-.6.113.973.973 0 00-.41.317.819.819 0 00-.148.489.734.734 0 00.131.433 1.136 1.136 0 00.436.335 5.3 5.3 0 00.83.3 3.857 3.857 0 011.616.784 1.645 1.645 0 01.55 1.275 1.588 1.588 0 01-.3.953 1.92 1.92 0 01-.828.633 3.221 3.221 0 01-1.249.237z" class="prefix__cls-1" data-name="Path 10145"/>
            <path id="prefix__Path_10146" d="M1656.732 876.143a2.233 2.233 0 01-1.207-.315 2.073 2.073 0 01-.775-.877 2.936 2.936 0 01-.271-1.29v-.1a2.919 2.919 0 01.271-1.284 2.1 2.1 0 01.775-.878 2.189 2.189 0 011.2-.32 2.223 2.223 0 011.207.317 2.084 2.084 0 01.775.877 2.924 2.924 0 01.27 1.288v.1a2.936 2.936 0 01-.27 1.29 2.079 2.079 0 01-.772.877 2.216 2.216 0 01-1.203.315zm0-.874a.938.938 0 00.624-.2 1.232 1.232 0 00.367-.568 2.624 2.624 0 00.122-.835v-.1a2.594 2.594 0 00-.122-.829 1.234 1.234 0 00-.37-.568.949.949 0 00-.63-.207.938.938 0 00-.622.207 1.22 1.22 0 00-.366.568 2.624 2.624 0 00-.12.829v.1a2.654 2.654 0 00.12.835 1.2 1.2 0 00.368.568.959.959 0 00.629.2z" class="prefix__cls-1" data-name="Path 10146"/>
            <path id="prefix__Path_10147" d="M1659.574 876.048v-.693l.681-.136v-3.211l-.716-.136v-.7h1.756l.054.64a1.7 1.7 0 01.6-.539 1.745 1.745 0 01.831-.191 1.5 1.5 0 01.818.214 1.327 1.327 0 01.516.646 1.711 1.711 0 01.592-.63 1.59 1.59 0 01.862-.23 1.432 1.432 0 011.156.5 2.306 2.306 0 01.421 1.514v2.121l.68.136v.693h-2.455v-.693l.64-.136v-2.126a1.376 1.376 0 00-.207-.865.748.748 0 00-.608-.248.839.839 0 00-.615.239 1.143 1.143 0 00-.313.608v2.392l.617.136v.693h-2.365v-.693l.617-.136v-2.126a1.36 1.36 0 00-.211-.854.749.749 0 00-.614-.259 1.08 1.08 0 00-.56.136.968.968 0 00-.362.383v2.72l.635.136v.693z" class="prefix__cls-1" data-name="Path 10147"/>
            <path id="prefix__Path_10148" d="M1669.962 876.143a1.644 1.644 0 01-1.158-.383 1.365 1.365 0 01-.414-1.054 1.335 1.335 0 01.252-.806 1.635 1.635 0 01.739-.543 3.154 3.154 0 011.18-.2h.743v-.41a.831.831 0 00-.231-.617.917.917 0 00-.674-.23 1.475 1.475 0 00-.446.061 1.163 1.163 0 00-.347.173l-.1.658h-.834l-.009-1.2a3.184 3.184 0 01.8-.371 3.282 3.282 0 01.982-.138 2.249 2.249 0 011.462.435 1.513 1.513 0 01.533 1.245v2.343c0 .063.005.124.011.184l.5.064v.693h-1.483c-.029-.1-.057-.207-.083-.306a2.571 2.571 0 01-.057-.3 2 2 0 01-.587.5 1.549 1.549 0 01-.779.202zm.257-.879a1.323 1.323 0 00.639-.16 1.12 1.12 0 00.446-.4v-.815h-.757a1.1 1.1 0 00-.767.236.728.728 0 00-.26.552.542.542 0 00.181.437.777.777 0 00.518.15z" class="prefix__cls-1" data-name="Path 10148"/>
            <path id="prefix__Path_10149" d="M1673.471 876.048v-.693l.676-.136v-3.211l-.717-.136v-.7h1.852v4.045l.671.136v.693zm.631-5.977v-1.05h1.18v1.05z" class="prefix__cls-1" data-name="Path 10149"/>
            <path id="prefix__Path_10150" d="M1677.692 878.017a2.237 2.237 0 01-.322-.028 2.149 2.149 0 01-.318-.067l.126-.851c.054.009.119.016.2.022s.137.009.182.009a.681.681 0 00.478-.178 1.286 1.286 0 00.314-.493l.149-.392-1.667-4.086-.567-.081v-.7h2.361v.7l-.6.09.847 2.271.149.423h.027l1-2.7-.6-.086v-.7h2.239v.7l-.528.077-1.887 4.833a2.9 2.9 0 01-.335.624 1.482 1.482 0 01-.505.446 1.537 1.537 0 01-.743.167z" class="prefix__cls-1" data-name="Path 10150"/>
            <path id="prefix__Path_10151" d="M1683.687 876.143a1.642 1.642 0 01-1.157-.383 1.366 1.366 0 01-.415-1.054 1.341 1.341 0 01.252-.806 1.646 1.646 0 01.739-.543 3.162 3.162 0 011.18-.2h.744v-.41a.828.828 0 00-.232-.617.914.914 0 00-.673-.23 1.478 1.478 0 00-.447.061 1.172 1.172 0 00-.347.173l-.1.658h-.834l-.009-1.2a3.207 3.207 0 01.8-.371 3.278 3.278 0 01.982-.138 2.248 2.248 0 011.461.435 1.513 1.513 0 01.534 1.245v2.343c0 .063.005.124.01.184l.5.064v.693h-1.482c-.03-.1-.057-.207-.083-.306a2.379 2.379 0 01-.057-.3 2.015 2.015 0 01-.587.5 1.553 1.553 0 01-.779.202zm.258-.879a1.326 1.326 0 00.639-.16 1.127 1.127 0 00.446-.4v-.815h-.757a1.107 1.107 0 00-.768.236.726.726 0 00-.259.552.541.541 0 00.18.437.782.782 0 00.519.15z" class="prefix__cls-1" data-name="Path 10151"/>
            <path id="prefix__Path_10152" d="M1692.557 876.143a3.16 3.16 0 01-1.656-.412 2.688 2.688 0 01-1.049-1.153 3.876 3.876 0 01-.363-1.723v-.167a3.846 3.846 0 01.36-1.7 2.8 2.8 0 011.032-1.166 2.932 2.932 0 011.6-.426 3.7 3.7 0 011.211.193 3.02 3.02 0 01.973.546v1.513h-.864l-.118-1.014a1.688 1.688 0 00-.329-.184 1.913 1.913 0 00-.394-.117 2.5 2.5 0 00-.466-.041 1.7 1.7 0 00-1.011.3 1.851 1.851 0 00-.642.833 3.287 3.287 0 00-.221 1.257v.176a3.206 3.206 0 00.234 1.285 1.831 1.831 0 00.674.827 1.874 1.874 0 001.051.288 2.49 2.49 0 00.589-.07 2.3 2.3 0 00.511-.182l.122-.919h.855v1.505a3.277 3.277 0 01-.925.4 4.324 4.324 0 01-1.174.151z" class="prefix__cls-1" data-name="Path 10152"/>
            <path id="prefix__Path_10153" d="M1697.669 876.143a2.235 2.235 0 01-1.207-.315 2.07 2.07 0 01-.774-.877 2.938 2.938 0 01-.271-1.29v-.1a2.921 2.921 0 01.271-1.284 2.1 2.1 0 01.774-.878 2.194 2.194 0 011.2-.32 2.222 2.222 0 011.207.317 2.079 2.079 0 01.776.877 2.938 2.938 0 01.27 1.288v.1a2.95 2.95 0 01-.27 1.29 2.074 2.074 0 01-.773.877 2.212 2.212 0 01-1.203.315zm0-.874a.943.943 0 00.625-.2 1.223 1.223 0 00.366-.568 2.6 2.6 0 00.122-.835v-.1a2.567 2.567 0 00-.122-.829 1.225 1.225 0 00-.369-.568.95.95 0 00-.631-.207.935.935 0 00-.621.207 1.222 1.222 0 00-.367.568 2.652 2.652 0 00-.12.829v.1a2.682 2.682 0 00.12.835 1.2 1.2 0 00.369.568.957.957 0 00.628.2z" class="prefix__cls-1" data-name="Path 10153"/>
            <path id="prefix__Path_10154" d="M1700.481 876.048v-.693l.68-.136v-5.365l-.721-.135v-.7h1.851v6.2l.681.136v.693z" class="prefix__cls-1" data-name="Path 10154"/>
            <path id="prefix__Path_10155" d="M1703.422 876.048v-.693l.68-.136v-5.365l-.721-.135v-.7h1.851v6.2l.681.136v.693z" class="prefix__cls-1" data-name="Path 10155"/>
            <path id="prefix__Path_10156" d="M1708.71 876.143a2.271 2.271 0 01-1.2-.309 2.1 2.1 0 01-.793-.853 2.693 2.693 0 01-.281-1.248v-.189a2.8 2.8 0 01.277-1.268 2.178 2.178 0 01.763-.875 1.988 1.988 0 011.108-.317 2.146 2.146 0 011.11.266 1.678 1.678 0 01.678.754 2.742 2.742 0 01.23 1.174v.649h-2.991l-.009.022a1.766 1.766 0 00.16.68 1.131 1.131 0 00.405.469 1.156 1.156 0 00.642.171 2.271 2.271 0 00.721-.108 2.245 2.245 0 00.6-.306l.356.711a2.47 2.47 0 01-.734.41 2.968 2.968 0 01-1.042.167zm-1.081-3.014h1.888v-.117a1.512 1.512 0 00-.1-.561.8.8 0 00-.3-.376.929.929 0 00-.521-.135.789.789 0 00-.481.153 1.087 1.087 0 00-.332.417 2.06 2.06 0 00-.168.6z" class="prefix__cls-1" data-name="Path 10156"/>
            <path id="prefix__Path_10157" d="M1713.39 878.017a3.73 3.73 0 01-.8-.1 3.236 3.236 0 01-.772-.268l.234-.829a3.356 3.356 0 00.635.211 2.852 2.852 0 00.658.082 1.009 1.009 0 00.818-.309 1.321 1.321 0 00.258-.871v-.383a1.51 1.51 0 01-.535.439 1.62 1.62 0 01-.712.151 1.754 1.754 0 01-1.025-.3 1.865 1.865 0 01-.657-.833 3.155 3.155 0 01-.228-1.243v-.095a3.708 3.708 0 01.228-1.36 2.027 2.027 0 01.653-.905 1.623 1.623 0 011.016-.325 1.579 1.579 0 01.774.182 1.64 1.64 0 01.559.521l.085-.613h.978v4.766a2.252 2.252 0 01-.257 1.1 1.76 1.76 0 01-.743.721 2.485 2.485 0 01-1.167.261zm.091-2.771a1 1 0 00.94-.545v-2.171a1.13 1.13 0 00-.382-.4 1.02 1.02 0 00-.554-.147.892.892 0 00-.615.215 1.252 1.252 0 00-.356.594 3.093 3.093 0 00-.115.885v.095a1.949 1.949 0 00.26 1.076.9.9 0 00.822.398zm1.923-3.216l-.478-.856h1.216v.7z" class="prefix__cls-1" data-name="Path 10157"/>
            <path id="prefix__Path_10158" d="M1718.85 876.143a2.271 2.271 0 01-1.2-.309 2.1 2.1 0 01-.793-.853 2.679 2.679 0 01-.282-1.248v-.189a2.814 2.814 0 01.277-1.268 2.192 2.192 0 01.763-.875 1.99 1.99 0 011.109-.317 2.146 2.146 0 011.11.266 1.69 1.69 0 01.678.754 2.742 2.742 0 01.23 1.174v.649h-2.991l-.009.022a1.751 1.751 0 00.16.68 1.13 1.13 0 00.405.469 1.156 1.156 0 00.642.171 2.275 2.275 0 00.721-.108 2.245 2.245 0 00.6-.306l.356.711a2.464 2.464 0 01-.735.41 2.959 2.959 0 01-1.041.167zm-1.081-3.014h1.887v-.117a1.49 1.49 0 00-.1-.561.787.787 0 00-.3-.376.923.923 0 00-.52-.135.787.787 0 00-.481.153 1.079 1.079 0 00-.332.417 2.06 2.06 0 00-.169.6z" class="prefix__cls-1" data-name="Path 10158"/>
            <path id="prefix__Path_10159" d="M1726.521 876.143a2.757 2.757 0 01-1.18-.246 2.634 2.634 0 01-.9-.691 3.207 3.207 0 01-.578-1.054 4.2 4.2 0 01-.2-1.334v-.1a4.189 4.189 0 01.2-1.329 3.228 3.228 0 01.578-1.056 2.618 2.618 0 01.9-.694 2.762 2.762 0 011.176-.245 2.843 2.843 0 011.2.245 2.562 2.562 0 01.906.694 3.18 3.18 0 01.572 1.056 4.278 4.278 0 01.2 1.329v.1a4.292 4.292 0 01-.2 1.334 3.16 3.16 0 01-.572 1.054 2.577 2.577 0 01-.906.691 2.82 2.82 0 01-1.196.246zm0-.9a1.531 1.531 0 00.98-.3 1.79 1.79 0 00.572-.849 3.938 3.938 0 00.187-1.271v-.108a3.812 3.812 0 00-.189-1.257 1.821 1.821 0 00-.575-.846 1.524 1.524 0 00-.979-.307 1.477 1.477 0 00-.951.307 1.852 1.852 0 00-.576.846 3.729 3.729 0 00-.194 1.257v.108a3.792 3.792 0 00.194 1.268 1.836 1.836 0 00.578.852 1.492 1.492 0 00.953.299z" class="prefix__cls-1" data-name="Path 10159"/>
            <path id="prefix__Path_10160" d="M1730.026 876.048v-.693l.68-.136v-3.234h-.743v-.811h.743v-.574a1.662 1.662 0 01.443-1.239 1.7 1.7 0 011.241-.436 2.82 2.82 0 01.4.029 3.364 3.364 0 01.387.074l-.112.852a1.918 1.918 0 00-.234-.039 2.579 2.579 0 00-.275-.016.685.685 0 00-.538.2.837.837 0 00-.179.577v.572h1.09v.811h-1.09v3.234l.852.136v.693z" class="prefix__cls-1" data-name="Path 10160"/>
            <path id="prefix__Path_10161" d="M1735.72 876.048v-.693l.716-.136v-4.9l-.716-.135v-.7h4.995v1.69h-.883l-.076-.815h-2.186v1.855h2.3v.879h-2.3v2.085h2.308l.076-.833h.873v1.7z" class="prefix__cls-1" data-name="Path 10161"/>
            <path id="prefix__Path_10162" d="M1741.585 876.048v-.693l.675-.136v-3.211l-.712-.136v-.7h1.758l.058.707a1.771 1.771 0 01.606-.588 1.618 1.618 0 01.822-.209 1.5 1.5 0 011.171.462 2.1 2.1 0 01.419 1.443v2.23l.675.136v.693h-2.445v-.693l.635-.136V873a1.123 1.123 0 00-.221-.785.865.865 0 00-.658-.233 1.1 1.1 0 00-.574.147 1.137 1.137 0 00-.4.407v2.685l.617.136v.693z" class="prefix__cls-1" data-name="Path 10162"/>
            <path id="prefix__Path_10163" d="M1749.715 878.017a3.728 3.728 0 01-.8-.1 3.237 3.237 0 01-.772-.268l.234-.829a3.356 3.356 0 00.635.211 2.854 2.854 0 00.658.082 1.009 1.009 0 00.818-.309 1.321 1.321 0 00.258-.871v-.383a1.51 1.51 0 01-.535.439 1.62 1.62 0 01-.712.151 1.754 1.754 0 01-1.025-.3 1.865 1.865 0 01-.657-.833 3.155 3.155 0 01-.228-1.243v-.095a3.708 3.708 0 01.228-1.36 2.027 2.027 0 01.653-.905 1.623 1.623 0 011.016-.325 1.579 1.579 0 01.774.182 1.639 1.639 0 01.559.521l.085-.613h.978v4.766a2.251 2.251 0 01-.257 1.1 1.759 1.759 0 01-.743.721 2.485 2.485 0 01-1.167.261zm.091-2.771a1 1 0 00.94-.545v-2.171a1.13 1.13 0 00-.382-.4 1.02 1.02 0 00-.554-.147.892.892 0 00-.615.215 1.254 1.254 0 00-.356.594 3.093 3.093 0 00-.115.885v.095a1.95 1.95 0 00.26 1.076.9.9 0 00.822.398zm1.923-3.216l-.478-.856h1.216v.7z" class="prefix__cls-1" data-name="Path 10163"/>
            <path id="prefix__Path_10164" d="M1752.855 876.048v-.693l.676-.136v-3.211l-.717-.136v-.7h1.852v4.045l.671.136v.693zm.63-5.977v-1.05h1.181v1.05z" class="prefix__cls-1" data-name="Path 10164"/>
            <path id="prefix__Path_10165" d="M1755.819 876.048v-.693l.675-.136v-3.211l-.712-.136v-.7h1.758l.058.707a1.771 1.771 0 01.606-.588 1.618 1.618 0 01.822-.209 1.5 1.5 0 011.172.462 2.108 2.108 0 01.418 1.443v2.23l.676.136v.693h-2.446v-.693l.635-.136V873a1.123 1.123 0 00-.22-.785.869.869 0 00-.659-.233 1.1 1.1 0 00-.574.147 1.137 1.137 0 00-.4.407v2.685l.617.136v.693z" class="prefix__cls-1" data-name="Path 10165"/>
            <path id="prefix__Path_10166" d="M1764.089 876.143a2.275 2.275 0 01-1.2-.309 2.107 2.107 0 01-.793-.853 2.681 2.681 0 01-.282-1.248v-.189a2.815 2.815 0 01.277-1.268 2.188 2.188 0 01.764-.875 1.99 1.99 0 011.109-.317 2.146 2.146 0 011.11.266 1.7 1.7 0 01.678.754 2.743 2.743 0 01.229 1.174v.649h-2.99l-.01.022a1.751 1.751 0 00.16.68 1.125 1.125 0 00.406.469 1.152 1.152 0 00.642.171 2.175 2.175 0 001.32-.414l.356.711a2.489 2.489 0 01-.735.41 2.969 2.969 0 01-1.041.167zm-1.08-3.014h1.886v-.117a1.49 1.49 0 00-.1-.561.786.786 0 00-.3-.376.928.928 0 00-.52-.135.788.788 0 00-.482.153 1.068 1.068 0 00-.331.417 2.033 2.033 0 00-.169.6z" class="prefix__cls-1" data-name="Path 10166"/>
            <path id="prefix__Path_10167" d="M1768.909 876.143a2.276 2.276 0 01-1.2-.309 2.106 2.106 0 01-.793-.853 2.681 2.681 0 01-.282-1.248v-.189a2.8 2.8 0 01.277-1.268 2.179 2.179 0 01.764-.875 1.987 1.987 0 011.108-.317 2.148 2.148 0 011.111.266 1.7 1.7 0 01.677.754 2.73 2.73 0 01.23 1.174v.649h-2.991l-.009.022a1.746 1.746 0 00.16.68 1.123 1.123 0 00.4.469 1.156 1.156 0 00.642.171 2.279 2.279 0 00.721-.108 2.229 2.229 0 00.6-.306l.356.711a2.47 2.47 0 01-.734.41 2.976 2.976 0 01-1.037.167zm-1.081-3.014h1.887v-.117a1.493 1.493 0 00-.1-.561.793.793 0 00-.3-.376.928.928 0 00-.52-.135.793.793 0 00-.483.153 1.065 1.065 0 00-.33.417 2.03 2.03 0 00-.169.6z" class="prefix__cls-1" data-name="Path 10167"/>
            <path id="prefix__Path_10168" d="M1771.495 876.048v-.693l.675-.136v-3.211l-.712-.136v-.7h1.758l.058.613.009.1a1.625 1.625 0 01.475-.595 1.085 1.085 0 01.66-.207 1.832 1.832 0 01.268.022 2.1 2.1 0 01.233.05l-.131 1.05-.636-.037a.8.8 0 00-.511.122 1.105 1.105 0 00-.336.388v2.54l.677.136v.693z" class="prefix__cls-1" data-name="Path 10168"/>
            <path id="prefix__Path_10169" d="M1775.342 876.048v-.693l.675-.136v-3.211l-.716-.136v-.7h1.851v4.045l.672.136v.693zm.63-5.977v-1.05h1.18v1.05z" class="prefix__cls-1" data-name="Path 10169"/>
            <path id="prefix__Path_10170" d="M1778.305 876.048v-.693l.676-.136v-3.211l-.711-.136v-.7h1.756l.058.707a1.782 1.782 0 01.607-.588 1.618 1.618 0 01.822-.209 1.5 1.5 0 011.171.462 2.1 2.1 0 01.419 1.443v2.23l.676.136v.693h-2.446v-.693l.634-.136V873a1.122 1.122 0 00-.22-.785.864.864 0 00-.657-.233 1.1 1.1 0 00-.575.147 1.127 1.127 0 00-.4.407v2.685l.617.136v.693z" class="prefix__cls-1" data-name="Path 10170"/>
            <path id="prefix__Path_10171" d="M1786.437 878.017a3.708 3.708 0 01-.8-.1 3.214 3.214 0 01-.773-.268l.235-.829a3.33 3.33 0 00.635.211 2.838 2.838 0 00.657.082 1.009 1.009 0 00.818-.309 1.316 1.316 0 00.259-.871v-.383a1.53 1.53 0 01-.536.439 1.623 1.623 0 01-.712.151 1.746 1.746 0 01-1.024-.3 1.875 1.875 0 01-.659-.833 3.173 3.173 0 01-.227-1.243v-.095a3.729 3.729 0 01.227-1.36 2.036 2.036 0 01.654-.905 1.62 1.62 0 011.015-.325 1.577 1.577 0 01.775.182 1.631 1.631 0 01.559.521l.086-.613h.977v4.766a2.263 2.263 0 01-.256 1.1 1.767 1.767 0 01-.744.721 2.484 2.484 0 01-1.166.261zm.089-2.771a1 1 0 00.942-.545v-2.171a1.15 1.15 0 00-.383-.4 1.02 1.02 0 00-.554-.147.888.888 0 00-.615.215 1.252 1.252 0 00-.356.594 3.059 3.059 0 00-.115.885v.095a1.967 1.967 0 00.259 1.076.906.906 0 00.822.398zm1.924-3.216l-.477-.856h1.216v.7z" class="prefix__cls-1" data-name="Path 10171"/>
        </g>
        <g id="prefix__Group_5976" data-name="Group 5976">
            <g id="prefix__Group_5916" data-name="Group 5916">
                <path id="prefix__Path_10172" d="M1590.194 815.267c-.083.027-.113.043-.144.048-.65.078-.65.078-.926-.512-.161-.342-.161-.341-.547-.309-.318.025-.635.052-.951.064a.347.347 0 00-.385.313 6.454 6.454 0 01-.188.645l-.788.06c.039-.146.063-.249.094-.351q.534-1.728 1.071-3.456c.087-.284.089-.291.382-.3.648-.019.48-.141.776.457.48.974.945 1.955 1.417 2.932.061.127.119.256.189.408m-2.163-2.823l-.087.008-.423 1.475c.41-.027.752-.049 1.151-.077-.227-.509-.42-.964-.641-1.406" class="prefix__cls-2" data-name="Path 10172"/>
            </g>
            <g id="prefix__Group_5917" data-name="Group 5917">
                <path id="prefix__Path_10173" d="M1592.15 814.028a1.482 1.482 0 111.505 1.457 1.393 1.393 0 01-1.505-1.457m2.23-.084l-.031-.006a1.843 1.843 0 000-.2.708.708 0 00-1.391-.145 1.281 1.281 0 00-.024.775.7.7 0 00.638.526.681.681 0 00.693-.448 3.52 3.52 0 00.116-.506" class="prefix__cls-2" data-name="Path 10173"/>
            </g>
            <g id="prefix__Group_5918" data-name="Group 5918">
                <path id="prefix__Path_10174" d="M1596.35 815.831l-.692-.155.645-2.789.625.127-.024.381c.114-.053.2-.1.3-.138a1.151 1.151 0 011.154.116.681.681 0 01.321.611 2.674 2.674 0 01-.049.456c-.116.535-.241 1.068-.365 1.6-.014.062-.042.121-.075.217l-.682-.158c.1-.446.2-.86.289-1.274a5.286 5.286 0 00.111-.581c.033-.323-.066-.489-.314-.572a.589.589 0 00-.694.228 1.278 1.278 0 00-.15.362c-.113.446-.216.894-.324 1.34-.015.062-.039.124-.072.228" class="prefix__cls-2" data-name="Path 10174"/>
            </g>
            <g id="prefix__Group_5919" data-name="Group 5919">
                <path id="prefix__Path_10175" d="M1590.723 811.345h.7c.049.658 0 1.31 0 1.96s-.019 1.311-.029 1.99h-.724c-.014-1.314.066-2.61.058-3.95" class="prefix__cls-2" data-name="Path 10175"/>
            </g>
            <g id="prefix__Group_5920" data-name="Group 5920">
                <path id="prefix__Path_10176" d="M1614.378 845.8a23.817 23.817 0 01-47.474.117 11.982 11.982 0 0011.861 9.922 11.859 11.859 0 0011.173-7.934c-.147-.092-.3-.19-.457-.285a8.52 8.52 0 01-3.117-3.231 6.073 6.073 0 01-.759-2.734 5.517 5.517 0 01.809-3.077 11.222 11.222 0 011.049-1.43 14.436 14.436 0 002.005-2.845 6.9 6.9 0 00.766-2.8 8.686 8.686 0 00-.208-2.057c-.091-.462-.163-.928-.238-1.393a2.128 2.128 0 010-.292 2.244 2.244 0 01.26.133 15.4 15.4 0 015.138 5.846 10.857 10.857 0 01-.43 10.283 9.993 9.993 0 01-2.239 2.438c-.291.235-.578.473-.864.713-.091.077-.17.169-.259.251a.392.392 0 00-.093.475 11.958 11.958 0 001 2.108 11.716 11.716 0 008.162 5.644 11.908 11.908 0 0013.04-6.939 13.233 13.233 0 00.878-2.909" class="prefix__cls-2" data-name="Path 10176"/>
            </g>
            <g id="prefix__Group_5921" data-name="Group 5921">
                <path id="prefix__Path_10177" d="M1564.094 852.745l-.227-.783a.853.853 0 01.131-.092 1.423 1.423 0 00.912-1.613 3.174 3.174 0 00-.321-1.167 1.224 1.224 0 00-.653-.619.872.872 0 00-1.208.612 8.349 8.349 0 00-.133 1.207c-.033.48-.037.964-.073 1.444a3.1 3.1 0 01-.122.61 1.894 1.894 0 01-2.893 1.04 2.454 2.454 0 01-.96-1.182 4.123 4.123 0 01-.279-2.447 2.284 2.284 0 011.633-1.771.928.928 0 01.158-.019l.243.782a1.424 1.424 0 01-.162.1 1.638 1.638 0 00-1.073 1.452 2.8 2.8 0 00.568 2.1 1.074 1.074 0 00.949.431.907.907 0 00.846-.581 2.971 2.971 0 00.183-.794c.044-.481.037-.965.075-1.447a6.623 6.623 0 01.151-1.136 1.64 1.64 0 011.56-1.33 1.822 1.822 0 011.71.852 3.583 3.583 0 01.565 1.46 3.508 3.508 0 010 1.276 2 2 0 01-1.582 1.618" class="prefix__cls-2" data-name="Path 10177"/>
            </g>
            <g id="prefix__Group_5922" data-name="Group 5922">
                <path id="prefix__Path_10178" d="M1566.613 858.445l-.489.41.011.068a1.929 1.929 0 011.58.739 1.5 1.5 0 01.216 1.731c.142.018.253.035.366.042a1.849 1.849 0 011.525.952 1.376 1.376 0 01-.168 1.756 2.77 2.77 0 01-.334.316q-1.372 1.077-2.748 2.149c-.044.033-.091.06-.173.116l-.512-.644c.1-.084.182-.158.267-.224.742-.582 1.487-1.16 2.228-1.743a5.366 5.366 0 00.544-.477.8.8 0 00.145-1 1.23 1.23 0 00-1.613-.6 2.981 2.981 0 00-.561.337c-.715.547-1.42 1.1-2.13 1.657-.094.073-.189.14-.3.226l-.509-.655c.1-.089.18-.162.265-.227.769-.6 1.541-1.2 2.305-1.808a3.388 3.388 0 00.54-.524.779.779 0 00.022-.977 1.228 1.228 0 00-1.58-.485 4.429 4.429 0 00-.806.5c-.631.475-1.248.969-1.871 1.455-.092.073-.19.141-.306.227l-.527-.662 4.144-3.24.471.584" class="prefix__cls-2" data-name="Path 10178"/>
            </g>
            <g id="prefix__Group_5923" data-name="Group 5923">
                <path id="prefix__Path_10179" d="M1577.263 824.34l.493.634-.556.475 2.726 3.5a1.566 1.566 0 01-.238.066c-.131.014-.265 0-.394.025a.645.645 0 01-.688-.31c-.612-.817-1.248-1.615-1.877-2.419-.073-.094-.151-.184-.242-.3a4.034 4.034 0 00-1.034.873l3.107 3.223c-.371.063-.676.127-.985.16-.075.008-.175-.076-.239-.142-.356-.357-.7-.724-1.055-1.085-.075-.077-.155-.149-.266-.254l-.926 1.021.737.685a.359.359 0 01-.357.177c-.4-.005-.79-.009-1.185-.017a.423.423 0 01-.45-.263.487.487 0 01.118-.542c.423-.46.838-.928 1.255-1.394.072-.081.141-.165.238-.279l-.653-.674c-.785.674-1.38 1.482-2.1 2.212l-.609-.539c.542-.6 1.059-1.178 1.585-1.762l.245.17.02-.025-.146-.214a23.23 23.23 0 013.48-3" class="prefix__cls-2" data-name="Path 10179"/>
            </g>
            <g id="prefix__Group_5924" data-name="Group 5924">
                <path id="prefix__Path_10180" d="M1597.614 822.315l.073.7c-.261.025-.487.046-.713.073a1.409 1.409 0 00-.287.068.342.342 0 00-.271.394.358.358 0 00.319.363 3.311 3.311 0 00.682-.023 2.384 2.384 0 00.379-.107l-.031.364a9.1 9.1 0 00.735-2l-2.469-.691c.076-.276.143-.512.215-.768a2.154 2.154 0 01.24.036c.518.146 1.034.3 1.55.443l1.271.361a3.931 3.931 0 00-.294-.376 5.051 5.051 0 00-1.676-1.2.411.411 0 01-.3-.439c0-.217-.032-.433-.055-.721a3.642 3.642 0 011.745 1.166 1.167 1.167 0 00-.022-.2c-.095-.28-.191-.56-.294-.838a.667.667 0 00-.382-.466.248.248 0 01-.121-.172c-.035-.282-.051-.565-.08-.914a7.353 7.353 0 01.922.437.891.891 0 01.294.46c.159.49.3.984.421 1.485.128.544.23 1.094.313 1.648.039.258.116.436.393.48a.958.958 0 01.188.087l-.263.75-.69-.219c-.29.687-.514 1.394-.774 2.087s-.5 1.373-.777 2.128c-.217-.3-.4-.54-.565-.8a.4.4 0 01.008-.275c.087-.28.189-.556.3-.879h-.411a1.3 1.3 0 01-1.345-1.252.955.955 0 01.435-.9 1.993 1.993 0 011.339-.294" class="prefix__cls-2" data-name="Path 10180"/>
            </g>
            <g id="prefix__Group_5925" data-name="Group 5925">
                <path id="prefix__Path_10181" d="M1588.428 820.926a2.608 2.608 0 01-.056-.278c-.014-.162-.017-.325-.026-.516.359-.032.7-.061 1.03-.088.274-.021.547-.043.821-.059a.619.619 0 01.5.089c.052.047.169.023.255.023h1.885a1.776 1.776 0 01.028.811l-.688.033c-.008.132-.021.248-.021.365 0 1.229 0 2.458-.005 3.687a.494.494 0 00.227.462 1.16 1.16 0 01.37 1.334 1.043 1.043 0 01-1.045.747 1.669 1.669 0 01-1.135-.362 3.559 3.559 0 01-.478-.449 10.723 10.723 0 01-.993-1.409.473.473 0 01.606.225 3.957 3.957 0 00.9 1.043 1.266 1.266 0 001.222.3.552.552 0 00.432-.518.426.426 0 00-.6-.453 1.677 1.677 0 00-.38.253 1.969 1.969 0 00-.217.237l-.423-.613a1.063 1.063 0 011.074-.559c-.027-.164-.151-.207-.244-.261a.4.4 0 01-.208-.409c.01-.526 0-1.053 0-1.58 0-.117-.01-.235-.018-.395-.516.042-1.006.068-1.49.128a.425.425 0 00-.346.517 1.743 1.743 0 00.153.466 3.841 3.841 0 00.8 1.08c.07.068.15.127.258.218l-.321.239a1.181 1.181 0 01-.183-.144c-.313-.367-.64-.723-.926-1.11a2.161 2.161 0 01-.438-1.354.839.839 0 01.239-.629.644.644 0 01.333-.186c.587-.063 1.177-.1 1.8-.151.027.2.052.362.075.533a3.317 3.317 0 00.014-1.248l-.313-.018c-.064-.005-.15.015-.193-.019-.2-.16-.415-.094-.629-.08-.459.03-.918.067-1.377.1-.085.006-.17 0-.264 0" class="prefix__cls-2" data-name="Path 10181"/>
            </g>
            <g id="prefix__Group_5926" data-name="Group 5926">
                <path id="prefix__Path_10182" d="M1600.74 870.767l-.836-2.458.8-.274c.794 2.3 1.577 4.575 2.373 6.888l-.728.251-.231-.554c-.056.1-.095.155-.123.217a1.889 1.889 0 01-1.874 1.068 2.334 2.334 0 01-1.78-1.105 3.794 3.794 0 01-.641-2.4 2.009 2.009 0 012.814-1.719 2.445 2.445 0 00.229.087m-2.21 1.928a3.621 3.621 0 00.665 1.837 1.461 1.461 0 001.071.633 1.334 1.334 0 001.433-1.439 3.43 3.43 0 00-.757-2.032 1.368 1.368 0 00-1.534-.46 1.407 1.407 0 00-.878 1.461" class="prefix__cls-2" data-name="Path 10182"/>
            </g>
            <g id="prefix__Group_5927" data-name="Group 5927">
                <path id="prefix__Path_10183" d="M1595.991 869.392l.182.961-.784.16-.15-.21a.885.885 0 00-.054.1q-.528 1.489-1.053 2.977l-1.244 3.538c-.108.306-.11.306-.441.316-.165.005-.329.009-.494.012-.032 0-.064-.008-.142-.016l-3.065-7.162 1-.047 2.521 6.36a1.507 1.507 0 00.1-.191l1.986-6.065c.085-.261.1-.265.369-.281.139-.008.28-.012.43-.019l.059-.291.78-.144" class="prefix__cls-2" data-name="Path 10183"/>
            </g>
            <g id="prefix__Group_5928" data-name="Group 5928">
                <path id="prefix__Path_10184" d="M1612.907 868.843c-.1.092-.175.157-.249.219-.135.112-.27.219-.42.34-.18-.116-.341-.223-.514-.334-.134.094-.114.254-.151.38a2.747 2.747 0 01-1.367 1.694 1.512 1.512 0 01-.915.208 1.474 1.474 0 01-1.223-1.964 2.5 2.5 0 01.54-.856q.554-.609 1.1-1.224a4.277 4.277 0 00.25-.353c-.146-.156-.276-.314-.426-.453a.715.715 0 00-.707-.158 2.119 2.119 0 00-1.259.993.9.9 0 00-.06.674c.025.116.067.229.117.392l-.694.419a1.586 1.586 0 01-.164-1.445 3.353 3.353 0 012.115-1.888 1.155 1.155 0 011.208.322 6.7 6.7 0 01.524.59c.293.355.572.722.871 1.072a4.747 4.747 0 001.426 1.372m-2.522-1.338c-.223.291-.411.546-.612.79s-.433.494-.647.741a1.789 1.789 0 00-.153.215.793.793 0 00.026.95.829.829 0 00.946.265 1.839 1.839 0 001.138-1.557 2.124 2.124 0 00-.7-1.4" class="prefix__cls-2" data-name="Path 10184"/>
            </g>
            <g id="prefix__Group_5929" data-name="Group 5929">
                <path id="prefix__Path_10185" d="M1581.021 871.934l-.73-.329a1.656 1.656 0 011.511-1.033 3.642 3.642 0 012.129.563 1.248 1.248 0 01.6 1.5c-.179.722-.4 1.436-.592 2.156-.092.349-.182.7-.241 1.056a4.378 4.378 0 00-.006.682c-.191-.052-.347-.091-.5-.137-.363-.1-.376-.122-.354-.5 0-.063.01-.127.016-.2-.152-.059-.265.038-.379.078a2.732 2.732 0 01-2.289-.18 1.419 1.419 0 01-.655-1.908 1.435 1.435 0 011.33-.868 8.136 8.136 0 011.11.082c.426.041.849.1 1.274.133.282.023.305 0 .382-.286a.9.9 0 00-.523-1.194 3.835 3.835 0 00-.907-.27.956.956 0 00-.934.365c-.078.092-.151.184-.244.3m2.317 1.781a1.113 1.113 0 00-.152-.037c-.491-.04-.982-.081-1.475-.115a4.635 4.635 0 00-.656-.02.755.755 0 00-.714.579.765.765 0 00.305.87 1.849 1.849 0 00.658.279 1.522 1.522 0 001.628-.518 2.734 2.734 0 00.406-1.038" class="prefix__cls-2" data-name="Path 10185"/>
            </g>
            <g id="prefix__Group_5930" data-name="Group 5930">
                <path id="prefix__Path_10186" d="M1571.036 870.832c-.246-.214-.441-.387-.655-.574l.249-.611-.408-.04a2.662 2.662 0 01-2.036-1.235 1.44 1.44 0 01.857-2.2 1.6 1.6 0 011.15.137c.264.132.511.3.763.451.385.231.763.474 1.154.694.256.144.285.127.467-.095a.906.906 0 00.015-1.33 3.722 3.722 0 00-.635-.566 1 1 0 00-1.145-.062c-.075.041-.152.08-.252.131l-.534-.611a1.612 1.612 0 011.483-.395 3.424 3.424 0 012.076 1.611 1.222 1.222 0 01-.133 1.5c-.434.537-.893 1.054-1.342 1.579-.035.042-.072.081-.107.124a4.354 4.354 0 00-.967 1.491m.888-2.715a1.73 1.73 0 00-.15-.1c-.438-.246-.876-.493-1.315-.737a4.11 4.11 0 00-.522-.272.794.794 0 00-1.061.437.852.852 0 00.145.866 1.869 1.869 0 00.887.648 1.4 1.4 0 001.519-.313c.163-.159.313-.332.5-.529" class="prefix__cls-2" data-name="Path 10186"/>
            </g>
            <g id="prefix__Group_5931" data-name="Group 5931">
                <path id="prefix__Path_10187" d="M1618.547 854.528l-.351.721a1.671 1.671 0 01-.983-1.611 3.761 3.761 0 01.563-1.935 1.3 1.3 0 011.655-.646c.631.18 1.252.4 1.881.591a4.915 4.915 0 001.918.374l-.216.686a.2.2 0 01-.226.148c-.141-.005-.281-.014-.469-.024.04.153.071.284.111.414a2.711 2.711 0 01-.22 2.162 1.43 1.43 0 01-1.61.8 1.449 1.449 0 01-1.178-1.43 7.369 7.369 0 01.1-1.077c.057-.456.135-.911.189-1.367.033-.278.007-.3-.244-.379a.917.917 0 00-1.255.512 4 4 0 00-.291.969.871.871 0 00.3.8c.1.095.209.188.327.292m1.837-2.221c-.043.422-.081.825-.127 1.226-.034.292-.1.584-.115.877a.809.809 0 00.616.89.823.823 0 00.94-.432 1.873 1.873 0 00.2-1.426 1.624 1.624 0 00-1.515-1.135" class="prefix__cls-2" data-name="Path 10187"/>
            </g>
            <g id="prefix__Group_5932" data-name="Group 5932">
                <path id="prefix__Path_10188" d="M1619.464 860.95l-.4.73c-2.136-1.174-4.244-2.351-6.377-3.533l.418-.744 2.27 1.254c-.025-.168-.035-.263-.054-.358a2.172 2.172 0 01.927-2.171 1.323 1.323 0 011.133-.165 3.728 3.728 0 01.728.3c.954.517 1.9 1.049 2.85 1.574.047.027.09.059.165.109-.132.241-.259.475-.4.725-.122-.06-.219-.106-.313-.157-.854-.472-1.7-.949-2.562-1.416a2.672 2.672 0 00-.541-.236.951.951 0 00-1.06.334 1.351 1.351 0 00.207 2.005c.5.35 1.051.632 1.583.937.408.235.825.457 1.236.687.056.03.107.071.189.126" class="prefix__cls-2" data-name="Path 10188"/>
            </g>
            <g id="prefix__Group_5933" data-name="Group 5933">
                <path id="prefix__Path_10189" d="M1609.469 834.8c-.145.071-.25.129-.36.176-.239.105-.411-.005-.421-.268a.579.579 0 01.018-.2c.1-.336.2-.672.32-1a.6.6 0 01.168-.236c.23-.209.377-.183.542.078.034.053.076.1.136.184l1.111-.612a8.484 8.484 0 00-.685-1.164c-1.274.795-2.516 1.569-3.791 2.366a1.6 1.6 0 01-.031-.249c.006-.174.037-.351.029-.524a.443.443 0 01.252-.448c.908-.552 1.806-1.122 2.707-1.687.1-.063.2-.13.33-.217-.1-.179-.188-.346-.3-.548.225-.14.442-.276.684-.429a41.351 41.351 0 012.372 4l-.695.387-.427-.72-1.143.633.592 1.094c-.264.15-.515.292-.8.45l-.612-1.073" class="prefix__cls-2" data-name="Path 10189"/>
            </g>
            <g id="prefix__Group_5934" data-name="Group 5934">
                <path id="prefix__Path_10190" d="M1577.6 824l1.225-.681c.4-.223.8-.448 1.227-.684a.985.985 0 00-.167-.142c-.342-.149-.679-.308-1.03-.431a1.176 1.176 0 00-1.046.089.428.428 0 01-.589-.062 6.048 6.048 0 00-.532-.408 2.044 2.044 0 011.659-.38 9 9 0 011.973.888.381.381 0 00.536-.01l.408.719c-.245.144-.467.276-.729.432.255.468.5.924.768 1.411l-.646.359c-.143.08-.289.157-.429.241a.612.612 0 00-.226.9.851.851 0 001.268.155 1.11 1.11 0 00-.065-.1.513.513 0 01-.1-.656.644.644 0 01.654-.347.419.419 0 01.233.106c.246.283.491.574.353 1a.492.492 0 000 .118 1.963 1.963 0 01.8.529c-.178.1-.343.2-.489.281-.221-.128-.417-.244-.614-.354a.3.3 0 00-.31 0 1.784 1.784 0 01-2.361-.687 2.052 2.052 0 01-.25-.671.711.711 0 01.431-.835c.191-.108.381-.216.571-.326.018-.01.03-.031.077-.085l-.359-.662-1.838 1.01c-.137-.243-.261-.468-.4-.718" class="prefix__cls-2" data-name="Path 10190"/>
            </g>
            <g id="prefix__Group_5935" data-name="Group 5935">
                <path id="prefix__Path_10191" d="M1562.367 859.022a2.018 2.018 0 01-1.317-.5 2.644 2.644 0 01-.954-1.783 2.151 2.151 0 01.825-2.007 3.944 3.944 0 012.093-.884 2.1 2.1 0 011.382.327 2.648 2.648 0 011.157 2.585 2.224 2.224 0 01-.575 1.161 4.014 4.014 0 01-2.611 1.1m.858-4.322a3.123 3.123 0 00-1.977.916 1.495 1.495 0 001.111 2.535 2.92 2.92 0 002.055-.906 1.41 1.41 0 00.3-1.642 1.482 1.482 0 00-1.484-.9" class="prefix__cls-2" data-name="Path 10191"/>
            </g>
            <g id="prefix__Group_5936" data-name="Group 5936">
                <path id="prefix__Path_10192" d="M1570.577 833.057l-.353.518-.675-.412a24.7 24.7 0 012.475-3.755l.643.46c-.138.2-.264.392-.41.609l3.612 2.635a4.268 4.268 0 01-.928.331c-.091.021-.223-.066-.315-.133-.855-.614-1.7-1.234-2.556-1.852-.1-.076-.213-.15-.341-.238a5.606 5.606 0 00-.692 1.051l3.818 2.3a3.682 3.682 0 01-.9.435c-.075.029-.2-.051-.293-.106-.894-.532-1.786-1.071-2.678-1.606-.13-.078-.262-.15-.412-.236" class="prefix__cls-2" data-name="Path 10192"/>
            </g>
            <g id="prefix__Group_5937" data-name="Group 5937">
                <path id="prefix__Path_10193" d="M1601.8 869.838l.8-.43c1.092 1 2.182 1.993 3.292 3.009a.549.549 0 00.019-.132l-.5-3.282c-.042-.271-.068-.544-.115-.813a.237.237 0 01.142-.293c.185-.087.366-.185.582-.3.073.529.142 1.015.206 1.5.192 1.456.39 2.912.572 4.37a9.131 9.131 0 01.082 1.278 1.3 1.3 0 01-.989 1.283c-.24.067-.264.06-.41-.144-.094-.134-.182-.27-.29-.43l.339-.144a.885.885 0 00.608-.978v-.034a1.362 1.362 0 00-.533-1.126c-1.21-1.014-2.383-2.073-3.569-3.116-.072-.063-.14-.131-.234-.222" class="prefix__cls-2" data-name="Path 10193"/>
            </g>
            <g id="prefix__Group_5938" data-name="Group 5938">
                <path id="prefix__Path_10194" d="M1576.459 868.088l.81.43-.652 4.418c1.123-1.016 2.215-2.006 3.316-3l.715.376a1.257 1.257 0 01-.145.19c-1.561 1.38-3.119 2.762-4.689 4.131a3.551 3.551 0 01-.822.535 1.256 1.256 0 01-1.406-.244.266.266 0 01-.1-.344c.071-.169.138-.341.217-.538.131.087.235.162.345.228a.894.894 0 001.149-.083 1.447 1.447 0 00.626-1.082c.149-1.471.359-2.936.546-4.4.024-.183.052-.366.087-.612" class="prefix__cls-2" data-name="Path 10194"/>
            </g>
            <g id="prefix__Group_5939" data-name="Group 5939">
                <path id="prefix__Path_10195" d="M1603.872 824.667l.5-.425c.06.047.175.131.286.217.423.331.844.663 1.269.993.1.078.194.151.107.3l.193-.11 2.013 1.876-.543.6a27.028 27.028 0 00-2.7-2.32l-2.759 3.529c-.115-.352-.221-.638-.3-.929a.387.387 0 01.091-.26c.163-.229.34-.449.536-.705l-.228-.054a1.322 1.322 0 01-.738-2.025 1.014 1.014 0 011.13-.406c.589.137.653.225.607.818-.006.063-.022.124-.038.211a2.728 2.728 0 00-.35-.131 4.151 4.151 0 00-.707-.116.608.608 0 00-.355.136.272.272 0 000 .47 1.059 1.059 0 00.672.226h.692l1.038-1.333c-.132-.11-.242-.2-.35-.286-.088-.073-.171-.148-.072-.271z" class="prefix__cls-2" data-name="Path 10195"/>
            </g>
            <g id="prefix__Group_5940" data-name="Group 5940">
                <path id="prefix__Path_10196" d="M1583.062 821.372l.216.421.041-.014c-.033-.156-.066-.311-.1-.463a11.186 11.186 0 012.171-.612l.2.724c-.24.079-.444.149-.689.232.4 1.419.8 2.824 1.217 4.27a3.849 3.849 0 01-.946-.279c-.059-.021-.1-.136-.124-.215-.078-.237-.146-.478-.227-.751-.111.082-.193.147-.279.207a1.324 1.324 0 01-1.99-.782 1.214 1.214 0 01.877-1.363.252.252 0 01.179.041c.163.125.317.262.49.408-.18.12-.34.215-.484.327a1.106 1.106 0 00-.438.56.39.39 0 00.087.425.338.338 0 00.4.009 1.415 1.415 0 00.614-.577c.067-.108.14-.212.236-.359l-.49-1.7c-.835.3-1.6.66-2.444.97-.1-.243-.2-.479-.313-.758l1.793-.724" class="prefix__cls-2" data-name="Path 10196"/>
            </g>
            <g id="prefix__Group_5941" data-name="Group 5941">
                <path id="prefix__Path_10197" d="M1604.32 830.858c-.225-.027-.346-.118-.356-.334a6.424 6.424 0 01.116-1.866 1.551 1.551 0 01.726-.976.863.863 0 011.39.715c0 .075.01.15.015.223.712-.023.893.156.843.851.1-.037.2-.07.311-.111.089.1.181.2.259.3.229.307.8.124.924-.213a.351.351 0 00-.085-.366c-.159-.194-.314-.392-.49-.612l.62-.514c.506.562.944 1.156 1.449 1.76-.218.179-.415.341-.628.514-.139-.154-.263-.288-.4-.445-.062.076-.118.136-.168.2a1.574 1.574 0 01-.923.586 1.124 1.124 0 01-.75-.134.388.388 0 00.012.54 1.468 1.468 0 00.72.5c.133.046.275.07.465.118a7.357 7.357 0 01-.769.619c-.044.031-.15.007-.214-.022a1.32 1.32 0 01-.859-1.743 8.107 8.107 0 01.34-.784c-.234-.383-.495-.42-.807-.1-.182.189-.36.382-.571.606-.106-.237-.195-.44-.3-.67.149-.162.294-.323.441-.482.114-.122.243-.235.136-.427a.534.534 0 00-.561-.255.821.821 0 00-.528.463 3.714 3.714 0 00-.285 1.243c-.027.27-.046.54-.069.818" class="prefix__cls-2" data-name="Path 10197"/>
            </g>
            <g id="prefix__Group_5942" data-name="Group 5942">
                <path id="prefix__Path_10198" d="M1609.8 864.616l.6-.652 4.062 1.757a4.5 4.5 0 00-.381-.795c-.126-.268-.265-.529-.4-.792s-.268-.528-.4-.791-.271-.526-.4-.79l-.405-.8.587-.632c.107.2.195.366.277.532l2.077 4.217c.145.3.146.3-.077.533-.389.41-.264.38-.764.176q-2.236-.908-4.471-1.825c-.088-.036-.174-.078-.3-.134" class="prefix__cls-2" data-name="Path 10198"/>
            </g>
            <g id="prefix__Group_5943" data-name="Group 5943">
                <path id="prefix__Path_10199" d="M1562.515 832.771c.126.289.222.545.351.784a.544.544 0 00.254.185c.279.124.564.235.886.367-.1.243-.183.459-.283.711l-3.7-1.5.289-.706c.538.212 1.059.418 1.578.625l.056-.057c-.047-.105-.092-.21-.141-.314-.253-.535-.5-1.071-.766-1.6a.467.467 0 01-.015-.437c.1-.215.186-.439.3-.711.078.163.137.277.189.393l.562 1.261c.128.283.137.287.451.225.709-.138 1.419-.28 2.128-.419.115-.021.231-.033.4-.057-.122.3-.212.561-.331.805a.356.356 0 01-.241.127c-.573.094-1.148.175-1.722.261-.064.009-.126.028-.244.056" class="prefix__cls-2" data-name="Path 10199"/>
            </g>
            <g id="prefix__Group_5944" data-name="Group 5944">
                <path id="prefix__Path_10200" d="M1579.061 818.054c.23-.062.458-.126.687-.18a.21.21 0 01.149.044.461.461 0 00.469.044c.469-.156.58-.386.411-.854-.04-.112-.088-.22-.15-.373-.063.093-.106.147-.14.207a1.044 1.044 0 01-1.6.342 1.781 1.781 0 01-.686-1.719 1.086 1.086 0 011.474-.88c.059.02.12.038.213.068l-.061-.352.575-.219a1.27 1.27 0 01.1.175c.293.756.592 1.511.869 2.273a3.807 3.807 0 01.177.8.7.7 0 01-.275.638 2.277 2.277 0 01-1.507.56.7.7 0 01-.7-.57m-.154-2.315a1.515 1.515 0 00.308.841.607.607 0 00.688.249.648.648 0 00.454-.65 1.338 1.338 0 00-.36-.892.6.6 0 00-.716-.155.61.61 0 00-.374.607" class="prefix__cls-2" data-name="Path 10200"/>
            </g>
            <g id="prefix__Group_5945" data-name="Group 5945">
                <path id="prefix__Path_10201" d="M1566.731 823.588l.513-.489 1.646.864.051-.048c-.283-.547-.642-1.052-.949-1.614l.484-.5c.554.311 1.086.612 1.672.943a3.71 3.71 0 00-.441-.882c-.148-.28-.309-.552-.473-.841.155-.164.3-.313.438-.461a17.536 17.536 0 011.461 2.633l-.508.464-1.564-.859-.057.058c.285.524.62 1.019.928 1.563l-.489.52c-.891-.444-1.771-.88-2.712-1.347" class="prefix__cls-2" data-name="Path 10201"/>
            </g>
            <g id="prefix__Group_5946" data-name="Group 5946">
                <path id="prefix__Path_10202" d="M1576.355 814.672l1.928 3.48-.553.325-.227-.284a1.221 1.221 0 00-.083.154 1.106 1.106 0 01-1.831.485 2.074 2.074 0 01-.716-1.3 1.123 1.123 0 011.306-1.28 2 2 0 00.212 0l-.668-1.23c.212-.118.4-.224.632-.351m-.053 1.988a.64.64 0 00-.7.671 1.461 1.461 0 00.474.944.621.621 0 00.752.121.636.636 0 00.3-.7 1.52 1.52 0 00-.454-.818 1.618 1.618 0 00-.367-.215" class="prefix__cls-2" data-name="Path 10202"/>
            </g>
            <g id="prefix__Group_5947" data-name="Group 5947">
                <path id="prefix__Path_10203" d="M1608.446 820.935l-.284.256-.5-.394c.807-1.055 1.619-2.08 2.443-3.136.109.078.206.142.3.213s.164.14.268.227l-.838 1.108c.128.015.2.026.27.031a1.119 1.119 0 011.041 1.4 1.965 1.965 0 01-1.038 1.295 1.086 1.086 0 01-1.617-.815c-.005-.043-.018-.084-.039-.187m.4-.169a.587.587 0 00.914.529 1.5 1.5 0 00.676-.895.553.553 0 00-.175-.6.582.582 0 00-.6-.142 1.375 1.375 0 00-.81 1.1" class="prefix__cls-2" data-name="Path 10203"/>
            </g>
            <g id="prefix__Group_5948" data-name="Group 5948">
                <path id="prefix__Path_10204" d="M1623.565 849.826l-.136.826-5.186-.915.135-.731.713.083c-.2-.242-.381-.429-.521-.641a.884.884 0 01-.083-.76 1.573 1.573 0 01.411-.707l.7.4c-.057.105-.1.179-.141.256a.924.924 0 00.442 1.372 4.559 4.559 0 001 .318c.783.157 1.573.28 2.359.419.086.015.17.041.311.075" class="prefix__cls-2" data-name="Path 10204"/>
            </g>
            <g id="prefix__Group_5949" data-name="Group 5949">
                <path id="prefix__Path_10205" d="M1573.831 836.1v.513c-.176.062-.366.139-.562.2a.573.573 0 00-.438.391 1.172 1.172 0 01-.252.379.415.415 0 01-.48.118.5.5 0 01-.352-.4.77.77 0 01.457-.833.4.4 0 00.224-.455c-.027-.237-.192-.341-.394-.221a6.942 6.942 0 00-.633.468c-.181.14-.351.3-.544.422a1.227 1.227 0 01-.454.177.5.5 0 01-.606-.582.349.349 0 01.017-.1c.272-.727.546-1.453.824-2.192a3.023 3.023 0 01.763.246c-.222.6-.436 1.173-.652 1.751l.06.031a2.4 2.4 0 01.22-.23 5.42 5.42 0 01.727-.556.706.706 0 011.038.3 4.693 4.693 0 01.275.708c.09-.014.214-.032.338-.053s.255-.049.424-.081" class="prefix__cls-2" data-name="Path 10205"/>
            </g>
            <g id="prefix__Group_5950" data-name="Group 5950">
                <path id="prefix__Path_10206" d="M1608.274 837.83c.083-.372.15-.658.209-.945.03-.15.158-.169.266-.212q1.218-.5 2.437-.987c.294-.119.585-.242.9-.373l-.189-.6c.239-.1.468-.189.741-.3l.853 2.095c-.251.106-.486.205-.752.315l-.3-.674-2.054.827-2.115.853" class="prefix__cls-2" data-name="Path 10206"/>
            </g>
            <g id="prefix__Group_5951" data-name="Group 5951">
                <path id="prefix__Path_10207" d="M1614.855 828.522l.143-.29-.251-.115a1.2 1.2 0 01-.652-.7.791.791 0 01.247-.945.771.771 0 011-.013 6.09 6.09 0 01.483.442c.128.119.256.24.387.357a.478.478 0 00.107.056c.271-.165.322-.255.27-.462a.71.71 0 00-.719-.536c-.039-.086-.088-.182-.129-.281s-.063-.179-.1-.287a.915.915 0 01.94.16 2.264 2.264 0 01.643.977.7.7 0 01-.26.872c-.276.2-.562.379-.846.565a2.956 2.956 0 00-.9.762c-.126-.2-.237-.368-.362-.56m1.032-.962a7.314 7.314 0 00-.63-.558.34.34 0 00-.546.277.612.612 0 00.13.386c.26.323.652.285 1.046-.1" class="prefix__cls-2" data-name="Path 10207"/>
            </g>
            <g id="prefix__Group_5952" data-name="Group 5952">
                <path id="prefix__Path_10208" d="M1566.627 824.7a1.517 1.517 0 01.052 3.033 1.624 1.624 0 01-1.561-1.522 1.544 1.544 0 011.509-1.511m-.144.691a.684.684 0 00-.67.918 1.2 1.2 0 001.012.72.688.688 0 00.65-.936 1.216 1.216 0 00-.992-.7" class="prefix__cls-2" data-name="Path 10208"/>
            </g>
            <g id="prefix__Group_5953" data-name="Group 5953">
                <path id="prefix__Path_10209" d="M1574.29 819.5l.616-.279a1.067 1.067 0 01-.163 1.024 1.578 1.578 0 01-.882.6 1.169 1.169 0 01-1.08-.242 1.956 1.956 0 01-.714-1.149 1.192 1.192 0 01.478-1.247 1.235 1.235 0 011.357-.175 1.894 1.894 0 01.773.749c-.5.4-1.043.72-1.534 1.1a.646.646 0 00.786.342c.281-.1.38-.283.363-.724m-.46-.643c-.3-.4-.647-.467-.927-.231a.576.576 0 00.01.873l.917-.642" class="prefix__cls-2" data-name="Path 10209"/>
            </g>
            <g id="prefix__Group_5954" data-name="Group 5954">
                <path id="prefix__Path_10210" d="M1582.451 815.271c.128.408.339.6.627.6s.451-.135.6-.559l.682-.057a1.112 1.112 0 01-.489.892 1.657 1.657 0 01-.961.283 1.073 1.073 0 01-.846-.374 1.845 1.845 0 01-.43-1.682 1.181 1.181 0 011-.921 1.2 1.2 0 011.322.511 1.65 1.65 0 01.309.807l-1.814.5m1.013-.73c-.164-.493-.478-.672-.829-.517a.56.56 0 00-.249.81c.35-.094.7-.191 1.078-.293" class="prefix__cls-2" data-name="Path 10210"/>
            </g>
            <g id="prefix__Group_5955" data-name="Group 5955">
                <path id="prefix__Path_10211" d="M1618.623 833.017l-.792-1.679a.583.583 0 00-.5.611c.01.33.162.472.651.588l.174.62a.971.971 0 01-.927-.271 1.527 1.527 0 01-.486-1.049 1.379 1.379 0 01.135-.629 1.891 1.891 0 011.888-.839 1.327 1.327 0 01.622 2.16 1.84 1.84 0 01-.769.488m.072-.86c.414-.158.572-.482.422-.808s-.492-.412-.9-.212l.475 1.02" class="prefix__cls-2" data-name="Path 10211"/>
            </g>
            <g id="prefix__Group_5956" data-name="Group 5956">
                <path id="prefix__Path_10212" d="M1612.945 823.905c-.455-.466-.881-.905-1.3-1.341a.614.614 0 00-.269.751c.113.292.3.374.816.341.073.1.156.218.234.336.042.062.076.131.12.21a1 1 0 01-1.068-.035 2.328 2.328 0 01-.545-.513 1.123 1.123 0 01-.093-1.3 1.967 1.967 0 01.97-.9 1.312 1.312 0 011.656 1.823 2.1 2.1 0 01-.516.626m-.21-.831c.353-.343.376-.69.1-.942a.578.578 0 00-.873.129c.253.264.508.53.777.813" class="prefix__cls-2" data-name="Path 10212"/>
            </g>
            <g id="prefix__Group_5957" data-name="Group 5957">
                <path id="prefix__Path_10213" d="M1601.744 816.077l-1.767-.564a.608.608 0 00.108.785c.254.22.476.2.87-.089l.589.309a1 1 0 01-.988.481 2.3 2.3 0 01-.747-.218 1.117 1.117 0 01-.646-1.1 2 2 0 01.424-1.221 1.248 1.248 0 011.415-.418 1.207 1.207 0 01.906 1.19 1.792 1.792 0 01-.164.841m-.564-.633a.6.6 0 00-.1-.733.515.515 0 00-.6-.117.5.5 0 00-.351.508l1.057.342" class="prefix__cls-2" data-name="Path 10213"/>
            </g>
            <g id="prefix__Group_5958" data-name="Group 5958">
                <path id="prefix__Path_10214" d="M1566.195 829.439c-.353-.2-.683-.394-1.016-.582-.2-.113-.4-.233-.6-.332-.3-.146-.514-.105-.674.111a.592.592 0 00.049.782 2 2 0 00.394.294c.328.2.662.386.993.58.083.05.163.1.263.17l-.35.619-2.483-1.433.31-.564c.122.047.22.083.348.13-.016-.137-.028-.242-.037-.347a1.142 1.142 0 01.126-.668.846.846 0 011.241-.409c.6.314 1.183.664 1.806 1.017l-.366.632" class="prefix__cls-2" data-name="Path 10214"/>
            </g>
            <g id="prefix__Group_5959" data-name="Group 5959">
                <path id="prefix__Path_10215" d="M1620.482 835.666l-.322-.556a.732.732 0 00.007-.941c-.061-.1-.148-.2-.292-.155a.236.236 0 00-.145.267c.005.174.02.35.028.524a6.246 6.246 0 01.024.722.766.766 0 01-1.059.688 1 1 0 01-.514-.392 2 2 0 01-.371-1.3 1 1 0 01.469-.79l.331.611a.723.723 0 00-.125.97.637.637 0 00.144.178.245.245 0 00.428-.167 2.142 2.142 0 00-.016-.328c-.015-.284-.04-.568-.039-.852a.728.728 0 01.5-.736.77.77 0 01.895.227 2 2 0 01.473 1.335.8.8 0 01-.415.7" class="prefix__cls-2" data-name="Path 10215"/>
            </g>
            <g id="prefix__Group_5960" data-name="Group 5960">
                <path id="prefix__Path_10216" d="M1572.963 872.054l-.717-.467 2.864-4.415.719.465-2.866 4.417" class="prefix__cls-2" data-name="Path 10216"/>
            </g>
            <g id="prefix__Group_5961" data-name="Group 5961">
                <path id="prefix__Path_10217" d="M1618.08 863.065l-.491.7-4.308-3.016.483-.708 4.316 3.023" class="prefix__cls-2" data-name="Path 10217"/>
            </g>
            <g id="prefix__Group_5962" data-name="Group 5962">
                <path id="prefix__Path_10218" d="M1597.38 876.547l-.841.15c-.336-1.728-.665-3.42-1-5.156l.842-.162c.334 1.731.664 3.422 1 5.168" class="prefix__cls-2" data-name="Path 10218"/>
            </g>
            <g id="prefix__Group_5963" data-name="Group 5963">
                <path id="prefix__Path_10219" d="M1605.375 814.715l.673.371c-.537.97-1.059 1.916-1.6 2.9l1.751.987c-.1.185-.187.353-.295.555l-2.442-1.353c.639-1.154 1.269-2.288 1.917-3.461" class="prefix__cls-2" data-name="Path 10219"/>
            </g>
            <g id="prefix__Group_5964" data-name="Group 5964">
                <path id="prefix__Path_10220" d="M1616.714 830.512c-.14.106-.268.2-.431.325a4.214 4.214 0 01-.353-.436.64.64 0 01.227-1.005c.342-.218.7-.413 1.047-.62.112-.065.223-.134.351-.212l-.1-.333.429-.255.225.249a.428.428 0 00.129-.046.538.538 0 01.765.013c.084.065.178.116.313.2-.3.178-.553.333-.832.5l.217.459-.447.278c-.1-.143-.2-.272-.315-.431-.442.26-.877.51-1.306.769a.216.216 0 00-.059.341c.042.062.087.121.144.2" class="prefix__cls-2" data-name="Path 10220"/>
            </g>
            <g id="prefix__Group_5965" data-name="Group 5965">
                <path id="prefix__Path_10221" d="M1569.625 819.193l.563-.461 2.553 3.044-.547.479-2.569-3.062" class="prefix__cls-2" data-name="Path 10221"/>
            </g>
            <g id="prefix__Group_5966" data-name="Group 5966">
                <path id="prefix__Path_10222" d="M1598.742 824.733c.166-.325.306-.6.453-.884.063-.117.175-.119.288-.094a1.129 1.129 0 01.78.6 1.8 1.8 0 01-.619 2.294.524.524 0 01-.669-.038.363.363 0 01.094-.649 2.258 2.258 0 00.462-.244 1.007 1.007 0 00.291-.347.409.409 0 00-.258-.6 2.621 2.621 0 00-.548-.071 1.581 1.581 0 00-.274.03" class="prefix__cls-2" data-name="Path 10222"/>
            </g>
            <g id="prefix__Group_5967" data-name="Group 5967">
                <path id="prefix__Path_10223" d="M1612.939 825.822l-.455-.56 2.232-1.807.4.49-.217.274c.27.039.533.017.71.235a.657.657 0 01.178.473l-.554.208c-.042-.083-.074-.151-.11-.216a.445.445 0 00-.66-.221 3.625 3.625 0 00-.578.374c-.314.236-.617.487-.95.75" class="prefix__cls-2" data-name="Path 10223"/>
            </g>
            <g id="prefix__Group_5968" data-name="Group 5968">
                <path id="prefix__Path_10224" d="M1568.163 836.53l1.073-2.8.769.294-1.071 2.795-.771-.293" class="prefix__cls-2" data-name="Path 10224"/>
            </g>
            <g id="prefix__Group_5969" data-name="Group 5969">
                <path id="prefix__Path_10225" d="M1607.941 817.493l.616.384-1.518 2.435-.62-.382 1.522-2.437" class="prefix__cls-2" data-name="Path 10225"/>
            </g>
            <g id="prefix__Group_5970" data-name="Group 5970">
                <path id="prefix__Path_10226" d="M1607.325 836.372a1.241 1.241 0 01.672.7.638.638 0 01.012.571 2.9 2.9 0 01-.316.536c-.259.326-.537.636-.812.949-.137.154-.142.149-.418.052.043-.074.079-.149.126-.215.247-.35.5-.694.742-1.048.164-.242.153-.306-.052-.511-.146-.146-.3-.283-.483-.449.087-.1.168-.2.254-.29s.179-.192.275-.294" class="prefix__cls-2" data-name="Path 10226"/>
            </g>
            <g id="prefix__Group_5971" data-name="Group 5971">
                <path id="prefix__Path_10227" d="M1601.934 823.784c-.592-.3-1.154-.59-1.736-.886.127-.249.238-.472.37-.734l1.738.881c-.127.255-.243.484-.372.739" class="prefix__cls-2" data-name="Path 10227"/>
            </g>
            <g id="prefix__Group_5972" data-name="Group 5972">
                <path id="prefix__Path_10228" d="M1603.872 824.667l-.007.008c-.08.108-.169.071-.257.015-.492-.307-.984-.613-1.505-.94l.431-.7 1.636 1.021-.3.6" class="prefix__cls-2" data-name="Path 10228"/>
            </g>
            <g id="prefix__Group_5973" data-name="Group 5973">
                <path id="prefix__Path_10229" d="M1612.43 860.152c-.284-.2-.539-.378-.813-.569l.493-.694c.272.19.527.366.8.56l-.484.7" class="prefix__cls-2" data-name="Path 10229"/>
            </g>
            <g id="prefix__Group_5974" data-name="Group 5974">
                <path id="prefix__Path_10230" d="M1576.213 865.473l.691.449a4.683 4.683 0 01-.52.841l-.709-.458.538-.832" class="prefix__cls-2" data-name="Path 10230"/>
            </g>
            <g id="prefix__Group_5975" data-name="Group 5975">
                <path id="prefix__Path_10231" d="M1608.181 817.116l.35-.562.614.376-.348.565-.616-.379" class="prefix__cls-2" data-name="Path 10231"/>
            </g>
        </g>
    </g>
</svg>
