<svg xmlns="http://www.w3.org/2000/svg" width="19.325" height="14.519" viewBox="0 0 19.325 14.519">
    <g id="prefix__mail" transform="translate(.05 -63.95)">
        <g id="prefix__Group_6004" data-name="Group 6004" transform="translate(0 64)">
            <path id="prefix__Path_10251" d="M17.623 64H1.6A1.6 1.6 0 000 65.6v11.217a1.6 1.6 0 001.6 1.6h16.023a1.6 1.6 0 001.6-1.6V65.6a1.6 1.6 0 00-1.6-1.6zM1.6 64.8h16.023a.762.762 0 01.166.034c-1.387 1.269-5.986 5.477-7.6 6.927a.8.8 0 01-1.163 0c-1.609-1.45-6.209-5.658-7.6-6.927A.766.766 0 011.6 64.8zM.8 76.817V65.6a.774.774 0 01.045-.221c1.062.972 4.271 3.907 6.352 5.8-2.074 1.783-5.284 4.826-6.354 5.847a.772.772 0 01-.043-.209zm16.822.8H1.6a.766.766 0 01-.181-.037c1.106-1.054 4.336-4.115 6.374-5.858l.7.633a1.6 1.6 0 002.235 0l.7-.633c2.038 1.743 5.268 4.8 6.374 5.858a.766.766 0 01-.179.038zm.8-.8a.773.773 0 01-.042.209C17.311 76 14.1 72.962 12.028 71.18c2.081-1.892 5.29-4.828 6.352-5.8a.774.774 0 01.045.221z" data-name="Path 10251" transform="translate(0 -64)" style="fill:#58595b;stroke:#58595b;stroke-width:.1px"/>
        </g>
    </g>
</svg>
