<svg xmlns="http://www.w3.org/2000/svg" width="19.98" height="19.979" viewBox="0 0 19.98 19.979">
    <defs>
        <style>
            .prefix__cls-1{fill:#58595b;stroke:#58595b;stroke-width:.4px}
        </style>
    </defs>
    <g id="prefix__phone_1_" data-name="phone (1)" transform="translate(.201 .2)">
        <g id="prefix__Group_6006" data-name="Group 6006" transform="translate(-.001)">
            <g id="prefix__Group_6005" data-name="Group 6005">
                <path id="prefix__Path_10252" d="M16.553 2.782a9.911 9.911 0 00-13.771 0A9.911 9.911 0 0016.8 16.8a9.911 9.911 0 00-.247-14.018zm-.222 13.549A9.251 9.251 0 1119.04 9.79a9.251 9.251 0 01-2.713 6.538z" class="prefix__cls-1" data-name="Path 10252" transform="translate(.001)"/>
            </g>
        </g>
        <g id="prefix__Group_6008" data-name="Group 6008" transform="translate(3.899 3.959)">
            <g id="prefix__Group_6007" data-name="Group 6007">
                <path id="prefix__Path_10253" d="M112.17 110.905l-1.857-1.85a1.08 1.08 0 00-1.528 0l-1.064 1.064a.235.235 0 01-.3.026 12.262 12.262 0 01-2.864-2.812.231.231 0 01.023-.3l1.09-1.09a1.08 1.08 0 000-1.526l-1.857-1.857a1.107 1.107 0 00-1.53 0l-.588.588a3.3 3.3 0 00-.819 3.37 9.911 9.911 0 001.209 2.451 12.851 12.851 0 003.71 3.644 9.458 9.458 0 002.749 1.222 3.183 3.183 0 00.766.092 3.343 3.343 0 002.356-.991l.505-.505a1.08 1.08 0 00-.001-1.526zm-.468 1.076v-.01l-.505.505a2.643 2.643 0 01-2.494.714 8.782 8.782 0 01-2.551-1.143 12.215 12.215 0 01-3.515-3.446 9.25 9.25 0 01-1.13-2.286 2.643 2.643 0 01.661-2.7l.588-.588a.42.42 0 01.593 0l1.857 1.857a.42.42 0 010 .593l-1.09 1.09a.889.889 0 00-.092 1.156 13.014 13.014 0 003.023 2.967.9.9 0 001.143-.1l1.054-1.07a.42.42 0 01.593 0l1.86 1.863a.419.419 0 01.003.598z" class="prefix__cls-1" data-name="Path 10253" transform="translate(-100.712 -102.253)"/>
            </g>
        </g>
    </g>
</svg>
