<svg xmlns="http://www.w3.org/2000/svg" xmlns:xlink="http://www.w3.org/1999/xlink" width="593" height="102" viewBox="0 0 593 102"><defs><clipPath id="b"><rect width="593" height="102"/></clipPath></defs><g id="a" clip-path="url(#b)"><g transform="translate(-6382 -5858)"><g transform="translate(6182 5785)"><g transform="translate(220 92)"><path d="M245,132.245v13.867h14.465V132.245l-7.233-6.745Z" transform="translate(-240.887 -124.365)" fill="none"/><path d="M122.525,95.78,111.653,85.618a.454.454,0,0,0-.661,0L100.118,95.78a.467.467,0,1,0,.661.661l2.363-2.2v13.456a.448.448,0,0,0,.474.474h15.413a.448.448,0,0,0,.474-.474V94.237l2.363,2.2a.512.512,0,0,0,.332.142.437.437,0,0,0,.332-.142A.457.457,0,0,0,122.525,95.78Zm-3.971,11.442H104.088V93.355l7.233-6.745,7.233,6.745Z" transform="translate(-99.975 -85.475)" fill="#b7202e" stroke="#ad1e2c" stroke-width="1"/></g><g transform="translate(227.959 101.293)"><rect width="4" height="5" transform="translate(0.041 -0.293)" fill="#b7202e"/><rect width="3" height="4" transform="translate(4.041 4.707)" fill="#b7202e"/><rect width="4" height="4" transform="translate(0.041 4.707)" fill="#b7202e"/></g></g></g><g transform="translate(-6326 -5897)"><g transform="translate(6384 5916)"><path d="M245,132.245v13.867h14.465V132.245l-7.233-6.745Z" transform="translate(-240.887 -124.365)" fill="none"/><path d="M122.525,95.78,111.653,85.618a.454.454,0,0,0-.661,0L100.118,95.78a.467.467,0,1,0,.661.661l2.363-2.2v13.456a.448.448,0,0,0,.474.474h15.413a.448.448,0,0,0,.474-.474V94.237l2.363,2.2a.512.512,0,0,0,.332.142.437.437,0,0,0,.332-.142A.457.457,0,0,0,122.525,95.78Zm-3.971,11.442H104.088V93.355l7.233-6.745,7.233,6.745Z" transform="translate(-99.975 -85.475)" fill="#b7202e" stroke="#ad1e2c" stroke-width="1"/></g><path d="M6395.562,5917.637l-7,6.146v13.526s13.434.417,13.605,0,.48-13.113.48-13.113Z" fill="#b7202e"/><g transform="translate(6391.959 5925.293)"><rect width="4" height="5" transform="translate(0.041 -0.293)" fill="#fff"/><rect width="3" height="4" transform="translate(4.041 4.707)" fill="#fff"/><rect width="4" height="5" transform="translate(0.041 3.707)" fill="#fff"/></g></g><path d="M37.84,16.8l.83-5.406H33.482V7.888A2.7,2.7,0,0,1,36.53,4.968h2.358V.365A28.757,28.757,0,0,0,34.7,0c-4.272,0-7.064,2.589-7.064,7.276V11.4H22.89V16.8h4.748V29.871h5.844V16.8Z" transform="translate(86.077 14.923)" fill="none" stroke="#58595b" stroke-width="2"/><g transform="translate(315.59 14.923)"><path d="M20.284,0H9.22A9.221,9.221,0,0,0,0,9.22V20.284A9.221,9.221,0,0,0,9.22,29.5H20.284a9.22,9.22,0,0,0,9.22-9.22V9.22A9.221,9.221,0,0,0,20.284,0Z" fill="none" stroke="#58595b" stroke-width="2"/><g transform="translate(7.376 7.376)"><path d="M16.646,9.27a7.376,7.376,0,1,0,7.376,7.376A7.376,7.376,0,0,0,16.646,9.27Z" transform="translate(-9.27 -9.27)" fill="none" stroke="#58595b" stroke-width="2"/></g><g transform="translate(21.698 5.84)"><ellipse cx="0.983" cy="0.983" rx="0.983" ry="0.983" fill="none" stroke="#58595b" stroke-width="2"/></g></g><g transform="translate(195.351 15.857)"><g transform="translate(0 0)"><path d="M99.5,103.659a14.974,14.974,0,0,1-4.153,1.138,7.162,7.162,0,0,0,3.171-3.984,14.417,14.417,0,0,1-4.571,1.745,7.209,7.209,0,0,0-12.47,4.929,7.441,7.441,0,0,0,.168,1.644,20.4,20.4,0,0,1-14.859-7.54A7.21,7.21,0,0,0,69,111.226a7.126,7.126,0,0,1-3.257-.888v.08a7.242,7.242,0,0,0,5.776,7.083,7.192,7.192,0,0,1-1.891.237,6.336,6.336,0,0,1-1.364-.123A7.277,7.277,0,0,0,75,122.636a14.487,14.487,0,0,1-8.939,3.074,13.7,13.7,0,0,1-1.725-.1A20.3,20.3,0,0,0,75.4,128.847c13.266,0,20.518-10.989,20.518-20.514,0-.319-.011-.626-.026-.932A14.381,14.381,0,0,0,99.5,103.659Z" transform="translate(-64.34 -100.277)" fill="none" stroke="#58595b" stroke-width="2"/></g></g><g transform="translate(423.183 15.794)"><g transform="translate(0 0)"><path d="M277.326,248.2c-1.029-1.831-2.146-2.168-4.42-2.3-2.271-.154-7.983-.218-12.932-.218s-10.673.063-12.942.215c-2.269.13-3.388.465-4.427,2.3-1.06,1.829-1.6,4.977-1.6,10.52v.019c0,5.52.545,8.693,1.6,10.5,1.039,1.83,2.156,2.162,4.425,2.317,2.271.133,7.986.211,12.945.211s10.661-.078,12.934-.21c2.274-.153,3.39-.486,4.42-2.315,1.07-1.81,1.61-4.983,1.61-10.5v-.019C278.938,253.178,278.4,250.029,277.326,248.2Zm-22.1,17.641V251.615l11.856,7.114Z" transform="translate(-241 -245.688)" fill="none" stroke="#58595b" stroke-width="2"/></g></g><path d="M37.84,16.8l.83-5.406H33.482V7.888A2.7,2.7,0,0,1,36.53,4.968h2.358V.365A28.757,28.757,0,0,0,34.7,0c-4.272,0-7.064,2.589-7.064,7.276V11.4H22.89V16.8h4.748V29.871h5.844V16.8Z" transform="translate(122.077 14.923)" fill="#b7202e" stroke="#b7202e" stroke-width="1"/><g transform="translate(359.59 15.923)"><path d="M20.284,0H9.22A9.221,9.221,0,0,0,0,9.22V20.284A9.221,9.221,0,0,0,9.22,29.5H20.284a9.22,9.22,0,0,0,9.22-9.22V9.22A9.221,9.221,0,0,0,20.284,0Z" fill="none" stroke="#b7202e" stroke-width="2"/><g transform="translate(7.376 7.376)"><path d="M16.646,9.27a7.376,7.376,0,1,0,7.376,7.376A7.376,7.376,0,0,0,16.646,9.27Z" transform="translate(-9.27 -9.27)" fill="none" stroke="#b7202e" stroke-width="2"/></g><g transform="translate(21.698 5.84)"><ellipse cx="0.983" cy="0.983" rx="0.983" ry="0.983" fill="none" stroke="#b7202e" stroke-width="2"/></g></g><g transform="translate(246.351 15.857)"><g transform="translate(0 0)"><path d="M99.5,103.659a14.974,14.974,0,0,1-4.153,1.138,7.162,7.162,0,0,0,3.171-3.984,14.417,14.417,0,0,1-4.571,1.745,7.209,7.209,0,0,0-12.47,4.929,7.441,7.441,0,0,0,.168,1.644,20.4,20.4,0,0,1-14.859-7.54A7.21,7.21,0,0,0,69,111.226a7.126,7.126,0,0,1-3.257-.888v.08a7.242,7.242,0,0,0,5.776,7.083,7.192,7.192,0,0,1-1.891.237,6.336,6.336,0,0,1-1.364-.123A7.277,7.277,0,0,0,75,122.636a14.487,14.487,0,0,1-8.939,3.074,13.7,13.7,0,0,1-1.725-.1A20.3,20.3,0,0,0,75.4,128.847c13.266,0,20.518-10.989,20.518-20.514,0-.319-.011-.626-.026-.932A14.381,14.381,0,0,0,99.5,103.659Z" transform="translate(-64.34 -100.277)" fill="#b7202e" stroke="#b7202e" stroke-width="2"/></g></g><g transform="translate(288 -463)"><g transform="translate(188.183 479.794)"><g transform="translate(0 0)"><path d="M277.326,248.2c-1.029-1.831-2.146-2.168-4.42-2.3-2.271-.154-7.983-.218-12.932-.218s-10.673.063-12.942.215c-2.269.13-3.388.465-4.427,2.3-1.06,1.829-1.6,4.977-1.6,10.52v.019c0,5.52.545,8.693,1.6,10.5,1.039,1.83,2.156,2.162,4.425,2.317,2.271.133,7.986.211,12.945.211s10.661-.078,12.934-.21c2.274-.153,3.39-.486,4.42-2.315,1.07-1.81,1.61-4.983,1.61-10.5v-.019C278.938,253.178,278.4,250.029,277.326,248.2Zm-22.1,17.641h0V251.615l11.856,7.114Z" transform="translate(-241 -245.688)" fill="#b7202e" stroke="#b61f2d" stroke-width="2"/></g></g><path d="M-96.656,6449.341l-14.872-9.085v17.85Z" transform="translate(312.928 -5956.421)" fill="#fff"/></g><g transform="translate(573 24.758)"><path d="M8.442.064l4.147,4.149a.225.225,0,0,1,0,.319L8.442,8.682a.232.232,0,0,1-.318,0,.226.226,0,0,1,0-.319L11.887,4.6H.225a.226.226,0,0,1,0-.451H11.887L8.124.383a.226.226,0,0,1,0-.319A.231.231,0,0,1,8.442.064Z" transform="translate(0 0)" fill="#046" stroke="#046" stroke-width="1"/></g><path d="M8.442.064l4.147,4.149a.225.225,0,0,1,0,.319L8.442,8.682a.232.232,0,0,1-.318,0,.226.226,0,0,1,0-.319L11.887,4.6H.225a.226.226,0,0,1,0-.451H11.887L8.124.383a.226.226,0,0,1,0-.319A.231.231,0,0,1,8.442.064Z" transform="translate(549 24.758)" fill="#069" stroke="#006192" stroke-width="1"/><path d="M8,0l8,13.647H0Z" transform="translate(38.647 67.2) rotate(90)" fill="#58595b"/><path d="M8,0l8,13.647H0Z" transform="translate(71.647 67.2) rotate(90)" fill="#b7202e"/></g></svg>