<svg xmlns="http://www.w3.org/2000/svg" width="56.934" height="58.472" viewBox="0 0 56.934 58.472">
    <defs>
        <style>
            .prefix__cls-1{fill:#58595b}
        </style>
    </defs>
    <g id="prefix__Group_6024" data-name="Group 6024" transform="translate(-848.921 -964)">
        <g id="prefix__pennant" transform="translate(848.921 964)">
            <path id="prefix__Path_10272" d="M159.291 165.422a1.617 1.617 0 01-1.554-2.043l1.535-5.576-4.519-3.609a1.613 1.613 0 01.933-2.871l5.777-.263 2.036-5.413a1.612 1.612 0 013.019 0l2.036 5.413 5.777.263a1.612 1.612 0 01.932 2.871l-4.519 3.609 1.535 5.576a1.612 1.612 0 01-2.442 1.774l-4.829-3.183-4.829 3.183a1.61 1.61 0 01-.888.269zm-3.26-12.4l4.751 3.794a.856.856 0 01.291.9l-1.614 5.862 5.077-3.346a.856.856 0 01.943 0l5.077 3.346-1.614-5.862a.856.856 0 01.291-.9l4.751-3.794-6.074-.277a.858.858 0 01-.763-.554l-2.14-5.691-2.14 5.691a.856.856 0 01-.763.554zm18.222.012zm-9.339-6.785" class="prefix__cls-1" data-name="Path 10272" transform="translate(-136.541 -128.088)"/>
            <path id="prefix__Path_10273" d="M64.255 128.173a2.507 2.507 0 01-1.129-.271L43.28 117.93a5.371 5.371 0 01-2.877-4.8V76.721a.858.858 0 111.713 0v36.413a3.553 3.553 0 001.9 3.173l19.846 9.973a.861.861 0 00.781 0l19.846-9.973a3.553 3.553 0 001.9-3.173V76.721a.858.858 0 111.713 0v36.413a5.372 5.372 0 01-2.877 4.8L65.384 127.9a2.507 2.507 0 01-1.129.273zm0 0" class="prefix__cls-1" data-name="Path 10273" transform="translate(-35.788 -69.702)"/>
            <path id="prefix__Path_10274" d="M53.475 6.916H3.458a3.458 3.458 0 010-6.916h50.017a3.458 3.458 0 010 6.916zM3.458 1.713a1.745 1.745 0 000 3.491h50.017a1.745 1.745 0 000-3.491zm0 0" class="prefix__cls-1" data-name="Path 10274"/>
        </g>
        <g id="prefix__Path_10275" data-name="Path 10275" style="fill:none">
            <path d="M17.726 0A17.726 17.726 0 110 17.726 17.726 17.726 0 0117.726 0z" style="stroke:none" transform="translate(859.708 974.518)"/>
            <path d="M17.726 1.7c-4.28 0-8.305 1.667-11.332 4.694C3.367 9.42 1.7 13.445 1.7 17.726c0 4.28 1.667 8.305 4.694 11.332 3.027 3.027 7.051 4.694 11.332 4.694 4.28 0 8.305-1.667 11.332-4.694 3.027-3.027 4.694-7.052 4.694-11.332 0-4.28-1.667-8.305-4.694-11.332C26.03 3.367 22.006 1.7 17.726 1.7m0-1.7c9.79 0 17.726 7.936 17.726 17.726s-7.936 17.726-17.726 17.726S0 27.516 0 17.726 7.936 0 17.726 0z" style="stroke:none;fill:#58595b" transform="translate(859.708 974.518)"/>
        </g>
    </g>
</svg>
