<svg xmlns="http://www.w3.org/2000/svg" width="75" height="55.942" viewBox="0 0 75 55.942">
    <defs>
        <style>
            .prefix__cls-3{fill-rule:evenodd;fill:#fff}
        </style>
    </defs>
    <g id="prefix__Group_6021" data-name="Group 6021" transform="translate(-311.821 -464.332)">
        <path id="prefix__Rectangle_3648" d="M0 0H74.589V12.125H0z" data-name="Rectangle 3648" transform="translate(312.027 508.149)" style="fill:#d3d5d6"/>
        <path id="prefix__Path_10267" d="M376.935 511.181h2.7v7.019h1.077v-7.016h2.7v-.955h-6.471zm-9.068 1.376c-.044-.877-.321-2.541-3.107-2.541a2.439 2.439 0 00-2.742 2.463 1.919 1.919 0 001.7 1.876l1.632.377c1.31.311 1.7.578 1.7 1.41 0 1.143-1.31 1.343-2.086 1.343-1.022 0-2.2-.422-2.2-1.865h-1.01a2.451 2.451 0 00.81 2.02 3.162 3.162 0 002.409.768c1.365 0 3.118-.524 3.118-2.41a2.069 2.069 0 00-1.809-2.131l-2.275-.522c-.466-.111-.943-.333-.943-1.01 0-1.21 1.143-1.4 1.82-1.4a1.739 1.739 0 011.975 1.62zm-17.3-2.331v5.039a1.939 1.939 0 01-2.1 2.187c-.966 0-2.02-.478-2.02-2.209v-5.017h-1.077v5.317a2.764 2.764 0 003.064 2.865 2.894 2.894 0 003.207-3.01v-5.172zm-17.746.922h2.679c.533 0 1.432.1 1.432 1.331 0 1.177-.832 1.377-1.62 1.377h-2.5zm0 3.629h2.608c1.287 0 1.42.766 1.42 1.42a9.8 9.8 0 00.189 2h1.321v-.177c-.333-.189-.389-.355-.4-.8l-.066-1.442c-.045-1.11-.5-1.31-.955-1.5a1.962 1.962 0 001.11-1.909c0-1.687-1.31-2.142-2.619-2.142h-3.685v7.973h1.077zm-17.425-3.6h2.7v7.023h1.076v-7.016h2.7v-.955h-6.47z" data-name="Path 10267" style="fill-rule:evenodd;fill:#1a1818"/>
        <path id="prefix__Path_10268" d="M332.219 491.108c.005.12.009.239.01.359s0 .24 0 .36c0 .014-.012.026-.013.04-.007.08 0 .16-.012.24 0 .01-.01.017-.013.027-.01.039-.018.079-.026.12s-.006.062-.012.093-.018.071-.026.107-.007.053-.013.08c0 .009-.011.017-.013.027-.011.048-.014.1-.025.146s-.025.09-.039.134c0 .009-.01.017-.013.026-.011.036-.015.072-.026.107-.006.019-.02.035-.026.054s-.006.045-.013.066-.011.008-.013.014a.135.135 0 00-.013.04.7.7 0 01-.013.08c0 .012-.02.016-.027.027s-.016.036-.026.053-.01.008-.013.014c-.015.03-.024.063-.039.093 0 .006-.011.008-.013.013a.321.321 0 00-.013.041c-.008.018-.02.034-.027.053s-.006.036-.013.053c-.015.037-.036.071-.052.107 0 .009 0 .019-.006.027a.417.417 0 01-.033.067c-.011.015-.028.025-.04.04s-.008.019-.013.027-.01.008-.013.013-.007.019-.013.027-.021.016-.027.027-.015.045-.026.067a.129.129 0 01-.02.026.264.264 0 01-.019.027c-.009.01-.021.016-.027.027s-.007.027-.013.04-.016.036-.026.054-.01.007-.013.013c-.015.026-.025.054-.04.08 0 .006-.009.008-.013.014s-.007.019-.013.026-.028.026-.04.041-.007.018-.013.026a.08.08 0 01-.02.021c-.007.005-.018.007-.026.013a.076.076 0 00-.02.02c-.007.012-.005.029-.013.04a.256.256 0 01-.046.047l-.013.007c-.008.008-.013.019-.02.027s-.024.017-.033.027a.156.156 0 00-.033.04.266.266 0 00-.013.04l-.007.007a.181.181 0 00-.033.02c-.009.009-.012.023-.02.033l-.013.007a.272.272 0 00-.02.027.334.334 0 00-.026.027c-.006.008-.007.019-.013.026s-.028.026-.04.041-.011.024-.02.033-.024.011-.033.02-.007.019-.013.027a.178.178 0 01-.033.034c-.008.006-.019.007-.027.013s-.024.029-.039.04-.038.015-.053.027c-.034.029-.06.065-.093.094-.007.007-.019.008-.026.014a.265.265 0 00-.034.033l-.006.014c-.008.008-.019.012-.027.02-.027.026-.049.057-.079.081a.171.171 0 01-.04.013l-.006.007c0 .008-.008.019-.013.027a.127.127 0 01-.02.02c-.008.006-.019.007-.027.013a.19.19 0 00-.02.02.372.372 0 01-.019.04.094.094 0 01-.027.021c-.013.008-.026.013-.039.02a.376.376 0 00-.04.02c-.006 0-.008.01-.013.014s-.019.008-.027.013-.008.011-.013.014-.029.005-.04.013-.041.048-.066.067-.028.006-.04.014-.023.031-.04.04-.054.016-.079.028c-.006 0-.009.009-.014.013s-.019.007-.026.013-.034.037-.053.054l-.013.007c-.01.008-.017.02-.027.027s-.027.012-.04.02-.007.01-.013.013-.046.015-.066.028-.024.03-.04.04c-.037.022-.081.033-.119.054-.011.006-.017.019-.027.027a.091.091 0 01-.026.013c-.017.006-.036.007-.053.014s-.008.01-.014.014-.036.015-.053.027-.024.029-.039.04-.028.006-.04.013-.015.022-.027.027c-.042.022-.089.035-.132.055-.006 0-.008.01-.014.013-.025.015-.053.025-.079.041-.006 0-.008.01-.013.013-.022.009-.046.01-.067.021s-.007.014-.013.02a.172.172 0 01-.027.013c-.005 0-.007.011-.013.014s-.045.016-.066.027c-.006 0-.008.011-.013.013s-.036.007-.054.014a.12.12 0 00-.039.02c-.008.007 0 .024-.013.027-.025.009-.055 0-.08.007s-.07.039-.106.054-.063.016-.093.028c-.05.019-.1.047-.147.067-.016.007-.036.007-.053.014a.542.542 0 00-.079.041c-.006 0-.007.011-.013.013-.022.007-.046.006-.067.014a1.376 1.376 0 00-.146.068c-.005 0-.007.011-.013.013-.026.008-.054.007-.08.014a.09.09 0 00-.026.013c-.006 0-.008.012-.014.014-.056.02-.116.033-.172.054s-.078.042-.12.055-.1.016-.146.027c-.01 0-.017.011-.027.014-.03.01-.062.017-.093.027-.009 0-.016.011-.026.014-.049.011-.1.016-.146.028a.219.219 0 00-.027.013c-.022.006-.045.007-.067.014-.005 0-.008.01-.013.013a.081.081 0 01-.026.014c-.049.011-.1.017-.146.028-.014 0-.027.01-.04.013-.031.007-.063.006-.094.014-.005 0-.007.013-.013.014-.062.01-.16.013-.239.028-.02 0-.034.022-.053.027-.053.014-.107.016-.16.028-.036.008-.07.027-.106.034-.009 0-.018-.007-.027-.006a.63.63 0 00-.106.014c-.054.011-.107.025-.16.041-.009 0-.017.012-.026.014-.1.012-.214.023-.293.029-.005 0-.009-.008-.014-.007s-.016.012-.026.013-.013-.007-.02-.006-.013.01-.02.013a.2.2 0 01-.06.021c-.012 0-.021-.012-.033-.013s-.018.006-.027.007-.013-.008-.02-.007a.9.9 0 00-.113.021c-.014 0-.026.012-.04.014-.133.013-.309.02-.4.029-.01 0-.017.011-.026.014a.581.581 0 01-.107.021c-.014 0-.026-.015-.04-.013a.132.132 0 00-.053.02c-.006 0-.007.013-.013.013-.04 0-.516.021-.746.026h-.346c-.009 0-.018-.007-.027-.006s-.026.013-.04.013-.017-.011-.027-.013-.008.006-.013.007a.183.183 0 01-.046.007 1.331 1.331 0 01-.167-.019c-.015 0-.026-.016-.04-.019s-.009.006-.013.006c-.063 0-.125.008-.187.008a1.285 1.285 0 01-.186-.005c-.02 0-.034-.024-.054-.026-.086-.01-.3-.016-.386-.024-.01 0-.017-.011-.027-.013a.678.678 0 00-.1-.019c-.02 0-.04.01-.06.007a1.952 1.952 0 01-.2-.038c-.01 0-.017-.012-.027-.013-.035-.007-.071-.006-.106-.013-.01 0-.018-.011-.027-.013-.026-.007-.054-.007-.08-.013-.01 0-.017-.011-.027-.013-.084-.015-.169-.022-.253-.038-.01 0-.017-.011-.027-.013-.031-.007-.063-.006-.093-.013-.01 0-.017-.01-.027-.013-.053-.014-.108-.023-.16-.038-.006 0-.007-.012-.014-.014s-.044-.006-.066-.013-.017-.01-.027-.013c-.04-.01-.08-.015-.12-.025-.01 0-.017-.01-.027-.013a.263.263 0 00-.046-.013h-.02c-.037-.015-.07-.04-.107-.053s-.054-.005-.08-.012c-.006 0-.008-.011-.014-.014-.03-.011-.063-.016-.093-.026-.01 0-.017-.01-.027-.013s-.045-.006-.067-.013a.083.083 0 01-.027-.013s-.007-.01-.013-.013a1.058 1.058 0 00-.107-.052c-.035-.015-.073-.023-.107-.039-.011-.006-.015-.022-.027-.027s-.054 0-.08-.013c-.011 0-.016-.018-.026-.026s-.019-.007-.027-.013-.017-.019-.027-.026a.07.07 0 00-.027-.014c-.035-.01-.072-.014-.107-.025-.005 0-.008-.01-.013-.014s-.018-.007-.027-.013-.007-.01-.013-.013-.027-.007-.04-.013-.008-.01-.013-.013-.028-.007-.041-.013-.007-.011-.013-.014c-.053-.027-.109-.049-.16-.078-.011-.006-.016-.021-.027-.027s-.037 0-.054-.012-.016-.02-.026-.027-.028-.011-.041-.02-.015-.02-.026-.026-.037-.011-.054-.02-.008-.009-.013-.013a.223.223 0 01-.027-.013c-.01-.007-.016-.019-.027-.026-.03-.022-.063-.038-.093-.06-.011-.007-.016-.02-.027-.026s-.047-.013-.067-.026-.015-.025-.027-.033a.49.49 0 00-.067-.026s-.008-.01-.013-.013-.02-.007-.027-.014-.024-.034-.04-.046-.038-.009-.054-.019-.032-.04-.053-.053-.029 0-.04-.007 0-.014 0-.02a.043.043 0 00-.013-.02c-.012-.008-.028-.011-.04-.019s-.016-.02-.027-.027-.028-.005-.04-.013a.177.177 0 01-.034-.033s0-.011-.006-.013-.037-.011-.054-.02a.061.061 0 01-.02-.019c-.008-.013-.01-.03-.02-.04s-.042-.025-.06-.04 0-.01-.007-.013-.028-.012-.04-.02a.131.131 0 01-.027-.019c-.008-.008-.013-.019-.02-.027s-.024-.016-.034-.026-.025-.033-.04-.047-.019-.006-.027-.013a.71.71 0 01-.087-.086c-.01-.011-.012-.027-.02-.039s-.021-.016-.027-.027a.478.478 0 01-.02-.053c0-.005-.011-.008-.014-.013-.011-.021-.016-.045-.027-.067 0-.005-.011-.007-.014-.013-.01-.021-.016-.045-.027-.066 0-.006-.011-.008-.013-.013s-.008-.036-.014-.053-.02-.044-.027-.067a.48.48 0 01-.021-.1c0-.014.016-.026.013-.04a.6.6 0 00-.034-.073.184.184 0 01-.007-.046.422.422 0 00.006-.06c0-.017-.02-.03-.02-.047s.018-.048.02-.073c.008-.1 0-.205.011-.306a.476.476 0 01.013-.054.961.961 0 01.012-.12 1.124 1.124 0 01.052-.147c0-.006.012-.007.013-.013.007-.026.007-.054.013-.08a.578.578 0 01.026-.08c0-.006.01-.008.013-.014a.09.09 0 00.013-.026c.01-.031.015-.064.026-.094 0-.006.01-.008.014-.013s.015-.037.026-.054.02-.016.026-.027c.016-.029.025-.063.039-.093 0-.006.01-.008.014-.014a.529.529 0 00.026-.053c0-.013.007-.027.013-.04a.3.3 0 01.026-.054c.007-.01.02-.016.026-.026.016-.026.024-.055.04-.081.006-.01.019-.016.026-.026s.008-.019.013-.027.01-.008.014-.014.016-.036.026-.053.01-.008.013-.013.007-.019.013-.027.019-.017.027-.027l.006-.013c.008-.01.02-.017.027-.027s.011-.028.019-.04.02-.016.027-.027.005-.028.013-.04a.133.133 0 01.033-.034c.01-.008.025-.01.033-.02s.006-.028.013-.04.019-.017.026-.027.007-.019.013-.027.019-.017.027-.026l.006-.014c.008-.008.019-.012.027-.02a.373.373 0 00.059-.06c.009-.012.005-.029.013-.041.023-.029.055-.052.08-.08.008-.01.01-.025.019-.033s.029-.011.04-.021.016-.024.027-.033.027-.012.039-.021.008-.01.014-.013.027-.012.039-.02a.071.071 0 00.027-.021c.008-.011 0-.029.013-.04s.018 0 .027 0a.106.106 0 00.039-.013c.01-.007.013-.019.02-.027a.514.514 0 01.046-.047c.008-.006.019-.007.027-.014s.025-.028.04-.04a.213.213 0 01.026-.013c.005 0 .008-.011.013-.014.022-.012.046-.02.067-.034s.033-.033.053-.047.027-.011.039-.02.007-.015.014-.02.036-.016.053-.027.016-.019.026-.027.019-.007.027-.013.031-.041.052-.054.037-.007.054-.014.007-.01.013-.013.027-.008.04-.014.007-.011.013-.013c.028-.014.059-.02.086-.034a.312.312 0 00.047-.034c.009-.008.015-.02.026-.027s.045-.017.066-.027c.036-.017.07-.039.107-.054.021-.008.044-.007.066-.014a1.053 1.053 0 00.106-.041c.019-.007.035-.019.053-.027a.265.265 0 01.04-.013c.031-.007.063-.006.093-.014a.264.264 0 00.053-.027c.006 0 .008-.012.014-.014.048-.012.1-.016.146-.028.01 0 .017-.011.026-.013.071-.016.141-.033.213-.042s.147-.007.22-.008a2.021 2.021 0 01.22.005 1.008 1.008 0 01.16.039c.009 0 .017.01.027.013.026.006.054.005.08.013.006 0 .007.01.013.013s.036.007.053.013.018.01.027.013c.031.01.063.015.094.026.005 0 .008.009.013.013s.019.007.027.013.025.029.04.04.036.016.053.026.009.01.014.013.019.007.027.013.016.02.026.027.029.005.04.013a.378.378 0 01.061.059l.007.013a.258.258 0 00.026.02c.044.041.087.082.128.126.007.007.007.018.013.026s.02.017.027.027.008.018.014.026.01.008.013.013a.115.115 0 01.014.027c.006.017.008.036.013.053l.007.007c.009.007.021.01.027.02a.294.294 0 01.034.066c.007.021.006.045.014.066 0 .006.009.008.013.014a.133.133 0 01.014.026c0 .018.007.036.013.053s.021.035.027.053.007.045.014.067.023.034.027.053a1.2 1.2 0 01.014.12c0 .029.017.057.021.086 0 .011-.006.022-.006.033s.008.031.007.047-.012.049-.013.073.007.027.007.04a.538.538 0 01-.013.08c0 .014-.011.026-.013.04s.008.013.007.02a.139.139 0 01-.02.047c0 .006-.011.008-.013.013s-.007.037-.013.054a.261.261 0 01-.026.053c0 .006-.01.008-.013.014-.019.039-.033.081-.053.12a.06.06 0 01-.019.02c-.013.008-.028.012-.04.02s0 .01-.007.014-.038.033-.053.053-.017.048-.032.067-.028.012-.04.021a.115.115 0 00-.033.033c-.014.021-.02.046-.033.067s-.02.016-.026.027-.019.046-.033.067-.028.025-.04.04a.084.084 0 00-.013.027c-.006.017-.007.036-.013.053s-.019.044-.026.067a.182.182 0 00-.006.046.184.184 0 00.007.047c0 .005.007.008.007.013s-.006.009-.007.014a.305.305 0 00-.006.053.158.158 0 00.007.053.531.531 0 00.027.053.171.171 0 00.013.04c.015.02.039.033.054.053a.235.235 0 01.014.04.079.079 0 00.02.033c.015.012.037.015.053.026s.017.02.027.027.046.019.067.032.006.017.014.02c.043.017.089.024.133.039.006 0 .008.01.013.013a.247.247 0 00.054.027c.035.008.071.006.107.012a.957.957 0 01.106.026c.01 0 .017.011.027.013.031.007.063.005.093.013.006 0 .008.011.014.013.03.007.062.007.093.013s.035.01.054.012c.057.007.115.005.173.012.01 0 .017.012.027.013a.9.9 0 00.146.019c.025 0 .048-.014.073-.013s.075.016.114.019c.02 0 .039-.007.06-.008a.286.286 0 01.059.007.722.722 0 00.087.019c.018 0 .035-.012.053-.014a.08.08 0 01.034.007.56.56 0 00.053.019c.005 0 .009 0 .013-.007a.39.39 0 01.08-.02c.018 0 .035.013.054.013s.016-.014.026-.014.017.012.027.013.008-.006.013-.006c.031-.006.062-.008.093-.014.005 0 .009-.008.014-.007s.016.013.026.013.035-.013.054-.014a.371.371 0 01.066.006c.005 0 .009.007.013.007s.009-.006.014-.007c.044-.01.088-.022.133-.028.075-.009.151-.006.226-.015.014 0 .026-.011.04-.013.053-.008.107-.007.16-.015.033 0 .066-.017.1-.02.012 0 .022.008.034.006.04-.006.079-.021.119-.028.005 0 .009.007.014.007s.008-.006.013-.007c.031-.006.062-.007.093-.014.014 0 .026-.011.04-.014a.59.59 0 01.093-.013c.007 0 .013.007.02.006a.723.723 0 00.113-.021c.036-.009.07-.028.106-.034.01 0 .017.015.027.013s.016-.016.027-.02a.187.187 0 01.053-.014c.062-.007.125-.005.186-.015a.659.659 0 00.086-.027h.014a.125.125 0 01.026-.007c.01 0 .018.007.027.007l.007-.007a.053.053 0 01.02-.013 1.072 1.072 0 01.126-.035c.057-.012.116-.016.173-.028.01 0 .017-.011.026-.013.026-.007.054-.007.08-.014.01 0 .017-.011.027-.014.026-.007.053-.008.079-.014a.587.587 0 00.093-.027c.006 0 .008-.011.014-.013a.648.648 0 01.106-.041c.044-.013.089-.017.133-.028a.189.189 0 00.04-.014c.018-.007.034-.02.053-.026.052-.017.107-.026.159-.042.023-.007.044-.019.067-.027.039-.014.08-.026.119-.041a.113.113 0 00.027-.013c.005 0 .007-.012.013-.014.022-.007.045-.006.067-.013.005 0 .007-.012.013-.014s.036-.007.053-.014.007-.011.013-.013c.043-.016.089-.026.133-.041a.115.115 0 00.027-.014c.005 0 .007-.011.013-.013.026-.011.054-.016.079-.027s.053-.029.08-.041.054-.016.08-.027a.741.741 0 00.079-.041c.006 0 .008-.01.014-.013.021-.011.044-.017.066-.027s.035-.019.053-.027.027-.008.04-.014.007-.011.013-.013.036-.007.053-.014.008-.01.013-.013.019-.008.027-.014.025-.028.04-.04a.108.108 0 01.026-.014c.017-.006.036-.006.053-.013s.008-.011.014-.014.028-.006.039-.014.017-.019.027-.026.018-.008.026-.014.008-.01.014-.013.027-.007.039-.014.016-.02.027-.027c.034-.02.073-.032.106-.054.016-.01.025-.028.04-.04s.018-.008.026-.014.008-.009.013-.013.019-.007.027-.013.016-.02.026-.027.019-.007.027-.014.032-.039.053-.054.073-.031.106-.054.04-.049.066-.067.029 0 .04-.007 0-.013 0-.02a.049.049 0 01.013-.02l.013-.006c.036-.035.07-.073.106-.108l.013-.007c.008-.008.013-.018.02-.026a.267.267 0 01.033-.034c.008-.006.019-.008.027-.014s.016-.019.026-.026.019-.008.026-.014a.384.384 0 00.067-.06c.012-.016.015-.037.026-.054s.016-.006.02-.013.006-.028.013-.04a.314.314 0 01.033-.041c.007-.008.012-.018.02-.026s.037-.035.052-.054a.133.133 0 00.013-.027c0-.005.01-.008.014-.013s.006-.019.013-.027c.024-.029.054-.052.079-.08.007-.008.007-.019.013-.027s.019-.017.027-.027l.006-.013c.01-.01.025-.016.033-.027s.006-.028.013-.04.03-.025.04-.041.025-.054.039-.08c0-.005.01-.008.014-.013s.007-.019.013-.027.019-.017.026-.027a.071.071 0 00.013-.026c.006-.027.007-.054.013-.081a.206.206 0 01.013-.04c.008-.018.019-.034.026-.053s.006-.036.013-.053.012-.008.013-.014c.008-.044.006-.089.013-.133 0-.01.011-.017.013-.027a.938.938 0 00.018-.166 1.237 1.237 0 00-.021-.193c0-.01-.012-.017-.014-.027-.008-.053-.008-.107-.014-.16a.372.372 0 00-.014-.066c0-.006-.011-.008-.013-.013-.021-.044-.035-.09-.055-.133a.846.846 0 00-.04-.08c0-.005-.011-.007-.014-.013-.011-.03-.016-.063-.027-.093a.2.2 0 00-.027-.053c-.011-.015-.032-.023-.04-.04a.372.372 0 01-.014-.066c0-.006-.01-.008-.014-.013s-.006-.02-.013-.027-.034-.024-.047-.04-.011-.027-.02-.039-.03-.025-.041-.04-.015-.037-.026-.053-.02-.017-.028-.026-.007-.019-.013-.027-.01-.008-.013-.013-.011-.029-.021-.04-.024-.016-.033-.026-.012-.024-.02-.034-.02-.011-.027-.019a.152.152 0 01-.021-.04c0-.013 0-.029-.007-.04s-.013 0-.019 0a.042.042 0 01-.021-.013c-.011-.014-.014-.034-.026-.046s-.029-.011-.041-.02a.09.09 0 01-.02-.027c-.006-.012-.005-.028-.014-.039a.463.463 0 00-.073-.08c-.018-.016-.044-.022-.061-.039s-.015-.038-.027-.053a.427.427 0 00-.06-.06l-.013-.006c-.008-.008-.013-.019-.021-.027-.061-.062-.127-.121-.187-.185-.009-.009-.011-.024-.021-.033s-.018-.007-.026-.013a.134.134 0 01-.021-.02.223.223 0 00-.02-.033c-.018-.018-.042-.028-.06-.046s-.007-.019-.014-.027-.023-.016-.033-.026a.272.272 0 01-.02-.027c-.011-.011-.022-.023-.034-.033l-.013-.006c-.008-.008-.013-.019-.02-.027-.026-.027-.056-.051-.081-.079-.006-.008-.008-.019-.013-.027a.065.065 0 00-.021-.019c-.012-.007-.027-.007-.04-.014s-.008-.009-.013-.013-.019-.007-.027-.013a.172.172 0 01-.033-.033c-.006-.008-.008-.018-.014-.026a.076.076 0 00-.02-.02c-.008-.006-.019-.007-.027-.013s-.017-.019-.027-.027l-.013-.006c-.008-.008-.013-.019-.02-.027a.38.38 0 00-.061-.059c-.011-.008-.027-.006-.039-.013a.08.08 0 01-.021-.02.228.228 0 00-.02-.033c-.007-.007-.019-.007-.027-.013a.679.679 0 01-.06-.06c-.008-.008-.012-.019-.02-.026s-.019-.007-.027-.013-.034-.033-.054-.047-.028-.01-.04-.019-.006-.02-.013-.027a.252.252 0 00-.04-.033c-.013-.008-.029-.01-.041-.019s-.025-.033-.04-.047-.018-.007-.027-.013-.008-.01-.013-.013a.436.436 0 01-.06-.033c-.01-.008-.011-.024-.02-.033s-.019-.007-.027-.013-.025-.028-.04-.04-.052-.027-.074-.046-.01-.025-.02-.033a.337.337 0 00-.054-.026c-.005 0-.008-.01-.013-.013s-.019-.007-.027-.014c-.024-.02-.042-.046-.067-.066s-.043-.017-.06-.032-.01-.03-.02-.04-.028-.012-.041-.02a.094.094 0 01-.02-.02c-.008-.01-.01-.025-.02-.033s-.028-.005-.04-.013-.025-.028-.04-.04-.019-.007-.027-.013-.008-.009-.013-.013a.225.225 0 01-.027-.013c-.01-.008-.017-.019-.027-.026s-.027-.012-.04-.02-.008-.01-.013-.013c-.024-.015-.052-.023-.074-.04s-.007-.019-.013-.026a.132.132 0 00-.034-.033c-.012-.008-.029-.005-.04-.013s-.034-.038-.054-.053-.037-.015-.053-.026a.23.23 0 01-.027-.027l-.014-.006c-.009-.008-.015-.021-.026-.027s-.037-.012-.054-.019l-.007-.007a.106.106 0 00-.02-.027c-.016-.011-.037-.015-.053-.026s-.017-.019-.027-.026-.028-.011-.04-.02-.025-.029-.04-.039-.029-.005-.04-.013-.034-.039-.054-.053a.171.171 0 00-.04-.013l-.007-.007c0-.008-.008-.019-.013-.026a.066.066 0 00-.021-.02c-.025-.015-.054-.025-.08-.04-.005 0-.008-.009-.013-.013s-.019-.007-.027-.013-.017-.019-.027-.026-.019-.007-.027-.013c-.028-.025-.05-.057-.08-.08-.011-.008-.027-.007-.04-.013a.417.417 0 01-.067-.033c-.011-.006-.016-.02-.027-.026s-.036-.011-.053-.02-.008-.01-.014-.013-.037-.015-.053-.026-.016-.02-.027-.026-.027-.007-.04-.013a.135.135 0 01-.027-.02c-.01-.01-.014-.026-.027-.033s-.036-.006-.053-.013-.008-.01-.013-.014a.228.228 0 01-.027-.013c-.006 0-.008-.009-.014-.013s-.018-.007-.026-.013-.016-.021-.027-.026a.328.328 0 00-.054-.013l-.006-.007c-.008-.011-.01-.026-.021-.033a.64.64 0 00-.066-.026.434.434 0 01-.074-.046c-.009-.007-.01-.021-.02-.027s-.046-.009-.067-.019-.017-.019-.027-.027-.018-.007-.026-.013-.008-.009-.014-.013-.018-.008-.027-.013-.008-.01-.013-.013-.036-.016-.053-.027-.008-.01-.014-.013c-.026-.014-.053-.027-.08-.039s-.028-.005-.04-.013-.025-.029-.04-.04-.028-.005-.04-.013-.016-.02-.027-.026-.046-.016-.067-.026c-.006 0-.008-.01-.014-.013-.021-.013-.045-.02-.066-.033s-.016-.021-.027-.027c-.034-.018-.072-.028-.107-.045-.006 0-.008-.011-.014-.014-.026-.014-.054-.024-.08-.039-.005 0-.007-.011-.013-.013a.476.476 0 00-.054-.013.126.126 0 01-.026-.013c-.006 0-.008-.011-.014-.013a.805.805 0 01-.107-.04c-.026-.016-.04-.049-.067-.066a.437.437 0 00-.08-.026.375.375 0 01-.053-.026c-.006 0-.008-.01-.014-.013a.09.09 0 00-.026-.013c-.018-.006-.037-.006-.054-.013s-.008-.011-.013-.013-.027-.007-.04-.013-.008-.01-.014-.014-.018-.007-.026-.013-.009-.01-.014-.013a.374.374 0 00-.053-.026c-.013-.006-.028-.007-.04-.013s-.009-.01-.014-.013a.227.227 0 00-.027-.013c-.005 0-.007-.012-.013-.014s-.036-.006-.053-.013-.008-.01-.014-.013c-.026-.015-.054-.024-.08-.039s-.016-.021-.027-.027-.037-.01-.053-.019-.025-.025-.04-.033c-.052-.029-.108-.051-.161-.079-.005 0-.008-.01-.013-.013-.031-.015-.064-.023-.094-.039-.011-.006-.017-.019-.027-.027a.09.09 0 00-.026-.013c-.018-.006-.037-.006-.054-.013a.2.2 0 01-.053-.026c-.016-.011-.024-.03-.041-.04-.038-.023-.081-.036-.12-.059-.007 0-.006-.015-.013-.019s-.029-.006-.04-.014c-.029-.019-.053-.045-.081-.066-.008-.005-.018-.007-.026-.013s-.009-.009-.014-.013a.82.82 0 01-.074-.046c-.009-.008-.011-.024-.02-.033s-.019-.007-.026-.013-.034-.038-.054-.053-.043-.018-.06-.033-.011-.024-.021-.033-.019-.007-.026-.013c-.024-.02-.042-.048-.067-.066s-.028-.008-.04-.013l-.007-.007c-.005-.008-.008-.018-.014-.026a.063.063 0 00-.02-.02c-.012-.008-.028-.011-.04-.02a.164.164 0 01-.02-.026.521.521 0 00-.047-.047c-.012-.009-.027-.011-.04-.019s-.009-.01-.014-.014l-.026-.019a.578.578 0 01-.061-.06c-.006-.007-.007-.019-.013-.026s-.03-.025-.041-.04-.014-.037-.027-.053-.046-.042-.067-.066-.011-.024-.02-.033-.024-.011-.034-.02-.007-.018-.013-.026a.094.094 0 00-.02-.02c-.011-.008-.025-.01-.034-.02s-.016-.037-.027-.053a.076.076 0 00-.02-.02c-.008-.006-.018-.007-.027-.013a.1.1 0 01-.02-.02c0-.006 0-.014-.006-.02a.39.39 0 00-.034-.046c-.012-.015-.03-.024-.04-.04s-.014-.046-.027-.066-.024-.017-.034-.027a.049.049 0 01-.013-.019c-.009-.02-.013-.041-.021-.06l-.007-.007-.013-.006a.267.267 0 01-.02-.027.334.334 0 01-.027-.026c-.011-.017-.017-.036-.027-.053a.31.31 0 00-.034-.047s-.01 0-.013-.006-.012-.037-.02-.053-.01-.008-.014-.014-.017-.036-.027-.053-.01-.008-.013-.013a.094.094 0 01-.014-.026c-.006-.022-.006-.045-.014-.067 0-.006-.01-.008-.013-.013s-.008-.018-.014-.027-.009-.007-.013-.013-.008-.018-.014-.026-.01-.008-.013-.014-.006-.028-.014-.039-.02-.016-.027-.027a.729.729 0 01-.04-.079c-.006-.013-.008-.027-.014-.04a.3.3 0 00-.027-.053c0-.006-.011-.008-.013-.014s-.008-.036-.014-.053-.01-.017-.013-.026-.008-.036-.014-.053-.02-.035-.027-.054-.008-.035-.014-.053a.127.127 0 00-.013-.026c0-.005-.012-.008-.014-.013-.009-.029-.01-.059-.02-.087-.006-.013-.021-.02-.027-.033a.377.377 0 01-.034-.08c-.008-.026-.007-.054-.014-.079s-.02-.044-.027-.067c-.015-.044-.03-.088-.041-.133-.008-.03-.007-.062-.014-.093 0-.006-.012-.007-.014-.013-.016-.052-.024-.107-.041-.16 0-.005-.012-.006-.013-.013-.011-.059-.017-.151-.029-.226 0-.014-.011-.026-.013-.04-.007-.035-.007-.071-.014-.106 0-.01-.011-.018-.014-.027a.244.244 0 01-.014-.053c-.012-.115-.016-.231-.029-.346 0-.014-.013-.026-.014-.04-.007-.1-.027-.5-.031-.6 0-.009.008-.018.007-.027s-.015-.03-.014-.046a.491.491 0 01.019-.1.219.219 0 01.013-.027.165.165 0 00.013-.053c0-.074-.008-.147-.008-.22v-.22c0-.018.011-.035.013-.053.006-.067 0-.134.011-.2 0-.019.019-.035.02-.053s-.014-.026-.014-.04a.362.362 0 01.02-.08.62.62 0 00.026-.067c0-.018-.007-.035-.007-.053a.249.249 0 01.006-.054c0-.014.011-.026.013-.04.007-.044.005-.089.012-.133 0-.01.01-.017.014-.027.009-.031.015-.063.025-.093 0-.01.011-.017.013-.027.011-.035.016-.072.026-.107a.166.166 0 01.013-.027c0-.005.01-.008.014-.013s.007-.018.013-.027.011-.007.013-.013c.011-.039.015-.081.026-.12a.57.57 0 01.026-.08.381.381 0 01.026-.054c0-.005.011-.007.013-.013s.006-.036.013-.053.011-.008.013-.014a.518.518 0 00.013-.053c.008-.023.019-.044.026-.067s.016-.072.026-.107a.165.165 0 01.013-.027s.011-.007.014-.013.006-.027.012-.04.011-.008.014-.013c.011-.026.015-.055.026-.081 0-.005.01-.007.013-.013.01-.021.016-.045.026-.067 0-.005.01-.008.013-.013a.1.1 0 00.013-.027c.006-.017.007-.036.013-.053a.975.975 0 01.04-.094c0-.005.01-.008.013-.013.01-.022.015-.046.026-.067s.01-.008.013-.013c.019-.04.037-.08.053-.121a.458.458 0 01.012-.053c.006-.011.02-.016.027-.027a.535.535 0 00.039-.08c.007-.017.006-.036.013-.054a.852.852 0 01.039-.08l.014-.013a.133.133 0 00.013-.027c.005-.017.007-.036.013-.053s.01-.018.013-.027a.317.317 0 01.013-.053c.005-.012.019-.017.026-.027a.1.1 0 00.013-.027c.006-.017.008-.036.013-.053a.112.112 0 01.013-.027c0-.005.01-.008.013-.014s.008-.018.014-.026.021-.016.026-.027.006-.036.013-.053.01-.009.013-.014.015-.037.026-.053.021-.016.027-.027.005-.037.013-.054.019-.016.026-.026.007-.019.013-.027.02-.016.027-.027a.373.373 0 00.026-.053c.005-.013.007-.028.013-.04s.011-.008.013-.014c.015-.035.024-.072.039-.107 0-.006.01-.008.013-.013s.008-.019.014-.027.01-.008.013-.013a.97.97 0 01.039-.094c.013-.021.037-.034.053-.054a.079.079 0 00.013-.026c.006-.022.006-.045.013-.067 0-.006.01-.008.013-.013s.005-.029.013-.041.031-.023.04-.04 0-.047.013-.066.043-.043.059-.068a.411.411 0 00.019-.053c0-.006.01-.008.014-.013a.218.218 0 01.013-.027c.007-.01.019-.016.026-.027s.015-.037.026-.053.03-.025.04-.041.007-.027.013-.04.011-.007.013-.013.007-.027.013-.04.01-.008.014-.014a.207.207 0 01.013-.026c.011-.015.029-.025.039-.041s.028-.059.046-.087c.006-.009.021-.01.027-.02s.011-.045.019-.066l.007-.007a.183.183 0 00.033-.02c.007-.007.008-.019.013-.027s.01-.008.013-.014.007-.019.013-.026.039-.033.053-.054.013-.047.027-.067.037-.033.052-.053.02-.042.033-.061l.013-.006a.212.212 0 00.033-.041.542.542 0 00.04-.08c.005-.013.007-.027.013-.04l.006-.007c.011-.007.025-.01.033-.02s.011-.028.02-.04.015-.007.02-.013.011-.024.02-.034.019-.011.026-.02.011-.028.02-.04.032-.034.046-.054.012-.027.02-.04a.251.251 0 01.033-.047c.009-.009.024-.011.033-.02s.007-.019.013-.027a.1.1 0 01.02-.02c.008-.006.018-.007.026-.013a.067.067 0 00.02-.021c.007-.012.005-.028.013-.039.019-.026.045-.044.066-.068.008-.008.013-.018.02-.026a.272.272 0 01.02-.027c.012-.014.028-.026.039-.04s.028-.052.046-.074.025-.011.034-.02.007-.019.013-.027.019-.017.026-.027.007-.019.013-.027.019-.016.027-.027.007-.018.013-.026a.064.064 0 01.02-.02c.008-.006.018-.008.026-.014a.1.1 0 00.02-.02c.006-.008.007-.019.013-.027a.1.1 0 01.02-.02c.012-.008.029-.01.04-.02s.011-.028.019-.04a.064.064 0 01.02-.02c.012-.007.027-.008.04-.014l.007-.007a.427.427 0 01.046-.073c.01-.011.027-.012.04-.021s0-.009.006-.013c.021-.023.046-.043.066-.067.007-.008.007-.019.013-.027a.206.206 0 01.033-.033c.008-.006.019-.007.027-.014s.034-.037.053-.054.024-.01.033-.02.009-.029.019-.04.028-.012.04-.02.008-.01.014-.014a.213.213 0 00.026-.013c.019-.016.033-.039.053-.054s.027-.007.04-.013a.2.2 0 00.046-.034c.009-.009.01-.025.02-.034s.037-.02.053-.033.015-.026.026-.034.046-.02.067-.034c0 0 0-.009.006-.013a.376.376 0 01.06-.06c.011-.009.028-.006.039-.014.034-.024.061-.055.093-.081.008-.006.019-.007.027-.013s.016-.019.026-.027a.223.223 0 01.027-.013c.005 0 .008-.01.013-.014s.018-.007.026-.013.016-.021.027-.027.054-.026.079-.041c.006 0 .008-.01.014-.013a.375.375 0 01.053-.027c.012-.006.028-.007.04-.014s.016-.02.026-.027.037-.015.053-.027.014-.026.026-.033.047-.014.067-.027.014-.026.026-.034a.667.667 0 01.067-.027c.005 0 .007-.01.013-.014s.018-.007.026-.013.008-.01.014-.013.018-.008.026-.014.008-.011.013-.013.036-.008.054-.014a.539.539 0 01.066-.027c.009 0 .018.008.026.006s0-.01 0-.013a.376.376 0 01.04-.02c.006 0 .008-.01.013-.014s.019-.008.027-.013.007-.012.013-.014c.022-.007.045-.006.067-.014.006 0 .008-.009.013-.013s.018-.008.026-.014.008-.009.014-.013a.064.064 0 01.026-.013c.029-.007.058-.007.087-.014.007 0 .012-.011.02-.014s.027-.007.039-.014.008-.01.013-.013.037-.017.054-.027.007-.011.013-.013c.03-.012.063-.016.093-.028s.035-.019.053-.027a.189.189 0 01.04-.013c.026-.006.053-.009.08-.014s.071-.017.106-.028.044-.019.066-.027.036-.008.054-.014.016-.011.026-.013c.057-.012.116-.014.173-.028.019-.005.034-.02.053-.027a.244.244 0 01.053-.014c.044-.007.089-.007.133-.014.027-.005.053-.018.08-.021s.036.008.053.006a.265.265 0 00.054-.013c.009 0 .016-.012.026-.014.04-.007.08-.008.12-.014.018 0 .035-.012.053-.014.073-.006.146-.008.22-.008s.146 0 .22.005c.007 0 .013.007.02.006s.021-.013.033-.013.026.013.04.013.039-.014.06-.014.03.011.046.013.018-.007.027-.007.008.007.013.007.031-.013.047-.014a.1.1 0 01.033.006.419.419 0 00.067.026c.053.009.107.005.16.012.01 0 .017.012.027.014.052.011.107.014.16.025a1.254 1.254 0 01.146.039c.006 0 .008.011.014.013s.036.007.053.013.018.01.027.013.036.006.053.013a.1.1 0 01.027.02c.009.006.016.016.027.02.039.013.082.015.12.032.013.006.015.026.027.033.029.017.064.023.093.039.011.006.018.019.027.027l.014.006c.01.01.014.026.026.033a.25.25 0 00.054.013.1.1 0 01.027.013c.014.012.026.028.04.04l.013.006a.228.228 0 01.027.027l.02.026a.846.846 0 00.074.073c.008.007.019.007.027.013a.426.426 0 01.06.06c.007.007.008.018.014.026s.019.016.027.027.019.042.033.059.026.01.034.02.015.046.027.066.019.017.027.027.007.019.013.026.02.016.027.027.026.054.041.079c0 .006.01.008.013.014a.42.42 0 01.027.066c.006.017.007.036.014.053a.6.6 0 00.041.08l.013.013a.088.088 0 01.014.027c.006.026.006.053.013.079 0 .006.011.008.014.014s.008.027.014.04a.443.443 0 01.027.053c.014.07.016.142.028.212a.647.647 0 00.027.107c0 .006.013.007.014.013.005.05.01.216.015.266 0 .006.013.007.013.013 0 .048.008.169.009.254s0 .168-.005.253c0 .007-.007.013-.006.02s.011.021.013.033-.005.008-.006.013c-.006.049-.006.1-.012.147a.516.516 0 00-.013.053c-.007.093 0 .187-.011.28 0 .01-.012.017-.013.027-.007.039-.007.08-.013.12s-.015.089-.026.133c0 .009-.01.017-.013.027-.014.053-.028.106-.038.16s-.015.107-.026.16c0 .01-.01.017-.013.027-.014.044-.027.088-.039.133s-.016.072-.026.107a.555.555 0 01-.032.1c-.005.01-.023.01-.027.02s0 .031 0 .047a.841.841 0 01-.019.1c0 .006-.01.008-.014.013s-.007.019-.013.027-.011.008-.013.013c-.011.031-.016.063-.026.094 0 .009-.01.017-.013.026-.014.04-.025.081-.039.121 0 .009-.01.017-.013.026-.01.031-.014.064-.026.094s-.038.07-.053.107c-.007.017-.006.036-.013.053s-.009.008-.013.014-.016.036-.026.053-.01.008-.013.014a.091.091 0 00-.013.026c-.006.018-.006.037-.013.054s-.011.007-.013.013c-.016.035-.025.072-.04.107 0 .006-.01.008-.013.013s-.007.028-.013.04-.01.008-.013.014-.007.027-.013.04-.01.008-.013.013-.008.019-.013.027-.011.008-.014.013-.007.037-.012.054a.169.169 0 01-.013.027.65.65 0 00-.047.06c-.01.018-.009.042-.019.06s-.028.025-.04.04-.008.019-.013.027-.01.008-.013.013c-.013.026-.018.056-.033.08s-.033.035-.046.054-.016.036-.026.054-.01.008-.013.013l-.027.054c-.01.018-.01.007-.013.013s-.005.028-.013.04-.029.025-.04.04a.336.336 0 00-.026.054.188.188 0 01-.013.04c-.014.02-.039.033-.053.054a.528.528 0 00-.026.066l-.007.007-.013.007c-.007.008-.012.018-.02.026s-.037.035-.052.054-.008.019-.014.027-.009.008-.013.013 0 .014-.006.02-.019.022-.027.034-.015.032-.026.047-.01 0-.013.006a.212.212 0 00-.033.041c-.007.012 0 .029-.013.04-.04.048-.092.086-.132.134-.013.015-.015.037-.027.053a.133.133 0 01-.033.034c-.01.008-.024.011-.033.02s-.007.019-.013.027-.028.025-.039.04-.008.019-.014.027-.01.008-.013.013-.007.027-.013.04l-.006.007c-.013.006-.028.007-.04.014a.048.048 0 00-.02.02c-.006.008-.007.019-.013.027a.257.257 0 01-.033.033c-.01.008-.024.011-.033.02s-.007.019-.014.027a.34.34 0 01-.046.047l-.013.007c-.008.008-.012.018-.02.027a.34.34 0 01-.033.033c-.01.008-.024.011-.033.02s-.007.019-.013.027a.077.077 0 01-.02.02c-.008.006-.019.007-.026.014s-.024.034-.04.047-.028.012-.04.02-.026.023-.04.034a.228.228 0 00-.026.02c-.027.026-.051.055-.079.08-.008.007-.019.008-.027.014s-.015.021-.026.027a.342.342 0 01-.053.013l-.007.007a.227.227 0 01-.013.027c-.006.008-.011.017-.02.02-.043.013-.09.015-.133.028-.019.005-.034.022-.053.027-.035.009-.072.006-.106.014-.015 0-.026.017-.04.02s-.018-.006-.027-.006c-.047 0-.093.007-.14.007a1.1 1.1 0 01-.14-.005c-.014 0-.026-.01-.04-.013s-.054-.006-.08-.013a.423.423 0 01-.067-.026c-.005 0-.007-.01-.013-.013s-.027-.007-.04-.013-.008-.011-.013-.013-.028-.008-.041-.014a.348.348 0 01-.08-.039.992.992 0 01-.08-.079l-.014-.007a.618.618 0 01-.067-.086c-.011-.018-.011-.041-.02-.059s-.011-.008-.014-.014a.511.511 0 01-.04-.093.851.851 0 01-.028-.133c0-.005.007-.008.007-.013s-.007-.017-.007-.027.008-.013.006-.02-.017-.03-.02-.046a1.776 1.776 0 01-.022-.193.2.2 0 01.007-.06c.006-.027.022-.052.026-.08.009-.08.005-.16.011-.24s.015-.167.025-.227c0-.006.01-.008.013-.013a.228.228 0 00.013-.027c0-.005.011-.007.013-.013.011-.026.016-.054.027-.08 0-.006.01-.008.013-.014s.016-.036.026-.053.01-.008.013-.014a.071.071 0 00.013-.026c.006-.022.007-.045.013-.067a.086.086 0 01.013-.027c.012-.014.032-.023.04-.04s.015-.063.026-.093c0-.006.01-.008.013-.014a.3.3 0 01.02-.04c.009-.011.026-.014.033-.027a.473.473 0 00.013-.067c0-.006.01-.007.013-.013s.01-.037.019-.053.021-.016.027-.027.011-.045.019-.067c0-.006.01-.008.013-.013.015-.026.025-.055.04-.081 0 0 .011-.007.013-.013s.005-.037.013-.053.02-.017.026-.027.017-.037.027-.054.011-.007.013-.013c.007-.026.005-.054.013-.08a.192.192 0 01.026-.054c.007-.01.021-.015.026-.026.013-.026.015-.055.026-.081 0-.005.01-.008.013-.013s.017-.036.027-.053.01-.008.013-.014l.019-.053c.007-.017.021-.045.033-.067 0-.006.01-.008.013-.014a.375.375 0 00.027-.053c0-.008 0-.018.006-.027a.436.436 0 00.026-.047c.014-.041.019-.085.033-.126 0-.006.011-.008.013-.014a.581.581 0 00.026-.093c.007-.035.005-.072.012-.107 0-.006.01-.008.014-.013a.068.068 0 00.013-.027 1.3 1.3 0 00.005-.153c0-.051 0-.1-.008-.153a.435.435 0 00-.014-.08.576.576 0 00-.027-.08c0-.006-.011-.007-.013-.013a.455.455 0 00-.014-.053c-.01-.017-.028-.026-.04-.04l-.007-.013a.115.115 0 00-.027-.027.317.317 0 00-.067-.032c-.03-.011-.063-.016-.093-.026-.01 0-.017-.011-.027-.013-.035-.007-.071-.007-.106-.013-.005 0-.009-.006-.014-.006s-.008.006-.013.006c-.04.007-.081.007-.12.015a.629.629 0 00-.106.027c-.006 0-.007.012-.014.014-.056.012-.115.017-.172.027a.328.328 0 00-.054.014c-.005 0-.008.01-.013.014l-.026.013c-.006 0-.008.01-.014.014s-.027.011-.039.02l-.007.013c-.008.01-.019.017-.026.027s-.012.023-.02.033l-.013.007c-.008.008-.013.019-.02.027a.265.265 0 01-.033.034c-.01.008-.024.011-.033.02s-.007.019-.013.027a.34.34 0 01-.047.046l-.013.007c-.008.008-.012.019-.02.027a.21.21 0 01-.033.034c-.012.008-.028.011-.04.02a.108.108 0 00-.019.027c-.006.008-.008.018-.013.026a.134.134 0 01-.02.021c-.008.005-.019.007-.027.013s-.017.019-.026.027l-.013.007a.171.171 0 00-.027.027c-.007.008-.012.018-.02.026s-.018.017-.026.027-.011.024-.02.034-.051.038-.073.06c-.007.007-.007.019-.013.027s-.01.008-.013.013a.384.384 0 01-.033.06c-.006.008-.018.008-.026.014a.076.076 0 00-.02.02c-.008.011-.01.025-.02.034s-.028.011-.04.02a.088.088 0 00-.019.027c-.006.008-.007.019-.014.026s-.036.035-.052.054-.011.024-.02.034-.024.011-.033.02-.007.018-.013.026-.019.018-.027.027l-.006.014c-.015.014-.033.025-.047.04s0 .014-.006.02a.392.392 0 01-.033.047c-.019.023-.042.043-.06.067s-.01.028-.019.04-.023.017-.033.027a.18.18 0 00-.033.04.262.262 0 00-.013.04l-.007.007c-.013.007-.027.012-.04.02a.044.044 0 00-.013.014c-.012.021-.02.045-.033.067 0 .005-.009.008-.013.013s-.007.019-.013.027-.019.016-.027.026-.018.043-.032.061-.019.007-.027.013a.1.1 0 00-.02.02c-.009.017-.009.038-.019.054s-.019.012-.027.02a.207.207 0 00-.033.033c-.011.017-.014.038-.026.054s-.038.033-.053.054-.015.037-.026.053-.019.017-.026.027-.008.018-.014.027-.01.007-.013.013-.006.028-.013.04-.018.017-.026.027l-.007.013c-.01.01-.026.015-.033.027s0 .038-.013.054-.048.041-.066.067-.009.037-.019.053-.026.015-.033.027a.671.671 0 00-.027.067s-.01.008-.013.013-.011.028-.02.04-.019.017-.026.027a.187.187 0 00-.02.04c-.006.018-.006.036-.013.054s-.009.008-.013.013-.007.019-.013.027-.029.024-.04.04-.007.027-.013.04a.44.44 0 01-.026.054c0 .005-.01.008-.013.013-.019.039-.033.081-.052.12 0 .006-.011.008-.014.014s-.005.028-.013.04-.021.015-.026.027a.453.453 0 00-.013.053.165.165 0 01-.013.027s-.011.007-.013.013c-.018.042-.028.086-.046.127-.006.015-.019.026-.026.04a1.13 1.13 0 00-.046.114c-.007.021-.005.045-.013.066s-.027.053-.039.081-.007.027-.013.04-.011.007-.013.013c-.007.022 0 .046-.013.067-.014.037-.041.069-.053.107s-.014.1-.025.146a.221.221 0 01-.013.027c-.01.035-.016.072-.026.107 0 .01-.01.017-.013.027a.313.313 0 00-.013.053c-.005.031-.006.063-.013.093s-.02.062-.026.094 0 .08-.012.12c0 .006-.012.007-.013.013-.008.053-.006.107-.012.16 0 .034-.018.066-.02.1 0 .014.014.026.014.04s-.013.021-.013.033.012.017.013.027-.006.008-.006.013q-.006.06-.006.12c0 .04 0 .08.008.12 0 .005.007.008.007.013s-.012.022-.013.034.006.013.006.02c.007.07.007.142.015.213s.017.115.028.173c.007.035.021.07.028.106.012.066.015.134.028.2 0 .007.01.008.013.014s.016.036.027.053.022.015.027.026.006.037.014.053.02.016.027.027.016.036.027.053.01.008.013.013.008.018.014.027.01.008.013.013.008.018.014.026.02.016.027.027c.018.029.027.064.047.093s.033.024.047.039.007.019.013.027.019.017.027.026l.007.013c.01.01.026.015.033.027s.006.036.014.053a.055.055 0 00.02.02c.008.006.019.007.027.013a.063.063 0 01.02.02c.008.012.012.027.02.04s.01 0 .014.006a.409.409 0 01.047.046c.008.012.005.029.013.04a.3.3 0 00.047.04.27.27 0 01.027.02.4.4 0 01.047.046c.006.008.007.019.014.026a.426.426 0 00.06.06c.01.008.024.011.033.02s.012.024.021.033.018.007.026.013a.079.079 0 01.021.02c.005.008.006.019.013.026.036.039.074.077.114.113.007.006.019.006.027.013s.017.023.027.033.018.012.027.02a.344.344 0 01.033.033l.007.013c.014.014.033.024.047.039s.007.019.013.027a.133.133 0 00.034.033c.012.007.028.006.04.013a.148.148 0 01.033.033l.007.013a.409.409 0 00.04.033c.024.017.051.029.074.046 0 0 0 .011.007.014s.029 0 .04.013 0 .013 0 .02a.055.055 0 00.014.026.064.064 0 00.026.013c.018.006.036.008.054.013l.006.007a.213.213 0 00.014.026c.012.015.028.026.04.04l.007.013a.267.267 0 00.027.02c.009.008.016.02.027.026s.055.023.08.04.017.023.027.033a.317.317 0 00.04.033c.008.006.018.007.027.013s.008.01.013.013.036.016.054.026.008.01.013.014.019.007.027.013.016.018.026.026a.279.279 0 01.034.02c.009.009.009.026.02.033s.036.006.054.013.008.01.013.013.028.011.04.02a.334.334 0 01.027.026.874.874 0 00.094.079c.016.011.037.011.053.02s.017.019.027.027.019.007.027.012.008.01.013.014.019.007.027.013.025.028.04.039.019.008.027.014.015.021.027.026.046 0 .066.013.017.019.027.026.019.008.027.013.008.011.013.014.028.006.04.013.009.01.014.013a.3.3 0 01.04.02c.011.008.015.025.027.033s.045.015.067.026c0 0 .008.01.013.013s.028.006.04.013.016.02.027.026.027.007.04.013.008.01.013.014a.218.218 0 01.027.013c.005 0 .008.011.014.013s.037.005.053.013.016.02.027.026.028.006.04.013.042.04.067.053.036.006.053.013.008.01.014.013.037.015.053.026.024.031.04.04.037.006.054.013.008.01.013.013.037.016.054.026.008.011.013.014.028.006.04.013.008.01.014.013c.025.013.054.019.08.033s.021.02.033.026.041.011.06.019.008.011.014.014.045.015.067.026c.005 0 .007.011.013.013.021.009.045.011.067.02.006 0 .008.01.013.013.022.012.045.02.067.032.005 0 .008.011.013.014.022.01.046.015.067.026.006 0 .008.01.014.013.052.024.109.039.16.065.017.009.026.028.04.04s.019.008.027.013.008.011.013.013a.523.523 0 00.054.013l.006.007c.008.011.01.026.021.033s.045.015.066.026a.434.434 0 01.074.046c.009.007.011.021.02.027s.046.014.067.026.025.024.04.033.046.016.067.026.008.01.014.013.018.007.026.013.017.02.027.027a.337.337 0 00.054.026.374.374 0 01.04.013.214.214 0 01.046.033s0 .011.007.013.037.01.054.02.017.019.026.026.02.007.027.013.025.029.041.04.036.016.053.026.026.024.04.033a.649.649 0 01.074.039c.011.01.009.031.02.04a.381.381 0 00.067.033c.005 0 .008.01.013.013s.019.008.027.013.017.019.027.027.019.007.027.013.026.027.04.04l.013.006c.01.01.015.026.027.033s.047.014.067.026.025.029.04.04.014 0 .02.006c.035.025.066.055.1.08.012.008.027.011.04.019s.008.01.013.014a.225.225 0 01.027.013c.01.007.017.019.027.026s.028.011.04.02.016.024.027.033.019.007.027.013c.028.025.05.056.08.079a.369.369 0 00.053.026c.006 0 .009.01.014.014s.019.007.027.013a.076.076 0 01.02.02c.008.01.01.025.02.033s.029 0 .04.013c.053.044.1.1.148.145.011.009.028.006.04.013a.1.1 0 01.02.02c.008.01.01.025.02.033s.028.011.04.02 0 .01.007.013a1.337 1.337 0 00.114.112c.018.015.042.02.06.033s0 .01.007.014.019.012.027.019.017.023.027.033.033.025.047.04.007.019.013.027a.119.119 0 00.02.019c.008.006.02.007.027.013.024.023.042.051.067.073s.042.025.06.04l.007.013c.01.01.024.016.034.026s.012.023.02.033l.013.007c.011.012.015.029.027.04s.043.023.06.039.008.019.014.027a.34.34 0 00.047.046s.011 0 .013.007.005.029.014.039.014 0 .02 0a.062.062 0 01.027.013c.007.008.007.02.013.027.025.028.056.051.081.079.006.008.007.019.013.027s.019.016.027.026.007.019.014.027c.038.041.082.077.12.119.007.007.008.018.014.026a.34.34 0 00.047.046s.011 0 .013.007c.014.021.021.046.034.066s.019.017.027.027.007.019.014.026.028.025.04.04.007.019.013.026.03.025.04.04.006.029.014.04.049.04.067.066a.664.664 0 01.027.067c.007.01.02.016.027.026s.008.018.014.026.01.008.013.014.008.018.014.026.019.017.027.027.007.018.013.026.02.016.027.027.015.037.027.053.039.032.054.053.006.028.013.039.019.017.027.027.008.018.014.026.02.016.027.027.016.045.027.066.01.008.013.013.017.036.027.053.011.008.014.014c.01.021.016.045.027.066s.01.008.013.013.017.036.027.053.011.008.014.014.007.027.013.039a.32.32 0 00.034.06c.007.009.022.01.027.02.015.029.02.063.034.093 0 .006.009.008.013.013s.008.018.014.027.01.007.013.013.015.046.027.066.021.016.027.027a.538.538 0 01.041.092c.007.022.005.046.013.067.019.046.049.087.068.133.012.03.016.062.028.093a.369.369 0 00.026.053c0 .005.012.007.014.013.012.034.016.072.027.106a.269.269 0 00.028.053c0 .006.01.008.013.014a.433.433 0 01.027.079c.008.035 0 .072.014.107s.043.086.055.132c.02.079.025.161.041.24 0 .01.01.017.014.027a.988.988 0 01.041.119c.008.035.007.071.014.106a.794.794 0 00.027.107c0 .006.011.008.014.013a.143.143 0 01.013.04c.012.071.018.142.029.213 0 .005.007.008.006.013s-.013.017-.013.027a.567.567 0 00.021.066c.019.1.036.195.049.293 0 .013-.007.026-.007.04.005.067.014.138.017.209zm28.618-9.29c.087-.424-.89-.467-.886-.046.002.335.812.416.886.046zm1.965.1c.133.64-.363 1.041-.815 1.332-1.324.839-2.471.4-3.409-.707a2.6 2.6 0 01.135-2.418 2.094 2.094 0 01.615-.478 2.437 2.437 0 012.032.045 2.6 2.6 0 011.325 1.794c.024.124.088.293.115.43zm-26.238 3.438c-.014 0-.027-.006-.04-.006a.105.105 0 00-.04.007c-.006 0-.008.01-.013.013s-.028.008-.04.014-.008.01-.013.013c-.026.015-.055.025-.08.041a.076.076 0 00-.02.02c-.006.008-.007.019-.013.027s-.019.016-.026.026a.1.1 0 00-.014.027.429.429 0 00-.019.1.27.27 0 00.021.087c0 .006.01.008.013.013s.008.019.014.026a.209.209 0 00.047.047.506.506 0 00.127.059c.015 0 .03-.014.046-.014s.026.011.04.013.01 0 .014-.007.015-.02.026-.027c.247-.152.424-.484-.03-.481zm-.02 2.651c-.016-.012-.023-.035-.04-.047s-.046-.014-.067-.026-.025-.024-.04-.033a.157.157 0 00-.04-.013c-.027 0-.054 0-.08-.012-.006 0-.008-.011-.014-.014s-.036-.006-.053-.013-.008-.009-.014-.013a.127.127 0 00-.026-.013c-.018-.006-.037-.006-.054-.013s-.007-.012-.013-.013c-.035-.008-.072-.005-.107-.013-.006 0-.007-.01-.013-.013-.062-.024-.126-.041-.187-.065-.006 0-.008-.01-.014-.013a1.869 1.869 0 01-.906-1 2.822 2.822 0 01.1-2.265c.147-.351.553-.545.793-.832a.668.668 0 00.053-.053.547.547 0 00.026-.067c0-.006.01-.008.013-.013s.012-.028.02-.041.009-.008.013-.013.018-.016.02-.027a.414.414 0 00.006-.086.253.253 0 00-.007-.087.148.148 0 00-.047-.046c-.008-.006-.019-.007-.027-.013s-.015-.023-.027-.027c-.352-.094-1.182-.044-1.416.311a2.853 2.853 0 00-.432 1.015 15.7 15.7 0 00-.165 3.624c.006.791.655 3.93 2 3.415.006 0 .008-.012.014-.014a.7.7 0 00.079-.02c.013-.007.015-.026.027-.034s.045-.016.066-.027c.006 0 .008-.011.013-.014.021-.01.045-.016.067-.027.005 0 .007-.01.013-.013s.036-.017.053-.027.008-.01.013-.013a.447.447 0 00.053-.028c.029-.023.052-.054.08-.08l.013-.007c.014-.014.024-.033.039-.047s.019-.007.027-.013.016-.024.026-.034.025-.015.033-.027.022-.056.04-.08a.373.373 0 01.059-.06s.011 0 .013-.007.011-.028.02-.04.039-.033.053-.054c.536-.822.853-2.145-.056-2.817zm28.15 8.727a4.613 4.613 0 01.025-1.865c.369-2.312.786-4.711 1.1-7.054.127-.959-.7.376-.848.473-.794.517-1.17.492-1.9-.665-.249-.391-.681-.607-.906-.033-.3.734-1.015 1.542-1.852.814-.31-.266-.866-1.273-1.411-.762-1.045 1-1.921 2.792-3.832 1.435-.252-.179-.458-.594-.714-.268a8.763 8.763 0 01-.8.725c-.587.6-2.214 1.519-3.015 1.176-.41-.176-.624-.67-1.093-.2a1.318 1.318 0 01-.744.345c-1.9.417-2.825-4.69-3.554-.579a1.912 1.912 0 01-.874 1.4c-.45.177-.923-.676-1.054-1.025-.11-.3-.552-2.7-1.118-1.6-.5 1.008-.2 2.158-.6 3.174a.845.845 0 01-1.463.251 3.511 3.511 0 01-.471-2.287c.026-.625-.161-1.942-.9-2.131-.418-.1-.054.879-.045 1.106.091 1.941-.391 3.406-2.03 4.424-.011.006-.016.02-.027.027s-.054.021-.079.034c-.006 0-.008.01-.013.013a.6.6 0 01-.067.034c-.017.007-.036.008-.053.014a.09.09 0 00-.026.013c-.006 0-.008.01-.014.013a.668.668 0 01-.106.055c-.038.013-.08.015-.119.027-.006 0-.008.01-.014.014a.44.44 0 01-.053.027c-.026.01-.054.016-.08.027-.005 0-.007.01-.013.013s-.027.008-.04.014-.007.01-.013.013a.383.383 0 01-.066.027c-1.507.463-2.559-1.534-2.918-2.714a19.1 19.1 0 01-.676-3.1 15.725 15.725 0 01-.058-4.049c.159-1.311.872-3.072 2.3-3.394 2.56-.577 3.622 1.914 3.845 3.813.127 1.074.6 1 1.351 1.555a1.886 1.886 0 01.678.694c.261.7.6-.513.7-.7a2.721 2.721 0 01.415-.616c1.392-1.413 1.992 1.333 2.592 1.079.65-.28.608-.956 1.122-1.327 1.864-1.373 1.918 2.779 3.355 3.344.67.278.79-1.352.9-1.732.515-1.767 1.432-4.2 3.325-4.84a3.124 3.124 0 013.3 1.007c.444.685.637 1.442-.112 1.9-1.108.689-1.311-.425-2.176-.543a1.084 1.084 0 00-.744.152c-.713.415-2.122 2.8-1.578 3.548.363.5.822.151 1.218-.1a5.255 5.255 0 001.194-1.427c.285-.364.929-1.073 1.431-1.077 1.168-.009.3 2.022 1.174 2.016l2.211-2.608c.819-.468 1.045-.174 1.4.542a1.375 1.375 0 00.43.456c1.125.694.839-2.4 2.371-1.7.654.289 1.263 1.768 1.592 1.752a17.358 17.358 0 001.326-2.474c.529-.811 1.133-.81 1.44.2a12.6 12.6 0 01.232 4.22c-.122 2.889-.273 6.221.549 9.066.205.676 1.023 1.6.671 2.418-.283.659-1.46.252-1.9-.032a4.26 4.26 0 01-2.078-2.55zm16.352-14.283a2.592 2.592 0 01-.8 2.11c-.073.075-.124.182-.2.255-.4.409-.8.83-1.23 1.2a14.764 14.764 0 01-1.721 1.319c-.9.544-2.4.995-3.1-.116-.17-.271-.722-.674-1.014-.312a5.971 5.971 0 01-1.49 1.15 2.1 2.1 0 01-2.265-.062c-1.473-1.165-1.555-4.338-.424-5.771a10.089 10.089 0 011.155-1.4c.122-.1.225-.226.344-.335.852-.788 2.37-1.861 3.547-1.2 1.253.677.655 2.119-.541 2.414-.093.023-.173.034-.266.056a3.974 3.974 0 00-2.512 1.531c-.386.543-.924 1.544-.3 2.1.768.685 1.513-.567 1.756-1.153.305-.748 1.213-2.278 2.219-1.495.578.441.292.961.511 1.514.1.256.256.586.532.682 1.478.513 2-1.648 2.624-2.53.556-.786 1.27-1.406 2.29-1.037.611.215.705.502.885 1.078z" class="prefix__cls-3" data-name="Path 10268"/>
        <path id="prefix__Rectangle_3649" d="M0 0H75V42.482H0z" data-name="Rectangle 3649" transform="translate(311.821 464.332)" style="fill:#004a9c"/>
        <path id="prefix__Path_10269" d="M332.219 490.813c.005.119.009.239.01.359s0 .24 0 .36c0 .014-.012.026-.013.04-.007.08 0 .16-.012.24 0 .01-.01.017-.013.026-.01.04-.018.08-.026.12s-.006.063-.012.094-.018.071-.026.106-.007.054-.013.081c0 .009-.011.016-.013.026-.011.049-.014.1-.025.147s-.025.089-.039.133c0 .01-.01.018-.013.027-.011.035-.015.072-.026.107-.006.019-.02.034-.026.053s-.006.045-.013.067c0 .006-.011.008-.013.014a.135.135 0 00-.013.04.735.735 0 01-.013.08c0 .011-.02.016-.027.026s-.016.037-.026.054-.01.008-.013.013c-.015.03-.024.064-.039.094 0 .005-.011.008-.013.013a.308.308 0 00-.013.04c-.008.018-.02.035-.027.054s-.006.036-.013.053c-.015.037-.036.071-.052.107a.26.26 0 00-.006.027.416.416 0 01-.033.067c-.011.015-.028.025-.04.04a.219.219 0 00-.013.027c0 .005-.01.008-.013.013s-.007.019-.013.027-.021.016-.027.027-.015.045-.026.066a.172.172 0 01-.02.027l-.019.027c-.009.01-.021.016-.027.027s-.007.027-.013.04a.516.516 0 01-.026.053c0 .006-.01.008-.013.014-.015.026-.025.054-.04.08 0 .006-.009.008-.013.013s-.007.019-.013.027-.028.026-.04.04-.007.019-.013.027a.063.063 0 01-.02.02c-.007.006-.018.008-.026.014a.064.064 0 00-.02.02c-.007.012-.005.028-.013.04a.291.291 0 01-.046.047l-.013.007a.267.267 0 00-.02.027c-.01.01-.024.016-.033.026a.18.18 0 00-.033.041.265.265 0 00-.013.04l-.007.006a.187.187 0 00-.033.021c-.009.009-.012.023-.02.033l-.013.007a.272.272 0 00-.02.027.322.322 0 00-.026.026c-.006.008-.007.019-.013.027s-.028.026-.04.04-.011.025-.02.034-.024.011-.033.02-.007.019-.013.027a.172.172 0 01-.033.033c-.008.006-.019.008-.027.014s-.024.029-.039.04-.038.014-.053.027c-.034.028-.06.065-.093.094-.007.007-.019.008-.026.014a.211.211 0 00-.034.033l-.006.014c-.008.007-.019.012-.027.02a.992.992 0 01-.079.08c-.011.009-.027.008-.04.014l-.006.007c0 .008-.008.018-.013.026a.134.134 0 01-.02.021c-.008.005-.019.007-.027.013a.128.128 0 00-.02.02c-.008.013-.01.028-.019.04a.076.076 0 01-.027.02l-.039.021a.37.37 0 00-.04.02c-.006 0-.008.01-.013.013s-.019.008-.027.014-.008.01-.013.013-.029 0-.04.014-.041.048-.066.067-.028.006-.04.014-.023.031-.04.04a.733.733 0 01-.079.027c-.006 0-.009.01-.014.014a.209.209 0 00-.026.013c-.019.016-.034.037-.053.054l-.013.007c-.01.008-.017.019-.027.026s-.027.013-.04.021-.007.01-.013.013-.046.014-.066.027-.024.031-.04.041c-.037.022-.081.033-.119.054-.011.006-.017.019-.027.027a.09.09 0 01-.026.013c-.017.006-.036.007-.053.014s-.008.01-.014.013-.036.016-.053.027-.024.03-.039.041-.028.006-.04.013-.015.021-.027.027c-.042.022-.089.034-.132.054-.006 0-.008.011-.014.014-.025.015-.053.025-.079.04-.006 0-.008.011-.013.014-.022.009-.046.01-.067.02s-.007.015-.013.02-.018.008-.027.014-.007.01-.013.013-.045.017-.066.027c-.006 0-.008.011-.013.014s-.036.007-.054.014a.12.12 0 00-.039.02c-.008.006 0 .023-.013.027-.025.009-.055 0-.08.007s-.07.039-.106.054-.063.015-.093.027c-.05.02-.1.048-.147.068-.016.007-.036.007-.053.014a.646.646 0 00-.079.04c-.006 0-.007.012-.013.014-.022.007-.046.005-.067.014a1.6 1.6 0 00-.146.067c-.005 0-.007.012-.013.014-.026.007-.054.007-.08.014a.071.071 0 00-.026.013c-.006 0-.008.011-.014.014-.056.02-.116.033-.172.054s-.078.041-.12.054-.1.017-.146.028c-.01 0-.017.01-.027.014-.03.01-.062.017-.093.027-.009 0-.016.011-.026.014-.049.011-.1.016-.146.027-.01 0-.018.011-.027.014s-.045.006-.067.014c-.005 0-.008.009-.013.013a.082.082 0 01-.026.014c-.049.011-.1.016-.146.027-.014 0-.027.011-.04.014-.031.006-.063.006-.094.014-.005 0-.007.012-.013.013-.062.011-.16.014-.239.029-.02 0-.034.022-.053.027-.053.013-.107.016-.16.028-.036.008-.07.026-.106.034-.009 0-.018-.007-.027-.007a.628.628 0 00-.106.015c-.054.011-.107.025-.16.041-.009 0-.017.012-.026.013-.1.013-.214.023-.293.029-.005 0-.009-.007-.014-.007s-.016.013-.026.014-.013-.008-.02-.006-.013.01-.02.013a.226.226 0 01-.06.021c-.012 0-.021-.012-.033-.014s-.018.007-.027.007-.013-.007-.02-.006a.9.9 0 00-.113.021.308.308 0 01-.04.013c-.133.013-.309.021-.4.03-.01 0-.017.011-.026.013a.5.5 0 01-.107.021c-.014 0-.026-.014-.04-.013a.151.151 0 00-.053.021c-.006 0-.007.013-.013.013-.04 0-.516.021-.746.026h-.346c-.009 0-.018-.008-.027-.007s-.026.014-.04.014-.017-.012-.027-.013-.008.005-.013.007a.245.245 0 01-.046.007 1.337 1.337 0 01-.167-.019c-.015 0-.026-.016-.04-.02s-.009.007-.013.007c-.063.005-.125.008-.187.008a1.28 1.28 0 01-.186-.005c-.02 0-.034-.024-.054-.026-.086-.01-.3-.016-.386-.024-.01 0-.017-.011-.027-.013a.491.491 0 00-.1-.019c-.02 0-.04.009-.06.007a1.964 1.964 0 01-.2-.039c-.01 0-.017-.011-.027-.013-.035-.007-.071-.005-.106-.012-.01 0-.018-.011-.027-.013-.026-.007-.054-.007-.08-.013-.01 0-.017-.011-.027-.013-.084-.016-.169-.023-.253-.038-.01 0-.017-.011-.027-.013-.031-.007-.063-.006-.093-.013-.01 0-.017-.01-.027-.013-.053-.015-.108-.023-.16-.039-.006 0-.007-.011-.014-.013s-.044-.007-.066-.013-.017-.01-.027-.013c-.04-.011-.08-.015-.12-.026-.01 0-.017-.01-.027-.013a.4.4 0 00-.046-.013h-.02c-.037-.015-.07-.039-.107-.052s-.054-.006-.08-.013c-.006 0-.008-.011-.014-.013-.03-.011-.063-.016-.093-.026-.01 0-.017-.01-.027-.013s-.045-.007-.067-.013a.084.084 0 01-.027-.013s-.007-.01-.013-.013c-.035-.019-.07-.037-.107-.053s-.073-.022-.107-.039c-.011-.005-.015-.022-.027-.026s-.054 0-.08-.013c-.011 0-.016-.019-.026-.026s-.019-.008-.027-.013-.017-.019-.027-.027a.086.086 0 00-.027-.013c-.035-.01-.072-.014-.107-.026-.005 0-.008-.009-.013-.013s-.018-.007-.027-.013-.007-.01-.013-.013-.027-.007-.04-.013-.008-.011-.013-.013-.028-.007-.041-.014-.007-.01-.013-.013c-.053-.028-.109-.049-.16-.078-.011-.006-.016-.021-.027-.027s-.037-.005-.054-.013-.016-.019-.026-.026-.028-.011-.041-.02-.015-.02-.026-.026-.037-.011-.054-.02-.008-.01-.013-.013-.019-.007-.027-.013-.016-.019-.027-.027c-.03-.021-.063-.038-.093-.059-.011-.007-.016-.02-.027-.026s-.047-.014-.067-.026-.015-.026-.027-.033a.664.664 0 00-.067-.027l-.013-.013c-.005-.004-.02-.006-.027-.013s-.024-.034-.04-.046-.038-.009-.054-.02-.032-.039-.053-.053-.029 0-.04-.006 0-.014 0-.02a.043.043 0 00-.013-.02c-.012-.009-.028-.011-.04-.02s-.016-.02-.027-.026-.028-.006-.04-.013a.178.178 0 01-.034-.033s0-.011-.006-.013-.037-.011-.054-.02a.055.055 0 01-.02-.02c-.008-.012-.01-.029-.02-.039s-.042-.025-.06-.04 0-.01-.007-.013-.028-.012-.04-.02a.135.135 0 01-.027-.02.254.254 0 01-.02-.026c-.01-.01-.024-.017-.034-.027s-.025-.032-.04-.046-.019-.006-.027-.013a.788.788 0 01-.087-.086.247.247 0 01-.02-.04c-.007-.01-.021-.015-.027-.026a.478.478 0 01-.02-.053c0-.006-.011-.008-.014-.013-.011-.022-.016-.046-.027-.067 0-.005-.011-.007-.014-.013s-.016-.045-.027-.066-.011-.008-.013-.014-.008-.035-.014-.053-.02-.043-.027-.066a.493.493 0 01-.021-.1c0-.014.016-.026.013-.04a.535.535 0 00-.034-.073.186.186 0 01-.007-.047.408.408 0 00.006-.06c0-.016-.02-.029-.02-.046s.018-.048.02-.073c.008-.1 0-.2.011-.307a.517.517 0 01.013-.053.961.961 0 01.012-.12 1.072 1.072 0 01.052-.147c0-.006.012-.007.013-.013.007-.026.007-.054.013-.08a.551.551 0 01.026-.081c0-.005.01-.008.013-.013a.084.084 0 00.013-.027c.01-.03.015-.063.026-.093 0-.006.01-.008.014-.013s.015-.037.026-.054.02-.016.026-.027c.016-.03.025-.063.039-.093 0-.006.01-.008.014-.014a.529.529 0 00.026-.053c0-.013.007-.027.013-.04a.269.269 0 01.026-.054c.007-.01.02-.016.026-.027s.024-.054.04-.08.019-.017.026-.027.008-.018.013-.026.01-.009.014-.014.016-.036.026-.053.01-.008.013-.014.007-.018.013-.027.019-.017.027-.026l.006-.014a.329.329 0 00.027-.026c.008-.013.011-.028.019-.041s.02-.016.027-.026.005-.029.013-.041a.147.147 0 01.033-.033c.01-.008.025-.01.033-.02s.006-.028.013-.04.019-.017.026-.027.007-.019.013-.027.019-.017.027-.027l.006-.013c.008-.008.019-.013.027-.02a.422.422 0 00.059-.061c.009-.011.005-.029.013-.04.023-.03.055-.052.08-.08.008-.01.01-.025.019-.034s.029-.011.04-.02.016-.025.027-.034.027-.012.039-.02.008-.01.014-.013l.039-.02a.071.071 0 00.027-.021c.008-.012 0-.03.013-.04s.018 0 .027 0a.107.107 0 00.039-.014c.01-.006.013-.018.02-.026a.411.411 0 01.046-.047c.008-.007.019-.008.027-.014s.025-.028.04-.04.018-.008.026-.014.008-.01.013-.013c.022-.013.046-.02.067-.034s.033-.033.053-.047.027-.011.039-.02.007-.015.014-.02.036-.016.053-.027.016-.019.026-.027.019-.007.027-.014.031-.04.052-.053.037-.007.054-.014.007-.011.013-.014.027-.007.04-.013.007-.011.013-.013c.028-.014.059-.02.086-.035a.249.249 0 00.047-.033c.009-.008.015-.021.026-.027s.045-.017.066-.027c.036-.017.07-.04.107-.054.021-.009.044-.007.066-.014a1.053 1.053 0 00.106-.041c.019-.007.035-.019.053-.027a.269.269 0 01.04-.014c.031-.006.063-.005.093-.013a.224.224 0 00.053-.028c.006 0 .008-.011.014-.013.048-.012.1-.016.146-.028.01 0 .017-.011.026-.013a1.742 1.742 0 01.213-.042 2.023 2.023 0 01.22-.008 1.615 1.615 0 01.22 0 1.011 1.011 0 01.16.039c.009 0 .017.01.027.013.026.006.054.005.08.012.006 0 .007.011.013.013a.5.5 0 00.053.013c.01 0 .018.01.027.014.031.009.063.014.094.025.005 0 .008.01.013.014s.019.007.027.013.025.029.04.039a.534.534 0 00.053.027c.006 0 .009.009.014.013s.019.007.027.013.016.02.026.026.029.005.041.013a.487.487 0 01.06.06l.007.013c.007.008.018.012.026.02.044.041.087.082.128.125.007.008.007.019.013.027s.02.017.027.026.008.019.014.027.01.008.013.013a.086.086 0 01.014.027c.006.017.008.036.013.053l.007.006c.009.007.021.011.027.02a.324.324 0 01.034.067c.007.021.006.045.014.066s.009.008.013.013a.175.175 0 01.014.027c0 .017.007.036.013.053s.021.034.027.053.007.045.014.067.023.033.027.053c.01.039.008.08.014.119s.017.057.021.087c0 .011-.006.022-.006.033s.008.031.007.047-.012.048-.013.073.007.026.007.04a.559.559 0 01-.013.08c0 .014-.011.026-.013.04s.008.013.007.02a.139.139 0 01-.02.047c0 .005-.011.007-.013.013s-.007.036-.013.053a.268.268 0 01-.026.054s-.01.008-.013.013c-.019.04-.033.082-.053.121a.061.061 0 01-.019.02c-.013.008-.028.011-.04.02s0 .01-.007.013c-.016.019-.038.034-.053.054s-.017.048-.032.067-.028.012-.04.02a.132.132 0 00-.033.034c-.014.021-.02.046-.033.067s-.02.016-.026.027-.019.046-.033.066-.028.026-.04.041a.079.079 0 00-.013.026c-.006.018-.007.036-.013.054s-.019.044-.026.067a.176.176 0 00-.006.046.191.191 0 00.007.047c0 .005.007.008.007.013s-.006.008-.007.013a.328.328 0 00-.006.054.158.158 0 00.007.053.534.534 0 00.027.053.171.171 0 00.013.04c.015.02.039.032.054.053a.233.233 0 01.014.04.086.086 0 00.02.033c.015.012.037.015.053.026s.017.02.027.026.046.019.067.033.006.017.014.02c.043.017.089.023.133.039.006 0 .008.01.013.013a.205.205 0 00.054.026c.035.009.071.006.107.013a.784.784 0 01.106.026c.01 0 .017.011.027.013.031.006.063.005.093.012.006 0 .008.012.014.014.03.007.062.007.093.012s.035.011.054.013c.057.006.115.005.173.012.01 0 .017.012.027.013a.9.9 0 00.146.019c.025 0 .048-.014.073-.014s.075.017.114.019c.02 0 .039-.007.06-.007a.381.381 0 01.059.006.724.724 0 00.087.02c.018 0 .035-.013.053-.014a.1.1 0 01.034.006c.018.006.035.016.053.02s.009-.005.013-.007a.336.336 0 01.08-.02c.018 0 .035.013.054.012s.016-.013.026-.013.017.012.027.013.008-.006.013-.007c.031-.006.062-.008.093-.014.005 0 .009-.007.014-.007s.016.014.026.014.035-.013.054-.014a.294.294 0 01.066.006c.005 0 .009.007.013.007s.009-.006.014-.007c.044-.01.088-.022.133-.028.075-.009.151-.007.226-.015.014 0 .026-.012.04-.014.053-.007.107-.007.16-.014.033 0 .066-.017.1-.021.012 0 .022.008.034.007.04-.006.079-.022.119-.028.005 0 .009.007.014.007s.008-.006.013-.007c.031-.006.062-.008.093-.014.014 0 .026-.011.04-.014a.746.746 0 01.093-.014c.007 0 .013.007.02.007a.868.868 0 00.113-.021c.036-.009.07-.028.106-.034.01 0 .017.014.027.013s.016-.016.027-.02a.16.16 0 01.053-.014c.062-.007.125-.005.186-.015a.659.659 0 00.086-.027.065.065 0 01.014 0 .126.126 0 01.026-.007c.01 0 .018.006.027.006l.007-.006a.071.071 0 01.02-.014 1.3 1.3 0 01.126-.034c.057-.012.116-.016.173-.028.01 0 .017-.011.026-.014.026-.006.054-.007.08-.013.01 0 .017-.011.027-.014.026-.007.053-.008.079-.014a.905.905 0 00.093-.027c.006 0 .008-.011.014-.014a.9.9 0 01.106-.041c.044-.012.089-.017.133-.027a.19.19 0 00.04-.014.524.524 0 01.053-.027c.052-.017.107-.025.159-.041.023-.007.044-.019.067-.027.039-.015.08-.026.119-.041a.086.086 0 00.027-.014c.005 0 .007-.011.013-.013.022-.007.045-.007.067-.014.005 0 .007-.011.013-.013s.036-.007.053-.014.007-.011.013-.013c.043-.016.089-.026.133-.041a.175.175 0 00.027-.014c.005 0 .007-.011.013-.013.026-.011.054-.016.079-.027s.053-.029.08-.041.054-.016.08-.027a.735.735 0 00.079-.041c.006 0 .008-.01.014-.013.021-.011.044-.018.066-.027s.035-.02.053-.027.027-.008.04-.014.007-.011.013-.014.036-.006.053-.013.008-.01.013-.014a.228.228 0 00.027-.013c.014-.012.025-.028.04-.04a.066.066 0 01.026-.014c.017-.006.036-.007.053-.014s.008-.01.014-.013.028-.006.039-.014.017-.019.027-.027.018-.008.026-.013.008-.011.014-.014.028-.006.039-.013.016-.02.027-.027c.034-.021.073-.032.106-.054.016-.01.025-.028.04-.04s.018-.008.026-.014.008-.01.013-.013.019-.008.027-.014.016-.019.026-.027.019-.007.027-.013.032-.04.053-.054.073-.031.106-.054.04-.049.066-.067.029 0 .04-.007 0-.014 0-.02a.049.049 0 01.013-.02l.013-.007c.036-.034.07-.072.106-.107l.013-.007a.268.268 0 00.02-.027.206.206 0 01.033-.033c.008-.006.019-.008.027-.014s.016-.019.026-.027.019-.007.026-.013a.387.387 0 00.067-.061c.012-.015.015-.037.026-.053s.016-.007.02-.013.006-.028.013-.041a.307.307 0 01.033-.04c.007-.008.012-.018.02-.027s.037-.034.052-.053.008-.019.013-.027.01-.008.014-.014.006-.019.013-.026c.024-.029.054-.052.079-.081.007-.007.007-.018.013-.026s.019-.018.027-.027l.006-.014c.01-.01.025-.015.033-.027s.006-.028.013-.04.03-.024.04-.04.025-.054.039-.08c0-.006.01-.008.014-.014s.007-.018.013-.026.019-.017.026-.027a.068.068 0 00.013-.027c.006-.026.007-.053.013-.08a.186.186 0 01.013-.04c.008-.018.019-.035.026-.053s.006-.037.013-.054.012-.007.013-.013c.008-.044.006-.089.013-.133 0-.01.011-.017.013-.027a.939.939 0 00.018-.167 1.251 1.251 0 00-.021-.193c0-.009-.012-.016-.014-.026-.008-.053-.008-.107-.014-.16a.372.372 0 00-.014-.066c0-.006-.011-.008-.013-.014-.021-.043-.035-.089-.055-.132a.741.741 0 00-.04-.08c0-.006-.011-.007-.014-.013-.011-.03-.016-.063-.027-.093a.2.2 0 00-.027-.053c-.011-.016-.032-.023-.04-.04a.372.372 0 01-.014-.066c0-.007-.01-.009-.014-.014s-.006-.019-.013-.026-.034-.024-.047-.04-.011-.028-.02-.04-.03-.024-.041-.039-.015-.037-.026-.053-.02-.017-.028-.027-.007-.018-.013-.026-.01-.008-.013-.014-.011-.028-.021-.039-.024-.016-.033-.027-.012-.023-.02-.033-.02-.011-.027-.02a.132.132 0 01-.021-.039c0-.013 0-.029-.007-.04s-.013 0-.019 0a.05.05 0 01-.021-.013c-.011-.014-.014-.034-.026-.047s-.029-.01-.041-.019a.09.09 0 01-.02-.027c-.006-.013-.005-.029-.014-.04a.5.5 0 00-.073-.079c-.018-.016-.044-.022-.061-.04s-.015-.037-.027-.053a.477.477 0 00-.06-.059l-.013-.007c-.008-.007-.013-.018-.021-.026-.061-.063-.127-.121-.187-.185-.009-.009-.011-.024-.021-.033s-.018-.008-.026-.013a.135.135 0 01-.021-.02.18.18 0 00-.02-.033c-.018-.018-.042-.029-.06-.047s-.007-.019-.014-.026-.023-.017-.033-.027a.262.262 0 01-.02-.026.349.349 0 00-.034-.033l-.013-.007a.258.258 0 01-.02-.026c-.026-.027-.056-.051-.081-.079-.006-.008-.008-.019-.013-.027a.067.067 0 00-.021-.02c-.012-.006-.027-.007-.04-.013s-.008-.009-.013-.013-.019-.007-.027-.013a.207.207 0 01-.033-.033c-.006-.008-.008-.019-.014-.027a.09.09 0 00-.02-.019c-.008-.006-.019-.008-.027-.013s-.017-.019-.027-.027l-.013-.006c-.008-.008-.013-.019-.02-.027a.386.386 0 00-.061-.06c-.011-.008-.027-.006-.039-.012a.08.08 0 01-.021-.02.183.183 0 00-.02-.033c-.007-.008-.019-.007-.027-.014a.663.663 0 01-.06-.059c-.008-.008-.012-.019-.02-.027s-.019-.007-.027-.013-.034-.032-.054-.046a.373.373 0 01-.04-.02c-.007-.006-.006-.019-.013-.026a.207.207 0 00-.04-.033.309.309 0 01-.041-.02c-.015-.013-.025-.032-.04-.046s-.018-.008-.027-.013-.008-.01-.013-.013a.577.577 0 01-.06-.033c-.01-.008-.011-.024-.02-.033s-.019-.007-.027-.013-.025-.029-.04-.04-.052-.027-.074-.046-.01-.025-.02-.033a.457.457 0 00-.054-.027c-.005 0-.008-.009-.013-.013s-.019-.006-.027-.013c-.024-.02-.042-.047-.067-.066s-.043-.017-.06-.033-.01-.029-.02-.04-.028-.011-.041-.019a.19.19 0 01-.02-.02c-.008-.01-.01-.025-.02-.033s-.028-.006-.04-.013-.025-.028-.04-.04-.019-.007-.027-.013-.008-.01-.013-.013-.019-.007-.027-.013-.017-.02-.027-.027-.027-.012-.04-.019-.008-.01-.013-.014a.644.644 0 01-.074-.039c-.008-.006-.007-.019-.013-.027a.177.177 0 00-.034-.033c-.012-.007-.029 0-.04-.013s-.034-.037-.054-.052-.037-.016-.053-.027a.226.226 0 01-.027-.026l-.014-.007c-.009-.008-.015-.02-.026-.026s-.037-.012-.054-.02l-.007-.006a.106.106 0 00-.02-.027c-.016-.011-.037-.015-.053-.026s-.017-.019-.027-.026-.028-.011-.04-.02-.025-.029-.04-.04-.029-.005-.04-.013-.034-.038-.054-.053-.027-.007-.04-.013l-.007-.006c0-.009-.008-.019-.013-.027a.1.1 0 00-.02-.02c-.026-.015-.055-.024-.081-.039-.005 0-.008-.01-.013-.013s-.019-.007-.027-.013-.017-.019-.027-.027-.019-.006-.027-.013c-.028-.024-.05-.056-.08-.079-.011-.009-.027-.008-.04-.013a.523.523 0 01-.067-.033c-.011-.007-.016-.02-.027-.026a.484.484 0 00-.053-.02c-.006 0-.008-.01-.014-.013s-.037-.015-.053-.026-.016-.02-.027-.027-.027-.007-.04-.013a.131.131 0 01-.027-.019c-.01-.01-.014-.027-.027-.034s-.036-.006-.053-.013-.008-.009-.013-.013a.223.223 0 01-.027-.013c-.006 0-.008-.01-.014-.013s-.018-.007-.026-.013-.016-.021-.027-.027a.325.325 0 00-.054-.012l-.006-.007c-.008-.011-.01-.026-.021-.033a.379.379 0 00-.066-.026.511.511 0 01-.074-.047c-.009-.006-.01-.021-.02-.026s-.046-.009-.067-.019-.017-.019-.027-.027-.018-.007-.026-.013-.008-.01-.014-.013a.223.223 0 00-.027-.013c-.005 0-.008-.01-.013-.013s-.036-.017-.053-.027-.008-.01-.014-.013a.662.662 0 00-.08-.039c-.013-.006-.028-.006-.04-.013s-.025-.03-.04-.04-.028-.006-.04-.013-.016-.02-.027-.026-.046-.016-.067-.026c-.006 0-.008-.011-.014-.014-.021-.012-.045-.019-.066-.032s-.016-.021-.027-.027c-.034-.018-.072-.029-.107-.046-.006 0-.008-.01-.014-.013-.026-.015-.054-.025-.08-.039-.005 0-.007-.011-.013-.014s-.036-.007-.054-.012a.1.1 0 01-.026-.014c-.006 0-.008-.01-.014-.013a.809.809 0 01-.107-.039c-.026-.016-.04-.049-.067-.066a.441.441 0 00-.08-.026.369.369 0 01-.053-.026c-.006 0-.008-.01-.014-.013a.1.1 0 00-.026-.014c-.018 0-.037-.006-.054-.012s-.008-.011-.013-.014-.027-.007-.04-.013-.008-.009-.014-.013l-.026-.013c-.008-.005-.009-.01-.014-.013a.37.37 0 00-.053-.026c-.013-.006-.028-.007-.04-.013s-.009-.01-.014-.014-.018-.007-.027-.013-.007-.011-.013-.013-.036-.006-.053-.013-.008-.01-.014-.013c-.026-.015-.054-.024-.08-.039s-.016-.021-.027-.027-.037-.01-.053-.019-.025-.025-.04-.033c-.052-.029-.108-.051-.161-.079-.005 0-.008-.01-.013-.013-.031-.015-.064-.023-.094-.04-.011-.006-.017-.019-.027-.026a.09.09 0 00-.026-.013c-.018-.006-.037-.007-.054-.013a.237.237 0 01-.053-.026c-.016-.011-.024-.03-.041-.04-.038-.023-.081-.036-.12-.059-.007 0-.006-.016-.013-.02s-.029-.005-.04-.013c-.029-.019-.053-.045-.081-.066-.008-.006-.018-.008-.026-.013s-.009-.01-.014-.013a.82.82 0 01-.074-.046c-.009-.008-.011-.024-.02-.033s-.019-.007-.026-.014-.034-.037-.054-.052-.043-.019-.06-.033-.011-.024-.021-.033-.019-.007-.026-.013c-.024-.021-.042-.048-.067-.066s-.028-.008-.04-.013l-.007-.007a.227.227 0 00-.014-.027.094.094 0 00-.02-.02.368.368 0 01-.04-.019c-.009-.007-.013-.019-.02-.027a.41.41 0 00-.047-.046c-.012-.009-.027-.012-.04-.02s-.009-.009-.014-.013-.018-.012-.026-.02a.565.565 0 01-.061-.059c-.006-.007-.007-.019-.013-.027s-.03-.024-.041-.039a.524.524 0 00-.027-.053c-.019-.025-.046-.043-.067-.066s-.011-.024-.02-.033-.024-.011-.034-.02-.007-.019-.013-.027a.188.188 0 00-.02-.02c-.011-.007-.025-.009-.034-.019s-.016-.037-.027-.053a.063.063 0 00-.02-.02.219.219 0 00-.027-.013.127.127 0 01-.02-.02c0-.006 0-.014-.006-.02a.388.388 0 00-.034-.046c-.012-.015-.03-.024-.04-.04s-.014-.046-.027-.066-.024-.017-.034-.027a.046.046 0 01-.013-.02c-.009-.019-.013-.04-.021-.059l-.007-.007-.013-.007a.254.254 0 01-.02-.026c-.008-.01-.02-.016-.027-.026s-.017-.037-.027-.054a.3.3 0 00-.034-.046s-.01 0-.013-.006-.012-.037-.02-.054-.01-.008-.014-.013-.017-.036-.027-.053-.01-.008-.013-.013a.087.087 0 01-.014-.027c-.006-.021-.006-.045-.014-.066s-.009-.008-.013-.013-.008-.019-.014-.027-.009-.008-.013-.013-.008-.018-.014-.027-.01-.007-.013-.013a.314.314 0 00-.014-.04c-.006-.01-.02-.016-.026-.026a.545.545 0 01-.041-.08c-.006-.013-.008-.027-.014-.04a.294.294 0 00-.027-.053c0-.005-.011-.007-.013-.013s-.008-.036-.014-.053-.01-.017-.013-.027-.008-.036-.014-.053-.02-.034-.027-.053-.008-.036-.014-.053a.168.168 0 00-.013-.027c0-.005-.012-.007-.014-.013-.009-.028-.01-.059-.02-.086s-.021-.021-.027-.033a.4.4 0 01-.034-.08c-.008-.026-.007-.054-.014-.08s-.02-.044-.027-.066c-.015-.044-.03-.088-.041-.133s-.007-.063-.014-.093c0-.006-.012-.007-.014-.013-.016-.053-.024-.108-.041-.16 0-.006-.012-.007-.013-.013-.011-.059-.017-.151-.029-.226 0-.014-.011-.026-.013-.04-.007-.035-.007-.072-.014-.107 0-.009-.011-.017-.014-.026a.244.244 0 01-.014-.053c-.012-.115-.016-.231-.029-.346 0-.014-.013-.026-.014-.04-.007-.1-.027-.5-.031-.6 0-.009.008-.018.007-.027s-.015-.03-.014-.046a.479.479 0 01.019-.1.219.219 0 01.013-.027.171.171 0 00.013-.054c0-.073-.008-.146-.008-.219v-.22c0-.018.011-.035.013-.053.006-.067 0-.134.011-.2 0-.019.019-.035.02-.054s-.014-.026-.014-.04a.391.391 0 01.02-.08.6.6 0 00.026-.066c0-.018-.007-.036-.007-.054a.24.24 0 01.006-.053c0-.014.011-.026.013-.04.007-.044.005-.089.012-.133a.139.139 0 01.014-.027c.009-.031.015-.063.025-.094 0-.009.011-.017.013-.026.011-.035.016-.072.026-.107a.133.133 0 01.013-.027c0-.005.01-.008.014-.013s.007-.019.013-.027.011-.007.013-.013c.011-.04.015-.081.026-.12a.571.571 0 01.026-.08.334.334 0 01.026-.054s.011-.008.013-.013.006-.037.013-.054.011-.007.013-.013a.476.476 0 00.013-.054c.008-.022.019-.044.026-.066s.016-.072.026-.107a.112.112 0 01.013-.027c0-.005.011-.008.014-.013s.006-.028.012-.04.011-.008.014-.014c.011-.025.015-.054.026-.08 0-.006.01-.008.013-.013.01-.022.016-.046.026-.067s.01-.008.013-.014a.09.09 0 00.013-.026c.006-.018.007-.036.013-.054s.025-.063.04-.093c0-.006.01-.008.013-.014s.015-.045.026-.066.01-.008.013-.014c.019-.039.037-.079.053-.12a.457.457 0 01.012-.053c.006-.012.02-.017.027-.027a.6.6 0 00.039-.081c.007-.017.006-.036.013-.053a.748.748 0 01.039-.08c0-.006.01-.008.014-.013a.165.165 0 00.013-.027c.005-.018.007-.036.013-.054s.01-.017.013-.026a.328.328 0 01.013-.054c.005-.011.019-.016.026-.027a.09.09 0 00.013-.026c.006-.018.008-.036.013-.054a.126.126 0 01.013-.026c0-.006.01-.008.013-.014s.008-.019.014-.027.021-.015.026-.026.006-.037.013-.054.01-.008.013-.013.015-.037.026-.054.021-.015.027-.026.005-.037.013-.054.019-.017.026-.027.007-.018.013-.026.02-.017.027-.027a.336.336 0 00.026-.054c.005-.013.007-.027.013-.04s.011-.007.013-.013c.015-.035.024-.072.039-.107 0-.006.01-.008.013-.014s.008-.018.014-.026.01-.008.013-.014a.951.951 0 01.039-.093c.013-.021.037-.034.053-.054a.075.075 0 00.013-.027c.006-.021.006-.045.013-.066s.01-.008.013-.014.005-.028.013-.04.031-.023.04-.04 0-.047.013-.067.043-.042.059-.067a.475.475 0 00.019-.053c0-.006.01-.008.014-.014s.007-.018.013-.026.019-.017.026-.027.015-.037.026-.054.03-.024.04-.04.007-.027.013-.04.011-.008.013-.013.007-.028.013-.04.01-.009.014-.014.007-.019.013-.027.029-.024.039-.04.028-.06.046-.087c.006-.009.021-.01.027-.02s.011-.045.019-.067l.007-.006a.266.266 0 00.033-.021c.007-.007.008-.018.013-.026s.01-.008.013-.014.007-.019.013-.027a.668.668 0 00.053-.053c.013-.02.013-.047.027-.067s.037-.034.052-.054.02-.041.033-.06l.013-.007a.181.181 0 00.033-.04.6.6 0 00.04-.08c.005-.013.007-.027.013-.04l.006-.007c.011-.007.025-.01.033-.02s.011-.028.02-.04.015-.008.02-.014.011-.023.02-.033.019-.012.026-.02.011-.028.02-.04.032-.035.046-.054.012-.027.02-.04a.251.251 0 01.033-.047c.009-.009.024-.011.033-.02s.007-.019.013-.027a.076.076 0 01.02-.02c.008-.006.018-.008.026-.014a.064.064 0 00.02-.02c.007-.012.005-.029.013-.04s.045-.044.066-.067a.267.267 0 00.02-.027c.007-.009.012-.018.02-.027s.028-.025.039-.04.028-.051.046-.073.025-.011.034-.021.007-.018.013-.026.019-.017.026-.027.007-.019.013-.027.019-.017.027-.027.007-.018.013-.026a.08.08 0 01.02-.021c.008 0 .018-.007.026-.013a.094.094 0 00.02-.02c.006-.008.007-.019.013-.027a.076.076 0 01.02-.02c.012-.008.029-.01.04-.02s.011-.028.019-.041a.1.1 0 01.02-.02.266.266 0 01.04-.013l.007-.007a.477.477 0 01.046-.074c.01-.011.027-.011.04-.02s0-.01.006-.013c.021-.024.046-.043.066-.067.007-.008.007-.019.013-.027a.214.214 0 01.033-.034c.008-.006.019-.007.027-.013s.034-.038.053-.054.024-.01.033-.02.009-.03.019-.04.028-.012.04-.02.008-.01.014-.014.019-.007.026-.013.033-.039.053-.054.027-.007.04-.014a.192.192 0 00.046-.033c.009-.01.01-.025.02-.034s.037-.02.053-.034.015-.025.026-.033.046-.02.067-.034c0 0 0-.009.006-.013a.431.431 0 01.06-.061c.011-.008.028-.005.039-.013.034-.024.061-.056.093-.081.008-.006.019-.007.027-.013s.016-.02.026-.027.018-.008.027-.014.008-.009.013-.013.018-.008.026-.014.016-.02.027-.026.054-.026.079-.041c.006 0 .008-.01.014-.013a.385.385 0 01.053-.028.313.313 0 00.04-.013c.01-.007.016-.02.026-.027s.037-.015.053-.027.014-.026.026-.034.047-.014.067-.027.014-.025.026-.033a.5.5 0 01.067-.027c.005 0 .007-.01.013-.014l.026-.013c.008-.005.008-.01.014-.014l.026-.013c.008-.005.008-.011.013-.014s.036-.007.054-.013a.534.534 0 01.066-.027c.009 0 .018.008.026.006s0-.01 0-.013a.381.381 0 01.04-.021c.006 0 .008-.01.013-.013s.019-.008.027-.014.007-.011.013-.013c.022-.007.045-.007.067-.014.006 0 .008-.01.013-.013s.018-.008.026-.014.008-.01.014-.013a.081.081 0 01.026-.014c.029-.007.058-.006.087-.014.007 0 .012-.01.02-.013s.027-.008.039-.014.008-.01.013-.013.037-.017.054-.027.007-.011.013-.014c.03-.011.063-.016.093-.027s.035-.019.053-.027a.189.189 0 01.04-.014c.026-.006.053-.008.08-.014s.071-.016.106-.027.044-.02.066-.027.036-.008.054-.014.016-.011.026-.014c.057-.011.116-.014.173-.027.019 0 .034-.021.053-.027a.242.242 0 01.053-.014c.044-.007.089-.007.133-.015.027 0 .053-.017.08-.02s.036.007.053.006a.215.215 0 00.054-.014c.009 0 .016-.011.026-.013.04-.008.08-.008.12-.014a.348.348 0 01.053-.014c.073-.006.146-.008.22-.008h.22c.007 0 .013.008.02.007s.021-.014.033-.014.026.014.04.013.039-.013.06-.013.03.011.046.013.018-.007.027-.007.008.007.013.006.031-.012.047-.013a.1.1 0 01.033.006.547.547 0 00.067.026c.053.009.107.005.16.012.01 0 .017.011.027.013.052.011.107.015.16.026a1.26 1.26 0 01.146.039c.006 0 .008.011.014.013s.036.007.053.013.018.01.027.013a.507.507 0 01.053.013.105.105 0 01.027.02c.009.006.016.016.027.019.039.014.082.016.12.033.013.005.015.026.027.033.029.017.064.023.093.039.011.006.018.019.027.026l.014.007c.01.01.014.026.026.033a.325.325 0 00.054.013.1.1 0 01.027.013c.014.012.026.027.04.04l.013.006a.173.173 0 01.027.027l.02.026c.024.025.048.05.074.073.008.006.019.007.027.013a.477.477 0 01.06.059c.007.008.008.019.014.027s.019.016.027.026.019.043.033.06.026.009.034.02a.645.645 0 01.027.066c.006.011.019.017.027.027s.007.018.013.026.02.016.027.027.026.054.041.079c0 .006.01.008.013.013a.43.43 0 01.027.067c.006.017.007.036.014.053a.6.6 0 00.041.08c0 .005.009.007.013.013a.1.1 0 01.014.026c.006.027.006.054.013.08 0 .006.011.008.014.013s.008.027.014.04a.531.531 0 01.027.053c.014.07.016.143.028.213a.635.635 0 00.027.106c0 .007.013.007.014.014.005.05.01.216.015.266 0 .006.013.007.013.013 0 .048.008.169.009.253s0 .169-.005.253c0 .007-.007.013-.006.02s.011.022.013.033-.005.009-.006.014c-.006.048-.006.1-.012.146 0 .019-.012.036-.013.054-.007.093 0 .187-.011.28 0 .01-.012.017-.013.026-.007.04-.007.081-.013.12s-.015.09-.026.134c0 .009-.01.017-.013.026-.014.053-.028.107-.038.161s-.015.107-.026.16c0 .009-.01.017-.013.026-.014.044-.027.089-.039.134s-.016.071-.026.107a.611.611 0 01-.032.1c-.005.01-.023.01-.027.02s0 .031 0 .046a.856.856 0 01-.019.1c0 .006-.01.008-.014.013s-.007.018-.013.027-.011.007-.013.013c-.011.03-.016.063-.026.094 0 .009-.01.017-.013.026-.014.04-.025.081-.039.12 0 .01-.01.018-.013.027-.01.031-.014.063-.026.093s-.038.071-.053.108c-.007.016-.006.036-.013.053s-.009.008-.013.013-.016.037-.026.054-.01.008-.013.013a.112.112 0 00-.013.027c-.006.017-.006.036-.013.053s-.011.008-.013.014c-.016.035-.025.072-.04.107 0 .005-.01.008-.013.013s-.007.027-.013.04-.01.008-.013.014-.007.027-.013.04-.01.008-.013.013-.008.019-.013.027-.011.007-.014.013-.007.036-.012.054a.129.129 0 01-.013.026.546.546 0 00-.047.061c-.01.018-.009.042-.019.06s-.028.025-.04.04a.228.228 0 00-.013.027s-.01.007-.013.013c-.013.026-.018.055-.033.08s-.033.034-.046.054-.016.036-.026.053-.01.008-.013.014-.017.036-.027.053-.01.008-.013.014-.005.028-.013.04-.029.025-.04.04a.3.3 0 00-.026.054.179.179 0 01-.013.039c-.014.021-.039.033-.053.054a.486.486 0 00-.026.067l-.007.007-.013.006c-.007.008-.012.019-.02.027s-.037.034-.052.054-.008.018-.014.027-.009.008-.013.013 0 .014-.006.02-.019.022-.027.034a.422.422 0 01-.026.046s-.01 0-.013.007a.206.206 0 00-.033.04c-.007.013 0 .03-.013.04-.04.049-.092.087-.132.135-.013.015-.015.037-.027.053a.133.133 0 01-.033.034c-.01.008-.024.011-.033.02s-.007.019-.013.027-.028.025-.039.04-.008.018-.014.027-.01.007-.013.013-.007.027-.013.04l-.006.007c-.013.006-.028.006-.04.013a.058.058 0 00-.02.021c-.006.008-.007.019-.013.026a.213.213 0 01-.033.034c-.01.008-.024.011-.033.02s-.007.019-.014.027a.339.339 0 01-.046.047l-.013.007c-.008.007-.012.018-.02.026a.265.265 0 01-.033.034c-.01.008-.024.011-.033.02s-.007.019-.013.027a.1.1 0 01-.02.02c-.008.006-.019.007-.026.014s-.024.033-.04.046-.028.012-.04.021a.4.4 0 00-.039.033.276.276 0 00-.027.021c-.027.025-.051.055-.079.08-.008.007-.019.008-.027.014s-.015.021-.026.026a.347.347 0 01-.053.014l-.007.007c-.005.008-.007.019-.013.027s-.011.017-.02.02c-.043.013-.09.015-.133.027-.019.006-.034.022-.053.027-.035.009-.072.006-.106.015-.015 0-.026.017-.04.02s-.018-.007-.027-.006c-.047 0-.093.007-.14.007s-.093 0-.14-.005c-.014 0-.026-.011-.04-.013s-.054-.006-.08-.013a.378.378 0 01-.066-.026c-.006 0-.008-.011-.014-.013s-.027-.007-.04-.013-.008-.011-.013-.014-.028-.007-.041-.013a.456.456 0 01-.08-.039c-.03-.023-.053-.054-.08-.079l-.014-.007a.686.686 0 01-.067-.086.6.6 0 01-.02-.06c0-.005-.011-.007-.014-.013a.51.51 0 01-.04-.093.85.85 0 01-.028-.133c0-.005.007-.008.007-.013a.266.266 0 01-.007-.027c0-.007.008-.013.006-.02s-.017-.03-.02-.046a1.8 1.8 0 01-.022-.193.2.2 0 01.007-.06c.006-.028.022-.052.026-.08.009-.08.005-.16.011-.24s.015-.167.025-.227c0-.006.01-.008.013-.013s.008-.019.013-.027.011-.008.014-.013c.01-.026.015-.055.026-.08 0-.006.01-.008.013-.014s.016-.036.026-.053.01-.009.013-.014a.067.067 0 00.013-.027c.006-.021.007-.044.013-.066a.085.085 0 01.013-.027c.012-.015.032-.023.04-.04a.92.92 0 00.026-.094c0-.005.01-.008.013-.013a.251.251 0 01.02-.04c.009-.011.026-.014.033-.027a.472.472 0 00.013-.067c0-.006.01-.008.013-.013s.01-.037.019-.054.021-.015.027-.027.011-.045.019-.066c0-.006.01-.008.013-.014.015-.025.025-.054.04-.08 0-.005.011-.007.013-.013s.005-.037.013-.054.02-.016.026-.026.017-.037.027-.054.011-.007.013-.013c.007-.026.005-.054.013-.08a.192.192 0 01.026-.054c.007-.01.021-.015.026-.027s.015-.054.026-.08c0-.006.01-.008.013-.013s.017-.037.027-.054.01-.008.013-.013.012-.036.019-.054.021-.045.033-.066c0-.006.01-.008.013-.014a.375.375 0 00.027-.053.26.26 0 01.006-.027.433.433 0 00.026-.047c.014-.041.019-.085.033-.127 0-.006.011-.007.013-.013a.612.612 0 00.026-.093c.007-.036.005-.072.012-.107 0-.006.01-.008.014-.013a.075.075 0 00.013-.027 1.3 1.3 0 00.005-.153c0-.052 0-.1-.008-.153a.434.434 0 00-.014-.08.534.534 0 00-.027-.08c0-.006-.011-.008-.013-.013a.454.454 0 00-.014-.053c-.01-.017-.028-.026-.04-.04l-.007-.013a.116.116 0 00-.027-.027.379.379 0 00-.067-.033c-.03-.011-.063-.016-.093-.026-.01 0-.017-.011-.027-.013-.035-.006-.071-.006-.106-.012-.005 0-.009-.007-.014-.007s-.008.006-.013.007c-.04.006-.081.007-.12.014a.754.754 0 00-.106.028c-.006 0-.007.012-.014.013-.056.013-.115.018-.172.028a.255.255 0 00-.054.014c-.005 0-.008.01-.013.013s-.018.008-.026.014-.008.01-.014.013-.027.012-.039.021l-.007.013c-.008.01-.019.017-.026.027s-.012.023-.02.033l-.013.007a.276.276 0 00-.02.027.257.257 0 01-.033.033c-.01.008-.024.011-.033.02s-.007.019-.013.027a.419.419 0 01-.047.047l-.013.007c-.008.008-.012.018-.02.027a.171.171 0 01-.033.033c-.012.009-.028.012-.04.021a.124.124 0 00-.019.026c-.006.009-.008.019-.013.027a.094.094 0 01-.02.02c-.008.006-.019.008-.027.014a.34.34 0 00-.026.027l-.013.006a.341.341 0 00-.027.027.268.268 0 01-.02.027c-.008.01-.018.017-.026.027s-.011.024-.02.033-.051.038-.073.061c-.007.007-.007.018-.013.026s-.01.009-.013.014a.506.506 0 01-.033.06c-.006.008-.018.008-.026.014a.064.064 0 00-.02.02c-.008.01-.01.025-.02.033s-.028.011-.04.021a.083.083 0 00-.019.026c-.006.009-.007.019-.014.027s-.036.035-.052.054-.011.024-.02.033-.024.011-.033.02-.007.019-.013.027-.019.017-.027.027l-.006.013c-.015.015-.033.025-.047.041s0 .014-.006.02a.494.494 0 01-.033.047c-.019.023-.042.043-.06.067s-.01.028-.019.04-.023.017-.033.027a.181.181 0 00-.033.04.262.262 0 00-.013.04l-.007.007c-.013.007-.027.012-.04.02a.04.04 0 00-.013.013c-.012.022-.02.046-.033.067s-.009.008-.013.014-.007.018-.013.026-.019.017-.027.027-.018.042-.032.06-.019.008-.027.014a.076.076 0 00-.02.02c-.009.017-.009.037-.019.053s-.019.013-.027.021a.206.206 0 00-.033.033c-.011.017-.014.038-.026.054s-.038.033-.053.053-.015.037-.026.054-.019.017-.026.027-.008.018-.014.026-.01.008-.013.014-.006.028-.013.04-.018.017-.026.027l-.007.013c-.01.01-.026.015-.033.027s0 .038-.013.053-.048.042-.066.067-.009.038-.019.054-.026.015-.033.027a.671.671 0 00-.027.067c0 .005-.01.008-.013.013s-.011.028-.02.04-.019.017-.026.027a.188.188 0 00-.02.04c-.006.017-.006.036-.013.053s-.009.008-.013.014-.007.019-.013.027a.51.51 0 00-.04.04c-.007.012-.007.027-.013.04a.37.37 0 01-.026.053c0 .006-.01.008-.013.014-.019.039-.033.081-.052.12 0 .006-.011.008-.014.014s-.005.027-.013.039-.021.016-.026.027a.47.47 0 00-.013.054.126.126 0 01-.013.026c0 .006-.011.008-.013.014-.018.041-.028.086-.046.127-.006.014-.019.025-.026.04a1.22 1.22 0 00-.046.113c-.007.022-.005.046-.013.067s-.027.053-.039.08-.007.028-.013.04-.011.008-.013.014c-.007.022 0 .045-.013.067s-.041.068-.053.107-.014.1-.025.146c0 .01-.01.017-.013.027-.01.035-.016.072-.026.107 0 .009-.01.017-.013.026a.351.351 0 00-.013.054c-.005.031-.006.062-.013.093s-.02.062-.026.094 0 .08-.012.12c0 .006-.012.007-.013.013-.008.053-.006.107-.012.16 0 .034-.018.066-.02.1 0 .014.014.026.014.04s-.013.021-.013.033.012.017.013.027-.006.008-.006.013q-.006.06-.006.12c0 .04 0 .08.008.12 0 .005.007.008.007.013s-.012.022-.013.033.006.014.006.02c.007.071.007.143.015.213s.017.116.028.173c.007.036.021.071.028.107.012.066.015.133.028.2 0 .006.01.008.013.014s.016.036.027.052.022.016.027.027.006.037.014.053.02.016.027.027.016.036.027.053.01.007.013.013.008.018.014.026.01.008.013.013.008.019.014.027.02.016.027.027c.018.029.027.064.047.092s.033.025.047.04.007.019.013.027.019.016.027.026l.007.013c.01.01.026.015.033.027s.007.036.014.053a.064.064 0 00.02.02c.008.005.019.007.027.013a.073.073 0 01.02.019c.008.013.012.028.02.04l.014.007a.291.291 0 01.047.046c.008.012.005.029.013.04a.249.249 0 00.047.039c.009.008.019.013.027.02a.517.517 0 01.047.047c.006.007.007.019.014.026a.484.484 0 00.06.06c.01.008.024.01.033.019s.012.024.021.033.018.008.026.014a.1.1 0 01.021.019c.005.008.006.02.013.027a1.507 1.507 0 00.114.112c.007.007.019.007.027.013s.017.024.027.033a.267.267 0 00.027.02c.011.011.023.021.033.033l.007.013c.014.015.033.025.047.04s.007.019.013.027a.153.153 0 00.034.033c.012.007.028.005.04.013a.148.148 0 01.033.033l.007.013a.409.409 0 00.04.033c.024.017.051.029.074.046 0 0 0 .011.007.013s.029.005.04.013 0 .014 0 .02a.054.054 0 00.014.027.064.064 0 00.026.013c.018.006.036.007.054.013l.006.006a.227.227 0 00.014.027c.012.015.028.026.04.04l.007.013c.008.008.018.012.027.02s.016.02.027.026.055.023.08.04.017.023.027.033a.319.319 0 00.04.033c.008.005.018.007.027.013s.008.01.013.013.036.016.054.026.008.01.013.013.019.007.027.013.017.019.026.027a.275.275 0 01.034.02c.009.009.009.026.02.033s.036.006.054.013.008.01.013.013.028.011.04.02a.324.324 0 01.027.026 1.009 1.009 0 00.094.079c.016.011.037.01.053.02s.017.019.027.026.019.008.027.013.008.01.013.013.019.007.027.014.025.028.04.039.019.007.027.013.015.022.027.027.046 0 .067.013.016.019.026.026.019.008.027.013.008.011.013.013.028.007.04.013.009.01.014.014a.29.29 0 01.04.019c.011.009.015.026.027.033a.492.492 0 00.067.026s.008.011.013.014.028.005.04.013.016.02.027.026.027.007.04.013.008.01.013.013.019.008.027.013.008.012.014.014a.459.459 0 01.053.013c.011.005.016.02.027.026s.028.006.04.013.042.039.067.053.036.006.053.013.008.01.014.013.037.015.053.026.024.031.04.04.037.006.054.013.008.01.013.013.037.016.054.026.008.011.013.013.028.007.04.013.008.011.014.014c.025.012.054.019.08.032s.021.02.033.027.041.011.06.019.008.011.014.013.045.016.067.027c.005 0 .007.01.013.013.021.009.045.01.067.019.006 0 .008.01.013.013.022.013.045.021.067.033.005 0 .008.011.013.013.022.011.046.016.067.027.006 0 .008.01.014.013.052.024.109.038.16.065.017.009.026.028.04.04s.019.007.027.013.008.011.013.013.036.007.054.013l.006.007c.008.01.01.025.021.033s.045.015.066.026a.434.434 0 01.074.046c.009.007.011.021.02.026s.046.015.067.027.025.024.04.032.046.016.067.027.008.009.014.013.018.007.026.013.017.02.027.026a.341.341 0 00.054.027.374.374 0 01.04.013.214.214 0 01.046.033s0 .01.007.013.037.01.054.019.017.019.027.027.019.007.026.013.025.029.041.04.036.015.053.026.026.024.04.033a.654.654 0 01.074.039c.011.01.009.031.02.04a.381.381 0 00.067.033c.005 0 .008.01.013.013a.223.223 0 01.027.013c.01.008.017.019.027.027s.019.007.027.013.026.027.04.039l.013.007c.01.01.015.025.027.033s.047.013.067.026.025.028.04.04.014 0 .02.006c.035.025.066.055.1.079.012.009.027.012.04.02s.008.01.013.013.019.007.027.013.017.02.027.027.028.01.04.019.016.024.027.034.019.006.027.013c.028.024.05.056.08.079a.523.523 0 00.053.026c.006 0 .009.01.014.013s.019.008.027.014a.089.089 0 01.02.019c.008.011.01.026.02.033s.029 0 .04.014c.053.044.1.1.148.145.011.009.028.006.04.013a.075.075 0 01.02.02c.008.01.01.024.02.033s.028.011.04.019 0 .01.007.014a1.507 1.507 0 00.114.112c.018.015.042.02.06.033s0 .01.007.013.019.012.027.02.017.023.027.033.033.025.047.04.007.018.013.026a.1.1 0 00.02.02c.008.006.02.007.027.013.024.022.042.051.067.073s.042.024.06.039l.007.014c.01.01.024.015.034.026s.012.023.02.033l.013.007c.011.012.015.029.027.039s.043.024.06.04.008.019.014.027a.517.517 0 00.047.046s.011 0 .013.006.005.029.014.04.014 0 .02 0a.062.062 0 01.027.013c.007.007.007.019.013.027.025.028.056.051.081.079.006.007.007.018.013.026s.019.017.027.027.007.019.014.027c.038.041.082.077.12.118.007.008.008.019.014.027a.342.342 0 00.047.046s.011 0 .013.007c.014.021.021.045.034.066s.019.017.027.027.007.018.014.026.028.025.04.04.007.019.013.026.03.024.04.04.006.029.014.04.049.04.067.066a.649.649 0 01.027.066c.007.011.02.017.027.027s.008.018.014.026.01.008.013.013.008.019.014.027.019.016.027.026.007.019.013.027.02.016.027.026.015.037.027.053.039.033.054.053.006.028.013.04.019.017.027.026.008.019.014.027.02.016.027.026.016.046.027.067c0 .005.01.008.013.013s.017.036.027.053.011.008.014.013c.01.022.016.046.027.067 0 .005.01.008.013.013s.017.036.027.053.011.008.014.013.007.027.013.04a.321.321 0 00.034.06c.007.009.022.01.027.02.015.028.02.063.034.093 0 .005.009.007.013.013s.008.018.014.026.01.008.013.014c.011.021.015.045.027.066s.021.016.027.026a.547.547 0 01.041.093c.007.022.005.046.013.067.019.046.049.087.068.133.012.029.016.062.028.092a.324.324 0 00.026.053c0 .006.012.008.014.014.012.034.016.071.027.106a.269.269 0 00.028.053c0 .005.01.008.013.013a.47.47 0 01.027.08c.008.035 0 .072.014.106s.043.087.055.133c.02.079.025.16.041.24 0 .009.01.017.014.026a1.064 1.064 0 01.041.12c.008.035.007.071.014.106a.792.792 0 00.027.107c0 .006.011.007.014.013a.134.134 0 01.013.04c.012.07.018.142.029.212 0 .005.007.009.006.014s-.013.017-.013.026a.584.584 0 00.021.067c.019.1.036.194.049.293 0 .013-.007.026-.007.039.005.078.014.149.017.22zm28.618-9.29c.087-.424-.89-.468-.886-.047.002.336.812.417.886.047zm1.965.1c.133.64-.363 1.041-.815 1.331-1.324.84-2.471.4-3.409-.706a2.6 2.6 0 01.135-2.418 2.061 2.061 0 01.615-.478 2.44 2.44 0 012.032.044 2.606 2.606 0 011.325 1.795c.024.124.088.293.115.43zm-26.238 3.438c-.014 0-.027-.007-.04-.007a.167.167 0 00-.04.007c-.006 0-.008.011-.013.014s-.028.007-.04.013-.008.011-.013.014c-.026.015-.055.025-.08.04a.08.08 0 00-.02.021c-.006.008-.007.018-.013.026s-.019.017-.026.027a.087.087 0 00-.014.027.429.429 0 00-.019.1.264.264 0 00.021.086c0 .006.01.008.013.014s.008.018.014.026a.186.186 0 00.047.046.444.444 0 00.127.059c.015 0 .03-.013.046-.013s.026.011.04.013a.027.027 0 00.014-.007c.009-.008.015-.02.026-.027.247-.152.424-.485-.03-.481zm-.02 2.65c-.016-.012-.023-.035-.04-.046s-.046-.014-.067-.026-.025-.024-.04-.033a.155.155 0 00-.04-.013c-.027-.006-.054-.006-.08-.013-.006 0-.008-.011-.014-.013s-.036-.006-.053-.013-.008-.01-.014-.013a.091.091 0 00-.026-.013c-.018-.006-.037-.006-.054-.013s-.007-.012-.013-.013c-.035-.008-.072-.005-.107-.013-.006 0-.007-.011-.013-.013-.062-.024-.126-.041-.187-.065-.006 0-.008-.01-.014-.013a1.869 1.869 0 01-.906-1 2.822 2.822 0 01.1-2.265c.147-.351.553-.545.793-.832a.676.676 0 00.053-.054.533.533 0 00.026-.066c0-.006.01-.008.013-.014s.012-.027.02-.04.009-.008.013-.013.018-.016.02-.027a.419.419 0 00.006-.087.247.247 0 00-.007-.086.13.13 0 00-.047-.046c-.008-.007-.019-.008-.027-.014s-.015-.023-.027-.026c-.352-.1-1.182-.044-1.416.311a2.853 2.853 0 00-.432 1.015 15.7 15.7 0 00-.165 3.624c.006.791.655 3.929 2 3.414.006 0 .008-.011.014-.013a.708.708 0 00.079-.021c.013-.006.015-.025.027-.033a.539.539 0 01.066-.027c.006 0 .008-.011.013-.014.021-.011.045-.016.067-.027.005 0 .007-.01.013-.013s.036-.017.053-.027.008-.01.013-.014a.332.332 0 00.053-.027c.029-.024.052-.055.08-.08l.013-.007c.014-.015.024-.033.039-.047s.019-.007.027-.014.016-.023.026-.033.025-.015.033-.027.022-.056.04-.08a.422.422 0 01.059-.061s.011 0 .013-.006.011-.029.02-.04.039-.033.053-.054c.536-.818.853-2.146-.056-2.818zm28.15 8.728a4.6 4.6 0 01.025-1.865c.369-2.312.786-4.711 1.1-7.054.127-.96-.7.376-.848.473-.794.517-1.17.492-1.9-.665-.249-.391-.681-.607-.906-.033-.3.733-1.015 1.542-1.852.813-.31-.265-.866-1.272-1.411-.761-1.045 1-1.921 2.792-3.832 1.434-.252-.178-.458-.593-.714-.267a8.763 8.763 0 01-.8.725c-.587.6-2.214 1.519-3.015 1.175-.41-.175-.624-.669-1.093-.2a1.319 1.319 0 01-.744.346c-1.9.417-2.825-4.69-3.554-.579a1.912 1.912 0 01-.874 1.4c-.45.177-.923-.675-1.054-1.024-.11-.3-.552-2.705-1.118-1.6-.5 1.009-.2 2.158-.6 3.175a.845.845 0 01-1.463.251 3.511 3.511 0 01-.471-2.287c.026-.626-.161-1.943-.9-2.131-.418-.1-.054.879-.045 1.106.091 1.941-.391 3.4-2.03 4.424-.011.006-.016.02-.027.026s-.054.021-.079.034c-.006 0-.008.011-.013.014-.022.012-.044.024-.067.034s-.036.007-.053.013a.094.094 0 00-.026.014c-.006 0-.008.01-.014.013a.587.587 0 01-.106.054c-.038.014-.08.016-.119.028-.006 0-.008.01-.014.013a.263.263 0 01-.053.027c-.026.011-.054.016-.08.028-.005 0-.007.01-.013.013s-.027.007-.04.014-.007.01-.013.013a.378.378 0 01-.066.027c-1.507.463-2.559-1.535-2.918-2.714a19.087 19.087 0 01-.676-3.1 15.717 15.717 0 01-.058-4.048c.159-1.311.872-3.072 2.3-3.394 2.56-.577 3.622 1.914 3.845 3.813.127 1.074.6 1 1.351 1.555a1.878 1.878 0 01.678.694c.261.7.6-.514.7-.7a2.72 2.72 0 01.415-.616c1.392-1.413 1.992 1.333 2.592 1.079.65-.28.608-.957 1.122-1.327 1.864-1.373 1.918 2.778 3.355 3.343.67.278.79-1.352.9-1.731.515-1.767 1.432-4.2 3.325-4.84a3.125 3.125 0 013.3 1.006c.444.686.637 1.443-.112 1.9-1.108.69-1.311-.424-2.176-.542a1.078 1.078 0 00-.744.152c-.713.415-2.122 2.8-1.578 3.548.363.5.822.151 1.218-.1a5.275 5.275 0 001.194-1.428c.285-.363.929-1.072 1.431-1.076 1.168-.009.3 2.022 1.174 2.015l2.211-2.607c.819-.469 1.045-.174 1.4.542a1.384 1.384 0 00.43.456c1.125.694.839-2.406 2.371-1.7.654.289 1.263 1.768 1.592 1.752a17.466 17.466 0 001.326-2.474c.529-.812 1.133-.81 1.44.2a12.631 12.631 0 01.232 4.22c-.122 2.89-.273 6.222.549 9.066.205.677 1.023 1.6.671 2.419-.283.658-1.46.251-1.9-.032a4.26 4.26 0 01-2.078-2.554zm16.352-14.284a2.593 2.593 0 01-.8 2.111c-.073.075-.124.181-.2.255-.4.409-.8.83-1.23 1.2a14.872 14.872 0 01-1.721 1.319c-.9.543-2.4.994-3.1-.117-.17-.27-.722-.673-1.014-.311a5.994 5.994 0 01-1.49 1.15 2.1 2.1 0 01-2.265-.063c-1.473-1.164-1.555-4.337-.424-5.77a10.086 10.086 0 011.155-1.4c.122-.105.225-.226.344-.335.852-.788 2.37-1.862 3.547-1.2 1.253.678.655 2.119-.541 2.415-.093.023-.173.033-.266.055a3.982 3.982 0 00-2.512 1.531c-.386.543-.924 1.545-.3 2.1.768.685 1.513-.566 1.756-1.152.305-.748 1.213-2.278 2.219-1.495.578.44.292.96.511 1.514.1.255.256.586.532.682 1.478.513 2-1.648 2.624-2.531.556-.785 1.27-1.4 2.29-1.036.611.213.705.5.885 1.076z" class="prefix__cls-3" data-name="Path 10269"/>
    </g>
</svg>
