<svg xmlns="http://www.w3.org/2000/svg" width="602.661" height="69.118" viewBox="0 0 602.661 69.118"><defs><style>.a{opacity:0.29;}.b{fill:#58595b;}</style></defs><g transform="translate(-589.339 -996)"><g class="a" transform="translate(767.956 847.078)"><path class="b" d="M207.628,164.846a7.962,7.962,0,1,1,7.962-7.962A7.971,7.971,0,0,1,207.628,164.846Zm0-15.222a7.261,7.261,0,1,0,7.261,7.26A7.269,7.269,0,0,0,207.628,149.624Z"/><path class="b" d="M207.628,167.829a10.945,10.945,0,0,1-7.74-18.684.3.3,0,0,1,.258-.1.347.347,0,0,1,.252.117l.921,1.036a.351.351,0,0,1-.525.466l-.669-.753a10.244,10.244,0,0,0,14.489,14.467l-.7-.678a.35.35,0,1,1,.486-.505l.965.93a.35.35,0,0,1,.005.5A10.878,10.878,0,0,1,207.628,167.829Z"/><path class="b" d="M213.676,157.4a6.161,6.161,0,0,1-4.8-2.166,6.812,6.812,0,0,1-1.574-6.081.351.351,0,0,1,.658.242,6.156,6.156,0,0,0,1.447,5.381,5.647,5.647,0,0,0,5.765,1.766.351.351,0,0,1,.141.687A8.193,8.193,0,0,1,213.676,157.4Z"/><path class="b" d="M210.02,164.542a.352.352,0,0,1-.35-.325c-.4-5.529-5.774-9.167-9.217-8.934a.358.358,0,0,1-.374-.325.35.35,0,0,1,.325-.374c3.7-.265,9.531,3.648,9.966,9.582a.351.351,0,0,1-.325.375Z"/><path class="b" d="M207.706,170.165a.351.351,0,0,1-.351-.351v-2.335a.351.351,0,1,1,.7,0v2.335A.351.351,0,0,1,207.706,170.165Z"/><path class="b" d="M213.7,173.612H201.63a.351.351,0,0,1-.35-.351c0-.921.394-2.009,2.215-2.121a2.121,2.121,0,0,1,2.1-1.515h4.089c1.581,0,2.029.781,2.13,1.419a2.349,2.349,0,0,1,2.234,2.2.352.352,0,0,1-.35.369Zm-11.69-.7h11.268a1.674,1.674,0,0,0-1.786-1.181.351.351,0,0,1-.351-.35c0-.491-.165-1.054-1.455-1.054h-4.089c-.577,0-1.43.367-1.43,1.154a.351.351,0,0,1-.351.351C202.69,171.831,202.13,172.158,202.007,172.911Z"/><path class="b" d="M91.24,208.873h-.007a.416.416,0,0,1-.294-.128l-3.44-3.591a.416.416,0,0,1,.007-.583l15.957-15.807a.436.436,0,0,1,.156-.1l5.136-1.8a.415.415,0,0,1,.537.5l-1.5,5.386a.409.409,0,0,1-.109.186L91.53,208.755A.414.414,0,0,1,91.24,208.873Zm-2.858-4,2.867,2.992,15.776-15.436,1.254-4.512-4.3,1.5Z"/><path class="b" d="M107.4,193.065a.441.441,0,0,1-.062,0c-.108-.017-2.671-.44-3.967-3.854a.416.416,0,0,1,.778-.295c1.115,2.938,3.226,3.313,3.315,3.327a.416.416,0,0,1-.064.826Z"/><path class="b" d="M93.582,206.379a.414.414,0,0,1-.3-.131L89.962,202.7a.416.416,0,1,1,.607-.568l3.316,3.551a.415.415,0,0,1-.3.7Z"/><path class="b" d="M116.742,216.04H88.283a.416.416,0,0,1-.292-.712l28.459-28.053a.416.416,0,0,1,.708.3v28.053A.416.416,0,0,1,116.742,216.04ZM89.3,215.208h27.031V188.564Zm22.615-4.327H101.155a.415.415,0,0,1-.292-.711l10.756-10.6a.416.416,0,0,1,.708.3v10.6A.415.415,0,0,1,111.911,210.881Zm-9.742-.831H111.5v-9.193Z"/><path class="b" d="M115.457,194.141h-.87a.416.416,0,1,1,0-.831h.87a.416.416,0,1,1,0,.831Z"/><path class="b" d="M115.457,196.534h-1.876a.415.415,0,1,1,0-.831h1.876a.415.415,0,1,1,0,.831Z"/><path class="b" d="M115.457,198.709h-.87a.415.415,0,1,1,0-.831h.87a.415.415,0,1,1,0,.831Z"/><path class="b" d="M115.457,201.1h-1.876a.416.416,0,1,1,0-.831h1.876a.416.416,0,1,1,0,.831Z"/><path class="b" d="M115.457,203.277h-.87a.415.415,0,1,1,0-.831h.87a.415.415,0,1,1,0,.831Z"/><path class="b" d="M115.457,205.669h-1.876a.416.416,0,1,1,0-.831h1.876a.416.416,0,1,1,0,.831Z"/><path class="b" d="M115.457,207.845h-.87a.415.415,0,1,1,0-.831h.87a.415.415,0,1,1,0,.831Z"/><path class="b" d="M115.457,210.237h-1.876a.415.415,0,1,1,0-.831h1.876a.415.415,0,1,1,0,.831Z"/><path class="b" d="M115.457,212.412h-.87a.416.416,0,1,1,0-.831h.87a.416.416,0,1,1,0,.831Z"/><path class="b" d="M229.462,192.73a.61.61,0,0,1-.184-.029l-21.171-6.711a.611.611,0,0,1,0-1.164l21.171-6.711a.611.611,0,0,1,.369,0l21.17,6.711a.611.611,0,0,1,0,1.164l-21.17,6.711A.616.616,0,0,1,229.462,192.73Zm-19.15-7.322,19.15,6.071,19.15-6.071-19.15-6.071Z"/><path class="b" d="M229.681,207.08c-10.2,0-13.792-4.024-13.94-4.2a.615.615,0,0,1-.148-.4v-14.4a.61.61,0,1,1,1.221,0v14.152c.746.7,4.386,3.624,12.867,3.624s11.988-2.923,12.7-3.616v-14.16a.611.611,0,1,1,1.221,0v14.4a.613.613,0,0,1-.139.388C243.324,203.045,239.892,207.08,229.681,207.08Z"/><path class="b" d="M210.609,205.154a.61.61,0,0,1-.61-.611V186.556a.611.611,0,1,1,1.221,0v17.987A.61.61,0,0,1,210.609,205.154Z"/><path class="b" d="M210.485,209.317A2.712,2.712,0,1,1,213.2,206.6,2.714,2.714,0,0,1,210.485,209.317Zm0-4.2a1.49,1.49,0,1,0,1.49,1.49A1.492,1.492,0,0,0,210.485,205.115Z"/><path class="b" d="M213.18,215.82h-5.035a.612.612,0,0,1-.611-.611,10.2,10.2,0,0,1,1.629-4.848.61.61,0,0,1,1.018.674A9.869,9.869,0,0,0,208.8,214.6h3.669a8.518,8.518,0,0,0-1.29-3.494.611.611,0,0,1,.912-.812c1.236,1.388,1.655,4.492,1.7,4.841a.611.611,0,0,1-.606.687Z"/><path class="b" d="M289.81,212.153h-26.7a.54.54,0,0,1-.54-.54V175.495a.54.54,0,0,1,.54-.54h26.7a.54.54,0,0,1,.54.54v36.118A.541.541,0,0,1,289.81,212.153Zm-26.16-1.08h25.62V176.035H263.65Z"/><path class="b" d="M286.141,183.555H266.925a.54.54,0,0,1-.54-.54V178.7a.54.54,0,0,1,.54-.54h19.216a.541.541,0,0,1,.54.54v4.313A.541.541,0,0,1,286.141,183.555Zm-18.676-1.08H285.6v-3.233H267.465Z"/><path class="b" d="M286.224,208.631H266.8a.54.54,0,0,1-.54-.54v-18.63a.54.54,0,0,1,.54-.54h19.425a.541.541,0,0,1,.54.54v18.63A.54.54,0,0,1,286.224,208.631Zm-18.885-1.08h18.345V190H267.339Z"/><path class="b" d="M276.449,208.431a.54.54,0,0,1-.54-.54V189.684a.54.54,0,0,1,1.08,0v18.207A.54.54,0,0,1,276.449,208.431Z"/><path class="b" d="M271.7,208.431a.54.54,0,0,1-.54-.54V194.264a.54.54,0,1,1,1.08,0v13.627A.54.54,0,0,1,271.7,208.431Z"/><path class="b" d="M281.421,208.431a.54.54,0,0,1-.54-.54V189.684a.54.54,0,1,1,1.08,0v18.207A.54.54,0,0,1,281.421,208.431Z"/><path class="b" d="M285.89,194.718H266.918a.54.54,0,1,1,0-1.08H285.89a.54.54,0,0,1,0,1.08Z"/><path class="b" d="M285.89,199.432H266.918a.54.54,0,1,1,0-1.08H285.89a.54.54,0,0,1,0,1.08Z"/><path class="b" d="M285.89,204.146H266.918a.54.54,0,0,1,0-1.081H285.89a.54.54,0,0,1,0,1.081Z"/><path class="b" d="M323.08,195.827a.567.567,0,0,1-.071,0l-11.432-1.393a.593.593,0,0,1-.474-.357l-4.644-10.952a.6.6,0,0,1,.077-.594l7.04-9.123a.592.592,0,0,1,.54-.226l9.186,1.12a.593.593,0,0,1-.143,1.177l-8.851-1.079-6.622,8.581,4.375,10.317,10.747,1.311,6.463-8.8-3.231-7.9a.593.593,0,1,1,1.1-.448l3.356,8.211a.593.593,0,0,1-.071.575l-6.865,9.347A.594.594,0,0,1,323.08,195.827Z"/><path class="b" d="M325.4,177.969a2.677,2.677,0,0,1-.332-.02,2.733,2.733,0,1,1,3.043-2.383h0A2.737,2.737,0,0,1,325.4,177.969Zm0-4.281a1.548,1.548,0,1,0,1.54,1.736h0a1.553,1.553,0,0,0-1.54-1.736Zm2.128,1.807h0Z"/><path class="b" d="M311.995,171.861a2.354,2.354,0,0,1-.277-.017,2.281,2.281,0,1,1,2.54-1.989h0A2.285,2.285,0,0,1,311.995,171.861Zm0-3.377a1.1,1.1,0,0,0-.132,2.183,1.1,1.1,0,1,0,.267-2.175A1.251,1.251,0,0,0,311.992,168.484Zm1.678,1.3h0Z"/><path class="b" d="M306.237,203.882a3.069,3.069,0,0,1-.369-.022,3.044,3.044,0,1,1,3.389-2.653h0A3.049,3.049,0,0,1,306.237,203.882Zm0-4.9a1.861,1.861,0,1,0,.227.014A1.934,1.934,0,0,0,306.234,198.98Zm2.435,2.155h0Z"/><path class="b" d="M324.494,211.929a2.456,2.456,0,0,1-.295-.018,2.419,2.419,0,0,1-1.2-4.3,2.418,2.418,0,0,1,3.89,2.2h0A2.422,2.422,0,0,1,324.494,211.929Zm0-3.65a1.232,1.232,0,1,0,.152.009A1.3,1.3,0,0,0,324.49,208.279Zm1.814,1.453h0Z"/><path class="b" d="M346.185,183.194a2.8,2.8,0,0,1-.353-.022,2.9,2.9,0,1,1,3.233-2.531h0A2.907,2.907,0,0,1,346.185,183.194Zm0-4.624a1.722,1.722,0,1,0,.209.013A1.642,1.642,0,0,0,346.182,178.57Zm2.3,2h0Z"/><path class="b" d="M338.839,210.681a3.407,3.407,0,0,1-.4-.024,3.29,3.29,0,1,1,3.662-2.868h0a3.289,3.289,0,0,1-3.258,2.892Zm-.009-5.393a2.1,2.1,0,0,0-.253,4.192,2.105,2.105,0,0,0,2.344-1.834h0a2.1,2.1,0,0,0-1.834-2.343A2.027,2.027,0,0,0,338.83,205.288Z"/><path class="b" d="M340.439,205.508a.593.593,0,0,1-.464-.96l5.259-6.669-4.5-10.079-10.863-1.324a.593.593,0,1,1,.143-1.177l11.2,1.365a.592.592,0,0,1,.47.346l4.78,10.714a.594.594,0,0,1-.076.609l-5.483,6.949A.59.59,0,0,1,340.439,205.508Z"/><path class="b" d="M336.187,207.408a.6.6,0,0,1-.073-.005l-8.666-1.056a.593.593,0,0,1-.474-.358l-4.44-10.525a.593.593,0,0,1,1.092-.461l4.306,10.208,8.325,1.016a.593.593,0,0,1-.07,1.181Z"/><path class="b" d="M341.142,187.845a.584.584,0,0,1-.35-.115.592.592,0,0,1-.129-.828l3.705-5.063a.593.593,0,0,1,.957.7L341.62,187.6A.592.592,0,0,1,341.142,187.845Z"/><path class="b" d="M314.045,174.358a.59.59,0,0,1-.528-.324l-1.271-2.5a.593.593,0,0,1,1.057-.537l1.27,2.5a.592.592,0,0,1-.26.8A.581.581,0,0,1,314.045,174.358Z"/><path class="b" d="M307.613,199.378a.592.592,0,0,1-.459-.967l4.035-4.945a.592.592,0,1,1,.918.749l-4.035,4.945A.589.589,0,0,1,307.613,199.378Z"/><path class="b" d="M325.665,208.47a.593.593,0,0,1-.446-.983l1.854-2.119a.593.593,0,0,1,.893.78l-1.855,2.119A.591.591,0,0,1,325.665,208.47Z"/><path class="b" d="M185.93,189.806h-.043l-11.151-.855a.57.57,0,0,1-.475-.328l-4.687-10.069a.571.571,0,0,1,.051-.57l6.6-9.384a.572.572,0,0,1,.525-.24l11.056,1.112a.572.572,0,0,1,.461.327l3.766,8.091a.571.571,0,0,1-1.036.482l-3.629-7.795-10.4-1.046-6.216,8.84,4.406,9.466,10.5.805,4.823-6.675a.571.571,0,1,1,.926.67l-5.01,6.934A.573.573,0,0,1,185.93,189.806Z"/><path class="b" d="M192.332,182.718a2.637,2.637,0,1,1,1.11-.247h0A2.638,2.638,0,0,1,192.332,182.718Zm.869-.765h0Zm-.874-3.364a1.492,1.492,0,1,0,1.356.862A1.491,1.491,0,0,0,192.327,178.589Z"/><path class="b" d="M190.132,168.426a2.2,2.2,0,0,1-2.07-2.952,2.2,2.2,0,1,1,3,2.747h0A2.2,2.2,0,0,1,190.132,168.426Zm.683-.723h0Zm-.689-2.533a1.057,1.057,0,1,0,.448,2.015h0a1.057,1.057,0,0,0-.448-2.015Z"/><path class="b" d="M161.607,180.385a2.941,2.941,0,1,1,1.237-.276h0A2.918,2.918,0,0,1,161.607,180.385Zm1-.794h0Zm-1-3.936a1.793,1.793,0,1,0,.757,3.418h0a1.794,1.794,0,0,0-.757-3.418Z"/><path class="b" d="M163.813,199.146a2.334,2.334,0,1,1,.983-.219h0A2.32,2.32,0,0,1,163.813,199.146Zm0-3.521a1.188,1.188,0,1,0,.5,2.266h0a1.187,1.187,0,0,0-.094-2.193A1.174,1.174,0,0,0,163.812,195.625Z"/><path class="b" d="M198.792,202.476a2.8,2.8,0,1,1,1.18-.264h0A2.78,2.78,0,0,1,198.792,202.476Zm.939-.782h0Zm-.942-3.679a1.658,1.658,0,1,0,.7,3.161h0a1.658,1.658,0,0,0-.7-3.161Z"/><path class="b" d="M172.859,210.646a3.177,3.177,0,1,1,1.337-.3h0A3.168,3.168,0,0,1,172.859,210.646Zm0-5.2a2.029,2.029,0,1,0,.859,3.869h0a2.029,2.029,0,0,0-.859-3.869Z"/><path class="b" d="M184.187,209.042a.463.463,0,0,1-.063,0l-8.483-.945a.571.571,0,1,1,.127-1.135l8.139.906,5.959-8.82-4.454-9.568a.571.571,0,1,1,1.036-.482l4.591,9.861a.571.571,0,0,1-.045.561l-6.333,9.374A.57.57,0,0,1,184.187,209.042Z"/><path class="b" d="M171.981,205.583a.573.573,0,0,1-.519-.33l-3.553-7.632a.573.573,0,0,1,.051-.571l6.352-9a.572.572,0,0,1,.934.659l-6.161,8.728,3.414,7.333a.571.571,0,0,1-.518.812Z"/><path class="b" d="M196.554,200.12l-.043,0-6.033-.452a.572.572,0,0,1,.085-1.14l6.033.453a.571.571,0,0,1-.042,1.141Z"/><path class="b" d="M187.747,170.611a.572.572,0,0,1-.489-.867l1.4-2.315a.572.572,0,1,1,.978.592l-1.4,2.314A.571.571,0,0,1,187.747,170.611Z"/><path class="b" d="M170.093,178.883a.6.6,0,0,1-.073,0l-6.105-.781a.572.572,0,1,1,.145-1.134l6.1.782a.571.571,0,0,1-.072,1.138Z"/><path class="b" d="M168.428,197.951a.486.486,0,0,1-.093-.008l-2.68-.438a.571.571,0,0,1-.471-.656.563.563,0,0,1,.656-.472l2.68.438a.572.572,0,0,1-.092,1.136Z"/><path class="b" d="M133.307,211.227l-2.723-9.015a4.828,4.828,0,0,0-2-2.328c-.487-.347-4.8-3.53-6.2-8.178-.718-2.377-.2-5.8,1.325-8.732a15.369,15.369,0,0,1,9.5-7.692c9.414-2.847,13.753,4.064,14.629,6.965a15.051,15.051,0,0,1,.479,2.514c.162,1.267.279,2.182.993,2.741.476.373,1.029.748,1.565,1.11,1.354.915,2.129,1.464,2.317,2.084.239.795-.567,1.264-1.214,1.641a4.014,4.014,0,0,0-.734.495c.045.31.122.9.211,1.585.169,1.3.379,2.926.491,3.531.32,1.736-1.014,2.425-2.211,2.83-2.393.81-3.919,1.858-3.711,2.549l1.3,4.3-1.156.349-1.3-4.3c-.572-1.893,2.12-3.242,4.48-4.041,1.582-.536,1.486-1.052,1.41-1.467-.117-.637-.33-2.276-.5-3.594-.1-.737-.177-1.365-.219-1.641-.121-.792.684-1.262,1.332-1.639a6.119,6.119,0,0,0,.582-.367,13.246,13.246,0,0,0-1.753-1.314c-.553-.374-1.125-.76-1.634-1.158-1.1-.865-1.27-2.164-1.446-3.539a13.916,13.916,0,0,0-.437-2.319c-.028-.093-2.92-9.237-13.124-6.158a14.186,14.186,0,0,0-8.781,7.093,11.13,11.13,0,0,0-1.239,7.826c1.045,3.464,4.1,6.372,5.748,7.544a5.943,5.943,0,0,1,2.456,2.962l2.722,9.015Z"/><path class="b" d="M145.694,175.949a.6.6,0,0,1-.485-.963l2.559-3.46a.6.6,0,1,1,.97.718l-2.558,3.46A.6.6,0,0,1,145.694,175.949Z"/><path class="b" d="M141.851,173.449a.615.615,0,0,1-.225-.043.605.605,0,0,1-.335-.786l1.436-3.579a.6.6,0,0,1,1.121.45l-1.436,3.579A.6.6,0,0,1,141.851,173.449Z"/><path class="b" d="M136.118,172.264a.68.68,0,0,1-.077-.005.6.6,0,0,1-.523-.676l.492-3.865a.6.6,0,0,1,1.2.152l-.492,3.866A.6.6,0,0,1,136.118,172.264Z"/><path class="b" d="M130.99,173.468a.6.6,0,0,1-.582-.445l-1.066-3.91a.6.6,0,0,1,1.165-.318l1.066,3.911a.6.6,0,0,1-.424.741A.621.621,0,0,1,130.99,173.468Z"/><path class="b" d="M126.265,175.811a.6.6,0,0,1-.471-.227l-2.476-3.084a.6.6,0,1,1,.942-.756l2.475,3.085a.6.6,0,0,1-.47.982Z"/><path class="b" d="M122.166,179.85a.6.6,0,0,1-.356-.117l-3.157-2.307a.6.6,0,1,1,.713-.974l3.156,2.307a.6.6,0,0,1-.356,1.091Z"/><path class="b" d="M119.888,184.427a.589.589,0,0,1-.171-.025l-3.452-1.016a.6.6,0,1,1,.34-1.158l3.453,1.016a.6.6,0,0,1-.17,1.183Z"/><path class="b" d="M133.709,197.31a2.379,2.379,0,0,1-1.633-.834,2.41,2.41,0,0,0-1.427-.8,2.007,2.007,0,0,1-1.783-2.012c-.113-.666-.177-.75-.38-.8-1.214-.273-1.229-1.237-1.238-1.875a2.312,2.312,0,0,0-.417-1.55c-.9-1.148-.393-2.513-.025-3.509a3.234,3.234,0,0,0,.315-1.27c-.2-1.018.642-1.324,1.049-1.471.488-.176.635-.23.58-.736-.164-1.514,1.068-1.827,1.8-2.013.617-.157,1.006-.276,1.194-.606a2.147,2.147,0,0,1,2.367-1.014,4.237,4.237,0,0,0,1.558-.116,2.432,2.432,0,0,1,2.211.317,1.59,1.59,0,0,0,1.341.272,1.87,1.87,0,0,1,2.233,1.19c.251.46.373.638.664.683,1.26.194,1.524,1.427,1.716,2.327a2.841,2.841,0,0,0,.325,1,2.546,2.546,0,0,1,.439,2.022,2.745,2.745,0,0,0,.119,1.348,1.767,1.767,0,0,1-.477,2.027c-.366.461-.585.765-.493,1.172h0c.394,1.719-.292,2.269-1.027,2.686-.355.2-.449.274-.489.481-.2,1.043-1.084,1.3-1.795,1.5a2.6,2.6,0,0,0-1.4.727,2.316,2.316,0,0,1-2.531.584,2.962,2.962,0,0,0-1.847.038A2.372,2.372,0,0,1,133.709,197.31Zm-.122-17.294a.732.732,0,0,0-.79.424,2.776,2.776,0,0,1-1.946,1.178c-.887.225-.944.307-.9.713a1.748,1.748,0,0,1-1.37,2,1.71,1.71,0,0,0-.325.139,3.14,3.14,0,0,1-.317,1.883c-.386,1.045-.605,1.774-.156,2.349a3.466,3.466,0,0,1,.672,2.275c.01.65.026.653.295.714,1.046.235,1.2,1.16,1.306,1.772.13.766.214.952.736,1.014a3.575,3.575,0,0,1,2.107,1.113c.505.47.695.645,1.28.389a4.078,4.078,0,0,1,2.559-.116c.8.156,1.085.178,1.369-.167a3.675,3.675,0,0,1,2-1.119c.694-.2.89-.292.942-.566a1.863,1.863,0,0,1,1.079-1.305c.461-.261.672-.38.447-1.365h0a2.491,2.491,0,0,1,.724-2.192c.381-.481.419-.59.352-.717a3.655,3.655,0,0,1-.254-1.983c.031-.482.059-.937-.111-1.118a3.244,3.244,0,0,1-.628-1.579c-.2-.93-.343-1.329-.719-1.387a2.1,2.1,0,0,1-1.54-1.3c-.292-.537-.383-.7-.93-.585a2.767,2.767,0,0,1-2.2-.413,1.281,1.281,0,0,0-1.251-.2,5.4,5.4,0,0,1-1.976.165C133.865,180.023,133.715,180.016,133.587,180.016Z"/><path class="b" d="M140.481,189.074a2.489,2.489,0,0,1-2.3-1.779c-.524-1.17-.7-1.47-1.952-1.442-.337.009-.671.034-1,.058-1.25.091-2.541.187-3.565-.659s-2.586-1.851-2.6-1.861a.6.6,0,0,1,.653-1.016c.066.042,1.631,1.05,2.717,1.946a3.777,3.777,0,0,0,2.709.385c.343-.025.7-.051,1.053-.06,1.967-.039,2.488.819,3.086,2.156.447,1,.872,1.353,2.21.833a.6.6,0,0,1,.438,1.125A4.051,4.051,0,0,1,140.481,189.074Z"/><path class="b" d="M133.148,185.754a.6.6,0,0,1-.565-.391c-.308-.82.33-1.7.947-2.549a3.993,3.993,0,0,0,.866-1.57.6.6,0,0,1,.586-.62.594.594,0,0,1,.621.586,4.254,4.254,0,0,1-1.1,2.314c-.283.39-.873,1.2-.793,1.414a.6.6,0,0,1-.566.816Z"/><path class="b" d="M136.991,185.764a.6.6,0,0,1-.325-.1.6.6,0,0,1-.184-.834c.463-.723,1.083-2.144.781-2.875a.6.6,0,1,1,1.115-.462c.642,1.547-.721,3.744-.878,3.989A.605.605,0,0,1,136.991,185.764Z"/><path class="b" d="M139.167,187.521a.6.6,0,0,1-.3-.078.6.6,0,0,1-.231-.822,7.565,7.565,0,0,1,.724-1.029c.448-.562.662-.854.609-1.339a.6.6,0,0,1,.536-.666.613.613,0,0,1,.665.536,2.859,2.859,0,0,1-.866,2.222,6.471,6.471,0,0,0-.615.868A.6.6,0,0,1,139.167,187.521Z"/><path class="b" d="M137.709,193.959a.6.6,0,0,1-.6-.542,3.789,3.789,0,0,0-2.041-3.058,2.722,2.722,0,0,0-2.817.448,3.565,3.565,0,0,1-2.9.774,4.157,4.157,0,0,1-2.467-1.874.6.6,0,1,1,1.048-.6,2.953,2.953,0,0,0,1.675,1.294,2.415,2.415,0,0,0,1.925-.566,3.916,3.916,0,0,1,4.022-.579,4.96,4.96,0,0,1,2.754,4.038.6.6,0,0,1-.539.663Q137.741,193.959,137.709,193.959Z"/><path class="b" d="M135.423,190.261a.6.6,0,0,1-.569-.4c-.675-1.916,1.666-3.992,2.669-4.459a.6.6,0,0,1,.509,1.1c-.79.367-2.392,1.961-2.039,2.962a.6.6,0,0,1-.369.77A.611.611,0,0,1,135.423,190.261Z"/><path class="b" d="M137.164,192.149a.6.6,0,0,1-.372-1.08,5.315,5.315,0,0,1,4.853-.3.6.6,0,0,1-.466,1.114,4.23,4.23,0,0,0-3.644.141A.6.6,0,0,1,137.164,192.149Z"/><path class="b" d="M132.084,188.892a.6.6,0,0,1-.538-.33,3.6,3.6,0,0,0-3.72-2.246.6.6,0,1,1-.131-1.2,4.824,4.824,0,0,1,4.927,2.9.6.6,0,0,1-.265.811A.591.591,0,0,1,132.084,188.892Z"/><path class="b" d="M134.848,196.835a.6.6,0,0,1-.176-.026.6.6,0,0,1-.4-.753,3.076,3.076,0,0,0,.05-2.457c-.057-.073-.237-.3-.848-.251a.6.6,0,0,1-.085-1.205,2.084,2.084,0,0,1,1.878.7c.743.932.5,2.451.16,3.56A.6.6,0,0,1,134.848,196.835Z"/><path class="b" d="M374.552,215.007a4.669,4.669,0,0,1-1.816-.355,4.1,4.1,0,0,1-2.241-2.235l-9.87-25.049a2.272,2.272,0,0,1-2.29-1.6,2.323,2.323,0,0,1,1.318-3.034h0l8.652-3.409c.822-.324,1.983.051,2.6,1.628a2.342,2.342,0,0,1-.608,2.6l9.83,24.945c.783,1.99-.116,4.787-3.327,6.051A6.121,6.121,0,0,1,374.552,215.007Zm-13.539-28.92a.607.607,0,0,1,.565.385l10.048,25.5a2.88,2.88,0,0,0,1.581,1.56,4.153,4.153,0,0,0,3.151-.113c2.5-.985,3.223-3,2.642-4.474l-9.993-25.359a.607.607,0,0,1,.24-.737,1.23,1.23,0,0,0,.531-1.45c-.3-.757-.747-1.047-1.028-.943l-8.651,3.409a1.114,1.114,0,0,0-.633,1.457,1.093,1.093,0,0,0,1.364.794A.611.611,0,0,1,361.013,186.087Z"/><path class="b" d="M361.388,187.664a.608.608,0,0,1-.223-1.174l3.147-1.24a.608.608,0,1,1,.446,1.131l-3.148,1.24A.6.6,0,0,1,361.388,187.664Z"/><path class="b" d="M362.093,189.452a.608.608,0,0,1-.223-1.174l1.74-.686a.608.608,0,0,1,.446,1.131l-1.741.686A.6.6,0,0,1,362.093,189.452Z"/><path class="b" d="M362.938,191.6a.608.608,0,0,1-.222-1.173l3.146-1.24a.607.607,0,0,1,.446,1.13l-3.147,1.241A.621.621,0,0,1,362.938,191.6Z"/><path class="b" d="M363.643,193.385a.608.608,0,0,1-.223-1.173l1.74-.686a.608.608,0,1,1,.445,1.131l-1.74.686A.6.6,0,0,1,363.643,193.385Z"/><path class="b" d="M364.488,195.531a.608.608,0,0,1-.222-1.174l3.147-1.24a.608.608,0,0,1,.445,1.131l-3.147,1.24A.605.605,0,0,1,364.488,195.531Z"/><path class="b" d="M365.192,197.319a.608.608,0,0,1-.222-1.173l1.741-.686a.608.608,0,0,1,.445,1.131l-1.741.685A.6.6,0,0,1,365.192,197.319Z"/><path class="b" d="M383.6,211.337l-.446-1.13,19.853-7.824a3.645,3.645,0,0,0,1.8-2.628,3.6,3.6,0,0,0-1.105-3.438c-2.652-2.525-16.988-15.652-17.133-15.785a.606.606,0,0,1-.155-.225l-3.857-9.786a.608.608,0,0,1,.194-.7,1.51,1.51,0,0,0,.425-1.749,1.09,1.09,0,0,0-.577-.631.814.814,0,0,0-.577-.048L373.11,170.9c-.294.117-.345.614-.122,1.182a1.263,1.263,0,0,0,1.424.734.614.614,0,0,1,.677.375l3.429,8.7c.063.161.212.538-.787,13.479a.608.608,0,1,1-1.212-.094c.356-4.614.891-12.121.841-13.005l-3.239-8.221a2.385,2.385,0,0,1-2.264-1.524c-.545-1.388-.006-2.438.808-2.759l8.917-3.514a2.027,2.027,0,0,1,1.507.064,2.319,2.319,0,0,1,1.223,1.3,2.724,2.724,0,0,1-.471,2.826l3.657,9.281c1.31,1.2,14.506,13.288,17.047,15.707a5.057,5.057,0,0,1-1.092,8.077Z"/><path class="b" d="M379.98,172.146a.608.608,0,0,1-.222-1.173l3.147-1.241a.608.608,0,0,1,.446,1.131L380.2,172.1A.621.621,0,0,1,379.98,172.146Z"/><path class="b" d="M382.218,173.573a.608.608,0,0,1-.223-1.173l1.7-.669a.608.608,0,0,1,.446,1.131l-1.7.669A.6.6,0,0,1,382.218,173.573Z"/><path class="b" d="M381.7,176.514a.608.608,0,0,1-.222-1.173l3.148-1.24a.607.607,0,1,1,.445,1.13l-3.148,1.241A.625.625,0,0,1,381.7,176.514Z"/><path class="b" d="M383.939,177.941a.607.607,0,0,1-.222-1.173l1.7-.669a.608.608,0,1,1,.445,1.131l-1.7.669A.6.6,0,0,1,383.939,177.941Z"/><path class="b" d="M382,203.538a.608.608,0,0,1-.258-1.159c8.3-3.893,13.574-12.506,13.512-13.754a.631.631,0,0,1,.546-.66.59.59,0,0,1,.658.492c.282,1.916-5.755,11.061-14.2,15.023A.606.606,0,0,1,382,203.538Z"/><path class="b" d="M401.175,217.536a.414.414,0,0,1-.169-.036l-4.973-2.207a.416.416,0,0,1-.047-.735l4.778-2.9a.405.405,0,0,1,.207-.06l22.6-.464a.4.4,0,0,1,.3.118.413.413,0,0,1,.127.293l.05,4.973a.416.416,0,0,1-.4.42l-22.453.6Zm-4.077-2.68,4.16,1.847,21.95-.587-.041-4.144-22.067.452Z"/><path class="b" d="M401.175,217.537a.418.418,0,0,1-.385-.575c1.2-2.9-.083-4.624-.139-4.7a.416.416,0,0,1,.655-.513c.068.086,1.645,2.149.254,5.525A.419.419,0,0,1,401.175,217.537Z"/><path class="b" d="M420.15,217.036h0a.416.416,0,0,1-.415-.416l.014-4.859a.416.416,0,0,1,.416-.414h0a.415.415,0,0,1,.415.416l-.014,4.859A.415.415,0,0,1,420.15,217.036Z"/></g><g class="a" transform="translate(501.956 849.078)"><path class="b" d="M207.628,164.846a7.962,7.962,0,1,1,7.962-7.962A7.971,7.971,0,0,1,207.628,164.846Zm0-15.222a7.261,7.261,0,1,0,7.261,7.26A7.269,7.269,0,0,0,207.628,149.624Z"/><path class="b" d="M207.628,167.829a10.945,10.945,0,0,1-7.74-18.684.3.3,0,0,1,.258-.1.347.347,0,0,1,.252.117l.921,1.036a.351.351,0,0,1-.525.466l-.669-.753a10.244,10.244,0,0,0,14.489,14.467l-.7-.678a.35.35,0,1,1,.486-.505l.965.93a.35.35,0,0,1,.005.5A10.878,10.878,0,0,1,207.628,167.829Z"/><path class="b" d="M213.676,157.4a6.161,6.161,0,0,1-4.8-2.166,6.812,6.812,0,0,1-1.574-6.081.351.351,0,0,1,.658.242,6.156,6.156,0,0,0,1.447,5.381,5.647,5.647,0,0,0,5.765,1.766.351.351,0,0,1,.141.687A8.193,8.193,0,0,1,213.676,157.4Z"/><path class="b" d="M210.02,164.542a.352.352,0,0,1-.35-.325c-.4-5.529-5.774-9.167-9.217-8.934a.358.358,0,0,1-.374-.325.35.35,0,0,1,.325-.374c3.7-.265,9.531,3.648,9.966,9.582a.351.351,0,0,1-.325.375Z"/><path class="b" d="M207.706,170.165a.351.351,0,0,1-.351-.351v-2.335a.351.351,0,1,1,.7,0v2.335A.351.351,0,0,1,207.706,170.165Z"/><path class="b" d="M213.7,173.612H201.63a.351.351,0,0,1-.35-.351c0-.921.394-2.009,2.215-2.121a2.121,2.121,0,0,1,2.1-1.515h4.089c1.581,0,2.029.781,2.13,1.419a2.349,2.349,0,0,1,2.234,2.2.352.352,0,0,1-.35.369Zm-11.69-.7h11.268a1.674,1.674,0,0,0-1.786-1.181.351.351,0,0,1-.351-.35c0-.491-.165-1.054-1.455-1.054h-4.089c-.577,0-1.43.367-1.43,1.154a.351.351,0,0,1-.351.351C202.69,171.831,202.13,172.158,202.007,172.911Z"/><path class="b" d="M91.24,208.873h-.007a.416.416,0,0,1-.294-.128l-3.44-3.591a.416.416,0,0,1,.007-.583l15.957-15.807a.436.436,0,0,1,.156-.1l5.136-1.8a.415.415,0,0,1,.537.5l-1.5,5.386a.409.409,0,0,1-.109.186L91.53,208.755A.414.414,0,0,1,91.24,208.873Zm-2.858-4,2.867,2.992,15.776-15.436,1.254-4.512-4.3,1.5Z"/><path class="b" d="M107.4,193.065a.441.441,0,0,1-.062,0c-.108-.017-2.671-.44-3.967-3.854a.416.416,0,0,1,.778-.295c1.115,2.938,3.226,3.313,3.315,3.327a.416.416,0,0,1-.064.826Z"/><path class="b" d="M93.582,206.379a.414.414,0,0,1-.3-.131L89.962,202.7a.416.416,0,1,1,.607-.568l3.316,3.551a.415.415,0,0,1-.3.7Z"/><path class="b" d="M116.742,216.04H88.283a.416.416,0,0,1-.292-.712l28.459-28.053a.416.416,0,0,1,.708.3v28.053A.416.416,0,0,1,116.742,216.04ZM89.3,215.208h27.031V188.564Zm22.615-4.327H101.155a.415.415,0,0,1-.292-.711l10.756-10.6a.416.416,0,0,1,.708.3v10.6A.415.415,0,0,1,111.911,210.881Zm-9.742-.831H111.5v-9.193Z"/><path class="b" d="M115.457,194.141h-.87a.416.416,0,1,1,0-.831h.87a.416.416,0,1,1,0,.831Z"/><path class="b" d="M115.457,196.534h-1.876a.415.415,0,1,1,0-.831h1.876a.415.415,0,1,1,0,.831Z"/><path class="b" d="M115.457,198.709h-.87a.415.415,0,1,1,0-.831h.87a.415.415,0,1,1,0,.831Z"/><path class="b" d="M115.457,201.1h-1.876a.416.416,0,1,1,0-.831h1.876a.416.416,0,1,1,0,.831Z"/><path class="b" d="M115.457,203.277h-.87a.415.415,0,1,1,0-.831h.87a.415.415,0,1,1,0,.831Z"/><path class="b" d="M115.457,205.669h-1.876a.416.416,0,1,1,0-.831h1.876a.416.416,0,1,1,0,.831Z"/><path class="b" d="M115.457,207.845h-.87a.415.415,0,1,1,0-.831h.87a.415.415,0,1,1,0,.831Z"/><path class="b" d="M115.457,210.237h-1.876a.415.415,0,1,1,0-.831h1.876a.415.415,0,1,1,0,.831Z"/><path class="b" d="M115.457,212.412h-.87a.416.416,0,1,1,0-.831h.87a.416.416,0,1,1,0,.831Z"/><path class="b" d="M229.462,192.73a.61.61,0,0,1-.184-.029l-21.171-6.711a.611.611,0,0,1,0-1.164l21.171-6.711a.611.611,0,0,1,.369,0l21.17,6.711a.611.611,0,0,1,0,1.164l-21.17,6.711A.616.616,0,0,1,229.462,192.73Zm-19.15-7.322,19.15,6.071,19.15-6.071-19.15-6.071Z"/><path class="b" d="M229.681,207.08c-10.2,0-13.792-4.024-13.94-4.2a.615.615,0,0,1-.148-.4v-14.4a.61.61,0,1,1,1.221,0v14.152c.746.7,4.386,3.624,12.867,3.624s11.988-2.923,12.7-3.616v-14.16a.611.611,0,1,1,1.221,0v14.4a.613.613,0,0,1-.139.388C243.324,203.045,239.892,207.08,229.681,207.08Z"/><path class="b" d="M210.609,205.154a.61.61,0,0,1-.61-.611V186.556a.611.611,0,1,1,1.221,0v17.987A.61.61,0,0,1,210.609,205.154Z"/><path class="b" d="M210.485,209.317A2.712,2.712,0,1,1,213.2,206.6,2.714,2.714,0,0,1,210.485,209.317Zm0-4.2a1.49,1.49,0,1,0,1.49,1.49A1.492,1.492,0,0,0,210.485,205.115Z"/><path class="b" d="M213.18,215.82h-5.035a.612.612,0,0,1-.611-.611,10.2,10.2,0,0,1,1.629-4.848.61.61,0,0,1,1.018.674A9.869,9.869,0,0,0,208.8,214.6h3.669a8.518,8.518,0,0,0-1.29-3.494.611.611,0,0,1,.912-.812c1.236,1.388,1.655,4.492,1.7,4.841a.611.611,0,0,1-.606.687Z"/><path class="b" d="M289.81,212.153h-26.7a.54.54,0,0,1-.54-.54V175.495a.54.54,0,0,1,.54-.54h26.7a.54.54,0,0,1,.54.54v36.118A.541.541,0,0,1,289.81,212.153Zm-26.16-1.08h25.62V176.035H263.65Z"/><path class="b" d="M286.141,183.555H266.925a.54.54,0,0,1-.54-.54V178.7a.54.54,0,0,1,.54-.54h19.216a.541.541,0,0,1,.54.54v4.313A.541.541,0,0,1,286.141,183.555Zm-18.676-1.08H285.6v-3.233H267.465Z"/><path class="b" d="M286.224,208.631H266.8a.54.54,0,0,1-.54-.54v-18.63a.54.54,0,0,1,.54-.54h19.425a.541.541,0,0,1,.54.54v18.63A.54.54,0,0,1,286.224,208.631Zm-18.885-1.08h18.345V190H267.339Z"/><path class="b" d="M276.449,208.431a.54.54,0,0,1-.54-.54V189.684a.54.54,0,0,1,1.08,0v18.207A.54.54,0,0,1,276.449,208.431Z"/><path class="b" d="M271.7,208.431a.54.54,0,0,1-.54-.54V194.264a.54.54,0,1,1,1.08,0v13.627A.54.54,0,0,1,271.7,208.431Z"/><path class="b" d="M281.421,208.431a.54.54,0,0,1-.54-.54V189.684a.54.54,0,1,1,1.08,0v18.207A.54.54,0,0,1,281.421,208.431Z"/><path class="b" d="M285.89,194.718H266.918a.54.54,0,1,1,0-1.08H285.89a.54.54,0,0,1,0,1.08Z"/><path class="b" d="M285.89,199.432H266.918a.54.54,0,1,1,0-1.08H285.89a.54.54,0,0,1,0,1.08Z"/><path class="b" d="M285.89,204.146H266.918a.54.54,0,0,1,0-1.081H285.89a.54.54,0,0,1,0,1.081Z"/><path class="b" d="M323.08,195.827a.567.567,0,0,1-.071,0l-11.432-1.393a.593.593,0,0,1-.474-.357l-4.644-10.952a.6.6,0,0,1,.077-.594l7.04-9.123a.592.592,0,0,1,.54-.226l9.186,1.12a.593.593,0,0,1-.143,1.177l-8.851-1.079-6.622,8.581,4.375,10.317,10.747,1.311,6.463-8.8-3.231-7.9a.593.593,0,1,1,1.1-.448l3.356,8.211a.593.593,0,0,1-.071.575l-6.865,9.347A.594.594,0,0,1,323.08,195.827Z"/><path class="b" d="M325.4,177.969a2.677,2.677,0,0,1-.332-.02,2.733,2.733,0,1,1,3.043-2.383h0A2.737,2.737,0,0,1,325.4,177.969Zm0-4.281a1.548,1.548,0,1,0,1.54,1.736h0a1.553,1.553,0,0,0-1.54-1.736Zm2.128,1.807h0Z"/><path class="b" d="M311.995,171.861a2.354,2.354,0,0,1-.277-.017,2.281,2.281,0,1,1,2.54-1.989h0A2.285,2.285,0,0,1,311.995,171.861Zm0-3.377a1.1,1.1,0,0,0-.132,2.183,1.1,1.1,0,1,0,.267-2.175A1.251,1.251,0,0,0,311.992,168.484Zm1.678,1.3h0Z"/><path class="b" d="M306.237,203.882a3.069,3.069,0,0,1-.369-.022,3.044,3.044,0,1,1,3.389-2.653h0A3.049,3.049,0,0,1,306.237,203.882Zm0-4.9a1.861,1.861,0,1,0,.227.014A1.934,1.934,0,0,0,306.234,198.98Zm2.435,2.155h0Z"/><path class="b" d="M324.494,211.929a2.456,2.456,0,0,1-.295-.018,2.419,2.419,0,0,1-1.2-4.3,2.418,2.418,0,0,1,3.89,2.2h0A2.422,2.422,0,0,1,324.494,211.929Zm0-3.65a1.232,1.232,0,1,0,.152.009A1.3,1.3,0,0,0,324.49,208.279Zm1.814,1.453h0Z"/><path class="b" d="M346.185,183.194a2.8,2.8,0,0,1-.353-.022,2.9,2.9,0,1,1,3.233-2.531h0A2.907,2.907,0,0,1,346.185,183.194Zm0-4.624a1.722,1.722,0,1,0,.209.013A1.642,1.642,0,0,0,346.182,178.57Zm2.3,2h0Z"/><path class="b" d="M338.839,210.681a3.407,3.407,0,0,1-.4-.024,3.29,3.29,0,1,1,3.662-2.868h0a3.289,3.289,0,0,1-3.258,2.892Zm-.009-5.393a2.1,2.1,0,0,0-.253,4.192,2.105,2.105,0,0,0,2.344-1.834h0a2.1,2.1,0,0,0-1.834-2.343A2.027,2.027,0,0,0,338.83,205.288Z"/><path class="b" d="M340.439,205.508a.593.593,0,0,1-.464-.96l5.259-6.669-4.5-10.079-10.863-1.324a.593.593,0,1,1,.143-1.177l11.2,1.365a.592.592,0,0,1,.47.346l4.78,10.714a.594.594,0,0,1-.076.609l-5.483,6.949A.59.59,0,0,1,340.439,205.508Z"/><path class="b" d="M336.187,207.408a.6.6,0,0,1-.073-.005l-8.666-1.056a.593.593,0,0,1-.474-.358l-4.44-10.525a.593.593,0,0,1,1.092-.461l4.306,10.208,8.325,1.016a.593.593,0,0,1-.07,1.181Z"/><path class="b" d="M341.142,187.845a.584.584,0,0,1-.35-.115.592.592,0,0,1-.129-.828l3.705-5.063a.593.593,0,0,1,.957.7L341.62,187.6A.592.592,0,0,1,341.142,187.845Z"/><path class="b" d="M314.045,174.358a.59.59,0,0,1-.528-.324l-1.271-2.5a.593.593,0,0,1,1.057-.537l1.27,2.5a.592.592,0,0,1-.26.8A.581.581,0,0,1,314.045,174.358Z"/><path class="b" d="M307.613,199.378a.592.592,0,0,1-.459-.967l4.035-4.945a.592.592,0,1,1,.918.749l-4.035,4.945A.589.589,0,0,1,307.613,199.378Z"/><path class="b" d="M325.665,208.47a.593.593,0,0,1-.446-.983l1.854-2.119a.593.593,0,0,1,.893.78l-1.855,2.119A.591.591,0,0,1,325.665,208.47Z"/><path class="b" d="M185.93,189.806h-.043l-11.151-.855a.57.57,0,0,1-.475-.328l-4.687-10.069a.571.571,0,0,1,.051-.57l6.6-9.384a.572.572,0,0,1,.525-.24l11.056,1.112a.572.572,0,0,1,.461.327l3.766,8.091a.571.571,0,0,1-1.036.482l-3.629-7.795-10.4-1.046-6.216,8.84,4.406,9.466,10.5.805,4.823-6.675a.571.571,0,1,1,.926.67l-5.01,6.934A.573.573,0,0,1,185.93,189.806Z"/><path class="b" d="M192.332,182.718a2.637,2.637,0,1,1,1.11-.247h0A2.638,2.638,0,0,1,192.332,182.718Zm.869-.765h0Zm-.874-3.364a1.492,1.492,0,1,0,1.356.862A1.491,1.491,0,0,0,192.327,178.589Z"/><path class="b" d="M190.132,168.426a2.2,2.2,0,0,1-2.07-2.952,2.2,2.2,0,1,1,3,2.747h0A2.2,2.2,0,0,1,190.132,168.426Zm.683-.723h0Zm-.689-2.533a1.057,1.057,0,1,0,.448,2.015h0a1.057,1.057,0,0,0-.448-2.015Z"/><path class="b" d="M161.607,180.385a2.941,2.941,0,1,1,1.237-.276h0A2.918,2.918,0,0,1,161.607,180.385Zm1-.794h0Zm-1-3.936a1.793,1.793,0,1,0,.757,3.418h0a1.794,1.794,0,0,0-.757-3.418Z"/><path class="b" d="M163.813,199.146a2.334,2.334,0,1,1,.983-.219h0A2.32,2.32,0,0,1,163.813,199.146Zm0-3.521a1.188,1.188,0,1,0,.5,2.266h0a1.187,1.187,0,0,0-.094-2.193A1.174,1.174,0,0,0,163.812,195.625Z"/><path class="b" d="M198.792,202.476a2.8,2.8,0,1,1,1.18-.264h0A2.78,2.78,0,0,1,198.792,202.476Zm.939-.782h0Zm-.942-3.679a1.658,1.658,0,1,0,.7,3.161h0a1.658,1.658,0,0,0-.7-3.161Z"/><path class="b" d="M172.859,210.646a3.177,3.177,0,1,1,1.337-.3h0A3.168,3.168,0,0,1,172.859,210.646Zm0-5.2a2.029,2.029,0,1,0,.859,3.869h0a2.029,2.029,0,0,0-.859-3.869Z"/><path class="b" d="M184.187,209.042a.463.463,0,0,1-.063,0l-8.483-.945a.571.571,0,1,1,.127-1.135l8.139.906,5.959-8.82-4.454-9.568a.571.571,0,1,1,1.036-.482l4.591,9.861a.571.571,0,0,1-.045.561l-6.333,9.374A.57.57,0,0,1,184.187,209.042Z"/><path class="b" d="M171.981,205.583a.573.573,0,0,1-.519-.33l-3.553-7.632a.573.573,0,0,1,.051-.571l6.352-9a.572.572,0,0,1,.934.659l-6.161,8.728,3.414,7.333a.571.571,0,0,1-.518.812Z"/><path class="b" d="M196.554,200.12l-.043,0-6.033-.452a.572.572,0,0,1,.085-1.14l6.033.453a.571.571,0,0,1-.042,1.141Z"/><path class="b" d="M187.747,170.611a.572.572,0,0,1-.489-.867l1.4-2.315a.572.572,0,1,1,.978.592l-1.4,2.314A.571.571,0,0,1,187.747,170.611Z"/><path class="b" d="M170.093,178.883a.6.6,0,0,1-.073,0l-6.105-.781a.572.572,0,1,1,.145-1.134l6.1.782a.571.571,0,0,1-.072,1.138Z"/><path class="b" d="M168.428,197.951a.486.486,0,0,1-.093-.008l-2.68-.438a.571.571,0,0,1-.471-.656.563.563,0,0,1,.656-.472l2.68.438a.572.572,0,0,1-.092,1.136Z"/><path class="b" d="M133.307,211.227l-2.723-9.015a4.828,4.828,0,0,0-2-2.328c-.487-.347-4.8-3.53-6.2-8.178-.718-2.377-.2-5.8,1.325-8.732a15.369,15.369,0,0,1,9.5-7.692c9.414-2.847,13.753,4.064,14.629,6.965a15.051,15.051,0,0,1,.479,2.514c.162,1.267.279,2.182.993,2.741.476.373,1.029.748,1.565,1.11,1.354.915,2.129,1.464,2.317,2.084.239.795-.567,1.264-1.214,1.641a4.014,4.014,0,0,0-.734.495c.045.31.122.9.211,1.585.169,1.3.379,2.926.491,3.531.32,1.736-1.014,2.425-2.211,2.83-2.393.81-3.919,1.858-3.711,2.549l1.3,4.3-1.156.349-1.3-4.3c-.572-1.893,2.12-3.242,4.48-4.041,1.582-.536,1.486-1.052,1.41-1.467-.117-.637-.33-2.276-.5-3.594-.1-.737-.177-1.365-.219-1.641-.121-.792.684-1.262,1.332-1.639a6.119,6.119,0,0,0,.582-.367,13.246,13.246,0,0,0-1.753-1.314c-.553-.374-1.125-.76-1.634-1.158-1.1-.865-1.27-2.164-1.446-3.539a13.916,13.916,0,0,0-.437-2.319c-.028-.093-2.92-9.237-13.124-6.158a14.186,14.186,0,0,0-8.781,7.093,11.13,11.13,0,0,0-1.239,7.826c1.045,3.464,4.1,6.372,5.748,7.544a5.943,5.943,0,0,1,2.456,2.962l2.722,9.015Z"/><path class="b" d="M145.694,175.949a.6.6,0,0,1-.485-.963l2.559-3.46a.6.6,0,1,1,.97.718l-2.558,3.46A.6.6,0,0,1,145.694,175.949Z"/><path class="b" d="M141.851,173.449a.615.615,0,0,1-.225-.043.605.605,0,0,1-.335-.786l1.436-3.579a.6.6,0,0,1,1.121.45l-1.436,3.579A.6.6,0,0,1,141.851,173.449Z"/><path class="b" d="M136.118,172.264a.68.68,0,0,1-.077-.005.6.6,0,0,1-.523-.676l.492-3.865a.6.6,0,0,1,1.2.152l-.492,3.866A.6.6,0,0,1,136.118,172.264Z"/><path class="b" d="M130.99,173.468a.6.6,0,0,1-.582-.445l-1.066-3.91a.6.6,0,0,1,1.165-.318l1.066,3.911a.6.6,0,0,1-.424.741A.621.621,0,0,1,130.99,173.468Z"/><path class="b" d="M126.265,175.811a.6.6,0,0,1-.471-.227l-2.476-3.084a.6.6,0,1,1,.942-.756l2.475,3.085a.6.6,0,0,1-.47.982Z"/><path class="b" d="M122.166,179.85a.6.6,0,0,1-.356-.117l-3.157-2.307a.6.6,0,1,1,.713-.974l3.156,2.307a.6.6,0,0,1-.356,1.091Z"/><path class="b" d="M119.888,184.427a.589.589,0,0,1-.171-.025l-3.452-1.016a.6.6,0,1,1,.34-1.158l3.453,1.016a.6.6,0,0,1-.17,1.183Z"/><path class="b" d="M133.709,197.31a2.379,2.379,0,0,1-1.633-.834,2.41,2.41,0,0,0-1.427-.8,2.007,2.007,0,0,1-1.783-2.012c-.113-.666-.177-.75-.38-.8-1.214-.273-1.229-1.237-1.238-1.875a2.312,2.312,0,0,0-.417-1.55c-.9-1.148-.393-2.513-.025-3.509a3.234,3.234,0,0,0,.315-1.27c-.2-1.018.642-1.324,1.049-1.471.488-.176.635-.23.58-.736-.164-1.514,1.068-1.827,1.8-2.013.617-.157,1.006-.276,1.194-.606a2.147,2.147,0,0,1,2.367-1.014,4.237,4.237,0,0,0,1.558-.116,2.432,2.432,0,0,1,2.211.317,1.59,1.59,0,0,0,1.341.272,1.87,1.87,0,0,1,2.233,1.19c.251.46.373.638.664.683,1.26.194,1.524,1.427,1.716,2.327a2.841,2.841,0,0,0,.325,1,2.546,2.546,0,0,1,.439,2.022,2.745,2.745,0,0,0,.119,1.348,1.767,1.767,0,0,1-.477,2.027c-.366.461-.585.765-.493,1.172h0c.394,1.719-.292,2.269-1.027,2.686-.355.2-.449.274-.489.481-.2,1.043-1.084,1.3-1.795,1.5a2.6,2.6,0,0,0-1.4.727,2.316,2.316,0,0,1-2.531.584,2.962,2.962,0,0,0-1.847.038A2.372,2.372,0,0,1,133.709,197.31Zm-.122-17.294a.732.732,0,0,0-.79.424,2.776,2.776,0,0,1-1.946,1.178c-.887.225-.944.307-.9.713a1.748,1.748,0,0,1-1.37,2,1.71,1.71,0,0,0-.325.139,3.14,3.14,0,0,1-.317,1.883c-.386,1.045-.605,1.774-.156,2.349a3.466,3.466,0,0,1,.672,2.275c.01.65.026.653.295.714,1.046.235,1.2,1.16,1.306,1.772.13.766.214.952.736,1.014a3.575,3.575,0,0,1,2.107,1.113c.505.47.695.645,1.28.389a4.078,4.078,0,0,1,2.559-.116c.8.156,1.085.178,1.369-.167a3.675,3.675,0,0,1,2-1.119c.694-.2.89-.292.942-.566a1.863,1.863,0,0,1,1.079-1.305c.461-.261.672-.38.447-1.365h0a2.491,2.491,0,0,1,.724-2.192c.381-.481.419-.59.352-.717a3.655,3.655,0,0,1-.254-1.983c.031-.482.059-.937-.111-1.118a3.244,3.244,0,0,1-.628-1.579c-.2-.93-.343-1.329-.719-1.387a2.1,2.1,0,0,1-1.54-1.3c-.292-.537-.383-.7-.93-.585a2.767,2.767,0,0,1-2.2-.413,1.281,1.281,0,0,0-1.251-.2,5.4,5.4,0,0,1-1.976.165C133.865,180.023,133.715,180.016,133.587,180.016Z"/><path class="b" d="M140.481,189.074a2.489,2.489,0,0,1-2.3-1.779c-.524-1.17-.7-1.47-1.952-1.442-.337.009-.671.034-1,.058-1.25.091-2.541.187-3.565-.659s-2.586-1.851-2.6-1.861a.6.6,0,0,1,.653-1.016c.066.042,1.631,1.05,2.717,1.946a3.777,3.777,0,0,0,2.709.385c.343-.025.7-.051,1.053-.06,1.967-.039,2.488.819,3.086,2.156.447,1,.872,1.353,2.21.833a.6.6,0,0,1,.438,1.125A4.051,4.051,0,0,1,140.481,189.074Z"/><path class="b" d="M133.148,185.754a.6.6,0,0,1-.565-.391c-.308-.82.33-1.7.947-2.549a3.993,3.993,0,0,0,.866-1.57.6.6,0,0,1,.586-.62.594.594,0,0,1,.621.586,4.254,4.254,0,0,1-1.1,2.314c-.283.39-.873,1.2-.793,1.414a.6.6,0,0,1-.566.816Z"/><path class="b" d="M136.991,185.764a.6.6,0,0,1-.325-.1.6.6,0,0,1-.184-.834c.463-.723,1.083-2.144.781-2.875a.6.6,0,1,1,1.115-.462c.642,1.547-.721,3.744-.878,3.989A.605.605,0,0,1,136.991,185.764Z"/><path class="b" d="M139.167,187.521a.6.6,0,0,1-.3-.078.6.6,0,0,1-.231-.822,7.565,7.565,0,0,1,.724-1.029c.448-.562.662-.854.609-1.339a.6.6,0,0,1,.536-.666.613.613,0,0,1,.665.536,2.859,2.859,0,0,1-.866,2.222,6.471,6.471,0,0,0-.615.868A.6.6,0,0,1,139.167,187.521Z"/><path class="b" d="M137.709,193.959a.6.6,0,0,1-.6-.542,3.789,3.789,0,0,0-2.041-3.058,2.722,2.722,0,0,0-2.817.448,3.565,3.565,0,0,1-2.9.774,4.157,4.157,0,0,1-2.467-1.874.6.6,0,1,1,1.048-.6,2.953,2.953,0,0,0,1.675,1.294,2.415,2.415,0,0,0,1.925-.566,3.916,3.916,0,0,1,4.022-.579,4.96,4.96,0,0,1,2.754,4.038.6.6,0,0,1-.539.663Q137.741,193.959,137.709,193.959Z"/><path class="b" d="M135.423,190.261a.6.6,0,0,1-.569-.4c-.675-1.916,1.666-3.992,2.669-4.459a.6.6,0,0,1,.509,1.1c-.79.367-2.392,1.961-2.039,2.962a.6.6,0,0,1-.369.77A.611.611,0,0,1,135.423,190.261Z"/><path class="b" d="M137.164,192.149a.6.6,0,0,1-.372-1.08,5.315,5.315,0,0,1,4.853-.3.6.6,0,0,1-.466,1.114,4.23,4.23,0,0,0-3.644.141A.6.6,0,0,1,137.164,192.149Z"/><path class="b" d="M132.084,188.892a.6.6,0,0,1-.538-.33,3.6,3.6,0,0,0-3.72-2.246.6.6,0,1,1-.131-1.2,4.824,4.824,0,0,1,4.927,2.9.6.6,0,0,1-.265.811A.591.591,0,0,1,132.084,188.892Z"/><path class="b" d="M134.848,196.835a.6.6,0,0,1-.176-.026.6.6,0,0,1-.4-.753,3.076,3.076,0,0,0,.05-2.457c-.057-.073-.237-.3-.848-.251a.6.6,0,0,1-.085-1.205,2.084,2.084,0,0,1,1.878.7c.743.932.5,2.451.16,3.56A.6.6,0,0,1,134.848,196.835Z"/></g></g></svg>