<svg xmlns="http://www.w3.org/2000/svg" xmlns:xlink="http://www.w3.org/1999/xlink" width="1280" height="290" viewBox="0 0 1280 290"><defs><style>.a{fill:#f1f1f1;}.a,.d{opacity:0.4;}.b{opacity:0.44;mix-blend-mode:luminosity;isolation:isolate;}.c{fill:#b5dde0;}.d{fill:#c5d16b;}.e,.f{fill:#64b5b2;}.e{opacity:0.2;}.f{opacity:0.6;}.g,.i{fill:#f6fbfb;}.h{fill:#a1ba2b;}.i{opacity:0;}.j{fill:url(#a);}</style><linearGradient id="a" x1="0.42" y1="0.424" x2="0.722" y2="0.43" gradientUnits="objectBoundingBox"><stop offset="0" stop-color="#f1f1f1"/><stop offset="1" stop-color="#f9f9f9" stop-opacity="0"/></linearGradient></defs><g transform="translate(0 -1678)"><rect class="a" width="1245" height="290" transform="translate(35 1678)"/><g class="b" transform="translate(912.504 1439.883)"><g transform="translate(-8.504 238.117)"><path class="c" d="M394.3,442.2l-96.667,96.667H394.3Z" transform="translate(-18.304 -248.863)"/><path class="c" d="M394.3,442.2l-96.667,96.667V442.2Z" transform="translate(-18.304 -248.863)"/><path class="d" d="M292.264,442.2,195.6,538.863h96.667Z" transform="translate(-9.369 -248.863)"/><path class="c" d="M190.225,442.2,93.558,538.863h96.667Z" transform="translate(-0.433 -248.863)"/><path class="e" d="M190.225,442.2,93.558,538.863V442.2Z" transform="translate(-0.433 -248.863)"/><path class="f" d="M88.185,442.2-8.482,538.863H88.185Z" transform="translate(8.503 -248.863)"/><path class="c" d="M88.185,442.2-8.482,538.863V442.2Z" transform="translate(8.503 -248.863)"/><path class="e" d="M297.626,340.157l96.667,96.667V340.157Z" transform="translate(-18.303 -243.49)"/><path class="f" d="M394.293,238.117l-96.667,96.667h96.667Z" transform="translate(-18.303 -238.117)"/><path class="g" d="M394.293,238.117l-96.667,96.667V238.117Z" transform="translate(-18.303 -238.117)"/><path class="e" d="M292.253,334.784l-96.667-96.667h96.667Z" transform="translate(-9.368 -238.117)"/><path class="g" d="M292.253,334.784l-96.667-96.667v96.667Z" transform="translate(-9.368 -238.117)"/><g transform="translate(0 96.667)"><path class="h" d="M394.293,442.2l-96.667,96.667h96.667Z" transform="translate(-18.303 -345.53)"/><path class="d" d="M394.293,442.2l-96.667,96.667V442.2Z" transform="translate(-18.303 -345.53)"/><path class="i" d="M297.626,340.157l96.667,96.667H297.626Z" transform="translate(-18.303 -340.157)"/><path class="i" d="M292.253,340.157l-96.667,96.667h96.667Z" transform="translate(-9.368 -340.157)"/><path class="i" d="M292.253,340.157l-96.667,96.667V340.157Z" transform="translate(-9.368 -340.157)"/><path class="i" d="M190.2,442.2,93.536,538.863H190.2Z" transform="translate(-0.432 -345.53)"/><path class="i" d="M88.163,538.863-8.5,442.2H88.163Z" transform="translate(8.504 -345.53)"/><path class="g" d="M88.163,538.863-8.5,442.2v96.667Z" transform="translate(8.504 -345.53)"/><path class="e" d="M93.536,340.157,190.2,436.824H93.536Z" transform="translate(-0.432 -340.157)"/><path class="i" d="M93.536,340.157,190.2,436.823V340.157Z" transform="translate(-0.432 -340.157)"/><path class="e" d="M88.163,340.157-8.5,436.824H88.163Z" transform="translate(8.504 -340.157)"/><path class="i" d="M88.163,340.157-8.5,436.823V340.157Z" transform="translate(8.504 -340.157)"/><path class="d" d="M394.293,442.2l-96.667,96.667V442.2Z" transform="translate(-18.303 -345.53)"/><path class="i" d="M297.626,340.157l96.667,96.667H297.626Z" transform="translate(-18.303 -340.157)"/><path class="i" d="M292.253,340.157l-96.667,96.667h96.667Z" transform="translate(-9.368 -340.157)"/><path class="i" d="M292.253,340.157l-96.667,96.667V340.157Z" transform="translate(-9.368 -340.157)"/><path class="i" d="M190.2,442.2,93.536,538.863H190.2Z" transform="translate(-0.432 -345.53)"/><path class="i" d="M88.163,538.863-8.5,442.2H88.163Z" transform="translate(8.504 -345.53)"/><path class="g" d="M88.163,538.863-8.5,442.2v96.667Z" transform="translate(8.504 -345.53)"/><path class="e" d="M93.536,340.157,190.2,436.824H93.536Z" transform="translate(-0.432 -340.157)"/><path class="i" d="M93.536,340.157,190.2,436.823V340.157Z" transform="translate(-0.432 -340.157)"/><path class="e" d="M88.163,340.157-8.5,436.824H88.163Z" transform="translate(8.504 -340.157)"/><path class="i" d="M88.163,340.157-8.5,436.823V340.157Z" transform="translate(8.504 -340.157)"/></g><path class="e" d="M190.2,238.117,93.536,334.784H190.2Z" transform="translate(-0.431 -238.117)"/><path class="i" d="M190.2,238.117,93.536,334.784V238.117Z" transform="translate(-0.431 -238.117)"/><path class="i" d="M88.163,334.784-8.5,238.117H88.163Z" transform="translate(8.504 -238.117)"/><path class="e" d="M88.163,334.784-8.5,238.117v96.667Z" transform="translate(8.504 -238.117)"/></g></g><g class="b" transform="translate(525.504 1439.883)"><g transform="translate(-8.504 238.117)"><path class="c" d="M394.3,442.2l-96.667,96.667V442.2Z" transform="translate(-7.617 -248.863)"/><path class="d" d="M292.264,442.2,195.6,538.863h96.667Z" transform="translate(-2.243 -248.863)"/><path class="c" d="M190.225,442.2,93.558,538.863h96.667Z" transform="translate(3.13 -248.863)"/><path class="e" d="M190.225,442.2,93.558,538.863V442.2Z" transform="translate(3.13 -248.863)"/><path class="f" d="M88.185,442.2-8.482,538.863H88.185Z" transform="translate(8.503 -248.863)"/><path class="c" d="M88.185,442.2-8.482,538.863V442.2Z" transform="translate(8.503 -248.863)"/><path class="e" d="M297.626,340.157l96.667,96.667V340.157Z" transform="translate(-7.616 -243.49)"/><path class="f" d="M394.293,238.117l-96.667,96.667h96.667Z" transform="translate(-7.616 -238.117)"/><path class="g" d="M394.293,238.117l-96.667,96.667V238.117Z" transform="translate(-7.616 -238.117)"/><path class="e" d="M292.253,334.784l-96.667-96.667h96.667Z" transform="translate(-2.243 -238.117)"/><path class="g" d="M292.253,334.784l-96.667-96.667v96.667Z" transform="translate(-2.243 -238.117)"/><g transform="translate(0 96.667)"><path class="d" d="M394.293,442.2l-96.667,96.667V442.2Z" transform="translate(-7.616 -345.53)"/><path class="i" d="M297.626,340.157l96.667,96.667H297.626Z" transform="translate(-7.616 -340.157)"/><path class="i" d="M292.253,340.157l-96.667,96.667h96.667Z" transform="translate(-2.243 -340.157)"/><path class="i" d="M292.253,340.157l-96.667,96.667V340.157Z" transform="translate(-2.243 -340.157)"/><path class="i" d="M190.2,442.2,93.536,538.863H190.2Z" transform="translate(3.131 -345.53)"/><path class="i" d="M88.163,538.863-8.5,442.2H88.163Z" transform="translate(8.504 -345.53)"/><path class="g" d="M88.163,538.863-8.5,442.2v96.667Z" transform="translate(8.504 -345.53)"/><path class="e" d="M93.536,340.157,190.2,436.824H93.536Z" transform="translate(3.131 -340.157)"/><path class="i" d="M93.536,340.157,190.2,436.823V340.157Z" transform="translate(3.131 -340.157)"/><path class="e" d="M88.163,340.157-8.5,436.824H88.163Z" transform="translate(8.504 -340.157)"/><path class="i" d="M88.163,340.157-8.5,436.823V340.157Z" transform="translate(8.504 -340.157)"/><path class="i" d="M297.626,340.157l96.667,96.667H297.626Z" transform="translate(-7.616 -340.157)"/><path class="i" d="M292.253,340.157l-96.667,96.667h96.667Z" transform="translate(-2.243 -340.157)"/><path class="i" d="M292.253,340.157l-96.667,96.667V340.157Z" transform="translate(-2.243 -340.157)"/><path class="i" d="M190.2,442.2,93.536,538.863H190.2Z" transform="translate(3.131 -345.53)"/><path class="i" d="M88.163,538.863-8.5,442.2H88.163Z" transform="translate(8.504 -345.53)"/><path class="g" d="M88.163,538.863-8.5,442.2v96.667Z" transform="translate(8.504 -345.53)"/><path class="e" d="M93.536,340.157,190.2,436.824H93.536Z" transform="translate(3.131 -340.157)"/><path class="i" d="M93.536,340.157,190.2,436.823V340.157Z" transform="translate(3.131 -340.157)"/><path class="e" d="M88.163,340.157-8.5,436.824H88.163Z" transform="translate(8.504 -340.157)"/><path class="i" d="M88.163,340.157-8.5,436.823V340.157Z" transform="translate(8.504 -340.157)"/></g><path class="e" d="M190.2,238.117,93.536,334.784H190.2Z" transform="translate(3.131 -238.117)"/><path class="i" d="M190.2,238.117,93.536,334.784V238.117Z" transform="translate(3.131 -238.117)"/><path class="i" d="M88.163,334.784-8.5,238.117H88.163Z" transform="translate(8.504 -238.117)"/><path class="e" d="M88.163,334.784-8.5,238.117v96.667Z" transform="translate(8.504 -238.117)"/></g></g><rect class="j" width="1119" height="290" transform="translate(0 1678)"/></g></svg>