<svg xmlns="http://www.w3.org/2000/svg" xmlns:xlink="http://www.w3.org/1999/xlink" width="243" height="86" viewBox="0 0 243 86"><defs><style>.a{fill:#fff;stroke:#707070;}.b{clip-path:url(#a);}.c{clip-path:url(#b);}</style><clipPath id="a"><rect class="a" width="243" height="86" transform="translate(208 1823)"/></clipPath><clipPath id="b"><path d="M0-732H249.789v172.279H0Z" transform="translate(0 731.998)"/></clipPath></defs><g class="b" transform="translate(-208 -1823)"><g transform="translate(197.608 1775.89)"><g transform="translate(0 0)"><g class="c"><g transform="translate(14.62 64.701)"><path d="M-170.976-191.285c-1.068-5.911,1.622-10.838,4.118-15.815-.6,5.473-1.027,10.994-4.118,15.815m15.788-31.865a5.119,5.119,0,0,0-.887.639c-2.124,1.624-4.248,3.249-6.726,5.146.269-.908.388-1.352.531-1.789,1.5-4.561,3.048-9.107,4.468-13.693a9.494,9.494,0,0,0,.206-3.233,1.136,1.136,0,0,0-1.664-1.07,3.686,3.686,0,0,0-1.754.95c-2.557,3.348-5.523,6.42-6.987,10.515-1.082,3.025-5.661,5.709-9.064,5.108.459-1.443.61-3.029,1.395-4.185,2.875-4.233,5.975-8.313,8.947-12.482a3.978,3.978,0,0,0,.323-1.452,7.314,7.314,0,0,0-1.945-.123c-.383.074-.718.579-1,.947a90.37,90.37,0,0,0-5.563,7.379c-2.629,4.252-6.469,7.366-9.749,11-.941,1.043-1.974.8-2.354-.555a6.67,6.67,0,0,1-.216-3.448c2.316-8.005,6.494-15.131,10.752-22.21.3-.505.584-1.025.88-1.545a3.515,3.515,0,0,0-4.846,1.182c-.713.967-1.482,1.893-2.185,2.868-3.236,4.5-6.427,9.025-9.694,13.5-2.235,3.06-4.57,6.047-6.86,9.067,2.365-10.4,7.244-19.686,11.826-29.1-1.717-.713-2.136-.635-3.367.94q-16.221,20.755-32.409,41.536a5.86,5.86,0,0,0-.468.859,2.527,2.527,0,0,0,1.941-.421,31.963,31.963,0,0,0,3.693-3.819q11.688-15.2,23.277-30.475a10.931,10.931,0,0,1-.426,1.71c-1.052,2.559-2.251,5.063-3.211,7.655-1.629,4.4-3.126,8.853-4.66,13.29-.366,1.058-.376,2.177.63,2.836,1.062.7,2.033.019,2.785-.733a18.36,18.36,0,0,0,2.094-2.525q6.692-9.666,13.34-19.364c.241-.35.539-.662.994-1.215-1.765,4.175-3.438,8.044-5.031,11.946-.709,1.737-1.307,3.524-1.861,5.317-.736,2.381-.172,4.422,1.412,5.513,1.49,1.026,3.229.817,5.331-.766,1.03-.776,1.95-1.7,2.931-2.563,1.687,3.035,3.532,3.508,6.464,1.735,1.609-.973,3.221-1.943,4.855-2.874.318-.181.922-.37,1.089-.219.912.826,1.524.142,2.2-.313.626-.424,1.243-.862,1.864-1.294-1,4.647-1.675,9.247-3.8,13.456a94.852,94.852,0,0,0-3.85,8.732,26.511,26.511,0,0,0-1.784,11.057,2.365,2.365,0,0,0,1.92,2.5,2.811,2.811,0,0,0,2.2-1.266,19.834,19.834,0,0,0,2.243-5.261c1.091-4.834,1.973-9.719,2.831-14.6.638-3.629,1.656-7.037,4.6-9.513,1.238-1.042,2.6-1.939,3.854-2.958a7.373,7.373,0,0,0,1.334-1.5c.114-.162,0-.593-.148-.79-.1-.124-.5-.124-.692-.034" transform="translate(223.602 250.162)"/></g><g transform="translate(115.932 69.599)"><path d="M-408.482-38.436c-.244-.4-1.423-.314-2.181-.316-.56,0-1.124.316-1.682.3-2.5-.055-5.008-.126-7.507-.285-7.453-.473-14.9-1.017-22.356-1.476-3.6-.222-3.982-.575-3.906-4.206a1.837,1.837,0,0,0-.016-.777c-.409-.829-.878-1.628-1.325-2.439A13.437,13.437,0,0,0-449.669-46c-1.078,1.185-1.981,2.529-3.007,3.765-.18.216-.6.233-.909.342-.014-.326-.149-.71-.023-.967.639-1.314,1.451-2.554,1.977-3.907.218-.559.095-1.719-.265-1.926a2.567,2.567,0,0,0-2.125.078,4.352,4.352,0,0,0-1.337,1.675,15.243,15.243,0,0,1-7.812,6.481,2.21,2.21,0,0,1-1.863-.056,2.851,2.851,0,0,1-.491-1.973,7.5,7.5,0,0,1,.62-1.925c.675-1.983.458-2.507-1.157-3.715-1.406-1.051-2.54-.571-3.623.444-.723.677-1.331,1.484-2.092,2.11a43.851,43.851,0,0,1-5.06,3.86,9.789,9.789,0,0,1-3.586.845c-.962.139-1.374-.477-1.109-1.358a12,12,0,0,1,1.076-2.549c.6-1.036.709-2.909-.055-3.327-1.189-.651-2.026.134-2.581,1.051-.94,1.553-1.766,3.177-2.6,4.792A8.4,8.4,0,0,1-490.8-37.7c-1.327.395-2-.241-1.713-1.6a5.764,5.764,0,0,1,.36-1.035c1.035-2.452,2.053-4.911,3.127-7.346a1.684,1.684,0,0,0-.832-2.354c-1.046-.692-1.265.3-1.651.794a18.55,18.55,0,0,0-1.543,2.357A90.546,90.546,0,0,1-502.7-32.617c-3.667,4.355-7.181,8.845-10.981,13.08-5.582,6.221-11.382,12.246-17.033,18.407-1.288,1.4-2.344,3.022-3.5,4.534,1.531,1.2,2.023,1.115,3-.07,4.23-5.112,8.29-10.385,12.794-15.247,7.708-8.322,15.718-16.366,22.107-25.812.094-.14.286-.213.557-.406.117.546.209.943.288,1.343.489,2.468,1.54,3.136,3.887,2.183a30.326,30.326,0,0,0,4.551-2.425c1.114-.693,2.071-1.147,3.437-.517a4.79,4.79,0,0,0,2.6.05c1.414-.235,2.8-.642,4.155-.966.9,1.96,1.666,2.426,3.3,1.832a10.011,10.011,0,0,0,2.362-1.47c.7-.517,1.332-1.133,2.148-1.837,2.006,3.059,4.538,2.643,7.224,1.334,1.263-.615,2.558-1.165,3.869-1.758a3.938,3.938,0,0,1,.348.581c.908,2.442,1.663,2.768,4.061,1.556,1.251-.632,2.417-1.431,3.792-2.257,1.38,2.836,3.432,4.053,6.451,3.211a1.652,1.652,0,0,1,.469-.006c8.409.234,16.82.419,25.225.736,2.176.082,4.548-.247,6.3,1.676a1.344,1.344,0,0,0,1.176.271c.738-.259,1.841-.576,2.007-1.113a3.707,3.707,0,0,0-.38-2.729" transform="translate(534.211 50.267)"/></g><g transform="translate(93.495 54.943)"><path d="M-104.6-38.566c-1.119,3.551-2.519,6.913-3.793,10.321-1.334,3.568-2.569,7.173-3.8,10.778-.47,1.376-.152,1.875,1.225,1.581a7.1,7.1,0,0,0,2.518-1.58c1.175-.913,2.223-2,3.442-2.841.94-.649,1.546-.289,1.842.923.767,3.142,1.659,6.255,2.543,9.367.129.455.4,1.071.761,1.224a2.426,2.426,0,0,0,3.294-1.888c.16-1.082.157-2.187.308-3.271a30.928,30.928,0,0,1,.94-5.682c3.516-10.323,9.174-19.21,18.067-25.758,1.112-.819,2.683-.991,3.986-1.584.639-.291,1.463-.773,1.62-1.331.123-.442-.513-1.349-1.043-1.672a3.186,3.186,0,0,0-4.023.665c-3.648,3.437-7.512,6.707-10.748,10.5-5.1,5.98-8.275,13.133-11.106,20.415-.245.63-.5,1.258-.888,2.253-1.46-6.723-2.51-7.563-7.944-6.6a14.028,14.028,0,0,1,.392-1.513c1.828-4.776,3.683-9.541,5.5-14.32a4.745,4.745,0,0,0,.482-2.094,2.907,2.907,0,0,0-1.022-1.794c-.243-.185-1.124.26-1.575.6a6.427,6.427,0,0,0-1.328,1.528c-5.574,8.213-11.117,16.447-16.715,24.643a23.952,23.952,0,0,1-2.436,2.643,1.628,1.628,0,0,1-.4-1.138c.452-4.474.95-8.933,2.886-13.088a14,14,0,0,0,1.2-3.536c.091-.547-.543-1.214-.849-1.827a4.615,4.615,0,0,0-1.367.782c-2.039,2.45-3.968,4.992-6.034,7.419-1.4,1.648-2.97,3.155-4.464,4.726l-.34-.251c.208-.572.4-1.152.628-1.714,2.779-6.759,5.577-13.511,8.322-20.285a4.312,4.312,0,0,0-.033-1.619,6.12,6.12,0,0,0-2.155.208c-.47.229-.771.965-.985,1.536q-4.421,11.806-8.786,23.632a2.542,2.542,0,0,0-.292,1.353,4.091,4.091,0,0,0,1.014,1.952c.275.243,1.264.056,1.646-.27a33.742,33.742,0,0,0,4.387-4.178c1.411-1.733,2.488-3.736,3.73-5.609.338-.51.748-.972,1.126-1.457a37.567,37.567,0,0,1-1.12,4.662,24.657,24.657,0,0,0-.9,10.071,2.914,2.914,0,0,0,1.484,2.092,3.951,3.951,0,0,0,2.62-.751,5.337,5.337,0,0,0,1.531-1.758c1.529-2.369,3.02-4.763,4.5-7.163q5.748-9.333,11.482-18.676a3.626,3.626,0,0,1,.671-.639" transform="translate(136.8 50.437)"/></g></g></g></g></g></svg>