<svg xmlns="http://www.w3.org/2000/svg" width="46.093" height="45.748" viewBox="0 0 46.093 45.748">
    <defs>
        <style>
            .cls-2{fill:#58595b;stroke:#58595b;stroke-width:.6px}
        </style>
    </defs>
    <g id="noun_graduation_convocation_ceremony_3135253" opacity="0.7" transform="translate(-2.759 -4.632)">
        <g id="Group_10532" transform="translate(3.059 4.933)">
            <path id="Path_18025" d="M31.248 93.375a.362.362 0 0 0 .378-.034l3.291-2.463 3.291 2.463a.361.361 0 0 0 .578-.289v-7.626H49.81a3.3 3.3 0 0 0 3.616-2.63c.675-2.04.568-5.531-1.7-6.339a1.917 1.917 0 0 0-1.343.052 3.466 3.466 0 0 0-2.333 4.509 1.657 1.657 0 0 0 3.193-.876l-.7.165a.934.934 0 0 1-1.8.5c-.349-1.172-.3-2.754 1.907-3.631a1.187 1.187 0 0 1 .833-.043c1.8.641 1.813 3.754 1.258 5.431-.528 1.6-1.368 2.218-2.924 2.133-2.114 0-3.484-2.445-3.484-4.8 0-2.24 1.281-4.809 3.484-4.809a.361.361 0 1 0 0-.723H20.123c-2.323 0-4.213 2.482-4.213 5.532s1.89 5.526 4.213 5.526h10.925v7.626a.362.362 0 0 0 .2.326zm6.815-1.045l-2.929-2.192a.362.362 0 0 0-.433 0l-2.93 2.192v-6.9h6.292zM45.61 79.9a5.922 5.922 0 0 0 2.128 4.8h-9.862a8.411 8.411 0 0 1 0-9.613h9.863A6.069 6.069 0 0 0 45.61 79.9zm-28.977 0c0-2.652 1.566-4.809 3.491-4.809h6.285a16.8 16.8 0 0 0-.688 4.094l.722.031a16.043 16.043 0 0 1 .718-4.125h1.587a16.851 16.851 0 0 0 0 9.613h-8.625c-1.923-.004-3.491-2.155-3.491-4.804zM29.5 75.091h1.827a16.569 16.569 0 0 0-.6 2.938l.719.078a15.825 15.825 0 0 1 .632-3.016h2.042a16.605 16.605 0 0 0-.608 3.049l.719.074a15.841 15.841 0 0 1 .644-3.123h2.127a9.136 9.136 0 0 0 0 9.613H29.5a16.12 16.12 0 0 1 0-9.613z" class="cls-2" transform="translate(-11.266 -48.274)"/>
            <path id="Path_18026" d="M48.308 13.349a.361.361 0 0 0 0-.683l-22.39-7.714a.363.363 0 0 0-.235 0L3.3 12.666a.361.361 0 0 0 0 .683l9.689 3.339v9.533c0 2.175 7.51 2.964 12.558 2.964S38.1 28.4 38.1 26.221v-9.355l6.258-2.156v3.038l-1.976 3.683a.361.361 0 0 0 .319.532h4.037a.361.361 0 0 0 .319-.532l-1.976-3.7v-3.27zM43.3 21.241l1.422-2.641 1.412 2.644zM25.8 5.676l21.281 7.331c-27.481 9.3-3.784 1.265-21.411 7.286L4.529 13.007zm11.576 20.545c0 .914-4.607 2.241-11.826 2.241s-11.836-1.327-11.836-2.241v-9.192l11.708 4.034a.363.363 0 0 0 .235 0h.026a.36.36 0 0 0 .235 0l11.457-3.947z" class="cls-2" transform="translate(-3.059 -4.933)"/>
            <path id="Path_18027" d="M60.337 24.832a3.186 3.186 0 1 0-3.16-3.189 3.178 3.178 0 0 0 3.16 3.189zm0-5.649a2.463 2.463 0 1 1-2.437 2.46 2.452 2.452 0 0 1 2.437-2.46z" class="cls-2" transform="translate(-37.619 -13.572)"/>
        </g>
    </g>
</svg>
