<svg xmlns="http://www.w3.org/2000/svg" width="290.342" height="73.027" viewBox="0 0 290.342 73.027">
    <defs>
        <style>
            .cls-1{fill:#a50c22}
        </style>
    </defs>
    <g id="Group_8700" data-name="Group 8700" transform="translate(-219.369 -312.02)">
        <g id="Group_8694" data-name="Group 8694">
            <path id="Path_17374" d="M303.694 356.887a8.535 8.535 0 0 1-2.028-.218 5.411 5.411 0 0 1-1.765-.822v-2.425h1.739l.192 1.245a1.588 1.588 0 0 0 .725.387 3.876 3.876 0 0 0 1.137.158 2.091 2.091 0 0 0 .718-.106.9.9 0 0 0 .436-.311.821.821 0 0 0 .152-.495.909.909 0 0 0-.138-.495 1.4 1.4 0 0 0-.452-.414 5.377 5.377 0 0 0-.847-.4 13.125 13.125 0 0 1-1.97-.782 3.049 3.049 0 0 1-1.146-.944 2.335 2.335 0 0 1-.375-1.354 2.169 2.169 0 0 1 .443-1.357 2.961 2.961 0 0 1 1.219-.915 4.726 4.726 0 0 1 1.778-.353 6.794 6.794 0 0 1 2.021.228 4.654 4.654 0 0 1 1.553.767v2.253h-1.669l-.263-1.252a2.847 2.847 0 0 0-.622-.2 3.959 3.959 0 0 0-.86-.09 2.17 2.17 0 0 0-.7.1 1.072 1.072 0 0 0-.481.308.759.759 0 0 0-.176.514.719.719 0 0 0 .147.445 1.551 1.551 0 0 0 .52.392 10.277 10.277 0 0 0 1.04.453 6.574 6.574 0 0 1 2.416 1.171 2.375 2.375 0 0 1 .825 1.909 2.229 2.229 0 0 1-.45 1.408 2.775 2.775 0 0 1-1.251.886 5.246 5.246 0 0 1-1.868.309z" class="cls-1" data-name="Path 17374"/>
            <path id="Path_17375" d="M329.982 356.887a5.114 5.114 0 0 1-2.381-.54 3.968 3.968 0 0 1-1.643-1.562 4.858 4.858 0 0 1-.6-2.486v-.431a5.021 5.021 0 0 1 .549-2.384 4 4 0 0 1 1.566-1.623 4.754 4.754 0 0 1 2.416-.588 6.558 6.558 0 0 1 1.858.26 4.571 4.571 0 0 1 1.639.89v2.406h-1.636l-.225-1.38a3.072 3.072 0 0 0-.458-.257 2.578 2.578 0 0 0-.514-.167 2.866 2.866 0 0 0-.587-.057 2.268 2.268 0 0 0-1.245.339 2.229 2.229 0 0 0-.825.986 3.765 3.765 0 0 0-.292 1.562v.444a3.554 3.554 0 0 0 .3 1.51 2.415 2.415 0 0 0 .844 1.018 2.187 2.187 0 0 0 1.254.365 3.8 3.8 0 0 0 .771-.08 5.127 5.127 0 0 0 .756-.215l.225-1.322h1.646v2.355a5.57 5.57 0 0 1-1.425.671 6.348 6.348 0 0 1-1.993.286z" class="cls-1" data-name="Path 17375"/>
            <path id="Path_17376" d="M351.617 356.752v-1.316l.969-.205v-6.3l-.969-.2v-1.322h4.191v1.322l-.969.2v2.369h3.4v-2.363l-.969-.2v-1.322h4.184v1.322l-.969.2v6.3l.969.205v1.316h-4.184v-1.316l.969-.205v-2.208h-3.4v2.208l.969.205v1.316z" class="cls-1" data-name="Path 17376"/>
            <path id="Path_17377" d="M384.169 356.887a4.388 4.388 0 0 1-1.781-.356 4.215 4.215 0 0 1-1.409-1 4.516 4.516 0 0 1-.921-1.5 5.3 5.3 0 0 1-.324-1.877V352a5.254 5.254 0 0 1 .324-1.867 4.528 4.528 0 0 1 .918-1.5 4.223 4.223 0 0 1 1.4-1 4.539 4.539 0 0 1 3.543 0 4.419 4.419 0 0 1 1.427 1 4.583 4.583 0 0 1 .954 1.5 5.046 5.046 0 0 1 .339 1.867v.148a5.091 5.091 0 0 1-.339 1.877 4.622 4.622 0 0 1-.951 1.5 4.323 4.323 0 0 1-3.182 1.354zm0-1.708a1.944 1.944 0 0 0 1.206-.377 2.349 2.349 0 0 0 .763-1.06 4.38 4.38 0 0 0 .264-1.591v-.161a4.271 4.271 0 0 0-.266-1.568 2.373 2.373 0 0 0-.768-1.056 2.171 2.171 0 0 0-2.441-.007 2.177 2.177 0 0 0-.709 1.046 4.9 4.9 0 0 0-.231 1.585v.161a4.926 4.926 0 0 0 .234 1.6 2.2 2.2 0 0 0 .719 1.058 1.947 1.947 0 0 0 1.229.37z" class="cls-1" data-name="Path 17377"/>
            <path id="Path_17378" d="M411.452 356.887a4.388 4.388 0 0 1-1.781-.356 4.211 4.211 0 0 1-1.408-1 4.5 4.5 0 0 1-.921-1.5 5.279 5.279 0 0 1-.325-1.877V352a5.232 5.232 0 0 1 .325-1.867 4.51 4.51 0 0 1 .917-1.5 4.234 4.234 0 0 1 1.4-1 4.539 4.539 0 0 1 3.543 0 4.434 4.434 0 0 1 1.428 1 4.6 4.6 0 0 1 .953 1.5 5.046 5.046 0 0 1 .34 1.867v.148a5.092 5.092 0 0 1-.34 1.877 4.636 4.636 0 0 1-.95 1.5 4.327 4.327 0 0 1-3.183 1.354zm0-1.708a1.942 1.942 0 0 0 1.206-.377 2.358 2.358 0 0 0 .764-1.06 4.4 4.4 0 0 0 .263-1.591v-.161a4.271 4.271 0 0 0-.266-1.568 2.372 2.372 0 0 0-.767-1.056 2.173 2.173 0 0 0-2.442-.007 2.177 2.177 0 0 0-.709 1.046 4.9 4.9 0 0 0-.231 1.585v.161a4.926 4.926 0 0 0 .234 1.6 2.2 2.2 0 0 0 .719 1.058 1.947 1.947 0 0 0 1.229.37z" class="cls-1" data-name="Path 17378"/>
            <path id="Path_17379" d="M434.159 356.752v-1.316l.969-.205v-6.3l-.969-.2v-1.322h4.4v1.322l-1.181.2v6.091h2.222l.051-1.3h1.72v3.029z" class="cls-1" data-name="Path 17379"/>
            <path id="Path_17380" d="M463.534 356.887a8.534 8.534 0 0 1-2.028-.218 5.411 5.411 0 0 1-1.765-.822v-2.425h1.739l.193 1.245a1.582 1.582 0 0 0 .725.387 3.865 3.865 0 0 0 1.136.158 2.1 2.1 0 0 0 .719-.106.907.907 0 0 0 .436-.311.828.828 0 0 0 .148-.494.918.918 0 0 0-.138-.495 1.4 1.4 0 0 0-.453-.414 5.377 5.377 0 0 0-.847-.4 13.125 13.125 0 0 1-1.97-.782 3.045 3.045 0 0 1-1.145-.944 2.328 2.328 0 0 1-.376-1.354 2.169 2.169 0 0 1 .443-1.357 2.974 2.974 0 0 1 1.219-.915 4.73 4.73 0 0 1 1.778-.353 6.794 6.794 0 0 1 2.021.228 4.654 4.654 0 0 1 1.553.767v2.253h-1.668l-.263-1.252a2.858 2.858 0 0 0-.623-.2 3.953 3.953 0 0 0-.86-.09 2.159 2.159 0 0 0-.7.1 1.075 1.075 0 0 0-.482.308.764.764 0 0 0-.176.514.714.714 0 0 0 .148.445 1.541 1.541 0 0 0 .52.392 10.242 10.242 0 0 0 1.039.453 6.574 6.574 0 0 1 2.416 1.171 2.375 2.375 0 0 1 .825 1.909 2.234 2.234 0 0 1-.449 1.408 2.784 2.784 0 0 1-1.252.886 5.242 5.242 0 0 1-1.863.308z" class="cls-1" data-name="Path 17380"/>
        </g>
        <path id="Line_1250" fill="none" stroke="#464749" stroke-miterlimit="10" stroke-width="0.754px" d="M0 0L167.174 0" data-name="Line 1250" transform="translate(299.9 366.219)"/>
        <g id="Group_8695" data-name="Group 8695">
            <path id="Path_17381" d="M309.237 341.307a17.658 17.658 0 0 1-4.916-.656 14.642 14.642 0 0 1-4.421-2.185v-5.945h3.462l.567 3.851a7.694 7.694 0 0 0 2.317 1.082 10.453 10.453 0 0 0 2.991.41 6.857 6.857 0 0 0 2.653-.453 3.679 3.679 0 0 0 1.643-1.271 3.3 3.3 0 0 0 .568-1.933 3.4 3.4 0 0 0-.5-1.829 4.316 4.316 0 0 0-1.651-1.429 14.7 14.7 0 0 0-3.124-1.163 22.112 22.112 0 0 1-4.836-1.845 8.046 8.046 0 0 1-2.93-2.557 6.654 6.654 0 0 1 .142-7.189 7.641 7.641 0 0 1 3.133-2.52 11.162 11.162 0 0 1 4.633-.941 14.715 14.715 0 0 1 5.086.746 12.178 12.178 0 0 1 3.736 2.041v5.557h-3.39l-.639-3.622a6.8 6.8 0 0 0-1.89-.879 9.25 9.25 0 0 0-2.743-.363 5.972 5.972 0 0 0-2.378.443 3.8 3.8 0 0 0-1.616 1.252 3.186 3.186 0 0 0-.586 1.925 2.86 2.86 0 0 0 .516 1.7 4.458 4.458 0 0 0 1.721 1.322 20.729 20.729 0 0 0 3.265 1.2 15.171 15.171 0 0 1 6.373 3.09 6.489 6.489 0 0 1 2.166 5.023 6.244 6.244 0 0 1-1.162 3.755 7.534 7.534 0 0 1-3.267 2.492 12.6 12.6 0 0 1-4.926.889" class="cls-1" data-name="Path 17381"/>
            <path id="Path_17382" d="M332.348 341.307a10.855 10.855 0 0 1-4.649-.968 10.268 10.268 0 0 1-3.56-2.724 12.512 12.512 0 0 1-2.281-4.154 16.542 16.542 0 0 1-.8-5.254v-.391a16.482 16.482 0 0 1 .8-5.236 12.6 12.6 0 0 1 2.281-4.162 10.186 10.186 0 0 1 3.56-2.733 10.811 10.811 0 0 1 4.631-.968 11.163 11.163 0 0 1 4.74.968 10.093 10.093 0 0 1 3.569 2.733 12.458 12.458 0 0 1 2.253 4.162 16.8 16.8 0 0 1 .781 5.236v.391a16.864 16.864 0 0 1-.781 5.254 12.37 12.37 0 0 1-2.253 4.154 10.173 10.173 0 0 1-3.569 2.724 11.119 11.119 0 0 1-4.722.968m0-3.551a6.04 6.04 0 0 0 3.861-1.2 7.038 7.038 0 0 0 2.255-3.346 15.456 15.456 0 0 0 .736-5.005v-.426a14.956 14.956 0 0 0-.746-4.952 7.154 7.154 0 0 0-2.262-3.338 6.012 6.012 0 0 0-3.862-1.207 5.8 5.8 0 0 0-3.745 1.207 7.312 7.312 0 0 0-2.272 3.338 14.684 14.684 0 0 0-.763 4.952v.426a14.991 14.991 0 0 0 .763 5 7.205 7.205 0 0 0 2.281 3.354 5.869 5.869 0 0 0 3.754 1.2" class="cls-1" data-name="Path 17382"/>
            <path id="Path_17383" d="M346.1 340.934V338.2l2.8-.532v-19.295l-2.8-.532v-2.752h9.213l7.587 18.691h.1l7.349-18.692h9.318v2.752l-2.822.532v19.294l2.822.532v2.734h-10.1V338.2l2.964-.532v-6.017l.035-11.308-.089-.016-8.006 20.021h-3.248l-8.237-19.916-.087.019.231 10.9v6.319l3.07.532v2.734z" class="cls-1" data-name="Path 17383"/>
            <path id="Path_17384" d="M380.842 340.934V338.2l1.883-.265 8.554-22.846h4.35l8.449 22.846 1.881.265v2.734h-8.218V338.2l1.846-.337-1.368-4.065H388.6l-1.4 4.065 1.863.337v2.734zm8.929-10.562h7.3l-3.355-9.567-.23-.692h-.107l-.249.727z" class="cls-1" data-name="Path 17384"/>
            <path id="Path_17385" d="M408.072 340.934V338.2l2.822-.532v-19.295l-2.822-.532v-2.752h10.1v2.752l-2.8.532v19.294l2.8.532v2.734z" class="cls-1" data-name="Path 17385"/>
            <path id="Path_17386" d="M427.313 340.934V338.2l2.8-.532v-5.822l-7.775-13.651-2.338-.354v-2.752h9.727v2.752l-2.467.319 4.794 9.053.39.781.07-.035.372-.729 5.184-9.071-2.929-.319v-2.752h9.532v2.752l-2.432.354-7.667 13.3v6.176l2.822.532v2.734z" class="cls-1" data-name="Path 17386"/>
            <path id="Path_17387" d="M441.957 340.934V338.2l1.882-.265 8.555-22.846h4.349l8.45 22.846 1.881.265v2.734h-8.219V338.2l1.846-.337-1.367-4.065h-9.621l-1.4 4.065 1.864.337v2.734zm8.929-10.562h7.3l-3.355-9.567-.23-.692h-.107l-.249.727z" class="cls-1" data-name="Path 17387"/>
        </g>
        <path id="Path_17451" fill="#464749" d="M2.555-2.25l-.773-.891 4.124-4.382.018-.023-.756-.076v-.908H8.35v.908l-.8.158zM.387 0v-.9l.932-.176v-6.371l-.932-.176v-.908H3.7v.908l-.9.176v6.369l.9.178V0zm4.968 0v-.9l.756-.076v-.008L3.861-4.09l.926-1.037L7.84-1.049l.814.149V0zm9.668.123a3.389 3.389 0 0 1-1.444-.293 2.3 2.3 0 0 1-1-.894 3.05 3.05 0 0 1-.407-1.509l.012-.035h1.4a1.834 1.834 0 0 0 .381 1.21 1.261 1.261 0 0 0 .955.36 1.3 1.3 0 0 0 .691-.176 1.133 1.133 0 0 0 .439-.5 1.852 1.852 0 0 0 .15-.786v-4.947l-1.143-.17v-.914h3.551v.908l-.937.176V-2.5a3 3 0 0 1-.3 1.389 2.135 2.135 0 0 1-.894.914 2.987 2.987 0 0 1-1.454.32zm10.5 0A5.823 5.823 0 0 1 23.9-.094a4.835 4.835 0 0 1-1.459-.721v-1.962h1.143l.188 1.271a2.547 2.547 0 0 0 .765.357 3.457 3.457 0 0 0 .987.135 2.26 2.26 0 0 0 .876-.149 1.213 1.213 0 0 0 .542-.419 1.09 1.09 0 0 0 .188-.639 1.119 1.119 0 0 0-.164-.6 1.424 1.424 0 0 0-.546-.479 4.831 4.831 0 0 0-1.031-.384 7.308 7.308 0 0 1-1.6-.609 2.653 2.653 0 0 1-.967-.844 2.056 2.056 0 0 1-.325-1.16 2.051 2.051 0 0 1 .372-1.213 2.521 2.521 0 0 1 1.034-.832 3.684 3.684 0 0 1 1.529-.311 4.845 4.845 0 0 1 1.679.246 4.022 4.022 0 0 1 1.233.674v1.834h-1.115l-.211-1.2a2.24 2.24 0 0 0-.624-.29 3.044 3.044 0 0 0-.905-.12 1.969 1.969 0 0 0-.785.146 1.254 1.254 0 0 0-.533.413 1.054 1.054 0 0 0-.193.636.949.949 0 0 0 .17.563 1.481 1.481 0 0 0 .568.437 6.925 6.925 0 0 0 1.078.4 5.011 5.011 0 0 1 2.1 1.02 2.143 2.143 0 0 1 .715 1.658 2.058 2.058 0 0 1-.384 1.239 2.484 2.484 0 0 1-1.078.823 4.16 4.16 0 0 1-1.624.297zm6.861 0a2.9 2.9 0 0 1-1.57-.41 2.686 2.686 0 0 1-1.008-1.14 3.822 3.822 0 0 1-.352-1.679v-.123a3.789 3.789 0 0 1 .352-1.67 2.729 2.729 0 0 1 1.008-1.143 2.849 2.849 0 0 1 1.559-.416 2.887 2.887 0 0 1 1.57.413A2.709 2.709 0 0 1 34.951-4.9a3.8 3.8 0 0 1 .349 1.671v.123a3.822 3.822 0 0 1-.352 1.679 2.692 2.692 0 0 1-1 1.14 2.877 2.877 0 0 1-1.563.41zm0-1.137a1.223 1.223 0 0 0 .816-.266 1.594 1.594 0 0 0 .478-.738 3.416 3.416 0 0 0 .158-1.087v-.123a3.368 3.368 0 0 0-.158-1.078 1.6 1.6 0 0 0-.48-.738 1.235 1.235 0 0 0-.82-.27 1.218 1.218 0 0 0-.809.27 1.584 1.584 0 0 0-.478.738 3.427 3.427 0 0 0-.155 1.078v.123a3.475 3.475 0 0 0 .155 1.087 1.555 1.555 0 0 0 .48.738 1.247 1.247 0 0 0 .814.266zM36.082 0v-.9l.885-.176v-4.18l-.932-.176v-.908h2.285l.07.832a2.182 2.182 0 0 1 .776-.7 2.259 2.259 0 0 1 1.081-.249 1.957 1.957 0 0 1 1.063.278 1.72 1.72 0 0 1 .671.841 2.242 2.242 0 0 1 .771-.82 2.071 2.071 0 0 1 1.122-.3 1.86 1.86 0 0 1 1.5.65 3 3 0 0 1 .548 1.969v2.76l.885.176V0h-3.19v-.9l.832-.176v-2.768a1.784 1.784 0 0 0-.27-1.125.973.973 0 0 0-.791-.322 1.089 1.089 0 0 0-.8.311 1.482 1.482 0 0 0-.407.791v3.111l.8.176V0h-3.073v-.9l.8-.176v-2.768a1.763 1.763 0 0 0-.275-1.11.97.97 0 0 0-.8-.337 1.406 1.406 0 0 0-.729.176 1.275 1.275 0 0 0-.472.5v3.539l.826.176V0zm13.512.123a2.136 2.136 0 0 1-1.506-.5 1.774 1.774 0 0 1-.539-1.371 1.736 1.736 0 0 1 .328-1.049 2.136 2.136 0 0 1 .961-.706 4.112 4.112 0 0 1 1.535-.255h.967v-.533a1.079 1.079 0 0 0-.3-.8 1.193 1.193 0 0 0-.876-.3 1.938 1.938 0 0 0-.58.079 1.527 1.527 0 0 0-.451.226L49-4.23h-1.088L47.9-5.795a4.183 4.183 0 0 1 1.043-.483 4.286 4.286 0 0 1 1.277-.179 2.927 2.927 0 0 1 1.9.565 1.969 1.969 0 0 1 .694 1.62V-1.225q0 .123.015.24l.645.082V0h-1.923q-.059-.205-.108-.4a2.993 2.993 0 0 1-.073-.387 2.621 2.621 0 0 1-.765.653 2.008 2.008 0 0 1-1.011.257zm.334-1.143a1.73 1.73 0 0 0 .832-.208 1.479 1.479 0 0 0 .58-.524v-1.06h-.984a1.436 1.436 0 0 0-1 .308.945.945 0 0 0-.337.718.7.7 0 0 0 .234.568 1.013 1.013 0 0 0 .675.198zM54.158 0v-.9l.879-.176v-4.18l-.932-.176v-.908h2.408v5.262l.873.176V0zm.82-7.775v-1.366h1.535v1.365zm4.67 10.336a2.9 2.9 0 0 1-.419-.035 2.964 2.964 0 0 1-.413-.088l.164-1.108q.105.018.255.029t.237.012a.884.884 0 0 0 .621-.231A1.669 1.669 0 0 0 60.5.5l.193-.51-2.164-5.316-.738-.105v-.909h3.07v.908l-.779.117 1.1 2.953.193.551h.035l1.3-3.51-.779-.111v-.908h2.912v.908l-.686.1L61.705.955a3.794 3.794 0 0 1-.437.812 1.911 1.911 0 0 1-.656.58 2 2 0 0 1-.964.214zM67.359.123a2.136 2.136 0 0 1-1.506-.5 1.774 1.774 0 0 1-.539-1.371 1.736 1.736 0 0 1 .328-1.049A2.136 2.136 0 0 1 66.6-3.5a4.112 4.112 0 0 1 1.535-.255h.967v-.533a1.079 1.079 0 0 0-.3-.8 1.193 1.193 0 0 0-.876-.3 1.938 1.938 0 0 0-.58.079 1.527 1.527 0 0 0-.451.226l-.135.855h-1.082l-.012-1.564a4.183 4.183 0 0 1 1.043-.483 4.286 4.286 0 0 1 1.277-.179 2.927 2.927 0 0 1 1.9.565 1.969 1.969 0 0 1 .694 1.62V-1.222q0 .123.015.24l.645.082V0h-1.924q-.059-.205-.108-.4a2.993 2.993 0 0 1-.073-.387 2.621 2.621 0 0 1-.765.653 2.008 2.008 0 0 1-1.011.257zm.334-1.143a1.73 1.73 0 0 0 .832-.208 1.479 1.479 0 0 0 .58-.524v-1.06h-.984a1.436 1.436 0 0 0-1 .308.945.945 0 0 0-.337.718.7.7 0 0 0 .234.568 1.013 1.013 0 0 0 .675.198zM74.918 0v-.9l.932-.176v-6.371l-.932-.176v-.908h6.5v2.2h-1.15l-.1-1.061h-2.842v2.412h2.994v1.143h-2.994v2.713h3l.1-1.084h1.137V0zm7.629 0v-.9l.879-.176v-4.18l-.926-.176v-.908h2.285l.076.92a2.3 2.3 0 0 1 .788-.765 2.1 2.1 0 0 1 1.069-.272 1.952 1.952 0 0 1 1.523.6 2.734 2.734 0 0 1 .545 1.878v2.9l.879.176V0h-3.181v-.9l.826-.176v-2.891a1.464 1.464 0 0 0-.287-1.022 1.127 1.127 0 0 0-.855-.3 1.431 1.431 0 0 0-.747.19 1.468 1.468 0 0 0-.519.53v3.492l.8.176V0zm10.512 2.561a4.867 4.867 0 0 1-1.04-.126 4.153 4.153 0 0 1-1-.349l.3-1.078a4.456 4.456 0 0 0 .826.275 3.762 3.762 0 0 0 .855.106 1.312 1.312 0 0 0 1.063-.4A1.715 1.715 0 0 0 94.4-.146v-.5a1.971 1.971 0 0 1-.7.571 2.094 2.094 0 0 1-.926.2 2.286 2.286 0 0 1-1.333-.387 2.435 2.435 0 0 1-.855-1.084 4.112 4.112 0 0 1-.3-1.617v-.123a4.84 4.84 0 0 1 .3-1.77 2.653 2.653 0 0 1 .85-1.178 2.117 2.117 0 0 1 1.321-.422 2.045 2.045 0 0 1 1.008.237 2.119 2.119 0 0 1 .727.677l.111-.8h1.271v6.2a2.925 2.925 0 0 1-.334 1.433 2.286 2.286 0 0 1-.967.938 3.236 3.236 0 0 1-1.514.332zm.117-3.6a1.389 1.389 0 0 0 .729-.182 1.39 1.39 0 0 0 .5-.527v-2.828a1.478 1.478 0 0 0-.5-.524 1.332 1.332 0 0 0-.721-.19 1.16 1.16 0 0 0-.8.278 1.638 1.638 0 0 0-.463.773 4 4 0 0 0-.149 1.151v.123a2.553 2.553 0 0 0 .337 1.4 1.18 1.18 0 0 0 1.067.522zm2.5-4.184l-.619-1.117h1.582v.908zM97.107 0v-.9l.885-.176v-6.981l-.937-.176v-.908h2.408v8.063l.885.176V0zm3.861 0v-.9l.879-.176v-4.18l-.932-.176v-.908h2.408v5.262l.877.178V0zm.82-7.775v-1.366h1.535v1.365zm5.73 7.9a5.8 5.8 0 0 1-1.269-.132A6.524 6.524 0 0 1 105.07-.4l-.018-1.676h1.061l.223.914a2.886 2.886 0 0 0 .519.173 2.65 2.65 0 0 0 .595.062 1.387 1.387 0 0 0 .894-.223.7.7 0 0 0 .256-.55.682.682 0 0 0-.272-.542 2.592 2.592 0 0 0-1.04-.39 3.728 3.728 0 0 1-1.673-.718 1.558 1.558 0 0 1-.536-1.228 1.676 1.676 0 0 1 .278-.943 1.94 1.94 0 0 1 .82-.677 3.121 3.121 0 0 1 1.333-.255 4.978 4.978 0 0 1 1.28.149 3.474 3.474 0 0 1 .952.4l.035 1.611h-1.049l-.182-.838a1.4 1.4 0 0 0-.422-.2 1.964 1.964 0 0 0-.551-.07 1.24 1.24 0 0 0-.768.214.649.649 0 0 0-.281.536.651.651 0 0 0 .091.34.8.8 0 0 0 .352.278 3.853 3.853 0 0 0 .765.243 4.2 4.2 0 0 1 1.77.75 1.542 1.542 0 0 1 .533 1.225 1.772 1.772 0 0 1-.621 1.395 2.817 2.817 0 0 1-1.894.543zM110.777 0v-.9l.879-.176v-6.981l-.932-.176v-.908h2.4v3.621a2.2 2.2 0 0 1 .768-.691 2.14 2.14 0 0 1 1.031-.246 1.961 1.961 0 0 1 1.538.624 2.818 2.818 0 0 1 .56 1.925v2.83l.879.178V0h-3.182v-.9l.832-.176V-3.92a1.537 1.537 0 0 0-.293-1.049 1.105 1.105 0 0 0-.861-.322 1.489 1.489 0 0 0-.729.179 1.544 1.544 0 0 0-.542.5v3.533l.832.176V0zm10.764 0v-.9l.926-.176v-6.371l-.926-.176v-.908h3.041l2.5 6.17h.035l2.426-6.17h3.076v.908l-.932.176v6.369l.932.176V0h-3.334v-.9l.979-.176v-1.988l.012-3.732-.029-.006-2.642 6.609h-1.072l-2.719-6.574-.029.006.076 3.6v2.086l1.014.176V0zm14.848.123a2.964 2.964 0 0 1-1.562-.4 2.734 2.734 0 0 1-1.031-1.11 3.486 3.486 0 0 1-.366-1.623v-.246a3.651 3.651 0 0 1 .36-1.649 2.832 2.832 0 0 1 .993-1.137 2.578 2.578 0 0 1 1.441-.413 2.789 2.789 0 0 1 1.444.346 2.2 2.2 0 0 1 .882.981 3.564 3.564 0 0 1 .3 1.526v.844h-3.891l-.012.029a2.285 2.285 0 0 0 .208.885 1.459 1.459 0 0 0 .527.609 1.5 1.5 0 0 0 .835.223 2.952 2.952 0 0 0 .938-.141 2.882 2.882 0 0 0 .779-.4l.463.926a3.212 3.212 0 0 1-.955.533 3.858 3.858 0 0 1-1.353.217zM134.982-3.8h2.455v-.152a1.947 1.947 0 0 0-.126-.729 1.029 1.029 0 0 0-.393-.489 1.206 1.206 0 0 0-.677-.176 1.026 1.026 0 0 0-.627.2 1.4 1.4 0 0 0-.431.542 2.65 2.65 0 0 0-.22.776zm7.266 3.92a2.209 2.209 0 0 1-1.312-.387 2.44 2.44 0 0 1-.835-1.081 4.18 4.18 0 0 1-.29-1.62v-.123a4.928 4.928 0 0 1 .29-1.77 2.634 2.634 0 0 1 .838-1.178 2.074 2.074 0 0 1 1.3-.422 2.067 2.067 0 0 1 .952.208 2.034 2.034 0 0 1 .7.595v-2.4l-.932-.176v-.908h2.408v8.063l.879.176V0h-2.156l-.117-.768a2 2 0 0 1-.729.665 2.123 2.123 0 0 1-.996.226zm.416-1.166a1.376 1.376 0 0 0 .727-.185 1.438 1.438 0 0 0 .5-.536v-2.792a1.505 1.505 0 0 0-.5-.536 1.305 1.305 0 0 0-.718-.2 1.13 1.13 0 0 0-.788.278 1.643 1.643 0 0 0-.454.773 4.072 4.072 0 0 0-.146 1.151v.123a2.626 2.626 0 0 0 .325 1.4 1.145 1.145 0 0 0 1.054.527zM146.854 0v-.9l.879-.176v-4.18l-.932-.176v-.908h2.408v5.262l.873.176V0zm.82-7.775v-1.366h1.535v1.365zm5.807 7.9a2.011 2.011 0 0 1-1.591-.647 2.984 2.984 0 0 1-.571-2.013v-2.721l-.715-.176v-.908h2.191v3.814a1.91 1.91 0 0 0 .261 1.151.963.963 0 0 0 .806.331 1.637 1.637 0 0 0 .817-.19 1.4 1.4 0 0 0 .536-.542v-3.48l-.8-.176v-.908h2.273v5.262l.75.176V0h-2.057l-.1-.861a2.084 2.084 0 0 1-.759.729 2.121 2.121 0 0 1-1.042.255zM158.1 0v-.9l.885-.176v-4.18l-.932-.176v-.908h2.285l.07.832a2.182 2.182 0 0 1 .776-.7 2.259 2.259 0 0 1 1.081-.249 1.957 1.957 0 0 1 1.063.278 1.72 1.72 0 0 1 .671.841 2.242 2.242 0 0 1 .771-.82 2.071 2.071 0 0 1 1.122-.3 1.86 1.86 0 0 1 1.5.65 3 3 0 0 1 .548 1.969v2.76l.885.176V0h-3.193v-.9l.832-.176v-2.768a1.784 1.784 0 0 0-.27-1.125.973.973 0 0 0-.791-.322 1.089 1.089 0 0 0-.8.311 1.482 1.482 0 0 0-.407.791v3.111l.8.176V0h-3.066v-.9l.8-.176v-2.768a1.763 1.763 0 0 0-.275-1.11.97.97 0 0 0-.8-.337 1.406 1.406 0 0 0-.729.176 1.275 1.275 0 0 0-.472.5v3.539l.826.176V0zm17.678.123a5.823 5.823 0 0 1-1.623-.217 4.835 4.835 0 0 1-1.455-.72v-1.963h1.143l.188 1.271a2.547 2.547 0 0 0 .765.357 3.457 3.457 0 0 0 .987.135 2.26 2.26 0 0 0 .876-.149 1.213 1.213 0 0 0 .542-.419 1.09 1.09 0 0 0 .188-.639 1.119 1.119 0 0 0-.164-.6 1.424 1.424 0 0 0-.545-.472 4.831 4.831 0 0 0-1.031-.384 7.308 7.308 0 0 1-1.6-.609 2.653 2.653 0 0 1-.967-.844 2.056 2.056 0 0 1-.325-1.16 2.051 2.051 0 0 1 .372-1.213 2.521 2.521 0 0 1 1.034-.832 3.684 3.684 0 0 1 1.529-.311 4.845 4.845 0 0 1 1.679.246 4.022 4.022 0 0 1 1.233.674v1.834h-1.119l-.211-1.2a2.24 2.24 0 0 0-.624-.29 3.044 3.044 0 0 0-.905-.12 1.969 1.969 0 0 0-.785.146 1.254 1.254 0 0 0-.533.413 1.054 1.054 0 0 0-.193.636.949.949 0 0 0 .17.563 1.481 1.481 0 0 0 .568.437 6.925 6.925 0 0 0 1.078.4 5.011 5.011 0 0 1 2.1 1.02 2.143 2.143 0 0 1 .715 1.658 2.058 2.058 0 0 1-.384 1.239 2.484 2.484 0 0 1-1.078.823 4.16 4.16 0 0 1-1.622.29zm6.838 0a2.859 2.859 0 0 1-1.544-.407 2.707 2.707 0 0 1-1.008-1.125 3.692 3.692 0 0 1-.354-1.655v-.206a3.7 3.7 0 0 1 .352-1.641 2.723 2.723 0 0 1 1-1.134 2.828 2.828 0 0 1 1.544-.413 3.554 3.554 0 0 1 1.418.261 3.144 3.144 0 0 1 .99.647l.006 1.693h-1.12l-.217-1.119a1.2 1.2 0 0 0-.416-.272 1.448 1.448 0 0 0-.551-.1 1.319 1.319 0 0 0-.829.264 1.631 1.631 0 0 0-.521.729 3.026 3.026 0 0 0-.179 1.087v.205a3.057 3.057 0 0 0 .182 1.125 1.512 1.512 0 0 0 .507.691 1.245 1.245 0 0 0 .747.234 1.224 1.224 0 0 0 .829-.275 1.319 1.319 0 0 0 .419-.762h1.277l.018.035a2.66 2.66 0 0 1-.366 1.1 2.048 2.048 0 0 1-.832.759 2.942 2.942 0 0 1-1.349.279zM185.877 0v-.9l.879-.176v-6.981l-.932-.176v-.908h2.4v3.621a2.2 2.2 0 0 1 .768-.691 2.14 2.14 0 0 1 1.031-.246 1.961 1.961 0 0 1 1.538.624 2.818 2.818 0 0 1 .56 1.925v2.83L193-.9V0h-3.18v-.9l.832-.176V-3.92a1.537 1.537 0 0 0-.293-1.049 1.105 1.105 0 0 0-.861-.322 1.489 1.489 0 0 0-.729.179 1.544 1.544 0 0 0-.542.5v3.533l.832.176V0zm10.664.123a2.9 2.9 0 0 1-1.57-.41 2.686 2.686 0 0 1-1.008-1.14 3.822 3.822 0 0 1-.352-1.679v-.123a3.789 3.789 0 0 1 .352-1.67 2.729 2.729 0 0 1 1.008-1.143 2.849 2.849 0 0 1 1.559-.416 2.887 2.887 0 0 1 1.57.413 2.709 2.709 0 0 1 1.008 1.14 3.8 3.8 0 0 1 .352 1.676v.123a3.822 3.822 0 0 1-.352 1.679 2.692 2.692 0 0 1-1 1.14 2.877 2.877 0 0 1-1.567.41zm0-1.137a1.223 1.223 0 0 0 .812-.267 1.594 1.594 0 0 0 .478-.738 3.416 3.416 0 0 0 .158-1.087v-.123a3.368 3.368 0 0 0-.158-1.078 1.6 1.6 0 0 0-.48-.738 1.235 1.235 0 0 0-.82-.27 1.218 1.218 0 0 0-.809.27 1.584 1.584 0 0 0-.478.738 3.427 3.427 0 0 0-.155 1.078v.123a3.475 3.475 0 0 0 .155 1.087 1.555 1.555 0 0 0 .48.738 1.247 1.247 0 0 0 .817.267zm6.814 1.137a2.9 2.9 0 0 1-1.57-.41 2.686 2.686 0 0 1-1.008-1.14 3.822 3.822 0 0 1-.352-1.679v-.123a3.789 3.789 0 0 1 .352-1.67 2.729 2.729 0 0 1 1.008-1.143 2.849 2.849 0 0 1 1.559-.416 2.887 2.887 0 0 1 1.57.413 2.709 2.709 0 0 1 1.008 1.14 3.8 3.8 0 0 1 .352 1.676v.123a3.822 3.822 0 0 1-.352 1.679 2.692 2.692 0 0 1-1 1.14 2.877 2.877 0 0 1-1.567.41zm0-1.137a1.223 1.223 0 0 0 .812-.267 1.594 1.594 0 0 0 .478-.738 3.416 3.416 0 0 0 .158-1.087v-.123a3.368 3.368 0 0 0-.158-1.078 1.6 1.6 0 0 0-.48-.738 1.235 1.235 0 0 0-.82-.27 1.218 1.218 0 0 0-.809.27 1.584 1.584 0 0 0-.478.738 3.427 3.427 0 0 0-.155 1.078v.123a3.475 3.475 0 0 0 .155 1.087 1.555 1.555 0 0 0 .48.738 1.247 1.247 0 0 0 .817.267zM206.895 0v-.9l.885-.176v-6.981l-.937-.176v-.908h2.408v8.063l.885.176V0z" data-name="Path 17451" transform="translate(299.576 382.486)"/>
        <g id="Group_8696" data-name="Group 8696">
            <path id="Path_17388" d="M254.225 316.291a1.3 1.3 0 0 1-.157.052c-.708.086-.708.086-1.008-.557-.175-.372-.175-.371-.6-.337-.346.027-.691.057-1.036.07a.378.378 0 0 0-.419.341 6.655 6.655 0 0 1-.205.7l-.858.066c.042-.159.068-.272.1-.382q.581-1.883 1.166-3.764c.1-.309.1-.317.416-.326.705-.02.523-.154.845.5.522 1.06 1.03 2.129 1.543 3.193.067.139.13.278.206.444m-2.356-3.074l-.094.009-.46 1.606 1.252-.084c-.247-.555-.457-1.05-.7-1.531" class="cls-1" data-name="Path 17388"/>
            <path id="Path_17389" d="M256.355 314.942a1.614 1.614 0 1 1 1.64 1.587 1.518 1.518 0 0 1-1.64-1.587m2.429-.092l-.034-.006a1.913 1.913 0 0 0 0-.214.771.771 0 0 0-1.515-.157 1.4 1.4 0 0 0-.026.843.764.764 0 0 0 .7.573.743.743 0 0 0 .755-.487 3.881 3.881 0 0 0 .126-.552" class="cls-1" data-name="Path 17389"/>
            <path id="Path_17390" d="M260.929 316.906l-.753-.169c.236-1.023.466-2.013.7-3.038l.681.138-.026.415c.124-.057.22-.108.323-.149a1.252 1.252 0 0 1 1.256.125.743.743 0 0 1 .349.666 2.852 2.852 0 0 1-.053.5c-.126.582-.262 1.162-.4 1.743-.015.068-.046.132-.082.237l-.743-.173c.111-.485.216-.936.316-1.387a6.015 6.015 0 0 0 .12-.632c.036-.353-.072-.533-.342-.624a.642.642 0 0 0-.756.249 1.351 1.351 0 0 0-.163.394c-.123.485-.236.973-.353 1.46-.016.067-.043.134-.079.248" class="cls-1" data-name="Path 17390"/>
            <path id="Path_17391" d="M254.8 312.02h.758c.054.716 0 1.426 0 2.135s-.021 1.427-.032 2.167h-.787c-.016-1.431.071-2.843.062-4.3" class="cls-1" data-name="Path 17391"/>
            <path id="Path_17392" d="M280.563 349.54a25.938 25.938 0 0 1-51.7.128 13.046 13.046 0 0 0 12.918 10.8 12.916 12.916 0 0 0 12.168-8.64c-.16-.1-.328-.207-.5-.311a9.271 9.271 0 0 1-3.4-3.518 6.621 6.621 0 0 1-.827-2.978 6.008 6.008 0 0 1 .882-3.351 12.25 12.25 0 0 1 1.142-1.557 15.713 15.713 0 0 0 2.183-3.1 7.5 7.5 0 0 0 .835-3.053 9.484 9.484 0 0 0-.227-2.24c-.1-.5-.177-1.011-.259-1.517a2.348 2.348 0 0 1 0-.319 2.306 2.306 0 0 1 .283.146 16.766 16.766 0 0 1 5.6 6.366 11.821 11.821 0 0 1-.469 11.2 10.87 10.87 0 0 1-2.438 2.655c-.317.256-.629.515-.941.776-.1.084-.186.185-.282.274a.427.427 0 0 0-.1.517 13.049 13.049 0 0 0 1.089 2.3 12.756 12.756 0 0 0 8.888 6.145 12.966 12.966 0 0 0 14.2-7.556 14.336 14.336 0 0 0 .956-3.169" class="cls-1" data-name="Path 17392"/>
            <path id="Path_17393" d="M225.8 357.108l-.247-.853a.935.935 0 0 1 .142-.1 1.548 1.548 0 0 0 .993-1.756 3.449 3.449 0 0 0-.35-1.271 1.332 1.332 0 0 0-.711-.674.949.949 0 0 0-1.315.666 8.985 8.985 0 0 0-.145 1.314c-.036.524-.04 1.05-.079 1.574a3.429 3.429 0 0 1-.134.664 2.063 2.063 0 0 1-3.154 1.128 2.679 2.679 0 0 1-1.045-1.287 4.491 4.491 0 0 1-.3-2.664 2.491 2.491 0 0 1 1.779-1.93 1.065 1.065 0 0 1 .172-.021l.264.852a1.564 1.564 0 0 1-.175.105 1.782 1.782 0 0 0-1.169 1.581 3.048 3.048 0 0 0 .618 2.288 1.168 1.168 0 0 0 1.034.47.989.989 0 0 0 .921-.633 3.2 3.2 0 0 0 .2-.865c.048-.523.041-1.051.082-1.575a7.3 7.3 0 0 1 .164-1.238 1.79 1.79 0 0 1 1.7-1.449 1.985 1.985 0 0 1 1.863.929 3.9 3.9 0 0 1 .615 1.59 3.82 3.82 0 0 1 0 1.39 2.18 2.18 0 0 1-1.722 1.762" class="cls-1" data-name="Path 17393"/>
            <path id="Path_17394" d="M228.544 363.315c-.2.165-.366.307-.532.447l.012.074a2.1 2.1 0 0 1 1.72.8 1.632 1.632 0 0 1 .235 1.885c.155.019.276.038.4.046a2.009 2.009 0 0 1 1.66 1.037 1.5 1.5 0 0 1-.182 1.912 3.024 3.024 0 0 1-.364.343L228.5 372.2c-.047.036-.1.066-.188.127l-.558-.7c.111-.093.2-.173.291-.245.809-.633 1.619-1.263 2.426-1.9a5.759 5.759 0 0 0 .593-.52.868.868 0 0 0 .158-1.086 1.34 1.34 0 0 0-1.757-.657 3.166 3.166 0 0 0-.61.367c-.779.6-1.548 1.2-2.32 1.8-.1.08-.206.153-.331.246l-.554-.713c.111-.1.2-.176.289-.247.837-.657 1.678-1.306 2.51-1.968a3.659 3.659 0 0 0 .588-.572.847.847 0 0 0 .024-1.064 1.338 1.338 0 0 0-1.721-.528 4.878 4.878 0 0 0-.878.547c-.687.517-1.359 1.055-2.037 1.584-.1.08-.207.154-.334.248-.191-.242-.366-.463-.572-.721l4.513-3.529.513.636" class="cls-1" data-name="Path 17394"/>
            <path id="Path_17395" d="M240.142 326.173l.537.69-.6.517 2.969 3.81a1.8 1.8 0 0 1-.259.073c-.143.015-.289 0-.429.027a.7.7 0 0 1-.75-.338c-.666-.89-1.359-1.758-2.044-2.634-.08-.1-.164-.2-.264-.324a4.429 4.429 0 0 0-1.126.951c1.112 1.152 2.219 2.3 3.384 3.51-.4.069-.736.139-1.073.174-.081.009-.19-.082-.26-.154-.388-.389-.767-.788-1.149-1.182-.082-.084-.168-.162-.29-.276l-1.008 1.112.8.745a.389.389 0 0 1-.389.193c-.43 0-.86-.01-1.29-.018a.462.462 0 0 1-.49-.286.531.531 0 0 1 .128-.591c.462-.5.913-1.011 1.367-1.518.079-.089.154-.18.259-.3l-.71-.734c-.855.734-1.5 1.614-2.292 2.409l-.663-.586c.59-.656 1.153-1.284 1.726-1.919l.266.184.022-.027-.158-.233a25.307 25.307 0 0 1 3.789-3.271" class="cls-1" data-name="Path 17395"/>
            <path id="Path_17396" d="M262.306 323.967l.079.761c-.283.028-.53.05-.775.08a1.5 1.5 0 0 0-.313.073.373.373 0 0 0-.295.43.389.389 0 0 0 .347.395 3.629 3.629 0 0 0 .743-.025 2.607 2.607 0 0 0 .413-.116l-.034.4a9.927 9.927 0 0 0 .8-2.174l-2.689-.752.234-.837c.106.016.187.019.262.039.564.16 1.125.323 1.688.483.441.126.883.252 1.384.393a4.485 4.485 0 0 0-.32-.41A5.516 5.516 0 0 0 262 321.4a.448.448 0 0 1-.329-.478c0-.236-.035-.471-.06-.785a7.844 7.844 0 0 1 1.044.5 7.707 7.707 0 0 1 .856.774 1.355 1.355 0 0 0-.024-.223c-.1-.3-.208-.61-.32-.912a.723.723 0 0 0-.416-.507.271.271 0 0 1-.132-.188c-.038-.307-.056-.615-.087-.995a8.059 8.059 0 0 1 1 .475.981.981 0 0 1 .32.5c.174.533.333 1.072.459 1.617.139.592.25 1.192.341 1.795.042.281.125.475.428.522a1.064 1.064 0 0 1 .2.1l-.286.817c-.253-.081-.478-.151-.751-.239-.317.749-.561 1.518-.843 2.273s-.548 1.5-.847 2.318c-.236-.328-.439-.588-.615-.868a.433.433 0 0 1 .009-.3c.095-.3.2-.605.328-.957h-.448a1.412 1.412 0 0 1-1.465-1.364 1.037 1.037 0 0 1 .474-.981 2.17 2.17 0 0 1 1.458-.321" class="cls-1" data-name="Path 17396"/>
            <path id="Path_17397" d="M252.3 322.454a2.884 2.884 0 0 1-.061-.3c-.015-.177-.018-.355-.028-.563.39-.034.756-.066 1.122-.1.3-.023.6-.048.894-.065a.669.669 0 0 1 .541.1c.057.05.184.025.278.025h2.052a1.921 1.921 0 0 1 .031.883l-.749.035c-.009.144-.023.271-.023.4 0 1.338 0 2.678-.006 4.016a.535.535 0 0 0 .248.5 1.268 1.268 0 0 1 .4 1.453 1.137 1.137 0 0 1-1.138.814 1.822 1.822 0 0 1-1.237-.394 3.948 3.948 0 0 1-.521-.489 11.752 11.752 0 0 1-1.081-1.534.514.514 0 0 1 .66.245 4.307 4.307 0 0 0 .98 1.135 1.378 1.378 0 0 0 1.331.325.6.6 0 0 0 .47-.564.463.463 0 0 0-.656-.493 1.786 1.786 0 0 0-.414.275 2.339 2.339 0 0 0-.237.258l-.46-.667a1.158 1.158 0 0 1 1.17-.61c-.029-.178-.164-.225-.266-.283a.444.444 0 0 1-.227-.446c.011-.573 0-1.147 0-1.72 0-.128-.01-.257-.019-.431-.561.046-1.1.074-1.622.139a.463.463 0 0 0-.377.564 1.864 1.864 0 0 0 .167.507 4.156 4.156 0 0 0 .869 1.176c.076.074.163.138.28.238l-.35.26a1.408 1.408 0 0 1-.2-.157c-.34-.4-.7-.787-1.008-1.209a2.347 2.347 0 0 1-.477-1.474.92.92 0 0 1 .26-.685.7.7 0 0 1 .362-.2c.64-.069 1.282-.11 1.962-.164l.081.58a3.613 3.613 0 0 0 .015-1.359l-.34-.02c-.071-.005-.164.016-.21-.021-.214-.174-.453-.1-.686-.086-.5.032-1 .072-1.5.106-.092.007-.185 0-.287 0" class="cls-1" data-name="Path 17397"/>
            <path id="Path_17398" d="M265.711 376.735l-.91-2.677c.3-.1.567-.2.868-.3l2.584 7.5-.793.273-.252-.6c-.06.106-.1.169-.134.237a2.056 2.056 0 0 1-2.04 1.162 2.536 2.536 0 0 1-1.939-1.2 4.131 4.131 0 0 1-.7-2.615 2.188 2.188 0 0 1 3.066-1.872 2.427 2.427 0 0 0 .249.095m-2.407 2.1a3.949 3.949 0 0 0 .724 2 1.588 1.588 0 0 0 1.166.689 1.452 1.452 0 0 0 1.561-1.567 3.737 3.737 0 0 0-.824-2.213 1.49 1.49 0 0 0-1.671-.5 1.532 1.532 0 0 0-.956 1.592" class="cls-1" data-name="Path 17398"/>
            <path id="Path_17399" d="M260.539 375.238c.07.375.132.7.2 1.046l-.854.174c-.046-.065-.091-.126-.163-.229a1.072 1.072 0 0 0-.059.112l-1.147 3.242-1.355 3.853c-.118.333-.12.333-.48.344-.18.006-.358.01-.538.013-.035 0-.07-.008-.155-.017l-3.338-7.8 1.088-.05 2.746 6.925a1.459 1.459 0 0 0 .109-.208q1.083-3.3 2.163-6.605c.093-.284.105-.288.4-.3.152-.009.306-.013.468-.021l.065-.317.85-.156" class="cls-1" data-name="Path 17399"/>
            <path id="Path_17400" d="M278.962 374.639c-.114.1-.191.172-.272.239-.146.122-.294.238-.457.37l-.56-.364c-.146.1-.124.277-.164.414a3 3 0 0 1-1.489 1.845 1.642 1.642 0 0 1-1 .227 1.605 1.605 0 0 1-1.332-2.139 2.711 2.711 0 0 1 .589-.933q.6-.663 1.2-1.333a4.35 4.35 0 0 0 .272-.384c-.158-.17-.3-.342-.464-.493a.777.777 0 0 0-.769-.173 2.315 2.315 0 0 0-1.374 1.085.992.992 0 0 0-.065.734c.027.126.073.25.128.427-.242.144-.489.3-.756.456a1.726 1.726 0 0 1-.179-1.573 3.649 3.649 0 0 1 2.3-2.056 1.256 1.256 0 0 1 1.316.351 7.144 7.144 0 0 1 .571.642c.319.386.623.786.948 1.167a5.148 5.148 0 0 0 1.554 1.494m-2.747-1.457c-.243.317-.447.6-.666.86s-.473.539-.706.808a1.894 1.894 0 0 0-.166.233.861.861 0 0 0 .029 1.035.9.9 0 0 0 1.029.289 2 2 0 0 0 1.24-1.7 2.318 2.318 0 0 0-.76-1.529" class="cls-1" data-name="Path 17400"/>
            <path id="Path_17401" d="M244.236 378.005l-.8-.357a1.8 1.8 0 0 1 1.646-1.126 3.973 3.973 0 0 1 2.318.613 1.361 1.361 0 0 1 .658 1.632c-.194.786-.435 1.564-.645 2.348-.1.38-.2.762-.262 1.15a4.784 4.784 0 0 0-.007.743c-.208-.057-.378-.1-.546-.149-.4-.113-.409-.134-.386-.547 0-.069.011-.138.018-.223-.166-.064-.289.042-.413.086a2.974 2.974 0 0 1-2.493-.2 1.544 1.544 0 0 1-.713-2.078 1.56 1.56 0 0 1 1.448-.945 8.777 8.777 0 0 1 1.209.089c.464.044.925.106 1.388.145.306.025.331 0 .416-.312a.977.977 0 0 0-.57-1.3 4.159 4.159 0 0 0-.987-.294 1.038 1.038 0 0 0-1.018.4c-.085.1-.165.2-.265.323m2.522 1.94a1.215 1.215 0 0 0-.165-.04c-.535-.043-1.069-.088-1.606-.125a5.013 5.013 0 0 0-.714-.023.824.824 0 0 0-.778.631.833.833 0 0 0 .332.948 2.032 2.032 0 0 0 .716.3 1.658 1.658 0 0 0 1.773-.564 2.984 2.984 0 0 0 .442-1.131" class="cls-1" data-name="Path 17401"/>
            <path id="Path_17402" d="M233.36 376.8l-.713-.625.271-.665-.444-.044a2.9 2.9 0 0 1-2.217-1.344 1.569 1.569 0 0 1 .933-2.4 1.748 1.748 0 0 1 1.253.15c.288.144.556.324.831.49.419.253.831.517 1.257.757.278.157.309.138.508-.1a.986.986 0 0 0 .016-1.448 4.055 4.055 0 0 0-.691-.616 1.09 1.09 0 0 0-1.247-.068c-.082.045-.165.087-.275.143-.191-.221-.377-.432-.581-.666a1.755 1.755 0 0 1 1.615-.43 3.723 3.723 0 0 1 2.26 1.754 1.329 1.329 0 0 1-.144 1.633c-.472.585-.973 1.148-1.461 1.72-.038.045-.079.088-.118.135a4.785 4.785 0 0 0-1.053 1.623m.968-2.957c-.088-.06-.125-.087-.164-.108-.477-.268-.953-.538-1.431-.8a4.591 4.591 0 0 0-.569-.3.865.865 0 0 0-1.156.476.929.929 0 0 0 .158.943 2.036 2.036 0 0 0 .967.706 1.517 1.517 0 0 0 1.653-.341c.178-.174.341-.362.542-.577" class="cls-1" data-name="Path 17402"/>
            <path id="Path_17403" d="M285.1 359.049c-.127.263-.25.517-.382.786a1.822 1.822 0 0 1-1.071-1.755 4.087 4.087 0 0 1 .614-2.107 1.42 1.42 0 0 1 1.8-.7c.687.2 1.363.434 2.048.643a5.359 5.359 0 0 0 2.089.408c-.086.272-.162.508-.235.746a.219.219 0 0 1-.246.162c-.154-.006-.307-.015-.512-.026.045.165.078.309.122.45a2.952 2.952 0 0 1-.24 2.355 1.557 1.557 0 0 1-1.753.872 1.577 1.577 0 0 1-1.283-1.557 8.142 8.142 0 0 1 .106-1.173c.062-.5.148-.993.206-1.489.036-.3.008-.323-.265-.413a1 1 0 0 0-1.368.558 4.342 4.342 0 0 0-.316 1.055.947.947 0 0 0 .328.87l.355.318m2-2.419c-.048.46-.089.9-.139 1.335-.037.319-.105.636-.126.956a.882.882 0 0 0 .672.969.9.9 0 0 0 1.023-.47 2.035 2.035 0 0 0 .219-1.553 1.769 1.769 0 0 0-1.649-1.237" class="cls-1" data-name="Path 17403"/>
            <path id="Path_17404" d="M286.1 366.043c-.149.273-.282.511-.438.8-2.327-1.278-4.623-2.56-6.946-3.847.16-.283.3-.529.455-.811.825.455 1.621.894 2.473 1.366-.027-.183-.038-.287-.058-.39a2.365 2.365 0 0 1 1.008-2.364 1.439 1.439 0 0 1 1.235-.18 4.116 4.116 0 0 1 .793.325c1.039.564 2.071 1.143 3.1 1.715.052.03.1.065.18.119l-.432.79c-.133-.067-.239-.116-.341-.172-.93-.514-1.857-1.033-2.79-1.542a2.954 2.954 0 0 0-.589-.257 1.036 1.036 0 0 0-1.155.364 1.471 1.471 0 0 0 .225 2.183c.546.381 1.145.689 1.725 1.021.444.255.9.5 1.346.748.06.033.116.077.206.137" class="cls-1" data-name="Path 17404"/>
            <path id="Path_17405" d="M275.217 337.56c-.158.078-.272.14-.392.191-.26.115-.448-.005-.458-.291a.631.631 0 0 1 .019-.213c.111-.366.222-.732.349-1.091a.657.657 0 0 1 .183-.258c.25-.227.41-.2.59.086.037.058.083.112.148.2l1.21-.667a9.206 9.206 0 0 0-.746-1.268l-4.129 2.577a1.787 1.787 0 0 1-.033-.272c.006-.189.04-.381.031-.57a.482.482 0 0 1 .275-.488c.989-.6 1.966-1.222 2.948-1.837.109-.068.218-.142.36-.236l-.325-.6c.244-.153.481-.3.745-.468a45.121 45.121 0 0 1 2.583 4.361l-.757.421-.465-.783-1.245.689.645 1.191-.869.491c-.226-.394-.436-.764-.667-1.169" class="cls-1" data-name="Path 17405"/>
            <path id="Path_17406" d="M240.514 325.8l1.333-.741c.437-.244.874-.489 1.337-.746a1.107 1.107 0 0 0-.182-.155c-.372-.161-.74-.334-1.121-.469a1.284 1.284 0 0 0-1.14.1.467.467 0 0 1-.641-.069 7.143 7.143 0 0 0-.579-.444 2.229 2.229 0 0 1 1.806-.414 9.8 9.8 0 0 1 2.149.968.415.415 0 0 0 .584-.011l.444.782-.794.472c.277.509.549 1 .837 1.536-.249.137-.476.264-.7.391-.156.087-.315.17-.467.263a.666.666 0 0 0-.247.977.927.927 0 0 0 1.382.169.991.991 0 0 0-.071-.107.56.56 0 0 1-.109-.715.7.7 0 0 1 .712-.378.462.462 0 0 1 .254.115c.268.309.535.626.384 1.087a.534.534 0 0 0 0 .129 2.152 2.152 0 0 1 .87.575l-.532.307c-.241-.14-.454-.265-.669-.386a.328.328 0 0 0-.338.005 1.945 1.945 0 0 1-2.571-.748 2.264 2.264 0 0 1-.272-.731.776.776 0 0 1 .469-.91c.208-.118.415-.235.622-.355.02-.011.033-.034.084-.092l-.39-.722-2 1.1-.436-.782" class="cls-1" data-name="Path 17406"/>
            <path id="Path_17407" d="M223.92 363.944a2.2 2.2 0 0 1-1.434-.549 2.874 2.874 0 0 1-1.04-1.941 2.345 2.345 0 0 1 .9-2.186 4.291 4.291 0 0 1 2.279-.962 2.286 2.286 0 0 1 1.505.355 2.886 2.886 0 0 1 1.261 2.815 2.43 2.43 0 0 1-.627 1.265 4.372 4.372 0 0 1-2.843 1.2m.934-4.707a3.394 3.394 0 0 0-2.153 1 1.628 1.628 0 0 0 1.209 2.761 3.181 3.181 0 0 0 2.239-.987 1.534 1.534 0 0 0 .321-1.787 1.613 1.613 0 0 0-1.616-.984" class="cls-1" data-name="Path 17407"/>
            <path id="Path_17408" d="M232.861 335.665l-.385.565-.735-.449a27.024 27.024 0 0 1 2.7-4.089l.7.5-.446.664 3.933 2.87a4.641 4.641 0 0 1-1.011.36c-.1.023-.243-.072-.342-.145-.932-.668-1.857-1.343-2.784-2.017-.115-.082-.232-.162-.372-.259a6.24 6.24 0 0 0-.754 1.144l4.159 2.5a3.977 3.977 0 0 1-.975.474c-.081.032-.222-.056-.319-.115-.974-.58-1.945-1.167-2.917-1.749-.14-.086-.285-.164-.448-.258" class="cls-1" data-name="Path 17408"/>
            <path id="Path_17409" d="M266.865 375.723l.874-.468 3.586 3.276a.6.6 0 0 0 .02-.143l-.547-3.574c-.046-.295-.075-.593-.126-.886a.259.259 0 0 1 .155-.319c.2-.1.4-.2.634-.323.079.576.155 1.1.224 1.635.21 1.585.425 3.17.623 4.759a9.82 9.82 0 0 1 .089 1.391 1.412 1.412 0 0 1-1.077 1.4c-.261.072-.287.065-.446-.157-.1-.146-.2-.294-.315-.468.137-.059.254-.107.368-.157a.962.962 0 0 0 .662-1.066v-.036a1.484 1.484 0 0 0-.58-1.227c-1.318-1.1-2.6-2.257-3.888-3.394-.078-.068-.151-.142-.254-.241" class="cls-1" data-name="Path 17409"/>
            <path id="Path_17410" d="M239.267 373.817c.327.173.6.315.882.468l-.71 4.812c1.223-1.106 2.412-2.185 3.611-3.269.268.142.508.269.779.41a1.4 1.4 0 0 1-.158.207c-1.7 1.5-3.4 3.008-5.107 4.5a3.881 3.881 0 0 1-.895.583 1.368 1.368 0 0 1-1.531-.266.291.291 0 0 1-.106-.375c.077-.184.151-.371.237-.586.142.1.255.177.375.249a.973.973 0 0 0 1.252-.091 1.576 1.576 0 0 0 .682-1.178c.162-1.6.391-3.2.594-4.8.026-.2.057-.4.1-.667" class="cls-1" data-name="Path 17410"/>
            <path id="Path_17411" d="M269.122 326.529l.542-.463.311.236c.461.361.919.722 1.382 1.081.11.085.211.165.117.33.058-.034.117-.069.21-.12.713.665 1.436 1.337 2.192 2.043l-.591.654a29.288 29.288 0 0 0-2.945-2.526l-3.005 3.843c-.126-.384-.242-.694-.323-1.012a.414.414 0 0 1 .1-.283c.176-.249.369-.49.583-.768l-.249-.059a1.44 1.44 0 0 1-.8-2.2 1.107 1.107 0 0 1 1.231-.443c.642.15.711.246.661.892-.006.068-.023.134-.041.23a2.738 2.738 0 0 0-.381-.143 4.705 4.705 0 0 0-.769-.127.668.668 0 0 0-.387.148.3.3 0 0 0 0 .513 1.155 1.155 0 0 0 .731.246h.754l1.131-1.452c-.145-.12-.264-.215-.382-.312-.1-.079-.186-.16-.078-.3z" class="cls-1" data-name="Path 17411"/>
            <path id="Path_17412" d="M246.458 322.94c.1.193.168.326.235.459l.045-.016-.106-.5a12.136 12.136 0 0 1 2.365-.667l.218.789-.751.252 1.326 4.651a4.233 4.233 0 0 1-1.031-.3c-.064-.023-.106-.149-.135-.235-.085-.259-.159-.521-.247-.818-.121.089-.21.161-.3.226a1.444 1.444 0 0 1-2.168-.852 1.324 1.324 0 0 1 .956-1.484.275.275 0 0 1 .2.044c.178.137.345.285.533.444-.2.131-.369.234-.526.357a1.194 1.194 0 0 0-.477.61.422.422 0 0 0 .094.463c.136.123.289.075.436.009a1.541 1.541 0 0 0 .668-.628c.074-.118.153-.231.257-.391l-.533-1.849c-.909.327-1.748.719-2.662 1.057l-.341-.825 1.953-.789" class="cls-1" data-name="Path 17412"/>
            <path id="Path_17413" d="M269.61 333.27c-.246-.029-.377-.127-.388-.363a7.039 7.039 0 0 1 .126-2.032 1.691 1.691 0 0 1 .791-1.063.939.939 0 0 1 1.513.779l.017.243c.775-.025.973.17.918.926l.339-.12c.1.111.2.213.281.325.251.335.867.135 1.007-.232a.387.387 0 0 0-.092-.4c-.174-.211-.343-.427-.534-.666l.675-.559c.551.612 1.028 1.259 1.578 1.916l-.683.56-.442-.485c-.068.082-.128.149-.182.22a1.711 1.711 0 0 1-1.006.638 1.221 1.221 0 0 1-.817-.146.423.423 0 0 0 .013.589 1.607 1.607 0 0 0 .785.542c.144.05.3.076.506.128a7.93 7.93 0 0 1-.838.674c-.048.035-.164.008-.233-.024a1.436 1.436 0 0 1-.935-1.9 8.813 8.813 0 0 1 .37-.854c-.255-.417-.539-.457-.879-.109-.2.205-.391.416-.622.66l-.325-.73c.162-.176.319-.352.48-.525.124-.133.264-.256.148-.465a.58.58 0 0 0-.611-.277.89.89 0 0 0-.575.5 4.018 4.018 0 0 0-.31 1.354c-.03.294-.05.588-.075.89" class="cls-1" data-name="Path 17413"/>
            <path id="Path_17414" d="M275.575 370.036l.651-.71 4.424 1.913a5.027 5.027 0 0 0-.415-.866c-.138-.291-.29-.576-.436-.862l-.438-.862c-.145-.287-.295-.573-.44-.86l-.441-.875.64-.689c.116.223.212.4.3.579l2.262 4.593c.157.322.159.324-.084.581-.424.446-.287.414-.832.192q-2.436-.99-4.87-1.988c-.1-.039-.188-.085-.322-.146" class="cls-1" data-name="Path 17414"/>
            <path id="Path_17415" d="M224.081 335.355c.137.314.242.593.382.854a.585.585 0 0 0 .277.2c.3.136.614.257.964.4-.1.265-.2.5-.307.775l-4.029-1.63c.109-.266.2-.494.315-.768.585.231 1.153.455 1.719.68l.06-.061c-.051-.115-.1-.229-.153-.343-.276-.583-.549-1.166-.835-1.745a.511.511 0 0 1-.016-.476c.11-.234.2-.479.326-.775.085.178.148.3.206.428.205.457.407.916.612 1.373.139.309.149.313.491.246.772-.151 1.545-.306 2.318-.457.124-.023.251-.036.434-.062-.133.331-.231.611-.361.876a.383.383 0 0 1-.262.139c-.624.1-1.25.191-1.876.284-.069.01-.137.031-.265.062" class="cls-1" data-name="Path 17415"/>
            <path id="Path_17416" d="M242.1 319.327c.25-.068.5-.138.748-.2a.231.231 0 0 1 .162.047.5.5 0 0 0 .51.048c.512-.17.632-.42.448-.93-.043-.122-.1-.239-.163-.406-.069.1-.116.161-.152.226a1.138 1.138 0 0 1-1.742.372 1.94 1.94 0 0 1-.747-1.872 1.184 1.184 0 0 1 1.606-.959c.064.022.13.042.231.075l-.066-.384c.2-.074.4-.154.627-.238a1.343 1.343 0 0 1 .107.191c.32.823.645 1.644.947 2.474a4.184 4.184 0 0 1 .192.867.764.764 0 0 1-.3.7 2.484 2.484 0 0 1-1.642.609.757.757 0 0 1-.767-.62m-.168-2.522a1.646 1.646 0 0 0 .336.916.66.66 0 0 0 .749.271.706.706 0 0 0 .494-.708 1.46 1.46 0 0 0-.392-.971.655.655 0 0 0-.78-.168.663.663 0 0 0-.407.66" class="cls-1" data-name="Path 17416"/>
            <path id="Path_17417" d="M228.673 325.354l.558-.533 1.793.94.055-.052c-.308-.6-.7-1.145-1.033-1.757l.527-.55 1.821 1.028a4.01 4.01 0 0 0-.48-.961c-.162-.3-.337-.6-.516-.916l.478-.5a19.049 19.049 0 0 1 1.59 2.868l-.553.505c-.548-.3-1.125-.619-1.7-.935l-.061.063c.311.571.675 1.11 1.01 1.7-.172.184-.341.364-.533.566-.969-.483-1.928-.958-2.952-1.466" class="cls-1" data-name="Path 17417"/>
            <path id="Path_17418" d="M239.154 315.643l2.1 3.79-.6.354-.247-.309a1.41 1.41 0 0 0-.091.167 1.2 1.2 0 0 1-1.994.529 2.267 2.267 0 0 1-.78-1.416 1.224 1.224 0 0 1 1.423-1.394c.056.007.113 0 .231 0l-.728-1.34.689-.382m-.059 2.165a.7.7 0 0 0-.766.731 1.6 1.6 0 0 0 .516 1.029.676.676 0 0 0 .819.131.694.694 0 0 0 .326-.765 1.647 1.647 0 0 0-.5-.891 1.735 1.735 0 0 0-.4-.235" class="cls-1" data-name="Path 17418"/>
            <path id="Path_17419" d="M274.1 322.464l-.31.279-.548-.429c.879-1.149 1.763-2.266 2.66-3.415.119.084.224.154.325.232s.179.152.292.247l-.913 1.207c.139.016.217.028.294.033a1.219 1.219 0 0 1 1.134 1.527 2.144 2.144 0 0 1-1.131 1.411 1.183 1.183 0 0 1-1.761-.889c0-.046-.019-.091-.042-.2m.439-.184a.639.639 0 0 0 1 .576 1.644 1.644 0 0 0 .736-.974.6.6 0 0 0-.191-.648.635.635 0 0 0-.659-.155 1.5 1.5 0 0 0-.882 1.2" class="cls-1" data-name="Path 17419"/>
            <path id="Path_17420" d="M290.569 353.929c-.05.3-.1.578-.149.9l-5.647-1c.052-.283.1-.523.147-.795l.776.09c-.217-.264-.415-.467-.567-.7a.969.969 0 0 1-.091-.828 1.71 1.71 0 0 1 .448-.77l.762.441-.154.279a1.007 1.007 0 0 0 .481 1.494 4.971 4.971 0 0 0 1.085.346c.853.171 1.714.306 2.57.457.094.017.185.045.339.082" class="cls-1" data-name="Path 17420"/>
            <path id="Path_17421" d="M236.4 338.98v.559c-.192.067-.4.151-.613.213a.621.621 0 0 0-.476.426 1.28 1.28 0 0 1-.274.412.453.453 0 0 1-.524.129.548.548 0 0 1-.382-.433.836.836 0 0 1 .5-.907.431.431 0 0 0 .244-.5c-.029-.257-.209-.37-.429-.24a7.51 7.51 0 0 0-.689.51c-.2.152-.383.326-.593.46a1.347 1.347 0 0 1-.494.192.548.548 0 0 1-.66-.633.38.38 0 0 1 .018-.106c.3-.791.594-1.582.9-2.387a3.332 3.332 0 0 1 .831.268c-.242.649-.475 1.278-.711 1.907.023.011.044.022.066.035a2.483 2.483 0 0 1 .239-.252 5.778 5.778 0 0 1 .792-.6.768.768 0 0 1 1.131.323 5.288 5.288 0 0 1 .3.771c.1-.015.233-.035.368-.058s.277-.053.462-.088" class="cls-1" data-name="Path 17421"/>
            <path id="Path_17422" d="M273.916 340.864c.09-.4.163-.717.227-1.029.033-.164.173-.184.29-.231q1.326-.541 2.654-1.075c.32-.13.638-.263.984-.406l-.205-.653.807-.327.928 2.282c-.273.116-.529.223-.818.344-.111-.247-.209-.472-.327-.735l-2.236.9c-.739.3-1.479.6-2.3.929" class="cls-1" data-name="Path 17422"/>
            <path id="Path_17423" d="M281.082 330.727c.058-.116.1-.21.156-.316-.1-.047-.188-.088-.273-.125a1.307 1.307 0 0 1-.709-.765.86.86 0 0 1 .268-1.029.841.841 0 0 1 1.087-.014 6.437 6.437 0 0 1 .526.481c.14.13.279.261.421.389a.545.545 0 0 0 .117.061c.3-.18.35-.278.294-.5a.772.772 0 0 0-.782-.584c-.044-.093-.1-.2-.141-.306s-.069-.195-.11-.313a1 1 0 0 1 1.024.175 2.443 2.443 0 0 1 .7 1.064.758.758 0 0 1-.283.949c-.3.215-.612.413-.921.615a3.228 3.228 0 0 0-.979.83c-.137-.213-.258-.4-.395-.609m1.125-1.048a7.533 7.533 0 0 0-.687-.607.37.37 0 0 0-.594.3.674.674 0 0 0 .141.421c.284.352.711.31 1.14-.115" class="cls-1" data-name="Path 17423"/>
            <path id="Path_17424" d="M228.559 326.561a1.652 1.652 0 0 1 .057 3.3 1.768 1.768 0 0 1-1.7-1.657 1.681 1.681 0 0 1 1.643-1.646m-.156.753a.746.746 0 0 0-.731 1 1.31 1.31 0 0 0 1.1.783.749.749 0 0 0 .709-1.019 1.327 1.327 0 0 0-1.08-.764" class="cls-1" data-name="Path 17424"/>
            <path id="Path_17425" d="M236.9 320.9l.672-.305a1.166 1.166 0 0 1-.178 1.116 1.723 1.723 0 0 1-.961.649 1.271 1.271 0 0 1-1.176-.264 2.127 2.127 0 0 1-.777-1.252 1.3 1.3 0 0 1 .521-1.357 1.346 1.346 0 0 1 1.478-.191 2.074 2.074 0 0 1 .841.816c-.545.431-1.136.784-1.67 1.2a.7.7 0 0 0 .856.371c.305-.1.414-.307.394-.787m-.5-.7c-.329-.432-.7-.509-1.009-.252a.629.629 0 0 0 .011.952l1-.7" class="cls-1" data-name="Path 17425"/>
            <path id="Path_17426" d="M245.793 316.3c.139.445.369.649.683.652s.491-.146.65-.607l.742-.063a1.213 1.213 0 0 1-.532.972 1.81 1.81 0 0 1-1.047.307 1.165 1.165 0 0 1-.921-.407 2.01 2.01 0 0 1-.469-1.831 1.29 1.29 0 0 1 1.092-1 1.309 1.309 0 0 1 1.44.557 1.783 1.783 0 0 1 .337.879l-1.975.545m1.1-.794c-.179-.538-.521-.733-.9-.564a.61.61 0 0 0-.271.882c.381-.1.768-.208 1.174-.318" class="cls-1" data-name="Path 17426"/>
            <path id="Path_17427" d="M285.187 335.623c-.3-.632-.581-1.234-.864-1.83a.636.636 0 0 0-.539.666c.011.36.176.514.709.64q.09.315.189.675a1.057 1.057 0 0 1-1.01-.295 1.66 1.66 0 0 1-.529-1.141 1.5 1.5 0 0 1 .148-.686 2.059 2.059 0 0 1 2.055-.914 1.446 1.446 0 0 1 .678 2.353 2.016 2.016 0 0 1-.837.532m.078-.938c.451-.172.623-.524.459-.879s-.535-.449-.977-.231l.518 1.11" class="cls-1" data-name="Path 17427"/>
            <path id="Path_17428" d="M279 325.7c-.5-.508-.96-.986-1.421-1.46a.666.666 0 0 0-.293.818c.122.317.329.406.889.37.079.114.17.238.254.366.046.068.082.143.131.229a1.086 1.086 0 0 1-1.163-.038 2.524 2.524 0 0 1-.594-.559 1.224 1.224 0 0 1-.1-1.411 2.145 2.145 0 0 1 1.056-.983 1.354 1.354 0 0 1 1.594.365 1.338 1.338 0 0 1 .209 1.621 2.263 2.263 0 0 1-.561.682m-.228-.906c.383-.373.408-.751.1-1.026a.629.629 0 0 0-.951.141l.847.885" class="cls-1" data-name="Path 17428"/>
            <path id="Path_17429" d="M266.8 317.173l-1.924-.614a.659.659 0 0 0 .118.855c.276.239.518.219.947-.1l.641.336a1.093 1.093 0 0 1-1.076.525 2.508 2.508 0 0 1-.814-.238 1.218 1.218 0 0 1-.7-1.194 2.179 2.179 0 0 1 .462-1.329 1.358 1.358 0 0 1 1.541-.455 1.315 1.315 0 0 1 .987 1.3 1.948 1.948 0 0 1-.179.915m-.614-.689a.646.646 0 0 0-.111-.8.561.561 0 0 0-.658-.128.549.549 0 0 0-.382.554l1.151.372" class="cls-1" data-name="Path 17429"/>
            <path id="Path_17430" d="M228.089 331.725c-.385-.221-.745-.429-1.106-.633-.217-.123-.432-.254-.659-.361-.332-.16-.559-.115-.734.12a.645.645 0 0 0 .053.852 2.282 2.282 0 0 0 .429.32c.358.218.722.421 1.082.632.091.054.177.113.287.184l-.382.675-2.7-1.561.338-.614c.132.051.239.091.379.142-.017-.15-.031-.264-.041-.379a1.244 1.244 0 0 1 .138-.727.92.92 0 0 1 1.351-.445c.655.341 1.288.723 1.967 1.107l-.4.688" class="cls-1" data-name="Path 17430"/>
            <path id="Path_17431" d="M287.212 338.507c-.117-.2-.231-.4-.352-.606a.8.8 0 0 0 .008-1.024c-.066-.113-.161-.223-.318-.169-.133.045-.163.163-.158.291.006.19.022.381.031.571a6.9 6.9 0 0 1 .026.786.835.835 0 0 1-1.153.749 1.081 1.081 0 0 1-.56-.427 2.178 2.178 0 0 1-.4-1.418 1.09 1.09 0 0 1 .51-.86l.361.665a.788.788 0 0 0-.137 1.057.7.7 0 0 0 .157.193.266.266 0 0 0 .466-.182 2.376 2.376 0 0 0-.017-.356c-.016-.31-.043-.619-.042-.929a.793.793 0 0 1 .544-.8.839.839 0 0 1 .974.249 2.174 2.174 0 0 1 .515 1.453.868.868 0 0 1-.451.759" class="cls-1" data-name="Path 17431"/>
            <path id="Path_17432" d="M235.459 378.136l-.78-.508 3.118-4.808.784.506-3.122 4.81" class="cls-1" data-name="Path 17432"/>
            <path id="Path_17433" d="M284.6 368.347l-.535.764-4.692-3.286.527-.77 4.7 3.292" class="cls-1" data-name="Path 17433"/>
            <path id="Path_17434" d="M262.052 383.029l-.917.164-1.092-5.616c.311-.058.594-.113.917-.175.364 1.885.723 3.726 1.092 5.627" class="cls-1" data-name="Path 17434"/>
            <path id="Path_17435" d="M270.759 315.69l.732.4-1.746 3.16 1.907 1.075c-.109.2-.2.384-.322.6l-2.659-1.473 2.088-3.77" class="cls-1" data-name="Path 17435"/>
            <path id="Path_17436" d="M283.107 332.894l-.469.354a4.61 4.61 0 0 1-.385-.475.7.7 0 0 1 .248-1.094c.372-.238.759-.45 1.14-.675.122-.071.243-.147.383-.231l-.114-.363.467-.277c.089.1.165.182.245.27a.435.435 0 0 0 .141-.05.586.586 0 0 1 .833.015c.091.07.194.125.341.22-.322.193-.6.362-.907.543l.237.5-.487.3c-.113-.156-.216-.3-.342-.469-.483.283-.956.556-1.423.838a.235.235 0 0 0-.064.371c.046.067.094.132.156.221" class="cls-1" data-name="Path 17436"/>
            <path id="Path_17437" d="M231.824 320.567l.613-.5c.932 1.11 1.844 2.2 2.781 3.315l-.6.522-2.8-3.335" class="cls-1" data-name="Path 17437"/>
            <path id="Path_17438" d="M263.534 326.6c.181-.354.334-.659.494-.963.069-.127.19-.13.314-.1a1.229 1.229 0 0 1 .849.658 1.958 1.958 0 0 1-.674 2.5.571.571 0 0 1-.729-.041.4.4 0 0 1 .1-.707 2.485 2.485 0 0 0 .5-.265 1.1 1.1 0 0 0 .317-.378.446.446 0 0 0-.281-.656 2.961 2.961 0 0 0-.6-.078 1.761 1.761 0 0 0-.3.034" class="cls-1" data-name="Path 17438"/>
            <path id="Path_17439" d="M279 327.787c-.169-.208-.322-.4-.495-.61l2.43-1.968c.156.189.292.352.44.533l-.236.3c.294.042.581.018.773.256a.713.713 0 0 1 .194.514l-.6.227c-.046-.09-.08-.164-.12-.235a.485.485 0 0 0-.719-.241 3.975 3.975 0 0 0-.629.408c-.342.256-.672.529-1.035.817" class="cls-1" data-name="Path 17439"/>
            <path id="Path_17440" d="M230.232 339.448c.4-1.044.778-2.031 1.168-3.044l.838.319-1.166 3.044-.84-.319" class="cls-1" data-name="Path 17440"/>
            <path id="Path_17441" d="M273.553 318.716l.671.418-1.654 2.651-.675-.416 1.658-2.653" class="cls-1" data-name="Path 17441"/>
            <path id="Path_17442" d="M272.882 339.276a1.352 1.352 0 0 1 .732.761.694.694 0 0 1 .013.623 3.139 3.139 0 0 1-.344.582c-.282.356-.585.694-.885 1.034-.148.168-.154.163-.455.058.047-.082.087-.163.138-.236.268-.38.545-.755.808-1.14.179-.264.166-.333-.057-.556-.159-.16-.33-.309-.526-.49.094-.108.183-.214.276-.316s.2-.209.3-.32" class="cls-1" data-name="Path 17442"/>
            <path id="Path_17443" d="M267.011 325.566c-.645-.328-1.256-.642-1.89-.964.137-.271.259-.514.4-.8l1.893.96c-.138.278-.265.527-.4.8" class="cls-1" data-name="Path 17443"/>
            <path id="Path_17444" d="M269.122 326.529l-.008.008c-.088.118-.184.077-.28.016-.536-.333-1.071-.667-1.639-1.023l.469-.763c.6.375 1.184.736 1.782 1.111l-.324.651" class="cls-1" data-name="Path 17444"/>
            <path id="Path_17445" d="M278.442 365.174l-.885-.619.536-.757.876.61-.527.766" class="cls-1" data-name="Path 17445"/>
            <path id="Path_17446" d="M239 370.97l.753.488a5.143 5.143 0 0 1-.567.916l-.772-.5.586-.9" class="cls-1" data-name="Path 17446"/>
            <path id="Path_17447" d="M273.815 318.3c.135-.218.246-.4.381-.612l.668.409-.379.616-.67-.413" class="cls-1" data-name="Path 17447"/>
        </g>
    </g>
</svg>
