<svg xmlns="http://www.w3.org/2000/svg" width="61.599" height="61.592" viewBox="0 0 61.599 61.592"><defs><style>.a{fill:#fff;}</style></defs><g transform="translate(0.051)"><g transform="translate(-0.051)"><path class="a" d="M38.013,49.908H37.9a7.163,7.163,0,0,0,2.168-5.133,7.07,7.07,0,0,0-1.027-3.665V35.14l4.285-1.731a1.026,1.026,0,0,0,0-1.9L33.161,27.4a1.025,1.025,0,0,0-.77,0L22.228,31.505a1.016,1.016,0,0,0-.128,1.827v3.231a1.027,1.027,0,1,0,2.053,0V34.187l2.567,1.041v5.888a7.078,7.078,0,0,0-1.026,3.659,7.159,7.159,0,0,0,2.167,5.133h-.114a6.164,6.164,0,0,0-6.159,6.158v6.159a2.053,2.053,0,0,0,2.053,2.053H42.118a2.053,2.053,0,0,0,2.053-2.053V56.066a6.163,6.163,0,0,0-6.158-6.158Zm-.9-9.112.023-.031-.017.027ZM32.777,29.458l7.423,3-7.423,3-7.423-3Zm-.385,8.056a1.034,1.034,0,0,0,.77,0l3.824-1.545v4.905a10.59,10.59,0,0,1-4.106.616,11.145,11.145,0,0,1-4.106-.587V36.049Zm-4.644,7.26a5.061,5.061,0,0,1,.4-1.942,14.12,14.12,0,0,0,4.736.711,14.074,14.074,0,0,0,4.739-.712,5.128,5.128,0,1,1-9.871,1.944ZM42.118,62.226H39.039V59.147a1.027,1.027,0,1,0-2.053,0v3.079H28.773V59.147a1.027,1.027,0,1,0-2.053,0v3.079H23.641V56.066a4.106,4.106,0,0,1,4.106-4.105H38.013a4.1,4.1,0,0,1,4.105,4.105Z" transform="translate(-2.077 -2.687)"/><path class="a" d="M8.616,22.546a1.027,1.027,0,1,0,0-2.053A4.106,4.106,0,0,0,4.51,24.6a1.027,1.027,0,0,0,2.053,0A2.053,2.053,0,0,1,8.616,22.546Z" transform="translate(-0.398 -2.015)"/><path class="a" d="M13.3,38.523a1.027,1.027,0,0,0,0-2.053H12.274V33.886a5.717,5.717,0,0,1,1.753-3.98,8.135,8.135,0,0,0,2.353-6.011,8.306,8.306,0,0,0-8.029-7.955A8.214,8.214,0,0,0,2.193,29.791a6.367,6.367,0,0,1,1.868,4.334V36.47H3.035a1.027,1.027,0,1,0,0,2.053H4.062a4.106,4.106,0,0,0,8.212,0ZM3.687,28.379A6.159,6.159,0,0,1,8.307,17.992a6.226,6.226,0,0,1,6.02,5.965,6.088,6.088,0,0,1-1.763,4.5,7.758,7.758,0,0,0-2.343,5.424v.531H6.115v-.291A8.4,8.4,0,0,0,3.687,28.379Zm6.533,10.144a2.053,2.053,0,0,1-4.106,0V36.47h4.106Z" transform="translate(0.051 -1.567)"/><path class="a" d="M43.122,7.826a1.027,1.027,0,0,0,0-1.007L41.55,3.989a1.009,1.009,0,0,0-1-.521l-1.791.176-2.2-1.316L35.8.616A1.028,1.028,0,0,0,34.865,0H31.118a1.026,1.026,0,0,0-.939.616l-.758,1.716-2.2,1.312L25.43,3.468a1.006,1.006,0,0,0-1,.521l-1.576,2.83a1.027,1.027,0,0,0,0,1.007l.9,1.57v2.772l-.893,1.569a1.027,1.027,0,0,0,0,1.007l1.577,2.829a1.028,1.028,0,0,0,1,.521l1.791-.176,2.2,1.316.757,1.715a1.027,1.027,0,0,0,.94.617h3.746a1.027,1.027,0,0,0,.94-.617l.757-1.715,2.2-1.316,1.792.176a1.017,1.017,0,0,0,1-.521l1.577-2.829a1.027,1.027,0,0,0,0-1.007l-.9-1.569V9.4Zm-2.81,5.12.741,1.3-.969,1.738-1.459-.143a1.015,1.015,0,0,0-.628.14l-2.771,1.658a1.025,1.025,0,0,0-.411.467l-.616,1.4H31.786l-.616-1.4a1.018,1.018,0,0,0-.41-.467l-2.772-1.658a1.007,1.007,0,0,0-.628-.14l-1.458.143-.969-1.738.741-1.3a1.022,1.022,0,0,0,.132-.508V9.124a1.038,1.038,0,0,0-.134-.507l-.741-1.3L25.9,5.576l1.459.144a1.04,1.04,0,0,0,.628-.141l2.772-1.658a1.03,1.03,0,0,0,.41-.466l.619-1.4H34.2l.616,1.4a1.03,1.03,0,0,0,.41.466L37.995,5.58a1.04,1.04,0,0,0,.628.141l1.458-.144.969,1.738-.741,1.3a1.025,1.025,0,0,0-.131.507v3.315a1.016,1.016,0,0,0,.134.508Z" transform="translate(-2.189)"/><path class="a" d="M33.607,6.837a4.619,4.619,0,1,0,4.619,4.619A4.619,4.619,0,0,0,33.607,6.837Zm0,7.185a2.566,2.566,0,1,1,2.566-2.566A2.566,2.566,0,0,1,33.607,14.022Z" transform="translate(-2.805 -0.672)"/><path class="a" d="M65.361,30.55l-5.156-.689-2.289-4.268a1.068,1.068,0,0,0-1.809,0l-2.288,4.268-5.156.689a1.026,1.026,0,0,0-.549,1.782l3.677,3.293-.865,4.633a1.027,1.027,0,0,0,1.457,1.116l4.628-2.239,4.629,2.239A1.027,1.027,0,0,0,63.1,40.262l-.864-4.637,3.677-3.3a1.026,1.026,0,0,0-.549-1.782Zm-4.928,3.936a1.025,1.025,0,0,0-.324.952l.6,3.2L57.46,37.07a1.026,1.026,0,0,0-.9,0l-3.249,1.571.6-3.2a1.024,1.024,0,0,0-.323-.952l-2.45-2.2,3.469-.463a1.028,1.028,0,0,0,.768-.533l1.634-3.044,1.634,3.044a1.026,1.026,0,0,0,.767.533l3.469.463Z" transform="translate(-4.652 -2.467)"/><path class="a" d="M19.4,11.05a22.733,22.733,0,0,0-3.623,2.924,1.027,1.027,0,1,0,1.444,1.46,20.651,20.651,0,0,1,3.3-2.66A1.027,1.027,0,0,0,19.4,11.051Z" transform="translate(-1.475 -1.071)"/><path class="a" d="M55.485,44.528a1.028,1.028,0,0,0-1.4.375,21.75,21.75,0,0,1-6.4,6.947,1.027,1.027,0,0,0,1.169,1.686,23.837,23.837,0,0,0,7.008-7.608A1.028,1.028,0,0,0,55.485,44.528Z" transform="translate(-4.603 -4.365)"/><path class="a" d="M14.4,46.776a1.026,1.026,0,0,0-1.683,1.176,23.207,23.207,0,0,0,5.82,5.777,1.027,1.027,0,0,0,1.169-1.688A21.171,21.171,0,0,1,14.4,46.776Z" transform="translate(-1.188 -4.557)"/><path class="a" d="M54.059,20.15a1.029,1.029,0,0,0,1.785-1.022,23.693,23.693,0,0,0-7.622-8.081,1.027,1.027,0,0,0-1.119,1.72A21.6,21.6,0,0,1,54.059,20.15Z" transform="translate(-4.543 -1.071)"/></g></g></svg>