<svg xmlns="http://www.w3.org/2000/svg" width="79.817" height="79.817" viewBox="0 0 79.817 79.817"><defs><style>.a{fill:#f9f9f9;}</style></defs><g transform="translate(-8 -8)"><path class="a" d="M46.5,36.2A10.3,10.3,0,1,0,36.2,46.5,10.312,10.312,0,0,0,46.5,36.2ZM36.2,43.928A7.725,7.725,0,1,1,43.928,36.2,7.733,7.733,0,0,1,36.2,43.928Z" transform="translate(11.705 11.705)"/><path class="a" d="M82.639,46.749a34.516,34.516,0,0,0-2.547-11.978V31.44a2.512,2.512,0,0,1,1.11-2.11A11.585,11.585,0,0,0,73.6,8.076a11.665,11.665,0,0,0-9.932,8.856,34.767,34.767,0,0,0-27.343-1.8V8H28.6V28.6H26.023V13.15H18.3V28.6H15.725V18.3H8V31.172h9.445a34.66,34.66,0,0,0-2.292,28.322,5.093,5.093,0,0,0-.716,2.575H11.862A3.867,3.867,0,0,0,8,65.931v6.438h2.575a2.574,2.574,0,1,1,0,5.148H8v6.438a3.867,3.867,0,0,0,3.862,3.862H27.311a3.867,3.867,0,0,0,3.862-3.862V77.517H28.6a2.574,2.574,0,1,1,0-5.148h2.575V65.931a3.867,3.867,0,0,0-3.862-3.862H24.736a5.156,5.156,0,0,0-5.15-5.15,5.071,5.071,0,0,0-2.368.605,31.99,31.99,0,0,1-1.437-8.33H31.172v3.488l2.352.83c.079.2.162.4.251.605L32.7,56.369l6.752,6.751L41.7,62.043c.2.089.4.175.607.253l.827,2.348h3.488V80.058A31.8,31.8,0,0,1,34.338,77.1l-1.087,2.335a34.775,34.775,0,0,0,41.691-9.686V79.11l3.423,6.843a3.371,3.371,0,0,0,6.03,0l3.422-6.845V53.058a6.443,6.443,0,0,0-5.178-6.309ZM13.15,28.6H10.575V20.875H13.15ZM66.009,18.4a9.045,9.045,0,0,1,7.879-7.761,9.674,9.674,0,0,1,1.067-.06,8.9,8.9,0,0,1,5.99,2.289,9,9,0,0,1-1.134,14.3,5.025,5.025,0,0,0-2.276,4.007h-1.3V23.211a3.862,3.862,0,1,0-2.575,0v7.961H72.349A5.024,5.024,0,0,0,70.1,27.179a8.975,8.975,0,0,1-4.09-8.783ZM77.517,33.747v1.288a1.289,1.289,0,0,1-1.287,1.287H73.656a1.289,1.289,0,0,1-1.287-1.287V33.747ZM73.656,19.586a1.287,1.287,0,1,1,1.287,1.288A1.289,1.289,0,0,1,73.656,19.586ZM49.2,15.766a32.147,32.147,0,0,1,14.166,3.921,11.494,11.494,0,0,0,5.35,9.661,2.53,2.53,0,0,1,1.082,2.147v3.541A3.867,3.867,0,0,0,73.654,38.9h2.575a3.818,3.818,0,0,0,2.332-.8,32.023,32.023,0,0,1,1.5,8.528H64.645V43.136L62.293,42.3c-.079-.2-.162-.4-.251-.605l1.077-2.251L56.366,32.7l-2.249,1.077c-.2-.089-.4-.174-.607-.253l-.829-2.348H49.2ZM31.172,10.575h2.575V28.6H31.172Zm-10.3,5.15h2.573V28.6H20.875Zm-3.863,48.92V62.07a2.575,2.575,0,1,1,5.15,0v2.575h5.15A1.288,1.288,0,0,1,28.6,65.931v3.863a5.149,5.149,0,1,0,0,10.3v3.863a1.288,1.288,0,0,1-1.287,1.287H11.862a1.288,1.288,0,0,1-1.287-1.287V80.092a5.149,5.149,0,1,0,0-10.3V65.931a1.288,1.288,0,0,1,1.287-1.287ZM31.172,43.136v3.486h-15.4a32.042,32.042,0,0,1,4.662-15.449H36.322V17.883a31.923,31.923,0,0,1,10.3-2.127V31.172H43.134l-.83,2.352c-.2.079-.4.162-.605.251L39.448,32.7,32.7,39.451,33.774,41.7c-.089.2-.175.4-.253.607ZM44.958,62.07l-.632-1.793-.59-.2a12.522,12.522,0,0,1-1.477-.615l-.559-.275-1.718.822-4.174-4.174.822-1.717-.275-.561a12.809,12.809,0,0,1-.615-1.477l-.2-.589-1.791-.632v-5.9l1.793-.632.2-.59a12.642,12.642,0,0,1,.615-1.477l.275-.559L35.81,39.98l4.174-4.172,1.717.82.561-.275a13.108,13.108,0,0,1,1.477-.615l.589-.2.632-1.789h5.9l.632,1.793.59.2a12.642,12.642,0,0,1,1.477.615l.559.275,1.718-.822,4.172,4.174-.82,1.717.275.561a13.11,13.11,0,0,1,.615,1.477l.2.589,1.789.632v5.9l-1.793.632-.2.59a12.639,12.639,0,0,1-.615,1.477l-.275.559.822,1.718-4.174,4.172-1.717-.82-.561.275a13.111,13.111,0,0,1-1.477.615l-.589.2-.632,1.789Zm29.984-9.011v12.3A32.014,32.014,0,0,1,49.2,80.051V64.645h3.486l.832-2.352c.2-.079.4-.162.605-.251l2.251,1.077,6.751-6.752-1.077-2.249c.089-.2.174-.4.253-.607l2.348-.827V49.2H76.264a6.378,6.378,0,0,0-1.321,3.863Zm2.575,3.862h2.575v20.6H77.517ZM82.092,84.8a.826.826,0,0,1-1.422,0l-2.357-4.712h6.134Zm3.15-7.286H82.667V56.92h2.575Zm0-23.172H77.517V53.058a3.862,3.862,0,1,1,7.725,0Z" transform="translate(0 0)"/><path class="a" d="M34.71,54.181a29.647,29.647,0,0,0,17.624-9.147L50.45,43.279A27.07,27.07,0,0,1,34.361,51.63Z" transform="translate(17.234 23.064)"/><path class="a" d="M49.156,41.593l-2.228-1.287a26.919,26.919,0,0,1-1.607,2.459L47.4,44.288A29.629,29.629,0,0,0,49.156,41.593Z" transform="translate(24.399 21.12)"/></g></svg>