<svg xmlns="http://www.w3.org/2000/svg" width="61.366" height="63.299" viewBox="0 0 61.366 63.299"><defs><style>.a{fill:#fff;}</style></defs><g transform="translate(-7.815)"><g transform="translate(15.71 7.845)"><path class="a" d="M65.947,36.311A15.956,15.956,0,0,1,64.586,32.9,11.689,11.689,0,0,0,63.1,21.79,23.162,23.162,0,0,0,45.05,12.216a22.117,22.117,0,0,0-10.193,2.477A10.583,10.583,0,1,0,18.925,25.626a2.067,2.067,0,0,1,1.194,1.837V34.7a2.506,2.506,0,0,0,2.5,2.5h.42A22.022,22.022,0,0,0,30.5,51.143a4.866,4.866,0,0,1-.338,2.4c-.382,1.331-.97,2.809-1.488,4.114-.347.872-.646,1.626-.827,2.2a1.237,1.237,0,0,0,1.178,1.61H46.672a2.006,2.006,0,0,0,1.878-1.5,12.161,12.161,0,0,0,.512-1.871c.147-.668.492-2.233.834-2.422a.229.229,0,0,1,.069,0,1.165,1.165,0,0,0,.192.014c1.848,0,3.358.085,4.69.158,3.908.217,6.268.348,8.336-2.632,1.053-1.516.933-3.727.808-6.068a21.951,21.951,0,0,1-.013-3.487,10.616,10.616,0,0,1,1.095-.816c1.165-.8,2.265-1.557,2.265-2.706C67.337,39.271,66.81,38.118,65.947,36.311ZM20.217,23.518a8.111,8.111,0,1,1,8.462,0,4.5,4.5,0,0,0-2.167,2.648H22.385A4.507,4.507,0,0,0,20.217,23.518ZM26.3,28.639v1.809H22.592V28.639Zm-3.682,6.089a.036.036,0,0,1-.03-.03V32.921H26.3V34.7a.036.036,0,0,1-.03.03Zm41.049,6.084c-1.064.731-1.983,1.361-2.118,2.316a21.953,21.953,0,0,0-.033,4.157c.093,1.737.2,3.7-.369,4.524-1.231,1.772-2.294,1.789-6.168,1.574-1.278-.07-2.863-.158-4.743-.162a2.636,2.636,0,0,0-2.76,1.636,11.494,11.494,0,0,0-.833,2.708,13.059,13.059,0,0,1-.368,1.428H30.8l.167-.421c1.781-4.485,2.91-7.773,1.193-9.258A19.563,19.563,0,0,1,25.539,37.2h.736a2.507,2.507,0,0,0,2.5-2.5V27.466a2.068,2.068,0,0,1,1.194-1.84A10.51,10.51,0,0,0,35,17.443,19.64,19.64,0,0,1,45.05,14.688a20.825,20.825,0,0,1,15.99,8.474,9.278,9.278,0,0,1,1.227,8.879c-.484,1.168.235,2.787,1.448,5.333a22.285,22.285,0,0,1,1.112,2.575A11.584,11.584,0,0,1,63.671,40.812Z" transform="translate(-13.865 -6.012)"/></g><g transform="translate(25.057)"><path class="a" d="M22.264,0a1.236,1.236,0,0,0-1.236,1.236V4.76a1.236,1.236,0,1,0,2.473,0V1.236A1.236,1.236,0,0,0,22.264,0Z" transform="translate(-21.028)"/></g><g transform="translate(7.815 17.242)"><path class="a" d="M12.575,13.213H9.051a1.236,1.236,0,0,0,0,2.473h3.525a1.236,1.236,0,1,0,0-2.473Z" transform="translate(-7.815 -13.213)"/></g><g transform="translate(16.436 2.31)"><path class="a" d="M18.49,5.439,16.728,2.388a1.236,1.236,0,1,0-2.141,1.236L16.35,6.675a1.236,1.236,0,1,0,2.14-1.236Z" transform="translate(-14.421 -1.77)"/></g><g transform="translate(10.124 8.621)"><path class="a" d="M14.49,8.534,11.439,6.773A1.236,1.236,0,0,0,10.2,8.914l3.051,1.762A1.236,1.236,0,0,0,14.49,8.534Z" transform="translate(-9.585 -6.607)"/></g><g transform="translate(36.939 8.621)"><path class="a" d="M35.491,7.224A1.235,1.235,0,0,0,33.8,6.773L30.751,8.534a1.236,1.236,0,1,0,1.236,2.141l3.052-1.762A1.237,1.237,0,0,0,35.491,7.224Z" transform="translate(-30.133 -6.607)"/></g><g transform="translate(10.124 24.101)"><path class="a" d="M14.944,19.087a1.237,1.237,0,0,0-1.689-.453L10.2,20.4a1.237,1.237,0,1,0,1.236,2.143l3.052-1.762A1.238,1.238,0,0,0,14.944,19.087Z" transform="translate(-9.585 -18.469)"/></g><g transform="translate(16.436 29.563)"><path class="a" d="M17.784,22.821a1.237,1.237,0,0,0-1.689.453l-1.508,2.611a1.237,1.237,0,0,0,.453,1.689,1.22,1.22,0,0,0,.617.167,1.235,1.235,0,0,0,1.071-.619l1.508-2.612A1.237,1.237,0,0,0,17.784,22.821Z" transform="translate(-14.421 -22.655)"/></g><g transform="translate(31.916 2.31)"><path class="a" d="M29.9,1.936a1.237,1.237,0,0,0-1.689.453L26.451,5.439a1.236,1.236,0,1,0,2.141,1.236l1.762-3.051A1.236,1.236,0,0,0,29.9,1.936Z" transform="translate(-26.285 -1.77)"/></g></g></svg>