<svg xmlns="http://www.w3.org/2000/svg" width="69.327" height="77.035" viewBox="0 0 69.327 77.035"><defs><style>.a{fill:#272727;}</style></defs><path class="a" d="M94.775,10.356l-3.292-2.9,3.292-2.9A1.625,1.625,0,0,0,93.7,1.714H80.078V1.128a1.129,1.129,0,0,0-2.258,0V16.356l-9.272,5.036a3.6,3.6,0,0,0-.367-1.187l-1.307-2.55a3.573,3.573,0,0,0-4.8-1.55l-1.01.518a3.57,3.57,0,0,0-1.55,4.8l1.307,2.552a3.541,3.541,0,0,0,1.287,1.4,9.865,9.865,0,0,0-1.361,3.275l-.244.863a1.127,1.127,0,0,0,.78,1.393,1.1,1.1,0,0,0,.306.044,1.131,1.131,0,0,0,1.086-.822l.244-.861c.494-1.744.8-2.679,1.766-3.2l1.734-.942.214-.109c.071-.037.137-.078.205-.118L79.2,18.178a4.775,4.775,0,0,1-2.278,3.836L68.88,26.9l-.028.017-2.5,1.518a1.129,1.129,0,0,0,1.079,1.982l-1.9,5.738-1.388.569-3.774,1.546,1.088-3.844a1.13,1.13,0,1,0-2.174-.614l-1.717,6.075a1.081,1.081,0,0,0-.04.246l-.449,8.259a3.781,3.781,0,0,1-.093,1.217l-4.994,10.5H48.362a3.86,3.86,0,0,0-3.856,3.854v3.259a3.827,3.827,0,0,0-1.6-.347H33.695a3.859,3.859,0,0,0-3.854,3.854v4.044H27.13a1.128,1.128,0,1,0,0,2.257H93.7a1.128,1.128,0,1,0,0-2.257H90.763v-29.1a3.859,3.859,0,0,0-3.854-3.854H80.078v-19.7a7.045,7.045,0,0,0,1.135-6.035,1.127,1.127,0,0,0-1.135-.828V13.2H93.7a1.626,1.626,0,0,0,1.076-2.846ZM61.442,19.4a1.3,1.3,0,0,1,.648-.763l1.012-.518a1.292,1.292,0,0,1,.594-.145,1.314,1.314,0,0,1,1.169.712l1.307,2.552a1.313,1.313,0,0,1-.435,1.683l-.368.2-.776.4a1.312,1.312,0,0,1-1.764-.569L61.521,20.4A1.3,1.3,0,0,1,61.442,19.4ZM59.173,60.461a3.824,3.824,0,0,0-1.24-.331l1.24-1.646Zm5.36-9.1a4.241,4.241,0,0,0,.814-2.022c.031-.146.587-3.189.587-3.189s.527.328.583.351a.119.119,0,0,1,.068.1l.615,6.243H63.417Zm6.677-6.231-.953,7.709h-.788l-.636-6.459a2.379,2.379,0,0,0-1.329-1.91l-1.136-.72.757-4.192s3.186,3.784,3.261,3.881C71.045,44.3,71.271,44.643,71.21,45.132ZM59.014,50.6a6.117,6.117,0,0,0,.317-2.1l.41-7.533,5.222-2.139-.95,5.258-.008.042-.785,4.347a4.325,4.325,0,0,1-.472,1.5l-7.63,10.133H54.49ZM32.1,70.733a1.6,1.6,0,0,1,1.6-1.595H42.91a1.6,1.6,0,0,1,1.6,1.595v4.046H32.1Zm14.665,0V63.967a1.6,1.6,0,0,1,1.6-1.6h9.215a1.6,1.6,0,0,1,1.6,1.6V74.778H46.766V70.733ZM88.5,45.676v29.1H76.1v-6.77a1.129,1.129,0,1,0-2.258,0v6.77H61.431V56.7a1.6,1.6,0,0,1,1.6-1.6h9.215a1.6,1.6,0,0,1,1.6,1.6v5.659a1.129,1.129,0,1,0,2.258,0V45.676a1.6,1.6,0,0,1,1.6-1.6h9.213A1.6,1.6,0,0,1,88.5,45.676ZM77.694,41.822a3.858,3.858,0,0,0-3.854,3.854v7.518a3.824,3.824,0,0,0-1.31-.336l.922-7.448a4.362,4.362,0,0,0-1.276-3.346c-.075-.1-4.464-5.309-4.464-5.309L70.4,28.616,77.82,24.11V41.822Zm2.384-30.88V3.973H92.022L89.45,6.239a1.623,1.623,0,0,0,0,2.439l2.572,2.266H80.078Z" transform="translate(-26)"/></svg>