<svg xmlns="http://www.w3.org/2000/svg" width="94.321" height="131.203" viewBox="0 0 94.321 131.203"><defs><style>.a{fill:#b7202e;}</style></defs><g transform="translate(-72 -0.103)"><path class="a" d="M97.9,29.286c-5.652,0-10.253-5.332-10.253-11.892V15.588a2.267,2.267,0,0,1,.073-.549L88.3,12.99a5.845,5.845,0,0,1,2.811-3.629A4.771,4.771,0,0,1,94.9,9.045a8.367,8.367,0,0,0,6.013,0,4.771,4.771,0,0,1,3.792.316,5.845,5.845,0,0,1,2.811,3.629l.571,2.049a2.267,2.267,0,0,1,.073.549v1.806C108.157,23.954,103.557,29.286,97.9,29.286Zm-6.152-13.42v1.528c0,4.306,2.761,7.791,6.152,7.791s6.152-3.485,6.152-7.791V15.869l-.5-1.79a1.76,1.76,0,0,0-.776-1.1.67.67,0,0,0-.561-.057,12.42,12.42,0,0,1-8.635,0,.662.662,0,0,0-.561.057,1.76,1.76,0,0,0-.776,1.1Z" transform="translate(21.256 11.8)"/><path class="a" d="M108.157,21.719h-4.1V14.657a6.231,6.231,0,0,0-12.3,0v7.062h-4.1V14.657a10.3,10.3,0,0,1,20.505,0Z" transform="translate(21.256 7.065)"/><path class="a" d="M95.543,16.48c-2.806,0-6.152-1.243-6.152-7.175,0-3.469,3.884-7.76,4.659-8.586a2.118,2.118,0,0,1,2.985,0c.776.825,4.659,5.117,4.659,8.586C101.7,15.237,98.349,16.48,95.543,16.48Zm0-11.168A9.146,9.146,0,0,0,93.492,9.3c0,3.075.905,3.075,2.051,3.075s2.051,0,2.051-3.075A9.146,9.146,0,0,0,95.543,5.312Z" transform="translate(23.618 0)"/><path class="a" d="M85.88,38.591l-4.058-.58.686-4.794a10.214,10.214,0,0,1,7.664-8.5l9.5-2.375v-6.6h4.1v8.2a2.05,2.05,0,0,1-1.554,1.99L91.165,28.7a6.122,6.122,0,0,0-4.6,5.089Z" transform="translate(13.339 21.241)"/><path class="a" d="M109.4,56.214H95.051a2.064,2.064,0,0,1-1.316-.476l-12.3-10.253a2.048,2.048,0,0,1-.717-1.865l2.051-14.353,4.061.58L84.939,43.065l10.852,9.048h11.561V50.062h-8.2a2.054,2.054,0,0,1-1.231-.41l-8.2-6.152a2.046,2.046,0,0,1-.8-1.893l2.049-16.4,4.07.509-1.9,15.223,6.7,5.027H109.4a2.049,2.049,0,0,1,2.049,2.049v6.152A2.051,2.051,0,0,1,109.4,56.214Z" transform="translate(11.808 34.084)"/><path class="a" d="M105.483,69.057H91.13v-4.1h13.613l10.852-9.045-3.16-22.123a6.128,6.128,0,0,0-4.6-5.1L96.787,25.926a2.047,2.047,0,0,1-1.554-1.981v-8.2h4.1v6.6l9.5,2.375a10.214,10.214,0,0,1,7.664,8.5l3.322,23.246a2.048,2.048,0,0,1-.717,1.865L106.8,68.58A2.064,2.064,0,0,1,105.483,69.057Z" transform="translate(25.979 21.241)"/><path class="a" d="M93.247,54.081h-4.1V48.323L85.19,38.44a2.049,2.049,0,0,1,1.905-2.813c10.177,0,18.454-7.359,18.454-16.4h4.1c0,10.394-8.553,19.008-19.6,20.331L93.1,47.167a2.054,2.054,0,0,1,.146.762Z" transform="translate(17.712 25.964)"/><path class="a" d="M88.522,55.912v-4.1c8.909,0,23.359-16.287,24.526-30.919l4.089.325C115.76,38.43,99.329,55.912,88.522,55.912Z" transform="translate(22.437 28.234)"/><path class="a" d="M101.071,48.9h-8.2V44.8h7.352l4.825-4.827-1.905-13.328,4.061-.582,2.049,14.353a2.047,2.047,0,0,1-.58,1.74l-6.15,6.152A2.05,2.05,0,0,1,101.071,48.9Z" transform="translate(28.342 35.249)"/><rect class="a" width="4.101" height="12.303" transform="translate(127.363 69.792)"/><path class="a" d="M90.913,54.59,89.3,50.822l14.353-6.152a2.025,2.025,0,0,1,.806-.167h3.077a1.025,1.025,0,1,0,0-2.049h-4.827L82.493,48.518,81.316,44.59l20.5-6.152a2.072,2.072,0,0,1,.59-.085h5.126a5.126,5.126,0,1,1,0,10.253h-2.667Z" transform="translate(12.651 51.945)"/><path class="a" d="M84.609,58.218A8.265,8.265,0,0,1,81.256,42.4l16.9-6.6,1.49,3.822L82.831,46.188a4.166,4.166,0,0,0,1.778,7.93Z" transform="translate(5.906 48.482)"/><path class="a" d="M112.808,58.218v-4.1A4.162,4.162,0,0,0,114.5,46.15L97.771,39.625l1.49-3.822,16.813,6.562a8.263,8.263,0,0,1-3.266,15.853Z" transform="translate(34.998 48.482)"/><path class="a" d="M112.794,45.643l-1.45-1.45H93.739v-4.1h18.454a2.051,2.051,0,0,1,1.45.6l2.051,2.049Z" transform="translate(29.522 54.306)"/><path class="a" d="M160.169,62.829H78.152a6.151,6.151,0,1,1,0-12.3h82.017a6.151,6.151,0,1,1,0,12.3Zm-82.017-8.2a2.05,2.05,0,1,0,0,4.1h82.017a2.05,2.05,0,1,0,0-4.1Z" transform="translate(0 68.478)"/><path class="a" d="M96.743,64.075a7.535,7.535,0,0,1-8.2-6.805,7.289,7.289,0,0,1,0-1.4c0-4.858,4.4-12.3,8.2-12.3s8.2,7.444,8.2,12.3a7.536,7.536,0,0,1-6.8,8.2A7.693,7.693,0,0,1,96.743,64.075Zm0-16.339a12.3,12.3,0,0,0-4.1,8.135c0,2.837,1.264,4.1,4.1,4.1s4.1-1.266,4.1-4.1A12.3,12.3,0,0,0,96.743,47.737Z" transform="translate(22.418 59.03)"/><path class="a" d="M101.959,64.075a7.537,7.537,0,0,1-8.2-6.805,7.7,7.7,0,0,1,0-1.4c0-4.858,4.4-12.3,8.2-12.3s8.2,7.444,8.2,12.3a7.539,7.539,0,0,1-6.805,8.2A7.693,7.693,0,0,1,101.959,64.075Zm0-16.339a12.3,12.3,0,0,0-4.1,8.135c0,2.837,1.266,4.1,4.1,4.1s4.1-1.266,4.1-4.1A12.305,12.305,0,0,0,101.959,47.737Z" transform="translate(29.504 59.03)"/><path class="a" d="M86.307,64.075a7.537,7.537,0,0,1-8.2-6.805,7.7,7.7,0,0,1,0-1.4c0-4.858,4.4-12.3,8.2-12.3s8.2,7.444,8.2,12.3a7.536,7.536,0,0,1-6.8,8.2A7.693,7.693,0,0,1,86.307,64.075Zm0-16.339a12.3,12.3,0,0,0-4.1,8.135c0,2.837,1.266,4.1,4.1,4.1s4.1-1.266,4.1-4.1A12.292,12.292,0,0,0,86.307,47.737Z" transform="translate(8.248 59.03)"/><path class="a" d="M81.091,64.075a7.535,7.535,0,0,1-8.2-6.805,7.289,7.289,0,0,1,0-1.4c0-4.858,4.4-12.3,8.2-12.3s8.2,7.444,8.2,12.3a7.536,7.536,0,0,1-6.8,8.2A7.693,7.693,0,0,1,81.091,64.075Zm0-16.339a12.292,12.292,0,0,0-4.1,8.135c0,2.837,1.264,4.1,4.1,4.1s4.1-1.266,4.1-4.1A12.3,12.3,0,0,0,81.091,47.737Z" transform="translate(1.162 59.03)"/><path class="a" d="M91.526,64.075a7.537,7.537,0,0,1-8.2-6.805,7.694,7.694,0,0,1,0-1.4c0-4.858,4.4-12.3,8.2-12.3s8.2,7.444,8.2,12.3a7.536,7.536,0,0,1-6.805,8.2A7.667,7.667,0,0,1,91.526,64.075Zm0-16.339a12.305,12.305,0,0,0-4.1,8.135c0,2.837,1.266,4.1,4.1,4.1s4.1-1.266,4.1-4.1A12.3,12.3,0,0,0,91.526,47.737Z" transform="translate(15.333 59.03)"/><path class="a" d="M107.178,64.075a7.534,7.534,0,0,1-8.2-6.805,7.291,7.291,0,0,1,0-1.4c0-4.858,4.4-12.3,8.2-12.3s8.2,7.444,8.2,12.3a7.536,7.536,0,0,1-6.8,8.2A7.693,7.693,0,0,1,107.178,64.075Zm0-16.339a12.292,12.292,0,0,0-4.1,8.135c0,2.837,1.264,4.1,4.1,4.1s4.1-1.266,4.1-4.1A12.3,12.3,0,0,0,107.178,47.737Z" transform="translate(36.589 59.03)"/><path class="a" d="M112.394,64.075a7.537,7.537,0,0,1-8.2-6.805,7.691,7.691,0,0,1,0-1.4c0-4.858,4.4-12.3,8.2-12.3s8.2,7.444,8.2,12.3a7.536,7.536,0,0,1-6.8,8.2A7.693,7.693,0,0,1,112.394,64.075Zm0-16.339a12.3,12.3,0,0,0-4.1,8.135c0,2.837,1.266,4.1,4.1,4.1s4.1-1.266,4.1-4.1A12.292,12.292,0,0,0,112.394,47.737Z" transform="translate(43.675 59.03)"/></g></svg>