<svg xmlns="http://www.w3.org/2000/svg" width="38.899" height="38.899" viewBox="0 0 38.899 38.899"><defs><style>.a{fill:#58595b;}</style></defs><path class="a" d="M19.45,38.9A19.45,19.45,0,1,1,38.9,19.45,19.472,19.472,0,0,1,19.45,38.9Zm0-36.121A16.671,16.671,0,1,0,36.121,19.45,16.69,16.69,0,0,0,19.45,2.778Zm0,0"/><path class="a" d="M161.569,162.959a1.384,1.384,0,0,1-.982-.407L146.694,148.66a1.389,1.389,0,0,1,1.964-1.964l13.892,13.892a1.389,1.389,0,0,1-.982,2.372Zm0,0" transform="translate(-135.173 -135.174)"/><path class="a" d="M147.675,162.958a1.389,1.389,0,0,1-.982-2.372l13.892-13.892a1.389,1.389,0,1,1,1.964,1.964l-13.892,13.892A1.384,1.384,0,0,1,147.675,162.958Zm0,0" transform="translate(-135.172 -135.173)"/></svg>