<svg xmlns="http://www.w3.org/2000/svg" width="236" height="230.425" viewBox="0 0 236 230.425"><defs><style>.a{fill:#e8e5ea;}.b{fill:#d8d5db;}.c{fill:#fff;}.d{fill:#d1cdd3;}.e{fill:#ffad69;}.f{fill:#b7202e;}.g{fill:#232323;}.h{fill:#d88344;}.i{fill:#2b2b2b;}.j{fill:#4e4e4e;}.k{fill:#7d7d7d;}.l{fill:#545454;}.m{fill:#ed1c24;}</style></defs><g transform="translate(-198.197 -210.589)"><path class="a" d="M419.618,334.036c-.731,1.174-1.462,2.326-2.238,3.478a178.134,178.134,0,0,1-24.592,29.045c-.421.421-.864.842-1.307,1.263-1.329,1.263-2.7,2.526-4.076,3.744q-3.556,3.257-7.289,6.292c-1.307,1.108-2.659,2.193-3.988,3.257a278.517,278.517,0,0,1-48.275,30.994c-5.051,2.526-10.1,4.785-15.087,6.735-26.01,10.3-50.225,12.717-66.93,2.5a39.949,39.949,0,0,1-13.47-13.714l-1.728-2.858c-5.339-8.928-10.435-17.9-14.91-26.918-1.063-2.1-2.06-4.187-3.035-6.292-16.239-34.894-22.421-70.208.6-104.947,8.951-13.514,23.639-24.038,41.274-31.482a144.917,144.917,0,0,1,15.73-5.627c2.681-.842,5.384-1.573,8.153-2.238,3.478-.886,7.023-1.662,10.612-2.326,2.747-.532,5.494-1,8.264-1.4l3.456-.465a209.319,209.319,0,0,1,24.7-1.684c1.086-.022,2.171-.022,3.235-.022q7.477.033,14.8.62c1.307.089,2.614.2,3.921.354,24.88,2.415,47.7,9.549,63.207,21.379a61.048,61.048,0,0,1,9.061,8.419c.487.554.953,1.108,1.4,1.684.155.177.288.354.443.532a59.318,59.318,0,0,1,7.71,12.451C439.115,288.286,433.354,311.97,419.618,334.036Z" transform="translate(0 13.115)"/><path class="a" d="M279.353,308.411c-5.977,6.268-10.236,15.227-3.8,20.535,7.18,5.926,21.989,4.551,29.648-6.631,4.894-7.145,7.484-18.435,2.06-24.771C302.618,292.125,286.684,300.725,279.353,308.411Z" transform="translate(90.118 103.625)"/><path class="b" d="M330.64,210.833c-1.462-.133-2.969-.222-4.453-.244a.277.277,0,1,0-.022.554c1.484.022,2.969.111,4.431.244h.022a.289.289,0,0,0,.288-.266A.275.275,0,0,0,330.64,210.833Zm-8.906-.177h-.022c-1.484.089-2.991.222-4.453.4a.276.276,0,0,0-.244.31.288.288,0,0,0,.288.244h.022c1.462-.177,2.947-.31,4.431-.4a.258.258,0,0,0,.244-.288A.286.286,0,0,0,321.733,210.655Zm17.746,1.529c-1.462-.31-2.947-.6-4.387-.82a.281.281,0,1,0-.089.554c1.44.222,2.9.487,4.364.8a.069.069,0,0,0,.044.022.306.306,0,0,0,.288-.222A.294.294,0,0,0,339.479,212.184Zm-26.63-.443c-1.462.288-2.924.62-4.342,1.019a.254.254,0,0,0-.2.332.266.266,0,0,0,.266.2h.066c1.418-.377,2.88-.709,4.32-1a.3.3,0,0,0,.222-.332A.315.315,0,0,0,312.849,211.741Zm35.226,2.858q-2.127-.731-4.254-1.329a.285.285,0,0,0-.354.2.271.271,0,0,0,.2.332c1.4.4,2.836.842,4.232,1.329h.089a.288.288,0,0,0,.266-.177A.272.272,0,0,0,348.075,214.6Zm-43.844-.554c-1.4.465-2.814,1-4.187,1.551a.26.26,0,0,0-.155.354.282.282,0,0,0,.244.177.166.166,0,0,0,.111-.022c1.374-.554,2.769-1.086,4.165-1.551a.246.246,0,0,0,.155-.332A.258.258,0,0,0,304.231,214.045Zm52.13,3.855c-1.351-.6-2.725-1.2-4.1-1.75a.289.289,0,0,0-.354.155.276.276,0,0,0,.155.377c1.374.532,2.747,1.13,4.076,1.728a.2.2,0,0,0,.111.022.307.307,0,0,0,.266-.155A.276.276,0,0,0,356.361,217.9Zm-60.039-.354a.268.268,0,0,0-.377-.133c-1.307.62-2.659,1.307-3.966,2.016a.29.29,0,0,0-.111.377.258.258,0,0,0,.244.155.315.315,0,0,0,.133-.044c1.307-.709,2.636-1.374,3.944-2.016A.267.267,0,0,0,296.322,217.546Zm68.015,4.409c-1.307-.731-2.636-1.462-3.944-2.127a.292.292,0,0,0-.377.133.3.3,0,0,0,.133.377c1.307.665,2.614,1.351,3.9,2.083a.163.163,0,0,0,.133.044.254.254,0,0,0,.244-.133A.259.259,0,0,0,364.337,221.954Zm-75.836-.2a.314.314,0,0,0-.377-.089c-1.263.775-2.526,1.573-3.766,2.415a.283.283,0,0,0-.066.4.273.273,0,0,0,.222.111.32.32,0,0,0,.155-.044c1.241-.842,2.481-1.639,3.744-2.393A.311.311,0,0,0,288.5,221.755Zm83.368,4.963c-1.219-.864-2.459-1.684-3.722-2.481a.287.287,0,0,0-.377.089.259.259,0,0,0,.089.377c1.241.8,2.481,1.617,3.7,2.459a.211.211,0,0,0,.155.044.225.225,0,0,0,.222-.111A.258.258,0,0,0,371.869,226.718Zm-90.768,0a.257.257,0,0,0-.377-.044c-1.174.842-2.348,1.772-3.545,2.7a.287.287,0,0,0,.177.51.3.3,0,0,0,.177-.066c1.174-.953,2.348-1.861,3.523-2.7A.3.3,0,0,0,281.1,226.718Zm97.835,5.45c-1.13-.975-2.3-1.905-3.456-2.814a.284.284,0,1,0-.354.443c1.174.886,2.326,1.839,3.456,2.791a.251.251,0,0,0,.177.066.264.264,0,0,0,.2-.111A.255.255,0,0,0,378.937,232.168Zm-104.792.089a.282.282,0,0,0-.4-.022c-.8.687-1.6,1.374-2.371,2.083a6.015,6.015,0,0,0-.554.51c-.133.111-.288.221-.421.354a.3.3,0,0,0-.022.4.394.394,0,0,0,.222.089.251.251,0,0,0,.177-.066l.731-.665.8-.731c.6-.532,1.2-1.041,1.795-1.551A.308.308,0,0,0,274.145,232.256Zm111.305,6c-1.041-1.063-2.1-2.127-3.19-3.124a.281.281,0,0,0-.4,0,.3.3,0,0,0,.022.4c1.086,1,2.149,2.06,3.168,3.1a.281.281,0,0,0,.2.089.2.2,0,0,0,.177-.089A.276.276,0,0,0,385.45,238.26Zm-117.908-.022a.255.255,0,0,0-.377,0c-1.041,1-2.1,2.06-3.168,3.146a.255.255,0,0,0,0,.377.216.216,0,0,0,.2.089.271.271,0,0,0,.2-.089c1.041-1.063,2.1-2.127,3.146-3.124A.281.281,0,0,0,267.543,238.238Zm123.8,6.713c-.93-1.174-1.905-2.326-2.88-3.434a.274.274,0,0,0-.377-.022.264.264,0,0,0-.022.4c.953,1.086,1.927,2.238,2.836,3.39a.308.308,0,0,0,.222.111.294.294,0,0,0,.177-.066A.277.277,0,0,0,391.343,244.951ZM261.3,244.574a.274.274,0,0,0-.377.022c-1.019,1.063-2.016,2.171-3.013,3.279a.281.281,0,0,0,.022.4.252.252,0,0,0,.177.066.241.241,0,0,0,.2-.089c1-1.108,2.016-2.215,3.013-3.279A.282.282,0,0,0,261.3,244.574Zm135.255,7.6c-.8-1.241-1.639-2.459-2.5-3.678a.284.284,0,0,0-.4-.066.305.305,0,0,0-.066.4c.864,1.2,1.728,2.415,2.526,3.655a.272.272,0,0,0,.221.111.211.211,0,0,0,.155-.044A.255.255,0,0,0,396.55,252.173ZM255.358,251.2a.305.305,0,0,0-.4.044c-.953,1.108-1.927,2.238-2.88,3.39a.28.28,0,0,0,.044.4.251.251,0,0,0,.177.066.264.264,0,0,0,.2-.111c.953-1.152,1.927-2.282,2.88-3.39A.3.3,0,0,0,255.358,251.2Zm145.712,8.685c-.288-.532-.554-1.041-.842-1.551-.421-.8-.864-1.573-1.329-2.348a.284.284,0,0,0-.377-.111.263.263,0,0,0-.089.377c.465.8.908,1.617,1.374,2.459.244.465.51.953.753,1.44a.306.306,0,0,0,.244.133.281.281,0,0,0,.133-.022A.292.292,0,0,0,401.069,259.883Zm-151.406-1.839a.305.305,0,0,0-.4.044c-.908,1.108-1.772,2.26-2.659,3.39-.022.044-.066.066-.089.111a.263.263,0,0,0,.044.4.239.239,0,0,0,.155.066.252.252,0,0,0,.177-.066l.044-.044c.93-1.2,1.839-2.348,2.769-3.5A.308.308,0,0,0,249.664,258.044Zm155.128,9.947c-.133-.332-.288-.687-.443-1.041-.066-.177-.155-.377-.244-.576-.332-.82-.709-1.662-1.086-2.481a.285.285,0,0,0-.377-.133.267.267,0,0,0-.133.354c.266.576.532,1.152.775,1.728.177.377.332.753.465,1.108a11.8,11.8,0,0,1,.465,1.108l.066.133a.259.259,0,0,0,.244.177.2.2,0,0,0,.111-.022.269.269,0,0,0,.177-.288A.081.081,0,0,0,404.791,267.992Zm-160.6-2.9a.305.305,0,0,0-.4.044q-1.329,1.761-2.659,3.589a.281.281,0,0,0,.066.377.239.239,0,0,0,.155.066.306.306,0,0,0,.244-.133c.864-1.2,1.75-2.393,2.636-3.567A.277.277,0,0,0,244.192,265.09Zm-5.273,7.178a.284.284,0,0,0-.4.066c-.842,1.2-1.706,2.393-2.57,3.633a.281.281,0,0,0,.066.377.266.266,0,0,0,.177.044.269.269,0,0,0,.221-.111c.842-1.218,1.706-2.437,2.57-3.633A.277.277,0,0,0,238.919,272.268Zm168.487,3.168c-.332-1.108-.687-2.193-1.041-3.257a.281.281,0,0,0-.354-.177.29.29,0,0,0-.177.354q.631,1.828,1.2,3.722c.044.177.111.332.155.51a.278.278,0,0,0,.266.2h.089a.29.29,0,0,0,.177-.354C407.627,276.1,407.516,275.768,407.406,275.436Zm-173.6,4.121a.261.261,0,0,0-.377.066l-.111.155c-.82,1.218-1.662,2.459-2.459,3.7a.284.284,0,0,0,.066.4.41.41,0,0,0,.155.044.244.244,0,0,0,.222-.133c.82-1.241,1.639-2.481,2.481-3.7l.111-.155A.288.288,0,0,0,233.8,279.557Zm176,5.406h-.022c-.244-1.4-.576-2.792-.908-4.209a.254.254,0,0,0-.332-.2.268.268,0,0,0-.2.332c.332,1.351.62,2.7.886,4.054.022.089.044.2.066.288a.263.263,0,0,0,.266.221h.044a.294.294,0,0,0,.222-.332C409.821,285.073,409.8,285.007,409.8,284.962Zm-180.982,2.193a.267.267,0,0,0-.377.089c-.775,1.263-1.551,2.526-2.3,3.811a.263.263,0,0,0,.089.377.314.314,0,0,0,.133.044.254.254,0,0,0,.244-.133c.753-1.285,1.529-2.548,2.3-3.811A.263.263,0,0,0,228.816,287.156Zm181.735,2.371a.247.247,0,0,0-.31-.222.26.26,0,0,0-.222.31c.2,1.462.377,2.947.51,4.409a.271.271,0,0,0,.288.244h.022a.246.246,0,0,0,.244-.288Q410.884,291.753,410.552,289.526ZM224.275,294.8a.284.284,0,0,0-.377.111c-.753,1.307-1.462,2.636-2.149,3.921a.258.258,0,0,0,.111.354.315.315,0,0,0,.133.044.259.259,0,0,0,.244-.155c.687-1.263,1.4-2.592,2.149-3.9A.29.29,0,0,0,224.275,294.8Zm187.119,3.633a.277.277,0,0,0-.554.022c.066,1.462.111,2.947.111,4.431a.29.29,0,0,0,.266.288.293.293,0,0,0,.288-.288C411.5,301.4,411.46,299.895,411.394,298.432Zm-191.328,4.232a.284.284,0,0,0-.377.111c-.665,1.329-1.329,2.681-1.95,4.01a.285.285,0,0,0,.133.377.2.2,0,0,0,.111.022.24.24,0,0,0,.244-.155c.643-1.329,1.307-2.681,1.972-3.988A.285.285,0,0,0,220.065,302.664Zm191.062,4.387a.329.329,0,0,0-.288.266c-.066,1.484-.155,2.969-.288,4.431a.276.276,0,0,0,.244.31h.022a.269.269,0,0,0,.266-.266c.155-1.462.244-2.947.31-4.453C411.416,307.206,411.283,307.073,411.128,307.051Zm-194.9,3.656a.26.26,0,0,0-.354.155c-.6,1.351-1.2,2.725-1.75,4.1a.289.289,0,0,0,.155.354.2.2,0,0,0,.111.022.259.259,0,0,0,.244-.177c.554-1.351,1.152-2.725,1.75-4.076A.277.277,0,0,0,216.232,310.706Zm194.12,5.206a.288.288,0,0,0-.31.244c-.2,1.462-.443,2.924-.709,4.387a.294.294,0,0,0,.221.332h.044a.306.306,0,0,0,.288-.221c.266-1.484.51-2.969.709-4.409A.316.316,0,0,0,410.352,315.913Zm-197.487,3.035a.28.28,0,0,0-.354.155c-.532,1.4-1.041,2.814-1.507,4.209a.277.277,0,0,0,.155.354h.089a.267.267,0,0,0,.266-.177c.487-1.4,1-2.814,1.507-4.187A.289.289,0,0,0,212.865,318.948Zm195.892,5.738a.279.279,0,0,0-.332.2c-.31,1.418-.687,2.858-1.086,4.32a.29.29,0,0,0,.2.332c.022,0,.044.022.066.022a.263.263,0,0,0,.266-.222c.4-1.44.775-2.9,1.108-4.32A.282.282,0,0,0,408.757,324.686Zm-198.794,2.681a.271.271,0,0,0-.332.2c-.443,1.418-.864,2.858-1.241,4.276a.285.285,0,0,0,.2.332c.022.022.044.022.089.022a.31.31,0,0,0,.266-.2c.354-1.418.775-2.858,1.218-4.276A.284.284,0,0,0,209.963,327.367Zm196.446,5.893a.272.272,0,0,0-.354.177c-.465,1.351-1.019,2.747-1.617,4.121a.277.277,0,0,0,.155.377.957.957,0,0,0,.111.022.282.282,0,0,0,.244-.177c.6-1.4,1.152-2.791,1.617-4.165A.277.277,0,0,0,406.409,333.26Zm-198.75,2.7a.294.294,0,0,0-.332.222c-.31,1.462-.62,2.924-.886,4.365a.315.315,0,0,0,.222.332h.066a.263.263,0,0,0,.266-.222c.266-1.44.554-2.9.886-4.364A.294.294,0,0,0,207.659,335.963Zm195.25,5.472a.326.326,0,0,0-.377.133c-.643,1.263-1.374,2.57-2.149,3.855a.289.289,0,0,0,.089.4.28.28,0,0,0,.133.022.255.255,0,0,0,.244-.133c.8-1.307,1.529-2.614,2.193-3.9A.292.292,0,0,0,402.908,341.435Zm-196.845,3.3a.239.239,0,0,0-.31.222c-.2,1.507-.354,2.991-.487,4.453a.275.275,0,0,0,.266.288h.022a.266.266,0,0,0,.266-.244c.133-1.462.288-2.947.487-4.409A.264.264,0,0,0,206.063,344.736Zm192.3,4.364a.258.258,0,0,0-.377.066c-.82,1.2-1.706,2.415-2.592,3.589a.28.28,0,0,0,.044.4.418.418,0,0,0,.177.044.27.27,0,0,0,.222-.111c.886-1.174,1.772-2.393,2.592-3.611A.255.255,0,0,0,398.367,349.1Zm-192.813,6.757c0-.642,0-1.307.022-1.972a.277.277,0,1,0-.554-.022c-.022.665-.022,1.329-.022,1.994,0,.842.022,1.662.044,2.481a.286.286,0,0,0,.266.266h.022a.289.289,0,0,0,.266-.288C205.576,357.5,205.554,356.677,205.554,355.858Zm187.451.332a.282.282,0,0,0-.4.022c-.908,1.108-1.905,2.238-2.924,3.345a.282.282,0,0,0,.022.4.252.252,0,0,0,.177.066.281.281,0,0,0,.2-.089c1.041-1.13,2.038-2.26,2.969-3.367A.277.277,0,0,0,393.005,356.19Zm-6,6.58a.281.281,0,0,0-.4,0c-1.019,1.019-2.1,2.06-3.19,3.08a.255.255,0,0,0-.022.377.241.241,0,0,0,.2.089.358.358,0,0,0,.2-.066c1.086-1.019,2.171-2.06,3.212-3.1A.255.255,0,0,0,387,362.77Zm-181.115-.044a.258.258,0,0,0-.288-.244.276.276,0,0,0-.244.31c.155,1.507.354,2.991.6,4.431a.287.287,0,0,0,.288.222h.044a.26.26,0,0,0,.222-.31C206.263,365.694,206.041,364.232,205.886,362.726Zm174.6,6.093a.3.3,0,0,0-.4-.022c-1.086.931-2.215,1.883-3.412,2.858a.277.277,0,0,0-.044.377.308.308,0,0,0,.222.111.3.3,0,0,0,.177-.066c1.2-.953,2.348-1.927,3.412-2.858A.283.283,0,0,0,380.488,368.818Zm-173.028,2.636a.284.284,0,0,0-.354-.2.314.314,0,0,0-.2.332c.4,1.462.842,2.9,1.329,4.276a.261.261,0,0,0,.266.2.168.168,0,0,0,.089-.022.262.262,0,0,0,.155-.354C208.257,374.313,207.836,372.895,207.459,371.455Zm166.094,2.991a.261.261,0,0,0-.377-.066c-1.174.886-2.393,1.772-3.589,2.636a.258.258,0,0,0-.066.377.307.307,0,0,0,.221.111.267.267,0,0,0,.177-.044c1.2-.864,2.415-1.75,3.589-2.636A.242.242,0,0,0,373.553,374.445Zm-7.222,5.228c0-.022-.022-.044-.022-.066a.287.287,0,0,0-.377-.089c-.089.044-.155.111-.244.155-.62.421-1.285.864-1.927,1.263-.51.354-1.041.687-1.551,1.019a.259.259,0,0,0-.089.377.244.244,0,0,0,.222.133.41.41,0,0,0,.155-.044c.775-.487,1.529-.975,2.282-1.484.487-.31.975-.62,1.462-.953A.274.274,0,0,0,366.331,379.674Zm-153.865,4.032a38.729,38.729,0,0,1-2.038-3.921.292.292,0,0,0-.377-.133.285.285,0,0,0-.133.377c.62,1.329,1.307,2.681,2.06,3.966a.255.255,0,0,0,.244.133.315.315,0,0,0,.133-.044A.284.284,0,0,0,212.466,383.706Zm146.31.665a.284.284,0,0,0-.377-.111c-.244.133-.465.288-.709.421-1.019.62-2.06,1.218-3.146,1.817a.259.259,0,0,0-.089.377.254.254,0,0,0,.244.133.281.281,0,0,0,.133-.022c1.307-.753,2.614-1.507,3.855-2.238l.066-.066A.236.236,0,0,0,358.776,384.371Zm-7.754,4.365a.284.284,0,0,0-.377-.111c-1.263.687-2.614,1.374-3.944,2.038a.244.244,0,0,0-.133.31c-.022.022,0,.044,0,.066a.3.3,0,0,0,.244.155.315.315,0,0,0,.133-.044c.111-.066.244-.111.354-.177,1.241-.6,2.437-1.241,3.611-1.861A.284.284,0,0,0,351.022,388.735Zm-133.416,2.149c-.975-1.108-1.905-2.282-2.747-3.456a.284.284,0,0,0-.4-.066.276.276,0,0,0-.044.377c.775,1.108,1.639,2.193,2.526,3.235.089.089.155.2.244.288a.33.33,0,0,0,.2.089.357.357,0,0,0,.2-.066.274.274,0,0,0,.066-.31A.115.115,0,0,0,217.606,390.884Zm125.462,1.861a.273.273,0,0,0-.377-.133c-1.285.6-2.592,1.219-4.054,1.861a.26.26,0,0,0-.133.354.282.282,0,0,0,.244.177.169.169,0,0,0,.111-.044c1.462-.642,2.792-1.241,4.077-1.861A.267.267,0,0,0,343.068,392.745ZM223.987,397c-.51-.4-1.019-.82-1.484-1.219-.642-.554-1.241-1.13-1.839-1.684a.282.282,0,1,0-.4.4c.709.665,1.44,1.329,2.215,1.972.377.332.753.665,1.152.975a.252.252,0,0,0,.177.067.288.288,0,0,0,.177-.51Zm110.929-.62a.26.26,0,0,0-.354-.155c-1.351.554-2.747,1.13-4.143,1.662a.317.317,0,0,0-.155.377.288.288,0,0,0,.266.177.96.96,0,0,1,.111-.022c1.4-.554,2.791-1.13,4.121-1.684A.26.26,0,0,0,334.915,396.379Zm-8.64,3.1c-1.4.51-2.814,1-4.187,1.484a.258.258,0,0,0-.177.332.261.261,0,0,0,.266.2.167.167,0,0,0,.089-.022c1.4-.465,2.792-.975,4.187-1.484a.272.272,0,0,0,.177-.354A.266.266,0,0,0,326.275,399.48Zm-95,2.526-.155-.111q-1.861-1.063-3.589-2.26a.267.267,0,0,0-.377.089.281.281,0,0,0,.066.377c1.152.775,2.371,1.551,3.611,2.282l.177.111a.282.282,0,0,0,.133.022.254.254,0,0,0,.244-.133A.265.265,0,0,0,231.276,402.006Zm86.581.332c-.288.089-.576.2-.886.288-1.086.332-2.215.687-3.345,1.019a.262.262,0,0,0-.2.332.278.278,0,0,0,.266.2h.089c1.108-.332,2.238-.665,3.3-1,.332-.111.643-.2.953-.31a.28.28,0,1,0-.177-.532ZM239.3,405.75c-.487-.177-.953-.354-1.44-.554-.908-.354-1.772-.753-2.636-1.152a.282.282,0,1,0-.244.51c.93.443,1.905.842,2.88,1.241.4.177.82.332,1.241.487h.111a.272.272,0,0,0,.089-.532Zm70.031-.93c-1.4.377-2.836.753-4.3,1.108a.282.282,0,0,0,.066.554.081.081,0,0,0,.066-.022c1.462-.354,2.924-.731,4.32-1.086a.288.288,0,1,0-.155-.554Zm-8.64,2.1c-1.44.31-2.924.62-4.32.886h-.044a.26.26,0,0,0-.222.31.287.287,0,0,0,.288.222h.044c1-.177,2.016-.377,3.035-.6.443-.089.886-.177,1.329-.288a.282.282,0,0,0,.222-.332A.279.279,0,0,0,300.686,406.924ZM247.8,408.276c-1.462-.332-2.9-.709-4.3-1.108a.272.272,0,0,0-.354.177.284.284,0,0,0,.2.354c1.351.377,2.725.753,4.121,1.086.066.022.133.022.2.044h.066a.315.315,0,0,0,.133-.044l.022-.022c.066-.022.089-.089.111-.155A.314.314,0,0,0,247.8,408.276Zm44.154.31c-1.507.222-2.969.443-4.409.642a.276.276,0,0,0-.244.31.307.307,0,0,0,.288.244h.022c1.44-.2,2.924-.421,4.431-.665a.276.276,0,0,0,.222-.31A.26.26,0,0,0,291.957,408.586Zm-35.425,1.2c-1.462-.155-2.947-.377-4.387-.62a.294.294,0,0,0-.332.222.276.276,0,0,0,.244.31c1.44.266,2.924.465,4.409.642h.044a.264.264,0,0,0,.266-.244A.276.276,0,0,0,256.532,409.782Zm26.608-.022c-1.484.155-2.969.288-4.431.4a.275.275,0,0,0-.266.288.289.289,0,0,0,.288.266h.022c1.462-.111,2.947-.244,4.431-.4a.311.311,0,0,0,.266-.31A.276.276,0,0,0,283.14,409.76Zm-17.746.687c-1.507-.044-3.013-.133-4.431-.222a.255.255,0,0,0-.31.244.311.311,0,0,0,.266.31c1.44.089,2.947.177,4.453.222a.277.277,0,1,0,.022-.554Zm8.884-.044c-1.484.066-2.991.111-4.453.111a.275.275,0,0,0-.266.288.269.269,0,0,0,.266.266c1.484,0,2.969-.044,4.475-.111a.275.275,0,0,0,.266-.288A.329.329,0,0,0,274.278,410.4Z" transform="translate(8.269 0)"/><path class="c" d="M260.54,236.029l14.622,25.323,4.165,7.222,2.437,4.209L297.6,300.211l5.694,9.881,5.716-9.881,26.431-45.794.93-1.6,7.222-12.5,1.994-3.478.177-.288.31-.532Zm82.238,3.478-2.88,5.007-.377.642-4.165,7.2-.908,1.6L307.73,300.211l-4.431,7.666-4.431-7.666-15.841-27.428-2.437-4.209-5.428-9.416-12.717-22.022h81.707Z" transform="translate(75.777 30.922)"/><path class="d" d="M340.833,367.668a1.575,1.575,0,0,1-.288,1.041,15.911,15.911,0,0,1-3.279,3.744c-.288.244-.576.487-.864.687a7.8,7.8,0,0,1-2.3,1.418c-2.26.753-12.03-.532-14.4-1.817a1.694,1.694,0,0,1-.377-.288,36.6,36.6,0,0,1-4.165,0c-.8-.044-1.662-.111-2.592-.244a38.4,38.4,0,0,1-7.4-1.617,36.717,36.717,0,0,1-4.143-1.529,44.417,44.417,0,0,1-4.077-2.083c-.332-.177-.576-.4-.864-.576.266,2.038.532,4.054.82,6.048.089.554.177,1.108.244,1.639.244,1.573.487,3.124.753,4.653a163.992,163.992,0,0,0,3.678,16.7c.133.532.288,1.063.443,1.573-.465.066-.93.133-1.374.2.111.51.2,1.041.288,1.573,1.108,5.982,1.95,13.359,2.57,20.936-26.01,10.3-50.225,12.717-66.93,2.5a39.948,39.948,0,0,1-13.47-13.714l-1.728-2.858c.111-3.124.244-5.76.354-7.555-.421-.044-.642-.044-.642-.044,0-3.611.155-8.352.4-13.825.022-.222.022-.443.022-.687.089-1.551.177-3.146.288-4.807.089-2.038.222-4.121.354-6.292.2-3.146.421-6.425.665-9.748-5.406-1.44-9.925-2.991-12.473-4.542-3.323-2.016-4.586-4.83-4.5-7.6a6.069,6.069,0,0,1,.089-1.772c1.263-4.187,5.605-16.66,10.523-29.045l-5.45-1.861s15.929-28.38,25.279-34.628c.044-.022.066-.044.111-.066,3.3-3.057,8.064-5.029,15.2-5.827.044-5.915-.421-15.907-.908-23.55a7.836,7.836,0,0,1-4.785-4.054,4.125,4.125,0,0,1-.288-.51,9.673,9.673,0,0,1-.642-1.551,4.89,4.89,0,0,1,.93-4.608c-.2-1.617-.487-4.276-.6-7.067-.222-5.14.066-10.767,2.393-11.277a.963.963,0,0,0-.089-.155,5.642,5.642,0,0,1,.532-3.944l.975.51a4.879,4.879,0,0,0-.465,3.08c1.861-2.06,8.131-2.725,14.711-2.348.377,0,.775.044,1.152.066,1.351.111,2.7.244,4.032.443a11.939,11.939,0,0,1,1.285.2c.222.022.465.066.687.111a39.643,39.643,0,0,1,4.077.908,17.215,17.215,0,0,1,5.206,2.215,5.34,5.34,0,0,1,.975.842c1.108,1.285,1.285,2.193.8,2.792a2.793,2.793,0,0,1-1.374.753,43.652,43.652,0,0,1,.421,4.963c.133.354.266.731.4,1.108.111.332.222.687.332,1.041.022.022.044.022.066.044.133.111.266.2.4.31a5.217,5.217,0,0,1,1.263,1.728l-1,.465c-.022-.044-.044-.066-.066-.111.266,1.13.51,2.3.687,3.545.266,1.839.554,3.678.842,5.472.089.687.177,1.374.266,2.038.2,1.374.377,2.725.487,4.01a10.488,10.488,0,0,1,.089,1.152c.465,5.849-.089,10.7-3.589,13.138a7.62,7.62,0,0,1-2.371,1.152,13.956,13.956,0,0,1-4.121.6c.044,1.551.133,3.057.266,4.475.066.554.133,1.108.221,1.617.066.532.155,1.063.266,1.551,5.915,1.418,10.368,3.811,13.182,7.067.133.133.288.266.421.421A26.15,26.15,0,0,1,293.2,292.7a99.011,99.011,0,0,1,5.029,12.074c.111.332.222.687.354,1.019.111.377.244.731.354,1.108.62,1.839,1.2,3.678,1.728,5.428.4,1.307.753,2.57,1.108,3.766,1.706,6,2.7,10.435,2.7,10.435l-2.7.643-1.108.266-.8.2c.266,1.064.532,2.1.8,3.168.022.111.066.244.089.354.354,1.374.687,2.769,1.019,4.121,1.706,6.934,3.146,13.359,3.788,17.613,1.905,1.573,3.3,4.032,5.362,6.314a15.862,15.862,0,0,0,9.659,5.206c.022,0,.022.022.044.022a27.835,27.835,0,0,1,7.422-3.833c.288-.066.532-.133.753-.177a1.952,1.952,0,0,1,.465-.066c.886-.177,1.019-.111,1.551.221a7.361,7.361,0,0,0,.886.6c1.728,1.019,3.545,1.972,5.118,2.9,1.95,1.13,3.478,2.215,3.921,3.367A.931.931,0,0,1,340.833,367.668Z" transform="translate(9.263 12.228)"/><g transform="translate(230.778 232.866)"><path class="e" d="M300,317.1c-1.58-.946-1.117-1.066-2.9-.736a25.324,25.324,0,0,0-8.173,4c-.022,0-.04-.013-.062-.018-9.5-1.626-11.17-8.346-15.01-11.529-2.129-13.949-12.859-51.909-12.859-51.909l-16.164,6.01c2.357,15.994,11.835,46.412,14.294,53.276a6.664,6.664,0,0,0,1.507,2.027,10.879,10.879,0,0,0,4.595,4.7,40.552,40.552,0,0,0,22.372,5.457,1.663,1.663,0,0,0,.39.292c2.377,1.3,12.128,2.57,14.407,1.823,2.313-.758,7.054-5.559,6.715-6.886C308.552,321.434,303.957,319.467,300,317.1Z" transform="translate(-174.099 -176.568)"/><path class="f" d="M247.325,255.989c-4.562,10.258-2.887,42.761-2.887,42.761l29.169-6.952S259.362,228.929,247.325,255.989Z" transform="translate(-174.937 -185.905)"/><path class="g" d="M301.717,317.253c-5.051,2.526-10.1,4.785-15.087,6.735-26.01,10.3-50.225,12.717-66.93,2.5.244-9.593.576-19.585.842-24.127.044-.532.089-1,.111-1.374l8.951-.177h.4l.022-.022,48.43-.953h.044l3.1-.066,3.1-.066,14.312-.288c.155.665.31,1.374.443,2.083C300.388,306.021,301.119,311.449,301.717,317.253Z" transform="translate(-204.642 -124.895)"/><path class="f" d="M255.487,246.1c-17.4.574-23.282,6.449-26.282,16.607-3.407,11.534-9.407,81.2-9.407,104.475,0,0,52.075,3.689,80.92-1.039-9.041-30.554-10.021-85.488-10.2-101.854C290.379,252.01,277.544,245.377,255.487,246.1Z" transform="translate(-204.522 -189.764)"/><path class="g" d="M246.118,245.241c1.713-1.289,10.654-.12,8.08-18.324-.939-6.642-7.178-2.209-11.594-1.323S241,245.569,241,245.569Z" transform="translate(-179.825 -217.386)"/><path class="e" d="M232.777,231.248c.742,4.825,2.227,30.932,1.608,37s28.7,7.794,24.869,1.112-1.114-28.828-1.114-28.828Z" transform="translate(-188.747 -207.755)"/><path class="h" d="M233.7,231.581l23.331,8.545s-1.575,12.9-.625,21.982c-17.79-1.378-22.356-23.845-22.655-28.174C233.7,233.121,233.674,232.332,233.7,231.581Z" transform="translate(-187.639 -207.35)"/><path class="e" d="M265.739,242.434c2.162,14.9,5.833,29.763-12.232,27.317s-20.874-25.609-20.821-29.978C232.968,216.46,261.488,213.128,265.739,242.434Z" transform="translate(-188.858 -219.761)"/><path class="g" d="M266.229,226.675c-4.251-4.936-28.154-6.8-32.111-2.428a4.713,4.713,0,0,1,.463-3.077l-.977-.525a5.763,5.763,0,0,0-.538,3.95c.02.06.069.1.091.157-4.376.962-1.582,19.961-1.582,19.961l5.12-.328c1.713-1.289,7.654-10.366,8.966-15.847C255.021,230.122,271.633,232.951,266.229,226.675Z" transform="translate(-191.276 -220.644)"/><path class="e" d="M285.316,319.5c-1.83.1-8.931,1.336-11.423.758-8.374-1.956-29.964-11.638-41.584-17.053,7.149-15.517,17.673-42.985,17.673-42.985l-16.547-4.856c-7.681,14.226-18.287,44.27-20.422,51.239a6.972,6.972,0,0,0-.089,1.777c-.078,2.756,1.188,5.572,4.5,7.592,9.2,5.605,43.9,11.04,53.51,12.1a1.962,1.962,0,0,0,.793.9c2.348,1.323,13.047,2.311,15.247,2.7,2.756.487,11.131,1.2,10.769.075C297.155,329.91,294.051,319.01,285.316,319.5Z" transform="translate(-212.903 -178.445)"/><path class="f" d="M240.517,250.464c-9.334,6.237-25.27,34.617-25.27,34.617l28.376,9.693S265.137,234.007,240.517,250.464Z" transform="translate(-210.054 -187.835)"/><path class="g" d="M240.742,231.223a1.19,1.19,0,0,0,.877,1.393c.545.042,1.032-.51,1.092-1.236a1.189,1.189,0,0,0-.88-1.391C241.287,229.945,240.8,230.5,240.742,231.223Z" transform="translate(-179.072 -209.288)"/><path class="g" d="M245.936,231.363a1.187,1.187,0,0,0,.88,1.391c.543.044,1.03-.507,1.09-1.234a1.19,1.19,0,0,0-.88-1.393C246.483,230.082,245.994,230.636,245.936,231.363Z" transform="translate(-172.759 -209.121)"/><path class="g" d="M239.97,230.333l-.928-.6a5.234,5.234,0,0,1,5.388-2.273l-.241,1.083A4.13,4.13,0,0,0,239.97,230.333Z" transform="translate(-181.132 -212.476)"/><path class="g" d="M249.511,231.254a4.12,4.12,0,0,0-3.908-2.4l-.078-1.106a5.228,5.228,0,0,1,4.991,3.042Z" transform="translate(-173.252 -212.015)"/><path class="g" d="M246.638,239.385a8.728,8.728,0,0,1-7.71-4.251l.95-.572a7.707,7.707,0,0,0,7.776,3.647l.2,1.09A7.533,7.533,0,0,1,246.638,239.385Z" transform="translate(-181.27 -203.727)"/><path class="h" d="M249.2,239.731l-5.38-.072.015-1.108,3.88.053-2.4-8.17,1.062-.312Z" transform="translate(-175.319 -209.122)"/><path class="e" d="M239.94,234.447c1.633,3.678,3.675,7.236-1.449,7.9s-7.508-5.093-7.8-6.221C229.144,230.111,236.732,227.218,239.94,234.447Z" transform="translate(-191.53 -209.058)"/></g><path class="c" d="M415.407,295.458H203.413a3.155,3.155,0,0,1-3.146-3.146h0a3.155,3.155,0,0,1,3.146-3.146H415.407a3.155,3.155,0,0,1,3.146,3.146h0A3.155,3.155,0,0,1,415.407,295.458Z" transform="translate(2.516 95.508)"/><path class="b" d="M282.73,295.458H202.7a3.155,3.155,0,0,1-3.146-3.146h0a3.155,3.155,0,0,1,3.146-3.146H282.73a3.155,3.155,0,0,1,3.146,3.146h0A3.155,3.155,0,0,1,282.73,295.458Z" transform="translate(1.653 95.508)"/><path class="i" d="M330.851,313.541h-65.76a3.691,3.691,0,0,1-3.722-4.551l7.174-39.44A5.7,5.7,0,0,1,273.92,265h65.758a3.689,3.689,0,0,1,3.722,4.548l-7.171,39.44A5.7,5.7,0,0,1,330.851,313.541Z" transform="translate(76.693 66.138)"/><path class="g" d="M331.575,313.541H265.818a3.689,3.689,0,0,1-3.722-4.551l7.172-39.44A5.7,5.7,0,0,1,274.644,265H340.4a3.69,3.69,0,0,1,3.722,4.548l-7.174,39.44A5.7,5.7,0,0,1,331.575,313.541Z" transform="translate(77.575 66.138)"/><path class="c" d="M279.021,271.859l-3.3,18.167h18.167l3.323-18.167Zm13.958,17.059H277.049l2.9-15.951h15.929Z" transform="translate(94.227 74.472)"/><path class="g" d="M257.8,287.48a3.747,3.747,0,0,0,3.735,3.735h68.79a3.746,3.746,0,0,0,3.735-3.735Z" transform="translate(72.449 93.459)"/><path class="i" d="M248.781,287.48a3.747,3.747,0,0,0,3.735,3.735h27.053a3.747,3.747,0,0,0,3.735-3.735Z" transform="translate(61.484 93.459)"/><g transform="translate(346.718 258.545)"><path class="j" d="M285.2,232.235a4.218,4.218,0,0,0-4.218,4.218h8.436A4.217,4.217,0,0,0,285.2,232.235Z" transform="translate(-246.094 -232.235)"/><path class="k" d="M302.031,232.235V273.19a4.21,4.21,0,0,1-4.225,4.207H267.14V236.46a4.224,4.224,0,0,1,4.209-4.225Z" transform="translate(-262.919 -232.235)"/><path class="l" d="M295.915,250.725l-30.68-.007a4.218,4.218,0,0,0,4.218,4.218l30.669,0A4.194,4.194,0,0,1,295.915,250.725Z" transform="translate(-265.235 -209.769)"/><rect class="c" width="25.722" height="1.108" transform="translate(8.807 5.77)"/><rect class="c" width="25.722" height="1.108" transform="translate(8.807 9.967)"/><rect class="c" width="25.722" height="1.108" transform="translate(8.807 14.163)"/><rect class="c" width="25.722" height="1.108" transform="translate(8.807 18.358)"/><rect class="c" width="25.722" height="1.108" transform="translate(8.807 22.554)"/><rect class="c" width="25.722" height="1.108" transform="translate(8.807 26.75)"/><rect class="c" width="25.722" height="1.108" transform="translate(8.807 30.945)"/><rect class="c" width="25.722" height="1.108" transform="translate(8.807 35.142)"/></g><g transform="translate(324.997 229.445)"><rect class="g" width="18.718" height="18.718" rx="1.35" transform="translate(3.724)"/><rect class="m" width="18.718" height="18.718" rx="1.35" transform="translate(0 3.724)"/></g></g></svg>