<svg xmlns="http://www.w3.org/2000/svg" width="248.602" height="279.514" viewBox="0 0 248.602 279.514"><defs><style>.a{fill:#e8e5ea;}.b{fill:#d8d5db;}.c{fill:#d1cdd3;}.d{fill:#939393;}.e,.h{fill:#4d8dff;}.e,.f{opacity:0.3;}.g{fill:#fff;}.i{fill:#ff4e4a;}.j{fill:#ffc84d;}.k{fill:#ffad69;}.l{fill:#d88344;}.m{fill:#232323;}.n{fill:#b7202e;}.o{fill:#9e1526;}</style></defs><g transform="translate(-346.053 -124.624)"><g transform="translate(368.332 143.829)"><path class="a" d="M571.3,295.354c-4.043,20.81-13.712,36.359-27.057,48.257a102.527,102.527,0,0,1-15.848,11.6c-19.868,12.013-44.49,19.294-70.123,25.151-1.447.322-2.917.666-4.387.988a44.1,44.1,0,0,1-11.622,1.057c-40.769-1.723-68.538-62.153-77.083-125.753-7.626-56.618,4.984-120.746,61.441-123.594,21.2-1.057,45.937,9.509,68.952,26.506,1.654,1.217,3.307,2.481,4.938,3.767v.023h.023c.345.253.689.528,1.011.8C544.358,198.266,579.385,253.689,571.3,295.354Z" transform="translate(-346.145 -132.985)"/><path class="a" d="M380.8,235.975c3.2,6.454,4.371,14.62-2.046,17.249-7.166,2.935-18.588-1.812-21.912-12.582-2.125-6.881-1.4-16.489,4.474-20.185C366.339,217.3,376.873,228.06,380.8,235.975Z" transform="translate(-355.753 -20.28)"/><path class="a" d="M445.15,169.853c-2.866-2.5-5.156-6.218-2.74-8.721,2.7-2.8,9.015-2.7,12.862,1.86,2.458,2.915,4.173,7.694,2.239,10.607C455.855,176.091,448.664,172.919,445.15,169.853Z" transform="translate(-244.689 -98.92)"/><path class="b" d="M440.8,374.715h-.016a37.844,37.844,0,0,1-4.587-.551.288.288,0,0,1-.23-.335.276.276,0,0,1,.333-.23,37.211,37.211,0,0,0,4.516.542.29.29,0,0,1,.271.3A.287.287,0,0,1,440.8,374.715Zm4.6-.023a.286.286,0,0,1-.021-.572,37.42,37.42,0,0,0,4.527-.595.286.286,0,1,1,.108.563,37.6,37.6,0,0,1-4.594.6Zm-13.6-1.61a.271.271,0,0,1-.083-.014,44.335,44.335,0,0,1-4.343-1.583.288.288,0,0,1-.154-.377.293.293,0,0,1,.377-.152,43.239,43.239,0,0,0,4.288,1.562.288.288,0,0,1-.085.563Zm22.617-.133a.287.287,0,0,1-.087-.56c.684-.22,1.374-.459,2.051-.714l2.255-.861a.288.288,0,0,1,.207.537l-2.262.859c-.684.259-1.383.5-2.076.726A.288.288,0,0,1,454.409,372.948Zm8.611-3.236a.288.288,0,0,1-.106-.556q2.139-.837,4.268-1.7a.287.287,0,1,1,.214.533q-2.129.858-4.27,1.7A.289.289,0,0,1,463.02,369.712Zm-39.676-.2a.275.275,0,0,1-.138-.037c-1.323-.712-2.658-1.509-3.967-2.363a.286.286,0,1,1,.312-.48c1.3.845,2.618,1.633,3.928,2.341a.287.287,0,0,1-.136.54Zm48.193-3.239a.287.287,0,0,1-.11-.551c1.417-.593,2.832-1.187,4.233-1.794a.287.287,0,1,1,.23.526q-2.112.909-4.242,1.8A.271.271,0,0,1,471.536,366.276Zm-55.9-1.764a.272.272,0,0,1-.172-.06c-1.2-.912-2.407-1.893-3.585-2.91a.292.292,0,0,1-.028-.407.3.3,0,0,1,.407-.03c1.164,1.013,2.361,1.984,3.551,2.889a.287.287,0,0,1,.057.4A.29.29,0,0,1,415.636,364.512Zm64.349-1.883a.287.287,0,0,1-.117-.549q2.105-.944,4.18-1.916a.288.288,0,0,1,.244.521q-2.078.972-4.189,1.92A.3.3,0,0,1,479.984,362.629Zm8.338-3.9a.292.292,0,0,1-.26-.161.288.288,0,0,1,.133-.384q2.071-1.016,4.1-2.067a.283.283,0,0,1,.388.124.287.287,0,0,1-.124.386q-2.036,1.051-4.116,2.072A.266.266,0,0,1,488.322,358.724Zm-79.644-.218a.284.284,0,0,1-.2-.083c-1.073-1.036-2.159-2.145-3.234-3.291a.287.287,0,0,1,.012-.407.282.282,0,0,1,.4.014c1.07,1.142,2.152,2.239,3.218,3.273a.284.284,0,0,1,.007.4A.288.288,0,0,1,408.678,358.506ZM496.5,354.5a.281.281,0,0,1-.25-.149.288.288,0,0,1,.115-.39c1.364-.746,2.713-1.5,4-2.249a.287.287,0,1,1,.287.5c-1.3.749-2.644,1.507-4.017,2.258A.292.292,0,0,1,496.5,354.5Zm-94.109-2.706a.279.279,0,0,1-.218-.1c-.981-1.144-1.966-2.343-2.928-3.565a.288.288,0,1,1,.452-.356c.958,1.217,1.939,2.409,2.91,3.546a.286.286,0,0,1-.216.473Zm102.068-1.906a.284.284,0,0,1-.243-.136.287.287,0,0,1,.094-.4c1.332-.825,2.634-1.654,3.873-2.467a.287.287,0,1,1,.315.48c-1.24.815-2.547,1.649-3.886,2.476A.3.3,0,0,1,504.455,349.886Zm7.683-5.065a.292.292,0,0,1-.234-.122.285.285,0,0,1,.069-.4c1.266-.9,2.508-1.812,3.693-2.72a.288.288,0,1,1,.349.457c-1.19.91-2.437,1.828-3.712,2.731A.272.272,0,0,1,512.138,344.821Zm-115.459-.246a.281.281,0,0,1-.23-.119c-.889-1.208-1.785-2.476-2.664-3.762a.288.288,0,1,1,.475-.324c.873,1.282,1.766,2.543,2.651,3.748a.284.284,0,0,1-.062.4A.276.276,0,0,1,396.679,344.575Zm122.76-5.345a.285.285,0,0,1-.223-.1.289.289,0,0,1,.037-.4c1.181-.978,2.347-1.987,3.468-3a.288.288,0,1,1,.386.427c-1.128,1.017-2.3,2.033-3.484,3.018A.294.294,0,0,1,519.44,339.231Zm-127.958-2.249a.3.3,0,0,1-.243-.133c-.818-1.275-1.638-2.593-2.432-3.916a.284.284,0,0,1,.1-.393.289.289,0,0,1,.393.1c.792,1.318,1.61,2.632,2.426,3.9a.284.284,0,0,1-.087.4A.273.273,0,0,1,391.482,336.982Zm134.77-3.925a.286.286,0,0,1-.2-.489c1.1-1.089,2.164-2.2,3.17-3.31a.288.288,0,0,1,.427.386c-1.015,1.114-2.088,2.235-3.193,3.33A.281.281,0,0,1,526.252,333.057ZM386.727,329.1a.284.284,0,0,1-.248-.145c-.742-1.3-1.493-2.662-2.233-4.033a.288.288,0,0,1,.508-.273c.735,1.369,1.484,2.722,2.223,4.024a.286.286,0,0,1-.25.427Zm145.71-2.837a.278.278,0,0,1-.181-.064.286.286,0,0,1-.041-.4c.976-1.192,1.916-2.412,2.8-3.622a.287.287,0,1,1,.462.34c-.889,1.217-1.835,2.444-2.818,3.645A.283.283,0,0,1,532.438,326.265ZM382.37,321a.289.289,0,0,1-.257-.159c-.7-1.38-1.39-2.77-2.044-4.13a.286.286,0,1,1,.514-.25c.657,1.357,1.341,2.742,2.042,4.121a.289.289,0,0,1-.255.418Zm155.479-2.157a.268.268,0,0,1-.154-.046.287.287,0,0,1-.087-.4c.82-1.275,1.617-2.6,2.366-3.928a.289.289,0,0,1,.5.283c-.756,1.339-1.56,2.671-2.384,3.958A.293.293,0,0,1,537.849,318.839ZM378.369,312.7a.289.289,0,0,1-.262-.168q-.954-2.084-1.877-4.208a.286.286,0,1,1,.524-.23q.923,2.119,1.874,4.2a.285.285,0,0,1-.142.381A.263.263,0,0,1,378.369,312.7Zm163.984-1.879a.314.314,0,0,1-.126-.028.289.289,0,0,1-.131-.384c.659-1.36,1.286-2.765,1.87-4.178a.287.287,0,1,1,.531.221c-.586,1.422-1.222,2.837-1.886,4.208A.286.286,0,0,1,542.353,310.825ZM374.7,304.263a.284.284,0,0,1-.264-.177q-.879-2.122-1.72-4.274a.287.287,0,1,1,.533-.211q.844,2.15,1.716,4.265a.289.289,0,0,1-.154.377A.313.313,0,0,1,374.7,304.263Zm171.157-1.929a.262.262,0,0,1-.094-.016.29.29,0,0,1-.179-.365c.5-1.445.951-2.915,1.357-4.371a.286.286,0,1,1,.551.154c-.406,1.468-.866,2.949-1.364,4.4A.29.29,0,0,1,545.856,302.334Zm-174.518-6.64a.285.285,0,0,1-.269-.186q-.8-2.153-1.573-4.332a.288.288,0,0,1,.544-.191q.765,2.174,1.566,4.323a.287.287,0,0,1-.168.37A.31.31,0,0,1,371.338,295.694Zm176.989-2.207a.287.287,0,0,1-.28-.347c.324-1.511.611-3.025.852-4.5a.286.286,0,1,1,.565.092c-.241,1.484-.531,3.007-.857,4.527A.289.289,0,0,1,548.327,293.486Zm-180.06-6.47a.288.288,0,0,1-.271-.2q-.734-2.174-1.429-4.369a.287.287,0,0,1,.186-.361.291.291,0,0,1,.361.186q.7,2.188,1.424,4.359a.285.285,0,0,1-.179.365A.306.306,0,0,1,368.267,287.016Zm181.53-2.6-.03,0a.29.29,0,0,1-.255-.317c.165-1.488.3-3.025.388-4.566a.288.288,0,0,1,.287-.269h.018a.288.288,0,0,1,.269.306c-.094,1.548-.225,3.094-.393,4.591A.285.285,0,0,1,549.8,284.421Zm-184.311-6.16a.292.292,0,0,1-.276-.2q-.658-2.2-1.286-4.417a.286.286,0,1,1,.551-.156q.624,2.212,1.286,4.408a.288.288,0,0,1-.193.358A.249.249,0,0,1,365.486,278.261ZM550.3,275.245a.288.288,0,0,1-.287-.285c-.023-1.509-.1-3.046-.234-4.571a.288.288,0,0,1,.574-.051c.131,1.539.211,3.092.234,4.614a.287.287,0,0,1-.283.292Zm-187.325-5.834a.289.289,0,0,1-.278-.214l-.06-.232q-.589-2.219-1.137-4.463a.286.286,0,1,1,.556-.138q.548,2.239,1.137,4.454l.062.232a.29.29,0,0,1-.207.351A.265.265,0,0,1,362.973,269.411Zm186.53-3.321a.286.286,0,0,1-.283-.243c-.23-1.477-.512-2.99-.843-4.5a.287.287,0,0,1,.56-.124c.333,1.52.618,3.046.848,4.536a.284.284,0,0,1-.237.326Zm-188.767-5.85a.283.283,0,0,1-.28-.225c-.338-1.516-.655-3.032-.949-4.509a.288.288,0,1,1,.565-.11c.292,1.47.606,2.984.944,4.5a.284.284,0,0,1-.218.34A.3.3,0,0,1,360.736,260.239Zm186.815-3.128a.285.285,0,0,1-.276-.211c-.4-1.44-.854-2.915-1.346-4.382a.283.283,0,0,1,.179-.363.279.279,0,0,1,.363.181c.5,1.477.951,2.958,1.355,4.41a.291.291,0,0,1-.276.365Zm-188.611-5.9a.284.284,0,0,1-.282-.237c-.266-1.5-.519-3.034-.751-4.548a.291.291,0,0,1,.243-.326.287.287,0,0,1,.326.239c.23,1.509.48,3.034.747,4.534a.289.289,0,0,1-.234.333Zm185.694-2.827a.285.285,0,0,1-.266-.181c-.544-1.4-1.135-2.827-1.757-4.24a.287.287,0,0,1,.526-.23c.625,1.419,1.219,2.853,1.766,4.261a.288.288,0,0,1-.165.372A.316.316,0,0,1,544.634,248.388Zm-187.084-6.27a.287.287,0,0,1-.285-.25c-.2-1.518-.372-3.059-.531-4.578a.283.283,0,0,1,.255-.315.29.29,0,0,1,.315.255c.159,1.514.338,3.05.531,4.566a.286.286,0,0,1-.248.319Zm183.383-2.152a.284.284,0,0,1-.257-.163c-.655-1.341-1.357-2.715-2.092-4.084a.287.287,0,1,1,.505-.271c.74,1.376,1.445,2.756,2.1,4.1a.285.285,0,0,1-.131.384A.276.276,0,0,1,540.934,239.965Zm-184.33-7a.291.291,0,0,1-.287-.264c-.119-1.557-.218-3.105-.294-4.6a.288.288,0,0,1,.273-.3.283.283,0,0,1,.3.273c.073,1.491.172,3.034.294,4.585a.288.288,0,0,1-.264.308Zm179.984-1.109a.285.285,0,0,1-.248-.142c-.753-1.3-1.553-2.618-2.373-3.93a.286.286,0,0,1,.485-.305c.827,1.318,1.628,2.646,2.386,3.946a.29.29,0,0,1-.106.393A.275.275,0,0,1,536.588,231.852Zm-4.885-7.8a.282.282,0,0,1-.237-.129c-.825-1.231-1.7-2.5-2.616-3.776a.285.285,0,0,1,.069-.4.279.279,0,0,1,.4.064c.916,1.279,1.8,2.554,2.625,3.792a.288.288,0,0,1-.078.4A.293.293,0,0,1,531.7,224.055Zm-175.556-.285a.286.286,0,0,1-.287-.283q-.034-1.616-.037-3.22c0-.466,0-.928.007-1.39a.288.288,0,0,1,.287-.285h0a.286.286,0,0,1,.285.289c0,.462-.007.921-.007,1.383q0,1.6.037,3.211a.29.29,0,0,1-.28.294Zm170.209-7.208a.279.279,0,0,1-.227-.115c-.939-1.236-1.89-2.455-2.825-3.627a.287.287,0,0,1,.448-.358c.942,1.174,1.9,2.4,2.834,3.638a.285.285,0,0,1-.057.4A.28.28,0,0,1,526.355,216.562Zm-170.119-1.994h-.012a.289.289,0,0,1-.276-.3c.064-1.541.159-3.089.276-4.6a.274.274,0,0,1,.31-.262.288.288,0,0,1,.264.308c-.119,1.5-.211,3.048-.276,4.582A.29.29,0,0,1,356.236,214.569Zm164.375-5.2a.288.288,0,0,1-.218-.1c-1.01-1.194-2.021-2.366-3.006-3.477a.288.288,0,1,1,.432-.381c.985,1.116,2,2.288,3.013,3.489a.287.287,0,0,1-.034.4A.281.281,0,0,1,520.611,209.369Zm-163.653-3.974h-.032a.287.287,0,0,1-.253-.319c.181-1.553.393-3.089.632-4.571a.286.286,0,0,1,.565.092c-.237,1.472-.446,3-.627,4.546A.282.282,0,0,1,356.958,205.395Zm157.551-2.919a.288.288,0,0,1-.211-.092c-1.036-1.112-2.1-2.233-3.17-3.328a.288.288,0,0,1,.413-.4c1.07,1.1,2.138,2.223,3.179,3.34a.287.287,0,0,1-.211.482Zm-156.094-6.165-.057,0a.286.286,0,0,1-.223-.34c.31-1.5.662-3.013,1.043-4.493a.279.279,0,0,1,.349-.207.285.285,0,0,1,.207.349c-.379,1.472-.728,2.974-1.038,4.467A.283.283,0,0,1,358.414,196.311Zm149.672-.432a.29.29,0,0,1-.2-.08c-1.107-1.086-2.226-2.161-3.328-3.193a.287.287,0,0,1-.012-.407.291.291,0,0,1,.407-.011c1.1,1.034,2.226,2.111,3.337,3.2a.287.287,0,0,1,0,.407A.283.283,0,0,1,508.086,195.879Zm-6.73-6.312a.281.281,0,0,1-.191-.071c-1.139-1.022-2.3-2.042-3.461-3.036a.286.286,0,1,1,.372-.434c1.165.995,2.329,2.019,3.471,3.041a.289.289,0,0,1,.021.407A.283.283,0,0,1,501.357,189.567Zm-140.625-2.154a.287.287,0,0,1-.273-.374c.48-1.5.995-2.963,1.539-4.355a.286.286,0,1,1,.533.209c-.535,1.38-1.05,2.834-1.525,4.32A.287.287,0,0,1,360.731,187.413Zm133.631-3.84a.292.292,0,0,1-.184-.067c-1.19-.974-2.393-1.941-3.581-2.871a.287.287,0,1,1,.354-.452c1.192.933,2.4,1.9,3.592,2.88a.287.287,0,0,1,.039.4A.283.283,0,0,1,494.363,183.572Zm-130.3-4.729a.283.283,0,0,1-.26-.407c.655-1.408,1.364-2.791,2.1-4.114a.282.282,0,0,1,.39-.11.289.289,0,0,1,.113.39c-.735,1.312-1.433,2.683-2.085,4.075A.283.283,0,0,1,364.062,178.843ZM487.13,177.9a.283.283,0,0,1-.172-.057c-1.217-.912-2.467-1.824-3.712-2.708a.288.288,0,0,1,.331-.471c1.25.891,2.5,1.805,3.726,2.719a.289.289,0,0,1,.06.4A.294.294,0,0,1,487.13,177.9Zm-7.5-5.342a.282.282,0,0,1-.161-.05c-1.252-.85-2.54-1.7-3.833-2.536a.289.289,0,0,1-.087-.4.285.285,0,0,1,.4-.085c1.3.834,2.591,1.691,3.847,2.543a.288.288,0,0,1-.163.526Zm-111.081-1.734a.286.286,0,0,1-.237-.446c.859-1.291,1.776-2.547,2.724-3.735a.285.285,0,0,1,.4-.044.29.29,0,0,1,.046.4c-.939,1.171-1.847,2.414-2.7,3.691A.283.283,0,0,1,368.552,170.827Zm103.343-3.255a.293.293,0,0,1-.149-.041c-1.3-.79-2.628-1.578-3.955-2.345a.288.288,0,0,1,.287-.5c1.332.769,2.667,1.56,3.969,2.352a.288.288,0,0,1-.152.533Zm-97.607-3.918a.3.3,0,0,1-.2-.08.291.291,0,0,1-.007-.407c1.068-1.116,2.194-2.187,3.346-3.183a.289.289,0,0,1,.379.436c-1.142.983-2.256,2.042-3.312,3.144A.28.28,0,0,1,374.287,163.654Zm89.628-.675a.292.292,0,0,1-.138-.034c-1.36-.737-2.726-1.454-4.07-2.134a.286.286,0,0,1-.126-.386.282.282,0,0,1,.386-.124c1.346.68,2.722,1.4,4.084,2.138a.287.287,0,0,1-.135.54Zm-8.214-4.155a.3.3,0,0,1-.124-.028c-1.371-.645-2.779-1.282-4.185-1.89a.285.285,0,0,1-.149-.379.289.289,0,0,1,.377-.147c1.41.611,2.827,1.25,4.2,1.9a.287.287,0,0,1-.122.547Zm-74.473-1.171a.288.288,0,0,1-.168-.521c1.25-.889,2.559-1.73,3.889-2.5a.288.288,0,0,1,.287.5c-1.314.76-2.607,1.589-3.843,2.469A.289.289,0,0,1,381.229,157.652Zm66.023-2.483a.279.279,0,0,1-.106-.021c-1.424-.56-2.871-1.1-4.3-1.608a.286.286,0,0,1-.175-.365.291.291,0,0,1,.368-.177c1.436.51,2.889,1.052,4.32,1.617a.287.287,0,0,1-.106.554Zm-58.078-2.118a.29.29,0,0,1-.262-.165.286.286,0,0,1,.14-.381c1.378-.636,2.814-1.227,4.27-1.755a.287.287,0,1,1,.2.54c-1.445.524-2.866,1.107-4.226,1.736A.319.319,0,0,1,389.173,153.052Zm49.4-.946a.289.289,0,0,1-.087-.014c-1.468-.457-2.954-.884-4.408-1.27a.286.286,0,1,1,.147-.554c1.465.386,2.954.815,4.433,1.277a.287.287,0,0,1-.085.56ZM397.8,149.924a.288.288,0,0,1-.078-.565c1.454-.4,2.968-.751,4.495-1.05a.278.278,0,0,1,.34.227.287.287,0,0,1-.227.335c-1.516.3-3.013.648-4.454,1.04A.32.32,0,0,1,397.8,149.924Zm31.871-.17a.28.28,0,0,1-.06-.007c-1.518-.328-3.034-.618-4.506-.859a.285.285,0,0,1-.234-.331.29.29,0,0,1,.328-.237c1.481.243,3.007.535,4.534.866a.287.287,0,0,1-.062.567Zm-9.077-1.481h-.03c-1.527-.165-3.064-.283-4.566-.347a.286.286,0,0,1-.276-.3.29.29,0,0,1,.287-.276h.011c1.514.067,3.064.184,4.605.349a.287.287,0,0,1,.253.317A.283.283,0,0,1,420.6,148.272Zm-13.772-.08a.288.288,0,0,1-.03-.574c1.5-.158,3.053-.262,4.61-.305h.009a.287.287,0,0,1,.009.574c-1.546.044-3.082.145-4.566.3Z" transform="translate(-355.662 -114.406)"/></g><path class="c" d="M529.6,280.905c-.023.276.023.505,0,.758-.574,6.408-6.087,20.075-11.576,32.2.184,4.364.322,8.269.345,11.484.023.6.023,1.148.023,1.7,0,0-.23,0-.666.046.161,2.848.367,7.786.528,13.46-19.868,12.013-44.49,19.294-70.123,25.151-1.447.322-2.917.666-4.387.988a44.1,44.1,0,0,1-11.622,1.057,9.623,9.623,0,0,1-.253-2.94c.758-13.276,1.975-28.32,4.042-38.633-.459-.069-.942-.138-1.424-.207,5.214-17.594,7.832-42.974,9.187-65a.023.023,0,0,1-.023.023c.161-2.6.3-5.122.413-7.626-3.33,3.4-5.627,5.512-5.627,5.512l-7.051-11.6c-8.705,6.293-16.928,11.852-20.947,14.424-3.33,3.124-9,3.583-13.46-2.274-7.212-9.44-17.387-49.061-18.582-55.791a1.767,1.767,0,0,1-.413-.413c-1.654-2.274-7.442-14.815-6.983-17.249.436-2.274,3.262-7.694,6.408-8.406-.368-1.125-.781-2.366-1.378-3.928-1.332-3.629-2.917-7.3-.528-6.959,2.159.3,7.855,13.827,8.8,16.1.138-1.08.276-1.952.276-1.952.735-2.159,4.479-3.307,4.02-.023-.666,4.686.942,6.959.873,10.68,0,.207,0,.436-.023.758a3.1,3.1,0,0,1-.069.413,1.214,1.214,0,0,1-.023.3c0,.069-.023.115-.023.161a27.964,27.964,0,0,1-2.94,8.062c0,.023.023.023.023.046,2.5,8.177,13.988,29.561,20.695,41.366,4.088-3.4,9.256-7.442,14.47-11.415l-.459-.758s27.241-25.472,41.343-27.4c.207-.988.345-2.067.482-3.193.138-1.47.23-3.032.276-4.64-10.359-.115-11.324-7.74-10.29-17.433l-1.562-.322,2.458-6.224c.023-.161.046-.322.069-.459a1.807,1.807,0,0,1-.436-1.1c-.069-.758.207-1.4.62-1.424a.247.247,0,0,1,.184.046c.092-.551.184-1.1.253-1.654.184-1.217.413-2.343.643-3.422a4.813,4.813,0,0,0-1.861-.092l-.253-1.125a6.548,6.548,0,0,1,2.389.092,30.907,30.907,0,0,1,3.652-8.728c-3.307-.23-4.869-1.309-2.573-3.974,3.56-4.134,20.419-6.2,28.917-4.456,2.986.62,4.938,1.7,4.961,3.307,0,.184-.023.3-.023.459v.023h.023a5.021,5.021,0,0,0,2.159-1.746l.965.643a6.488,6.488,0,0,1-2.113,1.906,2.507,2.507,0,0,1-.345.184c9,5.834-3.859,37.485-3.9,37.6-.253,5.444-.413,10.818-.39,14.608,8.177.942,13.345,3.33,16.767,7.074,9.164,7.373,23.29,37.622,23.29,37.622l-5.765,1.516c4.111,13.184,7.6,26.414,8.613,30.847A7.825,7.825,0,0,1,529.6,280.905Z" transform="translate(32.325 25.499)"/><g transform="translate(346.053 124.624)"><rect class="d" width="153.727" height="120.015" rx="6.72" transform="translate(173.209 130.869) rotate(180)"/><path class="e" d="M508.981,266.345H364.494a18.459,18.459,0,0,1-18.441-18.439V143.065a18.461,18.461,0,0,1,18.441-18.441H508.981a18.463,18.463,0,0,1,18.441,18.441v104.84A18.461,18.461,0,0,1,508.981,266.345ZM364.494,125.2a17.889,17.889,0,0,0-17.867,17.867v104.84a17.887,17.887,0,0,0,17.867,17.865H508.981a17.887,17.887,0,0,0,17.867-17.865V143.065A17.889,17.889,0,0,0,508.981,125.2Z" transform="translate(-346.053 -124.624)"/><g transform="translate(32.206 23.121)"><g class="f" transform="translate(0 3.255)"><rect class="g" width="25.676" height="20.045" rx="1.122" transform="translate(25.676 20.045) rotate(180)"/><rect class="g" width="25.675" height="20.045" rx="1.122" transform="translate(59.877 20.045) rotate(180)"/><rect class="g" width="25.675" height="20.045" rx="1.122" transform="translate(94.078 20.045) rotate(180)"/><rect class="g" width="25.676" height="20.045" rx="1.122" transform="translate(128.28 20.045) rotate(180)"/></g><g class="f" transform="translate(0 37.719)"><rect class="g" width="25.676" height="20.045" rx="1.122" transform="translate(25.676 20.045) rotate(180)"/><rect class="g" width="25.675" height="20.045" rx="1.122" transform="translate(59.877 20.045) rotate(180)"/><rect class="g" width="25.675" height="20.045" rx="1.122" transform="translate(94.078 20.045) rotate(180)"/><rect class="g" width="25.676" height="20.045" rx="1.122" transform="translate(128.28 20.045) rotate(180)"/></g><g class="f" transform="translate(0 72.182)"><rect class="g" width="25.676" height="20.045" rx="1.122" transform="translate(25.676 20.045) rotate(180)"/><rect class="g" width="25.675" height="20.045" rx="1.122" transform="translate(59.877 20.045) rotate(180)"/><rect class="g" width="25.675" height="20.045" rx="1.122" transform="translate(94.078 20.045) rotate(180)"/><rect class="g" width="25.676" height="20.045" rx="1.122" transform="translate(128.28 20.045) rotate(180)"/></g><rect class="h" width="25.676" height="20.045" rx="1.122" transform="translate(97.334 20.045) rotate(180)"/><rect class="i" width="25.676" height="20.045" rx="1.122" transform="translate(97.334 88.971) rotate(180)"/><rect class="j" width="25.675" height="20.045" rx="1.122" transform="translate(28.931 54.508) rotate(180)"/></g></g><g transform="translate(419.581 169.783)"><path class="k" d="M444.967,154.374c-.769,5-2.308,32.069-1.667,38.355s-29.758,8.08-25.782,1.153S418.671,164,418.671,164Z" transform="translate(-327.367 -131.202)"/><path class="l" d="M442.007,154.707l-24.188,8.859s1.633,13.372.648,22.789c9.978-4.093,7.77-12.467,7.763-16.967C426.226,165.3,442.032,155.486,442.007,154.707Z" transform="translate(-326.51 -130.77)"/><path class="l" d="M416.585,155.165l-3.75,8.041,4.584,1.847Z" transform="translate(-332.974 -130.176)"/><path class="k" d="M415.517,166.334c-2.242,15.449-6.048,30.856,12.681,28.32s21.639-26.549,21.586-31.079C449.492,139.406,419.925,135.951,415.517,166.334Z" transform="translate(-331.974 -144.011)"/><path class="m" d="M450.476,149.691a6.652,6.652,0,0,0,2.446-2.1l-.951-.641a5.237,5.237,0,0,1-2.2,1.759c.012-.168.037-.312.034-.5-.051-6.238-29.078-4.44-33.881,1.139-2.837,3.291.177,4.166,5.1,4.015a2.272,2.272,0,0,0-.781,1.1c-3.241,15.871,12.059,31.495,13.834,32.831h12.488S459.478,155.521,450.476,149.691Z" transform="translate(-330.386 -144.285)"/><path class="k" d="M466.689,233.725c-1.663-7.373-10.285-39.26-17.114-54.564l-17.486,3.728s11.278,37.712,17.27,51.792c-1.39,7.573-8.473,42.82-12.844,52.69-1.916,4.486,5.375,6.36,7.162,4.153s21.843-42.54,22.943-55.076c.023-.271,0-.5,0-.763A7.071,7.071,0,0,0,466.689,233.725Z" transform="translate(-308.004 -99.056)"/><path class="n" d="M442.94,174.356c9.162,7.178,23.421,37.758,23.421,37.758l-30.089,7.807S418.768,155.426,442.94,174.356Z" transform="translate(-310.523 -109.799)"/><path class="m" d="M490.551,227.462a102.524,102.524,0,0,1-15.848,11.6c-19.868,12.013-44.49,19.294-70.123,25.151a5.836,5.836,0,0,1,0-.9c.827-14.217,2.182-30.456,4.525-40.769l65.713,1.309,15.527.322C490.413,224.959,490.482,226.061,490.551,227.462Z" transform="translate(-343.702 -42.791)"/><path class="n" d="M452.613,169.233c18.04.595,24.138,6.684,27.248,17.215,3.533,11.957,9.752,84.18,9.752,108.313,0,0-53.988,3.824-83.893-1.077,9.374-31.676,10.389-88.629,10.577-105.6C416.439,175.354,429.745,168.477,452.613,169.233Z" transform="translate(-342.201 -112.005)"/><path class="m" d="M415.447,156.007c.06.753-.218,1.39-.625,1.422s-.781-.551-.843-1.3.221-1.39.625-1.422S415.388,155.256,415.447,156.007Z" transform="translate(-331.5 -130.774)"/><path class="m" d="M418.422,155.027a4.279,4.279,0,0,0-4.375-1.863l-.248-1.121a5.422,5.422,0,0,1,5.584,2.357Z" transform="translate(-331.725 -134.347)"/><path class="o" d="M411.065,180.3c-.138,8.338-.459,21.636-1.355,36.5,7.649-9.144,15.159-20.054,15.6-28.208C425.926,177.385,419.495,176.7,411.065,180.3Z" transform="translate(-337.027 -100.096)"/><path class="k" d="M462.286,215.76l-9.259-15.295S427.746,218.7,414.19,229.957c-6.707-11.8-18.187-33.187-20.681-41.36-.007-.023-.018-.037-.025-.06a27.948,27.948,0,0,0,2.928-8.041c.011-.057.03-.1.039-.165.016-.108.012-.2.023-.3.016-.135.051-.3.057-.42.016-.322.025-.556.03-.76.076-3.714-1.537-5.986-.875-10.676.459-3.271-3.284-2.141-4.015.03,0,0-.145.875-.292,1.939-.942-2.269-6.622-15.782-8.788-16.09-2.389-.342-.8,3.337.54,6.953.577,1.562,1.006,2.807,1.374,3.928-3.158.717-5.974,6.14-6.413,8.413-.469,2.439,5.324,14.969,6.971,17.245a1.749,1.749,0,0,0,.427.407c1.181,6.739,11.363,46.353,18.568,55.811,4.463,5.857,10.15,5.393,13.48,2.267C425.575,243.917,450.7,226.643,462.286,215.76Z" transform="translate(-378.065 -131.65)"/><path class="n" d="M449.474,180.026c-.93,16.873-32.25,45.79-32.25,45.79L399.9,197.34S451.164,149.37,449.474,180.026Z" transform="translate(-349.754 -111.21)"/><path class="k" d="M417.651,159.135c-.689,4.056-1.69,8.064,2.1,7.784s4.748-6.594,4.807-7.8C424.874,152.7,419.006,151.165,417.651,159.135Z" transform="translate(-327.58 -132.055)"/></g></g></svg>