<svg xmlns="http://www.w3.org/2000/svg" width="17.92" height="17.92" viewBox="0 0 17.92 17.92"><defs><style>.a{fill:#069;}</style></defs><g transform="translate(6.516)"><path class="a" d="M196.773,0h-6.516a.815.815,0,1,0,0,1.629h4.55l-8.384,8.384a.814.814,0,1,0,1.152,1.152l8.384-8.384v4.55a.815.815,0,1,0,1.629,0V.815A.815.815,0,0,0,196.773,0Z" transform="translate(-186.184)"/></g><g transform="translate(0 3.258)"><path class="a" d="M13.847,97.978a.815.815,0,0,0-.815.815v7.331H1.629V94.72H8.96a.815.815,0,1,0,0-1.629H.815A.815.815,0,0,0,0,93.906v13.032a.815.815,0,0,0,.815.814H13.847a.815.815,0,0,0,.815-.815V98.793A.815.815,0,0,0,13.847,97.978Z" transform="translate(0 -93.091)"/></g></svg>