<svg xmlns="http://www.w3.org/2000/svg" width="44.819" height="44.819" viewBox="0 0 44.819 44.819"><defs><style>.a{fill:#58595b;}</style></defs><path class="a" d="M42.193,15.983V11.818a3.944,3.944,0,0,0-3.939-3.939H36.172L28.679.386l0,0a1.316,1.316,0,0,0-.9-.38H9.191A1.313,1.313,0,0,0,7.878,1.313V7.878H6.565a3.944,3.944,0,0,0-3.939,3.939v4.165A3.945,3.945,0,0,0,0,19.7V35.628a3.944,3.944,0,0,0,3.939,3.939H7.878v3.939a1.313,1.313,0,0,0,1.313,1.313H35.628a1.313,1.313,0,0,0,1.313-1.313V39.567H40.88a3.944,3.944,0,0,0,3.939-3.939V19.7A3.945,3.945,0,0,0,42.193,15.983ZM36.941,10.5h1.313a1.315,1.315,0,0,1,1.313,1.313v3.939H36.941ZM29.063,4.483l3.4,3.4h-3.4ZM10.5,2.626H26.436V9.191A1.313,1.313,0,0,0,27.749,10.5h6.565v5.252H10.5ZM5.252,11.818A1.315,1.315,0,0,1,6.565,10.5H7.878v5.252H5.252ZM34.315,42.193H10.5V29.063h23.81Zm7.878-6.565a1.315,1.315,0,0,1-1.313,1.313H36.941V29.063h1.313a1.313,1.313,0,0,0,0-2.626H6.565a1.313,1.313,0,1,0,0,2.626H7.878v7.878H3.939a1.315,1.315,0,0,1-1.313-1.313V19.7a1.315,1.315,0,0,1,1.313-1.313H40.88A1.315,1.315,0,0,1,42.193,19.7Z"/><g transform="translate(13.131 31.689)"><path class="a" d="M167.245,362H151.313a1.313,1.313,0,0,0,0,2.626h15.932a1.313,1.313,0,0,0,0-2.626Z" transform="translate(-150 -362)"/></g><g transform="translate(13.131 36.941)"><path class="a" d="M167.245,422H151.313a1.313,1.313,0,1,0,0,2.626h15.932a1.313,1.313,0,1,0,0-2.626Z" transform="translate(-150 -422)"/></g><g transform="translate(5.252 21.009)"><path class="a" d="M63.939,240H61.313a1.313,1.313,0,0,0,0,2.626h2.626a1.313,1.313,0,0,0,0-2.626Z" transform="translate(-60 -240)"/></g></svg>