<svg xmlns="http://www.w3.org/2000/svg" width="45.092" height="45.092" viewBox="0 0 45.092 45.092"><defs><style>.a{fill:#58595b;}</style></defs><g transform="translate(-502 -1934)"><g transform="translate(513 1924)"><g transform="translate(3 40)"><path class="a" d="M46.516,131.2H30.567a.567.567,0,0,1-.567-.567v-9.07a.567.567,0,0,1,.567-.567H46.516a.567.567,0,0,1,.567.567v9.07A.567.567,0,0,1,46.516,131.2ZM31.134,130.07H45.949v-7.937H31.134Z" transform="translate(-30 -121)"/></g><g transform="translate(6.439 42.268)"><path class="a" d="M121.567,186.669A.567.567,0,0,1,121,186.1v-4.535a.567.567,0,1,1,1.134,0V186.1A.567.567,0,0,1,121.567,186.669Z" transform="translate(-121 -181)"/></g><g transform="translate(8.707 42.268)"><path class="a" d="M181.567,184.4a.567.567,0,0,1-.567-.567v-2.268a.567.567,0,1,1,1.134,0v2.268A.567.567,0,0,1,181.567,184.4Z" transform="translate(-181 -181)"/></g><g transform="translate(10.974 42.268)"><path class="a" d="M241.567,184.4a.567.567,0,0,1-.567-.567v-2.268a.567.567,0,1,1,1.134,0v2.268A.567.567,0,0,1,241.567,184.4Z" transform="translate(-241 -181)"/></g><g transform="translate(13.242 42.268)"><path class="a" d="M301.567,184.4a.567.567,0,0,1-.567-.567v-2.268a.567.567,0,1,1,1.134,0v2.268A.567.567,0,0,1,301.567,184.4Z" transform="translate(-301 -181)"/></g><g transform="translate(15.51 42.268)"><path class="a" d="M361.567,186.669A.567.567,0,0,1,361,186.1v-4.535a.567.567,0,1,1,1.134,0V186.1A.567.567,0,0,1,361.567,186.669Z" transform="translate(-361 -181)"/></g><g transform="translate(9.088 46.849)"><circle class="a" cx="0.5" cy="0.5" r="0.5" transform="translate(-0.088 0.151)"/></g><g transform="translate(10.61 46.849)"><circle class="a" cx="0.5" cy="0.5" r="0.5" transform="translate(0.39 0.151)"/></g><g transform="translate(12.892 46.849)"><circle class="a" cx="0.5" cy="0.5" r="0.5" transform="translate(0.107 0.151)"/></g></g><g transform="translate(502 1934)"><path class="a" d="M38.487,11.361H37.254V6.605A6.613,6.613,0,0,0,30.648,0h-16.2A6.613,6.613,0,0,0,7.838,6.605v4.756H6.605A6.613,6.613,0,0,0,0,17.966V28.535A6.613,6.613,0,0,0,6.605,35.14H7.838v5.989A3.968,3.968,0,0,0,11.8,45.092H33.291a3.968,3.968,0,0,0,3.963-3.963V35.14h1.233a6.613,6.613,0,0,0,6.605-6.605V17.966A6.613,6.613,0,0,0,38.487,11.361ZM10.48,6.605a3.968,3.968,0,0,1,3.963-3.963h16.2a3.968,3.968,0,0,1,3.963,3.963v4.756H10.48ZM34.612,41.129a1.323,1.323,0,0,1-1.321,1.321H11.8a1.323,1.323,0,0,1-1.321-1.321V28.094H34.612ZM42.45,28.535A3.968,3.968,0,0,1,38.487,32.5H37.254v-4.4h.793a1.321,1.321,0,0,0,0-2.642h-31a1.321,1.321,0,0,0,0,2.642h.793v4.4H6.605a3.968,3.968,0,0,1-3.963-3.963V17.966A3.968,3.968,0,0,1,6.605,14H38.487a3.968,3.968,0,0,1,3.963,3.963Z"/><path class="a" d="M70.548,193H66.321a1.321,1.321,0,1,0,0,2.642h4.227a1.321,1.321,0,1,0,0-2.642Z" transform="translate(-59.275 -176.002)"/></g></g></svg>