<svg xmlns="http://www.w3.org/2000/svg" width="51.2" height="45" viewBox="0 0 51.2 45"><defs><style>.a{fill:#58595b;}</style></defs><g transform="translate(0 -31)"><g transform="translate(3 40)"><path class="a" d="M73.7,148H31.5a1.5,1.5,0,0,1-1.5-1.5v-24a1.5,1.5,0,0,1,1.5-1.5H73.7a1.5,1.5,0,0,1,1.5,1.5v24A1.5,1.5,0,0,1,73.7,148ZM33,145H72.2V124H33Z" transform="translate(-30 -121)"/></g><g transform="translate(12.1 46)"><path class="a" d="M122.5,196a1.5,1.5,0,0,1-1.5-1.5v-12a1.5,1.5,0,1,1,3,0v12A1.5,1.5,0,0,1,122.5,196Z" transform="translate(-121 -181)"/></g><g transform="translate(18.1 46)"><path class="a" d="M182.5,190a1.5,1.5,0,0,1-1.5-1.5v-6a1.5,1.5,0,0,1,3,0v6A1.5,1.5,0,0,1,182.5,190Z" transform="translate(-181 -181)"/></g><g transform="translate(24.1 46)"><path class="a" d="M242.5,190a1.5,1.5,0,0,1-1.5-1.5v-6a1.5,1.5,0,1,1,3,0v6A1.5,1.5,0,0,1,242.5,190Z" transform="translate(-241 -181)"/></g><g transform="translate(30.1 46)"><path class="a" d="M302.5,190a1.5,1.5,0,0,1-1.5-1.5v-6a1.5,1.5,0,1,1,3,0v6A1.5,1.5,0,0,1,302.5,190Z" transform="translate(-301 -181)"/></g><g transform="translate(36.1 46)"><path class="a" d="M362.5,196a1.5,1.5,0,0,1-1.5-1.5v-12a1.5,1.5,0,0,1,3,0v12A1.5,1.5,0,0,1,362.5,196Z" transform="translate(-361 -181)"/></g><g transform="translate(18.53 58.353)"><ellipse class="a" cx="1" cy="1.5" rx="1" ry="1.5" transform="translate(0.47 -0.353)"/></g><g transform="translate(23.823 58.353)"><circle class="a" cx="1.5" cy="1.5" r="1.5" transform="translate(0.177 -0.353)"/></g><g transform="translate(30 58.353)"><ellipse class="a" cx="2" cy="1.5" rx="2" ry="1.5" transform="translate(0 -0.353)"/></g><g transform="translate(0 31)"><path class="a" d="M1.5,37A1.5,1.5,0,0,1,0,35.5v-3A1.5,1.5,0,0,1,1.5,31h6a1.5,1.5,0,1,1,0,3H3v1.5A1.5,1.5,0,0,1,1.5,37Z" transform="translate(0 -31)"/></g><g transform="translate(42.2 31)"><path class="a" d="M429.5,37a1.5,1.5,0,0,1-1.5-1.5V34h-4.5a1.5,1.5,0,1,1,0-3h6a1.5,1.5,0,0,1,1.5,1.5v3A1.5,1.5,0,0,1,429.5,37Z" transform="translate(-422 -31)"/></g><g transform="translate(42.2 70)"><path class="a" d="M429.5,427h-6a1.5,1.5,0,1,1,0-3H428v-1.5a1.5,1.5,0,0,1,3,0v3A1.5,1.5,0,0,1,429.5,427Z" transform="translate(-422 -421)"/></g><g transform="translate(0 70)"><path class="a" d="M7.5,427h-6A1.5,1.5,0,0,1,0,425.5v-3a1.5,1.5,0,0,1,3,0V424H7.5a1.5,1.5,0,1,1,0,3Z" transform="translate(0 -421)"/></g></g></svg>