<svg xmlns="http://www.w3.org/2000/svg" width="49" height="49" viewBox="0 0 49 49"><defs><style>.a{fill:#58595b;}</style></defs><path class="a" d="M129.232,141.043h-.559a12.949,12.949,0,0,0-7.1-10.137l.986-2.708a15.865,15.865,0,0,1,5.361,4.14,1.436,1.436,0,0,0,2.2-1.847,18.73,18.73,0,0,0-6.574-5l.185-.507a1.436,1.436,0,1,0-2.7-.982l-.183.5a18.625,18.625,0,0,0-19.3,5.987,1.436,1.436,0,0,0,2.2,1.847,15.743,15.743,0,0,1,16.115-5.126l-.986,2.709a12.922,12.922,0,0,0-15.882,11.122h-.559a1.436,1.436,0,0,0,0,2.871h26.8a1.436,1.436,0,0,0,0-2.871Zm-13.4-8.613a10.052,10.052,0,0,1,2.053.211l-3.058,8.4h-8.941A10.065,10.065,0,0,1,115.834,132.43Zm2.05,8.613,2.7-7.418a10.074,10.074,0,0,1,5.2,7.418Z" transform="translate(-91.334 -111.28)"/><ellipse class="a" cx="1" cy="1.5" rx="1" ry="1.5" transform="translate(29 35)"/><circle class="a" cx="1.5" cy="1.5" r="1.5" transform="translate(23 35)"/><ellipse class="a" cx="1" cy="1.5" rx="1" ry="1.5" transform="translate(18 35)"/><path class="a" d="M49,24.5a4.314,4.314,0,0,0-3.28-4.182,21.629,21.629,0,0,0-3.258-7.865,4.306,4.306,0,0,0-5.914-5.914A21.628,21.628,0,0,0,28.682,3.28a4.306,4.306,0,0,0-8.364,0,21.628,21.628,0,0,0-7.865,3.258,4.306,4.306,0,0,0-5.914,5.914A21.63,21.63,0,0,0,3.28,20.318a4.306,4.306,0,0,0,0,8.364,21.629,21.629,0,0,0,3.258,7.865,4.307,4.307,0,0,0,5.914,5.914,21.624,21.624,0,0,0,7.865,3.258,4.306,4.306,0,0,0,8.364,0,21.63,21.63,0,0,0,7.865-3.258,4.306,4.306,0,0,0,5.914-5.914,21.63,21.63,0,0,0,3.258-7.865A4.314,4.314,0,0,0,49,24.5ZM35.734,35.734a4.312,4.312,0,0,0-1.01,4.494,18.752,18.752,0,0,1-6.332,2.624,4.305,4.305,0,0,0-7.783,0,18.751,18.751,0,0,1-6.332-2.624,4.305,4.305,0,0,0-5.5-5.5,18.751,18.751,0,0,1-2.624-6.332,4.305,4.305,0,0,0,0-7.783,18.752,18.752,0,0,1,2.624-6.332,4.305,4.305,0,0,0,5.5-5.5,18.753,18.753,0,0,1,6.332-2.624,4.305,4.305,0,0,0,7.783,0,18.752,18.752,0,0,1,6.332,2.624,4.308,4.308,0,0,0,5.5,5.5,18.751,18.751,0,0,1,2.624,6.332,4.305,4.305,0,0,0,0,7.783,18.752,18.752,0,0,1-2.624,6.332,4.311,4.311,0,0,0-4.493,1.01Zm8.96-9.8A1.436,1.436,0,1,1,46.129,24.5,1.437,1.437,0,0,1,44.693,25.936Zm-4.9-16.729a1.437,1.437,0,1,1-1.015-.42A1.437,1.437,0,0,1,39.794,9.206ZM24.5,2.871a1.436,1.436,0,1,1-1.436,1.436A1.437,1.437,0,0,1,24.5,2.871ZM9.206,9.206a1.436,1.436,0,1,1,0,2.03A1.431,1.431,0,0,1,9.206,9.206Zm-4.9,13.858A1.436,1.436,0,1,1,2.871,24.5,1.437,1.437,0,0,1,4.307,23.064Zm4.9,16.729a1.436,1.436,0,1,1,2.03,0,1.437,1.437,0,0,1-2.03,0ZM24.5,46.129a1.436,1.436,0,1,1,1.436-1.436A1.437,1.437,0,0,1,24.5,46.129Zm15.294-6.335a1.436,1.436,0,1,1,0-2.03,1.437,1.437,0,0,1,0,2.03Z"/></svg>