<svg xmlns="http://www.w3.org/2000/svg" width="47" height="47" viewBox="0 0 47 47"><defs><style>.a,.b{fill:#b7202e;}.a{opacity:0.15;}</style></defs><g transform="translate(-93 -747)"><circle class="a" cx="23.5" cy="23.5" r="23.5" transform="translate(93 747)"/><g transform="translate(77.277 730.333)"><path class="b" d="M40.848,33.047A3.644,3.644,0,1,0,37.2,36.69,3.651,3.651,0,0,0,40.848,33.047Zm-5.606,0A1.962,1.962,0,1,1,37.2,35.009,1.964,1.964,0,0,1,35.243,33.047Z" transform="translate(1.568 0.627)"/><path class="b" d="M30.139,40.665l-3.363,8.969a.843.843,0,0,0,.784,1.138H49.984a.834.834,0,0,0,.69-.365.846.846,0,0,0,.1-.773l-3.365-8.969a.833.833,0,0,0-.784-.545H43.387c1.29-2.376,2.394-4.872,2.394-6.447a7.008,7.008,0,0,0-14.016,0c0,1.575,1.105,4.07,2.395,6.447H30.924a.832.832,0,0,0-.784.545Zm3.308-6.991a5.325,5.325,0,1,1,10.651,0c0,2.275-3.381,7.876-5.325,10.825-1.946-2.949-5.325-8.55-5.325-10.825ZM35.106,41.8c1.362,2.321,2.68,4.261,2.977,4.681a.835.835,0,0,0,1.379,0c.291-.427,1.614-2.36,2.976-4.681h3.6l2.735,7.289h-20L31.508,41.8Z" transform="translate(0)"/></g></g></svg>