<svg xmlns="http://www.w3.org/2000/svg" width="50.276" height="50.276" viewBox="0 0 50.276 50.276"><defs><style>.a{fill:#fff;}</style></defs><path class="a" d="M6.161,48.6a.984.984,0,1,0,.287.695A.993.993,0,0,0,6.161,48.6Z"/><path class="a" d="M36.633,41.66a.98.98,0,1,0,.288.694A.987.987,0,0,0,36.633,41.66Z"/><path class="a" d="M47.109,15.87a4.109,4.109,0,0,0,1.2-2.908v-.786a4.125,4.125,0,0,0-8.249,0v.786a4.114,4.114,0,0,0,1.2,2.909,6.1,6.1,0,0,0-3.088,4.357h-4.5A2.945,2.945,0,0,0,30.9,24.156H19.372a2.945,2.945,0,0,0-2.777-3.928H12.1a6.1,6.1,0,0,0-3.088-4.357,4.114,4.114,0,0,0,1.2-2.909v-.786a4.124,4.124,0,0,0-8.248,0v.786a4.109,4.109,0,0,0,1.2,2.908A6.093,6.093,0,0,0,0,21.21V32.224a5.587,5.587,0,0,0,5.581,5.581h7.773v9.377a3.074,3.074,0,0,0,.215,1.13H9.689a.982.982,0,1,0,0,1.964h35.12a.982.982,0,1,0,0-1.964h-8.1a3.073,3.073,0,0,0,.214-1.13V46.053a.982.982,0,1,0-1.964,0v1.129a1.129,1.129,0,1,1-2.258,0v-12.4a2.777,2.777,0,0,1,2.774-2.774H48.312v.213a3.621,3.621,0,0,1-3.617,3.617H35.939a.982.982,0,0,0-.982.982v1.571a.982.982,0,0,0,1.964,0v-.589h7.774a5.588,5.588,0,0,0,5.581-5.581V21.21A6.1,6.1,0,0,0,47.109,15.87Zm-5.082-3.694a2.16,2.16,0,0,1,4.321,0v.786a2.16,2.16,0,0,1-4.321,0Zm-38.1,0a2.16,2.16,0,0,1,4.32,0v.786a2.16,2.16,0,0,1-4.32,0ZM1.964,21.21a4.124,4.124,0,0,1,8.248,0,.982.982,0,0,0,.982.982h5.4a.982.982,0,1,1,0,1.964H10.877A4.221,4.221,0,0,1,7.15,21.925a.982.982,0,0,0-1.731.927,6.181,6.181,0,0,0,4.848,3.238.993.993,0,0,0-.055.324v3.634H1.964Zm12.115,8.838h-1.9V26.414a.987.987,0,0,0-.045-.294h1.948a3.917,3.917,0,0,0,0,3.928Zm3.5,17.134a1.13,1.13,0,1,1-2.259,0V36.823a.982.982,0,0,0-.982-.982H5.581a3.62,3.62,0,0,1-3.617-3.617v-.213H14.8a2.778,2.778,0,0,1,2.774,2.774Zm4.615,1.13H19.326a3.074,3.074,0,0,0,.215-1.13v-12.4a4.712,4.712,0,0,0-.9-2.774h3.552Zm3.928,0H24.156v-16.3H26.12Zm4.829,0H28.084v-16.3h3.551a4.718,4.718,0,0,0-.9,2.774v12.4A3.073,3.073,0,0,0,30.949,48.312ZM32.8,30.048H17.479a1.964,1.964,0,1,1,0-3.928H32.8a1.964,1.964,0,1,1,0,3.928Zm5.3-3.634v3.634H36.2a3.91,3.91,0,0,0,0-3.928h1.948A.988.988,0,0,0,38.1,26.414Zm10.213,3.634H40.063V26.414a.967.967,0,0,0-.055-.324,6.182,6.182,0,0,0,4.849-3.238.982.982,0,1,0-1.731-.927A4.223,4.223,0,0,1,39.4,24.156H33.681a.982.982,0,0,1,0-1.964h5.4a.982.982,0,0,0,.982-.982,4.125,4.125,0,0,1,8.249,0Z"/><path class="a" d="M32.208,0H18.068a2.949,2.949,0,0,0-2.946,2.946v9.623a2.949,2.949,0,0,0,2.946,2.946h3.423l2.952,2.953a.984.984,0,0,0,1.389,0l2.953-2.953h3.423a2.95,2.95,0,0,0,2.946-2.946V2.946A2.95,2.95,0,0,0,32.208,0Zm.982,12.569a.984.984,0,0,1-.982.982h-3.83a.982.982,0,0,0-.694.287l-2.546,2.546-2.546-2.546a.984.984,0,0,0-.695-.287H18.068a.983.983,0,0,1-.982-.982V2.946a.982.982,0,0,1,.982-.982h14.14a.983.983,0,0,1,.982.982Z"/><path class="a" d="M21.217,6.687a.981.981,0,1,0,.288.694A.984.984,0,0,0,21.217,6.687Z"/><path class="a" d="M25.832,6.687a.981.981,0,1,0,.288.694A.993.993,0,0,0,25.832,6.687Z"/><path class="a" d="M30.447,6.687a.981.981,0,1,0,.288.694A.983.983,0,0,0,30.447,6.687Z"/></svg>