<svg xmlns="http://www.w3.org/2000/svg" width="53" height="53" viewBox="0 0 53 53"><defs><style>.a{fill:#fff;}</style></defs><g transform="translate(28.268 13.245)"><path class="a" d="M35.545,16.932l-.568-1.867a4.055,4.055,0,0,0-7.677,0l-.567,1.867a10.475,10.475,0,0,0-.293,4.857,4.571,4.571,0,0,0,2.353,3.185l-.636,14.2a2.8,2.8,0,0,0,.707,2.175,3.086,3.086,0,0,0,4.359.2c.068-.062.133-.128.2-.2a2.762,2.762,0,0,0,.707-2.116l-.639-14.259a4.569,4.569,0,0,0,2.35-3.183A10.5,10.5,0,0,0,35.545,16.932ZM34.1,21.483a2.8,2.8,0,0,1-1.833,2.11.883.883,0,0,0-.572.866l.671,14.912a1.022,1.022,0,0,1-.265.8,1.363,1.363,0,0,1-1.92,0,1.061,1.061,0,0,1-.26-.858l.666-14.854a.882.882,0,0,0-.571-.866,2.8,2.8,0,0,1-1.833-2.11,8.708,8.708,0,0,1,.243-4.033l.567-1.867a2.291,2.291,0,0,1,4.3,0l.567,1.867A8.723,8.723,0,0,1,34.1,21.483Z" transform="translate(-26.282 -12.314)"/></g><g transform="translate(15.016 13.25)"><path class="a" d="M22.795,12.319a.883.883,0,0,0-.883.883v7.585l-2.391,2.391a.881.881,0,0,0-.259.668L20.035,39.3a1.205,1.205,0,0,1-.335.9,1.243,1.243,0,0,1-1.759.008l-.008-.008a1.2,1.2,0,0,1-.335-.9l.779-15.458a.886.886,0,0,0-.258-.668l-2.392-2.391V13.2a.884.884,0,0,0-1.767,0v7.951a.884.884,0,0,0,.259.624l2.373,2.374-.754,15.069a2.984,2.984,0,0,0,5.961.29,2.615,2.615,0,0,0,0-.29L21.047,24.15l2.373-2.374a.883.883,0,0,0,.258-.624V13.2A.883.883,0,0,0,22.795,12.319Z" transform="translate(-13.961 -12.319)"/></g><g transform="translate(17.666 13.25)"><path class="a" d="M17.308,12.319a.884.884,0,0,0-.883.883v7.067a.884.884,0,1,0,1.767,0V13.2A.884.884,0,0,0,17.308,12.319Z" transform="translate(-16.425 -12.319)"/></g><g transform="translate(20.317 13.25)"><path class="a" d="M19.772,12.319a.884.884,0,0,0-.883.883v7.067a.883.883,0,1,0,1.766,0V13.2A.883.883,0,0,0,19.772,12.319Z" transform="translate(-18.889 -12.319)"/></g><path class="a" d="M26.5,0A26.5,26.5,0,1,0,53,26.5,26.5,26.5,0,0,0,26.5,0Zm0,51.233A24.733,24.733,0,1,1,51.233,26.5,24.733,24.733,0,0,1,26.5,51.233Z"/><g transform="translate(23.641 42.283)"><path class="a" d="M27.706,40.11a.884.884,0,0,0-.966-.794l-.033,0h0a16.135,16.135,0,0,1-3.743,0,.884.884,0,0,0-.207,1.755,17.866,17.866,0,0,0,4.152,0A.883.883,0,0,0,27.706,40.11Z" transform="translate(-21.98 -39.312)"/></g><g transform="translate(37.463 14.802)"><path class="a" d="M37.382,14.077a.883.883,0,0,0-1.244-.109l0,0a.883.883,0,0,0-.106,1.244,15.9,15.9,0,0,1-.937,21.506.883.883,0,0,0,1.247,1.252A17.666,17.666,0,0,0,37.382,14.077Z" transform="translate(-34.831 -13.762)"/></g><g transform="translate(19.696 8.836)"><path class="a" d="M19.135,10.855h0Z" transform="translate(-18.25 -8.016)"/><path class="a" d="M29.283,8.707a17.817,17.817,0,0,0-10.4.638.883.883,0,0,0,.31,1.71A.863.863,0,0,0,19.5,11a16.051,16.051,0,0,1,9.364-.574.883.883,0,1,0,.415-1.717Z" transform="translate(-18.312 -8.215)"/></g><g transform="translate(8.832 15.733)"><path class="a" d="M14.616,36.613a15.9,15.9,0,0,1-1.6-20.571.883.883,0,0,0-1.412-1.062L11.591,15a17.667,17.667,0,0,0,1.773,22.862.885.885,0,0,0,1.252-1.251Z" transform="translate(-8.211 -14.628)"/></g></svg>