<svg xmlns="http://www.w3.org/2000/svg" width="46.999" height="47" viewBox="0 0 46.999 47"><defs><style>.a{fill:#fff;}</style></defs><g transform="translate(0 -0.001)"><path class="a" d="M46.941,28.807a3.453,3.453,0,0,0-5.637-2l-7.4,6.367a3.757,3.757,0,0,0-3.7-3.111H23.218l-1.267-.775a13.111,13.111,0,0,0-6.843-1.928h-.381a10.291,10.291,0,0,0-6.281,2.132v-.151A1.837,1.837,0,0,0,6.61,27.507H1.837A1.838,1.838,0,0,0,0,29.342V42.928a1.839,1.839,0,0,0,1.837,1.837H6.61A1.834,1.834,0,0,0,8.2,43.846h7.042a.918.918,0,1,0,0-1.835H8.445V31.981A8.455,8.455,0,0,1,14.726,29.2h.381a11.271,11.271,0,0,1,5.884,1.657l1.489.911a.922.922,0,0,0,.479.135H30.2a1.916,1.916,0,0,1,.094,3.831H20.777a.918.918,0,1,0,0,1.835l9.428,0q.077,0,.15,0a3.59,3.59,0,0,0,2.264-.867L42.5,28.2a1.626,1.626,0,0,1,1.706-.244,1.617,1.617,0,0,1,.485,2.621l-8.623,8.628a9.5,9.5,0,0,1-6.765,2.8H23.5a.918.918,0,1,0,0,1.835h5.8A11.326,11.326,0,0,0,37.365,40.5l8.622-8.628A3.45,3.45,0,0,0,46.941,28.807ZM1.837,42.928V29.342H6.61V42.928Z" transform="translate(0 2.237)"/><path class="a" d="M5.362,10.945l6.885,3.932v6.255a1.569,1.569,0,0,0,.714,1.317l6.96,4.531a3.771,3.771,0,0,0,4.114,0l6.96-4.531a1.566,1.566,0,0,0,.714-1.317V14.877l5.512-3.147v2.939a3.128,3.128,0,0,0-2.2,2.983v7.616a.918.918,0,0,0,.919.918H40.34a.917.917,0,0,0,.918-.918V17.652a3.126,3.126,0,0,0-2.2-2.983v-4.52a.915.915,0,0,0-.463-.8L22.433.122a.921.921,0,0,0-.911,0L5.362,9.351a.918.918,0,0,0,0,1.594ZM29.871,20.988l-6.839,4.454a1.936,1.936,0,0,1-2.11,0l-6.84-4.454V15.925l7.44,4.249a.921.921,0,0,0,.911,0l7.439-4.249Zm9.55,3.361h-2.57v-6.7a1.285,1.285,0,1,1,2.57,0ZM21.976,1.975l12.7,7.255H24.541a2.752,2.752,0,1,0,.06,1.835H34.678l-12.7,7.254L7.668,10.148Zm.918,8.256a.918.918,0,1,1-.918-.919A.919.919,0,0,1,22.894,10.232Z" transform="translate(0.422)"/><path class="a" d="M17.907,40.74a.918.918,0,1,0,.649.269A.925.925,0,0,0,17.907,40.74Z" transform="translate(1.462 3.507)"/></g></svg>