<svg xmlns="http://www.w3.org/2000/svg" width="47" height="47" viewBox="0 0 47 47"><defs><style>.a{fill:#fff;}</style></defs><path class="a" d="M46.082,40.758H44.246V5.141a.919.919,0,0,0-.918-.918H36.566V.918A.919.919,0,0,0,35.648,0h-24.3a.919.919,0,0,0-.918.918v3.3H3.672a.919.919,0,0,0-.918.918V40.758H.918A.918.918,0,0,0,0,41.676v4.405A.919.919,0,0,0,.918,47H19.369a.918.918,0,1,0,0-1.836H1.836V42.593H45.164v2.571H27.631a.918.918,0,1,0,0,1.836H46.082A.919.919,0,0,0,47,46.082V41.676a.918.918,0,0,0-.918-.918ZM12.271,1.836H34.729V4.222H12.271ZM22.582,40.758H17.809V35.25a5.7,5.7,0,0,1,4.772-5.616Zm1.837,0V29.634a5.7,5.7,0,0,1,4.772,5.616v5.508Zm6.609,0V35.25a7.528,7.528,0,1,0-15.055,0v5.508H4.589V6.059H42.411v34.7Z"/><path class="a" d="M10.961,7.949H6.554a.918.918,0,0,0-.917.918v4.407a.917.917,0,0,0,.917.917h4.407a.918.918,0,0,0,.918-.917V8.867A.919.919,0,0,0,10.961,7.949Zm-.918,4.407H7.473V9.786h2.57Z" transform="translate(1.524 2.148)"/><path class="a" d="M17.9,7.949H13.492a.919.919,0,0,0-.918.918v4.407a.918.918,0,0,0,.918.917H17.9a.917.917,0,0,0,.917-.917V8.867A.918.918,0,0,0,17.9,7.949Zm-.918,4.407h-2.57V9.786h2.57Z" transform="translate(3.398 2.148)"/><path class="a" d="M24.836,7.949H20.429a.918.918,0,0,0-.917.918v4.407a.917.917,0,0,0,.917.917h4.407a.918.918,0,0,0,.918-.917V8.867A.919.919,0,0,0,24.836,7.949Zm-.918,4.407h-2.57V9.786h2.57Z" transform="translate(5.274 2.148)"/><path class="a" d="M31.774,7.949H27.367a.919.919,0,0,0-.918.918v4.407a.918.918,0,0,0,.918.917h4.407a.917.917,0,0,0,.917-.917V8.867A.918.918,0,0,0,31.774,7.949Zm-.918,4.407h-2.57V9.786h2.57Z" transform="translate(7.148 2.148)"/><path class="a" d="M10.961,14.887H6.554a.917.917,0,0,0-.917.917v4.407a.918.918,0,0,0,.917.918h4.407a.919.919,0,0,0,.918-.918V15.8A.918.918,0,0,0,10.961,14.887Zm-.918,4.405H7.473v-2.57h2.57Z" transform="translate(1.524 4.024)"/><path class="a" d="M17.9,14.887H13.492a.918.918,0,0,0-.918.917v4.407a.919.919,0,0,0,.918.918H17.9a.918.918,0,0,0,.917-.918V15.8A.917.917,0,0,0,17.9,14.887Zm-.918,4.405h-2.57v-2.57h2.57Z" transform="translate(3.398 4.024)"/><path class="a" d="M24.836,14.887H20.429a.917.917,0,0,0-.917.917v4.407a.918.918,0,0,0,.917.918h4.407a.919.919,0,0,0,.918-.918V15.8A.918.918,0,0,0,24.836,14.887Zm-.918,4.405h-2.57v-2.57h2.57Z" transform="translate(5.274 4.024)"/><path class="a" d="M31.774,14.887H27.367a.918.918,0,0,0-.918.917v4.407a.919.919,0,0,0,.918.918h4.407a.918.918,0,0,0,.917-.918V15.8A.917.917,0,0,0,31.774,14.887Zm-.918,4.405h-2.57v-2.57h2.57Z" transform="translate(7.148 4.024)"/><path class="a" d="M10.961,21.824H6.554a.918.918,0,0,0-.917.918v4.407a.917.917,0,0,0,.917.917h4.407a.918.918,0,0,0,.918-.917V22.742A.919.919,0,0,0,10.961,21.824Zm-.918,4.407H7.473v-2.57h2.57Z" transform="translate(1.524 5.898)"/><path class="a" d="M31.774,21.824H27.367a.919.919,0,0,0-.918.918v4.407a.918.918,0,0,0,.918.917h4.407a.917.917,0,0,0,.917-.917V22.742A.918.918,0,0,0,31.774,21.824Zm-.918,4.407h-2.57v-2.57h2.57Z" transform="translate(7.148 5.898)"/><path class="a" d="M18.7,35.555a.917.917,0,1,0,.649.268A.928.928,0,0,0,18.7,35.555Z" transform="translate(4.805 9.609)"/></svg>