<svg xmlns="http://www.w3.org/2000/svg" width="46.463" height="46.508" viewBox="0 0 46.463 46.508"><defs><style>.a{fill:#fff;}</style></defs><g transform="translate(2.251 2.5)"><path class="a" d="M44.208,16.024a.9.9,0,0,0-.894-.811H34.9V6.62h1.76a4.56,4.56,0,0,0,0-9.12H7.505a.861.861,0,0,0-.879.9.861.861,0,0,0,.879.9H8.9V4.823H-.66a.9.9,0,0,0-.9.9V8.144a.861.861,0,0,0,.9.879.861.861,0,0,0,.9-.879V6.62H18.314v8.593H.238V11.576a.861.861,0,0,0-.9-.879.861.861,0,0,0-.9.879v4.536a.9.9,0,0,0,.9.9h3v8.377h-.4a4.195,4.195,0,0,0,0,8.39h.538A6.021,6.021,0,0,0,1.1,39.7,5.882,5.882,0,0,0,5.937,43.9,10.422,10.422,0,0,0,7.02,44l.165,0H7.4c3.782-.006,22.743-.034,24.652-.045h.028a.95.95,0,0,0,.852-.442.888.888,0,0,0,0-.894.966.966,0,0,0-.885-.463H6.781A4.229,4.229,0,0,1,5.4,34.014a5.182,5.182,0,0,1,1.384-.228c.31,0,30.132,0,33.491,0v1.588H13.41a.9.9,0,0,0,0,1.8H40.272v1.6H20.781a.854.854,0,0,0-.661.289.932.932,0,0,0-.218.61.861.861,0,0,0,.879.9H40.272v1.6H35.81a.9.9,0,0,0,0,1.8h7.158a.9.9,0,0,0,0-1.8h-.9V33.782l.9,0a.843.843,0,0,0,.751-.427.99.99,0,0,0-.009-.963.835.835,0,0,0-.74-.408h-.014c-.5,0-5.525,0-6.657,0V27.186h7.007a.9.9,0,0,0,.9-.9V16.113C44.212,16.083,44.211,16.053,44.208,16.024ZM25.818,2.745a.931.931,0,0,0,.218-.61.861.861,0,0,0-.878-.9H10.695V-.7h25.96a2.762,2.762,0,0,1,0,5.525H10.695V3.034H25.157A.854.854,0,0,0,25.818,2.745Zm16.6,14.266v8.377H31.975V17.011ZM33.1,6.62v8.593H31.076V6.62Zm-3.819,0v8.593H20.112V6.62ZM4.139,25.388V17.011H30.177v8.377Zm20.925,4.335a.861.861,0,0,0,.878.9h8.566v1.356c-3.2-.006-32.262,0-32.565,0a2.4,2.4,0,0,1,0-4.794H34.508v1.638H25.943A.861.861,0,0,0,25.064,29.723Z" transform="translate(0 0)"/><path class="a" d="M96.57,235.978H87.4a2.247,2.247,0,1,0,0,4.494H96.57a2.247,2.247,0,1,0,0-4.494Zm.449,2.247a.45.45,0,0,1-.449.449H87.4a.449.449,0,0,1,0-.9H96.57A.45.45,0,0,1,97.019,238.225Z" transform="translate(-79.543 -217.025)"/><path class="a" d="M403.294,252.762h4.389a.9.9,0,0,0,0-1.8h-4.389a.9.9,0,0,0,0,1.8Z" transform="translate(-368.263 -230.663)"/><path class="a" d="M315.506,128.151a.9.9,0,0,0,.9-.9V124.9a.9.9,0,0,0-1.8,0v2.351A.9.9,0,0,0,315.506,128.151Z" transform="translate(-288.354 -115.122)"/><path class="a" d="M288.2,128.151a.9.9,0,0,0,.9-.9V124.9a.9.9,0,0,0-1.8,0v2.351A.9.9,0,0,0,288.2,128.151Z" transform="translate(-263.504 -115.122)"/><path class="a" d="M260.893,128.151a.9.9,0,0,0,.9-.9V124.9a.9.9,0,0,0-1.8,0v2.351A.9.9,0,0,0,260.893,128.151Z" transform="translate(-238.654 -115.122)"/></g></svg>