<svg xmlns="http://www.w3.org/2000/svg" width="54" height="54" viewBox="0 0 54 54"><defs><style>.a{fill:#fff;}</style></defs><g transform="translate(-1058 -2806)"><path class="a" d="M49.781,49.625H4.219A4.224,4.224,0,0,1,0,45.406V16.719A4.224,4.224,0,0,1,4.219,12.5h5.906v1.688H4.219a2.531,2.531,0,0,0-2.531,2.531V45.406a2.531,2.531,0,0,0,2.531,2.531H49.781a2.531,2.531,0,0,0,2.531-2.531V16.719a2.531,2.531,0,0,0-2.531-2.531H43.875V12.5h5.906A4.224,4.224,0,0,1,54,16.719V45.406A4.224,4.224,0,0,1,49.781,49.625Z" transform="translate(1058 2801.938)"/><path class="a" d="M44.406,71.75H25.844A.844.844,0,0,1,25,70.906a.8.8,0,0,1,.012-.139l.844-5.062a.843.843,0,0,1,.832-.7H43.563a.844.844,0,0,1,.832.7l.844,5.063a.844.844,0,0,1-.693.971A.871.871,0,0,1,44.406,71.75ZM26.84,70.063H43.41l-.562-3.375H27.4Z" transform="translate(1049.875 2784.875)"/><path class="a" d="M45.719,77.563H22.094a.844.844,0,0,1-.844-.844V73.344a.844.844,0,0,1,.844-.844H45.719a.844.844,0,0,1,.844.844v3.375A.844.844,0,0,1,45.719,77.563ZM22.938,75.875H44.875V74.188H22.938Z" transform="translate(1051.094 2782.438)"/><path class="a" d="M1.25,55H32.469v1.688H1.25Z" transform="translate(1057.594 2788.125)"/><path class="a" d="M49.306,21.938H47.619V2.531a.844.844,0,0,0-.844-.844H21.812l-6.5,6.5L14.116,7l6.75-6.75a.846.846,0,0,1,.6-.247H46.775a2.531,2.531,0,0,1,2.531,2.531h0Z" transform="translate(1053.412 2806)"/><path class="a" d="M15.438,38.375H13.75V8a.844.844,0,0,1,.844-.844H20.5V1.25h1.688V8a.844.844,0,0,1-.844.844H15.438Z" transform="translate(1053.531 2805.594)"/><path class="a" d="M37.563,21.375A5.068,5.068,0,0,1,32.5,16.313V14.625a.844.844,0,0,1,.844-.844A1.588,1.588,0,0,0,35.031,12.3a1.5,1.5,0,0,0,0-.206.844.844,0,0,1,1.688,0s.267,1.688,5.063,1.688a.844.844,0,0,1,.844.844v1.688A5.068,5.068,0,0,1,37.563,21.375Zm-3.375-6.012v.95a3.375,3.375,0,0,0,6.75,0v-.861a8.107,8.107,0,0,1-4.8-1.374A3.348,3.348,0,0,1,34.188,15.363Z" transform="translate(1047.438 2802.344)"/><path class="a" d="M42.625,13H40.938V11.313a3.375,3.375,0,0,0-6.75,0V13H32.5V11.313a5.063,5.063,0,0,1,10.125,0Z" transform="translate(1047.438 2803.969)"/><path class="a" d="M38.781,28.209a2.531,2.531,0,0,1-2.531-2.531V24.488h1.688v1.189a.844.844,0,0,0,.844.844.81.81,0,0,0,.586-.243.822.822,0,0,0,.258-.6V24.488h1.688v1.189A2.544,2.544,0,0,1,38.781,28.209Z" transform="translate(1046.219 2798.042)"/><path class="a" d="M49.09,30.939H47.4V28.964l-5.395-2.312.664-1.551,5.906,2.531a.844.844,0,0,1,.512.776Z" transform="translate(1044.348 2797.842)"/><path class="a" d="M39.313,36.828H28.344a.844.844,0,0,1-.844-.844V28.408a.844.844,0,0,1,.512-.776L33.918,25.1l.665,1.551-5.4,2.312V35.14H39.313Z" transform="translate(1049.063 2797.842)"/><path class="a" d="M53.469,51.938A10.969,10.969,0,1,1,64.438,40.969,10.968,10.968,0,0,1,53.469,51.938Zm0-20.25a9.281,9.281,0,1,0,9.281,9.281A9.281,9.281,0,0,0,53.469,31.688Z" transform="translate(1044.188 2796.25)"/><path class="a" d="M52.563,49.75a.846.846,0,0,1-.6-.247l-4.219-4.219a.844.844,0,0,1,0-1.193l2.531-2.531a.844.844,0,0,1,1.193,0l1.091,1.091L58.716,36.5a.844.844,0,0,1,1.193,0l2.531,2.531a.844.844,0,0,1,0,1.193L53.159,49.5A.846.846,0,0,1,52.563,49.75Zm-3.025-5.062,3.025,3.026,8.089-8.089-1.339-1.338L53.159,44.44a.844.844,0,0,1-1.193,0L50.875,43.35Z" transform="translate(1042.563 2794.219)"/><path class="a" d="M70,55h5.906v1.688H70Z" transform="translate(1035.25 2788.125)"/><path class="a" d="M21.25,45h1.688v1.688H21.25Z" transform="translate(1051.094 2791.375)"/><path class="a" d="M26.25,45h9.281v1.688H26.25Z" transform="translate(1049.469 2791.375)"/><path class="a" d="M21.25,50H33.906v1.688H21.25Z" transform="translate(1051.094 2789.75)"/></g></svg>