<svg xmlns="http://www.w3.org/2000/svg" width="23.346" height="23.349" viewBox="0 0 23.346 23.349"><defs><style>.a{fill:#58595b;}</style></defs><g transform="translate(-0.021)"><g transform="translate(0.021 0)"><path class="a" d="M22.658,16.113,13.64,7.1v-4a4.415,4.415,0,0,0-.416-1.861L13.019.847A1.459,1.459,0,0,0,10.381.824l-.226.433A4.4,4.4,0,0,0,9.749,3.1v4L.733,16.111A2.414,2.414,0,0,0,.021,17.83v1.14a.487.487,0,0,0,.749.408L9.937,13.5c.091,1.472.213,2.7.363,4.2l.155,1.532L7.05,21.482a.487.487,0,0,0-.219.407v.972a.488.488,0,0,0,.591.476l4.273-.95,4.273.95a.475.475,0,0,0,.105.012.485.485,0,0,0,.3-.107.493.493,0,0,0,.182-.381v-.972a.484.484,0,0,0-.219-.406l-3.405-2.247.154-1.537c.15-1.493.273-2.721.363-4.193l9.168,5.873a.487.487,0,0,0,.749-.409V17.83A2.408,2.408,0,0,0,22.658,16.113Z" transform="translate(-0.021 0)"/></g></g></svg>