<svg xmlns="http://www.w3.org/2000/svg" width="44.419" height="51" viewBox="0 0 44.419 51"><defs><style>.a{fill:#fff;}</style></defs><g transform="translate(-32.008 -0.001)"><path class="a" d="M44.066,9.26a4.055,4.055,0,0,0-2.2,5.71,3.276,3.276,0,0,0,0,6.128,4.055,4.055,0,0,0,2.2,5.71,3.23,3.23,0,0,0-.2,1.1,3.27,3.27,0,0,0,4.45,3.07,3.282,3.282,0,0,0,6.243-1.424V6.518a3.282,3.282,0,0,0-6.243-1.424,3.267,3.267,0,0,0-4.45,3.069A3.231,3.231,0,0,0,44.066,9.26Zm3.088-2.742A1.647,1.647,0,0,1,48.8,8.163h1.645a3.26,3.26,0,0,0-.759-2.075,1.641,1.641,0,0,1,3.227.431V29.551a1.641,1.641,0,0,1-3.227.43,3.255,3.255,0,0,0,.759-2.075H48.8a1.645,1.645,0,1,1-1.646-1.645V24.614a3.256,3.256,0,0,0-2.1.778,2.466,2.466,0,1,1,2.919-2.422h1.646a4.117,4.117,0,0,0-4.113-4.113,4.07,4.07,0,0,0-2.468.844V19.68a1.645,1.645,0,1,1,0-3.29v-.022a4.07,4.07,0,0,0,2.468.844A4.117,4.117,0,0,0,49.622,13.1H47.976a2.467,2.467,0,1,1-2.919-2.422,3.255,3.255,0,0,0,2.1.776V9.809a1.645,1.645,0,0,1,0-3.29Z" transform="translate(2.128 0.887)"/><path class="a" d="M60.059,4.873a3.269,3.269,0,0,0-1.159.222,3.283,3.283,0,0,0-6.244,1.424V29.551A3.283,3.283,0,0,0,58.9,30.975a3.269,3.269,0,0,0,4.449-3.07,3.23,3.23,0,0,0-.2-1.1,4.109,4.109,0,0,0,2.671-3.838,4.056,4.056,0,0,0-.472-1.871,3.276,3.276,0,0,0,0-6.128,4.056,4.056,0,0,0,.472-1.871A4.11,4.11,0,0,0,63.147,9.26a3.231,3.231,0,0,0,.2-1.1A3.293,3.293,0,0,0,60.059,4.873ZM64.171,13.1a2.467,2.467,0,1,1-4.935,0H57.591A4.118,4.118,0,0,0,61.7,17.212a4.064,4.064,0,0,0,2.467-.844v.022a1.645,1.645,0,1,1,0,3.29V19.7a4.064,4.064,0,0,0-2.467-.844,4.118,4.118,0,0,0-4.114,4.113h1.646a2.467,2.467,0,1,1,2.921,2.422,3.257,3.257,0,0,0-2.1-.778V26.26A1.645,1.645,0,1,1,58.414,27.9H56.769a3.254,3.254,0,0,0,.759,2.075,1.641,1.641,0,0,1-3.227-.43V6.518a1.641,1.641,0,0,1,3.227-.431,3.26,3.26,0,0,0-.759,2.075h1.646a1.645,1.645,0,1,1,1.645,1.646v1.645a3.256,3.256,0,0,0,2.1-.776A2.468,2.468,0,0,1,64.171,13.1Z" transform="translate(5.675 0.887)"/><path class="a" d="M69.042,5.132A18.76,18.76,0,0,0,54.881.04l.1,1.641A17.273,17.273,0,0,1,65.621,33.323a10.166,10.166,0,0,0-3.716,4.517H50.239A10.339,10.339,0,0,0,46.5,33.288a17.194,17.194,0,0,1-7.68-14.918l-1.645-.051a18.83,18.83,0,0,0,8.41,16.337,8.673,8.673,0,0,1,2.845,3.185H46.219v1.646h2.873a9.523,9.523,0,0,1,.352,1.645H47.863v1.646h1.646v2.467a.823.823,0,0,0,.822.824h.822a4.935,4.935,0,0,0,9.871,0h.822a.823.823,0,0,0,.824-.824V42.776h1.645V41.131H62.728a9.257,9.257,0,0,1,.33-1.645h2.9V37.84H63.708A8.465,8.465,0,0,1,66.532,34.7a18.917,18.917,0,0,0,2.51-29.563ZM56.09,49.357a3.294,3.294,0,0,1-3.29-3.29H59.38A3.294,3.294,0,0,1,56.09,49.357Zm4.935-4.936H51.153V42.776h9.871Zm.059-3.29H51.088a11.3,11.3,0,0,0-.279-1.645h10.53A10.962,10.962,0,0,0,61.083,41.131Z" transform="translate(1.419 0)"/><path class="a" d="M36.7,5.759a3.294,3.294,0,0,1,3.29,3.29.822.822,0,1,0,1.645,0,3.294,3.294,0,0,1,3.29-3.29.822.822,0,1,0,0-1.645,3.294,3.294,0,0,1-3.29-3.29.822.822,0,1,0-1.645,0,3.294,3.294,0,0,1-3.29,3.29.822.822,0,1,0,0,1.645ZM40.815,3.55A4.976,4.976,0,0,0,42.2,4.937a5,5,0,0,0-1.388,1.388,4.981,4.981,0,0,0-1.388-1.388A4.96,4.96,0,0,0,40.815,3.55Z" transform="translate(1.064 0)"/><path class="a" d="M41.057,12.212a.823.823,0,0,0,0-1.646,3.293,3.293,0,0,1-3.29-3.29.823.823,0,0,0-1.646,0,3.293,3.293,0,0,1-3.29,3.29.823.823,0,0,0,0,1.646,3.294,3.294,0,0,1,3.29,3.29.823.823,0,0,0,1.646,0A3.294,3.294,0,0,1,41.057,12.212Zm-4.114.565a4.955,4.955,0,0,0-1.387-1.387A4.993,4.993,0,0,0,36.943,10a5,5,0,0,0,1.388,1.388A4.976,4.976,0,0,0,36.943,12.777Z" transform="translate(0 1.773)"/></g></svg>