<svg xmlns="http://www.w3.org/2000/svg" width="41.139" height="52" viewBox="0 0 41.139 52"><defs><style>.a{fill:#fff;}</style></defs><path class="a" d="M93.438,47.531H90.9V35.792a2.458,2.458,0,0,0-.762-4.8H85.561l-2.184-14.55A9.539,9.539,0,0,0,74.8,8.437V6.12l5-3.728A1.308,1.308,0,0,0,80.265.91,1.309,1.309,0,0,0,79,0H74.037a.762.762,0,0,0-.762.762V8.436a9.444,9.444,0,0,0-1.451.231.761.761,0,0,0,.356,1.481,7.934,7.934,0,0,1,7.024,1.7H68.87a8.078,8.078,0,0,1,1.02-.745.762.762,0,0,0-.8-1.3,9.43,9.43,0,0,0-4.4,6.644L62.512,31H57.936a2.458,2.458,0,0,0-.762,4.8V47.531H54.635A1.169,1.169,0,0,0,53.467,48.7v1.015A2.143,2.143,0,0,0,55.425,52H92.649a2.143,2.143,0,0,0,1.958-2.286V48.7a1.169,1.169,0,0,0-1.168-1.168ZM74.8,1.524h3.615L74.8,4.219Zm7.085,15.237.441,2.94H80.986a.761.761,0,0,0,0,1.523h1.568l.79,5.263H82.03a.761.761,0,0,0,0,1.523h1.542L84.022,31H79.492l-.409-3.8v0L77.96,16.761ZM76.91,21.248l.567,5.262H70.6l.567-5.262Zm-5.583-1.524.319-2.963h4.783l.319,2.963Zm6.314,8.309L77.96,31H70.113l.32-2.963ZM67.5,13.368H80.567a7.9,7.9,0,0,1,.947,1.869H66.558a7.938,7.938,0,0,1,.946-1.869Zm-3,14.641h1.541a.761.761,0,1,0,0-1.523H64.729l.79-5.263h1.543a.761.761,0,0,0,0-1.523H65.748l.441-2.94h3.924L68.99,27.192v0L68.581,31H64.051ZM57,33.455a.935.935,0,0,1,.934-.934h32.2a.934.934,0,1,1,0,1.869H81.094a.762.762,0,1,0,0,1.524h.787V47.531H78.5V39.674a1.894,1.894,0,0,0-1.892-1.892H71.468a1.894,1.894,0,0,0-1.892,1.892v7.857H66.192V35.913H78.048a.762.762,0,1,0,0-1.524H57.936A.935.935,0,0,1,57,33.455Zm32.373,2.459V47.531H87.506V35.913Zm-5.97,8.654V42.7h2.577v1.869Zm2.577,1.524v1.439H83.405V46.091Zm-2.577-4.917V39.3h2.577v1.87Zm0-3.393V35.913h2.577v1.869Zm-6.431,1.892v7.857H71.1V39.674a.37.37,0,0,1,.369-.368h5.137a.37.37,0,0,1,.369.368ZM62.091,44.568V42.7h2.577v1.869Zm2.577,1.524v1.439H62.091V46.091Zm-2.577-4.917V39.3h2.577v1.87Zm0-3.393V35.913h2.577v1.869Zm-1.524-1.869V47.531H58.7V35.913Zm32.515,13.8c0,.465-.256.762-.434.762H55.425c-.177,0-.434-.3-.434-.762v-.66H93.082Z" transform="translate(-53.467)"/></svg>