<svg xmlns="http://www.w3.org/2000/svg" width="47" height="46.999" viewBox="0 0 47 46.999"><defs><style>.a{fill:#fff;}</style></defs><g transform="translate(0 -0.998)"><path class="a" d="M75.839,94.579A3.525,3.525,0,1,0,79.364,98.1,3.525,3.525,0,0,0,75.839,94.579Zm0,5.483A1.958,1.958,0,1,1,77.8,98.1,1.958,1.958,0,0,1,75.839,100.062Z" transform="translate(-45.681 -59.115)"/><path class="a" d="M97.107,109.466a3.525,3.525,0,1,0,3.525,3.525A3.525,3.525,0,0,0,97.107,109.466Zm0,5.483a1.958,1.958,0,1,1,1.959-1.958A1.958,1.958,0,0,1,97.107,114.949Z" transform="translate(-59.116 -68.519)"/><path class="a" d="M.66,35.465a3.03,3.03,0,0,1,2.489,2.49.783.783,0,0,0,1.545,0,3.029,3.029,0,0,1,2.489-2.49.783.783,0,0,0,0-1.545,3.03,3.03,0,0,1-2.489-2.49.783.783,0,0,0-1.545,0A3.03,3.03,0,0,1,.66,33.92a.784.784,0,0,0,0,1.545Zm3.262-1.891A4.584,4.584,0,0,0,5.04,34.692a4.587,4.587,0,0,0-1.119,1.119A4.6,4.6,0,0,0,2.8,34.692,4.6,4.6,0,0,0,3.921,33.574Z" transform="translate(-0.004 -18.811)"/><path class="a" d="M57.3,10.476l-19.583-9.4a.782.782,0,0,0-.68,0L17.458,10.522a.784.784,0,0,0-.041,1.39L37,22.833a.781.781,0,0,0,.764,0l9.8-5.49V27.654A13.282,13.282,0,0,0,39.6,30.921l-2.213,1.935L37,32.525,35.971,33.7l.9.783a.782.782,0,0,0,1.031,0l2.73-2.388a11.72,11.72,0,0,1,7.721-2.9.783.783,0,0,0,.784-.783V16.465l3.917-2.193v6.309a.782.782,0,0,0-.765.613l-1.567,7.05a.783.783,0,0,0,.765.953h4.7a.782.782,0,0,0,.765-.953l-1.566-7.05a.784.784,0,0,0-.766-.613V13.395l2.732-1.53a.783.783,0,0,0-.043-1.39ZM55.2,27.631H52.458l1.216-5.484h.313ZM53.94,11.977c-.009,0-.018-.007-.028-.009l-14.3-1.506a2.343,2.343,0,1,0-.042,1.571L51.58,13.3l-14.2,7.953L19.5,11.277,37.382,2.65l17.883,8.584Zm-15.776-.8a.783.783,0,1,1-.783-.783A.783.783,0,0,1,38.165,11.181Z" transform="translate(-10.748 0)"/><path class="a" d="M99.234,86.071a3.525,3.525,0,1,0,3.525,3.525A3.525,3.525,0,0,0,99.234,86.071Zm0,5.483a1.958,1.958,0,1,1,1.959-1.958A1.958,1.958,0,0,1,99.234,91.554Z" transform="translate(-60.459 -53.74)"/><path class="a" d="M24.283,73.1V66.37a10.976,10.976,0,0,0-6.919-10.184l2.131-4.1a.783.783,0,0,0-.272-1.018l-.783-.5a4.153,4.153,0,0,0-4.012-.241,2.591,2.591,0,0,1-2.222,0A4.144,4.144,0,0,0,8.2,50.57l-.783.5a.783.783,0,0,0-.272,1.018l2.129,4.1A10.978,10.978,0,0,0,2.35,66.37V73.1L.716,74.729A2.446,2.446,0,0,0,2.445,78.9H24.188a2.445,2.445,0,0,0,1.729-4.174ZM8.858,52l.182-.117a2.576,2.576,0,0,1,2.487-.148,4.163,4.163,0,0,0,3.58,0,2.576,2.576,0,0,1,2.486.148l.182.117L15.847,55.71a10.6,10.6,0,0,0-5.061,0Zm15.33,25.333H2.445a.878.878,0,0,1-.621-1.5l1.863-1.863a.781.781,0,0,0,.23-.554V66.37a9.4,9.4,0,1,1,18.8,0v7.05a.782.782,0,0,0,.23.554l1.864,1.863a.878.878,0,0,1-.621,1.5Z" transform="translate(0 -30.906)"/></g></svg>