<svg xmlns="http://www.w3.org/2000/svg" width="54" height="53.155" viewBox="0 0 54 53.155"><defs><style>.a{fill:#fff;}</style></defs><path class="a" d="M51.105,54.827a3.033,3.033,0,1,0-3.033-3.033A3.037,3.037,0,0,0,51.105,54.827Zm0-4.333a1.3,1.3,0,1,1-1.3,1.3A1.3,1.3,0,0,1,51.105,50.494Z" transform="translate(-45.473 -47.602)"/><path class="a" d="M127.356,73.89a3.033,3.033,0,1,0-3.033-3.033A3.037,3.037,0,0,0,127.356,73.89Zm0-4.333a1.3,1.3,0,1,1-1.3,1.3A1.3,1.3,0,0,1,127.356,69.557Z" transform="translate(-80.126 -56.266)"/><path class="a" d="M127.261,92.854a.835.835,0,0,0-.243-.338s-.011,0-.016-.009a8.046,8.046,0,0,0-12.166-.315.924.924,0,0,0-.07.077,8.014,8.014,0,0,0-.446,10.188.84.84,0,0,0,.313.422c.011.008.025.01.037.017a8.058,8.058,0,0,0,12.591-10.043Zm-7.352,1.88a5.951,5.951,0,0,1-3.248-1.907,6.305,6.305,0,0,1,3.248-1.461Zm1.733,1.847a7.634,7.634,0,0,0,4.688-1.988,6.319,6.319,0,0,1,0,6.085,7.694,7.694,0,0,0-4.692-2.337Zm3.65-3.381a5.915,5.915,0,0,1-3.65,1.648V91.367a6.32,6.32,0,0,1,3.65,1.833Zm-9.785.923a7.669,7.669,0,0,0,4.4,2.371V98.34a7.669,7.669,0,0,0-4.689,2.339,6.317,6.317,0,0,1,.287-6.556Zm.762,7.962a5.945,5.945,0,0,1,3.64-1.994v3.817a6.321,6.321,0,0,1-3.64-1.823Zm5.373,1.823v-3.817a5.965,5.965,0,0,1,3.638,2,6.321,6.321,0,0,1-3.638,1.82Z" transform="translate(-74.847 -66.147)"/><path class="a" d="M135.419,52.9a.981.981,0,1,0-.981-.981A.981.981,0,0,0,135.419,52.9Z" transform="translate(-84.723 -48.589)"/><path class="a" d="M56.6,74.154a.981.981,0,1,0,.981-.981A.981.981,0,0,0,56.6,74.154Z" transform="translate(-49.348 -58.697)"/><path class="a" d="M115.3,51.3a.867.867,0,0,0,1.225,0l.979-.979.979.979a.866.866,0,0,0,1.225-1.225l-.979-.979.979-.979a.867.867,0,0,0-1.225-1.226l-.979.98-.979-.98a.867.867,0,1,0-1.225,1.226l.979.979-.979.979A.867.867,0,0,0,115.3,51.3Z" transform="translate(-75.912 -46.637)"/><path class="a" d="M80.544,86.881l-4.835-2.2h0l-2.07-.941v-.723a12.974,12.974,0,0,0,6.857-8.1,2.841,2.841,0,0,0,1.63-.466,2.988,2.988,0,0,0,.72-4.574A3.022,3.022,0,0,0,81.437,69V67.558a.131.131,0,0,0,0-.014s0-.008,0-.012V65.392a.827.827,0,0,0-.042-.208,2.568,2.568,0,0,0-.113-4.01.857.857,0,0,0-.005-.3c-1.007-4.523-6.361-6.782-10.911-6.965-5.821-.233-10.464,2.471-11.832,6.9a.806.806,0,0,0-.016.161,2.572,2.572,0,0,0-.476,4.188l0,.213c.008.783.016,1.531.008,2.114,0,0,0,.008,0,.013,0,.023-.014.044-.014.068V69a2.994,2.994,0,0,0-2.165,3A3.078,3.078,0,0,0,57.282,74.4a2.709,2.709,0,0,0,1.657.529,12.939,12.939,0,0,0,5.354,7.366H56.306V76.224a.867.867,0,0,0-.867-.867h-5.2a.867.867,0,0,0-.866.867v.867h-2.6a.867.867,0,0,0-.867.866V82.29H44.173a.867.867,0,0,0,0,1.733h1.733v4.333a.867.867,0,0,0,.867.866h2.6v.867a.866.866,0,0,0,.866.866h3.611a9.1,9.1,0,0,0-1.011,4.138v7.128a.866.866,0,0,0,.866.866H84.9a.866.866,0,0,0,.867-.866V95.094a9.01,9.01,0,0,0-5.226-8.213ZM58.906,88.4l3.466-1.576v5a.866.866,0,0,0,.866.866H75.371a.866.866,0,0,0,.867-.866v-5L79.7,88.4v12.953h-20.8Zm6.347-2.886a4.31,4.31,0,0,0,8.1,0l1.148.522v4.917h-10.4V86.039Zm1.452-1.988c.244.1.48.207.731.287a6.64,6.64,0,0,0,2.032.316,7.184,7.184,0,0,0,2.214-.357L71.9,83.7v.32a2.6,2.6,0,1,1-5.2,0ZM79.7,67.1a10.34,10.34,0,0,1-8.363,2.012A8.3,8.3,0,0,1,66.3,65.825H79.7V67.1Zm0-4.742a.867.867,0,0,1,0,1.733H59.772a.867.867,0,0,1,0-1.733ZM62.792,65.825a7.71,7.71,0,0,1-3.005.788c0-.247,0-.521-.007-.788Zm7.5-10.188c3.678.149,7.943,1.774,9.106,4.989H60.447C62.1,56.736,66.7,55.5,70.295,55.636ZM60.442,73.762a.866.866,0,0,0-1.125-.647,1.078,1.078,0,0,1-1.066-.155,1.369,1.369,0,0,1-.644-1.02,1.3,1.3,0,0,1,1.3-1.349.866.866,0,0,0,.867-.866.559.559,0,0,1,0-.433v-.944a9.1,9.1,0,0,0,4.984-1.7A10.016,10.016,0,0,0,70.969,70.8a10.985,10.985,0,0,0,2.359.256A12.222,12.222,0,0,0,79.7,69.173v.119a.559.559,0,0,1,0,.433.866.866,0,0,0,.866.867,1.3,1.3,0,0,1,1.29,1.469,1.338,1.338,0,0,1-.652.925,1.116,1.116,0,0,1-1.067.124.867.867,0,0,0-1.136.632A11.22,11.22,0,0,1,71.533,82l-.385.124a5.158,5.158,0,0,1-3.181.039,11.2,11.2,0,0,1-7.526-8.4Zm3.909,10.262-1.449.659h0l-4.836,2.2a8.716,8.716,0,0,0-1.759,1.094V84.024ZM47.64,87.49V78.824h1.734V87.49Zm3.467-10.4h3.466V89.223H51.106Zm3.466,18a7.359,7.359,0,0,1,1.453-4.374.846.846,0,0,0,.167-.226,7.134,7.134,0,0,1,.98-1.008v11.87h-2.6Zm29.465,6.262h-2.6V89.487a7.326,7.326,0,0,1,2.6,5.607Z" transform="translate(-43.307 -49.934)"/><circle class="a" cx="0.867" cy="0.867" r="0.867" transform="translate(29.898 22.391)"/><circle class="a" cx="0.867" cy="0.867" r="0.867" transform="translate(21.232 22.391)"/></svg>