<svg xmlns="http://www.w3.org/2000/svg" width="30.06" height="30.088" viewBox="0 0 30.06 30.088"><defs><style>.a{fill:#b7202e;}</style></defs><g transform="translate(-0.238)"><path class="a" d="M7.606,11.861A3.537,3.537,0,1,0,11.142,15.4,3.541,3.541,0,0,0,7.606,11.861Zm0,5.305A1.769,1.769,0,1,1,9.374,15.4,1.772,1.772,0,0,1,7.606,17.166Z"/><rect class="a" width="3.536" height="1.768" transform="translate(15.917 12.764)"/><rect class="a" width="3.536" height="1.768" transform="translate(21.222 12.764)"/><rect class="a" width="3.536" height="1.768" transform="translate(15.917 16.3)"/><rect class="a" width="3.536" height="1.768" transform="translate(21.222 16.3)"/><rect class="a" width="3.536" height="1.768" transform="translate(15.917 5.773)"/><rect class="a" width="3.536" height="1.768" transform="translate(21.222 5.773)"/><rect class="a" width="3.536" height="1.768" transform="translate(15.917 9.309)"/><rect class="a" width="3.536" height="1.768" transform="translate(21.222 9.309)"/><path class="a" d="M26.762,1.771V0H13.8V1.78H10.2V8.5A7.37,7.37,0,0,0,.238,15.4c0,1.664,1.1,4.392,3.359,8.341,1.619,2.828,3.261,5.25,3.278,5.274l.731,1.075.731-1.075c.013-.02,1.08-1.593,2.341-3.682H30.3V1.783h0ZM7.606,26.915c-2.048-3.155-5.6-9.126-5.6-11.518a5.6,5.6,0,0,1,11.2,0C13.206,17.789,9.653,23.76,7.606,26.915ZM28.53,23.563H21.222V19.908H19.454v3.655H11.715c2.192-3.854,3.259-6.526,3.259-8.166a7.365,7.365,0,0,0-3.006-5.934V3.548h3.595V1.768h9.431V3.533l3.536.012Z"/></g></svg>