<svg xmlns="http://www.w3.org/2000/svg" width="20.803" height="29.612" viewBox="0 0 20.803 29.612">
    <defs>
        <style>
            .prefix__cls-1{fill:#58595b}
        </style>
    </defs>
    <g id="prefix__Group_6193" data-name="Group 6193" transform="translate(-25.297 -5.995)">
        <path id="prefix__Path_10648" d="M38.9 36.282v-4.42h-2.791v4.42H33.03l4.525 5.34 4.525-5.34z" class="prefix__cls-1" data-name="Path 10648" transform="translate(-1.798 -6.015)"/>
        <path id="prefix__Path_10649" d="M33.033 21.668a1.677 1.677 0 0 0-.405.038v1.282a1.457 1.457 0 0 0 .328.026c.522 0 .843-.264.843-.708.001-.4-.276-.638-.766-.638z" class="prefix__cls-1" data-name="Path 10649" transform="translate(-1.705 -3.645)"/>
        <path id="prefix__Path_10650" d="M38.386 21.684a2.056 2.056 0 0 0-.445.039v2.84a1.757 1.757 0 0 0 .342.02 1.346 1.346 0 0 0 1.469-1.52 1.246 1.246 0 0 0-1.366-1.379z" class="prefix__cls-1" data-name="Path 10650" transform="translate(-2.94 -3.648)"/>
        <path id="prefix__Path_10651" d="M44.633 14.713v-2.375a.5.5 0 0 0-.14-.34l-5.786-5.86a.471.471 0 0 0-.344-.144H27.3a.483.483 0 0 0-.484.483v8.234H25.3v9.6h1.518v4.064a.483.483 0 0 0 .484.483H33.5v-.966h-5.719v-3.584h15.885v3.581H37.9v.966h6.25a.483.483 0 0 0 .483-.483v-4.064H46.1v-9.6zm-5.787-7.059l4.146 4.2h-4.146zm-6.178 12.012a2.014 2.014 0 0 1-1.411.457 2.438 2.438 0 0 1-.335-.019v1.553h-.972v-4.284a8.048 8.048 0 0 1 1.327-.091 2.077 2.077 0 0 1 1.327.348 1.268 1.268 0 0 1 .464 1 1.387 1.387 0 0 1-.4 1.036zm4.465 1.475a3.117 3.117 0 0 1-2 .56 8.532 8.532 0 0 1-1.115-.064v-4.264a8.726 8.726 0 0 1 1.328-.091 2.788 2.788 0 0 1 1.777.464 1.92 1.92 0 0 1 .734 1.636 2.2 2.2 0 0 1-.724 1.759zm4.342-3.021h-1.668v.992h1.559v.8h-1.559v1.746h-.985v-4.344h2.655v.806zm2.19-3.408H27.781V6.961h10.1v5.377a.483.483 0 0 0 .483.483h5.3z" class="prefix__cls-1" data-name="Path 10651"/>
    </g>
</svg>
