<svg xmlns="http://www.w3.org/2000/svg" width="16.86" height="24" viewBox="0 0 16.86 24">
    <defs>
        <style>
            .prefix__cls-1{fill:#069}
        </style>
    </defs>
    <g id="prefix__Group_6193" data-name="Group 6193" transform="translate(-25.297 -5.995)">
        <path id="prefix__Path_10648" d="M37.784 35.444v-3.582h-2.259v3.582h-2.5l3.675 4.329 3.667-4.328z" class="prefix__cls-1" data-name="Path 10648" transform="translate(-2.923 -9.777)"/>
        <path id="prefix__Path_10649" d="M32.956 21.668a1.359 1.359 0 0 0-.328.031v1.039a1.181 1.181 0 0 0 .266.021c.423 0 .684-.214.684-.574 0-.324-.225-.517-.622-.517z" class="prefix__cls-1" data-name="Path 10649" transform="translate(-2.771 -5.924)"/>
        <path id="prefix__Path_10650" d="M38.3 21.684a1.666 1.666 0 0 0-.361.032v2.3a1.424 1.424 0 0 0 .277.016 1.091 1.091 0 0 0 1.192-1.232 1.009 1.009 0 0 0-1.108-1.116z" class="prefix__cls-1" data-name="Path 10650" transform="translate(-4.779 -5.93)"/>
        <path id="prefix__Path_10651" d="M40.969 13.06v-1.924a.4.4 0 0 0-.113-.276l-4.69-4.749a.381.381 0 0 0-.279-.116h-8.968a.392.392 0 0 0-.392.392v6.673H25.3v7.777h1.23v3.294a.392.392 0 0 0 .392.392h5.03v-.783H27.31v-2.9h12.875v2.9h-4.671v.783h5.063a.392.392 0 0 0 .392-.392v-3.293h1.189V13.06zm-4.69-5.72l3.36 3.4h-3.36zm-5.007 9.735a1.632 1.632 0 0 1-1.143.371 1.975 1.975 0 0 1-.271-.016v1.258h-.789v-3.472a6.523 6.523 0 0 1 1.075-.073 1.684 1.684 0 0 1 1.075.282 1.028 1.028 0 0 1 .376.814 1.124 1.124 0 0 1-.324.836zm3.619 1.2a2.526 2.526 0 0 1-1.623.454 6.915 6.915 0 0 1-.9-.052v-3.461a7.072 7.072 0 0 1 1.076-.073 2.259 2.259 0 0 1 1.441.376 1.556 1.556 0 0 1 .6 1.326 1.783 1.783 0 0 1-.595 1.425zm3.519-2.448h-1.353v.8h1.264v.648h-1.264v1.415h-.8v-3.521h2.153v.653zm1.775-2.762H27.31V6.778h8.19v4.358a.392.392 0 0 0 .392.391h4.3z" class="prefix__cls-1" data-name="Path 10651"/>
    </g>
</svg>
