<svg xmlns="http://www.w3.org/2000/svg" width="18.22" height="15.785" viewBox="0 0 18.22 15.785"><path d="M8.806-28.973A3.266,3.266,0,0,1,7.755-26.5a3.636,3.636,0,0,1-2.6,1,3.256,3.256,0,0,1-2.508-1.143,4.08,4.08,0,0,1-1.033-2.84,7.754,7.754,0,0,1,.59-2.8,19.749,19.749,0,0,1,1.531-3.061,33.642,33.642,0,0,1,2.121-3.08q1.18-1.531,2.4-2.858l1,.848A22.427,22.427,0,0,0,6.5-36.533a11.32,11.32,0,0,0-1.346,3.946A4.164,4.164,0,0,1,7.737-31.5,3.266,3.266,0,0,1,8.806-28.973Zm10.548,0A3.294,3.294,0,0,1,18.322-26.5a3.572,3.572,0,0,1-2.582,1,3.256,3.256,0,0,1-2.508-1.143,4.08,4.08,0,0,1-1.033-2.84,7.754,7.754,0,0,1,.59-2.8,19.749,19.749,0,0,1,1.531-3.061,33.642,33.642,0,0,1,2.121-3.08q1.18-1.531,2.4-2.858l1,.848a23.249,23.249,0,0,0-2.766,3.909,10.568,10.568,0,0,0-1.328,3.946A4.124,4.124,0,0,1,18.285-31.5,3.266,3.266,0,0,1,19.354-28.973Z" transform="translate(-1.614 41.291)" fill="#58595b"/></svg>