<svg xmlns="http://www.w3.org/2000/svg" width="18.22" height="15.785" viewBox="0 0 18.22 15.785"><path d="M12.642-37.824A3.266,3.266,0,0,1,13.693-40.3a3.636,3.636,0,0,1,2.6-1A3.256,3.256,0,0,1,18.8-40.148a4.079,4.079,0,0,1,1.033,2.84,7.753,7.753,0,0,1-.59,2.8,19.749,19.749,0,0,1-1.531,3.061,33.642,33.642,0,0,1-2.121,3.08q-1.18,1.531-2.4,2.858l-1-.848a22.427,22.427,0,0,0,2.748-3.909,11.32,11.32,0,0,0,1.346-3.946A4.164,4.164,0,0,1,13.711-35.3,3.266,3.266,0,0,1,12.642-37.824Zm-10.548,0A3.294,3.294,0,0,1,3.126-40.3a3.572,3.572,0,0,1,2.582-1,3.256,3.256,0,0,1,2.508,1.143,4.079,4.079,0,0,1,1.033,2.84,7.753,7.753,0,0,1-.59,2.8,19.749,19.749,0,0,1-1.531,3.061,33.641,33.641,0,0,1-2.121,3.08q-1.18,1.531-2.4,2.858l-1-.848A23.248,23.248,0,0,0,4.38-30.264,10.567,10.567,0,0,0,5.708-34.21,4.124,4.124,0,0,1,3.163-35.3,3.266,3.266,0,0,1,2.094-37.824Z" transform="translate(-1.614 41.291)" fill="#58595b"/></svg>