<svg xmlns="http://www.w3.org/2000/svg" width="18.22" height="15.785" viewBox="0 0 18.22 15.785">
    <path id="prefix__Path_11067" d="M12.642-28.973a3.266 3.266 0 0 0 1.051 2.473 3.636 3.636 0 0 0 2.6 1 3.256 3.256 0 0 0 2.507-1.149 4.079 4.079 0 0 0 1.033-2.84 7.753 7.753 0 0 0-.59-2.8 19.748 19.748 0 0 0-1.531-3.061 33.642 33.642 0 0 0-2.121-3.08q-1.18-1.531-2.4-2.858l-1 .848a22.427 22.427 0 0 1 2.748 3.909 11.32 11.32 0 0 1 1.346 3.946 4.164 4.164 0 0 0-2.573 1.085 3.266 3.266 0 0 0-1.07 2.527zm-10.548 0A3.294 3.294 0 0 0 3.126-26.5a3.572 3.572 0 0 0 2.582 1 3.256 3.256 0 0 0 2.508-1.143 4.079 4.079 0 0 0 1.033-2.84 7.753 7.753 0 0 0-.59-2.8 19.749 19.749 0 0 0-1.531-3.061 33.642 33.642 0 0 0-2.121-3.08q-1.18-1.531-2.4-2.858l-1 .848a23.248 23.248 0 0 1 2.773 3.901 10.567 10.567 0 0 1 1.328 3.946A4.124 4.124 0 0 0 3.163-31.5a3.266 3.266 0 0 0-1.069 2.527z" data-name="Path 11067" transform="translate(-1.614 41.291)" style="fill:#b7202e"/>
</svg>
