<svg xmlns="http://www.w3.org/2000/svg" width="20.363" height="15.272" viewBox="0 0 20.363 15.272">
    <g>
        <g>
            <path fill="#3c3d3d" d="M18.666 64H1.7A1.7 1.7 0 0 0 0 65.7v11.875a1.7 1.7 0 0 0 1.7 1.7h16.966a1.7 1.7 0 0 0 1.7-1.7V65.7a1.7 1.7 0 0 0-1.7-1.7zM1.7 64.848h16.966a.808.808 0 0 1 .176.036c-1.469 1.345-6.341 5.8-8.045 7.337a.851.851 0 0 1-1.232 0c-1.7-1.536-6.576-5.992-8.045-7.336a.812.812 0 0 1 .18-.037zM.848 77.575V65.7a.82.82 0 0 1 .052-.238c1.12 1.03 4.519 4.138 6.723 6.143-2.2 1.887-5.6 5.11-6.73 6.191a.817.817 0 0 1-.045-.221zm17.818.848H1.7a.812.812 0 0 1-.191-.039c1.171-1.116 4.593-4.358 6.751-6.2l.741.67a1.695 1.695 0 0 0 2.368 0l.741-.671c2.158 1.846 5.579 5.088 6.751 6.2a.811.811 0 0 1-.195.041zm.848-.848a.819.819 0 0 1-.045.221c-1.134-1.081-4.533-4.3-6.73-6.191 2.2-2 5.6-5.113 6.727-6.143a.82.82 0 0 1 .047.235z" transform="translate(0 -64)"/>
        </g>
    </g>
</svg>
