<svg xmlns="http://www.w3.org/2000/svg" width="21.485" height="16.683" viewBox="0 0 21.485 16.683">
    <path fill="none" stroke="#393a3a" d="M40.713-17.959a4.655 4.655 0 0 1-2.176.635 2.99 2.99 0 0 0 1.632-1.995 13.9 13.9 0 0 1-2.448 1A3.39 3.39 0 0 0 34.91-19.5a3.83 3.83 0 0 0-3.81 3.808v.816a10.31 10.31 0 0 1-7.889-4.08 3.72 3.72 0 0 0-.635 1.995 3.994 3.994 0 0 0 1.635 3.261 6.443 6.443 0 0 1-1.811-.36 4.1 4.1 0 0 0 2.992 3.808c-.363 0-.635.181-1 .181h-.816a3.483 3.483 0 0 0 3.624 2.63 7.679 7.679 0 0 1-4.8 1.632h-1A11.317 11.317 0 0 0 27.294-4a10.821 10.821 0 0 0 10.88-10.876v-.363a20.35 20.35 0 0 0 2.539-2.72z" transform="translate(-19.623 20.178)"/>
</svg>
