<svg xmlns="http://www.w3.org/2000/svg" width="46" height="46" viewBox="0 0 46 46">
    <g id="prefix__Group_8436" data-name="Group 8436" transform="translate(-70 -213)">
        <circle id="prefix__Ellipse_1243" cx="23" cy="23" r="23" fill="#fff" data-name="Ellipse 1243" transform="translate(70 213)"/>
        <g id="prefix__noun_direction_2135473" transform="translate(83 229)">
            <path id="prefix__Path_8807" fill="#069" stroke="#069" d="M6.58.1L.1 6.58a.352.352 0 0 0 0 .5l6.481 6.48a.362.362 0 0 0 .5 0 .353.353 0 0 0 0-.5L1.2 7.182h18.215a.352.352 0 0 0 0-.7H1.2L7.077.6a.353.353 0 0 0 0-.5.36.36 0 0 0-.497 0z" data-name="Path 8807"/>
        </g>
    </g>
</svg>
