<svg xmlns="http://www.w3.org/2000/svg" width="17.947" height="24.507" viewBox="0 0 17.947 24.507">
    <g id="prefix__noun_Download_file_479268" data-name="noun_Download file_479268" transform="translate(.5 .5)">
        <g id="prefix__Group_8442" data-name="Group 8442">
            <path id="prefix__Path_17184" fill="#046" stroke="#046" d="M19.222 959.362a.283.283 0 0 0-.222.273V982.6a.284.284 0 0 0 .273.273h16.4a.284.284 0 0 0 .273-.273v-17.5a.277.277 0 0 0-.077-.2l-5.469-5.461a.277.277 0 0 0-.2-.077zm.325.547h10.386v5.191a.284.284 0 0 0 .273.273H35.4v16.946H19.547v-22.41zm10.933.384l4.536 4.536H30.48zm-3.007 9.729a.273.273 0 0 0-.273.273v7l-2.264-2.272a.281.281 0 0 0-.393 0 .29.29 0 0 0 0 .393l2.716 2.7a.315.315 0 0 0 .214.111.3.3 0 0 0 .214-.111l2.716-2.7a.288.288 0 0 0 0-.393.281.281 0 0 0-.393 0l-2.264 2.272v-7a.273.273 0 0 0-.273-.273z" data-name="Path 17184" transform="translate(-19 -959.362)"/>
        </g>
    </g>
</svg>
