<?xml version="1.0" encoding="utf-8"?>
<!-- Generator: Adobe Illustrator 22.1.0, SVG Export Plug-In . SVG Version: 6.00 Build 0)  -->
<svg version="1.1" id="Objects" xmlns="http://www.w3.org/2000/svg" xmlns:xlink="http://www.w3.org/1999/xlink" x="0px" y="0px"
	 viewBox="0 0 171.5 171" enable-background="new 0 0 171.5 171" xml:space="preserve">
<path fill="#B5332B" d="M170.4,85.8c0-46.9-38.1-85-85-85c-46.9,0-85,38.1-85,85c0,46.9,38.1,85,85,85
	C132.4,170.8,170.4,132.7,170.4,85.8z"/>
<path fill="#A22D26" d="M170.4,85.8c0-46.9-38.1-85-85-85v170C132.4,170.8,170.4,132.7,170.4,85.8z"/>
<g>
	<defs>
		<path id="SVGID_1_" d="M170.4,85.8c0-46.9-38.1-85-85-85c-46.9,0-85,38.1-85,85c0,46.9,38.1,85,85,85
			C132.4,170.8,170.4,132.7,170.4,85.8z"/>
	</defs>
	<clipPath id="SVGID_2_">
		<use xlink:href="#SVGID_1_"  overflow="visible"/>
	</clipPath>
	<g clip-path="url(#SVGID_2_)">
		<rect x="73" y="107.2" fill="#D9A78C" width="24.9" height="27.3"/>
		<path fill="#C0D4DF" d="M100.9,123.5c0,0,23.7,3.5,27.2,7.1c3,3.2,9.4,33.5,10.8,40.2c-41.6,0-53.5,0-53.5,0v-46L100.9,123.5z"/>
		<g>
			<path fill="#EAC0A7" d="M85.4,29.1c12.1,0,31.2,6.9,31.2,39.1c0,18.6-6.1,30.8-8.7,34.1c-2.4,3.1-16.1,9.7-22.5,9.7
				C85.4,79.5,85.4,29.1,85.4,29.1z"/>
			<path fill="#EAC0A7" d="M122.6,75.8c0.5-5.1-1.9-9.7-5.5-10.2c-3.6-0.5-6.9,3.3-7.4,8.4c-0.5,5.1,1.9,9.7,5.5,10.2
				C118.8,84.8,122.1,81,122.6,75.8z"/>
		</g>
		<g>
			<path fill="#F2D7BC" d="M85.4,29.1c-12.1,0-31.2,6.9-31.2,39.1c0,18.6,6.1,30.8,8.7,34.1c2.4,3.1,16.1,9.7,22.5,9.7
				C85.4,79.5,85.4,29.1,85.4,29.1z"/>
			<path fill="#F2D7BC" d="M48.2,75.8c-0.5-5.1,1.9-9.7,5.5-10.2c3.6-0.5,6.9,3.3,7.4,8.4c0.5,5.1-1.9,9.7-5.5,10.2
				C52.1,84.8,48.8,81,48.2,75.8z"/>
		</g>
		<path fill="#CFE1EB" d="M70,123.5c0,0-23.7,3.5-27.2,7.1c-3,3.2-9.4,33.5-10.8,40.2c41.6,0,53.5,0,53.5,0v-46L70,123.5z"/>
		<polygon fill="#FFFFFF" points="85.4,124.8 72.8,119.7 69.7,122.8 76,136.8 		"/>
		<polygon fill="#FFFFFF" points="85.4,124.8 98.1,119.7 101.2,122.8 94.9,136.8 		"/>
	</g>
	<path clip-path="url(#SVGID_2_)" fill="#8B5F3C" d="M117.3,66.4c0,0,10.2-46.6-32.1-46.6c-42.5,0-31.9,45.3-31.9,45.3
		s5.8-3.3,5.8,11.6c2.3,0,1.1,0,1.1,0s2.1-10,2.7-18.9c15,0,28.2-1.9,39.3-11.1c6.3,0,7.2,7.9,7.2,13.9l-2.8,1.1
		c0,0,2.7,5.2,2.9,15.1c1.9,0,1.9,0,1.9,0S111.2,60.3,117.3,66.4z"/>
	<path clip-path="url(#SVGID_2_)" fill="#FFFFFF" d="M85.4,99.9c5.6,0,10.2-1.9,10.2-4.2H75.2C75.2,98,79.8,99.9,85.4,99.9z"/>
</g>
</svg>
