<svg xmlns="http://www.w3.org/2000/svg" width="58.87" height="49.424" viewBox="0 0 58.87 49.424"><defs><style>.a{fill:#707070;}</style></defs><g transform="translate(0 -34.019)"><g transform="translate(40.872 34.019)"><path class="a" d="M56.181,34.019a8.08,8.08,0,0,0,0,16.16,8.117,8.117,0,0,0,8.108-8.107A8.035,8.035,0,0,0,56.181,34.019Zm0,14.383a6.3,6.3,0,1,1,6.331-6.276A6.328,6.328,0,0,1,56.181,48.4Z" transform="translate(-48.129 -34.019)"/></g><g transform="translate(9.508 50.894)"><path class="a" d="M46.726,54.231a.945.945,0,0,0-1.277-.166l-9,7.163L24.846,56.4a.886.886,0,0,0-.833.111L11.573,65.393a.888.888,0,0,0-.222,1.222.811.811,0,0,0,.723.388.893.893,0,0,0,.5-.166l12.05-8.608L36.285,63.06a1,1,0,0,0,.888-.11l9.386-7.442A.945.945,0,0,0,46.726,54.231Z" transform="translate(-11.196 -53.89)"/></g><g transform="translate(0 55.066)"><path class="a" d="M58.032,85.4H53.923V59.691a.877.877,0,0,0-.888-.888H44.871a.878.878,0,0,0-.889.888V85.4h-3V68.577a.877.877,0,0,0-.888-.888H31.876a.877.877,0,0,0-.889.888V85.4h-3V67.244a.877.877,0,0,0-.888-.888H18.937a.877.877,0,0,0-.888.888V85.4h-3V72.464a.877.877,0,0,0-.889-.888H5.942a.877.877,0,0,0-.888.888V85.4H.888a.889.889,0,0,0,0,1.777H57.977a.877.877,0,0,0,.888-.888A.8.8,0,0,0,58.032,85.4Zm-44.815,0H6.83V73.353h6.387Zm12.995,0H19.825V68.132h6.387Zm12.939,0H32.764V69.466h6.386Zm12.995,0H45.759V60.58h6.386Z" transform="translate(0 -58.803)"/></g><g transform="translate(46.922 38.938)"><path class="a" d="M59.494,40.315H57.832a1.507,1.507,0,0,1,.564,1.028h1.1v.5H58.406c-.1,1.028-.917,1.682-2.206,1.723.786.816,1.642,1.844,2.488,2.881h-.967c-.786-.947-1.521-1.823-2.468-2.831V43h.554c1.088,0,1.673-.453,1.743-1.149h-2.3v-.5H57.52c-.141-.584-.675-.876-1.552-.876h-.715v-.656h4.241Z" transform="translate(-55.253 -39.811)"/></g></g></svg>