<svg xmlns="http://www.w3.org/2000/svg" width="54" height="47.104" viewBox="0 0 54 47.104"><defs><style>.a{fill:#707070;}</style></defs><g transform="translate(-847 -758)"><g transform="translate(847 731.95)"><path class="a" d="M50.718,34.666,27.265,26.09a1.089,1.089,0,0,0-.583,0L3.335,34.666a.83.83,0,0,0-.529.953.8.8,0,0,0,.794.688H50.4a.9.9,0,0,0,.847-.688A.888.888,0,0,0,50.718,34.666Zm-42.3-.106L27,27.784,45.582,34.56Z"/><path class="a" d="M53.153,67.966H50.771V65.319a.837.837,0,0,0-.847-.847H48.547V61.878a.836.836,0,0,0-.847-.847h-.529V40.49h2.117a.847.847,0,0,0,0-1.694H4.712a.847.847,0,0,0,0,1.694H6.829V61.031H6.3a.836.836,0,0,0-.847.847v2.594H4.076a.837.837,0,0,0-.847.847v2.647H.847A.837.837,0,0,0,0,68.813v3.494a.836.836,0,0,0,.847.847H53.153A.836.836,0,0,0,54,72.307V68.813A.837.837,0,0,0,53.153,67.966ZM42.935,40.49h2.489V61.031H42.935ZM41.559,62.725h5.294v1.747H41.559ZM29.965,40.49H41.241V61.031h-.529a.835.835,0,0,0-.847.847v2.594H31.341V61.878a.835.835,0,0,0-.847-.847h-.529Zm-4.183,0h2.489V61.031H25.782ZM24.353,62.725h5.294v1.747H24.353ZM12.759,40.49H24.035V61.031h-.529a.835.835,0,0,0-.847.847v2.594H14.135V61.878a.835.835,0,0,0-.847-.847h-.529Zm-4.183,0h2.489V61.031H8.576ZM7.147,62.725h5.294v1.747H7.147ZM4.924,66.166H49.076v1.8H4.924ZM52.306,71.46H1.694v-1.8H52.306v1.8Z"/></g></g></svg>