<svg xmlns="http://www.w3.org/2000/svg" xmlns:xlink="http://www.w3.org/1999/xlink" width="96" height="238" viewBox="0 0 96 238"><defs><style>.a{fill:#fff;stroke:#707070;}.b{clip-path:url(#a);}.c{fill:#b7202e;opacity:0.8;}</style><clipPath id="a"><rect class="a" width="96" height="238" transform="translate(1184 840)"/></clipPath></defs><g class="b" transform="translate(-1184 -840)"><path class="c" d="M230.8,196.1a1.817,1.817,0,0,0,1.547-.378l13.139,14.44a1.821,1.821,0,0,0-.494.845,1.842,1.842,0,0,0,3.588.829,1.563,1.563,0,0,0,0-.205l88.314-1.251a1.83,1.83,0,0,0,3.3.822l41.746,25.019a1.751,1.751,0,0,0-.166.369,1.84,1.84,0,1,0,3.586.827,1.762,1.762,0,0,0,.014-.476l64.772-9.243a1.8,1.8,0,0,0,3.363.4l66.982,25.976c0,.021-.021.034-.025.052a1.84,1.84,0,1,0,3.586.827,1.778,1.778,0,0,0-.064-.955l48.185-20.266a1.794,1.794,0,0,0,3.19.018L634.993,258.9c-.011.043-.043.071-.052.116a1.842,1.842,0,0,0,1.381,2.205,1.814,1.814,0,0,0,2.076-1.089l78.26,22.392a1.808,1.808,0,0,0,2.679,1.882l53.906,73.131a1.784,1.784,0,0,0-.542.884,1.843,1.843,0,0,0,3.591.829,2.474,2.474,0,0,0,.009-.317l92.415-7.555a1.832,1.832,0,0,0,3.579.027,1.76,1.76,0,0,0-.041-.886l76.717-31.239a1.793,1.793,0,0,0,1.18.9,1.838,1.838,0,0,0,1.966-2.775l65.774-53.965a1.759,1.759,0,0,0,.827.481,1.846,1.846,0,0,0,2.208-1.381,1.876,1.876,0,0,0,.014-.478l83.885-13.773a1.812,1.812,0,0,0,1.322,1.276,1.84,1.84,0,1,0-.538-3.363l-29.867-40.528a1.778,1.778,0,0,0,.59-.934,1.84,1.84,0,0,0-1.378-2.205,1.809,1.809,0,0,0-1.75.57l-57.524-41.879a1.876,1.876,0,0,0,.219-.481,1.84,1.84,0,1,0-3.586-.829,1.772,1.772,0,0,0,.032.868l-67.494,25.9a1.793,1.793,0,0,0-3.3.191l-80.321-19.99a1.792,1.792,0,0,0-3.073-1.495L792.225,114.16a1.935,1.935,0,0,0,.232-.517,1.841,1.841,0,0,0-3.589-.827,1.867,1.867,0,0,0,0,.8l-33.6,9.938A1.806,1.806,0,0,0,754,122.4a1.827,1.827,0,0,0-1.946.8L687.94,91.233a2.075,2.075,0,0,0,.091-.205,1.84,1.84,0,0,0-3.586-.827,1.778,1.778,0,0,0,.082.991L610,127.233a1.82,1.82,0,0,0-2.989-.13L541.55,87.6a1.741,1.741,0,0,0,.15-.324,1.842,1.842,0,1,0-3.589-.834,1.822,1.822,0,0,0,.144,1.162l-50.628,29.329a1.817,1.817,0,0,0-1.062-.725,1.836,1.836,0,0,0-2.208,1.378,1.813,1.813,0,0,0,.021.843L410.538,145.9a1.825,1.825,0,1,0-3.124,1.871L389.67,162.979l-75.908.175a1.833,1.833,0,0,0-3.607-.185,1.8,1.8,0,0,0,.025.854l-77.364,29.623a1.82,1.82,0,0,0-1.194-.934,1.84,1.84,0,1,0-.827,3.586Zm873.958,51.735-83.885,13.777a1.844,1.844,0,0,0-.339-.636l52.9-55.184a1.853,1.853,0,0,0,.695.33,1.813,1.813,0,0,0,1.36-.223l29.874,40.525a1.791,1.791,0,0,0-.592.934A1.856,1.856,0,0,0,1104.753,247.834ZM484.676,119.068a1.741,1.741,0,0,0,.627.529l-16.01,42.332a1.828,1.828,0,0,0-1.394,1.153l-42.769-12ZM685.823,92.409a1.835,1.835,0,0,0,.579.016l17.432,80.3a1.8,1.8,0,0,0-1.176,1.246l-44.139-7.414a1.8,1.8,0,0,0-.948-1.741L685.78,92.39Zm67.344,33.579a1.809,1.809,0,0,0,.95-.062l30.013,68.542a1.817,1.817,0,0,0-.752.9l-77.145-20.692a1.806,1.806,0,0,0-.4-1.4l46.62-47.645A1.807,1.807,0,0,0,753.167,125.987Zm319.969,79.49-52.9,55.186a1.877,1.877,0,0,0-.688-.333,1.648,1.648,0,0,0-.615-.014l-8.286-42.079a1.83,1.83,0,0,0,1.292-1.331,1.974,1.974,0,0,0,.018-.565l60.848-11.494A1.782,1.782,0,0,0,1073.136,205.477ZM949.469,316.937,907.4,271.748a1.777,1.777,0,0,0,.412-.756l43.829,6.9a1.83,1.83,0,0,0,1.388,1.923c.05.007.094,0,.144,0l-2.631,36.768A1.812,1.812,0,0,0,949.469,316.937Zm-174.5,40.131,9.637-60.165a1.81,1.81,0,0,0,1.9-1.388c0-.027,0-.052,0-.08l41.981,4.183a1.793,1.793,0,0,0,.415,1.182l-53.307,56.556A1.789,1.789,0,0,0,774.969,357.068Zm-54.713-74.122a1.955,1.955,0,0,0,.011-.46l30.933-9.758,31.9,21.551a2.084,2.084,0,0,0-.137.308Zm-335.138-46.93a1.863,1.863,0,0,0-.841-.672l19.553-69.611,34.524,44.428Zm-47.458-27.39a1.822,1.822,0,0,0-.668.9l-60.655-14.01c0-.025,0-.052,0-.084l52.443-2.3ZM276.351,195a1.828,1.828,0,0,0-.328-.756l34.658-29.571a1.745,1.745,0,0,0,.852.5,1.776,1.776,0,0,0,1.167-.146l15.844,27.678Zm-.547-.989a1.763,1.763,0,0,0-.854-.506,1.842,1.842,0,0,0-2.205,1.378,1.478,1.478,0,0,0-.007.223l-3.363-.075,38.47-28.357Zm-3.073,1.394a1.3,1.3,0,0,0,0,.164l-5.767,1.246,2.023-1.495Zm82.572-2.324a1.768,1.768,0,0,0,.763.406,1.821,1.821,0,0,0,.684.018l-14.372,12.975Zm2.953-.934a.319.319,0,0,1,.018-.041,1.814,1.814,0,0,0-.171-1.228l5.065-3.167Zm-3.115.761-15.258,15.823a1.763,1.763,0,0,0-.763-.4,1.8,1.8,0,0,0-1.164.141l-8.792-15.356,25.5-1.121A1.824,1.824,0,0,0,355.142,192.91Zm-105.668,7.929,15.987-3.452-6.279,4.627-9.715-.961A1.662,1.662,0,0,0,249.473,200.838Zm-.018.686v0l9.166.909L248.1,210.184a1.8,1.8,0,0,0-.9-.556,1.077,1.077,0,0,0-.171,0l.572-6.71A1.82,1.82,0,0,0,249.455,201.524Zm9.8.966,2.258.223-12.071,7.013Zm.563-.415,6.664-4.912,6.311-1.362a1.432,1.432,0,0,0,.114.294l-10.7,6.218Zm13.205-5.748a1.852,1.852,0,0,0,1.1.77,1.824,1.824,0,0,0,2.128-1.205l59.208,13.675-72.814-7.211Zm84.377-2.764,1.021,1.7L342.3,207.193Zm.253-.228,7.828-7.07,32.647-20.394-39.441,29.195Zm168.779-60.144a1.831,1.831,0,0,0,.727.6l-14.807,40.783-9.89-2.559-6.635-22.257Zm176.2,41.09a1.808,1.808,0,0,0,.3,1.18l-23.187,20.795-21.77-28.546a1.805,1.805,0,0,0,.519-.843Zm80.624,21.512a1.9,1.9,0,0,0,.039.711l-56.449,22.526-21.4-43.075a1.833,1.833,0,0,0,.665-.854ZM951.747,277.4a.891.891,0,0,0-.08.178l-43.833-6.9a1.794,1.794,0,0,0-.85-1.675l5.195-11.588Zm-232.878,3.613a1.841,1.841,0,0,0-.353-.014l-1.169-29.735a1.821,1.821,0,0,0,1.173-.617l15.8,10.674-14.9,19.94A1.835,1.835,0,0,0,718.869,281.014Zm-39.441-84.477-35.843,32.145,12.991-60.47a1.856,1.856,0,0,0,1.08-.226Zm61.441,53.188-13.613-7.933,7.48-5.883,6.628,13.34A1.819,1.819,0,0,0,740.869,249.725Zm-.125.278a1.78,1.78,0,0,0-.164.36c0,.023,0,.043,0,.066l-21.626-1.112a1.854,1.854,0,0,0-.239-.811L727,241.992Zm-22.328-1.83a1.756,1.756,0,0,0-.857-.508,1.838,1.838,0,0,0-.51-.018l-2.158-12.718,11.695,6.819Zm-12.67-20.239,7.068-2.816,1.547,9.152-8.747-5.1a1.381,1.381,0,0,0,.132-1.237Zm-.164-.424a1.827,1.827,0,0,0-1.182-.911,1.317,1.317,0,0,0-.232,0l.417-50.049,8.152,48.115Zm-.093,1.937,8.94,5.211,2.21,13.057a1.932,1.932,0,0,0-.358.137l-11.235-17.976A1.839,1.839,0,0,0,705.488,229.448Zm38.682,21.635,63.2,3.249c0,.057-.014.125,0,.182l-47.014,14.828-16.6-17.377a1.769,1.769,0,0,0,.412-.77A.942.942,0,0,0,744.17,251.083Zm-1.383-2.1a1.832,1.832,0,0,0-1.012.089l-6.682-13.442,48.691-38.3.014.014-40.464,51.887A1.933,1.933,0,0,0,742.787,248.982ZM783.485,197l-48.6,38.215-7.84-15.778,56.41-22.5C783.467,196.949,783.472,196.976,783.485,197Zm-48.953,38.5-7.694,6.049-12.012-7.006-1.625-9.585,13.431-5.356Zm-21.407-11-8.186-48.336.093-.039,21.4,43.066Zm-9.107-48.285a2,2,0,0,0,.232.009l-.417,50.359a1.834,1.834,0,0,0-.788.232l-23.021-30.193L703.246,175.8A1.8,1.8,0,0,0,704.018,176.218Zm-1.29,50.876a1.8,1.8,0,0,0-.54.886,1.667,1.667,0,0,0-.007.4l-59.789,5.853,1.025-4.78,36.292-32.546Zm-59.75,2.133-4.855,4.356a1.8,1.8,0,0,0-.5-.294l17.534-60.764Zm-4.242,5.837,0-.093,3.069-.3-.2.911Zm-.007-.472a1.845,1.845,0,0,0-.292-.672L642.812,230l-.921,4.281Zm-5.126-5.771-33.034-56.8,1.055-2.422,2.01-.109Zm-130.477,10.9L487.1,203.171,505.94,190.16a1.813,1.813,0,0,0,.957.613c.046.009.089,0,.137.007l-3.071,49.575Zm-47.451-36.062a1.839,1.839,0,0,0,.226-.494,1.885,1.885,0,0,0,.02-.713l2.9-.747-1,3.588ZM470.1,165.48l12.973,29.6-23.72,6.14,9.927-35.679A1.8,1.8,0,0,0,470.1,165.48Zm35.613,24.372-18.762,12.959-3.3-7.535,21.964-5.682A1.827,1.827,0,0,0,505.709,189.852Zm.016-1.747a1.7,1.7,0,0,0-.21.462,1.853,1.853,0,0,0-.021.706l-21.986,5.691-13-29.644a1.8,1.8,0,0,0,.492-.437Zm-46.8,13.219-3.119.811a1.793,1.793,0,0,0-.85-.984l1.239-3.269,12.358-31.154Zm.319.269,23.964-6.2,3.365,7.68-16.589,11.458-11.838-9Zm27.486,1.836,15.664,35.734L470.3,214.777Zm53.441-21.168,17.89,4.632a1.078,1.078,0,0,0,0,.121l-48.438,1.718ZM597.2,170.183h0L574.229,180.5l20.92-9.884Zm2.791.854a1.819,1.819,0,0,0,.706-1.046,1.662,1.662,0,0,0,.009-.337l.469-.027-.859,1.971Zm1.342-1.766-.617.032a1.869,1.869,0,0,0-.278-.731l.708-.51a1.827,1.827,0,0,0,.52.449Zm-.344-1.415a.856.856,0,0,0,.048.089l-.711.508a1.868,1.868,0,0,0-.185-.2ZM597.1,169.72l-.091.018.091-.043Zm-3.274,1.18L561.443,186.2a1.952,1.952,0,0,0-.28-.335l8.045-9.749Zm-32.97,14.684a1.7,1.7,0,0,0-.581-.262,1.807,1.807,0,0,0-1.157.141l-3.734-6.425,13.178-2.791Zm-2.064.059a1.791,1.791,0,0,0-.6.8l-16.981-4.4,13.8-2.923Zm2.711,2.219a1.615,1.615,0,0,0,.15-.333,1.8,1.8,0,0,0-.089-1.021l35.748-16.051a1.763,1.763,0,0,0,.754.722l-12.545,31.59Zm40.281-18.619.248-.57c.046.014.082.046.128.059a1.806,1.806,0,0,0,1.039-.1l.264.519Zm-.9-1.677-1,.472a1.819,1.819,0,0,0-.422-.191l.444-1.914.948.44c-.018.055-.057.093-.071.148A1.811,1.811,0,0,0,600.879,167.567Zm-3.771,1.779-1.424.672-25.992,5.5,12.139-14.707,15.388,8.118a1.76,1.76,0,0,0-.107.23A1.652,1.652,0,0,0,597.108,169.347Zm-57.966,12.647-30.129,6.382a1.779,1.779,0,0,0-.923-1.023l4.447-12.244ZM507.764,187.2c-.016,0-.027-.018-.039-.018a1.872,1.872,0,0,0-.745-.018l-4.361-14.625,9.569,2.477Zm-1.162.112a1.853,1.853,0,0,0-.722.524l-34.715-23.223c.034-.062.059-.13.089-.2l30.908,8Zm-51.2,16.7.107.08,2.169,1.718-5.468,19.646h-.023l1.875-20.906A1.793,1.793,0,0,0,455.4,204.012ZM574.19,231.077a1.767,1.767,0,0,0-.8,0l-12.861-42.289a1.814,1.814,0,0,0,.74-.524l24.073,14.941-11.077,27.9C574.24,231.1,574.22,231.081,574.19,231.077Zm64.407,4.584c.025-.059.057-.112.077-.169l2.848.515-.264,1.214Zm80.155,14.623a2.021,2.021,0,0,0,.187-.41c.007-.032,0-.057,0-.089l21.624,1.112a1.8,1.8,0,0,0,.611,1.246l-6.6,8.833Zm41.967,19.446,46.818-14.771a1.776,1.776,0,0,0,.565.727L785.5,293.479a1.851,1.851,0,0,0-.374-.171,1.817,1.817,0,0,0-1.531.367Zm25.062,23.882,22.606-37.8a1.861,1.861,0,0,0,.374.175,1.8,1.8,0,0,0,1.027-.1l11.121,23.948L786.3,294.2A1.878,1.878,0,0,0,785.782,293.611Zm44.918,4.238a1.789,1.789,0,0,0-1.023.093L821.4,280.128l36.828-15.281-26.962,33.26A1.685,1.685,0,0,0,830.7,297.849Zm28.331-33.335,5.489-2.278a1.292,1.292,0,0,0,.173.226c.018.032.034.059.052.087L833.764,295.68Zm7.885-4.8a2.02,2.02,0,0,0-.4-.178,1.655,1.655,0,0,0-.3-.009l-.251-3.572,11.358-14.01Zm-1.173-.178a1.828,1.828,0,0,0-1.428,1.381v.011l-2.158-.271,3.368-4.156Zm-1.438,1.745a1.782,1.782,0,0,0,.048.529l-4.721,1.959,2.265-2.791Zm40.409,8.031a1.873,1.873,0,0,0-.412.69l-33.544-7.749a1.8,1.8,0,0,0-2.923-1.686,1.386,1.386,0,0,0-.153-.173,1.843,1.843,0,0,0-.551-.583l10.565-18.04a1.606,1.606,0,0,0,.4.182,1.8,1.8,0,0,0,1.522-.355Zm-43.3-8.4-2.586,3.185-37.618,15.611-11.116-23.937a1.845,1.845,0,0,0,.882-1.176v-.014ZM656.029,168.08l-18.783,65.079a1.853,1.853,0,0,0-.936.1l-32.225-63.79,50.821-2.791A1.818,1.818,0,0,0,656.029,168.08Zm-86.983,7.582-13.912,2.946L529.01,133.636a1.876,1.876,0,0,0,.444-.435l52,27.42Zm-41.516-41.705a1.819,1.819,0,0,0,1.16-.146l26.064,44.877-14.575,3.087L512.7,174.66l14.789-40.721C527.5,133.939,527.513,133.952,527.529,133.957Zm-58.75,31.4L462.616,180.9l5.917-15.65A1.136,1.136,0,0,0,468.779,165.36ZM452.555,201.8a1.812,1.812,0,0,0-.242.535,1.785,1.785,0,0,0,.087,1l-10.319,5.01-13.057-24.456Zm.014,23.772L458,206.063l11.292,8.949-16.012,11.064A1.763,1.763,0,0,0,452.569,225.572ZM502.761,240l.31.711a1.85,1.85,0,0,0-.358.312L470,215.105Zm3.151,1.834-.2-.157a1.867,1.867,0,0,0-.271-.506l11.08-10.948,2.249,9.874Zm-.761-.971a1.771,1.771,0,0,0-.729-.369c-.046-.014-.089,0-.137,0l3.078-49.707c.055,0,.109.009.164,0l8.881,38.955Zm2.745-50.179a1.838,1.838,0,0,0,.8-.533l28.641,18.913-20.615,20.362Zm1.025-.9a1.776,1.776,0,0,0,.18-.4,1.6,1.6,0,0,0,.009-.312l48.937-1.738a1.8,1.8,0,0,0,.383.889L537.65,208.76Zm49.8-1.251c.027.023.043.048.071.071l-13.9,24.925L538.01,209Zm.451.246a1.692,1.692,0,0,0,.278.123,1.835,1.835,0,0,0,.8,0L573.1,231.193a1.829,1.829,0,0,0-.718.5l-27.151-17.928Zm26.509,14.629.588.36-8.043,18.418Zm.175-.435,12.563-31.64c.027,0,.048.027.078.032a1.8,1.8,0,0,0,.889-.036l.517,1.228-13.447,30.785Zm14.258-29.908,22.1,52.468-35.413-21.977Zm.378-.36L635.847,233.5a1.676,1.676,0,0,0-.328.308l-12.6-7.822Zm37.889,63.37,2.777,1.629-4.276,19.913h-.014l.169-20.861A1.8,1.8,0,0,0,638.379,236.082Zm3.317,1.394.3-1.385,32.207,5.821-13.964,6.448Zm.39-1.807.223-1.046,59.88-5.862a2.136,2.136,0,0,0,.077.2L674.885,241.6Zm60.327-6.329a1.832,1.832,0,0,0,1.875.868l4.668,17.55-33.376-6.033Zm2.2.747a1.538,1.538,0,0,0,.237-.089l11.235,17.979a1.807,1.807,0,0,0-.677.948l-6.074-1.1Zm10.731,19.264c0,.036,0,.077,0,.112l-5.4.668-.49-1.846Zm.034.545a1.585,1.585,0,0,0,1.707,1.365L718.251,281c-.034,0-.068-.009-.1,0l-8.093-30.437Zm19.441,11.239,6.587-8.815a1.766,1.766,0,0,0,.556.253,1.805,1.805,0,0,0,1.529-.365l16.479,17.254-8.749,2.759Zm25.52,8.712L783.3,293.891l-31.576-21.328Zm26.122,24.775L821.1,280.248l8.273,17.808a1.828,1.828,0,0,0-.882,1.171c0,.027,0,.052,0,.08l-41.981-4.178A1.789,1.789,0,0,0,786.459,294.623Zm45.18,3.816,33.335-35.652a1.759,1.759,0,0,0,.882.533,1.788,1.788,0,0,0,.271.009l1.037,21.92L831.9,298.8A1.661,1.661,0,0,0,831.639,298.439Zm34.946-35.1a1.142,1.142,0,0,1,1.962.44,1.826,1.826,0,0,0,2.146-1.244l33.547,7.746a1.748,1.748,0,0,0,.032.715l-36.659,14.076Zm39.978,5.47c-.041-.014-.073-.046-.112-.055a1.805,1.805,0,0,0-1.522.355l-25.1-27.709a2.092,2.092,0,0,0,.2-.226l31.733,16.028Zm-29.348-27.386L865.926,255.35l-.864-12.269,11.72-2.372A1.731,1.731,0,0,0,877.215,241.427ZM865.484,255.9l-3.812,4.7-50.691-6.359a1.745,1.745,0,0,0,0-.219l53.6-10.843Zm-58.1-2.121a.571.571,0,0,0,0,.089l-63.2-3.253a1.792,1.792,0,0,0-.551-1.13L784.1,197.6a1.631,1.631,0,0,0,1.481.191l22.736,54.8A1.8,1.8,0,0,0,807.385,253.776ZM603.911,169.128l-.333-.658a1.809,1.809,0,0,0,.788-1.116,1.767,1.767,0,0,0,.007-.267l44.738-.435Zm-2.884-3.149L600,165.5l7.744-33.54-5.042,33.18A1.8,1.8,0,0,0,601.027,165.979Zm6.881-36.019-8.179,35.413-15.641-7.288,23.376-28.329A2.031,2.031,0,0,0,607.908,129.961Zm-8.28,35.843-.456,1.982a1.808,1.808,0,0,0-1.775.756l-15.288-8.063,1.691-2.048Zm-17.894-5.52-45.945-24.226,47.625,22.191ZM502,171.892l-30.626-7.929a1.8,1.8,0,0,0-.128-.909l24.212-13.105Zm-30.917-9.18a1.83,1.83,0,0,0-.747-.606L484.507,123l1.217-3.217.014.009a1.769,1.769,0,0,0,.74.014l8.877,29.769Zm-1.037-.738a.427.427,0,0,1-.057-.027c-.071-.014-.139,0-.21,0l6.662-17.616Zm-1.875,2.914-13.641,36.071-.014,0a1.822,1.822,0,0,0-1.406.246l-30.375-37.657,45.027.374A1.8,1.8,0,0,0,468.176,164.888Zm-15.352,36.584-.036.034L428.6,183.1l-10.46-19.6,4.085.034ZM409.56,148.42l4.352,8.152-8.845,4.753,3.6-12.8A1.757,1.757,0,0,0,409.56,148.42Zm4.577,8.573,3.267,6.124-12.811-.107.294-1.046ZM404.1,163.006h-.175a1.7,1.7,0,0,0-.119-.458l.5-.271Zm-2.221,1.975a1.837,1.837,0,0,0,1.185-.226l.4.515-15.791,56.221Zm1.506-.51c.016-.018.034-.032.05-.05l.221.169-.048.166Zm.282-.344a1.8,1.8,0,0,0,.242-.529,1.611,1.611,0,0,0,0-.21H404l-.228.813Zm.816-.734,13.126.112,10.1,18.92-23.54-17.915Zm13.449-.271-3.388-6.35,1.547-.834,5.821,7.218Zm-3.616-6.774-4.119-7.717,5.587,6.928Zm-9.831,5.286-.9.481a1.815,1.815,0,0,0-.69-.56l5.012-12.121Zm37.791,47.089,10.275-4.992a1.828,1.828,0,0,0,1.137.809c.046.009.091,0,.137,0l-1.877,20.9a1.777,1.777,0,0,0-.684.116Zm76.578,31.76,2.816,12.344a1.782,1.782,0,0,0-.711.444l-14.609-11.1Zm118.489,17.238,4.245-19.753L659.709,248.6l-21.4,9.874A1.844,1.844,0,0,0,637.346,257.722Zm82.306,23.718,14.907-19.956,16.135,10.9-30.6,9.651A1.829,1.829,0,0,0,719.652,281.44ZM942.82,189.314a1.575,1.575,0,0,0,.387.009l9.806,86.924a1.812,1.812,0,0,0-1.085.752l-39.573-19.984,30.352-67.752C942.75,189.273,942.779,189.305,942.82,189.314ZM400.8,164.421a1.836,1.836,0,0,0,.677.453l-17.673,70.333a1.768,1.768,0,0,0-1.025.164l-23.873-39.94Zm3.172.8.091-.321,24.071,18.32,13.527,25.338-2.912,1.415Zm37.887,43.71,8.605,16.117-11.453-14.736ZM453.7,227.6a1.82,1.82,0,0,0-.2-1.219L469.6,215.263l32.87,26.044a2.274,2.274,0,0,0-.146.321Zm52.108,14.723,11.772,8.945-12.009-8.059a1.805,1.805,0,0,0,.228-.5A1.654,1.654,0,0,0,505.812,242.32Zm16.86,10.424a1.843,1.843,0,0,0-.631-.018l-2.8-12.3,11.515-1.552-7.8,13.989A1.9,1.9,0,0,0,522.672,252.744Zm-3.522-12.7-2.31-10.139L537.7,209.3l6.979,4.607-13.686,24.536Zm25.878-25.91,27.135,17.917a1.854,1.854,0,0,0-.18.4,1.741,1.741,0,0,0-.011.46l-40.461,5.464ZM574.68,231.3l11.927-27.311,35.909,22.289,3.422,8.132-50.354-1.665A1.782,1.782,0,0,0,574.68,231.3Zm48.554-4.575,12.057,7.484a1.9,1.9,0,0,0-.15.333c-.014.059,0,.112-.007.175l-8.658-.289Zm11.891,8.357a1.816,1.816,0,0,0,1.394,1.668,1.952,1.952,0,0,0,.282.009l-.166,20.861a1.468,1.468,0,0,0-.374.055L626.631,234.8Zm3.326,23.775,21.683-10,10.49,6.154-32.12,3.983A1.141,1.141,0,0,0,638.451,258.857Zm22.212-10.248,14.235-6.566,34.182,6.174.52,1.959-38.2,4.734Zm49.049,1.989,8.115,30.514a1.809,1.809,0,0,0-.816.57l-45-26.411Zm122.341,48.6,35.13-13.492,3,63.471a1.932,1.932,0,0,0-.663.257l-37.976-48.49a1.827,1.827,0,0,0,.538-.886A1.791,1.791,0,0,0,832.053,299.2Zm38.86,50a1.738,1.738,0,0,0-.267-.009l-3.012-63.658L904.425,271.4a1.777,1.777,0,0,0,.672.709l-34.073,77.134A.716.716,0,0,0,870.913,349.2Zm83.912-72.352,54.241-58.859a1.957,1.957,0,0,0,.663.3,2.056,2.056,0,0,0,.613.016l8.286,42.079a1.813,1.813,0,0,0-1.29,1.326,1.693,1.693,0,0,0-.018.658l-62.17,15.042A1.8,1.8,0,0,0,954.825,276.844Zm53.938-59.18-54.241,58.859a1.887,1.887,0,0,0-.661-.3,2.718,2.718,0,0,0-.385-.009l-9.806-86.92a1.806,1.806,0,0,0,1.139-.873l63.594,27.536c-.014.046-.041.08-.055.125A1.824,1.824,0,0,0,1008.763,217.664ZM942.285,189.07,911.942,256.8l-31.733-16.024a1.406,1.406,0,0,0,.089-.2,1.847,1.847,0,0,0-.235-1.4l61.917-50.356A1.74,1.74,0,0,0,942.285,189.07Zm-65.574,50.68a2.032,2.032,0,0,0-.018.576l-11.663,2.36-5.188-73.63,18.013,69.419A1.808,1.808,0,0,0,876.711,239.75ZM859.02,168.458a2.208,2.208,0,0,0,.3.007l5.238,74.32L810.9,253.642a1.731,1.731,0,0,0-2.247-1.187l-22.736-54.8a1.827,1.827,0,0,0,.932-1.187,1.913,1.913,0,0,0-.036-.882l71.017-28.058A1.8,1.8,0,0,0,859.02,168.458Zm-204.1-2.2-50.534.492a1.818,1.818,0,0,0-1.394-1.6l5.338-35.121a1.8,1.8,0,0,0,1.431-.542l45.426,35.941a1.8,1.8,0,0,0-.26.57A1.714,1.714,0,0,0,654.917,166.26Zm-47.761-36.78L583.7,157.9l-54.034-25.178a.958.958,0,0,0,.068-.148,1.715,1.715,0,0,0,.009-.287l76.9-3.762A1.837,1.837,0,0,0,607.156,129.48Zm-80.884,3.37-30.555,16.534-8.856-29.717a1.79,1.79,0,0,0,.946-.948l38.356,13-.014.025A1.8,1.8,0,0,0,526.272,132.85Zm-58.49,30.58c-.007.034,0,.071,0,.1l-45.349-.374-5.978-7.411,8.209-4.415Zm-51.637-8.061-5.94-7.364a1.816,1.816,0,0,0,.4-.615L424,151.147Zm-8.008-7.013-5.422,13.114a1.3,1.3,0,0,0-.182-.08,1.84,1.84,0,0,0-2.208,1.374c-.014.068,0,.13,0,.191l-9.038.018,16.461-14.857A1.959,1.959,0,0,0,408.136,148.356Zm-7.831,15.06a1.812,1.812,0,0,0,.191.583l-33.6,20.988,23.868-21.549Zm-45.627,28.14-25.759,1.135L313,164.879a1.846,1.846,0,0,0,.4-.374l41.473,26.365a1.8,1.8,0,0,0-.187.41A1.857,1.857,0,0,0,354.679,191.556Zm-86,3.459-9.845-.223,49.778-29.209Zm-.392.289-2.347,1.732L249.4,200.608c-.025-.08-.057-.155-.089-.232l9.027-5.3Zm-19.168,4.716a1.783,1.783,0,0,0-1.039-.7,1.815,1.815,0,0,0-2.039,1.007L232.921,194.9a1.247,1.247,0,0,0,.08-.178,1.468,1.468,0,0,0,.007-.223l24.561.56Zm115.47-13.586-6.161,3.85,31.3-26.844h.326ZM232.834,195.09l13.114,5.425a1.635,1.635,0,0,0-.082.182,1.845,1.845,0,0,0,1.378,2.208c.059.014.114,0,.173,0l-.572,6.71a1.779,1.779,0,0,0-1.2.387l-13.142-14.44A1.962,1.962,0,0,0,232.834,195.09Zm15.577,15.534,13.543-7.867,72.607,7.188-85.967,1.214A1.772,1.772,0,0,0,248.412,210.624Zm91.882-1.415,18.345-13.581,23.857,39.9a1.928,1.928,0,0,0-.417.387L340.332,210.9a1.637,1.637,0,0,0,.166-.369A1.82,1.82,0,0,0,340.293,209.209Zm44.979,27.2,53.346-25.9,12.018,15.463a1.763,1.763,0,0,0-.524.873,1.96,1.96,0,0,0-.014.476l-64.769,9.236C385.316,236.506,385.291,236.456,385.273,236.408Zm116.939,5.539a1.828,1.828,0,0,0,3.253,1.456l15.147,10.164.078.057c-.014.023-.018.05-.032.073l-64.769-25.121Zm21.116,11.1,7.94-14.238,40.74-5.5c.011.036.03.068.041.1l-48.187,20.271A1.814,1.814,0,0,0,523.328,253.042Zm52.247-19.929,50.521,1.67,9.71,23.064a1.825,1.825,0,0,0-.654.7l-59.634-25.153a1.119,1.119,0,0,0,.05-.109C575.582,233.225,575.566,233.168,575.575,233.114Zm62.965,26.3,32.692-4.053,45.538,26.728-78.237-22.385A2.046,2.046,0,0,0,638.54,259.417ZM720.2,283.324l62.705,11.64a1.806,1.806,0,0,0,1.331,1.9L774.6,357.031a1.829,1.829,0,0,0-.98.205l-53.906-73.131A1.826,1.826,0,0,0,720.2,283.324Zm55.683,74.352,53.307-56.558a1.833,1.833,0,0,0,2.078.08l37.976,48.49a1.8,1.8,0,0,0-.538.886,2.521,2.521,0,0,0-.009.321l-92.417,7.551A1.767,1.767,0,0,0,775.885,357.676Zm95.555-8.245L905.512,272.3a.9.9,0,0,0,.107.048,1.8,1.8,0,0,0,1.508-.342l42.065,45.189a1.777,1.777,0,0,0-.424.784,1.756,1.756,0,0,0,.041.884L872.093,350.1A1.784,1.784,0,0,0,871.439,349.431ZM950.977,316.6a.758.758,0,0,0-.144,0l2.631-36.771a1.81,1.81,0,0,0,1.775-1.388,1.831,1.831,0,0,0,.018-.658l62.174-15.042a1.68,1.68,0,0,0,.141.376L951.8,317.071A1.784,1.784,0,0,0,950.977,316.6Zm121.749-112.116-60.848,11.494a1.8,1.8,0,0,0-1.321-1.271c-.039-.009-.075,0-.116-.007l3.707-52.557a1.83,1.83,0,0,0,1.292-.583l57.524,41.879a1.888,1.888,0,0,0-.223.481A2.048,2.048,0,0,0,1072.726,204.479Zm-59.037-42.359a.937.937,0,0,0,.112,0l-3.7,52.564a1.8,1.8,0,0,0-1.531.907l-63.594-27.541a1.184,1.184,0,0,0,.055-.121,1.789,1.789,0,0,0-.032-.866l67.492-25.9A1.8,1.8,0,0,0,1013.689,162.12ZM941.681,188.5,879.76,238.86a1.732,1.732,0,0,0-.841-.49,1.969,1.969,0,0,0-.672-.023l-18.165-70a1.8,1.8,0,0,0,1.037-1.037l80.317,19.993A1.846,1.846,0,0,0,941.681,188.5Zm-84.005-21.371-71.017,28.056a1.81,1.81,0,0,0-1.189-.934c-.025,0-.048,0-.075,0l5.366-79.214a1.793,1.793,0,0,0,1.18-.529l65.931,51.227a1.875,1.875,0,0,0-.232.513A1.8,1.8,0,0,0,857.676,167.132ZM790.25,115.024a.416.416,0,0,0,.075,0l-5.366,79.214a2.1,2.1,0,0,0-.433.075l-30.02-68.542a1.816,1.816,0,0,0,.873-1.167,1.734,1.734,0,0,0-.009-.8l33.606-9.936A1.81,1.81,0,0,0,790.25,115.024Zm-38.065,10.319-46.62,47.645a1.786,1.786,0,0,0-.718-.355,1.906,1.906,0,0,0-.579-.018l-17.432-80.29a1.845,1.845,0,0,0,.932-.718l64.113,31.968c-.023.073-.071.13-.089.205A1.815,1.815,0,0,0,752.185,125.342ZM684.7,91.611a1.811,1.811,0,0,0,.69.6l-28.211,72.427c-.014,0-.027-.018-.043-.018a1.816,1.816,0,0,0-1.713.533l-45.424-35.941a1.849,1.849,0,0,0,.257-.57,1.79,1.79,0,0,0-.082-.993ZM606.657,128.1l-76.9,3.755a1.818,1.818,0,0,0-1.2-1.4l11.036-41.8a1.82,1.82,0,0,0,1.763-.677l65.46,39.5a1.962,1.962,0,0,0-.15.33A1.549,1.549,0,0,0,606.657,128.1ZM538.431,87.927a1.794,1.794,0,0,0,.864.636l-11.039,41.8a1.8,1.8,0,0,0-1.969,1.075l-38.354-12.994.011-.03a1.791,1.791,0,0,0-.146-1.162ZM424.463,150.9l-13.745-3.855a1.846,1.846,0,0,0-.025-.743l72.416-26.935Zm-33.9,12.08h-.3l5.908-5.062Zm-32.845,27.4a1.774,1.774,0,0,0-.827-.476,1.83,1.83,0,0,0-1.864.677l-41.473-26.368a1.782,1.782,0,0,0,.187-.412,1.706,1.706,0,0,0,0-.187l75.382-.171Zm-99.662,4.395-25.042-.576a1.929,1.929,0,0,0-.041-.326l76.637-29.352Z" transform="translate(690.633 760.982)"/></g></svg>