<svg xmlns="http://www.w3.org/2000/svg" width="50" height="50" viewBox="0 0 50 50"><defs><style>.a{fill:#b7202e;}</style></defs><g transform="translate(0 -0.008)"><g transform="translate(0 0.008)"><path class="a" d="M48.888,8.439,25.564.106a1.714,1.714,0,0,0-1.139,0L1.106,8.439a1.667,1.667,0,0,0,0,3.137L12.5,15.646v5.2c0,3.24,11.221,3.333,12.5,3.333s12.5-.093,12.5-3.333v-5.2l2.5-.888v1.918a1.667,1.667,0,0,0,1.667,1.667h1.667A1.667,1.667,0,0,0,45,16.675v-2.5a2.463,2.463,0,0,0-.271-1.108l4.166-1.49a1.667,1.667,0,0,0,0-3.137ZM35.832,19.008c-3.175-1.445-9.863-1.5-10.834-1.5s-7.658.055-10.833,1.5v-7.26c.5-.642,4.43-1.74,10.833-1.74s10.334,1.1,10.834,1.74ZM25,22.508c-6.165,0-10.038-1.018-10.763-1.667.725-.649,4.6-1.667,10.763-1.667s10.04,1.018,10.764,1.667C35.037,21.49,31.164,22.508,25,22.508Zm15.391-9.662L37.5,13.877v-2.2c0-3.24-11.221-3.333-12.5-3.333s-12.5.093-12.5,3.333v2.2L1.664,10.008,25.009,1.675,41.664,7.626v4.2A2.505,2.505,0,0,0,40.388,12.846Zm2.943,3.829H41.664v-2.5a.833.833,0,0,1,1.667,0Zm0-4.881V8.222l5,1.786Z" transform="translate(0.002 -0.008)"/><path class="a" d="M47.5,17.724a.858.858,0,0,0-.15.013A139.52,139.52,0,0,1,25,19.391,139.515,139.515,0,0,1,2.65,17.737a.858.858,0,0,0-.15-.013c-.583,0-2.5.661-2.5,9.166s1.916,9.168,2.5,9.168a1.029,1.029,0,0,0,.15-.016,130.474,130.474,0,0,1,17.166-1.565l-1.626,3.9a1.66,1.66,0,0,0,2.2,2.139l.637-.273.277.634a1.657,1.657,0,0,0,1.531,1.011h.022a1.66,1.66,0,0,0,1.527-1.04l1.448-3.465,1.442,3.452a1.668,1.668,0,0,0,1.533,1.053h.025a1.654,1.654,0,0,0,1.527-1l.279-.639.627.268a1.66,1.66,0,0,0,2.208-2.148l-1.594-3.826a127.152,127.152,0,0,1,15.476,1.5.809.809,0,0,0,.146.012c.583,0,2.5-.662,2.5-9.168s-1.916-9.166-2.5-9.166ZM27.666,21.033a17.44,17.44,0,0,1,.6,3.9,5.781,5.781,0,0,0-5.8.538,22.58,22.58,0,0,0-.572-4.443q1.514.033,3.1.032C25.911,21.057,26.794,21.047,27.666,21.033ZM25.834,34.391A4.167,4.167,0,1,1,30,30.224,4.167,4.167,0,0,1,25.834,34.391ZM2.5,19.808a23.365,23.365,0,0,1,.834,7.082A23.38,23.38,0,0,1,2.5,33.974a23.425,23.425,0,0,1-.833-7.084A23.41,23.41,0,0,1,2.5,19.808ZM4.184,34.116A23.3,23.3,0,0,0,5,26.89a23.271,23.271,0,0,0-.818-7.227,146.029,146.029,0,0,0,15.972,1.32,21.46,21.46,0,0,1,.68,5.907c0,.121,0,.236,0,.351a5.774,5.774,0,0,0-.268,5.461l-.038.087A145.214,145.214,0,0,0,4.184,34.117ZM22.84,40.224l-.61-1.4a.833.833,0,0,0-1.092-.433l-1.4.62,1.955-4.685a5.823,5.823,0,0,0,2.943,1.608Zm7.689-1.833a.835.835,0,0,0-1.094.433l-.615,1.385-1.788-4.277a5.838,5.838,0,0,0,2.947-1.61l1.95,4.668Zm16.8-4.042a134.946,134.946,0,0,0-16.167-1.5l-.058-.143a5.8,5.8,0,0,0-1.123-6.572,23.231,23.231,0,0,0-.6-5.134,139.024,139.024,0,0,0,17.945-1.568c.386.656,1,3.255,1,7.459s-.617,6.8-1,7.459Z" transform="translate(0 8.109)"/></g></g></svg>