<svg xmlns="http://www.w3.org/2000/svg" width="47.351" height="47.437" viewBox="0 0 47.351 47.437"><g transform="translate(0.5 0.535)"><path d="M10.636,48.4a.724.724,0,0,1-.319-1.365A17.309,17.309,0,0,1,18.284,45a17.255,17.255,0,0,1,7.159,1.564.73.73,0,0,1-.6,1.333,15.781,15.781,0,0,0-6.562-1.448,15.9,15.9,0,0,0-7.318,1.876A.724.724,0,0,1,10.636,48.4Z" transform="translate(-6.334 -28.702)" stroke="#000" stroke-width="1"/><path d="M42.226,29.883a.725.725,0,0,0-.648,1.3A15.8,15.8,0,0,1,44.9,33.388V61.938a17.722,17.722,0,0,0-10.5-3.52,18.435,18.435,0,0,0-10.5,3.57V46.106a.724.724,0,0,0-1.448,0V61.938a17.722,17.722,0,0,0-10.5-3.52,18.435,18.435,0,0,0-10.5,3.57V33.4a17.5,17.5,0,0,1,10.5-3.954,16.418,16.418,0,0,1,9.306,3,.727.727,0,0,0,.833-1.191A17.889,17.889,0,0,0,11.95,28,18.709,18.709,0,0,0,.232,32.537.724.724,0,0,0,0,33.07V63.487a.721.721,0,0,0,1.159.576.232.232,0,0,0,.054-.043A17.559,17.559,0,0,1,11.95,59.866,16.4,16.4,0,0,1,22.665,64h0a.724.724,0,0,0,.992,0A17.774,17.774,0,0,1,34.4,59.866,16.422,16.422,0,0,1,45.116,64h0a.724.724,0,0,0,1.235-.511V33.07a.724.724,0,0,0-.214-.511,16.013,16.013,0,0,0-3.911-2.676Z" transform="translate(0 -17.858)" stroke="#000" stroke-width="1"/><path d="M53.492,19.771a.724.724,0,0,0,.894-.043c.17-.1.8-.119,1.945.724C53.1,25.051,50.99,28.8,50.8,29.143a.729.729,0,0,0,1.271.713c.047-.083,2.115-3.741,5.3-8.3a6.544,6.544,0,0,1,.572,3.183.724.724,0,0,0,.416.724.7.7,0,0,0,.3.069.724.724,0,0,0,.514-.214l5.689-5.743a.724.724,0,0,0,.072-.916l-.406-.626.92.025a.724.724,0,0,0,.6-.3,35.509,35.509,0,0,1,7.967-7.575c2.35-1.575,5.9-3.958,4.284-7.51A4.866,4.866,0,0,0,74.937.253a9.347,9.347,0,0,0-7.775,1.731c-1.532,1.148-4.117,3.4-4.226,3.494a.724.724,0,0,0-.225.724l.177.637-.127-.069a.724.724,0,0,0-.923.112c-.1.105-2.48,2.647-3.556,4.038a53.263,53.263,0,0,0-5.019,7.938.724.724,0,0,0,.228.913ZM59.424,11.8c.771-1,2.314-2.691,3.053-3.487L63.7,9.1a.724.724,0,0,0,1.086-.8l-.572-2.031c.768-.659,2.636-2.252,3.8-3.129A7.855,7.855,0,0,1,74.56,1.654a3.586,3.586,0,0,1,2.408,1.622c1.021,2.252-1.086,3.922-3.773,5.711a36.69,36.69,0,0,0-8.093,7.6l-1.952-.054a.724.724,0,0,0-.623,1.126l.876,1.3L59.311,23.1a6.029,6.029,0,0,0-1.057-2.821C62.111,14.922,67.321,8.716,72.54,5.645A.724.724,0,0,0,71.815,4.4c-5.432,3.212-10.73,9.451-14.644,14.876a5.291,5.291,0,0,0-1.97-.97,52.666,52.666,0,0,1,4.222-6.5Z" transform="translate(-32.345 0)" stroke="#000" stroke-width="1"/><path d="M25.806,62.535a.724.724,0,0,0-.362-.96A17.255,17.255,0,0,0,18.285,60a17.309,17.309,0,0,0-7.967,2.039.723.723,0,0,0,.663,1.286,15.9,15.9,0,0,1,7.3-1.876A15.781,15.781,0,0,1,24.846,62.9a.724.724,0,0,0,.96-.362Z" transform="translate(-6.335 -38.27)" stroke="#000" stroke-width="1"/><path d="M18.285,75a17.309,17.309,0,0,0-7.967,2.039.723.723,0,0,0,.663,1.286,15.9,15.9,0,0,1,7.3-1.876,15.644,15.644,0,0,1,4.262.594.724.724,0,1,0,.395-1.394A17.088,17.088,0,0,0,18.285,75Z" transform="translate(-6.335 -47.838)" stroke="#000" stroke-width="1"/></g></svg>