<svg xmlns="http://www.w3.org/2000/svg" width="50.156" height="56.381" viewBox="0 0 50.156 56.381"><g transform="translate(135.3 129.5)"><path d="M53.226,38.268l-3.32-.356a.255.255,0,0,1-.237-.237,9.121,9.121,0,0,0-.474-1.126.279.279,0,0,1,.059-.356l2.134-2.609a1.084,1.084,0,0,0-.059-1.423l-2.016-2.016a1.081,1.081,0,0,0-1.423-.059l-2.609,2.134a.392.392,0,0,1-.356.059,6.425,6.425,0,0,0-1.126-.474.463.463,0,0,1-.237-.237l-.356-3.32A1.086,1.086,0,0,0,42.14,27.3h-2.9a1.086,1.086,0,0,0-1.067.949l-.356,3.32a.255.255,0,0,1-.237.237,9.121,9.121,0,0,0-1.126.474.279.279,0,0,1-.356-.059l-2.609-2.134a1.084,1.084,0,0,0-1.423.059l-2.016,2.016a1.081,1.081,0,0,0-.059,1.423l2.134,2.609a.392.392,0,0,1,.059.356,6.425,6.425,0,0,0-.474,1.126.463.463,0,0,1-.237.237l-3.32.356a1.086,1.086,0,0,0-.949,1.067v2.9a1.086,1.086,0,0,0,.949,1.067l3.32.356a.255.255,0,0,1,.237.237,9.122,9.122,0,0,0,.474,1.126.279.279,0,0,1-.059.356l-2.134,2.609a1.084,1.084,0,0,0,.059,1.423l2.016,2.016a1.081,1.081,0,0,0,1.423.059l2.609-2.134a.392.392,0,0,1,.356-.059,6.425,6.425,0,0,0,1.126.474.463.463,0,0,1,.237.237l.356,3.32a1.086,1.086,0,0,0,1.067.949h2.9a1.086,1.086,0,0,0,1.067-.949l.356-3.32a.255.255,0,0,1,.237-.237,9.121,9.121,0,0,0,1.126-.474.279.279,0,0,1,.356.059l2.609,2.134a1.084,1.084,0,0,0,1.423-.059l2.016-2.016a1.081,1.081,0,0,0,.059-1.423l-2.134-2.609a.392.392,0,0,1-.059-.356,6.425,6.425,0,0,0,.474-1.126.463.463,0,0,1,.237-.237l3.32-.356a1.086,1.086,0,0,0,.949-1.067v-2.9A1.14,1.14,0,0,0,53.226,38.268Zm-12.509,8.6a6.106,6.106,0,1,1,6.106-6.106A6.1,6.1,0,0,1,40.717,46.864Z" transform="translate(-150.939 -142.097)"/><circle cx="3.735" cy="3.735" r="3.735" transform="translate(-113.957 -105.075)"/><path d="M54.121,37.36v-13.4A5.086,5.086,0,0,0,57.856,19.1a5.035,5.035,0,0,0-5.039-5.039,4.876,4.876,0,0,0-3.557,1.482l-11.62-6.7a4.623,4.623,0,0,0,.178-1.3,5.039,5.039,0,1,0-10.079,0,4.623,4.623,0,0,0,.178,1.3l-11.62,6.7a5.12,5.12,0,0,0-3.557-1.482A5.035,5.035,0,0,0,7.7,19.1a5.086,5.086,0,0,0,3.735,4.861V37.419A5.086,5.086,0,0,0,7.7,42.281a5.035,5.035,0,0,0,5.039,5.039A4.876,4.876,0,0,0,16.3,45.838l11.62,6.7a4.623,4.623,0,0,0-.178,1.3,5.039,5.039,0,0,0,10.079,0,4.623,4.623,0,0,0-.178-1.3l11.62-6.7a5.12,5.12,0,0,0,3.557,1.482,5.035,5.035,0,0,0,5.039-5.039A5.1,5.1,0,0,0,54.121,37.36ZM32.778,48.743a4.876,4.876,0,0,0-3.557,1.482l-11.62-6.7a4.623,4.623,0,0,0,.178-1.3,5.086,5.086,0,0,0-3.735-4.861v-13.4A5.086,5.086,0,0,0,17.779,19.1a4.623,4.623,0,0,0-.178-1.3l11.62-6.7a5.12,5.12,0,0,0,3.557,1.482A4.876,4.876,0,0,0,36.335,11.1l11.62,6.7a4.624,4.624,0,0,0-.178,1.3,5.086,5.086,0,0,0,3.735,4.861V37.419a5.086,5.086,0,0,0-3.735,4.861,4.623,4.623,0,0,0,.178,1.3l-11.62,6.64A4.876,4.876,0,0,0,32.778,48.743Z" transform="translate(-143 -132)"/></g></svg>