<svg xmlns="http://www.w3.org/2000/svg" xmlns:xlink="http://www.w3.org/1999/xlink" width="83" height="460" viewBox="0 0 83 460"><defs><style>.a{fill:none;}.b{opacity:0.4;clip-path:url(#a);}.c{fill:#58595b;}</style><clipPath id="a"><rect class="a" width="83" height="460"/></clipPath></defs><g class="b"><g transform="translate(-524 -268)"><circle class="c" cx="1.5" cy="1.5" r="1.5" transform="translate(524 268)"/></g><g transform="translate(-517 -268)"><circle class="c" cx="1.5" cy="1.5" r="1.5" transform="translate(524 268)"/></g><g transform="translate(-510 -268)"><circle class="c" cx="1.5" cy="1.5" r="1.5" transform="translate(524 268)"/></g><g transform="translate(-503 -268)"><circle class="c" cx="1.5" cy="1.5" r="1.5" transform="translate(524 268)"/></g><g transform="translate(-496 -268)"><circle class="c" cx="1.5" cy="1.5" r="1.5" transform="translate(524 268)"/></g><g transform="translate(-489 -268)"><circle class="c" cx="1.5" cy="1.5" r="1.5" transform="translate(524 268)"/></g><g transform="translate(-482 -268)"><circle class="c" cx="1.5" cy="1.5" r="1.5" transform="translate(524 268)"/></g><g transform="translate(-475 -268)"><circle class="c" cx="1.5" cy="1.5" r="1.5" transform="translate(524 268)"/></g><g transform="translate(-468 -268)"><circle class="c" cx="1.5" cy="1.5" r="1.5" transform="translate(524 268)"/></g><g transform="translate(-461 -268)"><circle class="c" cx="1.5" cy="1.5" r="1.5" transform="translate(524 268)"/></g><g transform="translate(-454 -268)"><circle class="c" cx="1.5" cy="1.5" r="1.5" transform="translate(524 268)"/></g><g transform="translate(-447 -268)"><circle class="c" cx="1.5" cy="1.5" r="1.5" transform="translate(524 268)"/></g><g transform="translate(-524 -261)"><circle class="c" cx="1.5" cy="1.5" r="1.5" transform="translate(524 268)"/></g><g transform="translate(-517 -261)"><circle class="c" cx="1.5" cy="1.5" r="1.5" transform="translate(524 268)"/></g><g transform="translate(-510 -261)"><circle class="c" cx="1.5" cy="1.5" r="1.5" transform="translate(524 268)"/></g><g transform="translate(-503 -261)"><circle class="c" cx="1.5" cy="1.5" r="1.5" transform="translate(524 268)"/></g><g transform="translate(-496 -261)"><circle class="c" cx="1.5" cy="1.5" r="1.5" transform="translate(524 268)"/></g><g transform="translate(-489 -261)"><circle class="c" cx="1.5" cy="1.5" r="1.5" transform="translate(524 268)"/></g><g transform="translate(-482 -261)"><circle class="c" cx="1.5" cy="1.5" r="1.5" transform="translate(524 268)"/></g><g transform="translate(-475 -261)"><circle class="c" cx="1.5" cy="1.5" r="1.5" transform="translate(524 268)"/></g><g transform="translate(-468 -261)"><circle class="c" cx="1.5" cy="1.5" r="1.5" transform="translate(524 268)"/></g><g transform="translate(-461 -261)"><circle class="c" cx="1.5" cy="1.5" r="1.5" transform="translate(524 268)"/></g><g transform="translate(-454 -261)"><circle class="c" cx="1.5" cy="1.5" r="1.5" transform="translate(524 268)"/></g><g transform="translate(-447 -261)"><circle class="c" cx="1.5" cy="1.5" r="1.5" transform="translate(524 268)"/></g><g transform="translate(-524 -254)"><circle class="c" cx="1.5" cy="1.5" r="1.5" transform="translate(524 268)"/></g><g transform="translate(-517 -254)"><circle class="c" cx="1.5" cy="1.5" r="1.5" transform="translate(524 268)"/></g><g transform="translate(-510 -254)"><circle class="c" cx="1.5" cy="1.5" r="1.5" transform="translate(524 268)"/></g><g transform="translate(-503 -254)"><circle class="c" cx="1.5" cy="1.5" r="1.5" transform="translate(524 268)"/></g><g transform="translate(-496 -254)"><circle class="c" cx="1.5" cy="1.5" r="1.5" transform="translate(524 268)"/></g><g transform="translate(-489 -254)"><circle class="c" cx="1.5" cy="1.5" r="1.5" transform="translate(524 268)"/></g><g transform="translate(-482 -254)"><circle class="c" cx="1.5" cy="1.5" r="1.5" transform="translate(524 268)"/></g><g transform="translate(-475 -254)"><circle class="c" cx="1.5" cy="1.5" r="1.5" transform="translate(524 268)"/></g><g transform="translate(-468 -254)"><circle class="c" cx="1.5" cy="1.5" r="1.5" transform="translate(524 268)"/></g><g transform="translate(-461 -254)"><circle class="c" cx="1.5" cy="1.5" r="1.5" transform="translate(524 268)"/></g><g transform="translate(-454 -254)"><circle class="c" cx="1.5" cy="1.5" r="1.5" transform="translate(524 268)"/></g><g transform="translate(-447 -254)"><circle class="c" cx="1.5" cy="1.5" r="1.5" transform="translate(524 268)"/></g><g transform="translate(-524 -247)"><circle class="c" cx="1.5" cy="1.5" r="1.5" transform="translate(524 268)"/></g><g transform="translate(-517 -247)"><circle class="c" cx="1.5" cy="1.5" r="1.5" transform="translate(524 268)"/></g><g transform="translate(-510 -247)"><circle class="c" cx="1.5" cy="1.5" r="1.5" transform="translate(524 268)"/></g><g transform="translate(-503 -247)"><circle class="c" cx="1.5" cy="1.5" r="1.5" transform="translate(524 268)"/></g><g transform="translate(-496 -247)"><circle class="c" cx="1.5" cy="1.5" r="1.5" transform="translate(524 268)"/></g><g transform="translate(-489 -247)"><circle class="c" cx="1.5" cy="1.5" r="1.5" transform="translate(524 268)"/></g><g transform="translate(-482 -247)"><circle class="c" cx="1.5" cy="1.5" r="1.5" transform="translate(524 268)"/></g><g transform="translate(-475 -247)"><circle class="c" cx="1.5" cy="1.5" r="1.5" transform="translate(524 268)"/></g><g transform="translate(-468 -247)"><circle class="c" cx="1.5" cy="1.5" r="1.5" transform="translate(524 268)"/></g><g transform="translate(-461 -247)"><circle class="c" cx="1.5" cy="1.5" r="1.5" transform="translate(524 268)"/></g><g transform="translate(-454 -247)"><circle class="c" cx="1.5" cy="1.5" r="1.5" transform="translate(524 268)"/></g><g transform="translate(-447 -247)"><circle class="c" cx="1.5" cy="1.5" r="1.5" transform="translate(524 268)"/></g><g transform="translate(-524 -240)"><circle class="c" cx="1.5" cy="1.5" r="1.5" transform="translate(524 268)"/></g><g transform="translate(-517 -240)"><circle class="c" cx="1.5" cy="1.5" r="1.5" transform="translate(524 268)"/></g><g transform="translate(-510 -240)"><circle class="c" cx="1.5" cy="1.5" r="1.5" transform="translate(524 268)"/></g><g transform="translate(-503 -240)"><circle class="c" cx="1.5" cy="1.5" r="1.5" transform="translate(524 268)"/></g><g transform="translate(-496 -240)"><circle class="c" cx="1.5" cy="1.5" r="1.5" transform="translate(524 268)"/></g><g transform="translate(-489 -240)"><circle class="c" cx="1.5" cy="1.5" r="1.5" transform="translate(524 268)"/></g><g transform="translate(-482 -240)"><circle class="c" cx="1.5" cy="1.5" r="1.5" transform="translate(524 268)"/></g><g transform="translate(-475 -240)"><circle class="c" cx="1.5" cy="1.5" r="1.5" transform="translate(524 268)"/></g><g transform="translate(-468 -240)"><circle class="c" cx="1.5" cy="1.5" r="1.5" transform="translate(524 268)"/></g><g transform="translate(-461 -240)"><circle class="c" cx="1.5" cy="1.5" r="1.5" transform="translate(524 268)"/></g><g transform="translate(-454 -240)"><circle class="c" cx="1.5" cy="1.5" r="1.5" transform="translate(524 268)"/></g><g transform="translate(-447 -240)"><circle class="c" cx="1.5" cy="1.5" r="1.5" transform="translate(524 268)"/></g><g transform="translate(-524 -233)"><circle class="c" cx="1.5" cy="1.5" r="1.5" transform="translate(524 268)"/></g><g transform="translate(-517 -233)"><circle class="c" cx="1.5" cy="1.5" r="1.5" transform="translate(524 268)"/></g><g transform="translate(-510 -233)"><circle class="c" cx="1.5" cy="1.5" r="1.5" transform="translate(524 268)"/></g><g transform="translate(-503 -233)"><circle class="c" cx="1.5" cy="1.5" r="1.5" transform="translate(524 268)"/></g><g transform="translate(-496 -233)"><circle class="c" cx="1.5" cy="1.5" r="1.5" transform="translate(524 268)"/></g><g transform="translate(-489 -233)"><circle class="c" cx="1.5" cy="1.5" r="1.5" transform="translate(524 268)"/></g><g transform="translate(-482 -233)"><circle class="c" cx="1.5" cy="1.5" r="1.5" transform="translate(524 268)"/></g><g transform="translate(-475 -233)"><circle class="c" cx="1.5" cy="1.5" r="1.5" transform="translate(524 268)"/></g><g transform="translate(-468 -233)"><circle class="c" cx="1.5" cy="1.5" r="1.5" transform="translate(524 268)"/></g><g transform="translate(-461 -233)"><circle class="c" cx="1.5" cy="1.5" r="1.5" transform="translate(524 268)"/></g><g transform="translate(-454 -233)"><circle class="c" cx="1.5" cy="1.5" r="1.5" transform="translate(524 268)"/></g><g transform="translate(-447 -233)"><circle class="c" cx="1.5" cy="1.5" r="1.5" transform="translate(524 268)"/></g><g transform="translate(-524 -226)"><circle class="c" cx="1.5" cy="1.5" r="1.5" transform="translate(524 268)"/></g><g transform="translate(-517 -226)"><circle class="c" cx="1.5" cy="1.5" r="1.5" transform="translate(524 268)"/></g><g transform="translate(-510 -226)"><circle class="c" cx="1.5" cy="1.5" r="1.5" transform="translate(524 268)"/></g><g transform="translate(-503 -226)"><circle class="c" cx="1.5" cy="1.5" r="1.5" transform="translate(524 268)"/></g><g transform="translate(-496 -226)"><circle class="c" cx="1.5" cy="1.5" r="1.5" transform="translate(524 268)"/></g><g transform="translate(-489 -226)"><circle class="c" cx="1.5" cy="1.5" r="1.5" transform="translate(524 268)"/></g><g transform="translate(-482 -226)"><circle class="c" cx="1.5" cy="1.5" r="1.5" transform="translate(524 268)"/></g><g transform="translate(-475 -226)"><circle class="c" cx="1.5" cy="1.5" r="1.5" transform="translate(524 268)"/></g><g transform="translate(-468 -226)"><circle class="c" cx="1.5" cy="1.5" r="1.5" transform="translate(524 268)"/></g><g transform="translate(-461 -226)"><circle class="c" cx="1.5" cy="1.5" r="1.5" transform="translate(524 268)"/></g><g transform="translate(-454 -226)"><circle class="c" cx="1.5" cy="1.5" r="1.5" transform="translate(524 268)"/></g><g transform="translate(-447 -226)"><circle class="c" cx="1.5" cy="1.5" r="1.5" transform="translate(524 268)"/></g><g transform="translate(-524 -219)"><circle class="c" cx="1.5" cy="1.5" r="1.5" transform="translate(524 268)"/></g><g transform="translate(-517 -219)"><circle class="c" cx="1.5" cy="1.5" r="1.5" transform="translate(524 268)"/></g><g transform="translate(-510 -219)"><circle class="c" cx="1.5" cy="1.5" r="1.5" transform="translate(524 268)"/></g><g transform="translate(-503 -219)"><circle class="c" cx="1.5" cy="1.5" r="1.5" transform="translate(524 268)"/></g><g transform="translate(-496 -219)"><circle class="c" cx="1.5" cy="1.5" r="1.5" transform="translate(524 268)"/></g><g transform="translate(-489 -219)"><circle class="c" cx="1.5" cy="1.5" r="1.5" transform="translate(524 268)"/></g><g transform="translate(-482 -219)"><circle class="c" cx="1.5" cy="1.5" r="1.5" transform="translate(524 268)"/></g><g transform="translate(-475 -219)"><circle class="c" cx="1.5" cy="1.5" r="1.5" transform="translate(524 268)"/></g><g transform="translate(-468 -219)"><circle class="c" cx="1.5" cy="1.5" r="1.5" transform="translate(524 268)"/></g><g transform="translate(-461 -219)"><circle class="c" cx="1.5" cy="1.5" r="1.5" transform="translate(524 268)"/></g><g transform="translate(-454 -219)"><circle class="c" cx="1.5" cy="1.5" r="1.5" transform="translate(524 268)"/></g><g transform="translate(-447 -219)"><circle class="c" cx="1.5" cy="1.5" r="1.5" transform="translate(524 268)"/></g><g transform="translate(-524 -212)"><circle class="c" cx="1.5" cy="1.5" r="1.5" transform="translate(524 268)"/></g><g transform="translate(-517 -212)"><circle class="c" cx="1.5" cy="1.5" r="1.5" transform="translate(524 268)"/></g><g transform="translate(-510 -212)"><circle class="c" cx="1.5" cy="1.5" r="1.5" transform="translate(524 268)"/></g><g transform="translate(-503 -212)"><circle class="c" cx="1.5" cy="1.5" r="1.5" transform="translate(524 268)"/></g><g transform="translate(-496 -212)"><circle class="c" cx="1.5" cy="1.5" r="1.5" transform="translate(524 268)"/></g><g transform="translate(-489 -212)"><circle class="c" cx="1.5" cy="1.5" r="1.5" transform="translate(524 268)"/></g><g transform="translate(-482 -212)"><circle class="c" cx="1.5" cy="1.5" r="1.5" transform="translate(524 268)"/></g><g transform="translate(-475 -212)"><circle class="c" cx="1.5" cy="1.5" r="1.5" transform="translate(524 268)"/></g><g transform="translate(-468 -212)"><circle class="c" cx="1.5" cy="1.5" r="1.5" transform="translate(524 268)"/></g><g transform="translate(-461 -212)"><circle class="c" cx="1.5" cy="1.5" r="1.5" transform="translate(524 268)"/></g><g transform="translate(-454 -212)"><circle class="c" cx="1.5" cy="1.5" r="1.5" transform="translate(524 268)"/></g><g transform="translate(-447 -212)"><circle class="c" cx="1.5" cy="1.5" r="1.5" transform="translate(524 268)"/></g><g transform="translate(-524 -205)"><circle class="c" cx="1.5" cy="1.5" r="1.5" transform="translate(524 268)"/></g><g transform="translate(-517 -205)"><circle class="c" cx="1.5" cy="1.5" r="1.5" transform="translate(524 268)"/></g><g transform="translate(-510 -205)"><circle class="c" cx="1.5" cy="1.5" r="1.5" transform="translate(524 268)"/></g><g transform="translate(-503 -205)"><circle class="c" cx="1.5" cy="1.5" r="1.5" transform="translate(524 268)"/></g><g transform="translate(-496 -205)"><circle class="c" cx="1.5" cy="1.5" r="1.5" transform="translate(524 268)"/></g><g transform="translate(-489 -205)"><circle class="c" cx="1.5" cy="1.5" r="1.5" transform="translate(524 268)"/></g><g transform="translate(-482 -205)"><circle class="c" cx="1.5" cy="1.5" r="1.5" transform="translate(524 268)"/></g><g transform="translate(-475 -205)"><circle class="c" cx="1.5" cy="1.5" r="1.5" transform="translate(524 268)"/></g><g transform="translate(-468 -205)"><circle class="c" cx="1.5" cy="1.5" r="1.5" transform="translate(524 268)"/></g><g transform="translate(-461 -205)"><circle class="c" cx="1.5" cy="1.5" r="1.5" transform="translate(524 268)"/></g><g transform="translate(-454 -205)"><circle class="c" cx="1.5" cy="1.5" r="1.5" transform="translate(524 268)"/></g><g transform="translate(-447 -205)"><circle class="c" cx="1.5" cy="1.5" r="1.5" transform="translate(524 268)"/></g><g transform="translate(-524 -198)"><circle class="c" cx="1.5" cy="1.5" r="1.5" transform="translate(524 268)"/></g><g transform="translate(-517 -198)"><circle class="c" cx="1.5" cy="1.5" r="1.5" transform="translate(524 268)"/></g><g transform="translate(-510 -198)"><circle class="c" cx="1.5" cy="1.5" r="1.5" transform="translate(524 268)"/></g><g transform="translate(-503 -198)"><circle class="c" cx="1.5" cy="1.5" r="1.5" transform="translate(524 268)"/></g><g transform="translate(-496 -198)"><circle class="c" cx="1.5" cy="1.5" r="1.5" transform="translate(524 268)"/></g><g transform="translate(-489 -198)"><circle class="c" cx="1.5" cy="1.5" r="1.5" transform="translate(524 268)"/></g><g transform="translate(-482 -198)"><circle class="c" cx="1.5" cy="1.5" r="1.5" transform="translate(524 268)"/></g><g transform="translate(-475 -198)"><circle class="c" cx="1.5" cy="1.5" r="1.5" transform="translate(524 268)"/></g><g transform="translate(-468 -198)"><circle class="c" cx="1.5" cy="1.5" r="1.5" transform="translate(524 268)"/></g><g transform="translate(-461 -198)"><circle class="c" cx="1.5" cy="1.5" r="1.5" transform="translate(524 268)"/></g><g transform="translate(-454 -198)"><circle class="c" cx="1.5" cy="1.5" r="1.5" transform="translate(524 268)"/></g><g transform="translate(-447 -198)"><circle class="c" cx="1.5" cy="1.5" r="1.5" transform="translate(524 268)"/></g><g transform="translate(-524 -191)"><circle class="c" cx="1.5" cy="1.5" r="1.5" transform="translate(524 268)"/></g><g transform="translate(-517 -191)"><circle class="c" cx="1.5" cy="1.5" r="1.5" transform="translate(524 268)"/></g><g transform="translate(-510 -191)"><circle class="c" cx="1.5" cy="1.5" r="1.5" transform="translate(524 268)"/></g><g transform="translate(-503 -191)"><circle class="c" cx="1.5" cy="1.5" r="1.5" transform="translate(524 268)"/></g><g transform="translate(-496 -191)"><circle class="c" cx="1.5" cy="1.5" r="1.5" transform="translate(524 268)"/></g><g transform="translate(-489 -191)"><circle class="c" cx="1.5" cy="1.5" r="1.5" transform="translate(524 268)"/></g><g transform="translate(-482 -191)"><circle class="c" cx="1.5" cy="1.5" r="1.5" transform="translate(524 268)"/></g><g transform="translate(-475 -191)"><circle class="c" cx="1.5" cy="1.5" r="1.5" transform="translate(524 268)"/></g><g transform="translate(-468 -191)"><circle class="c" cx="1.5" cy="1.5" r="1.5" transform="translate(524 268)"/></g><g transform="translate(-461 -191)"><circle class="c" cx="1.5" cy="1.5" r="1.5" transform="translate(524 268)"/></g><g transform="translate(-454 -191)"><circle class="c" cx="1.5" cy="1.5" r="1.5" transform="translate(524 268)"/></g><g transform="translate(-447 -191)"><circle class="c" cx="1.5" cy="1.5" r="1.5" transform="translate(524 268)"/></g><g transform="translate(-524 -184)"><circle class="c" cx="1.5" cy="1.5" r="1.5" transform="translate(524 268)"/></g><g transform="translate(-517 -184)"><circle class="c" cx="1.5" cy="1.5" r="1.5" transform="translate(524 268)"/></g><g transform="translate(-510 -184)"><circle class="c" cx="1.5" cy="1.5" r="1.5" transform="translate(524 268)"/></g><g transform="translate(-503 -184)"><circle class="c" cx="1.5" cy="1.5" r="1.5" transform="translate(524 268)"/></g><g transform="translate(-496 -184)"><circle class="c" cx="1.5" cy="1.5" r="1.5" transform="translate(524 268)"/></g><g transform="translate(-489 -184)"><circle class="c" cx="1.5" cy="1.5" r="1.5" transform="translate(524 268)"/></g><g transform="translate(-482 -184)"><circle class="c" cx="1.5" cy="1.5" r="1.5" transform="translate(524 268)"/></g><g transform="translate(-475 -184)"><circle class="c" cx="1.5" cy="1.5" r="1.5" transform="translate(524 268)"/></g><g transform="translate(-468 -184)"><circle class="c" cx="1.5" cy="1.5" r="1.5" transform="translate(524 268)"/></g><g transform="translate(-461 -184)"><circle class="c" cx="1.5" cy="1.5" r="1.5" transform="translate(524 268)"/></g><g transform="translate(-454 -184)"><circle class="c" cx="1.5" cy="1.5" r="1.5" transform="translate(524 268)"/></g><g transform="translate(-447 -184)"><circle class="c" cx="1.5" cy="1.5" r="1.5" transform="translate(524 268)"/></g><g transform="translate(-524 -177)"><circle class="c" cx="1.5" cy="1.5" r="1.5" transform="translate(524 268)"/></g><g transform="translate(-517 -177)"><circle class="c" cx="1.5" cy="1.5" r="1.5" transform="translate(524 268)"/></g><g transform="translate(-510 -177)"><circle class="c" cx="1.5" cy="1.5" r="1.5" transform="translate(524 268)"/></g><g transform="translate(-503 -177)"><circle class="c" cx="1.5" cy="1.5" r="1.5" transform="translate(524 268)"/></g><g transform="translate(-496 -177)"><circle class="c" cx="1.5" cy="1.5" r="1.5" transform="translate(524 268)"/></g><g transform="translate(-489 -177)"><circle class="c" cx="1.5" cy="1.5" r="1.5" transform="translate(524 268)"/></g><g transform="translate(-482 -177)"><circle class="c" cx="1.5" cy="1.5" r="1.5" transform="translate(524 268)"/></g><g transform="translate(-475 -177)"><circle class="c" cx="1.5" cy="1.5" r="1.5" transform="translate(524 268)"/></g><g transform="translate(-468 -177)"><circle class="c" cx="1.5" cy="1.5" r="1.5" transform="translate(524 268)"/></g><g transform="translate(-461 -177)"><circle class="c" cx="1.5" cy="1.5" r="1.5" transform="translate(524 268)"/></g><g transform="translate(-454 -177)"><circle class="c" cx="1.5" cy="1.5" r="1.5" transform="translate(524 268)"/></g><g transform="translate(-447 -177)"><circle class="c" cx="1.5" cy="1.5" r="1.5" transform="translate(524 268)"/></g><g transform="translate(-524 -170)"><circle class="c" cx="1.5" cy="1.5" r="1.5" transform="translate(524 268)"/></g><g transform="translate(-517 -170)"><circle class="c" cx="1.5" cy="1.5" r="1.5" transform="translate(524 268)"/></g><g transform="translate(-510 -170)"><circle class="c" cx="1.5" cy="1.5" r="1.5" transform="translate(524 268)"/></g><g transform="translate(-503 -170)"><circle class="c" cx="1.5" cy="1.5" r="1.5" transform="translate(524 268)"/></g><g transform="translate(-496 -170)"><circle class="c" cx="1.5" cy="1.5" r="1.5" transform="translate(524 268)"/></g><g transform="translate(-489 -170)"><circle class="c" cx="1.5" cy="1.5" r="1.5" transform="translate(524 268)"/></g><g transform="translate(-482 -170)"><circle class="c" cx="1.5" cy="1.5" r="1.5" transform="translate(524 268)"/></g><g transform="translate(-475 -170)"><circle class="c" cx="1.5" cy="1.5" r="1.5" transform="translate(524 268)"/></g><g transform="translate(-468 -170)"><circle class="c" cx="1.5" cy="1.5" r="1.5" transform="translate(524 268)"/></g><g transform="translate(-461 -170)"><circle class="c" cx="1.5" cy="1.5" r="1.5" transform="translate(524 268)"/></g><g transform="translate(-454 -170)"><circle class="c" cx="1.5" cy="1.5" r="1.5" transform="translate(524 268)"/></g><g transform="translate(-447 -170)"><circle class="c" cx="1.5" cy="1.5" r="1.5" transform="translate(524 268)"/></g><g transform="translate(-524 -163)"><circle class="c" cx="1.5" cy="1.5" r="1.5" transform="translate(524 268)"/></g><g transform="translate(-517 -163)"><circle class="c" cx="1.5" cy="1.5" r="1.5" transform="translate(524 268)"/></g><g transform="translate(-510 -163)"><circle class="c" cx="1.5" cy="1.5" r="1.5" transform="translate(524 268)"/></g><g transform="translate(-503 -163)"><circle class="c" cx="1.5" cy="1.5" r="1.5" transform="translate(524 268)"/></g><g transform="translate(-496 -163)"><circle class="c" cx="1.5" cy="1.5" r="1.5" transform="translate(524 268)"/></g><g transform="translate(-489 -163)"><circle class="c" cx="1.5" cy="1.5" r="1.5" transform="translate(524 268)"/></g><g transform="translate(-482 -163)"><circle class="c" cx="1.5" cy="1.5" r="1.5" transform="translate(524 268)"/></g><g transform="translate(-475 -163)"><circle class="c" cx="1.5" cy="1.5" r="1.5" transform="translate(524 268)"/></g><g transform="translate(-468 -163)"><circle class="c" cx="1.5" cy="1.5" r="1.5" transform="translate(524 268)"/></g><g transform="translate(-461 -163)"><circle class="c" cx="1.5" cy="1.5" r="1.5" transform="translate(524 268)"/></g><g transform="translate(-454 -163)"><circle class="c" cx="1.5" cy="1.5" r="1.5" transform="translate(524 268)"/></g><g transform="translate(-447 -163)"><circle class="c" cx="1.5" cy="1.5" r="1.5" transform="translate(524 268)"/></g><g transform="translate(-524 -156)"><circle class="c" cx="1.5" cy="1.5" r="1.5" transform="translate(524 268)"/></g><g transform="translate(-517 -156)"><circle class="c" cx="1.5" cy="1.5" r="1.5" transform="translate(524 268)"/></g><g transform="translate(-510 -156)"><circle class="c" cx="1.5" cy="1.5" r="1.5" transform="translate(524 268)"/></g><g transform="translate(-503 -156)"><circle class="c" cx="1.5" cy="1.5" r="1.5" transform="translate(524 268)"/></g><g transform="translate(-496 -156)"><circle class="c" cx="1.5" cy="1.5" r="1.5" transform="translate(524 268)"/></g><g transform="translate(-489 -156)"><circle class="c" cx="1.5" cy="1.5" r="1.5" transform="translate(524 268)"/></g><g transform="translate(-482 -156)"><circle class="c" cx="1.5" cy="1.5" r="1.5" transform="translate(524 268)"/></g><g transform="translate(-475 -156)"><circle class="c" cx="1.5" cy="1.5" r="1.5" transform="translate(524 268)"/></g><g transform="translate(-468 -156)"><circle class="c" cx="1.5" cy="1.5" r="1.5" transform="translate(524 268)"/></g><g transform="translate(-461 -156)"><circle class="c" cx="1.5" cy="1.5" r="1.5" transform="translate(524 268)"/></g><g transform="translate(-454 -156)"><circle class="c" cx="1.5" cy="1.5" r="1.5" transform="translate(524 268)"/></g><g transform="translate(-447 -156)"><circle class="c" cx="1.5" cy="1.5" r="1.5" transform="translate(524 268)"/></g><g transform="translate(-524 -149)"><circle class="c" cx="1.5" cy="1.5" r="1.5" transform="translate(524 268)"/></g><g transform="translate(-517 -149)"><circle class="c" cx="1.5" cy="1.5" r="1.5" transform="translate(524 268)"/></g><g transform="translate(-510 -149)"><circle class="c" cx="1.5" cy="1.5" r="1.5" transform="translate(524 268)"/></g><g transform="translate(-503 -149)"><circle class="c" cx="1.5" cy="1.5" r="1.5" transform="translate(524 268)"/></g><g transform="translate(-496 -149)"><circle class="c" cx="1.5" cy="1.5" r="1.5" transform="translate(524 268)"/></g><g transform="translate(-489 -149)"><circle class="c" cx="1.5" cy="1.5" r="1.5" transform="translate(524 268)"/></g><g transform="translate(-482 -149)"><circle class="c" cx="1.5" cy="1.5" r="1.5" transform="translate(524 268)"/></g><g transform="translate(-475 -149)"><circle class="c" cx="1.5" cy="1.5" r="1.5" transform="translate(524 268)"/></g><g transform="translate(-468 -149)"><circle class="c" cx="1.5" cy="1.5" r="1.5" transform="translate(524 268)"/></g><g transform="translate(-461 -149)"><circle class="c" cx="1.5" cy="1.5" r="1.5" transform="translate(524 268)"/></g><g transform="translate(-454 -149)"><circle class="c" cx="1.5" cy="1.5" r="1.5" transform="translate(524 268)"/></g><g transform="translate(-447 -149)"><circle class="c" cx="1.5" cy="1.5" r="1.5" transform="translate(524 268)"/></g><g transform="translate(-524 -142)"><circle class="c" cx="1.5" cy="1.5" r="1.5" transform="translate(524 268)"/></g><g transform="translate(-517 -142)"><circle class="c" cx="1.5" cy="1.5" r="1.5" transform="translate(524 268)"/></g><g transform="translate(-510 -142)"><circle class="c" cx="1.5" cy="1.5" r="1.5" transform="translate(524 268)"/></g><g transform="translate(-503 -142)"><circle class="c" cx="1.5" cy="1.5" r="1.5" transform="translate(524 268)"/></g><g transform="translate(-496 -142)"><circle class="c" cx="1.5" cy="1.5" r="1.5" transform="translate(524 268)"/></g><g transform="translate(-489 -142)"><circle class="c" cx="1.5" cy="1.5" r="1.5" transform="translate(524 268)"/></g><g transform="translate(-482 -142)"><circle class="c" cx="1.5" cy="1.5" r="1.5" transform="translate(524 268)"/></g><g transform="translate(-475 -142)"><circle class="c" cx="1.5" cy="1.5" r="1.5" transform="translate(524 268)"/></g><g transform="translate(-468 -142)"><circle class="c" cx="1.5" cy="1.5" r="1.5" transform="translate(524 268)"/></g><g transform="translate(-461 -142)"><circle class="c" cx="1.5" cy="1.5" r="1.5" transform="translate(524 268)"/></g><g transform="translate(-454 -142)"><circle class="c" cx="1.5" cy="1.5" r="1.5" transform="translate(524 268)"/></g><g transform="translate(-447 -142)"><circle class="c" cx="1.5" cy="1.5" r="1.5" transform="translate(524 268)"/></g><g transform="translate(-524 -135)"><circle class="c" cx="1.5" cy="1.5" r="1.5" transform="translate(524 268)"/></g><g transform="translate(-517 -135)"><circle class="c" cx="1.5" cy="1.5" r="1.5" transform="translate(524 268)"/></g><g transform="translate(-510 -135)"><circle class="c" cx="1.5" cy="1.5" r="1.5" transform="translate(524 268)"/></g><g transform="translate(-503 -135)"><circle class="c" cx="1.5" cy="1.5" r="1.5" transform="translate(524 268)"/></g><g transform="translate(-496 -135)"><circle class="c" cx="1.5" cy="1.5" r="1.5" transform="translate(524 268)"/></g><g transform="translate(-489 -135)"><circle class="c" cx="1.5" cy="1.5" r="1.5" transform="translate(524 268)"/></g><g transform="translate(-482 -135)"><circle class="c" cx="1.5" cy="1.5" r="1.5" transform="translate(524 268)"/></g><g transform="translate(-475 -135)"><circle class="c" cx="1.5" cy="1.5" r="1.5" transform="translate(524 268)"/></g><g transform="translate(-468 -135)"><circle class="c" cx="1.5" cy="1.5" r="1.5" transform="translate(524 268)"/></g><g transform="translate(-461 -135)"><circle class="c" cx="1.5" cy="1.5" r="1.5" transform="translate(524 268)"/></g><g transform="translate(-454 -135)"><circle class="c" cx="1.5" cy="1.5" r="1.5" transform="translate(524 268)"/></g><g transform="translate(-447 -135)"><circle class="c" cx="1.5" cy="1.5" r="1.5" transform="translate(524 268)"/></g><g transform="translate(-524 -128)"><circle class="c" cx="1.5" cy="1.5" r="1.5" transform="translate(524 268)"/></g><g transform="translate(-517 -128)"><circle class="c" cx="1.5" cy="1.5" r="1.5" transform="translate(524 268)"/></g><g transform="translate(-510 -128)"><circle class="c" cx="1.5" cy="1.5" r="1.5" transform="translate(524 268)"/></g><g transform="translate(-503 -128)"><circle class="c" cx="1.5" cy="1.5" r="1.5" transform="translate(524 268)"/></g><g transform="translate(-496 -128)"><circle class="c" cx="1.5" cy="1.5" r="1.5" transform="translate(524 268)"/></g><g transform="translate(-489 -128)"><circle class="c" cx="1.5" cy="1.5" r="1.5" transform="translate(524 268)"/></g><g transform="translate(-482 -128)"><circle class="c" cx="1.5" cy="1.5" r="1.5" transform="translate(524 268)"/></g><g transform="translate(-475 -128)"><circle class="c" cx="1.5" cy="1.5" r="1.5" transform="translate(524 268)"/></g><g transform="translate(-468 -128)"><circle class="c" cx="1.5" cy="1.5" r="1.5" transform="translate(524 268)"/></g><g transform="translate(-461 -128)"><circle class="c" cx="1.5" cy="1.5" r="1.5" transform="translate(524 268)"/></g><g transform="translate(-454 -128)"><circle class="c" cx="1.5" cy="1.5" r="1.5" transform="translate(524 268)"/></g><g transform="translate(-447 -128)"><circle class="c" cx="1.5" cy="1.5" r="1.5" transform="translate(524 268)"/></g><g transform="translate(-524 -121)"><circle class="c" cx="1.5" cy="1.5" r="1.5" transform="translate(524 268)"/></g><g transform="translate(-517 -121)"><circle class="c" cx="1.5" cy="1.5" r="1.5" transform="translate(524 268)"/></g><g transform="translate(-510 -121)"><circle class="c" cx="1.5" cy="1.5" r="1.5" transform="translate(524 268)"/></g><g transform="translate(-503 -121)"><circle class="c" cx="1.5" cy="1.5" r="1.5" transform="translate(524 268)"/></g><g transform="translate(-496 -121)"><circle class="c" cx="1.5" cy="1.5" r="1.5" transform="translate(524 268)"/></g><g transform="translate(-489 -121)"><circle class="c" cx="1.5" cy="1.5" r="1.5" transform="translate(524 268)"/></g><g transform="translate(-482 -121)"><circle class="c" cx="1.5" cy="1.5" r="1.5" transform="translate(524 268)"/></g><g transform="translate(-475 -121)"><circle class="c" cx="1.5" cy="1.5" r="1.5" transform="translate(524 268)"/></g><g transform="translate(-468 -121)"><circle class="c" cx="1.5" cy="1.5" r="1.5" transform="translate(524 268)"/></g><g transform="translate(-461 -121)"><circle class="c" cx="1.5" cy="1.5" r="1.5" transform="translate(524 268)"/></g><g transform="translate(-454 -121)"><circle class="c" cx="1.5" cy="1.5" r="1.5" transform="translate(524 268)"/></g><g transform="translate(-447 -121)"><circle class="c" cx="1.5" cy="1.5" r="1.5" transform="translate(524 268)"/></g><g transform="translate(-524 -114)"><circle class="c" cx="1.5" cy="1.5" r="1.5" transform="translate(524 268)"/></g><g transform="translate(-517 -114)"><circle class="c" cx="1.5" cy="1.5" r="1.5" transform="translate(524 268)"/></g><g transform="translate(-510 -114)"><circle class="c" cx="1.5" cy="1.5" r="1.5" transform="translate(524 268)"/></g><g transform="translate(-503 -114)"><circle class="c" cx="1.5" cy="1.5" r="1.5" transform="translate(524 268)"/></g><g transform="translate(-496 -114)"><circle class="c" cx="1.5" cy="1.5" r="1.5" transform="translate(524 268)"/></g><g transform="translate(-489 -114)"><circle class="c" cx="1.5" cy="1.5" r="1.5" transform="translate(524 268)"/></g><g transform="translate(-482 -114)"><circle class="c" cx="1.5" cy="1.5" r="1.5" transform="translate(524 268)"/></g><g transform="translate(-475 -114)"><circle class="c" cx="1.5" cy="1.5" r="1.5" transform="translate(524 268)"/></g><g transform="translate(-468 -114)"><circle class="c" cx="1.5" cy="1.5" r="1.5" transform="translate(524 268)"/></g><g transform="translate(-461 -114)"><circle class="c" cx="1.5" cy="1.5" r="1.5" transform="translate(524 268)"/></g><g transform="translate(-454 -114)"><circle class="c" cx="1.5" cy="1.5" r="1.5" transform="translate(524 268)"/></g><g transform="translate(-447 -114)"><circle class="c" cx="1.5" cy="1.5" r="1.5" transform="translate(524 268)"/></g><g transform="translate(-524 -107)"><circle class="c" cx="1.5" cy="1.5" r="1.5" transform="translate(524 268)"/></g><g transform="translate(-517 -107)"><circle class="c" cx="1.5" cy="1.5" r="1.5" transform="translate(524 268)"/></g><g transform="translate(-510 -107)"><circle class="c" cx="1.5" cy="1.5" r="1.5" transform="translate(524 268)"/></g><g transform="translate(-503 -107)"><circle class="c" cx="1.5" cy="1.5" r="1.5" transform="translate(524 268)"/></g><g transform="translate(-496 -107)"><circle class="c" cx="1.5" cy="1.5" r="1.5" transform="translate(524 268)"/></g><g transform="translate(-489 -107)"><circle class="c" cx="1.5" cy="1.5" r="1.5" transform="translate(524 268)"/></g><g transform="translate(-482 -107)"><circle class="c" cx="1.5" cy="1.5" r="1.5" transform="translate(524 268)"/></g><g transform="translate(-475 -107)"><circle class="c" cx="1.5" cy="1.5" r="1.5" transform="translate(524 268)"/></g><g transform="translate(-468 -107)"><circle class="c" cx="1.5" cy="1.5" r="1.5" transform="translate(524 268)"/></g><g transform="translate(-461 -107)"><circle class="c" cx="1.5" cy="1.5" r="1.5" transform="translate(524 268)"/></g><g transform="translate(-454 -107)"><circle class="c" cx="1.5" cy="1.5" r="1.5" transform="translate(524 268)"/></g><g transform="translate(-447 -107)"><circle class="c" cx="1.5" cy="1.5" r="1.5" transform="translate(524 268)"/></g><g transform="translate(-524 -100)"><circle class="c" cx="1.5" cy="1.5" r="1.5" transform="translate(524 268)"/></g><g transform="translate(-517 -100)"><circle class="c" cx="1.5" cy="1.5" r="1.5" transform="translate(524 268)"/></g><g transform="translate(-510 -100)"><circle class="c" cx="1.5" cy="1.5" r="1.5" transform="translate(524 268)"/></g><g transform="translate(-503 -100)"><circle class="c" cx="1.5" cy="1.5" r="1.5" transform="translate(524 268)"/></g><g transform="translate(-496 -100)"><circle class="c" cx="1.5" cy="1.5" r="1.5" transform="translate(524 268)"/></g><g transform="translate(-489 -100)"><circle class="c" cx="1.5" cy="1.5" r="1.5" transform="translate(524 268)"/></g><g transform="translate(-482 -100)"><circle class="c" cx="1.5" cy="1.5" r="1.5" transform="translate(524 268)"/></g><g transform="translate(-475 -100)"><circle class="c" cx="1.5" cy="1.5" r="1.5" transform="translate(524 268)"/></g><g transform="translate(-468 -100)"><circle class="c" cx="1.5" cy="1.5" r="1.5" transform="translate(524 268)"/></g><g transform="translate(-461 -100)"><circle class="c" cx="1.5" cy="1.5" r="1.5" transform="translate(524 268)"/></g><g transform="translate(-454 -100)"><circle class="c" cx="1.5" cy="1.5" r="1.5" transform="translate(524 268)"/></g><g transform="translate(-447 -100)"><circle class="c" cx="1.5" cy="1.5" r="1.5" transform="translate(524 268)"/></g><g transform="translate(-524 -93)"><circle class="c" cx="1.5" cy="1.5" r="1.5" transform="translate(524 268)"/></g><g transform="translate(-517 -93)"><circle class="c" cx="1.5" cy="1.5" r="1.5" transform="translate(524 268)"/></g><g transform="translate(-510 -93)"><circle class="c" cx="1.5" cy="1.5" r="1.5" transform="translate(524 268)"/></g><g transform="translate(-503 -93)"><circle class="c" cx="1.5" cy="1.5" r="1.5" transform="translate(524 268)"/></g><g transform="translate(-496 -93)"><circle class="c" cx="1.5" cy="1.5" r="1.5" transform="translate(524 268)"/></g><g transform="translate(-489 -93)"><circle class="c" cx="1.5" cy="1.5" r="1.5" transform="translate(524 268)"/></g><g transform="translate(-482 -93)"><circle class="c" cx="1.5" cy="1.5" r="1.5" transform="translate(524 268)"/></g><g transform="translate(-475 -93)"><circle class="c" cx="1.5" cy="1.5" r="1.5" transform="translate(524 268)"/></g><g transform="translate(-468 -93)"><circle class="c" cx="1.5" cy="1.5" r="1.5" transform="translate(524 268)"/></g><g transform="translate(-461 -93)"><circle class="c" cx="1.5" cy="1.5" r="1.5" transform="translate(524 268)"/></g><g transform="translate(-454 -93)"><circle class="c" cx="1.5" cy="1.5" r="1.5" transform="translate(524 268)"/></g><g transform="translate(-447 -93)"><circle class="c" cx="1.5" cy="1.5" r="1.5" transform="translate(524 268)"/></g><g transform="translate(-524 -86)"><circle class="c" cx="1.5" cy="1.5" r="1.5" transform="translate(524 268)"/></g><g transform="translate(-517 -86)"><circle class="c" cx="1.5" cy="1.5" r="1.5" transform="translate(524 268)"/></g><g transform="translate(-510 -86)"><circle class="c" cx="1.5" cy="1.5" r="1.5" transform="translate(524 268)"/></g><g transform="translate(-503 -86)"><circle class="c" cx="1.5" cy="1.5" r="1.5" transform="translate(524 268)"/></g><g transform="translate(-496 -86)"><circle class="c" cx="1.5" cy="1.5" r="1.5" transform="translate(524 268)"/></g><g transform="translate(-489 -86)"><circle class="c" cx="1.5" cy="1.5" r="1.5" transform="translate(524 268)"/></g><g transform="translate(-482 -86)"><circle class="c" cx="1.5" cy="1.5" r="1.5" transform="translate(524 268)"/></g><g transform="translate(-475 -86)"><circle class="c" cx="1.5" cy="1.5" r="1.5" transform="translate(524 268)"/></g><g transform="translate(-468 -86)"><circle class="c" cx="1.5" cy="1.5" r="1.5" transform="translate(524 268)"/></g><g transform="translate(-461 -86)"><circle class="c" cx="1.5" cy="1.5" r="1.5" transform="translate(524 268)"/></g><g transform="translate(-454 -86)"><circle class="c" cx="1.5" cy="1.5" r="1.5" transform="translate(524 268)"/></g><g transform="translate(-447 -86)"><circle class="c" cx="1.5" cy="1.5" r="1.5" transform="translate(524 268)"/></g><g transform="translate(-524 -79)"><circle class="c" cx="1.5" cy="1.5" r="1.5" transform="translate(524 268)"/></g><g transform="translate(-517 -79)"><circle class="c" cx="1.5" cy="1.5" r="1.5" transform="translate(524 268)"/></g><g transform="translate(-510 -79)"><circle class="c" cx="1.5" cy="1.5" r="1.5" transform="translate(524 268)"/></g><g transform="translate(-503 -79)"><circle class="c" cx="1.5" cy="1.5" r="1.5" transform="translate(524 268)"/></g><g transform="translate(-496 -79)"><circle class="c" cx="1.5" cy="1.5" r="1.5" transform="translate(524 268)"/></g><g transform="translate(-489 -79)"><circle class="c" cx="1.5" cy="1.5" r="1.5" transform="translate(524 268)"/></g><g transform="translate(-482 -79)"><circle class="c" cx="1.5" cy="1.5" r="1.5" transform="translate(524 268)"/></g><g transform="translate(-475 -79)"><circle class="c" cx="1.5" cy="1.5" r="1.5" transform="translate(524 268)"/></g><g transform="translate(-468 -79)"><circle class="c" cx="1.5" cy="1.5" r="1.5" transform="translate(524 268)"/></g><g transform="translate(-461 -79)"><circle class="c" cx="1.5" cy="1.5" r="1.5" transform="translate(524 268)"/></g><g transform="translate(-454 -79)"><circle class="c" cx="1.5" cy="1.5" r="1.5" transform="translate(524 268)"/></g><g transform="translate(-447 -79)"><circle class="c" cx="1.5" cy="1.5" r="1.5" transform="translate(524 268)"/></g><g transform="translate(-524 -72)"><circle class="c" cx="1.5" cy="1.5" r="1.5" transform="translate(524 268)"/></g><g transform="translate(-517 -72)"><circle class="c" cx="1.5" cy="1.5" r="1.5" transform="translate(524 268)"/></g><g transform="translate(-510 -72)"><circle class="c" cx="1.5" cy="1.5" r="1.5" transform="translate(524 268)"/></g><g transform="translate(-503 -72)"><circle class="c" cx="1.5" cy="1.5" r="1.5" transform="translate(524 268)"/></g><g transform="translate(-496 -72)"><circle class="c" cx="1.5" cy="1.5" r="1.5" transform="translate(524 268)"/></g><g transform="translate(-489 -72)"><circle class="c" cx="1.5" cy="1.5" r="1.5" transform="translate(524 268)"/></g><g transform="translate(-482 -72)"><circle class="c" cx="1.5" cy="1.5" r="1.5" transform="translate(524 268)"/></g><g transform="translate(-475 -72)"><circle class="c" cx="1.5" cy="1.5" r="1.5" transform="translate(524 268)"/></g><g transform="translate(-468 -72)"><circle class="c" cx="1.5" cy="1.5" r="1.5" transform="translate(524 268)"/></g><g transform="translate(-461 -72)"><circle class="c" cx="1.5" cy="1.5" r="1.5" transform="translate(524 268)"/></g><g transform="translate(-454 -72)"><circle class="c" cx="1.5" cy="1.5" r="1.5" transform="translate(524 268)"/></g><g transform="translate(-447 -72)"><circle class="c" cx="1.5" cy="1.5" r="1.5" transform="translate(524 268)"/></g><g transform="translate(-524 -65)"><circle class="c" cx="1.5" cy="1.5" r="1.5" transform="translate(524 268)"/></g><g transform="translate(-517 -65)"><circle class="c" cx="1.5" cy="1.5" r="1.5" transform="translate(524 268)"/></g><g transform="translate(-510 -65)"><circle class="c" cx="1.5" cy="1.5" r="1.5" transform="translate(524 268)"/></g><g transform="translate(-503 -65)"><circle class="c" cx="1.5" cy="1.5" r="1.5" transform="translate(524 268)"/></g><g transform="translate(-496 -65)"><circle class="c" cx="1.5" cy="1.5" r="1.5" transform="translate(524 268)"/></g><g transform="translate(-489 -65)"><circle class="c" cx="1.5" cy="1.5" r="1.5" transform="translate(524 268)"/></g><g transform="translate(-482 -65)"><circle class="c" cx="1.5" cy="1.5" r="1.5" transform="translate(524 268)"/></g><g transform="translate(-475 -65)"><circle class="c" cx="1.5" cy="1.5" r="1.5" transform="translate(524 268)"/></g><g transform="translate(-468 -65)"><circle class="c" cx="1.5" cy="1.5" r="1.5" transform="translate(524 268)"/></g><g transform="translate(-461 -65)"><circle class="c" cx="1.5" cy="1.5" r="1.5" transform="translate(524 268)"/></g><g transform="translate(-454 -65)"><circle class="c" cx="1.5" cy="1.5" r="1.5" transform="translate(524 268)"/></g><g transform="translate(-447 -65)"><circle class="c" cx="1.5" cy="1.5" r="1.5" transform="translate(524 268)"/></g><g transform="translate(-524 -58)"><circle class="c" cx="1.5" cy="1.5" r="1.5" transform="translate(524 268)"/></g><g transform="translate(-517 -58)"><circle class="c" cx="1.5" cy="1.5" r="1.5" transform="translate(524 268)"/></g><g transform="translate(-510 -58)"><circle class="c" cx="1.5" cy="1.5" r="1.5" transform="translate(524 268)"/></g><g transform="translate(-503 -58)"><circle class="c" cx="1.5" cy="1.5" r="1.5" transform="translate(524 268)"/></g><g transform="translate(-496 -58)"><circle class="c" cx="1.5" cy="1.5" r="1.5" transform="translate(524 268)"/></g><g transform="translate(-489 -58)"><circle class="c" cx="1.5" cy="1.5" r="1.5" transform="translate(524 268)"/></g><g transform="translate(-482 -58)"><circle class="c" cx="1.5" cy="1.5" r="1.5" transform="translate(524 268)"/></g><g transform="translate(-475 -58)"><circle class="c" cx="1.5" cy="1.5" r="1.5" transform="translate(524 268)"/></g><g transform="translate(-468 -58)"><circle class="c" cx="1.5" cy="1.5" r="1.5" transform="translate(524 268)"/></g><g transform="translate(-461 -58)"><circle class="c" cx="1.5" cy="1.5" r="1.5" transform="translate(524 268)"/></g><g transform="translate(-454 -58)"><circle class="c" cx="1.5" cy="1.5" r="1.5" transform="translate(524 268)"/></g><g transform="translate(-447 -58)"><circle class="c" cx="1.5" cy="1.5" r="1.5" transform="translate(524 268)"/></g><g transform="translate(-524 -51)"><circle class="c" cx="1.5" cy="1.5" r="1.5" transform="translate(524 268)"/></g><g transform="translate(-517 -51)"><circle class="c" cx="1.5" cy="1.5" r="1.5" transform="translate(524 268)"/></g><g transform="translate(-510 -51)"><circle class="c" cx="1.5" cy="1.5" r="1.5" transform="translate(524 268)"/></g><g transform="translate(-503 -51)"><circle class="c" cx="1.5" cy="1.5" r="1.5" transform="translate(524 268)"/></g><g transform="translate(-496 -51)"><circle class="c" cx="1.5" cy="1.5" r="1.5" transform="translate(524 268)"/></g><g transform="translate(-489 -51)"><circle class="c" cx="1.5" cy="1.5" r="1.5" transform="translate(524 268)"/></g><g transform="translate(-482 -51)"><circle class="c" cx="1.5" cy="1.5" r="1.5" transform="translate(524 268)"/></g><g transform="translate(-475 -51)"><circle class="c" cx="1.5" cy="1.5" r="1.5" transform="translate(524 268)"/></g><g transform="translate(-468 -51)"><circle class="c" cx="1.5" cy="1.5" r="1.5" transform="translate(524 268)"/></g><g transform="translate(-461 -51)"><circle class="c" cx="1.5" cy="1.5" r="1.5" transform="translate(524 268)"/></g><g transform="translate(-454 -51)"><circle class="c" cx="1.5" cy="1.5" r="1.5" transform="translate(524 268)"/></g><g transform="translate(-447 -51)"><circle class="c" cx="1.5" cy="1.5" r="1.5" transform="translate(524 268)"/></g><g transform="translate(-524 -44)"><circle class="c" cx="1.5" cy="1.5" r="1.5" transform="translate(524 268)"/></g><g transform="translate(-517 -44)"><circle class="c" cx="1.5" cy="1.5" r="1.5" transform="translate(524 268)"/></g><g transform="translate(-510 -44)"><circle class="c" cx="1.5" cy="1.5" r="1.5" transform="translate(524 268)"/></g><g transform="translate(-503 -44)"><circle class="c" cx="1.5" cy="1.5" r="1.5" transform="translate(524 268)"/></g><g transform="translate(-496 -44)"><circle class="c" cx="1.5" cy="1.5" r="1.5" transform="translate(524 268)"/></g><g transform="translate(-489 -44)"><circle class="c" cx="1.5" cy="1.5" r="1.5" transform="translate(524 268)"/></g><g transform="translate(-482 -44)"><circle class="c" cx="1.5" cy="1.5" r="1.5" transform="translate(524 268)"/></g><g transform="translate(-475 -44)"><circle class="c" cx="1.5" cy="1.5" r="1.5" transform="translate(524 268)"/></g><g transform="translate(-468 -44)"><circle class="c" cx="1.5" cy="1.5" r="1.5" transform="translate(524 268)"/></g><g transform="translate(-461 -44)"><circle class="c" cx="1.5" cy="1.5" r="1.5" transform="translate(524 268)"/></g><g transform="translate(-454 -44)"><circle class="c" cx="1.5" cy="1.5" r="1.5" transform="translate(524 268)"/></g><g transform="translate(-447 -44)"><circle class="c" cx="1.5" cy="1.5" r="1.5" transform="translate(524 268)"/></g><g transform="translate(-524 -37)"><circle class="c" cx="1.5" cy="1.5" r="1.5" transform="translate(524 268)"/></g><g transform="translate(-517 -37)"><circle class="c" cx="1.5" cy="1.5" r="1.5" transform="translate(524 268)"/></g><g transform="translate(-510 -37)"><circle class="c" cx="1.5" cy="1.5" r="1.5" transform="translate(524 268)"/></g><g transform="translate(-503 -37)"><circle class="c" cx="1.5" cy="1.5" r="1.5" transform="translate(524 268)"/></g><g transform="translate(-496 -37)"><circle class="c" cx="1.5" cy="1.5" r="1.5" transform="translate(524 268)"/></g><g transform="translate(-489 -37)"><circle class="c" cx="1.5" cy="1.5" r="1.5" transform="translate(524 268)"/></g><g transform="translate(-482 -37)"><circle class="c" cx="1.5" cy="1.5" r="1.5" transform="translate(524 268)"/></g><g transform="translate(-475 -37)"><circle class="c" cx="1.5" cy="1.5" r="1.5" transform="translate(524 268)"/></g><g transform="translate(-468 -37)"><circle class="c" cx="1.5" cy="1.5" r="1.5" transform="translate(524 268)"/></g><g transform="translate(-461 -37)"><circle class="c" cx="1.5" cy="1.5" r="1.5" transform="translate(524 268)"/></g><g transform="translate(-454 -37)"><circle class="c" cx="1.5" cy="1.5" r="1.5" transform="translate(524 268)"/></g><g transform="translate(-447 -37)"><circle class="c" cx="1.5" cy="1.5" r="1.5" transform="translate(524 268)"/></g><g transform="translate(-524 -30)"><circle class="c" cx="1.5" cy="1.5" r="1.5" transform="translate(524 268)"/></g><g transform="translate(-517 -30)"><circle class="c" cx="1.5" cy="1.5" r="1.5" transform="translate(524 268)"/></g><g transform="translate(-510 -30)"><circle class="c" cx="1.5" cy="1.5" r="1.5" transform="translate(524 268)"/></g><g transform="translate(-503 -30)"><circle class="c" cx="1.5" cy="1.5" r="1.5" transform="translate(524 268)"/></g><g transform="translate(-496 -30)"><circle class="c" cx="1.5" cy="1.5" r="1.5" transform="translate(524 268)"/></g><g transform="translate(-489 -30)"><circle class="c" cx="1.5" cy="1.5" r="1.5" transform="translate(524 268)"/></g><g transform="translate(-482 -30)"><circle class="c" cx="1.5" cy="1.5" r="1.5" transform="translate(524 268)"/></g><g transform="translate(-475 -30)"><circle class="c" cx="1.5" cy="1.5" r="1.5" transform="translate(524 268)"/></g><g transform="translate(-468 -30)"><circle class="c" cx="1.5" cy="1.5" r="1.5" transform="translate(524 268)"/></g><g transform="translate(-461 -30)"><circle class="c" cx="1.5" cy="1.5" r="1.5" transform="translate(524 268)"/></g><g transform="translate(-454 -30)"><circle class="c" cx="1.5" cy="1.5" r="1.5" transform="translate(524 268)"/></g><g transform="translate(-447 -30)"><circle class="c" cx="1.5" cy="1.5" r="1.5" transform="translate(524 268)"/></g><g transform="translate(-524 -23)"><circle class="c" cx="1.5" cy="1.5" r="1.5" transform="translate(524 268)"/></g><g transform="translate(-517 -23)"><circle class="c" cx="1.5" cy="1.5" r="1.5" transform="translate(524 268)"/></g><g transform="translate(-510 -23)"><circle class="c" cx="1.5" cy="1.5" r="1.5" transform="translate(524 268)"/></g><g transform="translate(-503 -23)"><circle class="c" cx="1.5" cy="1.5" r="1.5" transform="translate(524 268)"/></g><g transform="translate(-496 -23)"><circle class="c" cx="1.5" cy="1.5" r="1.5" transform="translate(524 268)"/></g><g transform="translate(-489 -23)"><circle class="c" cx="1.5" cy="1.5" r="1.5" transform="translate(524 268)"/></g><g transform="translate(-482 -23)"><circle class="c" cx="1.5" cy="1.5" r="1.5" transform="translate(524 268)"/></g><g transform="translate(-475 -23)"><circle class="c" cx="1.5" cy="1.5" r="1.5" transform="translate(524 268)"/></g><g transform="translate(-468 -23)"><circle class="c" cx="1.5" cy="1.5" r="1.5" transform="translate(524 268)"/></g><g transform="translate(-461 -23)"><circle class="c" cx="1.5" cy="1.5" r="1.5" transform="translate(524 268)"/></g><g transform="translate(-454 -23)"><circle class="c" cx="1.5" cy="1.5" r="1.5" transform="translate(524 268)"/></g><g transform="translate(-447 -23)"><circle class="c" cx="1.5" cy="1.5" r="1.5" transform="translate(524 268)"/></g><g transform="translate(-524 -16)"><circle class="c" cx="1.5" cy="1.5" r="1.5" transform="translate(524 268)"/></g><g transform="translate(-517 -16)"><circle class="c" cx="1.5" cy="1.5" r="1.5" transform="translate(524 268)"/></g><g transform="translate(-510 -16)"><circle class="c" cx="1.5" cy="1.5" r="1.5" transform="translate(524 268)"/></g><g transform="translate(-503 -16)"><circle class="c" cx="1.5" cy="1.5" r="1.5" transform="translate(524 268)"/></g><g transform="translate(-496 -16)"><circle class="c" cx="1.5" cy="1.5" r="1.5" transform="translate(524 268)"/></g><g transform="translate(-489 -16)"><circle class="c" cx="1.5" cy="1.5" r="1.5" transform="translate(524 268)"/></g><g transform="translate(-482 -16)"><circle class="c" cx="1.5" cy="1.5" r="1.5" transform="translate(524 268)"/></g><g transform="translate(-475 -16)"><circle class="c" cx="1.5" cy="1.5" r="1.5" transform="translate(524 268)"/></g><g transform="translate(-468 -16)"><circle class="c" cx="1.5" cy="1.5" r="1.5" transform="translate(524 268)"/></g><g transform="translate(-461 -16)"><circle class="c" cx="1.5" cy="1.5" r="1.5" transform="translate(524 268)"/></g><g transform="translate(-454 -16)"><circle class="c" cx="1.5" cy="1.5" r="1.5" transform="translate(524 268)"/></g><g transform="translate(-447 -16)"><circle class="c" cx="1.5" cy="1.5" r="1.5" transform="translate(524 268)"/></g><g transform="translate(-524 -9)"><circle class="c" cx="1.5" cy="1.5" r="1.5" transform="translate(524 268)"/></g><g transform="translate(-517 -9)"><circle class="c" cx="1.5" cy="1.5" r="1.5" transform="translate(524 268)"/></g><g transform="translate(-510 -9)"><circle class="c" cx="1.5" cy="1.5" r="1.5" transform="translate(524 268)"/></g><g transform="translate(-503 -9)"><circle class="c" cx="1.5" cy="1.5" r="1.5" transform="translate(524 268)"/></g><g transform="translate(-496 -9)"><circle class="c" cx="1.5" cy="1.5" r="1.5" transform="translate(524 268)"/></g><g transform="translate(-489 -9)"><circle class="c" cx="1.5" cy="1.5" r="1.5" transform="translate(524 268)"/></g><g transform="translate(-482 -9)"><circle class="c" cx="1.5" cy="1.5" r="1.5" transform="translate(524 268)"/></g><g transform="translate(-475 -9)"><circle class="c" cx="1.5" cy="1.5" r="1.5" transform="translate(524 268)"/></g><g transform="translate(-468 -9)"><circle class="c" cx="1.5" cy="1.5" r="1.5" transform="translate(524 268)"/></g><g transform="translate(-461 -9)"><circle class="c" cx="1.5" cy="1.5" r="1.5" transform="translate(524 268)"/></g><g transform="translate(-454 -9)"><circle class="c" cx="1.5" cy="1.5" r="1.5" transform="translate(524 268)"/></g><g transform="translate(-447 -9)"><circle class="c" cx="1.5" cy="1.5" r="1.5" transform="translate(524 268)"/></g><g transform="translate(-524 -2)"><circle class="c" cx="1.5" cy="1.5" r="1.5" transform="translate(524 268)"/></g><g transform="translate(-517 -2)"><circle class="c" cx="1.5" cy="1.5" r="1.5" transform="translate(524 268)"/></g><g transform="translate(-510 -2)"><circle class="c" cx="1.5" cy="1.5" r="1.5" transform="translate(524 268)"/></g><g transform="translate(-503 -2)"><circle class="c" cx="1.5" cy="1.5" r="1.5" transform="translate(524 268)"/></g><g transform="translate(-496 -2)"><circle class="c" cx="1.5" cy="1.5" r="1.5" transform="translate(524 268)"/></g><g transform="translate(-489 -2)"><circle class="c" cx="1.5" cy="1.5" r="1.5" transform="translate(524 268)"/></g><g transform="translate(-482 -2)"><circle class="c" cx="1.5" cy="1.5" r="1.5" transform="translate(524 268)"/></g><g transform="translate(-475 -2)"><circle class="c" cx="1.5" cy="1.5" r="1.5" transform="translate(524 268)"/></g><g transform="translate(-468 -2)"><circle class="c" cx="1.5" cy="1.5" r="1.5" transform="translate(524 268)"/></g><g transform="translate(-461 -2)"><circle class="c" cx="1.5" cy="1.5" r="1.5" transform="translate(524 268)"/></g><g transform="translate(-454 -2)"><circle class="c" cx="1.5" cy="1.5" r="1.5" transform="translate(524 268)"/></g><g transform="translate(-447 -2)"><circle class="c" cx="1.5" cy="1.5" r="1.5" transform="translate(524 268)"/></g><g transform="translate(-524 5)"><circle class="c" cx="1.5" cy="1.5" r="1.5" transform="translate(524 268)"/></g><g transform="translate(-517 5)"><circle class="c" cx="1.5" cy="1.5" r="1.5" transform="translate(524 268)"/></g><g transform="translate(-510 5)"><circle class="c" cx="1.5" cy="1.5" r="1.5" transform="translate(524 268)"/></g><g transform="translate(-503 5)"><circle class="c" cx="1.5" cy="1.5" r="1.5" transform="translate(524 268)"/></g><g transform="translate(-496 5)"><circle class="c" cx="1.5" cy="1.5" r="1.5" transform="translate(524 268)"/></g><g transform="translate(-489 5)"><circle class="c" cx="1.5" cy="1.5" r="1.5" transform="translate(524 268)"/></g><g transform="translate(-482 5)"><circle class="c" cx="1.5" cy="1.5" r="1.5" transform="translate(524 268)"/></g><g transform="translate(-475 5)"><circle class="c" cx="1.5" cy="1.5" r="1.5" transform="translate(524 268)"/></g><g transform="translate(-468 5)"><circle class="c" cx="1.5" cy="1.5" r="1.5" transform="translate(524 268)"/></g><g transform="translate(-461 5)"><circle class="c" cx="1.5" cy="1.5" r="1.5" transform="translate(524 268)"/></g><g transform="translate(-454 5)"><circle class="c" cx="1.5" cy="1.5" r="1.5" transform="translate(524 268)"/></g><g transform="translate(-447 5)"><circle class="c" cx="1.5" cy="1.5" r="1.5" transform="translate(524 268)"/></g><g transform="translate(-524 12)"><circle class="c" cx="1.5" cy="1.5" r="1.5" transform="translate(524 268)"/></g><g transform="translate(-517 12)"><circle class="c" cx="1.5" cy="1.5" r="1.5" transform="translate(524 268)"/></g><g transform="translate(-510 12)"><circle class="c" cx="1.5" cy="1.5" r="1.5" transform="translate(524 268)"/></g><g transform="translate(-503 12)"><circle class="c" cx="1.5" cy="1.5" r="1.5" transform="translate(524 268)"/></g><g transform="translate(-496 12)"><circle class="c" cx="1.5" cy="1.5" r="1.5" transform="translate(524 268)"/></g><g transform="translate(-489 12)"><circle class="c" cx="1.5" cy="1.5" r="1.5" transform="translate(524 268)"/></g><g transform="translate(-482 12)"><circle class="c" cx="1.5" cy="1.5" r="1.5" transform="translate(524 268)"/></g><g transform="translate(-475 12)"><circle class="c" cx="1.5" cy="1.5" r="1.5" transform="translate(524 268)"/></g><g transform="translate(-468 12)"><circle class="c" cx="1.5" cy="1.5" r="1.5" transform="translate(524 268)"/></g><g transform="translate(-461 12)"><circle class="c" cx="1.5" cy="1.5" r="1.5" transform="translate(524 268)"/></g><g transform="translate(-454 12)"><circle class="c" cx="1.5" cy="1.5" r="1.5" transform="translate(524 268)"/></g><g transform="translate(-447 12)"><circle class="c" cx="1.5" cy="1.5" r="1.5" transform="translate(524 268)"/></g><g transform="translate(-524 19)"><circle class="c" cx="1.5" cy="1.5" r="1.5" transform="translate(524 268)"/></g><g transform="translate(-517 19)"><circle class="c" cx="1.5" cy="1.5" r="1.5" transform="translate(524 268)"/></g><g transform="translate(-510 19)"><circle class="c" cx="1.5" cy="1.5" r="1.5" transform="translate(524 268)"/></g><g transform="translate(-503 19)"><circle class="c" cx="1.5" cy="1.5" r="1.5" transform="translate(524 268)"/></g><g transform="translate(-496 19)"><circle class="c" cx="1.5" cy="1.5" r="1.5" transform="translate(524 268)"/></g><g transform="translate(-489 19)"><circle class="c" cx="1.5" cy="1.5" r="1.5" transform="translate(524 268)"/></g><g transform="translate(-482 19)"><circle class="c" cx="1.5" cy="1.5" r="1.5" transform="translate(524 268)"/></g><g transform="translate(-475 19)"><circle class="c" cx="1.5" cy="1.5" r="1.5" transform="translate(524 268)"/></g><g transform="translate(-468 19)"><circle class="c" cx="1.5" cy="1.5" r="1.5" transform="translate(524 268)"/></g><g transform="translate(-461 19)"><circle class="c" cx="1.5" cy="1.5" r="1.5" transform="translate(524 268)"/></g><g transform="translate(-454 19)"><circle class="c" cx="1.5" cy="1.5" r="1.5" transform="translate(524 268)"/></g><g transform="translate(-447 19)"><circle class="c" cx="1.5" cy="1.5" r="1.5" transform="translate(524 268)"/></g><g transform="translate(-524 26)"><circle class="c" cx="1.5" cy="1.5" r="1.5" transform="translate(524 268)"/></g><g transform="translate(-517 26)"><circle class="c" cx="1.5" cy="1.5" r="1.5" transform="translate(524 268)"/></g><g transform="translate(-510 26)"><circle class="c" cx="1.5" cy="1.5" r="1.5" transform="translate(524 268)"/></g><g transform="translate(-503 26)"><circle class="c" cx="1.5" cy="1.5" r="1.5" transform="translate(524 268)"/></g><g transform="translate(-496 26)"><circle class="c" cx="1.5" cy="1.5" r="1.5" transform="translate(524 268)"/></g><g transform="translate(-489 26)"><circle class="c" cx="1.5" cy="1.5" r="1.5" transform="translate(524 268)"/></g><g transform="translate(-482 26)"><circle class="c" cx="1.5" cy="1.5" r="1.5" transform="translate(524 268)"/></g><g transform="translate(-475 26)"><circle class="c" cx="1.5" cy="1.5" r="1.5" transform="translate(524 268)"/></g><g transform="translate(-468 26)"><circle class="c" cx="1.5" cy="1.5" r="1.5" transform="translate(524 268)"/></g><g transform="translate(-461 26)"><circle class="c" cx="1.5" cy="1.5" r="1.5" transform="translate(524 268)"/></g><g transform="translate(-454 26)"><circle class="c" cx="1.5" cy="1.5" r="1.5" transform="translate(524 268)"/></g><g transform="translate(-447 26)"><circle class="c" cx="1.5" cy="1.5" r="1.5" transform="translate(524 268)"/></g><g transform="translate(-524 33)"><circle class="c" cx="1.5" cy="1.5" r="1.5" transform="translate(524 268)"/></g><g transform="translate(-517 33)"><circle class="c" cx="1.5" cy="1.5" r="1.5" transform="translate(524 268)"/></g><g transform="translate(-510 33)"><circle class="c" cx="1.5" cy="1.5" r="1.5" transform="translate(524 268)"/></g><g transform="translate(-503 33)"><circle class="c" cx="1.5" cy="1.5" r="1.5" transform="translate(524 268)"/></g><g transform="translate(-496 33)"><circle class="c" cx="1.5" cy="1.5" r="1.5" transform="translate(524 268)"/></g><g transform="translate(-489 33)"><circle class="c" cx="1.5" cy="1.5" r="1.5" transform="translate(524 268)"/></g><g transform="translate(-482 33)"><circle class="c" cx="1.5" cy="1.5" r="1.5" transform="translate(524 268)"/></g><g transform="translate(-475 33)"><circle class="c" cx="1.5" cy="1.5" r="1.5" transform="translate(524 268)"/></g><g transform="translate(-468 33)"><circle class="c" cx="1.5" cy="1.5" r="1.5" transform="translate(524 268)"/></g><g transform="translate(-461 33)"><circle class="c" cx="1.5" cy="1.5" r="1.5" transform="translate(524 268)"/></g><g transform="translate(-454 33)"><circle class="c" cx="1.5" cy="1.5" r="1.5" transform="translate(524 268)"/></g><g transform="translate(-447 33)"><circle class="c" cx="1.5" cy="1.5" r="1.5" transform="translate(524 268)"/></g><g transform="translate(-524 40)"><circle class="c" cx="1.5" cy="1.5" r="1.5" transform="translate(524 268)"/></g><g transform="translate(-517 40)"><circle class="c" cx="1.5" cy="1.5" r="1.5" transform="translate(524 268)"/></g><g transform="translate(-510 40)"><circle class="c" cx="1.5" cy="1.5" r="1.5" transform="translate(524 268)"/></g><g transform="translate(-503 40)"><circle class="c" cx="1.5" cy="1.5" r="1.5" transform="translate(524 268)"/></g><g transform="translate(-496 40)"><circle class="c" cx="1.5" cy="1.5" r="1.5" transform="translate(524 268)"/></g><g transform="translate(-489 40)"><circle class="c" cx="1.5" cy="1.5" r="1.5" transform="translate(524 268)"/></g><g transform="translate(-482 40)"><circle class="c" cx="1.5" cy="1.5" r="1.5" transform="translate(524 268)"/></g><g transform="translate(-475 40)"><circle class="c" cx="1.5" cy="1.5" r="1.5" transform="translate(524 268)"/></g><g transform="translate(-468 40)"><circle class="c" cx="1.5" cy="1.5" r="1.5" transform="translate(524 268)"/></g><g transform="translate(-461 40)"><circle class="c" cx="1.5" cy="1.5" r="1.5" transform="translate(524 268)"/></g><g transform="translate(-454 40)"><circle class="c" cx="1.5" cy="1.5" r="1.5" transform="translate(524 268)"/></g><g transform="translate(-447 40)"><circle class="c" cx="1.5" cy="1.5" r="1.5" transform="translate(524 268)"/></g><g transform="translate(-524 47)"><circle class="c" cx="1.5" cy="1.5" r="1.5" transform="translate(524 268)"/></g><g transform="translate(-517 47)"><circle class="c" cx="1.5" cy="1.5" r="1.5" transform="translate(524 268)"/></g><g transform="translate(-510 47)"><circle class="c" cx="1.5" cy="1.5" r="1.5" transform="translate(524 268)"/></g><g transform="translate(-503 47)"><circle class="c" cx="1.5" cy="1.5" r="1.5" transform="translate(524 268)"/></g><g transform="translate(-496 47)"><circle class="c" cx="1.5" cy="1.5" r="1.5" transform="translate(524 268)"/></g><g transform="translate(-489 47)"><circle class="c" cx="1.5" cy="1.5" r="1.5" transform="translate(524 268)"/></g><g transform="translate(-482 47)"><circle class="c" cx="1.5" cy="1.5" r="1.5" transform="translate(524 268)"/></g><g transform="translate(-475 47)"><circle class="c" cx="1.5" cy="1.5" r="1.5" transform="translate(524 268)"/></g><g transform="translate(-468 47)"><circle class="c" cx="1.5" cy="1.5" r="1.5" transform="translate(524 268)"/></g><g transform="translate(-461 47)"><circle class="c" cx="1.5" cy="1.5" r="1.5" transform="translate(524 268)"/></g><g transform="translate(-454 47)"><circle class="c" cx="1.5" cy="1.5" r="1.5" transform="translate(524 268)"/></g><g transform="translate(-447 47)"><circle class="c" cx="1.5" cy="1.5" r="1.5" transform="translate(524 268)"/></g><g transform="translate(-524 54)"><circle class="c" cx="1.5" cy="1.5" r="1.5" transform="translate(524 268)"/></g><g transform="translate(-517 54)"><circle class="c" cx="1.5" cy="1.5" r="1.5" transform="translate(524 268)"/></g><g transform="translate(-510 54)"><circle class="c" cx="1.5" cy="1.5" r="1.5" transform="translate(524 268)"/></g><g transform="translate(-503 54)"><circle class="c" cx="1.5" cy="1.5" r="1.5" transform="translate(524 268)"/></g><g transform="translate(-496 54)"><circle class="c" cx="1.5" cy="1.5" r="1.5" transform="translate(524 268)"/></g><g transform="translate(-489 54)"><circle class="c" cx="1.5" cy="1.5" r="1.5" transform="translate(524 268)"/></g><g transform="translate(-482 54)"><circle class="c" cx="1.5" cy="1.5" r="1.5" transform="translate(524 268)"/></g><g transform="translate(-475 54)"><circle class="c" cx="1.5" cy="1.5" r="1.5" transform="translate(524 268)"/></g><g transform="translate(-468 54)"><circle class="c" cx="1.5" cy="1.5" r="1.5" transform="translate(524 268)"/></g><g transform="translate(-461 54)"><circle class="c" cx="1.5" cy="1.5" r="1.5" transform="translate(524 268)"/></g><g transform="translate(-454 54)"><circle class="c" cx="1.5" cy="1.5" r="1.5" transform="translate(524 268)"/></g><g transform="translate(-447 54)"><circle class="c" cx="1.5" cy="1.5" r="1.5" transform="translate(524 268)"/></g><g transform="translate(-524 61)"><circle class="c" cx="1.5" cy="1.5" r="1.5" transform="translate(524 268)"/></g><g transform="translate(-517 61)"><circle class="c" cx="1.5" cy="1.5" r="1.5" transform="translate(524 268)"/></g><g transform="translate(-510 61)"><circle class="c" cx="1.5" cy="1.5" r="1.5" transform="translate(524 268)"/></g><g transform="translate(-503 61)"><circle class="c" cx="1.5" cy="1.5" r="1.5" transform="translate(524 268)"/></g><g transform="translate(-496 61)"><circle class="c" cx="1.5" cy="1.5" r="1.5" transform="translate(524 268)"/></g><g transform="translate(-489 61)"><circle class="c" cx="1.5" cy="1.5" r="1.5" transform="translate(524 268)"/></g><g transform="translate(-482 61)"><circle class="c" cx="1.5" cy="1.5" r="1.5" transform="translate(524 268)"/></g><g transform="translate(-475 61)"><circle class="c" cx="1.5" cy="1.5" r="1.5" transform="translate(524 268)"/></g><g transform="translate(-468 61)"><circle class="c" cx="1.5" cy="1.5" r="1.5" transform="translate(524 268)"/></g><g transform="translate(-461 61)"><circle class="c" cx="1.5" cy="1.5" r="1.5" transform="translate(524 268)"/></g><g transform="translate(-454 61)"><circle class="c" cx="1.5" cy="1.5" r="1.5" transform="translate(524 268)"/></g><g transform="translate(-447 61)"><circle class="c" cx="1.5" cy="1.5" r="1.5" transform="translate(524 268)"/></g><g transform="translate(-524 68)"><circle class="c" cx="1.5" cy="1.5" r="1.5" transform="translate(524 268)"/></g><g transform="translate(-517 68)"><circle class="c" cx="1.5" cy="1.5" r="1.5" transform="translate(524 268)"/></g><g transform="translate(-510 68)"><circle class="c" cx="1.5" cy="1.5" r="1.5" transform="translate(524 268)"/></g><g transform="translate(-503 68)"><circle class="c" cx="1.5" cy="1.5" r="1.5" transform="translate(524 268)"/></g><g transform="translate(-496 68)"><circle class="c" cx="1.5" cy="1.5" r="1.5" transform="translate(524 268)"/></g><g transform="translate(-489 68)"><circle class="c" cx="1.5" cy="1.5" r="1.5" transform="translate(524 268)"/></g><g transform="translate(-482 68)"><circle class="c" cx="1.5" cy="1.5" r="1.5" transform="translate(524 268)"/></g><g transform="translate(-475 68)"><circle class="c" cx="1.5" cy="1.5" r="1.5" transform="translate(524 268)"/></g><g transform="translate(-468 68)"><circle class="c" cx="1.5" cy="1.5" r="1.5" transform="translate(524 268)"/></g><g transform="translate(-461 68)"><circle class="c" cx="1.5" cy="1.5" r="1.5" transform="translate(524 268)"/></g><g transform="translate(-454 68)"><circle class="c" cx="1.5" cy="1.5" r="1.5" transform="translate(524 268)"/></g><g transform="translate(-447 68)"><circle class="c" cx="1.5" cy="1.5" r="1.5" transform="translate(524 268)"/></g><g transform="translate(-524 75)"><circle class="c" cx="1.5" cy="1.5" r="1.5" transform="translate(524 268)"/></g><g transform="translate(-517 75)"><circle class="c" cx="1.5" cy="1.5" r="1.5" transform="translate(524 268)"/></g><g transform="translate(-510 75)"><circle class="c" cx="1.5" cy="1.5" r="1.5" transform="translate(524 268)"/></g><g transform="translate(-503 75)"><circle class="c" cx="1.5" cy="1.5" r="1.5" transform="translate(524 268)"/></g><g transform="translate(-496 75)"><circle class="c" cx="1.5" cy="1.5" r="1.5" transform="translate(524 268)"/></g><g transform="translate(-489 75)"><circle class="c" cx="1.5" cy="1.5" r="1.5" transform="translate(524 268)"/></g><g transform="translate(-482 75)"><circle class="c" cx="1.5" cy="1.5" r="1.5" transform="translate(524 268)"/></g><g transform="translate(-475 75)"><circle class="c" cx="1.5" cy="1.5" r="1.5" transform="translate(524 268)"/></g><g transform="translate(-468 75)"><circle class="c" cx="1.5" cy="1.5" r="1.5" transform="translate(524 268)"/></g><g transform="translate(-461 75)"><circle class="c" cx="1.5" cy="1.5" r="1.5" transform="translate(524 268)"/></g><g transform="translate(-454 75)"><circle class="c" cx="1.5" cy="1.5" r="1.5" transform="translate(524 268)"/></g><g transform="translate(-447 75)"><circle class="c" cx="1.5" cy="1.5" r="1.5" transform="translate(524 268)"/></g><g transform="translate(-524 82)"><circle class="c" cx="1.5" cy="1.5" r="1.5" transform="translate(524 268)"/></g><g transform="translate(-517 82)"><circle class="c" cx="1.5" cy="1.5" r="1.5" transform="translate(524 268)"/></g><g transform="translate(-510 82)"><circle class="c" cx="1.5" cy="1.5" r="1.5" transform="translate(524 268)"/></g><g transform="translate(-503 82)"><circle class="c" cx="1.5" cy="1.5" r="1.5" transform="translate(524 268)"/></g><g transform="translate(-496 82)"><circle class="c" cx="1.5" cy="1.5" r="1.5" transform="translate(524 268)"/></g><g transform="translate(-489 82)"><circle class="c" cx="1.5" cy="1.5" r="1.5" transform="translate(524 268)"/></g><g transform="translate(-482 82)"><circle class="c" cx="1.5" cy="1.5" r="1.5" transform="translate(524 268)"/></g><g transform="translate(-475 82)"><circle class="c" cx="1.5" cy="1.5" r="1.5" transform="translate(524 268)"/></g><g transform="translate(-468 82)"><circle class="c" cx="1.5" cy="1.5" r="1.5" transform="translate(524 268)"/></g><g transform="translate(-461 82)"><circle class="c" cx="1.5" cy="1.5" r="1.5" transform="translate(524 268)"/></g><g transform="translate(-454 82)"><circle class="c" cx="1.5" cy="1.5" r="1.5" transform="translate(524 268)"/></g><g transform="translate(-447 82)"><circle class="c" cx="1.5" cy="1.5" r="1.5" transform="translate(524 268)"/></g><g transform="translate(-524 89)"><circle class="c" cx="1.5" cy="1.5" r="1.5" transform="translate(524 268)"/></g><g transform="translate(-517 89)"><circle class="c" cx="1.5" cy="1.5" r="1.5" transform="translate(524 268)"/></g><g transform="translate(-510 89)"><circle class="c" cx="1.5" cy="1.5" r="1.5" transform="translate(524 268)"/></g><g transform="translate(-503 89)"><circle class="c" cx="1.5" cy="1.5" r="1.5" transform="translate(524 268)"/></g><g transform="translate(-496 89)"><circle class="c" cx="1.5" cy="1.5" r="1.5" transform="translate(524 268)"/></g><g transform="translate(-489 89)"><circle class="c" cx="1.5" cy="1.5" r="1.5" transform="translate(524 268)"/></g><g transform="translate(-482 89)"><circle class="c" cx="1.5" cy="1.5" r="1.5" transform="translate(524 268)"/></g><g transform="translate(-475 89)"><circle class="c" cx="1.5" cy="1.5" r="1.5" transform="translate(524 268)"/></g><g transform="translate(-468 89)"><circle class="c" cx="1.5" cy="1.5" r="1.5" transform="translate(524 268)"/></g><g transform="translate(-461 89)"><circle class="c" cx="1.5" cy="1.5" r="1.5" transform="translate(524 268)"/></g><g transform="translate(-454 89)"><circle class="c" cx="1.5" cy="1.5" r="1.5" transform="translate(524 268)"/></g><g transform="translate(-447 89)"><circle class="c" cx="1.5" cy="1.5" r="1.5" transform="translate(524 268)"/></g><g transform="translate(-524 96)"><circle class="c" cx="1.5" cy="1.5" r="1.5" transform="translate(524 268)"/></g><g transform="translate(-517 96)"><circle class="c" cx="1.5" cy="1.5" r="1.5" transform="translate(524 268)"/></g><g transform="translate(-510 96)"><circle class="c" cx="1.5" cy="1.5" r="1.5" transform="translate(524 268)"/></g><g transform="translate(-503 96)"><circle class="c" cx="1.5" cy="1.5" r="1.5" transform="translate(524 268)"/></g><g transform="translate(-496 96)"><circle class="c" cx="1.5" cy="1.5" r="1.5" transform="translate(524 268)"/></g><g transform="translate(-489 96)"><circle class="c" cx="1.5" cy="1.5" r="1.5" transform="translate(524 268)"/></g><g transform="translate(-482 96)"><circle class="c" cx="1.5" cy="1.5" r="1.5" transform="translate(524 268)"/></g><g transform="translate(-475 96)"><circle class="c" cx="1.5" cy="1.5" r="1.5" transform="translate(524 268)"/></g><g transform="translate(-468 96)"><circle class="c" cx="1.5" cy="1.5" r="1.5" transform="translate(524 268)"/></g><g transform="translate(-461 96)"><circle class="c" cx="1.5" cy="1.5" r="1.5" transform="translate(524 268)"/></g><g transform="translate(-454 96)"><circle class="c" cx="1.5" cy="1.5" r="1.5" transform="translate(524 268)"/></g><g transform="translate(-447 96)"><circle class="c" cx="1.5" cy="1.5" r="1.5" transform="translate(524 268)"/></g><g transform="translate(-524 103)"><circle class="c" cx="1.5" cy="1.5" r="1.5" transform="translate(524 268)"/></g><g transform="translate(-517 103)"><circle class="c" cx="1.5" cy="1.5" r="1.5" transform="translate(524 268)"/></g><g transform="translate(-510 103)"><circle class="c" cx="1.5" cy="1.5" r="1.5" transform="translate(524 268)"/></g><g transform="translate(-503 103)"><circle class="c" cx="1.5" cy="1.5" r="1.5" transform="translate(524 268)"/></g><g transform="translate(-496 103)"><circle class="c" cx="1.5" cy="1.5" r="1.5" transform="translate(524 268)"/></g><g transform="translate(-489 103)"><circle class="c" cx="1.5" cy="1.5" r="1.5" transform="translate(524 268)"/></g><g transform="translate(-482 103)"><circle class="c" cx="1.5" cy="1.5" r="1.5" transform="translate(524 268)"/></g><g transform="translate(-475 103)"><circle class="c" cx="1.5" cy="1.5" r="1.5" transform="translate(524 268)"/></g><g transform="translate(-468 103)"><circle class="c" cx="1.5" cy="1.5" r="1.5" transform="translate(524 268)"/></g><g transform="translate(-461 103)"><circle class="c" cx="1.5" cy="1.5" r="1.5" transform="translate(524 268)"/></g><g transform="translate(-454 103)"><circle class="c" cx="1.5" cy="1.5" r="1.5" transform="translate(524 268)"/></g><g transform="translate(-447 103)"><circle class="c" cx="1.5" cy="1.5" r="1.5" transform="translate(524 268)"/></g><g transform="translate(-524 110)"><circle class="c" cx="1.5" cy="1.5" r="1.5" transform="translate(524 268)"/></g><g transform="translate(-517 110)"><circle class="c" cx="1.5" cy="1.5" r="1.5" transform="translate(524 268)"/></g><g transform="translate(-510 110)"><circle class="c" cx="1.5" cy="1.5" r="1.5" transform="translate(524 268)"/></g><g transform="translate(-503 110)"><circle class="c" cx="1.5" cy="1.5" r="1.5" transform="translate(524 268)"/></g><g transform="translate(-496 110)"><circle class="c" cx="1.5" cy="1.5" r="1.5" transform="translate(524 268)"/></g><g transform="translate(-489 110)"><circle class="c" cx="1.5" cy="1.5" r="1.5" transform="translate(524 268)"/></g><g transform="translate(-482 110)"><circle class="c" cx="1.5" cy="1.5" r="1.5" transform="translate(524 268)"/></g><g transform="translate(-475 110)"><circle class="c" cx="1.5" cy="1.5" r="1.5" transform="translate(524 268)"/></g><g transform="translate(-468 110)"><circle class="c" cx="1.5" cy="1.5" r="1.5" transform="translate(524 268)"/></g><g transform="translate(-461 110)"><circle class="c" cx="1.5" cy="1.5" r="1.5" transform="translate(524 268)"/></g><g transform="translate(-454 110)"><circle class="c" cx="1.5" cy="1.5" r="1.5" transform="translate(524 268)"/></g><g transform="translate(-447 110)"><circle class="c" cx="1.5" cy="1.5" r="1.5" transform="translate(524 268)"/></g><g transform="translate(-524 117)"><circle class="c" cx="1.5" cy="1.5" r="1.5" transform="translate(524 268)"/></g><g transform="translate(-517 117)"><circle class="c" cx="1.5" cy="1.5" r="1.5" transform="translate(524 268)"/></g><g transform="translate(-510 117)"><circle class="c" cx="1.5" cy="1.5" r="1.5" transform="translate(524 268)"/></g><g transform="translate(-503 117)"><circle class="c" cx="1.5" cy="1.5" r="1.5" transform="translate(524 268)"/></g><g transform="translate(-496 117)"><circle class="c" cx="1.5" cy="1.5" r="1.5" transform="translate(524 268)"/></g><g transform="translate(-489 117)"><circle class="c" cx="1.5" cy="1.5" r="1.5" transform="translate(524 268)"/></g><g transform="translate(-482 117)"><circle class="c" cx="1.5" cy="1.5" r="1.5" transform="translate(524 268)"/></g><g transform="translate(-475 117)"><circle class="c" cx="1.5" cy="1.5" r="1.5" transform="translate(524 268)"/></g><g transform="translate(-468 117)"><circle class="c" cx="1.5" cy="1.5" r="1.5" transform="translate(524 268)"/></g><g transform="translate(-461 117)"><circle class="c" cx="1.5" cy="1.5" r="1.5" transform="translate(524 268)"/></g><g transform="translate(-454 117)"><circle class="c" cx="1.5" cy="1.5" r="1.5" transform="translate(524 268)"/></g><g transform="translate(-447 117)"><circle class="c" cx="1.5" cy="1.5" r="1.5" transform="translate(524 268)"/></g><g transform="translate(-524 124)"><circle class="c" cx="1.5" cy="1.5" r="1.5" transform="translate(524 268)"/></g><g transform="translate(-517 124)"><circle class="c" cx="1.5" cy="1.5" r="1.5" transform="translate(524 268)"/></g><g transform="translate(-510 124)"><circle class="c" cx="1.5" cy="1.5" r="1.5" transform="translate(524 268)"/></g><g transform="translate(-503 124)"><circle class="c" cx="1.5" cy="1.5" r="1.5" transform="translate(524 268)"/></g><g transform="translate(-496 124)"><circle class="c" cx="1.5" cy="1.5" r="1.5" transform="translate(524 268)"/></g><g transform="translate(-489 124)"><circle class="c" cx="1.5" cy="1.5" r="1.5" transform="translate(524 268)"/></g><g transform="translate(-482 124)"><circle class="c" cx="1.5" cy="1.5" r="1.5" transform="translate(524 268)"/></g><g transform="translate(-475 124)"><circle class="c" cx="1.5" cy="1.5" r="1.5" transform="translate(524 268)"/></g><g transform="translate(-468 124)"><circle class="c" cx="1.5" cy="1.5" r="1.5" transform="translate(524 268)"/></g><g transform="translate(-461 124)"><circle class="c" cx="1.5" cy="1.5" r="1.5" transform="translate(524 268)"/></g><g transform="translate(-454 124)"><circle class="c" cx="1.5" cy="1.5" r="1.5" transform="translate(524 268)"/></g><g transform="translate(-447 124)"><circle class="c" cx="1.5" cy="1.5" r="1.5" transform="translate(524 268)"/></g><g transform="translate(-524 131)"><circle class="c" cx="1.5" cy="1.5" r="1.5" transform="translate(524 268)"/></g><g transform="translate(-517 131)"><circle class="c" cx="1.5" cy="1.5" r="1.5" transform="translate(524 268)"/></g><g transform="translate(-510 131)"><circle class="c" cx="1.5" cy="1.5" r="1.5" transform="translate(524 268)"/></g><g transform="translate(-503 131)"><circle class="c" cx="1.5" cy="1.5" r="1.5" transform="translate(524 268)"/></g><g transform="translate(-496 131)"><circle class="c" cx="1.5" cy="1.5" r="1.5" transform="translate(524 268)"/></g><g transform="translate(-489 131)"><circle class="c" cx="1.5" cy="1.5" r="1.5" transform="translate(524 268)"/></g><g transform="translate(-482 131)"><circle class="c" cx="1.5" cy="1.5" r="1.5" transform="translate(524 268)"/></g><g transform="translate(-475 131)"><circle class="c" cx="1.5" cy="1.5" r="1.5" transform="translate(524 268)"/></g><g transform="translate(-468 131)"><circle class="c" cx="1.5" cy="1.5" r="1.5" transform="translate(524 268)"/></g><g transform="translate(-461 131)"><circle class="c" cx="1.5" cy="1.5" r="1.5" transform="translate(524 268)"/></g><g transform="translate(-454 131)"><circle class="c" cx="1.5" cy="1.5" r="1.5" transform="translate(524 268)"/></g><g transform="translate(-447 131)"><circle class="c" cx="1.5" cy="1.5" r="1.5" transform="translate(524 268)"/></g><g transform="translate(-524 138)"><circle class="c" cx="1.5" cy="1.5" r="1.5" transform="translate(524 268)"/></g><g transform="translate(-517 138)"><circle class="c" cx="1.5" cy="1.5" r="1.5" transform="translate(524 268)"/></g><g transform="translate(-510 138)"><circle class="c" cx="1.5" cy="1.5" r="1.5" transform="translate(524 268)"/></g><g transform="translate(-503 138)"><circle class="c" cx="1.5" cy="1.5" r="1.5" transform="translate(524 268)"/></g><g transform="translate(-496 138)"><circle class="c" cx="1.5" cy="1.5" r="1.5" transform="translate(524 268)"/></g><g transform="translate(-489 138)"><circle class="c" cx="1.5" cy="1.5" r="1.5" transform="translate(524 268)"/></g><g transform="translate(-482 138)"><circle class="c" cx="1.5" cy="1.5" r="1.5" transform="translate(524 268)"/></g><g transform="translate(-475 138)"><circle class="c" cx="1.5" cy="1.5" r="1.5" transform="translate(524 268)"/></g><g transform="translate(-468 138)"><circle class="c" cx="1.5" cy="1.5" r="1.5" transform="translate(524 268)"/></g><g transform="translate(-461 138)"><circle class="c" cx="1.5" cy="1.5" r="1.5" transform="translate(524 268)"/></g><g transform="translate(-454 138)"><circle class="c" cx="1.5" cy="1.5" r="1.5" transform="translate(524 268)"/></g><g transform="translate(-447 138)"><circle class="c" cx="1.5" cy="1.5" r="1.5" transform="translate(524 268)"/></g><g transform="translate(-524 145)"><circle class="c" cx="1.5" cy="1.5" r="1.5" transform="translate(524 268)"/></g><g transform="translate(-517 145)"><circle class="c" cx="1.5" cy="1.5" r="1.5" transform="translate(524 268)"/></g><g transform="translate(-510 145)"><circle class="c" cx="1.5" cy="1.5" r="1.5" transform="translate(524 268)"/></g><g transform="translate(-503 145)"><circle class="c" cx="1.5" cy="1.5" r="1.5" transform="translate(524 268)"/></g><g transform="translate(-496 145)"><circle class="c" cx="1.5" cy="1.5" r="1.5" transform="translate(524 268)"/></g><g transform="translate(-489 145)"><circle class="c" cx="1.5" cy="1.5" r="1.5" transform="translate(524 268)"/></g><g transform="translate(-482 145)"><circle class="c" cx="1.5" cy="1.5" r="1.5" transform="translate(524 268)"/></g><g transform="translate(-475 145)"><circle class="c" cx="1.5" cy="1.5" r="1.5" transform="translate(524 268)"/></g><g transform="translate(-468 145)"><circle class="c" cx="1.5" cy="1.5" r="1.5" transform="translate(524 268)"/></g><g transform="translate(-461 145)"><circle class="c" cx="1.5" cy="1.5" r="1.5" transform="translate(524 268)"/></g><g transform="translate(-454 145)"><circle class="c" cx="1.5" cy="1.5" r="1.5" transform="translate(524 268)"/></g><g transform="translate(-447 145)"><circle class="c" cx="1.5" cy="1.5" r="1.5" transform="translate(524 268)"/></g><g transform="translate(-524 152)"><circle class="c" cx="1.5" cy="1.5" r="1.5" transform="translate(524 268)"/></g><g transform="translate(-517 152)"><circle class="c" cx="1.5" cy="1.5" r="1.5" transform="translate(524 268)"/></g><g transform="translate(-510 152)"><circle class="c" cx="1.5" cy="1.5" r="1.5" transform="translate(524 268)"/></g><g transform="translate(-503 152)"><circle class="c" cx="1.5" cy="1.5" r="1.5" transform="translate(524 268)"/></g><g transform="translate(-496 152)"><circle class="c" cx="1.5" cy="1.5" r="1.5" transform="translate(524 268)"/></g><g transform="translate(-489 152)"><circle class="c" cx="1.5" cy="1.5" r="1.5" transform="translate(524 268)"/></g><g transform="translate(-482 152)"><circle class="c" cx="1.5" cy="1.5" r="1.5" transform="translate(524 268)"/></g><g transform="translate(-475 152)"><circle class="c" cx="1.5" cy="1.5" r="1.5" transform="translate(524 268)"/></g><g transform="translate(-468 152)"><circle class="c" cx="1.5" cy="1.5" r="1.5" transform="translate(524 268)"/></g><g transform="translate(-461 152)"><circle class="c" cx="1.5" cy="1.5" r="1.5" transform="translate(524 268)"/></g><g transform="translate(-454 152)"><circle class="c" cx="1.5" cy="1.5" r="1.5" transform="translate(524 268)"/></g><g transform="translate(-447 152)"><circle class="c" cx="1.5" cy="1.5" r="1.5" transform="translate(524 268)"/></g><g transform="translate(-524 159)"><circle class="c" cx="1.5" cy="1.5" r="1.5" transform="translate(524 268)"/></g><g transform="translate(-517 159)"><circle class="c" cx="1.5" cy="1.5" r="1.5" transform="translate(524 268)"/></g><g transform="translate(-510 159)"><circle class="c" cx="1.5" cy="1.5" r="1.5" transform="translate(524 268)"/></g><g transform="translate(-503 159)"><circle class="c" cx="1.5" cy="1.5" r="1.5" transform="translate(524 268)"/></g><g transform="translate(-496 159)"><circle class="c" cx="1.5" cy="1.5" r="1.5" transform="translate(524 268)"/></g><g transform="translate(-489 159)"><circle class="c" cx="1.5" cy="1.5" r="1.5" transform="translate(524 268)"/></g><g transform="translate(-482 159)"><circle class="c" cx="1.5" cy="1.5" r="1.5" transform="translate(524 268)"/></g><g transform="translate(-475 159)"><circle class="c" cx="1.5" cy="1.5" r="1.5" transform="translate(524 268)"/></g><g transform="translate(-468 159)"><circle class="c" cx="1.5" cy="1.5" r="1.5" transform="translate(524 268)"/></g><g transform="translate(-461 159)"><circle class="c" cx="1.5" cy="1.5" r="1.5" transform="translate(524 268)"/></g><g transform="translate(-454 159)"><circle class="c" cx="1.5" cy="1.5" r="1.5" transform="translate(524 268)"/></g><g transform="translate(-447 159)"><circle class="c" cx="1.5" cy="1.5" r="1.5" transform="translate(524 268)"/></g><g transform="translate(-524 166)"><circle class="c" cx="1.5" cy="1.5" r="1.5" transform="translate(524 268)"/></g><g transform="translate(-517 166)"><circle class="c" cx="1.5" cy="1.5" r="1.5" transform="translate(524 268)"/></g><g transform="translate(-510 166)"><circle class="c" cx="1.5" cy="1.5" r="1.5" transform="translate(524 268)"/></g><g transform="translate(-503 166)"><circle class="c" cx="1.5" cy="1.5" r="1.5" transform="translate(524 268)"/></g><g transform="translate(-496 166)"><circle class="c" cx="1.5" cy="1.5" r="1.5" transform="translate(524 268)"/></g><g transform="translate(-489 166)"><circle class="c" cx="1.5" cy="1.5" r="1.5" transform="translate(524 268)"/></g><g transform="translate(-482 166)"><circle class="c" cx="1.5" cy="1.5" r="1.5" transform="translate(524 268)"/></g><g transform="translate(-475 166)"><circle class="c" cx="1.5" cy="1.5" r="1.5" transform="translate(524 268)"/></g><g transform="translate(-468 166)"><circle class="c" cx="1.5" cy="1.5" r="1.5" transform="translate(524 268)"/></g><g transform="translate(-461 166)"><circle class="c" cx="1.5" cy="1.5" r="1.5" transform="translate(524 268)"/></g><g transform="translate(-454 166)"><circle class="c" cx="1.5" cy="1.5" r="1.5" transform="translate(524 268)"/></g><g transform="translate(-447 166)"><circle class="c" cx="1.5" cy="1.5" r="1.5" transform="translate(524 268)"/></g><g transform="translate(-524 173)"><circle class="c" cx="1.5" cy="1.5" r="1.5" transform="translate(524 268)"/></g><g transform="translate(-517 173)"><circle class="c" cx="1.5" cy="1.5" r="1.5" transform="translate(524 268)"/></g><g transform="translate(-510 173)"><circle class="c" cx="1.5" cy="1.5" r="1.5" transform="translate(524 268)"/></g><g transform="translate(-503 173)"><circle class="c" cx="1.5" cy="1.5" r="1.5" transform="translate(524 268)"/></g><g transform="translate(-496 173)"><circle class="c" cx="1.5" cy="1.5" r="1.5" transform="translate(524 268)"/></g><g transform="translate(-489 173)"><circle class="c" cx="1.5" cy="1.5" r="1.5" transform="translate(524 268)"/></g><g transform="translate(-482 173)"><circle class="c" cx="1.5" cy="1.5" r="1.5" transform="translate(524 268)"/></g><g transform="translate(-475 173)"><circle class="c" cx="1.5" cy="1.5" r="1.5" transform="translate(524 268)"/></g><g transform="translate(-468 173)"><circle class="c" cx="1.5" cy="1.5" r="1.5" transform="translate(524 268)"/></g><g transform="translate(-461 173)"><circle class="c" cx="1.5" cy="1.5" r="1.5" transform="translate(524 268)"/></g><g transform="translate(-454 173)"><circle class="c" cx="1.5" cy="1.5" r="1.5" transform="translate(524 268)"/></g><g transform="translate(-447 173)"><circle class="c" cx="1.5" cy="1.5" r="1.5" transform="translate(524 268)"/></g><g transform="translate(-524 180)"><circle class="c" cx="1.5" cy="1.5" r="1.5" transform="translate(524 268)"/></g><g transform="translate(-517 180)"><circle class="c" cx="1.5" cy="1.5" r="1.5" transform="translate(524 268)"/></g><g transform="translate(-510 180)"><circle class="c" cx="1.5" cy="1.5" r="1.5" transform="translate(524 268)"/></g><g transform="translate(-503 180)"><circle class="c" cx="1.5" cy="1.5" r="1.5" transform="translate(524 268)"/></g><g transform="translate(-496 180)"><circle class="c" cx="1.5" cy="1.5" r="1.5" transform="translate(524 268)"/></g><g transform="translate(-489 180)"><circle class="c" cx="1.5" cy="1.5" r="1.5" transform="translate(524 268)"/></g><g transform="translate(-482 180)"><circle class="c" cx="1.5" cy="1.5" r="1.5" transform="translate(524 268)"/></g><g transform="translate(-475 180)"><circle class="c" cx="1.5" cy="1.5" r="1.5" transform="translate(524 268)"/></g><g transform="translate(-468 180)"><circle class="c" cx="1.5" cy="1.5" r="1.5" transform="translate(524 268)"/></g><g transform="translate(-461 180)"><circle class="c" cx="1.5" cy="1.5" r="1.5" transform="translate(524 268)"/></g><g transform="translate(-454 180)"><circle class="c" cx="1.5" cy="1.5" r="1.5" transform="translate(524 268)"/></g><g transform="translate(-447 180)"><circle class="c" cx="1.5" cy="1.5" r="1.5" transform="translate(524 268)"/></g><g transform="translate(-524 187)"><circle class="c" cx="1.5" cy="1.5" r="1.5" transform="translate(524 268)"/></g><g transform="translate(-517 187)"><circle class="c" cx="1.5" cy="1.5" r="1.5" transform="translate(524 268)"/></g><g transform="translate(-510 187)"><circle class="c" cx="1.5" cy="1.5" r="1.5" transform="translate(524 268)"/></g><g transform="translate(-503 187)"><circle class="c" cx="1.5" cy="1.5" r="1.5" transform="translate(524 268)"/></g><g transform="translate(-496 187)"><circle class="c" cx="1.5" cy="1.5" r="1.5" transform="translate(524 268)"/></g><g transform="translate(-489 187)"><circle class="c" cx="1.5" cy="1.5" r="1.5" transform="translate(524 268)"/></g><g transform="translate(-482 187)"><circle class="c" cx="1.5" cy="1.5" r="1.5" transform="translate(524 268)"/></g><g transform="translate(-475 187)"><circle class="c" cx="1.5" cy="1.5" r="1.5" transform="translate(524 268)"/></g><g transform="translate(-468 187)"><circle class="c" cx="1.5" cy="1.5" r="1.5" transform="translate(524 268)"/></g><g transform="translate(-461 187)"><circle class="c" cx="1.5" cy="1.5" r="1.5" transform="translate(524 268)"/></g><g transform="translate(-454 187)"><circle class="c" cx="1.5" cy="1.5" r="1.5" transform="translate(524 268)"/></g><g transform="translate(-447 187)"><circle class="c" cx="1.5" cy="1.5" r="1.5" transform="translate(524 268)"/></g></g></svg>