<svg xmlns="http://www.w3.org/2000/svg" xmlns:xlink="http://www.w3.org/1999/xlink" width="857.386" height="983.3" viewBox="0 0 857.386 983.3"><defs><style>.a{opacity:0.08;}.b{fill:url(#a);}.c{fill:#fff;}</style><linearGradient id="a" x1="0.5" x2="0.5" y2="1" gradientUnits="objectBoundingBox"><stop offset="0" stop-color="#fff"/><stop offset="0.054" stop-color="#b2afaf"/><stop offset="0.089"/><stop offset="0.123"/><stop offset="1" stop-color="#404040"/></linearGradient></defs><g transform="translate(-211 -1910.7)"><g class="a" transform="translate(172.351 1886.013)"><path class="b" d="M250.8,402.4l15.717-15.72V333.857l15.372-15.37V292.221a6.356,6.356,0,1,0-2.257,0v25.332l-14.244,14.241-11.675-11.675v-27.9a6.356,6.356,0,1,0-2.257,0v28.833l12.8,12.8v51.89l-14.117,14.117-45.584-45.584v-65.4l17.2-17.2V200.882a6.356,6.356,0,1,0-2.257,0v69.855l-16.076,16.076-23.574-23.576V234.626l22.066-22.071V143.181l35.655-35.655a6.34,6.34,0,1,0-1.6-1.6l-36.317,36.314v69.377l-19.809,19.814V139.445a7.484,7.484,0,1,0-2.257,0v66.6L151.471,179.91V116.923a6.326,6.326,0,1,0-2.257,0v63.924L177.6,209.233v54.939l24.7,24.7v63.147l-19.432-19.432V298.962L147.5,263.591v-47.64a6.319,6.319,0,1,0-2.257,0v45.383L124.27,240.361V215.568l-17.349-17.349V154.35a6.319,6.319,0,1,0-2.257,0v44.8L122.014,216.5v21.6L64.782,180.872a6.373,6.373,0,1,0-1.6,1.6l44.521,44.521H71.2L54.591,210.381a6.348,6.348,0,1,0-1.6,1.593l16.139,16.142L53.106,244.146a6.332,6.332,0,1,0,1.6,1.6l16.5-16.5h38.765L180.615,299.9v30.437l-26.253-26.253a6.34,6.34,0,1,0-1.6,1.6l28.178,28.18,67.6,67.6v40.352L403.235,596.5v298.44h2.257V595.565L250.8,440.875ZM173.5,132.076a5.226,5.226,0,1,1,5.227,5.227A5.233,5.233,0,0,1,173.5,132.076Z" transform="translate(5.571 89.659)"/><path class="b" d="M185.257,328.457l-70.106-70.1V221.936L95.367,202.149v-10.73a7.484,7.484,0,1,0-2.257,0v11.666l19.784,19.784v34.823H92.049L71.271,236.915a6.373,6.373,0,1,0-1.6,1.6l21.439,21.439h22.441l44.2,44.2H130.047l-15.729-15.729a6.332,6.332,0,1,0-1.6,1.6l16.39,16.39h30.9l24.31,24.31h26.842l167.55,167.552V793.7h2.257V497.332L212.1,328.457ZM89.011,184.048a5.227,5.227,0,1,1,5.227,5.227A5.233,5.233,0,0,1,89.011,184.048Z" transform="translate(26.46 190.903)"/><path class="b" d="M230.834,298.905l-38.167-38.167h-91.63a6.358,6.358,0,1,0,0,2.257h88.439L177.13,275.343H70.224a6.353,6.353,0,1,0,0,2.257h107.84L192.2,263.462l21.626,21.626H88.914l-11.3,11.3a6.372,6.372,0,1,0,1.6,1.6l10.642-10.642H216.082L229.9,301.162h46.913L377.687,402.039V694.462h2.257V401.107l-102.2-102.2Z" transform="translate(23.853 290.138)"/><path class="b" d="M242.733,312.977l-22.414-22.412H147.476a6.317,6.317,0,1,0,0,2.257h71.909l20.157,20.155H115.58L90.336,287.733a6.372,6.372,0,1,0-1.6,1.6l25.905,25.905h90.411L184.65,335.639H124.906a6.319,6.319,0,1,0,0,2.257h60.678l22.664-22.662h77.382l61.856,61.856V666.5h2.257V376.154l-63.179-63.177Z" transform="translate(50.424 318.098)"/><path class="b" d="M287.992,327.092l-16.934-16.936a6.341,6.341,0,1,0-1.6,1.6L284.8,327.092H203.882l-7.773-7.773H74.843l-9.035-9.032c.095-.131.219-.233.307-.368a7.674,7.674,0,0,0,.4-7.471,6.668,6.668,0,0,0-3.275-3.273A7.561,7.561,0,0,0,53.1,309.319a6.686,6.686,0,0,0,3.275,3.273,8.149,8.149,0,0,0,3.433.776,7.4,7.4,0,0,0,4.394-1.492l9.7,9.7H195.175l6.645,6.645-18.665,18.665H110.912l-10.219,10.22a6.372,6.372,0,1,0,1.6,1.6l9.558-9.558h45.272l-14.675,14.67a6.325,6.325,0,1,0,1.6,1.6l16.268-16.266h23.779l19.793-19.793H305.427l-31.442,31.442H238.425a6.319,6.319,0,1,0,0,2.257H274.92l33.7-33.7h43.706l24.763,24.766v286.4h2.257V353.18l-26.086-26.088ZM57.32,310.542a4.483,4.483,0,0,1-2.167-2.167,5.445,5.445,0,0,1,.253-5.308,5.21,5.21,0,0,1,4.406-2.41,5.95,5.95,0,0,1,2.489.569,4.474,4.474,0,0,1,2.167,2.167,5.306,5.306,0,0,1-7.148,7.15Z" transform="translate(17.19 344.082)"/><path class="b" d="M398.793,388.859l67.6-67.6,35.486-35.484a6.383,6.383,0,1,0-1.6-1.6L466.72,317.74v-48.6l21.651-21.651h57.451l6.624-6.622a6.344,6.344,0,1,0-1.6-1.6l-5.963,5.963H490.628l40.284-40.282h31.837l14.946-14.948a6.34,6.34,0,1,0-1.6-1.6L561.815,202.7H533.17l41.745-41.747a6.381,6.381,0,1,0-1.6-1.6L529.978,202.7h-.014v.011l-25.255,25.255V202.739a6.317,6.317,0,1,0-2.257,0V230.22l-37.989,37.989v22.055l-20.186-20.186a6.357,6.357,0,1,0-1.6,1.6l21.782,21.78V320l-67.928,67.928v40.354L241.844,582.971v244.9H244.1V583.905L398.793,429.213Z" transform="translate(255.407 156.731)"/><path class="b" d="M433.617,321.719l38.17-38.17h60.021l19.2,19.2a6.332,6.332,0,1,0,1.6-1.6l-17.6-17.6h65l20.177-20.173a6.336,6.336,0,1,0-1.6-1.6L599.07,281.292H503.741l16.266-16.266h49.716a6.317,6.317,0,1,0,0-2.257H519.072l-18.523,18.523h-29.7l-38.167,38.17H385.772L245.062,460.17V699.048h2.257V461.1L386.706,321.719Z" transform="translate(259.452 285.552)"/><path class="b" d="M438.723,333.836l29.525-29.526,21.161,21.161h44.306a6.36,6.36,0,1,0,0-2.257H490.344l-19.371-19.371H588.781l18.645,18.645a6.341,6.341,0,1,0,1.6-1.6l-18.178-18.178,20.5-20.5a7.544,7.544,0,1,0-1.6-1.6l-20.967,20.967h-121l-29.993,29.993H357.08L246.672,441.99V677.86h2.257V442.924L358.014,333.836Zm177.038-62.858a5.227,5.227,0,1,1-5.227,5.225A5.233,5.233,0,0,1,615.761,270.978Z" transform="translate(261.476 306.74)"/><path class="b" d="M219.011,360.006,199.355,340.35l15.426-15.426V294.683a6.356,6.356,0,1,0-2.257,0v29.307l-13.637,13.637V209.079a7.484,7.484,0,1,0-2.257,0v56.361l-14.916-14.919V166.876l20.843-20.845V79.561a6.32,6.32,0,1,0-2.257,0V145.1l-18.586,18.586V117.153a6.356,6.356,0,1,0-2.257,0v134.3l17.173,17.175v72.186l20.123,20.123V447.2l42.681,42.686V931.368h2.257V488.955l-42.681-42.686Zm-26.479-158.3a5.227,5.227,0,1,1,5.227,5.227A5.234,5.234,0,0,1,192.533,201.71Z" transform="translate(170.421 53.232)"/><path class="b" d="M241.221,397.892l35.689-35.687V325.834L260.479,309.4V274.13a6.356,6.356,0,1,0-2.257,0v36.208l16.431,16.431v34.5l-34.561,34.561L229.1,384.836V289.543l10.775-10.777V240.51l39.285-39.282a7.544,7.544,0,1,0-1.6-1.6l-39.946,39.944v38.255l-9.646,9.648-15.307-15.309V201.49l37.592-37.59a6.34,6.34,0,1,0-1.6-1.6l-36,35.994V146.341l21.019-21.019V47.757a6.322,6.322,0,1,0-2.257,0v76.63L212.663,143.15v-50.9L192.917,72.5a6.34,6.34,0,1,0-1.6,1.6l19.085,19.085V200.555l-.217.219.217.217v72.114l16.435,16.437V385.77l12.122,12.122v95.722L254.047,508.7V971.347H256.3V507.765L241.221,492.68Zm42.354-207.9a5.227,5.227,0,1,1-5.227,5.227A5.233,5.233,0,0,1,283.575,189.988Z" transform="translate(179.443 13.253)"/><path class="b" d="M240.936,345.442l8.479-8.482a6.372,6.372,0,1,0-1.6-1.6l-6.884,6.886V303.072L256.5,287.508V218l-16.451-16.451a6.372,6.372,0,1,0-1.6,1.6l15.79,15.79v67.641l-13.3,13.3V247.086l-17.864-17.864a6.372,6.372,0,1,0-1.6,1.6l17.2,17.2v51.858l-18.263-18.263a6.372,6.372,0,1,0-1.6,1.6l19.859,19.861v80.479l-15.485,15.485v375.8h2.257V399.97l15.485-15.485Z" transform="translate(213.928 209.767)"/><path class="b" d="M233.219,509.387l15.625-15.623V452.943l17.117-17.119V315.689l12.874-12.874V268.55l21.811-21.811V152.287l-14.268-14.268V124.786a6.358,6.358,0,1,0-2.257,0v14.167l14.268,14.268V245.8l-19.554,19.554V249.379L257.165,227.71v-5.117l18.318-18.317v-33.96a6.356,6.356,0,1,0-2.257,0v33.026L257.165,219.4V125.87a6.356,6.356,0,1,0-2.257,0V228.647l21.669,21.667v51.567L263.7,314.754V434.89l-17.117,17.119V492.83l-15.625,15.623v27.682l-14.151,14.153V874.615h2.257V551.222l14.151-14.153Z" transform="translate(223.942 109.985)"/><path class="b" d="M257.941,637.584l27.28-27.28V508.064l26.4-26.4V379.124l16.841-16.839v-42.65l31.473-31.476V155.085l21.771-21.768a6.332,6.332,0,1,0-1.6-1.6l-22.432,22.43v59.875l-28.487-28.487V54.874a6.319,6.319,0,1,0-2.257,0V127.95l-24.423-24.425V75.507a6.313,6.313,0,1,0-2.257,0v28.95l26.68,26.682v55.332l30.744,30.744v70.009L326.205,318.7v42.65l-14.584,14.582V290.279l14.964-14.964v-36.98a7.486,7.486,0,1,0-2.257,0v36.046l-13.835,13.835-16.9-16.907V165.738a6.356,6.356,0,1,0-2.257,0V272.244l18.033,18.035V480.73l-26.4,26.4V609.37l-27.28,27.28v50.159l-24.253,24.253V962.4h2.257V712l24.253-24.253Zm62.285-406.618a5.227,5.227,0,1,1,5.229,5.227A5.234,5.234,0,0,1,320.226,230.966Z" transform="translate(242.319 22.202)"/><path class="b" d="M303.491,409.856l33.073-33.073V314.7l17.577-17.577V275.03a6.356,6.356,0,1,0-2.257,0v21.154l-15.32,15.32V261.795l29.216-29.219V206.26a6.353,6.353,0,1,0-2.257,0v23.125l-18.112-18.114V177a6.353,6.353,0,1,0-2.257,0v35.2l19.9,19.9-28.749,28.751V375.848l-33.073,33.073V492.46L233.04,560.652V808.98H235.3V561.586l68.194-68.192Z" transform="translate(244.341 175.619)"/><path class="b" d="M327.558,558.255,358.311,527.5V477.319l32.877-32.875V297.918l27.539-27.539v-45.8l15.167-15.167V84.344a6.356,6.356,0,1,0-2.257,0V160.3l-37.411-37.409a6.348,6.348,0,1,0-1.6,1.593l39.007,39.007v44.986L417.6,222.513l-31.32-31.32a6.381,6.381,0,1,0-1.6,1.6l31.787,31.787v44.868L390.06,295.853l-16.839-16.839V246.392a6.358,6.358,0,1,0-2.257,0v33.556l17.968,17.97V443.51l-32.877,32.875v50.183L325.3,557.321V589.48l-90.653,90.648v245.32H236.9V681.063l90.653-90.648Z" transform="translate(246.362 59.151)"/><path class="b" d="M369.078,477.8l56.882-56.882V337.13L541.994,221.1h0l.086-.086.244-.246h0l18.825-18.825a7.525,7.525,0,1,0-1.6-1.6l-17.23,17.232V158.381a6.356,6.356,0,1,0-2.257,0v61.45l-30.679,30.677V203.766a6.317,6.317,0,1,0-2.257,0v49l-24.592,24.592L463.861,258.68V208.973a6.311,6.311,0,1,0-2.257,0v50.639l19.34,19.34L425.96,333.939V305.957l20.073-20.073V109.563l11.531-11.531a6.372,6.372,0,1,0-1.6-1.6l-12.192,12.192v176.32L423.7,305.022v84l-18.527-18.527v-41.3a7.486,7.486,0,1,0-2.257,0v42.237L423.7,392.213v27.77l-56.882,56.882v57.214L236.258,664.644V906.953h2.257V665.578L369.078,535.013ZM565.539,190.764a5.19,5.19,0,1,1-5.191,5.191A5.2,5.2,0,0,1,565.539,190.764ZM398.818,321.823a5.228,5.228,0,1,1,5.229,5.227A5.234,5.234,0,0,1,398.818,321.823Z" transform="translate(248.386 77.647)"/><path class="b" d="M240.178,423.845l28.393-28.393V305.186L298.6,275.155V195.186a6.358,6.358,0,1,0-2.257,0v76.777l-15.555-15.555v-21.7a7.484,7.484,0,1,0-2.257,0v22.637l17.345,17.345-29.564,29.564v90.267l-28.393,28.393v79.052l-14.666,14.666v269.5h2.257V517.563L240.178,502.9Zm34.256-196.509a5.226,5.226,0,1,1,5.227,5.227A5.233,5.233,0,0,1,274.434,227.337Z" transform="translate(232.042 198.475)"/><path class="b" d="M241.785,433.49l40.686-40.684V286.882l22.759-22.759V217.09a6.356,6.356,0,1,0-2.257,0v46.1l-22.759,22.759V391.871l-40.686,40.684v44.886L224.865,492.1V758.593h2.257V493.039l14.663-14.663Z" transform="translate(234.065 226.007)"/><path class="b" d="M268.707,462.419V438.026a6.356,6.356,0,1,0-2.257,0V459.7l-18.782-18.785V403.5a6.356,6.356,0,1,0-2.257,0v38.341l21.039,21.042v26.533l-27.469-27.467V385.446l-23.01-23.012V253.385a6.341,6.341,0,1,0-2.257-.007v66.253l-8.9-8.9a6.38,6.38,0,1,0-1.6,1.6l10.5,10.5v40.546l23.01,23.012V459.7l-28.377-28.379V406.664l7.658-7.658v-6.85a6.356,6.356,0,1,0-2.257,0v5.915l-7.658,7.658v23.33L190.321,413.29V271.977l8.17-8.172V110.923a6.356,6.356,0,1,0-2.257,0V262.871l-7.042,7.044-41.079-41.079L171.9,205.052V163.018a6.356,6.356,0,1,0-2.257,0v41.1l-21.994,21.994V183.733a7.484,7.484,0,1,0-2.257,0V229.3l42.675,42.675V414.224L300.045,526.208V892.04H302.3V525.273l-33.595-33.6ZM141.291,176.364a5.227,5.227,0,1,1,5.227,5.227A5.234,5.234,0,0,1,141.291,176.364Z" transform="translate(126.18 92.56)"/><path class="b" d="M162.1,321.6V282.583a7.484,7.484,0,1,0-2.257,0v38.086l-10.215,10.217V252.96L170,232.591V189.966a6.356,6.356,0,1,0-2.257,0v41.69L147.37,252.026v82.052L280.485,467.191v325.5h2.257V466.256L150.094,333.61Zm-6.356-46.389a5.227,5.227,0,1,1,5.227,5.227A5.233,5.233,0,0,1,155.743,275.214Z" transform="translate(136.658 191.913)"/><path class="b" d="M632.252,256.457a6.346,6.346,0,0,0-5.216,9.978l-22.944,22.942v-33.2a6.32,6.32,0,1,0-2.257,0v35.455L575.566,317.9H525.308l27.573-27.576V269.02a6.32,6.32,0,1,0-2.257,0v20.374L522.117,317.9H487.01v-23.93l63.82-63.82h46.245L622.9,204.329a6.332,6.332,0,1,0-1.6-1.6L596.141,227.9H553.087l22.8-22.8a8.528,8.528,0,0,0,4.5,1.386,7.442,7.442,0,0,0,6.71-4.166,8.154,8.154,0,0,0-1.158-8.658l-.214-.214a8.835,8.835,0,0,0-5.338-1.93,7.445,7.445,0,0,0-6.71,4.166,7.957,7.957,0,0,0,.6,7.829l-89.533,89.533v25.526l-43.99,43.99V328.269l26.494-26.494V286.4a6.356,6.356,0,1,0-2.257,0v14.438l-26.494,26.494V364.15H412.325L243.453,533.023V774.912h2.257V533.957l167.55-167.55H440.1l46.247-46.247H576.5l52.129-52.129a6.353,6.353,0,1,0,3.62-11.574Zm-56.544-59.782c1.46-2.957,5.406-3.83,8.534-1.53a5.835,5.835,0,0,1,.837,6.166c-1.463,2.954-5.408,3.828-8.534,1.53A5.835,5.835,0,0,1,575.708,196.675Z" transform="translate(257.43 209.688)"/><path class="b" d="M212.411,154.547a6.356,6.356,0,1,0,3.62,11.571l12.032,12.032v29.866l-6.881,6.879a7.552,7.552,0,1,0,1.6,1.6l7.543-7.54V177.216l-12.693-12.693a6.349,6.349,0,0,0-5.216-9.976Zm4.354,71.588a5.228,5.228,0,1,1,5.229-5.227A5.233,5.233,0,0,1,216.764,226.135Z" transform="translate(210.422 163.228)"/><path class="b" d="M237.84,157.947a6.357,6.357,0,1,0-7.486,6.243v44.017l10.815,10.815v18.87a6.362,6.362,0,1,0,2.257,0V218.088l-10.815-10.815V164.189A6.348,6.348,0,0,0,237.84,157.947Z" transform="translate(234.395 159.513)"/><path class="b" d="M181.9,190.486a6.356,6.356,0,1,0,3.62,11.571l9.463,9.463v28.9a6.356,6.356,0,1,0,2.257,0V210.586l-10.125-10.125a6.347,6.347,0,0,0-5.216-9.976Z" transform="translate(172.07 208.402)"/><path class="b" d="M166.4,248.88a6.357,6.357,0,1,0,3.62,11.571l61.965,61.967a7.414,7.414,0,0,0-1.472,4.415,7.544,7.544,0,1,0,3.067-6.013l-61.965-61.965a6.347,6.347,0,0,0-5.216-9.976Zm71.6,72.726a5.227,5.227,0,1,1-5.225,5.227A5.234,5.234,0,0,1,237.994,321.606Z" transform="translate(152.587 281.801)"/><path class="b" d="M112.674,213.523a6.356,6.356,0,1,0-7.484,6.241v19.331l32.6,32.6a6.372,6.372,0,1,0,1.6-1.6L107.447,238.16v-18.4A6.344,6.344,0,0,0,112.674,213.523Z" transform="translate(77.069 229.369)"/><path class="b" d="M148.613,212.079a6.356,6.356,0,1,0-3.62-11.571l-8.229-8.229V146.866a6.349,6.349,0,1,0-2.257,0v46.344l8.89,8.89a6.347,6.347,0,0,0,5.216,9.976Z" transform="translate(113.919 137.741)"/><path class="b" d="M149.959,259.249a6.354,6.354,0,1,0-3.62-11.569l-18.053-18.053V195.889a7.484,7.484,0,1,0-2.257,0V230.56l18.715,18.712a6.347,6.347,0,0,0,5.216,9.976ZM121.93,188.52a5.227,5.227,0,1,1,5.227,5.227A5.233,5.233,0,0,1,121.93,188.52Z" transform="translate(101.844 196.524)"/><path class="b" d="M309.754,213.616a6.356,6.356,0,1,0-2.257,0v57.336L293.73,284.717a7.411,7.411,0,0,0-4.417-1.471,7.544,7.544,0,1,0,6.015,3.067l14.426-14.427Zm-20.441,82.34a5.227,5.227,0,1,1,5.229-5.225A5.233,5.233,0,0,1,289.313,295.957Z" transform="translate(305.667 221.64)"/><path class="b" d="M347.973,112.673v73.732l25.228-25.23V143.35a6.356,6.356,0,1,0-2.257,0v16.891L350.23,180.958V112.671a7.479,7.479,0,1,0-2.257,0Zm1.128-12.6a5.227,5.227,0,1,1-5.229,5.227A5.233,5.233,0,0,1,349.1,100.075Z" transform="translate(380.815 91.922)"/><path class="b" d="M289.865,256.917a6.376,6.376,0,1,0-5.216-2.738L267.13,271.7a6.287,6.287,0,0,0-3.618-1.14,6.377,6.377,0,1,0,5.214,2.735l17.519-17.518A6.323,6.323,0,0,0,289.865,256.917Z" transform="translate(274.655 275.923)"/><path class="b" d="M289.465,62.3v44.821l27.386-27.386a6.372,6.372,0,1,0-1.6-1.6l-23.533,23.533V62.3a6.358,6.358,0,1,0-2.257,0Z" transform="translate(308.692 31.445)"/><path class="b" d="M205.972,85.149a6.35,6.35,0,0,0,5.229,6.24v28.6l17.652,17.652,26.113-26.111h0l.117-.122.212-.21h0L284.9,81.589V37.213a6.32,6.32,0,1,0-2.257,0V80.655L255.3,108.009V57.724a6.356,6.356,0,1,0-2.257,0v52.542l-24.186,24.186-15.395-15.4V91.389a6.35,6.35,0,1,0-7.486-6.24Z" transform="translate(210.318 0)"/><path class="b" d="M165.592,132.615a7.469,7.469,0,0,0,1.128-14.855V97.234l26.711-26.711a6.38,6.38,0,1,0-1.6-1.6L164.464,96.3v21.461a7.469,7.469,0,0,0,1.128,14.855Zm0-12.711a5.227,5.227,0,1,1-5.227,5.227A5.233,5.233,0,0,1,165.592,119.9Z" transform="translate(150.155 43.07)"/><path class="b" d="M281.849,71.164v57.182l-24.371,24.373V88.385a6.319,6.319,0,1,0-2.257,0v64.335l-23.9-23.9V104.831a6.322,6.322,0,1,0-2.257,0v24.924l27.282,27.284,27.756-27.758V71.164a6.317,6.317,0,1,0-2.257,0Z" transform="translate(232.821 42.675)"/><path class="b" d="M175.693,86.081v58.974L135.5,185.249v-8.985a6.316,6.316,0,1,0-2.257,0V190.7L177.95,145.99V86.081a6.319,6.319,0,1,0-2.257,0Z" transform="translate(112.374 61.425)"/><path class="b" d="M66.751,306.257l28.787-28.787h23.967l42.465,42.462h66.765l20.845,20.85a7.4,7.4,0,0,0-1.472,4.415,7.484,7.484,0,1,0,7.484-7.486,7.4,7.4,0,0,0-4.417,1.476l-21.507-21.511H162.9L56.714,211.485a7.557,7.557,0,1,0-1.6,1.6l62.132,62.132H74.2l-22-22a6.332,6.332,0,1,0-1.6,1.6l22.664,22.664H92.347L65.155,304.661a6.332,6.332,0,1,0,1.6,1.6Zm188.842,33.71a5.227,5.227,0,1,1-5.227,5.229A5.234,5.234,0,0,1,255.593,339.967ZM50.7,212.3a5.227,5.227,0,1,1,5.227-5.227A5.233,5.233,0,0,1,50.7,212.3Z" transform="translate(2.565 219.838)"/><path class="b" d="M621.48,334.22a6.314,6.314,0,0,0-6.207,5.191h-36.05L559.4,319.586l8.552-8.552a7.558,7.558,0,1,0-1.6-1.6l-9.019,9.021H487.977l-7.773,7.773H435.071l14.264-14.264a6.332,6.332,0,1,0-1.6-1.6l-15.86,15.86H330.827l-82.546,82.546V641.638h2.257V409.711l81.223-81.223h60.179l26.154,26.158h38.939l21.091,21.089a6.332,6.332,0,1,0,1.6-1.6l-21.753-21.75H419.029l-23.9-23.9H480.2l19.18,19.18h47.929l11.666,11.666a6.381,6.381,0,1,0,1.6-1.6L548.246,345.41H500.318l-18.051-18.051,6.644-6.644h68.424l20.953,20.954h36.985a6.313,6.313,0,1,0,6.207-7.448Zm-49.116-34.425a5.227,5.227,0,1,1-5.225,5.227A5.233,5.233,0,0,1,572.364,299.795Z" transform="translate(263.498 342.962)"/><path class="b" d="M51.288,203.685a6.276,6.276,0,0,0-1.128-3.593l13.849-13.849v24.418a6.319,6.319,0,1,0,2.257,0V183.986l11.258-11.26H109.8a6.32,6.32,0,1,0,0-2.257H76.588L48.564,198.5a6.314,6.314,0,1,0,2.724,5.189Z" transform="translate(0 176.717)"/><path class="b" d="M85.483,225.453a6.319,6.319,0,1,0-3.593-11.51L67.423,199.478V187.227a6.317,6.317,0,1,0-2.257,0v13.185l15.128,15.126a6.31,6.31,0,0,0,5.189,9.915Z" transform="translate(26.808 188.561)"/></g><rect class="c" width="238" height="181" transform="translate(525 2713)"/></g></svg>