<svg xmlns="http://www.w3.org/2000/svg" width="65" height="65" viewBox="0 0 65 65"><defs><style>.a{fill:#f5f6f6;stroke:#58595b;opacity:0;}.b{stroke:none;}.c{fill:none;}</style></defs><g transform="translate(-365 -3041)"><g class="a" transform="translate(365 3041)"><circle class="b" cx="32.5" cy="32.5" r="32.5"/><circle class="c" cx="32.5" cy="32.5" r="32"/></g><g transform="translate(365.554 3042.293)"><g transform="translate(7.737 7.998)"><path d="M41.4,34.351A1.176,1.176,0,1,0,41.4,32a9.4,9.4,0,1,0,9.4,9.4,1.176,1.176,0,0,0-2.351,0A7.054,7.054,0,1,1,41.4,34.351Z" transform="translate(-17.738 -17.892)"/><path d="M53.834,24.529a1.176,1.176,0,1,0-2.245.7A21.24,21.24,0,1,1,37.684,11.325a1.175,1.175,0,1,0,.7-2.243A23.589,23.589,0,1,0,53.834,24.529Z" transform="translate(-7.737 -7.998)"/><path d="M38.7,21.339a1.272,1.272,0,0,0-1.176-1.279c-.351-.031-.7-.06-1.063-.06A16.458,16.458,0,1,0,52.917,36.458a10.409,10.409,0,0,0-.078-1.272,1.184,1.184,0,1,0-2.324.412c.025.285.05.568.05.86A14.107,14.107,0,1,1,36.458,22.351c.292,0,.574.026.859.05l.22.02a1.112,1.112,0,0,0,1.16-1.083Z" transform="translate(-12.792 -12.945)"/><path d="M54.229,20.229v4.216L46.344,32.33a1.176,1.176,0,1,0,1.662,1.662l7.885-7.885h4.216a1.175,1.175,0,0,0,.831-.345l7.053-7.053a1.176,1.176,0,0,0-.831-2.007H63.634V13.176a1.176,1.176,0,0,0-2.007-.831L54.574,19.4A1.175,1.175,0,0,0,54.229,20.229Zm2.351.487,4.7-4.7v1.864a1.175,1.175,0,0,0,1.176,1.176h1.864l-4.7,4.7H56.58Z" transform="translate(-23.509 -9.648)"/></g></g></g></svg>