<svg xmlns="http://www.w3.org/2000/svg" width="65" height="56.674" viewBox="0 0 65 56.674"><defs><style>.a{fill:#a25723;}</style></defs><path class="a" d="M27.272,2.936a11.762,11.762,0,0,1-3.75,8.872,12.925,12.925,0,0,1-9.276,3.575,11.585,11.585,0,0,1-8.947-4.1,14.7,14.7,0,0,1-3.684-10.2A27.991,27.991,0,0,1,3.72-8.981,71.087,71.087,0,0,1,9.18-19.972a120.818,120.818,0,0,1,7.566-11.057q4.211-5.5,8.553-10.262l3.553,3.046a80.526,80.526,0,0,0-9.8,14.036,40.82,40.82,0,0,0-4.8,14.169,14.809,14.809,0,0,1,9.211,3.906A11.76,11.76,0,0,1,27.272,2.936Zm37.632,0a11.865,11.865,0,0,1-3.684,8.872,12.7,12.7,0,0,1-9.211,3.575,11.585,11.585,0,0,1-8.947-4.1,14.7,14.7,0,0,1-3.684-10.2A27.991,27.991,0,0,1,41.483-8.981a71.088,71.088,0,0,1,5.461-10.991,120.815,120.815,0,0,1,7.566-11.057q4.211-5.5,8.553-10.262l3.553,3.046a83.472,83.472,0,0,0-9.868,14.036,38.107,38.107,0,0,0-4.737,14.169,14.666,14.666,0,0,1,9.079,3.906A11.76,11.76,0,0,1,64.9,2.936Z" transform="translate(-1.614 41.291)"/></svg>