<svg xmlns="http://www.w3.org/2000/svg" xmlns:xlink="http://www.w3.org/1999/xlink" width="67.989" height="48.568" viewBox="0 0 67.989 48.568"><defs><style>.a{fill:#f2a540;}.b{fill:#c6826d;opacity:0.5;mix-blend-mode:multiply;isolation:isolate;}.c{fill:url(#a);}.d{fill:url(#b);}.e{fill:url(#c);}.f{fill:#ffee8b;}.g{fill:url(#d);}.h{fill:url(#e);}.i{fill:url(#f);}</style><linearGradient id="a" x1="278.833" y1="-11.828" x2="283.477" y2="-11.828" gradientUnits="objectBoundingBox"><stop offset="0.171" stop-color="#ffcc74"/><stop offset="1" stop-color="#ffb563"/></linearGradient><linearGradient id="b" x1="0.601" y1="0.863" x2="0.924" y2="2.461" gradientUnits="objectBoundingBox"><stop offset="0" stop-color="#f0a240"/><stop offset="0.044" stop-color="#f3b04f"/><stop offset="0.129" stop-color="#f8c566"/><stop offset="0.22" stop-color="#fcd477"/><stop offset="0.32" stop-color="#fedd80"/><stop offset="0.449" stop-color="#ffe084"/><stop offset="0.663" stop-color="#fede81"/><stop offset="0.763" stop-color="#fcd77a"/><stop offset="0.84" stop-color="#f9cb6d"/><stop offset="0.904" stop-color="#f5bb5b"/><stop offset="0.961" stop-color="#f0a643"/><stop offset="0.963" stop-color="#f0a643"/></linearGradient><linearGradient id="c" x1="-1.105" y1="1.451" x2="1.065" y2="4.55" xlink:href="#a"/><linearGradient id="d" x1="0.405" y1="-0.392" x2="0.745" y2="1.353" xlink:href="#b"/><linearGradient id="e" x1="0.133" y1="-1.727" x2="0.33" y2="-0.068" xlink:href="#b"/><linearGradient id="f" x1="-0.202" y1="-2.976" x2="-0.02" y2="-1.246" xlink:href="#b"/></defs><g transform="translate(141.371 -64.415) rotate(90)"><path class="a" d="M85.706,83.986s-2.128,6.362,9.23,11.383c0,0,4.96,1.809,7.468-.519l.9-2.724s.515,3.784-8.808-.377c-6.9-3.079-9.041-6.7-8.033-8.614Z"/><path class="b" d="M94.4,91.708c-6.825-3.073-8.947-6.666-7.944-8.573l-.754.851s-1.813,5.444,6.908,10.236A8.586,8.586,0,0,1,94.4,91.708Z"/><path class="a" d="M76.88,96.451a17.927,17.927,0,0,0,6.444,12.487c6.219,4.9,9.093,2.382,9.893,1.664A9.878,9.878,0,0,0,94.8,107.6s-3.155,3.752-9.295-.548c-4.88-3.417-8.335-10.47-7.249-13.008Z"/><path class="b" d="M76.88,96.451a18.188,18.188,0,0,0,4.977,11.173,7.2,7.2,0,0,1,1.8-2.048c-3.907-3.631-6.349-9.328-5.4-11.536Z"/><path class="a" d="M69.457,109.14a19.761,19.761,0,0,0,7.717,12.881c7,5.2,9.446,2.33,10.394.523,0,0-1.274,3.56-9.614-3.4S70.6,106.966,70.6,106.966Z"/><path class="b" d="M69.457,109.14a19.708,19.708,0,0,0,5.375,10.834,6.792,6.792,0,0,1,2.791-1.115c-7.976-6.819-7.021-11.893-7.021-11.893Z"/><path class="a" d="M64.415,119.565s1.082,6.7,6.209,9.959,7.2,6.08,6.7,8.39c0,0-1.374,1.863-4.438-.114a5.522,5.522,0,0,1-1.621,3.56s5.023.339,6.313-2.806-.76-7.316-1.964-8.821-11.482-7.618-9.711-13.067Z"/><path class="b" d="M68.78,125.11c.294-.136.594-.269.9-.4-2.513-2.4-4.663-5.308-3.774-8.045l-1.488,2.9A17.894,17.894,0,0,0,67.067,126,14.656,14.656,0,0,1,68.78,125.11Z"/><path class="c" d="M75.344,139.422a6.931,6.931,0,0,0,.089-.716,4.873,4.873,0,0,1-2.547-.906,5.522,5.522,0,0,1-1.621,3.56,10.462,10.462,0,0,0,3.358-.4A4.12,4.12,0,0,0,75.344,139.422Z"/><path class="d" d="M112.72,73.382s1.3,4.1-1.884,6.3a32.469,32.469,0,0,1-7.1-.125c-3.327-.514-12.919-2-18.027,4.425,0,0,.875-3.444,2.19-4.9s9.432-5.621,18.778-.7c0,0,2.7,1.364,3.472.534s.5-3.194-1.223-4.888C108.923,74.027,111.36,74.578,112.72,73.382Z"/><path class="e" d="M111.7,78.838c.026.005.05.006.076.011,1.96-2.266.947-5.467.947-5.467-1.36,1.2-3.8.645-3.8.645a4.9,4.9,0,0,1,1.576,4.127A2.5,2.5,0,0,0,111.7,78.838Z"/><path class="f" d="M99.4,76.579a14.261,14.261,0,0,0-3.961.012c-.057.208-.112.416-.163.625-.138.562-.205,1.166-.3,1.759a19.368,19.368,0,0,1,4.164-.171A6.291,6.291,0,0,1,99.4,76.579Z"/><path class="g" d="M76.88,96.451a18.814,18.814,0,0,1,2.809-5.339c1.595-1.747,5.333-5.093,14.624-5.011,6.849.061,9.055,3.323,9.154,6.026a7.355,7.355,0,0,1-1.093,2.772,5.311,5.311,0,0,0-3.9-4.883C94.467,88.581,83.333,90.119,76.88,96.451Z"/><path class="f" d="M92.2,86.608a20.566,20.566,0,0,0-4.537.6c.055.99.047,1.983,0,2.974a23,23,0,0,1,4.129-.836A9.193,9.193,0,0,1,92.2,86.608Z"/><path class="h" d="M71.251,104.1s4.975-6.568,14.929-4.137c7.509,1.833,8.991,7.279,8.991,7.279L93.722,110s-.963-6.3-10.354-7.446-13.237,6.4-13.928,6.755A12.114,12.114,0,0,1,71.251,104.1Z"/><path class="f" d="M84.2,102.4c.2-.764.421-1.52.659-2.272a13.134,13.134,0,0,0-4.135-.242c-.037.171-.076.34-.111.511-.085.409-.349,1.171-.465,1.857a11.343,11.343,0,0,1,3.012-.019C83.525,102.282,83.869,102.34,84.2,102.4Z"/><path class="i" d="M66.009,115.344a18.41,18.41,0,0,1,14.535-1.122c6.261,2.252,8.164,5.534,7.52,7.388a6.272,6.272,0,0,1-1.4,2.213s.764-1.289-.6-3.043a15.058,15.058,0,0,0-6.616-3.988c-5.312-1.674-13.722-.039-15.029,2.773A9.067,9.067,0,0,1,66.009,115.344Z"/><path class="f" d="M78.5,114.063a13.524,13.524,0,0,0-4.606-.44,21.963,21.963,0,0,0-.353,2.262,15.039,15.039,0,0,1,4.223.249Q78.1,115.09,78.5,114.063Z"/></g></svg>