<svg xmlns="http://www.w3.org/2000/svg" xmlns:xlink="http://www.w3.org/1999/xlink" width="27.571" height="55.965" viewBox="0 0 27.571 55.965"><defs><style>.a{fill:#f2a540;}.b{fill:#c6826d;opacity:0.5;mix-blend-mode:multiply;isolation:isolate;}.c{fill:url(#a);}.d{fill:#ffee8b;}.e{fill:url(#b);}.f{fill:url(#c);}.g{fill:url(#d);}</style><linearGradient id="a" x1="4.946" y1="2.523" x2="5.526" y2="3.854" gradientUnits="objectBoundingBox"><stop offset="0" stop-color="#f0a240"/><stop offset="0.044" stop-color="#f3b04f"/><stop offset="0.129" stop-color="#f8c566"/><stop offset="0.22" stop-color="#fcd477"/><stop offset="0.32" stop-color="#fedd80"/><stop offset="0.449" stop-color="#ffe084"/><stop offset="0.663" stop-color="#fede81"/><stop offset="0.763" stop-color="#fcd77a"/><stop offset="0.84" stop-color="#f9cb6d"/><stop offset="0.904" stop-color="#f5bb5b"/><stop offset="0.961" stop-color="#f0a643"/><stop offset="0.963" stop-color="#f0a643"/></linearGradient><linearGradient id="b" x1="2.768" y1="3.583" x2="3.114" y2="4.696" xlink:href="#a"/><linearGradient id="c" x1="2.074" y1="6.338" x2="2.274" y2="7.638" xlink:href="#a"/><linearGradient id="d" x1="1.426" y1="9.07" x2="1.612" y2="10.558" xlink:href="#a"/></defs><g transform="translate(-198.039 -27.87)"><path class="a" d="M213.473,71.226s1.362-7.721-8.04-12.271c0,0-4.113-1.57-6.333,1.21l-.912,3.221s-.263-4.289,7.623-.424c5.844,2.863,7.814,6.929,7.069,9.417Z"/><path class="b" d="M205.887,63c5.783,2.864,7.734,6.9,6.993,9.379l.593-1.153s1.167-6.653-6.117-11.209A11.445,11.445,0,0,1,205.887,63Z"/><path class="a" d="M219.521,56.44s-.811-7.33-5.563-11.506c-4.629-4.069-6.672-1.795-7.256-1.129a10.4,10.4,0,0,0-1.177,2.806s2.331-3.522,6.952.11c3.738,2.939,6.818,9.611,6.226,12.311Z"/><path class="b" d="M219.521,56.44s-.685-6.172-4.444-10.39a6.323,6.323,0,0,1-1.186,1.943c3.074,3.217,5.328,8.684,4.812,11.039Z"/><path class="a" d="M223.488,44.266a19.062,19.062,0,0,0-6.136-10.158c-4.795-3.813-6.3-1.692-6.88-.314,0,0,.74-2.682,6.561,2.526,6.041,5.4,5.914,9.867,5.914,9.867Z"/><path class="b" d="M223.488,44.266a19.675,19.675,0,0,0-4.483-8.628,3.752,3.752,0,0,1-1.736.9c5.8,5.3,5.678,9.65,5.678,9.65Z"/><path class="a" d="M225.6,35.822s-1.348-4.846-4.715-7.113c-.426-.286-.811-.565-1.171-.839a10.272,10.272,0,0,1-1.911.635c.01.012.02.028.029.039.844,1.051,7.666,5.39,7.157,9.511Z"/><path class="b" d="M222.375,31.8c-.168.1-.34.194-.514.288,1.765,1.731,3.385,3.865,3.125,5.969l.611-2.233a16.744,16.744,0,0,0-2.266-4.659A7.165,7.165,0,0,1,222.375,31.8Z"/><path class="c" d="M199.766,79.7a28,28,0,0,1-1.325,3.893c7.094,1.435,12.471-3.967,13.4-5.776,1.08-2.114,1.636-6.593,1.636-6.593C210.176,78.374,203.853,79.6,199.766,79.7Z"/><path class="d" d="M201.176,83.185a9.7,9.7,0,0,0,3.807-.709q.082-.459.155-.916c.131-.815.193-1.669.282-2.506a13.259,13.259,0,0,1-3.924.9A13.786,13.786,0,0,1,201.176,83.185Z"/><path class="e" d="M219.521,56.44a23.844,23.844,0,0,1-1.674,5.856c-1.114,2.093-3.921,6.377-11.855,7.367-6.141.766-8-3.035-7.952-6.262a11.368,11.368,0,0,1,1.088-3.293s-.248,3.99,3.243,5.276S215.046,63.738,219.521,56.44Z"/><path class="d" d="M207.824,68.79a13.728,13.728,0,0,0,3.838-1.237c-.089-1.162-.125-2.319-.132-3.463a15.838,15.838,0,0,1-3.412,1.385A15.525,15.525,0,0,1,207.824,68.79Z"/><path class="f" d="M222.8,48.77a9,9,0,0,1-10.518,4.754,9.361,9.361,0,0,1-7.042-6.568l1.089-2.589s.79,5.859,7.939,6.461c6.9.58,8.791-6.379,9.215-6.7A12.588,12.588,0,0,1,222.8,48.77Z"/><path class="d" d="M213.658,51.016c-.109.75-.237,1.5-.379,2.26a7.533,7.533,0,0,0,3.116-.016c.015-.169.032-.338.046-.507.034-.4.175-1.156.212-1.818a6.441,6.441,0,0,1-2.214.182C214.167,51.1,213.908,51.059,213.658,51.016Z"/><path class="g" d="M225.062,39.091a9.648,9.648,0,0,1-9.457,1.228c-4.42-1.718-5.835-4.336-5.444-5.8a4.81,4.81,0,0,1,.879-1.706,2.372,2.372,0,0,0,.507,2.331,10.57,10.57,0,0,0,4.647,3.056c3.647,1.24,8.9-.216,9.4-2.379A7.539,7.539,0,0,1,225.062,39.091Z"/><path class="d" d="M217.008,40.4a7.58,7.58,0,0,0,3.118.249c.038-.615.058-1.226.043-1.837a8.323,8.323,0,0,1-2.807-.116Q217.2,39.548,217.008,40.4Z"/></g></svg>