<svg xmlns="http://www.w3.org/2000/svg" width="65" height="65" viewBox="0 0 65 65"><defs><style>.a{fill:#f5f6f6;stroke:#58595b;opacity:0;}.b{stroke:none;}.c{fill:none;}</style></defs><g transform="translate(-85 -3041.5)"><g class="a" transform="translate(85 3041.5)"><circle class="b" cx="32.5" cy="32.5" r="32.5"/><circle class="c" cx="32.5" cy="32.5" r="32"/></g><g transform="translate(94 3049.512)"><path d="M35.468,30.384a6.084,6.084,0,1,0-6.084,6.084,6.084,6.084,0,0,0,6.084-6.084ZM26.848,34.37a7.353,7.353,0,0,0,2.536-1.5,7.355,7.355,0,0,0,2.536,1.5A4.694,4.694,0,0,1,26.848,34.37Zm.973-5.007A8.133,8.133,0,0,1,26.8,27.8a8.158,8.158,0,0,1,1.559,1.017c-.1.1-.2.193-.274.269-.092.094-.176.187-.265.28Zm1.221.677c.116-.116.229-.222.341-.329.113.106.225.21.341.329s.223.229.33.342c-.107.113-.214.225-.33.342s-.229.222-.341.329c-.113-.106-.225-.21-.341-.329s-.223-.229-.33-.342c.107-.11.214-.223.33-.34Zm1.638-.955c-.076-.076-.171-.169-.274-.268A8.135,8.135,0,0,1,31.966,27.8a8.133,8.133,0,0,1-1.02,1.564c-.089-.091-.173-.185-.265-.276Zm.265,2.316a8.133,8.133,0,0,1,1.02,1.564,8.158,8.158,0,0,1-1.559-1.017c.1-.1.2-.192.274-.269.092-.09.176-.183.265-.276Zm-2.859.28c.076.076.17.169.274.269A8.158,8.158,0,0,1,26.8,32.966a8.133,8.133,0,0,1,1.02-1.564c.089.094.173.187.265.279Zm6.029-1.3a4.7,4.7,0,0,1-.741,2.531,4.431,4.431,0,0,0-.514-1.141,11.888,11.888,0,0,0-1-1.391,11.887,11.887,0,0,0,1-1.391,4.431,4.431,0,0,0,.514-1.141A4.7,4.7,0,0,1,34.116,30.384Zm-2.2-3.986a7.371,7.371,0,0,0-2.534,1.5,7.371,7.371,0,0,0-2.534-1.5,4.694,4.694,0,0,1,5.068,0Zm-7.266,3.986a4.7,4.7,0,0,1,.741-2.531,4.431,4.431,0,0,0,.514,1.141,11.888,11.888,0,0,0,1,1.391,11.887,11.887,0,0,0-1,1.391,4.431,4.431,0,0,0-.514,1.141A4.7,4.7,0,0,1,24.652,30.384Z" transform="translate(-6.105 -6.108)"/><path d="M11.112,34.319H5.028a.676.676,0,0,0-.676.676v5.629a2.028,2.028,0,1,0,1.352,0v-4.95h6.084A.676.676,0,0,0,12.463,35V30.919A28.3,28.3,0,0,0,17.2,32.387v3.379h-3.38a.676.676,0,0,0-.676.676v1.476a2.028,2.028,0,1,0,1.352,0v-.8h3.38a.676.676,0,0,0,.676-.676v-3.8a28.531,28.531,0,0,0,4.056.385v6.914a2.028,2.028,0,1,0,1.352,0V33.033a28.531,28.531,0,0,0,4.056-.385v3.8a.676.676,0,0,0,.676.676h3.38v.8a2.028,2.028,0,1,0,1.352,0V36.443a.676.676,0,0,0-.676-.676h-3.38v-3.38A28.3,28.3,0,0,0,34.1,30.919v4.073a.676.676,0,0,0,.676.676h6.084v4.953a2.028,2.028,0,1,0,1.352,0V34.991a.676.676,0,0,0-.676-.676H35.447V30.359h-.07a28.261,28.261,0,0,0,7.986-5.605.677.677,0,0,0,0-.957,28.268,28.268,0,0,0-7.986-5.605h.07V14.233H41.53a.676.676,0,0,0,.676-.676V7.928a2.028,2.028,0,1,0-1.352,0v4.95H34.771a.676.676,0,0,0-.676.676v4.079a28.359,28.359,0,0,0-4.732-1.468v-3.38h3.38a.676.676,0,0,0,.676-.676V10.631a2.028,2.028,0,1,0-1.352,0v.8h-3.38a.676.676,0,0,0-.676.676v3.8a28.523,28.523,0,0,0-4.056-.385V8.6a2.028,2.028,0,1,0-1.352,0v6.914a28.523,28.523,0,0,0-4.056.385v-3.8a.676.676,0,0,0-.676-.676h-3.38v-.8a2.028,2.028,0,1,0-1.352,0v1.477a.676.676,0,0,0,.676.676H17.2v3.38a28.358,28.358,0,0,0-4.732,1.468V13.557a.676.676,0,0,0-.676-.676H5.7V7.928a2.028,2.028,0,1,0-1.352,0v5.629a.676.676,0,0,0,.676.676h6.084v3.959h.07A28.268,28.268,0,0,0,3.2,23.8a.677.677,0,0,0,0,.957,28.261,28.261,0,0,0,7.984,5.605h-.07ZM5.028,43.2a.671.671,0,1,1,.479-.2.676.676,0,0,1-.479.2Zm8.788-2.7a.676.676,0,1,1,.676-.676A.676.676,0,0,1,13.816,40.5Zm18.927,0a.676.676,0,1,1,.676-.676A.676.676,0,0,1,32.743,40.5Zm8.788,2.7a.676.676,0,1,1,.676-.676.676.676,0,0,1-.676.676Zm0-37.855a.676.676,0,1,1-.676.676.676.676,0,0,1,.676-.676Zm-8.788,2.7a.676.676,0,1,1-.676.676.676.676,0,0,1,.676-.676Zm-18.927,0a.676.676,0,1,1-.676.676.676.676,0,0,1,.676-.676Zm-8.788-2.7a.676.676,0,1,1-.676.676.676.676,0,0,1,.676-.676ZM15.844,24.276A7.439,7.439,0,0,1,22.8,16.863q.478-.008.957,0a7.426,7.426,0,0,1,0,14.825c-.319.006-.636.006-.955,0a7.44,7.44,0,0,1-6.959-7.412Zm7.435,18.251a.676.676,0,1,1,.676-.676.676.676,0,0,1-.676.676Zm5.477-11.391a8.763,8.763,0,0,0,0-13.721,26.885,26.885,0,0,1,13.158,6.861,26.885,26.885,0,0,1-13.158,6.861ZM23.279,6.024A.676.676,0,1,1,22.6,6.7a.676.676,0,0,1,.676-.676ZM17.8,17.415a8.763,8.763,0,0,0,0,13.721A26.885,26.885,0,0,1,4.645,24.276,26.885,26.885,0,0,1,17.8,17.415Z" transform="translate(0 0)"/></g></g></svg>