<svg xmlns="http://www.w3.org/2000/svg" xmlns:xlink="http://www.w3.org/1999/xlink" width="750" height="500" viewBox="0 0 750 500"><defs><style>.a,.c,.e,.g,.h,.l{fill:none;}.a,.c,.d,.e,.g,.h,.l{stroke:rgba(0,0,0,0.2);}.b{clip-path:url(#a);}.c,.g,.h,.l{stroke-miterlimit:10;}.c{stroke-width:0.42px;}.d{fill:#f7ffff;}.e{stroke-linecap:round;stroke-linejoin:round;stroke-width:0.84px;}.f{clip-path:url(#b);}.g{stroke-width:0.63px;}.h{stroke-width:1.679px;}.i{clip-path:url(#c);}.j{clip-path:url(#d);}.k{clip-path:url(#e);}.l{stroke-width:0.21px;}</style><clipPath id="a"><rect class="a" width="750" height="500" transform="translate(750 500) rotate(180)"/></clipPath><clipPath id="b"><path class="a" d="M620.55,54.826c.06.457.122.914.191,1.371.041.27.086.539.129.809s.085.533.132.8c.079.457.165.911.253,1.365.015.079.029.159.045.239.024.123.045.246.07.369q.345,1.7.771,3.366c.1.408.216.814.328,1.219L604.654,76.328l5.943,13.22,20.774-5.384q1.383,2.125,2.93,4.162c.049.065.1.129.149.194q.422.549.852,1.093c.169.212.341.421.512.63s.343.424.519.633q.445.534.9,1.056c.053.061.1.122.157.182q1.683,1.925,3.49,3.707l-9.446,19.27,11.757,8.476,15.3-15.049q2.262,1.149,4.619,2.139c.075.032.151.062.226.093q.641.266,1.286.522c.252.1.506.194.76.29s.506.194.761.287c.435.16.871.313,1.308.464l.23.08q2.42.825,4.875,1.465l1.454,21.411,14.421,1.463,5.724-20.683q2.534-.135,5.071-.457l.237-.032c.37-.048.739-.094,1.108-.148.089-.013.179-.03.268-.043.27-.04.539-.085.808-.129s.534-.085.8-.132c.456-.079.91-.164,1.363-.252.064-.013.129-.023.193-.036l.047-.01q2.508-.495,4.954-1.168l11.965,17.815,13.22-5.944L728.8,104.739c.352-.229.705-.458,1.054-.695q1.426-.964,2.811-2c.1-.076.2-.154.3-.23l.038-.028c.053-.04.1-.081.155-.12.367-.281.733-.564,1.1-.853.211-.169.419-.34.629-.511s.424-.344.633-.519c.07-.058.141-.114.21-.172.285-.24.564-.485.844-.729l.184-.158q1.925-1.683,3.707-3.49l19.269,9.446,8.477-11.757-15.049-15.3Q754.307,75.359,755.3,73c.032-.078.063-.156.1-.234.176-.424.35-.849.518-1.278.1-.255.2-.512.294-.768s.191-.5.284-.753c.16-.438.314-.877.466-1.316.025-.075.052-.148.077-.222q.825-2.421,1.466-4.877L779.91,62.1l1.463-14.42L760.69,41.956q-.135-2.534-.457-5.07c-.01-.08-.021-.159-.032-.238q-.088-.688-.191-1.375c-.04-.271-.085-.539-.129-.809s-.085-.534-.132-.8c-.079-.456-.164-.91-.252-1.363-.016-.08-.03-.16-.046-.24q-.5-2.507-1.168-4.954L776.1,15.141l-5.944-13.22L749.38,7.3Q748,5.18,746.45,3.143c-.049-.065-.1-.129-.149-.193-.281-.367-.563-.732-.852-1.094-.169-.212-.341-.42-.511-.63s-.344-.424-.519-.633c-.3-.356-.6-.706-.9-1.055l-.158-.183q-1.683-1.924-3.49-3.707l9.446-19.269L737.559-32.1l-15.3,15.049Q720-18.2,717.64-19.189l-.217-.089q-.643-.269-1.294-.525c-.251-.1-.5-.193-.754-.289s-.509-.194-.766-.288c-.433-.159-.868-.312-1.3-.462l-.235-.082q-2.42-.825-4.874-1.465L706.742-43.8l-14.421-1.462L686.6-24.58q-2.532.136-5.07.457l-.241.032c-.368.048-.737.094-1.1.148-.089.014-.178.03-.267.043-.271.041-.54.086-.81.129s-.533.085-.8.132c-.456.079-.911.165-1.365.253l-.192.035-.047.01q-2.506.495-4.954,1.169L659.782-39.987l-13.22,5.943,5.384,20.774q-2.125,1.385-4.164,2.931l-.036.027-.148.115c-.369.283-.738.568-1.1.86-.209.166-.414.335-.621.5s-.429.348-.642.526l-.208.17c-.283.239-.56.482-.839.724-.063.055-.127.109-.19.165q-1.925,1.682-3.706,3.488L621.02-13.206,612.543-1.449l15.049,15.3q-1.149,2.26-2.139,4.618c-.032.075-.061.151-.093.225-.177.427-.352.855-.521,1.287-.011.026-.022.052-.032.078s-.02.047-.029.071c-.079.2-.153.407-.23.611-.1.253-.194.506-.287.761-.16.435-.313.871-.463,1.308-.027.077-.055.153-.081.23q-.823,2.42-1.465,4.875l-21.411,1.454-1.462,14.421,20.682,5.724q.137,2.532.457,5.07C620.528,54.664,620.54,54.744,620.55,54.826Zm45.2-61.042c.363-.172.731-.332,1.1-.495.336-.152.669-.307,1.008-.452l.261-.11a57.963,57.963,0,0,1,26.627-4.317l.281.021c.4.034.8.079,1.206.121.364.037.728.068,1.091.112l.279.036a57.945,57.945,0,0,1,25.22,9.574l.233.159c.33.229.653.468.978.7.3.215.6.426.894.647l.226.171a57.973,57.973,0,0,1,17.053,20.9c.04.084.081.167.121.251.174.37.337.744.5,1.117.149.33.3.658.444.991.037.086.073.173.109.259a57.951,57.951,0,0,1,4.318,26.64c-.007.086-.013.173-.02.26-.034.407-.08.811-.122,1.216-.037.367-.069.735-.113,1.1-.01.086-.022.172-.033.258A57.948,57.948,0,0,1,737.83,78.19l-.153.224c-.21.3-.429.6-.645.9-.235.329-.468.66-.711.984l-.165.217a57.97,57.97,0,0,1-20.909,17.057l-.246.118c-.341.161-.686.31-1.03.464-.361.164-.72.33-1.085.486l-.249.1A57.96,57.96,0,0,1,686,103.059c-.093-.007-.185-.013-.277-.021-.38-.031-.758-.075-1.136-.114s-.778-.073-1.167-.119l-.273-.035a57.955,57.955,0,0,1-25.225-9.579l-.227-.155c-.31-.215-.612-.439-.918-.66s-.644-.457-.96-.694l-.22-.167a57.946,57.946,0,0,1-17.056-20.909c-.04-.083-.08-.165-.119-.248-.157-.331-.3-.667-.452-1-.167-.37-.338-.738-.5-1.112-.036-.084-.071-.169-.106-.253a57.947,57.947,0,0,1-4.317-26.623c.007-.1.014-.2.022-.295.03-.366.072-.732.11-1.1.039-.4.074-.792.122-1.187.012-.1.025-.195.037-.292a57.962,57.962,0,0,1,9.572-25.207l.159-.232c.232-.335.475-.663.714-.993.212-.294.419-.591.637-.881l.171-.225A57.949,57.949,0,0,1,665.5-6.095Z"/></clipPath><clipPath id="c"><path class="a" d="M492.347,121.428c.028.21.056.419.088.629.018.124.039.247.059.37s.039.245.06.367c.036.209.076.417.116.625.007.037.013.073.021.11.011.056.02.112.032.169q.158.777.353,1.542c.048.187.1.373.15.559l-8.163,5.482,2.723,6.058,9.519-2.467q.635.974,1.343,1.907c.022.03.046.059.068.088.129.168.258.336.391.5.077.1.156.193.234.289s.158.194.238.29q.2.244.413.484l.072.083q.771.882,1.6,1.7l-4.328,8.829,5.387,3.885,7.01-6.9q1.037.526,2.116.98l.1.043q.292.121.589.239l.348.133c.116.044.232.089.349.131q.3.109.6.213l.106.037q1.109.376,2.233.671l.667,9.811,6.607.67,2.623-9.477q1.161-.063,2.324-.21l.109-.014c.169-.022.338-.043.507-.068l.123-.02c.124-.018.247-.039.37-.059s.245-.039.367-.06q.313-.055.625-.116l.088-.016.022-.005q1.149-.227,2.27-.535l5.482,8.163,6.058-2.724-2.467-9.518c.161-.106.323-.211.483-.319q.654-.442,1.288-.919c.046-.034.09-.07.136-.1l.017-.013.071-.055c.168-.129.336-.259.5-.391.1-.077.192-.156.288-.234l.291-.238c.031-.027.064-.052.1-.079.131-.11.259-.222.387-.334l.085-.072q.881-.771,1.7-1.6l8.83,4.328,3.884-5.387-6.9-7.01q.527-1.036.98-2.116c.015-.035.029-.071.044-.107.081-.194.161-.389.238-.585.046-.117.09-.235.134-.352s.088-.23.13-.345q.111-.3.214-.6c.012-.034.024-.067.035-.1q.378-1.108.672-2.235l9.811-.666.67-6.608-9.477-2.622q-.063-1.161-.209-2.324l-.015-.109q-.04-.315-.088-.63c-.018-.124-.039-.247-.059-.37s-.039-.245-.06-.367c-.036-.209-.076-.417-.116-.625l-.021-.11q-.227-1.149-.535-2.27l8.163-5.483L560.9,97.187l-9.519,2.467q-.635-.974-1.343-1.907c-.022-.03-.046-.059-.068-.089-.129-.168-.258-.335-.391-.5-.077-.1-.156-.193-.234-.289s-.158-.194-.238-.29c-.136-.163-.274-.323-.413-.483l-.072-.084q-.771-.882-1.6-1.7l4.328-8.83L545.962,81.6l-7.01,6.9q-1.037-.527-2.117-.981l-.1-.041q-.294-.123-.593-.24c-.114-.046-.23-.089-.345-.133s-.233-.089-.351-.132q-.3-.11-.6-.211l-.108-.038q-1.109-.378-2.233-.671l-.667-9.811-6.607-.67-2.623,9.477q-1.161.062-2.323.209l-.111.015c-.169.022-.338.043-.506.068l-.123.019c-.124.019-.247.04-.371.06s-.244.039-.366.06q-.313.054-.625.116l-.088.016-.022,0q-1.149.227-2.27.535l-5.482-8.163-6.058,2.723,2.467,9.519q-.973.635-1.908,1.343l-.017.013-.067.052c-.17.13-.338.261-.506.394-.095.076-.189.154-.284.231s-.2.16-.294.241l-.1.078c-.13.11-.257.221-.385.332l-.087.075q-.882.771-1.7,1.6l-8.83-4.329-3.884,5.388,6.9,7.01q-.527,1.035-.98,2.116c-.015.034-.029.069-.043.1-.081.2-.161.392-.239.59l-.014.035-.014.033c-.036.093-.07.187-.105.28-.044.116-.089.232-.132.349-.073.2-.143.4-.212.6l-.037.1q-.378,1.108-.671,2.234l-9.811.667-.67,6.607,9.477,2.623q.062,1.161.209,2.323Zm20.711-27.97c.167-.078.335-.152.5-.227s.307-.14.462-.207l.12-.05A26.558,26.558,0,0,1,526.344,91l.128.01c.185.015.369.036.553.055.167.017.333.031.5.051l.128.017a26.543,26.543,0,0,1,11.556,4.387l.107.073c.151.105.3.214.448.322s.274.195.41.3l.1.079a26.555,26.555,0,0,1,7.814,9.577l.055.115c.08.17.155.341.231.512.068.151.138.3.2.454.017.04.034.079.05.119a26.554,26.554,0,0,1,1.979,12.206l-.009.12c-.016.186-.037.371-.056.557-.017.168-.032.336-.052.5l-.015.118a26.555,26.555,0,0,1-4.391,11.566c-.023.034-.046.069-.07.1-.1.138-.2.274-.295.41s-.215.3-.326.452c-.025.033-.051.065-.076.1a26.551,26.551,0,0,1-9.581,7.815l-.112.054c-.157.074-.315.143-.472.213s-.33.152-.5.223l-.115.048a26.56,26.56,0,0,1-12.2,1.979l-.127-.01c-.174-.014-.347-.034-.521-.052s-.356-.034-.534-.055l-.126-.016a26.566,26.566,0,0,1-11.558-4.389l-.1-.071c-.142-.1-.28-.2-.42-.3s-.295-.21-.44-.319l-.1-.076a26.548,26.548,0,0,1-7.815-9.581c-.019-.038-.037-.075-.055-.113-.072-.152-.138-.306-.207-.459-.077-.17-.155-.338-.228-.51-.017-.038-.033-.077-.049-.116a26.55,26.55,0,0,1-1.978-12.2c0-.045.007-.09.01-.135.014-.168.033-.335.051-.5s.034-.363.055-.544c.006-.045.012-.089.017-.134A26.561,26.561,0,0,1,502.6,102.4l.072-.106c.107-.154.218-.3.328-.455.1-.135.192-.271.291-.4.026-.034.053-.068.079-.1a26.555,26.555,0,0,1,9.577-7.814Z"/></clipPath><clipPath id="d"><rect class="a" width="13.291" height="166.301" transform="translate(750.393 351.672) rotate(180)"/></clipPath><clipPath id="e"><rect class="a" width="21.688" height="166.301" transform="translate(449.564 -0.178) rotate(90)"/></clipPath></defs><g transform="translate(0)"><g class="b"><path class="c" d="M585.91,134.252c.014.118.028.237.044.356.009.07.02.14.03.21s.02.139.031.208c.018.118.039.236.059.354l.011.063c.006.032.011.064.017.1q.082.442.186.876c.025.106.052.212.08.318l-4.668,3.027,1.485,3.451,5.407-1.309q.351.557.742,1.091l.038.051c.072.1.143.192.217.287.042.055.086.11.13.165s.087.111.131.166c.076.094.153.186.23.278l.04.047q.428.507.889.976l-2.529,4.955,3.012,2.246,4.028-3.837q.582.308,1.188.574l.058.025c.11.048.22.1.331.141l.2.078.2.078c.112.043.225.084.337.125l.06.022q.624.224,1.257.4l.288,5.556,3.731.439,1.57-5.337q.659-.024,1.317-.1l.061-.007.288-.034.07-.01.21-.03.208-.031q.177-.028.354-.06l.05-.009.013,0q.651-.119,1.289-.282l3.026,4.667,3.452-1.485-1.309-5.407c.092-.058.185-.116.276-.176q.374-.245.737-.508l.078-.058.01-.007.04-.031q.146-.106.288-.216l.165-.13c.055-.044.111-.087.166-.132l.055-.044c.075-.061.149-.123.222-.185l.049-.04q.506-.429.975-.889l4.955,2.528,2.246-3.012-3.837-4.028q.308-.581.574-1.188l.026-.06c.047-.109.094-.218.139-.329.028-.065.053-.132.08-.2l.076-.2c.044-.112.086-.225.127-.339l.021-.057q.223-.624.4-1.258l5.556-.288.439-3.731-5.337-1.57q-.024-.657-.1-1.316l-.008-.062c-.013-.119-.027-.238-.043-.357l-.03-.21c-.011-.07-.02-.139-.031-.208-.019-.119-.039-.237-.06-.355l-.011-.062q-.119-.652-.282-1.289l4.667-3.027-1.485-3.451-5.407,1.309c-.233-.371-.48-.736-.742-1.091l-.038-.051c-.071-.1-.143-.192-.216-.287-.043-.056-.087-.111-.13-.166l-.132-.166c-.075-.093-.152-.185-.229-.277l-.04-.048q-.429-.505-.889-.976l2.528-4.955-3.012-2.246-4.028,3.837q-.581-.307-1.188-.574l-.056-.024c-.111-.048-.222-.1-.334-.141-.064-.027-.129-.052-.194-.078s-.131-.053-.2-.078c-.112-.043-.224-.085-.336-.125l-.061-.023c-.415-.149-.835-.282-1.257-.4l-.288-5.555-3.731-.439-1.57,5.336q-.657.025-1.316.1l-.063.007c-.1.011-.191.021-.287.034l-.069.01c-.071.009-.14.02-.211.03l-.207.031c-.119.018-.237.039-.355.06l-.05.008-.012,0q-.652.119-1.289.283l-3.027-4.668-3.451,1.485,1.309,5.407q-.558.351-1.092.743l-.01.007-.038.029c-.1.072-.194.144-.29.218-.055.042-.109.085-.163.128s-.113.089-.168.134l-.055.043-.221.184-.05.042q-.505.427-.975.889l-4.955-2.529-2.246,3.012,3.837,4.028q-.308.582-.574,1.188l-.025.058c-.047.11-.1.221-.14.332l-.009.02-.008.018c-.021.052-.041.1-.062.157s-.052.131-.077.2c-.043.113-.085.225-.126.338l-.022.059q-.223.624-.4,1.257l-5.555.288-.439,3.732,5.336,1.569q.026.657.1,1.316Zm11.97-15.634c.095-.043.191-.083.287-.124s.174-.076.263-.112l.068-.028a15.027,15.027,0,0,1,6.919-1.008l.073.007c.1.01.208.024.312.036s.189.021.282.034l.073.01a15.03,15.03,0,0,1,6.5,2.587l.059.042c.085.061.168.124.251.187s.154.112.229.171l.058.045a15.026,15.026,0,0,1,4.333,5.489l.03.066c.044.1.084.194.126.291s.075.172.111.259l.027.067a15.019,15.019,0,0,1,1.008,6.923l-.006.068c-.011.1-.024.209-.037.314s-.021.19-.034.285l-.009.067a15.023,15.023,0,0,1-2.589,6.5l-.041.058c-.056.077-.114.153-.171.229s-.124.169-.188.252l-.044.056a15.022,15.022,0,0,1-5.49,4.334l-.065.029c-.089.04-.179.078-.269.116s-.188.083-.283.122l-.065.026a15.011,15.011,0,0,1-6.921,1.008l-.072-.006c-.1-.01-.2-.023-.294-.035s-.2-.022-.3-.036l-.071-.01a15.018,15.018,0,0,1-6.5-2.588l-.058-.041c-.08-.057-.157-.116-.235-.175s-.165-.121-.246-.184l-.057-.044a15.03,15.03,0,0,1-4.333-5.49l-.03-.065c-.039-.087-.075-.174-.113-.261s-.085-.193-.124-.291l-.027-.066a15.024,15.024,0,0,1-1.008-6.918l.007-.077c.01-.094.022-.189.033-.284s.023-.205.037-.307l.011-.075a15.007,15.007,0,0,1,2.586-6.494l.042-.059c.062-.087.126-.17.189-.255s.111-.151.169-.226l.045-.057a15.016,15.016,0,0,1,5.489-4.333Z"/><path class="c" d="M684.883,295.518c.014.119.028.238.044.356.009.071.02.141.03.211s.02.138.031.207c.018.119.038.237.059.355l.011.062c.006.032.011.064.017.1q.082.441.186.876c.025.106.052.212.079.317l-4.667,3.027,1.485,3.451,5.407-1.308q.349.557.742,1.091l.038.05c.071.1.143.192.217.287.042.056.086.111.129.166l.132.166c.076.094.153.186.23.278l.039.047q.429.506.89.976l-2.529,4.955,3.012,2.246,4.028-3.837q.581.308,1.188.574l.058.025c.11.047.22.1.331.14l.2.079.2.077c.112.044.225.085.337.126l.06.022c.415.149.835.282,1.257.4l.288,5.555,3.731.44,1.57-5.337q.657-.025,1.317-.1l.061-.007c.1-.011.192-.021.288-.034l.069-.01c.071-.009.141-.02.211-.03l.208-.03q.177-.028.354-.06l.05-.009.012,0q.652-.119,1.289-.282l3.027,4.667,3.452-1.485-1.309-5.407c.092-.058.184-.116.276-.176q.373-.244.737-.508l.078-.058.01-.008.04-.03c.1-.071.193-.143.288-.217.055-.042.11-.086.165-.129l.166-.132.055-.044c.075-.061.148-.123.222-.185l.049-.041q.505-.428.975-.889l4.955,2.529L723,306.007l-3.837-4.028q.308-.58.574-1.188l.026-.06c.047-.109.094-.219.139-.329l.08-.2c.025-.064.051-.129.076-.194.044-.113.086-.226.127-.339l.021-.057q.223-.624.4-1.258l5.556-.288.439-3.731-5.337-1.57q-.026-.657-.1-1.317l-.008-.061c-.013-.119-.028-.238-.044-.357q-.014-.107-.03-.21c-.01-.07-.019-.139-.03-.209q-.029-.177-.06-.354l-.011-.062q-.118-.652-.282-1.289l4.667-3.027-1.485-3.452-5.407,1.309q-.35-.557-.742-1.091l-.038-.051c-.071-.1-.143-.192-.216-.287l-.13-.165-.132-.166c-.076-.093-.152-.186-.229-.277l-.04-.048q-.429-.507-.889-.976l2.528-4.955-3.012-2.246-4.028,3.837c-.387-.2-.784-.4-1.188-.574l-.056-.024c-.111-.048-.222-.1-.334-.142l-.194-.078-.2-.078c-.112-.043-.224-.084-.336-.125l-.061-.022q-.624-.223-1.257-.4l-.288-5.556-3.731-.439-1.57,5.337q-.657.025-1.316.1l-.063.008c-.095.011-.191.021-.287.034l-.069.01c-.071.009-.141.019-.211.03l-.207.03c-.119.019-.237.039-.355.06l-.05.009-.012,0q-.652.119-1.289.282l-3.027-4.667L692,272.592,693.3,278q-.557.35-1.091.743l-.01.006-.038.03c-.1.071-.194.144-.29.218-.055.042-.109.085-.163.128s-.113.088-.169.134l-.054.043c-.074.06-.147.122-.221.184l-.05.042q-.506.428-.975.888l-4.955-2.528-2.246,3.012,3.837,4.028c-.205.387-.4.784-.574,1.188l-.025.058c-.047.11-.1.22-.14.331l-.009.02-.008.019c-.021.052-.041.105-.062.157s-.052.131-.077.2c-.044.112-.085.225-.126.337l-.022.06c-.149.415-.282.835-.4,1.257l-5.555.288-.44,3.731,5.337,1.57q.025.657.1,1.316Zm11.97-15.633c.095-.043.191-.083.286-.124s.175-.077.264-.113l.068-.027a15.027,15.027,0,0,1,6.919-1.008l.073.007c.1.01.208.024.312.036s.188.021.282.034l.073.01a15.017,15.017,0,0,1,6.5,2.587l.059.042c.085.061.167.124.251.186s.153.113.229.172l.058.045a15.027,15.027,0,0,1,4.333,5.489l.03.065c.043.1.084.195.126.292s.075.172.111.258l.027.068a15.031,15.031,0,0,1,1.008,6.923l-.006.067c-.011.106-.024.21-.037.315s-.021.19-.034.285l-.009.067a15.036,15.036,0,0,1-2.589,6.5l-.041.057c-.056.078-.114.153-.171.23s-.124.169-.188.252l-.044.055a15.007,15.007,0,0,1-5.491,4.334l-.064.03c-.089.04-.179.078-.269.116s-.188.083-.283.122l-.065.026a15.039,15.039,0,0,1-6.922,1.008l-.071-.007c-.1-.01-.2-.022-.294-.034s-.2-.022-.3-.036l-.071-.01a15.018,15.018,0,0,1-6.5-2.588l-.058-.041c-.08-.057-.157-.116-.235-.175s-.165-.121-.246-.184l-.057-.044a15.023,15.023,0,0,1-4.333-5.491l-.03-.064c-.039-.087-.076-.175-.113-.262s-.085-.192-.125-.29l-.026-.066a15.027,15.027,0,0,1-1.008-6.919l.007-.076c.009-.1.022-.189.033-.284s.023-.2.037-.307l.011-.076a15.006,15.006,0,0,1,2.586-6.493l.042-.06c.061-.086.126-.17.189-.254s.111-.152.169-.226l.045-.057a15.019,15.019,0,0,1,5.489-4.334Z"/><path class="d" d="M720.335,172.766c-.018-.162-.037-.324-.059-.486-.013-.1-.027-.191-.041-.286s-.027-.189-.042-.283c-.025-.162-.053-.323-.082-.484-.005-.028-.009-.056-.014-.085s-.015-.087-.023-.13q-.112-.6-.253-1.193c-.035-.145-.072-.289-.109-.433l6.36-4.125-2.024-4.7-7.368,1.784q-.476-.759-1.011-1.487l-.052-.069c-.1-.131-.194-.262-.294-.391l-.177-.226c-.06-.075-.119-.151-.18-.226-.1-.128-.207-.253-.313-.378l-.054-.065q-.583-.69-1.211-1.329l3.445-6.753-4.1-3.061-5.489,5.229q-.792-.418-1.619-.782l-.079-.034c-.15-.065-.3-.129-.452-.192l-.266-.107c-.089-.035-.178-.071-.268-.1-.152-.059-.306-.116-.459-.171l-.081-.03q-.849-.3-1.713-.545l-.392-7.571-5.085-.6-2.14,7.272q-.9.034-1.793.133l-.084.01c-.131.015-.262.029-.392.046l-.095.013c-.1.013-.191.028-.286.042l-.284.041c-.161.026-.322.053-.483.082l-.068.011-.017,0q-.888.161-1.756.384l-4.125-6.36-4.7,2.024,1.783,7.368c-.125.079-.251.158-.376.24q-.508.333-1,.692l-.106.079-.014.01-.055.042q-.2.146-.392.295l-.225.177-.227.18-.075.059c-.1.083-.2.168-.3.252l-.066.055q-.689.583-1.329,1.212l-6.752-3.446-3.061,4.1,5.229,5.489q-.418.792-.782,1.619l-.035.082q-.1.224-.191.448c-.037.09-.072.18-.108.27s-.07.176-.1.264c-.06.154-.117.308-.173.463-.009.026-.019.052-.028.078q-.306.849-.546,1.714l-7.57.392-.6,5.085,7.273,2.139q.033.9.132,1.794l.01.084c.019.162.038.324.06.486.013.1.027.191.041.287s.027.189.042.283c.025.162.053.323.082.483.005.029.009.057.014.085q.162.89.385,1.757l-6.36,4.125,2.024,4.7,7.368-1.784q.476.759,1.011,1.487l.052.069c.1.131.194.262.294.391l.177.225c.06.076.119.152.18.227q.155.19.312.378l.055.065q.584.69,1.211,1.329l-3.445,6.753,4.1,3.06L684,197.574q.792.418,1.62.782l.076.033c.151.065.3.13.454.193l.265.106.269.106c.152.059.3.115.458.171l.082.03q.851.3,1.713.545l.392,7.571,5.085.6,2.14-7.273q.9-.033,1.793-.132l.085-.01c.131-.015.261-.029.391-.046l.1-.014.287-.041.283-.042c.161-.025.322-.053.483-.081l.068-.012.017,0q.888-.16,1.756-.384l4.125,6.36,4.7-2.024-1.783-7.368q.759-.477,1.487-1.012l.013-.009.053-.04c.132-.1.264-.2.394-.3.075-.058.148-.117.222-.175l.23-.182.075-.059c.1-.083.2-.167.3-.251l.068-.057q.69-.584,1.329-1.211l6.752,3.446,3.061-4.105-5.229-5.489q.42-.792.782-1.619c.012-.026.023-.053.034-.079.065-.15.13-.3.192-.451l.012-.028.01-.025c.029-.071.056-.143.085-.214l.106-.267q.087-.229.171-.46l.029-.08q.306-.851.546-1.714l7.57-.392.6-5.085-7.273-2.139q-.033-.9-.132-1.793C720.342,172.823,720.339,172.794,720.335,172.766Zm-16.311,21.3c-.129.058-.26.113-.39.168s-.238.1-.359.154l-.093.038a20.473,20.473,0,0,1-9.429,1.373l-.1-.009c-.142-.014-.284-.032-.426-.05s-.256-.028-.384-.045l-.1-.014a20.483,20.483,0,0,1-8.853-3.525l-.081-.058c-.116-.083-.228-.169-.341-.254s-.21-.154-.313-.233l-.079-.062a20.475,20.475,0,0,1-5.9-7.479l-.041-.09c-.06-.132-.115-.265-.172-.4s-.1-.234-.151-.353l-.037-.092a20.479,20.479,0,0,1-1.374-9.433l.009-.092c.014-.144.033-.286.05-.429s.028-.259.046-.388l.013-.091a20.473,20.473,0,0,1,3.528-8.861l.055-.078c.076-.106.155-.209.233-.313s.169-.23.257-.344l.059-.075a20.47,20.47,0,0,1,7.482-5.906l.088-.04c.121-.055.244-.106.366-.158s.257-.113.386-.166l.089-.036a20.472,20.472,0,0,1,9.432-1.373l.1.009c.134.013.267.03.4.046s.275.031.412.049l.1.014A20.465,20.465,0,0,1,707.353,159l.079.056c.109.077.214.158.321.238s.225.165.335.251l.077.06a20.477,20.477,0,0,1,5.905,7.482l.041.088c.053.118.1.237.154.356s.115.263.169.4c.013.03.024.06.036.09a20.469,20.469,0,0,1,1.374,9.428l-.01.1c-.012.13-.029.258-.045.388s-.031.279-.05.418l-.014.1a20.48,20.48,0,0,1-3.525,8.849l-.057.081c-.084.117-.171.231-.258.347s-.151.206-.23.307c-.02.026-.041.052-.061.079a20.478,20.478,0,0,1-7.48,5.9Z"/><path class="e" d="M436.606,53.217c-.04-.174-.081-.347-.125-.52-.026-.1-.053-.2-.08-.307s-.053-.2-.081-.3q-.072-.26-.149-.516c-.009-.03-.017-.06-.027-.09-.013-.046-.026-.093-.04-.139-.18-.583-.38-1.157-.6-1.723l6.4-5.277-2.787-4.861-7.789,2.856q-.612-.765-1.284-1.49l-.066-.07c-.121-.13-.244-.26-.368-.388-.073-.075-.148-.149-.221-.223s-.148-.15-.223-.224c-.128-.126-.258-.249-.388-.372l-.067-.064q-.72-.677-1.482-1.294l2.906-7.771L425.3,27.625l-5.318,6.368q-.535-.21-1.083-.4c-.256-.088-.515-.17-.774-.25l-.093-.028c-.17-.052-.34-.1-.512-.152l-.3-.083c-.1-.027-.2-.055-.3-.081-.174-.046-.349-.088-.524-.13l-.088-.021q-.963-.226-1.932-.38L413,24.287l-5.6-.017-1.421,8.173q-.969.148-1.933.368l-.091.021c-.14.032-.28.064-.42.1l-.1.027c-.1.025-.2.053-.306.08l-.3.081c-.172.047-.344.1-.515.148l-.073.022-.017,0q-.947.285-1.862.637l-5.277-6.4-4.862,2.786,2.857,7.789q-.765.614-1.491,1.285l-.013.012-.056.053c-.13.122-.26.244-.388.369-.075.073-.149.147-.223.22s-.15.149-.224.224c-.025.025-.05.049-.074.074-.1.1-.2.208-.3.313-.022.022-.043.045-.064.067q-.677.72-1.3,1.483L381.172,39.3l-2.817,4.844,6.369,5.317q-.357.914-.649,1.858l-.027.09q-.078.256-.152.514c-.029.1-.056.2-.084.306-.021.08-.045.16-.066.241l-.007.029-.008.032c-.045.173-.087.347-.129.521-.007.03-.015.061-.022.091q-.225.963-.379,1.931l-8.183,1.369-.018,5.6,8.174,1.42q.148.969.367,1.933c.007.032.015.062.022.094.04.173.081.346.125.519.026.1.054.206.081.309s.053.2.08.3c.048.173.1.346.15.518.009.029.017.058.026.087q.285.947.637,1.863l-6.4,5.277,2.786,4.861,7.789-2.856q.613.765,1.285,1.491l.062.065c.123.132.246.263.372.392.072.074.145.147.218.22s.15.152.226.227c.127.125.255.247.384.369l.071.068q.72.676,1.482,1.293l-2.906,7.771,4.844,2.817,5.317-6.368q.914.357,1.858.649l.088.026c.171.052.343.1.517.153l.3.082.306.083c.173.044.346.086.518.128l.095.023q.962.225,1.93.379l1.369,8.183,5.6.018,1.421-8.175q.969-.147,1.933-.367l.092-.021c.14-.033.28-.064.419-.1l.1-.027c.1-.025.2-.053.306-.08l.3-.081q.258-.072.515-.149c.024-.007.049-.013.073-.021l.018,0q.945-.285,1.862-.637l5.276,6.4,4.862-2.786L427.1,80.6q.766-.613,1.492-1.286l.013-.011c.017-.017.034-.034.052-.05q.2-.185.392-.373c.074-.071.147-.145.22-.217s.152-.15.227-.227c.024-.025.049-.049.074-.073.1-.1.2-.207.295-.31l.067-.071q.676-.72,1.294-1.482L439,79.41l2.817-4.844-6.369-5.317q.357-.914.649-1.859l.027-.087q.078-.258.152-.517c.029-.1.056-.2.083-.3s.056-.2.082-.306c.045-.172.087-.344.128-.517.008-.032.016-.063.023-.1.011-.047.024-.094.034-.14.136-.6.25-1.192.346-1.79l8.182-1.369.018-5.6-8.174-1.42q-.147-.97-.367-1.934C436.621,53.279,436.613,53.248,436.606,53.217Zm-27-16.084.106,0c.145,0,.29,0,.434,0s.307,0,.461,0c.036,0,.071,0,.107,0a22.4,22.4,0,0,1,9.373,2.371l-6.116,10.516h0A10.11,10.11,0,0,0,406.261,50l-6.049-10.555A22.4,22.4,0,0,1,409.6,37.133Zm.46,29.507a7.286,7.286,0,1,1,7.308-7.263A7.294,7.294,0,0,1,410.062,66.64ZM405.08,50.577l-.043.024Zm.567-.3ZM390.6,48.66l.05-.091c.07-.125.143-.247.214-.37s.156-.271.237-.405l.055-.09a22.41,22.41,0,0,1,6.741-6.932l6.05,10.557h0a10.091,10.091,0,0,0-3.873,6.659l-12.169-.038A22.4,22.4,0,0,1,390.6,48.66Zm9.411,9.942c0,.025,0,.051-.006.076Zm-2.232,19.257a22.411,22.411,0,0,1-6.695-6.974l-.057-.093c-.079-.133-.155-.269-.232-.4s-.143-.245-.212-.37c-.017-.032-.034-.065-.052-.1a22.41,22.41,0,0,1-2.633-9.3l12.168.038A10.091,10.091,0,0,0,403.9,67.34h0ZM400,59.966c0,.026,0,.051.005.076Zm5.024,8.133-.043-.025Zm14.932,11.164a22.407,22.407,0,0,1-9.387,2.312l-.108,0c-.156,0-.313,0-.469,0s-.283,0-.424,0l-.108,0a22.4,22.4,0,0,1-9.375-2.371L406.2,68.684h0a10.11,10.11,0,0,0,7.706.024h0ZM405.589,68.4h0Zm9.5-.273.043-.025Zm-.568.3h0Zm15.051,1.61-.053.1c-.077.138-.157.274-.237.409s-.139.244-.212.363l-.057.093a22.4,22.4,0,0,1-6.74,6.933l-6.051-10.557A10.1,10.1,0,0,0,420.1,60.72h0l12.168.038A22.41,22.41,0,0,1,429.572,70.043ZM414.579,50.3h0Zm.566.306.042.025Zm5.02,9.421-.006.077C420.16,60.081,420.163,60.055,420.165,60.03Zm9.423-11.336.05.092a22.414,22.414,0,0,1,2.633,9.3L420.1,58.051h0a10.093,10.093,0,0,0-3.831-6.684h0l6.118-10.519a22.413,22.413,0,0,1,6.7,6.976l.055.091c.074.123.143.248.214.372S429.513,48.557,429.588,48.694Zm-9.419,10.048-.006-.077Z"/><path class="e" d="M594.517-25.149c-.114-.276-.229-.551-.349-.826-.071-.162-.144-.323-.216-.485s-.143-.319-.216-.478c-.126-.272-.256-.542-.386-.811-.024-.047-.046-.095-.069-.142-.036-.072-.069-.146-.1-.219q-.684-1.372-1.454-2.685l9.144-10.464-5.929-7.276-12.1,6.842q-1.221-1.1-2.529-2.114l-.126-.1q-.355-.273-.715-.541c-.142-.1-.284-.206-.427-.309s-.285-.207-.429-.308q-.369-.26-.741-.511c-.043-.028-.085-.058-.128-.087q-1.375-.921-2.8-1.735l2.687-13.635-8.772-3.337L561.8-52.393c-.63-.134-1.263-.257-1.9-.364-.447-.075-.9-.141-1.346-.2l-.162-.021c-.3-.04-.59-.077-.887-.111-.175-.02-.351-.037-.526-.055s-.348-.036-.523-.052c-.3-.027-.6-.05-.9-.071l-.152-.012q-1.651-.111-3.3-.1l-4.49-13.151-9.266,1.5-.122,13.9q-1.563.509-3.1,1.134c-.048.019-.1.04-.143.06-.223.092-.447.182-.669.278l-.16.071c-.162.071-.323.144-.484.216s-.32.143-.479.217c-.272.125-.541.255-.81.385l-.115.055-.028.014q-1.485.729-2.9,1.56l-10.464-9.144-7.276,5.929,6.842,12.1q-1.1,1.221-2.114,2.529l-.019.024-.077.1q-.273.355-.542.716c-.1.141-.206.283-.308.425s-.208.286-.309.431c-.034.047-.069.094-.1.142-.138.2-.272.4-.407.6l-.088.129q-.921,1.374-1.735,2.8L499.11-33.059l-3.336,8.773,11.973,7.053q-.341,1.608-.566,3.248c-.008.052-.014.1-.021.157-.039.3-.077.592-.111.89-.02.176-.037.352-.055.528-.014.139-.031.278-.044.417l0,.05,0,.054c-.027.3-.05.6-.071.9l-.012.157q-.111,1.652-.1,3.3L493.607-3.05l1.5,9.265,13.9.122q.509,1.563,1.134,3.1c.02.05.041.1.061.149.114.275.229.549.348.823.071.164.145.326.218.489s.141.317.214.474c.127.274.257.545.389.816.022.046.043.091.066.137q.729,1.487,1.56,2.905l-9.144,10.464,5.929,7.277,12.1-6.843q1.221,1.1,2.53,2.115l.12.091q.359.276.722.547c.139.1.279.2.419.3s.29.21.437.314c.243.171.488.338.733.5l.136.093q1.374.921,2.8,1.734L527.081,45.46l8.773,3.337,7.053-11.973q1.608.34,3.249.566l.151.019c.3.04.6.078.9.112.174.02.348.037.521.055s.352.036.528.052c.3.027.595.05.892.071.054,0,.107.009.161.012q1.652.111,3.294.1l4.491,13.151,9.265-1.5.122-13.9q1.563-.509,3.1-1.133l.145-.061c.223-.092.445-.182.667-.278l.16-.071c.162-.071.323-.144.485-.216s.319-.143.478-.216c.272-.126.542-.256.811-.387.038-.018.077-.035.115-.054l.027-.014q1.487-.729,2.9-1.559l10.464,9.144,7.277-5.929-6.843-12.1q1.1-1.221,2.115-2.53l.018-.023c.025-.032.049-.065.073-.1q.276-.357.547-.722c.1-.139.2-.279.3-.419s.21-.29.314-.437l.1-.141c.137-.2.27-.4.4-.593.031-.045.062-.089.092-.135q.921-1.374,1.734-2.8L605.6,17.489l3.337-8.772L596.964,1.663q.34-1.608.566-3.249c.007-.05.013-.1.019-.151.04-.3.078-.6.112-.9.02-.174.037-.348.055-.522s.036-.351.052-.527c.027-.3.05-.594.071-.89l.012-.163c.005-.081.013-.161.018-.242q.094-1.528.083-3.052l13.151-4.49-1.5-9.266-13.9-.122q-.508-1.562-1.133-3.1ZM545.506-44.378l.176-.033c.239-.043.478-.078.717-.117.254-.041.508-.086.763-.122l.177-.024a37.533,37.533,0,0,1,16.137,1.366l-7.244,19.046h0a16.893,16.893,0,0,0-6.575-.232,16.881,16.881,0,0,0-6.168,2.29L530.617-38A37.545,37.545,0,0,1,545.506-44.378Zm8.8,48.641a12.218,12.218,0,0,1-13.993-10.1,12.216,12.216,0,0,1,10.1-13.993A12.218,12.218,0,0,1,564.4-9.731,12.219,12.219,0,0,1,554.3,4.263ZM541.694-20.928l-.064.052Zm.856-.653h0Zm-25.309,1.428c.019-.055.038-.11.058-.165.081-.225.169-.446.253-.669.093-.245.183-.491.281-.735l.067-.162a37.524,37.524,0,0,1,9.252-13.293l12.875,15.8h0a16.9,16.9,0,0,0-4.587,12.06l-20.121,3.25A37.53,37.53,0,0,1,517.241-20.153ZM535.5-6.285c0,.043.007.085.011.128C535.508-6.2,535.505-6.242,535.5-6.285Zm1.556,32.434a37.529,37.529,0,0,1-12.965-9.7l-.118-.138c-.168-.2-.33-.4-.494-.6-.151-.184-.3-.367-.451-.555-.038-.048-.075-.1-.112-.145A37.534,37.534,0,0,1,516.031.345L536.152-2.9a16.908,16.908,0,0,0,8.151,10h0Zm-1.2-30.176c.009.041.02.082.03.123C535.876-3.945,535.865-3.986,535.856-4.027ZM546.374,8.046l-.078-.03Zm27.719,14.385a37.52,37.52,0,0,1-14.885,6.376l-.178.034c-.258.046-.517.085-.776.126-.233.038-.466.079-.7.112l-.179.025a37.546,37.546,0,0,1-16.14-1.366l7.245-19.046h0a16.878,16.878,0,0,0,6.576.232,16.887,16.887,0,0,0,6.168-2.29h0ZM547.389,8.4h0Zm15.627-3.038.064-.052Zm-.856.654,0,0Zm25.312-1.437c-.02.057-.04.115-.061.172-.089.249-.186.494-.28.74-.083.22-.164.44-.251.658-.023.057-.046.113-.07.169a37.525,37.525,0,0,1-9.252,13.294l-12.875-15.8a16.9,16.9,0,0,0,4.588-12.06h0l20.121-3.25A37.541,37.541,0,0,1,587.472,4.575ZM557.319-23.967h0Zm1.018.351.077.03ZM569.2-9.413c.005.043.008.086.011.129C569.206-9.327,569.2-9.37,569.2-9.413Zm12.487-21.3c.037.046.072.093.108.139a37.518,37.518,0,0,1,6.886,14.66l-20.121,3.25h0a16.9,16.9,0,0,0-8.151-10h0l7.247-19.051a37.538,37.538,0,0,1,12.968,9.707l.116.135c.154.183.3.37.454.556C581.357-31.119,581.524-30.919,581.685-30.714Zm-12.83,19.172c-.01-.042-.021-.084-.031-.126C568.834-11.626,568.845-11.584,568.855-11.542Z"/><g class="f"><line class="g" x1="191.452" y2="191.452" transform="translate(714.289 -47.472)"/><line class="g" x1="191.452" y2="191.452" transform="translate(686.377 -47.472)"/><line class="g" x1="191.452" y2="191.452" transform="translate(658.465 -47.472)"/><line class="g" x1="191.452" y2="191.452" transform="translate(630.553 -47.472)"/><line class="g" x1="191.452" y2="191.452" transform="translate(728.245 -47.472)"/><line class="g" x1="191.452" y2="191.452" transform="translate(700.333 -47.472)"/><line class="g" x1="191.452" y2="191.452" transform="translate(672.421 -47.472)"/><line class="g" x1="191.452" y2="191.452" transform="translate(644.509 -47.472)"/><line class="g" x1="191.452" y2="191.452" transform="translate(616.597 -47.472)"/><line class="g" x1="191.452" y2="191.452" transform="translate(602.641 -47.472)"/><line class="g" x1="191.452" y2="191.452" transform="translate(588.685 -47.472)"/><line class="g" x1="191.452" y2="191.452" transform="translate(574.729 -47.472)"/><line class="g" x1="191.452" y2="191.452" transform="translate(560.773 -47.472)"/><line class="g" x1="191.452" y2="191.452" transform="translate(546.817 -47.472)"/><line class="g" x1="191.452" y2="191.452" transform="translate(532.861 -47.472)"/><line class="g" x1="191.452" y2="191.452" transform="translate(518.905 -47.472)"/><line class="g" x1="191.452" y2="191.452" transform="translate(504.949 -47.472)"/><line class="g" x1="191.452" y2="191.452" transform="translate(707.311 -47.472)"/><line class="g" x1="191.452" y2="191.452" transform="translate(679.399 -47.472)"/><line class="g" x1="191.452" y2="191.452" transform="translate(651.487 -47.472)"/><line class="g" x1="191.452" y2="191.452" transform="translate(623.575 -47.472)"/><line class="g" x1="191.452" y2="191.452" transform="translate(595.663 -47.472)"/><line class="g" x1="191.452" y2="191.452" transform="translate(567.751 -47.472)"/><line class="g" x1="191.452" y2="191.452" transform="translate(539.839 -47.472)"/><line class="g" x1="191.452" y2="191.452" transform="translate(721.267 -47.472)"/><line class="g" x1="191.452" y2="191.452" transform="translate(693.355 -47.472)"/><line class="g" x1="191.452" y2="191.452" transform="translate(665.443 -47.472)"/><line class="g" x1="191.452" y2="191.452" transform="translate(637.531 -47.472)"/><line class="g" x1="191.452" y2="191.452" transform="translate(609.619 -47.472)"/><line class="g" x1="191.452" y2="191.452" transform="translate(581.707 -47.472)"/><line class="g" x1="191.452" y2="191.452" transform="translate(553.795 -47.472)"/><line class="g" x1="191.452" y2="191.452" transform="translate(525.883 -47.472)"/><line class="g" x1="191.452" y2="191.452" transform="translate(511.927 -47.472)"/><line class="g" x1="191.452" y2="191.452" transform="translate(497.971 -47.472)"/><line class="g" x1="191.452" y2="191.452" transform="translate(490.993 -47.472)"/><line class="g" x1="191.452" y2="191.452" transform="translate(484.015 -47.472)"/><line class="g" x1="191.452" y2="191.452" transform="translate(477.037 -47.472)"/><line class="g" x1="191.452" y2="191.452" transform="translate(470.059 -47.472)"/><line class="g" x1="191.452" y2="191.452" transform="translate(463.081 -47.472)"/><line class="g" x1="191.452" y2="191.452" transform="translate(456.103 -47.472)"/></g><path class="h" d="M620.55,54.826c.06.457.122.914.191,1.371.041.27.086.539.129.809s.085.533.132.8c.079.457.165.911.253,1.365.015.079.029.159.045.239.024.123.045.246.07.369q.345,1.7.771,3.366c.1.408.216.814.328,1.219L604.654,76.328l5.943,13.22,20.774-5.384q1.383,2.125,2.93,4.162c.049.065.1.129.149.194q.422.549.852,1.093c.169.212.341.421.512.63s.343.424.519.633q.445.534.9,1.056c.053.061.1.122.157.182q1.683,1.925,3.49,3.707l-9.446,19.27,11.757,8.476,15.3-15.049q2.262,1.149,4.619,2.139c.075.032.151.062.226.093q.641.266,1.286.522c.252.1.506.194.76.29s.506.194.761.287c.435.16.871.313,1.308.464l.23.08q2.42.825,4.875,1.465l1.454,21.411,14.421,1.463,5.724-20.683q2.534-.135,5.071-.457l.237-.032c.37-.048.739-.094,1.108-.148.089-.013.179-.03.268-.043.27-.04.539-.085.808-.129s.534-.085.8-.132c.456-.079.91-.164,1.363-.252.064-.013.129-.023.193-.036l.047-.01q2.508-.495,4.954-1.168l11.965,17.815,13.22-5.944L728.8,104.739c.352-.229.705-.458,1.054-.695q1.426-.964,2.811-2c.1-.076.2-.154.3-.23l.038-.028c.053-.04.1-.081.155-.12.367-.281.733-.564,1.1-.853.211-.169.419-.34.629-.511s.424-.344.633-.519c.07-.058.141-.114.21-.172.285-.24.564-.485.844-.729l.184-.158q1.925-1.683,3.707-3.49l19.269,9.446,8.477-11.757-15.049-15.3Q754.307,75.359,755.3,73c.032-.078.063-.156.1-.234.176-.424.35-.849.518-1.278.1-.255.2-.512.294-.768s.191-.5.284-.753c.16-.438.314-.877.466-1.316.025-.075.052-.148.077-.222q.825-2.421,1.466-4.877L779.91,62.1l1.463-14.42L760.69,41.956q-.135-2.534-.457-5.07c-.01-.08-.021-.159-.032-.238q-.088-.688-.191-1.375c-.04-.271-.085-.539-.129-.809s-.085-.534-.132-.8c-.079-.456-.164-.91-.252-1.363-.016-.08-.03-.16-.046-.24q-.5-2.507-1.168-4.954L776.1,15.141l-5.944-13.22L749.38,7.3Q748,5.18,746.45,3.143c-.049-.065-.1-.129-.149-.193-.281-.367-.563-.732-.852-1.094-.169-.212-.341-.42-.511-.63s-.344-.424-.519-.633c-.3-.356-.6-.706-.9-1.055l-.158-.183q-1.683-1.924-3.49-3.707l9.446-19.269L737.559-32.1l-15.3,15.049Q720-18.2,717.64-19.189l-.217-.089q-.643-.269-1.294-.525c-.251-.1-.5-.193-.754-.289s-.509-.194-.766-.288c-.433-.159-.868-.312-1.3-.462l-.235-.082q-2.42-.825-4.874-1.465L706.742-43.8l-14.421-1.462L686.6-24.58q-2.532.136-5.07.457l-.241.032c-.368.048-.737.094-1.1.148-.089.014-.178.03-.267.043-.271.041-.54.086-.81.129s-.533.085-.8.132c-.456.079-.911.165-1.365.253l-.192.035-.047.01q-2.506.495-4.954,1.169L659.782-39.987l-13.22,5.943,5.384,20.774q-2.125,1.385-4.164,2.931l-.036.027-.148.115c-.369.283-.738.568-1.1.86-.209.166-.414.335-.621.5s-.429.348-.642.526l-.208.17c-.283.239-.56.482-.839.724-.063.055-.127.109-.19.165q-1.925,1.682-3.706,3.488L621.02-13.206,612.543-1.449l15.049,15.3q-1.149,2.26-2.139,4.618c-.032.075-.061.151-.093.225-.177.427-.352.855-.521,1.287-.011.026-.022.052-.032.078s-.02.047-.029.071c-.079.2-.153.407-.23.611-.1.253-.194.506-.287.761-.16.435-.313.871-.463,1.308-.027.077-.055.153-.081.23q-.823,2.42-1.465,4.875l-21.411,1.454-1.462,14.421,20.682,5.724q.137,2.532.457,5.07C620.528,54.664,620.54,54.744,620.55,54.826Zm45.2-61.042c.363-.172.731-.332,1.1-.495.336-.152.669-.307,1.008-.452l.261-.11a57.963,57.963,0,0,1,26.627-4.317l.281.021c.4.034.8.079,1.206.121.364.037.728.068,1.091.112l.279.036a57.945,57.945,0,0,1,25.22,9.574l.233.159c.33.229.653.468.978.7.3.215.6.426.894.647l.226.171a57.973,57.973,0,0,1,17.053,20.9c.04.084.081.167.121.251.174.37.337.744.5,1.117.149.33.3.658.444.991.037.086.073.173.109.259a57.951,57.951,0,0,1,4.318,26.64c-.007.086-.013.173-.02.26-.034.407-.08.811-.122,1.216-.037.367-.069.735-.113,1.1-.01.086-.022.172-.033.258A57.948,57.948,0,0,1,737.83,78.19l-.153.224c-.21.3-.429.6-.645.9-.235.329-.468.66-.711.984l-.165.217a57.97,57.97,0,0,1-20.909,17.057l-.246.118c-.341.161-.686.31-1.03.464-.361.164-.72.33-1.085.486l-.249.1A57.96,57.96,0,0,1,686,103.059c-.093-.007-.185-.013-.277-.021-.38-.031-.758-.075-1.136-.114s-.778-.073-1.167-.119l-.273-.035a57.955,57.955,0,0,1-25.225-9.579l-.227-.155c-.31-.215-.612-.439-.918-.66s-.644-.457-.96-.694l-.22-.167a57.946,57.946,0,0,1-17.056-20.909c-.04-.083-.08-.165-.119-.248-.157-.331-.3-.667-.452-1-.167-.37-.338-.738-.5-1.112-.036-.084-.071-.169-.106-.253a57.947,57.947,0,0,1-4.317-26.623c.007-.1.014-.2.022-.295.03-.366.072-.732.11-1.1.039-.4.074-.792.122-1.187.012-.1.025-.195.037-.292a57.962,57.962,0,0,1,9.572-25.207l.159-.232c.232-.335.475-.663.714-.993.212-.294.419-.591.637-.881l.171-.225A57.949,57.949,0,0,1,665.5-6.095Z"/><path class="h" d="M709.861,89.076A47.52,47.52,0,1,0,647.035,65.22,47.521,47.521,0,0,0,709.861,89.076Zm.731-66.052a12.424,12.424,0,1,1-6.237,16.426A12.424,12.424,0,0,1,710.592,23.024ZM673.9,9.093a12.424,12.424,0,1,1-6.237,16.426A12.425,12.425,0,0,1,673.9,9.093Zm19.474,35.293a3.29,3.29,0,1,1-4.349-1.652A3.29,3.29,0,0,1,693.376,44.386Zm3.284,15.328a12.424,12.424,0,1,1-6.236,16.425A12.424,12.424,0,0,1,696.66,59.714ZM659.971,45.783a12.424,12.424,0,1,1-6.237,16.425A12.422,12.422,0,0,1,659.971,45.783Z"/><g class="i"><line class="c" x1="87.726" y2="87.726" transform="translate(535.299 74.554)"/><line class="c" x1="87.726" y2="87.726" transform="translate(522.51 74.554)"/><line class="c" x1="87.726" y2="87.726" transform="translate(509.72 74.554)"/><line class="c" x1="87.726" y2="87.726" transform="translate(496.931 74.554)"/><line class="c" x1="87.726" y2="87.726" transform="translate(541.694 74.554)"/><line class="c" x1="87.726" y2="87.726" transform="translate(528.905 74.554)"/><line class="c" x1="87.726" y2="87.726" transform="translate(516.115 74.554)"/><line class="c" x1="87.726" y2="87.726" transform="translate(503.325 74.554)"/><line class="c" x1="87.726" y2="87.726" transform="translate(490.536 74.554)"/><line class="c" x1="87.726" y2="87.726" transform="translate(484.141 74.554)"/><line class="c" x1="87.726" y2="87.726" transform="translate(477.746 74.554)"/><line class="c" x1="87.726" y2="87.726" transform="translate(471.351 74.554)"/><line class="c" x1="87.726" y2="87.726" transform="translate(464.956 74.554)"/><line class="c" x1="87.726" y2="87.726" transform="translate(458.562 74.554)"/><line class="c" x1="87.726" y2="87.726" transform="translate(452.167 74.554)"/><line class="c" x1="87.726" y2="87.726" transform="translate(445.772 74.554)"/><line class="c" x1="87.726" y2="87.726" transform="translate(439.377 74.554)"/><line class="c" x1="87.726" y2="87.726" transform="translate(532.102 74.554)"/><line class="c" x1="87.726" y2="87.726" transform="translate(519.312 74.554)"/><line class="c" x1="87.726" y2="87.726" transform="translate(506.523 74.554)"/><line class="c" x1="87.726" y2="87.726" transform="translate(493.733 74.554)"/><line class="c" x1="87.726" y2="87.726" transform="translate(480.944 74.554)"/><line class="c" x1="87.726" y2="87.726" transform="translate(468.154 74.554)"/><line class="c" x1="87.726" y2="87.726" transform="translate(455.364 74.554)"/><line class="c" x1="87.726" y2="87.726" transform="translate(538.497 74.554)"/><line class="c" x1="87.726" y2="87.726" transform="translate(525.707 74.554)"/><line class="c" x1="87.726" y2="87.726" transform="translate(512.918 74.554)"/><line class="c" x1="87.726" y2="87.726" transform="translate(500.128 74.554)"/><line class="c" x1="87.726" y2="87.726" transform="translate(487.338 74.554)"/><line class="c" x1="87.726" y2="87.726" transform="translate(474.549 74.554)"/><line class="c" x1="87.726" y2="87.726" transform="translate(461.759 74.554)"/><line class="c" x1="87.726" y2="87.726" transform="translate(448.969 74.554)"/><line class="c" x1="87.726" y2="87.726" transform="translate(442.575 74.554)"/><line class="c" x1="87.726" y2="87.726" transform="translate(436.18 74.554)"/><line class="c" x1="87.726" y2="87.726" transform="translate(432.982 74.554)"/><line class="c" x1="87.726" y2="87.726" transform="translate(429.785 74.554)"/><line class="c" x1="87.726" y2="87.726" transform="translate(426.588 74.554)"/><line class="c" x1="87.726" y2="87.726" transform="translate(423.39 74.554)"/><line class="c" x1="87.726" y2="87.726" transform="translate(420.193 74.554)"/><line class="c" x1="87.726" y2="87.726" transform="translate(416.995 74.554)"/></g><path class="e" d="M492.347,121.428c.028.21.056.419.088.629.018.124.039.247.059.37s.039.245.06.367c.036.209.076.417.116.625.007.037.013.073.021.11.011.056.02.112.032.169q.158.777.353,1.542c.048.187.1.373.15.559l-8.163,5.482,2.723,6.058,9.519-2.467q.635.974,1.343,1.907c.022.03.046.059.068.088.129.168.258.336.391.5.077.1.156.193.234.289s.158.194.238.29q.2.244.413.484l.072.083q.771.882,1.6,1.7l-4.328,8.829,5.387,3.885,7.01-6.9q1.037.526,2.116.98l.1.043q.292.121.589.239l.348.133c.116.044.232.089.349.131q.3.109.6.213l.106.037q1.109.376,2.233.671l.667,9.811,6.607.67,2.623-9.477q1.161-.063,2.324-.21l.109-.014c.169-.022.338-.043.507-.068l.123-.02c.124-.018.247-.039.37-.059s.245-.039.367-.06q.313-.055.625-.116l.088-.016.022-.005q1.149-.227,2.27-.535l5.482,8.163,6.058-2.724-2.467-9.518c.161-.106.323-.211.483-.319q.654-.442,1.288-.919c.046-.034.09-.07.136-.1l.017-.013.071-.055c.168-.129.336-.259.5-.391.1-.077.192-.156.288-.234l.291-.238c.031-.027.064-.052.1-.079.131-.11.259-.222.387-.334l.085-.072q.881-.771,1.7-1.6l8.83,4.328,3.884-5.387-6.9-7.01q.527-1.036.98-2.116c.015-.035.029-.071.044-.107.081-.194.161-.389.238-.585.046-.117.09-.235.134-.352s.088-.23.13-.345q.111-.3.214-.6c.012-.034.024-.067.035-.1q.378-1.108.672-2.235l9.811-.666.67-6.608-9.477-2.622q-.063-1.161-.209-2.324l-.015-.109q-.04-.315-.088-.63c-.018-.124-.039-.247-.059-.37s-.039-.245-.06-.367c-.036-.209-.076-.417-.116-.625l-.021-.11q-.227-1.149-.535-2.27l8.163-5.483L560.9,97.187l-9.519,2.467q-.635-.974-1.343-1.907c-.022-.03-.046-.059-.068-.089-.129-.168-.258-.335-.391-.5-.077-.1-.156-.193-.234-.289s-.158-.194-.238-.29c-.136-.163-.274-.323-.413-.483l-.072-.084q-.771-.882-1.6-1.7l4.328-8.83L545.962,81.6l-7.01,6.9q-1.037-.527-2.117-.981l-.1-.041q-.294-.123-.593-.24c-.114-.046-.23-.089-.345-.133s-.233-.089-.351-.132q-.3-.11-.6-.211l-.108-.038q-1.109-.378-2.233-.671l-.667-9.811-6.607-.67-2.623,9.477q-1.161.062-2.323.209l-.111.015c-.169.022-.338.043-.506.068l-.123.019c-.124.019-.247.04-.371.06s-.244.039-.366.06q-.313.054-.625.116l-.088.016-.022,0q-1.149.227-2.27.535l-5.482-8.163-6.058,2.723,2.467,9.519q-.973.635-1.908,1.343l-.017.013-.067.052c-.17.13-.338.261-.506.394-.095.076-.189.154-.284.231s-.2.16-.294.241l-.1.078c-.13.11-.257.221-.385.332l-.087.075q-.882.771-1.7,1.6l-8.83-4.329-3.884,5.388,6.9,7.01q-.527,1.035-.98,2.116c-.015.034-.029.069-.043.1-.081.2-.161.392-.239.59l-.014.035-.014.033c-.036.093-.07.187-.105.28-.044.116-.089.232-.132.349-.073.2-.143.4-.212.6l-.037.1q-.378,1.108-.671,2.234l-9.811.667-.67,6.607,9.477,2.623q.062,1.161.209,2.323Zm20.711-27.97c.167-.078.335-.152.5-.227s.307-.14.462-.207l.12-.05A26.558,26.558,0,0,1,526.344,91l.128.01c.185.015.369.036.553.055.167.017.333.031.5.051l.128.017a26.543,26.543,0,0,1,11.556,4.387l.107.073c.151.105.3.214.448.322s.274.195.41.3l.1.079a26.555,26.555,0,0,1,7.814,9.577l.055.115c.08.17.155.341.231.512.068.151.138.3.2.454.017.04.034.079.05.119a26.554,26.554,0,0,1,1.979,12.206l-.009.12c-.016.186-.037.371-.056.557-.017.168-.032.336-.052.5l-.015.118a26.555,26.555,0,0,1-4.391,11.566c-.023.034-.046.069-.07.1-.1.138-.2.274-.295.41s-.215.3-.326.452c-.025.033-.051.065-.076.1a26.551,26.551,0,0,1-9.581,7.815l-.112.054c-.157.074-.315.143-.472.213s-.33.152-.5.223l-.115.048a26.56,26.56,0,0,1-12.2,1.979l-.127-.01c-.174-.014-.347-.034-.521-.052s-.356-.034-.534-.055l-.126-.016a26.566,26.566,0,0,1-11.558-4.389l-.1-.071c-.142-.1-.28-.2-.42-.3s-.295-.21-.44-.319l-.1-.076a26.548,26.548,0,0,1-7.815-9.581c-.019-.038-.037-.075-.055-.113-.072-.152-.138-.306-.207-.459-.077-.17-.155-.338-.228-.51-.017-.038-.033-.077-.049-.116a26.55,26.55,0,0,1-1.978-12.2c0-.045.007-.09.01-.135.014-.168.033-.335.051-.5s.034-.363.055-.544c.006-.045.012-.089.017-.134A26.561,26.561,0,0,1,502.6,102.4l.072-.106c.107-.154.218-.3.328-.455.1-.135.192-.271.291-.4.026-.034.053-.068.079-.1a26.555,26.555,0,0,1,9.577-7.814Z"/><g class="j"><line class="g" x1="191.452" y2="191.452" transform="translate(770.573 173.726)"/><line class="g" x1="191.452" y2="191.452" transform="translate(742.66 173.726)"/><line class="g" x1="191.452" y2="191.452" transform="translate(714.748 173.726)"/><line class="g" x1="191.452" y2="191.452" transform="translate(686.836 173.726)"/><line class="g" x1="191.452" y2="191.452" transform="translate(784.529 173.726)"/><line class="g" x1="191.452" y2="191.452" transform="translate(756.616 173.726)"/><line class="g" x1="191.452" y2="191.452" transform="translate(728.704 173.726)"/><line class="g" x1="191.452" y2="191.452" transform="translate(700.792 173.726)"/><line class="g" x1="191.452" y2="191.452" transform="translate(672.88 173.726)"/><line class="g" x1="191.452" y2="191.452" transform="translate(658.924 173.726)"/><line class="g" x1="191.452" y2="191.452" transform="translate(644.969 173.726)"/><line class="g" x1="191.452" y2="191.452" transform="translate(631.013 173.726)"/><line class="g" x1="191.452" y2="191.452" transform="translate(617.056 173.726)"/><line class="g" x1="191.452" y2="191.452" transform="translate(603.1 173.726)"/><line class="g" x1="191.452" y2="191.452" transform="translate(589.144 173.726)"/><line class="g" x1="191.452" y2="191.452" transform="translate(575.188 173.726)"/><line class="g" x1="191.452" y2="191.452" transform="translate(561.232 173.726)"/><line class="g" x1="191.452" y2="191.452" transform="translate(763.594 173.726)"/><line class="g" x1="191.452" y2="191.452" transform="translate(735.682 173.726)"/><line class="g" x1="191.452" y2="191.452" transform="translate(707.771 173.726)"/><line class="g" x1="191.452" y2="191.452" transform="translate(679.858 173.726)"/><line class="g" x1="191.452" y2="191.452" transform="translate(651.946 173.726)"/><line class="g" x1="191.452" y2="191.452" transform="translate(624.034 173.726)"/><line class="g" x1="191.452" y2="191.452" transform="translate(596.122 173.726)"/><line class="g" x1="191.452" y2="191.452" transform="translate(777.55 173.726)"/><line class="g" x1="191.452" y2="191.452" transform="translate(749.638 173.726)"/><line class="g" x1="191.452" y2="191.452" transform="translate(721.727 173.726)"/><line class="g" x1="191.452" y2="191.452" transform="translate(693.814 173.726)"/><line class="g" x1="191.452" y2="191.452" transform="translate(665.902 173.726)"/><line class="g" x1="191.452" y2="191.452" transform="translate(637.99 173.726)"/><line class="g" x1="191.452" y2="191.452" transform="translate(610.078 173.726)"/><line class="g" x1="191.452" y2="191.452" transform="translate(582.167 173.726)"/><line class="g" x1="191.452" y2="191.452" transform="translate(568.211 173.726)"/><line class="g" x1="191.452" y2="191.452" transform="translate(554.254 173.726)"/><line class="g" x1="191.452" y2="191.452" transform="translate(547.276 173.726)"/><line class="g" x1="191.452" y2="191.452" transform="translate(540.299 173.726)"/><line class="g" x1="191.452" y2="191.452" transform="translate(533.321 173.726)"/><line class="g" x1="191.452" y2="191.452" transform="translate(526.343 173.726)"/><line class="g" x1="191.452" y2="191.452" transform="translate(519.365 173.726)"/><line class="g" x1="191.452" y2="191.452" transform="translate(512.387 173.726)"/></g><path class="g" d="M750.393,351.672H737.1v-166.3h13.291"/><g class="k"><line class="g" x2="191.452" y2="191.452" transform="translate(271.619 -211.81)"/><line class="g" x2="191.452" y2="191.452" transform="translate(271.619 -183.898)"/><line class="g" x2="191.452" y2="191.452" transform="translate(271.619 -155.986)"/><line class="g" x2="191.452" y2="191.452" transform="translate(271.619 -128.074)"/><line class="g" x2="191.452" y2="191.452" transform="translate(271.619 -225.766)"/><line class="g" x2="191.452" y2="191.452" transform="translate(271.619 -197.854)"/><line class="g" x2="191.452" y2="191.452" transform="translate(271.619 -169.942)"/><line class="g" x2="191.452" y2="191.452" transform="translate(271.619 -142.03)"/><line class="g" x2="191.452" y2="191.452" transform="translate(271.619 -114.118)"/><line class="g" x2="191.452" y2="191.452" transform="translate(271.619 -100.162)"/><line class="g" x2="191.452" y2="191.452" transform="translate(271.619 -86.206)"/><line class="g" x2="191.452" y2="191.452" transform="translate(271.619 -72.25)"/><line class="g" x2="191.452" y2="191.452" transform="translate(271.619 -58.294)"/><line class="g" x2="191.452" y2="191.452" transform="translate(271.619 -44.338)"/><line class="g" x2="191.452" y2="191.452" transform="translate(271.619 -30.382)"/><line class="g" x2="191.452" y2="191.452" transform="translate(271.619 -16.426)"/><line class="g" x2="191.452" y2="191.452" transform="translate(271.619 -2.47)"/><line class="g" x2="191.452" y2="191.452" transform="translate(271.619 -204.832)"/><line class="g" x2="191.452" y2="191.452" transform="translate(271.619 -176.92)"/><line class="g" x2="191.452" y2="191.452" transform="translate(271.619 -149.008)"/><line class="g" x2="191.452" y2="191.452" transform="translate(271.619 -121.096)"/><line class="g" x2="191.452" y2="191.452" transform="translate(271.619 -93.184)"/><line class="g" x2="191.452" y2="191.452" transform="translate(271.619 -65.272)"/><line class="g" x2="191.452" y2="191.452" transform="translate(271.619 -37.36)"/><line class="g" x2="191.452" y2="191.452" transform="translate(271.619 -218.788)"/><line class="g" x2="191.452" y2="191.452" transform="translate(271.619 -190.876)"/><line class="g" x2="191.452" y2="191.452" transform="translate(271.619 -162.964)"/><line class="g" x2="191.452" y2="191.452" transform="translate(271.619 -135.052)"/><line class="g" x2="191.452" y2="191.452" transform="translate(271.619 -107.14)"/><line class="g" x2="191.452" y2="191.452" transform="translate(271.619 -79.228)"/><line class="g" x2="191.452" y2="191.452" transform="translate(271.619 -51.316)"/><line class="g" x2="191.452" y2="191.452" transform="translate(271.619 -23.404)"/><line class="g" x2="191.452" y2="191.452" transform="translate(271.619 -9.448)"/><line class="g" x2="191.452" y2="191.452" transform="translate(271.619 4.508)"/><line class="g" x2="191.452" y2="191.452" transform="translate(271.619 11.486)"/><line class="g" x2="191.452" y2="191.452" transform="translate(271.619 18.464)"/><line class="g" x2="191.452" y2="191.452" transform="translate(271.619 25.442)"/><line class="g" x2="191.452" y2="191.452" transform="translate(271.619 32.42)"/><line class="g" x2="191.452" y2="191.452" transform="translate(271.619 39.398)"/><line class="g" x2="191.452" y2="191.452" transform="translate(271.619 46.376)"/></g><path class="g" d="M449.564-.178V21.511h-166.3V-.178"/><path class="d" d="M579.192,75.935c-.026.165-.048.33-.066.5-.009.082-.017.165-.024.248-.014.166-.024.331-.03.5v.086c0,.063,0,.126,0,.189s0,.127,0,.19v.036a10.265,10.265,0,0,0,.192,1.859l-3.051,2.805,2.245,3.977,3.979-1.163q.213.193.435.374c.129.105.262.207.4.305.067.049.135.1.2.145.136.1.275.186.415.274l.043.026.031.019.162.1.164.095.032.018.043.025q.326.18.666.338a10.4,10.4,0,0,0,1,.4l.9,4.045,4.567.044.982-4.027a10.257,10.257,0,0,0,1-.38q.342-.152.672-.326l.044-.024.032-.018c.055-.03.111-.06.165-.091l.025-.013.139-.082.032-.018c.085-.051.17-.1.255-.156.07-.044.139-.089.208-.135a10.255,10.255,0,0,0,1.05-.805l3.955,1.24,2.322-3.933-3-2.863q.086-.39.139-.782c.012-.093.024-.185.034-.278.018-.16.031-.321.041-.482l0-.024c.005-.1.009-.193.012-.289v-.036c0-.054,0-.108,0-.162v-.253a10.167,10.167,0,0,0-.192-1.859l3.052-2.805-2.246-3.977-3.978,1.163a10.266,10.266,0,0,0-1.034-.824c-.136-.1-.275-.187-.415-.274l-.043-.026-.033-.021c-.053-.032-.106-.065-.16-.1s-.11-.064-.166-.1l-.03-.017-.043-.025c-.217-.12-.439-.234-.666-.339a10.14,10.14,0,0,0-1-.4l-.9-4.045-4.567-.044-.982,4.027a10.162,10.162,0,0,0-1,.38c-.228.1-.452.209-.672.326l-.044.024-.03.017-.168.092-.024.013c-.046.026-.092.054-.138.081l-.033.019a10.18,10.18,0,0,0-1.513,1.1l-3.956-1.24L576.3,72.508l3,2.863Q579.237,75.653,579.192,75.935ZM586.3,71.92l.028-.015a6.436,6.436,0,0,1,2.906-.749h.166l.122,0h.031a6.455,6.455,0,0,1,2.891.8l.028.016c.039.022.077.045.115.068s.071.041.106.062l.027.017a6.441,6.441,0,0,1,2.1,2.142l.016.027c.023.038.044.077.066.116s.041.072.06.108l.015.027a6.448,6.448,0,0,1,.749,2.906v.031c0,.045,0,.09,0,.135s0,.082,0,.122v.032a6.454,6.454,0,0,1-.8,2.892l-.014.025c-.023.04-.046.079-.07.118s-.041.07-.062.105l-.015.024a6.447,6.447,0,0,1-2.144,2.1l-.026.015c-.035.021-.071.04-.106.06l-.119.067-.026.014a6.443,6.443,0,0,1-2.907.749H589.4c-.042,0-.083,0-.125,0h-.163a6.447,6.447,0,0,1-2.891-.805l-.027-.015-.109-.064c-.038-.022-.076-.044-.113-.067l-.026-.016a6.456,6.456,0,0,1-2.1-2.143l-.015-.026c-.022-.036-.041-.072-.062-.108s-.044-.077-.065-.116l-.014-.027a6.443,6.443,0,0,1-.749-2.907v-.031c0-.041,0-.082,0-.123s0-.09,0-.134v-.031a6.45,6.45,0,0,1,.8-2.89l.016-.029.061-.1.069-.116.018-.028a6.435,6.435,0,0,1,2.141-2.1l.027-.016c.039-.024.079-.046.12-.068S586.27,71.938,586.3,71.92Z"/><path class="d" d="M740.247,122c-.026.165-.048.33-.066.5-.009.082-.017.165-.024.248-.014.165-.024.331-.03.5v.087c0,.063,0,.126,0,.189s0,.126,0,.19v.036a10.191,10.191,0,0,0,.192,1.859l-3.051,2.805,2.245,3.977,3.978-1.163q.213.192.435.374.2.157.4.3c.067.049.135.1.2.145.137.1.275.186.416.274l.042.026.031.019.162.1.164.094.032.019.044.024q.325.182.665.339a10.31,10.31,0,0,0,1,.4l.9,4.045,4.566.044.982-4.027a10.424,10.424,0,0,0,1-.38q.344-.151.672-.326l.044-.024.032-.018.166-.091.024-.013.14-.082.031-.018c.086-.051.171-.1.255-.156s.14-.089.209-.135a10.362,10.362,0,0,0,1.05-.805l3.955,1.24,2.321-3.933-3-2.864c.056-.259.1-.52.138-.781.013-.093.025-.185.035-.278.017-.161.031-.321.04-.482l0-.024c.006-.1.01-.193.013-.289v-.036c0-.054,0-.108,0-.162v-.028q0-.095,0-.189v-.036a10.259,10.259,0,0,0-.192-1.859l3.051-2.805-2.245-3.977-3.979,1.163a10.191,10.191,0,0,0-1.034-.825c-.136-.094-.274-.186-.415-.274l-.042-.026-.034-.02q-.079-.05-.159-.1c-.055-.033-.111-.064-.166-.1l-.03-.017-.044-.025q-.325-.182-.665-.339a10.159,10.159,0,0,0-1-.4l-.9-4.045-4.567-.044-.981,4.027a9.922,9.922,0,0,0-1,.38q-.344.15-.672.326l-.045.024-.03.016c-.056.031-.112.061-.167.093l-.024.013c-.047.026-.093.053-.139.081l-.033.019a10.152,10.152,0,0,0-1.513,1.1l-3.955-1.24-2.322,3.933,3,2.864C740.313,121.628,740.277,121.815,740.247,122Zm7.114-4.016.028-.014a6.435,6.435,0,0,1,2.905-.749h.167l.122,0h.031a6.446,6.446,0,0,1,2.891.8l.027.015.116.068c.035.021.071.041.1.063l.027.017a6.454,6.454,0,0,1,2.1,2.142l.015.026c.023.039.045.078.067.117l.06.107.015.028a6.447,6.447,0,0,1,.748,2.906v.031c0,.045,0,.09,0,.135s0,.081,0,.122v.031a6.435,6.435,0,0,1-.8,2.892l-.014.026c-.022.039-.046.078-.069.118l-.062.105-.016.024a6.437,6.437,0,0,1-2.144,2.1l-.025.015-.107.06-.118.067-.027.014a6.449,6.449,0,0,1-2.906.749h-.031c-.042,0-.084,0-.126,0h-.162a6.447,6.447,0,0,1-2.892-.805l-.027-.015-.109-.064-.112-.067-.026-.016a6.438,6.438,0,0,1-2.1-2.143l-.016-.026c-.021-.036-.041-.073-.061-.109s-.044-.076-.066-.116l-.014-.027a6.449,6.449,0,0,1-.749-2.906v-.031c0-.041,0-.082,0-.123s0-.09,0-.135v-.03a6.448,6.448,0,0,1,.805-2.891l.016-.028c.019-.035.04-.07.061-.1s.045-.078.069-.116l.017-.028a6.445,6.445,0,0,1,2.141-2.1l.027-.016c.04-.024.08-.046.12-.068Z"/><circle class="c" cx="74.362" cy="74.362" r="74.362" transform="translate(447.191 -7.785) rotate(-45)"/><circle class="l" cx="62.73" cy="62.73" r="62.73" transform="translate(632.891 114.229)"/><circle class="l" cx="144.714" cy="144.714" r="144.714" transform="translate(347.699 -7.785) rotate(-45)"/><circle class="h" cx="54.678" cy="54.678" r="54.678" transform="translate(632.953 222.259) rotate(-80.861)"/><path class="g" d="M449.566-.174V72.955H363.459V-.174"/><path class="c" d="M750.392,151.626H569.539V-.174"/><path class="c" d="M750.393,294.973H618.87V-.171"/><rect class="d" width="59.122" height="1.864" transform="translate(451.43 -0.174) rotate(90)"/></g></g></svg>