<?xml version="1.0" encoding="utf-8"?>
<!-- Generator: Adobe Illustrator 22.1.0, SVG Export Plug-In . SVG Version: 6.00 Build 0)  -->
<svg version="1.1" id="Layer_1" xmlns="http://www.w3.org/2000/svg" xmlns:xlink="http://www.w3.org/1999/xlink" x="0px" y="0px"
	 viewBox="0 0 171 171" enable-background="new 0 0 171 171" xml:space="preserve">
<circle id="XMLID_16_" fill="#F8EFE6" cx="85.5" cy="85.5" r="76"/>
<g id="XMLID_11_" opacity="0.5">
	
		<circle fill="none" stroke="#F59C27" stroke-width="2" stroke-linecap="round" stroke-miterlimit="10" stroke-dasharray="6.005,6.005" cx="85.5" cy="85.5" r="84.1"/>
</g>
<g>
	<g>
		<ellipse fill="#253355" cx="85.5" cy="58.8" rx="16.8" ry="18.9"/>
		<path fill="#253355" d="M110.7,131.1c4.2-0.1,7.6-3.5,7.8-7.7c3.9-0.5,7-3.9,7-7.9v-5.2c0-3-1.7-5.7-4.2-7
			c0.1-0.9,0.2-1.9,0.2-2.9c0-12-8.9-21.9-20.4-23.5c0,0-0.1,0-0.1,0c-0.3,0-0.7-0.1-1-0.1c0,0,0,0.1,0,0.1c0,0.1,0,0.2,0,0.3
			c-0.1,0.6-0.2,1.1-0.5,1.6c-1.6,4-6.5,11.3-9.8,16.2l-1,0.2L88,86.4c1-0.5,1.8-1.3,2.3-2.3c0.4-0.7,0.6-1.4,0.6-2.2
			c0,0-2.5,1.1-5,1.1c-0.1,0-0.3,0-0.4,0c-0.1,0-0.3,0-0.4,0c-2.5,0-5-1.1-5-1.1c0,0.8,0.2,1.5,0.6,2.2c0.5,1,1.4,1.8,2.3,2.3
			l-0.6,8.7l-1-0.2c-3.4-4.8-8.2-12.1-9.8-16.2c-0.3-0.5-0.4-1.1-0.5-1.6c0-0.1,0-0.2,0-0.3c0,0,0-0.1,0-0.1c-0.3,0-0.7,0.1-1,0.1
			c0,0-0.1,0-0.1,0c-11.6,1.6-20.4,11.5-20.4,23.5c0,1.1,0.1,2,0.2,2.9c-2.5,1.4-4.2,4-4.2,7v5.2c0,4.1,3,7.4,7,7.9
			c0.1,4.2,3.5,7.6,7.8,7.7"/>
	</g>
</g>
</svg>
