<?xml version="1.0" encoding="utf-8"?>
<!-- Generator: Adobe Illustrator 22.1.0, SVG Export Plug-In . SVG Version: 6.00 Build 0)  -->
<svg version="1.1" id="Layer_1" xmlns="http://www.w3.org/2000/svg" xmlns:xlink="http://www.w3.org/1999/xlink" x="0px" y="0px"
	 viewBox="0 0 171 171" enable-background="new 0 0 171 171" xml:space="preserve">
<circle id="XMLID_7_" fill="#F0F7F8" cx="85.5" cy="85.5" r="76"/>
<g id="XMLID_4_" opacity="0.5">
	
		<circle fill="none" stroke="#2A86A0" stroke-width="2" stroke-linecap="round" stroke-miterlimit="10" stroke-dasharray="6.005,6.005" cx="85.5" cy="85.5" r="84.1"/>
</g>
<g>
	
		<ellipse transform="matrix(6.346147e-03 -1 1 6.346147e-03 32.4098 144.0731)" fill="#253355" cx="88.7" cy="55.7" rx="19.2" ry="17"/>
	<g>
		<path fill="#253355" d="M59.4,110.4l-1.6,0.5c-0.1,0-0.3,0-0.3-0.1L41.9,64c0-0.1,0-0.3,0.1-0.3l1.6-0.5c0.1,0,0.3,0,0.3,0.1
			l15.7,46.8C59.6,110.3,59.5,110.4,59.4,110.4z"/>
		<path fill="#253355" d="M124.9,101.1c0.1-0.9,0.2-1.9,0.2-3c0.1-12.2-8.9-22.3-20.6-24c0,0-0.1,0-0.1,0c-0.3,0-0.7-0.1-1-0.1
			c0,0,0,0.1,0,0.1c0,0.1,0,0.2,0,0.3c-0.1,0.6-0.2,1.1-0.5,1.6c-1.6,4.1-6.6,11.4-10.1,16.3l-1,0.2l-0.6-8.9c1-0.5,1.8-1.3,2.4-2.3
			c0.4-0.7,0.6-1.5,0.6-2.2c0,0-2.5,1.1-5.1,1.1c-0.1,0-0.3,0-0.4,0c-0.1,0-0.3,0-0.4,0c-2.6,0-5.1-1.1-5.1-1.1
			c0,0.8,0.2,1.5,0.6,2.2c0.5,1,1.4,1.8,2.4,2.3l-0.7,8.9l-1-0.2c-3.4-4.9-8.3-12.4-9.8-16.4c-0.3-0.5-0.4-1.1-0.5-1.6
			c0-0.1,0-0.2,0-0.3c0,0,0-0.1,0-0.1c-0.3,0-0.7,0.1-1,0.1c0,0-0.1,0-0.1,0c-11.7,1.6-20.8,11.5-20.9,23.7c0,1.1,0.1,2.1,0.2,3
			c-2.5,1.4-4.3,4-4.3,7.1l0,5.2c0,4.1,3,7.5,7,8.1c0.1,4.2,3.5,7.7,7.8,7.8l23.9,5.2l1.6,0.4l1.6-0.3l24-4.9
			c4.3-0.1,7.7-3.5,7.9-7.7c4-0.5,7.1-3.9,7.1-8l0-5.2C129.2,105.2,127.5,102.5,124.9,101.1z M86.9,130.8l-23.6-5.1l-0.2,0
			c-2.6,0-4.7-2-4.8-4.6c4-0.5,7.1-3.9,7.1-8l0-5.2c0-4.1-3-7.5-7-8.1l0-4c0-2.6,2.1-4.7,4.7-4.8l23.9,5.2L86.9,130.8L86.9,130.8z
			 M118.9,100.2c-4,0.5-7.1,3.9-7.1,8l0,5.2c0,4.1,3,7.5,7,8.1c-0.2,2.5-2.3,4.5-4.8,4.5l-0.2,0l-23.6,4.8l0.2-34.6l24-4.9
			c2.6,0.1,4.7,2.2,4.6,4.9L118.9,100.2L118.9,100.2z"/>
	</g>
</g>
</svg>
