<?xml version="1.0" encoding="utf-8"?>
<!-- Generator: Adobe Illustrator 22.1.0, SVG Export Plug-In . SVG Version: 6.00 Build 0)  -->
<svg version="1.1" id="Layer_1" xmlns="http://www.w3.org/2000/svg" xmlns:xlink="http://www.w3.org/1999/xlink" x="0px" y="0px"
	 viewBox="0 0 171 171" enable-background="new 0 0 171 171" xml:space="preserve">
<circle id="XMLID_25_" fill="#F6FAF3" cx="85.5" cy="85.5" r="76"/>
<g id="XMLID_14_" opacity="0.5">
	
		<circle fill="none" stroke="#009640" stroke-width="2" stroke-linecap="round" stroke-miterlimit="10" stroke-dasharray="6.005,6.005" cx="85.5" cy="85.5" r="84.1"/>
</g>
<path fill="none" d="M91.1,86c0-3.1-2.5-5.6-5.6-5.6c-3.1,0-5.6,2.5-5.6,5.6s2.5,5.6,5.6,5.6C88.6,91.6,91.1,89.1,91.1,86z"/>
<g>
	<path fill="#253355" d="M63.1,43.7l1.7,0.7l-0.1,1.1c-0.6,0.1-1.1,0.7-1.1,1.3c0,0.6,0.4,1.1,0.9,1.3l-1,14.3
		c0,0.6,0.1,1.5,0.3,2.1l0.8,2.5c0.2,0.6,0.5,0.6,0.7,0l0.8-2.5c0.2-0.6,0.3-1.5,0.3-2.1l-1-14.3c0.5-0.2,0.9-0.7,0.9-1.3
		c0-0.7-0.5-1.2-1.1-1.3l-0.1-1l3.9,1.7l1.9,0.8V54c-0.2,0.8-0.4,1.6-0.5,2.4c-0.1,0.9-0.2,1.9-0.2,2.9c0,0.4,0,0.8,0,1.2
		c0,0.6,0.1,1.1,0.2,1.7c0,0.2,0,0.3,0,0.5c1.1,12.8,8.6,22.8,17.7,22.8s16.6-9.9,17.7-22.8c0-0.2,0-0.3,0-0.5
		c0.1-0.6,0.1-1.1,0.2-1.7c0-0.4,0-0.8,0-1.2c0-1-0.1-1.9-0.2-2.9c-0.1-0.8-0.3-1.6-0.5-2.4V47l1.9-0.8l5.7-2.5
		c1.5-0.7,1.5-1.7,0-2.4l-22.2-9.6c-1.5-0.7-4-0.7-5.5,0l-22.2,9.6C61.6,42,61.6,43.1,63.1,43.7z M74.7,56.1l2.3,1l8.3,3.6
		c1.5,0.6,4,0.6,5.5,0l8.3-3.6l2.3-1c0.5,3.5-0.3,7.9-0.3,7.9c0.9-0.7,1.8-1,2.5-1.2C102.5,74,96,82.6,88,82.6
		c-8,0-14.5-8.6-15.6-19.9c0.7,0.2,1.6,0.5,2.5,1.2C74.9,63.9,74.2,59.6,74.7,56.1z"/>
	<path fill="#253355" d="M123.9,109.5c0.1-0.9,0.2-1.9,0.2-2.9c0-12-8.9-22-20.5-23.6c0,0-0.1,0-0.1,0c-0.3,0-0.7-0.1-1-0.1
		c0,0,0,0.1,0,0.1c0,0.1,0,0.2,0,0.3c-0.1,0.6-0.2,1.1-0.5,1.6c-1.6,4-6.5,11.4-9.8,16.2l-1,0.2l-0.6-8.8c1-0.5,1.8-1.3,2.3-2.3
		c0.4-0.7,0.6-1.4,0.6-2.2c0,0-2.5,1.1-5,1.1c-0.1,0-0.3,0-0.4,0c-0.1,0-0.3,0-0.4,0c-2.5,0-5-1.1-5-1.1c0,0.8,0.2,1.5,0.6,2.2
		c0.5,1,1.4,1.8,2.3,2.3l-0.6,8.8l-1-0.2c-3.4-4.8-8.2-12.2-9.8-16.2c-0.3-0.5-0.4-1.1-0.5-1.6c0-0.1,0-0.2,0-0.3c0,0,0-0.1,0-0.1
		c-0.3,0-0.7,0.1-1,0.1c0,0-0.1,0-0.1,0c-11.6,1.6-20.5,11.6-20.5,23.6c0,1.1,0.1,2,0.2,2.9c-2.5,1.4-4.2,4-4.2,7.1v5.2
		c0,4.1,3.1,7.5,7,8c0.1,4.2,3.6,7.6,7.8,7.7l23.7,5l1.6,0.3l1.6-0.3l23.7-5c4.2-0.1,7.6-3.5,7.8-7.7c3.9-0.5,7-3.9,7-8v-5.2
		C128.1,113.5,126.4,110.9,123.9,109.5z M86.4,139.1L63,134.2h-0.2c-2.5,0-4.6-2-4.8-4.5c3.9-0.5,7-3.9,7-8v-5.2c0-4.1-3-7.4-7-8v-4
		c0-2.6,2.1-4.7,4.6-4.8l23.7,5L86.4,139.1L86.4,139.1z M117.9,108.6c-3.9,0.5-7,3.9-7,8v5.2c0,4.1,3,7.4,7,8
		c-0.1,2.5-2.2,4.5-4.8,4.5H113l-23.4,4.9v-34.2l23.7-5c2.6,0.1,4.6,2.2,4.6,4.8L117.9,108.6L117.9,108.6z"/>
</g>
</svg>
