<svg xmlns="http://www.w3.org/2000/svg" width="28.775" height="29.272" viewBox="0 0 28.775 29.272">
    <defs>
        <style>
            .cls-1{fill:#b7202e;stroke:#b7202e;stroke-width:.5px}
        </style>
    </defs>
    <g id="Group_8045" data-name="Group 8045" transform="translate(.25 .25)">
        <path id="Path_16961" d="M57.088 57.722q-1.711-1.086-3.412-2.186l-1.386-.892a2.305 2.305 0 0 0-2.935.261l-1.435 1.353c-.078.073-.109.072-.182.054a5.9 5.9 0 0 1-1.827-.956 18.349 18.349 0 0 1-3.511-3.324 20.053 20.053 0 0 1-1.7-2.323 8.484 8.484 0 0 1-.623-1.328l-.207-.5c-.033-.076-.058-.136.114-.289.467-.415.929-.839 1.368-1.282a2.071 2.071 0 0 0 .4-2.426c-.9-1.9-1.806-3.793-2.736-5.676a2.523 2.523 0 0 0-.822-.911 1.651 1.651 0 0 0-2.1.329l-1.2 1.113c-.8.748-1.6 1.5-2.419 2.229a3.478 3.478 0 0 0-1.2 2.658 12.162 12.162 0 0 0 .594 3.724 22.353 22.353 0 0 0 3.178 6.3 37.052 37.052 0 0 0 4.066 4.787 26.389 26.389 0 0 0 7.417 5.412 12.2 12.2 0 0 0 3.528 1.168c.225.034.448.075.672.115l.331.06a.627.627 0 0 0 .068.008l.8.015.167-.033c.149-.028.3-.057.445-.1a3.23 3.23 0 0 0 1.348-.766l1.279-1.179c.813-.748 1.626-1.5 2.43-2.254a2.794 2.794 0 0 0 .464-.627c.047-.078.093-.156.143-.229a.521.521 0 0 0 .089-.27l.018-.465a.533.533 0 0 0-.025-.18 2.619 2.619 0 0 0-1.199-1.39zm.19 1.847c-.031.049-.061.1-.091.15a2.009 2.009 0 0 1-.287.407c-.8.756-1.611 1.5-2.42 2.245l-1.28 1.182a2.177 2.177 0 0 1-.918.529c-.121.033-.244.056-.368.079l-.058.025-.638-.023-.291-.053c-.234-.042-.468-.085-.7-.12a11.192 11.192 0 0 1-3.233-1.077 25.349 25.349 0 0 1-7.127-5.2 36.135 36.135 0 0 1-3.967-4.655 21.384 21.384 0 0 1-3.04-6.007 11.171 11.171 0 0 1-.551-3.412 2.47 2.47 0 0 1 .861-1.911c.82-.737 1.626-1.489 2.432-2.242l1.193-1.11c.116-.107.52-.44.819-.237a1.483 1.483 0 0 1 .482.519c.928 1.879 1.829 3.771 2.753 5.713a1.035 1.035 0 0 1-.223 1.212c-.423.429-.869.836-1.32 1.238a1.213 1.213 0 0 0-.377 1.46l.2.485a9.394 9.394 0 0 0 .7 1.489 21.022 21.022 0 0 0 1.79 2.445 19.271 19.271 0 0 0 3.709 3.5 6.8 6.8 0 0 0 2.154 1.1 1.174 1.174 0 0 0 1.143-.3l1.434-1.351a1.287 1.287 0 0 1 1.675-.147l1.385.891q1.706 1.1 3.417 2.191a1.739 1.739 0 0 1 .749.753z" class="cls-1" data-name="Path 16961" transform="translate(-31.282 -36.433)"/>
        <path id="Path_16962" d="M236.37 32.628a16.219 16.219 0 0 0-11.313-5.305.514.514 0 1 0-.048 1.027 15.3 15.3 0 0 1 14.582 15.983.514.514 0 0 0 .49.537h.024a.514.514 0 0 0 .513-.49 16.216 16.216 0 0 0-4.248-11.752z" class="cls-1" data-name="Path 16962" transform="translate(-212.363 -27.32)"/>
        <path id="Path_16963" d="M221.635 101.894a10.668 10.668 0 0 1 10.165 11.145.513.513 0 0 0 .49.537h.024a.514.514 0 0 0 .513-.49 11.695 11.695 0 0 0-11.147-12.219.514.514 0 1 0-.048 1.027z" class="cls-1" data-name="Path 16963" transform="translate(-209.201 -96.24)"/>
        <path id="Path_16964" d="M218.272 175.4a6.046 6.046 0 0 1 5.756 6.309.514.514 0 0 0 .49.537h.024a.514.514 0 0 0 .513-.49 7.075 7.075 0 0 0-6.736-7.384.514.514 0 1 0-.048 1.027z" class="cls-1" data-name="Path 16964" transform="translate(-206.05 -165.119)"/>
    </g>
</svg>
