<svg xmlns="http://www.w3.org/2000/svg" id="prefix__noun_Email_32727" width="28.273" height="26.582" viewBox="0 0 28.273 26.582">
    <path id="prefix__Path_16965" fill="#b7202e" d="M13.57 24.564l5.692 4.727-.013.011zm5.685 3.608l-5.14-4.272 5.129 4.278zm14.018-11.155v17.256H5V17.015l3.023-1.981V10.3h7.216l3.987-2.613 3.936 2.613h7.086V15zm-3.024 1.867l1.884-1.6-1.884-1.251zM16.8 10.3h4.812l-2.39-1.583zm-7.921 9.237l5.236 4.363 5.129 4.278.011-.01 10.137-8.633v-8.374H8.879v8.376zm-2.731-2.249l1.875 1.557v-2.786zm26.268.883L19.273 29.3l-.011-.009-5.692-4.727-7.713-6.4v15.252h26.56V18.171zm-13.343 5.46a4.03 4.03 0 0 1-4.1-4.224 4.951 4.951 0 0 1 4.942-5.2 3.76 3.76 0 0 1 3.939 3.912c0 2.031-1.138 3.223-2.41 3.223a1 1 0 0 1-1-1.192h-.054a2.128 2.128 0 0 1-1.909 1.192 1.536 1.536 0 0 1-1.462-1.706 3.2 3.2 0 0 1 3.209-3.208 3.567 3.567 0 0 1 1.448.284l-.46 2.45c-.2 1.029-.041 1.5.406 1.516.69.014 1.462-.907 1.462-2.478a3.1 3.1 0 0 0-3.284-3.369c-2.207 0-4.061 1.747-4.061 4.494a3.382 3.382 0 0 0 3.479 3.655 4.223 4.223 0 0 0 2.044-.474l.217.582a4.936 4.936 0 0 1-2.406.543zm1.665-6.391a2.353 2.353 0 0 0-.677-.095 2.327 2.327 0 0 0-2.152 2.437c0 .6.3 1.029.894 1.029.785 0 1.5-1 1.651-1.841z" data-name="Path 16965" transform="translate(-5 -7.691)"/>
</svg>
